<?xml version="1.0" standalone="no"?>
<!DOCTYPE svg PUBLIC "-//W3C//DTD SVG 1.1//EN" "http://www.w3.org/Graphics/SVG/1.1/DTD/svg11.dtd" >
<svg xmlns="http://www.w3.org/2000/svg" xmlns:xlink="http://www.w3.org/1999/xlink" version="1.1">
<metadata>
Created by FontForge 20170731 at Mon Aug  3 21:24:25 2020
 By Aleksey,,,
Copyright (c) 2018 by Typetype. Designer Ivan Gladkikh, technical designers Philipp Nurullin, Vika Usmanova, Nadyr Rakhimov, Marina Khodak. All rights reserved.
</metadata>
<defs>
<font id="TTFirsNeue-DemiBold" horiz-adv-x="1187" >
  <font-face 
    font-family="TT Firs Neue DemiBold"
    font-weight="600"
    font-stretch="normal"
    units-per-em="2048"
    panose-1="2 0 5 3 3 0 0 2 0 4"
    ascent="1638"
    descent="-410"
    x-height="1044"
    cap-height="1434"
    bbox="-922 -686 2945 2120"
    underline-thickness="102"
    underline-position="-409"
    unicode-range="U+000D-FB02"
  />
<missing-glyph horiz-adv-x="0" 
 />
    <glyph glyph-name="ff" unicode="ff" horiz-adv-x="1402" 
d="M31 778v246h133v410h553v-246h-266v-164h378v410h584v-246h-297v-164h236v-246h-236v-778h-287v778h-378v-778h-287v778h-133z" />
    <glyph glyph-name="fi" unicode="fi" horiz-adv-x="1228" 
d="M31 778v246h133v410h778v-246h-491v-164h665v-1024h-287v778h-378v-778h-287v778h-133z" />
    <glyph glyph-name="fl" unicode="fl" horiz-adv-x="1372" 
d="M31 778v246h133v410h952v-1188h236v-246h-523v1188h-378v-164h235v-246h-235v-778h-287v778h-133z" />
    <glyph glyph-name="f_t" unicode="ft" horiz-adv-x="1474" 
d="M31 778v246h133v410h952v-410h295v-246h-295v-532h307v-246h-594v778h-378v-778h-287v778h-133zM451 1024h378v164h-378v-164z" />
    <glyph glyph-name="f_j" unicode="fj" horiz-adv-x="1228" 
d="M31 778v246h133v410h778v-246h-491v-164h665v-1413h-573v235h286v932h-378v-778h-287v778h-133z" />
    <glyph glyph-name=".notdef" horiz-adv-x="0" 
 />
    <glyph glyph-name=".null" horiz-adv-x="0" 
 />
    <glyph glyph-name=".null" horiz-adv-x="0" 
 />
    <glyph glyph-name="nonmarkingreturn" horiz-adv-x="682" 
 />
    <glyph glyph-name="CR" unicode="&#xd;" horiz-adv-x="0" 
 />
    <glyph glyph-name="space" unicode=" " horiz-adv-x="573" 
 />
    <glyph glyph-name="exclam" unicode="!" horiz-adv-x="593" 
d="M154 758v676h286v-676l-51 -307h-184zM133 133q0 69 47.5 116.5t116.5 47.5t116.5 -47.5t47.5 -116.5t-47.5 -116.5t-116.5 -47.5t-116.5 47.5t-47.5 116.5z" />
    <glyph glyph-name="quotedbl" unicode="&#x22;" horiz-adv-x="921" 
d="M532 1137v297h267v-297l-41 -205h-185zM123 1137v297h266v-297l-41 -205h-184z" />
    <glyph glyph-name="numbersign" unicode="#" horiz-adv-x="1433" 
d="M51 348v225h246l82 287h-205v225h266l103 349h256l-103 -349h246l102 349h256l-102 -349h184v-225h-245l-82 -287h205v-225h-267l-102 -348h-256l102 348h-245l-103 -348h-256l103 348h-185zM553 573h246l82 287h-246z" />
    <glyph glyph-name="dollar" unicode="$" horiz-adv-x="1351" 
d="M51 451h318q2 -9 7 -23.5t29 -51.5t56.5 -65.5t95 -51.5t139.5 -23q139 0 203 44.5t64 118.5q0 42 -29 74t-78.5 53.5t-113 39t-134 36t-141 40t-134 55t-113 77t-78.5 110t-29 150.5q0 162 117.5 283t322.5 149v193h287v-203q76 -17 140.5 -49t106.5 -70.5t75 -81
t50.5 -81.5t29 -70.5t14.5 -50.5l4 -19h-318q-1 7 -4.5 18t-22 39t-45.5 50t-81 39.5t-123 17.5q-116 0 -176 -44t-60 -110q0 -42 29 -74t78.5 -53.5t113 -39t134 -36t141 -40t134 -54.5t113 -76.5t78.5 -110t29 -150.5q0 -163 -115.5 -285.5t-324.5 -155.5v-194h-287v196
q-89 15 -164.5 49.5t-125.5 78t-89.5 92.5t-62 94.5t-37 83t-18.5 59.5z" />
    <glyph glyph-name="percent" unicode="%" horiz-adv-x="1628" 
d="M72 1106q0 146 101 247t247 101t247 -101t101 -247t-101 -247t-247 -101t-247 101t-101 247zM266 0l860 1434h236l-860 -1434h-236zM276 1106q0 -61 41 -102t103 -41t102.5 40.5t40.5 102.5t-40.5 102.5t-102.5 40.5t-103 -41t-41 -102zM860 328q0 146 101 247t247 101
t247 -101t101 -247t-101 -247t-247 -101t-247 101t-101 247zM1065 328q0 -62 41 -103t102 -41q62 0 103 41t41 103q0 61 -41 102t-103 41t-102.5 -40.5t-40.5 -102.5z" />
    <glyph glyph-name="ampersand" unicode="&#x26;" horiz-adv-x="1525" 
d="M31 471q0 136 70.5 254t193 188t266.5 70q15 0 31 -2.5t24 -4.5l9 -3v10l-93 51l-92 144v256h932v-267h-573v-10l768 -1157h-348l-144 195v122h-10q-2 -60 -39.5 -123.5t-99 -115.5t-152.5 -85.5t-190 -33.5q-158 0 -285 69t-197.5 186t-70.5 257zM348 481
q0 -115 69 -185.5t177 -70.5t177 70.5t69 185.5t-69 185.5t-177 70.5t-177 -70.5t-69 -185.5z" />
    <glyph glyph-name="quotesingle" unicode="'" horiz-adv-x="512" 
d="M123 1137v297h266v-297l-41 -205h-184z" />
    <glyph glyph-name="parenleft" unicode="(" horiz-adv-x="798" 
d="M113 594q0 125 28 246t73.5 214t100 176t109 141t100 101t73.5 64l28 20l143 -204q-8 -6 -21 -17.5t-51.5 -50.5t-73.5 -82t-77.5 -111.5t-73 -140t-51.5 -166t-21 -190.5q0 -76 12.5 -150t34 -135.5t49 -120t58.5 -104.5t61.5 -86.5t58 -69.5t49 -50t34.5 -32l12 -10
l-143 -205q-11 7 -29.5 21t-71.5 62.5t-101.5 102.5t-107.5 140t-101.5 177.5t-71.5 213t-29 246.5z" />
    <glyph glyph-name="parenright" unicode=")" horiz-adv-x="798" 
d="M31 -164q8 6 21 17.5t51.5 50.5t73 82t77 111.5t73 140t51.5 166t21 190.5t-20.5 190t-53 167t-71.5 139t-78 112.5t-71.5 81t-52.5 51.5l-21 17l143 204q11 -7 29.5 -21t71.5 -62t101.5 -102t107.5 -140.5t101.5 -177.5t71.5 -212.5t29 -246.5q0 -99 -17.5 -194.5
t-47 -174.5t-68 -153t-81 -132.5t-85 -109t-81 -86.5t-68 -62t-46.5 -38l-18 -13z" />
    <glyph glyph-name="asterisk" unicode="*" horiz-adv-x="819" 
d="M92 1044v185h225v205h185v-205h225v-185h-174l133 -194l-154 -102l-122 204l-123 -204l-154 102l133 194h-174z" />
    <glyph glyph-name="plus" unicode="+" horiz-adv-x="1085" 
d="M113 481v246h307v317h246v-317h307v-246h-307v-317h-246v317h-307z" />
    <glyph glyph-name="comma" unicode="," horiz-adv-x="471" 
d="M72 133q0 69 47.5 116.5t116.5 47.5q73 0 118 -57t45 -168q0 -173 -83 -266t-224 -93v123q68 0 106 35.5t38 97.5v21q-10 -10 -41 -10q-48 0 -85.5 43.5t-37.5 109.5z" />
    <glyph glyph-name="hyphen" unicode="-" horiz-adv-x="993" 
d="M113 430v246h768v-246h-768z" />
    <glyph glyph-name="period" unicode="." horiz-adv-x="471" 
d="M72 133q0 69 47.5 116.5t116.5 47.5t116 -47.5t47 -116.5t-47 -116.5t-116 -47.5t-116.5 47.5t-47.5 116.5z" />
    <glyph glyph-name="slash" unicode="/" horiz-adv-x="839" 
d="M0 0l543 1434h297l-543 -1434h-297z" />
    <glyph glyph-name="zero" unicode="0" horiz-adv-x="1556" 
d="M82 717q0 133 35 251.5t98.5 210.5t149.5 159t191.5 102t221.5 35q145 0 273 -55.5t221.5 -153.5t148 -240.5t54.5 -308.5t-54.5 -308.5t-148 -240.5t-221.5 -153.5t-273 -55.5q-116 0 -221.5 35t-191.5 102t-149.5 159t-98.5 210.5t-35 251.5zM410 717
q0 -230 100.5 -350.5t267.5 -120.5q168 0 268.5 120.5t100.5 350.5t-100.5 350.5t-268.5 120.5q-167 0 -267.5 -120.5t-100.5 -350.5z" />
    <glyph glyph-name="one" unicode="1" horiz-adv-x="757" 
d="M61 891v338l277 205h276v-1434h-307v1075z" />
    <glyph glyph-name="two" unicode="2" horiz-adv-x="1269" 
d="M72 0v287l481 317q174 116 240.5 195.5t66.5 183.5q0 94 -59.5 149.5t-165.5 55.5q-46 0 -85 -11.5t-64 -29.5t-45 -39.5t-31 -43.5t-18 -40t-9 -30l-2 -11h-320q1 10 4 28t18.5 69t38.5 97.5t68 103t102.5 97.5t146.5 69t196 28q165 0 292 -65t194 -174.5t67 -242.5
q0 -95 -22 -169t-74.5 -140t-119.5 -121.5t-177 -128.5l-160 -106l-103 -41v-11l134 11h522v-287h-1116z" />
    <glyph glyph-name="three" unicode="3" horiz-adv-x="1290" 
d="M51 430h318q2 -7 6 -19.5t23.5 -44.5t47 -56t80.5 -44t119 -20q126 0 196 58t70 147q0 95 -62.5 149.5t-182.5 54.5h-349v226l379 256v10h-573v287h1014v-287l-379 -236l-21 -8v-12h51q185 0 313 -128t128 -312q0 -100 -41.5 -189.5t-115.5 -156.5t-185 -106.5
t-242 -39.5q-85 0 -160 16t-129.5 43.5t-100.5 62.5t-76.5 74.5t-54.5 78.5t-37.5 74t-22 62.5t-10.5 43.5z" />
    <glyph glyph-name="four" unicode="4" horiz-adv-x="1290" 
d="M41 266v277l481 891h338l-481 -881h399v328h21h286v-328h195v-287h-195v-266h-307v266h-737z" />
    <glyph glyph-name="five" unicode="5" horiz-adv-x="1320" 
d="M82 420h317q2 -7 6 -19t24 -42t47.5 -52.5t80.5 -41.5t119 -19q120 0 188 60t68 155q0 102 -67.5 163.5t-188.5 61.5q-49 0 -90 -9.5t-65 -23t-40.5 -27t-22.5 -22.5l-7 -10h-318l62 840h942v-287h-676l-21 -287h11l11 11t33.5 25t56.5 31.5t80 24.5t105 11
q109 0 206.5 -40t166.5 -107.5t109.5 -160t40.5 -194.5q0 -103 -41.5 -194.5t-116 -160t-185 -108t-241.5 -39.5q-109 0 -200 25.5t-150.5 66t-106 89.5t-71.5 98.5t-41 90t-21 65.5z" />
    <glyph glyph-name="six" unicode="6" horiz-adv-x="1320" 
d="M61 485q0 72 20 144.5t58.5 143.5t76 126.5t91.5 124.5l318 410h348l-318 -410l-92 -72v-10q7 5 20.5 11.5t61 18t103.5 11.5q134 0 249.5 -66t183.5 -181.5t68 -254.5q0 -107 -43 -202.5t-119.5 -166t-188.5 -112t-243 -41.5q-175 0 -311.5 71t-209.5 190.5t-73 264.5z
M389 481q0 -102 72.5 -168.5t193.5 -66.5t194 66.5t73 168.5t-73 169t-194 67t-193.5 -67t-72.5 -169z" />
    <glyph glyph-name="seven" unicode="7" horiz-adv-x="1126" 
d="M41 1147v287h1044v-287l-563 -1147h-338l553 1126v21h-696z" />
    <glyph glyph-name="eight" unicode="8" horiz-adv-x="1372" 
d="M72 399q0 61 16.5 113t42.5 86.5t57.5 62.5t63.5 43.5t58 26t42 13.5l17 4v20q-5 1 -13.5 4.5t-33 15.5t-47 26.5t-49.5 40.5t-46.5 56t-33 73t-13.5 91q0 78 37 149t104.5 127.5t174.5 90t237 33.5t237 -33.5t174.5 -90t104.5 -127.5t37 -149q0 -48 -13 -91t-33.5 -73
t-45.5 -55.5t-50.5 -41t-46 -26.5t-33.5 -16l-13 -4v-20q6 -1 16.5 -3.5t41.5 -14t59 -26.5t62 -43t58.5 -62.5t41.5 -86.5t17 -113q0 -86 -40.5 -164t-116 -140t-194 -99t-263.5 -37t-263.5 37t-194 99t-116 140t-40.5 164zM461 1034q0 -66 57.5 -109.5t167.5 -43.5
t167.5 43.5t57.5 109.5t-57.5 110t-167.5 44t-167.5 -44t-57.5 -110zM399 430q0 -82 70.5 -133t216.5 -51t216.5 51t70.5 133t-70.5 133t-216.5 51t-216.5 -51t-70.5 -133z" />
    <glyph glyph-name="nine" unicode="9" horiz-adv-x="1320" 
d="M72 952q0 107 43 202.5t119.5 166.5t188.5 112.5t243 41.5q175 0 311.5 -71t209.5 -191t73 -265q0 -72 -20 -144.5t-58.5 -143t-76 -126t-91.5 -124.5l-318 -410h-348l318 410l92 71v11q-7 -5 -20.5 -11.5t-61 -18t-103.5 -11.5q-101 0 -193 39t-159.5 105t-108 159.5
t-40.5 197.5zM399 952q0 -102 73 -168.5t194 -66.5t193.5 66.5t72.5 168.5t-72.5 169t-193.5 67t-194 -67t-73 -169z" />
    <glyph glyph-name="colon" unicode=":" horiz-adv-x="471" 
d="M72 133q0 69 47.5 116.5t116.5 47.5t116 -47.5t47 -116.5t-47 -116.5t-116 -47.5t-116.5 47.5t-47.5 116.5zM72 905q0 69 47.5 116.5t116.5 47.5t116 -47.5t47 -116.5t-47 -116.5t-116 -47.5t-116.5 47.5t-47.5 116.5z" />
    <glyph glyph-name="semicolon" unicode=";" horiz-adv-x="471" 
d="M72 133q0 69 47.5 116.5t116.5 47.5q73 0 118 -57t45 -168q0 -173 -83 -266t-224 -93v123q68 0 106 35.5t38 97.5v21q-10 -10 -41 -10q-48 0 -85.5 43.5t-37.5 109.5zM72 905q0 69 47.5 116.5t116.5 47.5t116 -47.5t47 -116.5t-47 -116.5t-116 -47.5t-116.5 47.5
t-47.5 116.5z" />
    <glyph glyph-name="less" unicode="&#x3c;" horiz-adv-x="1085" 
d="M113 389v277l850 389v-246l-594 -272v-19l594 -272v-246z" />
    <glyph glyph-name="equal" unicode="=" horiz-adv-x="1085" 
d="M143 635v235h799v-235h-799zM143 236v235h799v-235h-799z" />
    <glyph glyph-name="greater" unicode="&#x3e;" horiz-adv-x="1085" 
d="M123 0v246l594 272v19l-594 272v246l850 -389v-277z" />
    <glyph glyph-name="question" unicode="?" horiz-adv-x="1177" 
d="M20 1014q2 10 5.5 26.5t20.5 64.5t40.5 91.5t69 96.5t101.5 91.5t141.5 64.5t185.5 26q119 0 220.5 -35.5t169 -95.5t105 -137.5t37.5 -162.5q0 -77 -22.5 -137.5t-58.5 -99.5t-80 -71t-87.5 -59.5t-79.5 -57t-58.5 -72t-22.5 -96.5h-297q0 79 21.5 142t56 103t76 73
t82.5 59.5t75.5 54t56 65.5t21.5 86q0 66 -58 110t-168 44q-57 0 -103.5 -18t-71.5 -43.5t-42 -51t-22 -43.5l-6 -18h-308zM389 133q0 69 47.5 116.5t116.5 47.5t116.5 -47.5t47.5 -116.5t-47.5 -116.5t-116.5 -47.5t-116.5 47.5t-47.5 116.5z" />
    <glyph glyph-name="at" unicode="@" horiz-adv-x="1658" 
d="M72 645q0 167 60 313.5t165 250.5t252.5 164.5t316.5 60.5q165 0 307 -53t235.5 -140.5t146.5 -200t53 -231.5q0 -222 -133 -357t-349 -135h-163v103h-11q-2 -5 -5.5 -12.5t-18 -27t-33.5 -34.5t-53 -27t-74 -12q-120 0 -203.5 96t-83.5 252q0 157 83.5 253t203.5 96
q40 0 73.5 -11.5t53 -28t33.5 -33.5t19 -29l5 -11h11v92h225v-471q90 0 147.5 75t57.5 222q0 81 -36.5 158t-102 137.5t-167 97.5t-221.5 37q-251 0 -415 -167t-164 -427q0 -261 161 -422.5t422 -161.5q60 0 121.5 10t105.5 23.5t80 27.5t54 24l18 10v-197
q-18 -10 -51.5 -25.5t-132.5 -41t-195 -25.5q-170 0 -318.5 60t-253.5 163.5t-165.5 247.5t-60.5 307zM717 655q0 -68 34 -105.5t89 -37.5t89 37.5t34 105.5t-34 106t-89 38t-89 -38t-34 -106z" />
    <glyph glyph-name="A" unicode="A" horiz-adv-x="1423" 
d="M10 0l379 1434h645l379 -1434h-317l-82 317h-604l-82 -317h-318zM481 604h461l-143 543h-174z" />
    <glyph glyph-name="B" unicode="B" horiz-adv-x="1454" 
d="M133 0v1434h737q216 0 338.5 -104.5t122.5 -264.5q0 -50 -12.5 -93.5t-32.5 -73t-44 -53.5t-47.5 -38t-43.5 -23t-33 -12l-12 -4v-10q6 -1 16 -3t38.5 -12t54.5 -24t58 -41t55 -60.5t38.5 -85t15.5 -112.5q0 -184 -138 -302t-384 -118h-727zM440 870h389q89 0 137 40
t48 104t-48 103.5t-137 39.5h-389v-287zM440 276h400q111 0 168 45.5t57 118.5t-57 118.5t-168 45.5h-400v-328z" />
    <glyph glyph-name="C" unicode="C" horiz-adv-x="1658" 
d="M72 717q0 159 59 299.5t162 241t250 159t317 58.5q99 0 186.5 -18.5t153 -50t121.5 -72t95 -85.5t70 -90.5t49.5 -86t30.5 -72t16 -50.5l5 -18h-317q-2 5 -5.5 14.5t-18.5 36t-34 50.5t-53 53.5t-74 51t-99 36t-126 14.5q-200 0 -330.5 -132.5t-130.5 -338.5
q0 -214 126.5 -342.5t334.5 -128.5q69 0 129.5 16t102 41t75.5 55.5t54.5 61t34 55.5t18.5 41l6 16h317q-3 -12 -9 -32.5t-31.5 -80t-59 -114t-94 -120.5t-133 -113.5t-180 -80t-230.5 -32.5q-170 0 -317 58.5t-250 159t-162 241t-59 299.5z" />
    <glyph glyph-name="D" unicode="D" horiz-adv-x="1505" 
d="M133 0v1434h522q169 0 315.5 -56t247.5 -152.5t158.5 -228.5t57.5 -280t-57.5 -280t-158.5 -228.5t-247.5 -152.5t-315.5 -56h-522zM440 287h215q213 0 337 118t124 312t-124 312t-337 118h-215v-860z" />
    <glyph glyph-name="E" unicode="E" horiz-adv-x="1290" 
d="M133 0v1434h1075v-287h-768v-287h615v-266h-615v-307h768v-287h-1075z" />
    <glyph glyph-name="F" unicode="F" horiz-adv-x="1228" 
d="M133 0v1434h1045v-287h-738v-348h574v-277h-574v-522h-307z" />
    <glyph glyph-name="G" unicode="G" horiz-adv-x="1771" 
d="M72 717q0 159 59 299.5t162 241t250 159t317 58.5q99 0 186.5 -18t153 -49t121.5 -71t95 -84.5t70 -88.5t49.5 -84t30.5 -71t16 -49l5 -18h-317q-2 5 -5.5 14t-18.5 34.5t-34 48.5t-53 51.5t-74 49t-99 34.5t-126 14q-205 0 -333 -130.5t-128 -340.5q0 -214 126.5 -342.5
t334.5 -128.5q69 0 129.5 15t102 39.5t75.5 54t54.5 59t34 54t18.5 39.5l6 15h-225v256h706v-256h-164q-3 -12 -9 -32t-31.5 -78.5t-59 -112t-94 -118.5t-133 -111.5t-180 -78.5t-230.5 -32q-170 0 -317 58.5t-250 159t-162 241t-59 299.5z" />
    <glyph glyph-name="H" unicode="H" horiz-adv-x="1515" 
d="M133 0v1434h307v-564h635v564h307v-1434h-307v584h-635v-584h-307z" />
    <glyph glyph-name="I" unicode="I" horiz-adv-x="573" 
d="M133 0v1434h307v-1434h-307z" />
    <glyph glyph-name="J" unicode="J" horiz-adv-x="1177" 
d="M0 328l297 61q2 -7 5.5 -18t20 -39t38.5 -50t62 -39.5t89 -17.5q109 0 172.5 67.5t63.5 188.5v953h307v-953q0 -253 -144.5 -397.5t-398.5 -144.5q-67 0 -128 13.5t-106.5 36t-85 51.5t-67 61.5t-50 64.5t-36 61t-23 51.5t-12.5 35.5z" />
    <glyph glyph-name="K" unicode="K" horiz-adv-x="1402" 
d="M133 0v1434h307v-564h205l389 564h348l-471 -686l502 -748h-358l-400 584h-215v-584h-307z" />
    <glyph glyph-name="L" unicode="L" horiz-adv-x="1167" 
d="M133 0v1434h307v-1147h707v-287h-1014z" />
    <glyph glyph-name="M" unicode="M" horiz-adv-x="1925" 
d="M133 0v1434h461l348 -820h51l348 820h461v-1434h-307v911l21 185h-21l-328 -768h-399l-328 768h-20l20 -185v-911h-307z" />
    <glyph glyph-name="N" unicode="N" horiz-adv-x="1536" 
d="M133 0v1434h399l564 -1014h20l-20 174v840h307v-1434h-399l-564 1014h-20l20 -174v-840h-307z" />
    <glyph glyph-name="O" unicode="O" horiz-adv-x="1720" 
d="M72 717q0 155 60 295t164 242t251 161.5t313 59.5t313 -59.5t251 -161.5t164.5 -242t60.5 -295t-60.5 -295t-164.5 -242t-251 -161.5t-313 -59.5t-313 59.5t-251 161.5t-164 242t-60 295zM399 717q0 -206 130.5 -338.5t330.5 -132.5t330.5 132.5t130.5 338.5
t-130.5 338.5t-330.5 132.5t-330.5 -132.5t-130.5 -338.5z" />
    <glyph glyph-name="P" unicode="P" horiz-adv-x="1433" 
d="M133 0v1434h666q128 0 236 -39.5t181.5 -107.5t114.5 -160t41 -195t-41 -195t-114.5 -160t-181.5 -107.5t-236 -39.5h-359v-430h-307zM440 717h348q127 0 197 60t70 155t-70 155t-197 60h-348v-430z" />
    <glyph glyph-name="Q" unicode="Q" horiz-adv-x="1720" 
d="M72 717q0 155 60 295t164 242t251 161.5t313 59.5t313 -59.5t251 -161.5t164.5 -242t60.5 -295q0 -182 -81.5 -340.5t-226 -264t-327.5 -139.5v-393h-307v393q-183 34 -327.5 139.5t-226 264t-81.5 340.5zM399 717q0 -206 130.5 -338.5t330.5 -132.5t330.5 132.5
t130.5 338.5t-130.5 338.5t-330.5 132.5t-330.5 -132.5t-130.5 -338.5z" />
    <glyph glyph-name="R" unicode="R" horiz-adv-x="1443" 
d="M133 0v1434h676q127 0 234 -38t178.5 -103.5t111 -153t39.5 -187.5q0 -160 -90 -271t-238 -169l328 -512h-348l-297 471h-287v-471h-307zM440 758h359q126 0 191 53t65 141t-65 141.5t-191 53.5h-359v-389z" />
    <glyph glyph-name="S" unicode="S" horiz-adv-x="1351" 
d="M51 451h318q2 -9 7 -23.5t29 -51.5t56.5 -65.5t95 -51.5t139.5 -23q139 0 203 44.5t64 118.5q0 42 -29 74t-78.5 53.5t-113 39t-134 36t-141 40t-134 55t-113 77t-78.5 110t-29 150.5q0 89 38 168.5t107.5 140.5t175 96.5t232.5 35.5q109 0 200 -24.5t150.5 -63
t106 -85.5t71.5 -94.5t41 -86t21 -63.5l4 -24h-318q-1 7 -4.5 18t-22 39t-45.5 50t-81 39.5t-123 17.5q-116 0 -176 -44t-60 -110q0 -42 29 -74t78.5 -53.5t113 -39t134 -36t141 -40t134 -54.5t113 -76.5t78.5 -110t29 -150.5q0 -91 -38 -172t-109.5 -143.5t-184.5 -99
t-252 -36.5q-90 0 -170 17t-138.5 45.5t-108.5 65t-83.5 77.5t-60.5 82t-42 77.5t-25 65t-14 45.5z" />
    <glyph glyph-name="T" unicode="T" horiz-adv-x="1269" 
d="M20 1147v287h1229v-287h-461v-1147h-307v1147h-461z" />
    <glyph glyph-name="U" unicode="U" horiz-adv-x="1474" 
d="M123 563v871h307v-871q0 -145 84 -231t223 -86t223 86t84 231v871h308v-871q0 -277 -165.5 -440.5t-449.5 -163.5t-449 163.5t-165 440.5z" />
    <glyph glyph-name="V" unicode="V" horiz-adv-x="1423" 
d="M20 1434h318l287 -1147h174l286 1147h318l-369 -1434h-645z" />
    <glyph glyph-name="W" unicode="W" horiz-adv-x="2027" 
d="M41 1434h317l215 -1117h21l215 1117h410l215 -1117h20l215 1117h318l-297 -1434h-451l-215 1065h-20l-216 -1065h-450z" />
    <glyph glyph-name="X" unicode="X" horiz-adv-x="1372" 
d="M20 0l369 707l-348 727h328l266 -584h102l267 584h327l-348 -727l369 -707h-332l-283 563h-102l-283 -563h-332z" />
    <glyph glyph-name="Y" unicode="Y" horiz-adv-x="1372" 
d="M-10 1434h338l344 -594h28l344 594h338l-542 -912v-522h-308v522z" />
    <glyph glyph-name="Z" unicode="Z" horiz-adv-x="1320" 
d="M72 0v287l757 839v21h-737v287h1137v-287l-758 -840v-20h778v-287h-1177z" />
    <glyph glyph-name="bracketleft" unicode="[" horiz-adv-x="737" 
d="M133 -307v1802h563v-266h-276v-1270h276v-266h-563z" />
    <glyph glyph-name="backslash" unicode="\" horiz-adv-x="839" 
d="M0 1434h297l543 -1434h-297z" />
    <glyph glyph-name="bracketright" unicode="]" horiz-adv-x="737" 
d="M41 -307v266h276v1270h-276v266h563v-1802h-563z" />
    <glyph glyph-name="asciicircum" unicode="^" horiz-adv-x="983" 
d="M41 768l307 666h287l307 -666h-246l-184 420h-41l-184 -420h-246z" />
    <glyph glyph-name="underscore" unicode="_" horiz-adv-x="716" 
d="M-41 -410v236h799v-236h-799z" />
    <glyph glyph-name="grave" unicode="`" horiz-adv-x="583" 
d="M61 1423h308l153 -307h-215l-246 305v2z" />
    <glyph glyph-name="a" unicode="a" horiz-adv-x="1280" 
d="M61 522q0 165 65 292t174.5 194t242.5 67q63 0 120 -17t93 -41t63 -48t39 -41l12 -17h11v133h286v-1044h-286v133h-11q-4 -7 -12.5 -18t-38 -39t-64 -50t-92 -39.5t-120.5 -17.5q-133 0 -242.5 67t-174.5 194t-65 292zM358 522q0 -142 72.5 -224.5t183.5 -82.5
q118 0 192.5 82t74.5 225t-74.5 225t-192.5 82q-111 0 -183.5 -82.5t-72.5 -224.5z" />
    <glyph glyph-name="b" unicode="b" horiz-adv-x="1280" 
d="M113 0v1434h286v-523h11q4 7 12.5 18t38 39t64 50t92 39.5t120.5 17.5q133 0 242.5 -67t174.5 -194t65 -292t-65 -292t-174.5 -194t-242.5 -67q-63 0 -120 17t-93 41t-63 48t-39 41l-12 17h-11v-133h-286zM399 522q0 -143 74.5 -225t192.5 -82q111 0 183.5 82.5
t72.5 224.5t-72.5 224.5t-183.5 82.5q-118 0 -192.5 -82t-74.5 -225z" />
    <glyph glyph-name="c" unicode="c" horiz-adv-x="1198" 
d="M51 522q0 151 74 278t203.5 201t285.5 74q92 0 171 -22.5t132 -58.5t95.5 -80t67 -87.5t40.5 -79.5t22 -59l5 -22h-297q-2 7 -6.5 18t-23.5 39t-43 49.5t-67.5 39t-95.5 17.5q-110 0 -188 -86t-78 -221t78 -221t188 -86q52 0 95 17t68 41t42.5 48t24.5 41l6 17h297
q-2 -9 -5.5 -23.5t-20 -57t-39 -81.5t-65.5 -86t-95.5 -81t-133 -57.5t-174.5 -23.5q-156 0 -285.5 74t-203.5 201t-74 278z" />
    <glyph glyph-name="d" unicode="d" horiz-adv-x="1280" 
d="M61 522q0 165 65 292t174.5 194t242.5 67q63 0 120 -17t93 -41t63 -48t39 -41l12 -17h11v523h286v-1434h-286v133h-11q-4 -7 -12.5 -18t-38 -39t-64 -50t-92 -39.5t-120.5 -17.5q-133 0 -242.5 67t-174.5 194t-65 292zM358 522q0 -142 72.5 -224.5t183.5 -82.5
q118 0 192.5 82t74.5 225t-74.5 225t-192.5 82q-111 0 -183.5 -82.5t-72.5 -224.5z" />
    <glyph glyph-name="e" unicode="e" horiz-adv-x="1228" 
d="M51 522q0 151 74 278t203.5 201t285.5 74q160 0 287.5 -74.5t196.5 -200.5t69 -278v-61h-819q15 -101 91.5 -173.5t174.5 -72.5q52 0 95 12.5t68 30.5t42.5 36.5t24.5 31.5l6 12h307q-2 -8 -6.5 -21t-22.5 -51.5t-42.5 -73.5t-69 -77.5t-97.5 -73t-133 -51.5t-172 -21
q-156 0 -285.5 74t-203.5 201t-74 278zM358 635h502q-16 81 -83 137.5t-163 56.5q-95 0 -163 -56t-93 -138z" />
    <glyph glyph-name="f" unicode="f" horiz-adv-x="737" 
d="M31 778v246h133v410h584v-246h-297v-164h235v-246h-235v-778h-287v778h-133z" />
    <glyph glyph-name="g" unicode="g" horiz-adv-x="1280" 
d="M61 532q0 159 65 284t174.5 192t242.5 67q63 0 120 -17t93 -41.5t63 -49t39 -41.5l12 -17h11v135h286v-1433h-952v246h666v299h-11q-4 -7 -12.5 -18t-38 -39.5t-64 -50.5t-92 -40t-120.5 -18q-99 0 -187.5 39.5t-153.5 109t-103 171.5t-38 222zM358 532q0 -136 74.5 -216
t192.5 -80q110 0 183 80.5t73 215.5t-73 216t-183 81q-118 0 -192.5 -80.5t-74.5 -216.5z" />
    <glyph glyph-name="h" unicode="h" horiz-adv-x="1249" 
d="M113 0v1434h286v-533h11q4 7 11.5 19t36 42t62.5 52.5t92.5 41.5t124.5 19q194 0 302 -113.5t108 -326.5v-635h-287v594q0 114 -57 174.5t-158 60.5q-102 0 -174 -78t-72 -198v-553h-286z" />
    <glyph glyph-name="i" unicode="i" horiz-adv-x="512" 
d="M92 1331q0 62 48 108t116 46t116 -46t48 -108t-48 -107.5t-116 -45.5t-116 45.5t-48 107.5zM113 0v1044h286v-1044h-286z" />
    <glyph glyph-name="j" unicode="j" horiz-adv-x="512" 
d="M92 1331q0 62 48 108t116 46t116 -46t48 -108t-48 -107.5t-116 -45.5t-116 45.5t-48 107.5zM-174 -389v235h287v1198h286v-1433h-573z" />
    <glyph glyph-name="k" unicode="k" horiz-adv-x="1136" 
d="M113 0v1434h286v-779h123l277 389h317l-338 -481l369 -563h-328l-266 410h-154v-410h-286z" />
    <glyph glyph-name="l" unicode="l" horiz-adv-x="655" 
d="M113 0v1434h286v-1188h236v-246h-522z" />
    <glyph glyph-name="m" unicode="m" horiz-adv-x="1914" 
d="M113 0v1044h286v-143h11q3 7 10 19t33.5 42t58.5 52.5t87 41.5t118 19q74 0 137.5 -20t100.5 -48.5t63.5 -57t36.5 -48.5l10 -20h10q3 8 10 21t35 46.5t63 59t96.5 46.5t133.5 21q187 0 293 -114t106 -326v-635h-286v604q0 113 -50.5 169t-144.5 56q-95 0 -160 -73
t-65 -193v-563h-287v604q0 225 -194 225q-95 0 -160.5 -73t-65.5 -193v-563h-286z" />
    <glyph glyph-name="n" unicode="n" horiz-adv-x="1249" 
d="M113 0v1044h286v-143h11q4 7 11.5 19t36 42t62.5 52.5t92.5 41.5t124.5 19q194 0 302 -113.5t108 -326.5v-635h-287v594q0 114 -57 174.5t-158 60.5q-102 0 -174 -78t-72 -198v-553h-286z" />
    <glyph glyph-name="o" unicode="o" horiz-adv-x="1249" 
d="M51 522q0 152 74.5 278.5t206.5 200.5t293 74q121 0 227.5 -43.5t182 -117.5t119.5 -176t44 -216t-44 -216t-119.5 -176t-182 -117.5t-227.5 -43.5q-161 0 -293 74t-206.5 200.5t-74.5 278.5zM348 522q0 -136 79.5 -221.5t197.5 -85.5t197 85.5t79 221.5t-79 221.5
t-197 85.5t-197.5 -85.5t-79.5 -221.5z" />
    <glyph glyph-name="p" unicode="p" horiz-adv-x="1280" 
d="M113 -389v1433h286v-133h11q4 7 12.5 18t38 39t64 50t92 39.5t120.5 17.5q133 0 242.5 -67t174.5 -194t65 -292t-65 -292t-174.5 -194t-242.5 -67q-63 0 -120 17t-93 41t-63 48t-39 41l-12 17h-11v-522h-286zM399 522q0 -143 74.5 -225t192.5 -82q111 0 183.5 82.5
t72.5 224.5t-72.5 224.5t-183.5 82.5q-118 0 -192.5 -82t-74.5 -225z" />
    <glyph glyph-name="q" unicode="q" horiz-adv-x="1280" 
d="M61 522q0 165 65 292t174.5 194t242.5 67q63 0 120 -17t93 -41t63 -48t39 -41l12 -17h11v133h286v-1433h-286v522h-11q-4 -7 -12.5 -18t-38 -39t-64 -50t-92 -39.5t-120.5 -17.5q-133 0 -242.5 67t-174.5 194t-65 292zM358 522q0 -142 72.5 -224.5t183.5 -82.5
q118 0 192.5 82t74.5 225t-74.5 225t-192.5 82q-111 0 -183.5 -82.5t-72.5 -224.5z" />
    <glyph glyph-name="r" unicode="r" horiz-adv-x="829" 
d="M113 0v1044h286v-153h11q2 7 7.5 19t27 42t49 52.5t76.5 41.5t106 19h123v-277h-154q-115 0 -180.5 -63.5t-65.5 -171.5v-553h-286z" />
    <glyph glyph-name="s" unicode="s" horiz-adv-x="1085" 
d="M41 338h297q2 -5 6 -14t21 -32t40 -40.5t65 -32t93 -14.5q95 0 134.5 26.5t39.5 75.5q0 29 -27.5 50t-73 32t-103.5 24.5t-118.5 26.5t-118.5 38.5t-103.5 59t-73 90.5t-27.5 130q0 131 117.5 224t322.5 93q90 0 165.5 -18.5t124.5 -48.5t88 -66t59.5 -72t33.5 -66
t17 -48l4 -19h-287q-1 4 -4.5 11t-18 25t-35 31.5t-59.5 24.5t-88 11q-71 0 -107 -24t-36 -58q0 -29 27.5 -50t73 -32t103.5 -24.5t118.5 -26.5t118.5 -38.5t103.5 -59t73 -90.5t27.5 -130q0 -139 -126 -238.5t-345 -99.5q-72 0 -136.5 12.5t-111.5 34t-87.5 49t-68 58.5
t-49 61.5t-34.5 58t-21 49t-11 34.5z" />
    <glyph glyph-name="t" unicode="t" horiz-adv-x="808" 
d="M31 799v245h133v226h287v-226h294v-245h-294v-553h307v-246h-594v799h-133z" />
    <glyph glyph-name="u" unicode="u" horiz-adv-x="1259" 
d="M113 410v634h286v-593q0 -114 57 -175t158 -61q102 0 174 78t72 199v552h287v-1044h-287v143h-10q-4 -7 -11.5 -19t-36 -42t-63 -52.5t-93 -41.5t-124.5 -19q-194 0 -301.5 114t-107.5 327z" />
    <glyph glyph-name="v" unicode="v" horiz-adv-x="1136" 
d="M20 1044h297l195 -798h113l194 798h297l-276 -1044h-543z" />
    <glyph glyph-name="w" unicode="w" horiz-adv-x="1679" 
d="M31 1044h297l143 -757h31l153 757h369l154 -757h30l144 757h297l-226 -1044h-430l-143 717h-21l-143 -717h-430z" />
    <glyph glyph-name="x" unicode="x" horiz-adv-x="1116" 
d="M0 0l307 532l-287 512h318l194 -389h52l194 389h318l-287 -512l307 -532h-317l-215 410h-52l-215 -410h-317z" />
    <glyph glyph-name="y" unicode="y" horiz-adv-x="1126" 
d="M20 1044h297l205 -798h82l225 798h297l-419 -1433h-297l112 389h-225z" />
    <glyph glyph-name="z" unicode="z" horiz-adv-x="1024" 
d="M51 0v246l522 532v21h-501v245h880v-245l-522 -533v-20h543v-246h-922z" />
    <glyph glyph-name="braceleft" unicode="{" horiz-adv-x="778" 
d="M61 471v246h72q38 0 65 27t27 65v369q0 154 82.5 235.5t239.5 81.5h190v-256h-123q-45 0 -73.5 -26.5t-28.5 -65.5v-348q0 -49 -16 -87t-38.5 -57.5t-45 -32t-38.5 -15.5l-16 -3v-20q6 -1 16.5 -3.5t37 -15.5t47 -32t37 -57t16.5 -87v-348q0 -39 28.5 -65.5t73.5 -26.5
h123v-256h-190q-157 0 -239.5 81.5t-82.5 235.5v369q0 38 -27 65t-65 27h-72z" />
    <glyph glyph-name="bar" unicode="|" horiz-adv-x="768" 
d="M246 -205v1741h276v-1741h-276z" />
    <glyph glyph-name="braceright" unicode="}" horiz-adv-x="778" 
d="M41 -307v256h123q45 0 73.5 26.5t28.5 65.5v348q0 49 16 87t38.5 57.5t45 32t38.5 15.5l16 3v20q-6 1 -16.5 3.5t-37 15.5t-47 32t-37 57t-16.5 87v348q0 39 -28.5 65.5t-73.5 26.5h-123v256h190q157 0 239.5 -81.5t82.5 -235.5v-369q0 -38 27 -65t65 -27h72v-246h-72
q-38 0 -65 -27t-27 -65v-369q0 -154 -82.5 -235.5t-239.5 -81.5h-190z" />
    <glyph glyph-name="asciitilde" unicode="~" horiz-adv-x="1085" 
d="M92 461v82q0 136 64.5 206t181.5 70q66 0 122 -17.5t87 -38.5t68.5 -38.5t70.5 -17.5q31 0 51.5 20t20.5 51v31h235v-82q0 -136 -64 -206t-181 -70q-66 0 -122 17.5t-87.5 38.5t-69 38.5t-70.5 17.5q-31 0 -51 -20t-20 -51v-31h-236z" />
    <glyph glyph-name="nbspace" unicode="&#xa0;" horiz-adv-x="573" 
 />
    <glyph glyph-name="exclamdown" unicode="&#xa1;" horiz-adv-x="593" 
d="M133 911q0 69 47.5 116.5t116.5 47.5t116.5 -47.5t47.5 -116.5t-47.5 -116t-116.5 -47t-116.5 47t-47.5 116zM154 -389v676l51 307h184l51 -307v-676h-286z" />
    <glyph glyph-name="cent" unicode="&#xa2;" horiz-adv-x="1198" 
d="M51 522q0 189 114.5 336t295.5 197v174h276v-166q70 -13 130 -42.5t101 -65.5t74 -76t52 -77.5t31.5 -68t16.5 -49.5l5 -18h-297q-2 7 -6.5 18t-23.5 39t-43 49.5t-67.5 39t-95.5 17.5q-110 0 -188 -86t-78 -221t78 -221t188 -86q52 0 95 17t68 41t42.5 48t24.5 41l6 17
h297q-1 -7 -4 -19t-16 -48.5t-31 -70.5t-51 -77.5t-73.5 -77.5t-102 -63.5t-132.5 -42.5v-164h-276v174q-181 48 -295.5 194.5t-114.5 337.5z" />
    <glyph glyph-name="sterling" unicode="&#xa3;" horiz-adv-x="1218" 
d="M41 0v287h31q70 0 111.5 44t41.5 120v184h-143v246h143v168q0 206 125 326t346 120q71 0 132 -13.5t105 -36t80.5 -51.5t60 -61.5t41.5 -64.5t27.5 -61t15.5 -51.5t8 -35.5l1 -14h-307q0 5 -1.5 13.5t-11 29.5t-24.5 37t-45.5 29.5t-70.5 13.5q-85 0 -130 -45.5
t-45 -134.5v-168h308v-246h-308v-174q0 -34 -10.5 -64t-25.5 -47.5t-30 -30t-26 -17.5l-10 -5v-10h758v-287h-1147z" />
    <glyph glyph-name="currency" unicode="&#xa4;" horiz-adv-x="1413" 
d="M51 164v246h154v122h-154v267h154v635h614q247 0 390 -127t143 -324t-143 -324t-390 -127h-307v-122h471v-246h-471v-164h-307v164h-154zM512 799h287q118 0 181.5 52t63.5 132t-63.5 132t-181.5 52h-287v-368z" />
    <glyph glyph-name="yen" unicode="&#xa5;" horiz-adv-x="1392" 
d="M0 1434h338l344 -512h31l342 512h338l-523 -768h267v-195h-287v-123h287v-194h-287v-154h-307v154h-287v194h287v123h-287v195h266z" />
    <glyph glyph-name="brokenbar" unicode="&#xa6;" horiz-adv-x="768" 
d="M246 788v748h276v-748h-276zM246 -205v748h276v-748h-276z" />
    <glyph glyph-name="section" unicode="&#xa7;" horiz-adv-x="1167" 
d="M61 287h287l5.5 -11t20.5 -25t40 -31.5t65 -24.5t94 -11q99 0 142 23.5t43 58.5q0 31 -38 55.5t-98.5 43t-133.5 37.5t-146 46t-133.5 62t-98.5 90.5t-38 126.5q0 46 18 86t43.5 64.5t51 42t43.5 24.5l18 8v11q-5 2 -14 7t-32 23.5t-40.5 40t-32 57.5t-14.5 76
q0 59 29.5 113.5t86 98.5t148.5 70t207 26q90 0 166.5 -18t127.5 -47t92 -64t63.5 -70t37.5 -64t20 -47l5 -18h-287l-5.5 11t-20 24.5t-38.5 31t-62 24.5t-89 11q-99 0 -141.5 -23.5t-42.5 -58.5t51 -63.5t127 -47t165 -47t165 -62.5t127 -96t51 -144q0 -46 -18 -86
t-43.5 -64.5t-51 -42.5t-43.5 -26l-18 -7v-10q5 -3 14 -8t32 -23t40.5 -40t32 -58t14.5 -76q0 -125 -123.5 -216t-347.5 -91q-92 0 -170.5 18t-130.5 47t-93.5 64t-65 70t-38.5 64t-20 47zM369 758q0 -21 8 -38.5t27.5 -32t39.5 -25.5t55 -23t63 -20t75.5 -22t79.5 -24
q3 1 8.5 3.5t20 12t25 20t19.5 29t9 38.5q0 21 -8.5 38.5t-27.5 32t-39 25.5t-55 22.5t-63 20t-75 22t-80 23.5q-3 -1 -8.5 -3.5t-20 -11.5t-25 -20t-19.5 -29t-9 -38z" />
    <glyph glyph-name="dieresis" unicode="&#xa8;" horiz-adv-x="808" 
d="M461 1300q0 62 41 103t102 41q62 0 103 -41t41 -103q0 -61 -41 -102t-103 -41t-102.5 40.5t-40.5 102.5zM61 1300q0 62 41.5 103t102.5 41t102 -41t41 -103t-41 -102.5t-102 -40.5q-62 0 -103 41t-41 102z" />
    <glyph glyph-name="copyright" unicode="&#xa9;" horiz-adv-x="1740" 
d="M72 717q0 152 62 291t167.5 242t254 164t314.5 61t314.5 -61t254.5 -164t168 -242t62 -291t-62 -291t-168 -242t-254.5 -164t-314.5 -61t-314.5 61t-254 164t-167.5 242t-62 291zM287 717q0 -157 74.5 -285.5t208.5 -203t300 -74.5t300 74.5t209 203t75 285.5t-75 285.5
t-209 203t-300 74.5t-300 -74.5t-208.5 -203t-74.5 -285.5zM492 717q0 161 108.5 270t269.5 109q63 0 117.5 -16.5t92 -42.5t68.5 -57.5t49 -63.5t30.5 -58t16.5 -42l5 -17h-235q-1 3 -4 8.5t-13.5 20t-24.5 25t-38 19.5t-53 9q-77 0 -120.5 -43.5t-43.5 -120.5t43.5 -120.5
t120.5 -43.5q29 0 53 8.5t38 20.5t24 24t14 20l4 9h235q-2 -6 -5 -17t-16.5 -41.5t-31 -58.5t-48.5 -62.5t-68.5 -59t-92 -41.5t-117.5 -17q-161 0 -269.5 109t-108.5 270z" />
    <glyph glyph-name="ordfeminine" unicode="&#xaa;" horiz-adv-x="768" 
d="M61 952q0 95 63 150t183 55h185v31q0 43 -29 72.5t-74 29.5q-36 0 -59 -18t-28 -36l-5 -17h-205q2 10 6 25.5t25.5 56t52 71.5t90 56.5t133.5 25.5q151 0 229.5 -70.5t78.5 -195.5v-430h-215v102h-11q-2 -5 -6.5 -13.5t-21 -29.5t-36.5 -37t-55 -29.5t-75 -13.5
q-99 0 -162.5 61t-63.5 154zM287 969q0 -28 20.5 -48t50.5 -20q54 0 94 39.5t40 93.5h-134q-31 0 -51 -19t-20 -46z" />
    <glyph glyph-name="guillemotleft" unicode="&#xab;" horiz-adv-x="1239" 
d="M553 522l451 522l163 -163l-317 -359l317 -358l-163 -164zM41 522l451 522l163 -163l-317 -359l317 -358l-163 -164z" />
    <glyph glyph-name="logicalnot" unicode="&#xac;" horiz-adv-x="1085" 
d="M123 512v246h840v-451h-267v205h-573z" />
    <glyph glyph-name="uni00AD" unicode="&#xad;" horiz-adv-x="993" 
d="M113 430v246h768v-246h-768z" />
    <glyph glyph-name="registered" unicode="&#xae;" horiz-adv-x="1218" 
d="M61 932q0 110 44 210t119 173t179.5 116.5t221.5 43.5q155 0 285 -73.5t204 -198t74 -271.5t-74 -271.5t-204 -198t-285 -73.5q-117 0 -221.5 43.5t-179.5 116.5t-119 173t-44 210zM236 932q0 -170 106.5 -274.5t282.5 -104.5t282.5 104.5t106.5 274.5t-106.5 274.5
t-282.5 104.5t-282.5 -104.5t-106.5 -274.5zM410 696v502h235q120 0 178 -48t58 -136q0 -34 -9.5 -63t-23.5 -45t-27.5 -27t-22.5 -15l-10 -4l113 -164h-184l-92 133h-52v-133h-163zM573 963h72q62 0 62 45q0 47 -62 47h-72v-92z" />
    <glyph glyph-name="macron" unicode="&#xaf;" horiz-adv-x="737" 
d="M61 1229v194h615v-194h-615z" />
    <glyph glyph-name="degree" unicode="&#xb0;" horiz-adv-x="686" 
d="M61 1167q0 116 82.5 196.5t204.5 80.5t204.5 -80.5t82.5 -196.5t-82.5 -196t-204.5 -80t-204.5 80t-82.5 196zM246 1167q0 -46 28 -74t74 -28t74.5 28t28.5 74t-28.5 74.5t-74.5 28.5t-74 -28.5t-28 -74.5z" />
    <glyph glyph-name="plusminus" unicode="&#xb1;" horiz-adv-x="1085" 
d="M113 0v246h307v256h-307v246h307v317h246v-317h307v-246h-307v-256h307v-246h-860z" />
    <glyph glyph-name="twosuperior" unicode="&#xb2;" horiz-adv-x="737" 
d="M61 942v182l175 95q134 73 174.5 108.5t40.5 75.5q0 33 -24 52.5t-69 19.5q-26 0 -46 -8.5t-30 -20.5t-16.5 -24t-7.5 -20l-2 -9h-195q1 6 2.5 15.5t10.5 37t21.5 52.5t37.5 56t56 53t79.5 37t106.5 15q141 0 221 -67t80 -169q0 -83 -55 -143t-181 -123l-20 -10l-82 -31
v-10l92 20h246v-184h-615z" />
    <glyph glyph-name="threesuperior" unicode="&#xb3;" horiz-adv-x="716" 
d="M51 1157h205q0 -2 1.5 -6.5t8 -15t16.5 -18.5t30 -14.5t46 -6.5q44 0 68.5 19.5t24.5 51.5t-25 52t-68 20h-153v123l184 113v10l-82 -10h-215v163h533v-153l-123 -92l-72 -31v-10h41q82 0 138.5 -58.5t56.5 -136.5q0 -103 -77.5 -169t-215.5 -66q-57 0 -106 13t-81 33.5
t-57.5 45.5t-39.5 50.5t-23 46t-12 33.5z" />
    <glyph glyph-name="acute" unicode="&#xb4;" horiz-adv-x="583" 
d="M61 1116l154 307h307v-2l-246 -305h-215z" />
    <glyph glyph-name="mu" unicode="&#xb5;" horiz-adv-x="1259" 
d="M113 -410v1454h286v-593q0 -114 57 -175t158 -61q102 0 174 78t72 199v552h287v-1044h-287v143h-20q-3 -7 -10 -19t-31.5 -42t-53.5 -52.5t-78 -41.5t-104 -19q-37 0 -71 9.5t-55.5 23t-37.5 27t-23 23.5l-7 9h-21l51 -184v-287h-286z" />
    <glyph glyph-name="paragraph" unicode="&#xb6;" horiz-adv-x="993" 
d="M51 1004q0 179 132 304.5t329 125.5h440v-287h-194v-1546h-277v972q-177 0 -303.5 127t-126.5 304z" />
    <glyph glyph-name="periodcentered" unicode="&#xb7;" horiz-adv-x="573" 
d="M123 573q0 69 47.5 116.5t116.5 47.5t116.5 -47.5t47.5 -116.5t-47.5 -116t-116.5 -47t-116.5 47t-47.5 116z" />
    <glyph glyph-name="cedilla" unicode="&#xb8;" horiz-adv-x="552" 
d="M61 -481v153q72 -41 164 -41q44 0 68 20t24 52q0 25 -24.5 43t-67.5 18h-92l92 267h144l-52 -133q7 0 19 -2t42 -14t53 -30.5t42 -57.5t19 -91q0 -94 -71.5 -159.5t-184.5 -65.5q-50 0 -94 10t-62 20z" />
    <glyph glyph-name="onesuperior" unicode="&#xb9;" horiz-adv-x="716" 
d="M92 942v184h195v308l-174 -103v205l184 102h195v-512h184v-184h-584z" />
    <glyph glyph-name="ordmasculine" unicode="&#xba;" horiz-adv-x="819" 
d="M41 1096q0 154 104 256t265 102t264.5 -102t103.5 -256q0 -155 -104 -257t-264 -102t-264.5 102.5t-104.5 256.5zM266 1096q0 -75 40.5 -119.5t103.5 -44.5t103 44.5t40 119.5t-40 119.5t-103 44.5t-103.5 -44.5t-40.5 -119.5z" />
    <glyph glyph-name="guillemotright" unicode="&#xbb;" horiz-adv-x="1239" 
d="M584 164l317 358l-317 359l164 163l450 -522l-450 -522zM72 164l317 358l-317 359l164 163l450 -522l-450 -522z" />
    <glyph glyph-name="onequarter" unicode="&#xbc;" horiz-adv-x="1607" 
d="M92 737v185h195v307l-174 -103v205l184 103h195v-512h184v-185h-584zM338 0l860 1434h236l-861 -1434h-235zM942 123v174l256 399h225l-256 -389h133l31 113h164v-113h92v-184h-92v-123h-205v123h-348z" />
    <glyph glyph-name="onehalf" unicode="&#xbd;" horiz-adv-x="1699" 
d="M92 737v185h195v307l-174 -103v205l184 103h195v-512h184v-185h-584zM338 0l860 1434h236l-861 -1434h-235zM1024 0v182l174 94q133 72 174 108.5t41 76.5q0 33 -23.5 52t-68.5 19q-26 0 -46 -8.5t-30 -20t-16.5 -23.5t-8.5 -20l-1 -9h-195q1 11 5 29t24.5 63.5t51 81
t92 64t140.5 28.5q141 0 221 -67t80 -169q0 -83 -54.5 -143t-180.5 -123l-21 -10l-82 -31v-10l93 20h245v-184h-614z" />
    <glyph glyph-name="threequarters" unicode="&#xbe;" horiz-adv-x="1566" 
d="M51 952h205q0 -2 1.5 -6.5t8 -15t16.5 -18.5t30 -14.5t46 -6.5q44 0 68.5 20t24.5 52q0 31 -25 51t-68 20h-153v123l184 113v10l-82 -10h-215v164h533v-154l-123 -92l-72 -31v-10h41q82 0 138.5 -58.5t56.5 -136.5q0 -103 -77.5 -169t-215.5 -66q-57 0 -106 13t-81 33.5
t-57.5 45.5t-39.5 50.5t-23 46t-12 33.5zM297 0l860 1434h236l-861 -1434h-235zM901 123v174l256 399h225l-256 -389h134l30 113h164v-113h92v-184h-92v-123h-205v123h-348z" />
    <glyph glyph-name="questiondown" unicode="&#xbf;" horiz-adv-x="1177" 
d="M440 911q0 69 47.5 116.5t116.5 47.5t116.5 -47.5t47.5 -116.5t-47.5 -116t-116.5 -47t-116.5 47t-47.5 116zM41 0q0 77 22.5 138t59 99.5t80 71t87 60t80 57t59 72t22.5 96.5h297q0 -79 -21.5 -142t-56 -103t-76 -73t-83 -60t-76 -54.5t-56 -65.5t-21.5 -86
q0 -66 58 -109.5t168 -43.5q57 0 103.5 18t71.5 43.5t42 51t23 43.5l5 18h308q-2 -10 -5.5 -26.5t-20.5 -64.5t-40.5 -91.5t-69 -96.5t-101.5 -91.5t-141.5 -64.5t-185.5 -26q-119 0 -220.5 35.5t-169 95t-105 137t-37.5 162.5z" />
    <glyph glyph-name="Agrave" unicode="&#xc0;" horiz-adv-x="1423" 
d="M10 0l379 1434h645l379 -1434h-317l-82 317h-604l-82 -317h-318zM481 604h461l-143 543h-174zM379 1915h307l154 -307h-215l-246 305v2z" />
    <glyph glyph-name="Aacute" unicode="&#xc1;" horiz-adv-x="1423" 
d="M10 0l379 1434h645l379 -1434h-317l-82 317h-604l-82 -317h-318zM481 604h461l-143 543h-174zM604 1608l154 307h307v-2l-246 -305h-215z" />
    <glyph glyph-name="Acircumflex" unicode="&#xc2;" horiz-adv-x="1423" 
d="M10 0l379 1434h645l379 -1434h-317l-82 317h-604l-82 -317h-318zM481 604h461l-143 543h-174zM358 1610l236 305h246l235 -305v-2h-225l-113 153h-41l-112 -153h-226v2z" />
    <glyph glyph-name="Atilde" unicode="&#xc3;" horiz-adv-x="1423" 
d="M10 0l379 1434h645l379 -1434h-317l-82 317h-604l-82 -317h-318zM481 604h461l-143 543h-174zM358 1618v82q0 85 56.5 139.5t148.5 54.5q48 0 91.5 -16t68.5 -35t54 -35t52 -16t37.5 14t14.5 37v41h174v-82q0 -85 -56.5 -139.5t-148.5 -54.5q-48 0 -91.5 16t-68.5 35
t-54 35t-52 16t-37.5 -14t-14.5 -37v-41h-174z" />
    <glyph glyph-name="Adieresis" unicode="&#xc4;" horiz-adv-x="1423" 
d="M10 0l379 1434h645l379 -1434h-317l-82 317h-604l-82 -317h-318zM481 604h461l-143 543h-174zM768 1751q0 61 41 102t102 41q62 0 103 -41t41 -102t-41 -102t-103 -41q-61 0 -102 41t-41 102zM369 1751q0 61 40.5 102t102.5 41t102.5 -41t40.5 -102t-40.5 -102
t-102.5 -41t-102.5 41t-40.5 102z" />
    <glyph glyph-name="Aring" unicode="&#xc5;" horiz-adv-x="1423" 
d="M10 0l379 1434h645l379 -1434h-317l-82 317h-604l-82 -317h-318zM481 604h461l-143 543h-174zM481 1772q0 100 64.5 162.5t171.5 62.5t171 -62.5t64 -162.5q0 -101 -64.5 -163.5t-170.5 -62.5q-107 0 -171.5 63t-64.5 163zM614 1772q0 -46 28.5 -74.5t74.5 -28.5t74 28.5
t28 74.5t-28 74t-74 28t-74.5 -28t-28.5 -74z" />
    <glyph glyph-name="AE" unicode="&#xc6;" horiz-adv-x="2068" 
d="M10 0l379 1434h1598v-287h-738v-287h594v-266h-594v-307h738v-287h-1045v317h-532l-82 -317h-318zM481 604h461v543h-317z" />
    <glyph glyph-name="Ccedilla" unicode="&#xc7;" horiz-adv-x="1658" 
d="M72 717q0 159 59 299.5t162 241t250 159t317 58.5q99 0 186.5 -18.5t153 -50t121.5 -72t95 -85.5t70 -90.5t49.5 -86t30.5 -72t16 -50.5l5 -18h-317q-2 5 -5.5 14.5t-18.5 36t-34 50.5t-53 53.5t-74 51t-99 36t-126 14.5q-200 0 -330.5 -132.5t-130.5 -338.5
q0 -214 126.5 -342.5t334.5 -128.5q69 0 129.5 16t102 41t75.5 55.5t54.5 61t34 55.5t18.5 41l6 16h317q-3 -12 -9 -31.5t-31 -77.5t-57 -111t-90.5 -118.5t-127.5 -113t-171.5 -82.5t-219.5 -39l-21 -61q7 0 19 -2t42 -14t52.5 -30.5t41.5 -57.5t19 -91q0 -94 -71.5 -159.5
t-184.5 -65.5q-50 0 -93.5 10t-62.5 20l-18 11v153q72 -41 164 -41q44 0 68 20t24 52q0 25 -24.5 43t-67.5 18h-92l72 205q-306 31 -496 239t-190 509z" />
    <glyph glyph-name="Egrave" unicode="&#xc8;" horiz-adv-x="1290" 
d="M133 0v1434h1075v-287h-768v-287h615v-266h-615v-307h768v-287h-1075zM348 1915h307l154 -307h-215l-246 305v2z" />
    <glyph glyph-name="Eacute" unicode="&#xc9;" horiz-adv-x="1290" 
d="M133 0v1434h1075v-287h-768v-287h615v-266h-615v-307h768v-287h-1075zM543 1608l153 307h308v-2l-246 -305h-215z" />
    <glyph glyph-name="Ecircumflex" unicode="&#xca;" horiz-adv-x="1290" 
d="M133 0v1434h1075v-287h-768v-287h615v-266h-615v-307h768v-287h-1075zM328 1610l235 305h246l235 -305v-2h-225l-112 153h-41l-113 -153h-225v2z" />
    <glyph glyph-name="Edieresis" unicode="&#xcb;" horiz-adv-x="1290" 
d="M133 0v1434h1075v-287h-768v-287h615v-266h-615v-307h768v-287h-1075zM737 1751q0 61 41 102t103 41q61 0 102 -41t41 -102t-41 -102t-102 -41q-62 0 -103 41t-41 102zM338 1751q0 61 41 102t102 41q62 0 103 -41t41 -102t-41 -102t-103 -41q-61 0 -102 41t-41 102z" />
    <glyph glyph-name="Igrave" unicode="&#xcc;" horiz-adv-x="573" 
d="M133 0v1434h307v-1434h-307zM-72 1915h308l153 -307h-215l-246 305v2z" />
    <glyph glyph-name="Iacute" unicode="&#xcd;" horiz-adv-x="573" 
d="M133 0v1434h307v-1434h-307zM184 1608l154 307h307v-2l-246 -305h-215z" />
    <glyph glyph-name="Icircumflex" unicode="&#xce;" horiz-adv-x="573" 
d="M133 0v1434h307v-1434h-307zM-72 1610l236 305h246l235 -305v-2h-225l-113 153h-41l-112 -153h-226v2z" />
    <glyph glyph-name="Idieresis" unicode="&#xcf;" horiz-adv-x="573" 
d="M133 0v1434h307v-1434h-307zM348 1751q0 61 41 102t103 41t102.5 -41t40.5 -102t-40.5 -102t-102.5 -41t-103 41t-41 102zM-51 1751q0 61 40.5 102t102.5 41t103 -41t41 -102t-41 -102t-103 -41t-102.5 41t-40.5 102z" />
    <glyph glyph-name="Eth" unicode="&#xd0;" horiz-adv-x="1546" 
d="M31 584v266h143v584h522q169 0 315.5 -56t247.5 -152.5t158.5 -228.5t57.5 -280t-57.5 -280t-158.5 -228.5t-247.5 -152.5t-315.5 -56h-522v584h-143zM481 287h215q213 0 337 118t124 312t-124 312t-337 118h-215v-297h297v-266h-297v-297z" />
    <glyph glyph-name="Ntilde" unicode="&#xd1;" horiz-adv-x="1536" 
d="M133 0v1434h399l564 -1014h20l-20 174v840h307v-1434h-399l-564 1014h-20l20 -174v-840h-307zM420 1618v82q0 85 56.5 139.5t148.5 54.5q48 0 91.5 -16t68.5 -35t54 -35t52 -16t37 14t14 37v41h174v-82q0 -85 -56.5 -139.5t-148.5 -54.5q-48 0 -91.5 16t-68.5 35t-54 35
t-52 16t-37 -14t-14 -37v-41h-174z" />
    <glyph glyph-name="Ograve" unicode="&#xd2;" horiz-adv-x="1720" 
d="M72 717q0 155 60 295t164 242t251 161.5t313 59.5t313 -59.5t251 -161.5t164.5 -242t60.5 -295t-60.5 -295t-164.5 -242t-251 -161.5t-313 -59.5t-313 59.5t-251 161.5t-164 242t-60 295zM399 717q0 -206 130.5 -338.5t330.5 -132.5t330.5 132.5t130.5 338.5
t-130.5 338.5t-330.5 132.5t-330.5 -132.5t-130.5 -338.5zM512 1915h307l154 -307h-215l-246 305v2z" />
    <glyph glyph-name="Oacute" unicode="&#xd3;" horiz-adv-x="1720" 
d="M72 717q0 155 60 295t164 242t251 161.5t313 59.5t313 -59.5t251 -161.5t164.5 -242t60.5 -295t-60.5 -295t-164.5 -242t-251 -161.5t-313 -59.5t-313 59.5t-251 161.5t-164 242t-60 295zM399 717q0 -206 130.5 -338.5t330.5 -132.5t330.5 132.5t130.5 338.5
t-130.5 338.5t-330.5 132.5t-330.5 -132.5t-130.5 -338.5zM748 1608l153 307h307v-2l-245 -305h-215z" />
    <glyph glyph-name="Ocircumflex" unicode="&#xd4;" horiz-adv-x="1720" 
d="M72 717q0 155 60 295t164 242t251 161.5t313 59.5t313 -59.5t251 -161.5t164.5 -242t60.5 -295t-60.5 -295t-164.5 -242t-251 -161.5t-313 -59.5t-313 59.5t-251 161.5t-164 242t-60 295zM399 717q0 -206 130.5 -338.5t330.5 -132.5t330.5 132.5t130.5 338.5
t-130.5 338.5t-330.5 132.5t-330.5 -132.5t-130.5 -338.5zM502 1610l235 305h246l236 -305v-2h-226l-112 153h-41l-113 -153h-225v2z" />
    <glyph glyph-name="Otilde" unicode="&#xd5;" horiz-adv-x="1720" 
d="M72 717q0 155 60 295t164 242t251 161.5t313 59.5t313 -59.5t251 -161.5t164.5 -242t60.5 -295t-60.5 -295t-164.5 -242t-251 -161.5t-313 -59.5t-313 59.5t-251 161.5t-164 242t-60 295zM399 717q0 -206 130.5 -338.5t330.5 -132.5t330.5 132.5t130.5 338.5
t-130.5 338.5t-330.5 132.5t-330.5 -132.5t-130.5 -338.5zM512 1618v82q0 85 56.5 139.5t148.5 54.5q48 0 91.5 -16t68.5 -35t54 -35t52 -16t37 14t14 37v41h174v-82q0 -85 -56 -139.5t-148 -54.5q-48 0 -91.5 16t-69 35t-54.5 35t-52 16t-37 -14t-14 -37v-41h-174z" />
    <glyph glyph-name="Odieresis" unicode="&#xd6;" horiz-adv-x="1720" 
d="M72 717q0 155 60 295t164 242t251 161.5t313 59.5t313 -59.5t251 -161.5t164.5 -242t60.5 -295t-60.5 -295t-164.5 -242t-251 -161.5t-313 -59.5t-313 59.5t-251 161.5t-164 242t-60 295zM399 717q0 -206 130.5 -338.5t330.5 -132.5t330.5 132.5t130.5 338.5
t-130.5 338.5t-330.5 132.5t-330.5 -132.5t-130.5 -338.5zM911 1751q0 61 41 102t103 41q61 0 102 -41t41 -102t-41 -102t-102 -41q-62 0 -103 41t-41 102zM512 1751q0 61 41 102t102 41q62 0 103 -41t41 -102t-41 -102t-103 -41q-61 0 -102 41t-41 102z" />
    <glyph glyph-name="multiply" unicode="&#xd7;" horiz-adv-x="1085" 
d="M133 389l236 236l-236 235l174 174l236 -235l235 235l174 -174l-235 -235l235 -236l-174 -174l-235 236l-236 -236z" />
    <glyph glyph-name="Oslash" unicode="&#xd8;" horiz-adv-x="1720" 
d="M31 -20v225l153 114q-112 182 -112 398q0 155 60 295t164 242t251 161.5t313 59.5q165 0 310 -58.5t253 -163.5l267 201v-225l-154 -117q113 -180 113 -395q0 -155 -60.5 -295t-164.5 -242t-251 -161.5t-313 -59.5t-311.5 58t-251.5 163zM399 717q0 -112 41 -205l738 555
q-131 121 -318 121q-200 0 -330.5 -132.5t-130.5 -338.5zM543 365q125 -119 317 -119q200 0 330.5 132.5t130.5 338.5q0 106 -41 203z" />
    <glyph glyph-name="Ugrave" unicode="&#xd9;" horiz-adv-x="1474" 
d="M123 563v871h307v-871q0 -145 84 -231t223 -86t223 86t84 231v871h308v-871q0 -277 -165.5 -440.5t-449.5 -163.5t-449 163.5t-165 440.5zM389 1915h307l154 -307h-215l-246 305v2z" />
    <glyph glyph-name="Uacute" unicode="&#xda;" horiz-adv-x="1474" 
d="M123 563v871h307v-871q0 -145 84 -231t223 -86t223 86t84 231v871h308v-871q0 -277 -165.5 -440.5t-449.5 -163.5t-449 163.5t-165 440.5zM625 1608l153 307h307v-2l-245 -305h-215z" />
    <glyph glyph-name="Ucircumflex" unicode="&#xdb;" horiz-adv-x="1474" 
d="M123 563v871h307v-871q0 -145 84 -231t223 -86t223 86t84 231v871h308v-871q0 -277 -165.5 -440.5t-449.5 -163.5t-449 163.5t-165 440.5zM389 1610l236 305h245l236 -305v-2h-225l-113 153h-41l-113 -153h-225v2z" />
    <glyph glyph-name="Udieresis" unicode="&#xdc;" horiz-adv-x="1474" 
d="M123 563v871h307v-871q0 -145 84 -231t223 -86t223 86t84 231v871h308v-871q0 -277 -165.5 -440.5t-449.5 -163.5t-449 163.5t-165 440.5zM799 1751q0 61 40.5 102t102.5 41t102.5 -41t40.5 -102t-40.5 -102t-102.5 -41t-102.5 41t-40.5 102zM399 1751q0 61 41 102
t103 41q61 0 102 -41t41 -102t-41 -102t-102 -41q-62 0 -103 41t-41 102z" />
    <glyph glyph-name="Yacute" unicode="&#xdd;" horiz-adv-x="1372" 
d="M-10 1434h338l344 -594h28l344 594h338l-542 -912v-522h-308v522zM584 1608l153 307h307v-2l-245 -305h-215z" />
    <glyph glyph-name="Thorn" unicode="&#xde;" horiz-adv-x="1505" 
d="M133 0v1434h307v-226h441q127 0 234 -38t178.5 -103t111 -152.5t39.5 -187.5t-39.5 -187.5t-111 -152.5t-178.5 -103t-234 -38h-441v-246h-307zM440 532h439q120 0 183.5 53.5t63.5 141.5t-63.5 141.5t-183.5 53.5h-439v-390z" />
    <glyph glyph-name="germandbls" unicode="&#xdf;" horiz-adv-x="1228" 
d="M113 0v1065q0 80 35 154.5t96.5 131t150 90.5t189.5 34q100 0 187.5 -32t146.5 -83.5t92.5 -118t33.5 -135.5q0 -66 -20 -121t-48.5 -86t-57 -53t-48.5 -30l-20 -7v-21q4 -1 11 -2t28.5 -7t42.5 -14t50 -23.5t53.5 -34.5t49.5 -48.5t42.5 -64t28.5 -82.5t11 -102
q0 -185 -127.5 -297.5t-357.5 -112.5h-139v246h123q92 0 148 54.5t56 139.5q0 79 -59 132t-156 53h-112v245q91 0 148 53.5t57 131.5q0 70 -49.5 117t-125.5 47q-77 0 -125.5 -50.5t-48.5 -134.5v-1034h-286z" />
    <glyph glyph-name="agrave" unicode="&#xe0;" horiz-adv-x="1280" 
d="M61 522q0 165 65 292t174.5 194t242.5 67q63 0 120 -17t93 -41t63 -48t39 -41l12 -17h11v133h286v-1044h-286v133h-11q-4 -7 -12.5 -18t-38 -39t-64 -50t-92 -39.5t-120.5 -17.5q-133 0 -242.5 67t-174.5 194t-65 292zM358 522q0 -142 72.5 -224.5t183.5 -82.5
q118 0 192.5 82t74.5 225t-74.5 225t-192.5 82q-111 0 -183.5 -82.5t-72.5 -224.5zM287 1556h307l154 -307h-216l-245 305v2z" />
    <glyph glyph-name="aacute" unicode="&#xe1;" horiz-adv-x="1280" 
d="M61 522q0 165 65 292t174.5 194t242.5 67q63 0 120 -17t93 -41t63 -48t39 -41l12 -17h11v133h286v-1044h-286v133h-11q-4 -7 -12.5 -18t-38 -39t-64 -50t-92 -39.5t-120.5 -17.5q-133 0 -242.5 67t-174.5 194t-65 292zM358 522q0 -142 72.5 -224.5t183.5 -82.5
q118 0 192.5 82t74.5 225t-74.5 225t-192.5 82q-111 0 -183.5 -82.5t-72.5 -224.5zM481 1249l154 307h307v-2l-246 -305h-215z" />
    <glyph glyph-name="acircumflex" unicode="&#xe2;" horiz-adv-x="1280" 
d="M61 522q0 165 65 292t174.5 194t242.5 67q63 0 120 -17t93 -41t63 -48t39 -41l12 -17h11v133h286v-1044h-286v133h-11q-4 -7 -12.5 -18t-38 -39t-64 -50t-92 -39.5t-120.5 -17.5q-133 0 -242.5 67t-174.5 194t-65 292zM358 522q0 -142 72.5 -224.5t183.5 -82.5
q118 0 192.5 82t74.5 225t-74.5 225t-192.5 82q-111 0 -183.5 -82.5t-72.5 -224.5zM266 1251l236 305h246l235 -305v-2h-225l-113 154h-41l-112 -154h-226v2z" />
    <glyph glyph-name="atilde" unicode="&#xe3;" horiz-adv-x="1280" 
d="M61 522q0 165 65 292t174.5 194t242.5 67q63 0 120 -17t93 -41t63 -48t39 -41l12 -17h11v133h286v-1044h-286v133h-11q-4 -7 -12.5 -18t-38 -39t-64 -50t-92 -39.5t-120.5 -17.5q-133 0 -242.5 67t-174.5 194t-65 292zM358 522q0 -142 72.5 -224.5t183.5 -82.5
q118 0 192.5 82t74.5 225t-74.5 225t-192.5 82q-111 0 -183.5 -82.5t-72.5 -224.5zM276 1260v81q0 85 56.5 140t148.5 55q48 0 91.5 -16t69 -35t54.5 -35t52 -16t37 14t14 37v41h174v-82q0 -85 -56.5 -140t-148.5 -55q-48 0 -91.5 16t-68.5 35.5t-54 35.5t-52 16t-37 -14.5
t-14 -37.5v-40h-175z" />
    <glyph glyph-name="adieresis" unicode="&#xe4;" horiz-adv-x="1280" 
d="M61 522q0 165 65 292t174.5 194t242.5 67q63 0 120 -17t93 -41t63 -48t39 -41l12 -17h11v133h286v-1044h-286v133h-11q-4 -7 -12.5 -18t-38 -39t-64 -50t-92 -39.5t-120.5 -17.5q-133 0 -242.5 67t-174.5 194t-65 292zM358 522q0 -142 72.5 -224.5t183.5 -82.5
q118 0 192.5 82t74.5 225t-74.5 225t-192.5 82q-111 0 -183.5 -82.5t-72.5 -224.5zM686 1393q0 61 41 102t102 41q62 0 103 -41t41 -102t-41.5 -102.5t-102.5 -41.5t-102 41t-41 103zM287 1393q0 61 40.5 102t102.5 41t102.5 -41t40.5 -102q0 -62 -41 -103t-102 -41t-102 41
t-41 103z" />
    <glyph glyph-name="aring" unicode="&#xe5;" horiz-adv-x="1280" 
d="M61 522q0 165 65 292t174.5 194t242.5 67q63 0 120 -17t93 -41t63 -48t39 -41l12 -17h11v133h286v-1044h-286v133h-11q-4 -7 -12.5 -18t-38 -39t-64 -50t-92 -39.5t-120.5 -17.5q-133 0 -242.5 67t-174.5 194t-65 292zM358 522q0 -142 72.5 -224.5t183.5 -82.5
q118 0 192.5 82t74.5 225t-74.5 225t-192.5 82q-111 0 -183.5 -82.5t-72.5 -224.5zM389 1413q0 100 64.5 162.5t171.5 62.5t171 -62.5t64 -162.5t-64 -162.5t-171 -62.5t-171.5 62.5t-64.5 162.5zM522 1413q0 -46 28.5 -74t74.5 -28t74 28t28 74t-28 74.5t-74 28.5
t-74.5 -28.5t-28.5 -74.5z" />
    <glyph glyph-name="ae" unicode="&#xe6;" horiz-adv-x="1966" 
d="M72 297q0 145 107.5 236.5t314.5 91.5h305v30q0 85 -51.5 135t-143.5 50q-43 0 -79 -12.5t-56.5 -31t-34.5 -36.5t-19 -30l-5 -13h-297q2 7 5 20t18.5 50.5t36.5 71t60 75t86.5 71t119 50t155.5 20.5q77 0 144.5 -19t108.5 -46t71 -54t42 -46l13 -19h20q4 7 12.5 19.5
t41.5 44.5t72.5 56t107.5 44t145 20q142 0 264.5 -71.5t195.5 -199t73 -282.5v-61h-820q15 -101 92 -173.5t175 -72.5q52 0 95 12.5t67.5 30.5t42 36.5t23.5 31.5l7 12h307q-2 -8 -6.5 -21t-23.5 -51.5t-43.5 -73.5t-68.5 -77.5t-96 -73t-129 -51.5t-165 -21
q-65 0 -123 12.5t-99 32.5t-76 44t-57 48t-37 44t-22 32l-6 13h-20q-4 -9 -13 -24.5t-45 -54.5t-81.5 -68.5t-126 -54t-175.5 -24.5q-193 0 -301 92.5t-108 235.5zM1096 625h503q-18 88 -84.5 146t-162.5 58q-92 0 -162.5 -56t-93.5 -148zM369 328q0 -57 40.5 -90t122.5 -33
q126 0 196.5 72t70.5 184h-277q-67 0 -110 -39t-43 -94z" />
    <glyph glyph-name="ccedilla" unicode="&#xe7;" horiz-adv-x="1198" 
d="M51 522q0 151 74 278t203.5 201t285.5 74q92 0 171 -22.5t132 -58.5t95.5 -80t67 -87.5t40.5 -79.5t22 -59l5 -22h-297q-2 7 -6.5 18t-23.5 39t-43 49.5t-67.5 39t-95.5 17.5q-110 0 -188 -86t-78 -221t78 -221t188 -86q52 0 95 17t68 41t42.5 48t24.5 41l6 17h297
q-1 -8 -4.5 -22t-19 -55t-36.5 -78t-61 -83.5t-89 -80.5t-124 -59.5t-162 -29.5l-26 -73q7 0 19 -2t42 -14t52.5 -30.5t41.5 -57.5t19 -91q0 -94 -71.5 -159.5t-184.5 -65.5q-50 0 -93.5 10t-61.5 20l-19 11v153q71 -41 163 -41q44 0 68.5 20t24.5 52q0 25 -25 43t-68 18
h-92l74 213q-202 34 -332.5 187t-130.5 358z" />
    <glyph glyph-name="egrave" unicode="&#xe8;" horiz-adv-x="1228" 
d="M51 522q0 151 74 278t203.5 201t285.5 74q160 0 287.5 -74.5t196.5 -200.5t69 -278v-61h-819q15 -101 91.5 -173.5t174.5 -72.5q52 0 95 12.5t68 30.5t42.5 36.5t24.5 31.5l6 12h307q-2 -8 -6.5 -21t-22.5 -51.5t-42.5 -73.5t-69 -77.5t-97.5 -73t-133 -51.5t-172 -21
q-156 0 -285.5 74t-203.5 201t-74 278zM358 635h502q-16 81 -83 137.5t-163 56.5q-95 0 -163 -56t-93 -138zM276 1556h308l153 -307h-215l-246 305v2z" />
    <glyph glyph-name="eacute" unicode="&#xe9;" horiz-adv-x="1228" 
d="M51 522q0 151 74 278t203.5 201t285.5 74q160 0 287.5 -74.5t196.5 -200.5t69 -278v-61h-819q15 -101 91.5 -173.5t174.5 -72.5q52 0 95 12.5t68 30.5t42.5 36.5t24.5 31.5l6 12h307q-2 -8 -6.5 -21t-22.5 -51.5t-42.5 -73.5t-69 -77.5t-97.5 -73t-133 -51.5t-172 -21
q-156 0 -285.5 74t-203.5 201t-74 278zM358 635h502q-16 81 -83 137.5t-163 56.5q-95 0 -163 -56t-93 -138zM502 1249l153 307h308v-2l-246 -305h-215z" />
    <glyph glyph-name="ecircumflex" unicode="&#xea;" horiz-adv-x="1228" 
d="M51 522q0 151 74 278t203.5 201t285.5 74q160 0 287.5 -74.5t196.5 -200.5t69 -278v-61h-819q15 -101 91.5 -173.5t174.5 -72.5q52 0 95 12.5t68 30.5t42.5 36.5t24.5 31.5l6 12h307q-2 -8 -6.5 -21t-22.5 -51.5t-42.5 -73.5t-69 -77.5t-97.5 -73t-133 -51.5t-172 -21
q-156 0 -285.5 74t-203.5 201t-74 278zM358 635h502q-16 81 -83 137.5t-163 56.5q-95 0 -163 -56t-93 -138zM266 1251l236 305h246l235 -305v-2h-225l-113 154h-41l-112 -154h-226v2z" />
    <glyph glyph-name="edieresis" unicode="&#xeb;" horiz-adv-x="1228" 
d="M51 522q0 151 74 278t203.5 201t285.5 74q160 0 287.5 -74.5t196.5 -200.5t69 -278v-61h-819q15 -101 91.5 -173.5t174.5 -72.5q52 0 95 12.5t68 30.5t42.5 36.5t24.5 31.5l6 12h307q-2 -8 -6.5 -21t-22.5 -51.5t-42.5 -73.5t-69 -77.5t-97.5 -73t-133 -51.5t-172 -21
q-156 0 -285.5 74t-203.5 201t-74 278zM358 635h502q-16 81 -83 137.5t-163 56.5q-95 0 -163 -56t-93 -138zM676 1393q0 61 41 102t102 41q62 0 103 -41t41 -102t-41.5 -102.5t-102.5 -41.5t-102 41t-41 103zM276 1393q0 61 41 102t103 41t102.5 -41t40.5 -102
q0 -62 -41 -103t-102 -41q-62 0 -103 41.5t-41 102.5z" />
    <glyph glyph-name="igrave" unicode="&#xec;" horiz-adv-x="512" 
d="M113 0v1044h286v-1044h-286zM-92 1556h307l154 -307h-215l-246 305v2z" />
    <glyph glyph-name="iacute" unicode="&#xed;" horiz-adv-x="512" 
d="M113 0v1044h286v-1044h-286zM133 1249l154 307h307v-2l-246 -305h-215z" />
    <glyph glyph-name="icircumflex" unicode="&#xee;" horiz-adv-x="512" 
d="M113 0v1044h286v-1044h-286zM-102 1251l235 305h246l235 -305v-2h-225l-113 154h-40l-113 -154h-225v2z" />
    <glyph glyph-name="idieresis" unicode="&#xef;" horiz-adv-x="512" 
d="M113 0v1044h286v-1044h-286zM317 1393q0 61 41 102t103 41q61 0 102 -41t41 -102q0 -62 -41 -103t-102 -41t-102.5 41.5t-41.5 102.5zM-82 1393q0 61 41 102t102 41q62 0 103 -41t41 -102t-41.5 -102.5t-102.5 -41.5t-102 41t-41 103z" />
    <glyph glyph-name="eth" unicode="&#xf0;" horiz-adv-x="1208" 
d="M51 471q0 206 140.5 349t340.5 143q69 0 129 -18t96.5 -43.5t63.5 -51.5t38 -44l11 -18h11q-9 40 -24.5 75t-29 59.5t-51.5 69t-61 69.5t-88 94l-2 2l-246 -153v163l143 97l-174 170h307l62 -62l246 144v-164l-144 -92q64 -60 106 -105t88 -110t72.5 -128t44 -148.5
t17.5 -184.5q0 -186 -72 -326.5t-197.5 -214.5t-283.5 -74q-243 0 -393 142t-150 360zM348 471q0 -115 69 -185.5t177 -70.5q116 0 186 70.5t70 185.5t-70 185.5t-186 70.5q-108 0 -177 -71.5t-69 -184.5z" />
    <glyph glyph-name="ntilde" unicode="&#xf1;" horiz-adv-x="1249" 
d="M113 0v1044h286v-143h11q4 7 11.5 19t36 42t62.5 52.5t92.5 41.5t124.5 19q194 0 302 -113.5t108 -326.5v-635h-287v594q0 114 -57 174.5t-158 60.5q-102 0 -174 -78t-72 -198v-553h-286zM287 1260v81q0 85 56.5 140t148.5 55q48 0 91.5 -16t68.5 -35t54 -35t52 -16
t37 14t14 37v41h174v-82q0 -85 -56.5 -140t-148.5 -55q-48 0 -91.5 16t-68.5 35.5t-54 35.5t-52 16t-37 -14.5t-14 -37.5v-40h-174z" />
    <glyph glyph-name="ograve" unicode="&#xf2;" horiz-adv-x="1249" 
d="M51 522q0 152 74.5 278.5t206.5 200.5t293 74q121 0 227.5 -43.5t182 -117.5t119.5 -176t44 -216t-44 -216t-119.5 -176t-182 -117.5t-227.5 -43.5q-161 0 -293 74t-206.5 200.5t-74.5 278.5zM348 522q0 -136 79.5 -221.5t197.5 -85.5t197 85.5t79 221.5t-79 221.5
t-197 85.5t-197.5 -85.5t-79.5 -221.5zM287 1556h307l154 -307h-216l-245 305v2z" />
    <glyph glyph-name="oacute" unicode="&#xf3;" horiz-adv-x="1249" 
d="M51 522q0 152 74.5 278.5t206.5 200.5t293 74q121 0 227.5 -43.5t182 -117.5t119.5 -176t44 -216t-44 -216t-119.5 -176t-182 -117.5t-227.5 -43.5q-161 0 -293 74t-206.5 200.5t-74.5 278.5zM348 522q0 -136 79.5 -221.5t197.5 -85.5t197 85.5t79 221.5t-79 221.5
t-197 85.5t-197.5 -85.5t-79.5 -221.5zM512 1249l154 307h307v-2l-246 -305h-215z" />
    <glyph glyph-name="ocircumflex" unicode="&#xf4;" horiz-adv-x="1249" 
d="M51 522q0 152 74.5 278.5t206.5 200.5t293 74q121 0 227.5 -43.5t182 -117.5t119.5 -176t44 -216t-44 -216t-119.5 -176t-182 -117.5t-227.5 -43.5q-161 0 -293 74t-206.5 200.5t-74.5 278.5zM348 522q0 -136 79.5 -221.5t197.5 -85.5t197 85.5t79 221.5t-79 221.5
t-197 85.5t-197.5 -85.5t-79.5 -221.5zM266 1251l236 305h246l235 -305v-2h-225l-113 154h-41l-112 -154h-226v2z" />
    <glyph glyph-name="otilde" unicode="&#xf5;" horiz-adv-x="1249" 
d="M51 522q0 152 74.5 278.5t206.5 200.5t293 74q121 0 227.5 -43.5t182 -117.5t119.5 -176t44 -216t-44 -216t-119.5 -176t-182 -117.5t-227.5 -43.5q-161 0 -293 74t-206.5 200.5t-74.5 278.5zM348 522q0 -136 79.5 -221.5t197.5 -85.5t197 85.5t79 221.5t-79 221.5
t-197 85.5t-197.5 -85.5t-79.5 -221.5zM276 1260v81q0 85 56.5 140t148.5 55q48 0 91.5 -16t69 -35t54.5 -35t52 -16t37 14t14 37v41h174v-82q0 -85 -56.5 -140t-148.5 -55q-48 0 -91.5 16t-68.5 35.5t-54 35.5t-52 16t-37 -14.5t-14 -37.5v-40h-175z" />
    <glyph glyph-name="odieresis" unicode="&#xf6;" horiz-adv-x="1249" 
d="M51 522q0 152 74.5 278.5t206.5 200.5t293 74q121 0 227.5 -43.5t182 -117.5t119.5 -176t44 -216t-44 -216t-119.5 -176t-182 -117.5t-227.5 -43.5q-161 0 -293 74t-206.5 200.5t-74.5 278.5zM348 522q0 -136 79.5 -221.5t197.5 -85.5t197 85.5t79 221.5t-79 221.5
t-197 85.5t-197.5 -85.5t-79.5 -221.5zM686 1393q0 61 41 102t102 41q62 0 103 -41t41 -102t-41.5 -102.5t-102.5 -41.5t-102 41t-41 103zM287 1393q0 61 40.5 102t102.5 41t102.5 -41t40.5 -102q0 -62 -41 -103t-102 -41t-102 41t-41 103z" />
    <glyph glyph-name="divide" unicode="&#xf7;" horiz-adv-x="1085" 
d="M379 950q0 70 47.5 118t116.5 48t116.5 -48t47.5 -118q0 -68 -47.5 -115t-116.5 -47t-116.5 47t-47.5 115zM123 461v235h840v-235h-840zM379 207q0 68 47.5 115t116.5 47t116.5 -47t47.5 -115q0 -70 -47.5 -118t-116.5 -48t-116.5 48t-47.5 118z" />
    <glyph glyph-name="oslash" unicode="&#xf8;" horiz-adv-x="1249" 
d="M41 -20v225l76 55q-66 120 -66 262q0 152 74.5 278.5t206.5 200.5t293 74q115 0 216.5 -39.5t178.5 -109.5l188 139v-225l-75 -56q65 -124 65 -262q0 -114 -44 -216t-119.5 -176t-182 -117.5t-227.5 -43.5q-234 0 -398 148zM348 522q0 -48 8 -84l445 326q-74 65 -176 65
q-118 0 -197.5 -85.5t-79.5 -221.5zM449 279q73 -64 176 -64q118 0 197 85.5t79 221.5q0 39 -10 84z" />
    <glyph glyph-name="ugrave" unicode="&#xf9;" horiz-adv-x="1259" 
d="M113 410v634h286v-593q0 -114 57 -175t158 -61q102 0 174 78t72 199v552h287v-1044h-287v143h-10q-4 -7 -11.5 -19t-36 -42t-63 -52.5t-93 -41.5t-124.5 -19q-194 0 -301.5 114t-107.5 327zM297 1556h307l154 -307h-215l-246 305v2z" />
    <glyph glyph-name="uacute" unicode="&#xfa;" horiz-adv-x="1259" 
d="M113 410v634h286v-593q0 -114 57 -175t158 -61q102 0 174 78t72 199v552h287v-1044h-287v143h-10q-4 -7 -11.5 -19t-36 -42t-63 -52.5t-93 -41.5t-124.5 -19q-194 0 -301.5 114t-107.5 327zM522 1249l154 307h307v-2l-246 -305h-215z" />
    <glyph glyph-name="ucircumflex" unicode="&#xfb;" horiz-adv-x="1259" 
d="M113 410v634h286v-593q0 -114 57 -175t158 -61q102 0 174 78t72 199v552h287v-1044h-287v143h-10q-4 -7 -11.5 -19t-36 -42t-63 -52.5t-93 -41.5t-124.5 -19q-194 0 -301.5 114t-107.5 327zM266 1251l236 305h246l235 -305v-2h-225l-113 154h-41l-112 -154h-226v2z" />
    <glyph glyph-name="udieresis" unicode="&#xfc;" horiz-adv-x="1259" 
d="M113 410v634h286v-593q0 -114 57 -175t158 -61q102 0 174 78t72 199v552h287v-1044h-287v143h-10q-4 -7 -11.5 -19t-36 -42t-63 -52.5t-93 -41.5t-124.5 -19q-194 0 -301.5 114t-107.5 327zM686 1393q0 61 41 102t102 41q62 0 103 -41t41 -102t-41.5 -102.5t-102.5 -41.5
t-102 41t-41 103zM287 1393q0 61 40.5 102t102.5 41t102.5 -41t40.5 -102q0 -62 -41 -103t-102 -41t-102 41t-41 103z" />
    <glyph glyph-name="yacute" unicode="&#xfd;" horiz-adv-x="1126" 
d="M20 1044h297l205 -798h82l225 798h297l-419 -1433h-297l112 389h-225zM461 1249l153 307h308v-2l-246 -305h-215z" />
    <glyph glyph-name="thorn" unicode="&#xfe;" horiz-adv-x="1280" 
d="M113 -389v1823h286v-523h11q4 7 12.5 18t38 39t64 50t92 39.5t120.5 17.5q133 0 242.5 -67t174.5 -194t65 -292t-65 -292t-174.5 -194t-242.5 -67q-63 0 -120 17t-93 41t-63 48t-39 41l-12 17h-11v-522h-286zM399 522q0 -143 74.5 -225t192.5 -82q111 0 183.5 82.5
t72.5 224.5t-72.5 224.5t-183.5 82.5q-118 0 -192.5 -82t-74.5 -225z" />
    <glyph glyph-name="ydieresis" unicode="&#xff;" horiz-adv-x="1126" 
d="M20 1044h297l205 -798h82l225 798h297l-419 -1433h-297l112 389h-225zM625 1382q0 62 41 103t102 41t102 -41t41 -103t-40.5 -102.5t-102.5 -40.5t-102.5 40.5t-40.5 102.5zM225 1382q0 62 41.5 103t102.5 41t102 -41t41 -103t-41 -102.5t-102 -40.5q-62 0 -103 41
t-41 102z" />
    <glyph glyph-name="Amacron" unicode="&#x100;" horiz-adv-x="1423" 
d="M10 0l379 1434h645l379 -1434h-317l-82 317h-604l-82 -317h-318zM481 604h461l-143 543h-174zM410 1638v195h614v-195h-614z" />
    <glyph glyph-name="amacron" unicode="&#x101;" horiz-adv-x="1280" 
d="M61 522q0 165 65 292t174.5 194t242.5 67q63 0 120 -17t93 -41t63 -48t39 -41l12 -17h11v133h286v-1044h-286v133h-11q-4 -7 -12.5 -18t-38 -39t-64 -50t-92 -39.5t-120.5 -17.5q-133 0 -242.5 67t-174.5 194t-65 292zM358 522q0 -142 72.5 -224.5t183.5 -82.5
q118 0 192.5 82t74.5 225t-74.5 225t-192.5 82q-111 0 -183.5 -82.5t-72.5 -224.5zM328 1270v194h614v-194h-614z" />
    <glyph glyph-name="Abreve" unicode="&#x102;" horiz-adv-x="1423" 
d="M10 0l379 1434h645l379 -1434h-317l-82 317h-604l-82 -317h-318zM481 604h461l-143 543h-174zM389 1884h195q0 -48 33 -75t100 -27t100 27t33 75h194q0 -126 -84.5 -201t-242.5 -75t-243 75t-85 201z" />
    <glyph glyph-name="abreve" unicode="&#x103;" horiz-adv-x="1280" 
d="M61 522q0 165 65 292t174.5 194t242.5 67q63 0 120 -17t93 -41t63 -48t39 -41l12 -17h11v133h286v-1044h-286v133h-11q-4 -7 -12.5 -18t-38 -39t-64 -50t-92 -39.5t-120.5 -17.5q-133 0 -242.5 67t-174.5 194t-65 292zM358 522q0 -142 72.5 -224.5t183.5 -82.5
q118 0 192.5 82t74.5 225t-74.5 225t-192.5 82q-111 0 -183.5 -82.5t-72.5 -224.5zM287 1526h194q0 -48 33 -75.5t100 -27.5t100.5 27.5t33.5 75.5h194q0 -126 -85 -201.5t-243 -75.5q-157 0 -242 75.5t-85 201.5z" />
    <glyph glyph-name="Aogonek" unicode="&#x104;" horiz-adv-x="1423" 
d="M10 0l379 1434h645l379 -1434q-10 -5 -25.5 -15t-56 -40.5t-71.5 -61t-56.5 -73.5t-25.5 -82q0 -34 22.5 -55t63.5 -21q35 0 69.5 10t52.5 20l17 11v-154q-7 -5 -20 -11.5t-56 -18t-88 -11.5q-113 0 -174 54.5t-61 144.5q0 53 27.5 104t66.5 85.5t78 61t66 39.5l28 13
h-174l-82 317h-604l-82 -317h-318zM481 604h461l-143 543h-174z" />
    <glyph glyph-name="aogonek" unicode="&#x105;" horiz-adv-x="1280" 
d="M61 522q0 165 65 292t174.5 194t242.5 67q63 0 120 -17t93 -41t63 -48t39 -41l12 -17h11v133h286v-1044q-10 -5 -25.5 -15t-56 -40.5t-71.5 -61t-56.5 -73.5t-25.5 -82q0 -34 22.5 -55t63.5 -21q35 0 69.5 10t52.5 20l17 11v-154q-7 -5 -20 -11.5t-56 -18t-88 -11.5
q-113 0 -174 54.5t-61 144.5q0 53 27.5 104t66.5 85.5t78 61t66 39.5l28 13h-143v133h-11q-4 -7 -12.5 -18t-38 -39t-64 -50t-92 -39.5t-120.5 -17.5q-133 0 -242.5 67t-174.5 194t-65 292zM358 522q0 -142 72.5 -224.5t183.5 -82.5q118 0 192.5 82t74.5 225t-74.5 225
t-192.5 82q-111 0 -183.5 -82.5t-72.5 -224.5z" />
    <glyph glyph-name="Cacute" unicode="&#x106;" horiz-adv-x="1658" 
d="M72 717q0 159 59 299.5t162 241t250 159t317 58.5q99 0 186.5 -18.5t153 -50t121.5 -72t95 -85.5t70 -90.5t49.5 -86t30.5 -72t16 -50.5l5 -18h-317q-2 5 -5.5 14.5t-18.5 36t-34 50.5t-53 53.5t-74 51t-99 36t-126 14.5q-200 0 -330.5 -132.5t-130.5 -338.5
q0 -214 126.5 -342.5t334.5 -128.5q69 0 129.5 16t102 41t75.5 55.5t54.5 61t34 55.5t18.5 41l6 16h317q-3 -12 -9 -32.5t-31.5 -80t-59 -114t-94 -120.5t-133 -113.5t-180 -80t-230.5 -32.5q-170 0 -317 58.5t-250 159t-162 241t-59 299.5zM727 1608l154 307h307v-2
l-246 -305h-215z" />
    <glyph glyph-name="cacute" unicode="&#x107;" horiz-adv-x="1198" 
d="M51 522q0 151 74 278t203.5 201t285.5 74q92 0 171 -22.5t132 -58.5t95.5 -80t67 -87.5t40.5 -79.5t22 -59l5 -22h-297q-2 7 -6.5 18t-23.5 39t-43 49.5t-67.5 39t-95.5 17.5q-110 0 -188 -86t-78 -221t78 -221t188 -86q52 0 95 17t68 41t42.5 48t24.5 41l6 17h297
q-2 -9 -5.5 -23.5t-20 -57t-39 -81.5t-65.5 -86t-95.5 -81t-133 -57.5t-174.5 -23.5q-156 0 -285.5 74t-203.5 201t-74 278zM492 1249l153 307h307v-2l-245 -305h-215z" />
    <glyph glyph-name="Ccircumflex" unicode="&#x108;" horiz-adv-x="1658" 
d="M72 717q0 159 59 299.5t162 241t250 159t317 58.5q99 0 186.5 -18.5t153 -50t121.5 -72t95 -85.5t70 -90.5t49.5 -86t30.5 -72t16 -50.5l5 -18h-317q-2 5 -5.5 14.5t-18.5 36t-34 50.5t-53 53.5t-74 51t-99 36t-126 14.5q-200 0 -330.5 -132.5t-130.5 -338.5
q0 -214 126.5 -342.5t334.5 -128.5q69 0 129.5 16t102 41t75.5 55.5t54.5 61t34 55.5t18.5 41l6 16h317q-3 -12 -9 -32.5t-31.5 -80t-59 -114t-94 -120.5t-133 -113.5t-180 -80t-230.5 -32.5q-170 0 -317 58.5t-250 159t-162 241t-59 299.5zM481 1610l236 305h246l235 -305
v-2h-225l-113 153h-41l-112 -153h-226v2z" />
    <glyph glyph-name="ccircumflex" unicode="&#x109;" horiz-adv-x="1198" 
d="M51 522q0 151 74 278t203.5 201t285.5 74q92 0 171 -22.5t132 -58.5t95.5 -80t67 -87.5t40.5 -79.5t22 -59l5 -22h-297q-2 7 -6.5 18t-23.5 39t-43 49.5t-67.5 39t-95.5 17.5q-110 0 -188 -86t-78 -221t78 -221t188 -86q52 0 95 17t68 41t42.5 48t24.5 41l6 17h297
q-2 -9 -5.5 -23.5t-20 -57t-39 -81.5t-65.5 -86t-95.5 -81t-133 -57.5t-174.5 -23.5q-156 0 -285.5 74t-203.5 201t-74 278zM246 1251l235 305h246l236 -305v-2h-226l-112 154h-41l-113 -154h-225v2z" />
    <glyph glyph-name="Ccaron" unicode="&#x10c;" horiz-adv-x="1658" 
d="M72 717q0 159 59 299.5t162 241t250 159t317 58.5q99 0 186.5 -18.5t153 -50t121.5 -72t95 -85.5t70 -90.5t49.5 -86t30.5 -72t16 -50.5l5 -18h-317q-2 5 -5.5 14.5t-18.5 36t-34 50.5t-53 53.5t-74 51t-99 36t-126 14.5q-200 0 -330.5 -132.5t-130.5 -338.5
q0 -214 126.5 -342.5t334.5 -128.5q69 0 129.5 16t102 41t75.5 55.5t54.5 61t34 55.5t18.5 41l6 16h317q-3 -12 -9 -32.5t-31.5 -80t-59 -114t-94 -120.5t-133 -113.5t-180 -80t-230.5 -32.5q-170 0 -317 58.5t-250 159t-162 241t-59 299.5zM481 1915h226l112 -154h41
l113 154h225v-2l-235 -305h-246l-236 305v2z" />
    <glyph glyph-name="ccaron" unicode="&#x10d;" horiz-adv-x="1198" 
d="M51 522q0 151 74 278t203.5 201t285.5 74q92 0 171 -22.5t132 -58.5t95.5 -80t67 -87.5t40.5 -79.5t22 -59l5 -22h-297q-2 7 -6.5 18t-23.5 39t-43 49.5t-67.5 39t-95.5 17.5q-110 0 -188 -86t-78 -221t78 -221t188 -86q52 0 95 17t68 41t42.5 48t24.5 41l6 17h297
q-2 -9 -5.5 -23.5t-20 -57t-39 -81.5t-65.5 -86t-95.5 -81t-133 -57.5t-174.5 -23.5q-156 0 -285.5 74t-203.5 201t-74 278zM246 1556h225l113 -153h41l112 153h226v-2l-236 -305h-246l-235 305v2z" />
    <glyph glyph-name="Dcaron" unicode="&#x10e;" horiz-adv-x="1505" 
d="M133 0v1434h522q169 0 315.5 -56t247.5 -152.5t158.5 -228.5t57.5 -280t-57.5 -280t-158.5 -228.5t-247.5 -152.5t-315.5 -56h-522zM440 287h215q213 0 337 118t124 312t-124 312t-337 118h-215v-860zM307 1915h225l113 -154h41l113 154h225v-2l-236 -305h-245l-236 305
v2z" />
    <glyph glyph-name="dcaron" unicode="&#x10f;" horiz-adv-x="1474" 
d="M61 522q0 165 65 292t174.5 194t242.5 67q63 0 120 -17t93 -41t63 -48t39 -41l12 -17h11v523h286v-1434h-286v133h-11q-4 -7 -12.5 -18t-38 -39t-64 -50t-92 -39.5t-120.5 -17.5q-133 0 -242.5 67t-174.5 194t-65 292zM358 522q0 -142 72.5 -224.5t183.5 -82.5
q118 0 192.5 82t74.5 225t-74.5 225t-192.5 82q-111 0 -183.5 -82.5t-72.5 -224.5zM1260 1311q0 61 41 102t102 41q72 0 118 -56t46 -159q0 -131 -78.5 -209t-208.5 -78v113q67 0 100 27t33 75v21q-10 -10 -41 -10q-47 0 -79.5 36.5t-32.5 96.5z" />
    <glyph glyph-name="Dcroat" unicode="&#x110;" horiz-adv-x="1546" 
d="M31 584v266h143v584h522q169 0 315.5 -56t247.5 -152.5t158.5 -228.5t57.5 -280t-57.5 -280t-158.5 -228.5t-247.5 -152.5t-315.5 -56h-522v584h-143zM481 287h215q213 0 337 118t124 312t-124 312t-337 118h-215v-297h297v-266h-297v-297z" />
    <glyph glyph-name="dcroat" unicode="&#x111;" horiz-adv-x="1310" 
d="M61 492q0 113 37.5 211t101.5 165.5t150.5 106.5t181.5 39q63 0 120 -17t93.5 -41t63.5 -48t39 -41l12 -17h10v256h-235v215h235v113h287v-113h133v-215h-133v-1106h-287v133h-10q-4 -7 -12.5 -18t-38.5 -39t-64.5 -50t-92 -39.5t-120.5 -17.5q-127 0 -234.5 66
t-172 186.5t-64.5 270.5zM358 492q0 -122 70 -194.5t186 -72.5t186 72.5t70 194.5t-70 194t-186 72t-186 -72t-70 -194z" />
    <glyph glyph-name="Emacron" unicode="&#x112;" horiz-adv-x="1290" 
d="M133 0v1434h1075v-287h-768v-287h615v-266h-615v-307h768v-287h-1075zM369 1638v195h614v-195h-614z" />
    <glyph glyph-name="emacron" unicode="&#x113;" horiz-adv-x="1228" 
d="M51 522q0 151 74 278t203.5 201t285.5 74q160 0 287.5 -74.5t196.5 -200.5t69 -278v-61h-819q15 -101 91.5 -173.5t174.5 -72.5q52 0 95 12.5t68 30.5t42.5 36.5t24.5 31.5l6 12h307q-2 -8 -6.5 -21t-22.5 -51.5t-42.5 -73.5t-69 -77.5t-97.5 -73t-133 -51.5t-172 -21
q-156 0 -285.5 74t-203.5 201t-74 278zM358 635h502q-16 81 -83 137.5t-163 56.5q-95 0 -163 -56t-93 -138zM307 1280v195h615v-195h-615z" />
    <glyph glyph-name="Edotaccent" unicode="&#x116;" horiz-adv-x="1290" 
d="M133 0v1434h1075v-287h-768v-287h615v-266h-615v-307h768v-287h-1075zM522 1741q0 62 48 107.5t116 45.5t116 -45.5t48 -107.5t-48 -108t-116 -46t-116 46t-48 108z" />
    <glyph glyph-name="edotaccent" unicode="&#x117;" horiz-adv-x="1228" 
d="M51 522q0 151 74 278t203.5 201t285.5 74q160 0 287.5 -74.5t196.5 -200.5t69 -278v-61h-819q15 -101 91.5 -173.5t174.5 -72.5q52 0 95 12.5t68 30.5t42.5 36.5t24.5 31.5l6 12h307q-2 -8 -6.5 -21t-22.5 -51.5t-42.5 -73.5t-69 -77.5t-97.5 -73t-133 -51.5t-172 -21
q-156 0 -285.5 74t-203.5 201t-74 278zM358 635h502q-16 81 -83 137.5t-163 56.5q-95 0 -163 -56t-93 -138zM451 1382q0 62 47.5 108t115.5 46t116 -46t48 -108t-48 -107.5t-116 -45.5t-115.5 45.5t-47.5 107.5z" />
    <glyph glyph-name="Eogonek" unicode="&#x118;" horiz-adv-x="1290" 
d="M133 0v1434h1075v-287h-768v-287h615v-266h-615v-307h768v-287q-10 -5 -25.5 -15t-56 -40.5t-71.5 -61t-56.5 -73.5t-25.5 -82q0 -34 22.5 -55t63.5 -21q35 0 69.5 10t51.5 20l18 11v-154q-7 -5 -20 -11.5t-56 -18t-88 -11.5q-113 0 -174 54.5t-61 144.5q0 53 27.5 104
t66.5 85.5t78 61t67 39.5l27 13h-932z" />
    <glyph glyph-name="eogonek" unicode="&#x119;" horiz-adv-x="1228" 
d="M51 522q0 151 74 278t203.5 201t285.5 74q160 0 287.5 -74.5t196.5 -200.5t69 -278v-61h-819q15 -101 91.5 -173.5t174.5 -72.5q52 0 95 12.5t68 30.5t42.5 36.5t24.5 31.5l6 12h307q-2 -8 -6.5 -22.5t-24.5 -55.5t-46 -77.5t-74 -79.5t-105 -72q-11 -7 -29.5 -18.5
t-66.5 -47.5t-84 -70.5t-66 -81t-30 -85.5q0 -34 22.5 -55t63.5 -21q35 0 69.5 10t51.5 20l18 11v-154q-7 -5 -20 -11.5t-56 -18t-88 -11.5q-113 0 -174 54.5t-61 144.5q0 45 22 89.5t53.5 76t63.5 56.5t54 37l22 13h-52q-156 0 -285.5 74t-203.5 201t-74 278zM358 635h502
q-16 81 -83 137.5t-163 56.5q-95 0 -163 -56t-93 -138z" />
    <glyph glyph-name="Ecaron" unicode="&#x11a;" horiz-adv-x="1290" 
d="M133 0v1434h1075v-287h-768v-287h615v-266h-615v-307h768v-287h-1075zM317 1915h226l112 -154h41l113 154h225v-2l-235 -305h-246l-236 305v2z" />
    <glyph glyph-name="ecaron" unicode="&#x11b;" horiz-adv-x="1228" 
d="M51 522q0 151 74 278t203.5 201t285.5 74q160 0 287.5 -74.5t196.5 -200.5t69 -278v-61h-819q15 -101 91.5 -173.5t174.5 -72.5q52 0 95 12.5t68 30.5t42.5 36.5t24.5 31.5l6 12h307q-2 -8 -6.5 -21t-22.5 -51.5t-42.5 -73.5t-69 -77.5t-97.5 -73t-133 -51.5t-172 -21
q-156 0 -285.5 74t-203.5 201t-74 278zM358 635h502q-16 81 -83 137.5t-163 56.5q-95 0 -163 -56t-93 -138zM256 1556h225l113 -153h41l113 153h225v-2l-236 -305h-245l-236 305v2z" />
    <glyph glyph-name="Gbreve" unicode="&#x11e;" horiz-adv-x="1771" 
d="M72 717q0 159 59 299.5t162 241t250 159t317 58.5q99 0 186.5 -18t153 -49t121.5 -71t95 -84.5t70 -88.5t49.5 -84t30.5 -71t16 -49l5 -18h-317q-2 5 -5.5 14t-18.5 34.5t-34 48.5t-53 51.5t-74 49t-99 34.5t-126 14q-205 0 -333 -130.5t-128 -340.5q0 -214 126.5 -342.5
t334.5 -128.5q69 0 129.5 15t102 39.5t75.5 54t54.5 59t34 54t18.5 39.5l6 15h-225v256h706v-256h-164q-3 -12 -9 -32t-31.5 -78.5t-59 -112t-94 -118.5t-133 -111.5t-180 -78.5t-230.5 -32q-170 0 -317 58.5t-250 159t-162 241t-59 299.5zM522 1884h195q0 -48 33 -75
t100 -27t100 27t33 75h195q0 -126 -85 -201t-243 -75t-243 75t-85 201z" />
    <glyph glyph-name="gbreve" unicode="&#x11f;" horiz-adv-x="1280" 
d="M61 532q0 159 65 284t174.5 192t242.5 67q63 0 120 -17t93 -41.5t63 -49t39 -41.5l12 -17h11v135h286v-1433h-952v246h666v299h-11q-4 -7 -12.5 -18t-38 -39.5t-64 -50.5t-92 -40t-120.5 -18q-99 0 -187.5 39.5t-153.5 109t-103 171.5t-38 222zM358 532q0 -136 74.5 -216
t192.5 -80q110 0 183 80.5t73 215.5t-73 216t-183 81q-118 0 -192.5 -80.5t-74.5 -216.5zM297 1526h195q0 -48 33 -75.5t100 -27.5t100 27.5t33 75.5h194q0 -126 -85 -201.5t-242 -75.5q-158 0 -243 75.5t-85 201.5z" />
    <glyph glyph-name="Gcommaaccent" unicode="&#x122;" horiz-adv-x="1771" 
d="M72 717q0 159 59 299.5t162 241t250 159t317 58.5q99 0 186.5 -18t153 -49t121.5 -71t95 -84.5t70 -88.5t49.5 -84t30.5 -71t16 -49l5 -18h-317q-2 5 -5.5 14t-18.5 34.5t-34 48.5t-53 51.5t-74 49t-99 34.5t-126 14q-205 0 -333 -130.5t-128 -340.5q0 -214 126.5 -342.5
t334.5 -128.5q69 0 129.5 15t102 39.5t75.5 54t54.5 59t34 54t18.5 39.5l6 15h-225v256h706v-256h-164q-3 -12 -9 -32t-31.5 -78.5t-59 -112t-94 -118.5t-133 -111.5t-180 -78.5t-230.5 -32q-170 0 -317 58.5t-250 159t-162 241t-59 299.5zM686 -328q0 62 41 103t102 41
q72 0 118 -56t46 -159q0 -131 -78 -209t-208 -78v113q67 0 100 27t33 75v20q-10 -10 -41 -10q-47 0 -80 36.5t-33 96.5z" />
    <glyph glyph-name="gcommaaccent" unicode="&#x123;" horiz-adv-x="1280" 
d="M461 1434q0 130 78 208t209 78v-112q-67 0 -100.5 -27.5t-33.5 -75.5v-20q10 10 41 10q47 0 80 -36.5t33 -96.5q0 -62 -41 -102.5t-102 -40.5q-72 0 -118 56t-46 159zM61 532q0 159 65 284t174.5 192t242.5 67q63 0 120 -17t93 -41.5t63 -49t39 -41.5l12 -17h11v135h286
v-1433h-952v246h666v299h-11q-4 -7 -12.5 -18t-38 -39.5t-64 -50.5t-92 -40t-120.5 -18q-99 0 -187.5 39.5t-153.5 109t-103 171.5t-38 222zM358 532q0 -136 74.5 -216t192.5 -80q110 0 183 80.5t73 215.5t-73 216t-183 81q-118 0 -192.5 -80.5t-74.5 -216.5z" />
    <glyph glyph-name="Imacron" unicode="&#x12a;" horiz-adv-x="573" 
d="M133 0v1434h307v-1434h-307zM-20 1638v195h614v-195h-614z" />
    <glyph glyph-name="imacron" unicode="&#x12b;" horiz-adv-x="512" 
d="M113 0v1044h286v-1044h-286zM-51 1280v195h614v-195h-614z" />
    <glyph glyph-name="Iogonek" unicode="&#x12e;" horiz-adv-x="573" 
d="M31 -303q0 53 27.5 104t66.5 85.5t78 61t67 39.5l27 13h-164v1434h307v-1434q-10 -5 -25.5 -15t-56 -40.5t-71.5 -61t-56.5 -73.5t-25.5 -82q0 -34 22.5 -55t63.5 -21q35 0 69.5 10t51.5 20l18 11v-154q-7 -5 -20 -11.5t-56 -18t-88 -11.5q-113 0 -174 54.5t-61 144.5z
" />
    <glyph glyph-name="iogonek" unicode="&#x12f;" horiz-adv-x="512" 
d="M92 1331q0 62 48 108t116 46t116 -46t48 -108t-48 -107.5t-116 -45.5t-116 45.5t-48 107.5zM-10 -303q0 53 27.5 104t66.5 85.5t78 61t66 39.5l28 13h-143v1044h286v-1044q-10 -5 -25.5 -15t-56 -40.5t-71.5 -61t-56.5 -73.5t-25.5 -82q0 -34 22.5 -55t63.5 -21
q35 0 69.5 10t52.5 20l17 11v-154q-7 -5 -20 -11.5t-56 -18t-88 -11.5q-113 0 -174 54.5t-61 144.5z" />
    <glyph glyph-name="Idotaccent" unicode="&#x130;" horiz-adv-x="573" 
d="M133 0v1434h307v-1434h-307zM123 1741q0 62 48 107.5t116 45.5t116 -45.5t48 -107.5t-48 -108t-116 -46t-116 46t-48 108z" />
    <glyph glyph-name="dotlessi" unicode="&#x131;" horiz-adv-x="512" 
d="M113 0v1044h286v-1044h-286z" />
    <glyph glyph-name="Kcommaaccent" unicode="&#x136;" horiz-adv-x="1402" 
d="M133 0v1434h307v-564h205l389 564h348l-471 -686l502 -748h-358l-400 584h-215v-584h-307zM563 -328q0 62 41.5 103t102.5 41q72 0 117.5 -56t45.5 -159q0 -131 -78 -209t-208 -78v113q67 0 100 27t33 75v20q-10 -10 -41 -10q-47 0 -80 36.5t-33 96.5z" />
    <glyph glyph-name="kcommaaccent" unicode="&#x137;" horiz-adv-x="1136" 
d="M113 0v1434h286v-779h123l277 389h317l-338 -481l369 -563h-328l-266 410h-154v-410h-286zM451 -328q0 62 41 103t102 41q72 0 118 -56t46 -159q0 -131 -78 -209t-209 -78v113q67 0 100 27t33 75v20q-10 -10 -41 -10q-47 0 -79.5 36.5t-32.5 96.5z" />
    <glyph glyph-name="Lacute" unicode="&#x139;" horiz-adv-x="1167" 
d="M133 0v1434h307v-1147h707v-287h-1014zM174 1608l154 307h307v-2l-246 -305h-215z" />
    <glyph glyph-name="lacute" unicode="&#x13a;" horiz-adv-x="655" 
d="M113 0v1434h286v-1188h236v-246h-522zM143 1608l154 307h307v-2l-246 -305h-215z" />
    <glyph glyph-name="Lcommaaccent" unicode="&#x13b;" horiz-adv-x="1167" 
d="M133 0v1434h307v-1147h707v-287h-1014zM502 -328q0 62 41 103t102 41q72 0 118 -56t46 -159q0 -131 -78.5 -209t-208.5 -78v113q67 0 100 27t33 75v20q-10 -10 -41 -10q-47 0 -79.5 36.5t-32.5 96.5z" />
    <glyph glyph-name="lcommaaccent" unicode="&#x13c;" horiz-adv-x="655" 
d="M113 0v1434h286v-1188h236v-246h-522zM215 -328q0 62 41 103t102 41q72 0 118 -56t46 -159q0 -131 -78 -209t-208 -78v113q67 0 100 27t33 75v20q-10 -10 -41 -10q-47 0 -80 36.5t-33 96.5z" />
    <glyph glyph-name="Lcaron" unicode="&#x13d;" horiz-adv-x="1167" 
d="M133 0v1434h307v-1147h707v-287h-1014zM594 1321q0 61 41 102t102 41q72 0 118 -56t46 -159q0 -130 -78 -208t-209 -78v112q67 0 100.5 27.5t33.5 75.5v20q-10 -10 -41 -10q-47 0 -80 36.5t-33 96.5z" />
    <glyph glyph-name="lcaron" unicode="&#x13e;" horiz-adv-x="706" 
d="M113 0v1434h286v-1188h236v-246h-522zM492 1321q0 61 41 102t102 41q72 0 118 -56t46 -159q0 -130 -78 -208t-209 -78v112q67 0 100 27.5t33 75.5v20q-10 -10 -41 -10q-47 0 -79.5 36.5t-32.5 96.5z" />
    <glyph glyph-name="Lslash" unicode="&#x141;" 
d="M10 451v266l144 71v646h307v-512l307 143v-266l-307 -144v-368h706v-287h-1013v522z" />
    <glyph glyph-name="lslash" unicode="&#x142;" horiz-adv-x="706" 
d="M10 461v246l154 71v656h287v-523l204 93v-246l-204 -92v-420h235v-246h-522v532z" />
    <glyph glyph-name="Nacute" unicode="&#x143;" horiz-adv-x="1536" 
d="M133 0v1434h399l564 -1014h20l-20 174v840h307v-1434h-399l-564 1014h-20l20 -174v-840h-307zM635 1608l153 307h308v-2l-246 -305h-215z" />
    <glyph glyph-name="nacute" unicode="&#x144;" horiz-adv-x="1249" 
d="M113 0v1044h286v-143h11q4 7 11.5 19t36 42t62.5 52.5t92.5 41.5t124.5 19q194 0 302 -113.5t108 -326.5v-635h-287v594q0 114 -57 174.5t-158 60.5q-102 0 -174 -78t-72 -198v-553h-286zM502 1249l153 307h308v-2l-246 -305h-215z" />
    <glyph glyph-name="Ncommaaccent" unicode="&#x145;" horiz-adv-x="1536" 
d="M133 0v1434h399l564 -1014h20l-20 174v840h307v-1434h-399l-564 1014h-20l20 -174v-840h-307zM614 -328q0 62 41 103t103 41q72 0 118 -56t46 -159q0 -131 -78 -209t-209 -78v113q67 0 100 27t33 75v20q-10 -10 -41 -10q-47 0 -80 36.5t-33 96.5z" />
    <glyph glyph-name="ncommaaccent" unicode="&#x146;" horiz-adv-x="1249" 
d="M113 0v1044h286v-143h11q4 7 11.5 19t36 42t62.5 52.5t92.5 41.5t124.5 19q194 0 302 -113.5t108 -326.5v-635h-287v594q0 114 -57 174.5t-158 60.5q-102 0 -174 -78t-72 -198v-553h-286zM471 -328q0 62 41 103t102 41q72 0 118 -56t46 -159q0 -131 -78 -209t-208 -78
v113q67 0 100 27t33 75v20q-10 -10 -41 -10q-47 0 -80 36.5t-33 96.5z" />
    <glyph glyph-name="Ncaron" unicode="&#x147;" horiz-adv-x="1536" 
d="M133 0v1434h399l564 -1014h20l-20 174v840h307v-1434h-399l-564 1014h-20l20 -174v-840h-307zM410 1915h225l113 -154h40l113 154h225v-2l-235 -305h-246l-235 305v2z" />
    <glyph glyph-name="ncaron" unicode="&#x148;" horiz-adv-x="1249" 
d="M113 0v1044h286v-143h11q4 7 11.5 19t36 42t62.5 52.5t92.5 41.5t124.5 19q194 0 302 -113.5t108 -326.5v-635h-287v594q0 114 -57 174.5t-158 60.5q-102 0 -174 -78t-72 -198v-553h-286zM276 1556h226l112 -153h41l113 153h225v-2l-235 -305h-246l-236 305v2z" />
    <glyph glyph-name="Omacron" unicode="&#x14c;" horiz-adv-x="1720" 
d="M72 717q0 155 60 295t164 242t251 161.5t313 59.5t313 -59.5t251 -161.5t164.5 -242t60.5 -295t-60.5 -295t-164.5 -242t-251 -161.5t-313 -59.5t-313 59.5t-251 161.5t-164 242t-60 295zM399 717q0 -206 130.5 -338.5t330.5 -132.5t330.5 132.5t130.5 338.5
t-130.5 338.5t-330.5 132.5t-330.5 -132.5t-130.5 -338.5zM553 1638v195h614v-195h-614z" />
    <glyph glyph-name="omacron" unicode="&#x14d;" horiz-adv-x="1249" 
d="M51 522q0 152 74.5 278.5t206.5 200.5t293 74q121 0 227.5 -43.5t182 -117.5t119.5 -176t44 -216t-44 -216t-119.5 -176t-182 -117.5t-227.5 -43.5q-161 0 -293 74t-206.5 200.5t-74.5 278.5zM348 522q0 -136 79.5 -221.5t197.5 -85.5t197 85.5t79 221.5t-79 221.5
t-197 85.5t-197.5 -85.5t-79.5 -221.5zM317 1280v195h615v-195h-615z" />
    <glyph glyph-name="Ohungarumlaut" unicode="&#x150;" horiz-adv-x="1720" 
d="M72 717q0 155 60 295t164 242t251 161.5t313 59.5t313 -59.5t251 -161.5t164.5 -242t60.5 -295t-60.5 -295t-164.5 -242t-251 -161.5t-313 -59.5t-313 59.5t-251 161.5t-164 242t-60 295zM399 717q0 -206 130.5 -338.5t330.5 -132.5t330.5 132.5t130.5 338.5
t-130.5 338.5t-330.5 132.5t-330.5 -132.5t-130.5 -338.5zM920 1608l143 307h266v-2l-235 -305h-174zM582 1608l143 307h256v-2l-225 -305h-174z" />
    <glyph glyph-name="ohungarumlaut" unicode="&#x151;" horiz-adv-x="1249" 
d="M51 522q0 152 74.5 278.5t206.5 200.5t293 74q121 0 227.5 -43.5t182 -117.5t119.5 -176t44 -216t-44 -216t-119.5 -176t-182 -117.5t-227.5 -43.5q-161 0 -293 74t-206.5 200.5t-74.5 278.5zM348 522q0 -136 79.5 -221.5t197.5 -85.5t197 85.5t79 221.5t-79 221.5
t-197 85.5t-197.5 -85.5t-79.5 -221.5zM696 1249l144 307h266v-2l-236 -305h-174zM358 1249l144 307h256v-2l-226 -305h-174z" />
    <glyph glyph-name="OE" unicode="&#x152;" horiz-adv-x="2416" 
d="M72 717q0 158 58 299.5t155.5 241.5t231.5 158.5t282 58.5q95 0 179 -23t137 -55.5t92 -65t56 -55.5l17 -23v181h1055v-287h-748v-287h594v-266h-594v-307h748v-287h-1055v178q-6 -9 -17.5 -23.5t-54.5 -52.5t-93.5 -67t-135.5 -52.5t-180 -23.5q-148 0 -282 58.5
t-231.5 158.5t-155.5 241.5t-58 299.5zM399 717q0 -213 123.5 -342t317.5 -129t317 129t123 342t-123 342t-317 129t-317.5 -129t-123.5 -342z" />
    <glyph glyph-name="oe" unicode="&#x153;" horiz-adv-x="2037" 
d="M51 522q0 113 43.5 215.5t117.5 176.5t176.5 117.5t215.5 43.5q83 0 156 -21t117.5 -51.5t77 -60.5t45.5 -51l14 -21h20q5 8 14 22t44 49.5t77 62.5t113.5 49t151.5 22q113 0 213.5 -42t172.5 -115t114 -176t42 -220v-61h-809q15 -108 86 -177t170 -69q52 0 95 12.5
t68 30.5t42.5 36.5t23.5 31.5l7 12h307q-2 -8 -6.5 -21t-23.5 -51.5t-43.5 -73.5t-68.5 -77.5t-96 -73t-129 -51.5t-165 -21q-80 0 -151 21t-114.5 51t-75.5 60.5t-45 51.5l-14 21h-20q-5 -8 -15 -22t-46.5 -49.5t-80 -62.5t-116 -49t-152.5 -22q-113 0 -215.5 43.5
t-176.5 117.5t-117.5 176.5t-43.5 215.5zM1178 635h491q-16 80 -81 137t-154 57q-95 0 -159 -52t-97 -142zM348 522q0 -135 78 -221t188 -86t188.5 86t78.5 221t-78.5 221t-188.5 86t-188 -86t-78 -221z" />
    <glyph glyph-name="Racute" unicode="&#x154;" horiz-adv-x="1443" 
d="M133 0v1434h676q127 0 234 -38t178.5 -103.5t111 -153t39.5 -187.5q0 -160 -90 -271t-238 -169l328 -512h-348l-297 471h-287v-471h-307zM440 758h359q126 0 191 53t65 141t-65 141.5t-191 53.5h-359v-389zM563 1608l154 307h307v-2l-246 -305h-215z" />
    <glyph glyph-name="racute" unicode="&#x155;" horiz-adv-x="829" 
d="M113 0v1044h286v-153h11q2 7 7.5 19t27 42t49 52.5t76.5 41.5t106 19h123v-277h-154q-115 0 -180.5 -63.5t-65.5 -171.5v-553h-286zM338 1249l154 307h307v-2l-246 -305h-215z" />
    <glyph glyph-name="Rcommaaccent" unicode="&#x156;" horiz-adv-x="1443" 
d="M133 0v1434h676q127 0 234 -38t178.5 -103.5t111 -153t39.5 -187.5q0 -160 -90 -271t-238 -169l328 -512h-348l-297 471h-287v-471h-307zM440 758h359q126 0 191 53t65 141t-65 141.5t-191 53.5h-359v-389zM573 -328q0 62 41.5 103t102.5 41q72 0 118 -56t46 -159
q0 -131 -78.5 -209t-208.5 -78v113q67 0 100 27t33 75v20q-10 -10 -41 -10q-47 0 -80 36.5t-33 96.5z" />
    <glyph glyph-name="rcommaaccent" unicode="&#x157;" horiz-adv-x="829" 
d="M113 0v1044h286v-153h11q2 7 7.5 19t27 42t49 52.5t76.5 41.5t106 19h123v-277h-154q-115 0 -180.5 -63.5t-65.5 -171.5v-553h-286zM92 -328q0 62 41 103t103 41q72 0 117.5 -56t45.5 -159q0 -131 -78 -209t-208 -78v113q67 0 100 27t33 75v20q-10 -10 -41 -10
q-47 0 -80 36.5t-33 96.5z" />
    <glyph glyph-name="Rcaron" unicode="&#x158;" horiz-adv-x="1443" 
d="M133 0v1434h676q127 0 234 -38t178.5 -103.5t111 -153t39.5 -187.5q0 -160 -90 -271t-238 -169l328 -512h-348l-297 471h-287v-471h-307zM440 758h359q126 0 191 53t65 141t-65 141.5t-191 53.5h-359v-389zM358 1915h226l112 -154h41l113 154h225v-2l-235 -305h-246
l-236 305v2z" />
    <glyph glyph-name="rcaron" unicode="&#x159;" horiz-adv-x="829" 
d="M113 0v1044h286v-153h11q2 7 7.5 19t27 42t49 52.5t76.5 41.5t106 19h123v-277h-154q-115 0 -180.5 -63.5t-65.5 -171.5v-553h-286zM102 1556h226l112 -153h41l113 153h225v-2l-235 -305h-246l-236 305v2z" />
    <glyph glyph-name="Sacute" unicode="&#x15a;" horiz-adv-x="1351" 
d="M51 451h318q2 -9 7 -23.5t29 -51.5t56.5 -65.5t95 -51.5t139.5 -23q139 0 203 44.5t64 118.5q0 42 -29 74t-78.5 53.5t-113 39t-134 36t-141 40t-134 55t-113 77t-78.5 110t-29 150.5q0 89 38 168.5t107.5 140.5t175 96.5t232.5 35.5q109 0 200 -24.5t150.5 -63
t106 -85.5t71.5 -94.5t41 -86t21 -63.5l4 -24h-318q-1 7 -4.5 18t-22 39t-45.5 50t-81 39.5t-123 17.5q-116 0 -176 -44t-60 -110q0 -42 29 -74t78.5 -53.5t113 -39t134 -36t141 -40t134 -54.5t113 -76.5t78.5 -110t29 -150.5q0 -91 -38 -172t-109.5 -143.5t-184.5 -99
t-252 -36.5q-90 0 -170 17t-138.5 45.5t-108.5 65t-83.5 77.5t-60.5 82t-42 77.5t-25 65t-14 45.5zM573 1608l154 307h307v-2l-246 -305h-215z" />
    <glyph glyph-name="sacute" unicode="&#x15b;" horiz-adv-x="1085" 
d="M41 338h297q2 -5 6 -14t21 -32t40 -40.5t65 -32t93 -14.5q95 0 134.5 26.5t39.5 75.5q0 29 -27.5 50t-73 32t-103.5 24.5t-118.5 26.5t-118.5 38.5t-103.5 59t-73 90.5t-27.5 130q0 131 117.5 224t322.5 93q90 0 165.5 -18.5t124.5 -48.5t88 -66t59.5 -72t33.5 -66
t17 -48l4 -19h-287q-1 4 -4.5 11t-18 25t-35 31.5t-59.5 24.5t-88 11q-71 0 -107 -24t-36 -58q0 -29 27.5 -50t73 -32t103.5 -24.5t118.5 -26.5t118.5 -38.5t103.5 -59t73 -90.5t27.5 -130q0 -139 -126 -238.5t-345 -99.5q-72 0 -136.5 12.5t-111.5 34t-87.5 49t-68 58.5
t-49 61.5t-34.5 58t-21 49t-11 34.5zM420 1249l153 307h308v-2l-246 -305h-215z" />
    <glyph glyph-name="Scedilla" unicode="&#x15e;" horiz-adv-x="1351" 
d="M51 451h318q2 -9 7 -23.5t29 -51.5t56.5 -65.5t95 -51.5t139.5 -23q139 0 203 44.5t64 118.5q0 42 -29 74t-78.5 53.5t-113 39t-134 36t-141 40t-134 55t-113 77t-78.5 110t-29 150.5q0 89 38 168.5t107.5 140.5t175 96.5t232.5 35.5q109 0 200 -24.5t150.5 -63
t106 -85.5t71.5 -94.5t41 -86t21 -63.5l4 -24h-318q-1 7 -4.5 18t-22 39t-45.5 50t-81 39.5t-123 17.5q-116 0 -176 -44t-60 -110q0 -42 29 -74t78.5 -53.5t113 -39t134 -36t141 -40t134 -54.5t113 -76.5t78.5 -110t29 -150.5q0 -177 -136.5 -304.5t-381.5 -144.5l-25 -63
q7 0 19 -2t42 -14t52.5 -30.5t41.5 -57.5t19 -91q0 -94 -71.5 -159.5t-184.5 -65.5q-50 0 -93.5 10t-61.5 20l-19 11v153q72 -41 164 -41q44 0 68 20t24 52q0 25 -24.5 43t-67.5 18h-92l68 199q-101 8 -187.5 39t-143 74.5t-101.5 94.5t-70 100.5t-41.5 89.5t-21.5 65z" />
    <glyph glyph-name="scedilla" unicode="&#x15f;" horiz-adv-x="1085" 
d="M41 338h297q2 -5 6 -14t21 -32t40 -40.5t65 -32t93 -14.5q95 0 134.5 26.5t39.5 75.5q0 29 -27.5 50t-73 32t-103.5 24.5t-118.5 26.5t-118.5 38.5t-103.5 59t-73 90.5t-27.5 130q0 131 117.5 224t322.5 93q90 0 165.5 -18.5t124.5 -48.5t88 -66t59.5 -72t33.5 -66
t17 -48l4 -19h-287q-1 4 -4.5 11t-18 25t-35 31.5t-59.5 24.5t-88 11q-71 0 -107 -24t-36 -58q0 -29 27.5 -50t73 -32t103.5 -24.5t118.5 -26.5t118.5 -38.5t103.5 -59t73 -90.5t27.5 -130q0 -84 -46 -155.5t-141 -121t-224 -59.5l-29 -73q7 0 19 -2t42 -14t52.5 -30.5
t41.5 -57.5t19 -91q0 -94 -71.5 -159.5t-184.5 -65.5q-50 0 -93.5 10t-62.5 20l-18 11v153q72 -41 164 -41q44 0 68 20t24 52q0 25 -24.5 43t-67.5 18h-92l71 211q-77 8 -143 32.5t-109.5 57t-78.5 70t-54.5 73t-32.5 65t-17 47.5z" />
    <glyph glyph-name="Scaron" unicode="&#x160;" horiz-adv-x="1351" 
d="M51 451h318q2 -9 7 -23.5t29 -51.5t56.5 -65.5t95 -51.5t139.5 -23q139 0 203 44.5t64 118.5q0 42 -29 74t-78.5 53.5t-113 39t-134 36t-141 40t-134 55t-113 77t-78.5 110t-29 150.5q0 89 38 168.5t107.5 140.5t175 96.5t232.5 35.5q109 0 200 -24.5t150.5 -63
t106 -85.5t71.5 -94.5t41 -86t21 -63.5l4 -24h-318q-1 7 -4.5 18t-22 39t-45.5 50t-81 39.5t-123 17.5q-116 0 -176 -44t-60 -110q0 -42 29 -74t78.5 -53.5t113 -39t134 -36t141 -40t134 -54.5t113 -76.5t78.5 -110t29 -150.5q0 -91 -38 -172t-109.5 -143.5t-184.5 -99
t-252 -36.5q-90 0 -170 17t-138.5 45.5t-108.5 65t-83.5 77.5t-60.5 82t-42 77.5t-25 65t-14 45.5zM307 1915h225l113 -154h41l113 154h225v-2l-236 -305h-245l-236 305v2z" />
    <glyph glyph-name="scaron" unicode="&#x161;" horiz-adv-x="1085" 
d="M41 338h297q2 -5 6 -14t21 -32t40 -40.5t65 -32t93 -14.5q95 0 134.5 26.5t39.5 75.5q0 29 -27.5 50t-73 32t-103.5 24.5t-118.5 26.5t-118.5 38.5t-103.5 59t-73 90.5t-27.5 130q0 131 117.5 224t322.5 93q90 0 165.5 -18.5t124.5 -48.5t88 -66t59.5 -72t33.5 -66
t17 -48l4 -19h-287q-1 4 -4.5 11t-18 25t-35 31.5t-59.5 24.5t-88 11q-71 0 -107 -24t-36 -58q0 -29 27.5 -50t73 -32t103.5 -24.5t118.5 -26.5t118.5 -38.5t103.5 -59t73 -90.5t27.5 -130q0 -139 -126 -238.5t-345 -99.5q-72 0 -136.5 12.5t-111.5 34t-87.5 49t-68 58.5
t-49 61.5t-34.5 58t-21 49t-11 34.5zM174 1556h225l113 -153h41l113 153h225v-2l-236 -305h-245l-236 305v2z" />
    <glyph glyph-name="Tcommaaccent" unicode="&#x162;" horiz-adv-x="1269" 
d="M20 1147v287h1229v-287h-461v-1147h-307v1147h-461zM481 -328q0 62 41.5 103t102.5 41q72 0 117.5 -56t45.5 -159q0 -131 -78 -209t-208 -78v113q67 0 100 27t33 75v20q-10 -10 -41 -10q-47 0 -80 36.5t-33 96.5z" />
    <glyph glyph-name="tcommaaccent" unicode="&#x163;" horiz-adv-x="808" 
d="M31 799v245h133v226h287v-226h294v-245h-294v-553h307v-246h-594v799h-133zM307 -328q0 62 41.5 103t102.5 41q72 0 117.5 -56t45.5 -159q0 -131 -78 -209t-208 -78v113q67 0 100 27t33 75v20q-10 -10 -41 -10q-47 0 -80 36.5t-33 96.5z" />
    <glyph glyph-name="Tcaron" unicode="&#x164;" horiz-adv-x="1269" 
d="M20 1147v287h1229v-287h-461v-1147h-307v1147h-461zM276 1915h226l112 -154h41l113 154h225v-2l-235 -305h-246l-236 305v2z" />
    <glyph glyph-name="tcaron" unicode="&#x165;" horiz-adv-x="849" 
d="M31 799v245h133v226h287v-1024h307v-246h-594v799h-133zM543 1157q0 61 40.5 102t102.5 41q72 0 118 -56t46 -159q0 -130 -78 -208t-209 -78v112q67 0 100 27.5t33 75.5v20q-10 -10 -41 -10q-47 0 -79.5 36.5t-32.5 96.5z" />
    <glyph glyph-name="Umacron" unicode="&#x16a;" horiz-adv-x="1474" 
d="M123 563v871h307v-871q0 -145 84 -231t223 -86t223 86t84 231v871h308v-871q0 -277 -165.5 -440.5t-449.5 -163.5t-449 163.5t-165 440.5zM430 1638v195h614v-195h-614z" />
    <glyph glyph-name="umacron" unicode="&#x16b;" horiz-adv-x="1259" 
d="M113 410v634h286v-593q0 -114 57 -175t158 -61q102 0 174 78t72 199v552h287v-1044h-287v143h-10q-4 -7 -11.5 -19t-36 -42t-63 -52.5t-93 -41.5t-124.5 -19q-194 0 -301.5 114t-107.5 327zM317 1280v195h615v-195h-615z" />
    <glyph glyph-name="Uring" unicode="&#x16e;" horiz-adv-x="1474" 
d="M123 563v871h307v-871q0 -145 84 -231t223 -86t223 86t84 231v871h308v-871q0 -277 -165.5 -440.5t-449.5 -163.5t-449 163.5t-165 440.5zM502 1772q0 100 64 162.5t171 62.5t171.5 -62.5t64.5 -162.5t-64.5 -163t-171.5 -63q-106 0 -170.5 62.5t-64.5 163.5zM635 1772
q0 -46 28 -74.5t74 -28.5t74.5 28.5t28.5 74.5t-28.5 74t-74.5 28t-74 -28t-28 -74z" />
    <glyph glyph-name="uring" unicode="&#x16f;" horiz-adv-x="1259" 
d="M113 410v634h286v-593q0 -114 57 -175t158 -61q102 0 174 78t72 199v552h287v-1044h-287v143h-10q-4 -7 -11.5 -19t-36 -42t-63 -52.5t-93 -41.5t-124.5 -19q-194 0 -301.5 114t-107.5 327zM389 1413q0 100 64.5 162.5t171.5 62.5t171 -62.5t64 -162.5t-64 -162.5
t-171 -62.5t-171.5 62.5t-64.5 162.5zM522 1413q0 -46 28.5 -74t74.5 -28t74 28t28 74t-28 74.5t-74 28.5t-74.5 -28.5t-28.5 -74.5z" />
    <glyph glyph-name="Uhungarumlaut" unicode="&#x170;" horiz-adv-x="1474" 
d="M123 563v871h307v-871q0 -145 84 -231t223 -86t223 86t84 231v871h308v-871q0 -277 -165.5 -440.5t-449.5 -163.5t-449 163.5t-165 440.5zM809 1608l143 307h267v-2l-236 -305h-174zM471 1608l143 307h256v-2l-225 -305h-174z" />
    <glyph glyph-name="uhungarumlaut" unicode="&#x171;" horiz-adv-x="1259" 
d="M113 410v634h286v-593q0 -114 57 -175t158 -61q102 0 174 78t72 199v552h287v-1044h-287v143h-10q-4 -7 -11.5 -19t-36 -42t-63 -52.5t-93 -41.5t-124.5 -19q-194 0 -301.5 114t-107.5 327zM686 1249l143 307h267v-2l-236 -305h-174zM348 1249l144 307h256v-2l-226 -305
h-174z" />
    <glyph glyph-name="Uogonek" unicode="&#x172;" horiz-adv-x="1474" 
d="M123 563v871h307v-871q0 -145 84 -231t223 -86t223 86t84 231v871h308v-871q0 -223 -110 -374.5t-306 -204.5q-29 -18 -58.5 -40.5t-67 -57.5t-60.5 -76.5t-23 -81.5q0 -34 22.5 -55t63.5 -21q35 0 69.5 10t51.5 20l18 11v-154q-7 -5 -20 -11.5t-56 -18t-88 -11.5
q-113 0 -174 54.5t-61 144.5q0 144 188 262h-4q-284 0 -449 163.5t-165 440.5z" />
    <glyph glyph-name="uogonek" unicode="&#x173;" horiz-adv-x="1259" 
d="M113 410v634h286v-593q0 -114 57 -175t158 -61q102 0 174 78t72 199v552h287v-1044q-10 -5 -25.5 -15t-56.5 -40.5t-72 -61t-56.5 -73.5t-25.5 -82q0 -34 22.5 -55t63.5 -21q35 0 70 10t53 20l17 11v-154q-7 -5 -20 -11.5t-56 -18t-88 -11.5q-113 0 -174.5 54.5
t-61.5 144.5q0 53 27.5 104t66.5 85.5t78.5 61t66.5 39.5l28 13h-144v143h-10q-4 -7 -11.5 -19t-36 -42t-63 -52.5t-93 -41.5t-124.5 -19q-194 0 -301.5 114t-107.5 327z" />
    <glyph glyph-name="Ydieresis" unicode="&#x178;" horiz-adv-x="1372" 
d="M-10 1434h338l344 -594h28l344 594h338l-542 -912v-522h-308v522zM737 1751q0 61 41 102t103 41q61 0 102 -41t41 -102t-41 -102t-102 -41q-62 0 -103 41t-41 102zM338 1751q0 61 41 102t102 41q62 0 103 -41t41 -102t-41 -102t-103 -41q-61 0 -102 41t-41 102z" />
    <glyph glyph-name="Zacute" unicode="&#x179;" horiz-adv-x="1320" 
d="M72 0v287l757 839v21h-737v287h1137v-287l-758 -840v-20h778v-287h-1177zM532 1608l154 307h307v-2l-245 -305h-216z" />
    <glyph glyph-name="zacute" unicode="&#x17a;" horiz-adv-x="1024" 
d="M51 0v246l522 532v21h-501v245h880v-245l-522 -533v-20h543v-246h-922zM399 1249l154 307h307v-2l-246 -305h-215z" />
    <glyph glyph-name="Zdotaccent" unicode="&#x17b;" horiz-adv-x="1320" 
d="M72 0v287l757 839v21h-737v287h1137v-287l-758 -840v-20h778v-287h-1177zM502 1751q0 62 48 108t116 46t115.5 -46t47.5 -108t-47.5 -108t-115.5 -46t-116 46t-48 108z" />
    <glyph glyph-name="zdotaccent" unicode="&#x17c;" horiz-adv-x="1024" 
d="M51 0v246l522 532v21h-501v245h880v-245l-522 -533v-20h543v-246h-922zM358 1382q0 62 48 108t116 46t116 -46t48 -108t-48 -107.5t-116 -45.5t-116 45.5t-48 107.5z" />
    <glyph glyph-name="Zcaron" unicode="&#x17d;" horiz-adv-x="1320" 
d="M72 0v287l757 839v21h-737v287h1137v-287l-758 -840v-20h778v-287h-1177zM297 1915h225l113 -154h41l112 154h226v-2l-236 -305h-246l-235 305v2z" />
    <glyph glyph-name="zcaron" unicode="&#x17e;" horiz-adv-x="1024" 
d="M51 0v246l522 532v21h-501v245h880v-245l-522 -533v-20h543v-246h-922zM154 1556h225l113 -153h40l113 153h225v-2l-235 -305h-246l-235 305v2z" />
    <glyph glyph-name="florin" unicode="&#x192;" horiz-adv-x="911" 
d="M-154 -389v246h308l143 921h-102v246h133l61 410h543v-246h-297l-21 -164h236v-246h-266l-174 -1167h-564z" />
    <glyph glyph-name="uni01FA" unicode="&#x1fa;" horiz-adv-x="1423" 
d="M481 1772q0 88 50.5 148t136.5 73l59 127h246v-2l-125 -154q104 -61 104 -192q0 -101 -64.5 -163.5t-170.5 -62.5q-107 0 -171.5 63t-64.5 163zM614 1772q0 -46 28.5 -74.5t74.5 -28.5t74 28.5t28 74.5t-28 74t-74 28t-74.5 -28t-28.5 -74zM10 0l379 1434h645l379 -1434
h-317l-82 317h-604l-82 -317h-318zM481 604h461l-143 543h-174z" />
    <glyph glyph-name="uni01FB" unicode="&#x1fb;" horiz-adv-x="1280" 
d="M389 1413q0 88 50 148t136 73l60 127h246v-2l-125 -153q104 -61 104 -193q0 -100 -64 -162.5t-171 -62.5t-171.5 62.5t-64.5 162.5zM522 1413q0 -46 28.5 -74t74.5 -28t74 28t28 74t-28 74.5t-74 28.5t-74.5 -28.5t-28.5 -74.5zM61 522q0 165 65 292t174.5 194t242.5 67
q63 0 120 -17t93 -41t63 -48t39 -41l12 -17h11v133h286v-1044h-286v133h-11q-4 -7 -12.5 -18t-38 -39t-64 -50t-92 -39.5t-120.5 -17.5q-133 0 -242.5 67t-174.5 194t-65 292zM358 522q0 -142 72.5 -224.5t183.5 -82.5q118 0 192.5 82t74.5 225t-74.5 225t-192.5 82
q-111 0 -183.5 -82.5t-72.5 -224.5z" />
    <glyph glyph-name="uni01FC" unicode="&#x1fc;" horiz-adv-x="2068" 
d="M10 0l379 1434h1598v-287h-738v-287h594v-266h-594v-307h738v-287h-1045v317h-532l-82 -317h-318zM481 604h461v543h-317zM1004 1608l153 307h307v-2l-245 -305h-215z" />
    <glyph glyph-name="uni01FD" unicode="&#x1fd;" horiz-adv-x="1966" 
d="M72 297q0 145 107.5 236.5t314.5 91.5h305v30q0 85 -51.5 135t-143.5 50q-43 0 -79 -12.5t-56.5 -31t-34.5 -36.5t-19 -30l-5 -13h-297q2 7 5 20t18.5 50.5t36.5 71t60 75t86.5 71t119 50t155.5 20.5q77 0 144.5 -19t108.5 -46t71 -54t42 -46l13 -19h20q4 7 12.5 19.5
t41.5 44.5t72.5 56t107.5 44t145 20q142 0 264.5 -71.5t195.5 -199t73 -282.5v-61h-820q15 -101 92 -173.5t175 -72.5q52 0 95 12.5t67.5 30.5t42 36.5t23.5 31.5l7 12h307q-2 -8 -6.5 -21t-23.5 -51.5t-43.5 -73.5t-68.5 -77.5t-96 -73t-129 -51.5t-165 -21
q-65 0 -123 12.5t-99 32.5t-76 44t-57 48t-37 44t-22 32l-6 13h-20q-4 -9 -13 -24.5t-45 -54.5t-81.5 -68.5t-126 -54t-175.5 -24.5q-193 0 -301 92.5t-108 235.5zM1096 625h503q-18 88 -84.5 146t-162.5 58q-92 0 -162.5 -56t-93.5 -148zM369 328q0 -57 40.5 -90t122.5 -33
q126 0 196.5 72t70.5 184h-277q-67 0 -110 -39t-43 -94zM881 1249l153 307h307v-2l-245 -305h-215z" />
    <glyph glyph-name="uni01FE" unicode="&#x1fe;" horiz-adv-x="1720" 
d="M31 -20v225l153 114q-112 182 -112 398q0 155 60 295t164 242t251 161.5t313 59.5q165 0 310 -58.5t253 -163.5l267 201v-225l-154 -117q113 -180 113 -395q0 -155 -60.5 -295t-164.5 -242t-251 -161.5t-313 -59.5t-311.5 58t-251.5 163zM399 717q0 -112 41 -205l738 555
q-131 121 -318 121q-200 0 -330.5 -132.5t-130.5 -338.5zM543 365q125 -119 317 -119q200 0 330.5 132.5t130.5 338.5q0 106 -41 203zM748 1608l153 307h307v-2l-245 -305h-215z" />
    <glyph glyph-name="uni01FF" unicode="&#x1ff;" horiz-adv-x="1249" 
d="M41 -20v225l76 55q-66 120 -66 262q0 152 74.5 278.5t206.5 200.5t293 74q115 0 216.5 -39.5t178.5 -109.5l188 139v-225l-75 -56q65 -124 65 -262q0 -114 -44 -216t-119.5 -176t-182 -117.5t-227.5 -43.5q-234 0 -398 148zM348 522q0 -48 8 -84l445 326q-74 65 -176 65
q-118 0 -197.5 -85.5t-79.5 -221.5zM449 279q73 -64 176 -64q118 0 197 85.5t79 221.5q0 39 -10 84zM512 1249l154 307h307v-2l-246 -305h-215z" />
    <glyph glyph-name="Scommaaccent" unicode="&#x218;" horiz-adv-x="1351" 
d="M51 451h318q2 -9 7 -23.5t29 -51.5t56.5 -65.5t95 -51.5t139.5 -23q139 0 203 44.5t64 118.5q0 42 -29 74t-78.5 53.5t-113 39t-134 36t-141 40t-134 55t-113 77t-78.5 110t-29 150.5q0 89 38 168.5t107.5 140.5t175 96.5t232.5 35.5q109 0 200 -24.5t150.5 -63
t106 -85.5t71.5 -94.5t41 -86t21 -63.5l4 -24h-318q-1 7 -4.5 18t-22 39t-45.5 50t-81 39.5t-123 17.5q-116 0 -176 -44t-60 -110q0 -42 29 -74t78.5 -53.5t113 -39t134 -36t141 -40t134 -54.5t113 -76.5t78.5 -110t29 -150.5q0 -91 -38 -172t-109.5 -143.5t-184.5 -99
t-252 -36.5q-90 0 -170 17t-138.5 45.5t-108.5 65t-83.5 77.5t-60.5 82t-42 77.5t-25 65t-14 45.5zM522 -328q0 62 41 103t103 41q72 0 117.5 -56t45.5 -159q0 -131 -78 -209t-208 -78v113q67 0 100 27t33 75v20q-10 -10 -41 -10q-47 0 -80 36.5t-33 96.5z" />
    <glyph glyph-name="scommaaccent" unicode="&#x219;" horiz-adv-x="1085" 
d="M41 338h297q2 -5 6 -14t21 -32t40 -40.5t65 -32t93 -14.5q95 0 134.5 26.5t39.5 75.5q0 29 -27.5 50t-73 32t-103.5 24.5t-118.5 26.5t-118.5 38.5t-103.5 59t-73 90.5t-27.5 130q0 131 117.5 224t322.5 93q90 0 165.5 -18.5t124.5 -48.5t88 -66t59.5 -72t33.5 -66
t17 -48l4 -19h-287q-1 4 -4.5 11t-18 25t-35 31.5t-59.5 24.5t-88 11q-71 0 -107 -24t-36 -58q0 -29 27.5 -50t73 -32t103.5 -24.5t118.5 -26.5t118.5 -38.5t103.5 -59t73 -90.5t27.5 -130q0 -139 -126 -238.5t-345 -99.5q-72 0 -136.5 12.5t-111.5 34t-87.5 49t-68 58.5
t-49 61.5t-34.5 58t-21 49t-11 34.5zM399 -328q0 62 41.5 103t102.5 41q72 0 118 -56t46 -159q0 -131 -78.5 -209t-208.5 -78v113q67 0 100 27t33 75v20q-10 -10 -41 -10q-47 0 -80 36.5t-33 96.5z" />
    <glyph glyph-name="uni021A" unicode="&#x21a;" horiz-adv-x="1269" 
d="M20 1147v287h1229v-287h-461v-1147h-307v1147h-461zM481 -328q0 62 41.5 103t102.5 41q72 0 117.5 -56t45.5 -159q0 -131 -78 -209t-208 -78v113q67 0 100 27t33 75v20q-10 -10 -41 -10q-47 0 -80 36.5t-33 96.5z" />
    <glyph glyph-name="uni021B" unicode="&#x21b;" horiz-adv-x="808" 
d="M31 799v245h133v226h287v-226h294v-245h-294v-553h307v-246h-594v799h-133zM307 -328q0 62 41.5 103t102.5 41q72 0 117.5 -56t45.5 -159q0 -131 -78 -209t-208 -78v113q67 0 100 27t33 75v20q-10 -10 -41 -10q-47 0 -80 36.5t-33 96.5z" />
    <glyph glyph-name="afii57929" unicode="&#x2bc;" horiz-adv-x="430" 
d="M61 1290q0 62 41.5 103t102.5 41q72 0 118 -56t46 -159q0 -131 -78.5 -209t-208.5 -78v112q67 0 100 27.5t33 75.5v20q-10 -10 -41 -10q-47 0 -80 36.5t-33 96.5z" />
    <glyph glyph-name="circumflex" unicode="&#x2c6;" horiz-adv-x="839" 
d="M61 1118l236 305h246l235 -305v-2h-225l-113 154h-41l-112 -154h-226v2z" />
    <glyph glyph-name="caron" unicode="&#x2c7;" horiz-adv-x="839" 
d="M61 1423h226l112 -153h41l113 153h225v-2l-235 -305h-246l-236 305v2z" />
    <glyph glyph-name="breve" unicode="&#x2d8;" horiz-adv-x="778" 
d="M61 1413h195q0 -48 33 -75t100 -27t100 27t33 75h195q0 -126 -85 -201t-243 -75t-243 75t-85 201z" />
    <glyph glyph-name="dotaccent" unicode="&#x2d9;" horiz-adv-x="450" 
d="M61 1300q0 62 48 108t116 46t116 -46t48 -108t-48 -107.5t-116 -45.5t-116 45.5t-48 107.5z" />
    <glyph glyph-name="ring" unicode="&#x2da;" horiz-adv-x="593" 
d="M61 1208q0 100 64.5 163t171.5 63q106 0 170.5 -62.5t64.5 -163.5q0 -100 -64 -162.5t-171 -62.5t-171.5 62.5t-64.5 162.5zM195 1208q0 -46 28 -74t74 -28t74 28t28 74t-28 74.5t-74 28.5t-74 -28.5t-28 -74.5z" />
    <glyph glyph-name="ogonek" unicode="&#x2db;" horiz-adv-x="532" 
d="M61 -303q0 53 27.5 104t67 85.5t78.5 61t66 39.5l28 13h143q-10 -5 -25.5 -15t-56 -40.5t-71.5 -61t-56.5 -73.5t-25.5 -82q0 -34 22.5 -55t63.5 -21q35 0 69.5 10t52.5 20l17 11v-154q-7 -5 -20 -11.5t-56 -18t-88 -11.5q-113 0 -174.5 54.5t-61.5 144.5z" />
    <glyph glyph-name="tilde" unicode="&#x2dc;" horiz-adv-x="819" 
d="M61 1157v82q0 85 56.5 140t148.5 55q48 0 91.5 -16t68.5 -35.5t54 -35.5t52 -16t37.5 14t14.5 37v41h174v-82q0 -85 -56.5 -139.5t-148.5 -54.5q-48 0 -91.5 16t-68.5 35t-54 35t-52 16t-37 -14t-14 -37v-41h-175z" />
    <glyph glyph-name="hungarumlaut" unicode="&#x2dd;" horiz-adv-x="870" 
d="M399 1116l144 307h266v-2l-236 -305h-174zM61 1116l144 307h256v-2l-225 -305h-175z" />
    <glyph glyph-name="uni0301" unicode="&#x301;" horiz-adv-x="0" 
d="M-870 1690l112 245h246v-2l-195 -243h-163z" />
    <glyph glyph-name="uni030A" unicode="&#x30a;" horiz-adv-x="0" 
d="M-922 1556q0 100 64.5 163t171.5 63q106 0 170.5 -62.5t64.5 -163.5q0 -100 -64 -162.5t-171 -62.5t-171.5 62.5t-64.5 162.5zM-788 1556q0 -46 28 -74t74 -28t74 28t28 74t-28 74.5t-74 28.5t-74 -28.5t-28 -74.5z" />
    <glyph glyph-name="afii10023" unicode="&#x401;" horiz-adv-x="1290" 
d="M133 0v1434h1075v-287h-768v-287h615v-266h-615v-307h768v-287h-1075zM737 1710q0 61 41 102t103 41q61 0 102 -40.5t41 -102.5t-41 -102.5t-102 -40.5q-62 0 -103 41t-41 102zM338 1710q0 62 41 102.5t102 40.5q62 0 103 -41t41 -102t-41 -102t-103 -41q-61 0 -102 40.5
t-41 102.5z" />
    <glyph glyph-name="afii10051" unicode="&#x402;" horiz-adv-x="1669" 
d="M20 1147v287h1137v-287h-420v-256h318q252 0 397 -141.5t145 -380.5v-594h-553v286h246v308q0 124 -59.5 179.5t-196.5 55.5h-297v-604h-307v1147h-410z" />
    <glyph glyph-name="afii10052" unicode="&#x403;" horiz-adv-x="1146" 
d="M133 0v1434h983v-287h-676v-1147h-307zM532 1577l154 307h307v-2l-245 -305h-216z" />
    <glyph glyph-name="afii10053" unicode="&#x404;" horiz-adv-x="1658" 
d="M72 717q0 159 59 299.5t162 241t250 159t317 58.5q99 0 186.5 -18.5t153 -50t121.5 -72t95 -85.5t70 -90.5t49.5 -86t30.5 -72t16 -50.5l5 -18h-317q-2 5 -5.5 14.5t-18.5 36t-34 50.5t-53 53.5t-74 51t-99 36t-126 14.5q-176 0 -296.5 -100.5t-153.5 -247.5h532v-246
h-532q25 -146 145.5 -247t304.5 -101q69 0 129.5 16t102 41t75.5 55.5t54.5 61t34 55.5t18.5 41l6 16h317q-3 -12 -9 -32.5t-31.5 -80t-59 -114t-94 -120.5t-133 -113.5t-180 -80t-230.5 -32.5q-223 0 -403 98t-282.5 271.5t-102.5 388.5z" />
    <glyph glyph-name="afii10054" unicode="&#x405;" horiz-adv-x="1351" 
d="M51 451h318q2 -9 7 -23.5t29 -51.5t56.5 -65.5t95 -51.5t139.5 -23q139 0 203 44.5t64 118.5q0 42 -29 74t-78.5 53.5t-113 39t-134 36t-141 40t-134 55t-113 77t-78.5 110t-29 150.5q0 89 38 168.5t107.5 140.5t175 96.5t232.5 35.5q109 0 200 -24.5t150.5 -63
t106 -85.5t71.5 -94.5t41 -86t21 -63.5l4 -24h-318q-1 7 -4.5 18t-22 39t-45.5 50t-81 39.5t-123 17.5q-116 0 -176 -44t-60 -110q0 -42 29 -74t78.5 -53.5t113 -39t134 -36t141 -40t134 -54.5t113 -76.5t78.5 -110t29 -150.5q0 -91 -38 -172t-109.5 -143.5t-184.5 -99
t-252 -36.5q-90 0 -170 17t-138.5 45.5t-108.5 65t-83.5 77.5t-60.5 82t-42 77.5t-25 65t-14 45.5z" />
    <glyph glyph-name="afii10055" unicode="&#x406;" horiz-adv-x="573" 
d="M133 0v1434h307v-1434h-307z" />
    <glyph glyph-name="afii10056" unicode="&#x407;" horiz-adv-x="573" 
d="M133 0v1434h307v-1434h-307zM348 1704q0 61 41 102t103 41t102.5 -40.5t40.5 -102.5t-40.5 -102.5t-102.5 -40.5t-103 41t-41 102zM-51 1704q0 62 40.5 102.5t102.5 40.5t103 -41t41 -102t-41 -102t-103 -41t-102.5 40.5t-40.5 102.5z" />
    <glyph glyph-name="afii10057" unicode="&#x408;" horiz-adv-x="1177" 
d="M0 328l297 61q2 -7 5.5 -18t20 -39t38.5 -50t62 -39.5t89 -17.5q109 0 172.5 67.5t63.5 188.5v953h307v-953q0 -253 -144.5 -397.5t-398.5 -144.5q-67 0 -128 13.5t-106.5 36t-85 51.5t-67 61.5t-50 64.5t-36 61t-23 51.5t-12.5 35.5z" />
    <glyph glyph-name="afii10058" unicode="&#x409;" horiz-adv-x="2201" 
d="M10 0l369 1434h870v-451h328q262 0 417.5 -139t155.5 -352t-155.5 -352.5t-417.5 -139.5h-635v1147h-328l-286 -1147h-318zM1249 287h338q120 0 183 55t63 150t-63 149.5t-183 54.5h-338v-409z" />
    <glyph glyph-name="afii10059" unicode="&#x40a;" horiz-adv-x="2314" 
d="M133 0v1434h307v-492h615v492h307v-492h348q255 0 404 -133t149 -338t-149 -338t-404 -133h-655v655h-615v-655h-307zM1362 287h358q105 0 165.5 52.5t60.5 131.5t-61 131.5t-165 52.5h-358v-368z" />
    <glyph glyph-name="afii10060" unicode="&#x40b;" horiz-adv-x="1669" 
d="M20 1147v287h1137v-287h-420v-256h318q252 0 397 -141.5t145 -380.5v-369h-307v369q0 124 -59.5 179.5t-196.5 55.5h-297v-604h-307v1147h-410z" />
    <glyph glyph-name="afii10061" unicode="&#x40c;" horiz-adv-x="1402" 
d="M133 0v1434h307v-564h205l389 564h348l-471 -686l502 -748h-358l-400 584h-215v-584h-307zM584 1577l153 307h307v-2l-245 -305h-215z" />
    <glyph glyph-name="afii10062" unicode="&#x40e;" horiz-adv-x="1290" 
d="M-10 1434h327l246 -635h195l246 635h317l-563 -1434h-318l205 512h-287zM307 1894h225q0 -122 134 -122q69 0 101 30t32 92h225q0 -141 -95.5 -229t-262.5 -88t-263 88t-96 229z" />
    <glyph glyph-name="afii10145" unicode="&#x40f;" horiz-adv-x="1505" 
d="M133 0v1434h307v-1147h625v1147h307v-1434h-471v-256h-287v256h-481z" />
    <glyph glyph-name="afii10017" unicode="&#x410;" horiz-adv-x="1423" 
d="M10 0l379 1434h645l379 -1434h-317l-82 317h-604l-82 -317h-318zM481 604h461l-143 543h-174z" />
    <glyph glyph-name="afii10018" unicode="&#x411;" horiz-adv-x="1413" 
d="M133 0v1434h1116v-287h-809v-225h379q248 0 390.5 -128.5t142.5 -332.5t-142.5 -332.5t-390.5 -128.5h-686zM440 287h369q112 0 168.5 47t56.5 127t-56.5 127t-168.5 47h-369v-348z" />
    <glyph glyph-name="afii10019" unicode="&#x412;" horiz-adv-x="1454" 
d="M133 0v1434h737q216 0 338.5 -104.5t122.5 -264.5q0 -50 -12.5 -93.5t-32.5 -73t-44 -53.5t-47.5 -38t-43.5 -23t-33 -12l-12 -4v-10q6 -1 16 -3t38.5 -12t54.5 -24t58 -41t55 -60.5t38.5 -85t15.5 -112.5q0 -184 -138 -302t-384 -118h-727zM440 870h389q89 0 137 40
t48 104t-48 103.5t-137 39.5h-389v-287zM440 276h400q111 0 168 45.5t57 118.5t-57 118.5t-168 45.5h-400v-328z" />
    <glyph glyph-name="afii10020" unicode="&#x413;" horiz-adv-x="1146" 
d="M133 0v1434h983v-287h-676v-1147h-307z" />
    <glyph glyph-name="afii10021" unicode="&#x414;" horiz-adv-x="1587" 
d="M10 -256v543h164l297 1147h645l297 -1147h164v-543h-297v256h-973v-256h-297zM471 287h645l-225 860h-195z" />
    <glyph glyph-name="afii10022" unicode="&#x415;" horiz-adv-x="1290" 
d="M133 0v1434h1075v-287h-768v-287h615v-266h-615v-307h768v-287h-1075z" />
    <glyph glyph-name="afii10024" unicode="&#x416;" horiz-adv-x="2109" 
d="M-10 0l481 748l-451 686h349l368 -564h164v564h307v-564h164l369 564h348l-451 -686l482 -748h-359l-379 584h-174v-584h-307v584h-174l-379 -584h-358z" />
    <glyph glyph-name="afii10025" unicode="&#x417;" horiz-adv-x="1351" 
d="M41 440h317q2 -8 7 -21t29.5 -46.5t58 -59t98.5 -46.5t145 -21q132 0 199.5 51.5t67.5 132.5q0 75 -66 119.5t-211 44.5h-194v287h194q236 0 236 153q0 66 -60 110t-176 44q-69 0 -124 -17t-84 -41t-48.5 -48t-25.5 -41l-5 -17h-317q2 9 6 25.5t23 63.5t45 89.5
t75.5 94.5t110 89.5t153 63t201.5 25.5q127 0 231 -34t171.5 -92t104 -133.5t36.5 -160.5q0 -66 -22 -121t-53.5 -86t-63.5 -53t-54 -29l-22 -8v-21q10 -3 27.5 -8.5t61.5 -31t78 -60t61.5 -98t27.5 -140.5q0 -94 -37.5 -173t-109.5 -139t-186.5 -94t-260.5 -34
q-92 0 -173 16.5t-140 44.5t-109 64t-83 75.5t-59.5 79.5t-41 76t-24 64t-12.5 45z" />
    <glyph glyph-name="afii10026" unicode="&#x418;" horiz-adv-x="1536" 
d="M133 0v1434h307v-830l-20 -174h20l584 1004h379v-1434h-307v829l20 175h-20l-584 -1004h-379z" />
    <glyph glyph-name="afii10027" unicode="&#x419;" horiz-adv-x="1536" 
d="M133 0v1434h307v-830l-20 -174h20l584 1004h379v-1434h-307v829l20 175h-20l-584 -1004h-379zM416 1890h225q0 -123 133 -123t133 123h226q0 -141 -96 -229t-263 -88t-262.5 88t-95.5 229z" />
    <glyph glyph-name="afii10028" unicode="&#x41a;" horiz-adv-x="1402" 
d="M133 0v1434h307v-564h205l389 564h348l-471 -686l502 -748h-358l-400 584h-215v-584h-307z" />
    <glyph glyph-name="afii10029" unicode="&#x41b;" horiz-adv-x="1402" 
d="M10 0l369 1434h645l369 -1434h-308l-297 1147h-174l-297 -1147h-307z" />
    <glyph glyph-name="afii10030" unicode="&#x41c;" horiz-adv-x="1925" 
d="M133 0v1434h461l348 -820h51l348 820h461v-1434h-307v911l21 185h-21l-328 -768h-399l-328 768h-20l20 -185v-911h-307z" />
    <glyph glyph-name="afii10031" unicode="&#x41d;" horiz-adv-x="1515" 
d="M133 0v1434h307v-564h635v564h307v-1434h-307v584h-635v-584h-307z" />
    <glyph glyph-name="afii10032" unicode="&#x41e;" horiz-adv-x="1720" 
d="M72 717q0 155 60 295t164 242t251 161.5t313 59.5t313 -59.5t251 -161.5t164.5 -242t60.5 -295t-60.5 -295t-164.5 -242t-251 -161.5t-313 -59.5t-313 59.5t-251 161.5t-164 242t-60 295zM399 717q0 -206 130.5 -338.5t330.5 -132.5t330.5 132.5t130.5 338.5
t-130.5 338.5t-330.5 132.5t-330.5 -132.5t-130.5 -338.5z" />
    <glyph glyph-name="afii10033" unicode="&#x41f;" horiz-adv-x="1515" 
d="M133 0v1434h1249v-1434h-307v1147h-635v-1147h-307z" />
    <glyph glyph-name="afii10034" unicode="&#x420;" horiz-adv-x="1433" 
d="M133 0v1434h666q128 0 236 -39.5t181.5 -107.5t114.5 -160t41 -195t-41 -195t-114.5 -160t-181.5 -107.5t-236 -39.5h-359v-430h-307zM440 717h348q127 0 197 60t70 155t-70 155t-197 60h-348v-430z" />
    <glyph glyph-name="afii10035" unicode="&#x421;" horiz-adv-x="1658" 
d="M72 717q0 159 59 299.5t162 241t250 159t317 58.5q99 0 186.5 -18.5t153 -50t121.5 -72t95 -85.5t70 -90.5t49.5 -86t30.5 -72t16 -50.5l5 -18h-317q-2 5 -5.5 14.5t-18.5 36t-34 50.5t-53 53.5t-74 51t-99 36t-126 14.5q-200 0 -330.5 -132.5t-130.5 -338.5
q0 -214 126.5 -342.5t334.5 -128.5q69 0 129.5 16t102 41t75.5 55.5t54.5 61t34 55.5t18.5 41l6 16h317q-3 -12 -9 -32.5t-31.5 -80t-59 -114t-94 -120.5t-133 -113.5t-180 -80t-230.5 -32.5q-170 0 -317 58.5t-250 159t-162 241t-59 299.5z" />
    <glyph glyph-name="afii10036" unicode="&#x422;" horiz-adv-x="1269" 
d="M20 1147v287h1229v-287h-461v-1147h-307v1147h-461z" />
    <glyph glyph-name="afii10037" unicode="&#x423;" horiz-adv-x="1290" 
d="M-10 1434h327l246 -635h195l246 635h317l-563 -1434h-318l205 512h-287z" />
    <glyph glyph-name="afii10038" unicode="&#x424;" horiz-adv-x="1884" 
d="M61 727q0 130 52.5 246.5t145.5 204t230 142.5t299 62v144h308v-144q162 -7 299 -62t230 -142.5t145.5 -204t52.5 -246.5t-52.5 -246.5t-145.5 -204t-230 -142.5t-299 -62v-144h-308v144q-162 7 -299 62t-230 142.5t-145.5 204t-52.5 246.5zM1096 348q182 7 295.5 115
t113.5 264t-113.5 264t-295.5 115v-758zM379 727q0 -156 113.5 -264t295.5 -115v758q-182 -7 -295.5 -115t-113.5 -264z" />
    <glyph glyph-name="afii10039" unicode="&#x425;" horiz-adv-x="1372" 
d="M20 0l369 707l-348 727h328l266 -584h102l267 584h327l-348 -727l369 -707h-332l-283 563h-102l-283 -563h-332z" />
    <glyph glyph-name="afii10040" unicode="&#x426;" horiz-adv-x="1536" 
d="M133 0v1434h307v-1147h574v1147h307v-1147h195v-543h-297v256h-1086z" />
    <glyph glyph-name="afii10041" unicode="&#x427;" horiz-adv-x="1433" 
d="M102 946v488h308v-471q0 -117 73.5 -186.5t202.5 -69.5q57 0 110 10.5t87 25.5t60.5 30t38.5 25l11 11v625h307v-1434h-307v532q-5 -4 -15.5 -11t-47 -24.5t-77 -31t-105.5 -24.5t-134 -11q-238 0 -375 137.5t-137 378.5z" />
    <glyph glyph-name="afii10042" unicode="&#x428;" horiz-adv-x="2088" 
d="M133 0v1434h307v-1147h451v1147h307v-1147h451v1147h307v-1434h-1823z" />
    <glyph glyph-name="afii10043" unicode="&#x429;" horiz-adv-x="2170" 
d="M133 0v1434h307v-1147h451v1147h307v-1147h451v1147h307v-1147h194v-543h-297v256h-1720z" />
    <glyph glyph-name="afii10044" unicode="&#x42a;" horiz-adv-x="1566" 
d="M10 1147v287h604v-451h328q262 0 418 -139.5t156 -351.5q0 -213 -156 -352.5t-418 -139.5h-635v1147h-297zM614 287h338q120 0 183 55t63 150t-63 149.5t-183 54.5h-338v-409z" />
    <glyph glyph-name="afii10045" unicode="&#x42b;" horiz-adv-x="1894" 
d="M1454 0v1434h307v-1434h-307zM133 0v1434h307v-451h297q262 0 418 -139.5t156 -351.5q0 -213 -156 -352.5t-418 -139.5h-604zM440 287h308q120 0 182.5 55t62.5 150t-62.5 149.5t-182.5 54.5h-308v-409z" />
    <glyph glyph-name="afii10046" unicode="&#x42c;" horiz-adv-x="1413" 
d="M133 0v1434h307v-451h348q262 0 418 -139.5t156 -351.5q0 -213 -156 -352.5t-418 -139.5h-655zM440 287h359q120 0 182.5 55t62.5 150t-62.5 149.5t-182.5 54.5h-359v-409z" />
    <glyph glyph-name="afii10047" unicode="&#x42d;" horiz-adv-x="1658" 
d="M61 532h318l5.5 -16.5t18.5 -40t34.5 -56.5t54.5 -60t76 -56.5t101.5 -40t129.5 -16.5q184 0 304.5 101t145.5 247h-532v246h532q-33 147 -153.5 247.5t-296.5 100.5q-92 0 -168 -26.5t-119 -64t-72.5 -75t-39.5 -64.5l-11 -26h-317q2 11 7.5 30.5t29.5 76t55.5 108
t91 114t131 107.5t179.5 76t233 31q170 0 317 -58.5t250 -159t162 -241t59 -299.5q0 -215 -102.5 -388.5t-282.5 -271.5t-403 -98q-123 0 -230.5 31.5t-180.5 82t-132.5 111.5t-94.5 122.5t-59 112t-32 81.5z" />
    <glyph glyph-name="afii10048" unicode="&#x42e;" horiz-adv-x="2191" 
d="M133 0v1434h307v-574h174q23 128 85.5 239t157 195t225 132.5t280.5 48.5q159 0 299.5 -58.5t241 -159t159 -241t58.5 -299.5t-58.5 -299.5t-159 -241t-241 -159t-299.5 -58.5q-150 0 -280.5 48.5t-225 132t-157 194.5t-85.5 239h-174v-573h-307zM922 717
q0 -213 123 -342t317 -129t317 129t123 342t-123 342t-317 129t-317 -129t-123 -342z" />
    <glyph glyph-name="afii10049" unicode="&#x42f;" horiz-adv-x="1454" 
d="M92 952q0 100 39.5 187.5t111 153t178.5 103.5t234 38h666v-1434h-307v471h-307l-277 -471h-338l318 512q-134 50 -226 166t-92 274zM410 952q0 -88 63 -141t182 -53h359v389h-359q-118 0 -181.5 -55.5t-63.5 -139.5z" />
    <glyph glyph-name="afii10065" unicode="&#x430;" horiz-adv-x="1280" 
d="M61 522q0 165 65 292t174.5 194t242.5 67q63 0 120 -17t93 -41t63 -48t39 -41l12 -17h11v133h286v-1044h-286v133h-11q-4 -7 -12.5 -18t-38 -39t-64 -50t-92 -39.5t-120.5 -17.5q-133 0 -242.5 67t-174.5 194t-65 292zM358 522q0 -142 72.5 -224.5t183.5 -82.5
q118 0 192.5 82t74.5 225t-74.5 225t-192.5 82q-111 0 -183.5 -82.5t-72.5 -224.5z" />
    <glyph glyph-name="afii10066" unicode="&#x431;" horiz-adv-x="1208" 
d="M72 594q0 840 696 840h297v-246h-266q-210 0 -321.5 -98t-119.5 -271h11q4 6 11.5 15.5t35.5 34.5t61 44t89.5 34.5t119.5 15.5q200 0 335.5 -138t135.5 -344q0 -107 -39 -201t-109 -162.5t-172.5 -108.5t-222.5 -40q-115 0 -214 43.5t-172 122.5t-114.5 197.5
t-41.5 261.5zM369 481q0 -121 68 -193.5t177 -72.5t177.5 72.5t68.5 193.5q0 115 -69 185.5t-177 70.5t-176.5 -70.5t-68.5 -185.5z" />
    <glyph glyph-name="afii10067" unicode="&#x432;" horiz-adv-x="1136" 
d="M113 0v1044h573q162 0 250 -72t88 -184q0 -55 -18 -98t-43.5 -66t-51 -37.5t-43.5 -18.5l-18 -5v-10q5 -1 13 -2.5t31.5 -9t44.5 -18t47 -31t44.5 -46t31.5 -64.5t13 -85q0 -132 -102 -214.5t-287 -82.5h-573zM399 645h246q45 0 74 26.5t29 65.5t-29 65.5t-74 26.5h-246
v-184zM399 215h267q53 0 87.5 33t34.5 80t-34.5 79.5t-87.5 32.5h-267v-225z" />
    <glyph glyph-name="afii10068" unicode="&#x433;" horiz-adv-x="921" 
d="M113 0v1044h788v-245h-502v-799h-286z" />
    <glyph glyph-name="afii10069" unicode="&#x434;" horiz-adv-x="1228" 
d="M10 -215v461h113l215 798h553l215 -798h113v-461h-267v215h-676v-215h-266zM410 246h409l-153 553h-103z" />
    <glyph glyph-name="afii10070" unicode="&#x435;" horiz-adv-x="1228" 
d="M51 522q0 151 74 278t203.5 201t285.5 74q160 0 287.5 -74.5t196.5 -200.5t69 -278v-61h-819q15 -101 91.5 -173.5t174.5 -72.5q52 0 95 12.5t68 30.5t42.5 36.5t24.5 31.5l6 12h307q-2 -8 -6.5 -21t-22.5 -51.5t-42.5 -73.5t-69 -77.5t-97.5 -73t-133 -51.5t-172 -21
q-156 0 -285.5 74t-203.5 201t-74 278zM358 635h502q-16 81 -83 137.5t-163 56.5q-95 0 -163 -56t-93 -138z" />
    <glyph glyph-name="afii10072" unicode="&#x436;" horiz-adv-x="1699" 
d="M-10 0l348 563l-318 481h318l256 -389h113v389h286v-389h113l256 389h317l-317 -481l348 -563h-328l-245 410h-144v-410h-286v410h-144l-246 -410h-327z" />
    <glyph glyph-name="afii10073" unicode="&#x437;" horiz-adv-x="1064" 
d="M41 338h287q1 -5 4.5 -14t18.5 -32t36.5 -40.5t62.5 -32t93 -14.5q87 0 130.5 31.5t43.5 80.5q0 57 -39 85t-135 28h-133v205h122q89 0 126.5 28t37.5 85q0 42 -44 72t-130 30q-43 0 -77 -11.5t-51.5 -28t-28.5 -33.5t-14 -29l-3 -11h-287q1 7 4.5 19t18 47.5t34.5 67
t59 70.5t86.5 67.5t120.5 47.5t159 19q211 0 325.5 -86.5t114.5 -210.5q0 -50 -19 -91t-46 -63t-54 -37t-46 -19l-19 -5v-10q4 -1 11.5 -3t29 -10.5t40.5 -19.5t43 -32t41 -46t28.5 -63t11.5 -82q0 -67 -26.5 -125t-80 -104t-144.5 -72.5t-210 -26.5q-72 0 -135.5 12.5
t-109.5 34t-85 49t-65 58.5t-46 61.5t-31 58t-18.5 49t-9.5 34.5z" />
    <glyph glyph-name="afii10074" unicode="&#x438;" horiz-adv-x="1249" 
d="M113 0v1044h286v-450l-10 -184h21l419 634h308v-1044h-287v451l10 184h-20l-420 -635h-307z" />
    <glyph glyph-name="afii10075" unicode="&#x439;" horiz-adv-x="1249" 
d="M113 0v1044h286v-450l-10 -184h21l419 634h308v-1044h-287v451l10 184h-20l-420 -635h-307zM297 1464h195q0 -48 33 -75t100 -27t100 27t33 75h194q0 -126 -84.5 -201t-242.5 -75t-243 75t-85 201z" />
    <glyph glyph-name="afii10076" unicode="&#x43a;" horiz-adv-x="1136" 
d="M113 0v1044h286v-389h123l277 389h317l-338 -481l369 -563h-328l-266 410h-154v-410h-286z" />
    <glyph glyph-name="afii10077" unicode="&#x43b;" horiz-adv-x="1105" 
d="M0 0l276 1044h553l277 -1044h-287l-215 799h-102l-215 -799h-287z" />
    <glyph glyph-name="afii10078" unicode="&#x43c;" horiz-adv-x="1525" 
d="M113 0v1044h389l246 -563h30l246 563h389v-1044h-287v522l11 185h-11l-225 -512h-276l-226 512h-10l10 -185v-522h-286z" />
    <glyph glyph-name="afii10079" unicode="&#x43d;" horiz-adv-x="1239" 
d="M113 0v1044h286v-389h441v389h286v-1044h-286v410h-441v-410h-286z" />
    <glyph glyph-name="afii10080" unicode="&#x43e;" horiz-adv-x="1249" 
d="M51 522q0 152 74.5 278.5t206.5 200.5t293 74q121 0 227.5 -43.5t182 -117.5t119.5 -176t44 -216t-44 -216t-119.5 -176t-182 -117.5t-227.5 -43.5q-161 0 -293 74t-206.5 200.5t-74.5 278.5zM348 522q0 -136 79.5 -221.5t197.5 -85.5t197 85.5t79 221.5t-79 221.5
t-197 85.5t-197.5 -85.5t-79.5 -221.5z" />
    <glyph glyph-name="afii10081" unicode="&#x43f;" horiz-adv-x="1228" 
d="M113 0v1044h1003v-1044h-287v799h-430v-799h-286z" />
    <glyph glyph-name="afii10082" unicode="&#x440;" horiz-adv-x="1280" 
d="M113 -389v1433h286v-133h11q4 7 12.5 18t38 39t64 50t92 39.5t120.5 17.5q133 0 242.5 -67t174.5 -194t65 -292t-65 -292t-174.5 -194t-242.5 -67q-63 0 -120 17t-93 41t-63 48t-39 41l-12 17h-11v-522h-286zM399 522q0 -143 74.5 -225t192.5 -82q111 0 183.5 82.5
t72.5 224.5t-72.5 224.5t-183.5 82.5q-118 0 -192.5 -82t-74.5 -225z" />
    <glyph glyph-name="afii10083" unicode="&#x441;" horiz-adv-x="1198" 
d="M51 522q0 151 74 278t203.5 201t285.5 74q92 0 171 -22.5t132 -58.5t95.5 -80t67 -87.5t40.5 -79.5t22 -59l5 -22h-297q-2 7 -6.5 18t-23.5 39t-43 49.5t-67.5 39t-95.5 17.5q-110 0 -188 -86t-78 -221t78 -221t188 -86q52 0 95 17t68 41t42.5 48t24.5 41l6 17h297
q-2 -9 -5.5 -23.5t-20 -57t-39 -81.5t-65.5 -86t-95.5 -81t-133 -57.5t-174.5 -23.5q-156 0 -285.5 74t-203.5 201t-74 278z" />
    <glyph glyph-name="afii10084" unicode="&#x442;" horiz-adv-x="1003" 
d="M10 799v245h983v-245h-348v-799h-287v799h-348z" />
    <glyph glyph-name="afii10085" unicode="&#x443;" horiz-adv-x="1126" 
d="M20 1044h297l205 -798h82l225 798h297l-419 -1433h-297l112 389h-225z" />
    <glyph glyph-name="afii10086" unicode="&#x444;" horiz-adv-x="1474" 
d="M51 522q0 215 156.5 371.5t386.5 171.5v369h287v-369q230 -15 386 -171.5t156 -371.5t-156 -371t-386 -171v-365h-287v365q-230 15 -386.5 171t-156.5 371zM881 225q111 16 178 93t67 204t-67 204t-178 93v-594zM348 522q0 -127 67.5 -204t178.5 -93v594
q-111 -16 -178.5 -93t-67.5 -204z" />
    <glyph glyph-name="afii10087" unicode="&#x445;" horiz-adv-x="1116" 
d="M0 0l307 532l-287 512h318l194 -389h52l194 389h318l-287 -512l307 -532h-317l-215 410h-52l-215 -410h-317z" />
    <glyph glyph-name="afii10088" unicode="&#x446;" horiz-adv-x="1239" 
d="M113 0v1044h286v-798h389v798h287v-798h144v-461h-277v215h-829z" />
    <glyph glyph-name="afii10089" unicode="&#x447;" horiz-adv-x="1157" 
d="M82 655v389h287v-368q0 -77 45 -120.5t129 -43.5q64 0 117.5 14t75.5 28l22 15v475h286v-1044h-286v338q-4 -3 -11 -8t-32.5 -17t-54 -21.5t-74 -17.5t-94.5 -8q-191 0 -300.5 105.5t-109.5 283.5z" />
    <glyph glyph-name="afii10090" unicode="&#x448;" horiz-adv-x="1658" 
d="M113 0v1044h286v-798h287v798h287v-798h287v798h286v-1044h-1433z" />
    <glyph glyph-name="afii10091" unicode="&#x449;" horiz-adv-x="1710" 
d="M113 0v1044h286v-798h287v798h287v-798h287v798h286v-798h144v-461h-277v215h-1300z" />
    <glyph glyph-name="afii10092" unicode="&#x44a;" horiz-adv-x="1167" 
d="M10 799v245h492v-327h205q187 0 303 -104t116 -255t-116 -254.5t-303 -103.5h-492v799h-205zM502 236h184q68 0 105.5 33.5t37.5 88.5t-37.5 89t-105.5 34h-184v-245z" />
    <glyph glyph-name="afii10093" unicode="&#x44b;" horiz-adv-x="1515" 
d="M1116 0v1044h287v-1044h-287zM113 0v1044h286v-327h195q187 0 303.5 -104t116.5 -255q0 -150 -116.5 -254t-303.5 -104h-481zM399 236h174q68 0 106 33.5t38 88.5t-38 89t-106 34h-174v-245z" />
    <glyph glyph-name="afii10094" unicode="&#x44c;" horiz-adv-x="1095" 
d="M113 0v1044h286v-327h236q187 0 303.5 -104t116.5 -255q0 -150 -116.5 -254t-303.5 -104h-522zM399 236h215q68 0 106 33.5t38 88.5t-38 89t-106 34h-215v-245z" />
    <glyph glyph-name="afii10095" unicode="&#x44d;" horiz-adv-x="1198" 
d="M51 379h297q2 -7 6.5 -18t23.5 -39t43 -50t67.5 -39.5t95.5 -17.5q97 0 168.5 63.5t87.5 151.5h-332v205h321q-15 79 -85 136.5t-160 57.5q-52 0 -95 -17t-68 -40.5t-42.5 -47.5t-24.5 -41l-6 -17h-297q2 9 6 23.5t21 57t40.5 81t66.5 86t95.5 81t132 57t171.5 23.5
q156 0 285.5 -74t203.5 -201t74 -278t-74 -278t-203.5 -201t-285.5 -74q-94 0 -174.5 22.5t-133.5 59t-95 80t-65.5 87t-39 80t-20.5 58.5z" />
    <glyph glyph-name="afii10096" unicode="&#x44e;" horiz-adv-x="1648" 
d="M113 0v1044h286v-409h103q26 120 98 218.5t188.5 160t255.5 61.5q113 0 215.5 -43.5t176.5 -117.5t117.5 -176.5t43.5 -215.5t-43.5 -215.5t-117.5 -176.5t-176.5 -117.5t-215.5 -43.5q-105 0 -198.5 35.5t-162 96.5t-115.5 140.5t-66 168.5h-103v-410h-286zM788 522
q0 -142 72.5 -224.5t183.5 -82.5t183.5 82.5t72.5 224.5t-72.5 224.5t-183.5 82.5t-183.5 -82.5t-72.5 -224.5z" />
    <glyph glyph-name="afii10097" unicode="&#x44f;" horiz-adv-x="1146" 
d="M61 0l215 379q-7 3 -19.5 9t-44.5 31t-56 56.5t-44 88t-20 122.5q0 158 112.5 258t307.5 100h522v-1044h-286v317h-205l-164 -317h-318zM389 686q0 -63 39 -98t113 -35h207v246h-207q-72 0 -112 -32.5t-40 -80.5z" />
    <glyph glyph-name="afii10071" unicode="&#x451;" horiz-adv-x="1228" 
d="M51 522q0 151 74 278t203.5 201t285.5 74q160 0 287.5 -74.5t196.5 -200.5t69 -278v-61h-819q15 -101 91.5 -173.5t174.5 -72.5q52 0 95 12.5t68 30.5t42.5 36.5t24.5 31.5l6 12h307q-2 -8 -6.5 -21t-22.5 -51.5t-42.5 -73.5t-69 -77.5t-97.5 -73t-133 -51.5t-172 -21
q-156 0 -285.5 74t-203.5 201t-74 278zM358 635h502q-16 81 -83 137.5t-163 56.5q-95 0 -163 -56t-93 -138zM676 1331q0 62 41 103t102 41t102.5 -41.5t41.5 -102.5t-41 -102t-103 -41q-61 0 -102 41t-41 102zM276 1331q0 61 41 102.5t103 41.5q61 0 102 -41t41 -103
q0 -61 -40.5 -102t-102.5 -41t-103 41t-41 102z" />
    <glyph glyph-name="afii10099" unicode="&#x452;" horiz-adv-x="1259" 
d="M10 1014v246h133v174h287v-174h246v-246h-246v-307h10q4 7 11.5 19t36 42t63 52.5t93 41.5t124.5 19q194 0 302 -114t108 -327v-829h-564v246h277v542q0 114 -57 175t-158 61q-102 0 -174 -78t-72 -199v-358h-287v1014h-133z" />
    <glyph glyph-name="afii10100" unicode="&#x453;" horiz-adv-x="921" 
d="M113 0v1044h788v-245h-502v-799h-286zM420 1188l153 307h308v-2l-246 -305h-215z" />
    <glyph glyph-name="afii10101" unicode="&#x454;" horiz-adv-x="1198" 
d="M51 522q0 151 74 278t203.5 201t285.5 74q92 0 171 -22.5t132 -58.5t95.5 -80t67 -87.5t40.5 -79.5t22 -59l5 -22h-297q-2 7 -6.5 18t-23.5 39t-43 49.5t-67.5 39t-95.5 17.5q-90 0 -160 -57.5t-85 -136.5h321v-205h-332q16 -88 87.5 -151.5t168.5 -63.5q52 0 95 17
t68 41t42.5 48t24.5 41l6 17h297q-2 -9 -5.5 -23.5t-20 -57t-39 -81.5t-65.5 -86t-95.5 -81t-133 -57.5t-174.5 -23.5q-156 0 -285.5 74t-203.5 201t-74 278z" />
    <glyph glyph-name="afii10102" unicode="&#x455;" horiz-adv-x="1085" 
d="M41 338h297q2 -5 6 -14t21 -32t40 -40.5t65 -32t93 -14.5q95 0 134.5 26.5t39.5 75.5q0 29 -27.5 50t-73 32t-103.5 24.5t-118.5 26.5t-118.5 38.5t-103.5 59t-73 90.5t-27.5 130q0 131 117.5 224t322.5 93q90 0 165.5 -18.5t124.5 -48.5t88 -66t59.5 -72t33.5 -66
t17 -48l4 -19h-287q-1 4 -4.5 11t-18 25t-35 31.5t-59.5 24.5t-88 11q-71 0 -107 -24t-36 -58q0 -29 27.5 -50t73 -32t103.5 -24.5t118.5 -26.5t118.5 -38.5t103.5 -59t73 -90.5t27.5 -130q0 -139 -126 -238.5t-345 -99.5q-72 0 -136.5 12.5t-111.5 34t-87.5 49t-68 58.5
t-49 61.5t-34.5 58t-21 49t-11 34.5z" />
    <glyph glyph-name="afii10103" unicode="&#x456;" horiz-adv-x="512" 
d="M92 1331q0 62 48 108t116 46t116 -46t48 -108t-48 -107.5t-116 -45.5t-116 45.5t-48 107.5zM113 0v1044h286v-1044h-286z" />
    <glyph glyph-name="afii10104" unicode="&#x457;" horiz-adv-x="512" 
d="M113 0v1044h286v-1044h-286zM317 1362q0 61 41 102t103 41q61 0 102 -40.5t41 -102.5t-41 -102.5t-102 -40.5q-62 0 -103 41t-41 102zM-82 1362q0 62 41 102.5t102 40.5q62 0 103 -41t41 -102t-41 -102t-103 -41q-61 0 -102 40.5t-41 102.5z" />
    <glyph glyph-name="afii10105" unicode="&#x458;" horiz-adv-x="512" 
d="M92 1331q0 62 48 108t116 46t116 -46t48 -108t-48 -107.5t-116 -45.5t-116 45.5t-48 107.5zM-174 -389v235h287v1198h286v-1433h-573z" />
    <glyph glyph-name="afii10106" unicode="&#x459;" horiz-adv-x="1679" 
d="M0 0l287 1044h737v-327h195q187 0 303 -104t116 -255t-116 -254.5t-303 -103.5h-482v799h-225l-215 -799h-297zM1024 236h174q68 0 105.5 33.5t37.5 88.5t-37.5 89t-105.5 34h-174v-245z" />
    <glyph glyph-name="afii10107" unicode="&#x45a;" horiz-adv-x="1771" 
d="M113 0v1044h286v-327h420v327h287v-327h205q180 0 300 -109.5t120 -259.5q0 -147 -119 -247.5t-301 -100.5h-492v471h-420v-471h-286zM1106 246h194q60 0 97 32.5t37 79.5t-37 80t-97 33h-194v-225z" />
    <glyph glyph-name="afii10108" unicode="&#x45b;" horiz-adv-x="1259" 
d="M10 1014v246h133v174h287v-174h246v-246h-246v-307h10q4 7 11.5 19t36 42t63 52.5t93 41.5t124.5 19q194 0 302 -114t108 -327v-440h-287v399q0 114 -57 175t-158 61q-102 0 -174 -78t-72 -199v-358h-287v1014h-133z" />
    <glyph glyph-name="afii10109" unicode="&#x45c;" horiz-adv-x="1136" 
d="M113 0v1044h286v-389h123l277 389h317l-338 -481l369 -563h-328l-266 410h-154v-410h-286zM471 1188l154 307h307v-2l-246 -305h-215z" />
    <glyph glyph-name="afii10110" unicode="&#x45e;" horiz-adv-x="1126" 
d="M20 1044h297l205 -798h82l225 798h297l-419 -1433h-297l112 389h-225zM246 1464h194q0 -48 33 -75t100 -27t100.5 27.5t33.5 74.5h194q0 -126 -85 -201t-243 -75t-242.5 75t-84.5 201z" />
    <glyph glyph-name="afii10193" unicode="&#x45f;" horiz-adv-x="1228" 
d="M113 0v1044h286v-798h430v798h287v-1044h-358v-215h-287v215h-358z" />
    <glyph glyph-name="afii10050" unicode="&#x490;" horiz-adv-x="1146" 
d="M133 0v1434h676v204h307v-491h-676v-1147h-307z" />
    <glyph glyph-name="afii10098" unicode="&#x491;" horiz-adv-x="921" 
d="M113 0v1044h501v185h287v-430h-502v-799h-286z" />
    <glyph glyph-name="uni1E9E" unicode="&#x1e9e;" horiz-adv-x="1495" 
d="M123 0v942q0 221 151 356.5t422 135.5h604v-277l-256 -256v-20q8 -1 22 -3t54.5 -13t77.5 -28t82 -51.5t77.5 -78.5t54.5 -113.5t22 -153.5q0 -199 -142.5 -319.5t-410.5 -120.5h-185v287h174q117 0 181.5 50.5t64.5 123.5t-64.5 123.5t-181.5 50.5h-163v260l245 252
h-256q-138 0 -202 -56t-64 -169v-922h-307z" />
    <glyph glyph-name="endash" unicode="&#x2013;" horiz-adv-x="1484" 
d="M113 430v236h1259v-236h-1259z" />
    <glyph glyph-name="emdash" unicode="&#x2014;" horiz-adv-x="1884" 
d="M113 430v236h1659v-236h-1659z" />
    <glyph glyph-name="quoteleft" unicode="&#x2018;" horiz-adv-x="471" 
d="M72 1116q0 173 83 266t224 93v-123q-68 0 -105.5 -35.5t-37.5 -97.5v-21q9 10 40 10q48 0 85.5 -43.5t37.5 -109.5q0 -69 -47 -116.5t-116 -47.5q-73 0 -118.5 57t-45.5 168z" />
    <glyph glyph-name="quoteright" unicode="&#x2019;" horiz-adv-x="471" 
d="M72 1311q0 69 47.5 116.5t116.5 47.5q73 0 118 -57.5t45 -168.5q0 -173 -83 -265.5t-224 -92.5v123q68 0 106 35.5t38 97.5v20q-10 -10 -41 -10q-48 0 -85.5 44t-37.5 110z" />
    <glyph glyph-name="quotesinglbase" unicode="&#x201a;" horiz-adv-x="471" 
d="M72 133q0 69 47.5 116.5t116.5 47.5q73 0 118 -57t45 -168q0 -173 -83 -266t-224 -93v123q68 0 106 35.5t38 97.5v21q-10 -10 -41 -10q-48 0 -85.5 43.5t-37.5 109.5z" />
    <glyph glyph-name="quotedblleft" unicode="&#x201c;" horiz-adv-x="870" 
d="M72 1116q0 173 83 266t224 93v-123q-68 0 -105.5 -35.5t-37.5 -97.5v-21q9 10 40 10q48 0 85.5 -43.5t37.5 -109.5q0 -69 -47 -116.5t-116 -47.5q-73 0 -118.5 57t-45.5 168zM471 1116q0 173 83 266t224 93v-123q-68 0 -105.5 -35.5t-37.5 -97.5v-21q10 10 41 10
q48 0 85.5 -43.5t37.5 -109.5q0 -69 -47.5 -116.5t-116.5 -47.5q-73 0 -118.5 57t-45.5 168z" />
    <glyph glyph-name="quotedblright" unicode="&#x201d;" horiz-adv-x="870" 
d="M72 1311q0 69 47.5 116.5t116.5 47.5q73 0 118 -57.5t45 -168.5q0 -173 -83 -265.5t-224 -92.5v123q68 0 106 35.5t38 97.5v20q-10 -10 -41 -10q-48 0 -85.5 44t-37.5 110zM471 1311q0 69 47.5 116.5t116.5 47.5q73 0 118.5 -57.5t45.5 -168.5q0 -173 -83 -265.5
t-224 -92.5v123q68 0 105.5 35.5t37.5 97.5v20q-10 -10 -41 -10q-48 0 -85.5 44t-37.5 110z" />
    <glyph glyph-name="quotedblbase" unicode="&#x201e;" horiz-adv-x="870" 
d="M72 133q0 69 47.5 116.5t116.5 47.5q73 0 118 -57t45 -168q0 -173 -83 -266t-224 -93v123q68 0 106 35.5t38 97.5v21q-10 -10 -41 -10q-48 0 -85.5 43.5t-37.5 109.5zM471 133q0 69 47.5 116.5t116.5 47.5q73 0 118.5 -57t45.5 -168q0 -173 -83 -266t-224 -93v123
q68 0 105.5 35.5t37.5 97.5v21q-10 -10 -41 -10q-48 0 -85.5 43.5t-37.5 109.5z" />
    <glyph glyph-name="dagger" unicode="&#x2020;" horiz-adv-x="942" 
d="M72 799v256h266v379h266v-379h266v-256h-266v-799h-266v799h-266z" />
    <glyph glyph-name="daggerdbl" unicode="&#x2021;" horiz-adv-x="942" 
d="M72 276v256h266v369h-266v256h266v277h266v-277h266v-256h-266v-369h266v-256h-266v-276h-266v276h-266z" />
    <glyph glyph-name="bullet" unicode="&#x2022;" horiz-adv-x="921" 
d="M246 584q0 91 64 153t151 62t151 -62t64 -153t-64 -153t-151 -62t-151 62t-64 153z" />
    <glyph glyph-name="ellipsis" unicode="&#x2026;" horiz-adv-x="1597" 
d="M72 133q0 69 47.5 116.5t116.5 47.5t116 -47.5t47 -116.5t-47 -116.5t-116 -47.5t-116.5 47.5t-47.5 116.5zM1198 133q0 69 47.5 116.5t116.5 47.5t116.5 -47.5t47.5 -116.5t-47.5 -116.5t-116.5 -47.5t-116.5 47.5t-47.5 116.5zM635 133q0 69 47.5 116.5t116.5 47.5
t116.5 -47.5t47.5 -116.5t-47.5 -116.5t-116.5 -47.5t-116.5 47.5t-47.5 116.5z" />
    <glyph glyph-name="perthousand" unicode="&#x2030;" horiz-adv-x="2396" 
d="M72 1106q0 146 101 247t247 101t247 -101t101 -247t-101 -247t-247 -101t-247 101t-101 247zM266 0l860 1434h236l-860 -1434h-236zM276 1106q0 -61 41 -102t103 -41t102.5 40.5t40.5 102.5t-40.5 102.5t-102.5 40.5t-103 -41t-41 -102zM1628 328q0 146 101 247t247 101
t247 -101t101 -247t-101 -247t-247 -101t-247 101t-101 247zM850 328q0 146 101 247t247 101t247 -101t101 -247t-101 -247t-247 -101t-247 101t-101 247zM1833 328q0 -62 41 -103t102 -41q62 0 103 41t41 103q0 61 -41 102t-103 41t-102.5 -40.5t-40.5 -102.5zM1055 328
q0 -62 41 -103t102 -41t102 41t41 103t-40.5 102.5t-102.5 40.5t-102.5 -40.5t-40.5 -102.5z" />
    <glyph glyph-name="guilsinglleft" unicode="&#x2039;" horiz-adv-x="808" 
d="M41 522l522 522l174 -174l-358 -348l358 -348l-174 -174z" />
    <glyph glyph-name="guilsinglright" unicode="&#x203a;" horiz-adv-x="808" 
d="M72 174l358 348l-358 348l174 174l522 -522l-522 -522z" />
    <glyph glyph-name="fraction" unicode="&#x2044;" horiz-adv-x="276" 
d="M-410 0l861 1434h235l-860 -1434h-236z" />
    <glyph glyph-name="zerosuperior" unicode="&#x2070;" horiz-adv-x="778" 
d="M51 1290q0 159 99 264t239 105t239 -105t99 -264t-99 -263.5t-239 -104.5t-239 104.5t-99 263.5zM266 1290q0 -87 36.5 -135.5t86.5 -48.5t86.5 48.5t36.5 135.5t-36.5 136t-86.5 49t-86.5 -49t-36.5 -136z" />
    <glyph glyph-name="foursuperior" unicode="&#x2074;" horiz-adv-x="686" 
d="M20 1065v174l256 399h226l-256 -389h133l31 113h163v-113h93v-184h-93v-123h-204v123h-349z" />
    <glyph glyph-name="fivesuperior" unicode="&#x2075;" horiz-adv-x="727" 
d="M72 1147h204q1 -2 3 -5.5t10 -12.5t18.5 -15.5t29.5 -12t42 -5.5q39 0 65.5 22.5t26.5 59.5t-26.5 59.5t-65.5 22.5q-27 0 -53 -10t-38 -20l-12 -11l-174 30l31 389h481v-163h-307l-10 -113h10q5 5 14 11.5t41 18t68 11.5q121 0 188.5 -63.5t67.5 -172.5
q0 -103 -81.5 -174t-215.5 -71q-59 0 -108 12.5t-80.5 32.5t-56.5 43.5t-38 47.5t-21 44t-11 32z" />
    <glyph glyph-name="sixsuperior" unicode="&#x2076;" horiz-adv-x="706" 
d="M51 1178q0 126 113 266l153 194h226l-164 -204l-62 -41v-11q52 31 113 31q100 0 168 -67.5t68 -167.5q0 -111 -83 -183.5t-225 -72.5t-224.5 72.5t-82.5 183.5zM256 1178q0 -34 26 -58t76 -24q51 0 77 24t26 58t-26 58t-77 24q-50 0 -76 -24t-26 -58z" />
    <glyph glyph-name="sevensuperior" unicode="&#x2077;" horiz-adv-x="634" 
d="M41 1454v184h573v-184l-286 -512h-215l276 500v12h-348z" />
    <glyph glyph-name="eightsuperior" unicode="&#x2078;" horiz-adv-x="778" 
d="M61 1126q0 40 16 72.5t38.5 50.5t45 30.5t38.5 16.5l16 4v11q-5 1 -13.5 4t-29.5 14.5t-37 27t-29.5 44.5t-13.5 63q0 83 76 139t221 56t221 -56t76 -139q0 -34 -12.5 -62.5t-31 -44.5t-36.5 -27t-30 -15l-13 -4v-11q6 -1 16.5 -4t37 -16t47 -30.5t37 -50.5t16.5 -73
q0 -84 -84.5 -144t-243.5 -60t-243.5 60t-84.5 144zM297 1423q0 -25 24.5 -43t67.5 -18t67.5 18t24.5 43t-24.5 43.5t-67.5 18.5t-67.5 -18.5t-24.5 -43.5zM276 1157q0 -72 113 -72t113 72t-113 72t-113 -72z" />
    <glyph glyph-name="ninesuperior" unicode="&#x2079;" horiz-adv-x="706" 
d="M41 1403q0 111 82.5 183.5t224.5 72.5t224.5 -72.5t82.5 -183.5q0 -127 -112 -266l-154 -195h-225l164 205l61 41v10q-52 -31 -113 -31q-100 0 -167.5 68t-67.5 168zM246 1403q0 -34 26 -58t76 -24q51 0 77 24t26 58t-26 58t-77 24q-50 0 -76 -24t-26 -58z" />
    <glyph glyph-name="zeroinferior" unicode="&#x2080;" horiz-adv-x="778" 
d="M51 143q0 159 99 264t239 105t239 -105t99 -264t-99 -263.5t-239 -104.5t-239 104.5t-99 263.5zM266 143q0 -87 36.5 -135.5t86.5 -48.5t86.5 48.5t36.5 135.5t-36.5 136t-86.5 49t-86.5 -49t-36.5 -136z" />
    <glyph glyph-name="oneinferior" unicode="&#x2081;" horiz-adv-x="716" 
d="M92 -205v185h195v307l-174 -103v205l184 103h195v-512h184v-185h-584z" />
    <glyph glyph-name="twoinferior" unicode="&#x2082;" horiz-adv-x="737" 
d="M61 -205v182l175 95q134 73 174.5 108.5t40.5 75.5q0 33 -24 52.5t-69 19.5q-26 0 -46 -8.5t-30 -20.5t-16.5 -24t-7.5 -21l-2 -8h-195q1 6 2.5 15.5t10.5 37t21.5 52.5t37.5 56t56 53t79.5 37t106.5 15q141 0 221 -67t80 -169q0 -83 -55 -143t-181 -123l-20 -10l-82 -31
v-10l92 21h246v-185h-615z" />
    <glyph glyph-name="threeinferior" unicode="&#x2083;" horiz-adv-x="716" 
d="M51 10h205q0 -2 1.5 -6.5t8 -15t16.5 -18.5t30 -14.5t46 -6.5q44 0 68.5 19.5t24.5 51.5t-25 52t-68 20h-153v123l184 113v10l-82 -10h-215v164h533v-154l-123 -92l-72 -31v-10h41q82 0 138.5 -58.5t56.5 -136.5q0 -103 -77.5 -169t-215.5 -66q-57 0 -106 13t-81 33.5
t-57.5 45.5t-39.5 50.5t-23 46t-12 33.5z" />
    <glyph glyph-name="fourinferior" unicode="&#x2084;" horiz-adv-x="686" 
d="M20 -82v174l256 400h226l-256 -390h133l31 113h163v-113h93v-184h-93v-123h-204v123h-349z" />
    <glyph glyph-name="fiveinferior" unicode="&#x2085;" horiz-adv-x="727" 
d="M72 0h204q1 -2 3 -5.5t10 -12.5t18.5 -15.5t29.5 -12t42 -5.5q39 0 65.5 22.5t26.5 59.5t-26.5 59.5t-65.5 22.5q-27 0 -53 -10.5t-38 -20.5l-12 -10l-174 30l31 390h481v-164h-307l-10 -113h10q5 5 14 11.5t41 18t68 11.5q121 0 188.5 -63.5t67.5 -172.5
q0 -103 -81.5 -174t-215.5 -71q-59 0 -108 12.5t-80.5 32.5t-56.5 44t-38 47.5t-21 43.5t-11 33z" />
    <glyph glyph-name="sixinferior" unicode="&#x2086;" horiz-adv-x="706" 
d="M51 31q0 126 113 266l153 195h226l-164 -205l-62 -41v-10q52 30 113 30q100 0 168 -67.5t68 -167.5q0 -111 -83 -183.5t-225 -72.5t-224.5 72.5t-82.5 183.5zM256 31q0 -34 26 -58t76 -24q51 0 77 24t26 58t-26 58t-77 24q-50 0 -76 -24t-26 -58z" />
    <glyph glyph-name="seveninferior" unicode="&#x2087;" horiz-adv-x="634" 
d="M41 307v185h573v-185l-286 -512h-215l276 500v12h-348z" />
    <glyph glyph-name="eightinferior" unicode="&#x2088;" horiz-adv-x="778" 
d="M61 -20q0 40 16 72.5t38.5 50.5t45 30.5t38.5 16.5l16 4v10q-5 1 -13.5 4t-29.5 14.5t-37 27t-29.5 44.5t-13.5 63q0 83 76 139t221 56t221 -56t76 -139q0 -34 -12.5 -62.5t-31 -44.5t-36.5 -27t-30 -15l-13 -4v-10q6 -1 16.5 -4t37 -16t47 -30.5t37 -50.5t16.5 -73
q0 -84 -85 -144.5t-243 -60.5t-243 60.5t-85 144.5zM297 276q0 -25 24.5 -43t67.5 -18t67.5 18t24.5 43t-24.5 43.5t-67.5 18.5t-67.5 -18.5t-24.5 -43.5zM276 10q0 -71 113 -71t113 71q0 72 -113 72t-113 -72z" />
    <glyph glyph-name="nineinferior" unicode="&#x2089;" horiz-adv-x="706" 
d="M41 256q0 111 82.5 183.5t224.5 72.5t224.5 -72.5t82.5 -183.5q0 -127 -112 -266l-154 -195h-225l164 205l61 41v10q-52 -31 -113 -31q-100 0 -167.5 68t-67.5 168zM246 256q0 -34 26 -58t76 -24q51 0 77 24t26 58t-26 58t-77 24q-50 0 -76 -24t-26 -58z" />
    <glyph glyph-name="Euro" unicode="&#x20ac;" horiz-adv-x="1740" 
d="M31 451v184h123q-4 54 -4 82t4 82h-123v184h164q36 96 99 181t154 156.5t218.5 113t275.5 41.5q171 0 308.5 -56t212 -135.5t125 -159.5t66.5 -136l15 -56h-317q-2 5 -5.5 14.5t-19 36t-34.5 50.5t-53.5 53.5t-74.5 51t-98.5 36t-124.5 14.5q-77 0 -145.5 -21t-111 -51
t-74 -60.5t-45.5 -51.5l-13 -21h399v-184h-471q-4 -54 -4 -82t4 -82h471v-184h-399q4 -8 12.5 -22t42 -49.5t73.5 -62.5t110.5 -49t150.5 -22q69 0 129.5 16t102 41t75.5 55.5t54.5 61t34 55.5t18.5 41l6 16h317q-3 -12 -9 -32.5t-31.5 -80t-59 -114t-94 -120.5t-133 -113.5
t-180 -80t-230.5 -32.5q-148 0 -275.5 41.5t-218.5 113t-154 156.5t-99 181h-164z" />
    <glyph glyph-name="uni20B4" unicode="&#x20b4;" horiz-adv-x="1361" 
d="M92 768v184h768q5 5 11.5 13.5t18 38t11.5 61.5q0 67 -61.5 110.5t-184.5 43.5q-60 0 -108.5 -16t-75 -38.5t-44 -45t-23.5 -38.5l-5 -16h-307q2 9 5.5 23.5t21 57t42 81.5t71 86t104.5 81t147 57.5t193 23.5q137 0 245.5 -30t174 -80t99.5 -111t34 -128
q0 -44 -14.5 -87.5t-28.5 -64.5l-15 -22h99v-184h-1178zM92 481v185h1178v-185h-768q-5 -4 -11.5 -13t-18 -38t-11.5 -61q0 -67 61.5 -110.5t184.5 -43.5q60 0 108.5 16t75 38.5t44 45t23.5 38.5l5 16h307q-2 -9 -5.5 -23.5t-21 -57t-42 -81.5t-71 -86t-104.5 -81
t-147 -57.5t-193 -23.5q-137 0 -245.5 29.5t-174 79.5t-99.5 111t-34 128q0 44 14.5 87.5t28.5 65.5l14 21h-98z" />
    <glyph glyph-name="uni20BD" unicode="&#x20bd;" horiz-adv-x="1413" 
d="M51 164v246h154v122h-154v267h154v635h614q247 0 390 -127t143 -324t-143 -324t-390 -127h-307v-122h471v-246h-471v-164h-307v164h-154zM512 799h287q118 0 181.5 52t63.5 132t-63.5 132t-181.5 52h-287v-368z" />
    <glyph glyph-name="afii61352" unicode="&#x2116;" horiz-adv-x="2252" 
d="M1505 1116q0 139 101.5 238.5t246.5 99.5t247 -99.5t102 -238.5t-102 -238.5t-247 -99.5t-246.5 99.5t-101.5 238.5zM133 0v1434h399l472 -861l61 -153h20l-20 174v840h307v-1434h-389l-481 860l-62 154h-20l20 -174v-840h-307zM1720 1116q0 -57 38 -95t95 -38t95.5 38
t38.5 95t-38.5 95t-95.5 38t-95 -38t-38 -95zM1546 430v225h615v-225h-615z" />
    <glyph glyph-name="trademark" unicode="&#x2122;" horiz-adv-x="1699" 
d="M737 778v656h318l112 -308h21l112 308h318v-656h-225v307l20 123h-20l-113 -286h-205l-112 286h-21l21 -123v-307h-226zM10 1229v205h656v-205h-215v-451h-226v451h-215z" />
    <glyph glyph-name="arrowleft" unicode="&#x2190;" horiz-adv-x="1853" 
d="M195 686v31l399 389h41v-318h1024v-174h-1024v-317h-41z" />
    <glyph glyph-name="arrowup" unicode="&#x2191;" horiz-adv-x="1853" 
d="M522 993v41l389 400h31l389 -400v-41h-317v-1024h-174v1024h-318z" />
    <glyph glyph-name="arrowright" unicode="&#x2192;" horiz-adv-x="1853" 
d="M195 614v174h1024v318h41l399 -389v-31l-399 -389h-41v317h-1024z" />
    <glyph glyph-name="arrowdown" unicode="&#x2193;" horiz-adv-x="1853" 
d="M522 399v41h318v1024h174v-1024h317v-41l-389 -399h-31z" />
    <glyph glyph-name="uni2196" unicode="&#x2196;" horiz-adv-x="1853" 
d="M369 686v563l30 31h564v-41l-215 -215l727 -727l-123 -123l-727 725l-215 -213h-41z" />
    <glyph glyph-name="uni2197" unicode="&#x2197;" horiz-adv-x="1853" 
d="M369 297l727 727l-215 215v41h563l31 -31v-563h-41l-215 213l-727 -725z" />
    <glyph glyph-name="uni2198" unicode="&#x2198;" horiz-adv-x="1853" 
d="M369 1167l123 123l727 -725l215 213h41v-563l-31 -31h-563v41l215 215z" />
    <glyph glyph-name="uni2199" unicode="&#x2199;" horiz-adv-x="1853" 
d="M369 215v563h41l215 -213l727 725l123 -123l-727 -727l215 -215v-41h-564z" />
    <glyph glyph-name="minus" unicode="&#x2212;" horiz-adv-x="1085" 
d="M123 430v246h840v-246h-840z" />
    <glyph glyph-name="approxequal" unicode="&#x2248;" horiz-adv-x="1085" 
d="M102 604v51q0 128 63.5 197.5t172.5 69.5q59 0 114.5 -17.5t90.5 -39t74 -39t69 -17.5q31 0 51.5 20.5t20.5 51.5v30h225v-51q0 -128 -63 -197t-172 -69q-59 0 -115 17.5t-90.5 39t-74 39t-69.5 17.5q-31 0 -51 -20.5t-20 -51.5v-31h-226zM102 205v51q0 128 63.5 197
t172.5 69q59 0 114.5 -17.5t90.5 -38.5t74 -38.5t69 -17.5q31 0 51.5 20t20.5 51v31h225v-51q0 -128 -63 -197t-172 -69q-59 0 -115 17.5t-90.5 38.5t-74 38.5t-69.5 17.5q-31 0 -51 -20t-20 -51v-31h-226z" />
    <glyph glyph-name="notequal" unicode="&#x2260;" horiz-adv-x="1085" 
d="M143 236v235h238l76 164h-314v235h422l111 236h246l-111 -236h131v-235h-240l-75 -164h315v-235h-424l-108 -236h-246l108 236h-129z" />
    <glyph glyph-name="lessequal" unicode="&#x2264;" horiz-adv-x="1085" 
d="M113 573v267l850 317v-235l-584 -205v-21l584 -204v-236zM113 256v225l850 -317v-225z" />
    <glyph glyph-name="greaterequal" unicode="&#x2265;" horiz-adv-x="1085" 
d="M123 256v236l584 204v21l-584 205v235l850 -317v-267zM123 -61v225l850 317v-225z" />
    <glyph glyph-name="commaaccent" unicode="&#xf6c3;" horiz-adv-x="430" 
d="M61 -307q0 61 41 102t103 41q72 0 118 -56t46 -159q0 -131 -78.5 -209t-208.5 -78v113q67 0 100 27t33 75v21q-10 -10 -41 -10q-47 0 -80 36.5t-33 96.5z" />
    <glyph glyph-name="cyrBreve" unicode="&#xf6d1;" horiz-adv-x="819" 
d="M61 1864h226q0 -123 133 -123t133 123h225q0 -141 -95.5 -229.5t-262.5 -88.5t-263 88.5t-96 229.5z" />
    <glyph glyph-name="cyrbreve" unicode="&#xf6d4;" horiz-adv-x="778" 
d="M61 1413h195q0 -48 33 -75t100 -27t100 27t33 75h195q0 -126 -85 -201t-243 -75t-243 75t-85 201z" />
    <glyph glyph-name="zero.oldstyle" unicode="&#xf730;" horiz-adv-x="1249" 
d="M61 522q0 239 159.5 396t404.5 157t404 -157t159 -396t-159 -396t-404 -157t-404.5 157t-159.5 396zM348 522q0 -143 79.5 -230t197.5 -87t197 87t79 230t-79 230.5t-197 87.5t-197.5 -87.5t-79.5 -230.5z" />
    <glyph glyph-name="one.oldstyle" unicode="&#xf731;" horiz-adv-x="686" 
d="M61 584v286l256 185h256v-1055h-286v748z" />
    <glyph glyph-name="two.oldstyle" unicode="&#xf732;" horiz-adv-x="1085" 
d="M41 696q1 8 4.5 21.5t18 53t35 75.5t60 79.5t88 75t123 53t162.5 21.5q216 0 338.5 -104t122.5 -264q0 -265 -307 -400l-92 -41l-102 -30v-11l143 21h399v-246h-973v215l410 225q129 71 182.5 127.5t53.5 118.5q0 64 -51.5 109t-133.5 45q-47 0 -84.5 -15t-57 -36
t-32.5 -42t-16 -36l-4 -15h-287z" />
    <glyph glyph-name="three.oldstyle" unicode="&#xf733;" horiz-adv-x="1116" 
d="M10 20h287q1 -8 4.5 -21t19.5 -46.5t39.5 -59t69 -46.5t102.5 -21q113 0 174.5 55.5t61.5 149.5q0 90 -63 142t-183 52h-194v246h194q97 0 156 52.5t59 131.5q0 78 -57 131.5t-148 53.5q-49 0 -89 -15t-62.5 -36t-37.5 -42t-21 -36l-5 -15h-276q2 8 5 21.5t19 53t37 75.5
t60.5 79.5t88 75t122 53t159.5 21.5q224 0 358 -111.5t134 -277.5q0 -54 -12.5 -100.5t-32.5 -77t-43.5 -55t-47.5 -38t-44 -22t-32 -11.5l-13 -3v-10q6 -1 15.5 -3t37 -12.5t52.5 -25t56 -42.5t53 -62.5t37 -87.5t15 -116q0 -191 -142.5 -315.5t-387.5 -124.5
q-79 0 -148 15t-118 40.5t-89.5 58.5t-67 69.5t-46.5 73t-30 69.5t-16.5 58.5t-7.5 40.5z" />
    <glyph glyph-name="four.oldstyle" unicode="&#xf734;" horiz-adv-x="1157" 
d="M10 0v246l461 798h317l-460 -798h317v317h287v-317h205v-246h-205v-389h-287v389h-635z" />
    <glyph glyph-name="five.oldstyle" unicode="&#xf735;" horiz-adv-x="1146" 
d="M51 31h287q0 -8 2 -21t16 -46.5t36.5 -59.5t70 -47t110.5 -21q107 0 176.5 69.5t69.5 176.5t-69.5 176.5t-176.5 69.5q-46 0 -85 -12.5t-62 -31t-39.5 -36.5t-22.5 -30l-6 -13h-252l52 839h862v-245h-610l-31 -328h10q3 3 10 8.5t31 20t52 25t74.5 19.5t98.5 9
q186 0 318.5 -136.5t132.5 -334.5q0 -225 -144.5 -363.5t-388.5 -138.5q-81 0 -150 15.5t-118.5 41.5t-90 60t-66 71.5t-45 74.5t-29 71t-15.5 60t-7 42z" />
    <glyph glyph-name="six.oldstyle" unicode="&#xf736;" horiz-adv-x="1218" 
d="M51 492q0 78 15.5 146.5t52 138t74.5 125t104 142.5l297 390h328l-318 -410l-112 -70v-12q8 5 23 11.5t63 18t98 11.5q135 0 248.5 -67.5t178 -183t64.5 -251.5q0 -137 -71.5 -254.5t-199 -187.5t-282.5 -70q-116 0 -221 43t-179.5 114.5t-118.5 167.5t-44 198zM348 481
q0 -115 75 -190.5t191 -75.5t191.5 75.5t75.5 190.5t-75.5 191t-191.5 76q-115 0 -190.5 -75.5t-75.5 -191.5z" />
    <glyph glyph-name="seven.oldstyle" unicode="&#xf737;" horiz-adv-x="1024" 
d="M20 799v245h994v-245l-533 -1188h-297l533 1167v21h-697z" />
    <glyph glyph-name="eight.oldstyle" unicode="&#xf738;" horiz-adv-x="1269" 
d="M61 389q0 61 16.5 114t42.5 89.5t57.5 66.5t63.5 47.5t58 30t43 17.5l16 4v10q-10 3 -25.5 10t-56 34t-71.5 60.5t-56.5 92t-25.5 125.5q0 72 33.5 138.5t96.5 119.5t162 84.5t220 31.5t220 -31.5t162 -84.5t96.5 -119.5t33.5 -138.5q0 -67 -24.5 -125t-59 -92.5
t-69 -59.5t-58.5 -35l-25 -10v-10q6 -2 17 -5t41.5 -16.5t58.5 -30.5t62.5 -47.5t59 -66.5t41.5 -89t17 -114q0 -82 -38.5 -156.5t-109 -134t-181 -94.5t-244.5 -35t-244.5 35t-181.5 94.5t-109.5 134t-38.5 156.5zM430 1044q0 -73 54 -118t151 -45t151 45t54 118
q0 72 -54 118t-151 46t-151 -46t-54 -118zM358 430q0 -89 72 -147t205 -58t204.5 58t71.5 147t-71.5 147t-204.5 58t-205 -58t-72 -147z" />
    <glyph glyph-name="nine.oldstyle" unicode="&#xf739;" horiz-adv-x="1218" 
d="M51 563q0 137 71.5 254.5t199 187.5t282.5 70q116 0 221 -43t179.5 -114.5t118.5 -167t44 -197.5q0 -78 -15.5 -146.5t-51.5 -138t-74 -126t-104 -142.5l-297 -389h-328l317 409l113 70v12q-8 -5 -23 -11.5t-63 -18t-98 -11.5q-135 0 -248.5 67.5t-178.5 183t-65 251.5z
M338 563q0 -115 75 -190.5t191 -75.5t191 75.5t75 190.5t-75 190.5t-191 75.5t-191 -75.5t-75 -190.5z" />
    <glyph glyph-name="ecircumflex.sc" horiz-adv-x="1177" 
d="M133 0v1229h963v-287h-656v-174h533v-287h-533v-194h656v-287h-963zM266 1405l236 305h246l235 -305v-2h-225l-113 153h-41l-112 -153h-226v2z" />
    <glyph glyph-name="edieresis.sc" horiz-adv-x="1177" 
d="M133 0v1229h963v-287h-656v-174h533v-287h-533v-194h656v-287h-963zM676 1546q0 62 41 103t102 41t102.5 -41t41.5 -103q0 -61 -41 -102t-103 -41q-61 0 -102 40.5t-41 102.5zM276 1546q0 62 41 103t103 41q61 0 102 -41t41 -103t-40.5 -102.5t-102.5 -40.5t-103 41
t-41 102z" />
    <glyph glyph-name="parenright.case" horiz-adv-x="798" 
d="M31 -41q8 6 21 17.5t51.5 50.5t73 82t77 111.5t73 140t51.5 166t21 190.5t-20.5 190t-53 167t-71.5 139t-78 112.5t-71.5 81t-52.5 51.5l-21 17l143 204q11 -7 29.5 -21t71.5 -62t101.5 -102t107.5 -140.5t101.5 -177.5t71.5 -212.5t29 -246.5q0 -99 -17.5 -194.5
t-47 -174.5t-68 -153t-81 -132.5t-85 -109t-81 -86.5t-68 -62t-46.5 -39l-18 -12z" />
    <glyph glyph-name="bracketleft.case" horiz-adv-x="737" 
d="M133 -184v1802h563v-266h-276v-1270h276v-266h-563z" />
    <glyph glyph-name="bracketright.case" horiz-adv-x="737" 
d="M41 -184v266h276v1270h-276v266h563v-1802h-563z" />
    <glyph glyph-name="braceleft.case" horiz-adv-x="778" 
d="M61 594v246h72q38 0 65 27t27 65v368q0 154 83 236t239 82h190v-256h-123q-45 0 -73.5 -26.5t-28.5 -65.5v-348q0 -49 -16 -87t-38.5 -57.5t-45 -32t-38.5 -15.5l-16 -3v-20q6 -1 16.5 -3.5t37 -15.5t47 -32t37 -57t16.5 -87v-348q0 -39 28.5 -65.5t73.5 -26.5h123v-256
h-190q-157 0 -239.5 81.5t-82.5 235.5v369q0 38 -27 65t-65 27h-72z" />
    <glyph glyph-name="braceright.case" horiz-adv-x="778" 
d="M41 -184v256h123q45 0 73.5 26.5t28.5 65.5v348q0 49 16 87t38.5 57.5t45 32t38.5 15.5l16 3v20q-6 1 -16.5 3.5t-37 15.5t-47 32t-37 57t-16.5 87v348q0 39 -28.5 65.5t-73.5 26.5h-123v256h190q156 0 239 -82t83 -236v-368q0 -38 27 -65t65 -27h72v-246h-72
q-38 0 -65 -27t-27 -65v-369q0 -154 -82.5 -235.5t-239.5 -81.5h-190z" />
    <glyph glyph-name="exclamdown.case" horiz-adv-x="593" 
d="M133 1300q0 69 47.5 116.5t116.5 47.5t116.5 -47.5t47.5 -116.5t-47.5 -116t-116.5 -47t-116.5 47t-47.5 116zM154 0v676l51 307h184l51 -307v-676h-286z" />
    <glyph glyph-name="questiondown.case" horiz-adv-x="1177" 
d="M440 1300q0 69 47.5 116.5t116.5 47.5t116.5 -47.5t47.5 -116.5t-47.5 -116t-116.5 -47t-116.5 47t-47.5 116zM41 389q0 77 22.5 138t59 99.5t80 71t87 60t80 57t59 72t22.5 96.5h297q0 -79 -21.5 -142t-56 -103t-76 -73t-83 -60t-76 -54.5t-56 -65.5t-21.5 -86
q0 -66 58 -109.5t168 -43.5q57 0 103.5 18t71.5 43.5t42 51t23 43.5l5 18h308q-2 -10 -5.5 -26.5t-20.5 -64.5t-40.5 -91.5t-69 -96.5t-101.5 -91.5t-141.5 -64.5t-185.5 -26q-119 0 -220.5 35.5t-169 95t-105 137t-37.5 162.5z" />
    <glyph glyph-name="guillemotleft.case" horiz-adv-x="1239" 
d="M553 707l451 522l163 -164l-317 -358l317 -359l-163 -164zM41 707l451 522l163 -164l-317 -358l317 -359l-163 -164z" />
    <glyph glyph-name="guillemotright.case" horiz-adv-x="1239" 
d="M584 348l317 359l-317 358l164 164l450 -522l-450 -523zM72 348l317 359l-317 358l164 164l450 -522l-450 -523z" />
    <glyph glyph-name="guilsinglleft.case" horiz-adv-x="808" 
d="M41 707l522 522l174 -174l-358 -348l358 -349l-174 -174z" />
    <glyph glyph-name="guilsinglright.case" horiz-adv-x="808" 
d="M72 358l358 349l-358 348l174 174l522 -522l-522 -523z" />
    <glyph glyph-name="hyphen.case" horiz-adv-x="993" 
d="M113 655v246h768v-246h-768z" />
    <glyph glyph-name="endash.case" horiz-adv-x="1484" 
d="M113 645v236h1259v-236h-1259z" />
    <glyph glyph-name="emdash.case" horiz-adv-x="1884" 
d="M113 645v236h1659v-236h-1659z" />
    <glyph glyph-name="periodcentered.case" horiz-adv-x="573" 
d="M123 748q0 69 47.5 116t116.5 47t116.5 -47t47.5 -116t-47.5 -116.5t-116.5 -47.5t-116.5 47.5t-47.5 116.5z" />
    <glyph glyph-name="Iogonek.alt" horiz-adv-x="1126" 
d="M82 0v266h328v901h-328v267h962v-267h-327v-901h327v-266q-10 -5 -25.5 -15t-56 -40.5t-71.5 -61t-56.5 -73.5t-25.5 -82q0 -34 22.5 -55t63.5 -21q35 0 69.5 10t51.5 20l18 11v-154q-7 -5 -20 -11.5t-56 -18t-88 -11.5q-113 0 -174 54.5t-61 144.5q0 53 27.5 104
t66.5 85.5t78 61t67 39.5l27 13h-819z" />
    <glyph glyph-name="gbreve.alt" horiz-adv-x="1208" 
d="M0 -102q0 57 25.5 105t61.5 76.5t72 49t61 27.5l26 8v217q-7 4 -19 11.5t-42 35t-52.5 60t-41.5 86t-19 112.5q0 168 130.5 278.5t360.5 110.5q55 0 103.5 -7.5t69.5 -15.5l22 -8h450v-225h-82l-112 31l-10 -10q6 -7 14.5 -20t22.5 -53t14 -81q0 -163 -134.5 -276
t-357.5 -113q-22 0 -42.5 2.5t-30.5 4.5l-9 3v-112q31 10 82 10q119 0 215.5 -17.5t160 -46.5t106.5 -68.5t62 -83t19 -91.5q0 -60 -31.5 -113.5t-95 -98t-175.5 -70.5t-259 -26q-149 0 -261.5 26t-176.5 70.5t-95.5 98t-31.5 113.5zM358 686q0 -72 54 -118t151 -46t151 46
t54 118t-54 118t-151 46t-151 -46t-54 -118zM297 -102q0 -103 266 -103t266 103q0 45 -63 78.5t-203 33.5t-203 -33.5t-63 -78.5zM236 1526h194q0 -48 33 -75.5t100 -27.5t100 27.5t33 75.5h195q0 -126 -85 -201.5t-243 -75.5q-157 0 -242 75.5t-85 201.5z" />
    <glyph glyph-name="gcommaaccent.alt" horiz-adv-x="1208" 
d="M410 1434q0 130 78 208t208 78v-112q-67 0 -100 -27.5t-33 -75.5v-20q10 10 41 10q47 0 80 -36.5t33 -96.5q0 -61 -41 -102t-103 -41q-72 0 -117.5 56t-45.5 159zM0 -102q0 57 25.5 105t61.5 76.5t72 49t61 27.5l26 8v217q-7 4 -19 11.5t-42 35t-52.5 60t-41.5 86
t-19 112.5q0 168 130.5 278.5t360.5 110.5q55 0 103.5 -7.5t69.5 -15.5l22 -8h450v-225h-82l-112 31l-10 -10q6 -7 14.5 -20t22.5 -53t14 -81q0 -163 -134.5 -276t-357.5 -113q-22 0 -42.5 2.5t-30.5 4.5l-9 3v-112q31 10 82 10q119 0 215.5 -17.5t160 -46.5t106.5 -68.5
t62 -83t19 -91.5q0 -60 -31.5 -113.5t-95 -98t-175.5 -70.5t-259 -26q-149 0 -261.5 26t-176.5 70.5t-95.5 98t-31.5 113.5zM358 686q0 -72 54 -118t151 -46t151 46t54 118t-54 118t-151 46t-151 -46t-54 -118zM297 -102q0 -103 266 -103t266 103q0 45 -63 78.5t-203 33.5
t-203 -33.5t-63 -78.5z" />
    <glyph glyph-name="Adieresis.alt2" horiz-adv-x="1443" 
d="M1096 1300q0 62 41 103t102 41t102 -41t41 -103t-41 -102.5t-102 -40.5t-102 40.5t-41 102.5zM61 1300q0 62 41.5 103t102.5 41t102 -41t41 -103t-41 -102.5t-102 -40.5q-62 0 -103 41t-41 102zM20 0l297 1137q3 2 8.5 6t20 19t25 32t19.5 45.5t9 60.5q0 23 -3.5 42.5
t-7.5 27.5l-3 8l14 56h645l15 -56q-15 -27 -15 -78q0 -32 8.5 -60t20.5 -46t24 -31.5t21 -19.5l8 -6l297 -1137h-317l-82 317h-604l-82 -317h-318zM492 604h460l-143 543h-174z" />
    <glyph glyph-name="Odieresis.alt2" horiz-adv-x="1720" 
d="M72 717q0 214 108 391q12 -2 35 -2q83 0 139 55.5t56 138.5q0 13 -4 41q203 134 454 134q252 0 455 -134q-4 -28 -4 -41q0 -83 55.5 -138.5t138.5 -55.5q23 0 35 2q109 -179 109 -391q0 -155 -60.5 -295t-164.5 -242t-251 -161.5t-313 -59.5t-313 59.5t-251 161.5
t-164 242t-60 295zM1362 1300q0 62 41 103t102 41t102.5 -41t41.5 -103q0 -61 -41 -102t-103 -41q-61 0 -102 40.5t-41 102.5zM72 1300q0 62 41 103t102 41t102 -41t41 -103t-41 -102.5t-102 -40.5t-102 40.5t-41 102.5zM399 717q0 -206 130.5 -338.5t330.5 -132.5
t330.5 132.5t130.5 338.5t-130.5 338.5t-330.5 132.5t-330.5 -132.5t-130.5 -338.5z" />
    <glyph glyph-name="Aring.alt2" horiz-adv-x="1423" 
d="M10 0l379 1434h117q-31 31 -31 92q0 72 64.5 128t160.5 56t161 -56t65 -128q0 -27 -8 -50t-16 -32l-7 -10h139l379 -1434h-317l-82 317h-604l-82 -317h-318zM608 1505q0 -32 26.5 -51.5t65.5 -19.5t66 19.5t27 51.5q0 30 -27 51t-66 21q-38 0 -65 -20.5t-27 -51.5z
M481 604h461l-143 543h-174z" />
    <glyph glyph-name="Udieresis.alt2" horiz-adv-x="1474" 
d="M1055 1321q0 61 40.5 102t102.5 41t102.5 -41t40.5 -102t-40.5 -102t-102.5 -41t-102.5 41t-40.5 102zM133 1321q0 61 40.5 102t102.5 41t103 -41t41 -102t-41 -102t-103 -41t-102.5 41t-40.5 102zM123 563v604h31q50 -41 122 -41q71 0 121 41h33v-604q0 -145 84 -231
t223 -86t223 86t84 231v604h31q50 -41 123 -41q71 0 121 41h33v-604q0 -277 -165.5 -440.5t-449.5 -163.5t-449 163.5t-165 440.5z" />
    <glyph glyph-name="Scaron.alt2" horiz-adv-x="1351" 
d="M51 451h318q2 -9 7 -23.5t29 -51.5t56.5 -65.5t95 -51.5t139.5 -23q139 0 203 44.5t64 118.5q0 42 -29 74t-78.5 53.5t-113 39t-134 36t-141 40t-134 55t-113 77t-78.5 110t-29 150.5q0 145 96.5 260t267.5 158l-149 215v2h225l113 -194h41l112 194h225v-2l-155 -225
q67 -20 123.5 -53.5t93.5 -71t66.5 -78t45 -76.5t26 -65.5t13.5 -46.5l3 -17h-318q-1 7 -4.5 18t-22 39t-45.5 50t-81 39.5t-123 17.5q-116 0 -176 -44t-60 -110q0 -42 29 -74t78.5 -53.5t113 -39t134 -36t141 -40t134 -54.5t113 -76.5t78.5 -110t29 -150.5q0 -91 -38 -172
t-109.5 -143.5t-184.5 -99t-252 -36.5q-90 0 -170 17t-138.5 45.5t-108.5 65t-83.5 77.5t-60.5 82t-42 77.5t-25 65t-14 45.5z" />
    <glyph glyph-name="Zcaron.alt2" horiz-adv-x="1320" 
d="M72 0v287l757 839v21h-737v287h348l-143 233v2h225l113 -235h41l112 235h226v-2l-144 -233h359v-287l-758 -840v-20h778v-287h-1177z" />
    <glyph glyph-name="Otilde.alt2" horiz-adv-x="1720" 
d="M512 1423v82q0 85 56.5 140t148.5 55q48 0 91.5 -16t68.5 -35.5t54 -35.5t52 -16t37 14.5t14 37.5v41h174v-82q0 -86 -56.5 -140.5t-147.5 -54.5q-48 0 -91.5 16t-69 35.5t-54.5 35.5t-52 16t-37 -14.5t-14 -37.5v-41h-174zM72 666q0 145 60 275t164 225t251 150.5
t313 55.5t313 -55.5t251 -150.5t164.5 -225t60.5 -275t-60.5 -275.5t-164.5 -225t-251 -150.5t-313 -56q-221 0 -402.5 95t-283.5 257t-102 355zM399 666q0 -193 130.5 -316t330.5 -123t330.5 123t130.5 316t-130.5 316.5t-330.5 123.5t-330.5 -123.5t-130.5 -316.5z" />
    <glyph glyph-name="I.alt" horiz-adv-x="1126" 
d="M82 0v266h328v901h-328v267h962v-267h-327v-901h327v-266h-962z" />
    <glyph glyph-name="y.alt" horiz-adv-x="1126" 
d="M20 1044h297l205 -757h82l225 757h297l-317 -1075q-36 -122 -92 -198.5t-149.5 -118t-229.5 -41.5h-195v246h195q83 0 123 32.5t61 110.5l10 41h-237z" />
    <glyph glyph-name="afii10085.alt" horiz-adv-x="1126" 
d="M20 1044h297l205 -757h82l225 757h297l-317 -1075q-36 -122 -92 -198.5t-149.5 -118t-229.5 -41.5h-195v246h195q83 0 123 32.5t61 110.5l10 41h-237z" />
    <glyph glyph-name="l.alt" horiz-adv-x="512" 
d="M113 0v1434h286v-1434h-286z" />
    <glyph glyph-name="ydieresis.alt" horiz-adv-x="1126" 
d="M20 1044h297l205 -757h82l225 757h297l-317 -1075q-36 -122 -92 -198.5t-149.5 -118t-229.5 -41.5h-195v246h195q83 0 123 32.5t61 110.5l10 41h-237zM635 1393q0 61 40.5 102t102.5 41t103 -41t41 -102t-41 -102.5t-103 -41.5q-61 0 -102 41t-41 103zM236 1393
q0 61 41 102t102 41t102 -41t41 -102q0 -62 -41 -103t-102 -41t-102 41t-41 103z" />
    <glyph glyph-name="yacute.alt" horiz-adv-x="1126" 
d="M20 1044h297l205 -757h82l225 757h297l-317 -1075q-36 -122 -92 -198.5t-149.5 -118t-229.5 -41.5h-195v246h195q83 0 123 32.5t61 110.5l10 41h-237zM471 1249l154 307h307v-2l-246 -305h-215z" />
    <glyph glyph-name="Imacron.alt" horiz-adv-x="1126" 
d="M82 0v266h328v901h-328v267h962v-267h-327v-901h327v-266h-962zM246 1638v195h614v-195h-614z" />
    <glyph glyph-name="Idotaccent.alt" horiz-adv-x="1126" 
d="M82 0v266h328v901h-328v267h962v-267h-327v-901h327v-266h-962zM399 1741q0 62 48 107.5t116 45.5t116 -45.5t48 -107.5t-48 -108t-116 -46t-116 46t-48 108z" />
    <glyph glyph-name="Idieresis.alt" horiz-adv-x="1126" 
d="M82 0v266h328v901h-328v267h962v-267h-327v-901h327v-266h-962zM614 1751q0 61 41 102t103 41t102.5 -41t40.5 -102t-40.5 -102t-102.5 -41t-103 41t-41 102zM215 1751q0 61 40.5 102t102.5 41t103 -41t41 -102t-41 -102t-103 -41t-102.5 41t-40.5 102z" />
    <glyph glyph-name="Icircumflex.alt" horiz-adv-x="1126" 
d="M82 0v266h328v901h-328v267h962v-267h-327v-901h327v-266h-962zM205 1610l235 305h246l236 -305v-2h-226l-112 153h-41l-113 -153h-225v2z" />
    <glyph glyph-name="Iacute.alt" horiz-adv-x="1126" 
d="M82 0v266h328v901h-328v267h962v-267h-327v-901h327v-266h-962zM451 1608l153 307h307v-2l-245 -305h-215z" />
    <glyph glyph-name="Igrave.alt" horiz-adv-x="1126" 
d="M82 0v266h328v901h-328v267h962v-267h-327v-901h327v-266h-962zM215 1915h307l154 -307h-215l-246 305v2z" />
    <glyph glyph-name="lcommaaccent.alt" horiz-adv-x="512" 
d="M113 0v1434h286v-1434h-286zM102 -328q0 62 41 103t103 41q72 0 118 -56t46 -159q0 -131 -78 -209t-209 -78v113q67 0 100 27t33 75v20q-10 -10 -41 -10q-47 0 -80 36.5t-33 96.5z" />
    <glyph glyph-name="lcaron.alt" horiz-adv-x="696" 
d="M113 0v1434h286v-1434h-286zM481 1317q0 61 41 102t103 41q72 0 117.5 -56t45.5 -159q0 -131 -78 -209t-208 -78v113q67 0 100 27.5t33 75.5v20q-10 -10 -41 -10q-47 0 -80 36.5t-33 96.5z" />
    <glyph glyph-name="lacute.alt" horiz-adv-x="512" 
d="M113 0v1434h286v-1434h-286zM143 1608l154 307h307v-2l-246 -305h-215z" />
    <glyph glyph-name="atilde.alt" 
d="M72 287q0 143 113.5 240.5t306.5 97.5h307v30q0 85 -51.5 135t-143.5 50q-43 0 -79 -12.5t-56.5 -31t-34.5 -36.5t-19 -30l-5 -13h-297q1 7 4.5 20t18 50.5t35 71t60 75t88 71t123 50t162.5 20.5q229 0 355 -112.5t126 -307.5v-655h-286v143h-11q-4 -7 -11.5 -19
t-37.5 -42t-66 -52.5t-98.5 -41.5t-134.5 -19q-173 0 -270.5 88t-97.5 230zM369 324q0 -54 41 -86.5t122 -32.5q121 0 194 68.5t73 177.5h-273q-70 0 -113.5 -37.5t-43.5 -89.5zM256 1260v81q0 85 56.5 140t148.5 55q48 0 91.5 -16t68.5 -35t54 -35t52 -16t37 14t14 37v41
h174v-82q0 -86 -56.5 -140.5t-147.5 -54.5q-48 0 -91.5 16t-69 35.5t-54.5 35.5t-52 16t-37 -14.5t-14 -37.5v-40h-174z" />
    <glyph glyph-name="aring.alt" 
d="M72 287q0 143 113.5 240.5t306.5 97.5h307v30q0 85 -51.5 135t-143.5 50q-43 0 -79 -12.5t-56.5 -31t-34.5 -36.5t-19 -30l-5 -13h-297q1 7 4.5 20t18 50.5t35 71t60 75t88 71t123 50t162.5 20.5q229 0 355 -112.5t126 -307.5v-655h-286v143h-11q-4 -7 -11.5 -19
t-37.5 -42t-66 -52.5t-98.5 -41.5t-134.5 -19q-173 0 -270.5 88t-97.5 230zM369 324q0 -54 41 -86.5t122 -32.5q121 0 194 68.5t73 177.5h-273q-70 0 -113.5 -37.5t-43.5 -89.5zM379 1413q0 100 64 162.5t171 62.5t171.5 -62.5t64.5 -162.5t-64.5 -162.5t-171.5 -62.5
t-171 62.5t-64 162.5zM512 1413q0 -46 28 -74t74 -28t74.5 28t28.5 74t-28.5 74.5t-74.5 28.5t-74 -28.5t-28 -74.5z" />
    <glyph glyph-name="aogonek.alt" 
d="M72 287q0 143 113.5 240.5t306.5 97.5h307v30q0 85 -51.5 135t-143.5 50q-43 0 -79 -12.5t-56.5 -31t-34.5 -36.5t-19 -30l-5 -13h-297q1 7 4.5 20t18 50.5t35 71t60 75t88 71t123 50t162.5 20.5q229 0 355 -112.5t126 -307.5v-655q-10 -5 -25.5 -15t-56 -40.5t-71.5 -61
t-56.5 -73.5t-25.5 -82q0 -34 22.5 -55t63.5 -21q32 0 67 9t53 17l19 9v-148q-7 -5 -20 -11.5t-56 -18t-88 -11.5q-235 0 -235 199q0 53 27.5 104t66.5 85.5t78 61t66 39.5l28 13h-143v143h-11q-4 -7 -11.5 -19t-37.5 -42t-66 -52.5t-98.5 -41.5t-134.5 -19
q-173 0 -270.5 88t-97.5 230zM369 324q0 -54 41 -86.5t122 -32.5q121 0 194 68.5t73 177.5h-273q-70 0 -113.5 -37.5t-43.5 -89.5z" />
    <glyph glyph-name="amacron.alt" 
d="M72 287q0 143 113.5 240.5t306.5 97.5h307v30q0 85 -51.5 135t-143.5 50q-43 0 -79 -12.5t-56.5 -31t-34.5 -36.5t-19 -30l-5 -13h-297q1 7 4.5 20t18 50.5t35 71t60 75t88 71t123 50t162.5 20.5q229 0 355 -112.5t126 -307.5v-655h-286v143h-11q-4 -7 -11.5 -19
t-37.5 -42t-66 -52.5t-98.5 -41.5t-134.5 -19q-173 0 -270.5 88t-97.5 230zM369 324q0 -54 41 -86.5t122 -32.5q121 0 194 68.5t73 177.5h-273q-70 0 -113.5 -37.5t-43.5 -89.5zM297 1280v195h614v-195h-614z" />
    <glyph glyph-name="adieresis.alt" 
d="M72 287q0 143 113.5 240.5t306.5 97.5h307v30q0 85 -51.5 135t-143.5 50q-43 0 -79 -12.5t-56.5 -31t-34.5 -36.5t-19 -30l-5 -13h-297q1 7 4.5 20t18 50.5t35 71t60 75t88 71t123 50t162.5 20.5q229 0 355 -112.5t126 -307.5v-655h-286v143h-11q-4 -7 -11.5 -19
t-37.5 -42t-66 -52.5t-98.5 -41.5t-134.5 -19q-173 0 -270.5 88t-97.5 230zM369 324q0 -54 41 -86.5t122 -32.5q121 0 194 68.5t73 177.5h-273q-70 0 -113.5 -37.5t-43.5 -89.5zM645 1393q0 61 40.5 102t102.5 41t103 -41t41 -102t-41 -102.5t-103 -41.5q-61 0 -102 41
t-41 103zM246 1393q0 61 41 102t102 41t102 -41t41 -102q0 -62 -41 -103t-102 -41t-102 41t-41 103z" />
    <glyph glyph-name="acircumflex.alt" 
d="M72 287q0 143 113.5 240.5t306.5 97.5h307v30q0 85 -51.5 135t-143.5 50q-43 0 -79 -12.5t-56.5 -31t-34.5 -36.5t-19 -30l-5 -13h-297q1 7 4.5 20t18 50.5t35 71t60 75t88 71t123 50t162.5 20.5q229 0 355 -112.5t126 -307.5v-655h-286v143h-11q-4 -7 -11.5 -19
t-37.5 -42t-66 -52.5t-98.5 -41.5t-134.5 -19q-173 0 -270.5 88t-97.5 230zM369 324q0 -54 41 -86.5t122 -32.5q121 0 194 68.5t73 177.5h-273q-70 0 -113.5 -37.5t-43.5 -89.5zM246 1251l235 305h246l236 -305v-2h-226l-112 154h-41l-113 -154h-225v2z" />
    <glyph glyph-name="abreve.alt" 
d="M72 287q0 143 113.5 240.5t306.5 97.5h307v30q0 85 -51.5 135t-143.5 50q-43 0 -79 -12.5t-56.5 -31t-34.5 -36.5t-19 -30l-5 -13h-297q1 7 4.5 20t18 50.5t35 71t60 75t88 71t123 50t162.5 20.5q229 0 355 -112.5t126 -307.5v-655h-286v143h-11q-4 -7 -11.5 -19
t-37.5 -42t-66 -52.5t-98.5 -41.5t-134.5 -19q-173 0 -270.5 88t-97.5 230zM369 324q0 -54 41 -86.5t122 -32.5q121 0 194 68.5t73 177.5h-273q-70 0 -113.5 -37.5t-43.5 -89.5zM276 1526h195q0 -48 33 -75.5t100 -27.5t100 27.5t33 75.5h195q0 -126 -85 -201.5t-243 -75.5
t-243 75.5t-85 201.5z" />
    <glyph glyph-name="aacute.alt" 
d="M72 287q0 143 113.5 240.5t306.5 97.5h307v30q0 85 -51.5 135t-143.5 50q-43 0 -79 -12.5t-56.5 -31t-34.5 -36.5t-19 -30l-5 -13h-297q1 7 4.5 20t18 50.5t35 71t60 75t88 71t123 50t162.5 20.5q229 0 355 -112.5t126 -307.5v-655h-286v143h-11q-4 -7 -11.5 -19
t-37.5 -42t-66 -52.5t-98.5 -41.5t-134.5 -19q-173 0 -270.5 88t-97.5 230zM369 324q0 -54 41 -86.5t122 -32.5q121 0 194 68.5t73 177.5h-273q-70 0 -113.5 -37.5t-43.5 -89.5zM481 1249l154 307h307v-2l-246 -305h-215z" />
    <glyph glyph-name="agrave.alt" 
d="M72 287q0 143 113.5 240.5t306.5 97.5h307v30q0 85 -51.5 135t-143.5 50q-43 0 -79 -12.5t-56.5 -31t-34.5 -36.5t-19 -30l-5 -13h-297q1 7 4.5 20t18 50.5t35 71t60 75t88 71t123 50t162.5 20.5q229 0 355 -112.5t126 -307.5v-655h-286v143h-11q-4 -7 -11.5 -19
t-37.5 -42t-66 -52.5t-98.5 -41.5t-134.5 -19q-173 0 -270.5 88t-97.5 230zM369 324q0 -54 41 -86.5t122 -32.5q121 0 194 68.5t73 177.5h-273q-70 0 -113.5 -37.5t-43.5 -89.5zM266 1556h307l154 -307h-215l-246 305v2z" />
    <glyph glyph-name="afii10110.alt" horiz-adv-x="1126" 
d="M20 1044h297l205 -757h82l225 757h297l-317 -1075q-36 -122 -92 -198.5t-149.5 -118t-229.5 -41.5h-195v246h195q83 0 123 32.5t61 110.5l10 41h-237zM256 1454h195q0 -48 33 -75t100 -27t100 27t33 75h194q0 -126 -84.5 -201t-242.5 -75t-243 75t-85 201z" />
    <glyph glyph-name="lslash.alt" horiz-adv-x="665" 
d="M10 451v245l164 72v666h287v-533l194 92v-245l-194 -93v-655h-287v522z" />
    <glyph glyph-name="g.alt" horiz-adv-x="1208" 
d="M0 -102q0 57 25.5 105t61.5 76.5t72 49t61 27.5l26 8v217q-7 4 -19 11.5t-42 35t-52.5 60t-41.5 86t-19 112.5q0 168 130.5 278.5t360.5 110.5q55 0 103.5 -7.5t69.5 -15.5l22 -8h450v-225h-82l-112 31l-10 -10q6 -7 14.5 -20t22.5 -53t14 -81q0 -163 -134.5 -276
t-357.5 -113q-22 0 -42.5 2.5t-30.5 4.5l-9 3v-112q31 10 82 10q119 0 215.5 -17.5t160 -46.5t106.5 -68.5t62 -83t19 -91.5q0 -60 -31.5 -113.5t-95 -98t-175.5 -70.5t-259 -26q-149 0 -261.5 26t-176.5 70.5t-95.5 98t-31.5 113.5zM358 686q0 -72 54 -118t151 -46t151 46
t54 118t-54 118t-151 46t-151 -46t-54 -118zM297 -102q0 -103 266 -103t266 103q0 45 -63 78.5t-203 33.5t-203 -33.5t-63 -78.5z" />
    <glyph glyph-name="a.alt" 
d="M72 287q0 143 113.5 240.5t306.5 97.5h307v30q0 85 -51.5 135t-143.5 50q-43 0 -79 -12.5t-56.5 -31t-34.5 -36.5t-19 -30l-5 -13h-297q1 7 4.5 20t18 50.5t35 71t60 75t88 71t123 50t162.5 20.5q229 0 355 -112.5t126 -307.5v-655h-286v143h-11q-4 -7 -11.5 -19
t-37.5 -42t-66 -52.5t-98.5 -41.5t-134.5 -19q-173 0 -270.5 88t-97.5 230zM369 324q0 -54 41 -86.5t122 -32.5q121 0 194 68.5t73 177.5h-273q-70 0 -113.5 -37.5t-43.5 -89.5z" />
    <glyph glyph-name="at.case" horiz-adv-x="1658" 
d="M72 717q0 223 102.5 403t284.5 282.5t407 102.5q165 0 307 -53t235.5 -140.5t146.5 -199.5t53 -231q0 -222 -133 -357t-349 -135h-163v103h-11q-2 -5 -5.5 -12.5t-18 -27t-33.5 -34.5t-53 -27t-74 -12q-120 0 -203.5 96t-83.5 252t83.5 252t203.5 96q40 0 73.5 -11.5
t53 -28t33.5 -33t19 -28.5l5 -11h11v92h225v-471q90 0 147.5 75t57.5 222q0 81 -36.5 158t-102 137.5t-167 97.5t-221.5 37q-251 0 -415 -167t-164 -427q0 -261 161 -422.5t422 -161.5q96 0 190.5 23.5t141.5 47.5l47 23v-196q-18 -10 -51.5 -25.5t-132.5 -41t-195 -25.5
q-170 0 -318.5 60t-253.5 163.5t-165.5 247.5t-60.5 307zM717 727q0 -68 34 -105.5t89 -37.5t89 37.5t34 105.5t-34 105.5t-89 37.5t-89 -37.5t-34 -105.5z" />
    <glyph glyph-name="nine.taboldstyle" 
d="M31 563q0 137 71.5 254.5t199 187.5t282.5 70q116 0 221 -43t179.5 -114.5t118.5 -167t44 -197.5q0 -78 -15.5 -146.5t-52 -138.5t-74.5 -125.5t-104 -142.5l-297 -389h-328l318 409l113 70v12q-8 -5 -23 -11.5t-63.5 -18t-98.5 -11.5q-135 0 -248.5 67.5t-178 183
t-64.5 251.5zM317 563q0 -115 75.5 -190.5t191.5 -75.5t191 75.5t75 190.5t-75 190.5t-191 75.5t-191.5 -75.5t-75.5 -190.5z" />
    <glyph glyph-name="eight.taboldstyle" 
d="M20 389q0 61 16.5 114t42.5 89.5t57.5 66.5t63.5 47.5t58 30t42 17.5l17 4v10q-10 3 -25.5 10t-56 34t-71.5 60.5t-56.5 92t-25.5 125.5q0 72 33.5 138.5t96.5 119.5t162 84.5t220 31.5t220 -31.5t162 -84.5t96.5 -119.5t33.5 -138.5q0 -67 -24.5 -125t-59 -92.5
t-69 -59.5t-59.5 -35l-24 -10v-10q6 -2 17 -5t41.5 -16.5t58.5 -30.5t62.5 -47.5t59 -66.5t41.5 -89t17 -114q0 -82 -38.5 -156.5t-109 -134t-181 -94.5t-244.5 -35t-244.5 35t-181.5 94.5t-109.5 134t-38.5 156.5zM389 1044q0 -73 54 -118t151 -45t151 45t54 118
q0 72 -54 118t-151 46t-151 -46t-54 -118zM317 430q0 -89 72 -147t205 -58t204.5 58t71.5 147t-71.5 147t-204.5 58t-205 -58t-72 -147z" />
    <glyph glyph-name="seven.taboldstyle" 
d="M82 594v450h1044v-241l-553 -1192h-307l553 1167v21h-450v-205h-287z" />
    <glyph glyph-name="six.taboldstyle" 
d="M41 492q0 78 15.5 146.5t52 138t74.5 125t104 142.5l297 390h327l-317 -410l-113 -70v-12q8 5 23 11.5t63.5 18t98.5 11.5q135 0 248.5 -67.5t178 -183t64.5 -251.5q0 -137 -71.5 -254.5t-199 -187.5t-282.5 -70q-116 0 -221 43t-179.5 114.5t-118.5 167.5t-44 198z
M338 481q0 -115 75 -190.5t191 -75.5t191 75.5t75 190.5q0 116 -75.5 191.5t-190.5 75.5t-190.5 -75.5t-75.5 -191.5z" />
    <glyph glyph-name="five.taboldstyle" 
d="M82 31h287q0 -8 2 -21t16 -46.5t36.5 -59.5t70 -47t110.5 -21q107 0 176.5 69.5t69.5 176.5t-69.5 176.5t-176.5 69.5q-46 0 -85 -12.5t-62 -31t-39.5 -36.5t-22.5 -30l-6 -13h-252l51 839h863v-245h-611l-30 -328h10q3 3 10 8.5t31 20t52 25t74.5 19.5t98.5 9
q186 0 318.5 -136.5t132.5 -334.5q0 -225 -144.5 -363.5t-388.5 -138.5q-81 0 -150 15.5t-118.5 41.5t-90 60t-66 71.5t-45 74.5t-29 71t-15.5 60t-7 42z" />
    <glyph glyph-name="four.taboldstyle" 
d="M51 0v246l461 798h317l-460 -798h317v317h287v-317h205v-246h-205v-389h-287v389h-635z" />
    <glyph glyph-name="three.taboldstyle" 
d="M51 20h287q1 -8 4.5 -21t19.5 -46.5t39.5 -59t69 -46.5t102.5 -21q113 0 174.5 55.5t61.5 149.5q0 90 -63 142t-183 52h-194v246h194q97 0 156 52.5t59 131.5q0 78 -57 131.5t-148 53.5q-49 0 -89 -15t-62.5 -36t-37.5 -42t-20 -36l-6 -15h-276q2 8 5 21.5t19 53t37 75.5
t60.5 79.5t88 75t122 53t159.5 21.5q224 0 358 -111.5t134 -277.5q0 -54 -12.5 -100.5t-32.5 -77t-44 -55t-47.5 -38t-43.5 -22t-33 -11.5l-12 -3v-10q6 -1 15.5 -3t37 -12.5t52.5 -25t56 -42.5t53 -62.5t37 -87.5t15 -116q0 -190 -143 -315t-388 -125q-79 0 -148 15
t-118 40.5t-89.5 58.5t-66.5 69.5t-46 73t-30 69.5t-16.5 58.5t-8.5 40.5z" />
    <glyph glyph-name="two.taboldstyle" 
d="M102 696q1 8 4.5 21.5t18 53t35.5 75.5t60 79.5t88 75t123.5 53t162.5 21.5q216 0 338.5 -104t122.5 -264q0 -265 -307 -400l-93 -41l-102 -30v-11l143 21h400v-246h-973v215l409 225q129 71 182.5 127.5t53.5 118.5q0 64 -51 109t-133 45q-47 0 -84.5 -15t-57 -36
t-32.5 -42t-17 -36l-4 -15h-287z" />
    <glyph glyph-name="one.taboldstyle" 
d="M174 0v246h328v502l-226 -175v297l256 174h246v-798h297v-246h-901z" />
    <glyph glyph-name="zero.taboldstyle" 
d="M31 522q0 239 159 396t404 157t404 -157t159 -396t-159 -396t-404 -157t-404 157t-159 396zM317 522q0 -143 79.5 -230t197.5 -87t197 87t79 230t-79 230.5t-197 87.5t-197.5 -87.5t-79.5 -230.5z" />
    <glyph glyph-name="K_K" horiz-adv-x="1966" 
d="M1126 748l471 686h349l-471 -686l501 -748h-348zM133 0v1434h307v-564h205l389 564h348l-471 -686l502 -748h-358l-400 584h-215v-584h-307z" />
    <glyph glyph-name="L_L" horiz-adv-x="1372" 
d="M614 430v1004h267v-748h471v-256h-738zM133 0v1434h307v-1147h707v-287h-1014z" />
    <glyph glyph-name="T_E" horiz-adv-x="1515" 
d="M20 1147v287h1229v-287h-461v-164h656v-246h-656v-133h502v-225h-502v-133h656v-246h-963v1147h-461z" />
    <glyph glyph-name="R_J" horiz-adv-x="2058" 
d="M133 0v1434h676q127 0 234 -38t178.5 -103.5t111 -153t39.5 -187.5q0 -151 -86 -261t-221 -171l72 -141q75 -154 256 -154q109 0 172 67t63 189v953h307v-953q0 -253 -144.5 -397.5t-397.5 -144.5q-105 0 -192.5 28.5t-155.5 82.5t-119.5 121.5t-96.5 156.5l-71 143h-318
v-471h-307zM440 758h359q126 0 191 53t65 141t-65 141.5t-191 53.5h-359v-389z" />
    <glyph glyph-name="T_T" horiz-adv-x="1781" 
d="M20 1147v287h1229v-287h-461v-1147h-307v1147h-461zM881 707v256h850v-256h-287v-707h-277v707h-286z" />
    <glyph glyph-name="U_U" horiz-adv-x="1699" 
d="M123 614v820h307v-820q0 -157 116 -262.5t304 -105.5t304 105.5t116 262.5v820h307v-820q0 -146 -49 -266.5t-141 -207t-229.5 -134t-307.5 -47.5t-307.5 47.5t-229.5 134t-141 207t-49 266.5zM532 676v461h236v-461q0 -103 82 -103t82 103v461h235v-461
q0 -153 -85 -240.5t-232 -87.5t-232.5 87.5t-85.5 240.5z" />
    <glyph glyph-name="P_H" horiz-adv-x="2447" 
d="M133 0v1434h666q128 0 236 -39.5t181.5 -107.5t114.5 -160t41 -195v-62h635v564h307v-1434h-307v584h-635v-584h-307v481q-121 -51 -266 -51h-359v-430h-307zM440 717h348q127 0 197 60t70 155t-70 155t-197 60h-348v-430z" />
    <glyph glyph-name="E_A" horiz-adv-x="2416" 
d="M133 0v1434h952v-287h-645v-287h752l158 574h665l391 -1434h-327l-131 492h-531l-131 -492h-1153zM1495 778h377l-98 369h-181zM440 287h596l84 307h-680v-307z" />
    <glyph glyph-name="C_O" horiz-adv-x="1658" 
d="M72 717q0 159 59 299.5t162 241t250 159t317 58.5q99 0 186.5 -18.5t153 -50t121.5 -72t95 -85.5t70 -90.5t49.5 -86t30.5 -72t16 -50.5l5 -18h-317q-2 5 -5.5 14.5t-18.5 36t-34 50.5t-53 53.5t-74 51t-99 36t-126 14.5q-200 0 -330.5 -132.5t-130.5 -338.5
q0 -214 130 -347.5t331 -133.5q67 0 126.5 16.5t100.5 42.5t75.5 57.5t55.5 63t35.5 57.5t20.5 43l6 16h317q-3 -12 -9 -32.5t-31.5 -80t-59 -114t-94 -120.5t-133 -113.5t-180 -80t-230.5 -32.5q-170 0 -317 58.5t-250 159t-162 241t-59 299.5zM512 717q0 146 101 247
t247 101t247 -101t101 -247q0 -147 -97.5 -242.5t-250.5 -95.5t-250.5 95.5t-97.5 242.5zM727 717q0 -61 39 -102.5t94 -41.5t94 41.5t39 102.5t-39 102t-94 41t-94 -41t-39 -102z" />
    <glyph glyph-name="K_O" horiz-adv-x="2396" 
d="M133 0v1434h307v-564h205l389 564h348l-471 -686l502 -748h-358l-400 584h-215v-584h-307zM1208 737q0 152 74.5 278.5t206.5 200.5t293 74q121 0 227.5 -43.5t182 -117.5t119.5 -176t44 -216t-44 -216t-119.5 -176t-182 -117.5t-227.5 -43.5q-161 0 -293 74
t-206.5 200.5t-74.5 278.5zM1516 737q0 -129 74.5 -207.5t191.5 -78.5t191.5 78.5t74.5 207.5t-74.5 208t-191.5 79t-191.5 -79t-74.5 -208z" />
    <glyph glyph-name="W_E" horiz-adv-x="2600" 
d="M41 1434h317l215 -1117h21l215 1117h410l215 -1117h20l215 1117h850v-287h-592l-59 -287h497v-266h-553l-63 -307h770v-287h-1280l-215 1065h-20l-216 -1065h-450z" />
    <glyph glyph-name="A_T" horiz-adv-x="1679" 
d="M20 0l304 1147h-160v287h1352v-287h-160l303 -1147h-318l-81 317h-267v-317h-307v317h-266l-82 -317h-318zM993 604h195l-144 543h-51v-543zM492 604h194v543h-51z" />
    <glyph glyph-name="S_A" horiz-adv-x="2682" 
d="M0 451h317q1 -4 3.5 -12t13.5 -30.5t25 -42.5t41 -45t59 -43t81 -30t105 -12q138 0 202 44.5t64 118.5q0 42 -22.5 74t-60.5 53.5t-87 39t-103.5 36t-108.5 40t-103 55t-87 77t-60.5 110t-22.5 150.5q0 89 38 168.5t107.5 140.5t175 96.5t232.5 35.5q109 0 200 -24.5
t150.5 -63t106 -85.5t71.5 -94.5t41 -86t20 -63.5l5 -24h-318q-1 7 -4.5 18t-22 39t-45.5 50t-81 39.5t-123 17.5q-116 0 -176 -44t-60 -110q0 -42 22.5 -74t60.5 -53.5t87 -39t103.5 -36t109 -40t103.5 -54.5t87 -76.5t60.5 -110t22.5 -150.5q0 -91 -38 -172t-109.5 -143.5
t-184.5 -99t-252 -36.5q-90 0 -170 17t-138.5 45.5t-108.5 65t-83.5 77.5t-60.5 82t-42 77.5t-25 65t-13 45.5zM1270 0l379 1434h645l379 -1434h-318l-82 317h-604l-82 -317h-317zM1741 604h461l-144 543h-174z" />
    <glyph glyph-name="L_F" horiz-adv-x="1341" 
d="M614 410v1024h676v-236h-420v-184h349v-226h-349v-378h-256zM133 0v1434h307v-1147h707v-287h-1014z" />
    <glyph glyph-name="L_I" horiz-adv-x="1280" 
d="M840 440v994h307v-994h-307zM133 0v1434h307v-1147h707v-287h-1014z" />
    <glyph glyph-name="L_A" horiz-adv-x="1986" 
d="M133 0v1434h307v-1147h209l303 1147h645l379 -1434h-317l-113 430h-545l-36 -143h151v-287h-983zM1075 717h398l-111 430h-174z" />
    <glyph glyph-name="L_O" horiz-adv-x="1689" 
d="M584 942q0 146 70.5 268.5t193 193.5t268.5 71t268.5 -71t193.5 -193.5t71 -268.5t-71 -268.5t-193.5 -193t-268.5 -70.5t-268.5 70.5t-193 193t-70.5 268.5zM133 0v1434h307v-1147h707v-287h-1014zM860 942q0 -121 73.5 -198.5t182.5 -77.5t182.5 77.5t73.5 198.5
t-73.5 199t-182.5 78t-182.5 -78t-73.5 -199z" />
    <glyph glyph-name="C_E" horiz-adv-x="1658" 
d="M72 717q0 159 59 299.5t162 241t250 159t317 58.5q99 0 186.5 -18.5t153 -50t121.5 -72t95 -85.5t70 -90.5t49.5 -86t30.5 -72t16 -50.5l5 -18h-317q-2 5 -5.5 14.5t-18.5 36t-34 50.5t-53 53.5t-74 51t-99 36t-126 14.5q-200 0 -330.5 -132.5t-130.5 -338.5
q0 -214 126.5 -342.5t334.5 -128.5q69 0 129.5 16t102 41t75.5 55.5t54.5 61t34 55.5t18.5 41l6 16h317q-3 -12 -9 -32.5t-31.5 -80t-59 -114t-94 -120.5t-133 -113.5t-180 -80t-230.5 -32.5q-170 0 -317 58.5t-250 159t-162 241t-59 299.5zM604 379v686h512v-184h-317v-82
h245v-154h-245v-82h317v-184h-512z" />
    <glyph glyph-name="A_V" horiz-adv-x="2129" 
d="M10 0l379 1434h655l287 -1147h174l287 1147h317l-368 -1434h-645l-82 317h-604l-82 -317h-318zM481 604h461l-143 543h-174z" />
    <glyph glyph-name="ampersand.alt2" horiz-adv-x="1812" 
d="M82 582q0 152 71.5 277t196 196t275.5 71q81 0 150.5 -17t119.5 -46t91.5 -66.5t68 -79.5t47 -83.5t31 -79t17 -66.5t8.5 -46l1 -17l-774 -158q8 -28 25 -58.5t51.5 -66t81 -63t118.5 -46t158 -18.5q89 0 165.5 22t131.5 59.5t100 86t74 102t51 106.5t33.5 101.5t18.5 86
t9 59.5l1 22h389v-235h-162q-2 -14 -8 -37.5t-31.5 -91.5t-60 -130t-100 -138t-146 -130t-202 -91.5t-263.5 -37.5q-169 0 -309 48.5t-233 132t-144 195t-51 237.5zM379 655l461 93q-2 5 -5.5 14t-20 32t-38.5 40.5t-62 32t-89 14.5q-68 0 -118 -23.5t-73.5 -56.5t-37 -66
t-15.5 -57z" />
    <glyph glyph-name="O_G" horiz-adv-x="2549" 
d="M72 717q0 155 60 295t164 242t251 161.5t313 59.5q207 0 385 -93q178 93 393 93q99 0 186.5 -18t153 -49t121.5 -71t95 -84.5t70 -88.5t49.5 -84t30.5 -71t16 -49l5 -18h-317q-2 5 -5.5 14t-18.5 34.5t-34 48.5t-53 51.5t-74 49t-99 34.5t-126 14q-73 0 -141 -19
q152 -201 152 -452q0 -254 -152 -455q69 -16 141 -16q69 0 129.5 15t102 39.5t75.5 54t54.5 59t34 54t18.5 39.5l6 15h-225v256h707v-256h-164q-3 -12 -9 -32t-32 -78.5t-59 -112t-94 -118.5t-133.5 -111.5t-180 -78.5t-230.5 -32q-217 0 -393 92q-176 -92 -385 -92
q-166 0 -313 59.5t-251 161.5t-164 242t-60 295zM399 717q0 -206 130.5 -338.5t330.5 -132.5q72 0 133 18q-143 194 -143 453q0 258 143 452q-78 19 -133 19q-200 0 -330.5 -132.5t-130.5 -338.5zM1178 717q0 -153 67 -268q76 120 76 268q0 149 -74 266q-69 -113 -69 -266z
" />
    <glyph glyph-name="O_O" horiz-adv-x="2498" 
d="M72 717q0 155 60 295t164 242t251 161.5t313 59.5q204 0 389 -95q182 95 389 95q166 0 313 -59.5t251 -161.5t164.5 -242t60.5 -295t-60.5 -295t-164.5 -242t-251 -161.5t-313 -59.5q-209 0 -389 94q-183 -94 -389 -94q-166 0 -313 59.5t-251 161.5t-164 242t-60 295z
M1499 264q64 -18 139 -18q200 0 330.5 132.5t130.5 338.5t-130.5 338.5t-330.5 132.5q-64 0 -139 -21q150 -199 150 -450q0 -250 -150 -453zM399 717q0 -206 130.5 -338.5t330.5 -132.5q74 0 139 18q-149 197 -149 453t149 450q-75 21 -139 21q-200 0 -330.5 -132.5
t-130.5 -338.5zM1178 717q0 -147 71 -264q72 118 72 264q0 144 -72 262q-71 -117 -71 -262z" />
    <glyph glyph-name="O_C" horiz-adv-x="2437" 
d="M72 717q0 155 60 295t164 242t251 161.5t313 59.5q207 0 385 -93q178 93 393 93q99 0 186.5 -18.5t153 -50t121.5 -72t95 -85.5t70 -90.5t49.5 -86t30.5 -72t16 -50.5l5 -18h-317q-2 5 -5.5 14.5t-18.5 36t-34 50.5t-53 53.5t-74 51t-99 36t-126 14.5q-64 0 -139 -21
q150 -199 150 -450q0 -254 -152 -455q69 -16 141 -16q69 0 129.5 16t102 41t75.5 55.5t54.5 61t34 55.5t18.5 41l6 16h318q-3 -12 -9 -32.5t-32 -80t-59 -114t-94 -120.5t-133.5 -113.5t-180 -80t-230.5 -32.5q-217 0 -393 92q-176 -92 -385 -92q-166 0 -313 59.5
t-251 161.5t-164 242t-60 295zM399 717q0 -206 130.5 -338.5t330.5 -132.5q72 0 133 18q-143 194 -143 453q0 258 143 452q-78 19 -133 19q-200 0 -330.5 -132.5t-130.5 -338.5zM1178 717q0 -153 67 -268q76 120 76 268q0 144 -72 262q-71 -117 -71 -262z" />
    <glyph glyph-name="T_H_E" horiz-adv-x="2560" 
d="M20 1147v287h1188v-287h-440v-287h635v574h1075v-287h-768v-287h614v-266h-614v-307h768v-287h-1075v594h-635v-594h-307v1147h-441z" />
    <glyph glyph-name="nine.dnom" horiz-adv-x="706" 
d="M41 461q0 111 82.5 183.5t224.5 72.5t224.5 -72.5t82.5 -183.5q0 -127 -112 -266l-154 -195h-225l164 205l61 41v10q-52 -31 -113 -31q-100 0 -167.5 68t-67.5 168zM246 461q0 -34 26 -58t76 -24q51 0 77 24t26 58t-26 58t-77 24q-50 0 -76 -24t-26 -58z" />
    <glyph glyph-name="eight.dnom" horiz-adv-x="778" 
d="M61 184q0 40 16 72.5t38.5 50.5t45 30.5t38.5 16.5l16 4v11q-5 1 -13.5 4t-29.5 14.5t-37 27t-29.5 44.5t-13.5 63q0 83 76 139t221 56t221 -56t76 -139q0 -34 -12.5 -62.5t-31 -44.5t-36.5 -27t-30 -15l-13 -4v-11q6 -1 16.5 -4t37 -16t47 -30.5t37 -50.5t16.5 -73
q0 -84 -84.5 -144t-243.5 -60t-243.5 60t-84.5 144zM297 481q0 -25 24.5 -43t67.5 -18t67.5 18t24.5 43t-24.5 43.5t-67.5 18.5t-67.5 -18.5t-24.5 -43.5zM276 215q0 -72 113 -72t113 72t-113 72t-113 -72z" />
    <glyph glyph-name="seven.dnom" horiz-adv-x="634" 
d="M41 512v184h573v-184l-286 -512h-215l276 500v12h-348z" />
    <glyph glyph-name="six.dnom" horiz-adv-x="706" 
d="M51 236q0 126 113 266l153 194h226l-164 -204l-62 -41v-11q52 31 113 31q100 0 168 -67.5t68 -167.5q0 -111 -83 -183.5t-225 -72.5t-224.5 72.5t-82.5 183.5zM256 236q0 -34 26 -58t76 -24q51 0 77 24t26 58t-26 57.5t-77 23.5t-76.5 -23.5t-25.5 -57.5z" />
    <glyph glyph-name="five.dnom" horiz-adv-x="727" 
d="M72 205h204q1 -2 3 -5.5t10 -12.5t18.5 -15.5t29.5 -12t42 -5.5q39 0 65.5 22.5t26.5 59.5t-26 59t-66 22q-27 0 -53 -10.5t-38 -20.5l-12 -10l-174 31l31 389h481v-164h-307l-10 -112h10q5 5 14 11.5t41 18t68 11.5q121 0 188.5 -63.5t67.5 -172.5q0 -103 -81.5 -174
t-215.5 -71q-59 0 -108 12.5t-80.5 32.5t-56.5 44t-38 47.5t-21 43.5t-11 32z" />
    <glyph glyph-name="four.dnom" horiz-adv-x="686" 
d="M20 123v174l256 399h226l-256 -389h133l31 113h163v-113h93v-184h-93v-123h-204v123h-349z" />
    <glyph glyph-name="three.dnom" horiz-adv-x="716" 
d="M51 215h205q0 -2 1.5 -6.5t8 -15t16.5 -18.5t30 -14.5t46 -6.5q44 0 68.5 19.5t24.5 51.5t-25 52t-68 20h-153v123l184 112v11l-82 -11h-215v164h533v-153l-123 -92l-72 -31v-10h41q82 0 138.5 -58.5t56.5 -136.5q0 -103 -77.5 -169t-215.5 -66q-57 0 -106 13t-81 33.5
t-57.5 45.5t-39.5 50.5t-23 46t-12 33.5z" />
    <glyph glyph-name="two.dnom" horiz-adv-x="737" 
d="M61 0v182l175 94q133 72 174 108.5t41 76.5q0 33 -24 52t-69 19q-26 0 -46 -8.5t-30 -20t-16.5 -23.5t-7.5 -20l-2 -9h-195q1 6 2.5 15.5t10.5 37t21.5 52.5t37.5 56t56 53t79.5 37t106.5 15q141 0 221 -67t80 -169q0 -83 -55 -143t-181 -123l-20 -10l-82 -31v-10l92 20
h246v-184h-615z" />
    <glyph glyph-name="one.dnom" horiz-adv-x="716" 
d="M92 0v184h195v308l-174 -103v205l184 102h195v-512h184v-184h-584z" />
    <glyph glyph-name="zero.dnom" horiz-adv-x="778" 
d="M51 348q0 159 99 264t239 105t239 -105t99 -264t-99 -263.5t-239 -104.5t-239 104.5t-99 263.5zM266 348q0 -87 36.5 -135.5t86.5 -48.5t86.5 48.5t36.5 135.5t-36.5 135.5t-86.5 48.5t-86.5 -48.5t-36.5 -135.5z" />
    <glyph glyph-name="nine.numr" horiz-adv-x="706" 
d="M41 1198q0 111 82.5 183.5t224.5 72.5t224.5 -72.5t82.5 -183.5q0 -127 -112 -266l-154 -195h-225l164 205l61 41v10q-52 -30 -113 -30q-100 0 -167.5 67.5t-67.5 167.5zM246 1198q0 -34 26 -58t76 -24q51 0 77 24t26 58t-26 58t-77 24q-50 0 -76 -24t-26 -58z" />
    <glyph glyph-name="eight.numr" horiz-adv-x="778" 
d="M61 922q0 40 16 72.5t38.5 50.5t45 30.5t38.5 16.5l16 4v10q-5 1 -13.5 4t-29.5 15t-37 27.5t-29.5 44.5t-13.5 63q0 83 76 138.5t221 55.5t221 -55.5t76 -138.5q0 -34 -12.5 -63t-31 -45t-36.5 -27t-30 -15l-13 -4v-10q6 -1 16.5 -4t37 -16t47 -30.5t37 -50.5t16.5 -73
q0 -84 -85 -144.5t-243 -60.5t-243 60.5t-85 144.5zM297 1219q0 -25 24.5 -43.5t67.5 -18.5t67.5 18.5t24.5 43.5t-24.5 43t-67.5 18t-67.5 -18t-24.5 -43zM276 952q0 -71 113 -71t113 71q0 72 -113 72t-113 -72z" />
    <glyph glyph-name="seven.numr" horiz-adv-x="634" 
d="M41 1249v185h573v-185l-286 -512h-215l276 500v12h-348z" />
    <glyph glyph-name="six.numr" horiz-adv-x="706" 
d="M51 973q0 126 113 266l153 195h226l-164 -205l-62 -41v-10q52 30 113 30q100 0 168 -67.5t68 -167.5q0 -111 -83 -183.5t-225 -72.5t-224.5 72.5t-82.5 183.5zM256 973q0 -34 26 -58t76 -24q51 0 77 24t26 58t-26 58t-77 24q-50 0 -76 -24t-26 -58z" />
    <glyph glyph-name="five.numr" horiz-adv-x="727" 
d="M72 942h204q1 -2 3 -5.5t10 -12.5t18.5 -15.5t29.5 -12t42 -5.5q39 0 65.5 22.5t26.5 59.5t-26.5 59.5t-65.5 22.5q-27 0 -53 -10.5t-38 -20.5l-12 -10l-174 30l31 390h481v-164h-307l-10 -113h10q5 5 14 11.5t41 18t68 11.5q122 0 189 -63t67 -172q0 -103 -81.5 -174.5
t-215.5 -71.5q-59 0 -108 12.5t-80.5 32.5t-56.5 44t-38 47.5t-21 43.5t-11 33z" />
    <glyph glyph-name="four.numr" horiz-adv-x="686" 
d="M20 860v174l256 400h226l-256 -390h133l31 113h163v-113h93v-184h-93v-123h-204v123h-349z" />
    <glyph glyph-name="three.numr" horiz-adv-x="716" 
d="M51 952h205q0 -2 1.5 -6.5t8 -15t16.5 -18.5t30 -14.5t46 -6.5q44 0 68.5 20t24.5 52q0 31 -25 51t-68 20h-153v123l184 113v10l-82 -10h-215v164h533v-154l-123 -92l-72 -31v-10h41q82 0 138.5 -58.5t56.5 -136.5q0 -103 -77.5 -169t-215.5 -66q-57 0 -106 13t-81 33.5
t-57.5 45.5t-39.5 50.5t-23 46t-12 33.5z" />
    <glyph glyph-name="two.numr" horiz-adv-x="737" 
d="M61 737v183l175 94q134 73 174.5 108.5t40.5 75.5q0 33 -24 52.5t-69 19.5q-26 0 -46 -8.5t-30 -20.5t-16.5 -24t-7.5 -21l-2 -8h-195q1 6 2.5 15.5t10.5 37t21.5 52.5t37.5 56t56 53t79.5 37t106.5 15q142 0 221.5 -66.5t79.5 -168.5q0 -83 -55 -143.5t-181 -123.5
l-20 -10l-82 -31v-10l92 21h246v-185h-615z" />
    <glyph glyph-name="one.numr" horiz-adv-x="716" 
d="M92 737v185h195v307l-174 -103v205l184 103h195v-512h184v-185h-584z" />
    <glyph glyph-name="zero.numr" horiz-adv-x="778" 
d="M51 1085q0 159 99 264t239 105t239 -105t99 -264t-99 -263.5t-239 -104.5t-239 104.5t-99 263.5zM266 1085q0 -87 36.5 -135.5t86.5 -48.5t86.5 48.5t36.5 135.5t-36.5 136t-86.5 49t-86.5 -49t-36.5 -136z" />
    <glyph glyph-name="nine.tab" horiz-adv-x="1310" 
d="M61 952q0 107 43 202.5t119.5 166.5t188.5 112.5t243 41.5q175 0 311.5 -71t209.5 -191t73 -265q0 -72 -19.5 -144.5t-58 -143t-76 -126t-91.5 -124.5l-318 -410h-348l317 410l93 71v11q-7 -5 -20.5 -11.5t-61 -18t-103.5 -11.5q-135 0 -250 65.5t-183.5 181.5t-68.5 254
zM389 952q0 -102 72.5 -168.5t193.5 -66.5t194 66.5t73 168.5t-73 169t-194 67t-193.5 -67t-72.5 -169z" />
    <glyph glyph-name="eight.tab" horiz-adv-x="1310" 
d="M41 401q0 61 16.5 113t42.5 86.5t57.5 62.5t63.5 43.5t58 26t43 13.5l16 4v20q-5 1 -13.5 4.5t-33 15.5t-47 26.5t-49.5 40.5t-46.5 56t-33 73t-13.5 91q0 78 37 149t104.5 127.5t174.5 90t237 33.5t237 -33.5t174.5 -90t104.5 -127.5t37 -149q0 -48 -13 -91t-33.5 -73
t-46 -55.5t-50.5 -41t-45.5 -26.5t-33.5 -16l-13 -4v-20q6 -1 17 -3.5t41.5 -14t58.5 -26.5t62.5 -43t59 -62.5t41.5 -86.5t17 -113q0 -85 -41 -163.5t-116.5 -140.5t-194 -99t-263.5 -37t-263.5 37t-194 99t-116 140t-40.5 164zM430 1036q0 -66 57.5 -109.5t167.5 -43.5
t168 43.5t58 109.5t-58 110t-168 44t-167.5 -44t-57.5 -110zM369 432q0 -82 70 -133t216 -51t216.5 51t70.5 133t-70.5 133t-216.5 51t-216 -51t-70 -133z" />
    <glyph glyph-name="afii10029.alt" horiz-adv-x="1546" 
d="M0 10v277q41 -21 92 -21q53 0 90 19t66.5 66.5t44 136t14.5 219.5v727h1106v-1434h-307v1147h-492v-440q0 -199 -32.5 -342t-94.5 -226t-144 -121t-189 -38q-41 0 -79.5 7.5t-56.5 14.5z" />
    <glyph glyph-name="afii10077.alt" horiz-adv-x="1249" 
d="M10 10v246q31 -20 82 -20q72 0 102.5 42.5t30.5 161.5v604h922v-1044h-287v799h-348v-377q0 -217 -94.5 -329.5t-253.5 -112.5q-45 0 -83.5 7.5t-54.5 14.5z" />
    <glyph glyph-name="afii10028.alt" horiz-adv-x="1443" 
d="M133 0v1434h307v-564h328q68 0 105.5 36t37.5 98v122q0 148 96 238t263 90h102v-266h-61q-92 0 -92 -92v-133q0 -52 -17 -93t-41 -62.5t-48 -36t-41 -19.5l-17 -4v-21q7 -2 19.5 -6t44.5 -22t56 -42.5t44 -71.5t20 -104v-143q0 -92 92 -92h62v-266h-103
q-175 0 -266.5 85.5t-91.5 241.5v144q0 62 -38 97.5t-106 35.5h-348v-584h-307z" />
    <glyph glyph-name="afii10076.alt" horiz-adv-x="1157" 
d="M113 0v1044h286v-389h215q93 0 93 93v102q0 215 272 215h117v-246h-41q-38 0 -55 -16.5t-17 -54.5v-62q0 -34 -12.5 -61.5t-30.5 -42t-36.5 -24t-31.5 -12.5l-12 -3v-21q6 -1 15.5 -3t34.5 -13t44 -26.5t34.5 -46t15.5 -68.5v-68q0 -38 16.5 -55t54.5 -17h41v-245h-123
q-128 0 -197 61.5t-69 163.5v112q0 93 -92 93h-236v-410h-286z" />
    <glyph glyph-name="afii10024.alt" horiz-adv-x="2109" 
d="M51 -20v266h62q92 0 92 92v143q0 57 19 103.5t46 72t54 42.5t46 23l19 5v21q-7 1 -18 4.5t-39 18.5t-50 36.5t-39.5 62.5t-17.5 93v133q0 92 -92 92h-61v266h102q167 0 262.5 -90t95.5 -238v-122q0 -62 38 -98t106 -36h225v564h307v-564h226q68 0 105.5 36t37.5 98v122
q0 148 95.5 238t262.5 90h103v-266h-62q-92 0 -92 -92v-133q0 -52 -17 -93t-41 -62.5t-48 -36t-41 -19.5l-17 -4v-21q8 -2 20 -6t44 -22t56.5 -42.5t44.5 -71.5t20 -104v-143q0 -92 92 -92h61v-266h-102q-175 0 -267 85.5t-92 241.5v144q0 62 -37.5 97.5t-105.5 35.5h-246
v-584h-307v584h-246q-68 0 -105.5 -35.5t-37.5 -97.5v-144q0 -156 -91.5 -241.5t-266.5 -85.5h-103z" />
    <glyph glyph-name="afii10072.alt" horiz-adv-x="1720" 
d="M41 -20v245h41q38 0 55 17t17 55v68q0 38 14.5 68.5t35.5 46.5t42.5 26t35.5 13l15 3v21q-5 1 -13.5 3t-29.5 12t-37 24.5t-29.5 42t-13.5 61.5v62q0 38 -17 54.5t-55 16.5h-41v246h117q139 0 206 -56t67 -159v-102q0 -93 92 -93h174v389h287v-389h174q92 0 92 93v102
q0 215 272 215h117v-246h-41q-38 0 -55 -16.5t-17 -54.5v-62q0 -34 -12.5 -61.5t-31 -42t-36.5 -24t-30 -12.5l-13 -3v-21q6 -1 15.5 -3t34.5 -13t44 -26.5t34.5 -46t15.5 -68.5v-68q0 -38 16.5 -55t54.5 -17h41v-245h-123q-128 0 -197 61.5t-69 163.5v112q0 93 -92 93h-194
v-410h-287v410h-195q-92 0 -92 -93v-112q0 -102 -69 -163.5t-197 -61.5h-123z" />
    <glyph glyph-name="afii10021.alt" horiz-adv-x="1617" 
d="M0 -256v543h133q23 9 46.5 34t49 73t42 134.5t16.5 198.5v707h1095v-1147h195v-543h-297v256h-983v-256h-297zM461 287h614v860h-481v-420q0 -95 -13.5 -175t-33 -126.5t-39.5 -80t-34 -45.5z" />
    <glyph glyph-name="afii10069.alt" horiz-adv-x="1269" 
d="M0 -215v461h102q4 2 10 6t22 22.5t28.5 44t22.5 74.5t10 109v542h901v-798h143v-461h-276v215h-687v-215h-276zM399 246h410v553h-328v-297q0 -52 -8.5 -96t-20.5 -70t-24 -44.5t-20 -25.5l-9 -8v-12z" />
    <glyph glyph-name="seven.tab" horiz-adv-x="1310" 
d="M92 942v492h1157v-287l-583 -1147h-338l573 1126v21h-502v-205h-307z" />
    <glyph glyph-name="six.tab" horiz-adv-x="1310" 
d="M61 485q0 72 20 144.5t58.5 143.5t76 126.5t91.5 124.5l318 410h348l-318 -410l-92 -72v-10q7 5 20.5 11.5t61 18t103.5 11.5q134 0 249.5 -66t183.5 -181.5t68 -254.5q0 -107 -43 -202.5t-119.5 -166t-188.5 -112t-243 -41.5q-175 0 -311.5 71t-209.5 190.5t-73 264.5z
M389 481q0 -102 72.5 -168.5t193.5 -66.5t194 66.5t73 168.5t-73 169t-194 67t-193.5 -67t-72.5 -169z" />
    <glyph glyph-name="ff.alt" horiz-adv-x="1402" 
d="M31 778v246h133v51q0 168 93 263.5t255 95.5h205v-246h-150q-64 0 -90 -25.5t-26 -87.5v-51h378v51q0 168 93.5 263.5t255.5 95.5h235v-246h-180q-64 0 -90.5 -25.5t-26.5 -87.5v-51h236v-246h-236v-778h-287v778h-378v-778h-287v778h-133z" />
    <glyph glyph-name="fi.alt" horiz-adv-x="1228" 
d="M31 778v246h133v51q0 168 93 263.5t255 95.5h430v-246h-375q-64 0 -90 -25.5t-26 -87.5v-51h665v-1024h-287v778h-378v-778h-287v778h-133z" />
    <glyph glyph-name="fl.alt" horiz-adv-x="1228" 
d="M31 778v246h133v51q0 159 124.5 264t346.5 105q229 0 355 -104t126 -265v-1075h-287v1075q0 58 -49.5 95.5t-144.5 37.5q-88 0 -136 -38t-48 -95v-51h235v-246h-235v-778h-287v778h-133z" />
    <glyph glyph-name="f_j.alt" horiz-adv-x="1228" 
d="M31 778v246h133v51q0 168 93 263.5t255 95.5h430v-246h-375q-64 0 -90 -25.5t-26 -87.5v-51h665v-1044q0 -168 -98 -268.5t-260 -100.5h-215v235h164q62 0 92 35t30 109v788h-378v-778h-287v778h-133z" />
    <glyph glyph-name="f_t.alt" horiz-adv-x="1474" 
d="M31 778v246h133v51q0 159 124.5 264t346.5 105q229 0 355 -104t126 -265v-51h295v-246h-295v-409q0 -123 123 -123h184v-246h-235q-170 0 -264.5 96.5t-94.5 272.5v409h-378v-778h-287v778h-133zM451 1024h378v51q0 58 -49.5 95.5t-144.5 37.5q-88 0 -136 -38t-48 -95
v-51z" />
    <glyph glyph-name="f.alt" horiz-adv-x="737" 
d="M31 778v246h133v51q0 168 93 263.5t255 95.5h236v-246h-181q-64 0 -90 -25.5t-26 -87.5v-51h235v-246h-235v-778h-287v778h-133z" />
    <glyph glyph-name="j.alt" horiz-adv-x="512" 
d="M92 1333q0 61 48 106.5t116 45.5t116 -45.5t48 -106.5q0 -64 -48 -109.5t-118 -45.5q-67 0 -114.5 46t-47.5 109zM-174 -389v235h164q62 0 92.5 35t30.5 109v1054h286v-1064q0 -168 -98 -268.5t-260 -100.5h-215z" />
    <glyph glyph-name="afii10051.alt" horiz-adv-x="1658" 
d="M20 1147v287h1137v-287h-420v-256h318q252 0 397 -141.5t145 -380.5v-103q0 -250 -149.5 -386t-443.5 -136h-3v276h3q143 0 214.5 64t71.5 182v103q0 124 -59.5 179.5t-196.5 55.5h-297v-604h-307v1147h-410z" />
    <glyph glyph-name="afii10099.alt" horiz-adv-x="1249" 
d="M10 1014v246h133v174h287v-174h246v-246h-246v-307h10q4 7 11.5 19t36 42t63 52.5t93 41.5t124.5 19q194 0 302 -114t108 -327v-460q0 -176 -94.5 -272.5t-264.5 -96.5h-205v246h154q123 0 123 133v409q0 114 -57 175t-158 61q-102 0 -174 -78t-72 -199v-358h-287v1014
h-133z" />
    <glyph glyph-name="afii10105.alt" horiz-adv-x="512" 
d="M92 1333q0 61 48 106.5t116 45.5t116 -45.5t48 -106.5q0 -64 -48 -109.5t-118 -45.5q-67 0 -114.5 46t-47.5 109zM-174 -389v235h164q62 0 92.5 35t30.5 109v1054h286v-1064q0 -168 -98 -268.5t-260 -100.5h-215z" />
    <glyph glyph-name="tcaron.alt" horiz-adv-x="849" 
d="M31 799v245h133v226h287v-901q0 -123 122 -123h185v-246h-236q-169 0 -263.5 96.5t-94.5 272.5v430h-133zM543 1157q0 61 40.5 102t102.5 41q72 0 118 -56t46 -159q0 -130 -78 -208t-209 -78v112q67 0 100 27.5t33 75.5v20q-10 -10 -41 -10q-47 0 -79.5 36.5t-32.5 96.5z
" />
    <glyph glyph-name="tcommaaccent.alt" horiz-adv-x="808" 
d="M31 799v245h133v224h287v-224h294v-245h-294v-430q0 -123 122 -123h185v-246h-236q-169 0 -263.5 96.5t-94.5 272.5v430h-133zM317 -328q0 62 41.5 103t102.5 41q72 0 118 -56t46 -159q0 -131 -78.5 -209t-208.5 -78v113q67 0 100 27t33 75v20q-10 -10 -41 -10
q-47 0 -80 36.5t-33 96.5z" />
    <glyph glyph-name="uni021B.alt" horiz-adv-x="808" 
d="M31 799v245h133v224h287v-224h294v-245h-294v-430q0 -123 122 -123h185v-246h-236q-169 0 -263.5 96.5t-94.5 272.5v430h-133zM317 -328q0 62 41.5 103t102.5 41q72 0 118 -56t46 -159q0 -131 -78.5 -209t-208.5 -78v113q67 0 100 27t33 75v20q-10 -10 -41 -10
q-47 0 -80 36.5t-33 96.5z" />
    <glyph glyph-name="t.alt" horiz-adv-x="808" 
d="M31 799v245h133v224h287v-224h294v-245h-294v-430q0 -123 122 -123h185v-246h-236q-169 0 -263.5 96.5t-94.5 272.5v430h-133z" />
    <glyph glyph-name="afii10058.alt" horiz-adv-x="2324" 
d="M0 10v277q41 -21 92 -21q53 0 90 19t66.5 66.5t44 136t14.5 219.5v727h1065v-451h328q262 0 417.5 -139t155.5 -352t-155.5 -352.5t-417.5 -139.5h-635v1147h-451v-440q0 -199 -32.5 -342t-94.5 -226t-144 -121t-189 -38q-41 0 -79.5 7.5t-56.5 14.5zM1372 287h338
q120 0 183 55t63 150t-63 149.5t-183 54.5h-338v-409z" />
    <glyph glyph-name="afii10061.alt" horiz-adv-x="1443" 
d="M133 0v1434h307v-564h328q68 0 105.5 36t37.5 98v122q0 148 96 238t263 90h102v-266h-61q-92 0 -92 -92v-133q0 -52 -17 -93t-41 -62.5t-48 -36t-41 -19.5l-17 -4v-21q7 -2 19.5 -6t44.5 -22t56 -42.5t44 -71.5t20 -104v-143q0 -92 92 -92h62v-266h-103
q-175 0 -266.5 85.5t-91.5 241.5v144q0 62 -38 97.5t-106 35.5h-348v-584h-307zM614 1577l154 307h307v-2l-246 -305h-215z" />
    <glyph glyph-name="afii10106.alt" horiz-adv-x="1771" 
d="M10 10v246q31 -20 82 -20q72 0 102.5 42.5t30.5 161.5v604h881v-327h205q187 0 303.5 -104t116.5 -255q0 -150 -116.5 -254t-303.5 -104h-492v799h-307v-377q0 -217 -94.5 -329.5t-253.5 -112.5q-45 0 -83.5 7.5t-54.5 14.5zM1106 236h184q68 0 106 33.5t38 88.5t-38 89
t-106 34h-184v-245z" />
    <glyph glyph-name="afii10109.alt" horiz-adv-x="1157" 
d="M113 0v1044h286v-389h215q93 0 93 93v102q0 215 272 215h117v-246h-41q-38 0 -55 -16.5t-17 -54.5v-62q0 -34 -12.5 -61.5t-30.5 -42t-36.5 -24t-31.5 -12.5l-12 -3v-21q6 -1 15.5 -3t34.5 -13t44 -26.5t34.5 -46t15.5 -68.5v-68q0 -38 16.5 -55t54.5 -17h41v-245h-123
q-128 0 -197 61.5t-69 163.5v112q0 93 -92 93h-236v-410h-286zM465 1188l153 307h308v-2l-246 -305h-215z" />
    <glyph glyph-name="florin.alt" horiz-adv-x="911" 
d="M-154 -389v246h195q68 0 94.5 27t38.5 106l123 788h-102v246h133l10 61q30 180 123.5 264.5t275.5 84.5h195v-246h-195q-102 0 -112 -82l-11 -82h236v-246h-266l-123 -819q-24 -158 -129.5 -253t-270.5 -95h-215z" />
    <glyph glyph-name="T_A" horiz-adv-x="1689" 
d="M20 1147v287h1280l379 -1434h-317l-82 317h-492v-317h-307v1147h-461zM788 604h420l-143 543h-277v-543z" />
    <glyph glyph-name="A_A" horiz-adv-x="2519" 
d="M10 0l379 1434h645l174 -656l41 -256h21l41 256l174 656h645l379 -1434h-318l-82 317h-604l-82 -317h-327l-82 317h-604l-82 -317h-318zM1577 604h461l-144 543h-174zM481 604h461l-143 543h-174z" />
    <glyph glyph-name="J_A" horiz-adv-x="1966" 
d="M0 328l297 61q2 -7 5.5 -18t20 -39t38.5 -50t62 -39.5t89 -17.5q109 0 172.5 67.5t63.5 188.5v953h829l379 -1434h-318l-82 317h-520q-43 -181 -179 -279.5t-345 -98.5q-67 0 -128 13.5t-106.5 36t-85 51.5t-67 61.5t-50 64.5t-36 61t-23 51.5t-12.5 35.5zM1055 604h430
l-144 543h-286v-543z" />
    <glyph glyph-name="O_L_I" horiz-adv-x="2918" 
d="M72 717q0 155 60 295t164 242t251 161.5t313 59.5t313 -59.5t251 -161.5t164.5 -242t60.5 -295t-60.5 -295t-164.5 -242t-251 -161.5t-313 -59.5t-313 59.5t-251 161.5t-164 242t-60 295zM399 717q0 -206 130.5 -338.5t330.5 -132.5t330.5 132.5t130.5 338.5
t-130.5 338.5t-330.5 132.5t-330.5 -132.5t-130.5 -338.5zM2478 440v994h307v-994h-307zM1772 0v1434h307v-1147h706v-287h-1013z" />
    <glyph glyph-name="D_E" horiz-adv-x="2232" 
d="M133 0v1434h2017v-287h-860v-10q11 -14 29 -38.5t53 -97.5t47 -141h578v-266h-574q-14 -77 -47 -151.5t-60 -110.5l-26 -35v-10h860v-287h-2017zM440 287h215q213 0 337 118t124 312t-124 312t-337 118h-215v-860z" />
    <glyph glyph-name="A_R" horiz-adv-x="2211" 
d="M10 0l379 1434h1188q127 0 234 -38t178.5 -103.5t111 -153t39.5 -187.5q0 -160 -90 -271t-238 -169l328 -512h-348l-297 471h-287v-471h-307v471h-450l-123 -471h-318zM1208 758h359q126 0 191 53t65 141t-65 141.5t-191 53.5h-359v-389zM522 758h379v389h-276z" />
    <glyph glyph-name="N_A" horiz-adv-x="2304" 
d="M133 0v1434h399l564 -1014h20l-20 174v840h819l379 -1434h-318l-82 317h-491v-317h-399l-564 1014h-20l20 -174v-840h-307zM1403 604h420l-144 543h-276v-543z" />
    <glyph glyph-name="Aacute.alt2" horiz-adv-x="1423" 
d="M10 0l379 1434h225v266h318v-2l-103 -264h205l379 -1434h-317l-82 317h-604l-82 -317h-318zM481 604h461l-143 543h-174z" />
    <glyph glyph-name="Eacute.alt2" horiz-adv-x="1290" 
d="M133 0v1434h440v266h318v-2l-103 -264h420v-287h-768v-287h615v-266h-615v-307h768v-287h-1075z" />
    <glyph glyph-name="Iacute.alt2" horiz-adv-x="573" 
d="M174 1434v266h318v-2l-103 -264h-215zM133 0v1311h307v-1311h-307z" />
    <glyph glyph-name="Oacute.alt2" horiz-adv-x="1720" 
d="M72 717q0 189 86.5 351.5t241 267.5t348.5 130v234h317v-2l-90 -232q193 -26 347 -131t240.5 -267t86.5 -351q0 -155 -60.5 -295t-164.5 -242t-251 -161.5t-313 -59.5t-313 59.5t-251 161.5t-164 242t-60 295zM399 717q0 -206 130.5 -338.5t330.5 -132.5t330.5 132.5
t130.5 338.5t-130.5 338.5t-330.5 132.5t-330.5 -132.5t-130.5 -338.5z" />
    <glyph glyph-name="Uacute.alt2" horiz-adv-x="1474" 
d="M635 1434v266h317v-2l-102 -264h-215zM123 563v871h307v-871q0 -145 84 -231t223 -86t223 86t84 231v871h308v-871q0 -277 -165.5 -440.5t-449.5 -163.5t-449 163.5t-165 440.5z" />
    <glyph glyph-name="Yacute.alt2" horiz-adv-x="1372" 
d="M584 1434v266h317v-2l-102 -264h-215zM-10 1434h338l344 -594h28l344 594h338l-542 -912v-522h-308v522z" />
    <glyph glyph-name="afii10056.alt" horiz-adv-x="1126" 
d="M82 0v266h328v901h-328v267h962v-267h-327v-901h327v-266h-962zM614 1710q0 61 41 102t103 41t102.5 -40.5t40.5 -102.5t-40.5 -102.5t-102.5 -40.5t-103 41t-41 102zM215 1710q0 62 40.5 102.5t102.5 40.5t103 -41t41 -102t-41 -102t-103 -41t-102.5 40.5t-40.5 102.5z
" />
    <glyph glyph-name="afii10055.alt" horiz-adv-x="1126" 
d="M82 0v266h328v901h-328v267h962v-267h-327v-901h327v-266h-962z" />
    <glyph glyph-name="a.sc" horiz-adv-x="1341" 
d="M10 0l359 1229h604l358 -1229h-307l-72 246h-563l-72 -246h-307zM471 532h399l-112 410h-174z" />
    <glyph glyph-name="aacute.sc" horiz-adv-x="1341" 
d="M10 0l359 1229h604l358 -1229h-307l-72 246h-563l-72 -246h-307zM471 532h399l-112 410h-174zM563 1403l154 307h307v-2l-246 -305h-215z" />
    <glyph glyph-name="abreve.sc" horiz-adv-x="1341" 
d="M10 0l359 1229h604l358 -1229h-307l-72 246h-563l-72 -246h-307zM471 532h399l-112 410h-174zM358 1679h195q0 -48 33 -75t100 -27t100 27t33 75h195q0 -126 -85 -201t-243 -75t-243 75t-85 201z" />
    <glyph glyph-name="acircumflex.sc" horiz-adv-x="1341" 
d="M10 0l359 1229h604l358 -1229h-307l-72 246h-563l-72 -246h-307zM471 532h399l-112 410h-174zM328 1405l235 305h246l235 -305v-2h-225l-112 153h-41l-113 -153h-225v2z" />
    <glyph glyph-name="adieresis.sc" horiz-adv-x="1341" 
d="M10 0l359 1229h604l358 -1229h-307l-72 246h-563l-72 -246h-307zM471 532h399l-112 410h-174zM727 1546q0 62 41 103t102 41q62 0 103 -41t41 -103q0 -61 -41 -102t-103 -41t-102.5 40.5t-40.5 102.5zM328 1546q0 62 41 103t102 41t102 -41t41 -103t-41 -102.5
t-102 -40.5t-102 40.5t-41 102.5z" />
    <glyph glyph-name="agrave.sc" horiz-adv-x="1341" 
d="M10 0l359 1229h604l358 -1229h-307l-72 246h-563l-72 -246h-307zM471 532h399l-112 410h-174zM338 1710h307l154 -307h-215l-246 305v2z" />
    <glyph glyph-name="amacron.sc" horiz-adv-x="1341" 
d="M10 0l359 1229h604l358 -1229h-307l-72 246h-563l-72 -246h-307zM471 532h399l-112 410h-174zM369 1434v194h614v-194h-614z" />
    <glyph glyph-name="aogonek.sc" horiz-adv-x="1341" 
d="M10 0l359 1229h604l358 -1229q-10 -5 -25.5 -15t-56 -40.5t-71.5 -61t-56.5 -73.5t-25.5 -82q0 -34 22.5 -55t63.5 -21q35 0 69.5 10t52.5 20l17 11v-154q-7 -5 -20 -11.5t-56 -18t-88 -11.5q-113 0 -174 54.5t-61 144.5q0 53 27.5 104t66.5 85.5t78 61t66 39.5l28 13
h-164l-72 246h-563l-72 -246h-307zM471 532h399l-112 410h-174z" />
    <glyph glyph-name="aring.sc" horiz-adv-x="1341" 
d="M10 0l359 1229h604l358 -1229h-307l-72 246h-563l-72 -246h-307zM471 532h399l-112 410h-174zM440 1577q0 100 64.5 162.5t171.5 62.5t171 -62.5t64 -162.5t-64 -162.5t-171 -62.5t-171.5 62.5t-64.5 162.5zM573 1577q0 -46 28.5 -74t74.5 -28t74 28t28 74t-28 74t-74 28
t-74.5 -28t-28.5 -74z" />
    <glyph glyph-name="atilde.sc" horiz-adv-x="1341" 
d="M10 0l359 1229h604l358 -1229h-307l-72 246h-563l-72 -246h-307zM471 532h399l-112 410h-174zM328 1413v82q0 86 56.5 140.5t147.5 54.5q48 0 91.5 -16t69 -35.5t54.5 -35.5t52 -16t37 14t14 37v41h174v-82q0 -85 -56.5 -139.5t-148.5 -54.5q-48 0 -91.5 16t-68.5 35
t-54 35t-52 16t-37 -14t-14 -37v-41h-174z" />
    <glyph glyph-name="ae.sc" horiz-adv-x="1843" 
d="M10 0l355 1229h1396v-287h-624v-174h512v-287h-512v-194h624v-287h-932v246h-440l-72 -246h-307zM471 532h358v410h-245z" />
    <glyph glyph-name="b.sc" horiz-adv-x="1351" 
d="M133 0v1229h686q193 0 301.5 -92.5t108.5 -235.5q0 -57 -20 -103.5t-48.5 -72t-57.5 -42.5t-49 -23l-20 -5v-20q5 -1 14 -2.5t34.5 -9t48.5 -18.5t51.5 -32.5t49 -47.5t34.5 -67t14 -89q0 -160 -124.5 -264.5t-346.5 -104.5h-676zM440 758h328q67 0 100 27t33 75
t-33 75.5t-100 27.5h-328v-205zM440 266h359q82 0 123 33.5t41 89.5t-41 89.5t-123 33.5h-359v-246z" />
    <glyph glyph-name="c.sc" horiz-adv-x="1515" 
d="M72 614q0 133 53 253.5t145.5 209t225 141t282.5 52.5q87 0 165.5 -17t137.5 -45.5t110.5 -65t87.5 -77.5t65.5 -82t47.5 -77.5t30 -65t17 -45.5l5 -17h-318q-3 8 -10.5 22t-36 49.5t-64 62.5t-99.5 49t-138 22q-160 0 -269.5 -107t-109.5 -262q0 -154 109 -261t270 -107
q80 0 146.5 24t104.5 59t64 69.5t35 58.5l9 24h317q-3 -11 -8.5 -29.5t-29 -73t-54 -104t-86.5 -109.5t-122 -103.5t-164.5 -73t-211.5 -29.5q-150 0 -282.5 52t-225 141t-145.5 209t-53 253z" />
    </font>
</defs>
</svg>
