<?xml version="1.0" standalone="no"?>
<!DOCTYPE svg PUBLIC "-//W3C//DTD SVG 1.1//EN" "http://www.w3.org/Graphics/SVG/1.1/DTD/svg11.dtd" >
<svg xmlns="http://www.w3.org/2000/svg" xmlns:xlink="http://www.w3.org/1999/xlink" version="1.1">
<metadata>
Created by FontForge 20170731 at Mon Aug  3 21:24:28 2020
 By Aleksey,,,
Copyright (c) 2018 by Typetype. Designer Ivan Gladkikh, technical designers Philipp Nurullin, Vika Usmanova, Nadyr Rakhimov, Marina Khodak. All rights reserved.
</metadata>
<defs>
<font id="TTFirsNeue-ThinItalic" horiz-adv-x="1228" >
  <font-face 
    font-family="TT Firs Neue Thin"
    font-weight="250"
    font-style="italic"
    font-stretch="normal"
    units-per-em="2048"
    panose-1="2 0 5 3 2 0 0 9 0 4"
    ascent="1638"
    descent="-410"
    x-height="1004"
    cap-height="1434"
    bbox="-614 -516 3027 2109"
    underline-thickness="102"
    underline-position="-409"
    slope="-10"
    unicode-range="U+000D-FB02"
  />
<missing-glyph horiz-adv-x="0" 
 />
    <glyph glyph-name="ff" unicode="ff" horiz-adv-x="1214" 
d="M432 942l-166 -942h-61l166 942h-154l10 62h154l76 430h420l-11 -62h-358l-66 -368h553l76 430h420l-10 -62h-359l-65 -368h297l-11 -62h-296l-166 -942h-62l166 942h-553z" />
    <glyph glyph-name="fi" unicode="fi" horiz-adv-x="1071" 
d="M819 0l166 942h-553l-166 -942h-61l166 942h-154l10 62h154l76 430h645l-10 -62h-584l-66 -368h615l-176 -1004h-62z" />
    <glyph glyph-name="fl" unicode="fl" horiz-adv-x="1142" 
d="M217 942l10 62h154l76 430h676l-242 -1373h235l-10 -61h-297l242 1372h-553l-66 -368h297l-10 -62h-297l-166 -942h-61l166 942h-154z" />
    <glyph glyph-name="f_j" unicode="fj" horiz-adv-x="1071" 
d="M762 -328l223 1270h-553l-166 -942h-61l166 942h-154l10 62h154l76 430h645l-10 -62h-584l-66 -368h615l-246 -1393h-358l12 61h297z" />
    <glyph glyph-name="f_t" unicode="ft" horiz-adv-x="1302" 
d="M217 942l10 62h154l76 430h676l-76 -430h348l-10 -62h-348l-156 -881h358l-10 -61h-420l166 942h-553l-166 -942h-61l166 942h-154zM442 1004h553l66 368h-553z" />
    <glyph glyph-name=".notdef" horiz-adv-x="0" 
 />
    <glyph glyph-name=".null" horiz-adv-x="0" 
 />
    <glyph glyph-name=".null" horiz-adv-x="0" 
 />
    <glyph glyph-name="nonmarkingreturn" horiz-adv-x="682" 
 />
    <glyph glyph-name="CR" unicode="&#xd;" horiz-adv-x="0" 
 />
    <glyph glyph-name="space" unicode=" " horiz-adv-x="573" 
 />
    <glyph glyph-name="exclam" unicode="!" horiz-adv-x="575" 
d="M575 1434l-135 -768l-59 -277h-41l39 277l135 768h61zM301 -20q-25 0 -40 16t-15 39q0 32 20.5 49.5t48.5 17.5q25 0 40.5 -16t15.5 -39q0 -32 -20.5 -49.5t-49.5 -17.5z" />
    <glyph glyph-name="quotedbl" unicode="&#x22;" horiz-adv-x="722" 
d="M498 1434l-45 -256l-54 -246h-41l33 246l45 256h62zM774 1434l-45 -256l-53 -246h-41l33 246l45 256h61z" />
    <glyph glyph-name="numbersign" unicode="#" horiz-adv-x="1327" 
d="M659 0l203 440h-407l-205 -440h-62l205 440h-250l13 62h266l199 430h-267l11 61h284l203 441h61l-202 -441h407l205 441h61l-204 -441h250l-13 -61h-266l-199 -430h267l-11 -62h-284l-203 -440h-62zM682 932l-199 -430h408l199 430h-408z" />
    <glyph glyph-name="dollar" unicode="$" horiz-adv-x="1288" 
d="M725 20q110 0 197.5 31t138.5 81t77.5 108t26.5 118q0 59 -27.5 108.5t-74.5 85.5t-107.5 67.5t-128 59.5t-134.5 56t-127.5 62.5t-107.5 73.5t-74.5 94t-27.5 120q0 160 133.5 275t344.5 115q26 0 38 -2l33 186h70l-35 -193q72 -10 133 -34t101 -55t71.5 -65.5t48.5 -67
t27.5 -59.5t14.5 -43l3 -16h-59q-1 6 -4 16.5t-16.5 40t-32.5 57t-55.5 60.5t-81.5 56.5t-115 40t-152 16.5q-181 0 -292 -93t-111 -224q0 -73 44.5 -131.5t116 -98.5t157.5 -77t172.5 -75.5t158 -83.5t116 -112t44.5 -151q0 -81 -36 -154.5t-100 -130t-161 -90t-211 -33.5
h-47l-31 -184h-70l33 192q-81 11 -149 39.5t-111.5 64.5t-77 77t-50.5 80t-28 70.5t-14 51.5l-2 19h62q1 -7 3.5 -19.5t16.5 -49t33.5 -69.5t58.5 -73t87.5 -69t124 -49t165.5 -20z" />
    <glyph glyph-name="percent" unicode="%" horiz-adv-x="1533" 
d="M1499 1434l-1122 -1434h-76l1122 1434h76zM598 858q116 0 200.5 85t84.5 210q0 103 -68.5 171.5t-179.5 68.5q-116 0 -200.5 -85t-84.5 -210q0 -103 68.5 -171.5t179.5 -68.5zM590 797q-133 0 -218 85t-85 210q0 152 105.5 257t250.5 105q133 0 218 -85t85 -210
q0 -152 -105.5 -257t-250.5 -105zM1202 575q-116 0 -200 -84.5t-84 -209.5q0 -103 68 -171.5t179 -68.5q116 0 200.5 85t84.5 210q0 103 -68.5 171t-179.5 68zM1210 637q133 0 218 -85t85 -210q0 -152 -105.5 -257t-250.5 -105q-133 0 -218 84.5t-85 209.5q0 152 106 257.5
t250 105.5z" />
    <glyph glyph-name="ampersand" unicode="&#x26;" horiz-adv-x="1427" 
d="M1432 0l-254 532q8 -99 -18 -190t-78 -159t-121.5 -119.5t-149 -78t-158.5 -26.5q-191 0 -314.5 128t-123.5 321q0 151 73.5 279.5t196 202t263.5 73.5q75 0 145 -24.5t119 -68.5l-244 502l10 62h762l-10 -62h-696l663 -1372h-65zM664 20q89 0 172.5 36.5t147 100.5
t102 157t38.5 198q0 169 -108.5 279t-278.5 110q-89 0 -172.5 -36.5t-147.5 -100t-102.5 -156.5t-38.5 -198q0 -169 109 -279.5t279 -110.5z" />
    <glyph glyph-name="quotesingle" unicode="'" horiz-adv-x="446" 
d="M518 1434l-45 -256l-53 -246h-41l33 246l45 256h61z" />
    <glyph glyph-name="parenleft" unicode="(" horiz-adv-x="724" 
d="M297 432q0 332 171 625.5t472 488.5l21 -57q-13 -7 -34.5 -21t-84 -64t-119 -107t-126 -150t-119.5 -193t-84 -237t-34 -281q0 -93 15.5 -183t39.5 -160.5t53.5 -133.5t59.5 -107.5t54 -77.5t40 -49l15 -16l-39 -49q-6 6 -17 17.5t-42 51.5t-59.5 83.5t-63.5 113.5
t-60 143t-42 169t-17 194z" />
    <glyph glyph-name="parenright" unicode=")" horiz-adv-x="704" 
d="M623 774q0 -332 -171 -625.5t-472 -488.5l-21 57q13 7 34.5 21t83.5 64t119 107t126 150t119 193t84 237t34 281q0 93 -15 183t-39.5 160.5t-54 133.5t-59 107.5t-54 77.5t-39.5 49l-15 16l39 49q6 -6 17 -17.5t42 -51.5t59.5 -83.5t63.5 -113.5t60 -143t42 -169t17 -194
z" />
    <glyph glyph-name="asterisk" unicode="*" horiz-adv-x="716" 
d="M686 850l-154 235l-153 -235l-51 31l153 235h-235v62h256v256h30h31v-256h256v-62h-235l153 -235z" />
    <glyph glyph-name="plus" unicode="+" horiz-adv-x="983" 
d="M635 604v-379h-62v379h-358v62h358v378h62v-378h358v-62h-358z" />
    <glyph glyph-name="comma" unicode="," horiz-adv-x="321" 
d="M195 -20q-27 0 -41.5 17t-14.5 38q0 29 19.5 48t50.5 19q35 0 58.5 -27.5t23.5 -84.5q0 -102 -54 -160.5t-124 -58.5l8 41q43 2 77.5 38t34.5 101q0 11 -1.5 20.5t-3.5 12.5l-1 4q-14 -8 -32 -8z" />
    <glyph glyph-name="hyphen" unicode="-" horiz-adv-x="962" 
d="M942 553h-717l11 61h716z" />
    <glyph glyph-name="period" unicode="." horiz-adv-x="329" 
d="M199 -20q-25 0 -40.5 16t-15.5 39q0 32 20.5 49.5t49.5 17.5q25 0 40 -16t15 -39q0 -32 -20.5 -49.5t-48.5 -17.5z" />
    <glyph glyph-name="slash" unicode="/" horiz-adv-x="671" 
d="M913 1434l-825 -1434h-68l826 1434h67z" />
    <glyph glyph-name="zero" unicode="0" horiz-adv-x="1517" 
d="M803 20q93 0 185 35t174.5 105t146 167t100.5 231.5t37 287.5q0 131 -37.5 239t-103.5 179.5t-155 110t-192 38.5q-93 0 -184.5 -34.5t-174 -105t-145.5 -167.5t-100 -231t-37 -287q0 -131 37.5 -239t103.5 -179.5t154.5 -110.5t190.5 -39zM799 -41q-235 0 -389 172
t-154 455q0 162 41 305.5t111 248.5t161 181.5t192.5 115t203.5 38.5q115 0 214.5 -44.5t172 -124.5t114 -198t41.5 -260q0 -162 -41 -305.5t-111 -248.5t-160.5 -181.5t-192 -115t-203.5 -38.5z" />
    <glyph glyph-name="one" unicode="1" horiz-adv-x="614" 
d="M330 0l241 1362l-305 -215l13 72l305 215h61l-254 -1434h-61z" />
    <glyph glyph-name="two" unicode="2" horiz-adv-x="1165" 
d="M471 266l-297 -205h881l-11 -61h-972l10 61l287 199q50 34 130 87t137 90.5t131.5 91t126.5 97.5t106.5 101t88 110t55 116t21.5 128q0 145 -103 238.5t-280 93.5q-70 0 -131.5 -19.5t-104 -51.5t-78 -70t-56.5 -76t-36 -70t-20 -52l-6 -19h-61q2 9 6.5 24t22.5 58.5
t41.5 83.5t64.5 88.5t89.5 83t120 58.5t152.5 24q201 0 321 -111t120 -279q0 -71 -21 -139t-53.5 -123t-85 -113t-103 -101t-121 -94t-124.5 -86t-128.5 -83.5t-119.5 -79.5z" />
    <glyph glyph-name="three" unicode="3" horiz-adv-x="1185" 
d="M668 778h-170l10 62l647 532h-809l10 62h891l-10 -62l-647 -532h78q210 0 333 -113.5t123 -288.5q0 -202 -147 -340.5t-361 -138.5q-74 0 -138.5 13.5t-111 36t-85.5 51.5t-64.5 61.5t-45.5 64.5t-30.5 61t-17 51.5t-8.5 35.5l-2 14h61q1 -7 4 -18.5t16.5 -46t32 -65.5
t54.5 -68.5t80.5 -65t113.5 -46t150 -18.5q187 0 313.5 121t126.5 293q0 147 -108.5 245.5t-288.5 98.5z" />
    <glyph glyph-name="four" unicode="4" horiz-adv-x="1198" 
d="M952 0h-61l61 348h-788l10 62l703 1024h71l-702 -1024h717l75 430h62l-76 -430h225l-10 -62h-225z" />
    <glyph glyph-name="five" unicode="5" horiz-adv-x="1259" 
d="M397 707h-71l186 727h809l-10 -62h-754l-147 -577q5 5 15.5 13.5t45 30.5t72.5 39t97 30.5t120 13.5q140 0 247.5 -62.5t162.5 -162.5t55 -218q0 -102 -41 -197t-111 -166t-169.5 -114t-209.5 -43q-70 0 -131 13.5t-105 36t-81 51.5t-61.5 61.5t-43.5 64.5t-29.5 61
t-17 51.5t-8.5 35.5l-2 14h61q1 -7 3 -18.5t14 -46t28.5 -65.5t49.5 -68.5t75 -65t106.5 -46t141.5 -18.5q98 0 186 37t149.5 99t97.5 145.5t36 173.5q0 167 -116.5 276t-305.5 109q-64 0 -122.5 -16t-97 -38t-68 -44.5t-43.5 -38.5z" />
    <glyph glyph-name="six" unicode="6" horiz-adv-x="1247" 
d="M205 414q1 50 10.5 96.5t21 82t36 76t41.5 65t52.5 63t53.5 56t60.5 57t58.5 55.5l487 469h78l-533 -514q9 5 25.5 12.5t68 20t103.5 12.5q134 0 242.5 -63.5t167.5 -168t59 -227.5q0 -149 -78 -275.5t-206 -199t-273 -72.5q-102 0 -191.5 37t-151 99t-97 145t-35.5 174z
M686 20q129 0 241.5 64t179.5 175.5t67 242.5q0 170 -117.5 285.5t-300.5 115.5q-129 0 -241.5 -63.5t-179.5 -175t-67 -242.5q0 -170 117.5 -286t300.5 -116z" />
    <glyph glyph-name="seven" unicode="7" horiz-adv-x="976" 
d="M274 0h-69l856 1372h-832l11 62h901l-11 -62z" />
    <glyph glyph-name="eight" unicode="8" horiz-adv-x="1355" 
d="M758 -41q-244 0 -393.5 111t-149.5 290q0 76 23 140.5t60 107t82 76.5t90 52t82 30.5t60 15.5l23 4q-9 3 -25 10t-56 32.5t-70.5 56.5t-55.5 85t-25 115q0 160 132.5 275t347.5 115q226 0 354.5 -105t128.5 -252q0 -63 -19 -117.5t-49.5 -91t-67.5 -65.5t-74 -45
t-67.5 -27t-49.5 -14l-19 -4q6 -2 16 -5.5t39 -18t55.5 -32t59 -47.5t55.5 -64t39 -82.5t16 -101.5q0 -90 -38 -170.5t-106.5 -141.5t-171.5 -96.5t-226 -35.5zM893 795q187 0 299.5 93t112.5 226q0 124 -113.5 211.5t-317.5 87.5q-187 0 -298 -93t-111 -226
q0 -124 112 -211.5t316 -87.5zM764 20q147 0 257 53.5t164 138t54 185.5q0 145 -127 243.5t-360 98.5q-111 0 -202.5 -31t-150.5 -83t-91 -120t-32 -143q0 -145 127.5 -243.5t360.5 -98.5z" />
    <glyph glyph-name="nine" unicode="9" horiz-adv-x="1247" 
d="M1288 1020q-1 -44 -7 -84.5t-19.5 -78t-26 -67t-36.5 -63t-39.5 -55t-47.5 -54t-48.5 -49t-53.5 -51t-52 -49.5l-487 -469h-82l533 514q-9 -5 -25.5 -12.5t-68 -20t-103.5 -12.5q-134 0 -242.5 63.5t-167.5 168t-59 227.5q0 149 78 275.5t206 199t273 72.5
q102 0 191.5 -37t151 -99t97 -145t35.5 -174zM807 1413q-129 0 -241.5 -63.5t-179.5 -175t-67 -242.5q0 -170 117.5 -286t300.5 -116q129 0 241.5 64t179.5 175.5t67 242.5q0 170 -117.5 285.5t-300.5 115.5z" />
    <glyph glyph-name="colon" unicode=":" horiz-adv-x="327" 
d="M168 -20q-25 0 -40 16t-15 39q0 32 20.5 49.5t48.5 17.5q25 0 40.5 -16t15.5 -39q0 -32 -20.5 -49.5t-49.5 -17.5zM330 901q-25 0 -40.5 16t-15.5 39q0 32 21 50t49 18q25 0 40 -16t15 -39q0 -32 -20.5 -50t-48.5 -18z" />
    <glyph glyph-name="semicolon" unicode=";" horiz-adv-x="327" 
d="M135 -20q-27 0 -41 17t-14 38q0 29 19.5 48t50.5 19q34 0 57.5 -27.5t23.5 -84.5q0 -102 -54 -160.5t-124 -58.5l8 41q44 2 78.5 38t34.5 101q0 11 -1.5 20.5t-2.5 12.5l-2 4q-15 -8 -33 -8zM328 901q-25 0 -40.5 16t-15.5 39q0 32 21 50t49 18q25 0 40 -16t15 -39
q0 -32 -20.5 -50t-48.5 -18z" />
    <glyph glyph-name="less" unicode="&#x3c;" horiz-adv-x="983" 
d="M195 461v82l757 420v-68l-696 -383v-20l696 -383v-68z" />
    <glyph glyph-name="equal" unicode="=" horiz-adv-x="983" 
d="M973 696h-737v62h737v-62zM973 328h-737v61h737v-61z" />
    <glyph glyph-name="greater" unicode="&#x3e;" horiz-adv-x="983" 
d="M1024 543v-82l-758 -420v68l697 383v20l-697 383v68z" />
    <glyph glyph-name="question" unicode="?" horiz-adv-x="1067" 
d="M1077 1116q0 123 -99 210t-261 87q-155 0 -271 -90.5t-180 -237.5h-61q23 72 68 139t109 124.5t152.5 92t186.5 34.5q189 0 303.5 -102.5t114.5 -252.5q0 -92 -28 -161.5t-74 -111.5t-102 -76t-115 -66.5t-110.5 -70.5t-90.5 -100t-52 -145h-61q13 91 52 160t90 111
t110 76t115 66t102 70.5t74 100t28 143.5zM469 -20q-25 0 -40 16t-15 39q0 32 20.5 49.5t48.5 17.5q25 0 40.5 -16t15.5 -39q0 -32 -20.5 -49.5t-49.5 -17.5z" />
    <glyph glyph-name="at" unicode="@" horiz-adv-x="1691" 
d="M1161 348l17 103q-3 -5 -10 -13.5t-29.5 -29.5t-48 -37t-65.5 -29.5t-83 -13.5q-121 0 -202 84t-81 211q0 75 29.5 143t77 115t109 74.5t124.5 27.5q31 0 59 -5.5t49.5 -15t40.5 -21.5t33 -25.5t25 -27t18 -25t12 -21t7 -14.5l2 -5l25 140h61l-98 -553h31q77 0 148.5 31
t127 87t88.5 139t33 181q0 93 -43 182.5t-120.5 161t-196.5 115t-259 43.5q-147 0 -283 -58.5t-238 -159.5t-163 -246t-61 -308q0 -174 80 -315t226 -222.5t331 -81.5q93 0 182 19t132 38l42 19l-12 -68q-16 -8 -46 -19.5t-121 -30.5t-181 -19q-151 0 -281 52t-220.5 142.5
t-141.5 215.5t-51 267q0 174 67.5 331t180 266.5t261 174t306.5 64.5q150 0 278.5 -48.5t213 -128.5t132 -180.5t47.5 -205.5q0 -228 -140 -364t-359 -136h-62zM942 389q106 0 190.5 85.5t84.5 211.5q0 100 -63.5 168t-158.5 68q-106 0 -190 -85.5t-84 -211.5
q0 -100 63 -168t158 -68z" />
    <glyph glyph-name="A" unicode="A" horiz-adv-x="1361" 
d="M1247 0l-47 532h-809l-235 -532h-64l631 1434h461l127 -1434h-64zM1126 1372h-366l-344 -778h780z" />
    <glyph glyph-name="B" unicode="B" horiz-adv-x="1454" 
d="M973 717h-559l-117 -656h635q175 0 282 101.5t107 257.5q0 121 -96.5 209t-251.5 88zM1085 1372h-557l-104 -594h610q158 0 253 93.5t95 234.5q0 117 -80.5 191.5t-216.5 74.5zM477 1434h608q158 0 258.5 -92.5t100.5 -225.5q0 -65 -15.5 -120.5t-39.5 -93.5t-53.5 -68
t-59.5 -47.5t-54 -29.5t-40 -16l-15 -4q4 -2 12 -5.5t30.5 -16.5t42.5 -28.5t45 -42.5t43 -58t30 -74.5t12 -91.5q0 -180 -128 -300t-332 -120h-697z" />
    <glyph glyph-name="C" unicode="C" horiz-adv-x="1642" 
d="M911 20q108 0 207 33.5t170 85t129 117t92 124.5t52 112h65q-35 -100 -99 -192t-153 -170t-209.5 -124.5t-253.5 -46.5q-299 0 -482 183.5t-183 482.5q0 181 63 340t169.5 270t251.5 175.5t304 64.5q127 0 236.5 -39.5t188.5 -108t131 -159t73 -195.5h-64
q-41 190 -194.5 315t-370.5 125q-148 0 -281.5 -59t-232 -161.5t-156 -250.5t-57.5 -317q0 -269 168 -437t436 -168z" />
    <glyph glyph-name="D" unicode="D" horiz-adv-x="1484" 
d="M717 0h-492l252 1434h363q192 0 341.5 -81.5t231.5 -225.5t82 -326q0 -171 -60 -320t-163.5 -254.5t-247.5 -166t-307 -60.5zM297 61h420q203 0 366.5 94t257 263t93.5 381q0 255 -163.5 414t-430.5 159h-312z" />
    <glyph glyph-name="E" unicode="E" horiz-adv-x="1245" 
d="M297 61h860l-10 -61h-922l252 1434h922l-10 -62h-861l-108 -614h706l-10 -62h-706z" />
    <glyph glyph-name="F" unicode="F" horiz-adv-x="1193" 
d="M401 655l-114 -655h-62l252 1434h901l-10 -62h-840l-114 -655h686l-13 -62h-686z" />
    <glyph glyph-name="G" unicode="G" horiz-adv-x="1767" 
d="M1610 676h-303l10 61h563l-10 -61h-195q-28 -201 -139.5 -366t-277 -258t-347.5 -93q-299 0 -482 183.5t-183 482.5q0 181 63 340t169.5 270t251.5 175.5t304 64.5q127 0 237 -39t188 -106t130.5 -153.5t73.5 -183.5h-64q-20 85 -69.5 160.5t-121 133.5t-169 92
t-205.5 34q-148 0 -281.5 -59t-232 -161.5t-156 -250.5t-57.5 -317q0 -269 168 -437t436 -168q131 0 253.5 52.5t214.5 141t153.5 209t77.5 253.5z" />
    <glyph glyph-name="H" unicode="H" horiz-adv-x="1490" 
d="M225 0l252 1434h62l-119 -676h921l119 676h62l-252 -1434h-62l123 696h-921l-123 -696h-62z" />
    <glyph glyph-name="I" unicode="I" horiz-adv-x="507" 
d="M539 1434l-252 -1434h-62l252 1434h62z" />
    <glyph glyph-name="J" unicode="J" horiz-adv-x="1167" 
d="M1219 1434l-185 -1033q-38 -213 -164 -327.5t-315 -114.5q-92 0 -167.5 22t-122 56.5t-81.5 76.5t-52 84.5t-27 77t-11 56.5l-2 22l64 11q0 -7 1.5 -19.5t10 -48.5t23 -68.5t44.5 -72t70.5 -68.5t105.5 -48.5t144 -19.5q166 0 277 101t143 285l182 1028h62z" />
    <glyph glyph-name="K" unicode="K" horiz-adv-x="1265" 
d="M1171 0l-387 696h-374l-123 -696h-62l252 1434h62l-119 -676h371l608 676h82l-635 -707l403 -727h-78z" />
    <glyph glyph-name="L" unicode="L" horiz-adv-x="1032" 
d="M539 1434l-242 -1373h799l-11 -61h-860l252 1434h62z" />
    <glyph glyph-name="M" unicode="M" horiz-adv-x="1890" 
d="M889 389l-359 989l-243 -1378h-62l252 1434h98l359 -983h178l703 983h106l-252 -1434h-61l243 1378l-706 -989h-256z" />
    <glyph glyph-name="N" unicode="N" horiz-adv-x="1511" 
d="M1290 0h-92l-670 1376l-241 -1376h-62l252 1434h92l670 -1377l242 1377h61z" />
    <glyph glyph-name="O" unicode="O" horiz-adv-x="1679" 
d="M1024 1475q292 0 473.5 -183.5t181.5 -482.5q0 -180 -63 -339.5t-168.5 -270.5t-248 -175.5t-298.5 -64.5q-292 0 -473.5 183.5t-181.5 482.5q0 180 63 339.5t168.5 270.5t248 175.5t298.5 64.5zM901 20q145 0 276 59t228.5 162t155 251t57.5 317q0 268 -166 436
t-428 168q-145 0 -276 -59t-228.5 -161.5t-155 -250.5t-57.5 -317q0 -268 166 -436.5t428 -168.5z" />
    <glyph glyph-name="P" unicode="P" horiz-adv-x="1382" 
d="M942 532h-561l-94 -532h-62l252 1434h506q225 0 348 -109t123 -291q0 -216 -145 -359t-367 -143zM391 594h551q206 0 328.5 120t122.5 320q0 151 -108 244.5t-302 93.5h-455z" />
    <glyph glyph-name="Q" unicode="Q" horiz-adv-x="1679" 
d="M748 -410l65 373q-257 28 -412 207.5t-155 454.5q0 180 63 339.5t168.5 270.5t248 175.5t298.5 64.5q292 0 473.5 -183.5t181.5 -482.5q0 -180 -63 -339.5t-168.5 -270.5t-248 -175.5t-298.5 -64.5h-27l-65 -369h-61zM901 20q145 0 276 59t228.5 162t155 251t57.5 317
q0 268 -166 436t-428 168q-145 0 -276 -59t-228.5 -161.5t-155 -250.5t-57.5 -317q0 -268 166 -436.5t428 -168.5z" />
    <glyph glyph-name="R" unicode="R" horiz-adv-x="1402" 
d="M983 578l266 -578h-71l-258 573h-533l-100 -573h-62l252 1434h547q196 0 313 -107t117 -272q0 -209 -128.5 -341t-342.5 -136zM1004 1372h-476l-129 -737h564q199 0 314.5 113.5t115.5 306.5q0 141 -104 229t-285 88z" />
    <glyph glyph-name="S" unicode="S" horiz-adv-x="1288" 
d="M725 20q110 0 197.5 31t138.5 81t77.5 108t26.5 118q0 59 -27.5 108.5t-74.5 85.5t-107.5 67.5t-128 59.5t-134.5 56t-127.5 62.5t-107.5 73.5t-74.5 94t-27.5 120q0 160 133.5 275t344.5 115q92 0 170 -19t128.5 -50t90 -68.5t60.5 -74.5t34.5 -68t17.5 -50l4 -19h-59
q-1 6 -4 16.5t-16.5 40t-32.5 57t-55.5 60.5t-81.5 56.5t-115 40t-152 16.5q-181 0 -292 -93t-111 -224q0 -73 44.5 -131.5t116 -98.5t157.5 -77t172.5 -75.5t158 -83.5t116 -112t44.5 -151q0 -81 -36 -154.5t-100 -130t-161 -90t-211 -33.5q-82 0 -152.5 14t-121.5 38
t-93.5 54.5t-70 64.5t-48.5 68t-32 64.5t-18 54.5t-9 38l-2 14h62q1 -7 3.5 -19.5t16.5 -49t33.5 -69.5t58.5 -73t87.5 -69t124 -49t165.5 -20z" />
    <glyph glyph-name="T" unicode="T" horiz-adv-x="1116" 
d="M737 1372h-532l10 62h1126l-10 -62h-532l-242 -1372h-61z" />
    <glyph glyph-name="U" unicode="U" horiz-adv-x="1454" 
d="M1516 1434l-168 -955q-42 -245 -195 -382.5t-371 -137.5q-109 0 -198 30.5t-149 85.5t-98.5 131.5t-46 168t8.5 196.5l152 863h61l-152 -869q-43 -250 71 -397.5t351 -147.5q197 0 331 119t173 344l168 951h62z" />
    <glyph glyph-name="V" unicode="V" horiz-adv-x="1320" 
d="M471 61h367l604 1373h63l-631 -1434h-460l-127 1434h63z" />
    <glyph glyph-name="W" unicode="W" horiz-adv-x="1894" 
d="M1331 61h109l545 1373h63l-569 -1434h-207l-62 1372h-75l-545 -1372h-207l-66 1434h64l61 -1373h109l545 1373h174z" />
    <glyph glyph-name="X" unicode="X" horiz-adv-x="1296" 
d="M72 0l528 727l-246 707h68l231 -676h267l469 676h71l-491 -707l270 -727h-70l-260 696h-258l-506 -696h-73z" />
    <glyph glyph-name="Y" unicode="Y" 
d="M657 512l-411 922h69l381 -856l684 856h74l-735 -922l-90 -512h-62z" />
    <glyph glyph-name="Z" unicode="Z" horiz-adv-x="1193" 
d="M61 0l11 61l1196 1311h-924l10 62h1004l-10 -62l-1196 -1311h964l-10 -61h-1045z" />
    <glyph glyph-name="bracketleft" unicode="[" horiz-adv-x="661" 
d="M856 1423h-317l-293 -1659h317l-10 -61h-379l313 1782h379z" />
    <glyph glyph-name="backslash" unicode="\" horiz-adv-x="679" 
d="M598 0l-322 1434h64l322 -1434h-64z" />
    <glyph glyph-name="bracketright" unicode="]" horiz-adv-x="661" 
d="M600 1423h-317l10 62h379l-314 -1782h-378l10 61h317z" />
    <glyph glyph-name="asciicircum" unicode="^" horiz-adv-x="942" 
d="M604 1372l-266 -573h-62l297 635h103l297 -635h-62l-266 573h-41z" />
    <glyph glyph-name="underscore" unicode="_" horiz-adv-x="583" 
d="M635 -307h-686l10 61h686z" />
    <glyph glyph-name="grave" unicode="`" horiz-adv-x="401" 
d="M246 1423h84l153 -276h-61z" />
    <glyph glyph-name="a" unicode="a" horiz-adv-x="1271" 
d="M635 -20q-196 0 -318 132t-122 328q0 124 43 233.5t115 186t169.5 120.5t204.5 44q151 0 260.5 -80.5t153.5 -214.5l49 275h61l-176 -1004h-61l33 190q-74 -99 -182 -154.5t-230 -55.5zM635 41q95 0 181.5 39t150.5 106.5t101.5 165.5t37.5 211q0 175 -108 287.5
t-271 112.5q-127 0 -234.5 -66t-172 -186.5t-64.5 -270.5q0 -175 108 -287t271 -112z" />
    <glyph glyph-name="b" unicode="b" horiz-adv-x="1273" 
d="M813 1024q196 0 318 -132.5t122 -328.5q0 -124 -43 -233.5t-115.5 -185.5t-169.5 -120t-204 -44q-151 0 -260.5 80.5t-153.5 213.5l-49 -274h-61l252 1434h61l-109 -621q74 99 182 155t230 56zM813 963q-127 0 -234.5 -66t-172 -186.5t-64.5 -270.5q0 -175 108 -287
t271 -112q95 0 181.5 39t150.5 106.5t101.5 165.5t37.5 211q0 175 -108 287.5t-271 112.5z" />
    <glyph glyph-name="c" unicode="c" horiz-adv-x="1173" 
d="M655 -20q-198 0 -329 133t-131 327q0 123 46 233t122 186t175 120.5t203 44.5q75 0 139.5 -18.5t108 -48.5t78 -66t54 -72t32 -66t17.5 -49l4 -18h-66q-1 6 -4 16t-15 38.5t-28.5 55t-46.5 58.5t-66 54.5t-90 38.5t-117 16q-93 0 -180.5 -39t-155 -106.5t-108.5 -166.5
t-41 -211q0 -173 117 -286t282 -113q63 0 122 17.5t102 45.5t80.5 61.5t62.5 67.5t42.5 62t25.5 45l8 18h63q-3 -8 -9 -21.5t-28.5 -53t-48.5 -75t-70 -79t-92.5 -75t-116.5 -53t-141 -21.5z" />
    <glyph glyph-name="d" unicode="d" horiz-adv-x="1271" 
d="M635 -20q-196 0 -318 132t-122 328q0 124 43 233.5t115 186t169.5 120.5t204.5 44q151 0 260.5 -80.5t153.5 -214.5l125 705h61l-252 -1434h-61l33 190q-74 -99 -182 -154.5t-230 -55.5zM635 41q95 0 181.5 39t150.5 106.5t101.5 165.5t37.5 211q0 175 -108 287.5
t-271 112.5q-127 0 -234.5 -66t-172 -186.5t-64.5 -270.5q0 -175 108 -287t271 -112z" />
    <glyph glyph-name="e" unicode="e" horiz-adv-x="1214" 
d="M195 440q0 101 31.5 194t85 162.5t123 121.5t148.5 79t158 27q196 0 324.5 -133t128.5 -332l-2 -57h-934q-2 -22 -2 -53q0 -178 114.5 -293t291.5 -115q61 0 118 15t98.5 39.5t78 54t60 59t41 54t24.5 39.5l8 15h67q-16 -40 -44.5 -82.5t-74.5 -89t-100.5 -82.5
t-128.5 -59.5t-152 -23.5q-199 0 -330.5 133t-131.5 327zM1133 563q0 118 -56 211.5t-143 141t-186 47.5q-175 0 -308 -114.5t-172 -285.5h865z" />
    <glyph glyph-name="f" unicode="f" horiz-adv-x="600" 
d="M217 942l10 62h154l76 430h420l-11 -62h-358l-66 -368h297l-10 -62h-297l-166 -942h-61l166 942h-154z" />
    <glyph glyph-name="g" unicode="g" horiz-adv-x="1271" 
d="M166 -389l10 61h778l93 518q-74 -99 -182 -154.5t-230 -55.5q-196 0 -318 132t-122 328q0 124 43 233.5t115 186t169.5 120.5t204.5 44q151 0 260.5 -80.5t153.5 -214.5l49 275h61l-245 -1393h-840zM635 41q95 0 181.5 39t150.5 106.5t101.5 165.5t37.5 211
q0 175 -108 287.5t-271 112.5q-127 0 -234.5 -66t-172 -186.5t-64.5 -270.5q0 -175 108 -287t271 -112z" />
    <glyph glyph-name="h" unicode="h" horiz-adv-x="1177" 
d="M446 1434h62l-107 -605q58 93 155.5 144t213.5 51q194 0 287 -123t59 -319l-102 -582h-62l103 573q30 166 -47 278t-242 112q-151 0 -263.5 -99t-142.5 -268l-104 -596h-61z" />
    <glyph glyph-name="i" unicode="i" horiz-adv-x="448" 
d="M453 1270q-24 0 -40 16.5t-16 38.5q0 32 20 50t48 18q24 0 39.5 -16.5t15.5 -39.5q0 -32 -19.5 -49.5t-47.5 -17.5zM195 0l176 1004h61l-176 -1004h-61z" />
    <glyph glyph-name="j" unicode="j" horiz-adv-x="446" 
d="M451 1270q-24 0 -40 16.5t-16 38.5q0 32 20 50t48 18q24 0 39.5 -16.5t15.5 -39.5q0 -32 -19.5 -49.5t-47.5 -17.5zM430 1004l-246 -1393h-358l10 61h297l236 1332h61z" />
    <glyph glyph-name="k" unicode="k" horiz-adv-x="1026" 
d="M344 502l-88 -502h-61l251 1434h62l-154 -871h305l422 441h78l-450 -472l305 -532h-70l-289 502h-311z" />
    <glyph glyph-name="l" unicode="l" horiz-adv-x="518" 
d="M508 1434l-242 -1373h236l-10 -61h-297l251 1434h62z" />
    <glyph glyph-name="m" unicode="m" horiz-adv-x="1853" 
d="M1077 793q5 9 14.5 25t44.5 55.5t75 70t105.5 55.5t137.5 25q84 0 149.5 -22.5t106 -63t65 -96t26.5 -122t-9 -140.5l-102 -580h-62l101 575q20 116 -0.5 201t-89.5 136t-185 51q-131 0 -238 -91.5t-133 -238.5l-110 -633h-62l103 584q16 80 7 149t-38.5 120t-90 80.5
t-147.5 29.5q-143 0 -248 -95.5t-135 -263.5l-106 -604h-61l176 1004h61l-29 -164q129 184 347 184q206 0 293 -143q20 -34 34 -88z" />
    <glyph glyph-name="n" unicode="n" horiz-adv-x="1177" 
d="M371 1004h61l-31 -175q58 93 155.5 144t213.5 51q194 0 287 -123t59 -319l-102 -582h-62l103 573q30 166 -47 278t-242 112q-151 0 -263.5 -99t-142.5 -268l-104 -596h-61z" />
    <glyph glyph-name="o" unicode="o" 
d="M655 41q95 0 184.5 39t157.5 106.5t109 166t41 210.5q0 173 -117 286.5t-282 113.5q-95 0 -184.5 -39t-157.5 -107t-109 -166.5t-41 -210.5q0 -173 117 -286t282 -113zM655 -20q-198 0 -329 133t-131 327q0 123 46 233t122.5 186t177 120.5t207.5 44.5q130 0 236 -61.5
t165 -167t59 -232.5q0 -123 -46 -233t-122.5 -186t-177 -120t-207.5 -44z" />
    <glyph glyph-name="p" unicode="p" horiz-adv-x="1271" 
d="M811 1024q196 0 318 -132.5t122 -328.5q0 -124 -43 -233.5t-115.5 -185.5t-169.5 -120t-204 -44q-151 0 -260.5 80.5t-153.5 213.5l-117 -663h-61l244 1393h61l-33 -191q74 99 182 155t230 56zM811 963q-127 0 -234.5 -66t-172 -186.5t-64.5 -270.5q0 -175 108 -287
t271 -112q95 0 181.5 39t150.5 106.5t101.5 165.5t37.5 211q0 175 -108 287.5t-271 112.5z" />
    <glyph glyph-name="q" unicode="q" horiz-adv-x="1271" 
d="M635 -20q-196 0 -318 132t-122 328q0 124 43 233.5t115 186t169.5 120.5t204.5 44q151 0 260.5 -80.5t153.5 -214.5l49 275h61l-245 -1393h-62l103 579q-74 -99 -182 -154.5t-230 -55.5zM635 41q95 0 181.5 39t150.5 106.5t101.5 165.5t37.5 211q0 175 -108 287.5
t-271 112.5q-127 0 -234.5 -66t-172 -186.5t-64.5 -270.5q0 -175 108 -287t271 -112z" />
    <glyph glyph-name="r" unicode="r" horiz-adv-x="751" 
d="M793 952q-164 0 -285.5 -108.5t-153.5 -290.5l-98 -553h-61l176 1004h61l-37 -216q56 105 169 165.5t239 60.5h102l-10 -62h-102z" />
    <glyph glyph-name="s" unicode="s" horiz-adv-x="1017" 
d="M154 287h63q1 -5 4 -14t15 -34.5t28.5 -48.5t47.5 -51.5t68 -49t93.5 -34.5t122.5 -14q145 0 225 64.5t80 162.5q0 53 -35 93.5t-91.5 66t-124 47.5t-135.5 45.5t-124.5 52t-91.5 75.5t-35 108q0 48 24.5 95.5t69 86t115 62.5t154.5 24q69 0 128 -14.5t98 -38t70 -52
t48 -57t28.5 -52t14.5 -38.5l4 -14h-66q0 4 -8 22.5t-31.5 50.5t-58.5 60.5t-98 50t-140 21.5q-138 0 -213 -60t-75 -139q0 -52 35 -91.5t91.5 -64t124 -46t135.5 -45.5t124.5 -53t91.5 -77t35 -111q0 -126 -102.5 -211t-276.5 -85q-76 0 -141 17t-108 43.5t-77.5 60
t-53.5 65t-31.5 60t-16.5 43.5t-4 18z" />
    <glyph glyph-name="t" unicode="t" horiz-adv-x="688" 
d="M217 942l10 62h154l41 225h61l-41 -225h349l-11 -62h-348l-156 -881h359l-10 -61h-420l166 942h-154z" />
    <glyph glyph-name="u" unicode="u" horiz-adv-x="1187" 
d="M991 0h-61l31 174q-58 -93 -155 -143.5t-214 -50.5q-194 0 -287 123t-59 319l102 582h62l-103 -574q-30 -166 47 -277.5t242 -111.5q150 0 262.5 99t142.5 268l105 596h61z" />
    <glyph glyph-name="v" unicode="v" horiz-adv-x="1064" 
d="M346 0l-110 1004h63l104 -943h265l436 943h63l-462 -1004h-359z" />
    <glyph glyph-name="w" unicode="w" horiz-adv-x="1566" 
d="M295 0l-49 1004h61l45 -943h121l377 943h194l46 -943h120l377 943h62l-402 -1004h-215l-45 942h-100l-377 -942h-215z" />
    <glyph glyph-name="x" unicode="x" horiz-adv-x="985" 
d="M51 0l389 522l-192 482h61l180 -451h207l336 451h66l-361 -482l205 -522h-63l-193 492h-203l-364 -492h-68z" />
    <glyph glyph-name="y" unicode="y" horiz-adv-x="1054" 
d="M326 0l-90 1004h61l84 -943h250l450 943h66l-666 -1393h-65l186 389h-276z" />
    <glyph glyph-name="z" unicode="z" horiz-adv-x="954" 
d="M1026 942l-866 -881h731l-10 -61h-809l10 61l866 881h-690l10 62h768z" />
    <glyph glyph-name="braceleft" unicode="{" horiz-adv-x="684" 
d="M350 594q2 -1 5.5 -2.5t13.5 -7t17.5 -13t18 -21t15 -30t8 -39.5t-3.5 -51l-92 -522q-11 -62 24 -103t103 -41h112l-10 -61h-112q-99 0 -147.5 56t-31.5 149l92 522q11 62 -19 97.5t-91 35.5h-51l10 62h51q62 0 105 36t53 97l92 522q15 93 83 149t167 56h112l-10 -62
h-112q-68 0 -118 -40.5t-61 -102.5l-92 -522q-7 -37 -23 -67.5t-34 -48t-35 -29t-28 -15.5z" />
    <glyph glyph-name="bar" unicode="|" horiz-adv-x="552" 
d="M430 1536v-1741h-61v1741h61z" />
    <glyph glyph-name="braceright" unicode="}" horiz-adv-x="684" 
d="M535 594q-2 1 -5.5 2.5t-13.5 7t-18 13t-18.5 21t-14.5 30t-7.5 39.5t3.5 51l92 522q11 62 -25 102.5t-104 40.5h-113l11 62h112q99 0 148 -56t32 -149l-92 -522q-11 -62 18.5 -97.5t90.5 -35.5h51l-10 -62h-51q-62 0 -104 -36t-52 -97l-92 -522q-17 -93 -85 -149
t-167 -56h-113l10 61h113q68 0 118.5 41t61.5 103l92 522q6 37 22 67.5t34.5 48t35.5 29t29 15.5z" />
    <glyph glyph-name="asciitilde" unicode="~" horiz-adv-x="1013" 
d="M840 512q-45 0 -91 21t-83.5 51t-73.5 60.5t-76 51.5t-76 21q-143 0 -143 -164v-41h-61v41q0 106 55.5 165.5t148.5 59.5q45 0 91 -21t83.5 -51t73.5 -60.5t76 -51.5t76 -21q143 0 143 164v41h61v-41q0 -106 -55.5 -165.5t-148.5 -59.5z" />
    <glyph glyph-name="nbspace" unicode="&#xa0;" horiz-adv-x="573" 
 />
    <glyph glyph-name="exclamdown" unicode="&#xa1;" horiz-adv-x="567" 
d="M195 -389l127 727l59 276h41l-39 -276l-127 -727h-61zM461 1024q25 0 40 -16t15 -39q0 -32 -21 -50t-49 -18q-25 0 -40 16t-15 39q0 32 21 50t49 18z" />
    <glyph glyph-name="cent" unicode="&#xa2;" horiz-adv-x="1173" 
d="M535 -205l32 193q-165 29 -268.5 155t-103.5 297q0 123 46 233t122 186t175 120.5t203 44.5h9l32 184h62l-35 -188q63 -8 117 -30.5t90.5 -52.5t65.5 -64.5t45.5 -67.5t27.5 -59.5t15 -43.5l4 -16h-66q-1 6 -4 16t-15 38.5t-28.5 55t-46.5 58.5t-66 54.5t-90 38.5
t-117 16q-93 0 -180.5 -39t-155 -106.5t-108.5 -166.5t-41 -211q0 -173 117 -286t282 -113q63 0 122 17.5t102 45.5t80.5 61.5t62.5 67.5t42.5 62t25.5 45l8 18h63q-3 -8 -9 -21.5t-28.5 -53t-48.5 -75t-70 -79t-92.5 -75t-116.5 -53t-141 -21.5h-28l-31 -185h-61z" />
    <glyph glyph-name="sterling" unicode="&#xa3;" horiz-adv-x="1077" 
d="M397 799l62 350q28 163 131.5 254.5t261.5 91.5q54 0 100.5 -10t79.5 -26.5t61 -38t46 -45t31.5 -47.5t21 -45.5t12 -38t5.5 -26.5l1 -10h-67q0 5 -1.5 13t-9.5 31.5t-19.5 45t-34 47.5t-52 44.5t-75.5 31.5t-101 13q-131 0 -220 -77.5t-112 -213.5l-59 -344h368l-12 -62
h-369l-88 -501q-8 -43 -21 -77t-26.5 -51.5t-26 -29t-20.5 -14.5l-8 -3h788l-10 -61h-973l11 61h30q85 0 131.5 41.5t63.5 133.5l88 501h-154l13 62h153z" />
    <glyph glyph-name="currency" unicode="&#xa4;" horiz-adv-x="1392" 
d="M977 1372h-414l-137 -778h520q211 0 329 121.5t118 318.5q0 149 -108 243.5t-308 94.5zM514 1434h463q123 0 216.5 -32t149.5 -88t83.5 -126.5t27.5 -153.5q0 -216 -144.5 -359t-363.5 -143h-530l-37 -204h543l-11 -62h-542l-47 -266h-62l47 266h-184l10 62h184l37 204
h-184l10 62h185z" />
    <glyph glyph-name="yen" unicode="&#xa5;" 
d="M297 451l12 61h348l-411 922h69l381 -856l684 856h74l-735 -922h338l-13 -61h-337l-33 -185h338l-11 -61h-337l-35 -205h-62l35 205h-348l10 61h348l33 185h-348z" />
    <glyph glyph-name="brokenbar" unicode="&#xa6;" horiz-adv-x="552" 
d="M430 1536v-748h-61v748h61zM430 543v-748h-61v748h61z" />
    <glyph glyph-name="section" unicode="&#xa7;" horiz-adv-x="1218" 
d="M1171 698q0 -100 -74.5 -169t-203.5 -91q174 -78 174 -215q0 -110 -96.5 -187t-280.5 -77q-85 0 -156 16t-116.5 40.5t-80.5 56t-53.5 60.5t-30 56.5t-14.5 41t-3 16.5h65q0 -3 2.5 -13.5t13 -32t26.5 -44.5t47.5 -47.5t71.5 -44t102.5 -32t137.5 -12.5q153 0 228.5 56
t75.5 141q0 53 -38.5 95t-99.5 70t-135 53t-148.5 52t-135.5 58.5t-99.5 80t-38.5 109.5q0 104 78.5 171t200.5 89q-83 41 -128.5 91t-45.5 120q0 108 101.5 188.5t279.5 80.5q61 0 115 -9t93.5 -24.5t73 -35.5t55.5 -42t40 -44.5t28 -42.5t16.5 -35.5t8.5 -24.5l2 -9h-66
q-1 4 -3.5 11.5t-14 29t-27 40.5t-46 43t-68 41t-95 28.5t-125.5 11.5q-148 0 -227.5 -60t-79.5 -143q0 -51 38.5 -91.5t99.5 -68t135 -52t148 -51.5t135 -58.5t99.5 -80.5t38.5 -110zM666 963q-293 -49 -293 -220q0 -31 13.5 -58t40.5 -48.5t57.5 -39t75 -35t81.5 -30.5
t89.5 -30.5t86.5 -30.5q147 25 219 78t72 141q0 36 -20 67t-49.5 52.5t-78.5 44t-90.5 37t-103.5 36t-100 36.5z" />
    <glyph glyph-name="dieresis" unicode="&#xa8;" horiz-adv-x="600" 
d="M356 1290q-24 0 -41.5 15.5t-17.5 40.5q0 29 19 48t44 19t42.5 -15t17.5 -40q0 -29 -19.5 -48.5t-44.5 -19.5zM700 1290q-24 0 -41.5 15.5t-17.5 40.5q0 28 19.5 47.5t44.5 19.5q24 0 41.5 -15t17.5 -40q0 -29 -19.5 -48.5t-44.5 -19.5z" />
    <glyph glyph-name="copyright" unicode="&#xa9;" horiz-adv-x="1720" 
d="M993 -41q-151 0 -287.5 58.5t-235 159t-156.5 241.5t-58 299t58 299t156.5 241.5t235 159t287.5 58.5q202 0 371.5 -99t268 -273.5t98.5 -385.5t-98.5 -385.5t-268 -273.5t-371.5 -99zM993 1413q-187 0 -342 -90t-244.5 -250t-89.5 -356t89.5 -356t244.5 -250.5
t342 -90.5t342 90.5t244.5 250.5t89.5 356t-89.5 356t-244.5 250t-342 90zM1268 573h63q-3 -9 -10 -24t-34.5 -54t-61 -68.5t-93 -54t-128.5 -24.5q-148 0 -248.5 104.5t-100.5 264.5t100.5 264t248.5 104q50 0 95 -12.5t76.5 -32.5t58 -44t43 -47.5t28 -43.5t15.5 -33
l5 -12h-65q-2 7 -7.5 18t-26.5 39t-47.5 50t-73 39.5t-101.5 17.5q-124 0 -205.5 -85t-81.5 -222t81.5 -222t205.5 -85q55 0 102 17t75.5 41t49 47.5t29.5 40.5z" />
    <glyph glyph-name="ordfeminine" unicode="&#xaa;" horiz-adv-x="837" 
d="M358 952q0 -61 50 -97t135 -36q98 0 175.5 73.5t96.5 182.5l4 21h-289q-81 0 -126.5 -41t-45.5 -103zM657 1454q128 0 193 -77t43 -199l-72 -410h-61l22 123q-4 -5 -11.5 -14t-32 -32t-52 -40.5t-69.5 -32t-85 -14.5q-111 0 -173 56t-62 138q0 36 14.5 71t44 65.5
t80.5 49.5t117 19h276l5 25q16 97 -31 154t-154 57q-44 0 -82.5 -13.5t-62.5 -33t-41 -39.5t-24 -33l-7 -14h-70q4 8 11 21t33.5 46.5t57.5 59t83 46.5t110 21z" />
    <glyph glyph-name="guillemotleft" unicode="&#xab;" horiz-adv-x="1017" 
d="M174 502l481 461l35 -43l-440 -422l299 -418l-47 -39zM543 502l481 461l35 -43l-441 -422l300 -418l-48 -39z" />
    <glyph glyph-name="logicalnot" unicode="&#xac;" horiz-adv-x="962" 
d="M901 379v235h-676v62h738v-297h-62z" />
    <glyph glyph-name="uni00AD" unicode="&#xad;" horiz-adv-x="962" 
d="M942 553h-717l11 61h716z" />
    <glyph glyph-name="registered" unicode="&#xae;" 
d="M1270 963q0 -215 -148.5 -363.5t-363.5 -148.5t-363.5 148.5t-148.5 363.5t148.5 363.5t363.5 148.5t363.5 -148.5t148.5 -363.5zM758 512q192 0 321 129.5t129 321.5t-129 321t-321 129t-321.5 -129t-129.5 -321t129.5 -321.5t321.5 -129.5zM893 717l-111 184h-137v-184
h-61v491h204q82 0 133.5 -44.5t51.5 -108.5q0 -48 -32.5 -88.5t-92.5 -57.5l115 -192h-70zM788 1147h-143v-184h143q59 0 91 26t32 66t-32 66t-91 26z" />
    <glyph glyph-name="macron" unicode="&#xaf;" horiz-adv-x="604" 
d="M297 1341l10 62h481l-10 -62h-481z" />
    <glyph glyph-name="degree" unicode="&#xb0;" horiz-adv-x="696" 
d="M256 1178q0 107 74.5 181.5t181.5 74.5t181.5 -74.5t74.5 -181.5t-74.5 -181.5t-181.5 -74.5t-181.5 74.5t-74.5 181.5zM707 1178q0 85 -55 139.5t-140 54.5t-140 -54.5t-55 -139.5t55 -140t140 -55t140 55t55 140z" />
    <glyph glyph-name="plusminus" unicode="&#xb1;" horiz-adv-x="983" 
d="M635 543v-379h358v-62h-778v62h358v379h-358v61h358v379h62v-379h358v-61h-358z" />
    <glyph glyph-name="twosuperior" unicode="&#xb2;" horiz-adv-x="684" 
d="M635 1174l-307 -170h440l-10 -62h-543l10 62l195 110q24 13 65 35.5t65 35.5t58.5 34t55.5 37t45 39t36.5 45t21.5 49t9 57q0 66 -49 108.5t-137 42.5q-45 0 -84 -16t-62.5 -38.5t-40.5 -44.5t-23 -38l-7 -16h-62q2 4 5 12t15 30.5t26 42.5t38.5 45t52 43t66 30t80.5 12
q111 0 177.5 -61t66.5 -148q0 -166 -203 -276z" />
    <glyph glyph-name="threesuperior" unicode="&#xb3;" horiz-adv-x="684" 
d="M512 1372h29q121 0 188.5 -55.5t67.5 -147.5q0 -110 -75 -178.5t-196 -68.5q-52 0 -96 11.5t-72 29t-49.5 39.5t-33 44t-18.5 39.5t-9 28.5l-2 12h67q1 -6 3.5 -15.5t17 -34t35.5 -43.5t63.5 -34.5t97.5 -15.5q92 0 147.5 50.5t55.5 127.5q0 63 -49 106.5t-143 43.5h-129
l10 61l315 205h-381l11 61h471l-11 -61z" />
    <glyph glyph-name="acute" unicode="&#xb4;" horiz-adv-x="417" 
d="M528 1423h84l-274 -276h-62z" />
    <glyph glyph-name="mu" unicode="&#xb5;" horiz-adv-x="1185" 
d="M590 -20q-124 0 -214.5 61t-107.5 154l-104 -584h-62l244 1393h62l-103 -574q-30 -166 47 -277.5t242 -111.5q150 0 262.5 99t142.5 268l105 596h61l-176 -1004h-61l30 174q-58 -93 -155 -143.5t-213 -50.5z" />
    <glyph glyph-name="paragraph" unicode="&#xb6;" horiz-adv-x="696" 
d="M246 1106q0 141 101 234.5t267 93.5h205v-62h-164v-1761h-61v1167q-152 0 -250 94t-98 234z" />
    <glyph glyph-name="periodcentered" unicode="&#xb7;" horiz-adv-x="565" 
d="M373 471q-25 0 -40.5 16t-15.5 39q0 32 21 50t49 18q25 0 40 -16t15 -39q0 -32 -20.5 -50t-48.5 -18z" />
    <glyph glyph-name="cedilla" unicode="&#xb8;" horiz-adv-x="452" 
d="M285 10l-90 -129q68 -9 106.5 -48.5t38.5 -102.5q0 -86 -55 -138.5t-146 -52.5q-44 0 -81 10.5t-52 21.5l-16 11l10 62q6 -5 17.5 -12t49.5 -19t80 -12q60 0 96 34.5t36 90.5q0 46 -35 73t-103 27h-49l125 184h68z" />
    <glyph glyph-name="onesuperior" unicode="&#xb9;" horiz-adv-x="655" 
d="M246 942l10 62h225l101 569l-213 -113l10 66l215 112h61l-112 -634h205l-11 -62h-491z" />
    <glyph glyph-name="ordmasculine" unicode="&#xba;" horiz-adv-x="854" 
d="M637 1454q131 0 215 -85.5t84 -221.5q0 -168 -107.5 -278.5t-253.5 -110.5q-131 0 -215 85.5t-84 221.5q0 168 107.5 278.5t253.5 110.5zM582 819q120 0 207.5 91t87.5 237q0 109 -68.5 177.5t-177.5 68.5q-120 0 -207.5 -91t-87.5 -237q0 -109 68.5 -177.5t177.5 -68.5z
" />
    <glyph glyph-name="guillemotright" unicode="&#xbb;" horiz-adv-x="1017" 
d="M1028 502l-481 -461l-35 43l440 422l-299 418l47 39zM659 502l-481 -461l-35 43l441 422l-299 418l47 39z" />
    <glyph glyph-name="onequarter" unicode="&#xbc;" horiz-adv-x="1536" 
d="M1309 0h-62l33 184h-379l10 62l357 450h69l-360 -450h313l31 174h61l-30 -174h112l-10 -62h-113zM1524 1434l-1143 -1434h-72l1143 1434h72zM236 737l10 62h225l100 569l-213 -113l11 66l215 113h61l-113 -635h205l-10 -62h-491z" />
    <glyph glyph-name="onehalf" unicode="&#xbd;" horiz-adv-x="1605" 
d="M1522 1434l-1143 -1434h-72l1143 1434h72zM233 737l11 62h225l100 569l-213 -113l11 66l215 113h61l-113 -635h205l-10 -62h-492zM1341 231l-307 -170h441l-11 -61h-542l10 61l194 111q24 13 64.5 35t65 35.5t59 34.5t55.5 37t45 39t37 45t22 49t9 57q0 66 -49.5 108.5
t-137.5 42.5q-45 0 -84 -16t-62.5 -38.5t-40.5 -44.5t-23 -38l-7 -16h-61q3 9 9.5 23.5t30.5 51.5t53.5 65.5t80 51.5t108.5 23q111 0 177.5 -61t66.5 -148q0 -167 -203 -277z" />
    <glyph glyph-name="threequarters" unicode="&#xbe;" horiz-adv-x="1574" 
d="M530 1167h29q121 0 188.5 -55t67.5 -147q0 -111 -74.5 -179.5t-195.5 -68.5q-72 0 -127 21t-83 51t-45.5 60.5t-21.5 51.5l-4 21h68q1 -6 3.5 -15.5t17 -34.5t35.5 -44t63.5 -34.5t97.5 -15.5q92 0 147.5 50.5t55.5 127.5q0 63 -49.5 106.5t-143.5 43.5h-129l10 61
l316 205h-381l10 62h471l-10 -62zM1348 0h-62l33 184h-379l10 62l357 450h69l-360 -450h313l31 174h61l-30 -174h112l-10 -62h-113zM1563 1434l-1143 -1434h-72l1143 1434h72z" />
    <glyph glyph-name="questiondown" unicode="&#xbf;" horiz-adv-x="1036" 
d="M143 -72q0 -109 100.5 -192.5t260.5 -83.5q155 0 270.5 90.5t179.5 237.5h62q-23 -72 -68 -139t-109 -124.5t-152.5 -92t-186.5 -34.5q-187 0 -302.5 99.5t-115.5 234.5q0 80 28 141t74 100.5t102 72t115 66t110 72t90 99.5t52 139h62q-12 -77 -43.5 -139t-73.5 -101.5
t-93 -75t-101 -60t-97.5 -55.5t-83.5 -63t-58 -81.5t-22 -110.5zM752 1024q25 0 40 -16t15 -39q0 -32 -21 -50t-49 -18q-25 0 -40 16t-15 39q0 32 21 50t49 18z" />
    <glyph glyph-name="Agrave" unicode="&#xc0;" horiz-adv-x="1361" 
d="M1247 0l-47 532h-809l-235 -532h-64l631 1434h461l127 -1434h-64zM1126 1372h-366l-344 -778h780zM758 1894h84l153 -276h-61z" />
    <glyph glyph-name="Aacute" unicode="&#xc1;" horiz-adv-x="1361" 
d="M1247 0l-47 532h-809l-235 -532h-64l631 1434h461l127 -1434h-64zM1126 1372h-366l-344 -778h780zM1204 1894h84l-274 -276h-62z" />
    <glyph glyph-name="Acircumflex" unicode="&#xc2;" horiz-adv-x="1361" 
d="M1247 0l-47 532h-809l-235 -532h-64l631 1434h461l127 -1434h-64zM1126 1372h-366l-344 -778h780zM1069 1905l164 -287h-66l-131 225h-28l-209 -225h-78l266 287h82z" />
    <glyph glyph-name="Atilde" unicode="&#xc3;" horiz-adv-x="1361" 
d="M1247 0l-47 532h-809l-235 -532h-64l631 1434h461l127 -1434h-64zM1126 1372h-366l-344 -778h780zM842 1782q-79 0 -97 -92l-8 -41h-61l8 41q13 69 60.5 111t109.5 42q41 0 77 -22.5t57 -49t49.5 -49t56.5 -22.5q80 0 98 92l8 41h62l-9 -41q-13 -69 -60.5 -111.5
t-109.5 -42.5q-41 0 -77 22.5t-57.5 49.5t-50 49.5t-56.5 22.5z" />
    <glyph glyph-name="Adieresis" unicode="&#xc4;" horiz-adv-x="1361" 
d="M1247 0l-47 532h-809l-235 -532h-64l631 1434h461l127 -1434h-64zM1126 1372h-366l-344 -778h780zM811 1679q-24 0 -41.5 15.5t-17.5 40.5q0 29 19 48t44 19q24 0 41.5 -15t17.5 -40q0 -29 -19 -48.5t-44 -19.5zM1155 1679q-24 0 -41.5 15.5t-17.5 40.5q0 29 19 48t44 19
t42.5 -15t17.5 -40q0 -29 -19.5 -48.5t-44.5 -19.5z" />
    <glyph glyph-name="Aring" unicode="&#xc5;" horiz-adv-x="1361" 
d="M1247 0l-47 532h-809l-235 -532h-64l631 1434h461l127 -1434h-64zM1126 1372h-366l-344 -778h780zM995 1946q79 0 131 -51t52 -126q0 -86 -63.5 -149.5t-145.5 -63.5q-79 0 -131 51t-52 126q0 86 63.5 149.5t145.5 63.5zM969 1618q60 0 102.5 41.5t42.5 103.5
q0 52 -33 86.5t-86 34.5q-60 0 -102.5 -41.5t-42.5 -103.5q0 -52 33 -86.5t86 -34.5z" />
    <glyph glyph-name="AE" unicode="&#xc6;" horiz-adv-x="1941" 
d="M1044 61h809l-10 -61h-870l94 532h-676l-235 -532h-64l631 1434h1372l-10 -62h-809l-109 -614h656l-11 -62h-655zM760 1372l-344 -778h661l137 778h-454z" />
    <glyph glyph-name="Ccedilla" unicode="&#xc7;" horiz-adv-x="1642" 
d="M911 20q108 0 207 33.5t170 85t129 117t92 124.5t52 112h65q-35 -100 -99 -192t-153 -170t-209.5 -124.5t-253.5 -46.5h-59l-53 -78q68 -9 106.5 -48.5t38.5 -102.5q0 -86 -55 -138.5t-146 -52.5q-44 0 -81 10.5t-52 21.5l-16 11l10 62q6 -5 17.5 -12t50 -19t80.5 -12
q60 0 95.5 34.5t35.5 90.5q0 46 -35 73t-103 27h-49l97 141q-251 35 -399 212.5t-148 445.5q0 181 63 340t169.5 270t251.5 175.5t304 64.5q127 0 236.5 -39.5t188.5 -108t131 -159t73 -195.5h-64q-41 190 -194.5 315t-370.5 125q-148 0 -281.5 -59t-232 -161.5t-156 -250.5
t-57.5 -317q0 -269 168 -437t436 -168z" />
    <glyph glyph-name="Egrave" unicode="&#xc8;" horiz-adv-x="1245" 
d="M297 61h860l-10 -61h-922l252 1434h922l-10 -62h-861l-108 -614h706l-10 -62h-706zM768 1894h84l154 -276h-62z" />
    <glyph glyph-name="Eacute" unicode="&#xc9;" horiz-adv-x="1245" 
d="M297 61h860l-10 -61h-922l252 1434h922l-10 -62h-861l-108 -614h706l-10 -62h-706zM1143 1894h84l-275 -276h-61z" />
    <glyph glyph-name="Ecircumflex" unicode="&#xca;" horiz-adv-x="1245" 
d="M297 61h860l-10 -61h-922l252 1434h922l-10 -62h-861l-108 -614h706l-10 -62h-706zM1044 1905l164 -287h-65l-131 225h-29l-209 -225h-78l267 287h81z" />
    <glyph glyph-name="Edieresis" unicode="&#xcb;" horiz-adv-x="1245" 
d="M297 61h860l-10 -61h-922l252 1434h922l-10 -62h-861l-108 -614h706l-10 -62h-706zM786 1679q-24 0 -41.5 15.5t-17.5 40.5q0 29 19.5 48t44.5 19q24 0 41.5 -15t17.5 -40q0 -29 -19.5 -48.5t-44.5 -19.5zM1130 1679q-24 0 -41.5 15.5t-17.5 40.5q0 29 19.5 48t44.5 19
q24 0 41.5 -15t17.5 -40q0 -29 -19.5 -48.5t-44.5 -19.5z" />
    <glyph glyph-name="Igrave" unicode="&#xcc;" horiz-adv-x="507" 
d="M539 1434l-252 -1434h-62l252 1434h62zM315 1894h84l154 -276h-61z" />
    <glyph glyph-name="Iacute" unicode="&#xcd;" horiz-adv-x="507" 
d="M539 1434l-252 -1434h-62l252 1434h62zM754 1894h84l-275 -276h-61z" />
    <glyph glyph-name="Icircumflex" unicode="&#xce;" horiz-adv-x="507" 
d="M539 1434l-252 -1434h-62l252 1434h62zM614 1905l164 -287h-65l-131 225h-29l-209 -225h-78l266 287h82z" />
    <glyph glyph-name="Idieresis" unicode="&#xcf;" horiz-adv-x="507" 
d="M539 1434l-252 -1434h-62l252 1434h62zM377 1679q-24 0 -42 15.5t-18 40.5q0 29 19.5 48t44.5 19q24 0 41.5 -15t17.5 -40q0 -29 -19 -48.5t-44 -19.5zM721 1679q-24 0 -41.5 15.5t-17.5 40.5q0 29 19 48t44 19q24 0 41.5 -15t17.5 -40q0 -29 -19 -48.5t-44 -19.5z" />
    <glyph glyph-name="Eth" unicode="&#xd0;" horiz-adv-x="1509" 
d="M741 0h-491l119 676h-164l10 61h164l123 697h362q144 0 266.5 -47.5t208 -131t133.5 -201t48 -253.5q0 -171 -60 -320t-164 -254.5t-248 -166t-307 -60.5zM322 61h419q203 0 366.5 94t257 263t93.5 381q0 255 -163.5 414t-430.5 159h-311l-113 -635h389l-10 -61h-389z
" />
    <glyph glyph-name="Ntilde" unicode="&#xd1;" horiz-adv-x="1511" 
d="M1290 0h-92l-670 1376l-241 -1376h-62l252 1434h92l670 -1377l242 1377h61zM934 1782q-78 0 -96 -92l-9 -41h-61l8 41q13 69 60.5 111t109.5 42q41 0 77 -22.5t57 -49t49.5 -49t56.5 -22.5q80 0 98 92l8 41h62l-8 -41q-13 -69 -60.5 -111.5t-109.5 -42.5q-34 0 -63.5 15
t-50.5 36t-40.5 42t-42 36t-45.5 15z" />
    <glyph glyph-name="Ograve" unicode="&#xd2;" horiz-adv-x="1679" 
d="M1024 1475q292 0 473.5 -183.5t181.5 -482.5q0 -180 -63 -339.5t-168.5 -270.5t-248 -175.5t-298.5 -64.5q-292 0 -473.5 183.5t-181.5 482.5q0 180 63 339.5t168.5 270.5t248 175.5t298.5 64.5zM901 20q145 0 276 59t228.5 162t155 251t57.5 317q0 268 -166 436
t-428 168q-145 0 -276 -59t-228.5 -161.5t-155 -250.5t-57.5 -317q0 -268 166 -436.5t428 -168.5zM850 1894h84l153 -276h-61z" />
    <glyph glyph-name="Oacute" unicode="&#xd3;" horiz-adv-x="1679" 
d="M1024 1475q292 0 473.5 -183.5t181.5 -482.5q0 -180 -63 -339.5t-168.5 -270.5t-248 -175.5t-298.5 -64.5q-292 0 -473.5 183.5t-181.5 482.5q0 180 63 339.5t168.5 270.5t248 175.5t298.5 64.5zM901 20q145 0 276 59t228.5 162t155 251t57.5 317q0 268 -166 436
t-428 168q-145 0 -276 -59t-228.5 -161.5t-155 -250.5t-57.5 -317q0 -268 166 -436.5t428 -168.5zM1276 1894h84l-275 -276h-61z" />
    <glyph glyph-name="Ocircumflex" unicode="&#xd4;" horiz-adv-x="1679" 
d="M1024 1475q292 0 473.5 -183.5t181.5 -482.5q0 -180 -63 -339.5t-168.5 -270.5t-248 -175.5t-298.5 -64.5q-292 0 -473.5 183.5t-181.5 482.5q0 180 63 339.5t168.5 270.5t248 175.5t298.5 64.5zM901 20q145 0 276 59t228.5 162t155 251t57.5 317q0 268 -166 436
t-428 168q-145 0 -276 -59t-228.5 -161.5t-155 -250.5t-57.5 -317q0 -268 166 -436.5t428 -168.5zM1167 1905l164 -287h-65l-131 225h-29l-209 -225h-78l266 287h82z" />
    <glyph glyph-name="Otilde" unicode="&#xd5;" horiz-adv-x="1679" 
d="M1024 1475q292 0 473.5 -183.5t181.5 -482.5q0 -180 -63 -339.5t-168.5 -270.5t-248 -175.5t-298.5 -64.5q-292 0 -473.5 183.5t-181.5 482.5q0 180 63 339.5t168.5 270.5t248 175.5t298.5 64.5zM901 20q145 0 276 59t228.5 162t155 251t57.5 317q0 268 -166 436
t-428 168q-145 0 -276 -59t-228.5 -161.5t-155 -250.5t-57.5 -317q0 -268 166 -436.5t428 -168.5zM954 1782q-78 0 -96 -92l-8 -41h-62l9 41q13 69 60.5 111t109.5 42q41 0 77 -22.5t56.5 -49t49 -49t56.5 -22.5q81 0 99 92l8 41h61l-8 -41q-13 -69 -60.5 -111.5
t-109.5 -42.5q-34 0 -63.5 15t-50.5 36t-40.5 42t-42 36t-45.5 15z" />
    <glyph glyph-name="Odieresis" unicode="&#xd6;" horiz-adv-x="1679" 
d="M1024 1475q292 0 473.5 -183.5t181.5 -482.5q0 -180 -63 -339.5t-168.5 -270.5t-248 -175.5t-298.5 -64.5q-292 0 -473.5 183.5t-181.5 482.5q0 180 63 339.5t168.5 270.5t248 175.5t298.5 64.5zM901 20q145 0 276 59t228.5 162t155 251t57.5 317q0 268 -166 436
t-428 168q-145 0 -276 -59t-228.5 -161.5t-155 -250.5t-57.5 -317q0 -268 166 -436.5t428 -168.5zM920 1679q-24 0 -42 15.5t-18 40.5q0 29 19 48t45 19q24 0 41.5 -15t17.5 -40q0 -29 -19 -48.5t-44 -19.5zM1264 1679q-24 0 -42 15.5t-18 40.5q0 29 19 48t45 19
q24 0 41.5 -15t17.5 -40q0 -29 -19 -48.5t-44 -19.5z" />
    <glyph glyph-name="multiply" unicode="&#xd7;" horiz-adv-x="974" 
d="M889 260l-289 289l-289 -289l-45 45l289 289l-289 289l45 45l289 -289l289 289l45 -45l-289 -289l289 -289z" />
    <glyph glyph-name="Oslash" unicode="&#xd8;" horiz-adv-x="1679" 
d="M160 76l190 162q-104 159 -104 387q0 180 63 339.5t168.5 270.5t248 175.5t298.5 64.5q162 0 294.5 -60.5t221.5 -171.5l236 201l-11 -86l-192 -162q106 -165 106 -387q0 -180 -63 -339.5t-168.5 -270.5t-248 -175.5t-298.5 -64.5q-164 0 -296.5 59.5t-219.5 169.5
l-235 -198zM307 625q0 -198 94 -346l1088 923q-79 101 -199 156t-266 55q-145 0 -276 -59t-228.5 -161.5t-155 -250.5t-57.5 -317zM901 20q145 0 276 59t228.5 162t155 251t57.5 317q0 199 -94 344l-1090 -922q80 -101 200.5 -156t266.5 -55z" />
    <glyph glyph-name="Ugrave" unicode="&#xd9;" horiz-adv-x="1454" 
d="M1516 1434l-168 -955q-42 -245 -195 -382.5t-371 -137.5q-109 0 -198 30.5t-149 85.5t-98.5 131.5t-46 168t8.5 196.5l152 863h61l-152 -869q-43 -250 71 -397.5t351 -147.5q197 0 331 119t173 344l168 951h62zM799 1894h84l153 -276h-61z" />
    <glyph glyph-name="Uacute" unicode="&#xda;" horiz-adv-x="1454" 
d="M1516 1434l-168 -955q-42 -245 -195 -382.5t-371 -137.5q-109 0 -198 30.5t-149 85.5t-98.5 131.5t-46 168t8.5 196.5l152 863h61l-152 -869q-43 -250 71 -397.5t351 -147.5q197 0 331 119t173 344l168 951h62zM1184 1894h84l-275 -276h-61z" />
    <glyph glyph-name="Ucircumflex" unicode="&#xdb;" horiz-adv-x="1454" 
d="M1516 1434l-168 -955q-42 -245 -195 -382.5t-371 -137.5q-109 0 -198 30.5t-149 85.5t-98.5 131.5t-46 168t8.5 196.5l152 863h61l-152 -869q-43 -250 71 -397.5t351 -147.5q197 0 331 119t173 344l168 951h62zM1096 1905l164 -287h-66l-131 225h-29l-209 -225h-77
l266 287h82z" />
    <glyph glyph-name="Udieresis" unicode="&#xdc;" horiz-adv-x="1454" 
d="M1516 1434l-168 -955q-42 -245 -195 -382.5t-371 -137.5q-109 0 -198 30.5t-149 85.5t-98.5 131.5t-46 168t8.5 196.5l152 863h61l-152 -869q-43 -250 71 -397.5t351 -147.5q197 0 331 119t173 344l168 951h62zM838 1679q-24 0 -42 15.5t-18 40.5q0 29 19 48t45 19
q24 0 41.5 -15t17.5 -40q0 -29 -19 -48.5t-44 -19.5zM1182 1679q-24 0 -42 15.5t-18 40.5q0 29 19 48t45 19q24 0 41.5 -15t17.5 -40q0 -29 -19 -48.5t-44 -19.5z" />
    <glyph glyph-name="Yacute" unicode="&#xdd;" 
d="M657 512l-411 922h69l381 -856l684 856h74l-735 -922l-90 -512h-62zM1065 1894h84l-275 -276h-61z" />
    <glyph glyph-name="Thorn" unicode="&#xde;" horiz-adv-x="1458" 
d="M1034 1065h-559l-117 -655h656q190 0 296.5 97.5t106.5 262.5q0 129 -96.5 212t-286.5 83zM485 1126h549q212 0 328.5 -102t116.5 -252q0 -184 -127.5 -304t-337.5 -120h-666l-61 -348h-62l252 1434h62z" />
    <glyph glyph-name="germandbls" unicode="&#xdf;" horiz-adv-x="1165" 
d="M696 737h-45l13 62h77q135 0 233.5 93t98.5 220q0 117 -89 199t-212 82q-130 0 -225 -78.5t-117 -202.5l-194 -1112h-62l195 1118q26 151 136 243.5t267 92.5q155 0 259 -94.5t104 -239.5q0 -60 -15 -111.5t-39 -86t-53 -63t-58.5 -44.5t-53.5 -26.5t-39 -14.5l-15 -4
q116 -33 185 -121.5t69 -212.5q0 -189 -125 -312.5t-336 -123.5h-133l10 61h123q178 0 289 104t111 269q0 131 -97 217t-262 86z" />
    <glyph glyph-name="agrave" unicode="&#xe0;" horiz-adv-x="1271" 
d="M635 -20q-196 0 -318 132t-122 328q0 124 43 233.5t115 186t169.5 120.5t204.5 44q151 0 260.5 -80.5t153.5 -214.5l49 275h61l-176 -1004h-61l33 190q-74 -99 -182 -154.5t-230 -55.5zM635 41q95 0 181.5 39t150.5 106.5t101.5 165.5t37.5 211q0 175 -108 287.5
t-271 112.5q-127 0 -234.5 -66t-172 -186.5t-64.5 -270.5q0 -175 108 -287t271 -112zM573 1485h84l154 -277h-61z" />
    <glyph glyph-name="aacute" unicode="&#xe1;" horiz-adv-x="1271" 
d="M635 -20q-196 0 -318 132t-122 328q0 124 43 233.5t115 186t169.5 120.5t204.5 44q151 0 260.5 -80.5t153.5 -214.5l49 275h61l-176 -1004h-61l33 190q-74 -99 -182 -154.5t-230 -55.5zM635 41q95 0 181.5 39t150.5 106.5t101.5 165.5t37.5 211q0 175 -108 287.5
t-271 112.5q-127 0 -234.5 -66t-172 -186.5t-64.5 -270.5q0 -175 108 -287t271 -112zM1010 1485h84l-275 -277h-61z" />
    <glyph glyph-name="acircumflex" unicode="&#xe2;" horiz-adv-x="1271" 
d="M635 -20q-196 0 -318 132t-122 328q0 124 43 233.5t115 186t169.5 120.5t204.5 44q151 0 260.5 -80.5t153.5 -214.5l49 275h61l-176 -1004h-61l33 190q-74 -99 -182 -154.5t-230 -55.5zM635 41q95 0 181.5 39t150.5 106.5t101.5 165.5t37.5 211q0 175 -108 287.5
t-271 112.5q-127 0 -234.5 -66t-172 -186.5t-64.5 -270.5q0 -175 108 -287t271 -112zM901 1495l164 -287h-66l-131 226h-28l-209 -226h-78l266 287h82z" />
    <glyph glyph-name="atilde" unicode="&#xe3;" horiz-adv-x="1271" 
d="M635 -20q-196 0 -318 132t-122 328q0 124 43 233.5t115 186t169.5 120.5t204.5 44q151 0 260.5 -80.5t153.5 -214.5l49 275h61l-176 -1004h-61l33 190q-74 -99 -182 -154.5t-230 -55.5zM635 41q95 0 181.5 39t150.5 106.5t101.5 165.5t37.5 211q0 175 -108 287.5
t-271 112.5q-127 0 -234.5 -66t-172 -186.5t-64.5 -270.5q0 -175 108 -287t271 -112zM688 1362q-78 0 -96 -92l-8 -41h-62l8 41q13 69 60.5 111t109.5 42q41 0 77 -22.5t57 -49t49.5 -49t56.5 -22.5q80 0 98 92l9 41h61l-8 -41q-13 -69 -60.5 -111t-109.5 -42
q-41 0 -77.5 22.5t-57.5 49t-50 49t-57 22.5z" />
    <glyph glyph-name="adieresis" unicode="&#xe4;" horiz-adv-x="1271" 
d="M635 -20q-196 0 -318 132t-122 328q0 124 43 233.5t115 186t169.5 120.5t204.5 44q151 0 260.5 -80.5t153.5 -214.5l49 275h61l-176 -1004h-61l33 190q-74 -99 -182 -154.5t-230 -55.5zM635 41q95 0 181.5 39t150.5 106.5t101.5 165.5t37.5 211q0 175 -108 287.5
t-271 112.5q-127 0 -234.5 -66t-172 -186.5t-64.5 -270.5q0 -175 108 -287t271 -112zM653 1270q-24 0 -41.5 15t-17.5 40q0 29 19 48.5t44 19.5q24 0 42 -15.5t18 -40.5q0 -29 -19.5 -48t-44.5 -19zM997 1270q-24 0 -41.5 15t-17.5 40q0 29 19 48.5t44 19.5q24 0 42 -15.5
t18 -40.5q0 -29 -19.5 -48t-44.5 -19z" />
    <glyph glyph-name="aring" unicode="&#xe5;" horiz-adv-x="1271" 
d="M635 -20q-196 0 -318 132t-122 328q0 124 43 233.5t115 186t169.5 120.5t204.5 44q151 0 260.5 -80.5t153.5 -214.5l49 275h61l-176 -1004h-61l33 190q-74 -99 -182 -154.5t-230 -55.5zM635 41q95 0 181.5 39t150.5 106.5t101.5 165.5t37.5 211q0 175 -108 287.5
t-271 112.5q-127 0 -234.5 -66t-172 -186.5t-64.5 -270.5q0 -175 108 -287t271 -112zM823 1597q79 0 131 -50.5t52 -125.5q0 -86 -63.5 -149.5t-145.5 -63.5q-79 0 -131 50.5t-52 125.5q0 86 63.5 149.5t145.5 63.5zM797 1270q60 0 102.5 41.5t42.5 103.5q0 52 -33 86.5
t-86 34.5q-60 0 -102.5 -41.5t-42.5 -103.5q0 -52 33 -86.5t86 -34.5z" />
    <glyph glyph-name="ae" unicode="&#xe6;" horiz-adv-x="1998" 
d="M543 -20q-167 0 -268 76.5t-101 199.5q0 135 102 226t263 91h495l13 64q29 145 -55.5 235.5t-264.5 90.5q-61 0 -115 -14t-92 -36.5t-70 -50t-51.5 -55t-33.5 -50t-19 -36.5l-6 -14h-66q3 7 8 18t24 44t42 63t62 66.5t82.5 63t105.5 44.5t129 18q167 0 266 -71.5
t117 -192.5q73 121 194 192.5t252 71.5q97 0 178 -38t133.5 -102t81.5 -145.5t29 -169.5l-2 -57h-893q-2 -32 -2 -63q0 -177 111 -292.5t274 -115.5q79 0 150 28.5t116 69t78.5 81t48.5 68.5l15 29h68q-16 -39 -44.5 -82t-73.5 -89.5t-97.5 -82.5t-122 -59.5t-142.5 -23.5
q-155 0 -274 96.5t-156 247.5q-5 -13 -12.5 -29t-28.5 -52t-46 -68t-66.5 -69t-87.5 -63.5t-111 -44.5t-137 -18zM236 258q0 -99 86.5 -158t220.5 -59q112 0 212.5 49t169.5 139.5t87 204.5l12 78h-492q-135 0 -215.5 -72t-80.5 -182zM1917 573q0 173 -106.5 281.5
t-258.5 108.5q-167 0 -288.5 -110.5t-169.5 -279.5h823z" />
    <glyph glyph-name="ccedilla" unicode="&#xe7;" horiz-adv-x="1173" 
d="M655 -20h-10l-67 -99q68 -9 106.5 -48.5t38.5 -102.5q0 -86 -55 -138.5t-146 -52.5q-44 0 -81 10.5t-53 21.5l-15 11l10 62q6 -5 17.5 -12t49.5 -19t80 -12q60 0 96 34.5t36 90.5q0 46 -35 73t-103 27h-49l107 160q-170 25 -278.5 152t-108.5 302q0 123 46 233t122 186
t175 120.5t203 44.5q75 0 139.5 -18.5t108 -48.5t78 -66t54 -72t32 -66t17.5 -49l4 -18h-66q-1 6 -4 16t-15 38.5t-28.5 55t-46.5 58.5t-66 54.5t-90 38.5t-117 16q-93 0 -180.5 -39t-155 -106.5t-108.5 -166.5t-41 -211q0 -173 117 -286t282 -113q63 0 122 17.5t102 45.5
t80.5 61.5t62.5 67.5t42.5 62t25.5 45l8 18h63q-3 -8 -9 -21.5t-28.5 -53t-48.5 -75t-70 -79t-92.5 -75t-116.5 -53t-141 -21.5z" />
    <glyph glyph-name="egrave" unicode="&#xe8;" horiz-adv-x="1214" 
d="M195 440q0 101 31.5 194t85 162.5t123 121.5t148.5 79t158 27q196 0 324.5 -133t128.5 -332l-2 -57h-934q-2 -22 -2 -53q0 -178 114.5 -293t291.5 -115q61 0 118 15t98.5 39.5t78 54t60 59t41 54t24.5 39.5l8 15h67q-16 -40 -44.5 -82.5t-74.5 -89t-100.5 -82.5
t-128.5 -59.5t-152 -23.5q-199 0 -330.5 133t-131.5 327zM1133 563q0 118 -56 211.5t-143 141t-186 47.5q-175 0 -308 -114.5t-172 -285.5h865zM573 1485h84l154 -277h-61z" />
    <glyph glyph-name="eacute" unicode="&#xe9;" horiz-adv-x="1214" 
d="M195 440q0 101 31.5 194t85 162.5t123 121.5t148.5 79t158 27q196 0 324.5 -133t128.5 -332l-2 -57h-934q-2 -22 -2 -53q0 -178 114.5 -293t291.5 -115q61 0 118 15t98.5 39.5t78 54t60 59t41 54t24.5 39.5l8 15h67q-16 -40 -44.5 -82.5t-74.5 -89t-100.5 -82.5
t-128.5 -59.5t-152 -23.5q-199 0 -330.5 133t-131.5 327zM1133 563q0 118 -56 211.5t-143 141t-186 47.5q-175 0 -308 -114.5t-172 -285.5h865zM981 1485h84l-274 -277h-62z" />
    <glyph glyph-name="ecircumflex" unicode="&#xea;" horiz-adv-x="1214" 
d="M195 440q0 101 31.5 194t85 162.5t123 121.5t148.5 79t158 27q196 0 324.5 -133t128.5 -332l-2 -57h-934q-2 -22 -2 -53q0 -178 114.5 -293t291.5 -115q61 0 118 15t98.5 39.5t78 54t60 59t41 54t24.5 39.5l8 15h67q-16 -40 -44.5 -82.5t-74.5 -89t-100.5 -82.5
t-128.5 -59.5t-152 -23.5q-199 0 -330.5 133t-131.5 327zM1133 563q0 118 -56 211.5t-143 141t-186 47.5q-175 0 -308 -114.5t-172 -285.5h865zM870 1495l164 -287h-65l-131 226h-29l-209 -226h-78l266 287h82z" />
    <glyph glyph-name="edieresis" unicode="&#xeb;" horiz-adv-x="1214" 
d="M195 440q0 101 31.5 194t85 162.5t123 121.5t148.5 79t158 27q196 0 324.5 -133t128.5 -332l-2 -57h-934q-2 -22 -2 -53q0 -178 114.5 -293t291.5 -115q61 0 118 15t98.5 39.5t78 54t60 59t41 54t24.5 39.5l8 15h67q-16 -40 -44.5 -82.5t-74.5 -89t-100.5 -82.5
t-128.5 -59.5t-152 -23.5q-199 0 -330.5 133t-131.5 327zM1133 563q0 118 -56 211.5t-143 141t-186 47.5q-175 0 -308 -114.5t-172 -285.5h865zM612 1270q-24 0 -41.5 15t-17.5 40q0 29 19 48.5t44 19.5q24 0 42 -15.5t18 -40.5q0 -29 -19 -48t-45 -19zM956 1270
q-24 0 -41.5 15t-17.5 40q0 29 19.5 48.5t44.5 19.5q24 0 41.5 -15.5t17.5 -40.5q0 -29 -19 -48t-45 -19z" />
    <glyph glyph-name="igrave" unicode="&#xec;" horiz-adv-x="452" 
d="M195 0l176 1004h61l-176 -1004h-61zM205 1485h84l153 -277h-61z" />
    <glyph glyph-name="iacute" unicode="&#xed;" horiz-adv-x="444" 
d="M195 0l176 1004h61l-176 -1004h-61zM662 1485h83l-274 -277h-61z" />
    <glyph glyph-name="icircumflex" unicode="&#xee;" horiz-adv-x="452" 
d="M195 0l176 1004h61l-176 -1004h-61zM512 1495l164 -287h-66l-131 226h-28l-209 -226h-78l266 287h82z" />
    <glyph glyph-name="idieresis" unicode="&#xef;" horiz-adv-x="452" 
d="M195 0l176 1004h61l-176 -1004h-61zM274 1270q-24 0 -41.5 15t-17.5 40q0 29 19.5 48.5t44.5 19.5q24 0 41.5 -15.5t17.5 -40.5q0 -29 -19 -48t-45 -19zM618 1270q-24 0 -41.5 15t-17.5 40q0 29 19.5 48.5t44.5 19.5q24 0 41.5 -15.5t17.5 -40.5q0 -29 -19 -48t-45 -19z
" />
    <glyph glyph-name="eth" unicode="&#xf0;" horiz-adv-x="1196" 
d="M858 1217l-266 -170l12 69l219 141l-174 177h82l148 -144l268 174l-12 -69l-226 -146q128 -147 192 -296t64 -339q0 -297 -149 -465.5t-404 -168.5q-178 0 -303 123t-125 303q0 144 72 263.5t191.5 186t257.5 66.5q63 0 119 -13t95 -34t72.5 -46t54 -50t34.5 -46t20 -34
l6 -13q-9 138 -67 262t-181 269zM639 41q187 0 319 129.5t132 323.5q0 158 -109 262t-287 104q-187 0 -318.5 -129t-131.5 -323q0 -158 108.5 -262.5t286.5 -104.5z" />
    <glyph glyph-name="ntilde" unicode="&#xf1;" horiz-adv-x="1177" 
d="M371 1004h61l-31 -175q58 93 155.5 144t213.5 51q194 0 287 -123t59 -319l-102 -582h-62l103 573q30 166 -47 278t-242 112q-151 0 -263.5 -99t-142.5 -268l-104 -596h-61zM690 1362q-78 0 -96 -92l-8 -41h-62l8 41q13 69 60.5 111t109.5 42q41 0 77 -22.5t57 -49
t49.5 -49t56.5 -22.5q80 0 98 92l9 41h61l-8 -41q-13 -69 -60.5 -111t-109.5 -42q-41 0 -77.5 22.5t-57.5 49t-50 49t-57 22.5z" />
    <glyph glyph-name="ograve" unicode="&#xf2;" 
d="M655 41q95 0 184.5 39t157.5 106.5t109 166t41 210.5q0 173 -117 286.5t-282 113.5q-95 0 -184.5 -39t-157.5 -107t-109 -166.5t-41 -210.5q0 -173 117 -286t282 -113zM655 -20q-198 0 -329 133t-131 327q0 123 46 233t122.5 186t177 120.5t207.5 44.5q130 0 236 -61.5
t165 -167t59 -232.5q0 -123 -46 -233t-122.5 -186t-177 -120t-207.5 -44zM573 1485h84l154 -277h-61z" />
    <glyph glyph-name="oacute" unicode="&#xf3;" 
d="M655 41q95 0 184.5 39t157.5 106.5t109 166t41 210.5q0 173 -117 286.5t-282 113.5q-95 0 -184.5 -39t-157.5 -107t-109 -166.5t-41 -210.5q0 -173 117 -286t282 -113zM655 -20q-198 0 -329 133t-131 327q0 123 46 233t122.5 186t177 120.5t207.5 44.5q130 0 236 -61.5
t165 -167t59 -232.5q0 -123 -46 -233t-122.5 -186t-177 -120t-207.5 -44zM999 1485h84l-274 -277h-61z" />
    <glyph glyph-name="ocircumflex" unicode="&#xf4;" 
d="M655 41q95 0 184.5 39t157.5 106.5t109 166t41 210.5q0 173 -117 286.5t-282 113.5q-95 0 -184.5 -39t-157.5 -107t-109 -166.5t-41 -210.5q0 -173 117 -286t282 -113zM655 -20q-198 0 -329 133t-131 327q0 123 46 233t122.5 186t177 120.5t207.5 44.5q130 0 236 -61.5
t165 -167t59 -232.5q0 -123 -46 -233t-122.5 -186t-177 -120t-207.5 -44zM885 1495l164 -287h-66l-131 226h-29l-209 -226h-77l266 287h82z" />
    <glyph glyph-name="otilde" unicode="&#xf5;" 
d="M655 41q95 0 184.5 39t157.5 106.5t109 166t41 210.5q0 173 -117 286.5t-282 113.5q-95 0 -184.5 -39t-157.5 -107t-109 -166.5t-41 -210.5q0 -173 117 -286t282 -113zM655 -20q-198 0 -329 133t-131 327q0 123 46 233t122.5 186t177 120.5t207.5 44.5q130 0 236 -61.5
t165 -167t59 -232.5q0 -123 -46 -233t-122.5 -186t-177 -120t-207.5 -44zM698 1362q-78 0 -96 -92l-8 -41h-62l9 41q13 69 60.5 111t109.5 42q41 0 77 -22.5t56.5 -49t49 -49t56.5 -22.5q81 0 99 92l8 41h61l-8 -41q-13 -69 -60.5 -111t-109.5 -42q-41 0 -77.5 22.5
t-57.5 49t-50 49t-57 22.5z" />
    <glyph glyph-name="odieresis" unicode="&#xf6;" 
d="M655 41q95 0 184.5 39t157.5 106.5t109 166t41 210.5q0 173 -117 286.5t-282 113.5q-95 0 -184.5 -39t-157.5 -107t-109 -166.5t-41 -210.5q0 -173 117 -286t282 -113zM655 -20q-198 0 -329 133t-131 327q0 123 46 233t122.5 186t177 120.5t207.5 44.5q130 0 236 -61.5
t165 -167t59 -232.5q0 -123 -46 -233t-122.5 -186t-177 -120t-207.5 -44zM633 1270q-25 0 -42.5 15t-17.5 40q0 29 19.5 48.5t44.5 19.5q24 0 41.5 -15.5t17.5 -40.5q0 -29 -19 -48t-44 -19zM977 1270q-24 0 -41.5 15t-17.5 40q0 29 19 48.5t44 19.5q24 0 41.5 -15.5
t17.5 -40.5q0 -29 -19 -48t-44 -19z" />
    <glyph glyph-name="divide" unicode="&#xf7;" horiz-adv-x="983" 
d="M983 522h-758v62h758v-62zM604 850q-31 0 -51.5 20.5t-20.5 51.5t20.5 51t51.5 20t51.5 -20t20.5 -51t-20.5 -51.5t-51.5 -20.5zM604 113q-31 0 -51.5 20t-20.5 51t20.5 51.5t51.5 20.5t51.5 -20.5t20.5 -51.5t-20.5 -51t-51.5 -20z" />
    <glyph glyph-name="oslash" unicode="&#xf8;" horiz-adv-x="1226" 
d="M748 1024q106 0 197.5 -42t154.5 -116l166 138l-9 -80l-124 -103q75 -113 75 -258q0 -123 -46 -233t-122.5 -186t-177 -120t-207.5 -44q-106 0 -196.5 41.5t-155.5 115.5l-166 -137l8 80l125 102q-75 113 -75 258q0 123 46 233t122.5 186t177 120.5t207.5 44.5zM317 221
l734 606q-56 64 -135 100t-168 36q-95 0 -184.5 -39t-157.5 -107t-109 -166.5t-41 -210.5q0 -124 61 -219zM1147 563q0 123 -62 219l-733 -606q56 -64 134.5 -99.5t168.5 -35.5q95 0 184.5 39t157.5 106.5t109 166t41 210.5z" />
    <glyph glyph-name="ugrave" unicode="&#xf9;" horiz-adv-x="1187" 
d="M991 0h-61l31 174q-58 -93 -155 -143.5t-214 -50.5q-194 0 -287 123t-59 319l102 582h62l-103 -574q-30 -166 47 -277.5t242 -111.5q150 0 262.5 99t142.5 268l105 596h61zM594 1485h84l153 -277h-61z" />
    <glyph glyph-name="uacute" unicode="&#xfa;" horiz-adv-x="1187" 
d="M991 0h-61l31 174q-58 -93 -155 -143.5t-214 -50.5q-194 0 -287 123t-59 319l102 582h62l-103 -574q-30 -166 47 -277.5t242 -111.5q150 0 262.5 99t142.5 268l105 596h61zM979 1485h84l-275 -277h-61z" />
    <glyph glyph-name="ucircumflex" unicode="&#xfb;" horiz-adv-x="1187" 
d="M991 0h-61l31 174q-58 -93 -155 -143.5t-214 -50.5q-194 0 -287 123t-59 319l102 582h62l-103 -574q-30 -166 47 -277.5t242 -111.5q150 0 262.5 99t142.5 268l105 596h61zM870 1495l164 -287h-65l-131 226h-29l-209 -226h-78l266 287h82z" />
    <glyph glyph-name="udieresis" unicode="&#xfc;" horiz-adv-x="1187" 
d="M991 0h-61l31 174q-58 -93 -155 -143.5t-214 -50.5q-194 0 -287 123t-59 319l102 582h62l-103 -574q-30 -166 47 -277.5t242 -111.5q150 0 262.5 99t142.5 268l105 596h61zM623 1270q-25 0 -42.5 15t-17.5 40q0 29 19.5 48.5t44.5 19.5q24 0 41.5 -15.5t17.5 -40.5
q0 -29 -19 -48t-44 -19zM967 1270q-25 0 -42.5 15t-17.5 40q0 29 19.5 48.5t44.5 19.5q24 0 41.5 -15.5t17.5 -40.5q0 -29 -19 -48t-44 -19z" />
    <glyph glyph-name="yacute" unicode="&#xfd;" horiz-adv-x="1054" 
d="M326 0l-90 1004h61l84 -943h250l450 943h66l-666 -1393h-65l186 389h-276zM907 1485h84l-274 -277h-62z" />
    <glyph glyph-name="thorn" unicode="&#xfe;" horiz-adv-x="1273" 
d="M813 1024q196 0 318 -132.5t122 -328.5q0 -124 -43 -233.5t-115.5 -185.5t-169.5 -120t-204 -44q-151 0 -260.5 80.5t-153.5 213.5l-117 -663h-61l320 1823h61l-109 -621q74 99 182 155t230 56zM813 963q-127 0 -234.5 -66t-172 -186.5t-64.5 -270.5q0 -175 108 -287
t271 -112q95 0 181.5 39t150.5 106.5t101.5 165.5t37.5 211q0 175 -108 287.5t-271 112.5z" />
    <glyph glyph-name="ydieresis" unicode="&#xff;" horiz-adv-x="1054" 
d="M326 0l-90 1004h61l84 -943h250l450 943h66l-666 -1393h-65l186 389h-276zM541 1270q-25 0 -42.5 15t-17.5 40q0 29 19.5 48.5t44.5 19.5q24 0 41.5 -15.5t17.5 -40.5q0 -29 -19 -48t-44 -19zM885 1270q-25 0 -42.5 15t-17.5 40q0 29 19.5 48.5t44.5 19.5
q24 0 41.5 -15.5t17.5 -40.5q0 -29 -19 -48t-44 -19z" />
    <glyph glyph-name="Amacron" unicode="&#x100;" horiz-adv-x="1361" 
d="M1247 0l-47 532h-809l-235 -532h-64l631 1434h461l127 -1434h-64zM1126 1372h-366l-344 -778h780zM737 1700l11 61h481l-10 -61h-482z" />
    <glyph glyph-name="amacron" unicode="&#x101;" horiz-adv-x="1271" 
d="M635 -20q-196 0 -318 132t-122 328q0 124 43 233.5t115 186t169.5 120.5t204.5 44q151 0 260.5 -80.5t153.5 -214.5l49 275h61l-176 -1004h-61l33 190q-74 -99 -182 -154.5t-230 -55.5zM635 41q95 0 181.5 39t150.5 106.5t101.5 165.5t37.5 211q0 175 -108 287.5
t-271 112.5q-127 0 -234.5 -66t-172 -186.5t-64.5 -270.5q0 -175 108 -287t271 -112zM569 1290l11 62h481l-10 -62h-482z" />
    <glyph glyph-name="Abreve" unicode="&#x102;" horiz-adv-x="1361" 
d="M1247 0l-47 532h-809l-235 -532h-64l631 1434h461l127 -1434h-64zM1126 1372h-366l-344 -778h780zM981 1618q-102 0 -176 56t-74 161v8h64v-12q0 -66 50 -109t140 -43q82 0 136.5 45t62.5 119h61q-10 -99 -85.5 -162t-178.5 -63z" />
    <glyph glyph-name="abreve" unicode="&#x103;" horiz-adv-x="1271" 
d="M635 -20q-196 0 -318 132t-122 328q0 124 43 233.5t115 186t169.5 120.5t204.5 44q151 0 260.5 -80.5t153.5 -214.5l49 275h61l-176 -1004h-61l33 190q-74 -99 -182 -154.5t-230 -55.5zM635 41q95 0 181.5 39t150.5 106.5t101.5 165.5t37.5 211q0 175 -108 287.5
t-271 112.5q-127 0 -234.5 -66t-172 -186.5t-64.5 -270.5q0 -175 108 -287t271 -112zM834 1229q-102 0 -176 56t-74 161v8h63v-12q0 -66 50.5 -109t140.5 -43q82 0 136 45t62 119h62q-10 -99 -85.5 -162t-178.5 -63z" />
    <glyph glyph-name="Aogonek" unicode="&#x104;" horiz-adv-x="1361" 
d="M1167 -440q-78 0 -131 46t-53 118q0 45 20 87.5t48.5 72.5t67.5 58t67.5 43.5t58.5 28.5l-45 518h-809l-235 -532h-64l631 1434h461l127 -1434h-2q-265 -132 -265 -272q0 -46 36 -76.5t98 -30.5q26 0 52.5 6t39.5 11l14 6l-10 -62q-46 -22 -107 -22zM1126 1372h-366
l-344 -778h780z" />
    <glyph glyph-name="aogonek" unicode="&#x105;" horiz-adv-x="1271" 
d="M932 -440q-78 0 -131 46t-53 118q0 46 21.5 89.5t51 74.5t70 59t69.5 43t58 28l29 172q-74 -99 -182 -154.5t-230 -55.5q-196 0 -318 132t-122 328q0 124 43 233.5t115 186t169.5 120.5t204.5 44q151 0 260.5 -80.5t153.5 -214.5l49 275h61l-176 -1004q-49 -24 -86.5 -47
t-83 -58.5t-71 -78t-25.5 -88.5t35.5 -76.5t97.5 -30.5q26 0 53 6t41 11l13 6l-11 -62q-45 -22 -106 -22zM635 41q95 0 181.5 39t150.5 106.5t101.5 165.5t37.5 211q0 175 -108 287.5t-271 112.5q-127 0 -234.5 -66t-172 -186.5t-64.5 -270.5q0 -175 108 -287t271 -112z" />
    <glyph glyph-name="Cacute" unicode="&#x106;" horiz-adv-x="1642" 
d="M911 20q108 0 207 33.5t170 85t129 117t92 124.5t52 112h65q-35 -100 -99 -192t-153 -170t-209.5 -124.5t-253.5 -46.5q-299 0 -482 183.5t-183 482.5q0 181 63 340t169.5 270t251.5 175.5t304 64.5q127 0 236.5 -39.5t188.5 -108t131 -159t73 -195.5h-64
q-41 190 -194.5 315t-370.5 125q-148 0 -281.5 -59t-232 -161.5t-156 -250.5t-57.5 -317q0 -269 168 -437t436 -168zM1276 1894h84l-275 -276h-61z" />
    <glyph glyph-name="cacute" unicode="&#x107;" horiz-adv-x="1173" 
d="M655 -20q-198 0 -329 133t-131 327q0 123 46 233t122 186t175 120.5t203 44.5q75 0 139.5 -18.5t108 -48.5t78 -66t54 -72t32 -66t17.5 -49l4 -18h-66q-1 6 -4 16t-15 38.5t-28.5 55t-46.5 58.5t-66 54.5t-90 38.5t-117 16q-93 0 -180.5 -39t-155 -106.5t-108.5 -166.5
t-41 -211q0 -173 117 -286t282 -113q63 0 122 17.5t102 45.5t80.5 61.5t62.5 67.5t42.5 62t25.5 45l8 18h63q-3 -8 -9 -21.5t-28.5 -53t-48.5 -75t-70 -79t-92.5 -75t-116.5 -53t-141 -21.5zM989 1485h84l-274 -277h-62z" />
    <glyph glyph-name="Ccircumflex" unicode="&#x108;" horiz-adv-x="1632" 
d="M911 20q108 0 207 33.5t170 85t129 117t92 124.5t52 112h65q-35 -100 -99 -192t-153 -170t-209.5 -124.5t-253.5 -46.5q-299 0 -482 183.5t-183 482.5q0 181 63 340t169.5 270t251.5 175.5t304 64.5q127 0 236.5 -39.5t188.5 -108t131 -159t73 -195.5h-64
q-41 190 -194.5 315t-370.5 125q-148 0 -281.5 -59t-232 -161.5t-156 -250.5t-57.5 -317q0 -269 168 -437t436 -168zM1161 1905l164 -287h-65l-132 225h-28l-209 -225h-78l266 287h82z" />
    <glyph glyph-name="ccircumflex" unicode="&#x109;" horiz-adv-x="1173" 
d="M655 -20q-198 0 -329 133t-131 327q0 123 46 233t122 186t175 120.5t203 44.5q75 0 139.5 -18.5t108 -48.5t78 -66t54 -72t32 -66t17.5 -49l4 -18h-66q-1 6 -4 16t-15 38.5t-28.5 55t-46.5 58.5t-66 54.5t-90 38.5t-117 16q-93 0 -180.5 -39t-155 -106.5t-108.5 -166.5
t-41 -211q0 -173 117 -286t282 -113q63 0 122 17.5t102 45.5t80.5 61.5t62.5 67.5t42.5 62t25.5 45l8 18h63q-3 -8 -9 -21.5t-28.5 -53t-48.5 -75t-70 -79t-92.5 -75t-116.5 -53t-141 -21.5zM870 1495l164 -287h-65l-131 226h-29l-209 -226h-78l266 287h82z" />
    <glyph glyph-name="Ccaron" unicode="&#x10c;" horiz-adv-x="1642" 
d="M911 20q108 0 207 33.5t170 85t129 117t92 124.5t52 112h65q-35 -100 -99 -192t-153 -170t-209.5 -124.5t-253.5 -46.5q-299 0 -482 183.5t-183 482.5q0 181 63 340t169.5 270t251.5 175.5t304 64.5q127 0 236.5 -39.5t188.5 -108t131 -159t73 -195.5h-64
q-41 190 -194.5 315t-370.5 125q-148 0 -281.5 -59t-232 -161.5t-156 -250.5t-57.5 -317q0 -269 168 -437t436 -168zM1376 1905l-266 -287h-82l-164 287h66l131 -226h29l208 226h78z" />
    <glyph glyph-name="ccaron" unicode="&#x10d;" horiz-adv-x="1173" 
d="M655 -20q-198 0 -329 133t-131 327q0 123 46 233t122 186t175 120.5t203 44.5q75 0 139.5 -18.5t108 -48.5t78 -66t54 -72t32 -66t17.5 -49l4 -18h-66q-1 6 -4 16t-15 38.5t-28.5 55t-46.5 58.5t-66 54.5t-90 38.5t-117 16q-93 0 -180.5 -39t-155 -106.5t-108.5 -166.5
t-41 -211q0 -173 117 -286t282 -113q63 0 122 17.5t102 45.5t80.5 61.5t62.5 67.5t42.5 62t25.5 45l8 18h63q-3 -8 -9 -21.5t-28.5 -53t-48.5 -75t-70 -79t-92.5 -75t-116.5 -53t-141 -21.5zM1085 1495l-266 -287h-82l-164 287h66l131 -225h29l209 225h77z" />
    <glyph glyph-name="Dcaron" unicode="&#x10e;" horiz-adv-x="1484" 
d="M717 0h-492l252 1434h363q192 0 341.5 -81.5t231.5 -225.5t82 -326q0 -171 -60 -320t-163.5 -254.5t-247.5 -166t-307 -60.5zM297 61h420q203 0 366.5 94t257 263t93.5 381q0 255 -163.5 414t-430.5 159h-312zM1290 1905l-266 -287h-82l-164 287h66l131 -226h29l208 226
h78z" />
    <glyph glyph-name="dcaron" unicode="&#x10f;" horiz-adv-x="1304" 
d="M635 -20q-196 0 -318 132t-122 328q0 124 43 233.5t115 186t169.5 120.5t204.5 44q151 0 260.5 -80.5t153.5 -214.5l125 705h61l-252 -1434h-61l33 190q-74 -99 -182 -154.5t-230 -55.5zM635 41q95 0 181.5 39t150.5 106.5t101.5 165.5t37.5 211q0 175 -108 287.5
t-271 112.5q-127 0 -234.5 -66t-172 -186.5t-64.5 -270.5q0 -175 108 -287t271 -112zM1507 1323q-28 0 -43.5 15t-15.5 38q0 29 20.5 48.5t51.5 19.5q32 0 51.5 -23t19.5 -73q0 -98 -53 -156.5t-125 -58.5l8 41q46 2 80.5 33.5t34.5 92.5l-4 29q-9 -6 -25 -6z" />
    <glyph glyph-name="Dcroat" unicode="&#x110;" horiz-adv-x="1509" 
d="M741 0h-491l119 676h-164l10 61h164l123 697h362q144 0 266.5 -47.5t208 -131t133.5 -201t48 -253.5q0 -171 -60 -320t-164 -254.5t-248 -166t-307 -60.5zM322 61h419q203 0 366.5 94t257 263t93.5 381q0 255 -163.5 414t-430.5 159h-311l-113 -635h389l-10 -61h-389z
" />
    <glyph glyph-name="dcroat" unicode="&#x111;" horiz-adv-x="1267" 
d="M623 -20q-190 0 -309 126t-119 314q0 112 42.5 213.5t113.5 173.5t166.5 114t197.5 42q147 0 252 -73t145 -190l84 467h-287l11 62h286l37 205h62l-37 -205h153l-10 -62h-154l-204 -1167h-62l33 190q-49 -88 -167 -149t-234 -61zM621 41q122 0 227.5 62t169 173t63.5 246
q0 168 -105.5 273.5t-262.5 105.5q-122 0 -227.5 -62t-169.5 -173t-64 -246q0 -167 106 -273t263 -106z" />
    <glyph glyph-name="Emacron" unicode="&#x112;" horiz-adv-x="1245" 
d="M297 61h860l-10 -61h-922l252 1434h922l-10 -62h-861l-108 -614h706l-10 -62h-706zM727 1731l10 61h482l-11 -61h-481z" />
    <glyph glyph-name="emacron" unicode="&#x113;" horiz-adv-x="1214" 
d="M195 440q0 101 31.5 194t85 162.5t123 121.5t148.5 79t158 27q196 0 324.5 -133t128.5 -332l-2 -57h-934q-2 -22 -2 -53q0 -178 114.5 -293t291.5 -115q61 0 118 15t98.5 39.5t78 54t60 59t41 54t24.5 39.5l8 15h67q-16 -40 -44.5 -82.5t-74.5 -89t-100.5 -82.5
t-128.5 -59.5t-152 -23.5q-199 0 -330.5 133t-131.5 327zM1133 563q0 118 -56 211.5t-143 141t-186 47.5q-175 0 -308 -114.5t-172 -285.5h865zM522 1290l10 62h482l-10 -62h-482z" />
    <glyph glyph-name="Edotaccent" unicode="&#x116;" horiz-adv-x="1245" 
d="M297 61h860l-10 -61h-922l252 1434h922l-10 -62h-861l-108 -614h706l-10 -62h-706zM956 1679q-24 0 -39.5 16.5t-15.5 39.5q0 32 20 49.5t48 17.5q24 0 39.5 -16.5t15.5 -38.5q0 -32 -20 -50t-48 -18z" />
    <glyph glyph-name="edotaccent" unicode="&#x117;" horiz-adv-x="1214" 
d="M195 440q0 101 31.5 194t85 162.5t123 121.5t148.5 79t158 27q196 0 324.5 -133t128.5 -332l-2 -57h-934q-2 -22 -2 -53q0 -178 114.5 -293t291.5 -115q61 0 118 15t98.5 39.5t78 54t60 59t41 54t24.5 39.5l8 15h67q-16 -40 -44.5 -82.5t-74.5 -89t-100.5 -82.5
t-128.5 -59.5t-152 -23.5q-199 0 -330.5 133t-131.5 327zM1133 563q0 118 -56 211.5t-143 141t-186 47.5q-175 0 -308 -114.5t-172 -285.5h865zM782 1270q-24 0 -39.5 16.5t-15.5 38.5q0 32 20 50t48 18q24 0 39.5 -16.5t15.5 -39.5q0 -32 -20 -49.5t-48 -17.5z" />
    <glyph glyph-name="Eogonek" unicode="&#x118;" horiz-adv-x="1245" 
d="M1004 -440q-78 0 -131.5 46t-53.5 118q0 49 22.5 94.5t60 80t72.5 58t75 43.5h-824l252 1434h922l-10 -62h-861l-108 -614h706l-10 -62h-706l-113 -635h860l-10 -61q-49 -24 -86.5 -47t-83 -58.5t-71 -78t-25.5 -88.5t35.5 -76.5t97.5 -30.5q26 0 52.5 6t39.5 11l14 6
l-10 -62q-45 -22 -106 -22z" />
    <glyph glyph-name="eogonek" unicode="&#x119;" horiz-adv-x="1214" 
d="M604 -440q-78 0 -131 46t-53 118q0 150 194 258q-183 13 -301 143.5t-118 314.5q0 101 31.5 194t85 162.5t123 121.5t148.5 79t158 27q196 0 324.5 -133t128.5 -332l-2 -57h-934q-2 -22 -2 -53q0 -178 114.5 -293t291.5 -115q61 0 118 15t98.5 39.5t78 54t60 59t41 54
t24.5 39.5l8 15h67q-20 -47 -57 -97.5t-91.5 -102t-132 -88t-163.5 -45.5q-35 -19 -63.5 -36.5t-61.5 -43.5t-55 -51.5t-37 -58t-15 -66.5q0 -46 35.5 -76.5t97.5 -30.5q26 0 53 6t41 11l13 6l-10 -62q-46 -22 -107 -22zM1133 563q0 118 -56 211.5t-143 141t-186 47.5
q-175 0 -308 -114.5t-172 -285.5h865z" />
    <glyph glyph-name="Ecaron" unicode="&#x11a;" horiz-adv-x="1245" 
d="M297 61h860l-10 -61h-922l252 1434h922l-10 -62h-861l-108 -614h706l-10 -62h-706zM1260 1905l-267 -287h-82l-163 287h65l131 -226h29l209 226h78z" />
    <glyph glyph-name="ecaron" unicode="&#x11b;" horiz-adv-x="1214" 
d="M195 440q0 101 31.5 194t85 162.5t123 121.5t148.5 79t158 27q196 0 324.5 -133t128.5 -332l-2 -57h-934q-2 -22 -2 -53q0 -178 114.5 -293t291.5 -115q61 0 118 15t98.5 39.5t78 54t60 59t41 54t24.5 39.5l8 15h67q-16 -40 -44.5 -82.5t-74.5 -89t-100.5 -82.5
t-128.5 -59.5t-152 -23.5q-199 0 -330.5 133t-131.5 327zM1133 563q0 118 -56 211.5t-143 141t-186 47.5q-175 0 -308 -114.5t-172 -285.5h865zM1085 1495l-266 -287h-82l-164 287h66l131 -225h29l209 225h77z" />
    <glyph glyph-name="Gbreve" unicode="&#x11e;" horiz-adv-x="1767" 
d="M1610 676h-303l10 61h563l-10 -61h-195q-28 -201 -139.5 -366t-277 -258t-347.5 -93q-299 0 -482 183.5t-183 482.5q0 181 63 340t169.5 270t251.5 175.5t304 64.5q127 0 237 -39t188 -106t130.5 -153.5t73.5 -183.5h-64q-20 85 -69.5 160.5t-121 133.5t-169 92
t-205.5 34q-148 0 -281.5 -59t-232 -161.5t-156 -250.5t-57.5 -317q0 -269 168 -437t436 -168q131 0 253.5 52.5t214.5 141t153.5 209t77.5 253.5zM1110 1618q-102 0 -176 56t-74 161v8h64v-12q0 -66 50 -109t140 -43q82 0 136.5 45t62.5 119h61q-10 -99 -85.5 -162
t-178.5 -63z" />
    <glyph glyph-name="gbreve" unicode="&#x11f;" horiz-adv-x="1271" 
d="M166 -389l10 61h778l93 518q-74 -99 -182 -154.5t-230 -55.5q-196 0 -318 132t-122 328q0 124 43 233.5t115 186t169.5 120.5t204.5 44q151 0 260.5 -80.5t153.5 -214.5l49 275h61l-245 -1393h-840zM635 41q95 0 181.5 39t150.5 106.5t101.5 165.5t37.5 211
q0 175 -108 287.5t-271 112.5q-127 0 -234.5 -66t-172 -186.5t-64.5 -270.5q0 -175 108 -287t271 -112zM815 1229q-102 0 -176 56t-74 161v8h64v-12q0 -66 50 -109t140 -43q82 0 136.5 45t62.5 119h61q-10 -99 -85.5 -162t-178.5 -63z" />
    <glyph glyph-name="Gcommaaccent" unicode="&#x122;" horiz-adv-x="1767" 
d="M1610 676h-303l10 61h563l-10 -61h-195q-28 -201 -139.5 -366t-277 -258t-347.5 -93q-299 0 -482 183.5t-183 482.5q0 181 63 340t169.5 270t251.5 175.5t304 64.5q127 0 237 -39t188 -106t130.5 -153.5t73.5 -183.5h-64q-20 85 -69.5 160.5t-121 133.5t-169 92
t-205.5 34q-148 0 -281.5 -59t-232 -161.5t-156 -250.5t-57.5 -317q0 -269 168 -437t436 -168q131 0 253.5 52.5t214.5 141t153.5 209t77.5 253.5zM848 -326q-28 0 -44 15.5t-16 38.5q0 29 20.5 48t51.5 19q32 0 52 -23.5t20 -72.5q0 -98 -53 -156.5t-125 -58.5l8 41
q46 2 80.5 34t34.5 93l-5 29q-8 -7 -24 -7z" />
    <glyph glyph-name="gcommaaccent" unicode="&#x123;" horiz-adv-x="1271" 
d="M815 1329q28 0 43.5 -15t15.5 -38q0 -29 -20 -48.5t-51 -19.5q-32 0 -52 23.5t-20 73.5q0 98 53 156.5t125 58.5l-8 -41q-46 -2 -80.5 -34t-34.5 -93l5 -29q8 6 24 6zM166 -389l10 61h778l93 518q-74 -99 -182 -154.5t-230 -55.5q-196 0 -318 132t-122 328
q0 124 43 233.5t115 186t169.5 120.5t204.5 44q151 0 260.5 -80.5t153.5 -214.5l49 275h61l-245 -1393h-840zM635 41q95 0 181.5 39t150.5 106.5t101.5 165.5t37.5 211q0 175 -108 287.5t-271 112.5q-127 0 -234.5 -66t-172 -186.5t-64.5 -270.5q0 -175 108 -287t271 -112z
" />
    <glyph glyph-name="Imacron" unicode="&#x12a;" horiz-adv-x="507" 
d="M539 1434l-252 -1434h-62l252 1434h62zM307 1700l10 61h482l-11 -61h-481z" />
    <glyph glyph-name="imacron" unicode="&#x12b;" horiz-adv-x="452" 
d="M195 0l176 1004h61l-176 -1004h-61zM190 1290l11 62h481l-10 -62h-482z" />
    <glyph glyph-name="Iogonek" unicode="&#x12e;" horiz-adv-x="507" 
d="M141 -440q-78 0 -131 46t-53 118q0 46 21.5 89.5t51 74.5t70 59t69.5 43t58 28l250 1416h62l-254 -1434q-49 -24 -86.5 -47t-83.5 -58.5t-71.5 -78t-25.5 -88.5t36 -76.5t98 -30.5q26 0 52.5 6t39.5 11l14 6l-10 -62q-46 -22 -107 -22z" />
    <glyph glyph-name="iogonek" unicode="&#x12f;" horiz-adv-x="452" 
d="M115 -440q-78 0 -131.5 46t-53.5 118q0 46 21 89.5t50 74t69 58t69 43t58 27.5l174 988h61l-176 -1004q-11 -5 -28.5 -14t-63 -37.5t-80.5 -58.5t-63.5 -74.5t-28.5 -87.5q0 -46 35.5 -76.5t97.5 -30.5q26 0 52.5 6t40.5 11l13 6l-10 -62q-45 -22 -106 -22zM453 1270
q-24 0 -40 16.5t-16 38.5q0 32 20 50t48 18q24 0 39.5 -16.5t15.5 -39.5q0 -32 -19.5 -49.5t-47.5 -17.5z" />
    <glyph glyph-name="Idotaccent" unicode="&#x130;" horiz-adv-x="507" 
d="M539 1434l-252 -1434h-62l252 1434h62zM547 1679q-24 0 -39.5 16.5t-15.5 39.5q0 32 19.5 49.5t47.5 17.5q24 0 39.5 -16.5t15.5 -38.5q0 -32 -19.5 -50t-47.5 -18z" />
    <glyph glyph-name="dotlessi" unicode="&#x131;" horiz-adv-x="452" 
d="M195 0l176 1004h61l-176 -1004h-61z" />
    <glyph glyph-name="Kcommaaccent" unicode="&#x136;" horiz-adv-x="1265" 
d="M1171 0l-387 696h-374l-123 -696h-62l252 1434h62l-119 -676h371l608 676h82l-635 -707l403 -727h-78zM662 -326q-28 0 -44 15.5t-16 38.5q0 29 20.5 48t51.5 19q32 0 51.5 -23t19.5 -73q0 -98 -53 -156.5t-125 -58.5l8 41q46 2 80.5 34t34.5 93l-4 29q-8 -7 -24 -7z" />
    <glyph glyph-name="kcommaaccent" unicode="&#x137;" horiz-adv-x="1026" 
d="M344 502l-88 -502h-61l251 1434h62l-154 -871h305l422 441h78l-450 -472l305 -532h-70l-289 502h-311zM565 -326q-28 0 -43.5 15.5t-15.5 38.5q0 29 20.5 48t51.5 19q32 0 51.5 -23t19.5 -73q0 -98 -53 -156.5t-125 -58.5l8 41q46 2 80.5 34t34.5 93l-4 29q-9 -7 -25 -7z
" />
    <glyph glyph-name="Lacute" unicode="&#x139;" horiz-adv-x="1032" 
d="M539 1434l-242 -1373h799l-11 -61h-860l252 1434h62zM774 1894h84l-274 -276h-62z" />
    <glyph glyph-name="lacute" unicode="&#x13a;" horiz-adv-x="518" 
d="M508 1434l-242 -1373h236l-10 -61h-297l251 1434h62zM733 1894h84l-274 -276h-62z" />
    <glyph glyph-name="Lcommaaccent" unicode="&#x13b;" horiz-adv-x="1032" 
d="M539 1434l-242 -1373h799l-11 -61h-860l252 1434h62zM623 -326q-28 0 -44 15.5t-16 38.5q0 29 20.5 48t51.5 19q32 0 52 -23.5t20 -72.5q0 -98 -53.5 -156.5t-125.5 -58.5l9 41q45 2 79.5 34t34.5 93l-4 29q-8 -7 -24 -7z" />
    <glyph glyph-name="lcommaaccent" unicode="&#x13c;" horiz-adv-x="518" 
d="M508 1434l-242 -1373h236l-10 -61h-297l251 1434h62zM285 -326q-28 0 -44 15.5t-16 38.5q0 29 20.5 48t51.5 19q32 0 52 -23.5t20 -72.5q0 -98 -53.5 -156.5t-125.5 -58.5l9 41q45 2 79.5 34t34.5 93l-4 29q-8 -7 -24 -7z" />
    <glyph glyph-name="Lcaron" unicode="&#x13d;" horiz-adv-x="1032" 
d="M539 1434l-242 -1373h799l-11 -61h-860l252 1434h62zM791 1323q-28 0 -44 15t-16 38q0 29 20.5 48.5t51.5 19.5q32 0 51.5 -23t19.5 -73q0 -98 -53 -156.5t-125 -58.5l9 41q46 2 80 33.5t34 92.5l-4 29q-8 -6 -24 -6z" />
    <glyph glyph-name="lcaron" unicode="&#x13e;" horiz-adv-x="526" 
d="M508 1434l-242 -1373h236l-10 -61h-297l251 1434h62zM678 1323q-28 0 -44 15t-16 38q0 29 20.5 48.5t51.5 19.5q32 0 52 -23.5t20 -72.5q0 -98 -53 -156.5t-125 -58.5l8 41q46 2 80.5 33.5t34.5 92.5l-5 29q-8 -6 -24 -6z" />
    <glyph glyph-name="Lslash" unicode="&#x141;" horiz-adv-x="1040" 
d="M549 1434l-131 -744l299 129l-12 -61l-299 -129l-101 -568h799l-10 -61h-861l107 600l-156 -68l11 62l155 68l137 772h62z" />
    <glyph glyph-name="lslash" unicode="&#x142;" horiz-adv-x="516" 
d="M508 1434l-129 -732l221 97l-10 -62l-223 -96l-103 -580h236l-11 -61h-296l108 612l-188 -80l10 62l188 80l135 760h62z" />
    <glyph glyph-name="Nacute" unicode="&#x143;" horiz-adv-x="1511" 
d="M1290 0h-92l-670 1376l-241 -1376h-62l252 1434h92l670 -1377l242 1377h61zM1245 1894h84l-274 -276h-62z" />
    <glyph glyph-name="nacute" unicode="&#x144;" horiz-adv-x="1177" 
d="M371 1004h61l-31 -175q58 93 155.5 144t213.5 51q194 0 287 -123t59 -319l-102 -582h-62l103 573q30 166 -47 278t-242 112q-151 0 -263.5 -99t-142.5 -268l-104 -596h-61zM1012 1485h84l-275 -277h-61z" />
    <glyph glyph-name="Ncommaaccent" unicode="&#x145;" horiz-adv-x="1511" 
d="M1290 0h-92l-670 1376l-241 -1376h-62l252 1434h92l670 -1377l242 1377h61zM715 -326q-28 0 -44 15.5t-16 38.5q0 29 20.5 48t51.5 19q32 0 52 -23.5t20 -72.5q0 -98 -53 -156.5t-125 -58.5l8 41q45 2 79.5 34t34.5 93l-4 29q-8 -7 -24 -7z" />
    <glyph glyph-name="ncommaaccent" unicode="&#x146;" horiz-adv-x="1177" 
d="M371 1004h61l-31 -175q58 93 155.5 144t213.5 51q194 0 287 -123t59 -319l-102 -582h-62l103 573q30 166 -47 278t-242 112q-151 0 -263.5 -99t-142.5 -268l-104 -596h-61zM588 -326q-28 0 -44 15.5t-16 38.5q0 29 20.5 48t51.5 19q32 0 52 -23.5t20 -72.5
q0 -98 -53 -156.5t-125 -58.5l8 41q45 2 79.5 34t34.5 93l-4 29q-8 -7 -24 -7z" />
    <glyph glyph-name="Ncaron" unicode="&#x147;" horiz-adv-x="1511" 
d="M1290 0h-92l-670 1376l-241 -1376h-62l252 1434h92l670 -1377l242 1377h61zM1341 1905l-266 -287h-82l-164 287h66l131 -226h29l209 226h77z" />
    <glyph glyph-name="ncaron" unicode="&#x148;" horiz-adv-x="1177" 
d="M371 1004h61l-31 -175q58 93 155.5 144t213.5 51q194 0 287 -123t59 -319l-102 -582h-62l103 573q30 166 -47 278t-242 112q-151 0 -263.5 -99t-142.5 -268l-104 -596h-61zM1098 1495l-267 -287h-81l-164 287h65l131 -225h29l209 225h78z" />
    <glyph glyph-name="Omacron" unicode="&#x14c;" horiz-adv-x="1679" 
d="M1024 1475q292 0 473.5 -183.5t181.5 -482.5q0 -180 -63 -339.5t-168.5 -270.5t-248 -175.5t-298.5 -64.5q-292 0 -473.5 183.5t-181.5 482.5q0 180 63 339.5t168.5 270.5t248 175.5t298.5 64.5zM901 20q145 0 276 59t228.5 162t155 251t57.5 317q0 268 -166 436
t-428 168q-145 0 -276 -59t-228.5 -161.5t-155 -250.5t-57.5 -317q0 -268 166 -436.5t428 -168.5zM846 1700l10 61h481l-10 -61h-481z" />
    <glyph glyph-name="omacron" unicode="&#x14d;" 
d="M655 41q95 0 184.5 39t157.5 106.5t109 166t41 210.5q0 173 -117 286.5t-282 113.5q-95 0 -184.5 -39t-157.5 -107t-109 -166.5t-41 -210.5q0 -173 117 -286t282 -113zM655 -20q-198 0 -329 133t-131 327q0 123 46 233t122.5 186t177 120.5t207.5 44.5q130 0 236 -61.5
t165 -167t59 -232.5q0 -123 -46 -233t-122.5 -186t-177 -120t-207.5 -44zM569 1290l11 62h481l-10 -62h-482z" />
    <glyph glyph-name="Ohungarumlaut" unicode="&#x150;" horiz-adv-x="1679" 
d="M1024 1475q292 0 473.5 -183.5t181.5 -482.5q0 -180 -63 -339.5t-168.5 -270.5t-248 -175.5t-298.5 -64.5q-292 0 -473.5 183.5t-181.5 482.5q0 180 63 339.5t168.5 270.5t248 175.5t298.5 64.5zM901 20q145 0 276 59t228.5 162t155 251t57.5 317q0 268 -166 436
t-428 168q-145 0 -276 -59t-228.5 -161.5t-155 -250.5t-57.5 -317q0 -268 166 -436.5t428 -168.5zM1143 1894h80l-244 -276h-57zM1413 1894h80l-244 -276h-57z" />
    <glyph glyph-name="ohungarumlaut" unicode="&#x151;" 
d="M655 41q95 0 184.5 39t157.5 106.5t109 166t41 210.5q0 173 -117 286.5t-282 113.5q-95 0 -184.5 -39t-157.5 -107t-109 -166.5t-41 -210.5q0 -173 117 -286t282 -113zM655 -20q-198 0 -329 133t-131 327q0 123 46 233t122.5 186t177 120.5t207.5 44.5q130 0 236 -61.5
t165 -167t59 -232.5q0 -123 -46 -233t-122.5 -186t-177 -120t-207.5 -44zM856 1485h80l-244 -277h-57zM1126 1485h80l-243 -277h-58z" />
    <glyph glyph-name="OE" unicode="&#x152;" horiz-adv-x="2498" 
d="M1001 1413q-115 0 -217 -37.5t-176 -101t-133 -144.5t-95 -171t-54.5 -177t-18.5 -166q0 -264 158.5 -430t406.5 -166q104 0 205.5 36t189.5 106t156 165t107 221.5t39 266.5q0 266 -158.5 432t-409.5 166zM1438 0l61 346q-103 -182 -272 -284.5t-359 -102.5
q-179 0 -321 82.5t-221.5 232.5t-79.5 342q0 176 62.5 336t166.5 274t245 181.5t292 67.5q149 0 275 -60t211.5 -173t113.5 -263l78 455h880l-10 -62h-819l-109 -614h666l-10 -62h-666l-113 -635h820l-11 -61h-880z" />
    <glyph glyph-name="oe" unicode="&#x153;" horiz-adv-x="2070" 
d="M635 -20q-184 0 -312 134t-128 326q0 123 46 233t120.5 186t170.5 120.5t195 44.5q149 0 264.5 -91.5t157.5 -236.5q68 151 200 239.5t279 88.5q128 0 226 -66t147 -170.5t49 -228.5l-2 -57h-885q-17 -130 28.5 -236.5t137.5 -165.5t209 -59q79 0 150 28.5t116 69
t78.5 81t48.5 68.5l15 29h67q-21 -51 -62 -105.5t-100.5 -108.5t-143 -88.5t-173.5 -34.5q-150 0 -266 90t-158 233q-68 -146 -199.5 -234.5t-275.5 -88.5zM635 41q85 0 167.5 37t148 100.5t108 157.5t47.5 201v26q0 172 -114 286t-265 114q-88 0 -173 -39t-151 -106.5
t-106.5 -166.5t-40.5 -211q0 -172 114 -285.5t265 -113.5zM1989 563q0 179 -106 289.5t-259 110.5q-168 0 -289.5 -112.5t-169.5 -287.5h824z" />
    <glyph glyph-name="Racute" unicode="&#x154;" horiz-adv-x="1402" 
d="M983 578l266 -578h-71l-258 573h-533l-100 -573h-62l252 1434h547q196 0 313 -107t117 -272q0 -209 -128.5 -341t-342.5 -136zM1004 1372h-476l-129 -737h564q199 0 314.5 113.5t115.5 306.5q0 141 -104 229t-285 88zM1184 1894h84l-275 -276h-61z" />
    <glyph glyph-name="racute" unicode="&#x155;" horiz-adv-x="751" 
d="M793 952q-164 0 -285.5 -108.5t-153.5 -290.5l-98 -553h-61l176 1004h61l-37 -216q56 105 169 165.5t239 60.5h102l-10 -62h-102zM866 1485h84l-274 -277h-62z" />
    <glyph glyph-name="Rcommaaccent" unicode="&#x156;" horiz-adv-x="1402" 
d="M983 578l266 -578h-71l-258 573h-533l-100 -573h-62l252 1434h547q196 0 313 -107t117 -272q0 -209 -128.5 -341t-342.5 -136zM1004 1372h-476l-129 -737h564q199 0 314.5 113.5t115.5 306.5q0 141 -104 229t-285 88zM666 -326q-28 0 -44 15.5t-16 38.5q0 29 20.5 48
t51.5 19q32 0 52 -23.5t20 -72.5q0 -98 -53.5 -156.5t-125.5 -58.5l9 41q45 2 79.5 34t34.5 93l-4 29q-8 -7 -24 -7z" />
    <glyph glyph-name="rcommaaccent" unicode="&#x157;" horiz-adv-x="751" 
d="M793 952q-164 0 -285.5 -108.5t-153.5 -290.5l-98 -553h-61l176 1004h61l-37 -216q56 105 169 165.5t239 60.5h102l-10 -62h-102zM203 -274q-28 0 -44 15t-16 38q0 29 20.5 48t51.5 19q32 0 52 -23.5t20 -72.5q0 -98 -53 -156.5t-125 -58.5l8 41q45 2 79.5 34t34.5 93
l-4 29q-8 -6 -24 -6z" />
    <glyph glyph-name="Rcaron" unicode="&#x158;" horiz-adv-x="1402" 
d="M983 578l266 -578h-71l-258 573h-533l-100 -573h-62l252 1434h547q196 0 313 -107t117 -272q0 -209 -128.5 -341t-342.5 -136zM1004 1372h-476l-129 -737h564q199 0 314.5 113.5t115.5 306.5q0 141 -104 229t-285 88zM1280 1905l-266 -287h-82l-164 287h66l131 -226h28
l209 226h78z" />
    <glyph glyph-name="rcaron" unicode="&#x159;" horiz-adv-x="751" 
d="M793 952q-164 0 -285.5 -108.5t-153.5 -290.5l-98 -553h-61l176 1004h61l-37 -216q56 105 169 165.5t239 60.5h102l-10 -62h-102zM963 1495l-267 -287h-82l-163 287h65l131 -225h29l209 225h78z" />
    <glyph glyph-name="Sacute" unicode="&#x15a;" horiz-adv-x="1288" 
d="M725 20q110 0 197.5 31t138.5 81t77.5 108t26.5 118q0 59 -27.5 108.5t-74.5 85.5t-107.5 67.5t-128 59.5t-134.5 56t-127.5 62.5t-107.5 73.5t-74.5 94t-27.5 120q0 160 133.5 275t344.5 115q92 0 170 -19t128.5 -50t90 -68.5t60.5 -74.5t34.5 -68t17.5 -50l4 -19h-59
q-1 6 -4 16.5t-16.5 40t-32.5 57t-55.5 60.5t-81.5 56.5t-115 40t-152 16.5q-181 0 -292 -93t-111 -224q0 -73 44.5 -131.5t116 -98.5t157.5 -77t172.5 -75.5t158 -83.5t116 -112t44.5 -151q0 -81 -36 -154.5t-100 -130t-161 -90t-211 -33.5q-82 0 -152.5 14t-121.5 38
t-93.5 54.5t-70 64.5t-48.5 68t-32 64.5t-18 54.5t-9 38l-2 14h62q1 -7 3.5 -19.5t16.5 -49t33.5 -69.5t58.5 -73t87.5 -69t124 -49t165.5 -20zM1102 1894h84l-275 -276h-61z" />
    <glyph glyph-name="sacute" unicode="&#x15b;" horiz-adv-x="1017" 
d="M154 287h63q1 -5 4 -14t15 -34.5t28.5 -48.5t47.5 -51.5t68 -49t93.5 -34.5t122.5 -14q145 0 225 64.5t80 162.5q0 53 -35 93.5t-91.5 66t-124 47.5t-135.5 45.5t-124.5 52t-91.5 75.5t-35 108q0 48 24.5 95.5t69 86t115 62.5t154.5 24q69 0 128 -14.5t98 -38t70 -52
t48 -57t28.5 -52t14.5 -38.5l4 -14h-66q0 4 -8 22.5t-31.5 50.5t-58.5 60.5t-98 50t-140 21.5q-138 0 -213 -60t-75 -139q0 -52 35 -91.5t91.5 -64t124 -46t135.5 -45.5t124.5 -53t91.5 -77t35 -111q0 -126 -102.5 -211t-276.5 -85q-76 0 -141 17t-108 43.5t-77.5 60
t-53.5 65t-31.5 60t-16.5 43.5t-4 18zM907 1485h84l-274 -277h-62z" />
    <glyph glyph-name="Scedilla" unicode="&#x15e;" horiz-adv-x="1288" 
d="M725 20q110 0 197.5 31t138.5 81t77.5 108t26.5 118q0 59 -27.5 108.5t-74.5 85.5t-107.5 67.5t-128 59.5t-134.5 56t-127.5 62.5t-107.5 73.5t-74.5 94t-27.5 120q0 160 133.5 275t344.5 115q92 0 170 -19t128.5 -50t90 -68.5t60.5 -74.5t34.5 -68t17.5 -50l4 -19h-59
q-1 6 -4 16.5t-16.5 40t-32.5 57t-55.5 60.5t-81.5 56.5t-115 40t-152 16.5q-181 0 -292 -93t-111 -224q0 -73 44.5 -131.5t116 -98.5t157.5 -77t172.5 -75.5t158 -83.5t116 -112t44.5 -151q0 -81 -36 -154.5t-100 -130t-161 -90t-211 -33.5h-14l-54 -78q68 -9 107 -49
t39 -102q0 -86 -55 -138.5t-146 -52.5q-44 0 -81 10.5t-53 21.5l-15 11l10 62q6 -5 17.5 -12t49.5 -19t80 -12q60 0 95.5 34.5t35.5 90.5q0 46 -34.5 73t-102.5 27h-49l92 137q-89 8 -162.5 34.5t-120.5 63t-83.5 78.5t-55 82.5t-30 73.5t-14.5 53l-3 21h62q1 -7 3.5 -19.5
t16.5 -49t33.5 -69.5t58.5 -73t87.5 -69t124 -49t165.5 -20z" />
    <glyph glyph-name="scedilla" unicode="&#x15f;" horiz-adv-x="1017" 
d="M154 287h63q1 -5 4 -14t15 -34.5t28.5 -48.5t47.5 -51.5t68 -49t93.5 -34.5t122.5 -14q145 0 225 64.5t80 162.5q0 53 -35 93.5t-91.5 66t-124 47.5t-135.5 45.5t-124.5 52t-91.5 75.5t-35 108q0 48 24.5 95.5t69 86t115 62.5t154.5 24q69 0 128 -14.5t98 -38t70 -52
t48 -57t28.5 -52t14.5 -38.5l4 -14h-66q0 4 -8 22.5t-31.5 50.5t-58.5 60.5t-98 50t-140 21.5q-138 0 -213 -60t-75 -139q0 -52 35 -91.5t91.5 -64t124 -46t135.5 -45.5t124.5 -53t91.5 -77t35 -111q0 -126 -102.5 -211t-276.5 -85h-8l-68 -99q68 -9 106.5 -48.5
t38.5 -102.5q0 -86 -54.5 -138.5t-145.5 -52.5q-44 0 -81.5 10.5t-53.5 21.5l-15 11l10 62q6 -5 17.5 -12t50 -19t80.5 -12q60 0 95.5 34.5t35.5 90.5q0 46 -34.5 73t-102.5 27h-49l106 158q-87 10 -155.5 45t-105 76t-61 85t-31.5 68t-7 29z" />
    <glyph glyph-name="Scaron" unicode="&#x160;" horiz-adv-x="1288" 
d="M725 20q110 0 197.5 31t138.5 81t77.5 108t26.5 118q0 59 -27.5 108.5t-74.5 85.5t-107.5 67.5t-128 59.5t-134.5 56t-127.5 62.5t-107.5 73.5t-74.5 94t-27.5 120q0 160 133.5 275t344.5 115q92 0 170 -19t128.5 -50t90 -68.5t60.5 -74.5t34.5 -68t17.5 -50l4 -19h-59
q-1 6 -4 16.5t-16.5 40t-32.5 57t-55.5 60.5t-81.5 56.5t-115 40t-152 16.5q-181 0 -292 -93t-111 -224q0 -73 44.5 -131.5t116 -98.5t157.5 -77t172.5 -75.5t158 -83.5t116 -112t44.5 -151q0 -81 -36 -154.5t-100 -130t-161 -90t-211 -33.5q-82 0 -152.5 14t-121.5 38
t-93.5 54.5t-70 64.5t-48.5 68t-32 64.5t-18 54.5t-9 38l-2 14h62q1 -7 3.5 -19.5t16.5 -49t33.5 -69.5t58.5 -73t87.5 -69t124 -49t165.5 -20zM1198 1905l-266 -287h-82l-164 287h66l131 -226h28l209 226h78z" />
    <glyph glyph-name="scaron" unicode="&#x161;" horiz-adv-x="1017" 
d="M154 287h63q1 -5 4 -14t15 -34.5t28.5 -48.5t47.5 -51.5t68 -49t93.5 -34.5t122.5 -14q145 0 225 64.5t80 162.5q0 53 -35 93.5t-91.5 66t-124 47.5t-135.5 45.5t-124.5 52t-91.5 75.5t-35 108q0 48 24.5 95.5t69 86t115 62.5t154.5 24q69 0 128 -14.5t98 -38t70 -52
t48 -57t28.5 -52t14.5 -38.5l4 -14h-66q0 4 -8 22.5t-31.5 50.5t-58.5 60.5t-98 50t-140 21.5q-138 0 -213 -60t-75 -139q0 -52 35 -91.5t91.5 -64t124 -46t135.5 -45.5t124.5 -53t91.5 -77t35 -111q0 -126 -102.5 -211t-276.5 -85q-76 0 -141 17t-108 43.5t-77.5 60
t-53.5 65t-31.5 60t-16.5 43.5t-4 18zM987 1495l-266 -287h-82l-164 287h66l131 -225h28l209 225h78z" />
    <glyph glyph-name="Tcommaaccent" unicode="&#x162;" horiz-adv-x="1116" 
d="M737 1372h-532l10 62h1126l-10 -62h-532l-242 -1372h-61zM489 -274q-28 0 -43.5 15t-15.5 38q0 29 20.5 48t51.5 19q32 0 51.5 -23t19.5 -73q0 -98 -53 -156.5t-125 -58.5l8 41q46 2 80.5 34t34.5 93l-4 29q-9 -6 -25 -6z" />
    <glyph glyph-name="tcommaaccent" unicode="&#x163;" horiz-adv-x="688" 
d="M217 942l10 62h154l41 225h61l-41 -225h349l-11 -62h-348l-156 -881h359l-10 -61h-420l166 942h-154zM360 -326q-28 0 -43.5 15.5t-15.5 38.5q0 29 20.5 48t51.5 19q32 0 51.5 -23t19.5 -73q0 -98 -53 -156.5t-125 -58.5l8 41q46 2 80.5 34t34.5 93l-4 29q-9 -7 -25 -7z
" />
    <glyph glyph-name="Tcaron" unicode="&#x164;" horiz-adv-x="1116" 
d="M737 1372h-532l10 62h1126l-10 -62h-532l-242 -1372h-61zM1096 1905l-267 -287h-81l-164 287h65l131 -226h29l209 226h78z" />
    <glyph glyph-name="tcaron" unicode="&#x165;" horiz-adv-x="653" 
d="M217 942l10 62h154l41 225h61l-207 -1168h359l-10 -61h-420l166 942h-154zM662 1116q-28 0 -44 15t-16 38q0 29 20.5 48.5t51.5 19.5q32 0 51.5 -23t19.5 -73q0 -98 -53 -156.5t-125 -58.5l8 41q46 2 80.5 34t34.5 93l-4 28q-8 -6 -24 -6z" />
    <glyph glyph-name="Umacron" unicode="&#x16a;" horiz-adv-x="1454" 
d="M1516 1434l-168 -955q-42 -245 -195 -382.5t-371 -137.5q-109 0 -198 30.5t-149 85.5t-98.5 131.5t-46 168t8.5 196.5l152 863h61l-152 -869q-43 -250 71 -397.5t351 -147.5q197 0 331 119t173 344l168 951h62zM774 1700l10 61h482l-11 -61h-481z" />
    <glyph glyph-name="umacron" unicode="&#x16b;" horiz-adv-x="1187" 
d="M991 0h-61l31 174q-58 -93 -155 -143.5t-214 -50.5q-194 0 -287 123t-59 319l102 582h62l-103 -574q-30 -166 47 -277.5t242 -111.5q150 0 262.5 99t142.5 268l105 596h61zM553 1290l10 62h481l-10 -62h-481z" />
    <glyph glyph-name="Uring" unicode="&#x16e;" horiz-adv-x="1454" 
d="M1516 1434l-168 -955q-42 -245 -195 -382.5t-371 -137.5q-109 0 -198 30.5t-149 85.5t-98.5 131.5t-46 168t8.5 196.5l152 863h61l-152 -869q-43 -250 71 -397.5t351 -147.5q197 0 331 119t173 344l168 951h62zM1036 1946q79 0 131 -51t52 -126q0 -86 -63.5 -149.5
t-145.5 -63.5q-79 0 -131 51t-52 126q0 86 63.5 149.5t145.5 63.5zM1010 1618q60 0 102.5 41.5t42.5 103.5q0 52 -33 86.5t-86 34.5q-60 0 -102.5 -41.5t-42.5 -103.5q0 -52 33 -86.5t86 -34.5z" />
    <glyph glyph-name="uring" unicode="&#x16f;" horiz-adv-x="1187" 
d="M991 0h-61l31 174q-58 -93 -155 -143.5t-214 -50.5q-194 0 -287 123t-59 319l102 582h62l-103 -574q-30 -166 47 -277.5t242 -111.5q150 0 262.5 99t142.5 268l105 596h61zM819 1597q79 0 130.5 -50.5t51.5 -125.5q0 -86 -63 -149.5t-145 -63.5q-79 0 -131 50.5
t-52 125.5q0 86 63.5 149.5t145.5 63.5zM793 1270q60 0 102.5 41.5t42.5 103.5q0 52 -33 86.5t-86 34.5q-60 0 -102.5 -41.5t-42.5 -103.5q0 -52 33 -86.5t86 -34.5z" />
    <glyph glyph-name="Uhungarumlaut" unicode="&#x170;" horiz-adv-x="1454" 
d="M1516 1434l-168 -955q-42 -245 -195 -382.5t-371 -137.5q-109 0 -198 30.5t-149 85.5t-98.5 131.5t-46 168t8.5 196.5l152 863h61l-152 -869q-43 -250 71 -397.5t351 -147.5q197 0 331 119t173 344l168 951h62zM1030 1894h80l-244 -276h-57zM1300 1894h80l-243 -276h-58z
" />
    <glyph glyph-name="uhungarumlaut" unicode="&#x171;" horiz-adv-x="1187" 
d="M991 0h-61l31 174q-58 -93 -155 -143.5t-214 -50.5q-194 0 -287 123t-59 319l102 582h62l-103 -574q-30 -166 47 -277.5t242 -111.5q150 0 262.5 99t142.5 268l105 596h61zM836 1485h79l-243 -277h-58zM1106 1485h80l-244 -277h-57z" />
    <glyph glyph-name="Uogonek" unicode="&#x172;" horiz-adv-x="1454" 
d="M758 -440q-78 0 -131.5 46t-53.5 118q0 134 162 237q-248 15 -364.5 185t-71.5 425l152 863h61l-152 -869q-43 -250 71 -397.5t351 -147.5q197 0 331 119t173 344l168 951h62l-168 -955q-41 -232 -181 -368t-342 -150q-190 -114 -190 -233q0 -46 35.5 -76.5t97.5 -30.5
q26 0 52.5 6t39.5 11l14 6l-10 -62q-45 -22 -106 -22z" />
    <glyph glyph-name="uogonek" unicode="&#x173;" horiz-adv-x="1187" 
d="M850 -440q-78 0 -131 46t-53 118q0 57 29.5 108t77 87.5t85 58.5t76.5 38l27 158q-58 -93 -155 -143.5t-214 -50.5q-194 0 -287 123t-59 319l102 582h62l-103 -574q-30 -166 47 -277.5t242 -111.5q150 0 262.5 99t142.5 268l105 596h61l-176 -1004q-11 -5 -28.5 -13.5
t-63 -36t-80.5 -57.5t-63.5 -75t-28.5 -90q0 -46 35.5 -76.5t97.5 -30.5q26 0 53 6t41 11l13 6l-11 -62q-45 -22 -106 -22z" />
    <glyph glyph-name="Ydieresis" unicode="&#x178;" 
d="M657 512l-411 922h69l381 -856l684 856h74l-735 -922l-90 -512h-62zM694 1679q-24 0 -41.5 15.5t-17.5 40.5q0 29 19 48t44 19t42.5 -15t17.5 -40q0 -29 -19.5 -48.5t-44.5 -19.5zM1038 1679q-24 0 -41.5 15.5t-17.5 40.5q0 29 19 48t44 19t42.5 -15t17.5 -40
q0 -29 -19.5 -48.5t-44.5 -19.5z" />
    <glyph glyph-name="Zacute" unicode="&#x179;" horiz-adv-x="1193" 
d="M61 0l11 61l1196 1311h-924l10 62h1004l-10 -62l-1196 -1311h964l-10 -61h-1045zM1051 1894h84l-275 -276h-61z" />
    <glyph glyph-name="zacute" unicode="&#x17a;" horiz-adv-x="954" 
d="M1026 942l-866 -881h731l-10 -61h-809l10 61l866 881h-690l10 62h768zM866 1485h84l-274 -277h-62z" />
    <glyph glyph-name="Zdotaccent" unicode="&#x17b;" horiz-adv-x="1193" 
d="M61 0l11 61l1196 1311h-924l10 62h1004l-10 -62l-1196 -1311h964l-10 -61h-1045zM864 1679q-24 0 -39.5 16.5t-15.5 39.5q0 32 20 49.5t48 17.5q24 0 39.5 -16.5t15.5 -38.5q0 -32 -20 -50t-48 -18z" />
    <glyph glyph-name="zdotaccent" unicode="&#x17c;" horiz-adv-x="954" 
d="M1026 942l-866 -881h731l-10 -61h-809l10 61l866 881h-690l10 62h768zM680 1270q-24 0 -39.5 16.5t-15.5 38.5q0 32 19.5 50t47.5 18q24 0 40 -17t16 -39q0 -32 -20 -49.5t-48 -17.5z" />
    <glyph glyph-name="Zcaron" unicode="&#x17d;" horiz-adv-x="1193" 
d="M61 0l11 61l1196 1311h-924l10 62h1004l-10 -62l-1196 -1311h964l-10 -61h-1045zM1157 1905l-266 -287h-82l-164 287h66l131 -226h28l209 226h78z" />
    <glyph glyph-name="zcaron" unicode="&#x17e;" horiz-adv-x="954" 
d="M1026 942l-866 -881h731l-10 -61h-809l10 61l866 881h-690l10 62h768zM973 1495l-266 -287h-82l-164 287h65l131 -225h29l209 225h78z" />
    <glyph glyph-name="florin" unicode="&#x192;" horiz-adv-x="628" 
d="M248 942l4 62h151l101 430h411l-6 -62h-358l-86 -368h289l-4 -62h-297l-303 -1331h-345l7 61h290l289 1270h-143z" />
    <glyph glyph-name="uni01FA" unicode="&#x1fa;" horiz-adv-x="1361" 
d="M1116 2109h72l-154 -167q65 -12 104.5 -59.5t39.5 -113.5q0 -86 -63.5 -149.5t-145.5 -63.5q-79 0 -131 51t-52 126q0 81 58 143t135 68zM969 1618q60 0 102.5 41.5t42.5 103.5q0 52 -33 86.5t-86 34.5q-60 0 -102.5 -41.5t-42.5 -103.5q0 -52 33 -86.5t86 -34.5zM1247 0
l-47 532h-809l-235 -532h-64l631 1434h461l127 -1434h-64zM1126 1372h-366l-344 -778h780z" />
    <glyph glyph-name="uni01FB" unicode="&#x1fb;" horiz-adv-x="1271" 
d="M944 1761h72l-154 -168q65 -12 104.5 -59t39.5 -113q0 -86 -63.5 -149.5t-145.5 -63.5q-79 0 -131 50.5t-52 125.5q0 81 58 143t135 68zM797 1270q60 0 102.5 41.5t42.5 103.5q0 52 -33 86.5t-86 34.5q-60 0 -102.5 -41.5t-42.5 -103.5q0 -52 33 -86.5t86 -34.5zM635 -20
q-196 0 -318 132t-122 328q0 124 43 233.5t115 186t169.5 120.5t204.5 44q151 0 260.5 -80.5t153.5 -214.5l49 275h61l-176 -1004h-61l33 190q-74 -99 -182 -154.5t-230 -55.5zM635 41q95 0 181.5 39t150.5 106.5t101.5 165.5t37.5 211q0 175 -108 287.5t-271 112.5
q-127 0 -234.5 -66t-172 -186.5t-64.5 -270.5q0 -175 108 -287t271 -112z" />
    <glyph glyph-name="uni01FC" unicode="&#x1fc;" horiz-adv-x="1941" 
d="M1044 61h809l-10 -61h-870l94 532h-676l-235 -532h-64l631 1434h1372l-10 -62h-809l-109 -614h656l-11 -62h-655zM760 1372l-344 -778h661l137 778h-454zM1524 1894h84l-275 -276h-61z" />
    <glyph glyph-name="uni01FD" unicode="&#x1fd;" horiz-adv-x="1998" 
d="M543 -20q-167 0 -268 76.5t-101 199.5q0 135 102 226t263 91h495l13 64q29 145 -55.5 235.5t-264.5 90.5q-61 0 -115 -14t-92 -36.5t-70 -50t-51.5 -55t-33.5 -50t-19 -36.5l-6 -14h-66q3 7 8 18t24 44t42 63t62 66.5t82.5 63t105.5 44.5t129 18q167 0 266 -71.5
t117 -192.5q73 121 194 192.5t252 71.5q97 0 178 -38t133.5 -102t81.5 -145.5t29 -169.5l-2 -57h-893q-2 -32 -2 -63q0 -177 111 -292.5t274 -115.5q79 0 150 28.5t116 69t78.5 81t48.5 68.5l15 29h68q-16 -39 -44.5 -82t-73.5 -89.5t-97.5 -82.5t-122 -59.5t-142.5 -23.5
q-155 0 -274 96.5t-156 247.5q-5 -13 -12.5 -29t-28.5 -52t-46 -68t-66.5 -69t-87.5 -63.5t-111 -44.5t-137 -18zM236 258q0 -99 86.5 -158t220.5 -59q112 0 212.5 49t169.5 139.5t87 204.5l12 78h-492q-135 0 -215.5 -72t-80.5 -182zM1917 573q0 173 -106.5 281.5
t-258.5 108.5q-167 0 -288.5 -110.5t-169.5 -279.5h823zM1358 1485h84l-275 -277h-61z" />
    <glyph glyph-name="uni01FE" unicode="&#x1fe;" horiz-adv-x="1679" 
d="M160 76l190 162q-104 159 -104 387q0 180 63 339.5t168.5 270.5t248 175.5t298.5 64.5q162 0 294.5 -60.5t221.5 -171.5l236 201l-11 -86l-192 -162q106 -165 106 -387q0 -180 -63 -339.5t-168.5 -270.5t-248 -175.5t-298.5 -64.5q-164 0 -296.5 59.5t-219.5 169.5
l-235 -198zM307 625q0 -198 94 -346l1088 923q-79 101 -199 156t-266 55q-145 0 -276 -59t-228.5 -161.5t-155 -250.5t-57.5 -317zM901 20q145 0 276 59t228.5 162t155 251t57.5 317q0 199 -94 344l-1090 -922q80 -101 200.5 -156t266.5 -55zM1276 1894h84l-275 -276h-61z
" />
    <glyph glyph-name="uni01FF" unicode="&#x1ff;" horiz-adv-x="1226" 
d="M999 1485h84l-274 -277h-61zM748 1024q106 0 197.5 -42t154.5 -116l166 138l-9 -80l-124 -103q75 -113 75 -258q0 -123 -46 -233t-122.5 -186t-177 -120t-207.5 -44q-106 0 -196.5 41.5t-155.5 115.5l-166 -137l8 80l125 102q-75 113 -75 258q0 123 46 233t122.5 186
t177 120.5t207.5 44.5zM317 221l734 606q-56 64 -135 100t-168 36q-95 0 -184.5 -39t-157.5 -107t-109 -166.5t-41 -210.5q0 -124 61 -219zM1147 563q0 123 -62 219l-733 -606q56 -64 134.5 -99.5t168.5 -35.5q95 0 184.5 39t157.5 106.5t109 166t41 210.5z" />
    <glyph glyph-name="Scommaaccent" unicode="&#x218;" horiz-adv-x="1288" 
d="M725 20q110 0 197.5 31t138.5 81t77.5 108t26.5 118q0 59 -27.5 108.5t-74.5 85.5t-107.5 67.5t-128 59.5t-134.5 56t-127.5 62.5t-107.5 73.5t-74.5 94t-27.5 120q0 160 133.5 275t344.5 115q92 0 170 -19t128.5 -50t90 -68.5t60.5 -74.5t34.5 -68t17.5 -50l4 -19h-59
q-1 6 -4 16.5t-16.5 40t-32.5 57t-55.5 60.5t-81.5 56.5t-115 40t-152 16.5q-181 0 -292 -93t-111 -224q0 -73 44.5 -131.5t116 -98.5t157.5 -77t172.5 -75.5t158 -83.5t116 -112t44.5 -151q0 -81 -36 -154.5t-100 -130t-161 -90t-211 -33.5q-82 0 -152.5 14t-121.5 38
t-93.5 54.5t-70 64.5t-48.5 68t-32 64.5t-18 54.5t-9 38l-2 14h62q1 -7 3.5 -19.5t16.5 -49t33.5 -69.5t58.5 -73t87.5 -69t124 -49t165.5 -20zM616 -326q-28 0 -43.5 15.5t-15.5 38.5q0 29 20.5 48t51.5 19q32 0 51.5 -23t19.5 -73q0 -98 -53 -156.5t-125 -58.5l8 41
q46 2 80.5 34t34.5 93l-4 29q-9 -7 -25 -7z" />
    <glyph glyph-name="scommaaccent" unicode="&#x219;" horiz-adv-x="1017" 
d="M154 287h63q1 -5 4 -14t15 -34.5t28.5 -48.5t47.5 -51.5t68 -49t93.5 -34.5t122.5 -14q145 0 225 64.5t80 162.5q0 53 -35 93.5t-91.5 66t-124 47.5t-135.5 45.5t-124.5 52t-91.5 75.5t-35 108q0 48 24.5 95.5t69 86t115 62.5t154.5 24q69 0 128 -14.5t98 -38t70 -52
t48 -57t28.5 -52t14.5 -38.5l4 -14h-66q0 4 -8 22.5t-31.5 50.5t-58.5 60.5t-98 50t-140 21.5q-138 0 -213 -60t-75 -139q0 -52 35 -91.5t91.5 -64t124 -46t135.5 -45.5t124.5 -53t91.5 -77t35 -111q0 -126 -102.5 -211t-276.5 -85q-76 0 -141 17t-108 43.5t-77.5 60
t-53.5 65t-31.5 60t-16.5 43.5t-4 18zM500 -326q-28 0 -44 15.5t-16 38.5q0 29 20.5 48t51.5 19q32 0 52 -23.5t20 -72.5q0 -98 -53 -156.5t-125 -58.5l8 41q45 2 79.5 34t34.5 93l-4 29q-8 -7 -24 -7z" />
    <glyph glyph-name="uni021A" unicode="&#x21a;" horiz-adv-x="1116" 
d="M737 1372h-532l10 62h1126l-10 -62h-532l-242 -1372h-61zM489 -274q-28 0 -43.5 15t-15.5 38q0 29 20.5 48t51.5 19q32 0 51.5 -23t19.5 -73q0 -98 -53 -156.5t-125 -58.5l8 41q46 2 80.5 34t34.5 93l-4 29q-9 -6 -25 -6z" />
    <glyph glyph-name="uni021B" unicode="&#x21b;" horiz-adv-x="688" 
d="M217 942l10 62h154l41 225h61l-41 -225h349l-11 -62h-348l-156 -881h359l-10 -61h-420l166 942h-154zM360 -326q-28 0 -43.5 15.5t-15.5 38.5q0 29 20.5 48t51.5 19q32 0 51.5 -23t19.5 -73q0 -98 -53 -156.5t-125 -58.5l8 41q46 2 80.5 34t34.5 93l-4 29q-9 -7 -25 -7z
" />
    <glyph glyph-name="afii57929" unicode="&#x2bc;" horiz-adv-x="270" 
d="M360 1323q-28 0 -43.5 15t-15.5 38q0 29 20.5 48.5t51.5 19.5q32 0 51.5 -23t19.5 -73q0 -98 -53 -156.5t-125 -58.5l8 41q46 2 80.5 33.5t34.5 92.5l-4 29q-9 -6 -25 -6z" />
    <glyph glyph-name="circumflex" unicode="&#x2c6;" horiz-adv-x="634" 
d="M584 1423l164 -286h-66l-131 225h-29l-209 -225h-77l266 286h82z" />
    <glyph glyph-name="caron" unicode="&#x2c7;" horiz-adv-x="634" 
d="M799 1423l-267 -286h-81l-164 286h65l131 -225h29l209 225h78z" />
    <glyph glyph-name="breve" unicode="&#x2d8;" horiz-adv-x="636" 
d="M537 1157q-102 0 -176 56t-74 161v8h63v-12q0 -66 50 -108.5t141 -42.5q82 0 136.5 45t61.5 118h62q-10 -99 -85.5 -162t-178.5 -63z" />
    <glyph glyph-name="dotaccent" unicode="&#x2d9;" horiz-adv-x="245" 
d="M352 1290q-24 0 -39.5 16.5t-15.5 39.5q0 32 20 49.5t48 17.5q24 0 39.5 -16.5t15.5 -38.5q0 -32 -20 -50t-48 -18z" />
    <glyph glyph-name="ring" unicode="&#x2da;" horiz-adv-x="514" 
d="M465 1413q79 0 130.5 -50.5t51.5 -125.5q0 -86 -63.5 -149.5t-145.5 -63.5q-79 0 -130.5 50.5t-51.5 125.5q0 86 63.5 149.5t145.5 63.5zM438 1085q60 0 103 42t43 104q0 52 -33 86.5t-86 34.5q-60 0 -103 -42t-43 -104q0 -52 33 -86.5t86 -34.5z" />
    <glyph glyph-name="ogonek" unicode="&#x2db;" horiz-adv-x="440" 
d="M184 -440q-78 0 -131 46t-53 118q0 41 16.5 80.5t43 69.5t58.5 56t64.5 44t59 31.5t42.5 19.5l17 6h88l-42 -21t-58 -30t-61 -35t-63 -44t-51.5 -49.5t-39 -59t-13.5 -64.5q0 -46 36 -76.5t98 -30.5q26 0 52.5 6t40.5 11l13 6l-10 -62q-46 -22 -107 -22z" />
    <glyph glyph-name="tilde" unicode="&#x2dc;" horiz-adv-x="677" 
d="M442 1341q-78 0 -96 -92l-8 -41h-62l9 41q13 69 60.5 111.5t109.5 42.5q41 0 77 -22.5t56.5 -49t49 -49t56.5 -22.5q81 0 99 92l8 41h61l-8 -41q-13 -69 -60.5 -111.5t-109.5 -42.5q-41 0 -77.5 22.5t-57.5 49t-50 49t-57 22.5z" />
    <glyph glyph-name="hungarumlaut" unicode="&#x2dd;" horiz-adv-x="653" 
d="M498 1423h80l-244 -276h-58zM768 1423h80l-244 -276h-57z" />
    <glyph glyph-name="uni0301" unicode="&#x301;" horiz-adv-x="0" 
d="M-338 1915h72l-205 -225h-51z" />
    <glyph glyph-name="uni030A" unicode="&#x30a;" horiz-adv-x="0" 
d="M-406 1751q79 0 131 -50.5t52 -125.5q0 -86 -63.5 -149.5t-145.5 -63.5q-79 0 -130.5 50.5t-51.5 125.5q0 86 63 149.5t145 63.5zM-432 1423q59 0 102 42t43 104q0 52 -33 86.5t-86 34.5q-59 0 -102 -42t-43 -104q0 -52 33 -86.5t86 -34.5z" />
    <glyph glyph-name="afii10023" unicode="&#x401;" horiz-adv-x="1245" 
d="M297 61h860l-10 -61h-922l252 1434h922l-10 -62h-861l-108 -614h706l-10 -62h-706zM776 1638q-24 0 -41.5 15.5t-17.5 40.5q0 29 19 48t44 19t42.5 -15t17.5 -40q0 -29 -19.5 -48.5t-44.5 -19.5zM1120 1638q-24 0 -41.5 15.5t-17.5 40.5q0 29 19 48t44 19t42.5 -15
t17.5 -40q0 -29 -19.5 -48.5t-44.5 -19.5z" />
    <glyph glyph-name="afii10051" unicode="&#x402;" horiz-adv-x="1503" 
d="M1444 391l-96 -555h-390l11 62h327l88 501q14 80 -5 150.5t-66.5 123.5t-129 84t-186.5 31h-393l-139 -788h-62l242 1372h-461l11 62h1044l-10 -62h-522l-93 -522h383q123 0 218 -37.5t149 -101t75 -146t5 -174.5z" />
    <glyph glyph-name="afii10052" unicode="&#x403;" horiz-adv-x="1101" 
d="M528 1372l-241 -1372h-62l252 1434h881l-10 -62h-820zM1112 1864h84l-274 -277h-62z" />
    <glyph glyph-name="afii10053" unicode="&#x404;" horiz-adv-x="1642" 
d="M911 20q108 0 207 33.5t170 85t129 117t92 124.5t52 112h65q-35 -100 -99 -192t-153 -170t-209.5 -124.5t-253.5 -46.5q-299 0 -482 183.5t-183 482.5q0 181 63 340t169.5 270t251.5 175.5t304 64.5q127 0 236.5 -39.5t188.5 -108t131 -159t73 -195.5h-64
q-41 190 -194.5 315t-370.5 125q-179 0 -332.5 -82t-256 -232t-130.5 -341h678l-10 -62h-674q-2 -25 -2 -71q0 -269 168 -437t436 -168z" />
    <glyph glyph-name="afii10054" unicode="&#x405;" horiz-adv-x="1288" 
d="M725 20q110 0 197.5 31t138.5 81t77.5 108t26.5 118q0 59 -27.5 108.5t-74.5 85.5t-107.5 67.5t-128 59.5t-134.5 56t-127.5 62.5t-107.5 73.5t-74.5 94t-27.5 120q0 160 133.5 275t344.5 115q92 0 170 -19t128.5 -50t90 -68.5t60.5 -74.5t34.5 -68t17.5 -50l4 -19h-59
q-1 6 -4 16.5t-16.5 40t-32.5 57t-55.5 60.5t-81.5 56.5t-115 40t-152 16.5q-181 0 -292 -93t-111 -224q0 -73 44.5 -131.5t116 -98.5t157.5 -77t172.5 -75.5t158 -83.5t116 -112t44.5 -151q0 -81 -36 -154.5t-100 -130t-161 -90t-211 -33.5q-82 0 -152.5 14t-121.5 38
t-93.5 54.5t-70 64.5t-48.5 68t-32 64.5t-18 54.5t-9 38l-2 14h62q1 -7 3.5 -19.5t16.5 -49t33.5 -69.5t58.5 -73t87.5 -69t124 -49t165.5 -20z" />
    <glyph glyph-name="afii10055" unicode="&#x406;" horiz-adv-x="507" 
d="M539 1434l-252 -1434h-62l252 1434h62z" />
    <glyph glyph-name="afii10056" unicode="&#x407;" horiz-adv-x="507" 
d="M539 1434l-252 -1434h-62l252 1434h62zM367 1638q-24 0 -42 15.5t-18 40.5q0 28 19.5 47.5t44.5 19.5q24 0 41.5 -15t17.5 -40q0 -29 -19 -48.5t-44 -19.5zM711 1638q-24 0 -42 15.5t-18 40.5q0 28 19.5 47.5t44.5 19.5q24 0 41.5 -15t17.5 -40q0 -29 -19 -48.5
t-44 -19.5z" />
    <glyph glyph-name="afii10057" unicode="&#x408;" horiz-adv-x="1167" 
d="M1219 1434l-185 -1033q-38 -213 -164 -327.5t-315 -114.5q-92 0 -167.5 22t-122 56.5t-81.5 76.5t-52 84.5t-27 77t-11 56.5l-2 22l64 11q0 -7 1.5 -19.5t10 -48.5t23 -68.5t44.5 -72t70.5 -68.5t105.5 -48.5t144 -19.5q166 0 277 101t143 285l182 1028h62z" />
    <glyph glyph-name="afii10058" unicode="&#x409;" horiz-adv-x="2099" 
d="M1225 901h424q210 0 335 -113t125 -286q0 -223 -141 -362.5t-371 -139.5h-593l241 1372h-495l-594 -1372h-64l621 1434h604zM1649 840h-437l-137 -779h533q199 0 319.5 120.5t120.5 320.5q0 150 -106 244t-293 94z" />
    <glyph glyph-name="afii10059" unicode="&#x40a;" horiz-adv-x="2269" 
d="M1395 819h424q212 0 336 -102.5t124 -265.5q0 -201 -141 -326t-371 -125h-579l133 758h-901l-133 -758h-62l252 1434h62l-107 -615h899l109 615h61zM1819 758h-437l-122 -697h518q200 0 320 106t120 284q0 139 -105 223t-294 84z" />
    <glyph glyph-name="afii10060" unicode="&#x40b;" horiz-adv-x="1503" 
d="M1444 391l-68 -391h-61l69 399q14 80 -5 150.5t-66.5 123.5t-129 84t-186.5 31h-393l-139 -788h-62l242 1372h-461l11 62h1044l-10 -62h-522l-93 -522h383q123 0 218 -37.5t149 -101t75 -146t5 -174.5z" />
    <glyph glyph-name="afii10061" unicode="&#x40c;" horiz-adv-x="1265" 
d="M1171 0l-387 696h-374l-123 -696h-62l252 1434h62l-119 -676h371l608 676h82l-635 -707l403 -727h-78zM1153 1864h84l-274 -277h-62z" />
    <glyph glyph-name="afii10062" unicode="&#x40e;" 
d="M846 1587q-121 0 -191.5 70t-70.5 170v16h61v-16q0 -80 55 -129t154 -49q90 0 151.5 54.5t69.5 139.5h64q-13 -116 -96.5 -186t-196.5 -70zM446 543l-180 891h62l168 -830h366l477 830h64l-825 -1434h-64l311 543h-379z" />
    <glyph glyph-name="afii10145" unicode="&#x40f;" horiz-adv-x="1490" 
d="M225 0l252 1434h62l-242 -1373h922l241 1373h62l-252 -1434h-492l-51 -287h-61l51 287h-492z" />
    <glyph glyph-name="afii10017" unicode="&#x410;" horiz-adv-x="1361" 
d="M1247 0l-47 532h-809l-235 -532h-64l631 1434h461l127 -1434h-64zM1126 1372h-366l-344 -778h780z" />
    <glyph glyph-name="afii10018" unicode="&#x411;" horiz-adv-x="1388" 
d="M881 799h-453l-131 -738h543q205 0 322.5 111.5t117.5 298.5q0 143 -106.5 235.5t-292.5 92.5zM438 860h443q215 0 337.5 -110.5t122.5 -278.5q0 -202 -140.5 -336.5t-360.5 -134.5h-615l252 1434h922l-10 -62h-861z" />
    <glyph glyph-name="afii10019" unicode="&#x412;" horiz-adv-x="1454" 
d="M973 717h-559l-117 -656h635q175 0 282 101.5t107 257.5q0 121 -96.5 209t-251.5 88zM1085 1372h-557l-104 -594h610q158 0 253 93.5t95 234.5q0 117 -80.5 191.5t-216.5 74.5zM477 1434h608q158 0 258.5 -92.5t100.5 -225.5q0 -65 -15.5 -120.5t-39.5 -93.5t-53.5 -68
t-59.5 -47.5t-54 -29.5t-40 -16l-15 -4q4 -2 12 -5.5t30.5 -16.5t42.5 -28.5t45 -42.5t43 -58t30 -74.5t12 -91.5q0 -180 -128 -300t-332 -120h-697z" />
    <glyph glyph-name="afii10020" unicode="&#x413;" horiz-adv-x="1101" 
d="M528 1372l-241 -1372h-62l252 1434h881l-10 -62h-820z" />
    <glyph glyph-name="afii10021" unicode="&#x414;" horiz-adv-x="1454" 
d="M1225 1434l92 -1373h158l-62 -348h-61l51 287h-1311l-51 -287h-61l61 348h158l575 1373h451zM811 1372l-549 -1311h991l-86 1311h-356z" />
    <glyph glyph-name="afii10022" unicode="&#x415;" horiz-adv-x="1245" 
d="M297 61h860l-10 -61h-922l252 1434h922l-10 -62h-861l-108 -614h706l-10 -62h-706z" />
    <glyph glyph-name="afii10024" unicode="&#x416;" horiz-adv-x="1961" 
d="M723 696l-623 -696h-80l652 727l-379 707h74l360 -676h358l119 676h62l-119 -676h354l598 676h78l-625 -707l394 -727h-76l-377 696h-356l-123 -696h-62l123 696h-352z" />
    <glyph glyph-name="afii10025" unicode="&#x417;" horiz-adv-x="1290" 
d="M850 1475q211 0 336 -103t125 -252q0 -67 -19 -124t-48.5 -95.5t-66 -69.5t-73 -48.5t-66 -29.5t-48.5 -16l-19 -4q10 -3 27.5 -10t61 -34t77 -61.5t61 -95.5t27.5 -133q0 -87 -37 -166.5t-103 -140t-164.5 -97t-213.5 -36.5q-80 0 -149.5 14.5t-119 38.5t-91 55.5
t-68 66.5t-47 70t-31 66.5t-17.5 55.5t-8 38l-2 15h59q1 -8 3 -20.5t15 -50t31.5 -71.5t56 -75.5t85 -71t122.5 -50t165 -20.5q203 0 326.5 109t123.5 262q0 141 -113 233.5t-307 92.5h-151l12 61h240q181 0 294 95t113 243q0 123 -107 210t-300 87q-71 0 -135 -18t-110 -47
t-85.5 -64t-64.5 -70t-43 -64t-26 -47l-7 -18h-60q3 8 9 22t29 54.5t50 77.5t73 82t98 77.5t125.5 54.5t154.5 22z" />
    <glyph glyph-name="afii10026" unicode="&#x418;" horiz-adv-x="1511" 
d="M1450 1434h92l-252 -1434h-61l241 1366l-1153 -1366h-92l252 1434h62l-240 -1366z" />
    <glyph glyph-name="afii10027" unicode="&#x419;" horiz-adv-x="1511" 
d="M1034 1587q-121 0 -191.5 70t-70.5 170v16h62v-16q0 -80 54.5 -129t153.5 -49q90 0 152 54.5t70 139.5h63q-13 -116 -96.5 -186t-196.5 -70zM1450 1434h92l-252 -1434h-61l241 1366l-1153 -1366h-92l252 1434h62l-240 -1366z" />
    <glyph glyph-name="afii10028" unicode="&#x41a;" horiz-adv-x="1265" 
d="M1171 0l-387 696h-374l-123 -696h-62l252 1434h62l-119 -676h371l608 676h82l-635 -707l403 -727h-78z" />
    <glyph glyph-name="afii10029" unicode="&#x41b;" horiz-adv-x="1341" 
d="M1118 1372h-366l-594 -1372h-66l621 1434h461l116 -1434h-61z" />
    <glyph glyph-name="afii10030" unicode="&#x41c;" horiz-adv-x="1890" 
d="M889 389l-359 989l-243 -1378h-62l252 1434h98l359 -983h178l703 983h106l-252 -1434h-61l243 1378l-706 -989h-256z" />
    <glyph glyph-name="afii10031" unicode="&#x41d;" horiz-adv-x="1490" 
d="M225 0l252 1434h62l-119 -676h921l119 676h62l-252 -1434h-62l123 696h-921l-123 -696h-62z" />
    <glyph glyph-name="afii10032" unicode="&#x41e;" horiz-adv-x="1679" 
d="M1024 1475q292 0 473.5 -183.5t181.5 -482.5q0 -180 -63 -339.5t-168.5 -270.5t-248 -175.5t-298.5 -64.5q-292 0 -473.5 183.5t-181.5 482.5q0 180 63 339.5t168.5 270.5t248 175.5t298.5 64.5zM901 20q145 0 276 59t228.5 162t155 251t57.5 317q0 268 -166 436
t-428 168q-145 0 -276 -59t-228.5 -161.5t-155 -250.5t-57.5 -317q0 -268 166 -436.5t428 -168.5z" />
    <glyph glyph-name="afii10033" unicode="&#x41f;" horiz-adv-x="1480" 
d="M225 0l252 1434h1034l-251 -1434h-62l242 1372h-912l-241 -1372h-62z" />
    <glyph glyph-name="afii10034" unicode="&#x420;" horiz-adv-x="1382" 
d="M942 532h-561l-94 -532h-62l252 1434h506q225 0 348 -109t123 -291q0 -216 -145 -359t-367 -143zM391 594h551q206 0 328.5 120t122.5 320q0 151 -108 244.5t-302 93.5h-455z" />
    <glyph glyph-name="afii10035" unicode="&#x421;" horiz-adv-x="1642" 
d="M911 20q108 0 207 33.5t170 85t129 117t92 124.5t52 112h65q-35 -100 -99 -192t-153 -170t-209.5 -124.5t-253.5 -46.5q-299 0 -482 183.5t-183 482.5q0 181 63 340t169.5 270t251.5 175.5t304 64.5q127 0 236.5 -39.5t188.5 -108t131 -159t73 -195.5h-64
q-41 190 -194.5 315t-370.5 125q-148 0 -281.5 -59t-232 -161.5t-156 -250.5t-57.5 -317q0 -269 168 -437t436 -168z" />
    <glyph glyph-name="afii10036" unicode="&#x422;" horiz-adv-x="1116" 
d="M737 1372h-532l10 62h1126l-10 -62h-532l-242 -1372h-61z" />
    <glyph glyph-name="afii10037" unicode="&#x423;" 
d="M446 543l-180 891h62l168 -830h366l477 830h64l-825 -1434h-64l311 543h-379z" />
    <glyph glyph-name="afii10038" unicode="&#x424;" horiz-adv-x="1810" 
d="M1194 1526l-29 -164q152 -15 275.5 -69t203.5 -134.5t123 -182t43 -214.5q0 -135 -58 -257.5t-160.5 -213.5t-252 -145t-321.5 -54h-76l-29 -164h-61l29 164q-152 15 -275.5 69t-203.5 134.5t-123 182t-43 214.5q0 135 58 257.5t160.5 213.5t252 145t321.5 54h76l29 164
h61zM891 154l203 1146h-86q-197 0 -360 -79.5t-257 -218.5t-94 -306q0 -97 38 -187t110 -164.5t187 -125t259 -65.5zM1155 1300l-203 -1146h86q197 0 360 79.5t257 218.5t94 306q0 97 -38 187t-110 164.5t-187 125t-259 65.5z" />
    <glyph glyph-name="afii10039" unicode="&#x425;" horiz-adv-x="1296" 
d="M72 0l528 727l-246 707h68l231 -676h267l469 676h71l-491 -707l270 -727h-70l-260 696h-258l-506 -696h-73z" />
    <glyph glyph-name="afii10040" unicode="&#x426;" horiz-adv-x="1449" 
d="M1331 0h-1106l252 1434h62l-242 -1373h860l242 1373h61l-241 -1373h184l-62 -348h-61z" />
    <glyph glyph-name="afii10041" unicode="&#x427;" horiz-adv-x="1361" 
d="M1180 588l-10 -6q-9 -6 -29.5 -16.5t-47.5 -22.5t-64.5 -25t-78 -23.5t-91 -17t-101.5 -6.5q-242 0 -356 139.5t-72 372.5l80 451h59l-78 -447q-36 -207 58 -331t311 -124q72 0 143 13.5t121 32.5t90 38t60 32l20 14l137 772h62l-254 -1434h-62z" />
    <glyph glyph-name="afii10042" unicode="&#x428;" horiz-adv-x="2064" 
d="M2095 1434l-252 -1434h-1618l252 1434h62l-242 -1373h717l241 1373h62l-242 -1373h717l242 1373h61z" />
    <glyph glyph-name="afii10043" unicode="&#x429;" horiz-adv-x="2084" 
d="M2095 1434l-242 -1373h185l-62 -348h-61l51 287h-1741l252 1434h62l-242 -1373h717l241 1373h62l-242 -1373h717l242 1373h61z" />
    <glyph glyph-name="afii10044" unicode="&#x42a;" horiz-adv-x="1396" 
d="M522 901h424q211 0 336 -113t125 -286q0 -223 -141 -362.5t-371 -139.5h-594l242 1372h-348l10 62h409zM946 840h-436l-137 -779h532q199 0 320 120.5t121 320.5q0 150 -106 244t-294 94z" />
    <glyph glyph-name="afii10045" unicode="&#x42b;" horiz-adv-x="1726" 
d="M870 840h-436l-137 -779h532q199 0 320 120.5t121 320.5q0 150 -106 244t-294 94zM446 901h424q211 0 336 -113t125 -286q0 -223 -141 -362.5t-371 -139.5h-594l252 1434h62zM1757 1434l-252 -1434h-61l252 1434h61z" />
    <glyph glyph-name="afii10046" unicode="&#x42c;" horiz-adv-x="1341" 
d="M891 840h-457l-137 -779h553q199 0 319.5 120.5t120.5 320.5q0 150 -106 244t-293 94zM446 901h445q211 0 336 -113t125 -286q0 -223 -141 -362.5t-371 -139.5h-615l252 1434h62z" />
    <glyph glyph-name="afii10047" unicode="&#x42d;" horiz-adv-x="1650" 
d="M985 1413q-102 0 -196.5 -30.5t-163.5 -77t-127 -107t-94 -116.5t-58 -109h-65q32 76 78 147t111.5 136t142 113.5t173 77t199.5 28.5q299 0 482.5 -183.5t183.5 -482.5q0 -181 -63 -340t-170 -270t-251.5 -175.5t-304.5 -64.5q-113 0 -209.5 29t-166.5 79t-124 118.5
t-87 145t-50 161.5h64q21 -95 65.5 -178t114 -150t170.5 -105.5t223 -38.5q179 0 332.5 82.5t256 237.5t130.5 356h-678l10 62h674q2 25 2 51q0 177 -76 314.5t-213.5 213.5t-314.5 76z" />
    <glyph glyph-name="afii10048" unicode="&#x42e;" horiz-adv-x="2101" 
d="M1470 1475q181 0 324.5 -82.5t225 -235t81.5 -348.5q0 -180 -62.5 -339.5t-166 -270.5t-240.5 -175.5t-284 -64.5q-181 0 -324.5 82.5t-225 235t-81.5 348.5q0 46 2 71h-309l-123 -696h-62l252 1434h62l-119 -676h305q21 155 90.5 289.5t169 228t226 146.5t259.5 53z
M1348 20q136 0 262 59t221 161.5t152 251.5t57 317q0 132 -43.5 245t-119.5 191.5t-181.5 123t-225.5 44.5q-136 0 -262 -59t-221 -161.5t-152 -251t-57 -316.5q0 -266 162.5 -435.5t407.5 -169.5z" />
    <glyph glyph-name="afii10049" unicode="&#x42f;" horiz-adv-x="1419" 
d="M768 635h481l129 737h-559q-206 0 -318 -108t-112 -301q0 -142 103 -235t276 -93zM174 0l449 594q-140 39 -217.5 132.5t-77.5 236.5q0 209 135 340t356 131h631l-252 -1434h-61l100 573h-559l-432 -573h-72z" />
    <glyph glyph-name="afii10065" unicode="&#x430;" horiz-adv-x="1271" 
d="M635 -20q-196 0 -318 132t-122 328q0 124 43 233.5t115 186t169.5 120.5t204.5 44q151 0 260.5 -80.5t153.5 -214.5l49 275h61l-176 -1004h-61l33 190q-74 -99 -182 -154.5t-230 -55.5zM635 41q95 0 181.5 39t150.5 106.5t101.5 165.5t37.5 211q0 175 -108 287.5
t-271 112.5q-127 0 -234.5 -66t-172 -186.5t-64.5 -270.5q0 -175 108 -287t271 -112z" />
    <glyph glyph-name="afii10066" unicode="&#x431;" horiz-adv-x="1175" 
d="M647 -20q-147 0 -254 74t-151 200.5t-17 277.5l23 115q37 214 101 368.5t150.5 245t187.5 132t224 41.5h326l-12 -62h-314q-221 0 -367.5 -154.5t-219.5 -486.5q6 8 16.5 21t47.5 46t79 58.5t110 46.5t140 21q194 0 317 -121t123 -305q0 -143 -71 -263t-188 -187.5
t-251 -67.5zM653 41q181 0 311 130.5t130 324.5q0 159 -105.5 262.5t-273.5 103.5q-181 0 -311 -130t-130 -324q0 -159 105.5 -263t273.5 -104z" />
    <glyph glyph-name="afii10067" unicode="&#x432;" horiz-adv-x="1095" 
d="M707 492h-365l-76 -431h434q126 0 198.5 64t72.5 166q0 83 -70 142t-194 59zM809 942h-387l-68 -389h445q96 0 155.5 60.5t59.5 154.5q0 73 -54.5 123.5t-150.5 50.5zM371 1004h428q131 0 203.5 -70t72.5 -168q0 -32 -6.5 -61.5t-17 -52t-24 -42t-28.5 -34t-30.5 -26
t-28.5 -19t-23.5 -12.5t-16.5 -7l-5 -2q6 -2 15 -7t33 -23t42.5 -40.5t33.5 -60.5t15 -82q0 -134 -90 -215.5t-242 -81.5h-507z" />
    <glyph glyph-name="afii10068" unicode="&#x433;" horiz-adv-x="841" 
d="M195 0l176 1004h655l-10 -62h-594l-166 -942h-61z" />
    <glyph glyph-name="afii10069" unicode="&#x434;" horiz-adv-x="1097" 
d="M897 1004l82 -943h119l-54 -307h-61l43 246h-963l-43 -246h-61l53 307h119l418 943h348zM584 942l-389 -881h720l-77 881h-254z" />
    <glyph glyph-name="afii10070" unicode="&#x435;" horiz-adv-x="1214" 
d="M195 440q0 101 31.5 194t85 162.5t123 121.5t148.5 79t158 27q196 0 324.5 -133t128.5 -332l-2 -57h-934q-2 -22 -2 -53q0 -178 114.5 -293t291.5 -115q61 0 118 15t98.5 39.5t78 54t60 59t41 54t24.5 39.5l8 15h67q-16 -40 -44.5 -82.5t-74.5 -89t-100.5 -82.5
t-128.5 -59.5t-152 -23.5q-199 0 -330.5 133t-131.5 327zM1133 563q0 118 -56 211.5t-143 141t-186 47.5q-175 0 -308 -114.5t-172 -285.5h865z" />
    <glyph glyph-name="afii10072" unicode="&#x436;" horiz-adv-x="1507" 
d="M815 553l78 451h61l-77 -451h262l413 451h78l-442 -482l297 -522h-74l-281 492h-266l-86 -492h-61l86 492h-260l-453 -492h-80l482 522l-275 482h72l258 -451h268z" />
    <glyph glyph-name="afii10073" unicode="&#x437;" horiz-adv-x="983" 
d="M621 1024q96 0 169.5 -23.5t113.5 -62.5t59.5 -82t19.5 -88q0 -44 -12.5 -82t-32.5 -63.5t-44 -46t-47.5 -32.5t-43.5 -20t-33 -11l-12 -3q7 -2 18.5 -7.5t41 -25t52.5 -43.5t41.5 -65.5t18.5 -89.5q0 -127 -102.5 -213t-276.5 -86q-266 0 -378 170q-35 53 -50 126h65
q0 -3 2.5 -14t12 -33.5t24.5 -46t43.5 -49.5t66 -46t95.5 -33t127 -13q146 0 227.5 67t81.5 168q0 90 -84 153t-231 63h-117l10 61h197q133 0 206 59t73 152q0 85 -77.5 142t-230.5 57q-72 0 -132.5 -20t-95.5 -48.5t-59.5 -57.5t-34.5 -49l-9 -20h-66q4 10 12 27.5
t40.5 61.5t74 78t115.5 61.5t162 27.5z" />
    <glyph glyph-name="afii10074" unicode="&#x438;" horiz-adv-x="1200" 
d="M195 0l176 1004h61l-162 -928l828 928h82l-176 -1004h-62l164 928l-830 -928h-81z" />
    <glyph glyph-name="afii10075" unicode="&#x439;" horiz-adv-x="1200" 
d="M809 1147q-102 0 -176 56t-74 161v8h64v-12q0 -66 50 -109t140 -43q82 0 136.5 45t62.5 119h61q-10 -99 -85.5 -162t-178.5 -63zM195 0l176 1004h61l-162 -928l828 928h82l-176 -1004h-62l164 928l-830 -928h-81z" />
    <glyph glyph-name="afii10076" unicode="&#x43a;" horiz-adv-x="1026" 
d="M342 492l-86 -492h-61l176 1004h61l-78 -451h303l422 451h80l-452 -482l307 -522h-72l-291 492h-309z" />
    <glyph glyph-name="afii10077" unicode="&#x43b;" horiz-adv-x="1054" 
d="M61 0l463 1004h359l110 -1004h-63l-105 942h-264l-436 -942h-64z" />
    <glyph glyph-name="afii10078" unicode="&#x43c;" horiz-adv-x="1435" 
d="M676 287l-252 661l-168 -948h-61l176 1004h102l250 -656h111l479 656h102l-176 -1004h-61l168 948l-486 -661h-184z" />
    <glyph glyph-name="afii10079" unicode="&#x43d;" horiz-adv-x="1200" 
d="M195 0l176 1004h61l-80 -461h686l80 461h62l-176 -1004h-62l84 481h-686l-84 -481h-61z" />
    <glyph glyph-name="afii10080" unicode="&#x43e;" 
d="M655 41q95 0 184.5 39t157.5 106.5t109 166t41 210.5q0 173 -117 286.5t-282 113.5q-95 0 -184.5 -39t-157.5 -107t-109 -166.5t-41 -210.5q0 -173 117 -286t282 -113zM655 -20q-198 0 -329 133t-131 327q0 123 46 233t122.5 186t177 120.5t207.5 44.5q130 0 236 -61.5
t165 -167t59 -232.5q0 -123 -46 -233t-122.5 -186t-177 -120t-207.5 -44z" />
    <glyph glyph-name="afii10081" unicode="&#x43f;" horiz-adv-x="1189" 
d="M195 0l176 1004h798l-176 -1004h-61l166 942h-676l-166 -942h-61z" />
    <glyph glyph-name="afii10082" unicode="&#x440;" horiz-adv-x="1273" 
d="M813 1024q196 0 318 -132.5t122 -328.5q0 -124 -43 -233.5t-115.5 -185.5t-169.5 -120t-204 -44q-151 0 -260.5 80.5t-153.5 213.5l-117 -663h-61l244 1393h61l-33 -191q74 99 182 155t230 56zM813 963q-127 0 -234.5 -66t-172 -186.5t-64.5 -270.5q0 -175 108 -287
t271 -112q95 0 181.5 39t150.5 106.5t101.5 165.5t37.5 211q0 175 -108 287.5t-271 112.5z" />
    <glyph glyph-name="afii10083" unicode="&#x441;" horiz-adv-x="1173" 
d="M655 -20q-198 0 -329 133t-131 327q0 123 46 233t122 186t175 120.5t203 44.5q75 0 139.5 -18.5t108 -48.5t78 -66t54 -72t32 -66t17.5 -49l4 -18h-66q-1 6 -4 16t-15 38.5t-28.5 55t-46.5 58.5t-66 54.5t-90 38.5t-117 16q-93 0 -180.5 -39t-155 -106.5t-108.5 -166.5
t-41 -211q0 -173 117 -286t282 -113q63 0 122 17.5t102 45.5t80.5 61.5t62.5 67.5t42.5 62t25.5 45l8 18h63q-3 -8 -9 -21.5t-28.5 -53t-48.5 -75t-70 -79t-92.5 -75t-116.5 -53t-141 -21.5z" />
    <glyph glyph-name="afii10084" unicode="&#x442;" horiz-adv-x="808" 
d="M123 942l10 62h840l-10 -62h-390l-165 -942h-62l166 942h-389z" />
    <glyph glyph-name="afii10085" unicode="&#x443;" horiz-adv-x="1054" 
d="M326 0l-90 1004h61l84 -943h250l450 943h66l-666 -1393h-65l186 389h-276z" />
    <glyph glyph-name="afii10086" unicode="&#x444;" horiz-adv-x="1345" 
d="M647 41l164 922h-27q-143 0 -264.5 -66.5t-192.5 -182t-71 -253.5q0 -166 108 -284.5t283 -135.5zM698 -20l-65 -369h-62l66 369q-194 19 -318 156t-124 325q0 152 81 282t218.5 205.5t296.5 75.5h30l72 410h61l-71 -410q194 -19 318 -156t124 -325q0 -152 -81 -282
t-218.5 -205.5t-296.5 -75.5h-31zM872 963l-163 -922h26q144 0 265.5 66.5t192.5 182t71 253.5q0 166 -108.5 284.5t-283.5 135.5z" />
    <glyph glyph-name="afii10087" unicode="&#x445;" horiz-adv-x="985" 
d="M51 0l389 522l-192 482h61l180 -451h207l336 451h66l-361 -482l205 -522h-63l-193 492h-203l-364 -492h-68z" />
    <glyph glyph-name="afii10088" unicode="&#x446;" horiz-adv-x="1179" 
d="M195 0l176 1004h61l-166 -943h645l166 943h62l-166 -943h164l-54 -307h-61l43 246h-870z" />
    <glyph glyph-name="afii10089" unicode="&#x447;" horiz-adv-x="1097" 
d="M838 0l69 395q-16 -9 -44 -22t-108 -34.5t-153 -21.5q-195 0 -287 107t-59 274l53 306h62l-58 -320q-25 -140 50.5 -222.5t238.5 -82.5q77 0 156.5 21t120.5 42l41 21l96 541h61l-178 -1004h-61z" />
    <glyph glyph-name="afii10090" unicode="&#x448;" horiz-adv-x="1640" 
d="M1026 1004l-166 -943h533l166 943h61l-176 -1004h-1249l176 1004h61l-166 -943h533l166 943h61z" />
    <glyph glyph-name="afii10091" unicode="&#x449;" horiz-adv-x="1660" 
d="M1026 1004l-166 -943h533l166 943h61l-166 -943h164l-53 -307h-62l43 246h-1351l176 1004h61l-166 -943h533l166 943h61z" />
    <glyph glyph-name="afii10092" unicode="&#x44a;" horiz-adv-x="1083" 
d="M424 614h332q137 0 227 -79.5t90 -196.5q0 -142 -101.5 -240t-266.5 -98h-451l166 942h-256l10 62h318zM745 553h-333l-86 -492h389q133 0 215 74.5t82 202.5q0 94 -73 154.5t-194 60.5z" />
    <glyph glyph-name="afii10093" unicode="&#x44b;" horiz-adv-x="1363" 
d="M645 553h-291l-88 -492h348q133 0 215 74.5t82 202.5q0 94 -72.5 154.5t-193.5 60.5zM365 614h290q137 0 227.5 -79.5t90.5 -196.5q0 -142 -102 -240t-267 -98h-409l176 1004h61zM1106 0l176 1004h61l-176 -1004h-61z" />
    <glyph glyph-name="afii10094" unicode="&#x44c;" horiz-adv-x="1034" 
d="M696 553h-342l-88 -492h400q133 0 215 74.5t82 202.5q0 94 -73 154.5t-194 60.5zM365 614h342q137 0 227 -79.5t90 -196.5q0 -142 -102 -240t-267 -98h-460l176 1004h61z" />
    <glyph glyph-name="afii10095" unicode="&#x44d;" horiz-adv-x="1181" 
d="M584 543h516v20q0 173 -117.5 286.5t-282.5 113.5q-58 0 -112.5 -15.5t-95.5 -39.5t-77 -53.5t-60.5 -59.5t-42 -54t-25.5 -39l-8 -16h-66q3 7 9 19t28.5 47.5t48.5 67t68.5 70.5t89 67.5t110.5 47.5t133 19q130 0 236.5 -61.5t165.5 -167t59 -232.5q0 -123 -46.5 -233
t-122.5 -186t-175 -120t-203 -44q-80 0 -147.5 21t-111.5 54t-78.5 73.5t-53 81t-30.5 73.5t-15 54l-4 21h66q1 -7 3 -18t13 -44t26 -63t44.5 -66.5t67 -63t95 -44.5t125.5 -18q115 0 218 56t173.5 157.5t88.5 226.5h-521z" />
    <glyph glyph-name="afii10096" unicode="&#x44e;" horiz-adv-x="1546" 
d="M350 532h209q29 215 179 353.5t347 138.5q196 0 318.5 -132.5t122.5 -328.5q0 -165 -73.5 -299.5t-195 -209t-264.5 -74.5q-196 0 -318 132t-122 328v31h-213l-84 -471h-61l176 1004h61zM993 41q95 0 181.5 39t150.5 106.5t101.5 165.5t37.5 211q0 175 -108 287.5
t-271 112.5q-127 0 -234.5 -66t-172 -186.5t-64.5 -270.5q0 -175 108 -287t271 -112z" />
    <glyph glyph-name="afii10097" unicode="&#x44f;" horiz-adv-x="1118" 
d="M573 430h363l90 512h-420q-132 0 -218.5 -80t-86.5 -198q0 -100 76 -167t196 -67zM143 0l287 395q-87 32 -138.5 104t-51.5 160q0 142 108 243.5t266 101.5h484l-176 -1004h-62l66 369h-312q-32 0 -65 2t-49 4l-17 2l-272 -377h-68z" />
    <glyph glyph-name="afii10071" unicode="&#x451;" horiz-adv-x="1214" 
d="M195 440q0 101 31.5 194t85 162.5t123 121.5t148.5 79t158 27q196 0 324.5 -133t128.5 -332l-2 -57h-934q-2 -22 -2 -53q0 -178 114.5 -293t291.5 -115q61 0 118 15t98.5 39.5t78 54t60 59t41 54t24.5 39.5l8 15h67q-16 -40 -44.5 -82.5t-74.5 -89t-100.5 -82.5
t-128.5 -59.5t-152 -23.5q-199 0 -330.5 133t-131.5 327zM1133 563q0 118 -56 211.5t-143 141t-186 47.5q-175 0 -308 -114.5t-172 -285.5h865zM602 1208q-24 0 -41.5 15.5t-17.5 40.5q0 29 19 48t44 19t42.5 -15t17.5 -40q0 -29 -19.5 -48.5t-44.5 -19.5zM946 1208
q-24 0 -41.5 15.5t-17.5 40.5q0 29 19 48t44 19t42.5 -15t17.5 -40q0 -29 -19.5 -48.5t-44.5 -19.5z" />
    <glyph glyph-name="afii10099" unicode="&#x452;" horiz-adv-x="1138" 
d="M885 -328l131 738q30 166 -47 277.5t-242 111.5q-150 0 -262.5 -99t-142.5 -268l-76 -432h-62l197 1116h-164l10 62h164l45 256h62l-45 -256h266l-10 -62h-269l-78 -450q58 93 155 143.5t214 50.5q194 0 287 -123t59 -319l-141 -807h-361l13 61h297z" />
    <glyph glyph-name="afii10100" unicode="&#x453;" horiz-adv-x="841" 
d="M195 0l176 1004h655l-10 -62h-594l-166 -942h-61zM907 1423h84l-274 -276h-62z" />
    <glyph glyph-name="afii10101" unicode="&#x454;" horiz-adv-x="1173" 
d="M766 481h-508q-2 -23 -2 -41q0 -173 117 -286t282 -113q63 0 122 17.5t102 45.5t80.5 61.5t62.5 67.5t42.5 62t25.5 45l8 18h63q-3 -8 -9 -21.5t-28.5 -53t-48.5 -75t-70 -79t-92.5 -75t-116.5 -53t-141 -21.5q-198 0 -329 133t-131 327q0 123 46 233t122 186t175 120.5
t203 44.5q75 0 139.5 -18.5t108 -48.5t78 -66t54 -72t32 -66t17.5 -49l4 -18h-66q-1 6 -4 16t-15 38.5t-28.5 55t-46.5 58.5t-66 54.5t-90 38.5t-117 16q-168 0 -305 -117.5t-172 -302.5h512z" />
    <glyph glyph-name="afii10102" unicode="&#x455;" horiz-adv-x="1017" 
d="M154 287h63q1 -5 4 -14t15 -34.5t28.5 -48.5t47.5 -51.5t68 -49t93.5 -34.5t122.5 -14q145 0 225 64.5t80 162.5q0 53 -35 93.5t-91.5 66t-124 47.5t-135.5 45.5t-124.5 52t-91.5 75.5t-35 108q0 48 24.5 95.5t69 86t115 62.5t154.5 24q69 0 128 -14.5t98 -38t70 -52
t48 -57t28.5 -52t14.5 -38.5l4 -14h-66q0 4 -8 22.5t-31.5 50.5t-58.5 60.5t-98 50t-140 21.5q-138 0 -213 -60t-75 -139q0 -52 35 -91.5t91.5 -64t124 -46t135.5 -45.5t124.5 -53t91.5 -77t35 -111q0 -126 -102.5 -211t-276.5 -85q-76 0 -141 17t-108 43.5t-77.5 60
t-53.5 65t-31.5 60t-16.5 43.5t-4 18z" />
    <glyph glyph-name="afii10103" unicode="&#x456;" horiz-adv-x="448" 
d="M453 1270q-24 0 -40 16.5t-16 38.5q0 32 20 50t48 18q24 0 39.5 -16.5t15.5 -39.5q0 -32 -19.5 -49.5t-47.5 -17.5zM195 0l176 1004h61l-176 -1004h-61z" />
    <glyph glyph-name="afii10104" unicode="&#x457;" horiz-adv-x="452" 
d="M274 1270q-24 0 -41.5 15t-17.5 40q0 29 19.5 48.5t44.5 19.5q24 0 41.5 -15.5t17.5 -40.5q0 -29 -19 -48t-45 -19zM618 1270q-24 0 -41.5 15t-17.5 40q0 29 19.5 48.5t44.5 19.5q24 0 41.5 -15.5t17.5 -40.5q0 -29 -19 -48t-45 -19zM195 0l176 1004h61l-176 -1004h-61z
" />
    <glyph glyph-name="afii10105" unicode="&#x458;" horiz-adv-x="446" 
d="M451 1270q-24 0 -40 16.5t-16 38.5q0 32 20 50t48 18q24 0 39.5 -16.5t15.5 -39.5q0 -32 -19.5 -49.5t-47.5 -17.5zM430 1004l-246 -1393h-358l10 61h297l236 1332h61z" />
    <glyph glyph-name="afii10106" unicode="&#x459;" horiz-adv-x="1546" 
d="M897 614h322q137 0 227 -79.5t90 -196.5q0 -142 -102 -240t-267 -98h-440l166 942h-332l-436 -942h-64l463 1004h441zM1208 553h-321l-88 -492h379q133 0 215 74.5t82 202.5q0 94 -73 154.5t-194 60.5z" />
    <glyph glyph-name="afii10107" unicode="&#x45a;" horiz-adv-x="1730" 
d="M1083 573h320q137 0 227 -74t90 -182q0 -134 -101.5 -225.5t-266.5 -91.5h-430l90 512h-666l-90 -512h-61l176 1004h61l-76 -431h666l76 431h61zM1393 512h-320l-80 -451h369q133 0 215 67.5t82 188.5q0 86 -72.5 140.5t-193.5 54.5z" />
    <glyph glyph-name="afii10108" unicode="&#x45b;" horiz-adv-x="1138" 
d="M436 1434h62l-45 -256h266l-10 -62h-269l-78 -450q58 93 155 143.5t214 50.5q194 0 287 -123t59 -319l-73 -418h-62l74 410q30 166 -47 277.5t-242 111.5q-150 0 -262.5 -99t-142.5 -268l-76 -432h-62l197 1116h-164l10 62h164z" />
    <glyph glyph-name="afii10109" unicode="&#x45c;" horiz-adv-x="1026" 
d="M342 492l-86 -492h-61l176 1004h61l-78 -451h303l422 451h80l-452 -482l307 -522h-72l-291 492h-309zM969 1423h84l-275 -276h-61z" />
    <glyph glyph-name="afii10110" unicode="&#x45e;" horiz-adv-x="1054" 
d="M326 0l-90 1004h61l84 -943h250l450 943h66l-666 -1393h-65l186 389h-276zM711 1147q-102 0 -176 56t-74 161v8h63v-12q0 -66 50.5 -109t140.5 -43q82 0 136 45t62 119h62q-10 -99 -85.5 -162t-178.5 -63z" />
    <glyph glyph-name="afii10193" unicode="&#x45f;" horiz-adv-x="1189" 
d="M195 0l176 1004h61l-166 -943h676l166 943h61l-176 -1004h-368l-43 -246h-62l43 246h-368z" />
    <glyph glyph-name="afii10050" unicode="&#x490;" horiz-adv-x="1101" 
d="M528 1372l-241 -1372h-62l252 1434h819l37 204h62l-47 -266h-820z" />
    <glyph glyph-name="afii10098" unicode="&#x491;" horiz-adv-x="843" 
d="M195 0l176 1004h594l32 184h62l-43 -246h-594l-166 -942h-61z" />
    <glyph glyph-name="uni1E9E" unicode="&#x1e9e;" horiz-adv-x="1409" 
d="M881 809h-41l10 61l543 502h-519q-378 0 -446 -393l-172 -979h-61l172 983q39 220 168 335.5t344 115.5h602l-11 -62l-542 -502q221 -21 341 -133t120 -274q0 -94 -38 -178.5t-106 -147.5t-169.5 -100t-221.5 -37h-209l10 61h207q107 0 196 31.5t147 86t90 126t32 152.5
q0 72 -28.5 134.5t-82.5 111.5t-140.5 77.5t-194.5 28.5z" />
    <glyph glyph-name="endash" unicode="&#x2013;" horiz-adv-x="1310" 
d="M1290 512h-1065l11 61h1064z" />
    <glyph glyph-name="emdash" unicode="&#x2014;" horiz-adv-x="1689" 
d="M1669 512h-1444l11 61h1443z" />
    <glyph glyph-name="quoteleft" unicode="&#x2018;" horiz-adv-x="321" 
d="M362 1239q27 0 41.5 -17t14.5 -38q0 -29 -19.5 -48.5t-50.5 -19.5q-34 0 -58 28t-24 85q0 102 54 160.5t124 58.5l-8 -41q-43 -2 -77.5 -38t-34.5 -101q0 -11 1.5 -20.5t2.5 -13.5l2 -3q14 8 32 8z" />
    <glyph glyph-name="quoteright" unicode="&#x2019;" horiz-adv-x="321" 
d="M365 1331q-27 0 -41.5 17t-14.5 38q0 29 19.5 48.5t50.5 19.5q34 0 58 -28t24 -85q0 -102 -54 -160.5t-124 -58.5l8 41q43 2 77.5 38.5t34.5 101.5q0 11 -1.5 20t-3.5 13l-1 3q-14 -8 -32 -8z" />
    <glyph glyph-name="quotesinglbase" unicode="&#x201a;" horiz-adv-x="321" 
d="M195 -20q-27 0 -41.5 17t-14.5 38q0 29 19.5 48t50.5 19q35 0 58.5 -27.5t23.5 -84.5q0 -102 -54 -160.5t-124 -58.5l8 41q43 2 77.5 38t34.5 101q0 11 -1.5 20.5t-3.5 12.5l-1 4q-14 -8 -32 -8z" />
    <glyph glyph-name="quotedblleft" unicode="&#x201c;" horiz-adv-x="557" 
d="M362 1245q27 0 41.5 -17t14.5 -38q0 -29 -19.5 -48.5t-50.5 -19.5q-34 0 -58 28t-24 85q0 102 54 160.5t124 58.5l-8 -41q-43 -2 -77.5 -38t-34.5 -101q0 -11 1.5 -20.5t2.5 -13.5l2 -3q14 8 32 8zM598 1245q27 0 41 -17t14 -38q0 -30 -19.5 -49t-49.5 -19q-34 0 -58 28
t-24 85q0 102 54 160.5t124 58.5l-8 -41q-44 -2 -78.5 -38t-34.5 -101q0 -11 1.5 -20.5t3.5 -13.5l1 -3q15 8 33 8z" />
    <glyph glyph-name="quotedblright" unicode="&#x201d;" horiz-adv-x="557" 
d="M365 1331q-27 0 -41.5 17t-14.5 38q0 29 19.5 48.5t50.5 19.5q34 0 58 -28t24 -85q0 -102 -54 -160.5t-124 -58.5l8 41q43 2 77.5 38.5t34.5 101.5q0 11 -1.5 20t-3.5 13l-1 3q-14 -8 -32 -8zM600 1331q-27 0 -41 17t-14 38q0 30 19.5 49t49.5 19q34 0 58 -28t24 -85
q0 -102 -54 -160.5t-124 -58.5l8 41q43 2 78 38.5t35 101.5q0 11 -1.5 20t-3.5 13l-1 3q-15 -8 -33 -8z" />
    <glyph glyph-name="quotedblbase" unicode="&#x201e;" horiz-adv-x="557" 
d="M195 -20q-27 0 -41.5 17t-14.5 38q0 29 19.5 48t50.5 19q35 0 58.5 -27.5t23.5 -84.5q0 -102 -54 -160.5t-124 -58.5l8 41q43 2 77.5 38t34.5 101q0 11 -1.5 20.5t-3.5 12.5l-1 4q-14 -8 -32 -8zM430 -20q-27 0 -41 17t-14 38q0 29 19 48t50 19q35 0 58.5 -27.5
t23.5 -84.5q0 -102 -54 -160.5t-124 -58.5l8 41q44 2 78.5 38t34.5 101q0 11 -1.5 20.5t-3.5 12.5l-1 4q-15 -8 -33 -8z" />
    <glyph glyph-name="dagger" unicode="&#x2020;" horiz-adv-x="962" 
d="M449 0l165 942h-327l10 62h328l75 430h62l-76 -430h328l-10 -62h-328l-166 -942h-61z" />
    <glyph glyph-name="daggerdbl" unicode="&#x2021;" horiz-adv-x="962" 
d="M518 410l109 614h-328l10 61h328l61 349h62l-62 -349h328l-10 -61h-328l-108 -614h327l-10 -62h-328l-61 -348h-62l62 348h-328l10 62h328z" />
    <glyph glyph-name="bullet" unicode="&#x2022;" horiz-adv-x="679" 
d="M434 492q-38 0 -62 23.5t-24 59.5q0 42 31 71.5t72 29.5q38 0 62 -24t24 -60q0 -42 -31 -71t-72 -29z" />
    <glyph glyph-name="ellipsis" unicode="&#x2026;" horiz-adv-x="1046" 
d="M199 -20q-25 0 -40.5 16t-15.5 39q0 32 20.5 49.5t49.5 17.5q25 0 40 -16t15 -39q0 -32 -20.5 -49.5t-48.5 -17.5zM557 -20q-25 0 -40 16t-15 39q0 32 20.5 49.5t48.5 17.5q25 0 40.5 -16t15.5 -39q0 -32 -20.5 -49.5t-49.5 -17.5zM915 -20q-25 0 -40 16t-15 39
q0 32 20.5 49.5t49.5 17.5q25 0 40 -16t15 -39q0 -32 -20.5 -49.5t-49.5 -17.5z" />
    <glyph glyph-name="perthousand" unicode="&#x2030;" horiz-adv-x="2283" 
d="M1499 1434l-1122 -1434h-76l1122 1434h76zM598 858q116 0 200.5 85t84.5 210q0 103 -68.5 171.5t-179.5 68.5q-116 0 -200.5 -85t-84.5 -210q0 -103 68.5 -171.5t179.5 -68.5zM590 797q-133 0 -218 85t-85 210q0 152 105.5 257t250.5 105q133 0 218 -85t85 -210
q0 -152 -105.5 -257t-250.5 -105zM1174 575q-116 0 -200.5 -84.5t-84.5 -209.5q0 -103 68.5 -171.5t179.5 -68.5q116 0 200 85t84 210q0 103 -68 171t-179 68zM1182 637q133 0 218 -85t85 -210q0 -152 -106 -257t-251 -105q-133 0 -218 84.5t-85 209.5q0 152 106 257.5
t251 105.5zM1952 575q-116 0 -200.5 -84.5t-84.5 -209.5q0 -103 68.5 -171.5t179.5 -68.5q116 0 200.5 85t84.5 210q0 103 -68.5 171t-179.5 68zM1960 637q133 0 218 -85t85 -210q0 -152 -105.5 -257t-250.5 -105q-133 0 -218 84.5t-85 209.5q0 152 106 257.5t250 105.5z
" />
    <glyph glyph-name="guilsinglleft" unicode="&#x2039;" horiz-adv-x="690" 
d="M580 80l-48 -39l-358 461l522 461l35 -43l-477 -422z" />
    <glyph glyph-name="guilsinglright" unicode="&#x203a;" horiz-adv-x="690" 
d="M295 924l47 39l358 -461l-522 -461l-35 43l478 422z" />
    <glyph glyph-name="fraction" unicode="&#x2044;" horiz-adv-x="303" 
d="M877 1434l-1143 -1434h-72l1143 1434h72z" />
    <glyph glyph-name="zerosuperior" unicode="&#x2070;" horiz-adv-x="776" 
d="M326 1233q0 -112 61.5 -180t155.5 -70q52 0 102.5 24.5t91.5 69t66.5 115.5t25.5 156q0 112 -61.5 179.5t-155.5 69.5q-52 0 -102.5 -24t-91.5 -68.5t-66.5 -115.5t-25.5 -156zM266 1233q0 95 31.5 177t82 135.5t112.5 83.5t126 30q115 0 193 -86t78 -225
q0 -95 -31.5 -177t-82 -135.5t-112.5 -83.5t-126 -30q-115 0 -193 86t-78 225z" />
    <glyph glyph-name="foursuperior" unicode="&#x2074;" horiz-adv-x="624" 
d="M623 942h-62l33 184h-379l10 62l357 450h69l-360 -450h313l31 174h61l-30 -174h112l-10 -62h-113z" />
    <glyph glyph-name="fivesuperior" unicode="&#x2075;" horiz-adv-x="653" 
d="M365 1264l-64 10l76 364h450l-10 -61h-391l-49 -240q7 6 19.5 15.5t57 25t93.5 15.5q114 0 183 -60.5t69 -154.5q0 -109 -79.5 -182.5t-199.5 -73.5q-50 0 -92 11.5t-68.5 29t-46.5 39.5t-30.5 44t-17 39.5t-7.5 28.5l-2 12h66q1 -6 3.5 -15.5t17 -34t34.5 -43.5
t60.5 -34.5t92.5 -15.5q95 0 150 54t55 139q0 68 -51 111.5t-145 43.5q-48 0 -91.5 -16.5t-63.5 -33.5z" />
    <glyph glyph-name="sixsuperior" unicode="&#x2076;" horiz-adv-x="647" 
d="M483 922q-106 0 -182 67t-76 170q0 140 156 268l256 211h84l-272 -221q30 17 83 17q110 0 179 -70t69 -166q0 -115 -89 -195.5t-208 -80.5zM496 983q93 0 158 61t65 154q0 75 -55 124.5t-150 49.5q-93 0 -158 -61t-65 -154q0 -75 55 -124.5t150 -49.5z" />
    <glyph glyph-name="sevensuperior" unicode="&#x2077;" horiz-adv-x="518" 
d="M272 1577l11 61h491l-10 -61l-438 -635h-70l438 635h-422z" />
    <glyph glyph-name="eightsuperior" unicode="&#x2078;" horiz-adv-x="712" 
d="M569 1659q128 0 202.5 -51t74.5 -138q0 -38 -16 -70t-37.5 -51t-45.5 -33t-38.5 -19t-16.5 -5q5 -2 13.5 -5t30 -16.5t38 -30t30 -45.5t13.5 -62q0 -88 -75 -149.5t-207 -61.5q-151 0 -230.5 58.5t-79.5 141.5q0 48 19.5 85.5t46.5 57t54.5 32.5t46.5 17l20 3l-11 5.5
t-24.5 16.5t-30.5 28.5t-24 41t-11 53.5q0 84 71 140.5t187 56.5zM545 983q103 0 157 41t54 104q0 60 -64.5 101t-193.5 41q-103 0 -157 -41.5t-54 -104.5q0 -60 64.5 -100.5t193.5 -40.5zM590 1331q90 0 142 40t52 93q0 54 -56 93.5t-161 39.5q-90 0 -142 -40t-52 -93
q0 -54 56 -93.5t161 -39.5z" />
    <glyph glyph-name="ninesuperior" unicode="&#x2079;" horiz-adv-x="647" 
d="M573 1659q106 0 182 -67.5t76 -170.5q0 -141 -155 -268l-256 -211h-84l272 221q-31 -16 -84 -16q-110 0 -179 69.5t-69 165.5q0 115 89 196t208 81zM561 1597q-93 0 -158 -61t-65 -154q0 -75 55 -124.5t150 -49.5q93 0 158 61t65 154q0 75 -55 124.5t-150 49.5z" />
    <glyph glyph-name="zeroinferior" unicode="&#x2080;" horiz-adv-x="776" 
d="M172 86q0 -112 61.5 -180t155.5 -70q52 0 102.5 24.5t92 69t67 115.5t25.5 156q0 112 -61.5 180t-155.5 70q-52 0 -102.5 -24.5t-92 -69t-67 -115.5t-25.5 -156zM113 86q0 95 31.5 177t82 135.5t112.5 83.5t126 30q115 0 192.5 -85.5t77.5 -225.5q0 -95 -31.5 -177
t-82 -135.5t-112.5 -83.5t-126 -30q-115 0 -192.5 85.5t-77.5 225.5z" />
    <glyph glyph-name="oneinferior" unicode="&#x2081;" horiz-adv-x="655" 
d="M102 -205l11 62h225l100 569l-213 -113l11 66l215 113h61l-113 -635h205l-10 -62h-492z" />
    <glyph glyph-name="twoinferior" unicode="&#x2082;" horiz-adv-x="694" 
d="M479 27l-307 -170h440l-10 -62h-543l11 62l194 110q24 13 64.5 35t65 35.5t59 34.5t55.5 37t45 39t37 45t22 49t9 57q0 66 -49.5 109t-137.5 43q-45 0 -84 -16t-62.5 -38.5t-40.5 -45t-23 -38.5l-7 -16h-61q3 9 9.5 23.5t30.5 51.5t53.5 65.5t80 51.5t108.5 23
q111 0 177.5 -61t66.5 -148q0 -166 -203 -276z" />
    <glyph glyph-name="threeinferior" unicode="&#x2083;" horiz-adv-x="684" 
d="M356 225h29q121 0 188.5 -55t67.5 -147q0 -111 -74.5 -179.5t-195.5 -68.5q-72 0 -127 21t-83 51.5t-45.5 60.5t-21.5 51l-4 21h68q1 -6 3.5 -15.5t17 -34.5t35.5 -44t63.5 -34.5t97.5 -15.5q92 0 147.5 50.5t55.5 127.5q0 63 -49.5 106.5t-143.5 43.5h-129l10 61
l316 205h-381l10 62h471l-10 -62z" />
    <glyph glyph-name="fourinferior" unicode="&#x2084;" horiz-adv-x="624" 
d="M479 -205h-61l33 185h-379l10 61l356 451h70l-361 -451h314l31 174h61l-31 -174h113l-10 -61h-113z" />
    <glyph glyph-name="fiveinferior" unicode="&#x2085;" horiz-adv-x="663" 
d="M199 117l-64 10l76 365h451l-11 -62h-391l-49 -240q7 6 19.5 15.5t57 25t93.5 15.5q114 0 183 -60.5t69 -154.5q0 -109 -79.5 -182.5t-199.5 -73.5q-50 0 -92 11.5t-68.5 29.5t-46.5 39.5t-30.5 43.5t-17 40t-7.5 29l-2 12h66q1 -6 4 -15.5t17 -34.5t34.5 -44t61 -34.5
t92.5 -15.5q95 0 149.5 54t54.5 139q0 68 -51 111.5t-145 43.5q-48 0 -91.5 -17t-63.5 -33z" />
    <glyph glyph-name="sixinferior" unicode="&#x2086;" horiz-adv-x="636" 
d="M319 -225q-106 0 -182 67t-76 170q0 141 156 269l256 211h84l-272 -222q31 17 84 17q110 0 178.5 -70t68.5 -166q0 -115 -89 -195.5t-208 -80.5zM332 -164q93 0 158 61t65 154q0 75 -55 124.5t-150 49.5q-93 0 -158 -61t-65 -154q0 -75 55 -124.5t150 -49.5z" />
    <glyph glyph-name="seveninferior" unicode="&#x2087;" horiz-adv-x="518" 
d="M98 430l11 62h491l-10 -62l-438 -635h-70l438 635h-422z" />
    <glyph glyph-name="eightinferior" unicode="&#x2088;" horiz-adv-x="712" 
d="M416 512q128 0 202 -50.5t74 -137.5q0 -38 -16 -70t-37.5 -51.5t-45 -33t-38 -19t-16.5 -5.5q5 -2 13.5 -5t30 -16.5t38 -30t30 -45.5t13.5 -62q0 -88 -75.5 -149.5t-207.5 -61.5q-150 0 -229.5 58.5t-79.5 141.5q0 48 19 85.5t46.5 57t55 32.5t46.5 16l19 4l-11 5.5
t-24 16.5t-30 28.5t-24 41t-11 53.5q0 84 71 140.5t187 56.5zM391 -164q103 0 157 41.5t54 104.5q0 60 -64.5 100.5t-193.5 40.5q-103 0 -157 -41.5t-54 -104.5q0 -60 64.5 -100.5t193.5 -40.5zM436 184q90 0 142.5 40t52.5 93q0 55 -56 94.5t-161 39.5q-90 0 -142.5 -40.5
t-52.5 -93.5q0 -54 56 -93.5t161 -39.5z" />
    <glyph glyph-name="nineinferior" unicode="&#x2089;" horiz-adv-x="647" 
d="M383 512q106 0 182 -67.5t76 -170.5q0 -140 -156 -268l-256 -211h-84l273 221q-31 -16 -84 -16q-110 0 -179 70t-69 166q0 115 89 195.5t208 80.5zM371 451q-94 0 -159 -61t-65 -154q0 -75 55 -125t150 -50q93 0 158 61t65 154q0 75 -54.5 125t-149.5 50z" />
    <glyph glyph-name="Euro" unicode="&#x20ac;" horiz-adv-x="1701" 
d="M971 20q91 0 175.5 23.5t149.5 63t120.5 88t95.5 102.5t66.5 102.5t41.5 92.5h66q-35 -100 -99 -192t-153 -170t-209.5 -124.5t-253.5 -46.5q-281 0 -461 161.5t-203 432.5h-153l10 61h141v11q0 99 21 194h-125l10 62h129q74 266 282 430t472 164q127 0 236.5 -39.5
t188 -108t130.5 -159t73 -195.5h-63q-41 190 -194.5 315t-370.5 125q-242 0 -430.5 -145.5t-260.5 -386.5h627l-10 -62h-633q-20 -87 -20 -194v-11h616l-10 -61h-602q23 -240 187 -386.5t413 -146.5z" />
    <glyph glyph-name="uni20B4" unicode="&#x20b4;" horiz-adv-x="1331" 
d="M1225 881h135l-10 -62h-1045l10 62h820q2 0 18 11.5t41 34t48.5 51t40.5 68.5t17 80q0 55 -26 105.5t-75 91.5t-127.5 65.5t-174.5 24.5q-56 0 -107 -10t-90.5 -26.5t-75 -38t-61.5 -45t-47.5 -47.5t-35.5 -45.5t-24 -38t-14 -26.5l-4 -10h-61q3 7 8.5 19.5t27 49
t47 69.5t70.5 73t96 69t123.5 49t153.5 20q211 0 335 -103.5t124 -241.5q0 -43 -14 -84.5t-34 -70t-40.5 -51t-34.5 -32.5zM393 553h-135l10 61h1045l-10 -61h-820q-2 0 -18 -11.5t-41 -34.5t-49 -51.5t-41 -68.5t-17 -80q0 -55 26.5 -105.5t75.5 -91.5t127.5 -65.5
t174.5 -24.5q56 0 107 10t90.5 26.5t75 38t61.5 45.5t47.5 47.5t35.5 45t24 38t14 26.5l4 10h61q-3 -7 -8.5 -19.5t-27 -49t-47 -69t-70.5 -73t-96 -69t-123.5 -48.5t-153.5 -20q-211 0 -335 103t-124 241q0 43 14 84.5t34 70.5t40.5 51t34.5 33z" />
    <glyph glyph-name="uni20BD" unicode="&#x20bd;" horiz-adv-x="1392" 
d="M977 1372h-414l-137 -778h520q211 0 329 121.5t118 318.5q0 149 -108 243.5t-308 94.5zM514 1434h463q123 0 216.5 -32t149.5 -88t83.5 -126.5t27.5 -153.5q0 -216 -144.5 -359t-363.5 -143h-530l-37 -204h543l-11 -62h-542l-47 -266h-62l47 266h-184l10 62h184l37 204
h-184l10 62h185z" />
    <glyph glyph-name="afii61352" unicode="&#x2116;" horiz-adv-x="2191" 
d="M1290 0h-92l-670 1376l-241 -1376h-62l252 1434h92l670 -1377l242 1377h61zM2165 543h-512l10 61h512zM1976 799q-123 0 -204.5 83t-81.5 212q0 147 104.5 253.5t243.5 106.5q123 0 204.5 -83t81.5 -212q0 -147 -104.5 -253.5t-243.5 -106.5zM2038 1393q-115 0 -201 -87
t-86 -208q0 -100 66 -169t159 -69q115 0 201 87t86 208q0 100 -66 169t-159 69z" />
    <glyph glyph-name="trademark" unicode="&#x2122;" horiz-adv-x="1464" 
d="M1065 983l-215 410v-615h-62v656h105l203 -390h61l203 390h104v-656h-61v615l-215 -410h-123zM164 1372v62h553v-62h-246v-594h-61v594h-246z" />
    <glyph glyph-name="arrowleft" unicode="&#x2190;" horiz-adv-x="1843" 
d="M676 1044h31v-317h1095v-61h-1095v-318h-31l-348 338v21z" />
    <glyph glyph-name="arrowup" unicode="&#x2191;" horiz-adv-x="1843" 
d="M1413 1126v-30h-317v-1096h-62v1096h-317v30l338 349h20z" />
    <glyph glyph-name="arrowright" unicode="&#x2192;" horiz-adv-x="1843" 
d="M1423 1044h31l348 -337v-21l-348 -338h-31v318h-1095v61h1095v317z" />
    <glyph glyph-name="arrowdown" unicode="&#x2193;" horiz-adv-x="1843" 
d="M1413 338v-31l-338 -348h-20l-338 348v31h317v1096h62v-1096h317z" />
    <glyph glyph-name="uni2196" unicode="&#x2196;" horiz-adv-x="1845" 
d="M1065 1229v-21l-229 -229l774 -776l-43 -41l-774 774l-230 -229h-20v501l20 21h502z" />
    <glyph glyph-name="uni2197" unicode="&#x2197;" horiz-adv-x="1845" 
d="M1026 1208v21h502l20 -21v-501h-20l-230 229l-774 -774l-43 41l774 776z" />
    <glyph glyph-name="uni2198" unicode="&#x2198;" horiz-adv-x="1845" 
d="M1528 707h20v-502l-20 -21h-502v21l229 229l-774 774l41 43l776 -774z" />
    <glyph glyph-name="uni2199" unicode="&#x2199;" horiz-adv-x="1845" 
d="M543 707h20l230 -230l776 774l41 -43l-774 -774l229 -229v-21h-502l-20 21v502z" />
    <glyph glyph-name="minus" unicode="&#x2212;" horiz-adv-x="962" 
d="M973 573h-758v62h758v-62z" />
    <glyph glyph-name="approxequal" unicode="&#x2248;" horiz-adv-x="993" 
d="M799 594q-45 0 -86.5 17t-73 41t-62 48t-66 41t-71.5 17q-69 0 -106 -37.5t-37 -106.5v-10h-61v10q0 92 56 148.5t148 56.5q45 0 86.5 -17t73 -41t62 -48t66 -41t71.5 -17q69 0 106 37.5t37 106.5v10h62v-10q0 -92 -56.5 -148.5t-148.5 -56.5zM799 266q-45 0 -86.5 17
t-73 41t-62 48t-66 41t-71.5 17q-69 0 -106 -37t-37 -106v-11h-61v11q0 92 56 148.5t148 56.5q45 0 86.5 -17t73 -41t62 -48t66 -41t71.5 -17q69 0 106 37t37 106v10h62v-10q0 -92 -56.5 -148.5t-148.5 -56.5z" />
    <glyph glyph-name="notequal" unicode="&#x2260;" horiz-adv-x="983" 
d="M225 0l201 328h-201v61h238l188 307h-426v62h465l201 327h72l-201 -327h201v-62h-240l-188 -307h428v-61h-465l-201 -328h-72z" />
    <glyph glyph-name="lessequal" unicode="&#x2264;" horiz-adv-x="983" 
d="M983 195l-758 378v72l758 379v-61l-696 -349v-10l696 -348v-61zM225 369v61l758 -379v-61z" />
    <glyph glyph-name="greaterequal" unicode="&#x2265;" horiz-adv-x="983" 
d="M983 573l-758 -378v61l697 348v10l-697 349v61l758 -379v-72zM983 430v-61l-758 -379v61z" />
    <glyph glyph-name="commaaccent" unicode="&#xf6c3;" horiz-adv-x="270" 
d="M74 -326q-28 0 -44 15.5t-16 38.5q0 29 20.5 48t51.5 19q32 0 52 -23.5t20 -72.5q0 -98 -53 -156.5t-125 -58.5l8 41q45 2 79.5 34t34.5 93l-4 29q-8 -7 -24 -7z" />
    <glyph glyph-name="cyrBreve" unicode="&#xf6d1;" horiz-adv-x="667" 
d="M621 1597q-121 0 -192 70t-71 170v16h62v-16q0 -80 55 -129t154 -49q90 0 151.5 54.5t69.5 139.5h63q-13 -116 -96 -186t-196 -70z" />
    <glyph glyph-name="cyrbreve" unicode="&#xf6d4;" horiz-adv-x="636" 
d="M537 1157q-102 0 -176 56t-74 161v8h63v-12q0 -66 50 -108.5t141 -42.5q82 0 136.5 45t61.5 118h62q-10 -99 -85.5 -162t-178.5 -63z" />
    <glyph glyph-name="zero.oldstyle" unicode="&#xf730;" horiz-adv-x="1245" 
d="M662 41q97 0 186.5 38.5t156.5 105t107.5 162t40.5 204.5q0 179 -116 295.5t-300 116.5q-97 0 -186.5 -38.5t-156.5 -105t-107.5 -162t-40.5 -204.5q0 -179 116 -295.5t300 -116.5zM655 -20q-205 0 -338 133t-133 333q0 121 46.5 229t123 184t178.5 120.5t211 44.5
q205 0 338 -133.5t133 -333.5q0 -121 -46.5 -229t-123 -183.5t-178.5 -120t-211 -44.5z" />
    <glyph glyph-name="one.oldstyle" unicode="&#xf731;" horiz-adv-x="575" 
d="M367 0h-62l164 922l-264 -215l14 81l264 216h62z" />
    <glyph glyph-name="two.oldstyle" unicode="&#xf732;" horiz-adv-x="1001" 
d="M459 207l-285 -146h748l-11 -61h-860l10 61l365 189q86 45 134 70.5t110 60.5t94.5 57t71.5 51.5t57.5 53t36.5 53.5t24.5 60.5t6.5 66.5q0 103 -87 171.5t-245 68.5q-57 0 -108.5 -13t-88.5 -34t-67.5 -46t-50 -50t-33.5 -46t-19 -34l-6 -13h-61q2 6 6.5 17t21.5 41.5
t38.5 58.5t58.5 62.5t80 59t104.5 41.5t130.5 17q181 0 284 -86t103 -213q0 -46 -10.5 -85t-28 -73t-54 -69t-75 -65t-104.5 -69t-129 -72.5t-162 -84.5z" />
    <glyph glyph-name="three.oldstyle" unicode="&#xf733;" horiz-adv-x="1046" 
d="M967 14q0 -178 -130 -301t-333 -123q-79 0 -146.5 20t-111.5 51.5t-79 69.5t-54.5 76.5t-31.5 70t-16 51.5l-4 20h60q1 -6 3.5 -17t15 -41.5t29 -58.5t48.5 -62.5t71 -59t98.5 -41.5t129.5 -17q170 0 279.5 101t109.5 253q0 125 -95.5 213t-264.5 88h-137l12 62h207
q158 0 257 91t99 226q0 117 -89 197t-237 80q-73 0 -139.5 -25.5t-108.5 -61.5t-73.5 -72t-45.5 -62l-14 -25h-67q3 6 8.5 17.5t25 43t43 60.5t63 64.5t83 61t104 43t126.5 17.5q172 0 278.5 -97.5t106.5 -236.5q0 -147 -85.5 -239t-211.5 -127q99 -38 158 -118t59 -192z
" />
    <glyph glyph-name="four.oldstyle" unicode="&#xf734;" horiz-adv-x="1024" 
d="M780 -389h-61l69 389h-706l10 61l699 943h71l-698 -943h635l75 431h62l-76 -431h195l-11 -61h-194z" />
    <glyph glyph-name="five.oldstyle" unicode="&#xf735;" horiz-adv-x="1087" 
d="M281 274h-66l176 730h717l-10 -62h-662l-137 -567q5 6 14.5 15t41.5 32.5t67 41.5t90.5 33t112.5 15q184 0 299.5 -115.5t115.5 -292.5q0 -112 -40 -209.5t-107.5 -163.5t-156.5 -103.5t-185 -37.5q-82 0 -150 21.5t-111 56t-75.5 76t-49.5 83t-27 76t-12 55.5l-3 22h61
q1 -7 2.5 -18.5t11.5 -46t25 -65.5t44.5 -68.5t66.5 -65t96 -46t129 -18.5q83 0 159.5 33t134 91t92 142.5t34.5 181.5q0 163 -105.5 257t-257.5 94q-64 0 -121.5 -18t-95 -44.5t-65.5 -52.5t-40 -44z" />
    <glyph glyph-name="six.oldstyle" unicode="&#xf736;" horiz-adv-x="1185" 
d="M184 414q0 84 22 158t72.5 143.5t82.5 104.5t100 102l22 22l492 490h80l-539 -535q9 5 25 12t67.5 19t104.5 12q190 0 316 -128t126 -310q0 -147 -72 -268t-192 -188.5t-260 -67.5q-191 0 -319 126.5t-128 307.5zM639 41q120 0 223 57t166.5 163.5t63.5 238.5
q0 160 -111 270.5t-281 110.5q-120 0 -223 -57t-166 -163.5t-63 -238.5q0 -160 110.5 -270.5t280.5 -110.5z" />
    <glyph glyph-name="seven.oldstyle" unicode="&#xf737;" horiz-adv-x="868" 
d="M121 942l10 62h830l-11 -62l-809 -1331h-69l809 1331h-760z" />
    <glyph glyph-name="eight.oldstyle" unicode="&#xf738;" 
d="M668 -20q-218 0 -361 111t-143 282q0 72 22 133.5t56.5 102.5t77 74t84.5 51.5t76.5 31t56.5 16.5l22 4q-9 3 -23 9.5t-50.5 31t-64 54t-50.5 80.5t-23 110q0 160 129.5 271.5t333.5 111.5q102 0 186.5 -29.5t138.5 -78.5t83.5 -110.5t29.5 -127.5q0 -83 -33.5 -149.5
t-80.5 -103t-94.5 -61t-80.5 -32.5l-34 -8q11 -4 28.5 -11t62.5 -36t79.5 -64.5t63 -96.5t28.5 -132q0 -184 -144 -309t-376 -125zM799 1393q-171 0 -279 -91.5t-108 -216.5q0 -118 104 -202t285 -84q171 0 279 91t108 216q0 118 -104 202.5t-285 84.5zM674 41
q201 0 326.5 106t125.5 256q0 136 -119.5 235t-328.5 99q-201 0 -327 -106t-126 -256q0 -136 120 -235t329 -99z" />
    <glyph glyph-name="nine.oldstyle" unicode="&#xf739;" horiz-adv-x="1196" 
d="M1165 590q0 -85 -22.5 -159t-73 -144t-82.5 -105t-100 -102l-21 -21l-450 -448h-80l498 493q-9 -5 -25 -12t-67.5 -19t-104.5 -12q-125 0 -227 59.5t-158.5 160t-56.5 219.5q0 147 72 268t192 188.5t260 67.5q191 0 318.5 -126.5t127.5 -307.5zM711 963q-120 0 -223 -57
t-166.5 -163.5t-63.5 -238.5q0 -160 110.5 -270.5t280.5 -110.5q120 0 223 57t166.5 163.5t63.5 238.5q0 160 -110.5 270.5t-280.5 110.5z" />
    <glyph glyph-name="aring.sc" horiz-adv-x="1239" 
d="M1124 0l-43 451h-723l-202 -451h-64l555 1229h420l121 -1229h-64zM1010 1167h-326l-297 -655h686zM905 1741q79 0 130.5 -50.5t51.5 -125.5q0 -86 -63 -149.5t-145 -63.5q-79 0 -131 50.5t-52 125.5q0 86 63.5 149.5t145.5 63.5zM879 1413q59 0 102 42t43 104
q0 52 -33 86t-86 34q-60 0 -102.5 -41.5t-42.5 -103.5q0 -52 33 -86.5t86 -34.5z" />
    <glyph glyph-name="edotaccent.sc" horiz-adv-x="1159" 
d="M297 61h768l-10 -61h-830l217 1229h830l-10 -62h-768l-93 -512h635l-10 -61h-635zM874 1475q-24 0 -39.5 16.5t-15.5 38.5q0 32 20 49.5t48 17.5q24 0 39.5 -16.5t15.5 -38.5q0 -32 -20 -49.5t-48 -17.5z" />
    <glyph glyph-name="y.alt" horiz-adv-x="1054" 
d="M326 0l-90 1004h61l84 -943h250l450 943h66l-549 -1147q-63 -131 -142 -188.5t-200 -57.5h-154l11 61h151q100 0 157.5 39t110.5 146l70 143h-276z" />
    <glyph glyph-name="afii10065.alt" horiz-adv-x="1144" 
d="M246 258q0 -100 82.5 -158.5t214.5 -58.5q169 0 294.5 109.5t153.5 283.5l13 78h-461q-135 0 -216 -72t-81 -182zM543 -20q-166 0 -262.5 76.5t-96.5 199.5q0 135 102 226t263 91h465l12 64q28 143 -51 234.5t-238 91.5q-61 0 -115 -14t-92 -36.5t-70 -50t-51.5 -55
t-33.5 -50t-19 -36.5l-6 -14h-65q3 7 8 18t24 44t42 63t61.5 66.5t82.5 63t105.5 44.5t128.5 18q189 0 283.5 -110.5t64.5 -280.5l-110 -633h-64l37 203q-5 -9 -14.5 -24t-45.5 -53.5t-78.5 -68t-114.5 -53.5t-152 -24z" />
    <glyph glyph-name="Germandbls" horiz-adv-x="1409" 
d="M881 809h-41l10 61l543 502h-519q-378 0 -446 -393l-172 -979h-61l172 983q39 220 168 335.5t344 115.5h602l-11 -62l-542 -502q221 -21 341 -133t120 -274q0 -94 -38 -178.5t-106 -147.5t-169.5 -100t-221.5 -37h-209l10 61h207q107 0 196 31.5t147 86t90 126t32 152.5
q0 72 -28.5 134.5t-82.5 111.5t-140.5 77.5t-194.5 28.5z" />
    <glyph glyph-name="at.case" horiz-adv-x="1681" 
d="M1174 430l16 102q-3 -5 -10 -13t-29.5 -29t-48 -37.5t-65.5 -29.5t-83 -13q-120 0 -201 84t-81 211q0 75 29.5 143t77 115t109 74.5t124.5 27.5q31 0 59 -5.5t49.5 -15t40.5 -21.5t32.5 -25.5t24.5 -27t18 -25t12 -21t7 -14.5l2 -5l25 139h61l-98 -552h31q77 0 148.5 31
t127 87t88.5 139t33 181q0 74 -26.5 146.5t-80 136.5t-126.5 113t-172.5 77.5t-212.5 28.5q-147 0 -283 -58.5t-238 -160t-163.5 -246.5t-61.5 -308q0 -174 80 -314.5t226 -222t331 -81.5q93 0 182 19t132 38l43 19l-13 -68q-16 -8 -46 -19.5t-121 -30.5t-181 -19
q-151 0 -281 52t-220.5 142.5t-141.5 215.5t-51 267q0 174 67.5 331t180 266.5t261 174t306.5 64.5q121 0 228.5 -31.5t187.5 -86.5t138.5 -126.5t88 -153t29.5 -165.5q0 -228 -140.5 -364t-359.5 -136h-61zM954 471q106 0 190.5 85.5t84.5 211.5q0 100 -63 168t-158 68
q-106 0 -190.5 -85.5t-84.5 -211.5q0 -100 63 -168t158 -68z" />
    <glyph glyph-name="afii10085.alt" horiz-adv-x="1054" 
d="M326 0l-90 1004h61l84 -943h250l450 943h66l-549 -1147q-63 -131 -142 -188.5t-200 -57.5h-154l11 61h151q100 0 157.5 39t110.5 146l70 143h-276z" />
    <glyph glyph-name="l.alt" horiz-adv-x="446" 
d="M508 1434l-252 -1434h-61l251 1434h62z" />
    <glyph glyph-name="ydieresis.alt" horiz-adv-x="1054" 
d="M326 0l-90 1004h61l84 -943h250l450 943h66l-549 -1147q-63 -131 -142 -188.5t-200 -57.5h-154l11 61h151q100 0 157.5 39t110.5 146l70 143h-276zM541 1270q-25 0 -42.5 15t-17.5 40q0 29 19.5 48.5t44.5 19.5q24 0 41.5 -15.5t17.5 -40.5q0 -29 -19 -48t-44 -19z
M885 1270q-25 0 -42.5 15t-17.5 40q0 29 19.5 48.5t44.5 19.5q24 0 41.5 -15.5t17.5 -40.5q0 -29 -19 -48t-44 -19z" />
    <glyph glyph-name="yacute.alt" horiz-adv-x="1054" 
d="M326 0l-90 1004h61l84 -943h250l450 943h66l-549 -1147q-63 -131 -142 -188.5t-200 -57.5h-154l11 61h151q100 0 157.5 39t110.5 146l70 143h-276zM918 1485h83l-274 -277h-61z" />
    <glyph glyph-name="Imacron.alt" horiz-adv-x="948" 
d="M354 1372l11 62h716l-10 -62h-328l-231 -1311h328l-11 -61h-716l10 61h328l231 1311h-328zM528 1700l11 61h481l-10 -61h-482z" />
    <glyph glyph-name="Idotaccent.alt" horiz-adv-x="948" 
d="M354 1372l11 62h716l-10 -62h-328l-231 -1311h328l-11 -61h-716l10 61h328l231 1311h-328zM762 1679q-24 0 -39.5 16.5t-15.5 39.5q0 32 19.5 49.5t47.5 17.5q24 0 39.5 -16.5t15.5 -38.5q0 -32 -19.5 -50t-47.5 -18z" />
    <glyph glyph-name="Idieresis.alt" horiz-adv-x="948" 
d="M354 1372l11 62h716l-10 -62h-328l-231 -1311h328l-11 -61h-716l10 61h328l231 1311h-328zM586 1679q-24 0 -42 15.5t-18 40.5q0 29 19 48t45 19q24 0 41.5 -15t17.5 -40q0 -29 -19 -48.5t-44 -19.5zM930 1679q-24 0 -42 15.5t-18 40.5q0 29 19 48t45 19q24 0 41.5 -15
t17.5 -40q0 -29 -19 -48.5t-44 -19.5z" />
    <glyph glyph-name="Icircumflex.alt" horiz-adv-x="948" 
d="M354 1372l11 62h716l-10 -62h-328l-231 -1311h328l-11 -61h-716l10 61h328l231 1311h-328zM840 1905l164 -287h-66l-131 225h-29l-209 -225h-77l266 287h82z" />
    <glyph glyph-name="Iacute.alt" horiz-adv-x="948" 
d="M354 1372l11 62h716l-10 -62h-328l-231 -1311h328l-11 -61h-716l10 61h328l231 1311h-328zM969 1894h84l-275 -276h-61z" />
    <glyph glyph-name="Igrave.alt" horiz-adv-x="948" 
d="M354 1372l11 62h716l-10 -62h-328l-231 -1311h328l-11 -61h-716l10 61h328l231 1311h-328zM522 1894h84l154 -276h-62z" />
    <glyph glyph-name="lcommaaccent.alt" horiz-adv-x="446" 
d="M508 1434l-252 -1434h-61l251 1434h62zM162 -326q-28 0 -44 15.5t-16 38.5q0 29 20.5 48t51.5 19q32 0 52 -23.5t20 -72.5q0 -98 -53 -156.5t-125 -58.5l8 41q45 2 79.5 34t34.5 93l-4 29q-8 -7 -24 -7z" />
    <glyph glyph-name="lcaron.alt" horiz-adv-x="485" 
d="M508 1434l-252 -1434h-61l251 1434h62zM688 1323q-28 0 -43.5 15t-15.5 38q0 29 20 48.5t51 19.5q32 0 52 -23.5t20 -72.5q0 -98 -53 -156.5t-125 -58.5l8 41q46 2 80.5 33.5t34.5 92.5l-4 29q-9 -6 -25 -6z" />
    <glyph glyph-name="lacute.alt" horiz-adv-x="446" 
d="M508 1434l-252 -1434h-61l251 1434h62zM723 1894h84l-275 -276h-61z" />
    <glyph glyph-name="atilde.alt" horiz-adv-x="1144" 
d="M246 258q0 -100 82.5 -158.5t214.5 -58.5q169 0 294.5 109.5t153.5 283.5l13 78h-461q-135 0 -216 -72t-81 -182zM543 -20q-166 0 -262.5 76.5t-96.5 199.5q0 135 102 226t263 91h465l12 64q28 143 -51 234.5t-238 91.5q-61 0 -115 -14t-92 -36.5t-70 -50t-51.5 -55
t-33.5 -50t-19 -36.5l-6 -14h-65q3 7 8 18t24 44t42 63t61.5 66.5t82.5 63t105.5 44.5t128.5 18q189 0 283.5 -110.5t64.5 -280.5l-110 -633h-64l37 203q-5 -9 -14.5 -24t-45.5 -53.5t-78.5 -68t-114.5 -53.5t-152 -24zM678 1362q-78 0 -96 -92l-9 -41h-61l8 41
q13 69 60.5 111t109.5 42q41 0 77 -22.5t57 -49t49.5 -49t56.5 -22.5q80 0 98 92l8 41h62l-8 -41q-13 -69 -60.5 -111t-109.5 -42q-41 0 -77.5 22.5t-57.5 49t-50 49t-57 22.5z" />
    <glyph glyph-name="aring.alt" horiz-adv-x="1144" 
d="M246 258q0 -100 82.5 -158.5t214.5 -58.5q169 0 294.5 109.5t153.5 283.5l13 78h-461q-135 0 -216 -72t-81 -182zM543 -20q-166 0 -262.5 76.5t-96.5 199.5q0 135 102 226t263 91h465l12 64q28 143 -51 234.5t-238 91.5q-61 0 -115 -14t-92 -36.5t-70 -50t-51.5 -55
t-33.5 -50t-19 -36.5l-6 -14h-65q3 7 8 18t24 44t42 63t61.5 66.5t82.5 63t105.5 44.5t128.5 18q189 0 283.5 -110.5t64.5 -280.5l-110 -633h-64l37 203q-5 -9 -14.5 -24t-45.5 -53.5t-78.5 -68t-114.5 -53.5t-152 -24zM827 1597q79 0 131 -50.5t52 -125.5
q0 -86 -63.5 -149.5t-145.5 -63.5q-79 0 -131 50.5t-52 125.5q0 86 63.5 149.5t145.5 63.5zM801 1270q60 0 102.5 41.5t42.5 103.5q0 52 -33 86.5t-86 34.5q-60 0 -102.5 -41.5t-42.5 -103.5q0 -52 33 -86.5t86 -34.5z" />
    <glyph glyph-name="aogonek.alt" horiz-adv-x="1144" 
d="M831 -440q-78 0 -131 46t-53 118q0 57 29.5 108t77 87.5t85 58.5t76.5 38l33 187q-5 -9 -14.5 -24t-45.5 -53.5t-78.5 -68t-114.5 -53.5t-152 -24q-166 0 -262.5 76.5t-96.5 199.5q0 135 102 226t263 91h465l12 64q28 143 -51 234.5t-238 91.5q-61 0 -115 -14t-92 -36.5
t-70 -50t-51.5 -55t-33.5 -50t-19 -36.5l-6 -14h-65q3 7 8 18t24 44t42 63t61.5 66.5t82.5 63t105.5 44.5t128.5 18q189 0 283.5 -110.5t64.5 -280.5l-110 -633q-49 -24 -86.5 -47t-83 -58.5t-71 -78t-25.5 -88.5t35.5 -76.5t97.5 -30.5q26 0 52.5 6t39.5 11l14 6l-10 -62
q-46 -22 -107 -22zM246 258q0 -100 82.5 -158.5t214.5 -58.5q169 0 294.5 109.5t153.5 283.5l13 78h-461q-135 0 -216 -72t-81 -182z" />
    <glyph glyph-name="amacron.alt" horiz-adv-x="1144" 
d="M246 258q0 -100 82.5 -158.5t214.5 -58.5q169 0 294.5 109.5t153.5 283.5l13 78h-461q-135 0 -216 -72t-81 -182zM543 -20q-166 0 -262.5 76.5t-96.5 199.5q0 135 102 226t263 91h465l12 64q28 143 -51 234.5t-238 91.5q-61 0 -115 -14t-92 -36.5t-70 -50t-51.5 -55
t-33.5 -50t-19 -36.5l-6 -14h-65q3 7 8 18t24 44t42 63t61.5 66.5t82.5 63t105.5 44.5t128.5 18q189 0 283.5 -110.5t64.5 -280.5l-110 -633h-64l37 203q-5 -9 -14.5 -24t-45.5 -53.5t-78.5 -68t-114.5 -53.5t-152 -24zM559 1290l10 62h482l-11 -62h-481z" />
    <glyph glyph-name="adieresis.alt" horiz-adv-x="1144" 
d="M246 258q0 -100 82.5 -158.5t214.5 -58.5q169 0 294.5 109.5t153.5 283.5l13 78h-461q-135 0 -216 -72t-81 -182zM543 -20q-166 0 -262.5 76.5t-96.5 199.5q0 135 102 226t263 91h465l12 64q28 143 -51 234.5t-238 91.5q-61 0 -115 -14t-92 -36.5t-70 -50t-51.5 -55
t-33.5 -50t-19 -36.5l-6 -14h-65q3 7 8 18t24 44t42 63t61.5 66.5t82.5 63t105.5 44.5t128.5 18q189 0 283.5 -110.5t64.5 -280.5l-110 -633h-64l37 203q-5 -9 -14.5 -24t-45.5 -53.5t-78.5 -68t-114.5 -53.5t-152 -24zM621 1270q-25 0 -42.5 15t-17.5 40q0 29 19.5 48.5
t44.5 19.5q24 0 41.5 -15.5t17.5 -40.5q0 -29 -19 -48t-44 -19zM965 1270q-25 0 -42.5 15t-17.5 40q0 29 19.5 48.5t44.5 19.5q24 0 41.5 -15.5t17.5 -40.5q0 -29 -19 -48t-44 -19z" />
    <glyph glyph-name="acircumflex.alt" horiz-adv-x="1144" 
d="M246 258q0 -100 82.5 -158.5t214.5 -58.5q169 0 294.5 109.5t153.5 283.5l13 78h-461q-135 0 -216 -72t-81 -182zM543 -20q-166 0 -262.5 76.5t-96.5 199.5q0 135 102 226t263 91h465l12 64q28 143 -51 234.5t-238 91.5q-61 0 -115 -14t-92 -36.5t-70 -50t-51.5 -55
t-33.5 -50t-19 -36.5l-6 -14h-65q3 7 8 18t24 44t42 63t61.5 66.5t82.5 63t105.5 44.5t128.5 18q189 0 283.5 -110.5t64.5 -280.5l-110 -633h-64l37 203q-5 -9 -14.5 -24t-45.5 -53.5t-78.5 -68t-114.5 -53.5t-152 -24zM881 1495l163 -287h-65l-131 226h-29l-209 -226h-78
l267 287h82z" />
    <glyph glyph-name="abreve.alt" horiz-adv-x="1144" 
d="M246 258q0 -100 82.5 -158.5t214.5 -58.5q169 0 294.5 109.5t153.5 283.5l13 78h-461q-135 0 -216 -72t-81 -182zM543 -20q-166 0 -262.5 76.5t-96.5 199.5q0 135 102 226t263 91h465l12 64q28 143 -51 234.5t-238 91.5q-61 0 -115 -14t-92 -36.5t-70 -50t-51.5 -55
t-33.5 -50t-19 -36.5l-6 -14h-65q3 7 8 18t24 44t42 63t61.5 66.5t82.5 63t105.5 44.5t128.5 18q189 0 283.5 -110.5t64.5 -280.5l-110 -633h-64l37 203q-5 -9 -14.5 -24t-45.5 -53.5t-78.5 -68t-114.5 -53.5t-152 -24zM813 1229q-102 0 -176 56t-74 161v8h64v-12
q0 -66 50 -109t140 -43q82 0 136.5 45t62.5 119h61q-10 -99 -85.5 -162t-178.5 -63z" />
    <glyph glyph-name="aacute.alt" horiz-adv-x="1144" 
d="M246 258q0 -100 82.5 -158.5t214.5 -58.5q169 0 294.5 109.5t153.5 283.5l13 78h-461q-135 0 -216 -72t-81 -182zM543 -20q-166 0 -262.5 76.5t-96.5 199.5q0 135 102 226t263 91h465l12 64q28 143 -51 234.5t-238 91.5q-61 0 -115 -14t-92 -36.5t-70 -50t-51.5 -55
t-33.5 -50t-19 -36.5l-6 -14h-65q3 7 8 18t24 44t42 63t61.5 66.5t82.5 63t105.5 44.5t128.5 18q189 0 283.5 -110.5t64.5 -280.5l-110 -633h-64l37 203q-5 -9 -14.5 -24t-45.5 -53.5t-78.5 -68t-114.5 -53.5t-152 -24zM1018 1485h84l-275 -277h-61z" />
    <glyph glyph-name="agrave.alt" horiz-adv-x="1144" 
d="M246 258q0 -100 82.5 -158.5t214.5 -58.5q169 0 294.5 109.5t153.5 283.5l13 78h-461q-135 0 -216 -72t-81 -182zM543 -20q-166 0 -262.5 76.5t-96.5 199.5q0 135 102 226t263 91h465l12 64q28 143 -51 234.5t-238 91.5q-61 0 -115 -14t-92 -36.5t-70 -50t-51.5 -55
t-33.5 -50t-19 -36.5l-6 -14h-65q3 7 8 18t24 44t42 63t61.5 66.5t82.5 63t105.5 44.5t128.5 18q189 0 283.5 -110.5t64.5 -280.5l-110 -633h-64l37 203q-5 -9 -14.5 -24t-45.5 -53.5t-78.5 -68t-114.5 -53.5t-152 -24zM584 1485h84l153 -277h-61z" />
    <glyph glyph-name="afii10110.alt" horiz-adv-x="1054" 
d="M326 0l-90 1004h61l84 -943h250l450 943h66l-549 -1147q-63 -131 -142 -188.5t-200 -57.5h-154l11 61h151q100 0 157.5 39t110.5 146l70 143h-276zM711 1147q-102 0 -176 56t-74 161v8h63v-12q0 -66 50.5 -109t140.5 -43q82 0 136 45t62 119h62q-10 -99 -85.5 -162
t-178.5 -63z" />
    <glyph glyph-name="lslash.alt" horiz-adv-x="471" 
d="M137 594l201 88l133 752h61l-129 -723l201 88l-10 -62l-201 -88l-114 -649h-62l111 621l-201 -89z" />
    <glyph glyph-name="parenleft.case" horiz-adv-x="724" 
d="M313 555q0 332 171 625.5t472 488.5l21 -57q-13 -7 -34.5 -21t-83.5 -64t-119 -107t-126 -150t-119 -193t-84 -237t-34 -281q0 -93 15 -183t39.5 -160.5t54 -133.5t59 -107.5t54 -77.5t39.5 -49l15 -16l-39 -49q-6 6 -17 17.5t-42 51.5t-59.5 83.5t-63.5 113.5t-60 143
t-42 169t-17 194z" />
    <glyph glyph-name="parenright.case" horiz-adv-x="704" 
d="M641 887q0 -332 -171 -625.5t-472 -488.5l-21 57q13 7 34.5 21t84 64t119 107t126 150t119.5 193t84 237t34 281q0 93 -15.5 183t-39.5 160.5t-53.5 133.5t-59.5 107.5t-54 77.5t-40 49l-15 16l39 49q6 -6 17 -17.5t42 -51.5t59.5 -83.5t63.5 -113.5t60 -143t42 -169
t17 -194z" />
    <glyph glyph-name="bracketleft.case" horiz-adv-x="651" 
d="M922 1546h-318l-293 -1659h318l-11 -61h-378l313 1782h379z" />
    <glyph glyph-name="bracketright.case" horiz-adv-x="651" 
d="M614 1546h-317l10 62h379l-313 -1782h-379l10 61h318z" />
    <glyph glyph-name="g.alt" horiz-adv-x="1087" 
d="M236 643q0 158 124 269.5t310 111.5q42 0 79.5 -5t54.5 -10l17 -5h410l-12 -62h-283q6 -3 15.5 -9.5t34 -29t43.5 -49.5t34.5 -71t15.5 -93q0 -159 -123 -271t-309 -112q-68 0 -130 15t-90 30l-28 15l-32 -203q36 6 106 6q136 0 240.5 -26t165 -69t90.5 -94t30 -106
q0 -117 -113.5 -201t-324.5 -84q-134 0 -237.5 26t-163 69.5t-89.5 94t-30 105.5q0 149 162 229q36 18 98 36l45 258q-4 3 -11.5 9.5t-26.5 28.5t-33.5 47t-26.5 65.5t-12 84.5zM565 -348q92 0 166 20t117 52t65.5 69.5t22.5 75.5q0 41 -26 81.5t-78 77t-145 59t-212 22.5
q-92 0 -166 -20t-117 -52.5t-65.5 -70t-22.5 -75.5q0 -41 26 -81.5t78 -76.5t145 -58.5t212 -22.5zM651 369q162 0 264.5 91t102.5 226q0 118 -94 197.5t-258 79.5q-162 0 -265.5 -91.5t-103.5 -226.5q0 -117 95 -196.5t259 -79.5z" />
    <glyph glyph-name="a.alt" horiz-adv-x="1144" 
d="M246 258q0 -100 82.5 -158.5t214.5 -58.5q169 0 294.5 109.5t153.5 283.5l13 78h-461q-135 0 -216 -72t-81 -182zM543 -20q-166 0 -262.5 76.5t-96.5 199.5q0 135 102 226t263 91h465l12 64q28 143 -51 234.5t-238 91.5q-61 0 -115 -14t-92 -36.5t-70 -50t-51.5 -55
t-33.5 -50t-19 -36.5l-6 -14h-65q3 7 8 18t24 44t42 63t61.5 66.5t82.5 63t105.5 44.5t128.5 18q189 0 283.5 -110.5t64.5 -280.5l-110 -633h-64l37 203q-5 -9 -14.5 -24t-45.5 -53.5t-78.5 -68t-114.5 -53.5t-152 -24z" />
    <glyph glyph-name="braceleft.case" horiz-adv-x="673" 
d="M377 717q2 -1 5.5 -2.5t13.5 -7t17.5 -13t18 -21t15 -30t8 -39.5t-3.5 -51l-93 -522q-11 -62 24 -103t103 -41h113l-10 -61h-113q-99 0 -147 56t-31 149l92 522q11 62 -19 97.5t-91 35.5h-52l11 62h51q62 0 104.5 36t52.5 97l93 522q15 93 82.5 149t166.5 56h113l-10 -62
h-113q-68 0 -117.5 -40.5t-60.5 -102.5l-92 -522q-7 -37 -23 -67.5t-34 -48t-35 -29t-28 -15.5z" />
    <glyph glyph-name="braceright.case" horiz-adv-x="673" 
d="M571 717q-2 1 -5.5 2.5t-13.5 7t-17.5 13t-18 21t-15 30t-7.5 39.5t4 51l92 522q11 62 -25 102.5t-104 40.5h-113l10 62h113q99 0 148 -56t32 -149l-92 -522q-11 -62 18.5 -97.5t90.5 -35.5h51l-10 -62h-52q-61 0 -102.5 -35.5t-52.5 -97.5l-92 -522q-17 -93 -85 -149
t-167 -56h-113l10 61h113q68 0 118.5 41t61.5 103l92 522q6 37 22 67.5t34 48t35 29t29 15.5z" />
    <glyph glyph-name="exclamdown.case" horiz-adv-x="575" 
d="M256 0l135 768l60 276h41l-39 -276l-136 -768h-61zM530 1454q25 0 40.5 -16t15.5 -39q0 -32 -21 -50t-49 -18q-25 0 -40 16t-15 39q0 32 20.5 50t48.5 18z" />
    <glyph glyph-name="nine.taboldstyle" horiz-adv-x="1126" 
d="M1130 590q0 -85 -22.5 -159t-73 -144t-82.5 -105t-100 -102l-21 -21l-450 -448h-80l498 493q-9 -5 -25 -12t-67.5 -19t-104.5 -12q-125 0 -227 59.5t-158.5 160t-56.5 219.5q0 147 72 268t192 188.5t260 67.5q191 0 318.5 -126.5t127.5 -307.5zM676 963q-120 0 -223 -57
t-166.5 -163.5t-63.5 -238.5q0 -160 110.5 -270.5t280.5 -110.5q120 0 223 57t166.5 163.5t63.5 238.5q0 160 -110.5 270.5t-280.5 110.5z" />
    <glyph glyph-name="eight.taboldstyle" horiz-adv-x="1126" 
d="M627 -20q-218 0 -361 111t-143 282q0 72 22 133.5t56.5 102.5t76.5 74t84.5 51.5t77 31t56.5 16.5l22 4q-9 3 -23 9.5t-50.5 31t-64 54t-50.5 80.5t-23 110q0 160 129.5 271.5t333.5 111.5q102 0 186.5 -29.5t138.5 -78.5t83.5 -110.5t29.5 -127.5q0 -83 -33.5 -149.5
t-80.5 -103t-94.5 -61t-81.5 -32.5l-33 -8q11 -4 28.5 -11t62.5 -36t79.5 -64.5t63 -96.5t28.5 -132q0 -184 -144 -309t-376 -125zM758 1393q-171 0 -279 -91.5t-108 -216.5q0 -118 104 -202t285 -84q171 0 279 91t108 216q0 118 -104 202.5t-285 84.5zM633 41
q201 0 326.5 106t125.5 256q0 136 -119.5 235t-328.5 99q-201 0 -327 -106t-126 -256q0 -136 120 -235t329 -99z" />
    <glyph glyph-name="seven.taboldstyle" horiz-adv-x="1126" 
d="M233 635l66 369h922l-13 -62l-817 -1331h-69l817 1331h-791l-53 -307h-62z" />
    <glyph glyph-name="six.taboldstyle" horiz-adv-x="1126" 
d="M160 414q0 84 22 158t72.5 143.5t82.5 104.5t100 102l22 22l491 490h80l-538 -535q9 5 25 12t67 19t104 12q190 0 316 -128t126 -310q0 -147 -72 -268t-192 -188.5t-260 -67.5q-191 0 -318.5 126.5t-127.5 307.5zM614 41q120 0 223 57t166.5 163.5t63.5 238.5
q0 160 -110.5 270.5t-280.5 110.5q-120 0 -223 -57t-166.5 -163.5t-63.5 -238.5q0 -160 110.5 -270.5t280.5 -110.5z" />
    <glyph glyph-name="five.taboldstyle" horiz-adv-x="1126" 
d="M301 274h-65l176 730h716l-10 -62h-661l-138 -567q5 6 14.5 15t41.5 32.5t67 41.5t90.5 33t112.5 15q184 0 300 -115.5t116 -292.5q0 -149 -69 -268t-180.5 -182.5t-240.5 -63.5q-82 0 -150 21.5t-111 56t-75.5 76t-49.5 83t-27 76t-12 55.5l-3 22h62q1 -7 2.5 -18.5
t11.5 -46t25 -65.5t44.5 -68.5t66.5 -65t96 -46t129 -18.5q83 0 159.5 33t134 91t91.5 142.5t34 181.5q0 163 -105 257t-257 94q-64 0 -122 -18t-95 -44.5t-65.5 -52.5t-40.5 -44z" />
    <glyph glyph-name="four.taboldstyle" horiz-adv-x="1126" 
d="M831 -389h-61l70 389h-707l10 61l699 943h71l-698 -943h635l76 431h61l-76 -431h195l-10 -61h-195z" />
    <glyph glyph-name="three.taboldstyle" horiz-adv-x="1126" 
d="M1006 14q0 -178 -130 -301t-333 -123q-79 0 -146.5 20t-111.5 51.5t-79 69.5t-54.5 76.5t-31.5 70t-16 51.5l-4 20h60q1 -6 3.5 -17t15 -41.5t29 -58.5t48.5 -62.5t71 -59t98.5 -41.5t129.5 -17q170 0 279.5 101t109.5 253q0 125 -95.5 213t-264.5 88h-138l13 62h207
q158 0 257 91t99 226q0 117 -89 197t-237 80q-73 0 -139.5 -25.5t-108.5 -61.5t-73.5 -72t-45.5 -62l-14 -25h-67q3 6 8 17.5t25 43t43.5 60.5t62.5 64.5t82.5 61t104 43t126.5 17.5q172 0 278.5 -97.5t106.5 -236.5q0 -147 -85.5 -239t-211.5 -127q99 -38 158.5 -118
t59.5 -192z" />
    <glyph glyph-name="two.taboldstyle" horiz-adv-x="1126" 
d="M512 201l-285 -146h748l-10 -61h-861l11 61l364 189q86 45 134 70.5t110 60.5t94.5 57t71.5 51.5t57.5 53t36.5 53.5t24.5 60.5t6.5 66.5q0 102 -86.5 170.5t-245.5 68.5q-57 0 -108.5 -13t-88.5 -33.5t-67.5 -45.5t-50 -50.5t-33.5 -46t-20 -33.5l-5 -13h-61q2 6 6.5 17
t21.5 41.5t38.5 58.5t58.5 62.5t80 59t104.5 41.5t130.5 17q181 0 284 -86t103 -213q0 -46 -10.5 -85t-28 -73t-54 -69t-75 -65t-104.5 -69t-129 -72.5t-162 -84.5z" />
    <glyph glyph-name="one.taboldstyle" horiz-adv-x="1126" 
d="M178 0l10 61h400l153 865l-340 -236l15 78l338 236h61l-166 -943h379l-10 -61h-840z" />
    <glyph glyph-name="zero.taboldstyle" horiz-adv-x="1126" 
d="M606 47q97 0 186.5 38.5t157 105t108 162t40.5 204.5q0 179 -116 295.5t-300 116.5q-97 0 -186.5 -38.5t-157 -105t-108 -162t-40.5 -204.5q0 -179 116 -295.5t300 -116.5zM600 -14q-205 0 -338 133.5t-133 333.5q0 121 46.5 229t123 183.5t178.5 120t211 44.5
q205 0 338 -133.5t133 -333.5q0 -121 -46.5 -229t-123 -183.5t-178.5 -120t-211 -44.5z" />
    <glyph glyph-name="questiondown.case" horiz-adv-x="1097" 
d="M256 317q0 -123 99 -210t261 -87q155 0 271 90.5t180 237.5h61q-23 -72 -68 -139t-109 -124t-152.5 -91.5t-186.5 -34.5q-189 0 -303 102t-114 252q0 92 28 161.5t74 111.5t102 76t115 66.5t110 70.5t90 100t52 145h61q-13 -91 -52 -160t-90 -111t-110 -76t-115 -66
t-102 -70.5t-74 -100t-28 -143.5zM864 1454q25 0 40.5 -16t15.5 -39q0 -32 -21 -50t-49 -18q-25 0 -40 16t-15 39q0 32 20.5 50t48.5 18z" />
    <glyph glyph-name="guillemotleft.case" horiz-adv-x="1028" 
d="M219 707l481 460l35 -43l-440 -422l299 -417l-47 -39zM588 707l481 460l35 -43l-440 -422l299 -417l-48 -39z" />
    <glyph glyph-name="guillemotright.case" horiz-adv-x="1028" 
d="M1059 707l-481 -461l-35 43l440 422l-299 417l47 39zM690 707l-481 -461l-35 43l440 422l-299 417l47 39z" />
    <glyph glyph-name="guilsinglleft.case" horiz-adv-x="700" 
d="M625 285l-47 -39l-359 461l522 460l35 -43l-477 -422z" />
    <glyph glyph-name="guilsinglright.case" horiz-adv-x="700" 
d="M326 1128l47 39l358 -460l-522 -461l-35 43l477 422z" />
    <glyph glyph-name="hyphen.case" horiz-adv-x="962" 
d="M973 768h-717l10 61h717z" />
    <glyph glyph-name="nine.tab" 
d="M1272 1020q-1 -44 -7 -84.5t-19.5 -78t-26 -67t-36.5 -63t-39.5 -55t-47.5 -54t-48.5 -49t-53.5 -51t-52 -49.5l-487 -469h-82l532 514q-9 -5 -25.5 -12.5t-67.5 -20t-103 -12.5q-134 0 -242.5 63.5t-167.5 168t-59 227.5q0 149 78 275.5t206 199t273 72.5
q102 0 191.5 -37t151 -99t97 -145t35.5 -174zM791 1413q-129 0 -241.5 -63.5t-179.5 -175t-67 -242.5q0 -170 117.5 -286t300.5 -116q129 0 241 64t179 175.5t67 242.5q0 170 -117 285.5t-300 115.5z" />
    <glyph glyph-name="afii10069.alt" horiz-adv-x="1142" 
d="M23 61h112q6 2 16 7t37 27t50 52t47.5 86t36.5 125l114 646h676l-168 -943h164l-53 -307h-62l43 246h-962l-43 -246h-62zM485 942l-100 -573q-12 -69 -33 -126t-42.5 -89t-41.5 -54.5t-32 -30.5l-13 -8h660l155 881h-553z" />
    <glyph glyph-name="afii10021.alt" horiz-adv-x="1470" 
d="M154 61q8 3 21.5 10t51.5 42t71 85t70 146.5t58 218.5l154 871h901l-242 -1373h184l-61 -348h-62l52 287h-1291l-51 -287h-61l61 348h144zM487 563q-20 -115 -52.5 -209t-64 -146t-60 -87.5t-46.5 -47.5l-18 -12h932l231 1311h-778z" />
    <glyph glyph-name="nine.dnom" horiz-adv-x="636" 
d="M434 717q106 0 182 -67.5t76 -170.5q0 -141 -155 -268l-256 -211h-84l272 221q-31 -16 -84 -16q-110 0 -179 69.5t-69 165.5q0 115 89 196t208 81zM422 655q-93 0 -158 -61t-65 -154q0 -75 54.5 -124.5t149.5 -49.5q94 0 159 61t65 154q0 75 -55 124.5t-150 49.5z" />
    <glyph glyph-name="eight.dnom" horiz-adv-x="712" 
d="M442 717q128 0 202.5 -51t74.5 -138q0 -38 -16 -70t-37.5 -51t-45.5 -33t-38.5 -19t-16.5 -5q5 -2 13.5 -5.5t30 -17t38 -30t30 -45.5t13.5 -62q0 -88 -75 -149t-207 -61q-151 0 -230.5 58.5t-79.5 141.5q0 48 19.5 85.5t46.5 57t54.5 32.5t47.5 17l19 3l-11 5.5
t-24.5 16.5t-30.5 28.5t-24 41t-11 53.5q0 84 71 140.5t187 56.5zM418 41q103 0 157 41t54 104q0 60 -64.5 101t-193.5 41q-103 0 -157 -41.5t-54 -104.5q0 -60 64.5 -100.5t193.5 -40.5zM463 389q90 0 142 40t52 93q0 54 -56 93.5t-161 39.5q-90 0 -142 -40t-52 -93
q0 -54 56 -93.5t161 -39.5z" />
    <glyph glyph-name="seven.dnom" horiz-adv-x="528" 
d="M119 635l10 61h492l-11 -61l-438 -635h-70l439 635h-422z" />
    <glyph glyph-name="six.dnom" horiz-adv-x="647" 
d="M352 -20q-106 0 -182 67t-76 170q0 140 156 268l256 211h84l-273 -221q31 17 84 17q110 0 179 -70t69 -166q0 -115 -89 -195.5t-208 -80.5zM365 41q93 0 158 61t65 154q0 75 -55 124.5t-150 49.5q-93 0 -158 -61t-65 -154q0 -75 55 -124.5t150 -49.5z" />
    <glyph glyph-name="five.dnom" horiz-adv-x="653" 
d="M209 322l-64 10l76 364h451l-10 -61h-392l-49 -240q7 6 19.5 15.5t57 25t93.5 15.5q114 0 183 -60.5t69 -154.5q0 -109 -79 -182.5t-199 -73.5q-69 0 -121.5 21t-78.5 51t-42 60t-19 51l-4 21h66q1 -6 4 -15.5t17 -34t34.5 -43.5t61 -34.5t92.5 -15.5q95 0 150 53.5
t55 138.5q0 68 -51.5 112t-145.5 44q-48 0 -91.5 -16.5t-63.5 -33.5z" />
    <glyph glyph-name="four.dnom" horiz-adv-x="624" 
d="M479 0h-61l33 184h-379l10 62l356 450h70l-361 -450h314l31 174h61l-31 -174h113l-10 -62h-113z" />
    <glyph glyph-name="three.dnom" horiz-adv-x="684" 
d="M377 430h29q121 0 188.5 -55.5t67.5 -147.5q0 -110 -75 -178.5t-196 -68.5q-52 0 -96 11.5t-72 29t-49.5 39.5t-33 44t-18.5 39.5t-9 28.5l-2 12h67q1 -6 3.5 -15.5t17 -34t35.5 -43.5t63.5 -34.5t97.5 -15.5q92 0 147.5 50.5t55.5 127.5q0 63 -49 106.5t-143 43.5h-130
l11 61l315 205h-381l10 61h471l-10 -61z" />
    <glyph glyph-name="two.dnom" horiz-adv-x="684" 
d="M504 231l-307 -170h440l-10 -61h-543l10 61l195 111q24 13 65 35.5t65 35.5t58.5 34t55.5 37t45 39t36.5 45t21.5 49t9 57q0 66 -49 108.5t-137 42.5q-45 0 -84 -16t-62.5 -38.5t-40.5 -44.5t-24 -38l-6 -16h-62q2 4 5 12t15 30.5t26 42.5t38.5 45t52 43t66 30t80.5 12
q111 0 177.5 -61t66.5 -148q0 -167 -203 -277z" />
    <glyph glyph-name="one.dnom" horiz-adv-x="655" 
d="M143 0l11 61h225l100 570l-213 -113l10 66l216 112h61l-113 -635h205l-10 -61h-492z" />
    <glyph glyph-name="zero.dnom" horiz-adv-x="776" 
d="M201 291q0 -112 61.5 -180t155.5 -70q52 0 102.5 24.5t92 69t67 115.5t25.5 156q0 112 -62 179.5t-156 69.5q-52 0 -102.5 -24t-91.5 -68.5t-66.5 -115.5t-25.5 -156zM141 291q0 95 31.5 177t82 135.5t113 83.5t126.5 30q115 0 192.5 -85.5t77.5 -225.5q0 -95 -31.5 -177
t-82 -135.5t-112.5 -83.5t-126 -30q-115 0 -193 86t-78 225z" />
    <glyph glyph-name="nine.numr" horiz-adv-x="647" 
d="M537 1454q106 0 182 -67t76 -170q0 -141 -156 -269l-256 -211h-84l272 221q-31 -16 -84 -16q-110 0 -178.5 70t-68.5 166q0 115 89 195.5t208 80.5zM524 1393q-93 0 -158 -61t-65 -154q0 -75 55 -124.5t150 -49.5q93 0 158 61t65 154q0 75 -55 124.5t-150 49.5z" />
    <glyph glyph-name="eight.numr" horiz-adv-x="722" 
d="M559 1454q129 0 203 -50.5t74 -137.5q0 -38 -16 -70t-37.5 -51.5t-45.5 -33t-38.5 -19t-16.5 -5.5q5 -2 13.5 -5t30 -16.5t38 -30t30 -45.5t13.5 -62q0 -88 -75.5 -149.5t-207.5 -61.5q-150 0 -229.5 59t-79.5 142q0 35 10.5 64.5t26.5 48.5t36 34.5t40 24t36 14t26 6.5
l11 2l-11 5.5t-24 16.5t-30 28.5t-24 41t-11 53.5q0 84 71 140.5t187 56.5zM535 778q103 0 156.5 41.5t53.5 104.5q0 60 -64.5 100.5t-193.5 40.5q-103 0 -157 -41t-54 -104q0 -60 65 -101t194 -41zM580 1126q90 0 142 40t52 94t-56 93.5t-161 39.5q-90 0 -142.5 -40
t-52.5 -93q0 -54 56.5 -94t161.5 -40z" />
    <glyph glyph-name="seven.numr" horiz-adv-x="528" 
d="M242 1372l10 62h491l-10 -62l-438 -635h-70l439 635h-422z" />
    <glyph glyph-name="six.numr" horiz-adv-x="636" 
d="M461 717q-106 0 -182 67t-76 170q0 142 155 269l256 211h84l-272 -222q31 17 84 17q110 0 179 -70t69 -166q0 -115 -89 -195.5t-208 -80.5zM473 778q93 0 158 61t65 154q0 75 -54.5 124.5t-149.5 49.5q-94 0 -159 -61t-65 -154q0 -75 55 -124.5t150 -49.5z" />
    <glyph glyph-name="five.numr" horiz-adv-x="663" 
d="M344 1059l-63 10l75 365h451l-10 -62h-391l-50 -239q7 6 19.5 15t57 24.5t93.5 15.5q114 0 183 -60.5t69 -154.5q0 -109 -79 -182.5t-199 -73.5q-50 0 -92 11.5t-68.5 29.5t-46.5 40t-30.5 43.5t-17 39.5t-7.5 29l-2 12h65q1 -6 4 -15.5t17 -34.5t34.5 -44t61 -34.5
t92.5 -15.5q95 0 150 54t55 139q0 68 -51.5 111.5t-145.5 43.5q-48 0 -91.5 -17t-62.5 -33z" />
    <glyph glyph-name="four.numr" horiz-adv-x="624" 
d="M602 737h-61l32 185h-378l10 61l356 451h70l-361 -451h314l30 174h62l-31 -174h113l-10 -61h-113z" />
    <glyph glyph-name="three.numr" horiz-adv-x="684" 
d="M489 1167h29q121 0 188.5 -55t67.5 -147q0 -111 -74.5 -179.5t-195.5 -68.5q-72 0 -127 21t-83 51t-45.5 60.5t-21.5 51.5l-4 21h68q1 -6 3.5 -15.5t17 -34.5t35.5 -44t63.5 -34.5t97.5 -15.5q92 0 147.5 50.5t55.5 127.5q0 63 -49.5 106.5t-143.5 43.5h-129l10 61
l316 205h-381l10 62h471l-10 -62z" />
    <glyph glyph-name="two.numr" horiz-adv-x="684" 
d="M612 969l-307 -170h440l-10 -62h-542l10 62l194 110q24 13 64.5 35t65 35.5t59 34.5t55.5 37t45 39t37 45t22 49t9 57q0 66 -49.5 109t-137.5 43q-45 0 -84 -16t-62.5 -38.5t-40.5 -45t-24 -38.5l-6 -16h-61q3 9 9.5 23.5t30.5 51.5t53.5 65.5t80 51.5t108.5 23
q111 0 177.5 -61t66.5 -148q0 -166 -203 -276z" />
    <glyph glyph-name="one.numr" horiz-adv-x="655" 
d="M223 737l10 62h226l100 569l-213 -113l10 66l215 113h62l-113 -635h205l-10 -62h-492z" />
    <glyph glyph-name="zero.numr" horiz-adv-x="786" 
d="M315 1028q0 -112 61.5 -180t155.5 -70q52 0 102.5 24.5t92 69t67 115.5t25.5 156q0 112 -61.5 180t-155.5 70q-52 0 -102.5 -24.5t-92 -69t-67 -115.5t-25.5 -156zM256 1028q0 95 31.5 177t82 135.5t112.5 83.5t126 30q115 0 193 -86t78 -225q0 -95 -31.5 -177
t-82 -135.5t-113 -83.5t-126.5 -30q-115 0 -192.5 85.5t-77.5 225.5z" />
    <glyph glyph-name="eight.tab" 
d="M686 -41q-244 0 -393.5 111t-149.5 290q0 76 23 140.5t60 107t82 76.5t90 52t82 30.5t60 15.5l23 4q-9 3 -25 10t-55.5 32.5t-70 56.5t-55.5 85t-25 115q0 160 132 275t347 115q226 0 354.5 -105t128.5 -252q0 -63 -19 -117.5t-49.5 -91t-67.5 -65.5t-74 -45t-67.5 -27
t-49.5 -14l-19 -4q11 -4 30 -11.5t67.5 -37t85.5 -65.5t67.5 -100t30.5 -137q0 -90 -38 -170.5t-107 -141.5t-172 -96.5t-226 -35.5zM821 795q187 0 299.5 93t112.5 226q0 124 -113 211.5t-317 87.5q-187 0 -298.5 -93t-111.5 -226q0 -124 112 -211.5t316 -87.5zM692 20
q147 0 257 53.5t164 138t54 185.5q0 145 -127 243.5t-360 98.5q-147 0 -257 -53.5t-164 -138t-54 -185.5q0 -145 127 -243.5t360 -98.5z" />
    <glyph glyph-name="f.alt" horiz-adv-x="600" 
d="M381 1004l31 170q47 260 274 260h191l-11 -62h-178q-181 0 -215 -198l-31 -170h297l-10 -62h-297l-166 -942h-61l166 942h-154l10 62h154z" />
    <glyph glyph-name="t.alt" horiz-adv-x="688" 
d="M432 942l-113 -647q-19 -109 26 -171.5t157 -62.5h133l-10 -61h-123q-148 0 -208.5 79t-37.5 210l115 653h-154l10 62h154l41 225h61l-41 -225h349l-11 -62h-348z" />
    <glyph glyph-name="j.alt" horiz-adv-x="446" 
d="M170 -121l199 1125h61l-201 -1139q-46 -254 -274 -254h-129l10 61h123q174 0 211 207zM451 1270q-24 0 -40 16.5t-16 38.5q0 32 20 50t48 18q24 0 39.5 -16.5t15.5 -39.5q0 -32 -19.5 -49.5t-47.5 -17.5z" />
    <glyph glyph-name="afii10055.alt" horiz-adv-x="948" 
d="M354 1372l11 62h716l-10 -62h-328l-231 -1311h328l-11 -61h-716l10 61h328l231 1311h-328z" />
    <glyph glyph-name="afii10056.alt" horiz-adv-x="948" 
d="M354 1372l11 62h716l-10 -62h-328l-231 -1311h328l-11 -61h-716l10 61h328l231 1311h-328zM573 1638q-24 0 -41.5 15.5t-17.5 40.5q0 28 19 47.5t45 19.5q24 0 41.5 -15t17.5 -40q0 -29 -19.5 -48.5t-44.5 -19.5zM918 1638q-24 0 -42 15.5t-18 40.5q0 28 19 47.5t45 19.5
q24 0 41.5 -15t17.5 -40q0 -29 -19 -48.5t-44 -19.5z" />
    <glyph glyph-name="afii10061.alt" horiz-adv-x="1390" 
d="M1198 461l-45 -246q-29 -164 125 -164h61l-10 -61h-61q-101 0 -148.5 59.5t-27.5 165.5l45 246q22 123 -25 179t-170 56h-532l-123 -696h-62l252 1434h62l-119 -676h532q117 0 176 53t82 182l39 226q19 107 86.5 166t167.5 59h62l-11 -62h-61q-77 0 -122 -39.5
t-60 -123.5l-39 -226q-9 -50 -24 -92t-32.5 -68.5t-36.5 -47t-36.5 -31.5t-31 -17.5t-21.5 -8.5l-9 -1q2 0 5.5 -1t14 -4.5t20.5 -9t23 -16t23.5 -23.5t20 -34t14 -45.5t4 -59t-7.5 -73.5zM1163 1864h84l-274 -277h-62z" />
    <glyph glyph-name="afii10051.alt" horiz-adv-x="1503" 
d="M1356 231l28 168q14 80 -5 150.5t-66.5 123.5t-129 84t-186.5 31h-393l-139 -788h-62l242 1372h-461l11 62h1044l-10 -62h-522l-93 -522h383q123 0 218 -37.5t149 -101t75 -146t5 -174.5l-29 -166q-33 -194 -160.5 -301.5t-339.5 -107.5h-53l10 61h60q178 0 287 93
t137 261z" />
    <glyph glyph-name="afii10058.alt" horiz-adv-x="2250" 
d="M1376 901h424q211 0 336 -113t125 -286q0 -223 -141 -362.5t-371 -139.5h-594l242 1372h-758l-154 -868q-35 -196 -91 -313.5t-126 -164t-166 -46.5q-35 0 -70.5 7t-54 14t-18.5 9l10 64q59 -33 135 -33q57 0 103 23t87.5 76t74.5 146t57 226l164 922h878zM1800 840h-436
l-137 -779h532q199 0 320 120.5t121 320.5q0 150 -106 244t-294 94z" />
    <glyph glyph-name="afii10099.alt" horiz-adv-x="1138" 
d="M920 -129l96 539q30 166 -47 277.5t-242 111.5q-150 0 -262.5 -99t-142.5 -268l-76 -432h-62l197 1116h-164l10 62h164l45 256h62l-45 -256h266l-10 -62h-269l-78 -450q58 93 155 143.5t214 50.5q194 0 287 -123t59 -319l-96 -553q-23 -126 -93 -190t-181 -64h-132l13 61
h123q172 0 209 199z" />
    <glyph glyph-name="afii10105.alt" horiz-adv-x="446" 
d="M170 -121l199 1125h61l-201 -1139q-46 -254 -274 -254h-129l10 61h123q174 0 211 207zM451 1270q-24 0 -40 16.5t-16 38.5q0 32 20 50t48 18q24 0 39.5 -16.5t15.5 -39.5q0 -32 -19.5 -49.5t-47.5 -17.5z" />
    <glyph glyph-name="afii10106.alt" horiz-adv-x="1708" 
d="M504 942l-105 -584q-34 -200 -112 -284t-207 -84q-23 0 -43 4t-29 8l-8 4l10 62q29 -17 80 -17q98 0 158.5 69t89.5 238l115 646h675l-69 -390h321q137 0 227.5 -79.5t90.5 -196.5q0 -142 -102 -240t-267 -98h-440l168 942h-553zM1370 553h-321l-86 -492h376
q133 0 215 74.5t82 202.5q0 94 -72.5 154.5t-193.5 60.5z" />
    <glyph glyph-name="afii10109.alt" horiz-adv-x="1089" 
d="M840 174l26 154q27 153 -127 153h-20h-379l-84 -481h-61l176 1004h61l-80 -461h379q153 0 180 153l23 133q13 84 72.5 134.5t144.5 50.5h31l-11 -62h-30q-125 0 -146 -123l-22 -133q-8 -43 -24.5 -77.5t-34.5 -52.5t-35 -29.5t-28 -14.5l-11 -4q2 -1 6 -2t16.5 -7
t21.5 -14.5t21.5 -23t17.5 -34t9 -47.5t-4 -62l-27 -154q-21 -123 100 -123h31l-10 -61h-31q-85 0 -125.5 49.5t-25.5 134.5zM948 1423h84l-274 -276h-62z" />
    <glyph glyph-name="ff.alt" horiz-adv-x="1214" 
d="M995 1004l31 170q47 260 274 260h191l-10 -62h-178q-182 0 -216 -198l-30 -170h297l-11 -62h-296l-166 -942h-62l166 942h-553l-166 -942h-61l166 942h-154l10 62h154l31 170q47 260 274 260h191l-11 -62h-178q-181 0 -215 -198l-31 -170h553z" />
    <glyph glyph-name="fi.alt" horiz-adv-x="1071" 
d="M442 1004h615l-176 -1004h-62l166 942h-553l-166 -942h-61l166 942h-154l10 62h154l31 170q47 260 274 260h416l-10 -62h-404q-181 0 -215 -198z" />
    <glyph glyph-name="f_j.alt" horiz-adv-x="1071" 
d="M797 -121l188 1063h-553l-166 -942h-61l166 942h-154l10 62h154l31 170q47 260 274 260h416l-10 -62h-404q-181 0 -215 -198l-31 -170h615l-201 -1139q-46 -254 -274 -254h-129l10 61h123q174 0 211 207z" />
    <glyph glyph-name="fl.alt" horiz-adv-x="1075" 
d="M819 0l197 1116q23 128 -46 202.5t-202 74.5q-130 0 -208.5 -81.5t-98.5 -205.5l-17 -102h295l-10 -62h-297l-166 -942h-61l166 942h-154l10 62h156l16 102q12 76 39.5 137t72.5 109.5t113 75t154 26.5q156 0 241 -93t58 -245l-196 -1116h-62z" />
    <glyph glyph-name="f_t.alt" horiz-adv-x="1302" 
d="M997 1004l19 112q21 129 -47.5 203t-200.5 74q-130 0 -208.5 -81.5t-98.5 -205.5l-17 -102h553zM985 942h-553l-166 -942h-61l166 942h-154l10 62h156l16 102q12 76 39.5 137t72.5 109.5t113 75t154 26.5q156 0 240.5 -92t58.5 -246l-18 -112h346l-10 -62h-348l-113 -647
q-19 -110 25.5 -172t156.5 -62h133l-10 -61h-123q-148 0 -208.5 79t-37.5 210z" />
    <glyph glyph-name="afii10072.alt" horiz-adv-x="1521" 
d="M336 328l-27 -154q-15 -85 -73.5 -134.5t-143.5 -49.5h-31l11 61h30q125 0 146 123l26 154q9 53 32 92.5t50.5 59t43.5 27.5t28 11q-5 1 -12.5 5t-22 16.5t-22.5 32t-14 50.5t3 74l23 133q21 123 -100 123h-31l10 62h31q84 0 124.5 -50t26.5 -135l-22 -133
q-27 -153 127 -153h276l80 461h62l-80 -461h276q153 0 180 153l23 133q13 84 72.5 134.5t144.5 50.5h31l-10 -62h-31q-125 0 -146 -123l-22 -133q-9 -49 -28.5 -86.5t-43 -55.5t-37 -25.5t-24.5 -10.5q56 -23 78 -69q23 -49 10 -121l-27 -154q-21 -123 101 -123h30l-10 -61
h-31q-85 0 -125.5 49.5t-25.5 134.5l26 154q27 153 -127 153h-297l-83 -481h-62l84 481h-297q-153 0 -180 -153z" />
    <glyph glyph-name="A_A" horiz-adv-x="2516" 
d="M2402 0l-47 532h-809l-235 -532h-64l-47 532h-809l-235 -532h-64l631 1434h461l114 -1332l580 1332h461l127 -1434h-64zM2281 1372h-366l-344 -778h780zM1126 1372h-366l-344 -778h780z" />
    <glyph glyph-name="A_R" horiz-adv-x="2160" 
d="M1741 578l266 -578h-72l-268 573h-522l-101 -573h-61l100 573h-675l-252 -573h-64l631 1434h1059q196 0 313 -107t117 -272q0 -209 -128.5 -341t-342.5 -136zM1761 1372h-475l-129 -737h563q199 0 314.5 113.5t115.5 306.5q0 141 -104 229t-285 88zM760 1372l-324 -737
h660l129 737h-465z" />
    <glyph glyph-name="A_T" horiz-adv-x="1413" 
d="M1298 0l-47 532h-399l-94 -532h-62l95 532h-400l-235 -532h-64l604 1372h-321l10 62h1178l-11 -62h-311l121 -1372h-64zM938 1372h-178l-344 -778h385zM1178 1372h-179l-137 -778h385z" />
    <glyph glyph-name="A_V" horiz-adv-x="2154" 
d="M1247 0l-47 532h-809l-235 -532h-64l631 1434h461l121 -1373h366l604 1373h64l-631 -1434h-461zM1126 1372h-366l-344 -778h780z" />
    <glyph glyph-name="C_E" horiz-adv-x="1642" 
d="M911 20q108 0 207 33.5t170 85t129 117t92 124.5t52 112h65q-35 -100 -99 -192t-153 -170t-209.5 -124.5t-253.5 -46.5q-299 0 -482 183.5t-183 482.5q0 181 63 340t169.5 270t251.5 175.5t304 64.5q127 0 236.5 -39.5t188.5 -108t131 -159t73 -195.5h-64
q-41 190 -194.5 315t-370.5 125q-148 0 -281.5 -59t-232 -161.5t-156 -250.5t-57.5 -317q0 -269 168 -437t436 -168zM733 440h451l-10 -61h-512l118 676h512l-12 -62h-451l-41 -235h338l-10 -62h-338z" />
    <glyph glyph-name="C_O" horiz-adv-x="1642" 
d="M911 20q108 0 207 33.5t170 85t129 117t92 124.5t52 112h65q-35 -100 -99 -192t-153 -170t-209.5 -124.5t-253.5 -46.5q-299 0 -482 183.5t-183 482.5q0 181 63 340t169.5 270t251.5 175.5t304 64.5q127 0 236.5 -39.5t188.5 -108t131 -159t73 -195.5h-64
q-41 190 -194.5 315t-370.5 125q-148 0 -281.5 -59t-232 -161.5t-156 -250.5t-57.5 -317q0 -269 168 -437t436 -168zM952 369q-140 0 -226.5 85.5t-86.5 219.5q0 169 107.5 280t257.5 111q140 0 226.5 -85.5t86.5 -219.5q0 -169 -107.5 -280t-257.5 -111zM958 430
q125 0 212 90.5t87 235.5q0 111 -71 179.5t-189 68.5q-125 0 -212 -90.5t-87 -235.5q0 -111 71 -179.5t189 -68.5z" />
    <glyph glyph-name="D_E" horiz-adv-x="2154" 
d="M2298 1372h-1180q8 -3 21.5 -8t52.5 -26.5t75 -48.5t79.5 -75t74.5 -103.5t52.5 -136.5t21.5 -173v-43h541l-11 -62h-536q-9 -100 -40.5 -189.5t-75 -152t-93.5 -114.5t-98 -84t-87.5 -54.5t-64.5 -31.5l-24 -9h1060l-10 -61h-1831l252 1434h1831zM297 61h420
q203 0 366.5 94t257 263t93.5 381q0 255 -163.5 414t-430.5 159h-312z" />
    <glyph glyph-name="E_A" horiz-adv-x="2353" 
d="M2238 0l-63 696h-721l-307 -696h-922l252 1434h860l-10 -62h-799l-108 -614h997l297 676h461l127 -1434h-64zM297 61h813l281 635h-981zM2118 1372h-367l-270 -614h688z" />
    <glyph glyph-name="J_A" horiz-adv-x="1886" 
d="M975 406l182 1028h572l126 -1434h-63l-47 532h-686l-2 -6l-23 -125q-38 -213 -164 -327.5t-315 -114.5q-92 0 -167.5 22t-122 56.5t-81.5 76.5t-52 84.5t-27 77t-11 56.5l-2 22l64 11q0 -7 1.5 -19.5t10 -48.5t23 -68.5t44.5 -72t70.5 -68.5t105.5 -48.5t144 -19.5
q166 0 277 101t143 285zM1671 1372h-465l-137 -778h672z" />
    <glyph glyph-name="K_K" horiz-adv-x="1665" 
d="M1171 0l-387 696h-374l-123 -696h-62l252 1434h62l-119 -676h373l608 676h80l-635 -707l403 -727h-78zM1186 729l635 705h80l-635 -707l403 -727h-78z" />
    <glyph glyph-name="K_O" horiz-adv-x="2246" 
d="M1171 0l-387 696h-374l-123 -696h-62l252 1434h62l-119 -676h373l608 676h80l-635 -707l403 -727h-78zM1720 266q126 0 239.5 65.5t184 183t70.5 255.5q0 176 -116.5 297t-293.5 121q-94 0 -184 -39t-158 -105.5t-109.5 -161t-41.5 -198.5q0 -177 116 -297.5t293 -120.5z
M1714 205q-129 0 -237 64.5t-169 174t-61 238.5q0 151 81 283t211 208t271 76q129 0 237 -64.5t169 -174t61 -238.5q0 -151 -81 -283t-211 -208t-271 -76z" />
    <glyph glyph-name="L_A" horiz-adv-x="1925" 
d="M1810 0l-47 532h-809l-209 -471h351l-11 -61h-860l252 1434h62l-242 -1373h385l604 1373h461l127 -1434h-64zM1690 1372h-367l-344 -778h780z" />
    <glyph glyph-name="L_I" horiz-adv-x="1306" 
d="M539 1434l-242 -1373h799l-11 -61h-860l252 1434h62zM1337 1434l-194 -1106h-62l195 1106h61z" />
    <glyph glyph-name="L_L" horiz-adv-x="1259" 
d="M539 1434l-242 -1373h799l-11 -61h-860l252 1434h62zM879 1434l-183 -1045h594l-12 -61h-655l194 1106h62z" />
    <glyph glyph-name="L_F" horiz-adv-x="1337" 
d="M539 1434l-242 -1373h799l-11 -61h-860l252 1434h62zM801 829l-92 -522h-62l199 1127h676l-11 -62h-614l-84 -481h481l-12 -62h-481z" />
    <glyph glyph-name="L_O" horiz-adv-x="1617" 
d="M1112 471q126 0 239.5 65.5t184 183t70.5 255.5q0 176 -116.5 297t-293.5 121q-126 0 -239.5 -65.5t-184 -183t-70.5 -255.5q0 -176 116.5 -297t293.5 -121zM1106 410q-129 0 -237 64.5t-169 174t-61 238.5q0 151 81 283t211 208t271 76q129 0 237 -64.5t169 -174
t61 -238.5q0 -151 -81 -283t-211 -208t-271 -76zM539 1434l-242 -1373h799l-11 -61h-860l252 1434h62z" />
    <glyph glyph-name="N_A" horiz-adv-x="2232" 
d="M1290 0h-92l-670 1376l-241 -1376h-62l252 1434h92l670 -1377l242 1377h573l127 -1434h-63l-47 532h-687zM1997 1372h-465l-137 -778h671z" />
    <glyph glyph-name="O_C" horiz-adv-x="2424" 
d="M1024 1475q230 0 399 -121q188 121 414 121q127 0 236.5 -39.5t188.5 -108t131 -159t73 -195.5h-64q-41 190 -194.5 315t-370.5 125q-199 0 -364 -98q98 -89 152 -219.5t54 -286.5q0 -215 -85 -394t-234 -296q151 -99 354 -99q107 0 205.5 33.5t169.5 85t129.5 117
t92.5 124.5t52 112h66q-35 -99 -99 -191.5t-153.5 -170.5t-210 -124.5t-252.5 -46.5q-241 0 -409 121q-185 -121 -404 -121q-292 0 -473.5 183.5t-181.5 482.5q0 180 63 339.5t168.5 270.5t248 175.5t298.5 64.5zM901 20q189 0 352 99q-98 89 -151 218.5t-53 287.5
q0 215 85 394t234 296q-149 98 -344 98q-145 0 -276 -59t-228.5 -161.5t-155 -250.5t-57.5 -317q0 -268 166 -436.5t428 -168.5zM1618 809q0 145 -53 265.5t-148 201.5q-142 -106 -224.5 -275t-82.5 -376q0 -148 52.5 -268.5t148.5 -200.5q142 106 224.5 276t82.5 377z" />
    <glyph glyph-name="O_G" horiz-adv-x="2570" 
d="M901 20q189 0 352 99q-98 89 -151 218.5t-53 287.5q0 215 85 394t234 296q-149 98 -344 98q-145 0 -276 -59t-228.5 -161.5t-155 -250.5t-57.5 -317q0 -268 166 -436.5t428 -168.5zM1618 809q0 145 -53 265.5t-148 201.5q-142 -106 -224.5 -275t-82.5 -376
q0 -148 52.5 -268.5t148.5 -200.5q142 106 224.5 276t82.5 377zM1714 -41q-241 0 -409 121q-185 -121 -404 -121q-292 0 -473.5 183.5t-181.5 482.5q0 180 63 339.5t168.5 270.5t248 175.5t298.5 64.5q230 0 399 -121q188 121 414 121q127 0 237 -39t188 -106t130.5 -153.5
t73.5 -183.5h-64q-20 85 -69.5 160.5t-121 133.5t-169 92t-205.5 34q-199 0 -364 -98q98 -89 152 -219.5t54 -286.5q0 -215 -85 -394t-234 -296q151 -99 354 -99q131 0 253.5 52.5t214.5 141t153.5 209t77.5 253.5h-304l11 61h563l-10 -61h-195q-28 -201 -139.5 -366
t-277 -258t-347.5 -93z" />
    <glyph glyph-name="O_L_I" horiz-adv-x="2801" 
d="M1024 1475q292 0 473.5 -183.5t181.5 -482.5q0 -180 -63 -339.5t-168.5 -270.5t-248 -175.5t-298.5 -64.5q-292 0 -473.5 183.5t-181.5 482.5q0 180 63 339.5t168.5 270.5t248 175.5t298.5 64.5zM901 20q145 0 276 59t228.5 162t155 251t57.5 317q0 268 -166 436
t-428 168q-145 0 -276 -59t-228.5 -161.5t-155 -250.5t-57.5 -317q0 -268 166 -436.5t428 -168.5zM2034 1436l-242 -1373h799l-11 -61h-860l252 1434h62zM2832 1436l-194 -1106h-62l195 1106h61z" />
    <glyph glyph-name="O_O" horiz-adv-x="2482" 
d="M1827 1475q292 0 473.5 -183.5t181.5 -482.5q0 -180 -63 -339.5t-168.5 -270.5t-248 -175.5t-298.5 -64.5q-230 0 -399 121q-189 -121 -404 -121q-292 0 -473.5 183.5t-181.5 482.5q0 180 63 339.5t168.5 270.5t248 175.5t298.5 64.5q235 0 399 -121q185 121 404 121z
M1704 20q145 0 276 59t228.5 162t155 251t57.5 317q0 268 -166 436t-428 168q-192 0 -354 -98q99 -89 152.5 -218.5t53.5 -287.5q0 -216 -85.5 -395.5t-233.5 -294.5q148 -99 344 -99zM901 20q189 0 352 99q-98 89 -151 218.5t-53 287.5q0 215 85 394t234 296
q-149 98 -344 98q-145 0 -276 -59t-228.5 -161.5t-155 -250.5t-57.5 -317q0 -268 166 -436.5t428 -168.5zM1618 809q0 145 -53 265.5t-148 201.5q-142 -106 -224.5 -275t-82.5 -376q0 -148 52.5 -268.5t148.5 -200.5q142 106 224.5 276t82.5 377z" />
    <glyph glyph-name="P_H" horiz-adv-x="2473" 
d="M1208 0l125 715q-69 -86 -173 -134.5t-228 -48.5h-551l-94 -532h-62l252 1434h496q225 0 349 -109.5t124 -290.5q0 -37 -41 -276h919l119 676h62l-252 -1434h-62l123 696h-921l-123 -696h-62zM391 594h541q206 0 328 120t122 320q0 151 -107.5 244.5t-301.5 93.5h-445z
" />
    <glyph glyph-name="R_J" horiz-adv-x="2105" 
d="M909 573h-522l-100 -573h-62l252 1434h547q196 0 313 -107t117 -272q0 -209 -128.5 -341t-342.5 -136l78 -179q87 -199 198.5 -289t253.5 -90q160 0 263.5 97.5t136.5 288.5l182 1028h62l-185 -1033q-39 -219 -156 -330.5t-300 -111.5t-307.5 108t-221.5 330zM1004 1372
h-476l-129 -737h564q199 0 314.5 113.5t115.5 306.5q0 141 -104 229t-285 88z" />
    <glyph glyph-name="S_A" horiz-adv-x="2531" 
d="M643 20q191 0 313.5 95t122.5 254q0 63 -26 116.5t-69 90t-97.5 72.5t-111.5 65t-111.5 66t-97.5 76.5t-69 96.5t-26 125q0 74 33.5 145t94 127.5t153 91t200.5 34.5q92 0 170 -19t128 -50t89.5 -68.5t60 -74.5t34 -68t16.5 -50l4 -19h-57q-1 6 -4 16.5t-16.5 40t-32 57
t-54.5 60.5t-80.5 56.5t-113.5 40t-150 16.5q-187 0 -300.5 -99.5t-113.5 -230.5q0 -55 21 -101.5t56.5 -81.5t81 -66t96.5 -59t101.5 -56t96 -62.5t81 -73t56.5 -92t21 -116.5q0 -82 -35.5 -156.5t-99.5 -132.5t-161.5 -92.5t-213.5 -34.5q-78 0 -146.5 13.5t-118.5 36
t-91.5 51.5t-69.5 61.5t-49.5 64.5t-33.5 61t-19.5 51.5t-10.5 35.5l-2 14h62q1 -7 4.5 -18.5t18.5 -46t35.5 -65.5t59.5 -68.5t87.5 -65t122.5 -46t161 -18.5zM2417 0l-47 532h-809l-236 -532h-63l630 1434h461l127 -1434h-63zM2296 1372h-367l-344 -778h780z" />
    <glyph glyph-name="T_A" horiz-adv-x="1499" 
d="M737 1372h-532l10 62h1106l127 -1434h-64l-47 532h-686l-94 -532h-61zM1264 1372h-465l-137 -778h671z" />
    <glyph glyph-name="T_E" horiz-adv-x="1394" 
d="M567 61h676l-10 -61h-737l241 1372h-532l10 62h1126l-10 -62h-532l-70 -389h676l-10 -61h-676l-70 -400h522l-10 -61h-522z" />
    <glyph glyph-name="T_H_E" horiz-adv-x="2498" 
d="M737 1372h-532l10 62h1126l-10 -62h-532l-109 -614h922l119 676h921l-10 -62h-860l-109 -614h707l-10 -62h-707l-113 -635h860l-10 -61h-921l123 696h-922l-123 -696h-61z" />
    <glyph glyph-name="T_T" horiz-adv-x="1671" 
d="M737 1372h-532l10 62h1126l-10 -62h-532l-242 -1372h-61zM1303 922h-369l10 61h799l-10 -61h-369l-162 -922h-61z" />
    <glyph glyph-name="U_U" horiz-adv-x="1556" 
d="M844 -41q-107 0 -196 23.5t-152 65.5t-110 100t-69 126.5t-28.5 146t10.5 157.5l152 856h61l-152 -861q-15 -77 -9 -148t27 -132.5t63.5 -112t100.5 -86t137 -55t173 -19.5q216 0 357.5 122.5t179.5 338.5l167 953h62l-168 -959q-41 -237 -205 -376.5t-401 -139.5z
M858 215q-72 0 -129.5 21.5t-92.5 58.5t-57 87t-24.5 106t6.5 116l90 502h62l-90 -506q-27 -148 35.5 -236t207.5 -88q111 0 185 70.5t98 206.5l96 553h62l-99 -559q-27 -157 -122 -244.5t-228 -87.5z" />
    <glyph glyph-name="W_E" horiz-adv-x="2549" 
d="M1331 61h109l545 1373h718l-10 -62h-670l-245 -614h653l-10 -62h-666l-254 -635h961l-11 -61h-1179l-62 1372h-75l-545 -1372h-207l-66 1434h64l61 -1373h109l545 1373h174z" />
    <glyph glyph-name="afii10024.alt" horiz-adv-x="2007" 
d="M315 215l43 246q12 64 36 114t48 76.5t53.5 45t43.5 23.5t26 7q-5 1 -12 3.5t-19.5 10t-23.5 19t-22 32.5t-17 47.5t-6 66.5t8 87l41 226q15 84 -16.5 123.5t-108.5 39.5h-61l10 62h61q101 0 148.5 -59.5t27.5 -165.5l-40 -226q-23 -129 17 -182t157 -53h399l119 676h61
l-119 -676h400q116 0 174.5 52.5t81.5 182.5l41 226q19 107 86.5 166t167.5 59h61l-10 -62h-62q-77 0 -122 -39.5t-60 -123.5l-41 -226q-12 -64 -34 -114t-44 -76.5t-47.5 -45t-39 -23.5t-23.5 -7l8 -2t15 -5t20 -9.5t22 -16.5t22 -24.5t17.5 -34t12.5 -45t4 -58t-7 -71.5
l-43 -246q-29 -164 125 -164h62l-10 -61h-62q-101 0 -148.5 59.5t-27.5 165.5l45 246q22 123 -24.5 179t-169.5 56h-400l-123 -696h-61l123 696h-400q-123 0 -189.5 -56t-88.5 -179l-43 -246q-19 -107 -86.5 -166t-167.5 -59h-62l11 61h61q153 0 182 164z" />
    <glyph glyph-name="afii10076.alt" horiz-adv-x="1089" 
d="M840 174l26 154q27 153 -127 153h-20h-379l-84 -481h-61l176 1004h61l-80 -461h379q153 0 180 153l23 133q13 84 72.5 134.5t144.5 50.5h31l-11 -62h-30q-125 0 -146 -123l-22 -133q-8 -43 -24.5 -77.5t-34.5 -52.5t-35 -29.5t-28 -14.5l-11 -4q2 -1 6 -2t16.5 -7
t21.5 -14.5t21.5 -23t17.5 -34t9 -47.5t-4 -62l-27 -154q-21 -123 100 -123h31l-10 -61h-31q-85 0 -125.5 49.5t-25.5 134.5z" />
    <glyph glyph-name="afii10028.alt" horiz-adv-x="1390" 
d="M1198 461l-45 -246q-29 -164 125 -164h61l-10 -61h-61q-101 0 -148.5 59.5t-27.5 165.5l45 246q22 123 -25 179t-170 56h-532l-123 -696h-62l252 1434h62l-119 -676h532q117 0 176 53t82 182l39 226q19 107 86.5 166t167.5 59h62l-11 -62h-61q-77 0 -122 -39.5
t-60 -123.5l-39 -226q-9 -50 -24 -92t-32.5 -68.5t-36.5 -47t-36.5 -31.5t-31 -17.5t-21.5 -8.5l-9 -1q2 0 5.5 -1t14 -4.5t20.5 -9t23 -16t23.5 -23.5t20 -34t14 -45.5t4 -59t-7.5 -73.5z" />
    <glyph glyph-name="afii10077.alt" horiz-adv-x="1189" 
d="M504 942l-105 -584q-34 -200 -112 -284t-207 -84q-23 0 -43 4t-29 8l-8 4l10 62q29 -17 80 -17q98 0 158.5 69t89.5 238l115 646h716l-178 -1004h-61l168 942h-594z" />
    <glyph glyph-name="afii10029.alt" horiz-adv-x="1488" 
d="M639 1372l-154 -868q-35 -196 -91 -313.5t-126 -164t-166 -46.5q-35 0 -70.5 7t-54 14t-18.5 9l10 64q59 -33 135 -33q57 0 103 23t87.5 76t74.5 146t57 226l164 922h919l-252 -1434h-61l242 1372h-799z" />
    <glyph glyph-name="gcommaaccent.alt" horiz-adv-x="1087" 
d="M743 1329q28 0 44 -15t16 -38q0 -29 -20.5 -48.5t-51.5 -19.5q-32 0 -52 23.5t-20 73.5q0 98 53.5 156.5t125.5 58.5l-9 -41q-45 -2 -79.5 -34t-34.5 -93l4 -29q8 6 24 6zM236 643q0 158 124 269.5t310 111.5q42 0 79.5 -5t54.5 -10l17 -5h410l-12 -62h-283
q6 -3 15.5 -9.5t34 -29t43.5 -49.5t34.5 -71t15.5 -93q0 -159 -123 -271t-309 -112q-68 0 -130 15t-90 30l-28 15l-32 -203q36 6 106 6q136 0 240.5 -26t165 -69t90.5 -94t30 -106q0 -117 -113.5 -201t-324.5 -84q-134 0 -237.5 26t-163 69.5t-89.5 94t-30 105.5
q0 149 162 229q36 18 98 36l45 258q-4 3 -11.5 9.5t-26.5 28.5t-33.5 47t-26.5 65.5t-12 84.5zM565 -348q92 0 166 20t117 52t65.5 69.5t22.5 75.5q0 41 -26 81.5t-78 77t-145 59t-212 22.5q-92 0 -166 -20t-117 -52.5t-65.5 -70t-22.5 -75.5q0 -41 26 -81.5t78 -76.5
t145 -58.5t212 -22.5zM651 369q162 0 264.5 91t102.5 226q0 118 -94 197.5t-258 79.5q-162 0 -265.5 -91.5t-103.5 -226.5q0 -117 95 -196.5t259 -79.5z" />
    <glyph glyph-name="gbreve.alt" horiz-adv-x="1087" 
d="M236 643q0 158 124 269.5t310 111.5q42 0 79.5 -5t54.5 -10l17 -5h410l-12 -62h-283q6 -3 15.5 -9.5t34 -29t43.5 -49.5t34.5 -71t15.5 -93q0 -159 -123 -271t-309 -112q-68 0 -130 15t-90 30l-28 15l-32 -203q36 6 106 6q136 0 240.5 -26t165 -69t90.5 -94t30 -106
q0 -117 -113.5 -201t-324.5 -84q-134 0 -237.5 26t-163 69.5t-89.5 94t-30 105.5q0 149 162 229q36 18 98 36l45 258q-4 3 -11.5 9.5t-26.5 28.5t-33.5 47t-26.5 65.5t-12 84.5zM565 -348q92 0 166 20t117 52t65.5 69.5t22.5 75.5q0 41 -26 81.5t-78 77t-145 59t-212 22.5
q-92 0 -166 -20t-117 -52.5t-65.5 -70t-22.5 -75.5q0 -41 26 -81.5t78 -76.5t145 -58.5t212 -22.5zM651 369q162 0 264.5 91t102.5 226q0 118 -94 197.5t-258 79.5q-162 0 -265.5 -91.5t-103.5 -226.5q0 -117 95 -196.5t259 -79.5zM752 1229q-102 0 -176 56t-74 161v8h63
v-12q0 -66 50.5 -109t140.5 -43q82 0 136 45t62 119h62q-10 -99 -85.5 -162t-178.5 -63z" />
    <glyph glyph-name="Iogonek.alt" horiz-adv-x="948" 
d="M684 -440q-78 0 -131 46t-53 118q0 49 22.5 94.5t60.5 80t73 58t75 43.5h-618l10 61h328l231 1311h-328l11 62h716l-10 -62h-328l-231 -1311h328l-11 -61q-268 -129 -268 -272q0 -46 35.5 -76.5t97.5 -30.5q26 0 53 6t41 11l13 6l-10 -62q-46 -22 -107 -22z" />
    <glyph glyph-name="Aacute.alt2" horiz-adv-x="1361" 
d="M973 1690h61l-45 -256h195l127 -1434h-64l-47 532h-809l-235 -532h-64l631 1434h205zM1126 1372h-366l-344 -778h780z" />
    </font>
</defs>
</svg>
