<?xml version="1.0" standalone="no"?>
<!DOCTYPE svg PUBLIC "-//W3C//DTD SVG 1.1//EN" "http://www.w3.org/Graphics/SVG/1.1/DTD/svg11.dtd" >
<svg xmlns="http://www.w3.org/2000/svg" xmlns:xlink="http://www.w3.org/1999/xlink" version="1.1">
<metadata>
Created by FontForge 20170731 at Mon Aug  3 21:24:34 2020
 By Aleksey,,,
Copyright (c) 2018 by Typetype. Designer Ivan Gladkikh, technical designers Philipp Nurullin, Vika Usmanova, Nadyr Rakhimov, Marina Khodak. All rights reserved.
</metadata>
<defs>
<font id="TTFirsNeue-Thin" horiz-adv-x="1269" >
  <font-face 
    font-family="TT Firs Neue Thin"
    font-weight="250"
    font-stretch="normal"
    units-per-em="2048"
    panose-1="2 0 5 3 2 0 0 2 0 4"
    ascent="1638"
    descent="-410"
    x-height="1004"
    cap-height="1434"
    bbox="-881 -522 2945 2109"
    underline-thickness="102"
    underline-position="-409"
    unicode-range="U+000D-FB02"
  />
<missing-glyph horiz-adv-x="0" 
 />
    <glyph glyph-name="ff" unicode="ff" horiz-adv-x="1198" 
d="M61 942v62h154v430h420v-62h-359v-368h553v430h420v-62h-358v-368h297v-62h-297v-942h-62v942h-553v-942h-61v942h-154z" />
    <glyph glyph-name="fi" unicode="fi" horiz-adv-x="1085" 
d="M61 942v62h154v430h645v-62h-584v-368h615v-1004h-62v942h-553v-942h-61v942h-154z" />
    <glyph glyph-name="fl" unicode="fl" horiz-adv-x="1157" 
d="M61 942v62h154v430h676v-1373h235v-61h-297v1372h-553v-368h297v-62h-297v-942h-61v942h-154z" />
    <glyph glyph-name="f_j" unicode="fj" horiz-adv-x="1085" 
d="M61 942v62h154v430h645v-62h-584v-368h615v-1393h-359v61h297v1270h-553v-942h-61v942h-154z" />
    <glyph glyph-name="f_t" unicode="ft" horiz-adv-x="1310" 
d="M61 942v62h154v430h676v-430h348v-62h-348v-881h358v-61h-420v942h-553v-942h-61v942h-154zM276 1004h553v368h-553v-368z" />
    <glyph glyph-name=".notdef" horiz-adv-x="0" 
 />
    <glyph glyph-name=".null" horiz-adv-x="0" 
 />
    <glyph glyph-name=".null" horiz-adv-x="0" 
 />
    <glyph glyph-name="nonmarkingreturn" horiz-adv-x="682" 
 />
    <glyph glyph-name="CR" unicode="&#xd;" horiz-adv-x="0" 
 />
    <glyph glyph-name="space" unicode=" " horiz-adv-x="573" 
 />
    <glyph glyph-name="exclam" unicode="!" horiz-adv-x="573" 
d="M256 666v768h61v-768l-10 -277h-41zM225 41q0 26 18 43.5t44 17.5t43.5 -17.5t17.5 -43.5t-17.5 -43.5t-43.5 -17.5t-44 17.5t-18 43.5z" />
    <glyph glyph-name="quotedbl" unicode="&#x22;" horiz-adv-x="624" 
d="M143 1178v256h62v-256l-10 -246h-41zM420 1178v256h61v-256l-10 -246h-41z" />
    <glyph glyph-name="numbersign" unicode="#" horiz-adv-x="1331" 
d="M72 440v62h266l123 430h-266v61h282l127 441h62l-127 -441h409l127 441h62l-127 -441h250v-61h-267l-123 -430h267v-62h-285l-125 -440h-61l125 440h-410l-125 -440h-61l124 440h-247zM399 502h410l123 430h-410z" />
    <glyph glyph-name="dollar" unicode="$" horiz-adv-x="1310" 
d="M123 348h61q2 -7 6 -18.5t21.5 -46t40 -65.5t63.5 -68.5t89 -65t119.5 -46t152.5 -18.5q213 0 331.5 95t118.5 233q0 64 -26.5 115t-71.5 85.5t-105.5 64.5t-128 50.5t-139.5 44t-139.5 45.5t-128 55.5t-105.5 72t-71.5 96.5t-26.5 129q0 70 29.5 134t84 115.5t142 83.5
t195.5 36v184h70v-184q82 -6 152 -29t117 -54t85 -67.5t59.5 -71t35.5 -63.5t19 -46l5 -18h-62q-2 6 -5 16.5t-18.5 40t-35.5 57t-57.5 60.5t-83 56.5t-114 40t-147.5 16.5q-191 0 -300 -88.5t-109 -218.5q0 -69 32 -122.5t86.5 -89t125.5 -64t149 -52.5t156 -48.5
t149 -57.5t125.5 -75t86.5 -105.5t32 -143.5q0 -158 -132.5 -270t-350.5 -119v-184h-70v184q-88 6 -163.5 31t-126.5 59.5t-92 75.5t-64.5 80t-39 71t-21.5 52z" />
    <glyph glyph-name="percent" unicode="%" horiz-adv-x="1536" 
d="M82 1126q0 138 95 233t233 95t232.5 -95t94.5 -233t-94.5 -232.5t-232.5 -94.5t-233 94.5t-95 232.5zM299 0l870 1434h68l-870 -1434h-68zM143 1126q0 -115 75.5 -190.5t191.5 -75.5t191 75t75 191t-75.5 191.5t-190.5 75.5q-116 0 -191.5 -75.5t-75.5 -191.5zM799 307
q0 138 94.5 233t232.5 95t233 -95t95 -233t-95 -232.5t-233 -94.5t-232.5 94.5t-94.5 232.5zM860 307q0 -115 75 -190.5t191 -75.5t191.5 75.5t75.5 190.5t-75.5 190.5t-191.5 75.5t-191 -75.5t-75 -190.5z" />
    <glyph glyph-name="ampersand" unicode="&#x26;" horiz-adv-x="1423" 
d="M72 461q0 141 64.5 256.5t174.5 180.5t242 65q133 0 225 -62h2l-16 21l-297 450v62h762v-62h-690v-2l905 -1370h-72l-336 512l-12 20q10 -30 10 -81q0 -206 -140.5 -349t-340.5 -143q-132 0 -242 65t-174.5 180.5t-64.5 256.5zM133 461q0 -191 121 -316t299 -125t299 125
t121 316q0 190 -121 315t-299 125t-299 -125t-121 -315z" />
    <glyph glyph-name="quotesingle" unicode="'" horiz-adv-x="348" 
d="M143 1178v256h62v-256l-10 -246h-41z" />
    <glyph glyph-name="parenleft" unicode="(" horiz-adv-x="727" 
d="M205 594q0 128 26 249t67.5 213.5t91.5 174t100.5 138t92 97.5t67.5 60l26 20l31 -51q-9 -6 -25 -18.5t-62 -56t-87.5 -93t-92.5 -129.5t-87.5 -165.5t-61.5 -201.5t-25 -237q0 -95 15 -187t40.5 -166.5t58.5 -144t70 -123t73.5 -100t69.5 -79t58.5 -56t40.5 -34.5
l15 -11l-31 -51q-10 7 -27 20t-66 59.5t-93.5 98.5t-98.5 137t-93 175t-66 212t-27 250z" />
    <glyph glyph-name="parenright" unicode=")" horiz-adv-x="706" 
d="M20 -287q9 7 24 19.5t58.5 57t83.5 94t88.5 129t83 164t58.5 197.5t24 230t-23 229.5t-60 198.5t-82 163t-90 130.5t-82 92.5t-60 58l-23 19l31 51q9 -7 25.5 -20.5t63.5 -60.5t89.5 -99.5t94.5 -137t89.5 -173.5t63 -208.5t25.5 -242.5t-25 -241.5t-64.5 -209.5
t-87.5 -172.5t-96.5 -138.5t-88 -98.5t-64.5 -61.5l-25 -20z" />
    <glyph glyph-name="asterisk" unicode="*" horiz-adv-x="716" 
d="M72 1116v62h256v256h61v-256h256v-62h-235l153 -235l-51 -31l-154 235l-153 -235l-51 31l153 235h-235z" />
    <glyph glyph-name="plus" unicode="+" horiz-adv-x="983" 
d="M102 604v62h359v378h61v-378h359v-62h-359v-379h-61v379h-359z" />
    <glyph glyph-name="comma" unicode="," horiz-adv-x="358" 
d="M102 41q0 27 19 44t49 17q39 0 67.5 -37.5t28.5 -115.5q0 -83 -40.5 -131.5t-102.5 -53.5v41q41 5 66.5 36t25.5 87q0 18 -3.5 33.5t-7.5 22.5l-3 6q-17 -10 -37 -10q-26 0 -44 17.5t-18 43.5z" />
    <glyph glyph-name="hyphen" unicode="-" horiz-adv-x="962" 
d="M123 553v61h717v-61h-717z" />
    <glyph glyph-name="period" unicode="." horiz-adv-x="327" 
d="M102 41q0 26 18 43.5t44 17.5t43.5 -17.5t17.5 -43.5t-17.5 -43.5t-43.5 -17.5t-44 17.5t-18 43.5z" />
    <glyph glyph-name="slash" unicode="/" horiz-adv-x="675" 
d="M20 0l574 1434h61l-573 -1434h-62z" />
    <glyph glyph-name="zero" unicode="0" horiz-adv-x="1515" 
d="M143 717q0 172 50 316.5t134.5 240t196 148.5t234.5 53t234 -53t195.5 -148.5t134.5 -240t50 -316.5t-50 -316.5t-134.5 -240t-195.5 -148.5t-234 -53t-234.5 53t-196 148.5t-134.5 240t-50 316.5zM205 717q0 -161 44.5 -294t120.5 -220t176 -135t212 -48t212 48t176 135
t120.5 220t44.5 294t-44.5 294t-120.5 220t-176 134.5t-212 47.5t-212 -47.5t-176 -134.5t-120.5 -220t-44.5 -294z" />
    <glyph glyph-name="one" unicode="1" horiz-adv-x="614" 
d="M61 1147v72l267 215h61v-1434h-61v1362z" />
    <glyph glyph-name="two" unicode="2" horiz-adv-x="1167" 
d="M72 0v61l420 334q76 61 128 105.5t113 101t99.5 105.5t73 105t51 114t16.5 118q0 163 -109 266t-291 103q-75 0 -138.5 -19.5t-104.5 -51.5t-73 -70t-48.5 -76t-27.5 -70t-14 -52l-3 -19h-62q1 9 3.5 24t15 58.5t31 83.5t55.5 88.5t84 83t120.5 58.5t161.5 24
q205 0 333 -122t128 -309q0 -80 -29 -159.5t-71.5 -143.5t-114.5 -138t-134 -127t-155 -126l-346 -272l-20 -17v-2l20 2h860v-61h-972z" />
    <glyph glyph-name="three" unicode="3" horiz-adv-x="1187" 
d="M51 348h62q2 -7 5 -18.5t18.5 -46t36 -65.5t59 -68.5t84.5 -65t116.5 -46t151.5 -18.5q189 0 304.5 107.5t115.5 271.5t-115.5 271.5t-304.5 107.5h-205v62l553 530v2h-809v62h891v-62l-531 -512l-22 -18v-2h123q212 0 346.5 -126.5t134.5 -314.5q0 -187 -134.5 -313.5
t-346.5 -126.5q-72 0 -136.5 13.5t-112.5 36t-89.5 51.5t-69.5 61.5t-51 64.5t-36.5 61t-22 51.5t-12.5 35.5z" />
    <glyph glyph-name="four" unicode="4" horiz-adv-x="1198" 
d="M92 348v62l522 1024h72l-522 -1024h717v430h10h51v-430h225v-62h-225v-348h-61v348h-789z" />
    <glyph glyph-name="five" unicode="5" horiz-adv-x="1259" 
d="M154 348h61q2 -7 5.5 -18.5t19 -46t35.5 -65.5t56.5 -68.5t79.5 -65t107 -46t137 -18.5q194 0 317.5 123t123.5 297t-123.5 297t-317.5 123q-74 0 -139.5 -19t-105.5 -46t-69.5 -54t-41.5 -46l-12 -19h-72l61 758h809v-62h-753l-51 -608h2q5 6 15 17t45 38t75 48t104 38
t133 17q109 0 203.5 -39.5t159.5 -105.5t102 -154t37 -183t-37 -183t-102 -153.5t-159.5 -105t-203.5 -39.5q-84 0 -156.5 21.5t-122.5 56t-90 76t-64 82.5t-40 75.5t-22 55.5z" />
    <glyph glyph-name="six" unicode="6" horiz-adv-x="1228" 
d="M102 451q0 92 30.5 173t64.5 129t120 155q18 22 27 34l393 492h72l-410 -512l-16 -21h2q10 7 28 17.5t77.5 27.5t123.5 17q141 0 259 -67.5t185.5 -183t67.5 -251.5t-67.5 -251.5t-185.5 -183t-259 -67.5q-140 0 -258.5 67t-186 180.5t-67.5 244.5zM164 461
q0 -185 129.5 -313t320.5 -128t321 128t130 313t-130 312.5t-321 127.5t-320.5 -127.5t-129.5 -312.5z" />
    <glyph glyph-name="seven" unicode="7" horiz-adv-x="962" 
d="M20 1372v62h902v-62l-615 -1372h-69l614 1370v2h-832z" />
    <glyph glyph-name="eight" unicode="8" horiz-adv-x="1331" 
d="M123 379q0 63 19 118.5t46 93.5t66.5 70.5t70.5 50.5t69 33t50 18.5t25 6.5v2q-10 2 -35 10.5t-70 33.5t-83.5 60t-67.5 96t-29 134q0 154 130.5 261.5t351.5 107.5t351 -107.5t130 -261.5q0 -73 -29 -134t-67.5 -96t-84 -60t-71 -34t-35.5 -10v-2q13 -3 25 -6.5
t50 -18.5t69 -33t71 -50.5t67.5 -70.5t46.5 -93.5t19 -118.5q0 -85 -36.5 -160.5t-103.5 -133.5t-171 -92t-231 -34t-231 34t-171.5 92t-104 133.5t-36.5 160.5zM184 379q0 -154 127 -256.5t355 -102.5t354.5 102.5t126.5 256.5q0 150 -126.5 254t-354.5 104
q-115 0 -208.5 -29.5t-152 -79.5t-90 -114t-31.5 -135zM246 1106q0 -130 111 -218.5t309 -88.5q197 0 308 89.5t111 217.5q0 130 -110.5 218.5t-308.5 88.5t-309 -88.5t-111 -218.5z" />
    <glyph glyph-name="nine" unicode="9" horiz-adv-x="1228" 
d="M102 973q0 136 67.5 251.5t185.5 183t259 67.5q140 0 258.5 -67t186 -180.5t67.5 -244.5q0 -57 -11 -108t-24.5 -87.5t-47.5 -88t-57 -81t-76 -95.5q-16 -20 -25 -31l-393 -492h-72l409 512l17 20h-2q-10 -7 -28.5 -17t-78 -27t-123.5 -17q-141 0 -259 67.5t-185.5 183
t-67.5 251.5zM164 973q0 -185 129.5 -313t320.5 -128t321 128t130 313t-130 312.5t-321 127.5t-320.5 -127.5t-129.5 -312.5z" />
    <glyph glyph-name="colon" unicode=":" horiz-adv-x="327" 
d="M102 41q0 26 18 43.5t44 17.5t43.5 -17.5t17.5 -43.5t-17.5 -43.5t-43.5 -17.5t-44 17.5t-18 43.5zM102 963q0 26 18 43.5t44 17.5t43.5 -17.5t17.5 -43.5t-17.5 -44t-43.5 -18t-44 18t-18 44z" />
    <glyph glyph-name="semicolon" unicode=";" horiz-adv-x="358" 
d="M102 41q0 27 19 44t49 17q39 0 67.5 -37.5t28.5 -115.5q0 -83 -40.5 -131.5t-102.5 -53.5v41q41 5 66.5 36t25.5 87q0 18 -3.5 33.5t-7.5 22.5l-3 6q-17 -10 -37 -10q-26 0 -44 17.5t-18 43.5zM123 963q0 26 17.5 43.5t43.5 17.5t44 -17.5t18 -43.5t-18 -44t-44 -18
t-43.5 18t-17.5 44z" />
    <glyph glyph-name="less" unicode="&#x3c;" horiz-adv-x="983" 
d="M102 461v82l758 420v-68l-696 -383v-20l696 -383v-68z" />
    <glyph glyph-name="equal" unicode="=" horiz-adv-x="983" 
d="M123 696v62h737v-62h-737zM123 328v61h737v-61h-737z" />
    <glyph glyph-name="greater" unicode="&#x3e;" horiz-adv-x="983" 
d="M123 41v68l696 383v20l-696 383v68l758 -420v-82z" />
    <glyph glyph-name="question" unicode="?" horiz-adv-x="1064" 
d="M51 1085l5.5 22t20.5 54.5t38.5 77.5t62 82t88.5 77.5t120.5 54.5t156.5 22q188 0 309 -111t121 -268q0 -81 -25 -143.5t-64.5 -102t-87.5 -74t-96.5 -68.5t-88 -73.5t-64.5 -102t-25 -143.5h-61q0 87 25 155.5t64.5 112.5t87.5 80.5t96 70t87.5 70.5t64.5 92.5t25 125.5
q0 134 -101.5 225.5t-266.5 91.5q-73 0 -136 -18t-106 -47t-77.5 -64t-54.5 -70t-33 -64t-18 -47l-5 -18h-62zM430 41q0 26 18 43.5t44 17.5t43.5 -17.5t17.5 -43.5t-17.5 -43.5t-43.5 -17.5t-44 17.5t-18 43.5z" />
    <glyph glyph-name="at" unicode="@" horiz-adv-x="1679" 
d="M123 655q0 159 58 299.5t157.5 241t238 159t293.5 58.5q153 0 287 -50t225 -133t143 -193t52 -228q0 -217 -125 -339t-354 -122h-2v111h-2q-3 -5 -8.5 -14t-27 -31.5t-47 -40t-69 -31.5t-92.5 -14q-125 0 -216 95.5t-91 231.5q0 137 91.5 232.5t215.5 95.5q49 0 92 -14
t69.5 -34.5t46 -40.5t28.5 -34l8 -14h2v117h61v-549q156 0 257.5 108t101.5 287q0 107 -47 205.5t-129.5 173.5t-205 119.5t-264.5 44.5q-192 0 -349 -90.5t-247 -250.5t-90 -356t90 -356t247 -250t349 -90q69 0 136.5 11.5t114.5 27.5t84.5 32.5t56.5 27.5l18 12v-68
q-7 -4 -19.5 -11t-54 -25t-86 -32t-113 -25t-137.5 -11q-207 0 -378.5 99t-270 272.5t-98.5 385.5zM604 655q0 -114 72.5 -190t173.5 -76t173.5 76t72.5 190t-72.5 190.5t-173.5 76.5t-173.5 -76.5t-72.5 -190.5z" />
    <glyph glyph-name="A" unicode="A" horiz-adv-x="1361" 
d="M72 0l379 1434h460l379 -1434h-63l-142 532h-809l-141 -532h-63zM291 594h780l-207 778h-366z" />
    <glyph glyph-name="B" unicode="B" horiz-adv-x="1454" 
d="M1034 754v-2q119 -35 198 -135t79 -228q0 -165 -122.5 -277t-318.5 -112h-645v1434h645q167 0 273 -102t106 -257q0 -118 -59 -201t-156 -120zM287 778h583q145 0 231.5 82.5t86.5 214.5t-86.5 214.5t-231.5 82.5h-583v-594zM287 61h583q173 0 276 93t103 235t-103 235
t-276 93h-583v-656z" />
    <glyph glyph-name="C" unicode="C" horiz-adv-x="1638" 
d="M123 717q0 162 56 303.5t151 241t225 156.5t274 57q111 0 208.5 -27.5t165.5 -72t124 -98t90 -107t57.5 -98t32.5 -72.5l9 -27h-62q-3 9 -8.5 25t-29.5 61.5t-53 87t-81.5 92.5t-113.5 87.5t-150 61.5t-189 25q-133 0 -251.5 -51.5t-205.5 -142t-137.5 -221t-50.5 -281.5
t50.5 -281.5t137.5 -221t205.5 -142.5t251.5 -52q102 0 192.5 26t153 67.5t114.5 92t83.5 101t53 92t30.5 67.5l8 26h62q-3 -11 -9.5 -30.5t-32 -74.5t-58.5 -105.5t-91 -112t-126 -105.5t-167.5 -74.5t-212.5 -30.5q-144 0 -274 57t-225 156.5t-151 241t-56 303.5z" />
    <glyph glyph-name="D" unicode="D" horiz-adv-x="1484" 
d="M225 0v1434h420q155 0 288.5 -53.5t227.5 -147.5t147.5 -227.5t53.5 -288.5t-53.5 -288.5t-147.5 -227.5t-227.5 -147.5t-288.5 -53.5h-420zM287 61h358q192 0 341.5 82.5t231.5 232t82 341.5q0 292 -181.5 473.5t-473.5 181.5h-358v-1311z" />
    <glyph glyph-name="E" unicode="E" horiz-adv-x="1249" 
d="M225 0v1434h922v-62h-860v-614h706v-62h-706v-635h860v-61h-922z" />
    <glyph glyph-name="F" unicode="F" horiz-adv-x="1198" 
d="M225 0v1434h901v-62h-839v-655h686v-62h-686v-655h-62z" />
    <glyph glyph-name="G" unicode="G" horiz-adv-x="1761" 
d="M123 717q0 162 56 303.5t151 241t225 156.5t274 57q85 0 163.5 -16.5t138 -44.5t112.5 -64t91.5 -76t70 -80t52 -76t34 -64t19.5 -44l6 -17h-62q-3 9 -9 24t-30.5 58.5t-54.5 83.5t-83 88.5t-113.5 83t-148.5 58.5t-186 24q-133 0 -251.5 -51.5t-205.5 -142t-137.5 -221
t-50.5 -281.5q0 -201 87 -361t236.5 -248t332.5 -88q129 0 244.5 48t201 133.5t139 208.5t60.5 266h-307v61h563v-61h-195q-10 -206 -106.5 -370.5t-254 -255.5t-345.5 -91q-148 0 -280 57t-228.5 156.5t-152.5 241t-56 303.5z" />
    <glyph glyph-name="H" unicode="H" horiz-adv-x="1495" 
d="M225 0v1434h62v-676h921v676h62v-1434h-62v696h-921v-696h-62z" />
    <glyph glyph-name="I" unicode="I" horiz-adv-x="512" 
d="M225 0v1434h62v-1434h-62z" />
    <glyph glyph-name="J" unicode="J" horiz-adv-x="1136" 
d="M10 317l62 11q1 -6 4 -17.5t16.5 -43.5t31 -61t50.5 -64.5t73.5 -61t101.5 -43t132 -17.5q186 0 293 111t107 309v994h61v-994q0 -229 -122 -355t-339 -126q-81 0 -151 19.5t-117 51.5t-84.5 70t-59 76t-35.5 70t-19 52z" />
    <glyph glyph-name="K" unicode="K" horiz-adv-x="1280" 
d="M225 0v1434h62v-676h377l489 676h76l-512 -707l532 -727h-78l-509 696h-375v-696h-62z" />
    <glyph glyph-name="L" unicode="L" horiz-adv-x="1126" 
d="M225 0v1434h62v-1373h798v-61h-860z" />
    <glyph glyph-name="M" unicode="M" horiz-adv-x="1894" 
d="M225 0v1434h103l530 -983h178l531 983h102v-1434h-61v1362l2 16h-2l-533 -989h-256l-532 989h-2l2 -16v-1362h-62z" />
    <glyph glyph-name="N" unicode="N" horiz-adv-x="1515" 
d="M225 0v1434h103l901 -1377h2l-2 15v1362h61v-1434h-102l-901 1376h-2l2 -14v-1362h-62z" />
    <glyph glyph-name="O" unicode="O" horiz-adv-x="1679" 
d="M123 717q0 162 56 303.5t152.5 241t228.5 156.5t280 57q198 0 361.5 -97t259 -271t95.5 -390t-95.5 -390t-259 -271t-361.5 -97q-148 0 -280 57t-228.5 156.5t-152.5 241t-56 303.5zM184 717q0 -201 87 -361t236.5 -248t332.5 -88t332.5 88t236 248t86.5 361
q0 151 -50.5 281.5t-138 221t-208.5 142t-258 51.5t-258 -51.5t-208.5 -142t-138.5 -221t-51 -281.5z" />
    <glyph glyph-name="P" unicode="P" horiz-adv-x="1372" 
d="M225 0v1434h553q227 0 359.5 -124.5t132.5 -326.5t-132.5 -326.5t-359.5 -124.5h-491v-532h-62zM287 594h491q204 0 317 104.5t113 284.5t-113 284.5t-317 104.5h-491v-778z" />
    <glyph glyph-name="Q" unicode="Q" horiz-adv-x="1679" 
d="M123 717q0 162 56 303.5t152.5 241t228.5 156.5t280 57q198 0 361.5 -97t259 -271t95.5 -390q0 -211 -91 -382t-247.5 -269t-347.5 -105v-371h-61v371q-191 7 -347.5 105t-247.5 269t-91 382zM184 717q0 -201 87 -361t236.5 -248t332.5 -88t332.5 88t236 248t86.5 361
q0 151 -50.5 281.5t-138 221t-208.5 142t-258 51.5t-258 -51.5t-208.5 -142t-138.5 -221t-51 -281.5z" />
    <glyph glyph-name="R" unicode="R" horiz-adv-x="1392" 
d="M225 0v1434h563q227 0 354.5 -117.5t127.5 -312.5q0 -172 -100.5 -285t-288.5 -139l368 -580h-71l-369 573h-522v-573h-62zM287 635h501q203 0 311.5 98.5t108.5 270.5t-108 270t-312 98h-501v-737z" />
    <glyph glyph-name="S" unicode="S" horiz-adv-x="1310" 
d="M123 348h61q2 -7 6 -18.5t21.5 -46t40 -65.5t63.5 -68.5t89 -65t119.5 -46t152.5 -18.5q213 0 331.5 95t118.5 233q0 64 -26.5 115t-71.5 85.5t-105.5 64.5t-128 50.5t-139.5 44t-139.5 45.5t-128 55.5t-105.5 72t-71.5 96.5t-26.5 129q0 73 32.5 139.5t91 118t149 81.5
t198.5 30q90 0 167.5 -19t129 -50t93.5 -68.5t66 -74.5t40 -68t21 -50l6 -19h-62q-2 6 -5 16.5t-18.5 40t-35.5 57t-57.5 60.5t-83 56.5t-114 40t-147.5 16.5q-191 0 -300 -88.5t-109 -218.5q0 -69 32 -122.5t86.5 -89t125.5 -64t149 -52.5t156 -48.5t149 -57.5t125.5 -75
t86.5 -105.5t32 -143.5q0 -78 -34.5 -147.5t-98 -123.5t-162 -86t-217.5 -32q-74 0 -140 13.5t-115.5 36t-92.5 51.5t-72.5 61.5t-53.5 64.5t-38.5 61t-24 51.5t-13.5 35.5z" />
    <glyph glyph-name="T" unicode="T" horiz-adv-x="1167" 
d="M20 1372v62h1127v-62h-533v-1372h-61v1372h-533z" />
    <glyph glyph-name="U" unicode="U" horiz-adv-x="1474" 
d="M205 524v910h61v-910q0 -237 127 -370.5t344 -133.5t344 133.5t127 370.5v910h62v-910q0 -260 -146.5 -412.5t-386.5 -152.5t-386 152.5t-146 412.5z" />
    <glyph glyph-name="V" unicode="V" horiz-adv-x="1382" 
d="M82 1434h63l363 -1373h366l363 1373h63l-378 -1434h-461z" />
    <glyph glyph-name="W" unicode="W" horiz-adv-x="1955" 
d="M113 1434h63l303 -1373h109l303 1373h174l303 -1373h109l303 1373h63l-317 -1434h-207l-303 1372h-76l-303 -1372h-207z" />
    <glyph glyph-name="X" unicode="X" horiz-adv-x="1290" 
d="M61 0l400 727l-369 707h70l350 -676h266l350 676h70l-369 -707l400 -727h-72l-383 696h-258l-383 -696h-72z" />
    <glyph glyph-name="Y" unicode="Y" 
d="M31 1434h71l533 -856h2l530 856h72l-573 -922v-512h-62v512z" />
    <glyph glyph-name="Z" unicode="Z" horiz-adv-x="1208" 
d="M82 0v61l969 1309v2h-928v62h1003v-62l-968 -1309v-2h968v-61h-1044z" />
    <glyph glyph-name="bracketleft" unicode="[" horiz-adv-x="655" 
d="M225 -297v1782h379v-62h-317v-1659h317v-61h-379z" />
    <glyph glyph-name="backslash" unicode="\" horiz-adv-x="675" 
d="M20 1434h62l573 -1434h-61z" />
    <glyph glyph-name="bracketright" unicode="]" horiz-adv-x="655" 
d="M51 -297v61h318v1659h-318v62h379v-1782h-379z" />
    <glyph glyph-name="asciicircum" unicode="^" horiz-adv-x="942" 
d="M123 799l297 635h102l297 -635h-61l-266 573h-41l-267 -573h-61z" />
    <glyph glyph-name="underscore" unicode="_" horiz-adv-x="604" 
d="M-41 -307v61h686v-61h-686z" />
    <glyph glyph-name="grave" unicode="`" horiz-adv-x="409" 
d="M61 1423h84l203 -276h-61l-226 274v2z" />
    <glyph glyph-name="a" unicode="a" 
d="M113 502q0 227 139.5 374.5t341.5 147.5q146 0 253 -70.5t165 -185.5h2v236h61v-1004h-61v236h-2q-58 -115 -165 -185.5t-253 -70.5q-202 0 -341.5 147.5t-139.5 374.5zM174 502q0 -204 120 -332.5t300 -128.5t300 128.5t120 332.5t-120 332.5t-300 128.5t-300 -128.5
t-120 -332.5z" />
    <glyph glyph-name="b" unicode="b" 
d="M195 0v1434h61v-666h2q58 115 165 185.5t253 70.5q202 0 341.5 -147.5t139.5 -374.5t-139.5 -374.5t-341.5 -147.5q-146 0 -253 70.5t-165 185.5h-2v-236h-61zM256 502q0 -204 120 -332.5t300 -128.5t300 128.5t120 332.5t-120 332.5t-300 128.5t-300 -128.5t-120 -332.5
z" />
    <glyph glyph-name="c" unicode="c" horiz-adv-x="1177" 
d="M113 502q0 145 67 265.5t179.5 188.5t244.5 68q73 0 138.5 -18.5t111 -48.5t84 -66t62.5 -72t40.5 -66t23.5 -49l7 -18h-65q-4 11 -12 30t-41 66.5t-74.5 84t-115 66.5t-159.5 30q-179 0 -304.5 -132t-125.5 -329t125.5 -329t304.5 -132q67 0 126 17.5t100.5 45.5
t75.5 61.5t55 67.5t35.5 62t19.5 45l6 18h63q-2 -8 -6.5 -21.5t-22.5 -53t-40.5 -75t-63 -79t-87.5 -75t-115.5 -53t-145.5 -21.5q-132 0 -244.5 68t-179.5 188.5t-67 265.5z" />
    <glyph glyph-name="d" unicode="d" 
d="M1075 0h-61v236h-2q-58 -115 -165 -185.5t-253 -70.5q-202 0 -341.5 147.5t-139.5 374.5t139.5 374.5t341.5 147.5q146 0 253 -70.5t165 -185.5h2v666h61v-1434zM1014 502q0 204 -120 332.5t-300 128.5t-300 -128.5t-120 -332.5t120 -332.5t300 -128.5t300 128.5
t120 332.5z" />
    <glyph glyph-name="e" unicode="e" horiz-adv-x="1218" 
d="M113 502q0 146 67.5 266t182.5 188t251 68q132 0 244.5 -67.5t180 -187.5t67.5 -265v-2h-932q0 -198 127 -329.5t313 -131.5q63 0 119 15t96 39.5t74 54t55.5 59t36.5 54t21 39.5l6 15h63q-2 -7 -7 -19t-24 -47t-41.5 -67t-62.5 -71t-86 -67t-111.5 -47t-138.5 -19
q-136 0 -251 68t-182.5 188t-67.5 266zM176 563h864q-20 175 -141.5 287.5t-284.5 112.5q-170 0 -293 -112t-145 -288z" />
    <glyph glyph-name="f" unicode="f" horiz-adv-x="583" 
d="M61 942v62h154v430h420v-62h-359v-368h297v-62h-297v-942h-61v942h-154z" />
    <glyph glyph-name="g" unicode="g" 
d="M113 502q0 227 139.5 374.5t341.5 147.5q146 0 253 -70.5t165 -185.5h2v236h61v-1393h-839v61h778v564h-2q-58 -115 -165 -185.5t-253 -70.5q-202 0 -341.5 147.5t-139.5 374.5zM174 502q0 -204 120 -332.5t300 -128.5t300 128.5t120 332.5t-120 332.5t-300 128.5
t-300 -128.5t-120 -332.5z" />
    <glyph glyph-name="h" unicode="h" horiz-adv-x="1177" 
d="M195 0v1434h61v-635h2q45 107 145.5 166t231.5 59q171 0 275 -111.5t104 -308.5v-604h-62v604q0 166 -88 262.5t-229 96.5q-165 0 -272 -109.5t-107 -290.5v-563h-61z" />
    <glyph glyph-name="i" unicode="i" horiz-adv-x="450" 
d="M164 1331q0 26 17.5 44t43.5 18t44 -18t18 -44t-18 -43.5t-44 -17.5t-43.5 17.5t-17.5 43.5zM195 0v1004h61v-1004h-61z" />
    <glyph glyph-name="j" unicode="j" horiz-adv-x="450" 
d="M164 1331q0 26 17.5 44t43.5 18t44 -18t18 -44t-18 -43.5t-44 -17.5t-43.5 17.5t-17.5 43.5zM-102 -389v61h297v1332h61v-1393h-358z" />
    <glyph glyph-name="k" unicode="k" horiz-adv-x="1034" 
d="M195 0v1434h61v-871h307l344 441h76l-369 -472l400 -532h-78l-377 502h-303v-502h-61z" />
    <glyph glyph-name="l" unicode="l" horiz-adv-x="522" 
d="M195 0v1434h61v-1373h236v-61h-297z" />
    <glyph glyph-name="m" unicode="m" horiz-adv-x="1853" 
d="M944 788h2q4 10 11.5 25.5t37 56.5t66 72t101 56.5t138.5 25.5q186 0 288 -106t102 -304v-614h-62v604q0 359 -328 359q-140 0 -233.5 -100t-93.5 -259v-604h-62v604q0 180 -77.5 269.5t-219.5 89.5q-158 0 -258 -104.5t-100 -285.5v-573h-61v1004h61v-195h2
q108 215 356 215q56 0 105 -13t81.5 -34t59 -46t41.5 -50t25.5 -46t13.5 -34z" />
    <glyph glyph-name="n" unicode="n" horiz-adv-x="1177" 
d="M195 0v1004h61v-205h2q45 107 145.5 166t231.5 59q171 0 275 -111.5t104 -308.5v-604h-62v604q0 166 -88 262.5t-229 96.5q-165 0 -272 -109.5t-107 -290.5v-563h-61z" />
    <glyph glyph-name="o" unicode="o" horiz-adv-x="1228" 
d="M113 502q0 146 67.5 266t182.5 188t251 68q137 0 252 -68t182.5 -188t67.5 -266t-67.5 -266t-182.5 -188t-252 -68q-136 0 -251 68t-182.5 188t-67.5 266zM174 502q0 -198 127 -329.5t313 -131.5t313.5 131.5t127.5 329.5t-127.5 329.5t-313.5 131.5t-313 -131.5
t-127 -329.5z" />
    <glyph glyph-name="p" unicode="p" 
d="M195 -389v1393h61v-236h2q58 115 165 185.5t253 70.5q202 0 341.5 -147.5t139.5 -374.5t-139.5 -374.5t-341.5 -147.5q-146 0 -253 70.5t-165 185.5h-2v-625h-61zM256 502q0 -204 120 -332.5t300 -128.5t300 128.5t120 332.5t-120 332.5t-300 128.5t-300 -128.5
t-120 -332.5z" />
    <glyph glyph-name="q" unicode="q" 
d="M1075 -389h-61v625h-2q-58 -115 -165 -185.5t-253 -70.5q-202 0 -341.5 147.5t-139.5 374.5t139.5 374.5t341.5 147.5q146 0 253 -70.5t165 -185.5h2v236h61v-1393zM1014 502q0 204 -120 332.5t-300 128.5t-300 -128.5t-120 -332.5t120 -332.5t300 -128.5t300 128.5
t120 332.5z" />
    <glyph glyph-name="r" unicode="r" horiz-adv-x="727" 
d="M195 0v1004h61v-216h2q37 105 139 165.5t228 60.5h102v-62h-102q-164 0 -266.5 -108.5t-102.5 -290.5v-553h-61z" />
    <glyph glyph-name="s" unicode="s" horiz-adv-x="1044" 
d="M113 287h65q2 -5 5.5 -14t18.5 -34.5t33 -48.5t50 -51.5t68 -49t88.5 -34.5t111.5 -14q161 0 244.5 63.5t83.5 161.5q0 64 -40 107.5t-104 66.5t-141.5 40t-155.5 36t-142 46t-104 79t-40 127q0 100 100.5 178t267.5 78q65 0 122 -14.5t96.5 -38t72 -52t52 -57t33 -52
t18.5 -38.5l6 -14h-66q-3 8 -10 22t-34 49.5t-61.5 62.5t-95.5 49t-133 22q-144 0 -225.5 -59.5t-81.5 -135.5q0 -62 40 -104t104 -64t141.5 -38.5t155.5 -36t142 -47.5t104 -81.5t40 -130.5q0 -122 -102.5 -204t-286.5 -82q-71 0 -133.5 17t-106 44t-79.5 59.5t-57.5 65.5
t-36.5 60t-21 44z" />
    <glyph glyph-name="t" unicode="t" horiz-adv-x="696" 
d="M61 942v62h154v225h61v-225h349v-62h-349v-881h359v-61h-420v942h-154z" />
    <glyph glyph-name="u" unicode="u" horiz-adv-x="1208" 
d="M195 399v605h61v-594q0 -179 87 -274t230 -95q165 0 272 109t107 290v564h62v-1004h-62v205h-2q-45 -107 -145.5 -166t-231.5 -59q-171 0 -274.5 111t-103.5 308z" />
    <glyph glyph-name="v" unicode="v" horiz-adv-x="1075" 
d="M72 1004h63l271 -943h264l270 943h64l-287 -1004h-359z" />
    <glyph glyph-name="w" unicode="w" horiz-adv-x="1587" 
d="M92 1004h62l211 -943h120l211 943h195l211 -943h121l211 943h61l-225 -1004h-215l-211 942h-101l-211 -942h-215z" />
    <glyph glyph-name="x" unicode="x" horiz-adv-x="952" 
d="M31 0l297 522l-277 482h64l258 -451h207l258 451h63l-276 -482l297 -522h-66l-278 492h-203l-279 -492h-65z" />
    <glyph glyph-name="y" unicode="y" horiz-adv-x="1034" 
d="M82 1004h63l250 -943h250l285 943h63l-420 -1393h-63l117 389h-279z" />
    <glyph glyph-name="z" unicode="z" horiz-adv-x="952" 
d="M82 0v61l711 879v2h-691v62h768v-62l-710 -879v-2h731v-61h-809z" />
    <glyph glyph-name="braceleft" unicode="{" horiz-adv-x="675" 
d="M256 596v-2q6 -2 13.5 -5.5t24.5 -16t30 -29.5t23.5 -47t10.5 -66v-522q0 -62 43 -103t111 -41h113v-61h-113q-99 0 -157 56t-58 149v522q0 62 -35.5 97.5t-97.5 35.5h-51v62h51q62 0 97.5 35.5t35.5 97.5v522q0 93 58 149t157 56h113v-62h-113q-68 0 -111 -40.5
t-43 -102.5v-522q0 -36 -10 -65.5t-23 -46t-29 -29t-25.5 -16.5t-14.5 -5z" />
    <glyph glyph-name="bar" unicode="|" horiz-adv-x="552" 
d="M246 -205v1741h61v-1741h-61z" />
    <glyph glyph-name="braceright" unicode="}" horiz-adv-x="675" 
d="M418 592v2q-30 15 -39 23q-62 48 -62 141v522q0 62 -42.5 102.5t-110.5 40.5h-113v62h113q99 0 157 -56t58 -149v-522q0 -62 35.5 -97.5t97.5 -35.5h51v-62h-51q-62 0 -97.5 -35.5t-35.5 -97.5v-522q0 -93 -58 -149t-157 -56h-113v61h113q68 0 110.5 41t42.5 103v522
q0 118 99 161z" />
    <glyph glyph-name="asciitilde" unicode="~" horiz-adv-x="1013" 
d="M102 512v41q0 106 55.5 165.5t149.5 59.5q45 0 91 -21t83.5 -51t73.5 -60.5t76 -51.5t76 -21q143 0 143 164v41h61v-41q0 -106 -55.5 -165.5t-148.5 -59.5q-45 0 -91 21t-83.5 51t-73.5 60.5t-76 51.5t-76 21q-143 0 -143 -164v-41h-62z" />
    <glyph glyph-name="nbspace" unicode="&#xa0;" horiz-adv-x="573" 
 />
    <glyph glyph-name="exclamdown" unicode="&#xa1;" horiz-adv-x="573" 
d="M225 963q0 26 18 43.5t44 17.5t43.5 -17.5t17.5 -43.5t-17.5 -44t-43.5 -18t-44 18t-18 44zM256 -389v737l10 277h41l10 -277v-737h-61z" />
    <glyph glyph-name="cent" unicode="&#xa2;" horiz-adv-x="1177" 
d="M113 502q0 212 132.5 359.5t327.5 162.5v184h62v-184q69 -4 130.5 -25t104 -51t78.5 -65.5t58 -70t37.5 -63t21.5 -45.5l6 -18h-65q-4 11 -12 30t-41 66.5t-74.5 84t-115 66.5t-159.5 30q-179 0 -304.5 -132t-125.5 -329t125.5 -329t304.5 -132q67 0 126 17.5t100.5 45.5
t75.5 61.5t55 67.5t35.5 62t19.5 45l6 18h63q-2 -7 -6 -20t-20.5 -50.5t-37.5 -72.5t-58.5 -77.5t-81.5 -74.5t-108.5 -55.5t-137.5 -27.5v-185h-62v185q-195 15 -327.5 162.5t-132.5 359.5z" />
    <glyph glyph-name="sterling" unicode="&#xa3;" horiz-adv-x="1064" 
d="M61 0v61h31q85 0 124.5 41.5t39.5 133.5v501h-154v62h154v317q0 177 101 278t278 101q65 0 120 -16t92 -41t66 -55.5t45.5 -61.5t27.5 -56t14 -41l4 -16h-66q-2 9 -6.5 24.5t-26.5 54.5t-52.5 68.5t-88 54t-129.5 24.5q-146 0 -232 -86t-86 -232v-317h369v-62h-369v-501
q0 -41 -7 -74t-16 -50t-21 -29.5t-17.5 -15.5t-9.5 -4v-2h788v-61h-973z" />
    <glyph glyph-name="currency" unicode="&#xa4;" horiz-adv-x="1382" 
d="M82 266v62h184v204h-184v62h184v840h522q227 0 359.5 -124.5t132.5 -326.5t-132.5 -326.5t-359.5 -124.5h-460v-204h542v-62h-542v-266h-62v266h-184zM328 594h460q204 0 317.5 105t113.5 284t-113.5 284t-317.5 105h-460v-778z" />
    <glyph glyph-name="yen" unicode="&#xa5;" 
d="M31 1434h71l533 -856h2l530 856h72l-573 -922h338v-61h-338v-185h338v-61h-338v-205h-62v205h-348v61h348v185h-348v61h348z" />
    <glyph glyph-name="brokenbar" unicode="&#xa6;" horiz-adv-x="552" 
d="M246 788v748h61v-748h-61zM246 -205v748h61v-748h-61z" />
    <glyph glyph-name="section" unicode="&#xa7;" horiz-adv-x="1198" 
d="M799 455v-2q215 -72 215 -238q0 -109 -103.5 -182.5t-306.5 -73.5q-77 0 -143 16t-110 41t-79 55.5t-54.5 61.5t-32.5 56t-17 41l-4 16h65q1 -5 3.5 -13t13.5 -31.5t27 -45t46 -47.5t67 -44.5t94 -31.5t124 -13q179 0 263.5 55t84.5 140q0 62 -43.5 106t-113 69.5
t-153.5 45.5t-168 42.5t-153.5 52t-113 81.5t-43.5 125q0 88 64.5 149.5t170.5 90.5v2q-103 38 -159 90.5t-56 138.5q0 108 106 187.5t294 79.5q57 0 108.5 -9t90 -24.5t72 -35.5t56.5 -42t41.5 -44.5t29.5 -42.5t18.5 -35.5t10.5 -24.5l3 -9h-66q-1 4 -4 11.5t-15 29
t-27.5 40.5t-45.5 43t-65.5 41t-89.5 28.5t-117 11.5q-166 0 -252 -60.5t-86 -144.5q0 -60 43.5 -102.5t113 -66.5t153.5 -43.5t168 -41.5t153.5 -51.5t113 -81.5t43.5 -125q0 -175 -235 -241zM225 737q0 -35 14.5 -64t45 -51t63.5 -38.5t83.5 -31t90.5 -24.5t99.5 -23.5
t95.5 -23.5q133 34 194.5 86t61.5 129q0 36 -14.5 65t-44.5 50.5t-63.5 38t-83 30.5t-90.5 24t-99.5 24t-96.5 24q-125 -33 -190.5 -83.5t-65.5 -131.5z" />
    <glyph glyph-name="dieresis" unicode="&#xa8;" horiz-adv-x="593" 
d="M410 1352q0 26 17.5 43.5t43.5 17.5t43.5 -17.5t17.5 -43.5t-17.5 -44t-43.5 -18t-43.5 18t-17.5 44zM61 1352q0 26 18 43.5t44 17.5t43.5 -17.5t17.5 -43.5t-17.5 -44t-43.5 -18t-44 18t-18 44z" />
    <glyph glyph-name="copyright" unicode="&#xa9;" horiz-adv-x="1720" 
d="M123 717q0 158 58 299t156.5 241.5t235 159t287.5 58.5t287.5 -58.5t235 -159t156.5 -241.5t58 -299t-58 -299t-156.5 -241.5t-235 -159t-287.5 -58.5t-287.5 58.5t-235 159t-156.5 241.5t-58 299zM184 717q0 -196 89.5 -356t244.5 -250.5t342 -90.5t342 90.5
t244.5 250.5t89.5 356t-89.5 356t-244.5 250t-342 90t-342 -90t-244.5 -250t-89.5 -356zM522 717q0 160 100 264t248 104q69 0 127.5 -23t92.5 -56t58.5 -66.5t33.5 -56.5l10 -23h-66q-2 7 -7.5 18t-26.5 39t-47.5 50t-73 39.5t-101.5 17.5q-124 0 -205 -85t-81 -222
t81 -222t205 -85q55 0 102 17t76 41t49.5 47.5t28.5 40.5l9 17h63q-3 -9 -10 -24t-34.5 -54t-61.5 -68.5t-93.5 -54t-128.5 -24.5q-148 0 -248 104.5t-100 264.5z" />
    <glyph glyph-name="ordfeminine" unicode="&#xaa;" horiz-adv-x="829" 
d="M123 963q0 79 65.5 136.5t169.5 57.5h267v41q0 92 -51.5 143.5t-143.5 51.5q-46 0 -84.5 -13.5t-61 -33t-38 -39.5t-21.5 -33l-6 -14h-65q2 8 7.5 21t28 46.5t50.5 59t79 46.5t111 21q116 0 186 -70t70 -186v-430h-61v123h-2q-3 -5 -8.5 -14t-28 -32t-49 -40.5t-71.5 -32
t-97 -14.5q-112 0 -179 58.5t-67 146.5zM184 963q0 -64 48 -104t137 -40q110 0 183 75t73 202h-267q-82 0 -128 -38t-46 -95z" />
    <glyph glyph-name="guillemotleft" unicode="&#xab;" horiz-adv-x="1024" 
d="M461 502l399 461l41 -41l-364 -420l374 -420l-41 -41zM92 502l400 461l40 -41l-364 -420l375 -420l-41 -41z" />
    <glyph glyph-name="logicalnot" unicode="&#xac;" horiz-adv-x="962" 
d="M102 614v62h738v-297h-62v235h-676z" />
    <glyph glyph-name="uni00AD" unicode="&#xad;" horiz-adv-x="962" 
d="M123 553v61h717v-61h-717z" />
    <glyph glyph-name="registered" unicode="&#xae;" horiz-adv-x="1228" 
d="M102 963q0 215 148.5 363.5t363.5 148.5t363.5 -148.5t148.5 -363.5t-148.5 -363.5t-363.5 -148.5t-363.5 148.5t-148.5 363.5zM164 963q0 -192 129 -321.5t321 -129.5t321.5 129.5t129.5 321.5t-129.5 321t-321.5 129t-321 -129t-129 -321zM440 717v491h205
q82 0 133 -44.5t51 -108.5q0 -49 -32 -89.5t-92 -56.5l114 -192h-69l-111 184h-137v-184h-62zM502 963h143q59 0 91 26t32 66t-32 66t-91 26h-143v-184z" />
    <glyph glyph-name="macron" unicode="&#xaf;" horiz-adv-x="604" 
d="M61 1341v62h482v-62h-482z" />
    <glyph glyph-name="degree" unicode="&#xb0;" horiz-adv-x="696" 
d="M92 1178q0 107 74.5 181.5t181.5 74.5t181.5 -74.5t74.5 -181.5t-74.5 -181.5t-181.5 -74.5t-181.5 74.5t-74.5 181.5zM154 1178q0 -85 54.5 -140t139.5 -55t140 55t55 140t-55 139.5t-140 54.5t-139.5 -54.5t-54.5 -139.5z" />
    <glyph glyph-name="plusminus" unicode="&#xb1;" horiz-adv-x="1003" 
d="M113 102v62h358v379h-358v61h358v379h61v-379h359v-61h-359v-379h359v-62h-778z" />
    <glyph glyph-name="twosuperior" unicode="&#xb2;" horiz-adv-x="686" 
d="M72 942v62l174 110q141 89 180 120q109 87 116 184q1 8 1 16q0 71 -52.5 117t-142.5 46q-46 0 -84 -16t-59.5 -38.5t-36.5 -44.5t-20 -38l-5 -16h-61q1 4 3.5 12t12 30.5t21.5 42.5t34 45t48 43t64.5 30t82.5 12q113 0 184.5 -65.5t71.5 -159.5q0 -44 -15.5 -85
t-37 -70.5t-60 -62.5t-67 -52.5t-76.5 -49.5l-155 -98l-19 -12v-3l21 3h419v-62h-542z" />
    <glyph glyph-name="threesuperior" unicode="&#xb3;" horiz-adv-x="684" 
d="M72 1126h65q1 -6 4.5 -15.5t19.5 -34t38 -43.5t63.5 -34.5t93.5 -15.5q97 0 151 46t54 118t-54 118t-151 46h-143v61l279 205v2l-21 -2h-360v61h471v-61l-260 -191l-19 -12v-2h53q128 0 197.5 -61.5t69.5 -163.5t-69.5 -163.5t-197.5 -61.5q-50 0 -93 11.5t-71 29
t-50.5 39.5t-35 44t-21 39.5t-11.5 28.5z" />
    <glyph glyph-name="acute" unicode="&#xb4;" horiz-adv-x="409" 
d="M61 1147l203 276h84v-2l-225 -274h-62z" />
    <glyph glyph-name="mu" unicode="&#xb5;" horiz-adv-x="1208" 
d="M195 -389v1393h61v-564q0 -90 28.5 -166t76.5 -126.5t111 -78.5t132 -28t132 28t111 78.5t76.5 126.5t28.5 166v564h62v-1004h-62v205h-2q-45 -106 -137.5 -165.5t-208.5 -59.5q-117 0 -210 59.5t-138 165.5h-2l2 -21v-573h-61z" />
    <glyph glyph-name="paragraph" unicode="&#xb6;" horiz-adv-x="696" 
d="M51 1106q0 141 101.5 234.5t267.5 93.5h205v-62h-164v-1761h-62v1167q-152 0 -250 94t-98 234z" />
    <glyph glyph-name="periodcentered" unicode="&#xb7;" horiz-adv-x="573" 
d="M225 532q0 26 18 44t44 18t43.5 -18t17.5 -44t-17.5 -43.5t-43.5 -17.5t-44 17.5t-18 43.5z" />
    <glyph glyph-name="cedilla" unicode="&#xb8;" horiz-adv-x="450" 
d="M61 -430v61q52 -30 134 -30q65 0 99 30t34 82q0 54 -37.5 83.5t-106.5 29.5h-61l92 184h61l-63 -127q78 -3 127 -49t49 -121q0 -78 -51.5 -126t-142.5 -48q-36 0 -69.5 7.5t-49.5 15.5z" />
    <glyph glyph-name="onesuperior" unicode="&#xb9;" horiz-adv-x="655" 
d="M102 942v62h226v569l-195 -113v66l195 112h61v-634h205v-62h-492z" />
    <glyph glyph-name="ordmasculine" unicode="&#xba;" horiz-adv-x="860" 
d="M102 1106q0 152 94 250t234 98t234 -98t94 -250t-94 -250t-234 -98t-234 98t-94 250zM164 1106q0 -129 74.5 -208t191.5 -79t191.5 79t74.5 208t-74.5 208t-191.5 79t-191.5 -79t-74.5 -208z" />
    <glyph glyph-name="guillemotright" unicode="&#xbb;" horiz-adv-x="1024" 
d="M481 82l375 420l-364 420l40 41l400 -461l-410 -461zM113 82l374 420l-364 420l41 41l399 -461l-409 -461z" />
    <glyph glyph-name="onequarter" unicode="&#xbc;" horiz-adv-x="1536" 
d="M102 737v62h226v569l-195 -113v66l195 113h61v-635h205v-62h-492zM330 0l891 1434h71l-891 -1434h-71zM891 184v62l276 450h70l-281 -450h314v174h61v-174h113v-62h-113v-184h-61v184h-379z" />
    <glyph glyph-name="onehalf" unicode="&#xbd;" horiz-adv-x="1599" 
d="M102 737v62h226v569l-195 -113v66l195 113h61v-635h205v-62h-492zM330 0l891 1434h71l-891 -1434h-71zM954 0v61l174 111q141 89 180 120q109 87 116 184q1 8 1 16q0 71 -52 117t-142 46q-46 0 -84 -16t-59.5 -38.5t-36.5 -44.5t-20 -38l-5 -16h-61q1 4 3.5 12t12 30.5
t21.5 42.5t34 45t48 43t64.5 30t82.5 12q113 0 184.5 -65.5t71.5 -159.5q0 -44 -15.5 -85t-37 -70.5t-60 -62.5t-67 -52.5t-76.5 -49.5l-156 -98l-18 -13v-2l20 2h420v-61h-543z" />
    <glyph glyph-name="threequarters" unicode="&#xbe;" horiz-adv-x="1576" 
d="M92 922h66q1 -6 4.5 -15.5t19.5 -34.5t38 -44t63.5 -34.5t93.5 -15.5q97 0 151 46t54 118t-54 118t-151 46h-144v61l279 205v2l-20 -2h-361v62h471v-62l-260 -190l-18 -13v-2h53q128 0 197 -61.5t69 -163.5t-69 -163.5t-197 -61.5q-69 0 -123.5 21t-83.5 51t-48 60.5
t-24 51.5zM371 0l891 1434h71l-891 -1434h-71zM932 184v62l276 450h70l-281 -450h314v174h61v-174h113v-62h-113v-184h-61v184h-379z" />
    <glyph glyph-name="questiondown" unicode="&#xbf;" horiz-adv-x="1034" 
d="M512 963q0 26 17.5 43.5t43.5 17.5t44 -17.5t18 -43.5t-18 -44t-44 -18t-43.5 18t-17.5 44zM92 -51q0 77 25 136t64.5 96t87.5 68.5t96.5 63.5t88 69t64.5 96t25 136h61q0 -83 -25 -148t-64.5 -106.5t-87.5 -75.5t-96 -65t-87.5 -65.5t-64.5 -86.5t-25 -118
q0 -128 98.5 -212.5t269.5 -84.5q73 0 136 17t106 44t77.5 59.5t54.5 65.5t33 60t18 44l5 17h62q-2 -8 -5.5 -21t-20.5 -51.5t-38.5 -73.5t-62 -77.5t-88.5 -73t-120.5 -51.5t-156.5 -21q-194 0 -312 104t-118 255z" />
    <glyph glyph-name="Agrave" unicode="&#xc0;" horiz-adv-x="1361" 
d="M72 0l379 1434h460l379 -1434h-63l-142 532h-809l-141 -532h-63zM291 594h780l-207 778h-366zM430 1894h84l203 -276h-62l-225 274v2z" />
    <glyph glyph-name="Aacute" unicode="&#xc1;" horiz-adv-x="1361" 
d="M72 0l379 1434h460l379 -1434h-63l-142 532h-809l-141 -532h-63zM291 594h780l-207 778h-366zM645 1618l203 276h84v-2l-225 -274h-62z" />
    <glyph glyph-name="Acircumflex" unicode="&#xc2;" horiz-adv-x="1361" 
d="M72 0l379 1434h460l379 -1434h-63l-142 532h-809l-141 -532h-63zM291 594h780l-207 778h-366zM424 1620l215 285h82l215 -285v-2h-72l-170 225h-28l-170 -225h-72v2z" />
    <glyph glyph-name="Atilde" unicode="&#xc3;" horiz-adv-x="1361" 
d="M72 0l379 1434h460l379 -1434h-63l-142 532h-809l-141 -532h-63zM291 594h780l-207 778h-366zM403 1649v41q0 68 41 110.5t103 42.5q41 0 81 -22.5t66 -49t58.5 -49t60.5 -22.5q82 0 82 92v41h61v-41q0 -68 -40.5 -111t-102.5 -43q-41 0 -81 22.5t-66 49.5t-58.5 49.5
t-60.5 22.5q-39 0 -60.5 -23.5t-21.5 -68.5v-41h-62z" />
    <glyph glyph-name="Adieresis" unicode="&#xc4;" horiz-adv-x="1361" 
d="M72 0l379 1434h460l379 -1434h-63l-142 532h-809l-141 -532h-63zM291 594h780l-207 778h-366zM793 1741q0 26 17.5 43.5t43.5 17.5t43.5 -17.5t17.5 -43.5t-17.5 -44t-43.5 -18t-43.5 18t-17.5 44zM444 1741q0 26 18 43.5t44 17.5t43.5 -17.5t17.5 -43.5t-17.5 -44
t-43.5 -18t-44 18t-18 44z" />
    <glyph glyph-name="Aring" unicode="&#xc5;" horiz-adv-x="1361" 
d="M72 0l379 1434h460l379 -1434h-63l-142 532h-809l-141 -532h-63zM291 594h780l-207 778h-366zM485 1751q0 79 57.5 137t137.5 58q79 0 136.5 -57.5t57.5 -137.5t-57.5 -137.5t-136.5 -57.5q-80 0 -137.5 58t-57.5 137zM547 1751q0 -57 38 -95t95 -38t95 38t38 95t-38 95
t-95 38t-95 -38t-38 -95z" />
    <glyph glyph-name="AE" unicode="&#xc6;" horiz-adv-x="1925" 
d="M72 0l379 1434h1372v-62h-809v-614h655v-62h-655v-635h809v-61h-871v532h-676l-141 -532h-63zM291 594h661v778h-454z" />
    <glyph glyph-name="Ccedilla" unicode="&#xc7;" horiz-adv-x="1638" 
d="M123 717q0 162 56 303.5t151 241t225 156.5t274 57q111 0 208.5 -27.5t165.5 -72t124 -98t90 -107t57.5 -98t32.5 -72.5l9 -27h-62q-3 9 -8.5 25t-29.5 61.5t-53 87t-81.5 92.5t-113.5 87.5t-150 61.5t-189 25q-133 0 -251.5 -51.5t-205.5 -142t-137.5 -221t-50.5 -281.5
t50.5 -281.5t137.5 -221t205.5 -142.5t251.5 -52q102 0 192.5 26t153 67.5t114.5 92t83.5 101t53 92t30.5 67.5l8 26h62q-3 -11 -9.5 -30t-32 -74t-57.5 -105t-89 -111t-124 -105.5t-165 -75.5t-209 -32l-37 -76q78 -3 127 -49t49 -121q0 -78 -52 -126t-143 -48
q-36 0 -69.5 7.5t-48.5 15.5l-15 8v61q51 -30 133 -30q65 0 99.5 30t34.5 82q0 54 -37.5 83.5t-106.5 29.5h-61l67 135q-138 11 -259 72t-209 159t-138.5 234t-50.5 291z" />
    <glyph glyph-name="Egrave" unicode="&#xc8;" horiz-adv-x="1249" 
d="M225 0v1434h922v-62h-860v-614h706v-62h-706v-635h860v-61h-922zM461 1894h84l203 -276h-62l-225 274v2z" />
    <glyph glyph-name="Eacute" unicode="&#xc9;" horiz-adv-x="1249" 
d="M225 0v1434h922v-62h-860v-614h706v-62h-706v-635h860v-61h-922zM635 1618l203 276h84v-2l-226 -274h-61z" />
    <glyph glyph-name="Ecircumflex" unicode="&#xca;" horiz-adv-x="1249" 
d="M225 0v1434h922v-62h-860v-614h706v-62h-706v-635h860v-61h-922zM440 1620l215 285h82l215 -285v-2h-71l-170 225h-29l-170 -225h-72v2z" />
    <glyph glyph-name="Edieresis" unicode="&#xcb;" horiz-adv-x="1249" 
d="M225 0v1434h922v-62h-860v-614h706v-62h-706v-635h860v-61h-922zM799 1741q0 26 17.5 43.5t43.5 17.5t44 -17.5t18 -43.5t-18 -44t-44 -18t-43.5 18t-17.5 44zM451 1741q0 26 17.5 43.5t43.5 17.5t43.5 -17.5t17.5 -43.5t-17.5 -44t-43.5 -18t-43.5 18t-17.5 44z" />
    <glyph glyph-name="Igrave" unicode="&#xcc;" horiz-adv-x="512" 
d="M225 0v1434h62v-1434h-62zM0 1894h84l203 -276h-62l-225 274v2z" />
    <glyph glyph-name="Iacute" unicode="&#xcd;" horiz-adv-x="512" 
d="M225 0v1434h62v-1434h-62zM225 1618l203 276h84v-2l-225 -274h-62z" />
    <glyph glyph-name="Icircumflex" unicode="&#xce;" horiz-adv-x="512" 
d="M225 0v1434h62v-1434h-62zM0 1620l215 285h82l215 -285v-2h-72l-170 225h-28l-170 -225h-72v2z" />
    <glyph glyph-name="Idieresis" unicode="&#xcf;" horiz-adv-x="512" 
d="M225 0v1434h62v-1434h-62zM369 1741q0 26 17.5 43.5t43.5 17.5t44 -17.5t18 -43.5t-18 -44t-44 -18t-43.5 18t-17.5 44zM20 1741q0 26 18 43.5t44 17.5t43.5 -17.5t17.5 -43.5t-17.5 -44t-43.5 -18t-44 18t-18 44z" />
    <glyph glyph-name="Eth" unicode="&#xd0;" horiz-adv-x="1505" 
d="M82 676v61h164v697h420q207 0 370.5 -91t254.5 -254.5t91 -371.5t-91 -371.5t-254.5 -254.5t-370.5 -91h-420v676h-164zM307 61h359q192 0 341.5 82.5t231.5 232t82 341.5q0 292 -181.5 473.5t-473.5 181.5h-359v-635h389v-61h-389v-615z" />
    <glyph glyph-name="Ntilde" unicode="&#xd1;" horiz-adv-x="1515" 
d="M225 0v1434h103l901 -1377h2l-2 15v1362h61v-1434h-102l-901 1376h-2l2 -14v-1362h-62zM492 1649v41q0 68 40.5 110.5t102.5 42.5q41 0 81 -22.5t66 -49t58.5 -49t60.5 -22.5q82 0 82 92v41h61v-41q0 -68 -40.5 -111t-102.5 -43q-41 0 -81 22.5t-66 49.5t-58.5 49.5
t-60.5 22.5q-39 0 -60.5 -23.5t-21.5 -68.5v-41h-61z" />
    <glyph glyph-name="Ograve" unicode="&#xd2;" horiz-adv-x="1679" 
d="M123 717q0 162 56 303.5t152.5 241t228.5 156.5t280 57q198 0 361.5 -97t259 -271t95.5 -390t-95.5 -390t-259 -271t-361.5 -97q-148 0 -280 57t-228.5 156.5t-152.5 241t-56 303.5zM184 717q0 -201 87 -361t236.5 -248t332.5 -88t332.5 88t236 248t86.5 361
q0 151 -50.5 281.5t-138 221t-208.5 142t-258 51.5t-258 -51.5t-208.5 -142t-138.5 -221t-51 -281.5zM594 1894h84l203 -276h-62l-225 274v2z" />
    <glyph glyph-name="Oacute" unicode="&#xd3;" horiz-adv-x="1679" 
d="M123 717q0 162 56 303.5t152.5 241t228.5 156.5t280 57q198 0 361.5 -97t259 -271t95.5 -390t-95.5 -390t-259 -271t-361.5 -97q-148 0 -280 57t-228.5 156.5t-152.5 241t-56 303.5zM184 717q0 -201 87 -361t236.5 -248t332.5 -88t332.5 88t236 248t86.5 361
q0 151 -50.5 281.5t-138 221t-208.5 142t-258 51.5t-258 -51.5t-208.5 -142t-138.5 -221t-51 -281.5zM799 1618l202 276h84v-2l-225 -274h-61z" />
    <glyph glyph-name="Ocircumflex" unicode="&#xd4;" horiz-adv-x="1679" 
d="M123 717q0 162 56 303.5t152.5 241t228.5 156.5t280 57q198 0 361.5 -97t259 -271t95.5 -390t-95.5 -390t-259 -271t-361.5 -97q-148 0 -280 57t-228.5 156.5t-152.5 241t-56 303.5zM184 717q0 -201 87 -361t236.5 -248t332.5 -88t332.5 88t236 248t86.5 361
q0 151 -50.5 281.5t-138 221t-208.5 142t-258 51.5t-258 -51.5t-208.5 -142t-138.5 -221t-51 -281.5zM584 1620l215 285h82l215 -285v-2h-72l-170 225h-29l-170 -225h-71v2z" />
    <glyph glyph-name="Otilde" unicode="&#xd5;" horiz-adv-x="1679" 
d="M123 717q0 162 56 303.5t152.5 241t228.5 156.5t280 57q198 0 361.5 -97t259 -271t95.5 -390t-95.5 -390t-259 -271t-361.5 -97q-148 0 -280 57t-228.5 156.5t-152.5 241t-56 303.5zM184 717q0 -201 87 -361t236.5 -248t332.5 -88t332.5 88t236 248t86.5 361
q0 151 -50.5 281.5t-138 221t-208.5 142t-258 51.5t-258 -51.5t-208.5 -142t-138.5 -221t-51 -281.5zM563 1649v41q0 68 41 110.5t103 42.5q41 0 81 -22.5t66 -49t58.5 -49t60.5 -22.5q82 0 82 92v41h61v-41q0 -68 -40.5 -111t-102.5 -43q-41 0 -81 22.5t-66 49.5
t-58.5 49.5t-60.5 22.5q-39 0 -60.5 -23.5t-21.5 -68.5v-41h-62z" />
    <glyph glyph-name="Odieresis" unicode="&#xd6;" horiz-adv-x="1679" 
d="M123 717q0 162 56 303.5t152.5 241t228.5 156.5t280 57q198 0 361.5 -97t259 -271t95.5 -390t-95.5 -390t-259 -271t-361.5 -97q-148 0 -280 57t-228.5 156.5t-152.5 241t-56 303.5zM184 717q0 -201 87 -361t236.5 -248t332.5 -88t332.5 88t236 248t86.5 361
q0 151 -50.5 281.5t-138 221t-208.5 142t-258 51.5t-258 -51.5t-208.5 -142t-138.5 -221t-51 -281.5zM952 1741q0 26 18 43.5t44 17.5t43.5 -17.5t17.5 -43.5t-17.5 -44t-43.5 -18t-44 18t-18 44zM604 1741q0 26 18 43.5t44 17.5t43.5 -17.5t17.5 -43.5t-17.5 -44t-43.5 -18
t-44 18t-18 44z" />
    <glyph glyph-name="multiply" unicode="&#xd7;" horiz-adv-x="974" 
d="M154 305l288 289l-288 289l45 45l288 -289l289 289l45 -45l-289 -289l289 -289l-45 -45l-289 289l-288 -289z" />
    <glyph glyph-name="Oslash" unicode="&#xd8;" horiz-adv-x="1679" 
d="M92 -10v82l182 168q-6 7 -16.5 21t-36.5 61t-45.5 99t-36 132.5t-16.5 163.5q0 162 56 303.5t152.5 241t228.5 156.5t280 57q97 0 187 -24t149 -58.5t104 -69t66 -58.5l20 -24l221 203v-82l-182 -168q6 -7 16.5 -21t36.5 -61t45.5 -99t36 -132.5t16.5 -163.5
q0 -216 -95.5 -390t-259 -271t-361.5 -97q-97 0 -187.5 24t-149.5 58.5t-104 69t-65 58.5l-21 24zM184 717q0 -77 14 -150.5t34 -123t39.5 -88t33.5 -56.5l14 -18l1002 919q-7 9 -20 23t-58 51t-96.5 65t-134.5 51t-172 23q-137 0 -258 -51.5t-208.5 -142t-138.5 -221
t-51 -281.5zM358 233q7 -9 20 -23t58.5 -51t97 -65t134.5 -51t172 -23q183 0 332.5 88t236 248t86.5 361q0 77 -14 150.5t-33.5 123t-39.5 88t-34 56.5l-14 18z" />
    <glyph glyph-name="Ugrave" unicode="&#xd9;" horiz-adv-x="1474" 
d="M205 524v910h61v-910q0 -237 127 -370.5t344 -133.5t344 133.5t127 370.5v910h62v-910q0 -260 -146.5 -412.5t-386.5 -152.5t-386 152.5t-146 412.5zM492 1894h83l203 -276h-61l-225 274v2z" />
    <glyph glyph-name="Uacute" unicode="&#xda;" horiz-adv-x="1474" 
d="M205 524v910h61v-910q0 -237 127 -370.5t344 -133.5t344 133.5t127 370.5v910h62v-910q0 -260 -146.5 -412.5t-386.5 -152.5t-386 152.5t-146 412.5zM696 1618l203 276h84v-2l-225 -274h-62z" />
    <glyph glyph-name="Ucircumflex" unicode="&#xdb;" horiz-adv-x="1474" 
d="M205 524v910h61v-910q0 -237 127 -370.5t344 -133.5t344 133.5t127 370.5v910h62v-910q0 -260 -146.5 -412.5t-386.5 -152.5t-386 152.5t-146 412.5zM481 1620l215 285h82l215 -285v-2h-71l-170 225h-29l-170 -225h-72v2z" />
    <glyph glyph-name="Udieresis" unicode="&#xdc;" horiz-adv-x="1474" 
d="M205 524v910h61v-910q0 -237 127 -370.5t344 -133.5t344 133.5t127 370.5v910h62v-910q0 -260 -146.5 -412.5t-386.5 -152.5t-386 152.5t-146 412.5zM850 1741q0 26 17.5 43.5t43.5 17.5t44 -17.5t18 -43.5t-18 -44t-44 -18t-43.5 18t-17.5 44zM502 1741q0 26 17.5 43.5
t43.5 17.5t44 -17.5t18 -43.5t-18 -44t-44 -18t-43.5 18t-17.5 44z" />
    <glyph glyph-name="Yacute" unicode="&#xdd;" 
d="M31 1434h71l533 -856h2l530 856h72l-573 -922v-512h-62v512zM594 1618l203 276h84v-2l-226 -274h-61z" />
    <glyph glyph-name="Thorn" unicode="&#xde;" horiz-adv-x="1443" 
d="M225 0v1434h62v-308h594q217 0 338.5 -107.5t121.5 -281.5t-121.5 -281.5t-338.5 -107.5h-594v-348h-62zM287 410h594q195 0 297 88t102 239t-102.5 239.5t-296.5 88.5h-594v-655z" />
    <glyph glyph-name="germandbls" unicode="&#xdf;" horiz-adv-x="1167" 
d="M748 782v-2q130 -18 223.5 -122.5t93.5 -258.5q0 -170 -118.5 -284.5t-301.5 -114.5h-102v61h102q160 0 259.5 95t99.5 243t-99.5 243t-259.5 95h-102v62h41q136 0 226.5 86.5t90.5 210.5q0 121 -96 209t-221 88q-145 0 -236.5 -88t-91.5 -220v-1085h-61v1085
q0 163 107 266t282 103q156 0 267.5 -103t111.5 -255q0 -69 -22 -126.5t-53.5 -90.5t-63.5 -56.5t-54 -32.5z" />
    <glyph glyph-name="agrave" unicode="&#xe0;" 
d="M113 502q0 227 139.5 374.5t341.5 147.5q146 0 253 -70.5t165 -185.5h2v236h61v-1004h-61v236h-2q-58 -115 -165 -185.5t-253 -70.5q-202 0 -341.5 147.5t-139.5 374.5zM174 502q0 -204 120 -332.5t300 -128.5t300 128.5t120 332.5t-120 332.5t-300 128.5t-300 -128.5
t-120 -332.5zM358 1485h84l203 -277h-61l-226 275v2z" />
    <glyph glyph-name="aacute" unicode="&#xe1;" 
d="M113 502q0 227 139.5 374.5t341.5 147.5q146 0 253 -70.5t165 -185.5h2v236h61v-1004h-61v236h-2q-58 -115 -165 -185.5t-253 -70.5q-202 0 -341.5 147.5t-139.5 374.5zM174 502q0 -204 120 -332.5t300 -128.5t300 128.5t120 332.5t-120 332.5t-300 128.5t-300 -128.5
t-120 -332.5zM543 1208l202 277h84v-2l-225 -275h-61z" />
    <glyph glyph-name="acircumflex" unicode="&#xe2;" 
d="M113 502q0 227 139.5 374.5t341.5 147.5q146 0 253 -70.5t165 -185.5h2v236h61v-1004h-61v236h-2q-58 -115 -165 -185.5t-253 -70.5q-202 0 -341.5 147.5t-139.5 374.5zM174 502q0 -204 120 -332.5t300 -128.5t300 128.5t120 332.5t-120 332.5t-300 128.5t-300 -128.5
t-120 -332.5zM348 1210l215 285h82l215 -285v-2h-72l-170 226h-28l-170 -226h-72v2z" />
    <glyph glyph-name="atilde" unicode="&#xe3;" 
d="M113 502q0 227 139.5 374.5t341.5 147.5q146 0 253 -70.5t165 -185.5h2v236h61v-1004h-61v236h-2q-58 -115 -165 -185.5t-253 -70.5q-202 0 -341.5 147.5t-139.5 374.5zM174 502q0 -204 120 -332.5t300 -128.5t300 128.5t120 332.5t-120 332.5t-300 128.5t-300 -128.5
t-120 -332.5zM338 1229v41q0 68 40.5 110.5t102.5 42.5q41 0 81 -22.5t66.5 -49t59 -49t60.5 -22.5q81 0 81 92v41h62v-41q0 -68 -40.5 -110.5t-102.5 -42.5q-41 0 -81 22.5t-66.5 49t-59 49t-60.5 22.5q-39 0 -60.5 -23.5t-21.5 -68.5v-41h-61z" />
    <glyph glyph-name="adieresis" unicode="&#xe4;" 
d="M113 502q0 227 139.5 374.5t341.5 147.5q146 0 253 -70.5t165 -185.5h2v236h61v-1004h-61v236h-2q-58 -115 -165 -185.5t-253 -70.5q-202 0 -341.5 147.5t-139.5 374.5zM174 502q0 -204 120 -332.5t300 -128.5t300 128.5t120 332.5t-120 332.5t-300 128.5t-300 -128.5
t-120 -332.5zM717 1331q0 26 17.5 44t43.5 18t44 -18t18 -44t-18 -43.5t-44 -17.5t-43.5 17.5t-17.5 43.5zM369 1331q0 26 17.5 44t43.5 18t44 -18t18 -44t-18 -43.5t-44 -17.5t-43.5 17.5t-17.5 43.5z" />
    <glyph glyph-name="aring" unicode="&#xe5;" 
d="M113 502q0 227 139.5 374.5t341.5 147.5q146 0 253 -70.5t165 -185.5h2v236h61v-1004h-61v236h-2q-58 -115 -165 -185.5t-253 -70.5q-202 0 -341.5 147.5t-139.5 374.5zM174 502q0 -204 120 -332.5t300 -128.5t300 128.5t120 332.5t-120 332.5t-300 128.5t-300 -128.5
t-120 -332.5zM410 1403q0 79 57 136.5t137 57.5t137.5 -57.5t57.5 -136.5t-57.5 -137t-137.5 -58q-79 0 -136.5 57.5t-57.5 137.5zM471 1403q0 -57 38 -95t95 -38t95 38t38 95t-38 95t-95 38t-95 -38t-38 -95z" />
    <glyph glyph-name="ae" unicode="&#xe6;" horiz-adv-x="2017" 
d="M143 276q0 127 97.5 212t261.5 85h450v21q0 182 -87.5 275.5t-250.5 93.5q-59 0 -110.5 -14t-88 -36.5t-66.5 -50t-48.5 -55t-31.5 -50t-18 -36.5l-5 -14h-62q2 7 6 18t20 44t36.5 63t56.5 66.5t78 63t103 44.5t130 18q67 0 124.5 -15.5t95.5 -39t68.5 -55t47 -59.5
t28 -57t15 -42.5t4.5 -20.5h2q3 11 15.5 36t48 71t81.5 85t123.5 68t166.5 29q195 0 333 -145.5t138 -364.5v-2h-891q0 -205 120.5 -338t299.5 -133q61 0 115 15t92 39.5t70 54t51.5 59t33.5 54t20 39.5l5 15h63q-2 -7 -6.5 -19t-22 -47t-39 -67t-59.5 -71t-81.5 -67
t-107 -47t-134.5 -19q-95 0 -176 33.5t-127.5 76t-82 96t-46.5 79.5t-15 40h-2q-4 -13 -7 -23.5t-20.5 -46.5t-38 -64.5t-59.5 -66.5t-85 -63t-115 -43t-148 -18q-172 0 -270.5 84t-98.5 212zM205 276q0 -104 79.5 -169.5t227.5 -65.5q198 0 319 117t121 303v51h-450
q-141 0 -219 -66t-78 -170zM1016 573h823q-20 170 -132.5 280t-272.5 110q-166 0 -281 -109.5t-137 -280.5z" />
    <glyph glyph-name="ccedilla" unicode="&#xe7;" horiz-adv-x="1177" 
d="M113 502q0 145 67 265.5t179.5 188.5t244.5 68q73 0 138.5 -18.5t111 -48.5t84 -66t62.5 -72t40.5 -66t23.5 -49l7 -18h-65q-4 11 -12 30t-41 66.5t-74.5 84t-115 66.5t-159.5 30q-179 0 -304.5 -132t-125.5 -329t125.5 -329t304.5 -132q67 0 126 17.5t100.5 45.5
t75.5 61.5t55 67.5t35.5 62t19.5 45l6 18h63q-2 -7 -6 -20t-21 -50.5t-38 -72.5t-59 -77.5t-83 -74.5t-111.5 -55.5t-141.5 -27.5l-43 -97q78 -3 127 -49t49 -121q0 -78 -52 -126t-143 -48q-36 0 -69.5 7.5t-48.5 15.5l-15 8v61q51 -30 133 -30q65 0 99 30t34 82
q0 54 -37 83.5t-106 29.5h-61l81 154q-195 15 -327.5 162.5t-132.5 359.5z" />
    <glyph glyph-name="egrave" unicode="&#xe8;" horiz-adv-x="1218" 
d="M113 502q0 146 67.5 266t182.5 188t251 68q132 0 244.5 -67.5t180 -187.5t67.5 -265v-2h-932q0 -198 127 -329.5t313 -131.5q63 0 119 15t96 39.5t74 54t55.5 59t36.5 54t21 39.5l6 15h63q-2 -7 -7 -19t-24 -47t-41.5 -67t-62.5 -71t-86 -67t-111.5 -47t-138.5 -19
q-136 0 -251 68t-182.5 188t-67.5 266zM176 563h864q-20 175 -141.5 287.5t-284.5 112.5q-170 0 -293 -112t-145 -288zM358 1485h84l203 -277h-61l-226 275v2z" />
    <glyph glyph-name="eacute" unicode="&#xe9;" horiz-adv-x="1218" 
d="M113 502q0 146 67.5 266t182.5 188t251 68q132 0 244.5 -67.5t180 -187.5t67.5 -265v-2h-932q0 -198 127 -329.5t313 -131.5q63 0 119 15t96 39.5t74 54t55.5 59t36.5 54t21 39.5l6 15h63q-2 -7 -7 -19t-24 -47t-41.5 -67t-62.5 -71t-86 -67t-111.5 -47t-138.5 -19
q-136 0 -251 68t-182.5 188t-67.5 266zM176 563h864q-20 175 -141.5 287.5t-284.5 112.5q-170 0 -293 -112t-145 -288zM573 1208l203 277h84v-2l-225 -275h-62z" />
    <glyph glyph-name="ecircumflex" unicode="&#xea;" horiz-adv-x="1218" 
d="M113 502q0 146 67.5 266t182.5 188t251 68q132 0 244.5 -67.5t180 -187.5t67.5 -265v-2h-932q0 -198 127 -329.5t313 -131.5q63 0 119 15t96 39.5t74 54t55.5 59t36.5 54t21 39.5l6 15h63q-2 -7 -7 -19t-24 -47t-41.5 -67t-62.5 -71t-86 -67t-111.5 -47t-138.5 -19
q-136 0 -251 68t-182.5 188t-67.5 266zM176 563h864q-20 175 -141.5 287.5t-284.5 112.5q-170 0 -293 -112t-145 -288zM348 1210l215 285h82l215 -285v-2h-72l-170 226h-28l-170 -226h-72v2z" />
    <glyph glyph-name="edieresis" unicode="&#xeb;" horiz-adv-x="1218" 
d="M113 502q0 146 67.5 266t182.5 188t251 68q132 0 244.5 -67.5t180 -187.5t67.5 -265v-2h-932q0 -198 127 -329.5t313 -131.5q63 0 119 15t96 39.5t74 54t55.5 59t36.5 54t21 39.5l6 15h63q-2 -7 -7 -19t-24 -47t-41.5 -67t-62.5 -71t-86 -67t-111.5 -47t-138.5 -19
q-136 0 -251 68t-182.5 188t-67.5 266zM176 563h864q-20 175 -141.5 287.5t-284.5 112.5q-170 0 -293 -112t-145 -288zM707 1331q0 26 17.5 44t43.5 18t43.5 -18t17.5 -44t-17.5 -43.5t-43.5 -17.5t-43.5 17.5t-17.5 43.5zM358 1331q0 26 18 44t44 18t43.5 -18t17.5 -44
t-17.5 -43.5t-43.5 -17.5t-44 17.5t-18 43.5z" />
    <glyph glyph-name="igrave" unicode="&#xec;" horiz-adv-x="450" 
d="M195 0v1004h61v-1004h-61zM-31 1485h84l203 -277h-61l-226 275v2z" />
    <glyph glyph-name="iacute" unicode="&#xed;" horiz-adv-x="450" 
d="M195 0v1004h61v-1004h-61zM195 1208l202 277h84v-2l-225 -275h-61z" />
    <glyph glyph-name="icircumflex" unicode="&#xee;" horiz-adv-x="450" 
d="M195 0v1004h61v-1004h-61zM-31 1210l215 285h82l215 -285v-2h-71l-170 226h-29l-170 -226h-72v2z" />
    <glyph glyph-name="idieresis" unicode="&#xef;" horiz-adv-x="450" 
d="M195 0v1004h61v-1004h-61zM338 1331q0 26 17.5 44t43.5 18t44 -18t18 -44t-18 -43.5t-44 -17.5t-43.5 17.5t-17.5 43.5zM-10 1331q0 26 17.5 44t43.5 18t44 -18t18 -44t-18 -43.5t-44 -17.5t-43.5 17.5t-17.5 43.5z" />
    <glyph glyph-name="eth" unicode="&#xf0;" horiz-adv-x="1198" 
d="M113 451q0 200 137.5 335.5t343.5 135.5q77 0 146 -20.5t112 -50t75.5 -59.5t46.5 -50l13 -21h2q-35 138 -114 255t-218 243l-2 2l-235 -174v69l194 141l-204 177h82l172 -142l237 172v-69l-194 -142q195 -174 281.5 -359.5t86.5 -442.5q0 -200 -137.5 -335.5
t-343.5 -135.5t-343.5 135.5t-137.5 335.5zM174 451q0 -178 118 -294t302 -116t302 116t118 294t-118 293.5t-302 115.5t-302 -115.5t-118 -293.5z" />
    <glyph glyph-name="ntilde" unicode="&#xf1;" horiz-adv-x="1177" 
d="M195 0v1004h61v-205h2q45 107 145.5 166t231.5 59q171 0 275 -111.5t104 -308.5v-604h-62v604q0 166 -88 262.5t-229 96.5q-165 0 -272 -109.5t-107 -290.5v-563h-61zM319 1229v41q0 68 41 110.5t103 42.5q41 0 81 -22.5t66 -49t58.5 -49t60.5 -22.5q82 0 82 92v41h61
v-41q0 -68 -40.5 -110.5t-102.5 -42.5q-41 0 -81 22.5t-66 49t-58.5 49t-60.5 22.5q-39 0 -60.5 -23.5t-21.5 -68.5v-41h-62z" />
    <glyph glyph-name="ograve" unicode="&#xf2;" horiz-adv-x="1228" 
d="M113 502q0 146 67.5 266t182.5 188t251 68q137 0 252 -68t182.5 -188t67.5 -266t-67.5 -266t-182.5 -188t-252 -68q-136 0 -251 68t-182.5 188t-67.5 266zM174 502q0 -198 127 -329.5t313 -131.5t313.5 131.5t127.5 329.5t-127.5 329.5t-313.5 131.5t-313 -131.5
t-127 -329.5zM369 1485h84l202 -277h-61l-225 275v2z" />
    <glyph glyph-name="oacute" unicode="&#xf3;" horiz-adv-x="1228" 
d="M113 502q0 146 67.5 266t182.5 188t251 68q137 0 252 -68t182.5 -188t67.5 -266t-67.5 -266t-182.5 -188t-252 -68q-136 0 -251 68t-182.5 188t-67.5 266zM174 502q0 -198 127 -329.5t313 -131.5t313.5 131.5t127.5 329.5t-127.5 329.5t-313.5 131.5t-313 -131.5
t-127 -329.5zM573 1208l203 277h84v-2l-225 -275h-62z" />
    <glyph glyph-name="ocircumflex" unicode="&#xf4;" horiz-adv-x="1228" 
d="M113 502q0 146 67.5 266t182.5 188t251 68q137 0 252 -68t182.5 -188t67.5 -266t-67.5 -266t-182.5 -188t-252 -68q-136 0 -251 68t-182.5 188t-67.5 266zM174 502q0 -198 127 -329.5t313 -131.5t313.5 131.5t127.5 329.5t-127.5 329.5t-313.5 131.5t-313 -131.5
t-127 -329.5zM358 1210l215 285h82l215 -285v-2h-71l-170 226h-29l-170 -226h-72v2z" />
    <glyph glyph-name="otilde" unicode="&#xf5;" horiz-adv-x="1228" 
d="M113 502q0 146 67.5 266t182.5 188t251 68q137 0 252 -68t182.5 -188t67.5 -266t-67.5 -266t-182.5 -188t-252 -68q-136 0 -251 68t-182.5 188t-67.5 266zM174 502q0 -198 127 -329.5t313 -131.5t313.5 131.5t127.5 329.5t-127.5 329.5t-313.5 131.5t-313 -131.5
t-127 -329.5zM338 1229v41q0 68 40.5 110.5t102.5 42.5q41 0 81 -22.5t66.5 -49t59 -49t60.5 -22.5q81 0 81 92v41h62v-41q0 -68 -40.5 -110.5t-102.5 -42.5q-41 0 -81 22.5t-66.5 49t-59 49t-60.5 22.5q-39 0 -60.5 -23.5t-21.5 -68.5v-41h-61z" />
    <glyph glyph-name="odieresis" unicode="&#xf6;" horiz-adv-x="1228" 
d="M113 502q0 146 67.5 266t182.5 188t251 68q137 0 252 -68t182.5 -188t67.5 -266t-67.5 -266t-182.5 -188t-252 -68q-136 0 -251 68t-182.5 188t-67.5 266zM174 502q0 -198 127 -329.5t313 -131.5t313.5 131.5t127.5 329.5t-127.5 329.5t-313.5 131.5t-313 -131.5
t-127 -329.5zM727 1331q0 26 17.5 44t43.5 18t44 -18t18 -44t-18 -43.5t-44 -17.5t-43.5 17.5t-17.5 43.5zM379 1331q0 26 17.5 44t43.5 18t44 -18t18 -44t-18 -43.5t-44 -17.5t-43.5 17.5t-17.5 43.5z" />
    <glyph glyph-name="divide" unicode="&#xf7;" horiz-adv-x="983" 
d="M420 922q0 31 20.5 51t51.5 20t51 -20t20 -51t-20 -51.5t-51 -20.5t-51.5 20.5t-20.5 51.5zM113 522v62h757v-62h-757zM420 184q0 31 20.5 51.5t51.5 20.5t51 -20.5t20 -51.5t-20 -51t-51 -20t-51.5 20t-20.5 51z" />
    <glyph glyph-name="oslash" unicode="&#xf8;" horiz-adv-x="1228" 
d="M113 0v80l106 98q-4 5 -11.5 15t-25.5 43t-32 68t-25.5 89t-11.5 109q0 146 67.5 266t182.5 188t251 68q63 0 123 -16t101 -38.5t73 -45t47 -38.5l15 -16l143 134v-80l-106 -99q4 -5 11.5 -15t25.5 -42.5t32 -67.5t25.5 -89t11.5 -109q0 -146 -67.5 -266t-182.5 -188
t-252 -68q-63 0 -123 16t-100.5 38t-72.5 44.5t-47 38.5l-15 16zM174 502q0 -49 9 -96t22 -79.5t26 -57.5t22 -37l9 -13l668 610q-5 5 -13.5 14.5t-38.5 32.5t-64 40.5t-88.5 32t-111.5 14.5q-186 0 -313 -131.5t-127 -329.5zM299 174q4 -5 13 -14t39 -32t63.5 -40.5t88 -32
t111.5 -14.5q186 0 313.5 131.5t127.5 329.5q0 77 -22 147.5t-44 102.5l-22 32z" />
    <glyph glyph-name="ugrave" unicode="&#xf9;" horiz-adv-x="1208" 
d="M195 399v605h61v-594q0 -179 87 -274t230 -95q165 0 272 109t107 290v564h62v-1004h-62v205h-2q-45 -107 -145.5 -166t-231.5 -59q-171 0 -274.5 111t-103.5 308zM358 1485h84l203 -277h-61l-226 275v2z" />
    <glyph glyph-name="uacute" unicode="&#xfa;" horiz-adv-x="1208" 
d="M195 399v605h61v-594q0 -179 87 -274t230 -95q165 0 272 109t107 290v564h62v-1004h-62v205h-2q-45 -107 -145.5 -166t-231.5 -59q-171 0 -274.5 111t-103.5 308zM563 1208l203 277h84v-2l-225 -275h-62z" />
    <glyph glyph-name="ucircumflex" unicode="&#xfb;" horiz-adv-x="1208" 
d="M195 399v605h61v-594q0 -179 87 -274t230 -95q165 0 272 109t107 290v564h62v-1004h-62v205h-2q-45 -107 -145.5 -166t-231.5 -59q-171 0 -274.5 111t-103.5 308zM348 1210l215 285h82l215 -285v-2h-72l-170 226h-28l-170 -226h-72v2z" />
    <glyph glyph-name="udieresis" unicode="&#xfc;" horiz-adv-x="1208" 
d="M195 399v605h61v-594q0 -179 87 -274t230 -95q165 0 272 109t107 290v564h62v-1004h-62v205h-2q-45 -107 -145.5 -166t-231.5 -59q-171 0 -274.5 111t-103.5 308zM717 1331q0 26 17.5 44t43.5 18t44 -18t18 -44t-18 -43.5t-44 -17.5t-43.5 17.5t-17.5 43.5zM369 1331
q0 26 17.5 44t43.5 18t44 -18t18 -44t-18 -43.5t-44 -17.5t-43.5 17.5t-17.5 43.5z" />
    <glyph glyph-name="yacute" unicode="&#xfd;" horiz-adv-x="1034" 
d="M82 1004h63l250 -943h250l285 943h63l-420 -1393h-63l117 389h-279zM492 1208l202 277h84v-2l-225 -275h-61z" />
    <glyph glyph-name="thorn" unicode="&#xfe;" 
d="M195 -389v1823h61v-666h2q58 115 165 185.5t253 70.5q202 0 341.5 -147.5t139.5 -374.5t-139.5 -374.5t-341.5 -147.5q-146 0 -253 70.5t-165 185.5h-2v-625h-61zM256 502q0 -204 120 -332.5t300 -128.5t300 128.5t120 332.5t-120 332.5t-300 128.5t-300 -128.5
t-120 -332.5z" />
    <glyph glyph-name="ydieresis" unicode="&#xff;" horiz-adv-x="1034" 
d="M82 1004h63l250 -943h250l285 943h63l-420 -1393h-63l117 389h-279zM645 1331q0 26 18 44t44 18t43.5 -18t17.5 -44t-17.5 -43.5t-43.5 -17.5t-44 17.5t-18 43.5zM297 1331q0 26 17.5 44t43.5 18t44 -18t18 -44t-18 -43.5t-44 -17.5t-43.5 17.5t-17.5 43.5z" />
    <glyph glyph-name="Amacron" unicode="&#x100;" horiz-adv-x="1361" 
d="M72 0l379 1434h460l379 -1434h-63l-142 532h-809l-141 -532h-63zM291 594h780l-207 778h-366zM440 1700v61h482v-61h-482z" />
    <glyph glyph-name="amacron" unicode="&#x101;" 
d="M113 502q0 227 139.5 374.5t341.5 147.5q146 0 253 -70.5t165 -185.5h2v236h61v-1004h-61v236h-2q-58 -115 -165 -185.5t-253 -70.5q-202 0 -341.5 147.5t-139.5 374.5zM174 502q0 -204 120 -332.5t300 -128.5t300 128.5t120 332.5t-120 332.5t-300 128.5t-300 -128.5
t-120 -332.5zM365 1290v62h481v-62h-481z" />
    <glyph glyph-name="Abreve" unicode="&#x102;" horiz-adv-x="1361" 
d="M72 0l379 1434h460l379 -1434h-63l-142 532h-809l-141 -532h-63zM291 594h780l-207 778h-366zM424 1843h61q0 -71 52.5 -117.5t142.5 -46.5t142 46.5t52 117.5h62q0 -94 -71.5 -159.5t-184.5 -65.5t-184.5 65.5t-71.5 159.5z" />
    <glyph glyph-name="abreve" unicode="&#x103;" 
d="M113 502q0 227 139.5 374.5t341.5 147.5q146 0 253 -70.5t165 -185.5h2v236h61v-1004h-61v236h-2q-58 -115 -165 -185.5t-253 -70.5q-202 0 -341.5 147.5t-139.5 374.5zM174 502q0 -204 120 -332.5t300 -128.5t300 128.5t120 332.5t-120 332.5t-300 128.5t-300 -128.5
t-120 -332.5zM348 1454h62q0 -71 52 -117.5t142 -46.5t142.5 46.5t52.5 117.5h61q0 -94 -71.5 -159.5t-184.5 -65.5t-184.5 65.5t-71.5 159.5z" />
    <glyph glyph-name="Aogonek" unicode="&#x104;" horiz-adv-x="1361" 
d="M72 0l379 1434h460l379 -1434l-27.5 -11t-61.5 -32.5t-78 -54t-61.5 -74t-27.5 -94.5q0 -47 36.5 -80t96.5 -33q32 0 62.5 7.5t45.5 15.5l15 8v-62q-51 -30 -123 -30q-83 0 -138.5 51.5t-55.5 122.5q0 52 25.5 101t62 82t73 59t62.5 38l25 13v2l-136 503h-809l-141 -532
h-63zM291 594h780l-207 778h-366z" />
    <glyph glyph-name="aogonek" unicode="&#x105;" 
d="M113 502q0 227 139.5 374.5t341.5 147.5q146 0 253 -70.5t165 -185.5h2v236h61v-1004l-27.5 -11t-61.5 -32.5t-78 -54t-61.5 -74t-27.5 -94.5q0 -47 36.5 -80t96.5 -33q32 0 63 7.5t45 15.5l15 8v-62q-51 -30 -123 -30q-83 0 -138.5 51.5t-55.5 122.5q0 52 26.5 101.5
t64 83t75 60.5t64.5 39l26 13v2v203h-2q-58 -115 -165 -185.5t-253 -70.5q-202 0 -341.5 147.5t-139.5 374.5zM174 502q0 -204 120 -332.5t300 -128.5t300 128.5t120 332.5t-120 332.5t-300 128.5t-300 -128.5t-120 -332.5z" />
    <glyph glyph-name="Cacute" unicode="&#x106;" horiz-adv-x="1638" 
d="M123 717q0 162 56 303.5t151 241t225 156.5t274 57q111 0 208.5 -27.5t165.5 -72t124 -98t90 -107t57.5 -98t32.5 -72.5l9 -27h-62q-3 9 -8.5 25t-29.5 61.5t-53 87t-81.5 92.5t-113.5 87.5t-150 61.5t-189 25q-133 0 -251.5 -51.5t-205.5 -142t-137.5 -221t-50.5 -281.5
t50.5 -281.5t137.5 -221t205.5 -142.5t251.5 -52q102 0 192.5 26t153 67.5t114.5 92t83.5 101t53 92t30.5 67.5l8 26h62q-3 -11 -9.5 -30.5t-32 -74.5t-58.5 -105.5t-91 -112t-126 -105.5t-167.5 -74.5t-212.5 -30.5q-144 0 -274 57t-225 156.5t-151 241t-56 303.5z
M778 1618l203 276h84v-2l-225 -274h-62z" />
    <glyph glyph-name="cacute" unicode="&#x107;" horiz-adv-x="1177" 
d="M113 502q0 145 67 265.5t179.5 188.5t244.5 68q73 0 138.5 -18.5t111 -48.5t84 -66t62.5 -72t40.5 -66t23.5 -49l7 -18h-65q-4 11 -12 30t-41 66.5t-74.5 84t-115 66.5t-159.5 30q-179 0 -304.5 -132t-125.5 -329t125.5 -329t304.5 -132q67 0 126 17.5t100.5 45.5
t75.5 61.5t55 67.5t35.5 62t19.5 45l6 18h63q-2 -8 -6.5 -21.5t-22.5 -53t-40.5 -75t-63 -79t-87.5 -75t-115.5 -53t-145.5 -21.5q-132 0 -244.5 68t-179.5 188.5t-67 265.5zM553 1208l203 277h84v-2l-226 -275h-61z" />
    <glyph glyph-name="Ccircumflex" unicode="&#x108;" horiz-adv-x="1638" 
d="M123 717q0 162 56 303.5t151 241t225 156.5t274 57q111 0 208.5 -27.5t165.5 -72t124 -98t90 -107t57.5 -98t32.5 -72.5l9 -27h-62q-3 9 -8.5 25t-29.5 61.5t-53 87t-81.5 92.5t-113.5 87.5t-150 61.5t-189 25q-133 0 -251.5 -51.5t-205.5 -142t-137.5 -221t-50.5 -281.5
t50.5 -281.5t137.5 -221t205.5 -142.5t251.5 -52q102 0 192.5 26t153 67.5t114.5 92t83.5 101t53 92t30.5 67.5l8 26h62q-3 -11 -9.5 -30.5t-32 -74.5t-58.5 -105.5t-91 -112t-126 -105.5t-167.5 -74.5t-212.5 -30.5q-144 0 -274 57t-225 156.5t-151 241t-56 303.5z
M567 1620l215 285h82l215 -285v-2h-71l-170 225h-29l-170 -225h-72v2z" />
    <glyph glyph-name="ccircumflex" unicode="&#x109;" horiz-adv-x="1177" 
d="M113 502q0 145 67 265.5t179.5 188.5t244.5 68q73 0 138.5 -18.5t111 -48.5t84 -66t62.5 -72t40.5 -66t23.5 -49l7 -18h-65q-4 11 -12 30t-41 66.5t-74.5 84t-115 66.5t-159.5 30q-179 0 -304.5 -132t-125.5 -329t125.5 -329t304.5 -132q67 0 126 17.5t100.5 45.5
t75.5 61.5t55 67.5t35.5 62t19.5 45l6 18h63q-2 -8 -6.5 -21.5t-22.5 -53t-40.5 -75t-63 -79t-87.5 -75t-115.5 -53t-145.5 -21.5q-132 0 -244.5 68t-179.5 188.5t-67 265.5zM338 1210l215 285h82l215 -285v-2h-72l-170 226h-28l-170 -226h-72v2z" />
    <glyph glyph-name="Ccaron" unicode="&#x10c;" horiz-adv-x="1638" 
d="M123 717q0 162 56 303.5t151 241t225 156.5t274 57q111 0 208.5 -27.5t165.5 -72t124 -98t90 -107t57.5 -98t32.5 -72.5l9 -27h-62q-3 9 -8.5 25t-29.5 61.5t-53 87t-81.5 92.5t-113.5 87.5t-150 61.5t-189 25q-133 0 -251.5 -51.5t-205.5 -142t-137.5 -221t-50.5 -281.5
t50.5 -281.5t137.5 -221t205.5 -142.5t251.5 -52q102 0 192.5 26t153 67.5t114.5 92t83.5 101t53 92t30.5 67.5l8 26h62q-3 -11 -9.5 -30.5t-32 -74.5t-58.5 -105.5t-91 -112t-126 -105.5t-167.5 -74.5t-212.5 -30.5q-144 0 -274 57t-225 156.5t-151 241t-56 303.5z
M567 1905h72l170 -226h29l170 226h71v-2l-215 -285h-82l-215 285v2z" />
    <glyph glyph-name="ccaron" unicode="&#x10d;" horiz-adv-x="1177" 
d="M113 502q0 145 67 265.5t179.5 188.5t244.5 68q73 0 138.5 -18.5t111 -48.5t84 -66t62.5 -72t40.5 -66t23.5 -49l7 -18h-65q-4 11 -12 30t-41 66.5t-74.5 84t-115 66.5t-159.5 30q-179 0 -304.5 -132t-125.5 -329t125.5 -329t304.5 -132q67 0 126 17.5t100.5 45.5
t75.5 61.5t55 67.5t35.5 62t19.5 45l6 18h63q-2 -8 -6.5 -21.5t-22.5 -53t-40.5 -75t-63 -79t-87.5 -75t-115.5 -53t-145.5 -21.5q-132 0 -244.5 68t-179.5 188.5t-67 265.5zM338 1495h72l170 -225h28l170 225h72v-2l-215 -285h-82l-215 285v2z" />
    <glyph glyph-name="Dcaron" unicode="&#x10e;" horiz-adv-x="1484" 
d="M225 0v1434h420q155 0 288.5 -53.5t227.5 -147.5t147.5 -227.5t53.5 -288.5t-53.5 -288.5t-147.5 -227.5t-227.5 -147.5t-288.5 -53.5h-420zM287 61h358q192 0 341.5 82.5t231.5 232t82 341.5q0 292 -181.5 473.5t-473.5 181.5h-358v-1311zM492 1905h71l170 -226h29
l170 226h72v-2l-216 -285h-81l-215 285v2z" />
    <glyph glyph-name="dcaron" unicode="&#x10f;" horiz-adv-x="1290" 
d="M1075 0h-61v236h-2q-58 -115 -165 -185.5t-253 -70.5q-202 0 -341.5 147.5t-139.5 374.5t139.5 374.5t341.5 147.5q146 0 253 -70.5t165 -185.5h2v666h61v-1434zM1014 502q0 204 -120 332.5t-300 128.5t-300 -128.5t-120 -332.5t120 -332.5t300 -128.5t300 128.5
t120 332.5zM1198 1382q0 27 19 44.5t49 17.5q37 0 61.5 -36t24.5 -108q0 -75 -41.5 -122t-102.5 -52v41q41 5 66.5 33.5t25.5 79.5q0 14 -2.5 26.5t-5.5 18.5l-2 6q-10 -10 -30 -10q-26 0 -44 17.5t-18 43.5z" />
    <glyph glyph-name="Dcroat" unicode="&#x110;" horiz-adv-x="1505" 
d="M82 676v61h164v697h420q207 0 370.5 -91t254.5 -254.5t91 -371.5t-91 -371.5t-254.5 -254.5t-370.5 -91h-420v676h-164zM307 61h359q192 0 341.5 82.5t231.5 232t82 341.5q0 292 -181.5 473.5t-473.5 181.5h-359v-635h389v-61h-389v-615z" />
    <glyph glyph-name="dcroat" unicode="&#x111;" horiz-adv-x="1259" 
d="M113 471q0 214 135 353t336 139q141 0 245.5 -67t161.5 -179h2v450h-286v62h286v205h62v-205h153v-62h-153v-1167h-62v225h-2q-56 -112 -161 -178.5t-246 -66.5q-201 0 -336 138.5t-135 352.5zM174 471q0 -191 116 -310.5t294 -119.5t293.5 119.5t115.5 310.5
t-115.5 310.5t-293.5 119.5t-294 -119.5t-116 -310.5z" />
    <glyph glyph-name="Emacron" unicode="&#x112;" horiz-adv-x="1249" 
d="M225 0v1434h922v-62h-860v-614h706v-62h-706v-635h860v-61h-922zM430 1731v61h481v-61h-481z" />
    <glyph glyph-name="emacron" unicode="&#x113;" horiz-adv-x="1218" 
d="M113 502q0 146 67.5 266t182.5 188t251 68q132 0 244.5 -67.5t180 -187.5t67.5 -265v-2h-932q0 -198 127 -329.5t313 -131.5q63 0 119 15t96 39.5t74 54t55.5 59t36.5 54t21 39.5l6 15h63q-2 -7 -7 -19t-24 -47t-41.5 -67t-62.5 -71t-86 -67t-111.5 -47t-138.5 -19
q-136 0 -251 68t-182.5 188t-67.5 266zM176 563h864q-20 175 -141.5 287.5t-284.5 112.5q-170 0 -293 -112t-145 -288zM369 1290v62h481v-62h-481z" />
    <glyph glyph-name="Edotaccent" unicode="&#x116;" horiz-adv-x="1249" 
d="M225 0v1434h922v-62h-860v-614h706v-62h-706v-635h860v-61h-922zM635 1741q0 26 17.5 43.5t43.5 17.5t44 -17.5t18 -43.5t-18 -44t-44 -18t-43.5 18t-17.5 44z" />
    <glyph glyph-name="edotaccent" unicode="&#x117;" horiz-adv-x="1218" 
d="M113 502q0 146 67.5 266t182.5 188t251 68q132 0 244.5 -67.5t180 -187.5t67.5 -265v-2h-932q0 -198 127 -329.5t313 -131.5q63 0 119 15t96 39.5t74 54t55.5 59t36.5 54t21 39.5l6 15h63q-2 -7 -7 -19t-24 -47t-41.5 -67t-62.5 -71t-86 -67t-111.5 -47t-138.5 -19
q-136 0 -251 68t-182.5 188t-67.5 266zM176 563h864q-20 175 -141.5 287.5t-284.5 112.5q-170 0 -293 -112t-145 -288zM532 1331q0 26 18 44t44 18t43.5 -18t17.5 -44t-17.5 -43.5t-43.5 -17.5t-44 17.5t-18 43.5z" />
    <glyph glyph-name="Eogonek" unicode="&#x118;" horiz-adv-x="1249" 
d="M225 0v1434h922v-62h-860v-614h706v-62h-706v-635h860v-61q-10 -4 -27.5 -12t-61.5 -34.5t-78 -55t-61.5 -73.5t-27.5 -91q0 -47 36.5 -80t96.5 -33q32 0 63 7.5t45 15.5l15 8v-62q-51 -30 -123 -30q-83 0 -139 51.5t-56 122.5q0 49 22 94t53.5 75t63.5 53t54 34l22 10
h-819z" />
    <glyph glyph-name="eogonek" unicode="&#x119;" horiz-adv-x="1218" 
d="M616 -20h-2q-136 0 -251 68t-182.5 188t-67.5 266t67.5 266t182.5 188t251 68q132 0 244.5 -67.5t180 -187.5t67.5 -265v-2h-932q0 -198 127 -329.5t313 -131.5q63 0 119 15t96 39.5t74 54t55.5 59t36.5 54t21 39.5l6 15h63q-3 -10 -10.5 -27.5t-35 -64t-62 -86
t-95 -80.5t-130.5 -61q-10 -3 -28.5 -11.5t-48 -24t-59 -38.5t-55.5 -50.5t-42.5 -64t-16.5 -75.5q0 -47 36.5 -80t96.5 -33q32 0 62.5 7.5t45.5 15.5l15 8v-62q-51 -30 -123 -30q-83 0 -139 51.5t-56 122.5q0 43 18 84.5t44 69.5t52 49.5t44 32.5zM176 563h864
q-20 175 -141.5 287.5t-284.5 112.5q-170 0 -293 -112t-145 -288z" />
    <glyph glyph-name="Ecaron" unicode="&#x11a;" horiz-adv-x="1249" 
d="M225 0v1434h922v-62h-860v-614h706v-62h-706v-635h860v-61h-922zM440 1905h72l170 -226h29l170 226h71v-2l-215 -285h-82l-215 285v2z" />
    <glyph glyph-name="ecaron" unicode="&#x11b;" horiz-adv-x="1218" 
d="M113 502q0 146 67.5 266t182.5 188t251 68q132 0 244.5 -67.5t180 -187.5t67.5 -265v-2h-932q0 -198 127 -329.5t313 -131.5q63 0 119 15t96 39.5t74 54t55.5 59t36.5 54t21 39.5l6 15h63q-2 -7 -7 -19t-24 -47t-41.5 -67t-62.5 -71t-86 -67t-111.5 -47t-138.5 -19
q-136 0 -251 68t-182.5 188t-67.5 266zM176 563h864q-20 175 -141.5 287.5t-284.5 112.5q-170 0 -293 -112t-145 -288zM348 1495h72l170 -225h28l170 225h72v-2l-215 -285h-82l-215 285v2z" />
    <glyph glyph-name="Gbreve" unicode="&#x11e;" horiz-adv-x="1761" 
d="M123 717q0 162 56 303.5t151 241t225 156.5t274 57q85 0 163.5 -16.5t138 -44.5t112.5 -64t91.5 -76t70 -80t52 -76t34 -64t19.5 -44l6 -17h-62q-3 9 -9 24t-30.5 58.5t-54.5 83.5t-83 88.5t-113.5 83t-148.5 58.5t-186 24q-133 0 -251.5 -51.5t-205.5 -142t-137.5 -221
t-50.5 -281.5q0 -201 87 -361t236.5 -248t332.5 -88q129 0 244.5 48t201 133.5t139 208.5t60.5 266h-307v61h563v-61h-195q-10 -206 -106.5 -370.5t-254 -255.5t-345.5 -91q-148 0 -280 57t-228.5 156.5t-152.5 241t-56 303.5zM584 1843h61q0 -71 52.5 -117.5t142.5 -46.5
t142 46.5t52 117.5h62q0 -94 -71.5 -159.5t-184.5 -65.5t-184.5 65.5t-71.5 159.5z" />
    <glyph glyph-name="gbreve" unicode="&#x11f;" 
d="M113 502q0 227 139.5 374.5t341.5 147.5q146 0 253 -70.5t165 -185.5h2v236h61v-1393h-839v61h778v564h-2q-58 -115 -165 -185.5t-253 -70.5q-202 0 -341.5 147.5t-139.5 374.5zM174 502q0 -204 120 -332.5t300 -128.5t300 128.5t120 332.5t-120 332.5t-300 128.5
t-300 -128.5t-120 -332.5zM348 1454h62q0 -71 52 -117.5t142 -46.5t142.5 46.5t52.5 117.5h61q0 -94 -71.5 -159.5t-184.5 -65.5t-184.5 65.5t-71.5 159.5z" />
    <glyph glyph-name="Gcommaaccent" unicode="&#x122;" horiz-adv-x="1761" 
d="M123 717q0 162 56 303.5t151 241t225 156.5t274 57q85 0 163.5 -16.5t138 -44.5t112.5 -64t91.5 -76t70 -80t52 -76t34 -64t19.5 -44l6 -17h-62q-3 9 -9 24t-30.5 58.5t-54.5 83.5t-83 88.5t-113.5 83t-148.5 58.5t-186 24q-133 0 -251.5 -51.5t-205.5 -142t-137.5 -221
t-50.5 -281.5q0 -201 87 -361t236.5 -248t332.5 -88q129 0 244.5 48t201 133.5t139 208.5t60.5 266h-307v61h563v-61h-195q-10 -206 -106.5 -370.5t-254 -255.5t-345.5 -91q-148 0 -280 57t-228.5 156.5t-152.5 241t-56 303.5zM764 -266q0 27 18.5 44t48.5 17q37 0 62 -35.5
t25 -107.5q0 -75 -41.5 -122t-102.5 -52v41q41 5 66.5 33t25.5 79q0 14 -2.5 27t-5.5 19l-2 6q-11 -11 -31 -11q-26 0 -43.5 18t-17.5 44z" />
    <glyph glyph-name="gcommaaccent" unicode="&#x123;" 
d="M522 1352q0 75 41.5 122t102.5 52v-41q-41 -5 -67 -33.5t-26 -79.5q0 -14 2.5 -26.5t5.5 -18.5l3 -6q10 10 30 10q26 0 44 -17.5t18 -43.5q0 -27 -19 -44.5t-49 -17.5q-37 0 -61.5 36t-24.5 108zM113 502q0 227 139.5 374.5t341.5 147.5q146 0 253 -70.5t165 -185.5h2
v236h61v-1393h-839v61h778v564h-2q-58 -115 -165 -185.5t-253 -70.5q-202 0 -341.5 147.5t-139.5 374.5zM174 502q0 -204 120 -332.5t300 -128.5t300 128.5t120 332.5t-120 332.5t-300 128.5t-300 -128.5t-120 -332.5z" />
    <glyph glyph-name="Imacron" unicode="&#x12a;" horiz-adv-x="512" 
d="M225 0v1434h62v-1434h-62zM16 1700v61h482v-61h-482z" />
    <glyph glyph-name="imacron" unicode="&#x12b;" horiz-adv-x="450" 
d="M195 0v1004h61v-1004h-61zM-14 1290v62h481v-62h-481z" />
    <glyph glyph-name="Iogonek" unicode="&#x12e;" horiz-adv-x="512" 
d="M-31 -266q0 52 26.5 101.5t64 83t75 60.5t63.5 39l27 13v2v1401h62v-1434l-27.5 -11t-61.5 -32.5t-78 -54t-61.5 -74t-27.5 -94.5q0 -47 36.5 -80t96.5 -33q32 0 63 7.5t45 15.5l15 8v-62q-51 -30 -123 -30q-83 0 -139 51.5t-56 122.5z" />
    <glyph glyph-name="iogonek" unicode="&#x12f;" horiz-adv-x="450" 
d="M164 1331q0 26 17.5 44t43.5 18t44 -18t18 -44t-18 -43.5t-44 -17.5t-43.5 17.5t-17.5 43.5zM-61 -266q0 52 26.5 101.5t64 83t75 60.5t63.5 39l27 13v2v971h61v-1004l-27.5 -11t-61.5 -32.5t-78 -54t-61.5 -74t-27.5 -94.5q0 -47 36.5 -80t96.5 -33q32 0 63 7.5t46 15.5
l14 8v-62q-51 -30 -123 -30q-83 0 -138.5 51.5t-55.5 122.5z" />
    <glyph glyph-name="Idotaccent" unicode="&#x130;" horiz-adv-x="512" 
d="M225 0v1434h62v-1434h-62zM195 1741q0 26 17.5 43.5t43.5 17.5t43.5 -17.5t17.5 -43.5t-17.5 -44t-43.5 -18t-43.5 18t-17.5 44z" />
    <glyph glyph-name="dotlessi" unicode="&#x131;" horiz-adv-x="450" 
d="M195 0v1004h61v-1004h-61z" />
    <glyph glyph-name="Kcommaaccent" unicode="&#x136;" horiz-adv-x="1280" 
d="M225 0v1434h62v-676h377l489 676h76l-512 -707l532 -727h-78l-509 696h-375v-696h-62zM629 -266q0 27 18.5 44t48.5 17q37 0 61.5 -35.5t24.5 -107.5q0 -75 -41 -122t-102 -52v41q41 5 66.5 33t25.5 79q0 14 -2.5 27t-4.5 19l-3 6q-11 -11 -31 -11q-26 0 -43.5 18
t-17.5 44z" />
    <glyph glyph-name="kcommaaccent" unicode="&#x137;" horiz-adv-x="1034" 
d="M195 0v1434h61v-871h307l344 441h76l-369 -472l400 -532h-78l-377 502h-303v-502h-61zM492 -266q0 27 18.5 44t48.5 17q37 0 61.5 -35.5t24.5 -107.5q0 -75 -41 -122t-102 -52v41q41 5 66.5 33t25.5 79q0 14 -2.5 27t-5.5 19l-2 6q-11 -11 -31 -11q-26 0 -43.5 18
t-17.5 44z" />
    <glyph glyph-name="Lacute" unicode="&#x139;" horiz-adv-x="1126" 
d="M225 0v1434h62v-1373h798v-61h-860zM225 1618l203 276h84v-2l-225 -274h-62z" />
    <glyph glyph-name="lacute" unicode="&#x13a;" horiz-adv-x="522" 
d="M195 0v1434h61v-1373h236v-61h-297zM195 1618l202 276h84v-2l-225 -274h-61z" />
    <glyph glyph-name="Lcommaaccent" unicode="&#x13b;" horiz-adv-x="1126" 
d="M225 0v1434h62v-1373h798v-61h-860zM580 -266q0 27 18.5 44t48.5 17q37 0 61.5 -35.5t24.5 -107.5q0 -75 -41 -122t-102 -52v41q41 5 66.5 33t25.5 79q0 14 -2.5 27t-5.5 19l-2 6q-11 -11 -31 -11q-26 0 -43.5 18t-17.5 44z" />
    <glyph glyph-name="lcommaaccent" unicode="&#x13c;" horiz-adv-x="522" 
d="M195 0v1434h61v-1373h236v-61h-297zM272 -266q0 27 19 44t49 17q37 0 61.5 -35.5t24.5 -107.5q0 -75 -41 -122t-102 -52v41q41 5 66.5 33t25.5 79q0 14 -2.5 27t-4.5 19l-3 6q-11 -11 -31 -11q-26 0 -44 18t-18 44z" />
    <glyph glyph-name="Lcaron" unicode="&#x13d;" horiz-adv-x="1126" 
d="M225 0v1434h62v-1373h798v-61h-860zM492 1382q0 27 18.5 44.5t48.5 17.5q37 0 61.5 -36t24.5 -108q0 -75 -41 -122t-102 -52v41q41 5 66.5 33.5t25.5 79.5q0 14 -2.5 26.5t-5.5 18.5l-2 6q-11 -10 -31 -10q-26 0 -43.5 17.5t-17.5 43.5z" />
    <glyph glyph-name="lcaron" unicode="&#x13e;" horiz-adv-x="522" 
d="M195 0v1434h61v-1373h236v-61h-297zM379 1382q0 27 18.5 44.5t48.5 17.5q37 0 61.5 -36t24.5 -108q0 -75 -41 -122t-102 -52v41q41 5 66.5 33.5t25.5 79.5q0 14 -2.5 26.5t-4.5 18.5l-3 6q-11 -10 -31 -10q-26 0 -43.5 17.5t-17.5 43.5z" />
    <glyph glyph-name="Lslash" unicode="&#x141;" horiz-adv-x="1126" 
d="M82 532v62l143 68v772h62v-744l276 129v-61l-276 -129v-568h798v-61h-860v600z" />
    <glyph glyph-name="lslash" unicode="&#x142;" horiz-adv-x="522" 
d="M20 532v62l175 80v760h61v-732l205 97v-62l-205 -96v-580h236v-61h-297v612z" />
    <glyph glyph-name="Nacute" unicode="&#x143;" horiz-adv-x="1515" 
d="M225 0v1434h103l901 -1377h2l-2 15v1362h61v-1434h-102l-901 1376h-2l2 -14v-1362h-62zM727 1618l203 276h84v-2l-226 -274h-61z" />
    <glyph glyph-name="nacute" unicode="&#x144;" horiz-adv-x="1177" 
d="M195 0v1004h61v-205h2q45 107 145.5 166t231.5 59q171 0 275 -111.5t104 -308.5v-604h-62v604q0 166 -88 262.5t-229 96.5q-165 0 -272 -109.5t-107 -290.5v-563h-61zM565 1208l203 277h84v-2l-225 -275h-62z" />
    <glyph glyph-name="Ncommaaccent" unicode="&#x145;" horiz-adv-x="1515" 
d="M225 0v1434h103l901 -1377h2l-2 15v1362h61v-1434h-102l-901 1376h-2l2 -14v-1362h-62zM682 -266q0 27 19 44t49 17q37 0 61.5 -35.5t24.5 -107.5q0 -75 -41.5 -122t-102.5 -52v41q41 5 66.5 33t25.5 79q0 14 -2.5 27t-5.5 19l-2 6q-11 -11 -31 -11q-26 0 -43.5 18
t-17.5 44z" />
    <glyph glyph-name="ncommaaccent" unicode="&#x146;" horiz-adv-x="1177" 
d="M195 0v1004h61v-205h2q45 107 145.5 166t231.5 59q171 0 275 -111.5t104 -308.5v-604h-62v604q0 166 -88 262.5t-229 96.5q-165 0 -272 -109.5t-107 -290.5v-563h-61zM555 -266q0 27 19 44t49 17q37 0 61.5 -35.5t24.5 -107.5q0 -75 -41.5 -122t-102.5 -52v41
q41 5 66.5 33t25.5 79q0 14 -2.5 27t-4.5 19l-3 6q-11 -11 -31 -11q-26 0 -43.5 18t-17.5 44z" />
    <glyph glyph-name="Ncaron" unicode="&#x147;" horiz-adv-x="1515" 
d="M225 0v1434h103l901 -1377h2l-2 15v1362h61v-1434h-102l-901 1376h-2l2 -14v-1362h-62zM512 1905h72l170 -226h28l170 226h72v-2l-215 -285h-82l-215 285v2z" />
    <glyph glyph-name="ncaron" unicode="&#x148;" horiz-adv-x="1177" 
d="M195 0v1004h61v-205h2q45 107 145.5 166t231.5 59q171 0 275 -111.5t104 -308.5v-604h-62v604q0 166 -88 262.5t-229 96.5q-165 0 -272 -109.5t-107 -290.5v-563h-61zM350 1495h72l170 -225h29l170 225h71v-2l-215 -285h-82l-215 285v2z" />
    <glyph glyph-name="Omacron" unicode="&#x14c;" horiz-adv-x="1679" 
d="M123 717q0 162 56 303.5t152.5 241t228.5 156.5t280 57q198 0 361.5 -97t259 -271t95.5 -390t-95.5 -390t-259 -271t-361.5 -97q-148 0 -280 57t-228.5 156.5t-152.5 241t-56 303.5zM184 717q0 -201 87 -361t236.5 -248t332.5 -88t332.5 88t236 248t86.5 361
q0 151 -50.5 281.5t-138 221t-208.5 142t-258 51.5t-258 -51.5t-208.5 -142t-138.5 -221t-51 -281.5zM600 1700v61h481v-61h-481z" />
    <glyph glyph-name="omacron" unicode="&#x14d;" horiz-adv-x="1228" 
d="M113 502q0 146 67.5 266t182.5 188t251 68q137 0 252 -68t182.5 -188t67.5 -266t-67.5 -266t-182.5 -188t-252 -68q-136 0 -251 68t-182.5 188t-67.5 266zM174 502q0 -198 127 -329.5t313 -131.5t313.5 131.5t127.5 329.5t-127.5 329.5t-313.5 131.5t-313 -131.5
t-127 -329.5zM375 1290v62h481v-62h-481z" />
    <glyph glyph-name="Ohungarumlaut" unicode="&#x150;" horiz-adv-x="1679" 
d="M123 717q0 162 56 303.5t152.5 241t228.5 156.5t280 57q198 0 361.5 -97t259 -271t95.5 -390t-95.5 -390t-259 -271t-361.5 -97q-148 0 -280 57t-228.5 156.5t-152.5 241t-56 303.5zM184 717q0 -201 87 -361t236.5 -248t332.5 -88t332.5 88t236 248t86.5 361
q0 151 -50.5 281.5t-138 221t-208.5 142t-258 51.5t-258 -51.5t-208.5 -142t-138.5 -221t-51 -281.5zM926 1618l172 276h80v-2l-195 -274h-57zM655 1618l172 276h80v-2l-194 -274h-58z" />
    <glyph glyph-name="ohungarumlaut" unicode="&#x151;" horiz-adv-x="1228" 
d="M113 502q0 146 67.5 266t182.5 188t251 68q137 0 252 -68t182.5 -188t67.5 -266t-67.5 -266t-182.5 -188t-252 -68q-136 0 -251 68t-182.5 188t-67.5 266zM174 502q0 -198 127 -329.5t313 -131.5t313.5 131.5t127.5 329.5t-127.5 329.5t-313.5 131.5t-313 -131.5
t-127 -329.5zM711 1208l172 277h80v-2l-195 -275h-57zM440 1208l172 277h80v-2l-194 -275h-58z" />
    <glyph glyph-name="OE" unicode="&#x152;" horiz-adv-x="2416" 
d="M123 717q0 166 54 308.5t146.5 240.5t218.5 153.5t267 55.5q209 0 379 -118t246 -323v400h880v-62h-819v-614h666v-62h-666v-635h819v-61h-880v399q-76 -205 -245.5 -322.5t-379.5 -117.5q-141 0 -267 55.5t-218.5 153.5t-146.5 240.5t-54 308.5zM184 717
q0 -154 49 -285.5t133 -221t198.5 -140t244.5 -50.5t244.5 50.5t198.5 140t133 221t49 285.5t-49 285.5t-133 221t-198.5 139.5t-244.5 50t-244.5 -50t-198.5 -139.5t-133 -221t-49 -285.5z" />
    <glyph glyph-name="oe" unicode="&#x153;" horiz-adv-x="2078" 
d="M113 502q0 109 39.5 206.5t105 166.5t153.5 109t183 40q147 0 270.5 -92.5t177.5 -245.5h2q54 153 179 245.5t272 92.5q122 0 230 -67t174.5 -188t66.5 -265v-2h-891q0 -196 124 -328.5t296 -132.5q80 0 149.5 28.5t111.5 69t72 81t42 68.5l12 29h64q-2 -7 -7 -19
t-23.5 -47t-40.5 -67t-60.5 -71t-82 -67t-106 -47t-131.5 -19q-148 0 -272.5 92.5t-178.5 244.5h-2q-54 -153 -177.5 -245t-270.5 -92q-95 0 -183 40t-153.5 109t-105 166.5t-39.5 206.5zM1077 563h824q-20 174 -138.5 287t-267.5 113q-102 0 -192 -50t-151 -142.5
t-75 -207.5zM174 502q0 -196 124 -328.5t296 -132.5t296 132.5t124 328.5t-124 328.5t-296 132.5t-296 -132.5t-124 -328.5z" />
    <glyph glyph-name="Racute" unicode="&#x154;" horiz-adv-x="1392" 
d="M225 0v1434h563q227 0 354.5 -117.5t127.5 -312.5q0 -172 -100.5 -285t-288.5 -139l368 -580h-71l-369 573h-522v-573h-62zM287 635h501q203 0 311.5 98.5t108.5 270.5t-108 270t-312 98h-501v-737zM655 1618l203 276h84v-2l-225 -274h-62z" />
    <glyph glyph-name="racute" unicode="&#x155;" horiz-adv-x="727" 
d="M195 0v1004h61v-216h2q37 105 139 165.5t228 60.5h102v-62h-102q-164 0 -266.5 -108.5t-102.5 -290.5v-553h-61zM399 1208l203 277h84v-2l-225 -275h-62z" />
    <glyph glyph-name="Rcommaaccent" unicode="&#x156;" horiz-adv-x="1392" 
d="M225 0v1434h563q227 0 354.5 -117.5t127.5 -312.5q0 -172 -100.5 -285t-288.5 -139l368 -580h-71l-369 573h-522v-573h-62zM287 635h501q203 0 311.5 98.5t108.5 270.5t-108 270t-312 98h-501v-737zM645 -266q0 27 19 44t49 17q37 0 61.5 -35.5t24.5 -107.5
q0 -75 -41.5 -122t-102.5 -52v41q41 5 67 33t26 79q0 14 -3 27t-5 19l-3 6q-10 -11 -30 -11q-26 0 -44 18t-18 44z" />
    <glyph glyph-name="rcommaaccent" unicode="&#x157;" horiz-adv-x="727" 
d="M195 0v1004h61v-216h2q37 105 139 165.5t228 60.5h102v-62h-102q-164 0 -266.5 -108.5t-102.5 -290.5v-553h-61zM150 -215q0 27 18.5 44t48.5 17q37 0 61.5 -35.5t24.5 -107.5q0 -75 -41 -122t-102 -52v41q41 5 66.5 33.5t25.5 79.5q0 14 -2.5 26.5t-5.5 18.5l-2 6
q-11 -10 -31 -10q-26 0 -43.5 17.5t-17.5 43.5z" />
    <glyph glyph-name="Rcaron" unicode="&#x158;" horiz-adv-x="1392" 
d="M225 0v1434h563q227 0 354.5 -117.5t127.5 -312.5q0 -172 -100.5 -285t-288.5 -139l368 -580h-71l-369 573h-522v-573h-62zM287 635h501q203 0 311.5 98.5t108.5 270.5t-108 270t-312 98h-501v-737zM461 1905h71l170 -226h29l170 226h72v-2l-215 -285h-82l-215 285v2z
" />
    <glyph glyph-name="rcaron" unicode="&#x159;" horiz-adv-x="727" 
d="M195 0v1004h61v-216h2q37 105 139 165.5t228 60.5h102v-62h-102q-164 0 -266.5 -108.5t-102.5 -290.5v-553h-61zM205 1495h71l170 -225h29l170 225h72v-2l-215 -285h-82l-215 285v2z" />
    <glyph glyph-name="Sacute" unicode="&#x15a;" horiz-adv-x="1310" 
d="M123 348h61q2 -7 6 -18.5t21.5 -46t40 -65.5t63.5 -68.5t89 -65t119.5 -46t152.5 -18.5q213 0 331.5 95t118.5 233q0 64 -26.5 115t-71.5 85.5t-105.5 64.5t-128 50.5t-139.5 44t-139.5 45.5t-128 55.5t-105.5 72t-71.5 96.5t-26.5 129q0 73 32.5 139.5t91 118t149 81.5
t198.5 30q90 0 167.5 -19t129 -50t93.5 -68.5t66 -74.5t40 -68t21 -50l6 -19h-62q-2 6 -5 16.5t-18.5 40t-35.5 57t-57.5 60.5t-83 56.5t-114 40t-147.5 16.5q-191 0 -300 -88.5t-109 -218.5q0 -69 32 -122.5t86.5 -89t125.5 -64t149 -52.5t156 -48.5t149 -57.5t125.5 -75
t86.5 -105.5t32 -143.5q0 -78 -34.5 -147.5t-98 -123.5t-162 -86t-217.5 -32q-74 0 -140 13.5t-115.5 36t-92.5 51.5t-72.5 61.5t-53.5 64.5t-38.5 61t-24 51.5t-13.5 35.5zM614 1618l203 276h84v-2l-225 -274h-62z" />
    <glyph glyph-name="sacute" unicode="&#x15b;" horiz-adv-x="1044" 
d="M113 287h65q2 -5 5.5 -14t18.5 -34.5t33 -48.5t50 -51.5t68 -49t88.5 -34.5t111.5 -14q161 0 244.5 63.5t83.5 161.5q0 64 -40 107.5t-104 66.5t-141.5 40t-155.5 36t-142 46t-104 79t-40 127q0 100 100.5 178t267.5 78q65 0 122 -14.5t96.5 -38t72 -52t52 -57t33 -52
t18.5 -38.5l6 -14h-66q-3 8 -10 22t-34 49.5t-61.5 62.5t-95.5 49t-133 22q-144 0 -225.5 -59.5t-81.5 -135.5q0 -62 40 -104t104 -64t141.5 -38.5t155.5 -36t142 -47.5t104 -81.5t40 -130.5q0 -122 -102.5 -204t-286.5 -82q-71 0 -133.5 17t-106 44t-79.5 59.5t-57.5 65.5
t-36.5 60t-21 44zM481 1208l203 277h84v-2l-225 -275h-62z" />
    <glyph glyph-name="Scedilla" unicode="&#x15e;" horiz-adv-x="1310" 
d="M123 348h61q2 -7 6 -18.5t21.5 -46t40 -65.5t63.5 -68.5t89 -65t119.5 -46t152.5 -18.5q213 0 331.5 95t118.5 233q0 64 -26.5 115t-71.5 85.5t-105.5 64.5t-128 50.5t-139.5 44t-139.5 45.5t-128 55.5t-105.5 72t-71.5 96.5t-26.5 129q0 73 32.5 139.5t91 118t149 81.5
t198.5 30q90 0 167.5 -19t129 -50t93.5 -68.5t66 -74.5t40 -68t21 -50l6 -19h-62q-2 6 -5 16.5t-18.5 40t-35.5 57t-57.5 60.5t-83 56.5t-114 40t-147.5 16.5q-191 0 -300 -88.5t-109 -218.5q0 -69 32 -122.5t86.5 -89t125.5 -64t149 -52.5t156 -48.5t149 -57.5t125.5 -75
t86.5 -105.5t32 -143.5q0 -76 -33 -144.5t-93.5 -121.5t-154 -86t-207.5 -37l-36 -76q78 -3 127 -49t49 -121q0 -78 -52 -126t-143 -48q-36 0 -69.5 7.5t-48.5 15.5l-15 8v61q51 -30 133 -30q65 0 99 30t34 82q0 54 -37 83.5t-106 29.5h-62l68 135q-69 3 -131 18t-108 38
t-86 52t-68 60.5t-50.5 63t-36 59.5t-22.5 49.5t-13 34.5z" />
    <glyph glyph-name="scedilla" unicode="&#x15f;" horiz-adv-x="1044" 
d="M113 287h65q2 -5 5.5 -14t18.5 -34.5t33 -48.5t50 -51.5t68 -49t88.5 -34.5t111.5 -14q161 0 244.5 63.5t83.5 161.5q0 64 -40 107.5t-104 66.5t-141.5 40t-155.5 36t-142 46t-104 79t-40 127q0 100 100.5 178t267.5 78q65 0 122 -14.5t96.5 -38t72 -52t52 -57t33 -52
t18.5 -38.5l6 -14h-66q-3 8 -10 22t-34 49.5t-61.5 62.5t-95.5 49t-133 22q-144 0 -225.5 -59.5t-81.5 -135.5q0 -62 40 -104t104 -64t141.5 -38.5t155.5 -36t142 -47.5t104 -81.5t40 -130.5q0 -120 -98.5 -201t-276.5 -85l-47 -97q78 -3 127 -49t49 -121q0 -78 -51.5 -126
t-142.5 -48q-36 0 -69.5 7.5t-48.5 15.5l-15 8v61q51 -30 133 -30q65 0 99 30t34 82q0 54 -37 83.5t-106 29.5h-62l78 156q-63 5 -119.5 24.5t-95 47t-71 59t-52 62.5t-33 56t-19.5 41z" />
    <glyph glyph-name="Scaron" unicode="&#x160;" horiz-adv-x="1310" 
d="M123 348h61q2 -7 6 -18.5t21.5 -46t40 -65.5t63.5 -68.5t89 -65t119.5 -46t152.5 -18.5q213 0 331.5 95t118.5 233q0 64 -26.5 115t-71.5 85.5t-105.5 64.5t-128 50.5t-139.5 44t-139.5 45.5t-128 55.5t-105.5 72t-71.5 96.5t-26.5 129q0 73 32.5 139.5t91 118t149 81.5
t198.5 30q90 0 167.5 -19t129 -50t93.5 -68.5t66 -74.5t40 -68t21 -50l6 -19h-62q-2 6 -5 16.5t-18.5 40t-35.5 57t-57.5 60.5t-83 56.5t-114 40t-147.5 16.5q-191 0 -300 -88.5t-109 -218.5q0 -69 32 -122.5t86.5 -89t125.5 -64t149 -52.5t156 -48.5t149 -57.5t125.5 -75
t86.5 -105.5t32 -143.5q0 -78 -34.5 -147.5t-98 -123.5t-162 -86t-217.5 -32q-74 0 -140 13.5t-115.5 36t-92.5 51.5t-72.5 61.5t-53.5 64.5t-38.5 61t-24 51.5t-13.5 35.5zM399 1905h72l170 -226h29l170 226h71v-2l-215 -285h-82l-215 285v2z" />
    <glyph glyph-name="scaron" unicode="&#x161;" horiz-adv-x="1044" 
d="M113 287h65q2 -5 5.5 -14t18.5 -34.5t33 -48.5t50 -51.5t68 -49t88.5 -34.5t111.5 -14q161 0 244.5 63.5t83.5 161.5q0 64 -40 107.5t-104 66.5t-141.5 40t-155.5 36t-142 46t-104 79t-40 127q0 100 100.5 178t267.5 78q65 0 122 -14.5t96.5 -38t72 -52t52 -57t33 -52
t18.5 -38.5l6 -14h-66q-3 8 -10 22t-34 49.5t-61.5 62.5t-95.5 49t-133 22q-144 0 -225.5 -59.5t-81.5 -135.5q0 -62 40 -104t104 -64t141.5 -38.5t155.5 -36t142 -47.5t104 -81.5t40 -130.5q0 -122 -102.5 -204t-286.5 -82q-71 0 -133.5 17t-106 44t-79.5 59.5t-57.5 65.5
t-36.5 60t-21 44zM270 1495h72l170 -225h29l170 225h71v-2l-215 -285h-82l-215 285v2z" />
    <glyph glyph-name="Tcommaaccent" unicode="&#x162;" horiz-adv-x="1167" 
d="M20 1372v62h1127v-62h-533v-1372h-61v1372h-533zM508 -215q0 27 18.5 44t48.5 17q37 0 62 -35.5t25 -107.5q0 -75 -41.5 -122t-102.5 -52v41q41 5 66.5 33.5t25.5 79.5q0 14 -2.5 26.5t-5.5 18.5l-2 6q-11 -10 -31 -10q-26 0 -43.5 17.5t-17.5 43.5z" />
    <glyph glyph-name="tcommaaccent" unicode="&#x163;" horiz-adv-x="696" 
d="M61 942v62h154v225h61v-225h349v-62h-349v-881h359v-61h-420v942h-154zM358 -266q0 27 19 44t49 17q37 0 61.5 -35.5t24.5 -107.5q0 -75 -41 -122t-102 -52v41q41 5 66.5 33t25.5 79q0 14 -2.5 27t-4.5 19l-3 6q-11 -11 -31 -11q-26 0 -44 18t-18 44z" />
    <glyph glyph-name="Tcaron" unicode="&#x164;" horiz-adv-x="1167" 
d="M20 1372v62h1127v-62h-533v-1372h-61v1372h-533zM328 1905h71l170 -226h29l170 226h72v-2l-215 -285h-82l-215 285v2z" />
    <glyph glyph-name="tcaron" unicode="&#x165;" horiz-adv-x="696" 
d="M399 1178q0 27 19 44t49 17q37 0 61.5 -35.5t24.5 -107.5q0 -75 -41 -122t-102 -52v41q41 5 66.5 33t25.5 79q0 14 -2.5 26.5t-5.5 18.5l-2 6q-11 -10 -31 -10q-26 0 -44 18t-18 44zM61 942v62h154v225h61v-1168h359v-61h-420v942h-154z" />
    <glyph glyph-name="Umacron" unicode="&#x16a;" horiz-adv-x="1474" 
d="M205 524v910h61v-910q0 -237 127 -370.5t344 -133.5t344 133.5t127 370.5v910h62v-910q0 -260 -146.5 -412.5t-386.5 -152.5t-386 152.5t-146 412.5zM498 1700v61h481v-61h-481z" />
    <glyph glyph-name="umacron" unicode="&#x16b;" horiz-adv-x="1208" 
d="M195 399v605h61v-594q0 -179 87 -274t230 -95q165 0 272 109t107 290v564h62v-1004h-62v205h-2q-45 -107 -145.5 -166t-231.5 -59q-171 0 -274.5 111t-103.5 308zM365 1290v62h481v-62h-481z" />
    <glyph glyph-name="Uring" unicode="&#x16e;" horiz-adv-x="1472" 
d="M205 524v910h61v-910q0 -237 127 -370.5t344 -133.5t344 133.5t127 370.5v910h62v-910q0 -260 -146.5 -412.5t-386.5 -152.5t-386 152.5t-146 412.5zM543 1751q0 80 57.5 137.5t136.5 57.5t137 -58t58 -137t-58 -137t-137 -58t-136.5 57.5t-57.5 137.5zM604 1751
q0 -57 38 -95t95 -38t95 38t38 95t-38 95t-95 38t-95 -38t-38 -95z" />
    <glyph glyph-name="uring" unicode="&#x16f;" horiz-adv-x="1208" 
d="M195 399v605h61v-594q0 -179 87 -274t230 -95q165 0 272 109t107 290v564h62v-1004h-62v205h-2q-45 -107 -145.5 -166t-231.5 -59q-171 0 -274.5 111t-103.5 308zM420 1403q0 79 57 136.5t137 57.5t137.5 -57.5t57.5 -136.5t-57.5 -137t-137.5 -58q-79 0 -136.5 57.5
t-57.5 137.5zM481 1403q0 -57 38 -95t95 -38t95.5 38t38.5 95t-38.5 95t-95.5 38t-95 -38t-38 -95z" />
    <glyph glyph-name="Uhungarumlaut" unicode="&#x170;" horiz-adv-x="1474" 
d="M205 524v910h61v-910q0 -237 127 -370.5t344 -133.5t344 133.5t127 370.5v910h62v-910q0 -260 -146.5 -412.5t-386.5 -152.5t-386 152.5t-146 412.5zM823 1618l172 276h80v-2l-194 -274h-58zM553 1618l172 276h80v-2l-195 -274h-57z" />
    <glyph glyph-name="uhungarumlaut" unicode="&#x171;" horiz-adv-x="1208" 
d="M195 399v605h61v-594q0 -179 87 -274t230 -95q165 0 272 109t107 290v564h62v-1004h-62v205h-2q-45 -107 -145.5 -166t-231.5 -59q-171 0 -274.5 111t-103.5 308zM711 1208l172 277h80v-2l-195 -275h-57zM440 1208l172 277h80v-2l-194 -275h-58z" />
    <glyph glyph-name="Uogonek" unicode="&#x172;" horiz-adv-x="1474" 
d="M205 524v910h61v-910q0 -237 127 -370.5t344 -133.5t344 133.5t127 370.5v910h62v-910q0 -221 -107 -366t-291 -185q-32 -16 -62 -36t-62.5 -49.5t-52 -70t-19.5 -83.5q0 -47 36.5 -80t96.5 -33q32 0 62.5 7.5t45.5 15.5l15 8v-62q-51 -30 -123 -30q-83 0 -139 51.5
t-56 122.5q0 40 15 78t36 63.5t42 45t36 29.5l15 9h-21q-240 0 -386 152.5t-146 412.5z" />
    <glyph glyph-name="uogonek" unicode="&#x173;" horiz-adv-x="1208" 
d="M195 399v605h61v-594q0 -179 87 -274t230 -95q165 0 272 109t107 290v564h62v-1004l-27.5 -11t-61.5 -32.5t-78 -54t-61.5 -74t-27.5 -94.5q0 -47 36.5 -80t96.5 -33q32 0 62.5 7.5t45.5 15.5l15 8v-62q-51 -30 -123 -30q-83 0 -139 51.5t-56 122.5q0 52 26.5 101.5
t64 83t75 60.5t64.5 39l26 13v2v172h-2q-45 -107 -145.5 -166t-231.5 -59q-171 0 -274.5 111t-103.5 308z" />
    <glyph glyph-name="Ydieresis" unicode="&#x178;" 
d="M31 1434h71l533 -856h2l530 856h72l-573 -922v-512h-62v512zM748 1741q0 26 17.5 43.5t43.5 17.5t43.5 -17.5t17.5 -43.5t-17.5 -44t-43.5 -18t-43.5 18t-17.5 44zM399 1741q0 26 18 43.5t44 17.5t43.5 -17.5t17.5 -43.5t-17.5 -44t-43.5 -18t-44 18t-18 44z" />
    <glyph glyph-name="Zacute" unicode="&#x179;" horiz-adv-x="1208" 
d="M82 0v61l969 1309v2h-928v62h1003v-62l-968 -1309v-2h968v-61h-1044zM563 1618l203 276h84v-2l-225 -274h-62z" />
    <glyph glyph-name="zacute" unicode="&#x17a;" horiz-adv-x="952" 
d="M82 0v61l711 879v2h-691v62h768v-62l-710 -879v-2h731v-61h-809zM440 1208l203 277h84v-2l-225 -275h-62z" />
    <glyph glyph-name="Zdotaccent" unicode="&#x17b;" horiz-adv-x="1208" 
d="M82 0v61l969 1309v2h-928v62h1003v-62l-968 -1309v-2h968v-61h-1044zM553 1741q0 26 17.5 43.5t43.5 17.5t44 -17.5t18 -43.5t-18 -44t-44 -18t-43.5 18t-17.5 44z" />
    <glyph glyph-name="zdotaccent" unicode="&#x17c;" horiz-adv-x="952" 
d="M82 0v61l711 879v2h-691v62h768v-62l-710 -879v-2h731v-61h-809zM430 1331q0 26 18 44t44 18t43.5 -18t17.5 -44t-17.5 -43.5t-43.5 -17.5t-44 17.5t-18 43.5z" />
    <glyph glyph-name="Zcaron" unicode="&#x17d;" horiz-adv-x="1208" 
d="M82 0v61l969 1309v2h-928v62h1003v-62l-968 -1309v-2h968v-61h-1044zM358 1905h72l170 -226h29l170 226h71v-2l-215 -285h-82l-215 285v2z" />
    <glyph glyph-name="zcaron" unicode="&#x17e;" horiz-adv-x="952" 
d="M82 0v61l711 879v2h-691v62h768v-62l-710 -879v-2h731v-61h-809zM236 1495h71l170 -225h29l170 225h72v-2l-216 -285h-81l-215 285v2z" />
    <glyph glyph-name="florin" unicode="&#x192;" horiz-adv-x="696" 
d="M-123 -389v61h293l178 1270h-143v62h151l62 430h411v-62h-358l-53 -368h289v-62h-297l-187 -1331h-346z" />
    <glyph glyph-name="uni01FA" unicode="&#x1fa;" horiz-adv-x="1361" 
d="M485 1751q0 78 55 135t132 60l106 163h72v-2l-131 -165q66 -14 110.5 -68t44.5 -123q0 -80 -57.5 -137.5t-136.5 -57.5q-80 0 -137.5 58t-57.5 137zM547 1751q0 -57 38 -95t95 -38t95 38t38 95t-38 95t-95 38t-95 -38t-38 -95zM72 0l379 1434h460l379 -1434h-63l-142 532
h-809l-141 -532h-63zM291 594h780l-207 778h-366z" />
    <glyph glyph-name="uni01FB" unicode="&#x1fb;" 
d="M410 1403q0 78 54.5 134.5t131.5 59.5l106 164h72v-2l-131 -166q66 -14 111 -67.5t45 -122.5q0 -79 -57.5 -137t-137.5 -58q-79 0 -136.5 57.5t-57.5 137.5zM471 1403q0 -57 38 -95t95 -38t95 38t38 95t-38 95t-95 38t-95 -38t-38 -95zM113 502q0 227 139.5 374.5
t341.5 147.5q146 0 253 -70.5t165 -185.5h2v236h61v-1004h-61v236h-2q-58 -115 -165 -185.5t-253 -70.5q-202 0 -341.5 147.5t-139.5 374.5zM174 502q0 -204 120 -332.5t300 -128.5t300 128.5t120 332.5t-120 332.5t-300 128.5t-300 -128.5t-120 -332.5z" />
    <glyph glyph-name="uni01FC" unicode="&#x1fc;" horiz-adv-x="1925" 
d="M72 0l379 1434h1372v-62h-809v-614h655v-62h-655v-635h809v-61h-871v532h-676l-141 -532h-63zM291 594h661v778h-454zM963 1618l202 276h84v-2l-225 -274h-61z" />
    <glyph glyph-name="uni01FD" unicode="&#x1fd;" horiz-adv-x="2017" 
d="M143 276q0 127 97.5 212t261.5 85h450v21q0 182 -87.5 275.5t-250.5 93.5q-59 0 -110.5 -14t-88 -36.5t-66.5 -50t-48.5 -55t-31.5 -50t-18 -36.5l-5 -14h-62q2 7 6 18t20 44t36.5 63t56.5 66.5t78 63t103 44.5t130 18q67 0 124.5 -15.5t95.5 -39t68.5 -55t47 -59.5
t28 -57t15 -42.5t4.5 -20.5h2q3 11 15.5 36t48 71t81.5 85t123.5 68t166.5 29q195 0 333 -145.5t138 -364.5v-2h-891q0 -205 120.5 -338t299.5 -133q61 0 115 15t92 39.5t70 54t51.5 59t33.5 54t20 39.5l5 15h63q-2 -7 -6.5 -19t-22 -47t-39 -67t-59.5 -71t-81.5 -67
t-107 -47t-134.5 -19q-95 0 -176 33.5t-127.5 76t-82 96t-46.5 79.5t-15 40h-2q-4 -13 -7 -23.5t-20.5 -46.5t-38 -64.5t-59.5 -66.5t-85 -63t-115 -43t-148 -18q-172 0 -270.5 84t-98.5 212zM205 276q0 -104 79.5 -169.5t227.5 -65.5q198 0 319 117t121 303v51h-450
q-141 0 -219 -66t-78 -170zM1016 573h823q-20 170 -132.5 280t-272.5 110q-166 0 -281 -109.5t-137 -280.5zM932 1208l203 277h84v-2l-226 -275h-61z" />
    <glyph glyph-name="uni01FE" unicode="&#x1fe;" horiz-adv-x="1679" 
d="M92 -10v82l182 168q-6 7 -16.5 21t-36.5 61t-45.5 99t-36 132.5t-16.5 163.5q0 162 56 303.5t152.5 241t228.5 156.5t280 57q97 0 187 -24t149 -58.5t104 -69t66 -58.5l20 -24l221 203v-82l-182 -168q6 -7 16.5 -21t36.5 -61t45.5 -99t36 -132.5t16.5 -163.5
q0 -216 -95.5 -390t-259 -271t-361.5 -97q-97 0 -187.5 24t-149.5 58.5t-104 69t-65 58.5l-21 24zM184 717q0 -77 14 -150.5t34 -123t39.5 -88t33.5 -56.5l14 -18l1002 919q-7 9 -20 23t-58 51t-96.5 65t-134.5 51t-172 23q-137 0 -258 -51.5t-208.5 -142t-138.5 -221
t-51 -281.5zM358 233q7 -9 20 -23t58.5 -51t97 -65t134.5 -51t172 -23q183 0 332.5 88t236 248t86.5 361q0 77 -14 150.5t-33.5 123t-39.5 88t-34 56.5l-14 18zM799 1618l202 276h84v-2l-225 -274h-61z" />
    <glyph glyph-name="uni01FF" unicode="&#x1ff;" horiz-adv-x="1228" 
d="M113 0v80l106 98q-4 5 -11.5 15t-25.5 43t-32 68t-25.5 89t-11.5 109q0 146 67.5 266t182.5 188t251 68q63 0 123 -16t101 -38.5t73 -45t47 -38.5l15 -16l143 134v-80l-106 -99q4 -5 11.5 -15t25.5 -42.5t32 -67.5t25.5 -89t11.5 -109q0 -146 -67.5 -266t-182.5 -188
t-252 -68q-63 0 -123 16t-100.5 38t-72.5 44.5t-47 38.5l-15 16zM174 502q0 -49 9 -96t22 -79.5t26 -57.5t22 -37l9 -13l668 610q-5 5 -13.5 14.5t-38.5 32.5t-64 40.5t-88.5 32t-111.5 14.5q-186 0 -313 -131.5t-127 -329.5zM299 174q4 -5 13 -14t39 -32t63.5 -40.5t88 -32
t111.5 -14.5q186 0 313.5 131.5t127.5 329.5q0 77 -22 147.5t-44 102.5l-22 32zM573 1208l203 277h84v-2l-225 -275h-62z" />
    <glyph glyph-name="Scommaaccent" unicode="&#x218;" horiz-adv-x="1310" 
d="M123 348h61q2 -7 6 -18.5t21.5 -46t40 -65.5t63.5 -68.5t89 -65t119.5 -46t152.5 -18.5q213 0 331.5 95t118.5 233q0 64 -26.5 115t-71.5 85.5t-105.5 64.5t-128 50.5t-139.5 44t-139.5 45.5t-128 55.5t-105.5 72t-71.5 96.5t-26.5 129q0 73 32.5 139.5t91 118t149 81.5
t198.5 30q90 0 167.5 -19t129 -50t93.5 -68.5t66 -74.5t40 -68t21 -50l6 -19h-62q-2 6 -5 16.5t-18.5 40t-35.5 57t-57.5 60.5t-83 56.5t-114 40t-147.5 16.5q-191 0 -300 -88.5t-109 -218.5q0 -69 32 -122.5t86.5 -89t125.5 -64t149 -52.5t156 -48.5t149 -57.5t125.5 -75
t86.5 -105.5t32 -143.5q0 -78 -34.5 -147.5t-98 -123.5t-162 -86t-217.5 -32q-74 0 -140 13.5t-115.5 36t-92.5 51.5t-72.5 61.5t-53.5 64.5t-38.5 61t-24 51.5t-13.5 35.5zM604 -266q0 27 19 44t49 17q37 0 61.5 -35.5t24.5 -107.5q0 -75 -41.5 -122t-102.5 -52v41
q41 5 67 33t26 79q0 14 -2.5 27t-5.5 19l-3 6q-10 -11 -30 -11q-26 0 -44 18t-18 44z" />
    <glyph glyph-name="scommaaccent" unicode="&#x219;" horiz-adv-x="1044" 
d="M113 287h65q2 -5 5.5 -14t18.5 -34.5t33 -48.5t50 -51.5t68 -49t88.5 -34.5t111.5 -14q161 0 244.5 63.5t83.5 161.5q0 64 -40 107.5t-104 66.5t-141.5 40t-155.5 36t-142 46t-104 79t-40 127q0 100 100.5 178t267.5 78q65 0 122 -14.5t96.5 -38t72 -52t52 -57t33 -52
t18.5 -38.5l6 -14h-66q-3 8 -10 22t-34 49.5t-61.5 62.5t-95.5 49t-133 22q-144 0 -225.5 -59.5t-81.5 -135.5q0 -62 40 -104t104 -64t141.5 -38.5t155.5 -36t142 -47.5t104 -81.5t40 -130.5q0 -122 -102.5 -204t-286.5 -82q-71 0 -133.5 17t-106 44t-79.5 59.5t-57.5 65.5
t-36.5 60t-21 44zM467 -266q0 27 19 44t49 17q37 0 61.5 -35.5t24.5 -107.5q0 -75 -41.5 -122t-102.5 -52v41q41 5 66.5 33t25.5 79q0 14 -2.5 27t-4.5 19l-3 6q-11 -11 -31 -11q-26 0 -43.5 18t-17.5 44z" />
    <glyph glyph-name="uni021A" unicode="&#x21a;" horiz-adv-x="1167" 
d="M20 1372v62h1127v-62h-533v-1372h-61v1372h-533zM508 -215q0 27 18.5 44t48.5 17q37 0 62 -35.5t25 -107.5q0 -75 -41.5 -122t-102.5 -52v41q41 5 66.5 33.5t25.5 79.5q0 14 -2.5 26.5t-5.5 18.5l-2 6q-11 -10 -31 -10q-26 0 -43.5 17.5t-17.5 43.5z" />
    <glyph glyph-name="uni021B" unicode="&#x21b;" horiz-adv-x="696" 
d="M61 942v62h154v225h61v-225h349v-62h-349v-881h359v-61h-420v942h-154zM358 -266q0 27 19 44t49 17q37 0 61.5 -35.5t24.5 -107.5q0 -75 -41 -122t-102 -52v41q41 5 66.5 33t25.5 79q0 14 -2.5 27t-4.5 19l-3 6q-11 -11 -31 -11q-26 0 -44 18t-18 44z" />
    <glyph glyph-name="afii57929" unicode="&#x2bc;" horiz-adv-x="276" 
d="M61 1382q0 27 19 44.5t49 17.5q37 0 61.5 -36t24.5 -108q0 -75 -41 -122t-102 -52v41q41 5 66.5 33.5t25.5 79.5q0 14 -2.5 26.5t-5.5 18.5l-2 6q-11 -10 -31 -10q-26 0 -44 17.5t-18 43.5z" />
    <glyph glyph-name="circumflex" unicode="&#x2c6;" horiz-adv-x="634" 
d="M61 1139l215 284h82l215 -284v-2h-71l-170 225h-29l-170 -225h-72v2z" />
    <glyph glyph-name="caron" unicode="&#x2c7;" horiz-adv-x="634" 
d="M61 1423h72l170 -225h29l170 225h71v-2l-215 -284h-82l-215 284v2z" />
    <glyph glyph-name="breve" unicode="&#x2d8;" horiz-adv-x="634" 
d="M61 1382h62q0 -71 52 -117t142 -46t142.5 46t52.5 117h61q0 -94 -71.5 -159.5t-184.5 -65.5t-184.5 65.5t-71.5 159.5z" />
    <glyph glyph-name="dotaccent" unicode="&#x2d9;" horiz-adv-x="245" 
d="M61 1352q0 26 18 43.5t44 17.5t43.5 -17.5t17.5 -43.5t-17.5 -44t-43.5 -18t-44 18t-18 44z" />
    <glyph glyph-name="ring" unicode="&#x2da;" horiz-adv-x="512" 
d="M61 1219q0 79 57.5 136.5t137.5 57.5t137.5 -57.5t57.5 -136.5t-57.5 -137t-137.5 -58t-137.5 58t-57.5 137zM123 1219q0 -57 38 -95.5t95 -38.5t95 38.5t38 95.5t-38 95t-95 38t-95 -38t-38 -95z" />
    <glyph glyph-name="ogonek" unicode="&#x2db;" horiz-adv-x="440" 
d="M61 -266q0 52 26.5 101.5t64 83t75 60.5t63.5 39l27 13l62 -31l-27.5 -11t-61.5 -32.5t-78 -54t-61.5 -74t-27.5 -94.5q0 -47 36.5 -80t96.5 -33q32 0 63 7.5t45 15.5l15 8v-62q-51 -30 -123 -30q-83 0 -139 51.5t-56 122.5z" />
    <glyph glyph-name="tilde" unicode="&#x2dc;" horiz-adv-x="675" 
d="M61 1208v41q0 68 41 111t103 43q41 0 81 -22.5t66 -49t58.5 -49t60.5 -22.5q82 0 82 92v41h61v-41q0 -68 -40.5 -111t-102.5 -43q-41 0 -81 22.5t-66 49t-58.5 49t-60.5 22.5q-39 0 -60.5 -23.5t-21.5 -68.5v-41h-62z" />
    <glyph glyph-name="hungarumlaut" unicode="&#x2dd;" horiz-adv-x="645" 
d="M332 1147l172 276h80v-2l-195 -274h-57zM61 1147l172 276h80v-2l-194 -274h-58z" />
    <glyph glyph-name="uni0301" unicode="&#x301;" horiz-adv-x="0" 
d="M-809 1690l143 225h72v-2l-174 -223h-41z" />
    <glyph glyph-name="uni030A" unicode="&#x30a;" horiz-adv-x="0" 
d="M-881 1556q0 80 57.5 137.5t137.5 57.5q79 0 136.5 -57.5t57.5 -137.5t-57 -137t-137 -57t-137.5 57.5t-57.5 136.5zM-819 1556q0 -57 38 -95t95 -38t95 38t38 95t-38 95.5t-95 38.5t-95 -38.5t-38 -95.5z" />
    <glyph glyph-name="afii10023" unicode="&#x401;" horiz-adv-x="1249" 
d="M225 0v1434h922v-62h-860v-614h706v-62h-706v-635h860v-61h-922zM809 1700q0 26 17.5 43.5t43.5 17.5t44 -17.5t18 -43.5t-18 -44t-44 -18t-43.5 18t-17.5 44zM461 1700q0 26 17.5 43.5t43.5 17.5t44 -17.5t18 -43.5t-18 -44t-44 -18t-43.5 18t-17.5 44z" />
    <glyph glyph-name="afii10051" unicode="&#x402;" horiz-adv-x="1576" 
d="M20 1372v62h1045v-62h-522v-522h430q228 0 354.5 -121t126.5 -330v-563h-389v62h328v501q0 186 -107.5 287.5t-312.5 101.5h-430v-788h-62v1372h-461z" />
    <glyph glyph-name="afii10052" unicode="&#x403;" horiz-adv-x="1146" 
d="M287 0h-62v1434h881v-62h-819v-1372zM625 1587l202 277h84v-2l-225 -275h-61z" />
    <glyph glyph-name="afii10053" unicode="&#x404;" horiz-adv-x="1638" 
d="M123 717q0 162 56 303.5t151 241t225 156.5t274 57q111 0 208.5 -27.5t165.5 -72t124 -98t90 -107t57.5 -98t32.5 -72.5l9 -27h-62q-3 9 -8.5 25t-29.5 61.5t-53 87t-81.5 92.5t-113.5 87.5t-150 61.5t-189 25q-173 0 -316.5 -82t-231 -232t-97.5 -341h676v-62h-676
q5 -195 92.5 -350.5t232.5 -240.5t320 -85q102 0 192.5 26t153 67.5t114.5 92t83.5 101t53 92t30.5 67.5l8 26h62q-3 -11 -9.5 -30.5t-32 -74.5t-58.5 -105.5t-91 -112t-126 -105.5t-167.5 -74.5t-212.5 -30.5q-144 0 -274 57t-225 156.5t-151 241t-56 303.5z" />
    <glyph glyph-name="afii10054" unicode="&#x405;" horiz-adv-x="1310" 
d="M123 348h61q2 -7 6 -18.5t21.5 -46t40 -65.5t63.5 -68.5t89 -65t119.5 -46t152.5 -18.5q213 0 331.5 95t118.5 233q0 64 -26.5 115t-71.5 85.5t-105.5 64.5t-128 50.5t-139.5 44t-139.5 45.5t-128 55.5t-105.5 72t-71.5 96.5t-26.5 129q0 73 32.5 139.5t91 118t149 81.5
t198.5 30q90 0 167.5 -19t129 -50t93.5 -68.5t66 -74.5t40 -68t21 -50l6 -19h-62q-2 6 -5 16.5t-18.5 40t-35.5 57t-57.5 60.5t-83 56.5t-114 40t-147.5 16.5q-191 0 -300 -88.5t-109 -218.5q0 -69 32 -122.5t86.5 -89t125.5 -64t149 -52.5t156 -48.5t149 -57.5t125.5 -75
t86.5 -105.5t32 -143.5q0 -78 -34.5 -147.5t-98 -123.5t-162 -86t-217.5 -32q-74 0 -140 13.5t-115.5 36t-92.5 51.5t-72.5 61.5t-53.5 64.5t-38.5 61t-24 51.5t-13.5 35.5z" />
    <glyph glyph-name="afii10055" unicode="&#x406;" horiz-adv-x="512" 
d="M225 0v1434h62v-1434h-62z" />
    <glyph glyph-name="afii10056" unicode="&#x407;" horiz-adv-x="512" 
d="M225 0v1434h62v-1434h-62zM369 1700q0 26 17.5 43.5t43.5 17.5t44 -17.5t18 -43.5t-18 -44t-44 -18t-43.5 18t-17.5 44zM20 1700q0 26 18 43.5t44 17.5t43.5 -17.5t17.5 -43.5t-17.5 -44t-43.5 -18t-44 18t-18 44z" />
    <glyph glyph-name="afii10057" unicode="&#x408;" horiz-adv-x="1136" 
d="M10 317l62 11q1 -6 4 -17.5t16.5 -43.5t31 -61t50.5 -64.5t73.5 -61t101.5 -43t132 -17.5q186 0 293 111t107 309v994h61v-994q0 -229 -122 -355t-339 -126q-81 0 -151 19.5t-117 51.5t-84.5 70t-59 76t-35.5 70t-19 52z" />
    <glyph glyph-name="afii10058" unicode="&#x409;" horiz-adv-x="2078" 
d="M72 0l368 1434h604v-533h461q227 0 359.5 -124t132.5 -326t-132.5 -326.5t-359.5 -124.5h-522v1372h-496l-352 -1372h-63zM1044 61h461q204 0 317 105t113 285t-113 284.5t-317 104.5h-461v-779z" />
    <glyph glyph-name="afii10059" unicode="&#x40a;" horiz-adv-x="2283" 
d="M225 0v1434h62v-615h901v615h61v-615h482q218 0 344.5 -114t126.5 -295t-126.5 -295.5t-344.5 -114.5h-543v758h-901v-758h-62zM1249 61h482q195 0 302 95.5t107 253.5t-107 253t-302 95h-482v-697z" />
    <glyph glyph-name="afii10060" unicode="&#x40b;" horiz-adv-x="1576" 
d="M20 1372v62h1045v-62h-522v-522h430q228 0 354.5 -121t126.5 -330v-399h-61v399q0 186 -107.5 287.5t-312.5 101.5h-430v-788h-62v1372h-461z" />
    <glyph glyph-name="afii10061" unicode="&#x40c;" horiz-adv-x="1280" 
d="M225 0v1434h62v-676h377l489 676h76l-512 -707l532 -727h-78l-509 696h-375v-696h-62zM655 1587l203 277h84v-2l-225 -275h-62z" />
    <glyph glyph-name="afii10062" unicode="&#x40e;" horiz-adv-x="1259" 
d="M72 1434h61l313 -830h367l332 830h63l-573 -1434h-64l217 543h-378zM358 1843h62q0 -86 58.5 -140t156.5 -54t156.5 54t58.5 140h61q0 -109 -77.5 -182.5t-198.5 -73.5t-199 73.5t-78 182.5z" />
    <glyph glyph-name="afii10145" unicode="&#x40f;" horiz-adv-x="1495" 
d="M717 0h-492v1434h62v-1373h921v1373h62v-1434h-492v-287h-61v287z" />
    <glyph glyph-name="afii10017" unicode="&#x410;" horiz-adv-x="1361" 
d="M72 0l379 1434h460l379 -1434h-63l-142 532h-809l-141 -532h-63zM291 594h780l-207 778h-366z" />
    <glyph glyph-name="afii10018" unicode="&#x411;" horiz-adv-x="1392" 
d="M225 0v1434h922v-62h-860v-512h491q219 0 350.5 -121t131.5 -309t-131.5 -309t-350.5 -121h-553zM287 61h491q196 0 308 102t112 267t-112 267t-308 102h-491v-738z" />
    <glyph glyph-name="afii10019" unicode="&#x412;" horiz-adv-x="1454" 
d="M1034 754v-2q119 -35 198 -135t79 -228q0 -165 -122.5 -277t-318.5 -112h-645v1434h645q167 0 273 -102t106 -257q0 -118 -59 -201t-156 -120zM287 778h583q145 0 231.5 82.5t86.5 214.5t-86.5 214.5t-231.5 82.5h-583v-594zM287 61h583q173 0 276 93t103 235t-103 235
t-276 93h-583v-656z" />
    <glyph glyph-name="afii10020" unicode="&#x413;" horiz-adv-x="1146" 
d="M287 0h-62v1434h881v-62h-819v-1372z" />
    <glyph glyph-name="afii10021" unicode="&#x414;" horiz-adv-x="1454" 
d="M10 -287v348h158l334 1373h450l334 -1373h158v-348h-62v287h-1310v-287h-62zM231 61h992l-318 1311h-356z" />
    <glyph glyph-name="afii10022" unicode="&#x415;" horiz-adv-x="1249" 
d="M225 0v1434h922v-62h-860v-614h706v-62h-706v-635h860v-61h-922z" />
    <glyph glyph-name="afii10024" unicode="&#x416;" horiz-adv-x="1986" 
d="M31 0l522 727l-502 707h76l479 -676h357v676h61v-676h356l480 676h75l-501 -707l522 -727h-78l-500 696h-354v-696h-61v696h-355l-499 -696h-78z" />
    <glyph glyph-name="afii10025" unicode="&#x417;" horiz-adv-x="1300" 
d="M850 752v-2q7 -1 18 -4t44 -16t63 -30t66.5 -48t63 -68.5t44.5 -93.5t18 -121q0 -81 -36 -155t-100.5 -130.5t-162.5 -90.5t-213 -34q-96 0 -178.5 23t-137.5 60t-99 82t-69 90t-41.5 82t-21.5 60l-6 23h62q2 -8 5 -20.5t19 -50t37 -71.5t60.5 -75.5t88 -71t122 -50
t159.5 -20.5q206 0 328.5 102.5t122.5 246.5q0 153 -118 250.5t-333 97.5h-184v61h184q193 0 301.5 92.5t108.5 235.5q0 130 -109.5 218.5t-300.5 88.5q-75 0 -140.5 -18t-110 -47t-81 -64t-58 -70t-35.5 -64t-20 -47l-5 -18h-62q2 8 6 22t22 54.5t41 77.5t65 82t92.5 77.5
t125 54.5t160.5 22q108 0 198.5 -30t149 -81.5t91 -118t32.5 -139.5q0 -59 -15 -110t-39.5 -86t-54 -63.5t-59 -45.5t-54 -28.5t-39.5 -16.5z" />
    <glyph glyph-name="afii10026" unicode="&#x418;" horiz-adv-x="1515" 
d="M317 0h-92v1434h62v-1342l-2 -24h2l911 1366h92v-1434h-61v1343l2 23h-2z" />
    <glyph glyph-name="afii10027" unicode="&#x419;" horiz-adv-x="1515" 
d="M317 0h-92v1434h62v-1342l-2 -24h2l911 1366h92v-1434h-61v1343l2 23h-2zM481 1843h62q0 -86 58.5 -140t156.5 -54t156.5 54t58.5 140h61q0 -109 -77.5 -182.5t-198.5 -73.5t-199 73.5t-78 182.5z" />
    <glyph glyph-name="afii10028" unicode="&#x41a;" horiz-adv-x="1280" 
d="M225 0v1434h62v-676h377l489 676h76l-512 -707l532 -727h-78l-509 696h-375v-696h-62z" />
    <glyph glyph-name="afii10029" unicode="&#x41b;" horiz-adv-x="1341" 
d="M72 0l368 1434h461l369 -1434h-64l-352 1372h-367l-352 -1372h-63z" />
    <glyph glyph-name="afii10030" unicode="&#x41c;" horiz-adv-x="1894" 
d="M225 0v1434h103l530 -983h178l531 983h102v-1434h-61v1362l2 16h-2l-533 -989h-256l-532 989h-2l2 -16v-1362h-62z" />
    <glyph glyph-name="afii10031" unicode="&#x41d;" horiz-adv-x="1495" 
d="M225 0v1434h62v-676h921v676h62v-1434h-62v696h-921v-696h-62z" />
    <glyph glyph-name="afii10032" unicode="&#x41e;" horiz-adv-x="1679" 
d="M123 717q0 162 56 303.5t152.5 241t228.5 156.5t280 57q198 0 361.5 -97t259 -271t95.5 -390t-95.5 -390t-259 -271t-361.5 -97q-148 0 -280 57t-228.5 156.5t-152.5 241t-56 303.5zM184 717q0 -201 87 -361t236.5 -248t332.5 -88t332.5 88t236 248t86.5 361
q0 151 -50.5 281.5t-138 221t-208.5 142t-258 51.5t-258 -51.5t-208.5 -142t-138.5 -221t-51 -281.5z" />
    <glyph glyph-name="afii10033" unicode="&#x41f;" horiz-adv-x="1484" 
d="M225 0v1434h1035v-1434h-62v1372h-911v-1372h-62z" />
    <glyph glyph-name="afii10034" unicode="&#x420;" horiz-adv-x="1372" 
d="M225 0v1434h553q227 0 359.5 -124.5t132.5 -326.5t-132.5 -326.5t-359.5 -124.5h-491v-532h-62zM287 594h491q204 0 317 104.5t113 284.5t-113 284.5t-317 104.5h-491v-778z" />
    <glyph glyph-name="afii10035" unicode="&#x421;" horiz-adv-x="1638" 
d="M123 717q0 162 56 303.5t151 241t225 156.5t274 57q111 0 208.5 -27.5t165.5 -72t124 -98t90 -107t57.5 -98t32.5 -72.5l9 -27h-62q-3 9 -8.5 25t-29.5 61.5t-53 87t-81.5 92.5t-113.5 87.5t-150 61.5t-189 25q-133 0 -251.5 -51.5t-205.5 -142t-137.5 -221t-50.5 -281.5
t50.5 -281.5t137.5 -221t205.5 -142.5t251.5 -52q102 0 192.5 26t153 67.5t114.5 92t83.5 101t53 92t30.5 67.5l8 26h62q-3 -11 -9.5 -30.5t-32 -74.5t-58.5 -105.5t-91 -112t-126 -105.5t-167.5 -74.5t-212.5 -30.5q-144 0 -274 57t-225 156.5t-151 241t-56 303.5z" />
    <glyph glyph-name="afii10036" unicode="&#x422;" horiz-adv-x="1167" 
d="M20 1372v62h1127v-62h-533v-1372h-61v1372h-533z" />
    <glyph glyph-name="afii10037" unicode="&#x423;" horiz-adv-x="1259" 
d="M72 1434h61l313 -830h367l332 830h63l-573 -1434h-64l217 543h-378z" />
    <glyph glyph-name="afii10038" unicode="&#x424;" horiz-adv-x="1781" 
d="M102 727q0 127 54.5 242t151 202.5t240.5 139t312 51.5v164h62v-164q135 0 255 -33.5t211 -93t157 -139t100 -174t34 -195.5t-34 -195.5t-100 -174t-157 -139t-211 -93t-255 -33.5v-164h-62v164q-168 0 -312 51.5t-240.5 139t-151 202.5t-54.5 242zM922 154
q157 0 289.5 46.5t220.5 125t137 182.5t49 219t-49 219t-137 182.5t-220.5 125t-289.5 46.5v-1146zM164 727q0 -115 49 -219t137 -182.5t220.5 -125t289.5 -46.5v1146q-157 0 -289.5 -46.5t-220.5 -125t-137 -182.5t-49 -219z" />
    <glyph glyph-name="afii10039" unicode="&#x425;" horiz-adv-x="1290" 
d="M61 0l400 727l-369 707h70l350 -676h266l350 676h70l-369 -707l400 -727h-72l-383 696h-258l-383 -696h-72z" />
    <glyph glyph-name="afii10040" unicode="&#x426;" horiz-adv-x="1454" 
d="M225 0v1434h62v-1373h860v1373h61v-1373h185v-348h-62v287h-1106z" />
    <glyph glyph-name="afii10041" unicode="&#x427;" horiz-adv-x="1402" 
d="M195 942v492h61v-482q0 -198 106.5 -309t292.5 -111q74 0 149 15t129 37t97 44t64 37l22 15v754h62v-1434h-62v604q-8 -5 -22.5 -14t-62.5 -32t-99 -40.5t-127 -32t-150 -14.5q-216 0 -338 124.5t-122 346.5z" />
    <glyph glyph-name="afii10042" unicode="&#x428;" horiz-adv-x="2068" 
d="M225 0v1434h62v-1373h717v1373h61v-1373h717v1373h61v-1434h-1618z" />
    <glyph glyph-name="afii10043" unicode="&#x429;" horiz-adv-x="2088" 
d="M225 0v1434h62v-1373h717v1373h61v-1373h717v1373h61v-1373h185v-348h-62v287h-1741z" />
    <glyph glyph-name="afii10044" unicode="&#x42a;" horiz-adv-x="1443" 
d="M0 1372v62h410v-533h460q227 0 359.5 -124t132.5 -326t-132.5 -326.5t-359.5 -124.5h-522v1372h-348zM410 61h460q204 0 317 105t113 285t-113 284.5t-317 104.5h-460v-779z" />
    <glyph glyph-name="afii10045" unicode="&#x42b;" horiz-adv-x="1730" 
d="M1444 0v1434h61v-1434h-61zM225 0v1434h62v-533h461q227 0 359 -124t132 -326t-132 -326.5t-359 -124.5h-523zM287 61h461q204 0 317 105t113 285t-113 284.5t-317 104.5h-461v-779z" />
    <glyph glyph-name="afii10046" unicode="&#x42c;" horiz-adv-x="1341" 
d="M225 0v1434h62v-533h481q227 0 359.5 -124t132.5 -326t-132.5 -326.5t-359.5 -124.5h-543zM287 61h481q204 0 317 105t113 285t-113 284.5t-317 104.5h-481v-779z" />
    <glyph glyph-name="afii10047" unicode="&#x42d;" horiz-adv-x="1638" 
d="M113 492h61q3 -10 9 -27t29.5 -66t53 -93.5t83 -99t115 -93.5t152.5 -66t193 -27q177 0 322.5 86.5t231.5 241.5t91 348h-676v62h676q-7 140 -59 261.5t-136.5 208t-201 136t-248.5 49.5q-100 0 -189 -24.5t-150.5 -63t-112.5 -85.5t-82 -94t-52.5 -85.5t-30.5 -62.5
l-8 -25h-61q3 10 9.5 28.5t32 70.5t57.5 99.5t89 105.5t124 99.5t165 70t209 28.5q144 0 274 -57t225.5 -156.5t151.5 -241t56 -303.5t-56 -303.5t-151.5 -241t-225.5 -156.5t-274 -57q-89 0 -169.5 18t-141.5 49t-115 71t-92 84.5t-69.5 88.5t-51 84t-33 71t-19.5 49z" />
    <glyph glyph-name="afii10048" unicode="&#x42e;" horiz-adv-x="2088" 
d="M225 0v1434h62v-676h307q7 154 65.5 288.5t151 228t214.5 147t255 53.5q137 0 262.5 -57t219 -156t149 -241.5t55.5 -303.5t-55.5 -303.5t-149 -241.5t-219 -156t-262.5 -57q-133 0 -256.5 55.5t-217 151.5t-151 234.5t-61.5 295.5h-307v-696h-62zM655 717
q0 -150 50.5 -281t135.5 -221.5t199 -142.5t240 -52t240 52t199 142.5t135.5 221.5t50.5 281t-50.5 281t-135.5 221.5t-199 142t-240 51.5t-240 -51.5t-199 -142t-135.5 -221.5t-50.5 -281z" />
    <glyph glyph-name="afii10049" unicode="&#x42f;" horiz-adv-x="1423" 
d="M154 1004q0 195 127 312.5t354 117.5h563v-1434h-61v573h-559l-332 -573h-72l338 584q-173 30 -265.5 142.5t-92.5 277.5zM215 1004q0 -172 108.5 -270.5t311.5 -98.5h502v737h-502q-204 0 -312 -98t-108 -270z" />
    <glyph glyph-name="afii10065" unicode="&#x430;" 
d="M113 502q0 227 139.5 374.5t341.5 147.5q146 0 253 -70.5t165 -185.5h2v236h61v-1004h-61v236h-2q-58 -115 -165 -185.5t-253 -70.5q-202 0 -341.5 147.5t-139.5 374.5zM174 502q0 -204 120 -332.5t300 -128.5t300 128.5t120 332.5t-120 332.5t-300 128.5t-300 -128.5
t-120 -332.5z" />
    <glyph glyph-name="afii10066" unicode="&#x431;" horiz-adv-x="1157" 
d="M184 696h2q5 9 14 24.5t44.5 54.5t78 68.5t115.5 54t156 24.5q200 0 335.5 -136t135.5 -335t-135.5 -335t-335.5 -136q-202 0 -336.5 142.5t-134.5 369.5v102q0 184 27.5 327t78 239t125 158t164 89t199.5 27h256v-62h-256q-498 0 -533 -676zM184 492q0 -204 115 -327.5
t295 -123.5q177 0 293.5 116.5t116.5 293.5t-116.5 293t-293.5 116q-174 0 -292 -109.5t-118 -258.5z" />
    <glyph glyph-name="afii10067" unicode="&#x432;" horiz-adv-x="1095" 
d="M803 526v-2q132 -53 168 -167q12 -39 12 -81q0 -127 -87 -201.5t-251 -74.5h-450v1004h471q121 0 198.5 -73.5t77.5 -182.5q0 -54 -18.5 -98t-48.5 -71t-43.5 -36.5t-28.5 -16.5zM256 61h389q134 0 205.5 59.5t71.5 155.5t-72 156t-205 60h-389v-431zM256 553h410
q98 0 156.5 54.5t58.5 140.5t-58.5 140t-156.5 54h-410v-389z" />
    <glyph glyph-name="afii10068" unicode="&#x433;" horiz-adv-x="860" 
d="M195 0v1004h655v-62h-594v-942h-61z" />
    <glyph glyph-name="afii10069" unicode="&#x434;" horiz-adv-x="1105" 
d="M10 -246v307h119l250 943h348l250 -943h119v-307h-62v246h-962v-246h-62zM193 61h720l-233 881h-254z" />
    <glyph glyph-name="afii10070" unicode="&#x435;" horiz-adv-x="1218" 
d="M113 502q0 146 67.5 266t182.5 188t251 68q132 0 244.5 -67.5t180 -187.5t67.5 -265v-2h-932q0 -198 127 -329.5t313 -131.5q63 0 119 15t96 39.5t74 54t55.5 59t36.5 54t21 39.5l6 15h63q-2 -7 -7 -19t-24 -47t-41.5 -67t-62.5 -71t-86 -67t-111.5 -47t-138.5 -19
q-136 0 -251 68t-182.5 188t-67.5 266zM176 563h864q-20 175 -141.5 287.5t-284.5 112.5q-170 0 -293 -112t-145 -288z" />
    <glyph glyph-name="afii10072" unicode="&#x436;" horiz-adv-x="1515" 
d="M20 0l390 522l-359 482h74l336 -451h266v451h61v-451h267l336 451h73l-358 -482l389 -522h-78l-366 492h-263v-492h-61v492h-262l-367 -492h-78z" />
    <glyph glyph-name="afii10073" unicode="&#x437;" horiz-adv-x="993" 
d="M668 526v-2q1 0 3 -1q18 -6 34 -12.5t51.5 -28t60 -47.5t44.5 -71t20 -98q0 -122 -102.5 -204t-286.5 -82q-75 0 -139.5 16.5t-107.5 42.5t-77.5 57.5t-53.5 63t-32 57.5t-17 43l-4 16h64q2 -10 8 -25.5t33 -56t64 -71.5t106.5 -56.5t155.5 -25.5q161 0 244 63.5
t83 161.5t-83 162t-244 64h-144v61h144q147 0 221.5 57.5t74.5 147.5t-74.5 147.5t-221.5 57.5q-77 0 -140 -20t-97.5 -48.5t-58 -57.5t-30.5 -49l-8 -20h-66q2 5 5 14.5t17 36t32 50.5t51 53.5t72 51t97.5 36t125.5 14.5q170 0 264 -76.5t94 -189.5q0 -49 -18 -90.5
t-40 -64.5t-53.5 -42.5t-44 -24.5t-26.5 -10z" />
    <glyph glyph-name="afii10074" unicode="&#x438;" horiz-adv-x="1198" 
d="M195 0v1004h61v-912l-2 -16h2l666 928h82v-1004h-62v911l2 17h-2l-666 -928h-81z" />
    <glyph glyph-name="afii10075" unicode="&#x439;" horiz-adv-x="1198" 
d="M195 0v1004h61v-912l-2 -16h2l666 928h82v-1004h-62v911l2 17h-2l-666 -928h-81zM348 1372h62q0 -71 52 -117.5t142 -46.5t142.5 46.5t52.5 117.5h61q0 -94 -71.5 -159.5t-184.5 -65.5t-184.5 65.5t-71.5 159.5z" />
    <glyph glyph-name="afii10076" unicode="&#x43a;" horiz-adv-x="1034" 
d="M195 0v1004h61v-451h309l344 451h74l-369 -482l400 -522h-78l-375 492h-305v-492h-61z" />
    <glyph glyph-name="afii10077" unicode="&#x43b;" horiz-adv-x="1054" 
d="M125 0h-64l287 1004h359l286 -1004h-63l-271 942h-264z" />
    <glyph glyph-name="afii10078" unicode="&#x43c;" horiz-adv-x="1433" 
d="M195 0v1004h102l365 -656h110l365 656h102v-1004h-61v932l2 16h-2l-369 -661h-184l-369 661l-2 -2l2 -14v-932h-61z" />
    <glyph glyph-name="afii10079" unicode="&#x43d;" horiz-adv-x="1198" 
d="M195 0v1004h61v-461h686v461h62v-1004h-62v481h-686v-481h-61z" />
    <glyph glyph-name="afii10080" unicode="&#x43e;" horiz-adv-x="1228" 
d="M113 502q0 146 67.5 266t182.5 188t251 68q137 0 252 -68t182.5 -188t67.5 -266t-67.5 -266t-182.5 -188t-252 -68q-136 0 -251 68t-182.5 188t-67.5 266zM174 502q0 -198 127 -329.5t313 -131.5t313.5 131.5t127.5 329.5t-127.5 329.5t-313.5 131.5t-313 -131.5
t-127 -329.5z" />
    <glyph glyph-name="afii10081" unicode="&#x43f;" horiz-adv-x="1187" 
d="M195 0v1004h798v-1004h-61v942h-676v-942h-61z" />
    <glyph glyph-name="afii10082" unicode="&#x440;" 
d="M195 -389v1393h61v-236h2q58 115 165 185.5t253 70.5q202 0 341.5 -147.5t139.5 -374.5t-139.5 -374.5t-341.5 -147.5q-146 0 -253 70.5t-165 185.5h-2v-625h-61zM256 502q0 -204 120 -332.5t300 -128.5t300 128.5t120 332.5t-120 332.5t-300 128.5t-300 -128.5
t-120 -332.5z" />
    <glyph glyph-name="afii10083" unicode="&#x441;" horiz-adv-x="1177" 
d="M113 502q0 145 67 265.5t179.5 188.5t244.5 68q73 0 138.5 -18.5t111 -48.5t84 -66t62.5 -72t40.5 -66t23.5 -49l7 -18h-65q-4 11 -12 30t-41 66.5t-74.5 84t-115 66.5t-159.5 30q-179 0 -304.5 -132t-125.5 -329t125.5 -329t304.5 -132q67 0 126 17.5t100.5 45.5
t75.5 61.5t55 67.5t35.5 62t19.5 45l6 18h63q-2 -8 -6.5 -21.5t-22.5 -53t-40.5 -75t-63 -79t-87.5 -75t-115.5 -53t-145.5 -21.5q-132 0 -244.5 68t-179.5 188.5t-67 265.5z" />
    <glyph glyph-name="afii10084" unicode="&#x442;" horiz-adv-x="860" 
d="M10 942v62h840v-62h-389v-942h-62v942h-389z" />
    <glyph glyph-name="afii10085" unicode="&#x443;" horiz-adv-x="1034" 
d="M82 1004h63l250 -943h250l285 943h63l-420 -1393h-63l117 389h-279z" />
    <glyph glyph-name="afii10086" unicode="&#x444;" horiz-adv-x="1351" 
d="M113 502q0 141 70.5 261.5t193 190.5t268.5 70v410h62v-410q146 0 268.5 -70t193 -190.5t70.5 -261.5t-70.5 -261.5t-193 -190.5t-268.5 -70v-369h-62v369q-146 0 -268.5 70t-193 190.5t-70.5 261.5zM707 41q131 0 239 61.5t170 167.5t62 232t-62 232t-170 167.5
t-239 61.5v-922zM174 502q0 -126 62 -232t170 -167.5t239 -61.5v922q-131 0 -239 -61.5t-170 -167.5t-62 -232z" />
    <glyph glyph-name="afii10087" unicode="&#x445;" horiz-adv-x="952" 
d="M31 0l297 522l-277 482h64l258 -451h207l258 451h63l-276 -482l297 -522h-66l-278 492h-203l-279 -492h-65z" />
    <glyph glyph-name="afii10088" unicode="&#x446;" horiz-adv-x="1177" 
d="M195 0v1004h61v-943h645v943h62v-943h163v-307h-61v246h-870z" />
    <glyph glyph-name="afii10089" unicode="&#x447;" horiz-adv-x="1126" 
d="M164 666v338h61v-338q0 -139 76 -213t221 -74q55 0 110.5 11t96.5 27t74 32t50 27l17 11v517h62v-1004h-62v420q-6 -4 -17.5 -11t-48.5 -25t-75.5 -31.5t-95 -24.5t-111.5 -11q-168 0 -263 93.5t-95 255.5z" />
    <glyph glyph-name="afii10090" unicode="&#x448;" horiz-adv-x="1638" 
d="M195 0v1004h61v-943h532v943h62v-943h532v943h62v-1004h-1249z" />
    <glyph glyph-name="afii10091" unicode="&#x449;" horiz-adv-x="1658" 
d="M195 0v1004h61v-943h532v943h62v-943h532v943h62v-943h164v-307h-62v246h-1351z" />
    <glyph glyph-name="afii10092" unicode="&#x44a;" horiz-adv-x="1085" 
d="M0 942v62h317v-390h349q158 0 253 -87t95 -220t-95 -220t-253 -87h-410v942h-256zM317 61h349q135 0 210.5 68t75.5 178t-75.5 178t-210.5 68h-349v-492z" />
    <glyph glyph-name="afii10093" unicode="&#x44b;" horiz-adv-x="1361" 
d="M1106 0v1004h61v-1004h-61zM195 0v1004h61v-390h307q158 0 253 -87t95 -220t-95 -220t-253 -87h-368zM256 61h307q135 0 211 68t76 178t-76 178t-211 68h-307v-492z" />
    <glyph glyph-name="afii10094" unicode="&#x44c;" horiz-adv-x="1034" 
d="M195 0v1004h61v-390h358q158 0 253.5 -87t95.5 -220t-95.5 -220t-253.5 -87h-419zM256 61h358q135 0 211 68t76 178t-76 178t-211 68h-358v-492z" />
    <glyph glyph-name="afii10095" unicode="&#x44d;" horiz-adv-x="1187" 
d="M102 358h64q2 -7 6 -18t19.5 -44t35.5 -63t55 -66.5t75.5 -63t100 -44.5t126.5 -18q114 0 210.5 56t155.5 157.5t64 226.5h-512v62h510q-13 183 -136 301.5t-292 118.5q-63 0 -119 -15.5t-95.5 -39.5t-72.5 -53.5t-53.5 -59.5t-35 -54t-20.5 -39l-6 -16h-65q2 7 7 19
t23 47.5t41 67t62 70.5t84.5 67.5t111 47.5t138.5 19q132 0 244.5 -68t179.5 -188.5t67 -265.5t-67 -265.5t-179.5 -188.5t-244.5 -68q-77 0 -145.5 21t-116 54t-87 73.5t-63.5 81t-40.5 73.5t-23.5 54z" />
    <glyph glyph-name="afii10096" unicode="&#x44e;" horiz-adv-x="1546" 
d="M195 0v1004h61v-472h215q5 140 71.5 253.5t174.5 176t235 62.5q99 0 187.5 -39t153.5 -106.5t103 -165.5t38 -211t-38 -211t-103 -165.5t-153.5 -106.5t-187.5 -39q-127 0 -235 62t-174.5 175.5t-71.5 253.5h-215v-471h-61zM532 502q0 -204 120 -332.5t300 -128.5
t300 128.5t120 332.5t-120 332.5t-300 128.5t-300 -128.5t-120 -332.5z" />
    <glyph glyph-name="afii10097" unicode="&#x44f;" horiz-adv-x="1136" 
d="M164 0l213 387q-106 33 -170 113t-64 186q0 133 100.5 225.5t258.5 92.5h440v-1004h-61v369h-379l-66 4l-205 -373h-67zM205 686q0 -110 81 -183t216 -73h379v512h-379q-135 0 -216 -73t-81 -183z" />
    <glyph glyph-name="afii10071" unicode="&#x451;" horiz-adv-x="1218" 
d="M113 502q0 146 67.5 266t182.5 188t251 68q132 0 244.5 -67.5t180 -187.5t67.5 -265v-2h-932q0 -198 127 -329.5t313 -131.5q63 0 119 15t96 39.5t74 54t55.5 59t36.5 54t21 39.5l6 15h63q-2 -7 -7 -19t-24 -47t-41.5 -67t-62.5 -71t-86 -67t-111.5 -47t-138.5 -19
q-136 0 -251 68t-182.5 188t-67.5 266zM176 563h864q-20 175 -141.5 287.5t-284.5 112.5q-170 0 -293 -112t-145 -288zM707 1270q0 26 17.5 43.5t43.5 17.5t43.5 -17.5t17.5 -43.5t-17.5 -44t-43.5 -18t-43.5 18t-17.5 44zM358 1270q0 26 18 43.5t44 17.5t43.5 -17.5
t17.5 -43.5t-17.5 -44t-43.5 -18t-44 18t-18 44z" />
    <glyph glyph-name="afii10099" unicode="&#x452;" horiz-adv-x="1146" 
d="M31 1116v62h164v256h61v-256h266v-62h-266v-481h2q45 107 145.5 166t231.5 59q171 0 275 -111.5t104 -308.5v-829h-359v61h297v768q0 166 -88 262.5t-229 96.5q-165 0 -272 -109.5t-107 -290.5v-399h-61v1116h-164z" />
    <glyph glyph-name="afii10100" unicode="&#x453;" horiz-adv-x="860" 
d="M195 0v1004h655v-62h-594v-942h-61zM481 1147l203 276h84v-2l-225 -274h-62z" />
    <glyph glyph-name="afii10101" unicode="&#x454;" horiz-adv-x="1177" 
d="M113 502q0 145 67 265.5t179.5 188.5t244.5 68q73 0 138.5 -18.5t111 -48.5t84 -66t62.5 -72t40.5 -66t23.5 -49l7 -18h-65q-4 11 -12 30t-41 66.5t-74.5 84t-115 66.5t-159.5 30q-169 0 -292 -118.5t-136 -301.5h510v-62h-512q5 -125 64 -226.5t155.5 -157.5t210.5 -56
q67 0 126 17.5t100.5 45.5t75.5 61.5t55 67.5t35.5 62t19.5 45l6 18h63q-2 -8 -6.5 -21.5t-22.5 -53t-40.5 -75t-63 -79t-87.5 -75t-115.5 -53t-145.5 -21.5q-132 0 -244.5 68t-179.5 188.5t-67 265.5z" />
    <glyph glyph-name="afii10102" unicode="&#x455;" horiz-adv-x="1044" 
d="M113 287h65q2 -5 5.5 -14t18.5 -34.5t33 -48.5t50 -51.5t68 -49t88.5 -34.5t111.5 -14q161 0 244.5 63.5t83.5 161.5q0 64 -40 107.5t-104 66.5t-141.5 40t-155.5 36t-142 46t-104 79t-40 127q0 100 100.5 178t267.5 78q65 0 122 -14.5t96.5 -38t72 -52t52 -57t33 -52
t18.5 -38.5l6 -14h-66q-3 8 -10 22t-34 49.5t-61.5 62.5t-95.5 49t-133 22q-144 0 -225.5 -59.5t-81.5 -135.5q0 -62 40 -104t104 -64t141.5 -38.5t155.5 -36t142 -47.5t104 -81.5t40 -130.5q0 -122 -102.5 -204t-286.5 -82q-71 0 -133.5 17t-106 44t-79.5 59.5t-57.5 65.5
t-36.5 60t-21 44z" />
    <glyph glyph-name="afii10103" unicode="&#x456;" horiz-adv-x="450" 
d="M164 1331q0 26 17.5 44t43.5 18t44 -18t18 -44t-18 -43.5t-44 -17.5t-43.5 17.5t-17.5 43.5zM195 0v1004h61v-1004h-61z" />
    <glyph glyph-name="afii10104" unicode="&#x457;" horiz-adv-x="450" 
d="M195 0v1004h61v-1004h-61zM338 1331q0 26 17.5 44t43.5 18t44 -18t18 -44t-18 -43.5t-44 -17.5t-43.5 17.5t-17.5 43.5zM-10 1331q0 26 17.5 44t43.5 18t44 -18t18 -44t-18 -43.5t-44 -17.5t-43.5 17.5t-17.5 43.5z" />
    <glyph glyph-name="afii10105" unicode="&#x458;" horiz-adv-x="450" 
d="M164 1331q0 26 17.5 44t43.5 18t44 -18t18 -44t-18 -43.5t-44 -17.5t-43.5 17.5t-17.5 43.5zM-102 -389v61h297v1332h61v-1393h-358z" />
    <glyph glyph-name="afii10106" unicode="&#x459;" horiz-adv-x="1546" 
d="M61 0l287 1004h440v-390h338q158 0 253.5 -87t95.5 -220t-95.5 -220t-253.5 -87h-399v942h-332l-270 -942h-64zM788 61h338q135 0 211 68t76 178t-76 178t-211 68h-338v-492z" />
    <glyph glyph-name="afii10107" unicode="&#x45a;" horiz-adv-x="1740" 
d="M195 0v1004h61v-431h666v431h61v-431h358q151 0 239.5 -80t88.5 -206t-88.5 -206.5t-239.5 -80.5h-419v512h-666v-512h-61zM983 61h358q128 0 197.5 62t69.5 164t-69.5 163.5t-197.5 61.5h-358v-451z" />
    <glyph glyph-name="afii10108" unicode="&#x45b;" horiz-adv-x="1146" 
d="M31 1116v62h164v256h61v-256h266v-62h-266v-481h2q45 107 145.5 166t231.5 59q171 0 275 -111.5t104 -308.5v-440h-62v440q0 166 -88 262.5t-229 96.5q-165 0 -272 -109.5t-107 -290.5v-399h-61v1116h-164z" />
    <glyph glyph-name="afii10109" unicode="&#x45c;" horiz-adv-x="1034" 
d="M195 0v1004h61v-451h309l344 451h74l-369 -482l400 -522h-78l-375 492h-305v-492h-61zM512 1147l203 276h84v-2l-226 -274h-61z" />
    <glyph glyph-name="afii10110" unicode="&#x45e;" horiz-adv-x="1034" 
d="M82 1004h63l250 -943h250l285 943h63l-420 -1393h-63l117 389h-279zM276 1372h62q0 -71 52 -117.5t142 -46.5t142.5 46.5t52.5 117.5h61q0 -94 -71.5 -159.5t-184.5 -65.5t-184.5 65.5t-71.5 159.5z" />
    <glyph glyph-name="afii10193" unicode="&#x45f;" horiz-adv-x="1187" 
d="M563 0h-368v1004h61v-943h676v943h61v-1004h-368v-246h-62v246z" />
    <glyph glyph-name="afii10050" unicode="&#x490;" horiz-adv-x="1146" 
d="M225 0v1434h819v204h62v-266h-819v-1372h-62z" />
    <glyph glyph-name="afii10098" unicode="&#x491;" horiz-adv-x="860" 
d="M195 0v1004h593v184h62v-246h-594v-942h-61z" />
    <glyph glyph-name="uni1E9E" unicode="&#x1e9e;" horiz-adv-x="1413" 
d="M205 0v942q0 239 130 365.5t382 126.5h522v-62l-455 -500v-2q249 0 393 -124.5t144 -315.5q0 -89 -36.5 -167t-103 -136.5t-168 -92.5t-225.5 -34h-133v61h133q222 0 347 104.5t125 264.5q0 167 -124.5 273t-347.5 106h-81v61l454 502h-444q-229 0 -340 -107t-111 -323
v-942h-61z" />
    <glyph glyph-name="endash" unicode="&#x2013;" horiz-adv-x="1310" 
d="M123 512v61h1065v-61h-1065z" />
    <glyph glyph-name="emdash" unicode="&#x2014;" horiz-adv-x="1689" 
d="M123 512v61h1444v-61h-1444z" />
    <glyph glyph-name="quoteleft" unicode="&#x2018;" horiz-adv-x="368" 
d="M102 1270q0 83 41 131t103 53v-41q-41 -5 -66.5 -36t-25.5 -87q0 -18 3.5 -33.5t6.5 -21.5l4 -6q17 10 37 10q26 0 43.5 -17.5t17.5 -43.5q0 -27 -18.5 -44.5t-48.5 -17.5q-39 0 -68 38t-29 116z" />
    <glyph glyph-name="quoteright" unicode="&#x2019;" horiz-adv-x="358" 
d="M102 1393q0 27 19 44t49 17q39 0 67.5 -38t28.5 -116q0 -83 -40.5 -131t-102.5 -53v41q41 5 66.5 36t25.5 87q0 18 -3.5 33.5t-7.5 21.5l-3 6q-17 -10 -37 -10q-26 0 -44 18t-18 44z" />
    <glyph glyph-name="quotesinglbase" unicode="&#x201a;" horiz-adv-x="358" 
d="M102 41q0 27 19 44t49 17q39 0 67.5 -37.5t28.5 -115.5q0 -83 -40.5 -131.5t-102.5 -53.5v41q41 5 66.5 36t25.5 87q0 18 -3.5 33.5t-7.5 22.5l-3 6q-17 -10 -37 -10q-26 0 -44 17.5t-18 43.5z" />
    <glyph glyph-name="quotedblleft" unicode="&#x201c;" horiz-adv-x="604" 
d="M102 1270q0 83 41 131t103 53v-41q-41 -5 -66.5 -36t-25.5 -87q0 -18 3.5 -33.5t6.5 -21.5l4 -6q17 10 37 10q26 0 43.5 -17.5t17.5 -43.5q0 -27 -18.5 -44.5t-48.5 -17.5q-39 0 -68 38t-29 116zM338 1270q0 83 40.5 131t102.5 53v-41q-41 -5 -66.5 -36t-25.5 -87
q0 -18 3.5 -33.5t7.5 -21.5l3 -6q17 10 37 10q26 0 44 -17.5t18 -43.5q0 -27 -19 -44.5t-49 -17.5q-39 0 -67.5 38t-28.5 116z" />
    <glyph glyph-name="quotedblright" unicode="&#x201d;" horiz-adv-x="593" 
d="M102 1393q0 27 19 44t49 17q39 0 67.5 -38t28.5 -116q0 -83 -40.5 -131t-102.5 -53v41q41 5 66.5 36t25.5 87q0 18 -3.5 33.5t-7.5 21.5l-3 6q-17 -10 -37 -10q-26 0 -44 18t-18 44zM338 1393q0 27 19 44t49 17q39 0 67.5 -38t28.5 -116q0 -83 -41 -131t-103 -53v41
q41 5 67 36t26 87q0 18 -3.5 33.5t-7.5 21.5l-4 6q-17 -10 -37 -10q-26 0 -43.5 18t-17.5 44z" />
    <glyph glyph-name="quotedblbase" unicode="&#x201e;" horiz-adv-x="593" 
d="M102 41q0 27 19 44t49 17q39 0 67.5 -37.5t28.5 -115.5q0 -83 -40.5 -131.5t-102.5 -53.5v41q41 5 66.5 36t25.5 87q0 18 -3.5 33.5t-7.5 22.5l-3 6q-17 -10 -37 -10q-26 0 -44 17.5t-18 43.5zM338 41q0 27 19 44t49 17q39 0 67.5 -37.5t28.5 -115.5q0 -83 -41 -131.5
t-103 -53.5v41q41 5 67 36t26 87q0 18 -3.5 33.5t-7.5 22.5l-4 6q-17 -10 -37 -10q-26 0 -43.5 17.5t-17.5 43.5z" />
    <glyph glyph-name="dagger" unicode="&#x2020;" horiz-adv-x="962" 
d="M123 942v62h328v430h61v-430h328v-62h-328v-942h-61v942h-328z" />
    <glyph glyph-name="daggerdbl" unicode="&#x2021;" horiz-adv-x="962" 
d="M123 348v62h328v614h-328v61h328v349h61v-349h328v-61h-328v-614h328v-62h-328v-348h-61v348h-328z" />
    <glyph glyph-name="bullet" unicode="&#x2022;" horiz-adv-x="675" 
d="M246 584q0 38 27 65t65 27t65 -27t27 -65t-27 -65t-65 -27t-65 27t-27 65z" />
    <glyph glyph-name="ellipsis" unicode="&#x2026;" horiz-adv-x="1044" 
d="M102 41q0 26 18 43.5t44 17.5t43.5 -17.5t17.5 -43.5t-17.5 -43.5t-43.5 -17.5t-44 17.5t-18 43.5zM461 41q0 26 17.5 43.5t43.5 17.5t44 -17.5t18 -43.5t-18 -43.5t-44 -17.5t-43.5 17.5t-17.5 43.5zM819 41q0 26 18 43.5t44 17.5t43.5 -17.5t17.5 -43.5t-17.5 -43.5
t-43.5 -17.5t-44 17.5t-18 43.5z" />
    <glyph glyph-name="perthousand" unicode="&#x2030;" horiz-adv-x="2293" 
d="M82 1126q0 138 95 233t233 95t232.5 -95t94.5 -233t-94.5 -232.5t-232.5 -94.5t-233 94.5t-95 232.5zM299 0l870 1434h68l-870 -1434h-68zM143 1126q0 -115 75.5 -190.5t191.5 -75.5t191 75t75 191t-75.5 191.5t-190.5 75.5q-116 0 -191.5 -75.5t-75.5 -191.5zM1556 307
q0 138 95 233t233 95t233 -95t95 -233t-95 -232.5t-233 -94.5t-233 94.5t-95 232.5zM778 307q0 138 95 233t233 95t233 -95t95 -233t-95 -232.5t-233 -94.5t-233 94.5t-95 232.5zM1618 307q0 -115 75 -190.5t191 -75.5t191 75.5t75 190.5t-75 190.5t-191 75.5t-191 -75.5
t-75 -190.5zM840 307q0 -115 75 -190.5t191 -75.5t191 75.5t75 190.5t-75 190.5t-191 75.5t-191 -75.5t-75 -190.5z" />
    <glyph glyph-name="guilsinglleft" unicode="&#x2039;" horiz-adv-x="686" 
d="M92 502l440 461l41 -41l-401 -420l401 -420l-41 -41z" />
    <glyph glyph-name="guilsinglright" unicode="&#x203a;" horiz-adv-x="686" 
d="M113 82l401 420l-401 420l41 41l440 -461l-440 -461z" />
    <glyph glyph-name="fraction" unicode="&#x2044;" horiz-adv-x="307" 
d="M-328 0l891 1434h72l-891 -1434h-72z" />
    <glyph glyph-name="zerosuperior" unicode="&#x2070;" horiz-adv-x="778" 
d="M82 1290q0 164 90 266.5t217 102.5t217 -102.5t90 -266.5t-90 -266t-217 -102t-217 102t-90 266zM143 1290q0 -141 71 -224t175 -83t175 83t71 224t-71 224t-175 83t-175 -83t-71 -224z" />
    <glyph glyph-name="foursuperior" unicode="&#x2074;" horiz-adv-x="624" 
d="M51 1126v62l277 450h69l-280 -450h313v174h62v-174h112v-62h-112v-184h-62v184h-379z" />
    <glyph glyph-name="fivesuperior" unicode="&#x2075;" horiz-adv-x="655" 
d="M82 1126h65q2 -6 5.5 -15.5t19 -34t37 -43.5t61 -34.5t88.5 -15.5q97 0 151 47.5t54 126.5t-54 126.5t-151 47.5q-34 0 -66 -8.5t-52.5 -20.5t-36 -24t-22.5 -20l-7 -9l-63 11l12 378h450v-61h-391l-10 -254h2l7.5 7.5t22.5 16.5t39 21.5t55 17t71 7.5q114 0 185 -67.5
t71 -168.5q0 -102 -73 -168.5t-194 -66.5q-66 0 -119 21t-81 51t-46.5 60t-23.5 51z" />
    <glyph glyph-name="sixsuperior" unicode="&#x2076;" horiz-adv-x="645" 
d="M61 1178q0 119 111 235l213 225h76l-205 -213l-16 -16h2q50 25 96 25q121 0 198.5 -73.5t77.5 -182.5q0 -107 -80 -181.5t-196 -74.5t-196.5 74.5t-80.5 181.5zM123 1178q0 -84 61 -139.5t154 -55.5t154 55.5t61 139.5q0 86 -58.5 140t-156.5 54q-94 0 -154.5 -56.5
t-60.5 -137.5z" />
    <glyph glyph-name="sevensuperior" unicode="&#x2077;" horiz-adv-x="522" 
d="M31 1577v61h491v-61l-325 -635h-66l326 633v2h-426z" />
    <glyph glyph-name="eightsuperior" unicode="&#x2078;" horiz-adv-x="716" 
d="M61 1126q0 38 15 70t33.5 50t44.5 33t37.5 19t21.5 7v2q-5 2 -15 6.5t-30 18t-35.5 30t-28 44t-12.5 58.5q0 84 69 139.5t197 55.5t197.5 -55.5t69.5 -139.5q0 -31 -12 -58t-27.5 -43.5t-35.5 -30t-30.5 -18.5t-17.5 -7v-2q8 -2 19.5 -6t37 -18t45.5 -32.5t35.5 -51
t15.5 -71.5q0 -85 -77.5 -144.5t-219.5 -59.5t-219.5 59.5t-77.5 144.5zM123 1126q0 -62 58 -102.5t177 -40.5t177.5 40.5t58.5 102.5t-58.5 103t-177.5 41t-177 -41t-58 -103zM154 1464q0 -52 54 -92.5t150 -40.5t150.5 40.5t54.5 92.5q0 54 -54 93.5t-151 39.5
t-150.5 -39.5t-53.5 -93.5z" />
    <glyph glyph-name="ninesuperior" unicode="&#x2079;" horiz-adv-x="645" 
d="M61 1403q0 107 80.5 181.5t196.5 74.5t196 -74.5t80 -181.5q0 -121 -110 -236l-213 -225h-76l205 213l16 16h-2q-48 -24 -96 -24q-121 0 -199 73.5t-78 182.5zM123 1403q0 -86 58.5 -140.5t156.5 -54.5q94 0 154.5 57t60.5 138q0 84 -61 139t-154 55t-154 -55t-61 -139z
" />
    <glyph glyph-name="zeroinferior" unicode="&#x2080;" horiz-adv-x="778" 
d="M82 143q0 164 90 266.5t217 102.5t217 -102.5t90 -266.5t-90 -266t-217 -102t-217 102t-90 266zM143 143q0 -141 71 -224t175 -83t175 83t71 224t-71 224.5t-175 83.5t-175 -83.5t-71 -224.5z" />
    <glyph glyph-name="oneinferior" unicode="&#x2081;" horiz-adv-x="655" 
d="M102 -205v62h226v569l-195 -113v66l195 113h61v-635h205v-62h-492z" />
    <glyph glyph-name="twoinferior" unicode="&#x2082;" horiz-adv-x="686" 
d="M72 -205v62l174 110q141 89 180 120q109 87 116 184q1 8 1 16q0 71 -52.5 117.5t-142.5 46.5q-46 0 -84 -16t-59.5 -38.5t-36.5 -45t-20 -38.5l-5 -16h-61q1 4 3.5 12t12 30.5t21.5 42.5t34 45t48 43t64.5 30t82.5 12q113 0 184.5 -65.5t71.5 -159.5q0 -44 -15.5 -85
t-37 -70.5t-60 -62.5t-67 -52.5t-76.5 -49.5l-155 -98l-19 -12v-2l21 2h419v-62h-542z" />
    <glyph glyph-name="threeinferior" unicode="&#x2083;" horiz-adv-x="684" 
d="M72 -20h65q1 -6 4.5 -15.5t19.5 -34.5t38 -44t63.5 -34.5t93.5 -15.5q97 0 151 46t54 118t-54 118t-151 46h-143v61l279 205v2l-21 -2h-360v62h471v-62l-260 -190l-19 -13v-2h53q128 0 197.5 -61.5t69.5 -163.5t-69.5 -163.5t-197.5 -61.5q-50 0 -93 11.5t-71 29.5
t-50.5 39.5t-35 43.5t-21 40t-11.5 29z" />
    <glyph glyph-name="fourinferior" unicode="&#x2084;" horiz-adv-x="624" 
d="M51 -20v61l277 451h69l-280 -451h313v174h62v-174h112v-61h-112v-185h-62v185h-379z" />
    <glyph glyph-name="fiveinferior" unicode="&#x2085;" horiz-adv-x="655" 
d="M82 -20h65q2 -6 5.5 -15.5t19 -34.5t37 -44t61 -34.5t88.5 -15.5q97 0 151 47.5t54 126.5t-54 126.5t-151 47.5q-34 0 -66 -8.5t-52.5 -20.5t-36 -24t-22.5 -21l-7 -8l-63 11l12 379h450v-62h-391l-10 -254h2l7.5 7.5t22.5 16.5t39 21.5t55 17t71 7.5q114 0 185 -67.5
t71 -168.5q0 -102 -73 -168.5t-194 -66.5q-48 0 -89.5 11.5t-69 29.5t-49.5 39.5t-34 43.5t-20.5 40t-11.5 29z" />
    <glyph glyph-name="sixinferior" unicode="&#x2086;" horiz-adv-x="645" 
d="M61 31q0 119 111 235l213 226h76l-205 -213l-16 -17h2q50 25 96 25q121 0 198.5 -73.5t77.5 -182.5q0 -107 -80 -181.5t-196 -74.5t-196.5 74.5t-80.5 181.5zM123 31q0 -84 61 -139.5t154 -55.5t154 55.5t61 139.5q0 86 -58.5 140t-156.5 54q-94 0 -154.5 -56.5
t-60.5 -137.5z" />
    <glyph glyph-name="seveninferior" unicode="&#x2087;" horiz-adv-x="522" 
d="M31 430v62h491v-62l-325 -635h-66l326 633v2h-426z" />
    <glyph glyph-name="eightinferior" unicode="&#x2088;" horiz-adv-x="716" 
d="M61 -20q0 38 15 70t33.5 50t44.5 32.5t37 18.5t22 7v2q-5 2 -15 6.5t-30 18t-35.5 30t-28 44t-12.5 58.5q0 84 69 139.5t197 55.5t197.5 -55.5t69.5 -139.5q0 -31 -12 -58t-27.5 -43.5t-35.5 -30t-30.5 -18.5t-17.5 -7v-2q8 -2 19.5 -6t37.5 -18t45 -32t35 -50.5
t16 -71.5q0 -85 -77.5 -145t-219.5 -60t-219.5 60t-77.5 145zM123 -20q0 -62 58 -103t177 -41t177.5 41t58.5 103t-58.5 102.5t-177.5 40.5t-177 -40.5t-58 -102.5zM154 317q0 -52 54 -92.5t150 -40.5t150.5 40.5t54.5 92.5q0 54 -54 94t-151 40t-150.5 -40t-53.5 -94z" />
    <glyph glyph-name="nineinferior" unicode="&#x2089;" horiz-adv-x="645" 
d="M61 256q0 107 80.5 181.5t196.5 74.5t196 -74.5t80 -181.5q0 -121 -110 -236l-213 -225h-76l205 213l16 17h-2q-50 -25 -96 -25q-121 0 -199 73.5t-78 182.5zM123 256q0 -86 58.5 -140.5t156.5 -54.5q94 0 154.5 57t60.5 138q0 84 -61 139.5t-154 55.5t-154 -55.5
t-61 -139.5z" />
    <glyph glyph-name="Euro" unicode="&#x20ac;" horiz-adv-x="1699" 
d="M51 553v61h139q-6 42 -6 103q0 27 1.5 52.5t2.5 37.5l2 12h-139v62h148q51 261 245 427.5t447 166.5q87 0 166.5 -17t139.5 -46t113 -67t90.5 -79.5t69 -83t50.5 -79.5t32.5 -67t19.5 -46l5 -17h-61q-3 9 -8.5 25t-29.5 61.5t-53 87t-81.5 92.5t-113.5 87.5t-150 61.5
t-189 25q-231 0 -405.5 -147.5t-223.5 -384.5h608v-62h-618q-6 -41 -6 -102q0 -27 1.5 -53t2.5 -38l2 -12h618v-61h-608q33 -157 123 -278t222 -188t284 -67q102 0 192.5 26t153 67.5t114.5 92t83.5 101t53 92t30.5 67.5l8 26h61q-3 -11 -9.5 -30.5t-32 -74.5t-58 -105.5
t-90.5 -112t-126 -105.5t-167.5 -74.5t-212.5 -30.5q-253 0 -447 166.5t-245 427.5h-148z" />
    <glyph glyph-name="uni20B4" unicode="&#x20b4;" horiz-adv-x="1331" 
d="M143 819v62h820q5 3 13 9.5t29 28.5t37.5 46t29.5 62.5t13 78.5q0 129 -107 218t-292 89q-75 0 -140.5 -16t-110 -41t-81 -55.5t-58 -61.5t-35.5 -56t-19 -41l-6 -16h-62q2 7 6 19.5t22 49t41 69.5t65 73t92.5 69t125 49t160.5 20q105 0 193 -30t146 -81t90 -118t32 -140
q0 -40 -10 -78t-24.5 -63.5t-29 -45t-24.5 -29.5l-10 -9h139v-62h-1045zM143 553v61h1045v-61h-819q-5 -3 -13.5 -9.5t-29.5 -28.5t-37 -46t-29.5 -62.5t-13.5 -78.5q0 -129 107 -218.5t292 -89.5q59 0 112.5 10t93.5 26.5t75 38t59 45.5t44 47.5t32 45t20.5 38t11.5 26.5
l3 10h61q-2 -7 -6 -19.5t-22 -49t-41 -69t-65 -73t-92.5 -69t-125 -48.5t-160.5 -20q-105 0 -193 30t-146 81t-90 118t-32 140q0 40 10 78t25 63.5t29.5 45t24.5 29.5l10 9h-140z" />
    <glyph glyph-name="uni20BD" unicode="&#x20bd;" horiz-adv-x="1382" 
d="M82 266v62h184v204h-184v62h184v840h522q227 0 359.5 -124.5t132.5 -326.5t-132.5 -326.5t-359.5 -124.5h-460v-204h542v-62h-542v-266h-62v266h-184zM328 594h460q204 0 317.5 105t113.5 284t-113.5 284t-317.5 105h-460v-778z" />
    <glyph glyph-name="afii61352" unicode="&#x2116;" horiz-adv-x="2181" 
d="M1464 1126q0 137 93.5 232.5t224.5 95.5t224 -95.5t93 -232.5t-93 -232t-224 -95t-224.5 95t-93.5 232zM225 0v1434h103l858 -1362l12 -19h2l-2 19v1362h62v-1434h-103l-858 1362l-12 18h-2l2 -18v-1362h-62zM1526 1126q0 -115 74 -190.5t182 -75.5t182 75.5t74 190.5
t-74 191t-182 76t-182 -76t-74 -191zM1526 543v61h512v-61h-512z" />
    <glyph glyph-name="trademark" unicode="&#x2122;" horiz-adv-x="1464" 
d="M655 778v656h105l203 -390h61l203 390h104v-656h-61v594l2 21h-2l-215 -410h-123l-215 410h-2l2 -21v-594h-62zM31 1372v62h553v-62h-246v-594h-62v594h-245z" />
    <glyph glyph-name="arrowleft" unicode="&#x2190;" horiz-adv-x="1843" 
d="M532 348l-348 338v21l348 337h31v-317h1096v-61h-1096v-318h-31z" />
    <glyph glyph-name="arrowup" unicode="&#x2191;" horiz-adv-x="1843" 
d="M891 1096h-318v30l338 349h21l338 -349v-30h-318v-1096h-61v1096z" />
    <glyph glyph-name="arrowright" unicode="&#x2192;" horiz-adv-x="1843" 
d="M1280 666h-1096v61h1096v317h31l348 -337v-21l-348 -338h-31v318z" />
    <glyph glyph-name="arrowdown" unicode="&#x2193;" horiz-adv-x="1843" 
d="M911 -41l-338 348v31h318v1096h61v-1096h318v-31l-338 -348h-21z" />
    <glyph glyph-name="uni2196" unicode="&#x2196;" horiz-adv-x="1843" 
d="M408 707h-21v501l21 21h501v-21l-229 -229l774 -776l-43 -41l-774 774z" />
    <glyph glyph-name="uni2197" unicode="&#x2197;" horiz-adv-x="1843" 
d="M430 162l-43 41l774 776l-229 229v21h502l20 -21v-501h-20l-230 229z" />
    <glyph glyph-name="uni2198" unicode="&#x2198;" horiz-adv-x="1843" 
d="M1161 434l-774 774l41 43l776 -774l230 230h20v-502l-20 -21h-502v21z" />
    <glyph glyph-name="uni2199" unicode="&#x2199;" horiz-adv-x="1843" 
d="M408 184l-21 21v502h21l229 -230l776 774l41 -43l-774 -774l229 -229v-21h-501z" />
    <glyph glyph-name="minus" unicode="&#x2212;" horiz-adv-x="962" 
d="M102 573v62h758v-62h-758z" />
    <glyph glyph-name="approxequal" unicode="&#x2248;" horiz-adv-x="993" 
d="M113 604v10q0 92 56 148.5t148 56.5q45 0 86.5 -17t73 -41t62 -48t66 -41t71.5 -17q69 0 106 37.5t37 106.5v10h62v-10q0 -92 -56.5 -148.5t-148.5 -56.5q-45 0 -86.5 17t-73 41t-62 48t-66 41t-71.5 17q-69 0 -106 -37.5t-37 -106.5v-10h-61zM113 276v11q0 92 56 148.5
t148 56.5q45 0 86.5 -17t73 -41t62 -48t66 -41t71.5 -17q69 0 106 37t37 106v10h62v-10q0 -92 -56.5 -148.5t-148.5 -56.5q-45 0 -86.5 17t-73 41t-62 48t-66 41t-71.5 17q-69 0 -106 -37t-37 -106v-11h-61z" />
    <glyph glyph-name="notequal" unicode="&#x2260;" horiz-adv-x="983" 
d="M123 0l201 328h-201v61h237l189 307h-426v62h465l200 327h72l-201 -327h201v-62h-239l-189 -307h428v-61h-465l-200 -328h-72z" />
    <glyph glyph-name="lessequal" unicode="&#x2264;" horiz-adv-x="983" 
d="M102 573v72l758 379v-61l-696 -349v-10l696 -348v-61zM102 369v61l758 -379v-61z" />
    <glyph glyph-name="greaterequal" unicode="&#x2265;" horiz-adv-x="983" 
d="M123 195v61l696 348v10l-696 349v61l758 -379v-72zM123 -10v61l758 379v-61z" />
    <glyph glyph-name="commaaccent" unicode="&#xf6c3;" horiz-adv-x="276" 
d="M61 -266q0 27 19 44t49 17q37 0 61.5 -35.5t24.5 -107.5q0 -75 -41 -122t-102 -52v41q41 5 66.5 33t25.5 79q0 14 -2.5 27t-5.5 19l-2 6q-11 -11 -31 -11q-26 0 -44 18t-18 44z" />
    <glyph glyph-name="cyrBreve" unicode="&#xf6d1;" horiz-adv-x="675" 
d="M61 1853h62q0 -86 58.5 -140t156.5 -54t156.5 54t58.5 140h61q0 -109 -77.5 -182.5t-198.5 -73.5t-199 73.5t-78 182.5z" />
    <glyph glyph-name="cyrbreve" unicode="&#xf6d4;" horiz-adv-x="634" 
d="M61 1382h62q0 -71 52 -117t142 -46t142.5 46t52.5 117h61q0 -94 -71.5 -159.5t-184.5 -65.5t-184.5 65.5t-71.5 159.5z" />
    <glyph glyph-name="zero.oldstyle" unicode="&#xf730;" horiz-adv-x="1249" 
d="M113 502q0 146 68 266t185 188t259 68t259 -68t185 -188t68 -266t-68 -266t-185 -188t-259 -68t-259 68t-185 188t-68 266zM174 502q0 -199 129 -330t322 -131t321.5 131t128.5 330t-128.5 330t-321.5 131t-322 -131t-129 -330z" />
    <glyph glyph-name="one.oldstyle" unicode="&#xf731;" horiz-adv-x="573" 
d="M92 707v81l225 216h62v-1004h-62v922z" />
    <glyph glyph-name="two.oldstyle" unicode="&#xf732;" horiz-adv-x="1003" 
d="M82 727q2 6 5 17t17.5 41.5t33.5 58.5t54.5 62.5t77.5 59t105.5 41.5t136.5 17q179 0 284 -91t105 -226q0 -71 -26 -132t-79 -114t-110.5 -94.5t-142.5 -90.5l-348 -204l-21 -11v-2l21 2h727v-61h-861v61l420 246q91 53 150 95t110 91t75 101.5t24 112.5q0 112 -86 184
t-242 72q-61 0 -114 -13t-89.5 -34t-66.5 -46t-47.5 -50t-30 -46t-16.5 -34l-5 -13h-61z" />
    <glyph glyph-name="three.oldstyle" unicode="&#xf733;" horiz-adv-x="1044" 
d="M676 342v-2q122 -34 199 -127t77 -233q0 -165 -122.5 -277.5t-317.5 -112.5q-77 0 -145 20t-114.5 51.5t-84.5 69.5t-61 76.5t-38.5 70t-21.5 51.5l-6 20h61q2 -6 5.5 -17t18.5 -41.5t34 -58.5t53 -62.5t74 -59t99 -41.5t126 -17q173 0 276 93t103 235t-104.5 234.5
t-284.5 92.5h-164v62h174q151 0 244.5 85.5t93.5 211.5t-93.5 211.5t-244.5 85.5q-56 0 -107 -13.5t-87 -35.5t-67 -48t-50 -52t-33 -48t-20 -36l-5 -13h-61q2 6 6 17.5t20 43t36.5 60.5t56.5 64.5t78 61t103 43t130 17.5q174 0 286.5 -104.5t112.5 -253.5q0 -124 -64 -204
t-171 -120z" />
    <glyph glyph-name="four.oldstyle" unicode="&#xf734;" horiz-adv-x="1024" 
d="M41 0v61l532 943h72l-532 -943h635v431h61v-431h195v-61h-195v-389h-61v389h-707z" />
    <glyph glyph-name="five.oldstyle" unicode="&#xf735;" horiz-adv-x="1085" 
d="M123 -20h61q2 -7 5 -18.5t17 -46t32 -65.5t51 -68.5t72 -65t97.5 -46t125.5 -18.5q170 0 279.5 111.5t109.5 287.5t-109.5 288t-279.5 112q-52 0 -99.5 -11.5t-81 -29.5t-62 -40t-47 -43.5t-31 -39.5t-17.5 -29l-6 -12h-66l51 758h717v-62h-661l-43 -596h2q4 7 13 18
t40.5 39.5t67.5 50.5t96.5 40t126.5 18q193 0 321.5 -131t128.5 -330t-128.5 -330t-321.5 -131q-79 0 -147.5 21.5t-114.5 56t-82.5 76t-57.5 83t-35 76t-19 55.5z" />
    <glyph glyph-name="six.oldstyle" unicode="&#xf736;" horiz-adv-x="1187" 
d="M113 451q0 128 44.5 220t166.5 251l393 512h71l-407 -533l-19 -20h3q10 7 28 17t77.5 27t123.5 17q131 0 241.5 -64.5t175 -175t64.5 -241.5t-64.5 -241.5t-175 -175t-241.5 -64.5q-130 0 -241.5 64t-175.5 172.5t-64 234.5zM174 461q0 -177 121.5 -298.5t298.5 -121.5
t298.5 121.5t121.5 298.5t-121.5 298.5t-298.5 121.5q-184 0 -302 -117.5t-118 -302.5z" />
    <glyph glyph-name="seven.oldstyle" unicode="&#xf737;" horiz-adv-x="870" 
d="M20 942v62h830v-62l-574 -1331h-69l573 1329v2h-760z" />
    <glyph glyph-name="eight.oldstyle" unicode="&#xf738;" horiz-adv-x="1228" 
d="M102 389q0 79 30.5 146t69.5 105.5t91.5 69t79 40.5t49.5 17q2 0 2.5 0.5t1.5 0.5v2q-12 3 -35 11.5t-64.5 34t-76 59.5t-60.5 92.5t-26 128.5q0 144 125.5 251t324.5 107q100 0 186 -30t143.5 -80t89.5 -114.5t32 -133.5q0 -72 -27.5 -132t-66.5 -94t-78 -58.5
t-67 -33.5l-27 -8v-2q7 -2 18.5 -5t45.5 -16.5t65 -31t69 -48.5t65 -68.5t45.5 -92t18.5 -117.5q0 -81 -36 -154.5t-100.5 -130.5t-162 -90.5t-213.5 -33.5t-213.5 33.5t-162 90.5t-100.5 130.5t-36 154.5zM164 389q0 -145 121.5 -246.5t328.5 -101.5t329 101.5t122 246.5
q0 141 -122.5 244.5t-328.5 103.5q-104 0 -190.5 -29t-142.5 -78t-86.5 -111.5t-30.5 -129.5zM225 1096q0 -122 106 -209.5t283 -87.5t283.5 87.5t106.5 209.5t-106.5 209.5t-283.5 87.5t-283 -87.5t-106 -209.5z" />
    <glyph glyph-name="nine.oldstyle" unicode="&#xf739;" horiz-adv-x="1187" 
d="M113 543q0 131 64.5 241.5t175 175t241.5 64.5q130 0 241.5 -64t175.5 -172.5t64 -234.5q0 -128 -44.5 -220t-166.5 -251l-362 -471h-72l379 491l16 21h-2q-10 -7 -28 -17.5t-77.5 -27.5t-123.5 -17q-131 0 -241.5 64.5t-175 175.5t-64.5 242zM174 543
q0 -177 121.5 -298.5t298.5 -121.5q184 0 302 117.5t118 302.5q0 177 -121.5 298.5t-298.5 121.5t-298.5 -121.5t-121.5 -298.5z" />
    <glyph glyph-name="acircumflex.sc" horiz-adv-x="1239" 
d="M72 0l338 1229h419l338 -1229h-63l-123 451h-723l-123 -451h-63zM276 512h687l-181 655h-325zM358 1415l215 285h82l215 -285v-2h-71l-170 225h-29l-170 -225h-72v2z" />
    <glyph glyph-name="ecircumflex.sc" horiz-adv-x="1157" 
d="M225 0v1229h830v-62h-768v-512h635v-61h-635v-533h768v-61h-830zM379 1415l215 285h82l215 -285v-2h-72l-170 225h-28l-170 -225h-72v2z" />
    <glyph glyph-name="Imacron.alt" horiz-adv-x="962" 
d="M123 0v61h328v1311h-328v62h717v-62h-328v-1311h328v-61h-717zM242 1700v61h481v-61h-481z" />
    <glyph glyph-name="Idotaccent.alt" horiz-adv-x="962" 
d="M123 0v61h328v1311h-328v62h717v-62h-328v-1311h328v-61h-717zM420 1741q0 26 17.5 43.5t43.5 17.5t44 -17.5t18 -43.5t-18 -44t-44 -18t-43.5 18t-17.5 44z" />
    <glyph glyph-name="Idieresis.alt" horiz-adv-x="962" 
d="M123 0v61h328v1311h-328v62h717v-62h-328v-1311h328v-61h-717zM594 1741q0 26 17.5 43.5t43.5 17.5t44 -17.5t18 -43.5t-18 -44t-44 -18t-43.5 18t-17.5 44zM246 1741q0 26 17.5 43.5t43.5 17.5t44 -17.5t18 -43.5t-18 -44t-44 -18t-43.5 18t-17.5 44z" />
    <glyph glyph-name="Icircumflex.alt" horiz-adv-x="962" 
d="M123 0v61h328v1311h-328v62h717v-62h-328v-1311h328v-61h-717zM225 1620l215 285h82l215 -285v-2h-71l-170 225h-29l-170 -225h-72v2z" />
    <glyph glyph-name="Iacute.alt" horiz-adv-x="962" 
d="M123 0v61h328v1311h-328v62h717v-62h-328v-1311h328v-61h-717zM440 1618l203 276h84v-2l-225 -274h-62z" />
    <glyph glyph-name="Igrave.alt" horiz-adv-x="962" 
d="M123 0v61h328v1311h-328v62h717v-62h-328v-1311h328v-61h-717zM236 1894h83l203 -276h-61l-225 274v2z" />
    <glyph glyph-name="lcommaaccent.alt" horiz-adv-x="450" 
d="M195 0v1434h61v-1434h-61zM150 -266q0 27 18.5 44t48.5 17q37 0 61.5 -35.5t24.5 -107.5q0 -75 -41 -122t-102 -52v41q41 5 66.5 33t25.5 79q0 14 -2.5 27t-5.5 19l-2 6q-11 -11 -31 -11q-26 0 -43.5 18t-17.5 44z" />
    <glyph glyph-name="lcaron.alt" horiz-adv-x="471" 
d="M195 0v1434h61v-1434h-61zM379 1382q0 27 18.5 44.5t48.5 17.5q37 0 61.5 -36t24.5 -108q0 -75 -41 -122t-102 -52v41q41 5 66.5 33.5t25.5 79.5q0 14 -2.5 26.5t-4.5 18.5l-3 6q-11 -10 -31 -10q-26 0 -43.5 17.5t-17.5 43.5z" />
    <glyph glyph-name="lacute.alt" horiz-adv-x="450" 
d="M195 0v1434h61v-1434h-61zM195 1618l202 276h84v-2l-225 -274h-61z" />
    <glyph glyph-name="atilde.alt" horiz-adv-x="1167" 
d="M143 276q0 127 97.5 212t261.5 85h420v93q0 139 -81.5 218t-226.5 79q-83 0 -151.5 -26.5t-107 -64t-65 -75t-35.5 -63.5l-9 -27h-62q2 7 5.5 18t19 44t35 63t55 66.5t77.5 63t104.5 44.5t133.5 18q168 0 268.5 -98t100.5 -260v-666h-61v225h-2q-2 -5 -6 -14t-19.5 -34.5
t-35.5 -48.5t-55 -51t-75.5 -48.5t-100 -34.5t-126.5 -14q-164 0 -261.5 84.5t-97.5 211.5zM205 276q0 -104 77.5 -169.5t219.5 -65.5q184 0 302 117.5t118 302.5v51h-420q-141 0 -219 -66t-78 -170zM317 1229v41q0 68 41 110.5t103 42.5q41 0 81 -22.5t66 -49t58.5 -49
t60.5 -22.5q82 0 82 92v41h61v-41q0 -68 -40.5 -110.5t-102.5 -42.5q-41 0 -81 22.5t-66 49t-58.5 49t-60.5 22.5q-39 0 -60.5 -23.5t-21.5 -68.5v-41h-62z" />
    <glyph glyph-name="aring.alt" horiz-adv-x="1167" 
d="M143 276q0 127 97.5 212t261.5 85h420v93q0 139 -81.5 218t-226.5 79q-83 0 -151.5 -26.5t-107 -64t-65 -75t-35.5 -63.5l-9 -27h-62q2 7 5.5 18t19 44t35 63t55 66.5t77.5 63t104.5 44.5t133.5 18q168 0 268.5 -98t100.5 -260v-666h-61v225h-2q-2 -5 -6 -14t-19.5 -34.5
t-35.5 -48.5t-55 -51t-75.5 -48.5t-100 -34.5t-126.5 -14q-164 0 -261.5 84.5t-97.5 211.5zM205 276q0 -104 77.5 -169.5t219.5 -65.5q184 0 302 117.5t118 302.5v51h-420q-141 0 -219 -66t-78 -170zM410 1403q0 79 57 136.5t137 57.5t137.5 -57.5t57.5 -136.5t-57.5 -137
t-137.5 -58q-79 0 -136.5 57.5t-57.5 137.5zM471 1403q0 -57 38 -95t95 -38t95 38t38 95t-38 95t-95 38t-95 -38t-38 -95z" />
    <glyph glyph-name="aogonek.alt" horiz-adv-x="1167" 
d="M143 276q0 127 97.5 212t261.5 85h420v93q0 139 -81.5 218t-226.5 79q-83 0 -151.5 -26.5t-107 -64t-65 -75t-35.5 -63.5l-9 -27h-62q2 7 5.5 18t19 44t35 63t55 66.5t77.5 63t104.5 44.5t133.5 18q168 0 268.5 -98t100.5 -260v-666l-27.5 -11t-61.5 -32.5t-78 -54
t-61.5 -74t-27.5 -94.5q0 -47 36.5 -80t96.5 -33q32 0 63 7.5t45 15.5l15 8v-62q-51 -30 -123 -30q-83 0 -138.5 51.5t-55.5 122.5q0 52 26.5 101.5t64 83t75 60.5t64.5 39l26 13v4v190h-2q-2 -5 -6 -14t-19.5 -34.5t-35.5 -48.5t-55 -51t-75.5 -48.5t-100 -34.5t-126.5 -14
q-164 0 -261.5 84.5t-97.5 211.5zM205 276q0 -104 77.5 -169.5t219.5 -65.5q184 0 302 117.5t118 302.5v51h-420q-141 0 -219 -66t-78 -170z" />
    <glyph glyph-name="amacron.alt" horiz-adv-x="1167" 
d="M143 276q0 127 97.5 212t261.5 85h420v93q0 139 -81.5 218t-226.5 79q-83 0 -151.5 -26.5t-107 -64t-65 -75t-35.5 -63.5l-9 -27h-62q2 7 5.5 18t19 44t35 63t55 66.5t77.5 63t104.5 44.5t133.5 18q168 0 268.5 -98t100.5 -260v-666h-61v225h-2q-2 -5 -6 -14t-19.5 -34.5
t-35.5 -48.5t-55 -51t-75.5 -48.5t-100 -34.5t-126.5 -14q-164 0 -261.5 84.5t-97.5 211.5zM205 276q0 -104 77.5 -169.5t219.5 -65.5q184 0 302 117.5t118 302.5v51h-420q-141 0 -219 -66t-78 -170zM354 1290v62h482v-62h-482z" />
    <glyph glyph-name="adieresis.alt" horiz-adv-x="1167" 
d="M143 276q0 127 97.5 212t261.5 85h420v93q0 139 -81.5 218t-226.5 79q-83 0 -151.5 -26.5t-107 -64t-65 -75t-35.5 -63.5l-9 -27h-62q2 7 5.5 18t19 44t35 63t55 66.5t77.5 63t104.5 44.5t133.5 18q168 0 268.5 -98t100.5 -260v-666h-61v225h-2q-2 -5 -6 -14t-19.5 -34.5
t-35.5 -48.5t-55 -51t-75.5 -48.5t-100 -34.5t-126.5 -14q-164 0 -261.5 84.5t-97.5 211.5zM205 276q0 -104 77.5 -169.5t219.5 -65.5q184 0 302 117.5t118 302.5v51h-420q-141 0 -219 -66t-78 -170zM705 1331q0 26 17.5 44t43.5 18t43.5 -18t17.5 -44t-17.5 -43.5
t-43.5 -17.5t-43.5 17.5t-17.5 43.5zM356 1331q0 26 18 44t44 18t43.5 -18t17.5 -44t-17.5 -43.5t-43.5 -17.5t-44 17.5t-18 43.5z" />
    <glyph glyph-name="acircumflex.alt" horiz-adv-x="1167" 
d="M143 276q0 127 97.5 212t261.5 85h420v93q0 139 -81.5 218t-226.5 79q-83 0 -151.5 -26.5t-107 -64t-65 -75t-35.5 -63.5l-9 -27h-62q2 7 5.5 18t19 44t35 63t55 66.5t77.5 63t104.5 44.5t133.5 18q168 0 268.5 -98t100.5 -260v-666h-61v225h-2q-2 -5 -6 -14t-19.5 -34.5
t-35.5 -48.5t-55 -51t-75.5 -48.5t-100 -34.5t-126.5 -14q-164 0 -261.5 84.5t-97.5 211.5zM205 276q0 -104 77.5 -169.5t219.5 -65.5q184 0 302 117.5t118 302.5v51h-420q-141 0 -219 -66t-78 -170zM338 1210l215 285h82l215 -285v-2h-72l-170 226h-28l-170 -226h-72v2z
" />
    <glyph glyph-name="abreve.alt" horiz-adv-x="1167" 
d="M143 276q0 127 97.5 212t261.5 85h420v93q0 139 -81.5 218t-226.5 79q-83 0 -151.5 -26.5t-107 -64t-65 -75t-35.5 -63.5l-9 -27h-62q2 7 5.5 18t19 44t35 63t55 66.5t77.5 63t104.5 44.5t133.5 18q168 0 268.5 -98t100.5 -260v-666h-61v225h-2q-2 -5 -6 -14t-19.5 -34.5
t-35.5 -48.5t-55 -51t-75.5 -48.5t-100 -34.5t-126.5 -14q-164 0 -261.5 84.5t-97.5 211.5zM205 276q0 -104 77.5 -169.5t219.5 -65.5q184 0 302 117.5t118 302.5v51h-420q-141 0 -219 -66t-78 -170zM338 1454h61q0 -71 52.5 -117.5t142.5 -46.5t142 46.5t52 117.5h62
q0 -94 -71.5 -159.5t-184.5 -65.5t-184.5 65.5t-71.5 159.5z" />
    <glyph glyph-name="aacute.alt" horiz-adv-x="1167" 
d="M143 276q0 127 97.5 212t261.5 85h420v93q0 139 -81.5 218t-226.5 79q-83 0 -151.5 -26.5t-107 -64t-65 -75t-35.5 -63.5l-9 -27h-62q2 7 5.5 18t19 44t35 63t55 66.5t77.5 63t104.5 44.5t133.5 18q168 0 268.5 -98t100.5 -260v-666h-61v225h-2q-2 -5 -6 -14t-19.5 -34.5
t-35.5 -48.5t-55 -51t-75.5 -48.5t-100 -34.5t-126.5 -14q-164 0 -261.5 84.5t-97.5 211.5zM205 276q0 -104 77.5 -169.5t219.5 -65.5q184 0 302 117.5t118 302.5v51h-420q-141 0 -219 -66t-78 -170zM561 1208l203 277h84v-2l-225 -275h-62z" />
    <glyph glyph-name="agrave.alt" horiz-adv-x="1167" 
d="M143 276q0 127 97.5 212t261.5 85h420v93q0 139 -81.5 218t-226.5 79q-83 0 -151.5 -26.5t-107 -64t-65 -75t-35.5 -63.5l-9 -27h-62q2 7 5.5 18t19 44t35 63t55 66.5t77.5 63t104.5 44.5t133.5 18q168 0 268.5 -98t100.5 -260v-666h-61v225h-2q-2 -5 -6 -14t-19.5 -34.5
t-35.5 -48.5t-55 -51t-75.5 -48.5t-100 -34.5t-126.5 -14q-164 0 -261.5 84.5t-97.5 211.5zM205 276q0 -104 77.5 -169.5t219.5 -65.5q184 0 302 117.5t118 302.5v51h-420q-141 0 -219 -66t-78 -170zM369 1485h84l202 -277h-61l-225 275v2z" />
    <glyph glyph-name="afii10110.alt" horiz-adv-x="1044" 
d="M92 1004h64l250 -943h251l283 943h64l-347 -1147q-73 -246 -299 -246h-153v61h153q92 0 148.5 44t87.5 141l45 143h-281zM297 1372h61q0 -71 52.5 -117.5t142.5 -46.5t142.5 46.5t52.5 117.5h61q0 -94 -71.5 -159.5t-184.5 -65.5t-184.5 65.5t-71.5 159.5z" />
    <glyph glyph-name="lslash.alt" horiz-adv-x="471" 
d="M20 532v62l185 88v752h61v-723l185 88v-62l-185 -88v-649h-61v621z" />
    <glyph glyph-name="ydieresis.alt" horiz-adv-x="1044" 
d="M92 1004h64l250 -943h251l283 943h64l-347 -1147q-73 -246 -299 -246h-153v61h153q92 0 148.5 44t87.5 141l45 143h-281zM655 1331q0 26 18 44t44 18t43.5 -18t17.5 -44t-17.5 -43.5t-43.5 -17.5t-44 17.5t-18 43.5zM307 1331q0 26 18 44t44 18t43.5 -18t17.5 -44
t-17.5 -43.5t-43.5 -17.5t-44 17.5t-18 43.5z" />
    <glyph glyph-name="Germandbls" horiz-adv-x="1413" 
d="M205 0v942q0 239 130 365.5t382 126.5h522v-62l-455 -500v-2q249 0 393 -124.5t144 -315.5q0 -89 -36.5 -167t-103 -136.5t-168 -92.5t-225.5 -34h-133v61h133q222 0 347 104.5t125 264.5q0 167 -124.5 273t-347.5 106h-81v61l454 502h-444q-229 0 -340 -107t-111 -323
v-942h-61z" />
    <glyph glyph-name="l.alt" horiz-adv-x="450" 
d="M195 0v1434h61v-1434h-61z" />
    <glyph glyph-name="g.alt" horiz-adv-x="1105" 
d="M72 -123q0 38 12 71.5t31 58t42 45t45.5 34t41.5 22.5t31 13l12 4v258l-16.5 11t-37 32.5t-47 55.5t-37 79.5t-16.5 104.5q0 150 116.5 254t303.5 104q41 0 77.5 -5t53.5 -10l16 -5h406v-62h-266l-21 2v-2q6 -3 16.5 -10t37 -31.5t47 -53.5t37 -77.5t16.5 -103.5
q0 -151 -116.5 -255t-303.5 -104q-55 0 -106 10.5t-75 20.5l-24 10v-205q80 21 205 21q98 0 179.5 -16t136.5 -43.5t93 -64.5t55 -78t17 -85t-17 -85t-55 -78t-93 -64.5t-136.5 -43.5t-179.5 -16t-179.5 16t-136.5 43.5t-93 64.5t-55 78t-17 85zM195 666q0 -127 97 -212
t261 -85t261 85t97 212t-97 212t-261 85t-261 -85t-97 -212zM133 -123q0 -40 24.5 -78.5t73 -72t132.5 -54t190 -20.5t190 20.5t132.5 54t73 72t24.5 78.5t-24.5 78.5t-73 72t-132.5 54t-190 20.5t-190 -20.5t-132.5 -54t-73 -72t-24.5 -78.5z" />
    <glyph glyph-name="a.alt" horiz-adv-x="1167" 
d="M143 276q0 127 97.5 212t261.5 85h420v93q0 139 -81.5 218t-226.5 79q-83 0 -151.5 -26.5t-107 -64t-65 -75t-35.5 -63.5l-9 -27h-62q2 7 5.5 18t19 44t35 63t55 66.5t77.5 63t104.5 44.5t133.5 18q168 0 268.5 -98t100.5 -260v-666h-61v225h-2q-2 -5 -6 -14t-19.5 -34.5
t-35.5 -48.5t-55 -51t-75.5 -48.5t-100 -34.5t-126.5 -14q-164 0 -261.5 84.5t-97.5 211.5zM205 276q0 -104 77.5 -169.5t219.5 -65.5q184 0 302 117.5t118 302.5v51h-420q-141 0 -219 -66t-78 -170z" />
    <glyph glyph-name="afii10085.alt" horiz-adv-x="1044" 
d="M92 1004h64l250 -943h251l283 943h64l-347 -1147q-73 -246 -299 -246h-153v61h153q92 0 148.5 44t87.5 141l45 143h-281z" />
    <glyph glyph-name="y.alt" horiz-adv-x="1044" 
d="M92 1004h64l250 -943h251l283 943h64l-347 -1147q-73 -246 -299 -246h-153v61h153q92 0 148.5 44t87.5 141l45 143h-281z" />
    <glyph glyph-name="I.alt" horiz-adv-x="962" 
d="M123 0v61h328v1311h-328v62h717v-62h-328v-1311h328v-61h-717z" />
    <glyph glyph-name="afii10065.alt" horiz-adv-x="1167" 
d="M143 276q0 127 97.5 212t261.5 85h420v93q0 139 -81.5 218t-226.5 79q-83 0 -151.5 -26.5t-107 -64t-65 -75t-35.5 -63.5l-9 -27h-62q2 7 5.5 18t19 44t35 63t55 66.5t77.5 63t104.5 44.5t133.5 18q168 0 268.5 -98t100.5 -260v-666h-61v225h-2q-2 -5 -6 -14t-19.5 -34.5
t-35.5 -48.5t-55 -51t-75.5 -48.5t-100 -34.5t-126.5 -14q-164 0 -261.5 84.5t-97.5 211.5zM205 276q0 -104 77.5 -169.5t219.5 -65.5q184 0 302 117.5t118 302.5v51h-420q-141 0 -219 -66t-78 -170z" />
    <glyph glyph-name="nine.taboldstyle" horiz-adv-x="1126" 
d="M92 543q0 199 141 340t340 141q131 0 242 -64t175.5 -172.5t64.5 -234.5q0 -128 -44.5 -220t-166.5 -251l-363 -471h-71l378 491l17 21h-2q-10 -7 -28.5 -17.5t-78 -27.5t-123.5 -17q-131 0 -241.5 64.5t-175 175.5t-64.5 242zM154 543q0 -177 121 -298.5t298 -121.5
q185 0 302.5 117.5t117.5 302.5q0 177 -121.5 298.5t-298.5 121.5t-298 -121.5t-121 -298.5z" />
    <glyph glyph-name="eight.taboldstyle" horiz-adv-x="1126" 
d="M51 389q0 79 30.5 146t69.5 105.5t91.5 69t79 40.5t49.5 17q2 0 2.5 0.5t1.5 0.5v2q-12 3 -35 11.5t-64.5 34t-76 59.5t-60.5 92.5t-26 128.5q0 144 125.5 251t324.5 107q100 0 186 -30t143.5 -80t89.5 -114.5t32 -133.5q0 -72 -27.5 -132t-66.5 -94t-78 -58.5t-66 -33.5
l-28 -8v-2q7 -2 18.5 -5t45.5 -16.5t65 -31t69 -48.5t65 -68.5t45.5 -92t18.5 -117.5q0 -81 -36 -154.5t-100.5 -130.5t-162 -90.5t-213.5 -33.5t-213.5 33.5t-162 90.5t-100.5 130.5t-36 154.5zM113 389q0 -145 121.5 -246.5t328.5 -101.5t329 101.5t122 246.5
q0 141 -122.5 244.5t-328.5 103.5q-104 0 -190.5 -29t-142.5 -78t-86.5 -111.5t-30.5 -129.5zM174 1096q0 -122 106 -209.5t283 -87.5t283 87.5t106 209.5t-106 209.5t-283 87.5t-283 -87.5t-106 -209.5z" />
    <glyph glyph-name="seven.taboldstyle" horiz-adv-x="1126" 
d="M123 635v369h921v-62l-583 -1331h-70l584 1329v2h-791v-307h-61z" />
    <glyph glyph-name="six.taboldstyle" horiz-adv-x="1126" 
d="M92 451q0 128 44.5 220t166.5 251l393 512h72l-408 -533l-18 -20h2q10 7 28 17t77.5 27t123.5 17q131 0 242 -64.5t175.5 -175t64.5 -241.5t-64.5 -241.5t-175.5 -175t-242 -64.5q-130 0 -241.5 64t-175.5 172.5t-64 234.5zM154 461q0 -177 121 -298.5t298 -121.5
t298.5 121.5t121.5 298.5t-121.5 298.5t-298.5 121.5q-184 0 -301.5 -117.5t-117.5 -302.5z" />
    <glyph glyph-name="five.taboldstyle" horiz-adv-x="1126" 
d="M137 -20h62q1 -7 4.5 -18.5t17.5 -46t32 -65.5t50.5 -68.5t71.5 -65t97.5 -46t125.5 -18.5q170 0 279.5 111.5t109.5 287.5t-109.5 288t-279.5 112q-52 0 -99.5 -11.5t-81 -29.5t-62 -40t-47 -43.5t-31 -39.5t-17.5 -29l-6 -12h-66l52 758h716v-62h-661l-43 -596h2
q4 7 13 18t40.5 39.5t67.5 50.5t96.5 40t126.5 18q193 0 322 -131t129 -330t-129 -330t-322 -131q-79 0 -147.5 21.5t-114.5 56t-82.5 76t-57.5 83t-35 76t-19 55.5z" />
    <glyph glyph-name="four.taboldstyle" horiz-adv-x="1126" 
d="M102 0v61l533 943h72l-533 -943h635v431h61v-431h195v-61h-195v-389h-61v389h-707z" />
    <glyph glyph-name="three.taboldstyle" horiz-adv-x="1126" 
d="M721 342v-2q122 -34 199 -127t77 -233q0 -165 -122.5 -277.5t-317.5 -112.5q-77 0 -145 20t-114.5 51.5t-84.5 69.5t-61 76.5t-38.5 70t-21.5 51.5l-6 20h61q2 -6 5.5 -17t18.5 -41.5t34 -58.5t53 -62.5t74 -59t99 -41.5t126 -17q173 0 276 93t103 235t-104.5 234.5
t-284.5 92.5h-164v62h174q151 0 244.5 85.5t93.5 211.5t-93.5 211.5t-244.5 85.5q-56 0 -107 -13.5t-87 -35.5t-67 -48t-50 -52t-33 -48t-19 -36l-6 -13h-61q2 6 6 17.5t20 43t36.5 60.5t56.5 64.5t78 61t103 43t130 17.5q174 0 286.5 -104.5t112.5 -253.5q0 -124 -64 -204
t-171 -120z" />
    <glyph glyph-name="two.taboldstyle" horiz-adv-x="1126" 
d="M143 727q2 6 5 17t17.5 41.5t33.5 58.5t54.5 62.5t77.5 59t105.5 41.5t136.5 17q179 0 284.5 -91t105.5 -226q0 -71 -26.5 -132t-79.5 -114t-110.5 -94.5t-142.5 -90.5l-348 -204l-20 -11v-2l20 2h727v-61h-860v61l420 246q91 53 150 95t110 91t74.5 101.5t23.5 112.5
q0 112 -86 184t-242 72q-83 0 -151.5 -24.5t-107 -59t-65 -69t-35.5 -58.5l-9 -25h-62z" />
    <glyph glyph-name="one.taboldstyle" horiz-adv-x="1126" 
d="M184 0v61h400v865l-297 -236v78l297 236h61v-943h379v-61h-840z" />
    <glyph glyph-name="zero.taboldstyle" horiz-adv-x="1126" 
d="M51 502q0 146 68 266t185 188t259 68t259 -68t185 -188t68 -266t-68 -266t-185 -188t-259 -68t-259 68t-185 188t-68 266zM113 502q0 -199 128.5 -330t321.5 -131t322 131t129 330t-129 330t-322 131t-321.5 -131t-128.5 -330z" />
    <glyph glyph-name="at.case" horiz-adv-x="1679" 
d="M123 737q0 159 58 299.5t157.5 241t238 159t293.5 58.5q153 0 287 -50t225 -133t143 -193t52 -228q0 -217 -125 -339t-354 -122h-2v111h-2q-3 -5 -8.5 -14t-27 -31.5t-47 -40t-69 -31.5t-92.5 -14q-125 0 -216 95.5t-91 231.5q0 137 91.5 232.5t215.5 95.5q49 0 92 -14
t69.5 -34.5t46 -40.5t28.5 -34l8 -14h2v116h61v-548q156 0 257.5 108t101.5 287q0 107 -47 205.5t-129.5 173.5t-205 119.5t-264.5 44.5q-192 0 -349 -90.5t-247 -250.5t-90 -356t90 -356t247 -250t349 -90q69 0 136.5 11.5t114.5 27.5t84.5 32.5t56.5 27.5l18 12v-68
q-7 -4 -19.5 -11t-54 -25t-86 -32t-113 -25t-137.5 -11q-207 0 -378.5 99t-270 272.5t-98.5 385.5zM604 737q0 -114 72.5 -190t173.5 -76t173.5 76t72.5 190t-72.5 190.5t-173.5 76.5t-173.5 -76.5t-72.5 -190.5z" />
    <glyph glyph-name="parenleft.case" horiz-adv-x="727" 
d="M205 717q0 128 26 249t67.5 213.5t91.5 174t100.5 138t92 97.5t67.5 61l26 19l31 -51q-9 -6 -25 -18.5t-62 -56t-87.5 -93t-92.5 -129.5t-87.5 -165.5t-61.5 -201.5t-25 -237q0 -95 15 -187t40.5 -166.5t58.5 -144t70 -123t73.5 -100t69.5 -79t58.5 -56t40.5 -34.5
l15 -11l-31 -52q-10 7 -27 20t-66 59.5t-93.5 99t-98.5 137t-93 175t-66 212.5t-27 250z" />
    <glyph glyph-name="parenright.case" horiz-adv-x="706" 
d="M20 -174q9 7 24 19.5t58.5 57t83.5 94t88.5 129t83 164t58.5 197.5t24 230t-23 229.5t-60 198.5t-82 163t-90 130.5t-82 92.5t-60 58l-23 19l31 51q9 -7 25.5 -20.5t63.5 -60.5t89.5 -99.5t94.5 -137t89.5 -173.5t63 -208.5t25.5 -242.5t-25 -241.5t-64.5 -209.5
t-87.5 -172.5t-96.5 -138.5t-88 -98.5t-64.5 -61.5l-25 -20z" />
    <glyph glyph-name="bracketleft.case" horiz-adv-x="655" 
d="M225 -174v1782h379v-62h-317v-1659h317v-61h-379z" />
    <glyph glyph-name="bracketright.case" horiz-adv-x="655" 
d="M51 -174v61h318v1659h-318v62h379v-1782h-379z" />
    <glyph glyph-name="braceleft.case" horiz-adv-x="675" 
d="M256 719v-2q6 -2 13.5 -5.5t24.5 -16t30 -29.5t23.5 -47t10.5 -66v-522q0 -62 43 -103t111 -41h113v-61h-113q-99 0 -157 56t-58 149v522q0 61 -35.5 97t-97.5 36h-51v62h51q62 0 97.5 36t35.5 97v522q0 93 58 149t157 56h113v-62h-113q-68 0 -111 -40.5t-43 -102.5v-522
q0 -36 -10 -65.5t-23 -46t-29 -29t-25.5 -16.5t-14.5 -5z" />
    <glyph glyph-name="braceright.case" horiz-adv-x="675" 
d="M418 715v2q-30 15 -39 23q-62 48 -62 141v522q0 62 -42.5 102.5t-110.5 40.5h-113v62h113q99 0 157 -56t58 -149v-522q0 -61 35.5 -97t97.5 -36h51v-62h-51q-62 0 -97.5 -36t-35.5 -97v-522q0 -93 -58 -149t-157 -56h-113v61h113q68 0 110.5 41t42.5 103v522
q0 118 99 161z" />
    <glyph glyph-name="nine.tab" horiz-adv-x="1228" 
d="M102 973q0 136 67.5 251.5t185.5 183t259 67.5q140 0 258.5 -67t186 -180.5t67.5 -244.5q0 -57 -11 -108t-24.5 -87.5t-47.5 -88t-57 -81t-76 -95.5q-16 -20 -25 -31l-393 -492h-72l409 512l17 20h-2q-10 -7 -28.5 -17t-78 -27t-123.5 -17q-141 0 -259 67.5t-185.5 183
t-67.5 251.5zM164 973q0 -185 129.5 -313t320.5 -128t321 128t130 313t-130 312.5t-321 127.5t-320.5 -127.5t-129.5 -312.5z" />
    <glyph glyph-name="afii10069.alt" horiz-adv-x="1146" 
d="M10 -246v307h113q5 2 14 7t32 27t40.5 52t32 86t14.5 125v646h676v-943h164v-307h-62v246h-962v-246h-62zM211 61h659v881h-553v-573q0 -65 -10.5 -120t-23.5 -86.5t-30.5 -56t-26.5 -32t-15 -11.5v-2z" />
    <glyph glyph-name="nine.dnom" horiz-adv-x="645" 
d="M61 461q0 107 80.5 181.5t196.5 74.5t196 -74.5t80 -181.5q0 -121 -110 -236l-213 -225h-76l205 213l16 16h-2q-48 -24 -96 -24q-121 0 -199 73.5t-78 182.5zM123 461q0 -86 58.5 -140.5t156.5 -54.5q94 0 154.5 57t60.5 138q0 84 -61 139t-154 55t-154 -55t-61 -139z
" />
    <glyph glyph-name="eight.dnom" horiz-adv-x="716" 
d="M61 184q0 38 15 70t33.5 50t44.5 32.5t37 18.5t22 7v3q-5 2 -15 6.5t-30 18t-35.5 30t-28 44t-12.5 58.5q0 84 69 139.5t197 55.5t197.5 -55.5t69.5 -139.5q0 -31 -12 -58t-27.5 -43.5t-35.5 -30t-30.5 -18.5t-17.5 -7v-3q8 -2 19.5 -6t37.5 -18t45 -32t35 -50.5
t16 -71.5q0 -85 -77.5 -144.5t-219.5 -59.5t-219.5 59.5t-77.5 144.5zM123 184q0 -62 58 -102.5t177 -40.5t177.5 40.5t58.5 102.5t-58.5 103t-177.5 41t-177 -41t-58 -103zM154 522q0 -52 54 -92.5t150 -40.5t150.5 40.5t54.5 92.5q0 54 -54 93.5t-151 39.5t-150.5 -39.5
t-53.5 -93.5z" />
    <glyph glyph-name="seven.dnom" horiz-adv-x="522" 
d="M31 635v61h491v-61l-325 -635h-66l326 633v2h-426z" />
    <glyph glyph-name="six.dnom" horiz-adv-x="645" 
d="M61 236q0 119 111 235l213 225h76l-205 -213l-16 -16h2q50 25 96 25q121 0 198.5 -73.5t77.5 -182.5q0 -107 -80 -181.5t-196 -74.5t-196.5 74.5t-80.5 181.5zM123 236q0 -84 61 -139.5t154 -55.5t154 55.5t61 139.5q0 86 -58.5 140t-156.5 54q-94 0 -154.5 -56.5
t-60.5 -137.5z" />
    <glyph glyph-name="five.dnom" horiz-adv-x="655" 
d="M82 184h65q2 -6 5.5 -15.5t19 -34t37 -43.5t61 -34.5t88.5 -15.5q97 0 151 47.5t54 126.5t-54 126.5t-151 47.5q-34 0 -66 -8.5t-52.5 -20.5t-36 -24t-22.5 -20l-7 -9l-63 10l12 379h450v-61h-391l-10 -254h2l7.5 7.5t22.5 16.5t39 21.5t55 17t71 7.5q114 0 185 -67.5
t71 -168.5q0 -102 -73 -168.5t-194 -66.5q-66 0 -119 21t-81 51t-46.5 60t-23.5 51z" />
    <glyph glyph-name="four.dnom" horiz-adv-x="624" 
d="M51 184v62l277 450h69l-280 -450h313v174h62v-174h112v-62h-112v-184h-62v184h-379z" />
    <glyph glyph-name="three.dnom" horiz-adv-x="684" 
d="M72 184h65q1 -6 4.5 -15.5t19.5 -34t38 -43.5t63.5 -34.5t93.5 -15.5q97 0 151 46t54 118t-54 118t-151 46h-143v61l279 205v2l-21 -2h-360v61h471v-61l-260 -191l-19 -12v-2h53q128 0 197.5 -61.5t69.5 -163.5t-69.5 -163.5t-197.5 -61.5q-50 0 -93 11.5t-71 29
t-50.5 39.5t-35 44t-21 39.5t-11.5 28.5z" />
    <glyph glyph-name="two.dnom" horiz-adv-x="686" 
d="M72 0v61l174 111q141 89 180 120q109 87 116 184q1 8 1 16q0 71 -52.5 117t-142.5 46q-46 0 -84 -16t-59.5 -38.5t-36.5 -44.5t-20 -38l-5 -16h-61q1 4 3.5 12t12 30.5t21.5 42.5t34 45t48 43t64.5 30t82.5 12q113 0 184.5 -65.5t71.5 -159.5q0 -44 -15.5 -85t-37 -70.5
t-60 -62.5t-67 -52.5t-76.5 -49.5l-155 -98l-19 -13v-2l21 2h419v-61h-542z" />
    <glyph glyph-name="one.dnom" horiz-adv-x="655" 
d="M102 0v61h226v570l-195 -113v66l195 112h61v-635h205v-61h-492z" />
    <glyph glyph-name="zero.dnom" horiz-adv-x="778" 
d="M82 348q0 164 90 266.5t217 102.5t217 -102.5t90 -266.5t-90 -266t-217 -102t-217 102t-90 266zM143 348q0 -141 71 -224t175 -83t175 83t71 224t-71 224t-175 83t-175 -83t-71 -224z" />
    <glyph glyph-name="nine.numr" horiz-adv-x="645" 
d="M61 1198q0 107 80.5 181.5t196.5 74.5t196 -74.5t80 -181.5q0 -120 -110 -235l-213 -226h-76l205 213l16 17h-2q-50 -25 -96 -25q-121 0 -199 73.5t-78 182.5zM123 1198q0 -86 58.5 -140t156.5 -54q94 0 154.5 56.5t60.5 137.5q0 84 -61 139.5t-154 55.5t-154 -55.5
t-61 -139.5z" />
    <glyph glyph-name="eight.numr" horiz-adv-x="716" 
d="M61 922q0 38 15 70t33.5 50t44.5 32.5t37 18.5t22 7v2q-5 2 -15 6.5t-29.5 18t-35.5 30.5t-28.5 44.5t-12.5 58.5q0 84 69 139t197 55t197.5 -55t69.5 -139q0 -38 -16.5 -69.5t-41 -49.5t-40 -27t-25.5 -12v-2q8 -2 19.5 -6t37.5 -18t45 -32t35 -50.5t16 -71.5
q0 -85 -77.5 -145t-219.5 -60t-219.5 60t-77.5 145zM123 922q0 -62 58 -103t177 -41t177.5 41t58.5 103t-58.5 102.5t-177.5 40.5t-177 -40.5t-58 -102.5zM154 1260q0 -52 54 -93t150 -41t150.5 41t54.5 93q0 54 -54 93.5t-151 39.5t-150.5 -39.5t-53.5 -93.5z" />
    <glyph glyph-name="seven.numr" horiz-adv-x="522" 
d="M31 1372v62h491v-62l-325 -635h-66l326 633v2h-426z" />
    <glyph glyph-name="six.numr" horiz-adv-x="645" 
d="M61 973q0 119 111 235l213 226h76l-205 -213l-16 -17h2q50 25 96 25q121 0 198.5 -73.5t77.5 -182.5q0 -107 -80 -181.5t-196 -74.5t-196.5 74.5t-80.5 181.5zM123 973q0 -84 61 -139.5t154 -55.5t154 55.5t61 139.5q0 86 -58.5 140t-156.5 54q-94 0 -154.5 -56.5
t-60.5 -137.5z" />
    <glyph glyph-name="five.numr" horiz-adv-x="655" 
d="M82 922h65q2 -6 5.5 -15.5t19 -34.5t37 -44t61 -34.5t88.5 -15.5q97 0 151 47.5t54 126.5t-54 126.5t-151 47.5q-34 0 -66 -8.5t-52.5 -20.5t-36 -24t-22.5 -21l-7 -8l-63 11l12 379h450v-62h-391l-10 -254h2l7.5 7.5t22.5 16.5t39 21.5t55 17t71 7.5q114 0 185 -67.5
t71 -168.5q0 -102 -73 -168.5t-194 -66.5q-48 0 -89.5 11.5t-69 29.5t-49.5 40t-34 43.5t-20.5 39.5t-11.5 29z" />
    <glyph glyph-name="four.numr" horiz-adv-x="624" 
d="M51 922v61l277 451h69l-280 -451h313v174h62v-174h112v-61h-112v-185h-62v185h-379z" />
    <glyph glyph-name="three.numr" horiz-adv-x="684" 
d="M72 922h65q1 -6 4.5 -15.5t19.5 -34.5t38 -44t63.5 -34.5t93.5 -15.5q97 0 151 46t54 118t-54 118t-151 46h-143v61l279 205v2l-21 -2h-360v62h471v-62l-260 -190l-19 -13v-2h53q128 0 197.5 -61.5t69.5 -163.5t-69.5 -163.5t-197.5 -61.5q-69 0 -123.5 21t-83 51
t-47.5 60.5t-24 51.5z" />
    <glyph glyph-name="two.numr" horiz-adv-x="686" 
d="M72 737v62l174 110q141 89 180 120q109 87 116 184q1 8 1 16q0 71 -52.5 117.5t-142.5 46.5q-46 0 -84 -16t-59.5 -38.5t-36.5 -45t-20 -38.5l-5 -16h-61q1 4 3.5 12t12 30.5t21.5 42.5t34 45t48 43t64.5 30t82.5 12q113 0 184.5 -65.5t71.5 -159.5q0 -44 -15.5 -85
t-37 -70.5t-60 -62.5t-67 -52.5t-76.5 -49.5l-155 -98l-19 -12v-2l21 2h419v-62h-542z" />
    <glyph glyph-name="one.numr" horiz-adv-x="655" 
d="M102 737v62h226v569l-195 -113v66l195 113h61v-635h205v-62h-492z" />
    <glyph glyph-name="zero.numr" horiz-adv-x="778" 
d="M82 1085q0 164 90 266.5t217 102.5t217 -102.5t90 -266.5t-90 -266t-217 -102t-217 102t-90 266zM143 1085q0 -141 71 -224t175 -83t175 83t71 224t-71 224.5t-175 83.5t-175 -83.5t-71 -224.5z" />
    <glyph glyph-name="eight.tab" horiz-adv-x="1228" 
d="M72 379q0 63 19 118.5t46 93.5t66.5 70.5t70.5 50.5t69 33t50 18.5t25 6.5v2q-10 2 -35 10.5t-70 33.5t-83.5 60t-67.5 96t-29 134q0 154 130 261.5t351 107.5t351.5 -107.5t130.5 -261.5q0 -73 -29 -134t-67.5 -96t-84 -60t-71 -34t-35.5 -10v-2q13 -3 25 -6.5t50 -18.5
t69 -33t71 -50.5t67.5 -70.5t46.5 -93.5t19 -118.5q0 -85 -36.5 -160.5t-104 -133.5t-171.5 -92t-231 -34t-231 34t-171 92t-103.5 133.5t-36.5 160.5zM133 379q0 -154 126.5 -256.5t354.5 -102.5t355 102.5t127 256.5q0 150 -127 254t-355 104q-115 0 -208 -29.5
t-152 -79.5t-90 -113.5t-31 -135.5zM195 1106q0 -130 110.5 -218.5t308.5 -88.5q197 0 308.5 89.5t111.5 217.5q0 130 -111 218.5t-309 88.5t-308.5 -88.5t-110.5 -218.5z" />
    <glyph glyph-name="seven.tab" horiz-adv-x="1228" 
d="M117 1065v369h1013v-62l-614 -1372h-72l615 1370v2h-881v-307h-61z" />
    <glyph glyph-name="six.tab" horiz-adv-x="1228" 
d="M102 451q0 92 30.5 173t64.5 129t120 155q18 22 27 34l393 492h72l-410 -512l-16 -21h2q10 7 28 17.5t77.5 27.5t123.5 17q141 0 259 -67.5t185.5 -183t67.5 -251.5t-67.5 -251.5t-185.5 -183t-259 -67.5q-140 0 -258.5 67t-186 180.5t-67.5 244.5zM164 461
q0 -185 129.5 -313t320.5 -128t321 128t130 313t-130 312.5t-321 127.5t-320.5 -127.5t-129.5 -312.5z" />
    <glyph glyph-name="five.tab" horiz-adv-x="1228" 
d="M133 348h62q2 -7 5.5 -18.5t19 -46t35.5 -65.5t56.5 -68.5t79.5 -65t107 -46t137 -18.5q194 0 317 123t123 297t-123 297t-317 123q-74 0 -139.5 -19t-106 -46t-70 -54t-41.5 -46l-12 -19h-71l61 758h809v-62h-754l-51 -608h2q5 6 15 17t45.5 38t75 48t104 38t133.5 17
q109 0 203.5 -39.5t159.5 -105.5t102 -154t37 -183t-37 -183t-102 -153.5t-159.5 -105t-203.5 -39.5q-84 0 -156.5 21.5t-122.5 56t-90.5 76t-64.5 82.5t-40 75.5t-22 55.5z" />
    <glyph glyph-name="four.tab" horiz-adv-x="1228" 
d="M106 348v62l523 1024h71l-522 -1024h717v430h10h51v-430h226v-62h-226v-348h-61v348h-789z" />
    <glyph glyph-name="three.tab" horiz-adv-x="1228" 
d="M86 348h61q2 -7 5 -18.5t18.5 -46t36 -65.5t59 -68.5t84.5 -65t116.5 -46t151.5 -18.5q189 0 304.5 107.5t115.5 271.5t-115.5 271.5t-304.5 107.5h-204v62l553 530v2h-809v62h891v-62l-531 -512l-22 -18v-2h122q212 0 347 -127t135 -314t-135 -313.5t-347 -126.5
q-92 0 -171 21.5t-132 56t-95.5 76t-66.5 82.5t-40 75.5t-21 55.5z" />
    <glyph glyph-name="two.tab" horiz-adv-x="1228" 
d="M117 0v61l420 334q76 61 128 105.5t113 101t99.5 105.5t73 105t51 114t16.5 118q0 163 -109 266t-291 103q-75 0 -138.5 -19.5t-104.5 -51.5t-73 -70t-48.5 -76t-27.5 -70t-14 -52l-3 -19h-62q1 9 3.5 24t15 58.5t31 83.5t55.5 88.5t84 83t120.5 58.5t161.5 24
q205 0 333 -122t128 -309q0 -80 -29 -159.5t-71.5 -143.5t-114.5 -138t-134 -127t-155 -126l-346 -272l-20 -17v-2l20 2h861v-61h-973z" />
    <glyph glyph-name="one.tab" horiz-adv-x="1228" 
d="M174 0v61h440v1301l-266 -215v72l266 215h62v-1373h430v-61h-932z" />
    <glyph glyph-name="zero.tab" horiz-adv-x="1228" 
d="M51 522v389q0 254 155 409t408 155q254 0 409 -155.5t155 -408.5v-389q0 -253 -155 -408t-409 -155t-408.5 154.5t-154.5 408.5zM113 522q0 -223 139 -362.5t362 -139.5t362.5 139.5t139.5 362.5v389q0 223 -139.5 362.5t-362.5 139.5t-362 -139.5t-139 -362.5v-389z" />
    <glyph glyph-name="afii10021.alt" horiz-adv-x="1474" 
d="M0 -287v348h143q4 1 10.5 4.5t26 19t37 37t38.5 62t36.5 90t26 125t10.5 164.5v871h901v-1373h184v-348h-61v287h-1291v-287h-61zM236 61h931v1311h-778v-809q0 -84 -8.5 -156.5t-22 -122.5t-29.5 -90.5t-32.5 -64.5t-30 -40t-22.5 -22z" />
    <glyph glyph-name="f.alt" horiz-adv-x="583" 
d="M61 942v62h154v153q0 137 67.5 207t198.5 70h154v-62h-154q-100 0 -152.5 -54t-52.5 -161v-153h297v-62h-297v-942h-61v942h-154z" />
    <glyph glyph-name="t.alt" horiz-adv-x="696" 
d="M61 942v62h154v225h61v-225h349v-62h-349v-666q0 -107 52.5 -161t152.5 -54h154v-61h-154q-266 0 -266 276v666h-154z" />
    <glyph glyph-name="j.alt" horiz-adv-x="419" 
d="M164 1331q0 26 17.5 44t43.5 18t44 -18t18 -44t-18 -43.5t-44 -17.5t-43.5 17.5t-17.5 43.5zM-102 -389v61h92q100 0 152.5 54t52.5 161v1117h61v-1117q0 -276 -266 -276h-92z" />
    <glyph glyph-name="afii10055.alt" horiz-adv-x="962" 
d="M123 0v61h328v1311h-328v62h717v-62h-328v-1311h328v-61h-717z" />
    <glyph glyph-name="afii10056.alt" horiz-adv-x="962" 
d="M123 0v61h328v1311h-328v62h717v-62h-328v-1311h328v-61h-717zM594 1700q0 26 17.5 43.5t43.5 17.5t44 -17.5t18 -43.5t-18 -44t-44 -18t-43.5 18t-17.5 44zM246 1700q0 26 17.5 43.5t43.5 17.5t44 -17.5t18 -43.5t-18 -44t-44 -18t-43.5 18t-17.5 44z" />
    <glyph glyph-name="afii10061.alt" horiz-adv-x="1392" 
d="M954 729v-2q7 -1 12.5 -2.5t23.5 -9.5t32 -18.5t33 -31.5t31 -47.5t21 -67t9 -89.5v-246q0 -164 154 -164h61v-61h-61q-100 0 -157.5 59t-57.5 166v246q0 123 -56.5 179t-179.5 56h-532v-696h-62v1434h62v-676h532q117 0 166 53t49 182v226q0 107 57.5 166t157.5 59h62
v-62h-62q-77 0 -115 -39.5t-38 -123.5v-226q0 -64 -13.5 -114t-30.5 -76t-40.5 -44.5t-35.5 -23t-22 -6.5zM614 1587l203 277h84v-2l-225 -275h-62z" />
    <glyph glyph-name="afii10051.alt" horiz-adv-x="1576" 
d="M20 1372v62h1045v-62h-522v-522h430q228 0 354.5 -121t126.5 -330v-133q0 -209 -126.5 -329.5t-354.5 -120.5h-2v61h2q205 0 312.5 101.5t107.5 287.5v133q0 186 -107.5 287.5t-312.5 101.5h-430v-788h-62v1372h-461z" />
    <glyph glyph-name="afii10058.alt" horiz-adv-x="2252" 
d="M-41 0v61q52 -20 113 -20q65 0 111.5 22.5t82.5 76.5t54 151.5t18 240.5v902h881v-533h460q227 0 359.5 -124t132.5 -326t-132.5 -326.5t-359.5 -124.5h-522v1372h-758v-840q0 -127 -14.5 -222.5t-41 -158t-68 -101t-90.5 -54.5t-113 -16q-27 0 -55.5 5t-42.5 10z
M1219 61h460q204 0 317 105t113 285t-113 284.5t-317 104.5h-460v-779z" />
    <glyph glyph-name="afii10099.alt" horiz-adv-x="1146" 
d="M31 1116v62h164v256h61v-256h266v-62h-266v-481h2q45 107 145.5 166t231.5 59q171 0 275 -111.5t104 -308.5v-553q0 -276 -266 -276h-93v61h93q204 0 204 215v553q0 166 -88 262.5t-229 96.5q-165 0 -272 -109.5t-107 -290.5v-399h-61v1116h-164z" />
    <glyph glyph-name="afii10105.alt" horiz-adv-x="450" 
d="M164 1331q0 26 17.5 44t43.5 18t44 -18t18 -44t-18 -43.5t-44 -17.5t-43.5 17.5t-17.5 43.5zM-102 -389v61h92q100 0 152.5 54t52.5 161v1117h61v-1117q0 -276 -266 -276h-92z" />
    <glyph glyph-name="afii10106.alt" horiz-adv-x="1710" 
d="M0 6v62q31 -17 82 -17q98 0 146 69t48 238v646h676v-390h338q158 0 253 -87t95 -220t-95 -220t-253 -87h-399v942h-553v-584q0 -200 -63.5 -284t-192.5 -84q-23 0 -43.5 4t-29.5 8zM952 61h338q135 0 211 68t76 178t-76 178t-211 68h-338v-492z" />
    <glyph glyph-name="afii10109.alt" horiz-adv-x="1085" 
d="M750 520v-2q47 -19 72 -46q48 -53 48 -144v-154q0 -123 123 -123h31v-61h-31q-85 0 -134.5 49.5t-49.5 134.5v154q0 153 -154 153h-399v-481h-61v1004h61v-461h379q153 0 153 153v133q0 85 50 135t135 50h31v-62h-31q-123 0 -123 -123v-133q0 -40 -9.5 -72.5t-21.5 -50
t-29 -31t-24.5 -16.5t-15.5 -6zM512 1147l203 276h84v-2l-226 -274h-61z" />
    <glyph glyph-name="ff.alt" horiz-adv-x="1198" 
d="M61 942v62h154v153q0 137 67.5 207t198.5 70h154v-62h-154q-100 0 -152.5 -54t-52.5 -161v-153h553v153q0 137 68 207t199 70h153v-62h-153q-100 0 -152.5 -54t-52.5 -161v-153h297v-62h-297v-942h-62v942h-553v-942h-61v942h-154z" />
    <glyph glyph-name="fi.alt" horiz-adv-x="1085" 
d="M61 942v62h154v153q0 137 67.5 207t198.5 70h379v-62h-379q-100 0 -152.5 -54t-52.5 -161v-153h615v-1004h-62v942h-553v-942h-61v942h-154z" />
    <glyph glyph-name="f_j.alt" horiz-adv-x="1085" 
d="M61 942v62h154v153q0 137 67.5 207t198.5 70h379v-62h-379q-100 0 -152.5 -54t-52.5 -161v-153h615v-1117q0 -276 -266 -276h-93v61h93q204 0 204 215v1055h-553v-942h-61v942h-154z" />
    <glyph glyph-name="fl.alt" horiz-adv-x="1085" 
d="M61 942v62h154v133q0 139 93 228t245 89t245 -89t93 -228v-1137h-62v1137q0 117 -73.5 186.5t-202.5 69.5t-203 -69.5t-74 -186.5v-133h297v-62h-297v-942h-61v942h-154z" />
    <glyph glyph-name="f_t.alt" horiz-adv-x="1310" 
d="M61 942v62h154v133q0 139 93 228t245 89t245 -89t93 -228v-133h348v-62h-348v-666q0 -107 52.5 -161t152.5 -54h153v-61h-153q-131 0 -199 69.5t-68 206.5v666h-553v-942h-61v942h-154zM276 1004h553v133q0 117 -73.5 186.5t-202.5 69.5t-203 -69.5t-74 -186.5v-133z" />
    <glyph glyph-name="afii10072.alt" horiz-adv-x="1515" 
d="M1180 518v-2q40 -16 59 -33q61 -53 61 -155v-154q0 -123 123 -123h31v-61h-31q-85 0 -134.5 49.5t-49.5 134.5v154q0 153 -154 153h-297v-481h-61v481h-297q-154 0 -154 -153v-154q0 -85 -49.5 -134.5t-134.5 -49.5h-31v61h31q123 0 123 123v154q0 51 15 89.5t38 58.5
t37.5 28t28.5 12v2q-5 1 -15 5.5t-25 17.5t-27.5 31.5t-21.5 51t-9 72.5v133q0 123 -123 123h-31v62h31q85 0 134.5 -50t49.5 -135v-133q0 -153 154 -153h276v461h61v-461h277q154 0 154 153v133q0 85 49.5 135t134.5 50h31v-62h-31q-123 0 -123 -123v-133q0 -40 -9.5 -73
t-21.5 -50.5t-29 -31t-25 -17.5t-15 -6z" />
    <glyph glyph-name="A_A" horiz-adv-x="2516" 
d="M72 0l379 1434h460l340 -1301l9 -31h2l6 31l338 1301h460l379 -1434h-63l-141 532h-809l-142 -532h-63l-142 532h-809l-141 -532h-63zM1446 594h780l-207 778h-366zM291 594h780l-207 778h-366z" />
    <glyph glyph-name="A_R" horiz-adv-x="2129" 
d="M72 0l379 1434h1075q227 0 354 -117.5t127 -312.5q0 -172 -100.5 -285t-290.5 -139l371 -580h-76l-367 573h-520v-573h-61v573h-676l-152 -573h-63zM1024 635h502q203 0 311.5 98.5t108.5 270.5t-108 270t-312 98h-502v-737zM303 635h660v737h-465z" />
    <glyph glyph-name="A_T" horiz-adv-x="1515" 
d="M123 0l362 1372h-321v62h1177v-62h-311l363 -1372h-64l-141 532h-400v-532h-61v532h-399l-142 -532h-63zM788 594h386l-207 778h-179v-778zM342 594h385v778h-178z" />
    <glyph glyph-name="A_V" horiz-adv-x="2148" 
d="M72 0l379 1434h460l363 -1373h366l363 1373h63l-378 -1434h-461l-142 532h-809l-141 -532h-63zM291 594h780l-207 778h-366z" />
    <glyph glyph-name="C_E" horiz-adv-x="1638" 
d="M123 717q0 162 56 303.5t151 241t225 156.5t274 57q111 0 208.5 -27.5t165.5 -72t124 -98t90 -107t57.5 -98t32.5 -72.5l9 -27h-62q-3 9 -8.5 25t-29.5 61.5t-53 87t-81.5 92.5t-113.5 87.5t-150 61.5t-189 25q-133 0 -251.5 -51.5t-205.5 -142t-137.5 -221t-50.5 -281.5
t50.5 -281.5t137.5 -221t205.5 -142.5t251.5 -52q102 0 192.5 26t153 67.5t114.5 92t83.5 101t53 92t30.5 67.5l8 26h62q-3 -11 -9.5 -30.5t-32 -74.5t-58.5 -105.5t-91 -112t-126 -105.5t-167.5 -74.5t-212.5 -30.5q-144 0 -274 57t-225 156.5t-151 241t-56 303.5zM584 379
v676h512v-62h-451v-235h338v-62h-338v-256h451v-61h-512z" />
    <glyph glyph-name="C_O" horiz-adv-x="1638" 
d="M123 717q0 162 56 303.5t151 241t225 156.5t274 57q111 0 208.5 -27.5t165.5 -72t124 -98t90 -107t57.5 -98t32.5 -72.5l9 -27h-62q-3 9 -8.5 25t-29.5 61.5t-53 87t-81.5 92.5t-113.5 87.5t-150 61.5t-189 25q-133 0 -251.5 -51.5t-205.5 -142t-137.5 -221t-50.5 -281.5
t50.5 -281.5t137.5 -221t205.5 -142.5t251.5 -52q102 0 192.5 26t153 67.5t114.5 92t83.5 101t53 92t30.5 67.5l8 26h62q-3 -11 -9.5 -30.5t-32 -74.5t-58.5 -105.5t-91 -112t-126 -105.5t-167.5 -74.5t-212.5 -30.5q-144 0 -274 57t-225 156.5t-151 241t-56 303.5zM512 717
q0 153 95.5 250.5t242.5 97.5t242.5 -97.5t95.5 -250.5t-95.5 -250.5t-242.5 -97.5t-242.5 97.5t-95.5 250.5zM573 717q0 -130 76.5 -208.5t200.5 -78.5t200 78.5t76 208.5t-76 208.5t-200 78.5t-200.5 -78.5t-76.5 -208.5z" />
    <glyph glyph-name="D_E" horiz-adv-x="2158" 
d="M225 0v1434h1831v-62h-1124v-2q133 -44 230.5 -142t146 -218t53.5 -252h541v-62h-541q0 -98 -27.5 -194.5t-79.5 -183t-135.5 -154.5t-187.5 -101v-2h1124v-61h-1831zM287 61h387q280 9 453 190.5t173 465.5q0 292 -181.5 473.5t-473.5 181.5h-358v-1311z" />
    <glyph glyph-name="E_A" horiz-adv-x="2373" 
d="M225 0v1434h860v-62h-798v-614h997l178 676h461l379 -1434h-64l-186 696h-721l-184 -696h-922zM1348 758h688l-160 614h-367zM287 61h813l168 635h-981v-635z" />
    <glyph glyph-name="J_A" horiz-adv-x="1904" 
d="M10 317l62 11q1 -6 4 -17.5t16.5 -43.5t31 -61t50.5 -64.5t73.5 -61t101.5 -43t132 -17.5q186 0 293 111t107 309v994h573l379 -1434h-64l-141 532h-686v-92q0 -229 -122 -355t-339 -126q-81 0 -151 19.5t-117 51.5t-84.5 70t-59 76t-35.5 70t-19 52zM942 594h672
l-207 778h-465v-778z" />
    <glyph glyph-name="K_K" horiz-adv-x="1699" 
d="M1061 725l512 709h76l-512 -707l532 -727h-78zM225 0v1434h62v-676h377l489 676h76l-512 -707l532 -727h-78l-509 696h-375v-696h-62z" />
    <glyph glyph-name="K_O" horiz-adv-x="2232" 
d="M225 0v1434h62v-676h377l489 676h76l-512 -707l532 -727h-78l-509 696h-375v-696h-62zM1126 727q0 141 70 261.5t188 190.5t254 70t254 -70t188 -190.5t70 -261.5t-70 -261.5t-188 -190.5t-254 -70t-254 70t-188 190.5t-70 261.5zM1188 727q0 -191 132.5 -326t317.5 -135
t318 135t133 326t-133 326t-318 135t-317.5 -135t-132.5 -326z" />
    <glyph glyph-name="L_A" horiz-adv-x="1945" 
d="M225 0v1434h62v-1373h385l362 1373h461l379 -1434h-64l-141 532h-809l-125 -471h350v-61h-860zM874 594h781l-207 778h-367z" />
    <glyph glyph-name="L_I" horiz-adv-x="1310" 
d="M1024 328v1106h61v-1106h-61zM225 0v1434h62v-1373h798v-61h-860z" />
    <glyph glyph-name="L_L" horiz-adv-x="1261" 
d="M565 328v1106h62v-1045h594v-61h-656zM225 0v1434h62v-1373h798v-61h-860z" />
    <glyph glyph-name="L_F" horiz-adv-x="1341" 
d="M594 307v1127h676v-62h-615v-481h482v-62h-482v-522h-61zM225 0v1434h62v-1373h798v-61h-860z" />
    <glyph glyph-name="L_O" horiz-adv-x="1617" 
d="M481 932q0 141 70 261.5t188 190.5t254 70t254 -70t188 -190.5t70 -261.5t-70 -261.5t-188 -190.5t-254 -70t-254 70t-188 190.5t-70 261.5zM225 0v1434h62v-1373h798v-61h-860zM543 932q0 -191 132.5 -326t317.5 -135t318 135t133 326t-133 326t-318 135t-317.5 -135
t-132.5 -326z" />
    <glyph glyph-name="N_A" horiz-adv-x="2252" 
d="M225 0v1434h103l884 -1352l15 -25h2v1377h573l379 -1434h-63l-142 532h-686v-532h-102l-885 1352l-14 24h-2v-1376h-62zM1290 594h672l-207 778h-465v-778z" />
    <glyph glyph-name="O_C" horiz-adv-x="2437" 
d="M123 717q0 162 56 303.5t152.5 241t228.5 156.5t280 57q69 0 135.5 -12.5t112 -30.5t81.5 -36.5t53 -31.5l17 -12q6 5 17 13.5t49 29.5t80 37t108 29.5t135 13.5q87 0 166.5 -17t139.5 -46t113 -67t90.5 -79.5t69 -83t50.5 -79.5t32.5 -67t18.5 -46l6 -17h-61
q-3 9 -8.5 25t-29.5 61.5t-53 87t-81.5 92.5t-113.5 87.5t-150 61.5t-189 25q-57 0 -113 -10t-95 -24.5t-69.5 -29t-45.5 -24.5l-15 -10q11 -8 29 -23t63.5 -69.5t81 -118t64 -168t28.5 -219.5q0 -84 -14.5 -162t-38 -136t-52 -109t-57 -85t-52 -58.5t-38.5 -36.5l-14 -11
q5 -4 15.5 -10.5t44.5 -24t70.5 -30.5t93.5 -23.5t114 -10.5q102 0 192.5 26t153 67.5t114.5 92t83.5 101t53 92t29.5 67.5l9 26h61q-3 -11 -9.5 -30.5t-32 -74.5t-58 -105.5t-90.5 -112t-126 -105.5t-167.5 -74.5t-212.5 -30.5q-69 0 -134.5 12.5t-109.5 30.5t-78.5 36.5
t-50.5 31.5l-16 12q-6 -5 -18 -13.5t-51.5 -29.5t-83 -37t-110.5 -29.5t-136 -13.5q-148 0 -280 57t-228.5 156.5t-152.5 241t-56 303.5zM184 717q0 -201 87 -361t236.5 -248t332.5 -88q96 0 183 25t126 49l39 25q-11 8 -29 23t-63.5 69.5t-81 118t-64 168t-28.5 219.5
q0 84 14.5 162t38 136t52 109t57 85t52 58.5t38.5 36.5l14 11q-5 4 -15.5 10.5t-45 23.5t-72 30t-96.5 23.5t-119 10.5q-137 0 -258 -51.5t-208.5 -142t-138.5 -221t-51 -281.5zM983 717q0 -79 14 -153t36.5 -129t50 -102.5t55 -79.5t50 -55t36.5 -34l14 -10q10 7 27.5 21
t61.5 65t78 110.5t61.5 158.5t27.5 208q0 79 -14 153t-36.5 129t-50 102.5t-55 79.5t-50 55t-36.5 34l-14 10q-10 -7 -27.5 -21t-61.5 -65t-78 -110.5t-61.5 -158.5t-27.5 -208z" />
    <glyph glyph-name="O_G" horiz-adv-x="2560" 
d="M123 717q0 162 56 303.5t152.5 241t228.5 156.5t280 57q69 0 135.5 -12.5t112 -30.5t81.5 -36.5t53 -31.5l17 -12q6 5 17 13.5t49 29.5t80 37t108 29.5t135 13.5q109 0 205.5 -26.5t164 -69t123.5 -94t91 -103t59 -94t33 -68.5l10 -27h-61q-3 9 -9 24t-30.5 58.5
t-54.5 83.5t-83 88.5t-113.5 83t-148.5 58.5t-186 24q-57 0 -113 -10t-95 -24.5t-69.5 -29t-45.5 -24.5l-15 -10q11 -8 29 -23t63.5 -69.5t81 -118t64 -168t28.5 -219.5q0 -84 -14.5 -162t-38 -136t-52 -109t-57 -85t-52 -58.5t-38.5 -36.5l-14 -11q5 -4 15.5 -10.5
t44.5 -24t70.5 -30.5t93.5 -23.5t114 -10.5q178 0 323.5 82t234 232.5t98.5 341.5h-308v61h564v-61h-195q-10 -206 -107 -370.5t-257 -255.5t-353 -91q-69 0 -134.5 12.5t-109.5 30.5t-78.5 36.5t-50.5 31.5l-16 12q-6 -5 -18 -13.5t-51.5 -29.5t-83 -37t-110.5 -29.5
t-136 -13.5q-148 0 -280 57t-228.5 156.5t-152.5 241t-56 303.5zM184 717q0 -201 87 -361t236.5 -248t332.5 -88q96 0 183 25t126 49l39 25q-11 8 -29 23t-63.5 69.5t-81 118t-64 168t-28.5 219.5q0 84 14.5 162t38 136t52 109t57 85t52 58.5t38.5 36.5l14 11
q-5 4 -15.5 10.5t-45 23.5t-72 30t-96.5 23.5t-119 10.5q-137 0 -258 -51.5t-208.5 -142t-138.5 -221t-51 -281.5zM983 717q0 -79 14 -153t36.5 -129t50 -102.5t55 -79.5t50 -55t36.5 -34l14 -10q10 7 27.5 21t61.5 65t78 110.5t61.5 158.5t27.5 208q0 79 -14 153t-36.5 129
t-50 102.5t-55 79.5t-50 55t-36.5 34l-14 10q-10 -7 -27.5 -21t-61.5 -65t-78 -110.5t-61.5 -158.5t-27.5 -208z" />
    <glyph glyph-name="O_L_I" horiz-adv-x="2897" 
d="M123 717q0 162 56 303.5t152.5 241t228.5 156.5t280 57q198 0 361.5 -97t259 -271t95.5 -390t-95.5 -390t-259 -271t-361.5 -97q-148 0 -280 57t-228.5 156.5t-152.5 241t-56 303.5zM184 717q0 -201 87 -361t236.5 -248t332.5 -88t332.5 88t236 248t86.5 361
q0 151 -50.5 281.5t-138 221t-208.5 142t-258 51.5t-258 -51.5t-208.5 -142t-138.5 -221t-51 -281.5zM2611 328v1106h62v-1106h-62zM1812 0v1434h62v-1373h799v-61h-861z" />
    <glyph glyph-name="O_O" horiz-adv-x="2375" 
d="M123 717q0 162 56 303.5t152.5 241t228.5 156.5t280 57q69 0 135.5 -12.5t112 -30.5t81.5 -36.5t53 -31.5l17 -12q6 5 18 13.5t51.5 29.5t83 37t110.5 29.5t136 13.5q148 0 280 -57t228.5 -156.5t152.5 -241t56 -303.5t-56 -303.5t-152.5 -241t-228.5 -156.5t-280 -57
q-69 0 -135.5 12.5t-112 30.5t-81.5 36.5t-53 31.5l-17 12q-6 -5 -18 -13.5t-51.5 -29.5t-83 -37t-110.5 -29.5t-136 -13.5q-148 0 -280 57t-228.5 156.5t-152.5 241t-56 303.5zM1290 119q5 -4 15.5 -10.5t45 -24t72 -30.5t96.5 -23.5t119 -10.5q183 0 332.5 88t236.5 248
t87 361q0 151 -51 281.5t-138.5 221t-208.5 142t-258 51.5q-60 0 -118 -10t-98 -24.5t-71 -29t-46 -24.5l-15 -10q11 -8 29 -23t63.5 -69.5t81 -118t64 -168t28.5 -219.5q0 -84 -14.5 -162t-38 -136t-52 -109t-57 -85t-52 -58.5t-38.5 -36.5zM184 717q0 -201 87 -361
t236.5 -248t332.5 -88q96 0 183 25t126 49l39 25q-11 8 -29 23t-63.5 69.5t-81 118t-64 168t-28.5 219.5q0 84 14.5 162t38 136t52 109t57 85t52 58.5t38.5 36.5l14 11q-5 4 -15.5 10.5t-45 23.5t-72 30t-96.5 23.5t-119 10.5q-137 0 -258 -51.5t-208.5 -142t-138.5 -221
t-51 -281.5zM983 717q0 -79 14 -153t36.5 -129t50 -102.5t55 -79.5t50 -55t36.5 -34l14 -10q10 7 27.5 21t61.5 65t78 110.5t61.5 158.5t27.5 208q0 79 -14 153t-36.5 129t-50 102.5t-55 79.5t-50 55t-36.5 34l-14 10q-10 -7 -27.5 -21t-61.5 -65t-78 -110.5t-61.5 -158.5
t-27.5 -208z" />
    <glyph glyph-name="P_H" horiz-adv-x="2478" 
d="M225 0v1434h553q227 0 359.5 -124.5t132.5 -326.5v-225h921v676h62v-1434h-62v696h-921v-696h-62v758q-2 -5 -5.5 -13t-19 -31.5t-35 -45t-55 -47.5t-77.5 -44.5t-104.5 -31.5t-133.5 -13h-491v-532h-62zM287 594h491q204 0 317 104.5t113 284.5t-113 284.5t-317 104.5
h-491v-778z" />
    <glyph glyph-name="R_J" horiz-adv-x="2129" 
d="M225 0v1434h563q227 0 354.5 -117.5t127.5 -312.5q0 -172 -100.5 -285t-290.5 -139l145 -224q219 -336 471 -336q179 0 279 106t100 304v1004h61v-1004q0 -228 -115.5 -349.5t-324.5 -121.5q-158 0 -288.5 98t-254.5 291l-145 225h-520v-573h-62zM287 635h501
q203 0 311.5 98.5t108.5 270.5t-108 270t-312 98h-501v-737z" />
    <glyph glyph-name="S_A" horiz-adv-x="2611" 
d="M51 348h62q2 -7 6 -18.5t21.5 -46t40 -65.5t63 -68.5t88.5 -65t119.5 -46t152.5 -18.5q213 0 332 95t119 233q0 69 -25 123t-68 90.5t-98.5 66.5t-116.5 55t-122 50.5t-116.5 58.5t-98.5 74t-68 102t-25 138q0 69 34 135t93.5 118.5t149.5 84t194 31.5q90 0 167.5 -19
t129 -50t93.5 -68.5t66 -74.5t40 -68t22 -50l5 -19h-62q-2 6 -5 16.5t-18.5 40t-35.5 57t-57.5 60.5t-83 56.5t-114 40t-147.5 16.5q-184 0 -296.5 -92.5t-112.5 -214.5q0 -69 25 -123t68 -90.5t98 -66.5t116.5 -55t122.5 -50.5t116 -58.5t98 -74t68 -102t25 -138
q0 -78 -34.5 -147.5t-98 -123.5t-162 -86t-217.5 -32q-74 0 -140 13.5t-115.5 36t-92.5 51.5t-72.5 61.5t-53.5 64.5t-38.5 61t-24 51.5t-13.5 35.5zM1321 0l379 1434h461l379 -1434h-64l-141 532h-809l-142 -532h-63zM1540 594h780l-206 778h-367z" />
    <glyph glyph-name="T_A" horiz-adv-x="1576" 
d="M20 1372v62h1106l379 -1434h-63l-142 532h-686v-532h-61v1372h-533zM614 594h672l-207 778h-465v-778z" />
    <glyph glyph-name="T_E" horiz-adv-x="1454" 
d="M20 1372v62h1127v-62h-533v-389h676v-61h-676v-400h523v-61h-523v-400h676v-61h-737v1372h-533z" />
    <glyph glyph-name="T_H_E" horiz-adv-x="2560" 
d="M20 1372v62h1127v-62h-533v-614h922v676h922v-62h-861v-614h707v-62h-707v-635h861v-61h-922v696h-922v-696h-61v1372h-533z" />
    <glyph glyph-name="T_T" horiz-adv-x="1730" 
d="M20 1372v62h1127v-62h-533v-1372h-61v1372h-533zM829 922v61h799v-61h-368v-922h-62v922h-369z" />
    <glyph glyph-name="U_U" horiz-adv-x="1576" 
d="M205 524v910h61v-910q0 -233 138.5 -368.5t383.5 -135.5t384 135.5t139 368.5v910h61v-910q0 -256 -158.5 -410.5t-425.5 -154.5t-425 154.5t-158 410.5zM461 575v531h61v-531q0 -145 70.5 -222t195.5 -77t196 77t71 222v531h61v-531q0 -168 -90 -264t-238 -96t-237.5 96
t-89.5 264z" />
    <glyph glyph-name="W_E" horiz-adv-x="2600" 
d="M113 1434h63l303 -1373h109l303 1373h174l303 -1373h109l303 1373h719v-62h-670l-137 -614h653v-62h-666l-141 -635h961v-61h-1180l-303 1372h-76l-303 -1372h-207z" />
    <glyph glyph-name="afii10024.alt" horiz-adv-x="2007" 
d="M1569 727v-2q14 -4 24 -7t39 -21.5t47.5 -44t35 -76t16.5 -115.5v-246q0 -84 38 -124t115 -40h62v-61h-62q-100 0 -157.5 59t-57.5 166v246q0 123 -56 179t-179 56h-400v-696h-61v696h-400q-123 0 -179 -56t-56 -179v-246q0 -107 -57.5 -166t-157.5 -59h-62v61h62
q77 0 115 40t38 124v246q0 52 9.5 95.5t26 70.5t33 46.5t37 30t31.5 15t21 6.5v2q-10 2 -23.5 7.5t-34.5 24t-37.5 45.5t-29 76.5t-12.5 112.5v226q0 84 -38.5 123.5t-115.5 39.5h-61v62h61q100 0 157.5 -59t57.5 -166v-226q0 -129 49 -182t166 -53h400v676h61v-676h400
q117 0 166 53t49 182v226q0 107 57.5 166t157.5 59h61v-62h-61q-77 0 -115.5 -39.5t-38.5 -123.5v-226q0 -63 -13 -113t-30.5 -77t-40 -45t-35 -23.5t-22.5 -7.5z" />
    <glyph glyph-name="afii10076.alt" horiz-adv-x="1085" 
d="M750 520v-2q47 -19 72 -46q48 -53 48 -144v-154q0 -123 123 -123h31v-61h-31q-85 0 -134.5 49.5t-49.5 134.5v154q0 153 -154 153h-399v-481h-61v1004h61v-461h379q153 0 153 153v133q0 85 50 135t135 50h31v-62h-31q-123 0 -123 -123v-133q0 -40 -9.5 -72.5t-21.5 -50
t-29 -31t-24.5 -16.5t-15.5 -6z" />
    <glyph glyph-name="afii10028.alt" horiz-adv-x="1392" 
d="M954 729v-2q7 -1 12.5 -2.5t23.5 -9.5t32 -18.5t33 -31.5t31 -47.5t21 -67t9 -89.5v-246q0 -164 154 -164h61v-61h-61q-100 0 -157.5 59t-57.5 166v246q0 123 -56.5 179t-179.5 56h-532v-696h-62v1434h62v-676h532q117 0 166 53t49 182v226q0 107 57.5 166t157.5 59h62
v-62h-62q-77 0 -115 -39.5t-38 -123.5v-226q0 -64 -13.5 -114t-30.5 -76t-40.5 -44.5t-35.5 -23t-22 -6.5z" />
    <glyph glyph-name="afii10077.alt" horiz-adv-x="1187" 
d="M0 6v62q31 -17 82 -17q98 0 146 69t48 238v646h717v-1004h-61v942h-594v-584q0 -200 -63.5 -284t-192.5 -84q-23 0 -43.5 4t-29.5 8z" />
    <glyph glyph-name="afii10029.alt" horiz-adv-x="1484" 
d="M-41 0v61q52 -20 113 -20q65 0 111.5 22.5t82.5 76.5t54 151.5t18 240.5v902h922v-1434h-62v1372h-799v-840q0 -127 -14.5 -222.5t-41 -158t-68 -101t-90.5 -54.5t-113 -16q-27 0 -55.5 5t-42.5 10z" />
    <glyph glyph-name="gcommaaccent.alt" horiz-adv-x="1105" 
d="M457 1352q0 75 41 122t102 52v-41q-41 -5 -66.5 -33.5t-25.5 -79.5q0 -14 2.5 -26.5t5.5 -18.5l2 -6q11 10 31 10q26 0 43.5 -17.5t17.5 -43.5q0 -27 -18.5 -44.5t-48.5 -17.5q-37 0 -61.5 36t-24.5 108zM72 -123q0 38 12 71.5t31 58t42 45t45.5 34t41.5 22.5t31 13l12 4
v258l-16.5 11t-37 32.5t-47 55.5t-37 79.5t-16.5 104.5q0 150 116.5 254t303.5 104q41 0 77.5 -5t53.5 -10l16 -5h406v-62h-266l-21 2v-2q6 -3 16.5 -10t37 -31.5t47 -53.5t37 -77.5t16.5 -103.5q0 -151 -116.5 -255t-303.5 -104q-55 0 -106 10.5t-75 20.5l-24 10v-205
q80 21 205 21q98 0 179.5 -16t136.5 -43.5t93 -64.5t55 -78t17 -85t-17 -85t-55 -78t-93 -64.5t-136.5 -43.5t-179.5 -16t-179.5 16t-136.5 43.5t-93 64.5t-55 78t-17 85zM195 666q0 -127 97 -212t261 -85t261 85t97 212t-97 212t-261 85t-261 -85t-97 -212zM133 -123
q0 -40 24.5 -78.5t73 -72t132.5 -54t190 -20.5t190 20.5t132.5 54t73 72t24.5 78.5t-24.5 78.5t-73 72t-132.5 54t-190 20.5t-190 -20.5t-132.5 -54t-73 -72t-24.5 -78.5z" />
    <glyph glyph-name="gbreve.alt" horiz-adv-x="1105" 
d="M72 -123q0 38 12 71.5t31 58t42 45t45.5 34t41.5 22.5t31 13l12 4v258l-16.5 11t-37 32.5t-47 55.5t-37 79.5t-16.5 104.5q0 150 116.5 254t303.5 104q41 0 77.5 -5t53.5 -10l16 -5h406v-62h-266l-21 2v-2q6 -3 16.5 -10t37 -31.5t47 -53.5t37 -77.5t16.5 -103.5
q0 -151 -116.5 -255t-303.5 -104q-55 0 -106 10.5t-75 20.5l-24 10v-205q80 21 205 21q98 0 179.5 -16t136.5 -43.5t93 -64.5t55 -78t17 -85t-17 -85t-55 -78t-93 -64.5t-136.5 -43.5t-179.5 -16t-179.5 16t-136.5 43.5t-93 64.5t-55 78t-17 85zM195 666q0 -127 97 -212
t261 -85t261 85t97 212t-97 212t-261 85t-261 -85t-97 -212zM133 -123q0 -40 24.5 -78.5t73 -72t132.5 -54t190 -20.5t190 20.5t132.5 54t73 72t24.5 78.5t-24.5 78.5t-73 72t-132.5 54t-190 20.5t-190 -20.5t-132.5 -54t-73 -72t-24.5 -78.5zM287 1454h61
q0 -71 52.5 -117.5t142.5 -46.5t142 46.5t52 117.5h62q0 -94 -71.5 -159.5t-184.5 -65.5t-184.5 65.5t-71.5 159.5z" />
    <glyph glyph-name="Iogonek.alt" horiz-adv-x="962" 
d="M123 0v61h328v1311h-328v62h717v-62h-328v-1311h328v-61q-10 -4 -27.5 -12t-61.5 -34.5t-78 -55t-61.5 -73.5t-27.5 -91q0 -47 36.5 -80t96.5 -33q32 0 62.5 7.5t45.5 15.5l15 8v-62q-51 -30 -123 -30q-83 0 -139 51.5t-56 122.5q0 49 22 94t54 75t63.5 53t53.5 34l22 10
h-614z" />
    <glyph glyph-name="Aacute.alt2" horiz-adv-x="1361" 
d="M72 0l379 1434h204v256h62v-2v-254h194l379 -1434h-63l-142 532h-809l-141 -532h-63zM291 594h780l-207 778h-366z" />
    <glyph glyph-name="Adieresis.alt2" horiz-adv-x="1361" 
d="M1014 1382q0 26 17.5 44t43.5 18t44 -18t18 -44t-18 -43.5t-44 -17.5t-43.5 17.5t-17.5 43.5zM225 1382q0 26 18 44t44 18t43.5 -18t17.5 -44t-17.5 -43.5t-43.5 -17.5t-44 17.5t-18 43.5zM72 0l379 1434h460l379 -1434h-63l-142 532h-809l-141 -532h-63zM291 594h780
l-207 778h-366z" />
    <glyph glyph-name="Aring.alt2" horiz-adv-x="1361" 
d="M72 0l379 1434h92q-2 1 -5.5 3.5t-12.5 12t-15.5 21.5t-12 32t-5.5 43q0 61 53.5 107.5t136.5 46.5q82 0 135 -46.5t53 -107.5q0 -36 -13 -64t-25 -38l-13 -10h92l379 -1434h-63l-142 532h-809l-141 -532h-63zM553 1536q0 -44 34 -73t95 -29q60 0 93.5 29t33.5 73
t-33.5 73t-93.5 29q-61 0 -95 -29t-34 -73zM291 594h780l-207 778h-366z" />
    <glyph glyph-name="Odieresis.alt2" horiz-adv-x="1679" 
d="M123 717q0 162 56 303.5t152.5 241t228.5 156.5t280 57q198 0 361.5 -97t259 -271t95.5 -390t-95.5 -390t-259 -271t-361.5 -97q-148 0 -280 57t-228.5 156.5t-152.5 241t-56 303.5zM1382 1382q0 26 18 44t44 18t43.5 -18t17.5 -44t-17.5 -43.5t-43.5 -17.5t-44 17.5
t-18 43.5zM174 1382q0 26 18 44t44 18t43.5 -18t17.5 -44t-17.5 -43.5t-43.5 -17.5t-44 17.5t-18 43.5zM184 717q0 -201 87 -361t236.5 -248t332.5 -88t332.5 88t236 248t86.5 361q0 151 -50.5 281.5t-138 221t-208.5 142t-258 51.5t-258 -51.5t-208.5 -142t-138.5 -221
t-51 -281.5z" />
    <glyph glyph-name="Otilde.alt2" horiz-adv-x="1679" 
d="M563 1475v41q0 68 41 110.5t103 42.5q41 0 81 -22.5t66 -49t58.5 -49t60.5 -22.5q82 0 82 92v41h61v-41q0 -68 -40.5 -111t-102.5 -43q-41 0 -81 22.5t-66 49.5t-58.5 49.5t-60.5 22.5q-39 0 -60.5 -23.5t-21.5 -68.5v-41h-62zM123 666q0 143 56.5 274t152 225.5
t228.5 150.5t280 56q118 0 227.5 -35.5t197.5 -101t153.5 -152.5t101.5 -194.5t36 -222.5q0 -143 -56 -274t-151.5 -226t-228.5 -151t-280 -56t-280 56t-228.5 151t-152 226t-56.5 274zM184 666q0 -177 86.5 -325t237.5 -234.5t332 -86.5q136 0 257.5 51t208.5 137.5
t138 206t51 251.5t-51 251.5t-138 205.5t-208.5 137t-257.5 51q-181 0 -332 -86t-237.5 -234t-86.5 -325z" />
    <glyph glyph-name="Scaron.alt2" horiz-adv-x="1310" 
d="M123 348h61q2 -7 6 -18.5t21.5 -46t40 -65.5t63.5 -68.5t89 -65t119.5 -46t152.5 -18.5q213 0 331.5 95t118.5 233q0 64 -26.5 115t-71.5 85.5t-105.5 64.5t-128 50.5t-139.5 44t-139.5 45.5t-128 55.5t-105.5 72t-71.5 96.5t-26.5 129q0 131 97.5 232.5t277.5 129.5
l-151 199v2h71l146 -194h61l148 194h71v-2l-151 -199q72 -9 134 -33t104 -54.5t76 -65.5t54 -68.5t33.5 -60.5t18.5 -44l4 -16h-62q-2 6 -5 16.5t-18.5 40t-35.5 57t-57.5 60.5t-83 56.5t-114 40t-147.5 16.5q-191 0 -300 -88.5t-109 -218.5q0 -69 32 -122.5t86.5 -89
t125.5 -64t149 -52.5t156 -48.5t149 -57.5t125.5 -75t86.5 -105.5t32 -143.5q0 -78 -34.5 -147.5t-98 -123.5t-162 -86t-217.5 -32q-74 0 -140 13.5t-115.5 36t-92.5 51.5t-72.5 61.5t-53.5 64.5t-38.5 61t-24 51.5t-13.5 35.5z" />
    <glyph glyph-name="Udieresis.alt2" horiz-adv-x="1474" 
d="M1178 1382q0 26 17.5 44t43.5 18t43.5 -18t17.5 -44t-17.5 -43.5t-43.5 -17.5t-43.5 17.5t-17.5 43.5zM174 1382q0 26 18 44t44 18t43.5 -18t17.5 -44t-17.5 -43.5t-43.5 -17.5t-44 17.5t-18 43.5zM205 524v684h61v-684q0 -237 127 -370.5t344 -133.5t344 133.5
t127 370.5v684h62v-684q0 -260 -146.5 -412.5t-386.5 -152.5t-386 152.5t-146 412.5z" />
    <glyph glyph-name="Zcaron.alt2" horiz-adv-x="1208" 
d="M82 0v61l969 1309v2h-928v62h440l-178 233v2h72l178 -235h20l179 235h71l2 -2l-180 -233h399v-62l-968 -1309v-2h968v-61h-1044z" />
    <glyph glyph-name="ampersand.alt2" horiz-adv-x="1751" 
d="M154 563q0 146 67.5 266t182.5 188t251 68q179 0 320.5 -118t171.5 -299l-926 -191q33 -202 186 -319t371 -117q94 0 178 20t146.5 54t116.5 77.5t91.5 92t68 97t48.5 92t30.5 77.5t16.5 54l5 20h-199v61h471v-61h-205q-2 -8 -5.5 -22.5t-18.5 -58.5t-34 -86.5
t-53.5 -101t-75 -108t-100.5 -100.5t-128 -87t-159.5 -58.5t-193.5 -22.5q-136 0 -253 45t-198 123t-127 185.5t-46 229.5zM215 539l858 178q-44 139 -158 223t-260 84q-188 0 -314 -135t-126 -350z" />
    <glyph glyph-name="ampersand.alt" horiz-adv-x="1382" 
d="M123 369q0 132 88 236t240 143v2q-129 36 -208 132.5t-79 213.5q0 73 34 141.5t93.5 121t149.5 84.5t194 32q88 0 163.5 -19t126.5 -50t92 -68.5t64.5 -74.5t39 -68t21.5 -50l5 -19h-62q-1 6 -4.5 16.5t-18.5 40t-34.5 57t-56.5 60.5t-81 56.5t-111 40t-144 16.5
q-185 0 -297.5 -94t-112.5 -223t113 -223.5t297 -94.5h102v-61h-125q-196 -6 -312 -107t-116 -241q0 -144 122.5 -246.5t328.5 -102.5q214 0 342.5 126.5t128.5 334.5v236h-184v61h460v-61h-215v-236q0 -231 -147.5 -376.5t-384.5 -145.5q-115 0 -213 34t-162.5 90.5
t-100.5 130.5t-36 155z" />
    <glyph glyph-name="florin.alt" horiz-adv-x="696" 
d="M-123 -389v61h88q99 0 160 54.5t76 160.5l147 1055h-143v62h151l23 153q41 277 303 277h147v-62h-155q-204 0 -234 -215l-22 -153h289v-62h-297l-148 -1055q-19 -136 -97 -206t-208 -70h-80z" />
    <glyph glyph-name="periodcentered.case" horiz-adv-x="573" 
d="M225 737q0 26 18 44t44 18t43.5 -18t17.5 -44t-17.5 -43.5t-43.5 -17.5t-44 17.5t-18 43.5z" />
    <glyph glyph-name="tcaron.alt" horiz-adv-x="696" 
d="M399 1178q0 27 19 44t49 17q37 0 61.5 -35.5t24.5 -107.5q0 -75 -41 -122t-102 -52v41q41 5 66.5 33t25.5 79q0 14 -2.5 26.5t-5.5 18.5l-2 6q-11 -10 -31 -10q-26 0 -44 18t-18 44zM61 942v62h154v225h61v-953q0 -107 52.5 -161t152.5 -54h154v-61h-154q-266 0 -266 276
v666h-154z" />
    <glyph glyph-name="tcommaaccent.alt" horiz-adv-x="696" 
d="M61 942v62h154v225h61v-225h349v-62h-349v-666q0 -107 52.5 -161t152.5 -54h154v-61h-154q-266 0 -266 276v666h-154zM328 -266q0 27 18.5 44t48.5 17q37 0 61.5 -35.5t24.5 -107.5q0 -75 -41 -122t-102 -52v41q41 5 66.5 33t25.5 79q0 14 -2.5 27t-5.5 19l-2 6
q-11 -11 -31 -11q-26 0 -43.5 18t-17.5 44z" />
    <glyph glyph-name="uni021B.alt" horiz-adv-x="696" 
d="M61 942v62h154v225h61v-225h349v-62h-349v-666q0 -107 52.5 -161t152.5 -54h154v-61h-154q-266 0 -266 276v666h-154zM328 -266q0 27 18.5 44t48.5 17q37 0 61.5 -35.5t24.5 -107.5q0 -75 -41 -122t-102 -52v41q41 5 66.5 33t25.5 79q0 14 -2.5 27t-5.5 19l-2 6
q-11 -11 -31 -11q-26 0 -43.5 18t-17.5 44z" />
    <glyph glyph-name="Eacute.alt2" horiz-adv-x="1249" 
d="M225 0v1434h451v256h61v-2v-254h410v-62h-860v-614h706v-62h-706v-635h860v-61h-922z" />
    <glyph glyph-name="Iacute.alt2" horiz-adv-x="512" 
d="M225 1434v256h62v-2v-254h-62zM225 0v1311h62v-1311h-62z" />
    <glyph glyph-name="Oacute.alt2" horiz-adv-x="1679" 
d="M123 717q0 158 52.5 296.5t144 237t218 158t271.5 66.5v215h61v-2v-213q145 -7 271.5 -66.5t218 -158t144 -237t52.5 -296.5q0 -216 -95.5 -390t-259 -271t-361.5 -97q-148 0 -280 57t-228.5 156.5t-152.5 241t-56 303.5zM184 717q0 -201 87 -361t236.5 -248t332.5 -88
t332.5 88t236 248t86.5 361q0 151 -50.5 281.5t-138 221t-208.5 142t-258 51.5t-258 -51.5t-208.5 -142t-138.5 -221t-51 -281.5z" />
    </font>
</defs>
</svg>
