<?xml version="1.0" standalone="no"?>
<!DOCTYPE svg PUBLIC "-//W3C//DTD SVG 1.1//EN" "http://www.w3.org/Graphics/SVG/1.1/DTD/svg11.dtd" >
<svg xmlns="http://www.w3.org/2000/svg" xmlns:xlink="http://www.w3.org/1999/xlink" version="1.1">
<metadata>
Created by FontForge 20170731 at Mon Aug  3 21:24:28 2020
 By Aleksey,,,
Copyright (c) 2018 by Typetype. Designer Ivan Gladkikh, technical designers Philipp Nurullin, Vika Usmanova, Nadyr Rakhimov, Marina Khodak. All rights reserved.
</metadata>
<defs>
<font id="TTFirsNeue-ExtraBold" horiz-adv-x="1382" >
  <font-face 
    font-family="TT Firs Neue DemiBold"
    font-weight="800"
    font-stretch="normal"
    units-per-em="2048"
    panose-1="2 0 9 3 5 0 0 2 0 4"
    ascent="1638"
    descent="-410"
    x-height="1065"
    cap-height="1434"
    bbox="-942 -729 2945 2120"
    underline-thickness="102"
    underline-position="-409"
    unicode-range="U+000D-FB02"
  />
<missing-glyph horiz-adv-x="0" 
 />
    <glyph glyph-name="ff" unicode="ff" horiz-adv-x="1587" 
d="M31 717v307h133v410h645v-308h-215v-102h307v410h707v-308h-277v-102h225v-307h-225v-717h-430v717h-307v-717h-430v717h-133z" />
    <glyph glyph-name="fi" unicode="fi" horiz-adv-x="1423" 
d="M31 717v307h133v410h952v-308h-522v-102h737v-1024h-430v717h-307v-717h-430v717h-133z" />
    <glyph glyph-name="fl" unicode="fl" horiz-adv-x="1587" 
d="M31 717v307h133v410h1167v-1127h236v-307h-666v1126h-307v-102h225v-307h-225v-717h-430v717h-133z" />
    <glyph glyph-name="f_t" unicode="ft" horiz-adv-x="1669" 
d="M31 717v307h133v410h1167v-410h256v-307h-256v-410h277v-307h-707v717h-307v-717h-430v717h-133zM594 1024h307v102h-307v-102z" />
    <glyph glyph-name="f_j" unicode="fj" horiz-adv-x="1423" 
d="M31 717v307h133v410h952v-308h-522v-102h737v-1413h-686v307h256v799h-307v-717h-430v717h-133z" />
    <glyph glyph-name=".notdef" horiz-adv-x="0" 
 />
    <glyph glyph-name=".null" horiz-adv-x="0" 
 />
    <glyph glyph-name=".null" horiz-adv-x="0" 
 />
    <glyph glyph-name="nonmarkingreturn" horiz-adv-x="682" 
 />
    <glyph glyph-name="CR" unicode="&#xd;" horiz-adv-x="0" 
 />
    <glyph glyph-name="space" unicode=" " horiz-adv-x="573" 
 />
    <glyph glyph-name="exclam" unicode="!" horiz-adv-x="696" 
d="M133 840v594h430v-594l-82 -338h-266zM133 174q0 85 62 145t153 60t153 -60t62 -145t-62 -145t-153 -60t-153 60t-62 145z" />
    <glyph glyph-name="quotedbl" unicode="&#x22;" horiz-adv-x="1044" 
d="M92 1116v318h369v-318l-51 -184h-267zM584 1116v318h368v-318l-51 -184h-266z" />
    <glyph glyph-name="numbersign" unicode="#" horiz-adv-x="1546" 
d="M61 307v307h222l57 205h-166v307h252l86 308h369l-86 -308h184l86 308h369l-86 -308h137v-307h-223l-58 -205h168v-307h-252l-86 -307h-368l86 307h-185l-86 -307h-368l86 307h-138zM651 614h185l57 205h-184z" />
    <glyph glyph-name="dollar" unicode="$" horiz-adv-x="1454" 
d="M41 471h461q2 -6 6 -16.5t22 -37t42.5 -47t71.5 -37t104 -16.5q184 0 184 93q0 32 -29 57t-78.5 42t-113 32.5t-134 34t-141 41t-134 58t-113 81t-78.5 114.5t-29 154q0 148 123 272t338 168v195h399v-205q77 -21 142.5 -57t108.5 -77t77 -86t52.5 -85.5t30.5 -73
t15 -51.5l4 -20h-461q-1 5 -3 12.5t-14.5 26.5t-30.5 34t-54 27t-82 12q-86 0 -125 -23t-39 -59q0 -31 36.5 -54t96.5 -37.5t136 -33.5l156 -39t156 -56t136 -82.5t96.5 -121.5t36.5 -170q0 -169 -124 -296t-347 -164v-205h-399v205q-86 21 -160 59t-123.5 83t-90 94
t-63.5 94t-38.5 81.5t-21.5 58.5z" />
    <glyph glyph-name="percent" unicode="%" horiz-adv-x="1761" 
d="M61 1106q0 148 104.5 248t264.5 100t264.5 -100t104.5 -248t-104.5 -248t-264.5 -100t-264.5 100t-104.5 248zM297 0l860 1434h307l-860 -1434h-307zM328 1106q0 -46 28 -74t74 -28t74 28t28 74t-28 74t-74 28t-74 -28t-28 -74zM963 328q0 148 104 248t264 100
t264.5 -100t104.5 -248t-104.5 -248t-264.5 -100t-264 100t-104 248zM1229 328q0 -46 28 -74.5t74 -28.5t74.5 28.5t28.5 74.5t-28.5 74t-74.5 28t-74 -28t-28 -74z" />
    <glyph glyph-name="ampersand" unicode="&#x26;" horiz-adv-x="1607" 
d="M20 451q0 96 41.5 183t115.5 153.5t184.5 105.5t240.5 39h2v20l-112 31l-72 102v349h1075v-349h-563v-20l696 -1065h-502l-71 102l30 134h-20q-16 -49 -53.5 -96t-94.5 -88.5t-141.5 -67t-181.5 -25.5q-127 0 -236 39.5t-182 106.5t-114.5 157t-41.5 189zM451 471
q0 -69 47 -116.5t116 -47.5t116.5 47.5t47.5 116.5t-47.5 116.5t-116.5 47.5t-116 -47.5t-47 -116.5z" />
    <glyph glyph-name="quotesingle" unicode="'" horiz-adv-x="552" 
d="M92 1116v318h369v-318l-51 -184h-267z" />
    <glyph glyph-name="parenleft" unicode="(" horiz-adv-x="870" 
d="M102 594q0 102 18 200t49 177.5t70.5 153.5t84 131.5t88.5 107t83.5 84.5t70.5 59.5t49 36.5l18 12l217 -266q-7 -6 -18.5 -16.5t-44.5 -47.5t-63 -77.5t-66.5 -104t-63 -129t-44.5 -150.5t-18 -171t17.5 -170.5t45.5 -151.5t62 -128t68 -105t62 -76.5t45 -48.5l18 -16
l-217 -267q-11 7 -30 20t-74.5 59.5t-105.5 99.5t-111 138.5t-105.5 177t-74.5 215t-30 253.5z" />
    <glyph glyph-name="parenright" unicode=")" horiz-adv-x="870" 
d="M20 -102q7 6 18.5 16.5t44.5 47.5t63 77.5t66.5 104t63 129t44.5 150.5t18 171t-17.5 170.5t-45.5 151.5t-62 128t-68 105t-62 76.5t-45 48.5l-18 16l218 266q11 -7 30 -20t74 -59.5t105 -99t111.5 -138t105.5 -177t74 -215t30 -253.5q0 -102 -18 -200t-49 -178
t-70.5 -154t-83.5 -131.5t-88 -107t-83.5 -84.5t-70.5 -59.5t-49 -36.5l-18 -12z" />
    <glyph glyph-name="asterisk" unicode="*" horiz-adv-x="921" 
d="M102 993v236h236v205h246v-205h235v-236h-174l143 -174l-204 -133l-123 195l-123 -195l-205 133l143 174h-174z" />
    <glyph glyph-name="plus" unicode="+" horiz-adv-x="1105" 
d="M92 410v338h297v307h328v-307h297v-338h-297v-308h-328v308h-297z" />
    <glyph glyph-name="comma" unicode="," horiz-adv-x="522" 
d="M51 184q0 85 60 145t145 60q97 0 156 -73t59 -214q0 -198 -101.5 -303.5t-287.5 -105.5v143q89 0 136.5 40t47.5 104v20q-10 -10 -51 -10q-64 0 -114 56t-50 138z" />
    <glyph glyph-name="hyphen" unicode="-" horiz-adv-x="1003" 
d="M82 389v328h840v-328h-840z" />
    <glyph glyph-name="period" unicode="." horiz-adv-x="532" 
d="M51 174q0 85 62 145t153 60t153 -60t62 -145t-62 -145t-153 -60t-153 60t-62 145z" />
    <glyph glyph-name="slash" unicode="/" horiz-adv-x="962" 
d="M0 0l543 1434h420l-543 -1434h-420z" />
    <glyph glyph-name="zero" unicode="0" horiz-adv-x="1638" 
d="M72 717q0 223 94.5 395.5t264.5 267.5t388 95t388 -95t265 -267.5t95 -395.5t-95 -395.5t-265 -267.5t-388 -95t-388 95t-264.5 267.5t-94.5 395.5zM553 717q0 -178 72.5 -268.5t193.5 -90.5t193.5 90.5t72.5 268.5t-72.5 268t-193.5 90t-193.5 -90t-72.5 -268z" />
    <glyph glyph-name="one" unicode="1" horiz-adv-x="921" 
d="M61 758v471l318 205h420v-1434h-471v922z" />
    <glyph glyph-name="two" unicode="2" horiz-adv-x="1423" 
d="M72 0v379l481 276q196 114 256.5 169t60.5 118q0 56 -44.5 94.5t-118.5 38.5q-46 0 -82 -13.5t-54.5 -33t-30.5 -39.5t-15 -33l-3 -14h-461q1 11 4.5 30.5t22 74.5t45 105.5t79 112t119 105.5t170 74.5t226.5 30.5q146 0 265.5 -39.5t197.5 -108t120 -159.5t42 -195
q0 -317 -543 -563l-31 -11l-30 -8v-24l149 22h455v-389h-1280z" />
    <glyph glyph-name="three" unicode="3" horiz-adv-x="1413" 
d="M31 471h461q1 -6 4 -15.5t17.5 -34t35 -43.5t59.5 -34.5t88 -15.5q89 0 137 39.5t48 103.5t-48 103.5t-137 39.5h-327v256l307 174v21h-563v369h1157v-359l-359 -174l-22 -10v-23l2 2q214 0 337.5 -116.5t123.5 -302.5q0 -101 -42.5 -189.5t-122 -156t-203.5 -107
t-277 -39.5q-99 0 -185 17.5t-148 47t-114.5 68t-87 81t-61.5 85t-41.5 81t-23.5 68t-12 47.5z" />
    <glyph glyph-name="four" unicode="4" horiz-adv-x="1464" 
d="M51 236v389l481 809h512l-491 -809h266v112l103 164h348v-276h174v-389h-174v-236h-461v236h-758z" />
    <glyph glyph-name="five" unicode="5" horiz-adv-x="1443" 
d="M82 461h461q1 -5 4 -14t17 -32t33.5 -40.5t56.5 -32t83 -14.5q82 0 133.5 44.5t51.5 108.5q0 71 -52.5 117.5t-142.5 46.5q-50 0 -93.5 -12.5t-61.5 -25.5l-19 -13h-420l51 840h1086v-369h-676l-21 -184h21q3 3 10 8.5t32 20t55 25t81.5 19.5t108.5 9q228 0 370 -136.5
t142 -345.5q0 -112 -42.5 -207t-123.5 -165.5t-206.5 -110t-283.5 -39.5q-95 0 -178.5 17t-144 46t-111 67t-84 79.5t-59.5 83t-40.5 79.5t-23.5 67t-12 46z" />
    <glyph glyph-name="six" unicode="6" horiz-adv-x="1433" 
d="M51 512q0 123 60 257.5t186 295.5l287 369h501l-317 -410l-113 -61v-21q9 5 26.5 11.5t73.5 18t115 11.5q109 0 206.5 -40t166.5 -107.5t109.5 -160t40.5 -194.5q0 -104 -46 -198t-130 -166.5t-213.5 -115t-286.5 -42.5q-154 0 -280.5 43t-210.5 118t-129.5 176
t-45.5 216zM532 481q0 -64 52.5 -108.5t140.5 -44.5q90 0 143.5 44.5t53.5 108.5t-53 109t-142 45t-142 -45t-53 -109z" />
    <glyph glyph-name="seven" unicode="7" horiz-adv-x="1280" 
d="M41 1024v410h1198v-410l-543 -1024h-501l532 1004v20h-686z" />
    <glyph glyph-name="eight" unicode="8" horiz-adv-x="1515" 
d="M51 399q0 59 17.5 110.5t45.5 87t62 65t68 46.5t62 29t46 17l17 4v20q-5 1 -14.5 4t-36 14t-50.5 24.5t-53.5 38.5t-51 54t-36 71.5t-14.5 90.5q0 75 40 145t116.5 128t203 92.5t285.5 34.5t285.5 -34.5t203 -92.5t116.5 -128t40 -145q0 -66 -26.5 -121t-64 -86t-75 -53
t-63.5 -29l-27 -8v-20q7 -1 18 -4.5t44 -16.5t63 -29.5t66.5 -46t63 -64.5t44.5 -87t18 -111q0 -69 -25.5 -132.5t-81.5 -119.5t-137.5 -98t-200 -66t-261.5 -24t-262 24t-200 66t-137 98t-82 119.5t-26 132.5zM594 1014q0 -42 42.5 -72.5t121.5 -30.5t121.5 30.5t42.5 72.5
t-42 72t-122 30t-122 -30t-42 -72zM553 461q0 -58 55 -101t150 -43t150 43t55 101t-55 100.5t-150 42.5t-150 -42.5t-55 -100.5z" />
    <glyph glyph-name="nine" unicode="9" horiz-adv-x="1433" 
d="M41 952q0 104 46 198t130 166.5t213.5 115.5t286.5 43q154 0 280.5 -43t210 -118t129 -176t45.5 -216q0 -124 -60 -258t-185 -295l-287 -369h-502l318 410l112 61v21q-9 -5 -26.5 -11.5t-73.5 -18t-115 -11.5q-146 0 -266 67.5t-188 182.5t-68 251zM512 952
q0 -64 53 -108.5t142 -44.5t141.5 44.5t52.5 108.5t-52 109t-140 45q-90 0 -143.5 -45t-53.5 -109z" />
    <glyph glyph-name="colon" unicode=":" horiz-adv-x="552" 
d="M61 889q0 85 62 145t153 60q92 0 154 -60t62 -145t-62 -145t-154 -60q-91 0 -153 60t-62 145zM61 174q0 85 62 145t153 60q92 0 154 -60t62 -145t-62 -145t-154 -60q-91 0 -153 60t-62 145z" />
    <glyph glyph-name="semicolon" unicode=";" horiz-adv-x="552" 
d="M61 184q0 85 60 145t145 60q97 0 156 -73t59 -214q0 -198 -101.5 -303.5t-287.5 -105.5v143q89 0 136.5 40t47.5 104v20q-10 -10 -51 -10q-64 0 -114 56t-50 138zM61 889q0 85 62 145t153 60q92 0 154 -60t62 -145t-62 -145t-154 -60q-91 0 -153 60t-62 145z" />
    <glyph glyph-name="less" unicode="&#x3c;" horiz-adv-x="1105" 
d="M92 338v399l901 338v-327l-542 -195v-31l542 -194v-328z" />
    <glyph glyph-name="equal" unicode="=" horiz-adv-x="1105" 
d="M113 625v317h880v-317h-880zM113 174v318h880v-318h-880z" />
    <glyph glyph-name="greater" unicode="&#x3e;" horiz-adv-x="1105" 
d="M113 0v328l542 194v31l-542 195v327l901 -338v-399z" />
    <glyph glyph-name="question" unicode="?" horiz-adv-x="1310" 
d="M20 973q2 10 5.5 28.5t23 70.5t46.5 99.5t80 105.5t119 99.5t168.5 70t223.5 28.5q135 0 245 -36t181 -97.5t109.5 -143t38.5 -174.5q0 -71 -22.5 -127.5t-59 -93t-80 -66t-87 -54t-80 -49t-59 -58t-22.5 -74.5h-430q0 71 22 129.5t57 97.5t77.5 71.5t85.5 57.5t78 48
t57 50t22 58q0 102 -164 102q-49 0 -87 -14.5t-57 -36t-31.5 -42.5t-15.5 -35l-3 -15h-441zM420 174q0 85 62 145t153 60t153 -60t62 -145t-62 -145t-153 -60t-153 60t-62 145z" />
    <glyph glyph-name="at" unicode="@" horiz-adv-x="1669" 
d="M61 645q0 167 60.5 313t167 251t257 165t324.5 60q169 0 312.5 -52t240 -140.5t151 -206t54.5 -247.5q0 -216 -132 -348.5t-345 -132.5h-209v92h-10q-2 -5 -5.5 -12.5t-18 -26.5t-33.5 -34t-53 -27t-74 -12q-120 0 -203.5 96t-83.5 252t83.5 252t203.5 96
q40 0 73.5 -10.5t53 -25.5t33.5 -30t19 -25l5 -11h10v92h287v-430q143 0 143 245q0 85 -34.5 159t-97.5 130t-158.5 88.5t-211.5 32.5q-246 0 -399.5 -153.5t-153.5 -399.5q0 -247 155.5 -400t408.5 -153q96 0 185.5 18t131.5 36l41 18v-236q-17 -8 -48 -20t-125 -31.5
t-185 -19.5q-237 0 -424.5 102.5t-291.5 282.5t-104 403zM768 635q0 -65 24 -99t58 -34t58 34t24 99t-24 99t-58 34t-58 -34t-24 -99z" />
    <glyph glyph-name="A" unicode="A" horiz-adv-x="1525" 
d="M-10 0l399 1434h748l399 -1434h-451l-71 276h-502l-72 -276h-450zM604 625h318l-103 409h-112z" />
    <glyph glyph-name="B" unicode="B" horiz-adv-x="1536" 
d="M123 0v1434h809q115 0 208 -28.5t152 -77t90 -111t31 -132.5q0 -48 -13 -90.5t-33.5 -72t-45.5 -53.5t-50.5 -38.5t-46 -24.5t-33.5 -14l-13 -4v-22q6 -1 16.5 -3.5t40 -13.5t56.5 -25.5t60 -42.5t56.5 -62.5t40 -86t16.5 -112.5q0 -185 -143 -302.5t-410 -117.5h-788z
M584 891h225q60 0 91.5 27.5t31.5 74.5t-31.5 75t-91.5 28h-225v-205zM584 338h256q74 0 113.5 33.5t39.5 89.5t-39.5 89.5t-113.5 33.5h-256v-246z" />
    <glyph glyph-name="C" unicode="C" horiz-adv-x="1710" 
d="M61 717q0 156 61 295.5t166.5 241.5t257 161.5t324.5 59.5q104 0 196 -20t161 -54t128.5 -77.5t100.5 -92t74 -97t52.5 -92t32.5 -77.5t18 -54l5 -20h-471q-2 7 -8 19t-29 42t-53 52.5t-85.5 41.5t-121.5 19q-148 0 -237.5 -94t-89.5 -254t89.5 -254t237.5 -94
q52 0 97.5 12t76 31t55 41.5t39 45.5t24 42t12.5 31l4 12h471q-3 -13 -9 -35.5t-33 -87.5t-61.5 -124t-98.5 -131t-140.5 -124t-190.5 -87.5t-246 -35.5q-173 0 -324.5 59.5t-257 161.5t-166.5 241.5t-61 295.5z" />
    <glyph glyph-name="D" unicode="D" horiz-adv-x="1587" 
d="M123 0v1434h604q177 0 327.5 -56t253 -152.5t160.5 -228t58 -280.5t-58 -280.5t-160.5 -228t-253 -152.5t-327.5 -56h-604zM584 399h133q153 0 240 85.5t87 232.5t-87 232t-240 85h-133v-635z" />
    <glyph glyph-name="E" unicode="E" horiz-adv-x="1361" 
d="M123 0v1434h1147v-390h-686v-163h542v-328h-542v-164h686v-389h-1147z" />
    <glyph glyph-name="F" unicode="F" horiz-adv-x="1320" 
d="M123 0v1434h1137v-390h-676v-235h512v-338h-512v-471h-461z" />
    <glyph glyph-name="G" unicode="G" horiz-adv-x="1792" 
d="M61 717q0 156 61 295.5t168 241.5t260.5 161.5t330.5 59.5q100 0 190 -18.5t157.5 -50t126 -72t99.5 -85.5t74 -90.5t53 -86t33.5 -72t18.5 -50.5l5 -18h-471q-2 5 -7.5 14t-28.5 32t-52 40.5t-82 32t-116 14.5q-154 0 -246 -93.5t-92 -254.5t92 -254.5t246 -93.5
q69 0 125 14.5t86.5 35.5t51.5 42.5t28 36.5l6 14h-174v297h788v-297h-154q-3 -12 -9.5 -31.5t-33 -77t-61 -110t-97 -116t-136.5 -109.5t-184 -77.5t-236 -31.5q-177 0 -330.5 59.5t-260.5 161.5t-168 241.5t-61 295.5z" />
    <glyph glyph-name="H" unicode="H" horiz-adv-x="1628" 
d="M123 0v1434h461v-512h460v512h461v-1434h-461v512h-460v-512h-461z" />
    <glyph glyph-name="I" unicode="I" horiz-adv-x="706" 
d="M123 0v1434h461v-1434h-461z" />
    <glyph glyph-name="J" unicode="J" horiz-adv-x="1310" 
d="M-10 369l409 92l5.5 -11t17 -25t30.5 -31.5t47 -24.5t64 -11q84 0 129 43.5t45 120.5v912h461v-902q0 -264 -169.5 -423.5t-465.5 -159.5q-98 0 -182.5 23t-141.5 60t-103 82t-72.5 90t-44 82t-23.5 60z" />
    <glyph glyph-name="K" unicode="K" horiz-adv-x="1546" 
d="M123 0v1434h461v-492h123l307 492h512l-420 -666l461 -768h-512l-328 522h-143v-522h-461z" />
    <glyph glyph-name="L" unicode="L" horiz-adv-x="1259" 
d="M123 0v1434h461v-1024h655v-410h-1116z" />
    <glyph glyph-name="M" unicode="M" horiz-adv-x="2017" 
d="M123 0v1434h625l235 -697h51l236 697h624v-1434h-460v717l30 184h-20l-205 -573h-461l-205 573h-20l31 -184v-717h-461z" />
    <glyph glyph-name="N" unicode="N" horiz-adv-x="1658" 
d="M123 0v1434h532l430 -758h21l-31 194v564h461v-1434h-532l-431 758h-20l31 -195v-563h-461z" />
    <glyph glyph-name="O" unicode="O" horiz-adv-x="1740" 
d="M61 717q0 156 61 295.5t166.5 241.5t257 161.5t324.5 59.5t324.5 -59.5t257 -161.5t166.5 -241.5t61 -295.5t-61 -295.5t-166.5 -241.5t-257 -161.5t-324.5 -59.5t-324.5 59.5t-257 161.5t-166.5 241.5t-61 295.5zM543 717q0 -152 93.5 -250t233.5 -98t234 98t94 250
t-94 250t-234 98t-233.5 -98t-93.5 -250z" />
    <glyph glyph-name="P" unicode="P" horiz-adv-x="1525" 
d="M123 0v1434h747q180 0 319 -72t212.5 -195t73.5 -276t-73.5 -276t-212.5 -195t-319 -72h-286v-348h-461zM584 737h245q83 0 129 42t46 112t-46 111.5t-129 41.5h-245v-307z" />
    <glyph glyph-name="Q" unicode="Q" horiz-adv-x="1740" 
d="M61 717q0 156 61 295.5t166.5 241.5t257 161.5t324.5 59.5t324.5 -59.5t257 -161.5t166.5 -241.5t61 -295.5q0 -138 -44.5 -259.5t-123.5 -212t-181.5 -155.5t-223.5 -100v-410h-471v410q-121 35 -224 100t-181.5 155.5t-123.5 212t-45 259.5zM543 717q0 -152 93.5 -250
t233.5 -98t234 98t94 250t-94 250t-234 98t-233.5 -98t-93.5 -250z" />
    <glyph glyph-name="R" unicode="R" horiz-adv-x="1556" 
d="M123 0v1434h768q264 0 424 -148t160 -375q0 -63 -14 -120t-36.5 -98t-50 -76t-55 -57t-50 -38t-36.5 -23l-14 -7l276 -492h-471l-225 399h-215v-399h-461zM584 778h266q68 0 111 39t43 94t-43 94t-111 39h-266v-266z" />
    <glyph glyph-name="S" unicode="S" horiz-adv-x="1454" 
d="M41 471h461q2 -6 6 -16.5t22 -37t42.5 -47t71.5 -37t104 -16.5q184 0 184 93q0 32 -29 57t-78.5 42t-113 32.5t-134 34t-141 41t-134 58t-113 81t-78.5 114.5t-29 154q0 86 42.5 166t120.5 144t201 102.5t271 38.5q119 0 219.5 -26t166 -67.5t117 -91.5t79 -100.5
t45.5 -92t23 -67.5l5 -26h-461q-1 5 -3 12.5t-14.5 26.5t-30.5 34t-54 27t-82 12q-86 0 -125 -23t-39 -59q0 -31 36.5 -54t96.5 -37.5t136 -33.5l156 -39t156 -56t136 -82.5t96.5 -121.5t36.5 -170q0 -97 -42.5 -183.5t-123 -153t-207 -105.5t-282.5 -39q-99 0 -186.5 17.5
t-152 47t-120 68t-93.5 81t-68 85t-47.5 81t-29.5 68t-16 47.5z" />
    <glyph glyph-name="T" unicode="T" 
d="M20 1024v410h1342v-410h-440v-1024h-461v1024h-441z" />
    <glyph glyph-name="U" unicode="U" horiz-adv-x="1597" 
d="M113 584v850h460v-830q0 -106 62.5 -170.5t163.5 -64.5q100 0 162.5 65t62.5 170v830h461v-848q0 -285 -183 -456t-503 -171q-319 0 -502.5 170.5t-183.5 454.5z" />
    <glyph glyph-name="V" unicode="V" horiz-adv-x="1505" 
d="M0 1434h461l246 -1024h92l245 1024h461l-368 -1434h-768z" />
    <glyph glyph-name="W" unicode="W" horiz-adv-x="2109" 
d="M20 1434h451l154 -891h20l164 891h491l164 -891h21l153 891h451l-297 -1434h-563l-164 850h-21l-163 -850h-564z" />
    <glyph glyph-name="X" unicode="X" horiz-adv-x="1505" 
d="M0 0l358 717l-317 717h481l185 -512h92l184 512h481l-317 -717l358 -717h-491l-215 512h-92l-215 -512h-492z" />
    <glyph glyph-name="Y" unicode="Y" horiz-adv-x="1464" 
d="M-20 1434h471l266 -512h31l266 512h471l-522 -922v-512h-461v512z" />
    <glyph glyph-name="Z" unicode="Z" horiz-adv-x="1413" 
d="M72 0v389l665 635v20h-645v390h1229v-390l-666 -634v-21h686v-389h-1269z" />
    <glyph glyph-name="bracketleft" unicode="[" horiz-adv-x="839" 
d="M123 -307v1802h676v-348h-256v-1106h256v-348h-676z" />
    <glyph glyph-name="backslash" unicode="\" horiz-adv-x="962" 
d="M0 1434h420l543 -1434h-420z" />
    <glyph glyph-name="bracketright" unicode="]" horiz-adv-x="839" 
d="M41 -307v348h256v1106h-256v348h676v-1802h-676z" />
    <glyph glyph-name="asciicircum" unicode="^" horiz-adv-x="1085" 
d="M10 758l318 676h430l317 -676h-348l-164 368h-41l-164 -368h-348z" />
    <glyph glyph-name="underscore" unicode="_" horiz-adv-x="819" 
d="M-41 -451v308h901v-308h-901z" />
    <glyph glyph-name="grave" unicode="`" horiz-adv-x="665" 
d="M61 1423v11h400l143 -318h-256z" />
    <glyph glyph-name="a" unicode="a" 
d="M61 532q0 130 37.5 238.5t101 178.5t146.5 108.5t176 38.5q63 0 119 -18t90.5 -43.5t60.5 -51t37 -43.5l11 -18h20v143h430v-1065h-430v143h-20q-4 -7 -11.5 -19t-35.5 -42t-61.5 -52.5t-90 -41.5t-119.5 -19q-93 0 -176 38.5t-146.5 108.5t-101 178t-37.5 238zM502 532
q0 -97 52.5 -156t131.5 -59q72 0 123 59.5t51 155.5q0 97 -51 156.5t-123 59.5q-79 0 -131.5 -59.5t-52.5 -156.5z" />
    <glyph glyph-name="b" unicode="b" 
d="M92 0v1434h430v-512h21q4 7 11.5 19t35.5 42t61 52.5t89.5 41.5t119.5 19q93 0 176 -38.5t146.5 -108.5t101 -178.5t37.5 -238.5t-37.5 -238t-101 -178t-146.5 -108.5t-176 -38.5q-63 0 -119 18t-90.5 43.5t-60 51t-36.5 43.5l-11 18h-21v-143h-430zM522 532
q0 -96 51 -155.5t123 -59.5q79 0 132 59t53 156t-53 156.5t-132 59.5q-72 0 -123 -59.5t-51 -156.5z" />
    <glyph glyph-name="c" unicode="c" horiz-adv-x="1310" 
d="M51 532q0 152 77.5 281t217 206t309.5 77q87 0 163.5 -16t132 -42.5t102.5 -61t78 -73t55.5 -76.5t37.5 -72.5t22 -61t12 -42.5l2 -16h-441q-1 5 -4 13.5t-15.5 29.5t-29 37t-47.5 29.5t-68 13.5q-72 0 -117.5 -58t-45.5 -168q0 -111 45 -168t118 -57q37 0 67.5 12.5
t48 30.5t29 36.5t15.5 31.5l4 12h441q-1 -10 -4.5 -26.5t-20.5 -64.5t-41.5 -91.5t-72.5 -96.5t-108 -91.5t-153.5 -64.5t-204.5 -26q-128 0 -241 45t-192 121t-125 179.5t-46 217.5z" />
    <glyph glyph-name="d" unicode="d" 
d="M61 532q0 130 37.5 238.5t101 178.5t146.5 108.5t176 38.5q63 0 119 -18t90.5 -43.5t60.5 -51t37 -43.5l11 -18h20v512h430v-1434h-430v143h-20q-4 -7 -11.5 -19t-35.5 -42t-61.5 -52.5t-90 -41.5t-119.5 -19q-93 0 -176 38.5t-146.5 108.5t-101 178t-37.5 238zM502 532
q0 -97 52.5 -156t131.5 -59q72 0 123 59.5t51 155.5q0 97 -51 156.5t-123 59.5q-79 0 -131.5 -59.5t-52.5 -156.5z" />
    <glyph glyph-name="e" unicode="e" horiz-adv-x="1320" 
d="M51 539q0 155 75.5 281.5t214.5 201t314 74.5q131 0 246.5 -45t195.5 -120.5t126.5 -177.5t46.5 -214v-68h-778q7 -91 55.5 -143t118.5 -52q34 0 62.5 9.5t44.5 23t27 27.5t15 24l4 9h441q-2 -8 -7 -22.5t-25.5 -56t-47.5 -79.5t-76.5 -84t-109 -79t-148.5 -56t-191 -23
q-128 0 -241 45.5t-192 122t-125 181.5t-46 221zM492 645h327q-1 6 -3 15.5t-13.5 34t-28 43.5t-48 34.5t-71.5 15.5t-71.5 -14.5t-48 -36t-27 -42.5t-13.5 -35z" />
    <glyph glyph-name="f" unicode="f" horiz-adv-x="849" 
d="M31 717v307h133v410h706v-308h-276v-102h225v-307h-225v-717h-430v717h-133z" />
    <glyph glyph-name="g" unicode="g" 
d="M61 563q0 120 37.5 221t101 169t147 105.5t175.5 37.5q63 0 119 -17t90.5 -41t60.5 -48t37 -41l11 -17h20v133h430v-1454h-1095v307h665v277h-20q-4 -7 -11.5 -18t-35.5 -39t-61.5 -50t-90 -39.5t-119.5 -17.5q-191 0 -326 147t-135 385zM502 563q0 -85 49.5 -134.5
t134.5 -49.5q77 0 125.5 50t48.5 134t-48.5 134.5t-125.5 50.5q-85 0 -134.5 -50t-49.5 -135z" />
    <glyph glyph-name="h" unicode="h" horiz-adv-x="1331" 
d="M92 0v1434h430v-512h21q4 7 12 19t37.5 42t63 52.5t89 41.5t115.5 19q180 0 284.5 -114.5t104.5 -326.5v-655h-430v584q0 75 -35 114t-98 39q-71 0 -117.5 -50.5t-46.5 -133.5v-553h-430z" />
    <glyph glyph-name="i" unicode="i" horiz-adv-x="634" 
d="M92 1372q0 94 59.5 149.5t165.5 55.5t166 -56t60 -149t-60 -149t-166 -56t-165.5 55.5t-59.5 149.5zM102 0v1065h430v-1065h-430z" />
    <glyph glyph-name="j" unicode="j" horiz-adv-x="645" 
d="M102 1372q0 93 60 149t166 56t165.5 -55.5t59.5 -149.5t-59.5 -149.5t-165.5 -55.5t-166 56t-60 149zM-143 -389v307h256v1147h430v-1454h-686z" />
    <glyph glyph-name="k" unicode="k" horiz-adv-x="1259" 
d="M92 0v1434h430v-717h82l195 348h440l-274 -502l305 -563h-441l-204 358h-103v-358h-430z" />
    <glyph glyph-name="l" unicode="l" horiz-adv-x="778" 
d="M92 0v1434h430v-1127h236v-307h-666z" />
    <glyph glyph-name="m" unicode="m" horiz-adv-x="2007" 
d="M92 0v1065h430v-143h21q4 7 11.5 19t35 42t59.5 52.5t86.5 41.5t114.5 19q66 0 124 -19t94 -46t62 -54.5t37 -46.5l11 -19h20q4 8 11.5 20t36 44t63 56.5t93 44.5t124.5 20q187 0 293 -114t106 -327v-655h-430v584q0 74 -33.5 113.5t-89.5 39.5q-70 0 -111.5 -45.5
t-41.5 -128.5v-563h-420v584q0 74 -33.5 113.5t-89.5 39.5q-70 0 -112 -45.5t-42 -128.5v-563h-430z" />
    <glyph glyph-name="n" unicode="n" horiz-adv-x="1331" 
d="M92 0v1065h430v-143h21q4 7 12 19t37.5 42t63 52.5t89 41.5t115.5 19q180 0 284.5 -114.5t104.5 -326.5v-655h-430v584q0 75 -35 114t-98 39q-71 0 -117.5 -50.5t-46.5 -133.5v-553h-430z" />
    <glyph glyph-name="o" unicode="o" horiz-adv-x="1351" 
d="M51 532q0 242 173 403t452 161q139 0 257 -43.5t198 -119.5t124.5 -179.5t44.5 -221.5q0 -242 -172.5 -402.5t-451.5 -160.5q-185 0 -328.5 74.5t-220 202.5t-76.5 286zM492 532q0 -104 52.5 -164.5t131.5 -60.5t131.5 60.5t52.5 164.5t-52.5 165t-131.5 61t-131.5 -61
t-52.5 -165z" />
    <glyph glyph-name="p" unicode="p" 
d="M92 -389v1454h430v-143h21q4 7 11.5 19t35.5 42t61 52.5t89.5 41.5t119.5 19q93 0 176 -38.5t146.5 -108.5t101 -178.5t37.5 -238.5t-37.5 -238t-101 -178t-146.5 -108.5t-176 -38.5q-63 0 -119 18t-90.5 43.5t-60 51t-36.5 43.5l-11 18h-21v-532h-430zM522 532
q0 -96 51 -155.5t123 -59.5q79 0 132 59t53 156t-53 156.5t-132 59.5q-72 0 -123 -59.5t-51 -156.5z" />
    <glyph glyph-name="q" unicode="q" 
d="M61 532q0 130 37.5 238.5t101 178.5t146.5 108.5t176 38.5q63 0 119 -18t90.5 -43.5t60.5 -51t37 -43.5l11 -18h20v143h430v-1454h-430v532h-20q-4 -7 -11.5 -19t-35.5 -42t-61.5 -52.5t-90 -41.5t-119.5 -19q-93 0 -176 38.5t-146.5 108.5t-101 178t-37.5 238zM502 532
q0 -97 52.5 -156t131.5 -59q72 0 123 59.5t51 155.5q0 97 -51 156.5t-123 59.5q-79 0 -131.5 -59.5t-52.5 -156.5z" />
    <glyph glyph-name="r" unicode="r" horiz-adv-x="890" 
d="M92 0v1065h410v-154h20q2 7 7.5 19t26.5 42t47.5 52.5t73 41.5t101.5 19h92v-409h-184q-76 0 -120 -44t-44 -120v-512h-430z" />
    <glyph glyph-name="s" unicode="s" horiz-adv-x="1187" 
d="M41 358h410q0 -4 1.5 -10t11 -22t24.5 -28t45.5 -22t70.5 -10q58 0 80.5 13t22.5 38q0 24 -34.5 41.5t-89.5 30.5t-122 27.5t-133.5 41t-121.5 63t-89.5 100.5t-34.5 147q0 63 31.5 120.5t92 104.5t158.5 75t220 28q100 0 184.5 -20t138.5 -51.5t96.5 -70t64.5 -76.5
t36 -69.5t18 -51.5l4 -20h-399q0 3 -1.5 8t-9 17t-18.5 21.5t-33 17.5t-51 8q-92 0 -92 -41q0 -22 27 -37.5t71 -25t100 -22.5t114.5 -27t114.5 -41t100 -62.5t71 -93t27 -131.5q0 -71 -33.5 -134t-98.5 -114t-171 -81t-240 -30q-84 0 -156.5 13.5t-125 36t-96 51.5
t-72 61.5t-50.5 64.5t-33.5 61t-18.5 51.5t-9 35.5z" />
    <glyph glyph-name="t" unicode="t" horiz-adv-x="931" 
d="M31 768v307h133v225h430v-225h256v-307h-256v-461h276v-307h-706v768h-133z" />
    <glyph glyph-name="u" unicode="u" horiz-adv-x="1341" 
d="M92 410v655h430v-584q0 -75 35 -114t98 -39q71 0 117.5 50.5t46.5 133.5v553h430v-1065h-430v143h-20q-4 -7 -12.5 -19t-37.5 -42t-63 -52.5t-89.5 -41.5t-115.5 -19q-180 0 -284.5 114.5t-104.5 326.5z" />
    <glyph glyph-name="v" unicode="v" horiz-adv-x="1228" 
d="M0 1065h430l143 -717h82l144 717h430l-256 -1065h-717z" />
    <glyph glyph-name="w" unicode="w" horiz-adv-x="1832" 
d="M20 1065h431l102 -625h31l102 625h461l102 -625h31l102 625h430l-215 -1065h-563l-108 635h-19l-108 -635h-563z" />
    <glyph glyph-name="x" unicode="x" horiz-adv-x="1259" 
d="M0 0l276 563l-256 502h453l131 -338h51l131 338h453l-256 -502l277 -563h-461l-144 348h-51l-143 -348h-461z" />
    <glyph glyph-name="y" unicode="y" horiz-adv-x="1269" 
d="M20 1065h431l163 -696h41l174 696h441l-400 -1454h-430l113 389h-264z" />
    <glyph glyph-name="z" unicode="z" horiz-adv-x="1157" 
d="M61 0v348l461 348v21h-440v348h993v-348l-461 -348v-21h482v-348h-1035z" />
    <glyph glyph-name="braceleft" unicode="{" horiz-adv-x="880" 
d="M61 410v368h82q62 0 62 62v317q0 154 93.5 246t254.5 92h287v-348h-144q-38 0 -54.5 -17t-16.5 -55v-256q0 -53 -18 -95t-43.5 -63.5t-51 -35.5t-43.5 -17l-18 -4v-20q7 -1 19 -4t42 -17.5t52.5 -35.5t41.5 -63t19 -95v-256q0 -38 16.5 -55t54.5 -17h144v-348h-287
q-161 0 -254.5 92t-93.5 246v317q0 62 -62 62h-82z" />
    <glyph glyph-name="bar" unicode="|" horiz-adv-x="880" 
d="M246 -205v1741h389v-1741h-389z" />
    <glyph glyph-name="braceright" unicode="}" horiz-adv-x="880" 
d="M41 -307v348h143q38 0 55 17t17 55v256q0 53 18 95t43.5 63.5t51 35.5t43.5 17l18 4v20q-7 1 -19 4t-42 17.5t-52.5 35.5t-41.5 63t-19 95v256q0 38 -17 55t-55 17h-143v348h287q161 0 254.5 -92t93.5 -246v-317q0 -62 61 -62h82v-368h-82q-61 0 -61 -62v-317
q0 -154 -93.5 -246t-254.5 -92h-287z" />
    <glyph glyph-name="asciitilde" unicode="~" horiz-adv-x="1105" 
d="M72 389v164q0 287 256 287q62 0 114 -16t80.5 -35.5t64 -35.5t68.5 -16q31 0 51.5 20.5t20.5 51.5v31h307v-164q0 -287 -256 -287q-62 0 -114 16t-80.5 35.5t-64 35.5t-68.5 16q-31 0 -51.5 -20.5t-20.5 -51.5v-31h-307z" />
    <glyph glyph-name="nbspace" unicode="&#xa0;" horiz-adv-x="573" 
 />
    <glyph glyph-name="exclamdown" unicode="&#xa1;" horiz-adv-x="696" 
d="M133 891q0 85 62 145t153 60t153 -60t62 -145t-62 -145t-153 -60t-153 60t-62 145zM133 -389v614l82 338h266l82 -338v-614h-430z" />
    <glyph glyph-name="cent" unicode="&#xa2;" horiz-adv-x="1310" 
d="M51 532q0 185 113 332.5t297 202.5v182h379v-174q76 -18 140.5 -52.5t106.5 -74.5t75 -84t50.5 -84.5t29 -73t14.5 -52.5l4 -19h-441q-1 5 -4 13.5t-15.5 29.5t-29 37t-47.5 29.5t-68 13.5q-72 0 -117.5 -58t-45.5 -168q0 -111 45 -168t118 -57q37 0 67.5 12.5t48 30.5
t29 36.5t15.5 31.5l4 12h441q-1 -7 -3.5 -20t-14.5 -51.5t-29.5 -74.5t-51 -83.5t-75 -85.5t-106 -72.5t-140.5 -52.5v-174h-379v182q-185 56 -297.5 202t-112.5 332z" />
    <glyph glyph-name="sterling" unicode="&#xa3;" horiz-adv-x="1351" 
d="M51 0v358h21q68 0 105.5 36t37.5 100v100h-123v287h123v133q0 221 146 351t417 130q100 0 184 -25t137.5 -64.5t94.5 -87.5t62.5 -96.5t34.5 -88t17 -64.5l3 -25h-441q0 4 -1.5 10t-7.5 22t-15 28.5t-27 22.5t-41 10q-47 0 -74.5 -31.5t-27.5 -91.5v-133h287v-287h-287
v-57q0 -38 -12.5 -69.5t-31 -49t-36.5 -29.5t-30 -16l-13 -4v-11h768v-358h-1270z" />
    <glyph glyph-name="currency" unicode="&#xa4;" horiz-adv-x="1546" 
d="M51 164v256h144v123h-144v266h144v625h716q276 0 420 -122.5t144 -328.5q0 -199 -144.5 -319.5t-419.5 -120.5h-256v-123h410v-256h-410v-164h-460v164h-144zM655 809h185q76 0 120 42t44 112t-44 111.5t-120 41.5h-185v-307z" />
    <glyph glyph-name="yen" unicode="&#xa5;" horiz-adv-x="1464" 
d="M-20 1434h471l266 -441h31l266 441h471l-461 -707h225v-225h-286v-123h286v-225h-286v-154h-461v154h-287v225h287v123h-287v225h225z" />
    <glyph glyph-name="brokenbar" unicode="&#xa6;" horiz-adv-x="880" 
d="M246 788v748h389v-748h-389zM246 -205v748h389v-748h-389z" />
    <glyph glyph-name="section" unicode="&#xa7;" horiz-adv-x="1310" 
d="M72 307h409q1 -3 3 -8.5t13 -20t26 -25t45 -19.5t67 -9q57 0 85 18t28 44q0 22 -37.5 40t-97 32t-131.5 30.5t-144 42t-131.5 59.5t-97 89.5t-37.5 126.5q0 46 20 86t48.5 64.5t57 42t48.5 24.5l20 8v20q-5 3 -14 9.5t-32 28t-40.5 44.5t-32 59.5t-14.5 73.5
q0 60 30.5 116.5t91 105t164 77.5t236.5 29q82 0 154.5 -12t126 -33t98.5 -47.5t75.5 -56t54.5 -59t37.5 -56t22.5 -47.5t12 -33l3 -12h-420q-1 4 -3 10t-11.5 21.5t-22.5 27.5t-38.5 21.5t-57.5 9.5q-57 0 -85 -18t-28 -44q0 -25 37.5 -44t97 -34.5t131.5 -32.5t144 -43
t131.5 -60t97 -89.5t37.5 -126.5q0 -46 -20 -86t-48.5 -64.5t-57 -42t-48.5 -24.5l-20 -8v-20q5 -3 14 -8.5t32 -25t40.5 -41.5t32 -57.5t14.5 -72.5q0 -63 -32 -120.5t-95 -104.5t-168 -75t-238 -28q-85 0 -159.5 12t-128.5 32t-99.5 46t-75 55t-52.5 58t-35.5 55t-20 46
t-10.5 32zM522 768q0 -23 14 -38t64.5 -37t157.5 -58q6 1 14.5 4t22.5 16t14 31q0 23 -14 38t-67.5 37.5t-164.5 57.5q-2 0 -4.5 -1t-9.5 -5t-12.5 -9t-10 -15t-4.5 -21z" />
    <glyph glyph-name="dieresis" unicode="&#xa8;" horiz-adv-x="942" 
d="M512 1270q0 76 54 130t130 54q77 0 131 -54t54 -130t-54.5 -130.5t-130.5 -54.5t-130 54t-54 131zM61 1270q0 76 54 130t131 54q76 0 130 -54t54 -130q0 -77 -54 -131t-130 -54t-130.5 54.5t-54.5 130.5z" />
    <glyph glyph-name="copyright" unicode="&#xa9;" horiz-adv-x="1720" 
d="M61 717q0 152 62 291t168 242t254.5 164t314.5 61t314.5 -61t254.5 -164t168 -242t62 -291t-62 -291t-168 -242t-254.5 -164t-314.5 -61t-314.5 61t-254.5 164t-168 242t-62 291zM317 717q0 -224 153.5 -373t389.5 -149t389.5 149t153.5 373t-153.5 373t-389.5 149
t-389.5 -149t-153.5 -373zM481 717q0 154 109 261t270 107q67 0 124 -17t95 -44t68 -59.5t46.5 -65.5t27.5 -60t15 -44l3 -17h-266q-1 3 -3 7t-10 14.5t-18.5 19t-29.5 15t-42 6.5q-47 0 -79.5 -34.5t-32.5 -88.5q0 -53 32.5 -88t79.5 -35q23 0 42 6.5t30 15t18.5 17.5
t9.5 15l3 7h266q-1 -6 -3.5 -17.5t-14.5 -43t-28 -60.5t-46.5 -64.5t-68 -61t-94.5 -43t-124 -17.5q-160 0 -269.5 107t-109.5 262z" />
    <glyph glyph-name="ordfeminine" unicode="&#xaa;" horiz-adv-x="819" 
d="M61 942q0 94 61.5 149.5t174.5 55.5h195v41q0 31 -20.5 51.5t-51.5 20.5q-27 0 -45 -15.5t-23 -30.5l-4 -16h-256q1 5 3 14.5t12.5 36t25 50.5t42 53.5t62 51t87.5 36t116 14.5q151 0 234.5 -75t83.5 -201v-420h-266v92h-11q-2 -5 -6.5 -12.5t-21 -27t-36.5 -34.5
t-55 -27t-75 -12q-99 0 -162.5 59.5t-63.5 145.5zM338 993q0 -16 16 -28.5t45 -12.5q37 0 65 25.5t28 56.5h-93q-29 0 -45 -12.5t-16 -28.5z" />
    <glyph glyph-name="guillemotleft" unicode="&#xab;" 
d="M614 543l482 542l225 -215l-297 -327l297 -328l-225 -215zM31 543l481 542l225 -215l-297 -327l297 -328l-225 -215z" />
    <glyph glyph-name="logicalnot" unicode="&#xac;" horiz-adv-x="1105" 
d="M92 481v338h901v-543h-358v205h-543z" />
    <glyph glyph-name="uni00AD" unicode="&#xad;" horiz-adv-x="1003" 
d="M82 389v328h840v-328h-840z" />
    <glyph glyph-name="registered" unicode="&#xae;" horiz-adv-x="1228" 
d="M31 913q0 113 45.5 216.5t122.5 179.5t186 121t229 45q161 0 295.5 -76.5t211.5 -205.5t77 -280t-77 -279.5t-211.5 -205t-295.5 -76.5t-295.5 76.5t-211 205t-76.5 279.5zM399 676v502h256q112 0 174 -54t62 -141q0 -32 -8.5 -58t-20.5 -41t-24 -25.5t-20 -14.5l-9 -4
l111 -162q73 95 73 235q0 167 -105 272t-274 105q-168 0 -273 -105t-105 -272t104.5 -271.5t273.5 -104.5q97 0 175.5 36t128.5 103h-201l-92 133h-31v-133h-195zM594 942h41q51 0 51 41t-51 41h-41v-82z" />
    <glyph glyph-name="macron" unicode="&#xaf;" horiz-adv-x="829" 
d="M61 1188v235h707v-235h-707z" />
    <glyph glyph-name="degree" unicode="&#xb0;" horiz-adv-x="696" 
d="M51 1167q0 124 83.5 205.5t213.5 81.5t213.5 -81.5t83.5 -205.5t-83.5 -205t-213.5 -81t-213.5 81t-83.5 205zM266 1167q0 -33 22.5 -57.5t59.5 -24.5t59.5 24.5t22.5 57.5t-22.5 57.5t-59.5 24.5t-59.5 -24.5t-22.5 -57.5z" />
    <glyph glyph-name="plusminus" unicode="&#xb1;" horiz-adv-x="1105" 
d="M92 0v317h297v256h-297v328h297v297h328v-297h297v-328h-297v-256h297v-317h-922z" />
    <glyph glyph-name="twosuperior" unicode="&#xb2;" horiz-adv-x="768" 
d="M41 942v205l184 92q122 61 163.5 90t41.5 53t-15.5 38t-45.5 14q-27 0 -45 -13t-22 -26l-5 -13h-266q1 6 3.5 16t14 38.5t26.5 55t44 58.5t64.5 54.5t89 38.5t116.5 16q147 0 232.5 -69t85.5 -167q0 -49 -23.5 -93t-56.5 -72.5t-66 -50t-57 -31.5l-23 -9l-30 -10l-31 -8
v-12l102 20h185v-215h-666z" />
    <glyph glyph-name="threesuperior" unicode="&#xb3;" horiz-adv-x="727" 
d="M31 1167h266q0 -2 1.5 -4.5t6.5 -9.5t12 -12.5t21 -10t31 -4.5q61 0 61 54q0 26 -21 42.5t-53 16.5h-141v113l174 102v10l-82 -20h-235v194h583v-184l-153 -92l-23 -10v-11h2q103 0 159 -52t56 -132q0 -99 -82.5 -167t-236.5 -68q-64 0 -118 13.5t-88.5 35t-61.5 47.5
t-41 52.5t-23 48t-11 35.5z" />
    <glyph glyph-name="acute" unicode="&#xb4;" horiz-adv-x="665" 
d="M61 1116l144 318h399v-11l-287 -307h-256z" />
    <glyph glyph-name="mu" unicode="&#xb5;" horiz-adv-x="1341" 
d="M92 -410v1475h430v-584q0 -75 35 -114t98 -39q71 0 117.5 50.5t46.5 133.5v553h430v-1065h-430v143h-20q-2 -7 -5.5 -19t-20 -42t-38.5 -52.5t-62 -41.5t-89 -19q-50 0 -93.5 20.5t-62.5 40.5l-18 21h-21l133 -309v-152h-430z" />
    <glyph glyph-name="paragraph" unicode="&#xb6;" horiz-adv-x="1167" 
d="M41 940q0 212 148.5 353t383.5 141h553v-390h-204v-1450h-390v857q-102 0 -193 38t-156.5 103.5t-103.5 156t-38 191.5z" />
    <glyph glyph-name="periodcentered" unicode="&#xb7;" horiz-adv-x="573" 
d="M72 573q0 85 62 145t153 60t153 -60t62 -145t-61.5 -144.5t-153.5 -59.5t-153.5 59.5t-61.5 144.5z" />
    <glyph glyph-name="cedilla" unicode="&#xb8;" horiz-adv-x="614" 
d="M61 -520v192q83 -41 185 -41q43 0 67.5 18.5t24.5 43.5q0 26 -22.5 43.5t-59.5 17.5h-123l103 287h163l-51 -133q8 -1 22 -3.5t49.5 -16.5t62.5 -35t49 -63t22 -97q0 -110 -81 -183t-216 -73q-59 0 -107.5 10.5t-68 20t-19.5 12.5z" />
    <glyph glyph-name="onesuperior" unicode="&#xb9;" horiz-adv-x="747" 
d="M72 942v215h184v246l-164 -82v225l184 92h256v-481h154v-215h-614z" />
    <glyph glyph-name="ordmasculine" unicode="&#xba;" horiz-adv-x="819" 
d="M31 1096q0 155 106 256.5t273 101.5t272.5 -101.5t105.5 -256.5t-105.5 -257t-272.5 -102t-273 102t-106 257zM317 1096q0 -66 26 -99.5t67 -33.5t66.5 33.5t25.5 99.5t-25.5 99.5t-66.5 33.5t-67 -33.5t-26 -99.5z" />
    <glyph glyph-name="guillemotright" unicode="&#xbb;" horiz-adv-x="1392" 
d="M655 215l297 328l-297 327l226 215l481 -542l-481 -543zM72 215l297 328l-297 327l225 215l481 -542l-481 -543z" />
    <glyph glyph-name="onequarter" unicode="&#xbc;" horiz-adv-x="1730" 
d="M72 737v215h184v246l-164 -82v225l184 93h256v-482h154v-215h-614zM358 0l861 1434h297l-861 -1434h-297zM1014 113v194l246 389h266l-236 -368h103l61 112h184v-112h72v-215h-72v-113h-256v113h-368z" />
    <glyph glyph-name="onehalf" unicode="&#xbd;" horiz-adv-x="1839" 
d="M72 737v215h184v246l-164 -82v225l184 93h256v-482h154v-215h-614zM358 0l861 1434h297l-861 -1434h-297zM1112 0v205l184 92q122 61 163.5 90t41.5 53t-15.5 38t-45.5 14q-27 0 -45 -13t-23 -26l-4 -13h-266q1 6 3.5 16t14 38.5t26.5 55t44 58.5t64.5 54.5t89 38.5
t116.5 16q147 0 232.5 -69t85.5 -167q0 -49 -23.5 -93t-56.5 -72.5t-66 -50t-56 -31.5l-24 -9l-30 -10l-31 -8v-12l102 20h185v-215h-666z" />
    <glyph glyph-name="threequarters" unicode="&#xbe;" horiz-adv-x="1689" 
d="M31 963h266q0 -2 1.5 -4.5t6.5 -9.5t12 -12.5t21 -10t31 -4.5q61 0 61 53q0 26 -21 42.5t-53 16.5h-141v113l174 102v11l-82 -21h-235v195h583v-185l-153 -92l-23 -10v-10h2q103 0 159 -52.5t56 -132.5q0 -99 -82.5 -167t-236.5 -68q-88 0 -156 25.5t-102.5 61.5t-56 72
t-26.5 62zM317 0l861 1434h297l-861 -1434h-297zM973 113v194l246 389h266l-236 -368h103l61 112h184v-112h72v-215h-72v-113h-256v113h-368z" />
    <glyph glyph-name="questiondown" unicode="&#xbf;" horiz-adv-x="1310" 
d="M461 891q0 85 62 145t153 60t153 -60t62 -145t-62 -145t-153 -60t-153 60t-62 145zM51 31q0 71 22.5 128.5t59 95.5t80 70t87 58.5t80 53t59 61t22.5 75.5h430q0 -71 -22 -130.5t-57 -100.5t-77.5 -75.5t-85.5 -61.5t-78 -51.5t-57 -53t-22 -59.5q0 -102 163 -102
q36 0 65.5 8t49 20.5t35 27.5t23.5 30.5t13.5 28t6.5 20.5l2 8h440q-2 -10 -5.5 -28.5t-22.5 -70.5t-46 -99.5t-80 -105.5t-119 -99.5t-168.5 -70t-223.5 -28.5q-135 0 -245 36t-181 97.5t-109.5 143t-38.5 174.5z" />
    <glyph glyph-name="Agrave" unicode="&#xc0;" horiz-adv-x="1525" 
d="M-10 0l399 1434h748l399 -1434h-451l-71 276h-502l-72 -276h-450zM604 625h318l-103 409h-112zM369 1915v10h399l143 -317h-256z" />
    <glyph glyph-name="Aacute" unicode="&#xc1;" horiz-adv-x="1525" 
d="M-10 0l399 1434h748l399 -1434h-451l-71 276h-502l-72 -276h-450zM604 625h318l-103 409h-112zM635 1608l143 317h400v-10l-287 -307h-256z" />
    <glyph glyph-name="Acircumflex" unicode="&#xc2;" horiz-adv-x="1525" 
d="M-10 0l399 1434h748l399 -1434h-451l-71 276h-502l-72 -276h-450zM604 625h318l-103 409h-112zM389 1608v10l225 307h297l226 -307v-10h-256l-103 133h-30l-103 -133h-256z" />
    <glyph glyph-name="Atilde" unicode="&#xc3;" horiz-adv-x="1525" 
d="M-10 0l399 1434h748l399 -1434h-451l-71 276h-502l-72 -276h-450zM604 625h318l-103 409h-112zM399 1597v123q0 85 55 140t140 55q51 0 102 -18t93 -36t71 -18q23 0 32 9t9 32v21h225v-123q0 -85 -54.5 -140t-139.5 -55q-51 0 -102 18t-93 36t-71 18q-23 0 -32 -9t-9 -32
v-21h-226z" />
    <glyph glyph-name="Adieresis" unicode="&#xc4;" horiz-adv-x="1525" 
d="M-10 0l399 1434h748l399 -1434h-451l-71 276h-502l-72 -276h-450zM604 625h318l-103 409h-112zM807 1749q0 77 53.5 130.5t130.5 53.5t131 -54t54 -130t-54 -130t-131 -54t-130.5 53.5t-53.5 130.5zM356 1749q0 76 54 130t131 54t130.5 -53.5t53.5 -130.5t-53.5 -130.5
t-130.5 -53.5t-131 54t-54 130z" />
    <glyph glyph-name="Aring" unicode="&#xc5;" horiz-adv-x="1525" 
d="M-10 0l399 1434h748l399 -1434h-451l-71 276h-502l-72 -276h-450zM604 625h318l-103 409h-112zM502 1772q0 100 74.5 172.5t181.5 72.5t181.5 -72.5t74.5 -172.5q0 -101 -75 -173.5t-181 -72.5t-181 72.5t-75 173.5zM676 1772q0 -35 23.5 -58.5t58.5 -23.5t58.5 23.5
t23.5 58.5t-23.5 58t-58.5 23t-58.5 -23t-23.5 -58z" />
    <glyph glyph-name="AE" unicode="&#xc6;" horiz-adv-x="2119" 
d="M-10 0l399 1434h1639v-390h-646v-163h502v-328h-502v-164h646v-389h-1106v276h-410l-72 -276h-450zM604 625h318v409h-215z" />
    <glyph glyph-name="Ccedilla" unicode="&#xc7;" horiz-adv-x="1710" 
d="M61 717q0 156 61 295.5t166.5 241.5t257 161.5t324.5 59.5q104 0 196 -20t161 -54t128.5 -77.5t100.5 -92t74 -97t52.5 -92t32.5 -77.5t18 -54l5 -20h-471q-2 7 -8 19t-29 42t-53 52.5t-85.5 41.5t-121.5 19q-148 0 -237.5 -94t-89.5 -254t89.5 -254t237.5 -94
q52 0 97.5 12t76 31t55 41.5t39 45.5t24 42t12.5 31l4 12h471q-3 -12 -9 -34t-31.5 -84.5t-58.5 -120t-93.5 -128t-133 -123t-180.5 -90.5t-232 -43l-20 -53q8 -1 22 -3.5t49.5 -16.5t62.5 -35t49 -63t22 -97q0 -110 -81 -183t-216 -73q-59 0 -107.5 10.5t-68 20t-19.5 12.5
v192q82 -41 184 -41q43 0 68 18.5t25 43.5q0 26 -22.5 43.5t-59.5 17.5h-123l76 213q-304 37 -497.5 248.5t-193.5 501.5z" />
    <glyph glyph-name="Egrave" unicode="&#xc8;" horiz-adv-x="1361" 
d="M123 0v1434h1147v-390h-686v-163h542v-328h-542v-164h686v-389h-1147zM307 1915v10h400l143 -317h-256z" />
    <glyph glyph-name="Eacute" unicode="&#xc9;" horiz-adv-x="1361" 
d="M123 0v1434h1147v-390h-686v-163h542v-328h-542v-164h686v-389h-1147zM543 1608l143 317h399v-10l-286 -307h-256z" />
    <glyph glyph-name="Ecircumflex" unicode="&#xca;" horiz-adv-x="1361" 
d="M123 0v1434h1147v-390h-686v-163h542v-328h-542v-164h686v-389h-1147zM328 1608v10l225 307h297l225 -307v-10h-256l-102 133h-31l-102 -133h-256z" />
    <glyph glyph-name="Edieresis" unicode="&#xcb;" horiz-adv-x="1361" 
d="M123 0v1434h1147v-390h-686v-163h542v-328h-542v-164h686v-389h-1147zM748 1749q0 77 54 130.5t130 53.5t130 -53.5t54 -130.5t-54 -130.5t-130 -53.5t-130 53.5t-54 130.5zM297 1749q0 77 53.5 130.5t130.5 53.5t131 -54t54 -130t-54 -130t-131 -54t-130.5 53.5
t-53.5 130.5z" />
    <glyph glyph-name="Igrave" unicode="&#xcc;" horiz-adv-x="706" 
d="M123 0v1434h461v-1434h-461zM-61 1915v10h399l143 -317h-256z" />
    <glyph glyph-name="Iacute" unicode="&#xcd;" horiz-adv-x="706" 
d="M123 0v1434h461v-1434h-461zM225 1608l144 317h399v-10l-287 -307h-256z" />
    <glyph glyph-name="Icircumflex" unicode="&#xce;" horiz-adv-x="706" 
d="M123 0v1434h461v-1434h-461zM-20 1608v10l225 307h297l225 -307v-10h-256l-102 133h-31l-102 -133h-256z" />
    <glyph glyph-name="Idieresis" unicode="&#xcf;" horiz-adv-x="706" 
d="M123 0v1434h461v-1434h-461zM399 1751q0 76 54 130t131 54q76 0 130 -53.5t54 -130.5t-54 -130.5t-130 -53.5q-77 0 -131 54t-54 130zM-51 1751q0 77 53.5 130.5t130.5 53.5t130.5 -53.5t53.5 -130.5t-53.5 -130.5t-130.5 -53.5t-130.5 53.5t-53.5 130.5z" />
    <glyph glyph-name="Eth" unicode="&#xd0;" horiz-adv-x="1648" 
d="M41 553v328h143v553h604q177 0 327.5 -56t253 -152.5t160.5 -228t58 -280.5t-58 -280.5t-160.5 -228t-253 -152.5t-327.5 -56h-604v553h-143zM645 399h133q153 0 240.5 85.5t87.5 232.5t-87.5 232t-240.5 85h-133v-153h215v-328h-215v-154z" />
    <glyph glyph-name="Ntilde" unicode="&#xd1;" horiz-adv-x="1658" 
d="M123 0v1434h532l430 -758h21l-31 194v564h461v-1434h-532l-431 758h-20l31 -195v-563h-461zM471 1597v123q0 85 55 140t140 55q51 0 102 -18t93 -36t71 -18q23 0 32 9t9 32v21h225v-123q0 -85 -54.5 -140t-139.5 -55q-51 0 -102.5 18t-93.5 36t-71 18q-23 0 -32 -9
t-9 -32v-21h-225z" />
    <glyph glyph-name="Ograve" unicode="&#xd2;" horiz-adv-x="1740" 
d="M61 717q0 156 61 295.5t166.5 241.5t257 161.5t324.5 59.5t324.5 -59.5t257 -161.5t166.5 -241.5t61 -295.5t-61 -295.5t-166.5 -241.5t-257 -161.5t-324.5 -59.5t-324.5 59.5t-257 161.5t-166.5 241.5t-61 295.5zM543 717q0 -152 93.5 -250t233.5 -98t234 98t94 250
t-94 250t-234 98t-233.5 -98t-93.5 -250zM471 1915v10h399l144 -317h-256z" />
    <glyph glyph-name="Oacute" unicode="&#xd3;" horiz-adv-x="1740" 
d="M61 717q0 156 61 295.5t166.5 241.5t257 161.5t324.5 59.5t324.5 -59.5t257 -161.5t166.5 -241.5t61 -295.5t-61 -295.5t-166.5 -241.5t-257 -161.5t-324.5 -59.5t-324.5 59.5t-257 161.5t-166.5 241.5t-61 295.5zM543 717q0 -152 93.5 -250t233.5 -98t234 98t94 250
t-94 250t-234 98t-233.5 -98t-93.5 -250zM727 1608l143 317h400v-10l-287 -307h-256z" />
    <glyph glyph-name="Ocircumflex" unicode="&#xd4;" horiz-adv-x="1740" 
d="M61 717q0 156 61 295.5t166.5 241.5t257 161.5t324.5 59.5t324.5 -59.5t257 -161.5t166.5 -241.5t61 -295.5t-61 -295.5t-166.5 -241.5t-257 -161.5t-324.5 -59.5t-324.5 59.5t-257 161.5t-166.5 241.5t-61 295.5zM543 717q0 -152 93.5 -250t233.5 -98t234 98t94 250
t-94 250t-234 98t-233.5 -98t-93.5 -250zM502 1608v10l225 307h297l225 -307v-10h-256l-102 133h-31l-102 -133h-256z" />
    <glyph glyph-name="Otilde" unicode="&#xd5;" horiz-adv-x="1740" 
d="M61 717q0 156 61 295.5t166.5 241.5t257 161.5t324.5 59.5t324.5 -59.5t257 -161.5t166.5 -241.5t61 -295.5t-61 -295.5t-166.5 -241.5t-257 -161.5t-324.5 -59.5t-324.5 59.5t-257 161.5t-166.5 241.5t-61 295.5zM543 717q0 -152 93.5 -250t233.5 -98t234 98t94 250
t-94 250t-234 98t-233.5 -98t-93.5 -250zM512 1597v123q0 85 55 140t140 55q51 0 102 -18t93 -36t71 -18q23 0 32 9t9 32v21h225v-123q0 -85 -55 -140t-140 -55q-51 0 -102 18t-93 36t-71 18q-23 0 -32 -9t-9 -32v-21h-225z" />
    <glyph glyph-name="Odieresis" unicode="&#xd6;" horiz-adv-x="1740" 
d="M61 717q0 156 61 295.5t166.5 241.5t257 161.5t324.5 59.5t324.5 -59.5t257 -161.5t166.5 -241.5t61 -295.5t-61 -295.5t-166.5 -241.5t-257 -161.5t-324.5 -59.5t-324.5 59.5t-257 161.5t-166.5 241.5t-61 295.5zM543 717q0 -152 93.5 -250t233.5 -98t234 98t94 250
t-94 250t-234 98t-233.5 -98t-93.5 -250zM911 1751q0 76 54 130t131 54q76 0 130 -53.5t54 -130.5t-54 -130.5t-130 -53.5q-77 0 -131 54t-54 130zM461 1751q0 77 53.5 130.5t130.5 53.5t130.5 -53.5t53.5 -130.5t-53.5 -130.5t-130.5 -53.5t-130.5 53.5t-53.5 130.5z" />
    <glyph glyph-name="multiply" unicode="&#xd7;" horiz-adv-x="1105" 
d="M92 389l225 225l-225 226l236 235l225 -225l225 225l236 -235l-226 -226l226 -225l-236 -235l-225 225l-225 -225z" />
    <glyph glyph-name="Oslash" unicode="&#xd8;" horiz-adv-x="1740" 
d="M31 -20v225l147 110q-117 185 -117 402q0 156 61 295.5t166.5 241.5t257 161.5t324.5 59.5q170 0 318.5 -57.5t257.5 -160.5l264 197v-225l-149 -111q118 -182 118 -401q0 -156 -61 -295.5t-166.5 -241.5t-257 -161.5t-324.5 -59.5q-171 0 -318 57t-257 160zM543 717
q0 -60 16 -119l522 389q-88 78 -211 78q-140 0 -233.5 -98t-93.5 -250zM657 446q90 -77 213 -77q140 0 234 98t94 250q0 64 -18 117z" />
    <glyph glyph-name="Ugrave" unicode="&#xd9;" horiz-adv-x="1597" 
d="M113 584v850h460v-830q0 -106 62.5 -170.5t163.5 -64.5q100 0 162.5 65t62.5 170v830h461v-848q0 -285 -183 -456t-503 -171q-319 0 -502.5 170.5t-183.5 454.5zM389 1915v10h399l144 -317h-256z" />
    <glyph glyph-name="Uacute" unicode="&#xda;" horiz-adv-x="1597" 
d="M113 584v850h460v-830q0 -106 62.5 -170.5t163.5 -64.5q100 0 162.5 65t62.5 170v830h461v-848q0 -285 -183 -456t-503 -171q-319 0 -502.5 170.5t-183.5 454.5zM666 1608l143 317h399v-10l-286 -307h-256z" />
    <glyph glyph-name="Ucircumflex" unicode="&#xdb;" horiz-adv-x="1597" 
d="M113 584v850h460v-830q0 -106 62.5 -170.5t163.5 -64.5q100 0 162.5 65t62.5 170v830h461v-848q0 -285 -183 -456t-503 -171q-319 0 -502.5 170.5t-183.5 454.5zM422 1608v10l225 307h297l225 -307v-10h-256l-102 133h-31l-102 -133h-256z" />
    <glyph glyph-name="Udieresis" unicode="&#xdc;" horiz-adv-x="1597" 
d="M113 584v850h460v-830q0 -106 62.5 -170.5t163.5 -64.5q100 0 162.5 65t62.5 170v830h461v-848q0 -285 -183 -456t-503 -171q-319 0 -502.5 170.5t-183.5 454.5zM840 1751q0 77 54 130.5t130 53.5t130 -53.5t54 -130.5t-54 -130.5t-130 -53.5t-130 53.5t-54 130.5z
M389 1751q0 77 53.5 130.5t130.5 53.5t131 -54t54 -130t-54 -130t-131 -54t-130.5 53.5t-53.5 130.5z" />
    <glyph glyph-name="Yacute" unicode="&#xdd;" horiz-adv-x="1464" 
d="M-20 1434h471l266 -512h31l266 512h471l-522 -922v-512h-461v512zM584 1608l143 317h399v-10l-286 -307h-256z" />
    <glyph glyph-name="Thorn" unicode="&#xde;" horiz-adv-x="1617" 
d="M123 0v1434h461v-195h379q277 0 440.5 -145.5t163.5 -366.5t-163.5 -366.5t-440.5 -145.5h-379v-215h-461zM584 594h348q83 0 123.5 35t40.5 98t-40.5 98t-123.5 35h-348v-266z" />
    <glyph glyph-name="germandbls" unicode="&#xdf;" horiz-adv-x="1351" 
d="M92 0v1024q0 97 36.5 179t105.5 142.5t175.5 95t239.5 34.5q121 0 222.5 -32.5t166 -86t100.5 -118.5t36 -132q0 -64 -21.5 -116t-53 -81t-62.5 -48t-53 -25l-21 -7v-20q7 -1 19 -3.5t47 -14.5t67 -28.5t71 -47.5t67 -69.5t47 -97.5t19 -128q0 -191 -134 -305.5
t-388 -114.5h-143v348h102q60 0 96.5 33t36.5 80q0 55 -37.5 89t-105.5 34h-92v327q54 0 83.5 29.5t29.5 83.5q0 46 -30 74t-83 28q-54 0 -83.5 -29t-29.5 -83v-1014h-430z" />
    <glyph glyph-name="agrave" unicode="&#xe0;" 
d="M61 532q0 130 37.5 238.5t101 178.5t146.5 108.5t176 38.5q63 0 119 -18t90.5 -43.5t60.5 -51t37 -43.5l11 -18h20v143h430v-1065h-430v143h-20q-4 -7 -11.5 -19t-35.5 -42t-61.5 -52.5t-90 -41.5t-119.5 -19q-93 0 -176 38.5t-146.5 108.5t-101 178t-37.5 238zM502 532
q0 -97 52.5 -156t131.5 -59q72 0 123 59.5t51 155.5q0 97 -51 156.5t-123 59.5q-79 0 -131.5 -59.5t-52.5 -156.5zM307 1577v10h400l143 -317h-256z" />
    <glyph glyph-name="aacute" unicode="&#xe1;" 
d="M61 532q0 130 37.5 238.5t101 178.5t146.5 108.5t176 38.5q63 0 119 -18t90.5 -43.5t60.5 -51t37 -43.5l11 -18h20v143h430v-1065h-430v143h-20q-4 -7 -11.5 -19t-35.5 -42t-61.5 -52.5t-90 -41.5t-119.5 -19q-93 0 -176 38.5t-146.5 108.5t-101 178t-37.5 238zM502 532
q0 -97 52.5 -156t131.5 -59q72 0 123 59.5t51 155.5q0 97 -51 156.5t-123 59.5q-79 0 -131.5 -59.5t-52.5 -156.5zM512 1270l143 317h400v-10l-287 -307h-256z" />
    <glyph glyph-name="acircumflex" unicode="&#xe2;" 
d="M61 532q0 130 37.5 238.5t101 178.5t146.5 108.5t176 38.5q63 0 119 -18t90.5 -43.5t60.5 -51t37 -43.5l11 -18h20v143h430v-1065h-430v143h-20q-4 -7 -11.5 -19t-35.5 -42t-61.5 -52.5t-90 -41.5t-119.5 -19q-93 0 -176 38.5t-146.5 108.5t-101 178t-37.5 238zM502 532
q0 -97 52.5 -156t131.5 -59q72 0 123 59.5t51 155.5q0 97 -51 156.5t-123 59.5q-79 0 -131.5 -59.5t-52.5 -156.5zM328 1270v10l225 307h297l225 -307v-10h-256l-102 133h-31l-102 -133h-256z" />
    <glyph glyph-name="atilde" unicode="&#xe3;" 
d="M61 532q0 130 37.5 238.5t101 178.5t146.5 108.5t176 38.5q63 0 119 -18t90.5 -43.5t60.5 -51t37 -43.5l11 -18h20v143h430v-1065h-430v143h-20q-4 -7 -11.5 -19t-35.5 -42t-61.5 -52.5t-90 -41.5t-119.5 -19q-93 0 -176 38.5t-146.5 108.5t-101 178t-37.5 238zM502 532
q0 -97 52.5 -156t131.5 -59q72 0 123 59.5t51 155.5q0 97 -51 156.5t-123 59.5q-79 0 -131.5 -59.5t-52.5 -156.5zM346 1249v123q0 85 55 140t140 55q51 0 102 -18t93 -36t71 -18q23 0 32 9t9 32v20h225v-122q0 -85 -54.5 -140t-139.5 -55q-51 0 -102.5 18t-93.5 36t-71 18
q-23 0 -32 -9t-9 -32v-21h-225z" />
    <glyph glyph-name="adieresis" unicode="&#xe4;" 
d="M61 532q0 130 37.5 238.5t101 178.5t146.5 108.5t176 38.5q63 0 119 -18t90.5 -43.5t60.5 -51t37 -43.5l11 -18h20v143h430v-1065h-430v143h-20q-4 -7 -11.5 -19t-35.5 -42t-61.5 -52.5t-90 -41.5t-119.5 -19q-93 0 -176 38.5t-146.5 108.5t-101 178t-37.5 238zM502 532
q0 -97 52.5 -156t131.5 -59q72 0 123 59.5t51 155.5q0 97 -51 156.5t-123 59.5q-79 0 -131.5 -59.5t-52.5 -156.5zM737 1413q0 76 54 130t131 54q76 0 130 -53.5t54 -130.5t-54 -130.5t-130 -53.5q-77 0 -131 54t-54 130zM287 1413q0 77 53.5 130.5t130.5 53.5t130.5 -53.5
t53.5 -130.5t-53.5 -130.5t-130.5 -53.5t-130.5 53.5t-53.5 130.5z" />
    <glyph glyph-name="aring" unicode="&#xe5;" 
d="M61 532q0 130 37.5 238.5t101 178.5t146.5 108.5t176 38.5q63 0 119 -18t90.5 -43.5t60.5 -51t37 -43.5l11 -18h20v143h430v-1065h-430v143h-20q-4 -7 -11.5 -19t-35.5 -42t-61.5 -52.5t-90 -41.5t-119.5 -19q-93 0 -176 38.5t-146.5 108.5t-101 178t-37.5 238zM502 532
q0 -97 52.5 -156t131.5 -59q72 0 123 59.5t51 155.5q0 97 -51 156.5t-123 59.5q-79 0 -131.5 -59.5t-52.5 -156.5zM440 1434q0 100 74.5 172.5t181.5 72.5t181.5 -72.5t74.5 -172.5q0 -101 -75 -173.5t-181 -72.5t-181 72.5t-75 173.5zM614 1434q0 -35 23.5 -58.5
t58.5 -23.5t58.5 23.5t23.5 58.5t-23.5 58.5t-58.5 23.5t-58.5 -23.5t-23.5 -58.5z" />
    <glyph glyph-name="ae" unicode="&#xe6;" horiz-adv-x="2058" 
d="M51 307q0 144 109.5 236t306.5 92h332v47q0 52 -35 84.5t-98 32.5q-31 0 -56.5 -8.5t-39 -20.5t-23 -24t-12.5 -20l-3 -9h-430q1 8 4.5 21.5t19 53t37.5 75.5t64.5 79.5t95.5 75t134.5 53t177.5 21.5q54 0 104.5 -8.5t87.5 -22t69 -30t53 -33t36 -30t22 -22.5l7 -8h20
q5 6 14 16.5t43.5 37t75.5 47t110 37t146 16.5q121 0 229.5 -45.5t186 -122t123 -181t45.5 -219.5v-57h-778q7 -91 55.5 -143t118.5 -52q34 0 62.5 9.5t44.5 23t27 27.5t15 24l4 9h443q-2 -8 -7.5 -22.5t-26.5 -56t-48 -79.5t-75.5 -84t-106 -79t-142 -56t-180.5 -23
q-92 0 -172 22t-129 53.5t-84.5 63.5t-49.5 54l-15 22h-21q-3 -4 -8 -12t-24 -30.5t-41.5 -42.5t-61 -45t-81.5 -43t-103.5 -30t-126.5 -12q-210 0 -327.5 96.5t-117.5 241.5zM1229 635h327q-1 6 -3 16.5t-13.5 37t-27.5 46.5t-47.5 36.5t-71.5 16.5t-71.5 -16t-48 -38
t-27.5 -44.5t-14 -38.5zM492 369q0 -33 30.5 -57.5t81.5 -24.5q85 0 134.5 49.5t49.5 134.5h-188q-50 0 -79 -28t-29 -74z" />
    <glyph glyph-name="ccedilla" unicode="&#xe7;" horiz-adv-x="1310" 
d="M51 532q0 152 77.5 281t217 206t309.5 77q87 0 163.5 -16t132 -42.5t102.5 -61t78 -73t55.5 -76.5t37.5 -72.5t22 -61t12 -42.5l2 -16h-441q-1 5 -4 13.5t-15.5 29.5t-29 37t-47.5 29.5t-68 13.5q-72 0 -117.5 -58t-45.5 -168q0 -111 45 -168t118 -57q37 0 67.5 12.5
t48 30.5t29 36.5t15.5 31.5l4 12h441q-1 -9 -4 -24.5t-19 -61t-38 -87t-65.5 -93t-98 -90.5t-139.5 -68t-185 -35l-25 -63q8 -1 22 -3.5t49.5 -16.5t62.5 -35t49 -63t22 -97q0 -110 -81 -183t-216 -73q-59 0 -107.5 10.5t-68 20t-19.5 12.5v192q83 -41 185 -41
q43 0 67.5 18.5t24.5 43.5q0 26 -22.5 43.5t-59.5 17.5h-123l80 223q-220 34 -360 190.5t-140 364.5z" />
    <glyph glyph-name="egrave" unicode="&#xe8;" horiz-adv-x="1320" 
d="M51 539q0 155 75.5 281.5t214.5 201t314 74.5q131 0 246.5 -45t195.5 -120.5t126.5 -177.5t46.5 -214v-68h-778q7 -91 55.5 -143t118.5 -52q34 0 62.5 9.5t44.5 23t27 27.5t15 24l4 9h441q-2 -8 -7 -22.5t-25.5 -56t-47.5 -79.5t-76.5 -84t-109 -79t-148.5 -56t-191 -23
q-128 0 -241 45.5t-192 122t-125 181.5t-46 221zM492 645h327q-1 6 -3 15.5t-13.5 34t-28 43.5t-48 34.5t-71.5 15.5t-71.5 -14.5t-48 -36t-27 -42.5t-13.5 -35zM256 1577v10h399l144 -317h-256z" />
    <glyph glyph-name="eacute" unicode="&#xe9;" horiz-adv-x="1320" 
d="M51 539q0 155 75.5 281.5t214.5 201t314 74.5q131 0 246.5 -45t195.5 -120.5t126.5 -177.5t46.5 -214v-68h-778q7 -91 55.5 -143t118.5 -52q34 0 62.5 9.5t44.5 23t27 27.5t15 24l4 9h441q-2 -8 -7 -22.5t-25.5 -56t-47.5 -79.5t-76.5 -84t-109 -79t-148.5 -56t-191 -23
q-128 0 -241 45.5t-192 122t-125 181.5t-46 221zM492 645h327q-1 6 -3 15.5t-13.5 34t-28 43.5t-48 34.5t-71.5 15.5t-71.5 -14.5t-48 -36t-27 -42.5t-13.5 -35zM512 1270l143 317h400v-10l-287 -307h-256z" />
    <glyph glyph-name="ecircumflex" unicode="&#xea;" horiz-adv-x="1320" 
d="M51 539q0 155 75.5 281.5t214.5 201t314 74.5q131 0 246.5 -45t195.5 -120.5t126.5 -177.5t46.5 -214v-68h-778q7 -91 55.5 -143t118.5 -52q34 0 62.5 9.5t44.5 23t27 27.5t15 24l4 9h441q-2 -8 -7 -22.5t-25.5 -56t-47.5 -79.5t-76.5 -84t-109 -79t-148.5 -56t-191 -23
q-128 0 -241 45.5t-192 122t-125 181.5t-46 221zM492 645h327q-1 6 -3 15.5t-13.5 34t-28 43.5t-48 34.5t-71.5 15.5t-71.5 -14.5t-48 -36t-27 -42.5t-13.5 -35zM287 1270v10l225 307h297l225 -307v-10h-256l-102 133h-31l-102 -133h-256z" />
    <glyph glyph-name="edieresis" unicode="&#xeb;" horiz-adv-x="1320" 
d="M51 539q0 155 75.5 281.5t214.5 201t314 74.5q131 0 246.5 -45t195.5 -120.5t126.5 -177.5t46.5 -214v-68h-778q7 -91 55.5 -143t118.5 -52q34 0 62.5 9.5t44.5 23t27 27.5t15 24l4 9h441q-2 -8 -7 -22.5t-25.5 -56t-47.5 -79.5t-76.5 -84t-109 -79t-148.5 -56t-191 -23
q-128 0 -241 45.5t-192 122t-125 181.5t-46 221zM492 645h327q-1 6 -3 15.5t-13.5 34t-28 43.5t-48 34.5t-71.5 15.5t-71.5 -14.5t-48 -36t-27 -42.5t-13.5 -35zM707 1413q0 77 53.5 130.5t130.5 53.5t130.5 -53.5t53.5 -130.5t-53.5 -130.5t-130.5 -53.5t-130.5 53.5
t-53.5 130.5zM256 1413q0 77 54 130.5t130 53.5q77 0 131 -54t54 -130t-54 -130t-131 -54q-76 0 -130 53.5t-54 130.5z" />
    <glyph glyph-name="igrave" unicode="&#xec;" horiz-adv-x="634" 
d="M102 0v1065h430v-1065h-430zM-82 1577v10h399l144 -317h-256z" />
    <glyph glyph-name="iacute" unicode="&#xed;" horiz-adv-x="634" 
d="M102 0v1065h430v-1065h-430zM174 1270l143 317h400v-10l-287 -307h-256z" />
    <glyph glyph-name="icircumflex" unicode="&#xee;" horiz-adv-x="634" 
d="M102 0v1065h430v-1065h-430zM-61 1270v10l225 307h297l225 -307v-10h-256l-102 133h-31l-102 -133h-256z" />
    <glyph glyph-name="idieresis" unicode="&#xef;" horiz-adv-x="634" 
d="M102 0v1065h430v-1065h-430zM358 1413q0 76 54 130t131 54t130.5 -53.5t53.5 -130.5t-53.5 -130.5t-130.5 -53.5t-131 54t-54 130zM-92 1413q0 77 54 130.5t130 53.5t130 -53.5t54 -130.5t-54 -130.5t-130 -53.5t-130 53.5t-54 130.5z" />
    <glyph glyph-name="eth" unicode="&#xf0;" horiz-adv-x="1331" 
d="M51 477q0 210 137 348t344 138q70 0 130.5 -16t97 -38.5t63 -45t37.5 -38.5l10 -16h21q-7 78 -58.5 148t-166.5 180l-2 2l-224 -135v163l113 72l-215 195h450l41 -41l205 123v-164l-92 -62q41 -41 60.5 -61t54.5 -58t52.5 -61t44.5 -61.5t40.5 -68.5t31 -72.5t25 -84
t13.5 -92.5t6 -106q0 -305 -169 -480.5t-454 -175.5q-279 0 -437.5 141t-158.5 367zM492 492q0 -83 46.5 -134t116.5 -51q77 0 125.5 50.5t48.5 134.5t-48.5 134t-125.5 50q-70 0 -116.5 -50.5t-46.5 -133.5z" />
    <glyph glyph-name="ntilde" unicode="&#xf1;" horiz-adv-x="1331" 
d="M92 0v1065h430v-143h21q4 7 12 19t37.5 42t63 52.5t89 41.5t115.5 19q180 0 284.5 -114.5t104.5 -326.5v-655h-430v584q0 75 -35 114t-98 39q-71 0 -117.5 -50.5t-46.5 -133.5v-553h-430zM317 1249v123q0 85 55 140t140 55q51 0 102 -18t93 -36t71 -18q23 0 32 9t9 32v20
h225v-122q0 -85 -54.5 -140t-139.5 -55q-51 0 -102 18t-93 36t-71 18q-23 0 -32 -9t-9 -32v-21h-226z" />
    <glyph glyph-name="ograve" unicode="&#xf2;" horiz-adv-x="1351" 
d="M51 532q0 242 173 403t452 161q139 0 257 -43.5t198 -119.5t124.5 -179.5t44.5 -221.5q0 -242 -172.5 -402.5t-451.5 -160.5q-185 0 -328.5 74.5t-220 202.5t-76.5 286zM492 532q0 -104 52.5 -164.5t131.5 -60.5t131.5 60.5t52.5 164.5t-52.5 165t-131.5 61t-131.5 -61
t-52.5 -165zM266 1556v11h400l143 -318h-256z" />
    <glyph glyph-name="oacute" unicode="&#xf3;" horiz-adv-x="1351" 
d="M51 532q0 242 173 403t452 161q139 0 257 -43.5t198 -119.5t124.5 -179.5t44.5 -221.5q0 -242 -172.5 -402.5t-451.5 -160.5q-185 0 -328.5 74.5t-220 202.5t-76.5 286zM492 532q0 -104 52.5 -164.5t131.5 -60.5t131.5 60.5t52.5 164.5t-52.5 165t-131.5 61t-131.5 -61
t-52.5 -165zM532 1249l144 318h399v-11l-287 -307h-256z" />
    <glyph glyph-name="ocircumflex" unicode="&#xf4;" horiz-adv-x="1351" 
d="M51 532q0 242 173 403t452 161q139 0 257 -43.5t198 -119.5t124.5 -179.5t44.5 -221.5q0 -242 -172.5 -402.5t-451.5 -160.5q-185 0 -328.5 74.5t-220 202.5t-76.5 286zM492 532q0 -104 52.5 -164.5t131.5 -60.5t131.5 60.5t52.5 164.5t-52.5 165t-131.5 61t-131.5 -61
t-52.5 -165zM307 1249v11l225 307h297l226 -307v-11h-256l-103 133h-30l-103 -133h-256z" />
    <glyph glyph-name="otilde" unicode="&#xf5;" horiz-adv-x="1351" 
d="M51 532q0 242 173 403t452 161q139 0 257 -43.5t198 -119.5t124.5 -179.5t44.5 -221.5q0 -242 -172.5 -402.5t-451.5 -160.5q-185 0 -328.5 74.5t-220 202.5t-76.5 286zM492 532q0 -104 52.5 -164.5t131.5 -60.5t131.5 60.5t52.5 164.5t-52.5 165t-131.5 61t-131.5 -61
t-52.5 -165zM307 1249v123q0 85 55 140t140 55q51 0 102 -18t93 -36t71 -18q23 0 32 9t9 32v20h225v-122q0 -85 -54.5 -140t-139.5 -55q-51 0 -102.5 18t-93.5 36t-71 18q-23 0 -32 -9t-9 -32v-21h-225z" />
    <glyph glyph-name="odieresis" unicode="&#xf6;" horiz-adv-x="1351" 
d="M51 532q0 242 173 403t452 161q139 0 257 -43.5t198 -119.5t124.5 -179.5t44.5 -221.5q0 -242 -172.5 -402.5t-451.5 -160.5q-185 0 -328.5 74.5t-220 202.5t-76.5 286zM492 532q0 -104 52.5 -164.5t131.5 -60.5t131.5 60.5t52.5 164.5t-52.5 165t-131.5 61t-131.5 -61
t-52.5 -165zM717 1413q0 77 53.5 130.5t130.5 53.5t130.5 -53.5t53.5 -130.5t-53.5 -130.5t-130.5 -53.5t-130.5 53.5t-53.5 130.5zM266 1413q0 76 54 130t131 54t130.5 -53.5t53.5 -130.5t-53.5 -130.5t-130.5 -53.5t-131 54t-54 130z" />
    <glyph glyph-name="divide" unicode="&#xf7;" horiz-adv-x="1105" 
d="M348 1034q0 77 60.5 136t144.5 59t144.5 -59t60.5 -136t-60.5 -135.5t-144.5 -58.5t-144.5 58.5t-60.5 135.5zM92 461v307h922v-307h-922zM348 195q0 77 60.5 135.5t144.5 58.5t144.5 -58.5t60.5 -135.5t-60.5 -136t-144.5 -59t-144.5 59t-60.5 136z" />
    <glyph glyph-name="oslash" unicode="&#xf8;" horiz-adv-x="1351" 
d="M41 -20v225l78 55q-68 121 -68 272q0 242 173 403t452 161q256 0 426 -138l209 148v-225l-88 -64q77 -124 77 -285q0 -242 -172.5 -402.5t-451.5 -160.5q-266 0 -440 150zM492 532v-8l282 203q-45 31 -98 31q-79 0 -131.5 -61t-52.5 -165zM561 348q47 -41 115 -41
q79 0 131.5 60.5t52.5 164.5q0 19 -2 27z" />
    <glyph glyph-name="ugrave" unicode="&#xf9;" horiz-adv-x="1341" 
d="M92 410v655h430v-584q0 -75 35 -114t98 -39q71 0 117.5 50.5t46.5 133.5v553h430v-1065h-430v143h-20q-4 -7 -12.5 -19t-37.5 -42t-63 -52.5t-89.5 -41.5t-115.5 -19q-180 0 -284.5 114.5t-104.5 326.5zM279 1577v10h399l143 -317h-256z" />
    <glyph glyph-name="uacute" unicode="&#xfa;" horiz-adv-x="1341" 
d="M92 410v655h430v-584q0 -75 35 -114t98 -39q71 0 117.5 50.5t46.5 133.5v553h430v-1065h-430v143h-20q-4 -7 -12.5 -19t-37.5 -42t-63 -52.5t-89.5 -41.5t-115.5 -19q-180 0 -284.5 114.5t-104.5 326.5zM532 1270l144 317h399v-10l-287 -307h-256z" />
    <glyph glyph-name="ucircumflex" unicode="&#xfb;" horiz-adv-x="1341" 
d="M92 410v655h430v-584q0 -75 35 -114t98 -39q71 0 117.5 50.5t46.5 133.5v553h430v-1065h-430v143h-20q-4 -7 -12.5 -19t-37.5 -42t-63 -52.5t-89.5 -41.5t-115.5 -19q-180 0 -284.5 114.5t-104.5 326.5zM297 1270v10l225 307h297l225 -307v-10h-256l-102 133h-31
l-102 -133h-256z" />
    <glyph glyph-name="udieresis" unicode="&#xfc;" horiz-adv-x="1341" 
d="M92 410v655h430v-584q0 -75 35 -114t98 -39q71 0 117.5 50.5t46.5 133.5v553h430v-1065h-430v143h-20q-4 -7 -12.5 -19t-37.5 -42t-63 -52.5t-89.5 -41.5t-115.5 -19q-180 0 -284.5 114.5t-104.5 326.5zM717 1413q0 77 53.5 130.5t130.5 53.5t130.5 -53.5t53.5 -130.5
t-53.5 -130.5t-130.5 -53.5t-130.5 53.5t-53.5 130.5zM266 1413q0 76 54 130t131 54t130.5 -53.5t53.5 -130.5t-53.5 -130.5t-130.5 -53.5t-131 54t-54 130z" />
    <glyph glyph-name="yacute" unicode="&#xfd;" horiz-adv-x="1269" 
d="M20 1065h431l163 -696h41l174 696h441l-400 -1454h-430l113 389h-264zM492 1270l143 317h399v-10l-286 -307h-256z" />
    <glyph glyph-name="thorn" unicode="&#xfe;" 
d="M92 -389v1823h430v-512h21q4 7 11.5 19t35.5 42t61 52.5t89.5 41.5t119.5 19q93 0 176 -38.5t146.5 -108.5t101 -178.5t37.5 -238.5t-37.5 -238t-101 -178t-146.5 -108.5t-176 -38.5q-63 0 -119 18t-90.5 43.5t-60 51t-36.5 43.5l-11 18h-21v-532h-430zM522 532
q0 -96 51 -155.5t123 -59.5q79 0 132 59t53 156t-53 156.5t-132 59.5q-72 0 -123 -59.5t-51 -156.5z" />
    <glyph glyph-name="ydieresis" unicode="&#xff;" horiz-adv-x="1269" 
d="M20 1065h431l163 -696h41l174 696h441l-400 -1454h-430l113 389h-264zM686 1413q0 77 54 130.5t130 53.5q77 0 131 -54t54 -130t-54 -130t-131 -54q-76 0 -130 53.5t-54 130.5zM236 1413q0 77 54 130.5t130 53.5t130 -53.5t54 -130.5t-54 -130.5t-130 -53.5t-130 53.5
t-54 130.5z" />
    <glyph glyph-name="Amacron" unicode="&#x100;" horiz-adv-x="1525" 
d="M-10 0l399 1434h748l399 -1434h-451l-71 276h-502l-72 -276h-450zM604 625h318l-103 409h-112zM410 1628v236h706v-236h-706z" />
    <glyph glyph-name="amacron" unicode="&#x101;" 
d="M61 532q0 130 37.5 238.5t101 178.5t146.5 108.5t176 38.5q63 0 119 -18t90.5 -43.5t60.5 -51t37 -43.5l11 -18h20v143h430v-1065h-430v143h-20q-4 -7 -11.5 -19t-35.5 -42t-61.5 -52.5t-90 -41.5t-119.5 -19q-93 0 -176 38.5t-146.5 108.5t-101 178t-37.5 238zM502 532
q0 -97 52.5 -156t131.5 -59q72 0 123 59.5t51 155.5q0 97 -51 156.5t-123 59.5q-79 0 -131.5 -59.5t-52.5 -156.5zM358 1280v236h707v-236h-707z" />
    <glyph glyph-name="Abreve" unicode="&#x102;" horiz-adv-x="1525" 
d="M-10 0l399 1434h748l399 -1434h-451l-71 276h-502l-72 -276h-450zM604 625h318l-103 409h-112zM418 1905h225q16 -82 113 -82q96 0 112 82h226q0 -133 -90 -215t-248 -82t-248 82t-90 215z" />
    <glyph glyph-name="abreve" unicode="&#x103;" 
d="M61 532q0 130 37.5 238.5t101 178.5t146.5 108.5t176 38.5q63 0 119 -18t90.5 -43.5t60.5 -51t37 -43.5l11 -18h20v143h430v-1065h-430v143h-20q-4 -7 -11.5 -19t-35.5 -42t-61.5 -52.5t-90 -41.5t-119.5 -19q-93 0 -176 38.5t-146.5 108.5t-101 178t-37.5 238zM502 532
q0 -97 52.5 -156t131.5 -59q72 0 123 59.5t51 155.5q0 97 -51 156.5t-123 59.5q-79 0 -131.5 -59.5t-52.5 -156.5zM338 1567h225q16 -82 113 -82q96 0 112 82h226q0 -133 -90 -215t-248 -82t-248 82t-90 215z" />
    <glyph glyph-name="Aogonek" unicode="&#x104;" horiz-adv-x="1525" 
d="M-10 0l399 1434h748l399 -1434q-9 -7 -24 -18.5t-54 -46.5t-68.5 -68t-54 -76.5t-24.5 -77.5q0 -31 16.5 -46t54.5 -15q27 0 58 5t48 10l17 5v-174q-81 -41 -194 -41q-120 0 -183 55t-63 150q0 59 30.5 115.5t68 92.5t87.5 69t71.5 43.5t37.5 17.5h-275l-71 276h-502
l-72 -276h-450zM604 625h318l-103 409h-112z" />
    <glyph glyph-name="aogonek" unicode="&#x105;" 
d="M61 532q0 130 37.5 238.5t101 178.5t146.5 108.5t176 38.5q63 0 119 -18t90.5 -43.5t60.5 -51t37 -43.5l11 -18h20v143h430v-1065q-9 -7 -24 -18.5t-54 -46.5t-68.5 -68t-54 -76.5t-24.5 -77.5q0 -61 72 -61q27 0 58 5t48 10l17 5v-174q-82 -41 -195 -41q-120 0 -183 55
t-63 150q0 59 30.5 115.5t68 92.5t87.5 69t71.5 43.5t37.5 17.5h-254v143h-20q-4 -7 -11.5 -19t-35.5 -42t-61.5 -52.5t-90 -41.5t-119.5 -19q-93 0 -176 38.5t-146.5 108.5t-101 178t-37.5 238zM502 532q0 -97 52.5 -156t131.5 -59q72 0 123 59.5t51 155.5q0 97 -51 156.5
t-123 59.5q-79 0 -131.5 -59.5t-52.5 -156.5z" />
    <glyph glyph-name="Cacute" unicode="&#x106;" horiz-adv-x="1710" 
d="M61 717q0 156 61 295.5t166.5 241.5t257 161.5t324.5 59.5q104 0 196 -20t161 -54t128.5 -77.5t100.5 -92t74 -97t52.5 -92t32.5 -77.5t18 -54l5 -20h-471q-2 7 -8 19t-29 42t-53 52.5t-85.5 41.5t-121.5 19q-148 0 -237.5 -94t-89.5 -254t89.5 -254t237.5 -94
q52 0 97.5 12t76 31t55 41.5t39 45.5t24 42t12.5 31l4 12h471q-3 -13 -9 -35.5t-33 -87.5t-61.5 -124t-98.5 -131t-140.5 -124t-190.5 -87.5t-246 -35.5q-173 0 -324.5 59.5t-257 161.5t-166.5 241.5t-61 295.5zM717 1608l143 317h400v-10l-287 -307h-256z" />
    <glyph glyph-name="cacute" unicode="&#x107;" horiz-adv-x="1310" 
d="M51 532q0 152 77.5 281t217 206t309.5 77q87 0 163.5 -16t132 -42.5t102.5 -61t78 -73t55.5 -76.5t37.5 -72.5t22 -61t12 -42.5l2 -16h-441q-1 5 -4 13.5t-15.5 29.5t-29 37t-47.5 29.5t-68 13.5q-72 0 -117.5 -58t-45.5 -168q0 -111 45 -168t118 -57q37 0 67.5 12.5
t48 30.5t29 36.5t15.5 31.5l4 12h441q-1 -10 -4.5 -26.5t-20.5 -64.5t-41.5 -91.5t-72.5 -96.5t-108 -91.5t-153.5 -64.5t-204.5 -26q-128 0 -241 45t-192 121t-125 179.5t-46 217.5zM532 1270l144 317h399v-10l-287 -307h-256z" />
    <glyph glyph-name="Ccircumflex" unicode="&#x108;" horiz-adv-x="1710" 
d="M61 717q0 156 61 295.5t166.5 241.5t257 161.5t324.5 59.5q104 0 196 -20t161 -54t128.5 -77.5t100.5 -92t74 -97t52.5 -92t32.5 -77.5t18 -54l5 -20h-471q-2 7 -8 19t-29 42t-53 52.5t-85.5 41.5t-121.5 19q-148 0 -237.5 -94t-89.5 -254t89.5 -254t237.5 -94
q52 0 97.5 12t76 31t55 41.5t39 45.5t24 42t12.5 31l4 12h471q-3 -13 -9 -35.5t-33 -87.5t-61.5 -124t-98.5 -131t-140.5 -124t-190.5 -87.5t-246 -35.5q-173 0 -324.5 59.5t-257 161.5t-166.5 241.5t-61 295.5zM481 1608v10l226 307h297l225 -307v-10h-256l-103 133h-30
l-103 -133h-256z" />
    <glyph glyph-name="ccircumflex" unicode="&#x109;" horiz-adv-x="1310" 
d="M51 532q0 152 77.5 281t217 206t309.5 77q87 0 163.5 -16t132 -42.5t102.5 -61t78 -73t55.5 -76.5t37.5 -72.5t22 -61t12 -42.5l2 -16h-441q-1 5 -4 13.5t-15.5 29.5t-29 37t-47.5 29.5t-68 13.5q-72 0 -117.5 -58t-45.5 -168q0 -111 45 -168t118 -57q37 0 67.5 12.5
t48 30.5t29 36.5t15.5 31.5l4 12h441q-1 -10 -4.5 -26.5t-20.5 -64.5t-41.5 -91.5t-72.5 -96.5t-108 -91.5t-153.5 -64.5t-204.5 -26q-128 0 -241 45t-192 121t-125 179.5t-46 217.5zM287 1270v10l225 307h297l225 -307v-10h-256l-102 133h-31l-102 -133h-256z" />
    <glyph glyph-name="Ccaron" unicode="&#x10c;" horiz-adv-x="1710" 
d="M61 717q0 156 61 295.5t166.5 241.5t257 161.5t324.5 59.5q104 0 196 -20t161 -54t128.5 -77.5t100.5 -92t74 -97t52.5 -92t32.5 -77.5t18 -54l5 -20h-471q-2 7 -8 19t-29 42t-53 52.5t-85.5 41.5t-121.5 19q-148 0 -237.5 -94t-89.5 -254t89.5 -254t237.5 -94
q52 0 97.5 12t76 31t55 41.5t39 45.5t24 42t12.5 31l4 12h471q-3 -13 -9 -35.5t-33 -87.5t-61.5 -124t-98.5 -131t-140.5 -124t-190.5 -87.5t-246 -35.5q-173 0 -324.5 59.5t-257 161.5t-166.5 241.5t-61 295.5zM492 1915v10h256l102 -133h31l102 133h256v-10l-225 -307
h-297z" />
    <glyph glyph-name="ccaron" unicode="&#x10d;" horiz-adv-x="1310" 
d="M51 532q0 152 77.5 281t217 206t309.5 77q87 0 163.5 -16t132 -42.5t102.5 -61t78 -73t55.5 -76.5t37.5 -72.5t22 -61t12 -42.5l2 -16h-441q-1 5 -4 13.5t-15.5 29.5t-29 37t-47.5 29.5t-68 13.5q-72 0 -117.5 -58t-45.5 -168q0 -111 45 -168t118 -57q37 0 67.5 12.5
t48 30.5t29 36.5t15.5 31.5l4 12h441q-1 -10 -4.5 -26.5t-20.5 -64.5t-41.5 -91.5t-72.5 -96.5t-108 -91.5t-153.5 -64.5t-204.5 -26q-128 0 -241 45t-192 121t-125 179.5t-46 217.5zM276 1577v10h256l103 -133h31l102 133h256v-10l-225 -307h-297z" />
    <glyph glyph-name="Dcaron" unicode="&#x10e;" horiz-adv-x="1587" 
d="M123 0v1434h604q177 0 327.5 -56t253 -152.5t160.5 -228t58 -280.5t-58 -280.5t-160.5 -228t-253 -152.5t-327.5 -56h-604zM584 399h133q153 0 240 85.5t87 232.5t-87 232t-240 85h-133v-635zM358 1915v10h256l103 -133h31l102 133h256v-10l-225 -307h-297z" />
    <glyph glyph-name="dcaron" unicode="&#x10f;" horiz-adv-x="1669" 
d="M61 532q0 130 37.5 238.5t101 178.5t146.5 108.5t176 38.5q63 0 119 -18t90.5 -43.5t60.5 -51t37 -43.5l11 -18h20v512h430v-1434h-430v143h-20q-4 -7 -11.5 -19t-35.5 -42t-61.5 -52.5t-90 -41.5t-119.5 -19q-93 0 -176 38.5t-146.5 108.5t-101 178t-37.5 238zM502 532
q0 -97 52.5 -156t131.5 -59q72 0 123 59.5t51 155.5q0 97 -51 156.5t-123 59.5q-79 0 -131.5 -59.5t-52.5 -156.5zM1362 1288q0 70 54 122t130 52q89 0 142 -66.5t53 -199.5q0 -132 -91.5 -219.5t-236.5 -87.5v123q67 0 105 32t38 80v21q-20 -10 -51 -10q-62 0 -102.5 42.5
t-40.5 110.5z" />
    <glyph glyph-name="Dcroat" unicode="&#x110;" horiz-adv-x="1648" 
d="M41 553v328h143v553h604q177 0 327.5 -56t253 -152.5t160.5 -228t58 -280.5t-58 -280.5t-160.5 -228t-253 -152.5t-327.5 -56h-604v553h-143zM645 399h133q153 0 240.5 85.5t87.5 232.5t-87.5 232t-240.5 85h-133v-153h215v-328h-215v-154z" />
    <glyph glyph-name="dcroat" unicode="&#x111;" horiz-adv-x="1433" 
d="M61 502q0 120 36 221t97.5 168.5t143.5 105t174 37.5q63 0 119 -18t90.5 -43.5t60 -51t36.5 -43.5l11 -18h21v236h-205v225h205v113h430v-113h133v-225h-133v-1096h-430v143h-21q-4 -7 -11.5 -19t-35.5 -42t-61 -52.5t-89 -41.5t-118 -19q-93 0 -175.5 37.5t-144 105.5
t-97.5 169t-36 221zM502 502q0 -84 48.5 -134.5t125.5 -50.5t125.5 50.5t48.5 134.5t-48.5 134t-125.5 50t-125.5 -50t-48.5 -134z" />
    <glyph glyph-name="Emacron" unicode="&#x112;" horiz-adv-x="1361" 
d="M123 0v1434h1147v-390h-686v-163h542v-328h-542v-164h686v-389h-1147zM348 1618v235h707v-235h-707z" />
    <glyph glyph-name="emacron" unicode="&#x113;" horiz-adv-x="1320" 
d="M51 539q0 155 75.5 281.5t214.5 201t314 74.5q131 0 246.5 -45t195.5 -120.5t126.5 -177.5t46.5 -214v-68h-778q7 -91 55.5 -143t118.5 -52q34 0 62.5 9.5t44.5 23t27 27.5t15 24l4 9h441q-2 -8 -7 -22.5t-25.5 -56t-47.5 -79.5t-76.5 -84t-109 -79t-148.5 -56t-191 -23
q-128 0 -241 45.5t-192 122t-125 181.5t-46 221zM492 645h327q-1 6 -3 15.5t-13.5 34t-28 43.5t-48 34.5t-71.5 15.5t-71.5 -14.5t-48 -36t-27 -42.5t-13.5 -35zM297 1280v236h707v-236h-707z" />
    <glyph glyph-name="Edotaccent" unicode="&#x116;" horiz-adv-x="1361" 
d="M123 0v1434h1147v-390h-686v-163h542v-328h-542v-164h686v-389h-1147zM492 1731q0 93 59.5 148.5t165.5 55.5t165.5 -55.5t59.5 -148.5q0 -94 -59.5 -149.5t-165.5 -55.5t-165.5 55.5t-59.5 149.5z" />
    <glyph glyph-name="edotaccent" unicode="&#x117;" horiz-adv-x="1320" 
d="M51 539q0 155 75.5 281.5t214.5 201t314 74.5q131 0 246.5 -45t195.5 -120.5t126.5 -177.5t46.5 -214v-68h-778q7 -91 55.5 -143t118.5 -52q34 0 62.5 9.5t44.5 23t27 27.5t15 24l4 9h441q-2 -8 -7 -22.5t-25.5 -56t-47.5 -79.5t-76.5 -84t-109 -79t-148.5 -56t-191 -23
q-128 0 -241 45.5t-192 122t-125 181.5t-46 221zM492 645h327q-1 6 -3 15.5t-13.5 34t-28 43.5t-48 34.5t-71.5 15.5t-71.5 -14.5t-48 -36t-27 -42.5t-13.5 -35zM430 1413q0 94 59.5 149.5t165.5 55.5t166 -56t60 -149t-60 -149t-166 -56t-165.5 55.5t-59.5 149.5z" />
    <glyph glyph-name="Eogonek" unicode="&#x118;" horiz-adv-x="1361" 
d="M123 0v1434h1147v-390h-686v-163h542v-328h-542v-164h686v-389q-9 -7 -24.5 -18.5t-54.5 -46.5t-68.5 -68t-54 -76.5t-24.5 -77.5q0 -61 72 -61q27 0 58 5t48 10l17 5v-174q-82 -41 -195 -41q-120 0 -182.5 55t-62.5 150q0 56 30 111.5t69 92.5t87 70t72 46t37 18h-971z
" />
    <glyph glyph-name="eogonek" unicode="&#x119;" horiz-adv-x="1320" 
d="M51 539q0 155 75.5 281.5t214.5 201t314 74.5q131 0 246.5 -45t195.5 -120.5t126.5 -177.5t46.5 -214v-68h-778q7 -91 55.5 -143t118.5 -52q34 0 62.5 9.5t44.5 23t27 27.5t15 24l4 9h441q-3 -9 -9 -25t-30.5 -61t-55.5 -85t-85 -87.5t-117 -79.5q-12 -7 -31 -19.5
t-68.5 -50.5t-87.5 -74.5t-69 -85t-31 -88.5q0 -61 72 -61q27 0 57.5 5t47.5 10l17 5v-174q-81 -41 -194 -41q-120 0 -183 55t-63 150q0 52 25.5 102.5t61.5 85.5t72 63t61 42l26 14h-21q-128 0 -241 45.5t-192 122t-125 181.5t-46 221zM492 645h327q-1 6 -3 15.5t-13.5 34
t-28 43.5t-48 34.5t-71.5 15.5t-71.5 -14.5t-48 -36t-27 -42.5t-13.5 -35z" />
    <glyph glyph-name="Ecaron" unicode="&#x11a;" horiz-adv-x="1361" 
d="M123 0v1434h1147v-390h-686v-163h542v-328h-542v-164h686v-389h-1147zM328 1915v10h256l102 -133h31l102 133h256v-10l-225 -307h-297z" />
    <glyph glyph-name="ecaron" unicode="&#x11b;" horiz-adv-x="1320" 
d="M51 539q0 155 75.5 281.5t214.5 201t314 74.5q131 0 246.5 -45t195.5 -120.5t126.5 -177.5t46.5 -214v-68h-778q7 -91 55.5 -143t118.5 -52q34 0 62.5 9.5t44.5 23t27 27.5t15 24l4 9h441q-2 -8 -7 -22.5t-25.5 -56t-47.5 -79.5t-76.5 -84t-109 -79t-148.5 -56t-191 -23
q-128 0 -241 45.5t-192 122t-125 181.5t-46 221zM492 645h327q-1 6 -3 15.5t-13.5 34t-28 43.5t-48 34.5t-71.5 15.5t-71.5 -14.5t-48 -36t-27 -42.5t-13.5 -35zM287 1577v10h256l102 -133h31l102 133h256v-10l-225 -307h-297z" />
    <glyph glyph-name="Gbreve" unicode="&#x11e;" horiz-adv-x="1792" 
d="M61 717q0 156 61 295.5t168 241.5t260.5 161.5t330.5 59.5q100 0 190 -18.5t157.5 -50t126 -72t99.5 -85.5t74 -90.5t53 -86t33.5 -72t18.5 -50.5l5 -18h-471q-2 5 -7.5 14t-28.5 32t-52 40.5t-82 32t-116 14.5q-154 0 -246 -93.5t-92 -254.5t92 -254.5t246 -93.5
q69 0 125 14.5t86.5 35.5t51.5 42.5t28 36.5l6 14h-174v297h788v-297h-154q-3 -12 -9.5 -31.5t-33 -77t-61 -110t-97 -116t-136.5 -109.5t-184 -77.5t-236 -31.5q-177 0 -330.5 59.5t-260.5 161.5t-168 241.5t-61 295.5zM522 1905h226q16 -82 112 -82q97 0 113 82h225
q0 -133 -90 -215t-248 -82t-248 82t-90 215z" />
    <glyph glyph-name="gbreve" unicode="&#x11f;" 
d="M61 563q0 120 37.5 221t101 169t147 105.5t175.5 37.5q63 0 119 -17t90.5 -41t60.5 -48t37 -41l11 -17h20v133h430v-1454h-1095v307h665v277h-20q-4 -7 -11.5 -18t-35.5 -39t-61.5 -50t-90 -39.5t-119.5 -17.5q-191 0 -326 147t-135 385zM502 563q0 -85 49.5 -134.5
t134.5 -49.5q77 0 125.5 50t48.5 134t-48.5 134.5t-125.5 50.5q-85 0 -134.5 -50t-49.5 -135zM338 1567h225q16 -82 113 -82q96 0 112 82h226q0 -133 -90 -215t-248 -82t-248 82t-90 215z" />
    <glyph glyph-name="Gcommaaccent" unicode="&#x122;" horiz-adv-x="1792" 
d="M61 717q0 156 61 295.5t168 241.5t260.5 161.5t330.5 59.5q100 0 190 -18.5t157.5 -50t126 -72t99.5 -85.5t74 -90.5t53 -86t33.5 -72t18.5 -50.5l5 -18h-471q-2 5 -7.5 14t-28.5 32t-52 40.5t-82 32t-116 14.5q-154 0 -246 -93.5t-92 -254.5t92 -254.5t246 -93.5
q69 0 125 14.5t86.5 35.5t51.5 42.5t28 36.5l6 14h-174v297h788v-297h-154q-3 -12 -9.5 -31.5t-33 -77t-61 -110t-97 -116t-136.5 -109.5t-184 -77.5t-236 -31.5q-177 0 -330.5 59.5t-260.5 161.5t-168 241.5t-61 295.5zM676 -328q0 70 54 122t130 52q89 0 142 -66.5
t53 -199.5q0 -132 -91.5 -219.5t-236.5 -87.5v123q67 0 105 32t38 80v21q-20 -10 -51 -10q-62 0 -102.5 42.5t-40.5 110.5z" />
    <glyph glyph-name="gcommaaccent" unicode="&#x123;" 
d="M512 1505q0 132 91.5 219.5t236.5 87.5v-122q-67 0 -105.5 -32.5t-38.5 -80.5v-21q21 11 52 11q62 0 102.5 -43t40.5 -111q0 -70 -54 -122t-130 -52q-89 0 -142 66.5t-53 199.5zM61 563q0 120 37.5 221t101 169t147 105.5t175.5 37.5q63 0 119 -17t90.5 -41t60.5 -48
t37 -41l11 -17h20v133h430v-1454h-1095v307h665v277h-20q-4 -7 -11.5 -18t-35.5 -39t-61.5 -50t-90 -39.5t-119.5 -17.5q-191 0 -326 147t-135 385zM502 563q0 -85 49.5 -134.5t134.5 -49.5q77 0 125.5 50t48.5 134t-48.5 134.5t-125.5 50.5q-85 0 -134.5 -50t-49.5 -135z
" />
    <glyph glyph-name="Imacron" unicode="&#x12a;" horiz-adv-x="706" 
d="M123 0v1434h461v-1434h-461zM0 1628v236h707v-236h-707z" />
    <glyph glyph-name="imacron" unicode="&#x12b;" horiz-adv-x="634" 
d="M102 0v1065h430v-1065h-430zM-41 1280v236h707v-236h-707z" />
    <glyph glyph-name="Iogonek" unicode="&#x12e;" horiz-adv-x="706" 
d="M113 -338q0 56 30 111.5t69 92.5t87 70t72 46t37 18h-285v1434h461v-1434q-9 -7 -24.5 -18.5t-54.5 -46.5t-68.5 -68t-54 -76.5t-24.5 -77.5q0 -61 72 -61q27 0 58 5t48 10l17 5v-174q-82 -41 -195 -41q-120 0 -182.5 55t-62.5 150z" />
    <glyph glyph-name="iogonek" unicode="&#x12f;" horiz-adv-x="634" 
d="M61 -338q0 56 30 111.5t69 92.5t87 70t72 46t37 18h-254v1065h430v-1065q-9 -7 -24 -18.5t-54 -46.5t-68.5 -68t-54 -76.5t-24.5 -77.5q0 -61 72 -61q27 0 58 5t48 10l17 5v-174q-82 -41 -195 -41q-120 0 -183 55t-63 150zM92 1372q0 94 59.5 149.5t165.5 55.5t166 -56
t60 -149t-60 -149t-166 -56t-165.5 55.5t-59.5 149.5z" />
    <glyph glyph-name="Idotaccent" unicode="&#x130;" horiz-adv-x="706" 
d="M123 0v1434h461v-1434h-461zM133 1751q0 94 59.5 149.5t165.5 55.5t166 -56t60 -149t-60 -149t-166 -56t-165.5 55.5t-59.5 149.5z" />
    <glyph glyph-name="dotlessi" unicode="&#x131;" horiz-adv-x="634" 
d="M102 0v1065h430v-1065h-430z" />
    <glyph glyph-name="Kcommaaccent" unicode="&#x136;" horiz-adv-x="1546" 
d="M123 0v1434h461v-492h123l307 492h512l-420 -666l461 -768h-512l-328 522h-143v-522h-461zM594 -328q0 70 54 122t130 52q89 0 142 -66.5t53 -199.5q0 -132 -91.5 -219.5t-236.5 -87.5v123q67 0 105 32t38 80v21q-20 -10 -51 -10q-62 0 -102.5 42.5t-40.5 110.5z" />
    <glyph glyph-name="kcommaaccent" unicode="&#x137;" horiz-adv-x="1259" 
d="M92 0v1434h430v-717h82l195 348h440l-274 -502l305 -563h-441l-204 358h-103v-358h-430zM471 -330q0 70 54 122t130 52q89 0 142 -66.5t53 -199.5q0 -132 -91.5 -219.5t-236.5 -87.5v123q67 0 105.5 32t38.5 80v21q-21 -10 -52 -10q-62 0 -102.5 42.5t-40.5 110.5z" />
    <glyph glyph-name="Lacute" unicode="&#x139;" horiz-adv-x="1259" 
d="M123 0v1434h461v-1024h655v-410h-1116zM195 1608l143 317h399v-10l-286 -307h-256z" />
    <glyph glyph-name="lacute" unicode="&#x13a;" horiz-adv-x="778" 
d="M92 0v1434h430v-1127h236v-307h-666zM174 1608l143 317h400v-10l-287 -307h-256z" />
    <glyph glyph-name="Lcommaaccent" unicode="&#x13b;" horiz-adv-x="1259" 
d="M123 0v1434h461v-1024h655v-410h-1116zM492 -326q0 70 54 122t130 52q89 0 141.5 -66.5t52.5 -199.5q0 -132 -91 -219.5t-236 -87.5v123q66 0 104.5 32.5t38.5 80.5v20q-20 -10 -51 -10q-62 0 -102.5 42.5t-40.5 110.5z" />
    <glyph glyph-name="lcommaaccent" unicode="&#x13c;" horiz-adv-x="778" 
d="M92 0v1434h430v-1127h236v-307h-666zM236 -330q0 70 54 122t130 52q89 0 141.5 -66.5t52.5 -199.5q0 -132 -91 -219.5t-236 -87.5v123q67 0 105 32t38 80v21q-20 -10 -51 -10q-62 0 -102.5 42.5t-40.5 110.5z" />
    <glyph glyph-name="Lcaron" unicode="&#x13d;" horiz-adv-x="1259" 
d="M123 0v1434h461v-1024h655v-410h-1116zM717 1300q0 70 54 122.5t130 52.5q89 0 142 -67t53 -200q0 -132 -91.5 -219.5t-236.5 -87.5v123q66 0 104.5 32.5t38.5 80.5v20q-20 -10 -51 -10q-62 0 -102.5 42.5t-40.5 110.5z" />
    <glyph glyph-name="lcaron" unicode="&#x13e;" horiz-adv-x="911" 
d="M92 0v1434h430v-1127h236v-307h-666zM604 1292q0 70 54 122t130 52q89 0 142 -66.5t53 -199.5q0 -132 -91.5 -219.5t-236.5 -87.5v123q67 0 105.5 32t38.5 80v21q-20 -10 -51 -10q-62 0 -103 42.5t-41 110.5z" />
    <glyph glyph-name="Lslash" unicode="&#x141;" horiz-adv-x="1320" 
d="M20 440v318l164 71v605h461v-400l287 123v-317l-287 -123v-307h655v-410h-1116v512z" />
    <glyph glyph-name="lslash" unicode="&#x142;" horiz-adv-x="849" 
d="M20 451v307l144 61v615h430v-420l215 92v-307l-215 -92v-400h235v-307h-665v512z" />
    <glyph glyph-name="Nacute" unicode="&#x143;" horiz-adv-x="1658" 
d="M123 0v1434h532l430 -758h21l-31 194v564h461v-1434h-532l-431 758h-20l31 -195v-563h-461zM676 1608l143 317h400v-10l-287 -307h-256z" />
    <glyph glyph-name="nacute" unicode="&#x144;" horiz-adv-x="1331" 
d="M92 0v1065h430v-143h21q4 7 12 19t37.5 42t63 52.5t89 41.5t115.5 19q180 0 284.5 -114.5t104.5 -326.5v-655h-430v584q0 75 -35 114t-98 39q-71 0 -117.5 -50.5t-46.5 -133.5v-553h-430zM502 1270l143 317h399v-10l-286 -307h-256z" />
    <glyph glyph-name="Ncommaaccent" unicode="&#x145;" horiz-adv-x="1658" 
d="M123 0v1434h532l430 -758h21l-31 194v564h461v-1434h-532l-431 758h-20l31 -195v-563h-461zM645 -328q0 70 54 122t130 52q89 0 142 -66.5t53 -199.5q0 -132 -91.5 -219.5t-236.5 -87.5v123q67 0 105.5 32t38.5 80v21q-21 -10 -52 -10q-62 0 -102.5 42.5t-40.5 110.5z
" />
    <glyph glyph-name="ncommaaccent" unicode="&#x146;" horiz-adv-x="1331" 
d="M92 0v1065h430v-143h21q4 7 12 19t37.5 42t63 52.5t89 41.5t115.5 19q180 0 284.5 -114.5t104.5 -326.5v-655h-430v584q0 75 -35 114t-98 39q-71 0 -117.5 -50.5t-46.5 -133.5v-553h-430zM492 -330q0 70 54 122t130 52q89 0 141.5 -66.5t52.5 -199.5q0 -132 -91 -219.5
t-236 -87.5v123q67 0 105 32t38 80v21q-20 -10 -51 -10q-62 0 -102.5 42.5t-40.5 110.5z" />
    <glyph glyph-name="Ncaron" unicode="&#x147;" horiz-adv-x="1658" 
d="M123 0v1434h532l430 -758h21l-31 194v564h461v-1434h-532l-431 758h-20l31 -195v-563h-461zM461 1915v10h256l102 -133h31l102 133h256v-10l-225 -307h-297z" />
    <glyph glyph-name="ncaron" unicode="&#x148;" horiz-adv-x="1331" 
d="M92 0v1065h430v-143h21q4 7 12 19t37.5 42t63 52.5t89 41.5t115.5 19q180 0 284.5 -114.5t104.5 -326.5v-655h-430v584q0 75 -35 114t-98 39q-71 0 -117.5 -50.5t-46.5 -133.5v-553h-430zM297 1577v10h256l102 -133h31l102 133h256v-10l-225 -307h-297z" />
    <glyph glyph-name="Omacron" unicode="&#x14c;" horiz-adv-x="1740" 
d="M61 717q0 156 61 295.5t166.5 241.5t257 161.5t324.5 59.5t324.5 -59.5t257 -161.5t166.5 -241.5t61 -295.5t-61 -295.5t-166.5 -241.5t-257 -161.5t-324.5 -59.5t-324.5 59.5t-257 161.5t-166.5 241.5t-61 295.5zM543 717q0 -152 93.5 -250t233.5 -98t234 98t94 250
t-94 250t-234 98t-233.5 -98t-93.5 -250zM522 1628v236h707v-236h-707z" />
    <glyph glyph-name="omacron" unicode="&#x14d;" horiz-adv-x="1351" 
d="M51 532q0 242 173 403t452 161q139 0 257 -43.5t198 -119.5t124.5 -179.5t44.5 -221.5q0 -242 -172.5 -402.5t-451.5 -160.5q-185 0 -328.5 74.5t-220 202.5t-76.5 286zM492 532q0 -104 52.5 -164.5t131.5 -60.5t131.5 60.5t52.5 164.5t-52.5 165t-131.5 61t-131.5 -61
t-52.5 -165zM317 1280v236h707v-236h-707z" />
    <glyph glyph-name="Ohungarumlaut" unicode="&#x150;" horiz-adv-x="1740" 
d="M61 717q0 156 61 295.5t166.5 241.5t257 161.5t324.5 59.5t324.5 -59.5t257 -161.5t166.5 -241.5t61 -295.5t-61 -295.5t-166.5 -241.5t-257 -161.5t-324.5 -59.5t-324.5 59.5t-257 161.5t-166.5 241.5t-61 295.5zM543 717q0 -152 93.5 -250t233.5 -98t234 98t94 250
t-94 250t-234 98t-233.5 -98t-93.5 -250zM952 1608l144 317h338v-10l-267 -307h-215zM553 1608l143 317h328v-10l-256 -307h-215z" />
    <glyph glyph-name="ohungarumlaut" unicode="&#x151;" horiz-adv-x="1351" 
d="M51 532q0 242 173 403t452 161q139 0 257 -43.5t198 -119.5t124.5 -179.5t44.5 -221.5q0 -242 -172.5 -402.5t-451.5 -160.5q-185 0 -328.5 74.5t-220 202.5t-76.5 286zM492 532q0 -104 52.5 -164.5t131.5 -60.5t131.5 60.5t52.5 164.5t-52.5 165t-131.5 61t-131.5 -61
t-52.5 -165zM748 1270l143 317h338v-10l-266 -307h-215zM348 1270l144 317h327v-10l-256 -307h-215z" />
    <glyph glyph-name="OE" unicode="&#x152;" horiz-adv-x="2406" 
d="M61 717q0 157 57.5 299t152.5 242t222.5 158.5t264.5 58.5q86 0 163 -19t125.5 -46t84.5 -54.5t51 -46.5l16 -19v144h1116v-390h-655v-163h512v-328h-512v-164h655v-389h-1116v143q-5 -7 -16 -19.5t-50.5 -44.5t-86 -56t-124 -44t-163.5 -20q-137 0 -264.5 58.5
t-222.5 158.5t-152.5 242t-57.5 299zM543 717q0 -152 93.5 -250t233.5 -98t234 98t94 250t-94 250t-234 98t-233.5 -98t-93.5 -250z" />
    <glyph glyph-name="oe" unicode="&#x153;" horiz-adv-x="2099" 
d="M51 532q0 151 79.5 281t214 206.5t290.5 76.5q80 0 151 -17t114.5 -41t75 -48t44.5 -41l14 -17h21q5 7 16 18t48.5 39t81 50t115 39.5t148.5 17.5q156 0 290.5 -75t214 -205.5t79.5 -283.5v-61h-778q7 -91 55.5 -143t118.5 -52q34 0 62.5 9.5t44.5 23t27 27.5t15 24l4 9
h441q-2 -8 -7 -22.5t-25 -56t-46 -79.5t-73 -84t-102 -79t-137 -56t-175 -23q-77 0 -148 18t-118 43.5t-83 51t-52 43.5l-17 18h-21q-5 -7 -15 -19t-46 -42t-78 -52.5t-112.5 -41.5t-147.5 -19q-156 0 -290.5 76t-214 206t-79.5 281zM1270 645h327q-1 6 -3 15.5t-13.5 34
t-27.5 43.5t-47.5 34.5t-71.5 15.5t-71.5 -14.5t-48 -36t-27.5 -42.5t-14 -35zM492 532q0 -103 51 -164t123 -61t123 61t51 164t-51 164.5t-123 61.5t-123 -61.5t-51 -164.5z" />
    <glyph glyph-name="Racute" unicode="&#x154;" horiz-adv-x="1556" 
d="M123 0v1434h768q264 0 424 -148t160 -375q0 -63 -14 -120t-36.5 -98t-50 -76t-55 -57t-50 -38t-36.5 -23l-14 -7l276 -492h-471l-225 399h-215v-399h-461zM584 778h266q68 0 111 39t43 94t-43 94t-111 39h-266v-266zM604 1608l144 317h399v-10l-287 -307h-256z" />
    <glyph glyph-name="racute" unicode="&#x155;" horiz-adv-x="890" 
d="M92 0v1065h410v-154h20q2 7 7.5 19t26.5 42t47.5 52.5t73 41.5t101.5 19h92v-409h-184q-76 0 -120 -44t-44 -120v-512h-430zM328 1270l143 317h399v-10l-286 -307h-256z" />
    <glyph glyph-name="Rcommaaccent" unicode="&#x156;" horiz-adv-x="1556" 
d="M123 0v1434h768q264 0 424 -148t160 -375q0 -63 -14 -120t-36.5 -98t-50 -76t-55 -57t-50 -38t-36.5 -23l-14 -7l276 -492h-471l-225 399h-215v-399h-461zM584 778h266q68 0 111 39t43 94t-43 94t-111 39h-266v-266zM614 -330q0 70 54.5 122t130.5 52q89 0 141.5 -66.5
t52.5 -199.5q0 -132 -91 -219.5t-236 -87.5v123q67 0 105 32t38 80v21q-20 -10 -51 -10q-62 0 -103 42.5t-41 110.5z" />
    <glyph glyph-name="rcommaaccent" unicode="&#x157;" horiz-adv-x="890" 
d="M92 0v1065h410v-154h20q2 7 7.5 19t26.5 42t47.5 52.5t73 41.5t101.5 19h92v-409h-184q-76 0 -120 -44t-44 -120v-512h-430zM102 -330q0 70 54.5 122t130.5 52q89 0 141.5 -66.5t52.5 -199.5q0 -132 -91 -219.5t-236 -87.5v123q67 0 105 32t38 80v21q-20 -10 -51 -10
q-62 0 -103 42.5t-41 110.5z" />
    <glyph glyph-name="Rcaron" unicode="&#x158;" horiz-adv-x="1556" 
d="M123 0v1434h768q264 0 424 -148t160 -375q0 -63 -14 -120t-36.5 -98t-50 -76t-55 -57t-50 -38t-36.5 -23l-14 -7l276 -492h-471l-225 399h-215v-399h-461zM584 778h266q68 0 111 39t43 94t-43 94t-111 39h-266v-266zM389 1915v10h256l103 -133h30l103 133h256v-10
l-226 -307h-297z" />
    <glyph glyph-name="rcaron" unicode="&#x159;" horiz-adv-x="890" 
d="M92 0v1065h410v-154h20q2 7 7.5 19t26.5 42t47.5 52.5t73 41.5t101.5 19h92v-409h-184q-76 0 -120 -44t-44 -120v-512h-430zM102 1577v10h256l103 -133h31l102 133h256v-10l-225 -307h-297z" />
    <glyph glyph-name="Sacute" unicode="&#x15a;" horiz-adv-x="1454" 
d="M41 471h461q2 -6 6 -16.5t22 -37t42.5 -47t71.5 -37t104 -16.5q184 0 184 93q0 32 -29 57t-78.5 42t-113 32.5t-134 34t-141 41t-134 58t-113 81t-78.5 114.5t-29 154q0 86 42.5 166t120.5 144t201 102.5t271 38.5q119 0 219.5 -26t166 -67.5t117 -91.5t79 -100.5
t45.5 -92t23 -67.5l5 -26h-461q-1 5 -3 12.5t-14.5 26.5t-30.5 34t-54 27t-82 12q-86 0 -125 -23t-39 -59q0 -31 36.5 -54t96.5 -37.5t136 -33.5l156 -39t156 -56t136 -82.5t96.5 -121.5t36.5 -170q0 -97 -42.5 -183.5t-123 -153t-207 -105.5t-282.5 -39q-99 0 -186.5 17.5
t-152 47t-120 68t-93.5 81t-68 85t-47.5 81t-29.5 68t-16 47.5zM584 1608l143 317h399v-10l-286 -307h-256z" />
    <glyph glyph-name="sacute" unicode="&#x15b;" horiz-adv-x="1187" 
d="M41 358h410q0 -4 1.5 -10t11 -22t24.5 -28t45.5 -22t70.5 -10q58 0 80.5 13t22.5 38q0 24 -34.5 41.5t-89.5 30.5t-122 27.5t-133.5 41t-121.5 63t-89.5 100.5t-34.5 147q0 63 31.5 120.5t92 104.5t158.5 75t220 28q100 0 184.5 -20t138.5 -51.5t96.5 -70t64.5 -76.5
t36 -69.5t18 -51.5l4 -20h-399q0 3 -1.5 8t-9 17t-18.5 21.5t-33 17.5t-51 8q-92 0 -92 -41q0 -22 27 -37.5t71 -25t100 -22.5t114.5 -27t114.5 -41t100 -62.5t71 -93t27 -131.5q0 -71 -33.5 -134t-98.5 -114t-171 -81t-240 -30q-84 0 -156.5 13.5t-125 36t-96 51.5
t-72 61.5t-50.5 64.5t-33.5 61t-18.5 51.5t-9 35.5zM440 1270l144 317h399v-10l-287 -307h-256z" />
    <glyph glyph-name="Scedilla" unicode="&#x15e;" horiz-adv-x="1454" 
d="M41 471h461q2 -6 6 -16.5t22 -37t42.5 -47t71.5 -37t104 -16.5q184 0 184 93q0 32 -29 57t-78.5 42t-113 32.5t-134 34t-141 41t-134 58t-113 81t-78.5 114.5t-29 154q0 86 42.5 166t120.5 144t201 102.5t271 38.5q119 0 219.5 -26t166 -67.5t117 -91.5t79 -100.5
t45.5 -92t23 -67.5l5 -26h-461q-1 5 -3 12.5t-14.5 26.5t-30.5 34t-54 27t-82 12q-86 0 -125 -23t-39 -59q0 -31 36.5 -54t96.5 -37.5t136 -33.5l156 -39t156 -56t136 -82.5t96.5 -121.5t36.5 -170q0 -94 -40.5 -178t-116 -150t-194 -106.5t-265.5 -44.5l-19 -53
q8 -1 22 -3.5t49.5 -16.5t62.5 -35t49 -63t22 -97q0 -110 -81 -183t-216 -73q-59 0 -107.5 10.5t-67.5 20t-19 12.5v192q82 -41 184 -41q43 0 67.5 18.5t24.5 43.5q0 26 -22.5 43.5t-59.5 17.5h-123l76 213q-104 12 -193.5 46.5t-148.5 79.5t-107 97t-74.5 101.5t-44.5 90
t-24 64.5z" />
    <glyph glyph-name="scedilla" unicode="&#x15f;" horiz-adv-x="1187" 
d="M41 358h410q0 -4 1.5 -10t11 -22t24.5 -28t45.5 -22t70.5 -10q58 0 80.5 13t22.5 38q0 24 -34.5 41.5t-89.5 30.5t-122 27.5t-133.5 41t-121.5 63t-89.5 100.5t-34.5 147q0 63 31.5 120.5t92 104.5t158.5 75t220 28q100 0 184.5 -20t138.5 -51.5t96.5 -70t64.5 -76.5
t36 -69.5t18 -51.5l4 -20h-399q0 3 -1.5 8t-9 17t-18.5 21.5t-33 17.5t-51 8q-92 0 -92 -41q0 -22 27 -37.5t71 -25t100 -22.5t114.5 -27t114.5 -41t100 -62.5t71 -93t27 -131.5q0 -136 -118 -236.5t-339 -118.5l-24 -65q8 -1 22 -3.5t49 -16.5t62 -35t49 -63t22 -97
q0 -110 -81 -183t-216 -73q-59 0 -107.5 10.5t-67.5 20t-19 12.5v192q82 -41 184 -41q43 0 67.5 18.5t24.5 43.5q0 26 -22.5 43.5t-59.5 17.5h-122l77 219q-92 7 -168.5 32t-125.5 59.5t-86.5 74.5t-57 78.5t-31.5 70t-15 50.5z" />
    <glyph glyph-name="Scaron" unicode="&#x160;" horiz-adv-x="1454" 
d="M41 471h461q2 -6 6 -16.5t22 -37t42.5 -47t71.5 -37t104 -16.5q184 0 184 93q0 32 -29 57t-78.5 42t-113 32.5t-134 34t-141 41t-134 58t-113 81t-78.5 114.5t-29 154q0 86 42.5 166t120.5 144t201 102.5t271 38.5q119 0 219.5 -26t166 -67.5t117 -91.5t79 -100.5
t45.5 -92t23 -67.5l5 -26h-461q-1 5 -3 12.5t-14.5 26.5t-30.5 34t-54 27t-82 12q-86 0 -125 -23t-39 -59q0 -31 36.5 -54t96.5 -37.5t136 -33.5l156 -39t156 -56t136 -82.5t96.5 -121.5t36.5 -170q0 -97 -42.5 -183.5t-123 -153t-207 -105.5t-282.5 -39q-99 0 -186.5 17.5
t-152 47t-120 68t-93.5 81t-68 85t-47.5 81t-29.5 68t-16 47.5zM350 1915v10h256l103 -133h30l103 133h256v-10l-226 -307h-297z" />
    <glyph glyph-name="scaron" unicode="&#x161;" horiz-adv-x="1187" 
d="M41 358h410q0 -4 1.5 -10t11 -22t24.5 -28t45.5 -22t70.5 -10q58 0 80.5 13t22.5 38q0 24 -34.5 41.5t-89.5 30.5t-122 27.5t-133.5 41t-121.5 63t-89.5 100.5t-34.5 147q0 63 31.5 120.5t92 104.5t158.5 75t220 28q100 0 184.5 -20t138.5 -51.5t96.5 -70t64.5 -76.5
t36 -69.5t18 -51.5l4 -20h-399q0 3 -1.5 8t-9 17t-18.5 21.5t-33 17.5t-51 8q-92 0 -92 -41q0 -22 27 -37.5t71 -25t100 -22.5t114.5 -27t114.5 -41t100 -62.5t71 -93t27 -131.5q0 -71 -33.5 -134t-98.5 -114t-171 -81t-240 -30q-84 0 -156.5 13.5t-125 36t-96 51.5
t-72 61.5t-50.5 64.5t-33.5 61t-18.5 51.5t-9 35.5zM215 1577v10h256l102 -133h31l103 133h256v-10l-226 -307h-297z" />
    <glyph glyph-name="Tcommaaccent" unicode="&#x162;" 
d="M20 1024v410h1342v-410h-440v-1024h-461v1024h-441zM502 -328q0 70 54 122t130 52q89 0 142 -66.5t53 -199.5q0 -132 -91.5 -219.5t-236.5 -87.5v123q67 0 105 32t38 80v21q-20 -10 -51 -10q-62 0 -102.5 42.5t-40.5 110.5z" />
    <glyph glyph-name="tcommaaccent" unicode="&#x163;" horiz-adv-x="931" 
d="M31 768v307h133v225h430v-225h256v-307h-256v-461h276v-307h-706v768h-133zM328 -328q0 70 54 122t130 52q89 0 142 -66.5t53 -199.5q0 -132 -91.5 -219.5t-236.5 -87.5v123q67 0 105 32t38 80v21q-20 -10 -51 -10q-62 0 -102.5 42.5t-40.5 110.5z" />
    <glyph glyph-name="Tcaron" unicode="&#x164;" 
d="M20 1024v410h1342v-410h-440v-1024h-461v1024h-441zM319 1915v10h256l103 -133h31l102 133h256v-10l-225 -307h-297z" />
    <glyph glyph-name="tcaron" unicode="&#x165;" horiz-adv-x="983" 
d="M676 1147q0 70 54 122t130 52q89 0 142 -66.5t53 -199.5q0 -132 -91.5 -219.5t-236.5 -87.5v122q66 0 104.5 32.5t38.5 80.5v21q-20 -11 -51 -11q-62 0 -102.5 43t-40.5 111zM31 768v307h133v225h430v-993h276v-307h-706v768h-133z" />
    <glyph glyph-name="Umacron" unicode="&#x16a;" horiz-adv-x="1597" 
d="M113 584v850h460v-830q0 -106 62.5 -170.5t163.5 -64.5q100 0 162.5 65t62.5 170v830h461v-848q0 -285 -183 -456t-503 -171q-319 0 -502.5 170.5t-183.5 454.5zM451 1618v235h706v-235h-706z" />
    <glyph glyph-name="umacron" unicode="&#x16b;" horiz-adv-x="1341" 
d="M92 410v655h430v-584q0 -75 35 -114t98 -39q71 0 117.5 50.5t46.5 133.5v553h430v-1065h-430v143h-20q-4 -7 -12.5 -19t-37.5 -42t-63 -52.5t-89.5 -41.5t-115.5 -19q-180 0 -284.5 114.5t-104.5 326.5zM317 1280v236h707v-236h-707z" />
    <glyph glyph-name="Uring" unicode="&#x16e;" horiz-adv-x="1597" 
d="M113 584v850h460v-830q0 -106 62.5 -170.5t163.5 -64.5q100 0 162.5 65t62.5 170v830h461v-848q0 -285 -183 -456t-503 -171q-319 0 -502.5 170.5t-183.5 454.5zM543 1772q0 100 74.5 172.5t181.5 72.5t181.5 -72.5t74.5 -172.5q0 -101 -75 -173.5t-181 -72.5t-181 72.5
t-75 173.5zM717 1772q0 -35 23.5 -58.5t58.5 -23.5t58.5 23.5t23.5 58.5t-23.5 58t-58.5 23t-58.5 -23t-23.5 -58z" />
    <glyph glyph-name="uring" unicode="&#x16f;" horiz-adv-x="1341" 
d="M92 410v655h430v-584q0 -75 35 -114t98 -39q71 0 117.5 50.5t46.5 133.5v553h430v-1065h-430v143h-20q-4 -7 -12.5 -19t-37.5 -42t-63 -52.5t-89.5 -41.5t-115.5 -19q-180 0 -284.5 114.5t-104.5 326.5zM420 1434q0 100 74.5 172.5t181.5 72.5t181.5 -72.5t74.5 -172.5
q0 -101 -75 -173.5t-181 -72.5t-181 72.5t-75 173.5zM594 1434q0 -35 23.5 -58.5t58.5 -23.5t58.5 23.5t23.5 58.5t-23.5 58.5t-58.5 23.5t-58.5 -23.5t-23.5 -58.5z" />
    <glyph glyph-name="Uhungarumlaut" unicode="&#x170;" horiz-adv-x="1597" 
d="M113 584v850h460v-830q0 -106 62.5 -170.5t163.5 -64.5q100 0 162.5 65t62.5 170v830h461v-848q0 -285 -183 -456t-503 -171q-319 0 -502.5 170.5t-183.5 454.5zM870 1608l144 317h338v-10l-267 -307h-215zM471 1608l143 317h328v-10l-256 -307h-215z" />
    <glyph glyph-name="uhungarumlaut" unicode="&#x171;" horiz-adv-x="1341" 
d="M92 410v655h430v-584q0 -75 35 -114t98 -39q71 0 117.5 50.5t46.5 133.5v553h430v-1065h-430v143h-20q-4 -7 -12.5 -19t-37.5 -42t-63 -52.5t-89.5 -41.5t-115.5 -19q-180 0 -284.5 114.5t-104.5 326.5zM748 1270l143 317h338v-10l-266 -307h-215zM348 1270l144 317h327
v-10l-256 -307h-215z" />
    <glyph glyph-name="Uogonek" unicode="&#x172;" horiz-adv-x="1597" 
d="M113 584v850h460v-830q0 -106 62.5 -170.5t163.5 -64.5q100 0 162.5 65t62.5 170v830h461v-848q0 -220 -112 -375t-316 -215q-217 -172 -217 -283q0 -31 16.5 -46t54.5 -15q27 0 58 5t48 10l17 5v-174q-81 -41 -194 -41q-120 0 -183 55t-63 150q0 49 21.5 96t57 85
t70 65.5t72.5 50.5h-16q-319 0 -502.5 170.5t-183.5 454.5z" />
    <glyph glyph-name="uogonek" unicode="&#x173;" horiz-adv-x="1341" 
d="M92 410v655h430v-584q0 -75 35 -114t98 -39q71 0 117.5 50.5t46.5 133.5v553h430v-1065q-9 -7 -24 -18.5t-54 -46.5t-68.5 -68t-54 -76.5t-24.5 -77.5q0 -61 72 -61q27 0 58 5t48 10l17 5v-174q-82 -41 -195 -41q-120 0 -183 55t-63 150q0 56 30 111.5t69 92.5t87 70
t72 46t37 18h-254v143h-20q-4 -7 -12.5 -19t-37.5 -42t-63 -52.5t-89.5 -41.5t-115.5 -19q-180 0 -284.5 114.5t-104.5 326.5z" />
    <glyph glyph-name="Ydieresis" unicode="&#x178;" horiz-adv-x="1464" 
d="M-20 1434h471l266 -512h31l266 512h471l-522 -922v-512h-461v512zM768 1751q0 77 54 130.5t130 53.5q77 0 131 -54t54 -130t-54 -130t-131 -54q-76 0 -130 53.5t-54 130.5zM317 1751q0 76 54 130t131 54q76 0 130 -53.5t54 -130.5t-54 -130.5t-130 -53.5q-77 0 -131 54
t-54 130z" />
    <glyph glyph-name="Zacute" unicode="&#x179;" horiz-adv-x="1413" 
d="M72 0v389l665 635v20h-645v390h1229v-390l-666 -634v-21h686v-389h-1269zM553 1608l143 317h400v-10l-287 -307h-256z" />
    <glyph glyph-name="zacute" unicode="&#x17a;" horiz-adv-x="1157" 
d="M61 0v348l461 348v21h-440v348h993v-348l-461 -348v-21h482v-348h-1035zM440 1270l144 317h399v-10l-287 -307h-256z" />
    <glyph glyph-name="Zdotaccent" unicode="&#x17b;" horiz-adv-x="1413" 
d="M72 0v389l665 635v20h-645v390h1229v-390l-666 -634v-21h686v-389h-1269zM492 1751q0 94 59.5 149.5t165.5 55.5t165.5 -55.5t59.5 -149.5t-59.5 -149.5t-165.5 -55.5t-165.5 55.5t-59.5 149.5z" />
    <glyph glyph-name="zdotaccent" unicode="&#x17c;" horiz-adv-x="1157" 
d="M61 0v348l461 348v21h-440v348h993v-348l-461 -348v-21h482v-348h-1035zM369 1413q0 94 59.5 149.5t165.5 55.5t165.5 -55.5t59.5 -149.5t-59.5 -149.5t-165.5 -55.5t-165.5 55.5t-59.5 149.5z" />
    <glyph glyph-name="Zcaron" unicode="&#x17d;" horiz-adv-x="1413" 
d="M72 0v389l665 635v20h-645v390h1229v-390l-666 -634v-21h686v-389h-1269zM328 1915v10h256l102 -133h31l102 133h256v-10l-225 -307h-297z" />
    <glyph glyph-name="zcaron" unicode="&#x17e;" horiz-adv-x="1157" 
d="M61 0v348l461 348v21h-440v348h993v-348l-461 -348v-21h482v-348h-1035zM195 1577v10h256l102 -133h31l102 133h256v-10l-225 -307h-297z" />
    <glyph glyph-name="florin" unicode="&#x192;" horiz-adv-x="1044" 
d="M-72 -389v307h256l123 799h-112v307h153l62 410h655v-308h-277l-20 -102h215v-307h-256l-164 -1106h-635z" />
    <glyph glyph-name="uni01FA" unicode="&#x1fa;" horiz-adv-x="1525" 
d="M502 1772q0 79 48.5 143.5t125.5 89.5l51 115h317v-11l-131 -143q47 -34 74 -85.5t27 -108.5q0 -101 -75 -173.5t-181 -72.5t-181 72.5t-75 173.5zM676 1772q0 -35 23.5 -58.5t58.5 -23.5t58.5 23.5t23.5 58.5t-23.5 58t-58.5 23t-58.5 -23t-23.5 -58zM-10 0l399 1434
h748l399 -1434h-451l-71 276h-502l-72 -276h-450zM604 625h318l-103 409h-112z" />
    <glyph glyph-name="uni01FB" unicode="&#x1fb;" 
d="M440 1434q0 79 48.5 143.5t125.5 89.5l52 115h317v-10l-131 -144q46 -34 73 -85t27 -109q0 -101 -75 -173.5t-181 -72.5t-181 72.5t-75 173.5zM614 1434q0 -35 23.5 -58.5t58.5 -23.5t58.5 23.5t23.5 58.5t-23.5 58.5t-58.5 23.5t-58.5 -23.5t-23.5 -58.5zM61 532
q0 130 37.5 238.5t101 178.5t146.5 108.5t176 38.5q63 0 119 -18t90.5 -43.5t60.5 -51t37 -43.5l11 -18h20v143h430v-1065h-430v143h-20q-4 -7 -11.5 -19t-35.5 -42t-61.5 -52.5t-90 -41.5t-119.5 -19q-93 0 -176 38.5t-146.5 108.5t-101 178t-37.5 238zM502 532
q0 -97 52.5 -156t131.5 -59q72 0 123 59.5t51 155.5q0 97 -51 156.5t-123 59.5q-79 0 -131.5 -59.5t-52.5 -156.5z" />
    <glyph glyph-name="uni01FC" unicode="&#x1fc;" horiz-adv-x="2119" 
d="M-10 0l399 1434h1639v-390h-646v-163h502v-328h-502v-164h646v-389h-1106v276h-410l-72 -276h-450zM604 625h318v409h-215zM1034 1608l144 317h399v-10l-287 -307h-256z" />
    <glyph glyph-name="uni01FD" unicode="&#x1fd;" horiz-adv-x="2058" 
d="M51 307q0 144 109.5 236t306.5 92h332v47q0 52 -35 84.5t-98 32.5q-31 0 -56.5 -8.5t-39 -20.5t-23 -24t-12.5 -20l-3 -9h-430q1 8 4.5 21.5t19 53t37.5 75.5t64.5 79.5t95.5 75t134.5 53t177.5 21.5q54 0 104.5 -8.5t87.5 -22t69 -30t53 -33t36 -30t22 -22.5l7 -8h20
q5 6 14 16.5t43.5 37t75.5 47t110 37t146 16.5q121 0 229.5 -45.5t186 -122t123 -181t45.5 -219.5v-57h-778q7 -91 55.5 -143t118.5 -52q34 0 62.5 9.5t44.5 23t27 27.5t15 24l4 9h443q-2 -8 -7.5 -22.5t-26.5 -56t-48 -79.5t-75.5 -84t-106 -79t-142 -56t-180.5 -23
q-92 0 -172 22t-129 53.5t-84.5 63.5t-49.5 54l-15 22h-21q-3 -4 -8 -12t-24 -30.5t-41.5 -42.5t-61 -45t-81.5 -43t-103.5 -30t-126.5 -12q-210 0 -327.5 96.5t-117.5 241.5zM1229 635h327q-1 6 -3 16.5t-13.5 37t-27.5 46.5t-47.5 36.5t-71.5 16.5t-71.5 -16t-48 -38
t-27.5 -44.5t-14 -38.5zM492 369q0 -33 30.5 -57.5t81.5 -24.5q85 0 134.5 49.5t49.5 134.5h-188q-50 0 -79 -28t-29 -74zM901 1249l143 318h400v-11l-287 -307h-256z" />
    <glyph glyph-name="uni01FE" unicode="&#x1fe;" horiz-adv-x="1740" 
d="M31 -20v225l147 110q-117 185 -117 402q0 156 61 295.5t166.5 241.5t257 161.5t324.5 59.5q170 0 318.5 -57.5t257.5 -160.5l264 197v-225l-149 -111q118 -182 118 -401q0 -156 -61 -295.5t-166.5 -241.5t-257 -161.5t-324.5 -59.5q-171 0 -318 57t-257 160zM543 717
q0 -60 16 -119l522 389q-88 78 -211 78q-140 0 -233.5 -98t-93.5 -250zM657 446q90 -77 213 -77q140 0 234 98t94 250q0 64 -18 117zM756 1608l143 317h399v-10l-286 -307h-256z" />
    <glyph glyph-name="uni01FF" unicode="&#x1ff;" horiz-adv-x="1351" 
d="M41 -20v225l78 55q-68 121 -68 272q0 242 173 403t452 161q256 0 426 -138l209 148v-225l-88 -64q77 -124 77 -285q0 -242 -172.5 -402.5t-451.5 -160.5q-266 0 -440 150zM492 532v-8l282 203q-45 31 -98 31q-79 0 -131.5 -61t-52.5 -165zM561 348q47 -41 115 -41
q79 0 131.5 60.5t52.5 164.5q0 19 -2 27zM573 1249l144 318h399v-11l-287 -307h-256z" />
    <glyph glyph-name="Scommaaccent" unicode="&#x218;" horiz-adv-x="1454" 
d="M41 471h461q2 -6 6 -16.5t22 -37t42.5 -47t71.5 -37t104 -16.5q184 0 184 93q0 32 -29 57t-78.5 42t-113 32.5t-134 34t-141 41t-134 58t-113 81t-78.5 114.5t-29 154q0 86 42.5 166t120.5 144t201 102.5t271 38.5q119 0 219.5 -26t166 -67.5t117 -91.5t79 -100.5
t45.5 -92t23 -67.5l5 -26h-461q-1 5 -3 12.5t-14.5 26.5t-30.5 34t-54 27t-82 12q-86 0 -125 -23t-39 -59q0 -31 36.5 -54t96.5 -37.5t136 -33.5l156 -39t156 -56t136 -82.5t96.5 -121.5t36.5 -170q0 -97 -42.5 -183.5t-123 -153t-207 -105.5t-282.5 -39q-99 0 -186.5 17.5
t-152 47t-120 68t-93.5 81t-68 85t-47.5 81t-29.5 68t-16 47.5zM563 -328q0 70 54.5 122t130.5 52q89 0 141.5 -66.5t52.5 -199.5q0 -132 -91.5 -219.5t-236.5 -87.5v123q67 0 105.5 32t38.5 80v21q-20 -10 -51 -10q-62 0 -103 42.5t-41 110.5z" />
    <glyph glyph-name="scommaaccent" unicode="&#x219;" horiz-adv-x="1187" 
d="M41 358h410q0 -4 1.5 -10t11 -22t24.5 -28t45.5 -22t70.5 -10q58 0 80.5 13t22.5 38q0 24 -34.5 41.5t-89.5 30.5t-122 27.5t-133.5 41t-121.5 63t-89.5 100.5t-34.5 147q0 63 31.5 120.5t92 104.5t158.5 75t220 28q100 0 184.5 -20t138.5 -51.5t96.5 -70t64.5 -76.5
t36 -69.5t18 -51.5l4 -20h-399q0 3 -1.5 8t-9 17t-18.5 21.5t-33 17.5t-51 8q-92 0 -92 -41q0 -22 27 -37.5t71 -25t100 -22.5t114.5 -27t114.5 -41t100 -62.5t71 -93t27 -131.5q0 -71 -33.5 -134t-98.5 -114t-171 -81t-240 -30q-84 0 -156.5 13.5t-125 36t-96 51.5
t-72 61.5t-50.5 64.5t-33.5 61t-18.5 51.5t-9 35.5zM440 -330q0 70 54.5 122t130.5 52q89 0 141.5 -66.5t52.5 -199.5q0 -132 -91 -219.5t-236 -87.5v123q67 0 105 32t38 80v21q-20 -10 -51 -10q-62 0 -103 42.5t-41 110.5z" />
    <glyph glyph-name="uni021A" unicode="&#x21a;" 
d="M20 1024v410h1342v-410h-440v-1024h-461v1024h-441zM502 -328q0 70 54 122t130 52q89 0 142 -66.5t53 -199.5q0 -132 -91.5 -219.5t-236.5 -87.5v123q67 0 105 32t38 80v21q-20 -10 -51 -10q-62 0 -102.5 42.5t-40.5 110.5z" />
    <glyph glyph-name="uni021B" unicode="&#x21b;" horiz-adv-x="931" 
d="M31 768v307h133v225h430v-225h256v-307h-256v-461h276v-307h-706v768h-133zM328 -328q0 70 54 122t130 52q89 0 142 -66.5t53 -199.5q0 -132 -91.5 -219.5t-236.5 -87.5v123q67 0 105 32t38 80v21q-20 -10 -51 -10q-62 0 -102.5 42.5t-40.5 110.5z" />
    <glyph glyph-name="afii57929" unicode="&#x2bc;" horiz-adv-x="501" 
d="M61 1290q0 70 54.5 122t130.5 52q89 0 141.5 -66.5t52.5 -199.5q0 -132 -91 -219.5t-236 -87.5v123q67 0 105 32t38 80v21q-20 -10 -51 -10q-62 0 -103 42.5t-41 110.5z" />
    <glyph glyph-name="circumflex" unicode="&#x2c6;" horiz-adv-x="870" 
d="M61 1116v10l226 308h297l225 -308v-10h-256l-102 133h-31l-103 -133h-256z" />
    <glyph glyph-name="caron" unicode="&#x2c7;" horiz-adv-x="870" 
d="M61 1423v11h256l103 -134h31l102 134h256v-11l-225 -307h-297z" />
    <glyph glyph-name="breve" unicode="&#x2d8;" horiz-adv-x="798" 
d="M61 1434h226q16 -82 112 -82q97 0 113 82h225q0 -133 -90 -215t-248 -82t-248 82t-90 215z" />
    <glyph glyph-name="dotaccent" unicode="&#x2d9;" horiz-adv-x="573" 
d="M61 1280q0 93 60 149t166 56t165.5 -55.5t59.5 -149.5t-59.5 -149.5t-165.5 -55.5t-166 56t-60 149z" />
    <glyph glyph-name="ring" unicode="&#x2da;" horiz-adv-x="634" 
d="M61 1208q0 101 75 173.5t181 72.5t181 -72.5t75 -173.5q0 -100 -74.5 -172.5t-181.5 -72.5t-181.5 72.5t-74.5 172.5zM236 1208q0 -35 23 -58.5t58 -23.5t58.5 23.5t23.5 58.5t-23.5 58.5t-58.5 23.5t-58 -23.5t-23 -58.5z" />
    <glyph glyph-name="ogonek" unicode="&#x2db;" horiz-adv-x="593" 
d="M61 -338q0 57 30.5 113t74 95t87.5 69.5t75 45.5l30 15h174q-9 -7 -24 -18.5t-54 -46.5t-68.5 -68t-54 -76.5t-24.5 -77.5q0 -61 72 -61q27 0 58 5t48 10l17 5v-174q-82 -41 -195 -41q-120 0 -183 55t-63 150z" />
    <glyph glyph-name="tilde" unicode="&#x2dc;" horiz-adv-x="849" 
d="M61 1137v123q0 85 55 139.5t140 54.5q51 0 102 -18t93 -36t71 -18q23 0 32 9t9 32v21h225v-123q0 -85 -54.5 -140t-139.5 -55q-51 0 -102 18t-93 36t-71 18q-23 0 -32 -9t-9 -32v-20h-226z" />
    <glyph glyph-name="hungarumlaut" unicode="&#x2dd;" horiz-adv-x="1003" 
d="M461 1116l143 318h338v-11l-266 -307h-215zM61 1116l144 318h327v-11l-256 -307h-215z" />
    <glyph glyph-name="uni0301" unicode="&#x301;" horiz-adv-x="0" 
d="M-891 1690l113 256h317v-11l-225 -245h-205z" />
    <glyph glyph-name="uni030A" unicode="&#x30a;" horiz-adv-x="0" 
d="M-942 1556q0 101 75 173.5t181 72.5t181 -72.5t75 -173.5q0 -100 -74.5 -172.5t-181.5 -72.5t-181.5 72.5t-74.5 172.5zM-768 1556q0 -35 23.5 -58t58.5 -23t58.5 23t23.5 58t-23.5 58.5t-58.5 23.5t-58.5 -23.5t-23.5 -58.5z" />
    <glyph glyph-name="afii10023" unicode="&#x401;" horiz-adv-x="1361" 
d="M123 0v1434h1147v-390h-686v-163h542v-328h-542v-164h686v-389h-1147zM754 1708q0 76 54 130t130 54t130 -54t54 -130t-54 -130t-130 -54t-130 54t-54 130zM303 1708q0 76 53.5 130t130.5 54t131 -54t54 -130t-54 -130t-131 -54t-130.5 54t-53.5 130z" />
    <glyph glyph-name="afii10051" unicode="&#x402;" horiz-adv-x="1792" 
d="M20 1044v390h1280v-390h-409v-143h266q282 0 428 -140t146 -403v-583h-676v389h215v184q0 76 -44 120t-120 44h-215v-512h-461v1044h-410z" />
    <glyph glyph-name="afii10052" unicode="&#x403;" horiz-adv-x="1259" 
d="M123 0v1434h1116v-410h-655v-1024h-461zM543 1577l143 317h399v-10l-286 -307h-256z" />
    <glyph glyph-name="afii10053" unicode="&#x404;" horiz-adv-x="1710" 
d="M61 717q0 156 61 295.5t166.5 241.5t257 161.5t324.5 59.5q104 0 196 -20t161 -54t128.5 -77.5t100.5 -92t74 -97t52.5 -92t32.5 -77.5t18 -54l5 -20h-460q-3 7 -8.5 19.5t-29.5 44.5t-55 56t-88.5 44t-126.5 20q-54 0 -101 -12.5t-78.5 -32.5t-57 -44t-40 -47.5
t-24 -43.5t-13.5 -33l-3 -12h420v-266h-420q1 -5 3.5 -13t13 -31.5t24.5 -45t40 -47.5t57 -44.5t78 -31.5t101 -13q73 0 133 23.5t93 56.5t55 66t29 56l8 24h461q-3 -13 -9 -35.5t-32 -87.5t-60.5 -124t-98 -131t-140 -124t-191.5 -87.5t-248 -35.5q-173 0 -324.5 59.5
t-257 161.5t-166.5 241.5t-61 295.5z" />
    <glyph glyph-name="afii10054" unicode="&#x405;" horiz-adv-x="1454" 
d="M41 471h461q2 -6 6 -16.5t22 -37t42.5 -47t71.5 -37t104 -16.5q184 0 184 93q0 32 -29 57t-78.5 42t-113 32.5t-134 34t-141 41t-134 58t-113 81t-78.5 114.5t-29 154q0 86 42.5 166t120.5 144t201 102.5t271 38.5q119 0 219.5 -26t166 -67.5t117 -91.5t79 -100.5
t45.5 -92t23 -67.5l5 -26h-461q-1 5 -3 12.5t-14.5 26.5t-30.5 34t-54 27t-82 12q-86 0 -125 -23t-39 -59q0 -31 36.5 -54t96.5 -37.5t136 -33.5l156 -39t156 -56t136 -82.5t96.5 -121.5t36.5 -170q0 -97 -42.5 -183.5t-123 -153t-207 -105.5t-282.5 -39q-99 0 -186.5 17.5
t-152 47t-120 68t-93.5 81t-68 85t-47.5 81t-29.5 68t-16 47.5z" />
    <glyph glyph-name="afii10055" unicode="&#x406;" horiz-adv-x="706" 
d="M123 0v1434h461v-1434h-461z" />
    <glyph glyph-name="afii10056" unicode="&#x407;" horiz-adv-x="706" 
d="M123 0v1434h461v-1434h-461zM399 1708q0 76 54 130t131 54q76 0 130 -54t54 -130t-54 -130t-130 -54q-77 0 -131 54t-54 130zM-51 1708q0 76 53.5 130t130.5 54t130.5 -54t53.5 -130t-53.5 -130t-130.5 -54t-130.5 54t-53.5 130z" />
    <glyph glyph-name="afii10057" unicode="&#x408;" horiz-adv-x="1310" 
d="M-10 369l409 92l5.5 -11t17 -25t30.5 -31.5t47 -24.5t64 -11q84 0 129 43.5t45 120.5v912h461v-902q0 -264 -169.5 -423.5t-465.5 -159.5q-98 0 -182.5 23t-141.5 60t-103 82t-72.5 90t-44 82t-23.5 60z" />
    <glyph glyph-name="afii10058" unicode="&#x409;" horiz-adv-x="2232" 
d="M-10 0l389 1434h962v-410h236q143 0 259.5 -39.5t193.5 -109t119 -162.5t42 -201t-42 -201t-119 -162.5t-193.5 -109t-259.5 -39.5h-696v1024h-174l-252 -1024h-465zM1341 379h236q68 0 105.5 35.5t37.5 97.5t-37.5 97.5t-105.5 35.5h-236v-266z" />
    <glyph glyph-name="afii10059" unicode="&#x40a;" horiz-adv-x="2385" 
d="M123 0v1434h463v-451h448v451h461v-451h256q276 0 435 -138.5t159 -352.5t-159 -353t-435 -139h-717v573h-448v-573h-463zM1495 379h256q53 0 88 33t35 80t-35 79.5t-88 32.5h-256v-225z" />
    <glyph glyph-name="afii10060" unicode="&#x40b;" horiz-adv-x="1792" 
d="M20 1044v390h1280v-390h-409v-143h266q282 0 428 -140t146 -403v-358h-461v348q0 76 -44 120t-120 44h-215v-512h-461v1044h-410z" />
    <glyph glyph-name="afii10061" unicode="&#x40c;" horiz-adv-x="1546" 
d="M123 0v1434h461v-492h123l307 492h512l-420 -666l461 -768h-512l-328 522h-143v-522h-461zM625 1577l143 317h399v-10l-286 -307h-256z" />
    <glyph glyph-name="afii10062" unicode="&#x40e;" horiz-adv-x="1464" 
d="M-20 1434h481l225 -594h113l215 594h471l-543 -1434h-471l174 440h-276zM358 1894h267q0 -40 30 -66t82 -26t82.5 26t30.5 66h266q0 -156 -98.5 -247t-280.5 -91t-280.5 91t-98.5 247z" />
    <glyph glyph-name="afii10145" unicode="&#x40f;" horiz-adv-x="1638" 
d="M123 0v1434h461v-1024h471v1024h461v-1434h-482v-246h-430v246h-481z" />
    <glyph glyph-name="afii10017" unicode="&#x410;" horiz-adv-x="1525" 
d="M-10 0l399 1434h748l399 -1434h-451l-71 276h-502l-72 -276h-450zM604 625h318l-103 409h-112z" />
    <glyph glyph-name="afii10018" unicode="&#x411;" horiz-adv-x="1536" 
d="M123 0v1434h1229v-349h-768v-143h338q262 0 407.5 -129.5t145.5 -341.5q0 -214 -145 -342.5t-408 -128.5h-799zM584 358h286q60 0 97 33t37 80t-37 80t-97 33h-286v-226z" />
    <glyph glyph-name="afii10019" unicode="&#x412;" horiz-adv-x="1536" 
d="M123 0v1434h809q115 0 208 -28.5t152 -77t90 -111t31 -132.5q0 -48 -13 -90.5t-33.5 -72t-45.5 -53.5t-50.5 -38.5t-46 -24.5t-33.5 -14l-13 -4v-22q6 -1 16.5 -3.5t40 -13.5t56.5 -25.5t60 -42.5t56.5 -62.5t40 -86t16.5 -112.5q0 -185 -143 -302.5t-410 -117.5h-788z
M584 891h225q60 0 91.5 27.5t31.5 74.5t-31.5 75t-91.5 28h-225v-205zM584 338h256q74 0 113.5 33.5t39.5 89.5t-39.5 89.5t-113.5 33.5h-256v-246z" />
    <glyph glyph-name="afii10020" unicode="&#x413;" horiz-adv-x="1259" 
d="M123 0v1434h1116v-410h-655v-1024h-461z" />
    <glyph glyph-name="afii10021" unicode="&#x414;" horiz-adv-x="1658" 
d="M10 -246v635h154l276 1045h779l276 -1045h154v-635h-430v246h-779v-246h-430zM604 389h451l-164 655h-123z" />
    <glyph glyph-name="afii10022" unicode="&#x415;" horiz-adv-x="1361" 
d="M123 0v1434h1147v-390h-686v-163h542v-328h-542v-164h686v-389h-1147z" />
    <glyph glyph-name="afii10024" unicode="&#x416;" horiz-adv-x="2263" 
d="M-20 0l440 768l-400 666h512l287 -502h82v502h461v-502h82l287 502h512l-400 -666l441 -768h-512l-308 532h-102v-532h-461v532h-102l-307 -532h-512z" />
    <glyph glyph-name="afii10025" unicode="&#x417;" horiz-adv-x="1484" 
d="M41 492h461q2 -6 6 -16.5t22 -37t42.5 -47t71.5 -37t104 -16.5q94 0 144 36.5t50 86.5q0 123 -205 123h-194v307h194q80 0 122 30t42 72t-42.5 73.5t-121.5 31.5q-46 0 -83 -12t-56.5 -29t-33 -33.5t-17.5 -28.5l-4 -12h-461q2 10 6 28t24.5 69t49 97.5t83.5 103
t123 97.5t172.5 69t227.5 28q122 0 224.5 -22t173.5 -59.5t120.5 -88.5t72.5 -108.5t23 -119.5q0 -50 -13 -93.5t-33.5 -73t-46 -53.5t-50.5 -38.5t-45.5 -24t-33.5 -12.5l-13 -4v-20q6 -1 16 -3.5t38.5 -13t54.5 -25t58 -42t55 -61t38.5 -84t15.5 -109.5q0 -94 -41.5 -176
t-122 -146.5t-212 -101.5t-299.5 -37q-105 0 -196.5 18t-157 49t-120.5 71t-90.5 84.5t-63 88.5t-42 84t-23.5 71t-11 49z" />
    <glyph glyph-name="afii10026" unicode="&#x418;" horiz-adv-x="1658" 
d="M123 0v1434h461v-564l-31 -194h20l451 758h512v-1434h-461v563l31 195h-21l-450 -758h-512z" />
    <glyph glyph-name="afii10027" unicode="&#x419;" horiz-adv-x="1658" 
d="M123 0v1434h461v-564l-31 -194h20l451 758h512v-1434h-461v563l31 195h-21l-450 -758h-512zM451 1892h266q0 -40 30 -66t82 -26t82.5 26t30.5 66h266q0 -156 -98.5 -247t-280.5 -91q-181 0 -279.5 90.5t-98.5 247.5z" />
    <glyph glyph-name="afii10028" unicode="&#x41a;" horiz-adv-x="1546" 
d="M123 0v1434h461v-492h123l307 492h512l-420 -666l461 -768h-512l-328 522h-143v-522h-461z" />
    <glyph glyph-name="afii10029" unicode="&#x41b;" horiz-adv-x="1495" 
d="M-10 0l379 1434h757l379 -1434h-450l-256 1024h-103l-256 -1024h-450z" />
    <glyph glyph-name="afii10030" unicode="&#x41c;" horiz-adv-x="2017" 
d="M123 0v1434h625l235 -697h51l236 697h624v-1434h-460v717l30 184h-20l-205 -573h-461l-205 573h-20l31 -184v-717h-461z" />
    <glyph glyph-name="afii10031" unicode="&#x41d;" horiz-adv-x="1628" 
d="M123 0v1434h461v-512h460v512h461v-1434h-461v512h-460v-512h-461z" />
    <glyph glyph-name="afii10032" unicode="&#x41e;" horiz-adv-x="1740" 
d="M61 717q0 156 61 295.5t166.5 241.5t257 161.5t324.5 59.5t324.5 -59.5t257 -161.5t166.5 -241.5t61 -295.5t-61 -295.5t-166.5 -241.5t-257 -161.5t-324.5 -59.5t-324.5 59.5t-257 161.5t-166.5 241.5t-61 295.5zM543 717q0 -152 93.5 -250t233.5 -98t234 98t94 250
t-94 250t-234 98t-233.5 -98t-93.5 -250z" />
    <glyph glyph-name="afii10033" unicode="&#x41f;" horiz-adv-x="1628" 
d="M123 0v1434h1382v-1434h-461v1024h-460v-1024h-461z" />
    <glyph glyph-name="afii10034" unicode="&#x420;" horiz-adv-x="1525" 
d="M123 0v1434h747q180 0 319 -72t212.5 -195t73.5 -276t-73.5 -276t-212.5 -195t-319 -72h-286v-348h-461zM584 737h245q83 0 129 42t46 112t-46 111.5t-129 41.5h-245v-307z" />
    <glyph glyph-name="afii10035" unicode="&#x421;" horiz-adv-x="1710" 
d="M61 717q0 156 61 295.5t166.5 241.5t257 161.5t324.5 59.5q104 0 196 -20t161 -54t128.5 -77.5t100.5 -92t74 -97t52.5 -92t32.5 -77.5t18 -54l5 -20h-471q-2 7 -8 19t-29 42t-53 52.5t-85.5 41.5t-121.5 19q-148 0 -237.5 -94t-89.5 -254t89.5 -254t237.5 -94
q52 0 97.5 12t76 31t55 41.5t39 45.5t24 42t12.5 31l4 12h471q-3 -13 -9 -35.5t-33 -87.5t-61.5 -124t-98.5 -131t-140.5 -124t-190.5 -87.5t-246 -35.5q-173 0 -324.5 59.5t-257 161.5t-166.5 241.5t-61 295.5z" />
    <glyph glyph-name="afii10036" unicode="&#x422;" 
d="M20 1024v410h1342v-410h-440v-1024h-461v1024h-441z" />
    <glyph glyph-name="afii10037" unicode="&#x423;" horiz-adv-x="1464" 
d="M-20 1434h481l225 -594h113l215 594h471l-543 -1434h-471l174 440h-276z" />
    <glyph glyph-name="afii10038" unicode="&#x424;" horiz-adv-x="2017" 
d="M51 727q0 130 52.5 246.5t145.5 204t230 142.5t299 62v144h461v-144q162 -7 299 -62t230 -142.5t145.5 -204t52.5 -246.5t-52.5 -246.5t-145.5 -204t-230 -142.5t-299 -62v-144h-461v144q-162 7 -299 62t-230 142.5t-145.5 204t-52.5 246.5zM1229 430q110 8 183 89
t73 208t-73 208t-183 89v-594zM532 727q0 -127 73 -208t183 -89v594q-110 -8 -183 -89t-73 -208z" />
    <glyph glyph-name="afii10039" unicode="&#x425;" horiz-adv-x="1505" 
d="M0 0l358 717l-317 717h481l185 -512h92l184 512h481l-317 -717l358 -717h-491l-215 512h-92l-215 -512h-492z" />
    <glyph glyph-name="afii10040" unicode="&#x426;" horiz-adv-x="1658" 
d="M123 0v1434h461v-1024h399v1024h461v-1024h174v-656h-430v246h-1065z" />
    <glyph glyph-name="afii10041" unicode="&#x427;" horiz-adv-x="1587" 
d="M102 942v492h461v-451q0 -184 195 -184q46 0 88 8.5t69.5 20.5t48.5 24t30 20l10 9v553h460v-1434h-460v492q-5 -4 -14 -11t-41 -25t-69 -31.5t-98 -24.5t-127 -11q-253 0 -403 149.5t-150 403.5z" />
    <glyph glyph-name="afii10042" unicode="&#x428;" horiz-adv-x="2181" 
d="M123 0v1434h461v-1024h276v1024h461v-1024h276v1024h461v-1434h-1935z" />
    <glyph glyph-name="afii10043" unicode="&#x429;" horiz-adv-x="2273" 
d="M123 0v1434h461v-1024h276v1024h461v-1024h276v1024h461v-1024h174v-656h-430v246h-1679z" />
    <glyph glyph-name="afii10044" unicode="&#x42a;" horiz-adv-x="1638" 
d="M10 1024v410h738v-410h235q143 0 259.5 -39.5t193.5 -109t119 -162.5t42 -201t-42 -201t-119 -162.5t-193.5 -109t-259.5 -39.5h-696v1024h-277zM748 379h235q68 0 105.5 35.5t37.5 97.5t-37.5 97.5t-105.5 35.5h-235v-266z" />
    <glyph glyph-name="afii10045" unicode="&#x42b;" horiz-adv-x="2078" 
d="M1495 0v1434h461v-1434h-461zM123 0v1434h461v-410h215q143 0 259.5 -39.5t193.5 -109t119 -162.5t42 -201t-42 -201t-119 -162.5t-193.5 -109t-259.5 -39.5h-676zM584 379h215q68 0 105.5 35.5t37.5 97.5t-37.5 97.5t-105.5 35.5h-215v-266z" />
    <glyph glyph-name="afii10046" unicode="&#x42c;" horiz-adv-x="1495" 
d="M123 0v1434h461v-410h256q143 0 259.5 -39.5t193.5 -109t119 -162.5t42 -201t-42 -201t-119 -162.5t-193.5 -109t-259.5 -39.5h-717zM584 379h256q68 0 105.5 35.5t37.5 97.5t-37.5 97.5t-105.5 35.5h-256v-266z" />
    <glyph glyph-name="afii10047" unicode="&#x42d;" horiz-adv-x="1699" 
d="M51 584h461q2 -9 7.5 -24.5t29 -54.5t55.5 -68.5t92 -54t133 -24.5q74 0 134.5 23.5t93 56.5t54.5 66t29 56l7 24h-420v266h420q-1 5 -3.5 13t-13 31.5t-24.5 44.5t-40 47t-57.5 44.5t-78.5 31.5t-101 13q-69 0 -126 -19t-89 -46t-54 -54t-30 -46l-8 -19h-461
q3 12 8.5 33t31 82t59.5 116t96.5 122.5t138 116t189 81.5t245.5 33q173 0 324.5 -59.5t257 -161.5t166.5 -241.5t61 -295.5t-61 -295.5t-166.5 -241.5t-257 -161.5t-324.5 -59.5q-104 0 -197.5 21.5t-163.5 57.5t-130 83t-101.5 99t-75 103.5t-53.5 98.5t-33.5 83t-18.5 57
z" />
    <glyph glyph-name="afii10048" unicode="&#x42e;" horiz-adv-x="2344" 
d="M123 0v1434h461v-533h153q3 12 9 32.5t32 80.5t60 114t96.5 120t136.5 114t185 80.5t239 32.5q166 0 313 -59.5t251 -161.5t164.5 -242t60.5 -295t-60.5 -295t-164 -241.5t-249.5 -161.5t-309 -60q-100 0 -189.5 19t-157.5 51t-127 73.5t-100.5 87.5t-75 91.5t-54.5 87
t-35 73.5t-20 51l-5 19h-153v-512h-461zM1188 717q0 -166 83 -257t224 -91t224 91t83 257t-83 257t-224 91t-224 -91t-83 -257z" />
    <glyph glyph-name="afii10049" unicode="&#x42f;" horiz-adv-x="1566" 
d="M92 911q0 227 160 375t424 148h768v-1434h-461v399h-215l-215 -399h-481l276 492q-5 2 -14.5 7t-36 22.5t-50.5 38.5t-53.5 57t-51 76.5t-36 97.5t-14.5 120zM563 911q0 -55 43 -94t111 -39h266v266h-266q-68 0 -111 -39t-43 -94z" />
    <glyph glyph-name="afii10065" unicode="&#x430;" 
d="M61 532q0 130 37.5 238.5t101 178.5t146.5 108.5t176 38.5q63 0 119 -18t90.5 -43.5t60.5 -51t37 -43.5l11 -18h20v143h430v-1065h-430v143h-20q-4 -7 -11.5 -19t-35.5 -42t-61.5 -52.5t-90 -41.5t-119.5 -19q-93 0 -176 38.5t-146.5 108.5t-101 178t-37.5 238zM502 532
q0 -97 52.5 -156t131.5 -59q72 0 123 59.5t51 155.5q0 97 -51 156.5t-123 59.5q-79 0 -131.5 -59.5t-52.5 -156.5z" />
    <glyph glyph-name="afii10066" unicode="&#x431;" horiz-adv-x="1331" 
d="M72 635q0 202 53.5 357t150 250.5t223 143.5t279.5 48h398v-349h-336q-343 0 -359 -266h21q3 5 9 14t30.5 32t55.5 40.5t85 32t117 14.5q214 0 347.5 -131.5t133.5 -339.5q0 -221 -162 -366.5t-432 -145.5q-134 0 -247 47t-194.5 132t-127 210.5t-45.5 276.5zM512 492
q0 -83 47 -134t117 -51t117 51t47 134q0 77 -47.5 130.5t-116.5 53.5q-71 0 -117.5 -50.5t-46.5 -133.5z" />
    <glyph glyph-name="afii10067" unicode="&#x432;" horiz-adv-x="1259" 
d="M92 0v1065h670q208 0 306.5 -70t98.5 -186q0 -52 -20 -94t-48.5 -65t-57 -39t-48.5 -21l-20 -6v-21q10 -1 25.5 -4.5t56 -21t71.5 -43t56.5 -75t25.5 -112.5q0 -140 -111 -223.5t-349 -83.5h-656zM522 655h119q53 0 78.5 19t25.5 63q0 39 -22.5 60.5t-63.5 21.5h-137
v-164zM522 246h164q45 0 73.5 26.5t28.5 65.5t-30 65.5t-82 26.5h-154v-184z" />
    <glyph glyph-name="afii10068" unicode="&#x433;" horiz-adv-x="1024" 
d="M92 0v1065h912v-358h-484v-707h-428z" />
    <glyph glyph-name="afii10069" unicode="&#x434;" horiz-adv-x="1351" 
d="M10 -205v553h133l174 717h717l174 -717h133v-553h-399v205h-532v-205h-400zM553 348h246l-103 359h-41z" />
    <glyph glyph-name="afii10070" unicode="&#x435;" horiz-adv-x="1320" 
d="M51 539q0 155 75.5 281.5t214.5 201t314 74.5q131 0 246.5 -45t195.5 -120.5t126.5 -177.5t46.5 -214v-68h-778q7 -91 55.5 -143t118.5 -52q34 0 62.5 9.5t44.5 23t27 27.5t15 24l4 9h441q-2 -8 -7 -22.5t-25.5 -56t-47.5 -79.5t-76.5 -84t-109 -79t-148.5 -56t-191 -23
q-128 0 -241 45.5t-192 122t-125 181.5t-46 221zM492 645h327q-1 6 -3 15.5t-13.5 34t-28 43.5t-48 34.5t-71.5 15.5t-71.5 -14.5t-48 -36t-27 -42.5t-13.5 -35z" />
    <glyph glyph-name="afii10072" unicode="&#x436;" horiz-adv-x="1822" 
d="M-10 0l284 563l-254 502h441l174 -348h61v348h430v-348h62l174 348h440l-254 -502l285 -563h-440l-185 358h-82v-358h-430v358h-82l-184 -358h-440z" />
    <glyph glyph-name="afii10073" unicode="&#x437;" horiz-adv-x="1208" 
d="M41 358h430q1 -4 3 -10t11.5 -22t23 -28t39.5 -22t58 -10q121 0 121 82q0 40 -28.5 61t-94.5 21h-137v236h127q51 0 76.5 17.5t25.5 43.5q0 32 -24 52t-68 20q-26 0 -47 -7.5t-32.5 -18t-19.5 -21t-11 -18.5l-2 -7h-431q1 8 5 21t21 51.5t40.5 73.5t68.5 77.5t101 73
t141.5 51.5t186.5 21q125 0 224 -26t158 -69t89 -95t30 -107t-19 -98t-46 -66t-54 -38t-46 -19l-19 -5v-20q4 -1 12 -2.5t30.5 -9t42.5 -18t45 -30.5t43 -45t30 -63.5t12 -83.5q0 -62 -31 -119t-93.5 -106t-170.5 -78t-248 -29q-82 0 -154 13.5t-124.5 36t-97 51.5t-74 61.5
t-53 64.5t-36 61t-21 51.5t-10.5 35.5z" />
    <glyph glyph-name="afii10074" unicode="&#x438;" horiz-adv-x="1351" 
d="M92 0v1065h430v-358l-30 -154h20l317 512h431v-1065h-431v358l31 154h-20l-318 -512h-430z" />
    <glyph glyph-name="afii10075" unicode="&#x439;" horiz-adv-x="1351" 
d="M92 0v1065h430v-358l-30 -154h20l317 512h431v-1065h-431v358l31 154h-20l-318 -512h-430zM338 1485h225q16 -82 113 -82q96 0 112 82h226q0 -133 -90 -215t-248 -82t-248 82t-90 215z" />
    <glyph glyph-name="afii10076" unicode="&#x43a;" horiz-adv-x="1259" 
d="M92 0v1065h430v-348h82l195 348h440l-274 -502l305 -563h-441l-204 358h-103v-358h-430z" />
    <glyph glyph-name="afii10077" unicode="&#x43b;" horiz-adv-x="1249" 
d="M0 0l256 1065h737l256 -1065h-430l-164 717h-61l-164 -717h-430z" />
    <glyph glyph-name="afii10078" unicode="&#x43c;" horiz-adv-x="1669" 
d="M92 0v1065h553l174 -471h31l174 471h553v-1065h-430v471l31 143h-21l-164 -399h-317l-164 399h-20l30 -143v-471h-430z" />
    <glyph glyph-name="afii10079" unicode="&#x43d;" horiz-adv-x="1331" 
d="M92 0v1065h430v-348h287v348h430v-1065h-430v358h-287v-358h-430z" />
    <glyph glyph-name="afii10080" unicode="&#x43e;" horiz-adv-x="1351" 
d="M51 532q0 242 173 403t452 161q139 0 257 -43.5t198 -119.5t124.5 -179.5t44.5 -221.5q0 -242 -172.5 -402.5t-451.5 -160.5q-185 0 -328.5 74.5t-220 202.5t-76.5 286zM492 532q0 -104 52.5 -164.5t131.5 -60.5t131.5 60.5t52.5 164.5t-52.5 165t-131.5 61t-131.5 -61
t-52.5 -165z" />
    <glyph glyph-name="afii10081" unicode="&#x43f;" horiz-adv-x="1320" 
d="M92 0v1065h1137v-1065h-430v707h-277v-707h-430z" />
    <glyph glyph-name="afii10082" unicode="&#x440;" 
d="M92 -389v1454h430v-143h21q4 7 11.5 19t35.5 42t61 52.5t89.5 41.5t119.5 19q93 0 176 -38.5t146.5 -108.5t101 -178.5t37.5 -238.5t-37.5 -238t-101 -178t-146.5 -108.5t-176 -38.5q-63 0 -119 18t-90.5 43.5t-60 51t-36.5 43.5l-11 18h-21v-532h-430zM522 532
q0 -96 51 -155.5t123 -59.5q79 0 132 59t53 156t-53 156.5t-132 59.5q-72 0 -123 -59.5t-51 -156.5z" />
    <glyph glyph-name="afii10083" unicode="&#x441;" horiz-adv-x="1310" 
d="M51 532q0 152 77.5 281t217 206t309.5 77q87 0 163.5 -16t132 -42.5t102.5 -61t78 -73t55.5 -76.5t37.5 -72.5t22 -61t12 -42.5l2 -16h-441q-1 5 -4 13.5t-15.5 29.5t-29 37t-47.5 29.5t-68 13.5q-72 0 -117.5 -58t-45.5 -168q0 -111 45 -168t118 -57q37 0 67.5 12.5
t48 30.5t29 36.5t15.5 31.5l4 12h441q-1 -10 -4.5 -26.5t-20.5 -64.5t-41.5 -91.5t-72.5 -96.5t-108 -91.5t-153.5 -64.5t-204.5 -26q-128 0 -241 45t-192 121t-125 179.5t-46 217.5z" />
    <glyph glyph-name="afii10084" unicode="&#x442;" horiz-adv-x="1167" 
d="M20 707v358h1127v-358h-348v-707h-430v707h-349z" />
    <glyph glyph-name="afii10085" unicode="&#x443;" horiz-adv-x="1269" 
d="M20 1065h431l163 -696h41l174 696h441l-400 -1454h-430l113 389h-264z" />
    <glyph glyph-name="afii10086" unicode="&#x444;" horiz-adv-x="1658" 
d="M51 532q0 238 151 389.5t412 174.5v358h430v-358q261 -23 412.5 -174.5t151.5 -389.5t-151.5 -389t-412.5 -174v-358h-430v358q-261 23 -412 174t-151 389zM1034 276q68 17 111 79t43 177t-43 177t-111 79v-512zM471 532q0 -115 43 -177t111 -79v512q-68 -17 -111 -79
t-43 -177z" />
    <glyph glyph-name="afii10087" unicode="&#x445;" horiz-adv-x="1259" 
d="M0 0l276 563l-256 502h453l131 -338h51l131 338h453l-256 -502l277 -563h-461l-144 348h-51l-143 -348h-461z" />
    <glyph glyph-name="afii10088" unicode="&#x446;" horiz-adv-x="1351" 
d="M92 0v1065h430v-707h246v707h430v-707h133v-563h-409v205h-830z" />
    <glyph glyph-name="afii10089" unicode="&#x447;" horiz-adv-x="1259" 
d="M72 666v399h430v-348q0 -62 25.5 -87.5t86.5 -25.5q32 0 63 8t45 16l15 7v430h430v-1065h-430v297q-11 -6 -32.5 -14.5t-88.5 -22.5t-135 -14q-185 0 -297 114.5t-112 305.5z" />
    <glyph glyph-name="afii10090" unicode="&#x448;" horiz-adv-x="1822" 
d="M92 0v1065h430v-707h174v707h430v-707h174v707h431v-1065h-1639z" />
    <glyph glyph-name="afii10091" unicode="&#x449;" horiz-adv-x="1884" 
d="M92 0v1065h430v-707h174v707h430v-707h174v707h431v-707h133v-563h-410v205h-1362z" />
    <glyph glyph-name="afii10092" unicode="&#x44a;" horiz-adv-x="1310" 
d="M10 717v348h635v-307h174q218 0 334.5 -103t116.5 -276q0 -174 -117.5 -276.5t-337.5 -102.5h-600v717h-205zM635 276h92q53 0 83 28.5t30 76.5q0 45 -30 72.5t-83 27.5h-92v-205z" />
    <glyph glyph-name="afii10093" unicode="&#x44b;" horiz-adv-x="1730" 
d="M1208 0v1065h430v-1065h-430zM92 0v1065h430v-307h164q218 0 334.5 -103t116.5 -276q0 -174 -117.5 -276.5t-337.5 -102.5h-590zM512 276h82q53 0 83 28.5t30 76.5q0 45 -30 72.5t-83 27.5h-82v-205z" />
    <glyph glyph-name="afii10094" unicode="&#x44c;" horiz-adv-x="1208" 
d="M92 0v1065h430v-307h195q217 0 333.5 -103t116.5 -276q0 -174 -117 -276.5t-337 -102.5h-621zM512 276h113q53 0 82.5 28.5t29.5 76.5q0 45 -29.5 72.5t-82.5 27.5h-113v-205z" />
    <glyph glyph-name="afii10095" unicode="&#x44d;" horiz-adv-x="1310" 
d="M51 430h430q1 -6 4 -15.5t16 -34t30.5 -43.5t50.5 -34.5t73 -15.5q43 0 76 16t49 38.5t25.5 44.5t11.5 38l2 16h-246v195h246q-1 6 -3 15.5t-13.5 34t-28 43.5t-48 34.5t-71.5 15.5t-72.5 -13.5t-50.5 -33t-30.5 -39.5t-16.5 -34l-4 -13h-430q1 9 4.5 25.5t20.5 63.5
t41.5 89.5t72 94.5t108 89.5t153.5 63t204 25.5q170 0 309.5 -76.5t217.5 -206t78 -281.5t-78 -281t-218 -205.5t-311 -76.5q-87 0 -163 16t-131.5 42.5t-102 61t-77.5 73t-55 76.5t-37.5 72.5t-22 61t-10.5 42.5z" />
    <glyph glyph-name="afii10096" unicode="&#x44e;" horiz-adv-x="1792" 
d="M92 2v1063h387v-379h84q2 9 7 23.5t25 57t45.5 81.5t73 86t103.5 81t140 57.5t180 23.5q170 0 309.5 -77t217 -206t77.5 -281q0 -114 -46 -217.5t-125 -179.5t-192 -121t-241 -45q-92 0 -173.5 22t-138 57.5t-103.5 78t-75.5 85t-48 78t-27.5 57.5l-8 22h-84v-367h-387z
M973 532q0 -110 45.5 -167.5t118.5 -57.5t118 57t45 168t-45 168.5t-118 57.5t-118.5 -57.5t-45.5 -168.5z" />
    <glyph glyph-name="afii10097" unicode="&#x44f;" horiz-adv-x="1239" 
d="M20 0l236 389q-7 3 -19.5 10t-44.5 34t-56 60t-44 90.5t-20 123.5q0 158 120 258t330 100h625v-1065h-430v317h-92l-164 -317h-441zM512 686q0 -46 28 -74t74 -28h113v204h-113q-46 0 -74 -28t-28 -74z" />
    <glyph glyph-name="afii10071" unicode="&#x451;" horiz-adv-x="1320" 
d="M51 539q0 155 75.5 281.5t214.5 201t314 74.5q131 0 246.5 -45t195.5 -120.5t126.5 -177.5t46.5 -214v-68h-778q7 -91 55.5 -143t118.5 -52q34 0 62.5 9.5t44.5 23t27 27.5t15 24l4 9h441q-2 -8 -7 -22.5t-25.5 -56t-47.5 -79.5t-76.5 -84t-109 -79t-148.5 -56t-191 -23
q-128 0 -241 45.5t-192 122t-125 181.5t-46 221zM492 645h327q-1 6 -3 15.5t-13.5 34t-28 43.5t-48 34.5t-71.5 15.5t-71.5 -14.5t-48 -36t-27 -42.5t-13.5 -35zM705 1362q0 76 53.5 130t130.5 54t130.5 -54t53.5 -130t-53.5 -130t-130.5 -54t-130.5 54t-53.5 130zM254 1362
q0 76 54 130t130 54q77 0 131 -54t54 -130t-54 -130t-131 -54q-76 0 -130 54t-54 130z" />
    <glyph glyph-name="afii10099" unicode="&#x452;" horiz-adv-x="1372" 
d="M10 983v307h133v144h430v-144h256v-307h-256v-276h21q4 7 12 19t37.5 42t63 52.5t89 41.5t115.5 19q180 0 284.5 -114.5t104.5 -326.5v-829h-624v307h194v451q0 75 -35 114t-98 39q-71 0 -117.5 -50.5t-46.5 -133.5v-338h-430v983h-133z" />
    <glyph glyph-name="afii10100" unicode="&#x453;" horiz-adv-x="1024" 
d="M92 0v1065h912v-358h-484v-707h-428zM410 1208l143 318h399v-10l-286 -308h-256z" />
    <glyph glyph-name="afii10101" unicode="&#x454;" horiz-adv-x="1310" 
d="M51 532q0 152 77.5 281t217 206t309.5 77q111 0 204 -25t153.5 -64.5t108 -88t72.5 -96.5t41.5 -87.5t21.5 -64.5l4 -25h-431q-1 5 -4 14t-16 32t-30.5 40.5t-50.5 32t-73 14.5t-71.5 -14.5t-48 -36t-27 -42.5t-13.5 -35l-3 -15h245v-195h-245q0 -3 1 -8.5t4.5 -21.5
t10 -30.5t19 -32t29 -30.5t42.5 -21.5t57 -8.5q40 0 72.5 14.5t50.5 35.5t30.5 42.5t16.5 36.5l4 14h431q-1 -10 -4.5 -26.5t-20.5 -64.5t-41.5 -91.5t-72.5 -96.5t-108 -91.5t-153 -64.5t-203 -26q-128 0 -241.5 45t-193 121t-125.5 179.5t-46 217.5z" />
    <glyph glyph-name="afii10102" unicode="&#x455;" horiz-adv-x="1187" 
d="M41 358h410q0 -4 1.5 -10t11 -22t24.5 -28t45.5 -22t70.5 -10q58 0 80.5 13t22.5 38q0 24 -34.5 41.5t-89.5 30.5t-122 27.5t-133.5 41t-121.5 63t-89.5 100.5t-34.5 147q0 63 31.5 120.5t92 104.5t158.5 75t220 28q100 0 184.5 -20t138.5 -51.5t96.5 -70t64.5 -76.5
t36 -69.5t18 -51.5l4 -20h-399q0 3 -1.5 8t-9 17t-18.5 21.5t-33 17.5t-51 8q-92 0 -92 -41q0 -22 27 -37.5t71 -25t100 -22.5t114.5 -27t114.5 -41t100 -62.5t71 -93t27 -131.5q0 -71 -33.5 -134t-98.5 -114t-171 -81t-240 -30q-84 0 -156.5 13.5t-125 36t-96 51.5
t-72 61.5t-50.5 64.5t-33.5 61t-18.5 51.5t-9 35.5z" />
    <glyph glyph-name="afii10103" unicode="&#x456;" horiz-adv-x="634" 
d="M92 1372q0 94 59.5 149.5t165.5 55.5t166 -56t60 -149t-60 -149t-166 -56t-165.5 55.5t-59.5 149.5zM102 0v1065h430v-1065h-430z" />
    <glyph glyph-name="afii10104" unicode="&#x457;" horiz-adv-x="634" 
d="M102 0v1065h430v-1065h-430zM358 1372q0 76 54 130t131 54t130.5 -54t53.5 -130t-53.5 -130t-130.5 -54t-131 54t-54 130zM-92 1372q0 76 54 130t130 54t130 -54t54 -130t-54 -130t-130 -54t-130 54t-54 130z" />
    <glyph glyph-name="afii10105" unicode="&#x458;" horiz-adv-x="645" 
d="M102 1372q0 93 60 149t166 56t165.5 -55.5t59.5 -149.5t-59.5 -149.5t-165.5 -55.5t-166 56t-60 149zM-143 -389v307h256v1147h430v-1454h-686z" />
    <glyph glyph-name="afii10106" unicode="&#x459;" horiz-adv-x="1771" 
d="M0 0l266 1065h850v-307h164q218 0 334.5 -103t116.5 -276q0 -174 -117.5 -276.5t-337.5 -102.5h-590v707h-82l-174 -707h-430zM1106 276h82q53 0 82.5 28.5t29.5 76.5q0 45 -29.5 72.5t-82.5 27.5h-82v-205z" />
    <glyph glyph-name="afii10107" unicode="&#x45a;" horiz-adv-x="1884" 
d="M92 0v1065h430v-307h277v307h430v-307h153q216 0 338.5 -105t122.5 -274q0 -167 -122.5 -273t-338.5 -106h-583v399h-277v-399h-430zM1219 276h71q60 0 91.5 28t31.5 75t-31.5 74.5t-91.5 27.5h-71v-205z" />
    <glyph glyph-name="afii10108" unicode="&#x45b;" 
d="M10 983v307h133v144h430v-144h256v-307h-256v-276h21q4 7 12 19t37.5 42t63 52.5t89 41.5t115.5 19q180 0 284.5 -114.5t104.5 -326.5v-440h-430v369q0 75 -35 114t-98 39q-71 0 -117.5 -50.5t-46.5 -133.5v-338h-430v983h-133z" />
    <glyph glyph-name="afii10109" unicode="&#x45c;" horiz-adv-x="1259" 
d="M92 0v1065h430v-348h82l195 348h440l-274 -502l305 -563h-441l-204 358h-103v-358h-430zM496 1208l143 318h399v-10l-286 -308h-256z" />
    <glyph glyph-name="afii10110" unicode="&#x45e;" horiz-adv-x="1269" 
d="M20 1065h431l163 -696h41l174 696h441l-400 -1454h-430l113 389h-264zM311 1485h226q16 -82 112 -82q97 0 113 82h225q0 -133 -90 -215t-248 -82t-248 82t-90 215z" />
    <glyph glyph-name="afii10193" unicode="&#x45f;" horiz-adv-x="1331" 
d="M92 0v1065h430v-709h287v709h430v-1065h-369v-205h-409v205h-369z" />
    <glyph glyph-name="afii10050" unicode="&#x490;" horiz-adv-x="1259" 
d="M123 0v1434h655v204h461v-614h-655v-1024h-461z" />
    <glyph glyph-name="afii10098" unicode="&#x491;" horiz-adv-x="1024" 
d="M92 0v1065h481v164h431v-522h-482v-707h-430z" />
    <glyph glyph-name="uni1E9E" unicode="&#x1e9e;" horiz-adv-x="1617" 
d="M113 0v942q0 240 169.5 366t483.5 126h657v-359l-235 -184v-21q8 -1 21.5 -3.5t53 -15.5t75.5 -31t79.5 -52t75 -76.5t53 -108.5t21.5 -143q0 -191 -153 -315.5t-423 -124.5h-233v369h194q67 0 105.5 32t38.5 80t-38.5 80.5t-105.5 32.5h-184v293l205 168h-256
q-68 0 -106 -35.5t-38 -97.5v-922h-460z" />
    <glyph glyph-name="endash" unicode="&#x2013;" horiz-adv-x="1597" 
d="M92 399v308h1413v-308h-1413z" />
    <glyph glyph-name="emdash" unicode="&#x2014;" horiz-adv-x="1976" 
d="M92 399v308h1792v-308h-1792z" />
    <glyph glyph-name="quoteleft" unicode="&#x2018;" horiz-adv-x="522" 
d="M51 1096q0 198 101.5 303.5t287.5 105.5v-143q-89 0 -136.5 -39.5t-47.5 -103.5v-21q10 10 51 10q64 0 114 -56t50 -138q0 -85 -60 -145t-145 -60q-97 0 -156 73t-59 214z" />
    <glyph glyph-name="quoteright" unicode="&#x2019;" horiz-adv-x="522" 
d="M51 1300q0 85 60 145t145 60q97 0 156 -72.5t59 -213.5q0 -198 -101.5 -304t-287.5 -106v143q89 0 136.5 40t47.5 104v20q-10 -10 -51 -10q-64 0 -114 56t-50 138z" />
    <glyph glyph-name="quotesinglbase" unicode="&#x201a;" horiz-adv-x="522" 
d="M51 184q0 85 60 145t145 60q97 0 156 -73t59 -214q0 -198 -101.5 -303.5t-287.5 -105.5v143q89 0 136.5 40t47.5 104v20q-10 -10 -51 -10q-64 0 -114 56t-50 138z" />
    <glyph glyph-name="quotedblleft" unicode="&#x201c;" horiz-adv-x="1024" 
d="M51 1096q0 198 101.5 303.5t287.5 105.5v-143q-89 0 -136.5 -39.5t-47.5 -103.5v-21q10 10 51 10q64 0 114 -56t50 -138q0 -85 -60 -145t-145 -60q-97 0 -156 73t-59 214zM553 1096q0 198 101.5 303.5t287.5 105.5v-143q-89 0 -136.5 -39.5t-47.5 -103.5v-21q10 10 51 10
q64 0 114 -56t50 -138q0 -85 -60 -145t-145 -60q-97 0 -156 73t-59 214z" />
    <glyph glyph-name="quotedblright" unicode="&#x201d;" horiz-adv-x="1024" 
d="M51 1300q0 85 60 145t145 60q97 0 156 -72.5t59 -213.5q0 -198 -101.5 -304t-287.5 -106v143q89 0 136.5 40t47.5 104v20q-10 -10 -51 -10q-64 0 -114 56t-50 138zM553 1300q0 85 60 145t145 60q97 0 156 -72.5t59 -213.5q0 -198 -101.5 -304t-287.5 -106v143
q89 0 136.5 40t47.5 104v20q-10 -10 -51 -10q-64 0 -114 56t-50 138z" />
    <glyph glyph-name="quotedblbase" unicode="&#x201e;" horiz-adv-x="1024" 
d="M51 184q0 85 60 145t145 60q97 0 156 -73t59 -214q0 -198 -101.5 -303.5t-287.5 -105.5v143q89 0 136.5 40t47.5 104v20q-10 -10 -51 -10q-64 0 -114 56t-50 138zM553 184q0 85 60 145t145 60q97 0 156 -73t59 -214q0 -198 -101.5 -303.5t-287.5 -105.5v143
q89 0 136.5 40t47.5 104v20q-10 -10 -51 -10q-64 0 -114 56t-50 138z" />
    <glyph glyph-name="dagger" unicode="&#x2020;" horiz-adv-x="983" 
d="M61 737v348h236v349h389v-349h236v-348h-236v-737h-389v737h-236z" />
    <glyph glyph-name="daggerdbl" unicode="&#x2021;" horiz-adv-x="983" 
d="M61 236v348h236v266h-236v348h236v236h389v-236h236v-348h-236v-266h236v-348h-236v-236h-389v236h-236z" />
    <glyph glyph-name="bullet" unicode="&#x2022;" horiz-adv-x="1024" 
d="M246 604q0 116 75 191t191 75t191 -75t75 -191t-75 -191t-191 -75t-191 75t-75 191z" />
    <glyph glyph-name="ellipsis" unicode="&#x2026;" horiz-adv-x="1781" 
d="M51 174q0 85 62 145t153 60t153 -60t62 -145t-62 -145t-153 -60t-153 60t-62 145zM676 174q0 85 62 145t153 60t153 -60t62 -145t-62 -145t-153 -60t-153 60t-62 145zM1300 174q0 85 62 145t154 60q91 0 153 -60t62 -145t-62 -145t-153 -60q-92 0 -154 60t-62 145z" />
    <glyph glyph-name="perthousand" unicode="&#x2030;" horiz-adv-x="2549" 
d="M61 1106q0 148 104.5 248t264.5 100t264.5 -100t104.5 -248t-104.5 -248t-264.5 -100t-264.5 100t-104.5 248zM297 0l860 1434h307l-860 -1434h-307zM328 1106q0 -46 28 -74t74 -28t74 28t28 74t-28 74t-74 28t-74 -28t-28 -74zM1751 328q0 148 104.5 248t264.5 100
t264 -100t104 -248t-104 -248t-264 -100t-264.5 100t-104.5 248zM942 328q0 148 104.5 248t264.5 100t264 -100t104 -248t-104 -248t-264 -100t-264.5 100t-104.5 248zM2017 328q0 -46 28.5 -74.5t74.5 -28.5t74 28.5t28 74.5t-28 74t-74 28t-74.5 -28t-28.5 -74zM1208 328
q0 -46 28.5 -74.5t74.5 -28.5t74 28.5t28 74.5t-28 74t-74 28t-74.5 -28t-28.5 -74z" />
    <glyph glyph-name="guilsinglleft" unicode="&#x2039;" horiz-adv-x="860" 
d="M41 543l522 542l236 -235l-307 -307l307 -307l-236 -236z" />
    <glyph glyph-name="guilsinglright" unicode="&#x203a;" horiz-adv-x="860" 
d="M61 236l308 307l-308 307l236 235l522 -542l-522 -543z" />
    <glyph glyph-name="fraction" unicode="&#x2044;" horiz-adv-x="337" 
d="M-410 0l861 1434h297l-861 -1434h-297z" />
    <glyph glyph-name="zerosuperior" unicode="&#x2070;" horiz-adv-x="798" 
d="M41 1290q0 161 102 265t256 104t256.5 -104.5t102.5 -264.5t-102 -264t-257 -104q-154 0 -256 103.5t-102 264.5zM317 1290q0 -71 24 -107t58 -36t58 36t24 107q0 72 -24 108t-58 36t-58 -36t-24 -108z" />
    <glyph glyph-name="foursuperior" unicode="&#x2074;" horiz-adv-x="716" 
d="M0 1055v194l246 389h266l-236 -368h103l61 112h185v-112h71v-215h-71v-113h-256v113h-369z" />
    <glyph glyph-name="fivesuperior" unicode="&#x2075;" horiz-adv-x="737" 
d="M51 1180h256q0 -2 1.5 -5t6.5 -10t12 -13t21 -10.5t31 -4.5q25 0 43 16t18 45q0 23 -19 37t-46 14q-12 0 -24 -2.5t-17 -4.5l-6 -3l-226 10l31 389h522v-194h-297l-12 -82h2q51 20 133 20q106 0 171 -60.5t65 -154.5q0 -105 -86 -175t-238 -70q-66 0 -120 14t-88.5 37
t-61 50.5t-39.5 55t-21 50.5t-10 37z" />
    <glyph glyph-name="sixsuperior" unicode="&#x2076;" horiz-adv-x="716" 
d="M31 1178q0 79 31.5 143t91.5 133l163 184h287l-184 -204l-82 -41v-11q43 21 113 21q107 0 171 -62.5t64 -162.5q0 -105 -90 -180.5t-238 -75.5t-237.5 75.5t-89.5 180.5zM287 1182q0 -27 20.5 -46.5t50.5 -19.5t51 19.5t21 46.5q0 28 -19 47.5t-49 19.5q-33 0 -54 -19.5
t-21 -47.5z" />
    <glyph glyph-name="sevensuperior" unicode="&#x2077;" horiz-adv-x="634" 
d="M20 1423v215h615v-215l-256 -481h-277l256 461v20h-338z" />
    <glyph glyph-name="eightsuperior" unicode="&#x2078;" horiz-adv-x="798" 
d="M41 1126q0 38 17 69.5t41 50t48 31.5t41 18l17 5v11q-5 2 -14 5t-32 16t-40.5 29t-32 43.5t-14.5 59.5q0 84 80.5 139.5t246.5 55.5t247 -55.5t81 -139.5q0 -32 -13.5 -59t-33.5 -43.5t-39.5 -28.5t-32.5 -17l-14 -5v-11q7 -2 18 -5t39 -17t50 -32t39.5 -50t17.5 -70
q0 -92 -85.5 -148t-273.5 -56t-273 56t-85 148zM328 1423q0 -23 20 -37t51 -14t51.5 14t20.5 37t-20.5 37.5t-51.5 14.5t-51 -14.5t-20 -37.5zM317 1163q0 -27 21.5 -42t60.5 -15t60.5 15t21.5 42q0 26 -22 41t-60 15t-60 -15t-22 -41z" />
    <glyph glyph-name="ninesuperior" unicode="&#x2079;" horiz-adv-x="716" 
d="M31 1403q0 105 89.5 180.5t237.5 75.5t238 -75.5t90 -180.5q0 -79 -31.5 -143.5t-91.5 -133.5l-164 -184h-286l184 205l82 41v10q-43 -20 -113 -20q-107 0 -171 62.5t-64 162.5zM287 1399q0 -29 18.5 -48.5t48.5 -19.5q33 0 54.5 20t21.5 48q0 27 -21 46t-51 19
t-50.5 -19t-20.5 -46z" />
    <glyph glyph-name="zeroinferior" unicode="&#x2080;" horiz-adv-x="798" 
d="M41 143q0 161 102 265t256 104t256.5 -104.5t102.5 -264.5t-102 -264t-257 -104q-154 0 -256 103.5t-102 264.5zM317 143q0 -71 24 -107t58 -36t58 36t24 107t-24 107.5t-58 36.5t-58 -36.5t-24 -107.5z" />
    <glyph glyph-name="oneinferior" unicode="&#x2081;" horiz-adv-x="747" 
d="M72 -205v215h184v246l-164 -82v225l184 93h256v-482h154v-215h-614z" />
    <glyph glyph-name="twoinferior" unicode="&#x2082;" horiz-adv-x="768" 
d="M41 -205v205l184 92q121 60 163 90t42 54q0 51 -61 51q-27 0 -45 -12.5t-22 -25.5l-5 -13h-266q1 6 3.5 16t14 38.5t26.5 54.5t44 58t64.5 55t89 38.5t116.5 15.5q147 0 232.5 -69t85.5 -167q0 -49 -23.5 -93t-56.5 -72.5t-66 -50t-57 -30.5l-23 -10l-30 -10l-31 -8v-12
l102 20h185v-215h-666z" />
    <glyph glyph-name="threeinferior" unicode="&#x2083;" horiz-adv-x="727" 
d="M31 20h266q0 -2 1.5 -4.5t6.5 -9.5t12 -12t21 -9.5t31 -4.5q61 0 61 53q0 26 -21 42.5t-53 16.5h-141v113l174 102v10l-82 -20h-235v195h583v-185l-153 -92l-23 -10v-10h2q103 0 159 -52.5t56 -132.5q0 -99 -82.5 -167t-236.5 -68q-64 0 -118 13.5t-88.5 35t-61.5 47.5
t-41 52.5t-23 48t-11 34.5z" />
    <glyph glyph-name="fourinferior" unicode="&#x2084;" horiz-adv-x="716" 
d="M0 -92v194l246 390h266l-236 -369h103l61 113h185v-113h71v-215h-71v-113h-256v113h-369z" />
    <glyph glyph-name="fiveinferior" unicode="&#x2085;" horiz-adv-x="737" 
d="M51 33h256q0 -2 1.5 -5t6.5 -10t12 -13t21 -10.5t31 -4.5q25 0 43 16t18 45q0 23 -19 37t-46 14q-12 0 -23.5 -2.5t-17.5 -5.5l-6 -2l-226 10l31 390h522v-195h-297l-12 -82h2q51 21 133 21q106 0 171 -61t65 -155q0 -105 -86 -175t-238 -70q-66 0 -120 14t-88.5 37
t-61 50.5t-39.5 55t-21 50.5t-10 37z" />
    <glyph glyph-name="sixinferior" unicode="&#x2086;" horiz-adv-x="716" 
d="M31 31q0 79 31.5 143t91.5 133l163 185h287l-184 -205l-82 -41v-10q43 20 113 20q107 0 171 -62.5t64 -162.5q0 -105 -90 -180.5t-238 -75.5t-237.5 75.5t-89.5 180.5zM287 35q0 -27 20.5 -46.5t50.5 -19.5t51 19.5t21 46.5q0 28 -19 47.5t-49 19.5q-33 0 -54 -19.5
t-21 -47.5z" />
    <glyph glyph-name="seveninferior" unicode="&#x2087;" horiz-adv-x="634" 
d="M20 276v216h615v-216l-256 -481h-277l256 461v20h-338z" />
    <glyph glyph-name="eightinferior" unicode="&#x2088;" horiz-adv-x="798" 
d="M41 -20q0 38 17 69.5t41 50t48 31.5t41 18l17 5v10q-5 2 -14 5t-32 16t-40.5 29t-32 43.5t-14.5 59.5q0 84 80.5 139.5t246.5 55.5t247 -55.5t81 -139.5q0 -32 -13.5 -59t-33.5 -43.5t-39.5 -28.5t-32.5 -17l-14 -5v-10q7 -2 18 -5t39 -17t50 -32t39.5 -50t17.5 -70
q0 -92 -85.5 -148.5t-273.5 -56.5t-273 56t-85 149zM328 276q0 -23 20 -37t51 -14t51.5 14t20.5 37t-20.5 37.5t-51.5 14.5t-51 -14.5t-20 -37.5zM317 16q0 -27 21.5 -42t60.5 -15t60.5 15t21.5 42q0 26 -22 41t-60 15t-60 -15t-22 -41z" />
    <glyph glyph-name="nineinferior" unicode="&#x2089;" horiz-adv-x="716" 
d="M31 256q0 105 89.5 180.5t237.5 75.5t238 -75.5t90 -180.5q0 -79 -31.5 -143t-91.5 -133l-164 -185h-286l184 205l82 41v10q-43 -20 -113 -20q-107 0 -171 62.5t-64 162.5zM287 252q0 -29 18.5 -48.5t48.5 -19.5q33 0 54.5 20t21.5 48q0 27 -21 46t-51 19t-50.5 -19
t-20.5 -46z" />
    <glyph glyph-name="Euro" unicode="&#x20ac;" horiz-adv-x="1802" 
d="M20 471v184h134q-4 40 -4 62q0 21 4 61h-134v185h175q28 79 74.5 151.5t115 139t152.5 115t194 77.5t232 29q103 0 195.5 -19.5t161 -53t128 -76.5t100.5 -90.5t74 -95t53 -90.5t33 -76.5t18 -53.5l5 -19h-461q-2 7 -8 19t-29.5 42t-55 52.5t-88.5 41.5t-126 19
q-52 0 -98 -11.5t-75.5 -28t-52 -33t-31.5 -28.5l-10 -11h277v-185h-348q-4 -40 -4 -61q0 -22 4 -62h348v-184h-277q3 -5 10 -12.5t31 -27t52.5 -34.5t75 -27t98.5 -12q54 0 101 12t78.5 31t57 42t40 45.5t24 41.5t12.5 31l4 12h461q-3 -13 -8.5 -35t-31 -86t-59.5 -122
t-97 -128.5t-139 -121.5t-190.5 -86t-246.5 -35q-124 0 -235 29t-195.5 77.5t-153.5 115t-115.5 139t-74.5 151.5h-175z" />
    <glyph glyph-name="uni20B4" unicode="&#x20b4;" horiz-adv-x="1454" 
d="M82 758v184h758q30 31 30 92q0 49 -41.5 81t-121.5 32q-46 0 -82 -12.5t-54.5 -30.5t-30.5 -36.5t-15 -31.5l-3 -12h-440q1 9 4.5 25.5t21.5 63.5t44.5 89.5t78 94.5t116.5 89.5t167 63t223 25.5q128 0 232.5 -19.5t174.5 -52t118 -76.5t69 -91t21 -97
q0 -51 -20.5 -100.5t-41.5 -72.5l-20 -24h102v-184h-1290zM82 492v184h1290v-184h-758q-30 -32 -30 -93q0 -49 41.5 -80.5t122.5 -31.5q46 0 82 12.5t54 30.5t30 36.5t15 31.5l3 12h440q-1 -9 -4.5 -25.5t-21.5 -63.5t-44.5 -89.5t-78 -94.5t-116.5 -89.5t-167 -63
t-223 -25.5q-128 0 -232.5 19.5t-174.5 52t-118 76.5t-69 91t-21 97q0 51 20.5 100.5t41.5 72.5l20 24h-102z" />
    <glyph glyph-name="uni20BD" unicode="&#x20bd;" horiz-adv-x="1546" 
d="M51 164v256h144v123h-144v266h144v625h716q276 0 420 -122.5t144 -328.5q0 -199 -144.5 -319.5t-419.5 -120.5h-256v-123h410v-256h-410v-164h-460v164h-144zM655 809h185q76 0 120 42t44 112t-44 111.5t-120 41.5h-185v-307z" />
    <glyph glyph-name="afii61352" unicode="&#x2116;" horiz-adv-x="2396" 
d="M1638 1106q0 147 103 247.5t256 100.5t255.5 -100.5t102.5 -247.5t-102.5 -247.5t-255.5 -100.5t-256 100.5t-103 247.5zM123 0v1434h532l349 -646l61 -112h20l-30 194v564h461v-1434h-533l-348 645l-62 113h-20l31 -195v-563h-461zM1905 1106q0 -38 27 -65t65 -27t65 27
t27 65t-27 65t-65 27t-65 -27t-27 -65zM1669 379v276h655v-276h-655z" />
    <glyph glyph-name="trademark" unicode="&#x2122;" horiz-adv-x="1812" 
d="M788 778v656h375l97 -246h20l96 246h375v-656h-307v205l31 154h-21l-92 -215h-184l-93 215h-20l31 -154v-205h-308zM20 1167v267h697v-267h-197v-389h-305v389h-195z" />
    <glyph glyph-name="arrowleft" unicode="&#x2190;" horiz-adv-x="1843" 
d="M205 696v41l450 471h52v-368h931v-246h-931v-369h-52z" />
    <glyph glyph-name="arrowup" unicode="&#x2191;" horiz-adv-x="1843" 
d="M430 932v51l471 451h41l471 -451v-51h-369v-932h-245v932h-369z" />
    <glyph glyph-name="arrowright" unicode="&#x2192;" horiz-adv-x="1843" 
d="M205 594v246h932v368h51l450 -471v-41l-450 -471h-51v369h-932z" />
    <glyph glyph-name="arrowdown" unicode="&#x2193;" horiz-adv-x="1843" 
d="M430 451v51h369v932h245v-932h369v-51l-471 -451h-41z" />
    <glyph glyph-name="uni2196" unicode="&#x2196;" horiz-adv-x="1843" 
d="M358 594v666l31 30h666v-51l-236 -235l666 -666l-174 -174l-666 665l-235 -235h-52z" />
    <glyph glyph-name="uni2197" unicode="&#x2197;" horiz-adv-x="1843" 
d="M358 338l666 666l-236 235v51h666l31 -30v-666h-51l-236 235l-666 -665z" />
    <glyph glyph-name="uni2198" unicode="&#x2198;" horiz-adv-x="1843" 
d="M358 1147l174 174l666 -666l236 236h51v-666l-31 -30h-666v51l236 235z" />
    <glyph glyph-name="uni2199" unicode="&#x2199;" horiz-adv-x="1843" 
d="M358 225v666h52l235 -236l666 666l174 -174l-666 -666l236 -235v-51h-666z" />
    <glyph glyph-name="minus" unicode="&#x2212;" horiz-adv-x="1105" 
d="M92 379v338h922v-338h-922z" />
    <glyph glyph-name="approxequal" unicode="&#x2248;" horiz-adv-x="1105" 
d="M72 604v107q0 125 73.5 203.5t182.5 78.5q62 0 119.5 -17.5t92 -38.5t74.5 -38.5t72 -17.5q31 0 51.5 20t20.5 51v31h276v-106q0 -125 -73.5 -204t-182.5 -79q-62 0 -119.5 17.5t-92 39t-74.5 39t-72 17.5q-31 0 -51.5 -20.5t-20.5 -51.5v-31h-276zM72 133v107
q0 125 73.5 203.5t182.5 78.5q62 0 119.5 -17.5t92 -38.5t74.5 -38.5t72 -17.5q31 0 51.5 20t20.5 51v31h276v-106q0 -125 -73.5 -204t-182.5 -79q-62 0 -119.5 17.5t-92 39t-74.5 39t-72 17.5q-31 0 -51.5 -20.5t-20.5 -51.5v-31h-276z" />
    <glyph glyph-name="notequal" unicode="&#x2260;" horiz-adv-x="1105" 
d="M113 174v318h260l53 133h-313v317h440l72 174h307l-72 -174h133v-317h-260l-53 -133h313v-318h-442l-70 -174h-307l70 174h-131z" />
    <glyph glyph-name="lessequal" unicode="&#x2264;" horiz-adv-x="1105" 
d="M102 573v390l902 286v-307l-574 -164v-20l574 -164v-307zM102 195v297l902 -297v-297z" />
    <glyph glyph-name="greaterequal" unicode="&#x2265;" horiz-adv-x="1105" 
d="M102 287v307l574 164v20l-574 164v307l902 -286v-390zM102 -102v297l902 297v-297z" />
    <glyph glyph-name="commaaccent" unicode="&#xf6c3;" horiz-adv-x="501" 
d="M61 -287q0 70 54.5 122t130.5 52q89 0 141.5 -66.5t52.5 -199.5q0 -132 -91 -219.5t-236 -87.5v123q67 0 105 32t38 80v21q-20 -10 -51 -10q-62 0 -103 42.5t-41 110.5z" />
    <glyph glyph-name="cyrBreve" unicode="&#xf6d1;" horiz-adv-x="880" 
d="M61 1874h267q0 -40 30 -66t82 -26t82.5 26t30.5 66h266q0 -156 -98.5 -247t-280.5 -91t-280.5 91t-98.5 247z" />
    <glyph glyph-name="cyrbreve" unicode="&#xf6d4;" horiz-adv-x="798" 
d="M61 1434h226q16 -82 112 -82q97 0 113 82h225q0 -133 -90 -215t-248 -82t-248 82t-90 215z" />
    <glyph glyph-name="zero.oldstyle" unicode="&#xf730;" horiz-adv-x="1351" 
d="M51 532q0 114 46.5 217.5t127.5 180t198.5 121.5t252.5 45t252.5 -45t198.5 -121.5t127 -180t46 -217.5t-46 -217t-127 -179.5t-198.5 -121.5t-252.5 -45t-252.5 45t-198.5 121.5t-127.5 179.5t-46.5 217zM492 532q0 -104 52.5 -164.5t131.5 -60.5t131.5 60.5t52.5 164.5
t-52.5 165t-131.5 61t-131.5 -61t-52.5 -165z" />
    <glyph glyph-name="one.oldstyle" unicode="&#xf731;" horiz-adv-x="808" 
d="M61 502v379l287 184h369v-1065h-420v655z" />
    <glyph glyph-name="two.oldstyle" unicode="&#xf732;" horiz-adv-x="1198" 
d="M41 676q1 9 4.5 24t19.5 58.5t38.5 83.5t66.5 88.5t99 83t140 58.5t185 24q250 0 391 -101t141 -247q0 -61 -22.5 -116.5t-58.5 -96.5t-80 -76.5t-87.5 -59t-79.5 -40t-58 -23.5l-23 -8l-31 -11l-31 -10v-20l154 41h338v-328h-1096v297l359 184q127 65 183 100t74.5 58.5
t18.5 56.5q0 82 -102 82q-32 0 -57 -10.5t-38.5 -25.5t-23 -30t-11.5 -26l-3 -10h-410z" />
    <glyph glyph-name="three.oldstyle" unicode="&#xf733;" horiz-adv-x="1208" 
d="M10 41h420q1 -5 3 -13.5t13 -29.5t26 -37t45 -29.5t67 -13.5q74 0 113.5 33.5t39.5 89.5q0 63 -45.5 103t-126.5 40h-217v328h215q68 0 106 35.5t38 97.5q0 61 -36 97t-98 36q-32 0 -57 -11.5t-38.5 -28t-23 -33t-12.5 -27.5l-2 -12h-409q1 9 4 24.5t18.5 60t37.5 85.5
t66.5 90.5t100.5 85t144 60t192 24.5q256 0 399.5 -113t143.5 -276q0 -54 -15.5 -101t-39.5 -78.5t-53.5 -57t-59.5 -40t-54 -24.5t-39 -14l-16 -3v-20q6 -1 17.5 -2.5t43 -11t60.5 -23.5t64.5 -41.5t61 -62.5t43 -89t17.5 -119q0 -193 -149.5 -316.5t-423.5 -123.5
q-113 0 -206 25.5t-152 66t-103.5 89.5t-67 98.5t-36 90t-16.5 66.5z" />
    <glyph glyph-name="four.oldstyle" unicode="&#xf734;" horiz-adv-x="1280" 
d="M31 0v348l420 717h460l-419 -717h184l123 266h286v-266h175v-348h-175v-389h-419v389h-635z" />
    <glyph glyph-name="five.oldstyle" unicode="&#xf735;" horiz-adv-x="1280" 
d="M51 72h420q1 -6 3 -16.5t13.5 -37t28 -47t48 -37t71.5 -16.5q78 0 121 46.5t43 137.5q0 90 -46.5 142.5t-117.5 52.5q-34 0 -63 -10.5t-45 -25.5t-27 -30t-15 -25l-4 -11h-379l41 870h1004v-340h-623l-12 -213h20q3 3 9 8.5t27 20t46 25t66.5 19.5t87.5 9q201 0 336 -139
t135 -353q0 -235 -157.5 -378.5t-436.5 -143.5q-119 0 -216.5 27t-157.5 70.5t-104.5 96t-66 105t-33.5 96t-14 70.5z" />
    <glyph glyph-name="six.oldstyle" unicode="&#xf736;" horiz-adv-x="1310" 
d="M51 522q0 144 57.5 270t219.5 343l225 299h471l-307 -400l-123 -71v-21q81 41 194 41q207 0 344.5 -137t137.5 -344q0 -107 -44.5 -204.5t-122.5 -170t-192 -115.5t-245 -43q-135 0 -251 43.5t-195.5 118t-124 176t-44.5 215.5zM492 492q0 -84 48.5 -134.5t125.5 -50.5
t125.5 50.5t48.5 134.5t-48.5 134t-125.5 50t-125.5 -50t-48.5 -134z" />
    <glyph glyph-name="seven.oldstyle" unicode="&#xf737;" horiz-adv-x="1136" 
d="M31 717v348h1085v-358l-491 -1096h-430l491 1085v21h-655z" />
    <glyph glyph-name="eight.oldstyle" unicode="&#xf738;" horiz-adv-x="1351" 
d="M41 389q0 59 17.5 111t45.5 88t61.5 66.5t67.5 49t62 31.5t45 18l18 5v20q-5 1 -14.5 4t-36 14.5t-50.5 26t-53.5 41t-51 57.5t-36 77t-14.5 98q0 75 36 142t104.5 120.5t180.5 85t253 31.5t253 -31.5t180.5 -85t104 -120.5t35.5 -142q0 -52 -14 -98t-36.5 -77.5t-50 -57
t-55 -41t-50 -26t-36.5 -14.5l-14 -4v-20q7 -2 18.5 -5.5t44.5 -17.5t63 -31.5t66.5 -48.5t63 -67t44.5 -88t18 -111q0 -86 -39.5 -162.5t-116 -136.5t-200 -95.5t-279.5 -35.5t-279.5 35.5t-200 95.5t-116 136.5t-39.5 162.5zM553 1024q0 -54 34.5 -88.5t88.5 -34.5
t88.5 34.5t34.5 88.5t-34.5 88.5t-88.5 34.5t-88.5 -34.5t-34.5 -88.5zM512 451q0 -69 47.5 -116.5t116.5 -47.5t116.5 47.5t47.5 116.5t-47.5 116t-116.5 47t-116.5 -47t-47.5 -116z" />
    <glyph glyph-name="nine.oldstyle" unicode="&#xf739;" horiz-adv-x="1310" 
d="M51 563q0 107 44.5 204.5t122.5 170t192 115.5t245 43q135 0 251 -43.5t195.5 -118t124 -176t44.5 -215.5q0 -144 -57.5 -270t-219.5 -343l-235 -319h-471l317 420l123 71v21q-82 -41 -195 -41q-207 0 -344 137t-137 344zM481 573q0 -84 48.5 -134t125.5 -50t125.5 50
t48.5 134t-48.5 134.5t-125.5 50.5t-125.5 -50.5t-48.5 -134.5z" />
    <glyph glyph-name="ecircumflex.sc" horiz-adv-x="1259" 
d="M123 0v1229h1044v-328h-594v-133h471v-307h-471v-133h594v-328h-1044zM266 1403v10l226 307h296l226 -307v-10h-256l-103 133h-30l-103 -133h-256z" />
    <glyph glyph-name="edieresis.sc" horiz-adv-x="1259" 
d="M123 0v1229h1044v-328h-594v-133h471v-307h-471v-133h594v-328h-1044zM696 1554q0 76 54 130.5t131 54.5q76 0 130 -54t54 -131q0 -76 -53.5 -130t-130.5 -54t-131 54t-54 130zM246 1554q0 77 54 131t130 54t130 -54t54 -131q0 -76 -54 -130t-130 -54t-130 54t-54 130z
" />
    <glyph glyph-name="parenright.case" horiz-adv-x="870" 
d="M20 20q7 6 18.5 17t44.5 48t63 77.5t66.5 104t63 129t44.5 150.5t18 171t-17.5 170.5t-45.5 151.5t-62 128t-68 105t-62 76.5t-45 48.5l-18 16l218 266q11 -7 30 -20t74 -59.5t105 -99t111.5 -138t105.5 -177t74 -215t30 -253.5q0 -102 -18 -200t-49 -178t-70.5 -154
t-83.5 -131.5t-88 -107t-83.5 -84.5t-70.5 -59.5t-49 -36.5l-18 -12z" />
    <glyph glyph-name="bracketleft.case" horiz-adv-x="839" 
d="M123 -184v1802h676v-348h-256v-1106h256v-348h-676z" />
    <glyph glyph-name="bracketright.case" horiz-adv-x="839" 
d="M41 -184v348h256v1106h-256v348h676v-1802h-676z" />
    <glyph glyph-name="braceleft.case" horiz-adv-x="880" 
d="M61 532v369h82q62 0 62 62v317q0 154 93.5 246t254.5 92h287v-348h-144q-38 0 -54.5 -17t-16.5 -55v-256q0 -53 -18 -95t-43.5 -63.5t-51 -35.5t-43.5 -18l-18 -3v-20q7 -1 19 -4t42 -17.5t52.5 -35.5t41.5 -63t19 -95v-256q0 -38 16.5 -55t54.5 -17h144v-348h-287
q-161 0 -254.5 92t-93.5 246v317q0 61 -62 61h-82z" />
    <glyph glyph-name="braceright.case" horiz-adv-x="880" 
d="M41 -184v348h143q38 0 55 17t17 55v256q0 53 18 95t43.5 63.5t51 35.5t43.5 18l18 3v20q-7 1 -19 4t-42 17.5t-52.5 35.5t-41.5 63t-19 95v256q0 38 -17 55t-55 17h-143v348h287q161 0 254.5 -92t93.5 -246v-317q0 -62 61 -62h82v-369h-82q-61 0 -61 -61v-317
q0 -154 -93.5 -246t-254.5 -92h-287z" />
    <glyph glyph-name="exclamdown.case" horiz-adv-x="696" 
d="M133 1260q0 85 61.5 144.5t153.5 59.5t153.5 -59.5t61.5 -144.5t-62 -145t-153 -60t-153 60t-62 145zM133 0v594l82 338h266l82 -338v-594h-430z" />
    <glyph glyph-name="questiondown.case" horiz-adv-x="1310" 
d="M461 1260q0 85 61.5 144.5t153.5 59.5t153.5 -59.5t61.5 -144.5t-62 -145t-153 -60t-153 60t-62 145zM51 410q0 71 22.5 127.5t59 93t80 66t87 54t80 49t59 58t22.5 74.5h430q0 -71 -22 -129.5t-57 -97.5t-77.5 -71.5t-85.5 -57.5t-78 -48t-57 -50t-22 -58
q0 -103 163 -103q49 0 87 15t57.5 36t32 42t15.5 36l3 15h440q-2 -10 -5.5 -28.5t-22.5 -70.5t-46 -99.5t-80 -105.5t-119 -99.5t-168.5 -70t-223.5 -28.5q-135 0 -245 36t-181 97.5t-109.5 143t-38.5 174.5z" />
    <glyph glyph-name="guillemotleft.case" 
d="M614 707l482 542l225 -215l-297 -327l297 -328l-225 -215zM31 707l481 542l225 -215l-297 -327l297 -328l-225 -215z" />
    <glyph glyph-name="guillemotright.case" horiz-adv-x="1392" 
d="M655 379l297 328l-297 327l226 215l481 -542l-481 -543zM72 379l297 328l-297 327l225 215l481 -542l-481 -543z" />
    <glyph glyph-name="guilsinglleft.case" horiz-adv-x="860" 
d="M41 707l522 542l236 -235l-307 -307l307 -308l-236 -235z" />
    <glyph glyph-name="guilsinglright.case" horiz-adv-x="860" 
d="M61 399l308 308l-308 307l236 235l522 -542l-522 -543z" />
    <glyph glyph-name="hyphen.case" horiz-adv-x="1003" 
d="M82 594v328h840v-328h-840z" />
    <glyph glyph-name="endash.case" horiz-adv-x="1597" 
d="M92 594v307h1413v-307h-1413z" />
    <glyph glyph-name="emdash.case" horiz-adv-x="1976" 
d="M92 594v307h1792v-307h-1792z" />
    <glyph glyph-name="periodcentered.case" horiz-adv-x="573" 
d="M72 748q0 85 61.5 144.5t153.5 59.5t153.5 -59.5t61.5 -144.5t-62 -145t-153 -60t-153 60t-62 145z" />
    <glyph glyph-name="Iogonek.alt" horiz-adv-x="1239" 
d="M72 0v358h317v717h-317v359h1095v-359h-317v-717h317v-358q-9 -7 -24 -18.5t-54 -46.5t-68.5 -68t-54 -76.5t-24.5 -77.5q0 -61 72 -61q27 0 58 5t48 10l17 5v-174q-82 -41 -195 -41q-120 0 -183 55t-63 150q0 56 30 111.5t69 92.5t87 70t72 46t37 18h-919z" />
    <glyph glyph-name="gbreve.alt" horiz-adv-x="1331" 
d="M-10 -82q0 57 26.5 108t64 82t75 54.5t64.5 33.5l26 9v235q-7 4 -18 11t-39 33.5t-50 57t-39.5 80.5t-17.5 105q0 162 139 265.5t404 103.5q64 0 125 -8t90 -16l30 -7h471v-277h-41l-143 52l-10 -11q31 -52 31 -122t-35.5 -135.5t-102 -118t-174.5 -84t-241 -31.5
q-27 0 -53 2.5t-38 5.5l-12 2v-102q42 10 103 10q137 0 246.5 -18.5t181 -50t119 -75.5t68 -92t20.5 -102t-20.5 -102t-68 -92t-119 -75.5t-181 -50t-246.5 -18.5t-246.5 18.5t-181 50t-119 75.5t-68 92t-20.5 102zM481 727q0 -55 38 -89t106 -34t105.5 34t37.5 89t-37.5 89
t-105.5 34t-106 -34t-38 -89zM420 -82q0 -92 205 -92q114 0 159 24.5t45 67.5t-45 67.5t-159 24.5q-205 0 -205 -92zM279 1567h225q16 -82 112 -82q97 0 113 82h225q0 -133 -90 -215t-248 -82t-247.5 82t-89.5 215z" />
    <glyph glyph-name="gcommaaccent.alt" horiz-adv-x="1331" 
d="M430 1505q0 132 91.5 219.5t236.5 87.5v-122q-67 0 -105.5 -32.5t-38.5 -80.5v-21q21 11 52 11q62 0 102.5 -43t40.5 -111q0 -70 -54 -122t-130 -52q-89 0 -142 66.5t-53 199.5zM-10 -82q0 57 26.5 108t64 82t75 54.5t64.5 33.5l26 9v235q-7 4 -18 11t-39 33.5t-50 57
t-39.5 80.5t-17.5 105q0 162 139 265.5t404 103.5q64 0 125 -8t90 -16l30 -7h471v-277h-41l-143 52l-10 -11q31 -52 31 -122t-35.5 -135.5t-102 -118t-174.5 -84t-241 -31.5q-27 0 -53 2.5t-38 5.5l-12 2v-102q42 10 103 10q137 0 246.5 -18.5t181 -50t119 -75.5t68 -92
t20.5 -102t-20.5 -102t-68 -92t-119 -75.5t-181 -50t-246.5 -18.5t-246.5 18.5t-181 50t-119 75.5t-68 92t-20.5 102zM481 727q0 -55 38 -89t106 -34t105.5 34t37.5 89t-37.5 89t-105.5 34t-106 -34t-38 -89zM420 -82q0 -92 205 -92q114 0 159 24.5t45 67.5t-45 67.5
t-159 24.5q-205 0 -205 -92z" />
    <glyph glyph-name="Adieresis.alt2" horiz-adv-x="1546" 
d="M1147 1270q0 76 53.5 130t130.5 54t131 -54t54 -130t-54 -130.5t-131 -54.5q-76 0 -130 54t-54 131zM31 1270q0 76 53.5 130t130.5 54t130.5 -54t53.5 -130q0 -77 -54 -131t-130 -54t-130 54t-54 131zM0 0l287 1044q7 2 18 6.5t39 23t50 41.5t39.5 64.5t17.5 90.5
q0 45 -13 83t-26 53l-13 15v13h748v-13q-6 -6 -14.5 -16.5t-22.5 -50t-14 -84.5q0 -49 17 -90t41 -65t48 -41t41 -24l17 -6l286 -1044h-450l-72 276h-502l-71 -276h-451zM614 625h318l-103 409h-112z" />
    <glyph glyph-name="Odieresis.alt2" horiz-adv-x="1740" 
d="M61 717q0 179 74 327q29 -10 80 -10q98 0 167 69t69 167q0 27 -5.5 50t-10.5 32l-5 10q193 113 440 113q248 0 441 -113q-21 -31 -21 -92q0 -98 69 -167t167 -69q23 0 43 2.5t29 5.5l8 2q73 -146 73 -327q0 -156 -61 -295.5t-166.5 -241.5t-257 -161.5t-324.5 -59.5
t-324.5 59.5t-257 161.5t-166.5 241.5t-61 295.5zM1341 1270q0 76 54 130t131 54q76 0 130 -54t54 -130q0 -77 -54 -131t-130 -54t-130.5 54.5t-54.5 130.5zM31 1270q0 76 53.5 130t130.5 54t130.5 -54t53.5 -130q0 -77 -54 -131t-130 -54t-130 54t-54 131zM543 717
q0 -152 93.5 -250t233.5 -98t234 98t94 250t-94 250t-234 98t-233.5 -98t-93.5 -250z" />
    <glyph glyph-name="Aring.alt2" horiz-adv-x="1525" 
d="M-10 0l399 1434h154q-31 41 -31 92q0 80 67.5 137t178.5 57t178.5 -57t67.5 -137q0 -23 -8 -46t-16 -34l-7 -12h164l399 -1434h-451l-71 276h-502l-72 -276h-450zM676 1499q0 -27 22.5 -46t59.5 -19q36 0 59 19.5t23 47.5q0 27 -22.5 46.5t-59.5 19.5t-59.5 -19.5
t-22.5 -48.5zM604 625h318l-103 409h-112z" />
    <glyph glyph-name="Udieresis.alt2" horiz-adv-x="1597" 
d="M1069 1280q0 76 53.5 130t130.5 54t131 -54t54 -130t-54 -130t-131 -54t-130.5 54t-53.5 130zM160 1270q0 76 54 130t130 54t130 -54t54 -130q0 -77 -54 -131t-130 -54t-130 54t-54 131zM113 584v563h30q3 -5 8 -12.5t23 -27t39 -34.5t56.5 -27t74.5 -12q38 0 73 11.5
t57 28t38.5 33.5t23.5 29l7 11h30v-543q0 -106 62.5 -170.5t163.5 -64.5q100 0 162.5 65t62.5 170v553h31q2 -5 7 -12.5t23 -27t39 -34.5t56 -27t73 -12q39 0 74 11.5t57 28t39 33.5t24 29l7 11h31v-571q0 -285 -183 -456t-503 -171q-319 0 -502.5 170.5t-183.5 454.5z" />
    <glyph glyph-name="Scaron.alt2" horiz-adv-x="1454" 
d="M41 471h461q2 -6 6 -16.5t22 -37t42.5 -47t71.5 -37t104 -16.5q184 0 184 93q0 32 -29 57t-78.5 42t-113 32.5t-134 34t-141 41t-134 58t-113 81t-78.5 114.5t-29 154q0 136 102.5 252.5t286.5 167.5l-133 225v10h256l102 -204h31l102 204h256v-10l-135 -225
q76 -21 140 -57t106 -76t75.5 -83.5t51.5 -83t30 -71t15 -50.5l4 -19h-461q-1 5 -3 12.5t-14.5 26.5t-30.5 34t-54 27t-82 12q-86 0 -125 -23t-39 -59q0 -31 36.5 -54t96.5 -37.5t136 -33.5l156 -39t156 -56t136 -82.5t96.5 -121.5t36.5 -170q0 -97 -42.5 -183.5t-123 -153
t-207 -105.5t-282.5 -39q-99 0 -186.5 17.5t-152 47t-120 68t-93.5 81t-68 85t-47.5 81t-29.5 68t-16 47.5z" />
    <glyph glyph-name="Zcaron.alt2" horiz-adv-x="1413" 
d="M72 0v389l665 635v20h-645v390h361l-125 235v10h256l102 -245h31l102 245h256v-10l-127 -235h373v-390l-666 -634v-21h686v-389h-1269z" />
    <glyph glyph-name="Otilde.alt2" horiz-adv-x="1740" 
d="M512 1403v123q0 85 55 139.5t140 54.5q65 0 150.5 -35.5t115.5 -35.5q23 0 32 9t9 32v20h225v-123q0 -85 -55 -139.5t-140 -54.5q-65 0 -150.5 35.5t-115.5 35.5q-23 0 -32 -9t-9 -32v-20h-225zM61 666q0 141 59.5 270t164 225.5t257 153.5t328.5 57t328.5 -57
t257 -153.5t164 -225.5t59.5 -270t-59.5 -270t-164 -225.5t-257 -154t-328.5 -57.5t-328.5 57.5t-257 154t-164 225.5t-59.5 270zM543 666q0 -139 91 -228.5t236 -89.5t236.5 89.5t91.5 228.5t-91.5 228t-236.5 89t-236 -89t-91 -228z" />
    <glyph glyph-name="I.alt" horiz-adv-x="1239" 
d="M72 0v358h317v717h-317v359h1095v-359h-317v-717h317v-358h-1095z" />
    <glyph glyph-name="y.alt" horiz-adv-x="1280" 
d="M31 1065h430l164 -655h41l174 655h440l-287 -1065q-26 -97 -66 -165.5t-106 -120.5t-165.5 -77.5t-235.5 -25.5h-236v307h256q60 0 90 26.5t54 96.5l20 61h-317z" />
    <glyph glyph-name="afii10085.alt" horiz-adv-x="1280" 
d="M31 1065h430l164 -655h41l174 655h440l-287 -1065q-26 -97 -66 -165.5t-106 -120.5t-165.5 -77.5t-235.5 -25.5h-236v307h256q60 0 90 26.5t54 96.5l20 61h-317z" />
    <glyph glyph-name="l.alt" horiz-adv-x="614" 
d="M92 0v1434h430v-1434h-430z" />
    <glyph glyph-name="ydieresis.alt" horiz-adv-x="1280" 
d="M31 1065h430l164 -655h41l174 655h440l-287 -1065q-26 -97 -66 -165.5t-106 -120.5t-165.5 -77.5t-235.5 -25.5h-236v307h256q60 0 90 26.5t54 96.5l20 61h-317zM696 1413q0 76 54 130t131 54t130.5 -53.5t53.5 -130.5t-53.5 -130.5t-130.5 -53.5t-131 54t-54 130z
M246 1413q0 77 54 130.5t130 53.5t130 -53.5t54 -130.5t-54 -130.5t-130 -53.5t-130 53.5t-54 130.5z" />
    <glyph glyph-name="yacute.alt" horiz-adv-x="1280" 
d="M31 1065h430l164 -655h41l174 655h440l-287 -1065q-26 -97 -66 -165.5t-106 -120.5t-165.5 -77.5t-235.5 -25.5h-236v307h256q60 0 90 26.5t54 96.5l20 61h-317zM512 1270l143 317h400v-10l-287 -307h-256z" />
    <glyph glyph-name="Imacron.alt" horiz-adv-x="1239" 
d="M72 0v358h317v717h-317v359h1095v-359h-317v-717h317v-358h-1095zM266 1628v236h707v-236h-707z" />
    <glyph glyph-name="Idotaccent.alt" horiz-adv-x="1239" 
d="M72 0v358h317v717h-317v359h1095v-359h-317v-717h317v-358h-1095zM389 1731q0 93 59.5 148.5t165.5 55.5t166 -55.5t60 -148.5t-60 -149t-166 -56t-165.5 55.5t-59.5 149.5z" />
    <glyph glyph-name="Idieresis.alt" horiz-adv-x="1239" 
d="M72 0v358h317v717h-317v359h1095v-359h-317v-717h317v-358h-1095zM659 1751q0 76 54 130t131 54q76 0 130 -53.5t54 -130.5t-54 -130.5t-130 -53.5q-77 0 -131 54t-54 130zM209 1751q0 77 53.5 130.5t130.5 53.5t131 -54t54 -130t-54 -130t-131 -54t-130.5 53.5
t-53.5 130.5z" />
    <glyph glyph-name="Icircumflex.alt" horiz-adv-x="1239" 
d="M72 0v358h317v717h-317v359h1095v-359h-317v-717h317v-358h-1095zM236 1608v10l225 307h297l225 -307v-10h-256l-102 133h-31l-102 -133h-256z" />
    <glyph glyph-name="Iacute.alt" horiz-adv-x="1239" 
d="M72 0v358h317v717h-317v359h1095v-359h-317v-717h317v-358h-1095zM471 1608l143 317h400v-10l-287 -307h-256z" />
    <glyph glyph-name="Igrave.alt" horiz-adv-x="1239" 
d="M72 0v358h317v717h-317v359h1095v-359h-317v-717h317v-358h-1095zM205 1915v10h399l144 -317h-256z" />
    <glyph glyph-name="lcommaaccent.alt" horiz-adv-x="614" 
d="M92 0v1434h430v-1434h-430zM123 -330q0 70 54 122t130 52q89 0 142 -66.5t53 -199.5q0 -132 -91.5 -219.5t-236.5 -87.5v123q67 0 105 32t38 80v21q-20 -10 -51 -10q-62 0 -102.5 42.5t-40.5 110.5z" />
    <glyph glyph-name="lcaron.alt" horiz-adv-x="911" 
d="M92 0v1434h430v-1434h-430zM604 1290q0 70 54 122t130 52q89 0 142 -66.5t53 -199.5q0 -132 -91.5 -219.5t-236.5 -87.5v123q67 0 105.5 32t38.5 80v21q-20 -10 -51 -10q-62 0 -103 42.5t-41 110.5z" />
    <glyph glyph-name="lacute.alt" horiz-adv-x="614" 
d="M92 0v1434h430v-1434h-430zM164 1608l143 317h400v-10l-287 -307h-256z" />
    <glyph glyph-name="atilde.alt" horiz-adv-x="1300" 
d="M61 287q0 150 106.5 244t295.5 94h325v51q0 123 -122 123q-32 0 -57.5 -8.5t-39 -20.5t-22.5 -24t-12 -20l-3 -9h-430q1 8 3.5 21.5t17 53t36 75.5t64.5 79.5t98 75t142.5 53t191.5 21.5q269 0 416.5 -127.5t147.5 -333.5v-635h-431v154h-20q-2 -4 -5 -10.5t-16 -26
t-29 -37t-45 -38.5t-63 -36.5t-84 -26t-106 -10.5q-158 0 -258.5 92.5t-100.5 225.5zM492 369q0 -35 27.5 -58.5t84.5 -23.5q75 0 129.5 50.5t54.5 113.5h-184q-57 0 -84.5 -23.5t-27.5 -58.5zM287 1249v123q0 85 54.5 140t139.5 55q51 0 102.5 -18t93.5 -36t71 -18
q23 0 31.5 9t8.5 32v20h226v-122q0 -85 -55 -140t-140 -55q-51 0 -102 18t-93 36t-71 18q-23 0 -32 -9t-9 -32v-21h-225z" />
    <glyph glyph-name="aring.alt" horiz-adv-x="1300" 
d="M61 287q0 150 106.5 244t295.5 94h325v51q0 123 -122 123q-32 0 -57.5 -8.5t-39 -20.5t-22.5 -24t-12 -20l-3 -9h-430q1 8 3.5 21.5t17 53t36 75.5t64.5 79.5t98 75t142.5 53t191.5 21.5q269 0 416.5 -127.5t147.5 -333.5v-635h-431v154h-20q-2 -4 -5 -10.5t-16 -26
t-29 -37t-45 -38.5t-63 -36.5t-84 -26t-106 -10.5q-158 0 -258.5 92.5t-100.5 225.5zM492 369q0 -35 27.5 -58.5t84.5 -23.5q75 0 129.5 50.5t54.5 113.5h-184q-57 0 -84.5 -23.5t-27.5 -58.5zM420 1425q0 101 75 173.5t181 72.5t181 -72.5t75 -173.5q0 -100 -74.5 -172.5
t-181.5 -72.5t-181.5 72.5t-74.5 172.5zM594 1425q0 -35 23.5 -58.5t58.5 -23.5t58.5 23.5t23.5 58.5t-23.5 58.5t-58.5 23.5t-58.5 -23.5t-23.5 -58.5z" />
    <glyph glyph-name="aogonek.alt" horiz-adv-x="1300" 
d="M61 287q0 150 106.5 244t295.5 94h325v51q0 123 -122 123q-32 0 -57.5 -8.5t-39 -20.5t-22.5 -24t-12 -20l-3 -9h-430q1 8 3.5 21.5t17 53t36 75.5t64.5 79.5t98 75t142.5 53t191.5 21.5q269 0 416.5 -127.5t147.5 -333.5v-635q-9 -7 -24.5 -18.5t-54.5 -46.5t-68.5 -68
t-54 -76.5t-24.5 -77.5q0 -61 72 -61q27 0 58 5t48 10l17 5v-174q-82 -41 -195 -41q-120 0 -182.5 55t-62.5 150q0 59 30.5 115.5t68 92.5t87.5 69t71 43.5t37 17.5h-254v154h-20q-2 -4 -5 -10.5t-16 -26t-29 -37t-45 -38.5t-63 -36.5t-84 -26t-106 -10.5
q-158 0 -258.5 92.5t-100.5 225.5zM492 369q0 -35 27.5 -58.5t84.5 -23.5q77 0 130.5 47.5t53.5 116.5h-184q-57 0 -84.5 -23.5t-27.5 -58.5z" />
    <glyph glyph-name="amacron.alt" horiz-adv-x="1300" 
d="M61 287q0 150 106.5 244t295.5 94h325v51q0 123 -122 123q-32 0 -57.5 -8.5t-39 -20.5t-22.5 -24t-12 -20l-3 -9h-430q1 8 3.5 21.5t17 53t36 75.5t64.5 79.5t98 75t142.5 53t191.5 21.5q269 0 416.5 -127.5t147.5 -333.5v-635h-431v154h-20q-2 -4 -5 -10.5t-16 -26
t-29 -37t-45 -38.5t-63 -36.5t-84 -26t-106 -10.5q-158 0 -258.5 92.5t-100.5 225.5zM492 369q0 -35 27.5 -58.5t84.5 -23.5q75 0 129.5 50.5t54.5 113.5h-184q-57 0 -84.5 -23.5t-27.5 -58.5zM317 1280v236h707v-236h-707z" />
    <glyph glyph-name="adieresis.alt" horiz-adv-x="1300" 
d="M61 287q0 150 106.5 244t295.5 94h325v51q0 123 -122 123q-32 0 -57.5 -8.5t-39 -20.5t-22.5 -24t-12 -20l-3 -9h-430q1 8 3.5 21.5t17 53t36 75.5t64.5 79.5t98 75t142.5 53t191.5 21.5q269 0 416.5 -127.5t147.5 -333.5v-635h-431v154h-20q-2 -4 -5 -10.5t-16 -26
t-29 -37t-45 -38.5t-63 -36.5t-84 -26t-106 -10.5q-158 0 -258.5 92.5t-100.5 225.5zM492 369q0 -35 27.5 -58.5t84.5 -23.5q75 0 129.5 50.5t54.5 113.5h-184q-57 0 -84.5 -23.5t-27.5 -58.5zM696 1413q0 76 54 130t131 54t130.5 -53.5t53.5 -130.5t-53.5 -130.5
t-130.5 -53.5t-131 54t-54 130zM246 1413q0 77 54 130.5t130 53.5t130 -53.5t54 -130.5t-54 -130.5t-130 -53.5t-130 53.5t-54 130.5z" />
    <glyph glyph-name="acircumflex.alt" horiz-adv-x="1300" 
d="M61 287q0 150 106.5 244t295.5 94h325v51q0 123 -122 123q-32 0 -57.5 -8.5t-39 -20.5t-22.5 -24t-12 -20l-3 -9h-430q1 8 3.5 21.5t17 53t36 75.5t64.5 79.5t98 75t142.5 53t191.5 21.5q269 0 416.5 -127.5t147.5 -333.5v-635h-431v154h-20q-2 -4 -5 -10.5t-16 -26
t-29 -37t-45 -38.5t-63 -36.5t-84 -26t-106 -10.5q-158 0 -258.5 92.5t-100.5 225.5zM492 369q0 -35 27.5 -58.5t84.5 -23.5q75 0 129.5 50.5t54.5 113.5h-184q-57 0 -84.5 -23.5t-27.5 -58.5zM287 1270v10l225 307h297l225 -307v-10h-256l-102 133h-31l-102 -133h-256z" />
    <glyph glyph-name="abreve.alt" horiz-adv-x="1300" 
d="M61 287q0 150 106.5 244t295.5 94h325v51q0 123 -122 123q-32 0 -57.5 -8.5t-39 -20.5t-22.5 -24t-12 -20l-3 -9h-430q1 8 3.5 21.5t17 53t36 75.5t64.5 79.5t98 75t142.5 53t191.5 21.5q269 0 416.5 -127.5t147.5 -333.5v-635h-431v154h-20q-2 -4 -5 -10.5t-16 -26
t-29 -37t-45 -38.5t-63 -36.5t-84 -26t-106 -10.5q-158 0 -258.5 92.5t-100.5 225.5zM492 369q0 -35 27.5 -58.5t84.5 -23.5q75 0 129.5 50.5t54.5 113.5h-184q-57 0 -84.5 -23.5t-27.5 -58.5zM317 1567h226q16 -82 112 -82q97 0 113 82h225q0 -133 -90 -215t-248 -82
t-248 82t-90 215z" />
    <glyph glyph-name="aacute.alt" horiz-adv-x="1300" 
d="M61 287q0 150 106.5 244t295.5 94h325v51q0 123 -122 123q-32 0 -57.5 -8.5t-39 -20.5t-22.5 -24t-12 -20l-3 -9h-430q1 8 3.5 21.5t17 53t36 75.5t64.5 79.5t98 75t142.5 53t191.5 21.5q269 0 416.5 -127.5t147.5 -333.5v-635h-431v154h-20q-2 -4 -5 -10.5t-16 -26
t-29 -37t-45 -38.5t-63 -36.5t-84 -26t-106 -10.5q-158 0 -258.5 92.5t-100.5 225.5zM492 369q0 -35 27.5 -58.5t84.5 -23.5q75 0 129.5 50.5t54.5 113.5h-184q-57 0 -84.5 -23.5t-27.5 -58.5zM522 1270l144 317h399v-10l-287 -307h-256z" />
    <glyph glyph-name="agrave.alt" horiz-adv-x="1300" 
d="M61 287q0 150 106.5 244t295.5 94h325v51q0 123 -122 123q-32 0 -57.5 -8.5t-39 -20.5t-22.5 -24t-12 -20l-3 -9h-430q1 8 3.5 21.5t17 53t36 75.5t64.5 79.5t98 75t142.5 53t191.5 21.5q269 0 416.5 -127.5t147.5 -333.5v-635h-431v154h-20q-2 -4 -5 -10.5t-16 -26
t-29 -37t-45 -38.5t-63 -36.5t-84 -26t-106 -10.5q-158 0 -258.5 92.5t-100.5 225.5zM492 369q0 -35 27.5 -58.5t84.5 -23.5q75 0 129.5 50.5t54.5 113.5h-184q-57 0 -84.5 -23.5t-27.5 -58.5zM266 1577v10h400l143 -317h-256z" />
    <glyph glyph-name="afii10110.alt" horiz-adv-x="1280" 
d="M31 1065h430l164 -655h41l174 655h440l-287 -1065q-26 -97 -66 -165.5t-106 -120.5t-165.5 -77.5t-235.5 -25.5h-236v307h256q60 0 90 26.5t54 96.5l20 61h-317zM328 1475h225q16 -82 113 -82q96 0 112 82h226q0 -133 -90 -215t-248 -82t-248 82t-90 215z" />
    <glyph glyph-name="lslash.alt" horiz-adv-x="839" 
d="M20 440v297l175 74v623h430v-430l194 81v-297l-194 -81v-707h-430v512z" />
    <glyph glyph-name="g.alt" horiz-adv-x="1331" 
d="M-10 -82q0 57 26.5 108t64 82t75 54.5t64.5 33.5l26 9v235q-7 4 -18 11t-39 33.5t-50 57t-39.5 80.5t-17.5 105q0 162 139 265.5t404 103.5q64 0 125 -8t90 -16l30 -7h471v-277h-41l-143 52l-10 -11q31 -52 31 -122t-35.5 -135.5t-102 -118t-174.5 -84t-241 -31.5
q-27 0 -53 2.5t-38 5.5l-12 2v-102q42 10 103 10q137 0 246.5 -18.5t181 -50t119 -75.5t68 -92t20.5 -102t-20.5 -102t-68 -92t-119 -75.5t-181 -50t-246.5 -18.5t-246.5 18.5t-181 50t-119 75.5t-68 92t-20.5 102zM481 727q0 -55 38 -89t106 -34t105.5 34t37.5 89t-37.5 89
t-105.5 34t-106 -34t-38 -89zM420 -82q0 -92 205 -92q114 0 159 24.5t45 67.5t-45 67.5t-159 24.5q-205 0 -205 -92z" />
    <glyph glyph-name="a.alt" horiz-adv-x="1300" 
d="M61 287q0 150 106.5 244t295.5 94h325v51q0 123 -122 123q-32 0 -57.5 -8.5t-39 -20.5t-22.5 -24t-12 -20l-3 -9h-430q1 8 3.5 21.5t17 53t36 75.5t64.5 79.5t98 75t142.5 53t191.5 21.5q269 0 416.5 -127.5t147.5 -333.5v-635h-431v154h-20q-2 -4 -5 -10.5t-16 -26
t-29 -37t-45 -38.5t-63 -36.5t-84 -26t-106 -10.5q-158 0 -258.5 92.5t-100.5 225.5zM492 369q0 -35 27.5 -58.5t84.5 -23.5q75 0 129.5 50.5t54.5 113.5h-184q-57 0 -84.5 -23.5t-27.5 -58.5z" />
    <glyph glyph-name="at.case" horiz-adv-x="1669" 
d="M61 707q0 167 60.5 313t167 250.5t257 164.5t324.5 60q169 0 312.5 -52t240 -140t151 -205.5t54.5 -247.5q0 -216 -132 -348.5t-345 -132.5h-209v92h-10q-2 -5 -5.5 -12.5t-18 -27t-33.5 -34.5t-53 -27t-74 -12q-120 0 -203.5 96t-83.5 252t83.5 252t203.5 96
q40 0 73.5 -10.5t53 -25.5t33.5 -30t19 -26l5 -10h10v92h287v-430q143 0 143 246q0 85 -34.5 159t-97.5 130t-158.5 88.5t-211.5 32.5q-246 0 -399.5 -153.5t-153.5 -399.5q0 -247 155.5 -400t408.5 -153q96 0 185.5 18t131.5 36l41 17v-235q-17 -8 -48 -20t-125 -32
t-185 -20q-237 0 -424.5 103t-291.5 283t-104 403zM768 696q0 -65 24 -99t58 -34t58 34t24 99t-24 99t-58 34t-58 -34t-24 -99z" />
    <glyph glyph-name="nine.taboldstyle" horiz-adv-x="1290" 
d="M31 563q0 107 44.5 204.5t122.5 170t192 115.5t245 43q135 0 251 -43.5t195 -118t123.5 -176t44.5 -215.5q0 -145 -57.5 -271t-218.5 -342l-236 -319h-471l318 420l123 71v21q-82 -41 -195 -41q-207 0 -344 137t-137 344zM461 573q0 -84 48.5 -134t125.5 -50t125.5 50
t48.5 134t-48.5 134.5t-125.5 50.5t-125.5 -50.5t-48.5 -134.5z" />
    <glyph glyph-name="eight.taboldstyle" horiz-adv-x="1290" 
d="M10 389q0 59 17.5 111t45.5 88t62 66.5t68 49t62 31.5t45 18l18 5v20q-5 1 -14.5 4t-36 14.5t-50.5 26t-53.5 41t-51 57.5t-36 77t-14.5 98q0 75 35.5 142t104 120.5t180.5 85t253 31.5t253 -31.5t180.5 -85t104.5 -120.5t36 -142q0 -52 -14 -98t-36.5 -77.5t-50 -57
t-55 -41t-50 -26t-36.5 -14.5l-14 -4v-20q7 -2 18 -5.5t44 -17.5t63 -31.5t66.5 -48.5t63 -67t44.5 -88t18 -111q0 -86 -39.5 -162.5t-116 -136.5t-200 -95.5t-279.5 -35.5t-279.5 35.5t-200 95.5t-116 136.5t-39.5 162.5zM522 1024q0 -54 34.5 -88.5t88.5 -34.5t88.5 34.5
t34.5 88.5t-34.5 88.5t-88.5 34.5t-88.5 -34.5t-34.5 -88.5zM481 451q0 -69 47.5 -116.5t116.5 -47.5t116.5 47.5t47.5 116.5t-47.5 116t-116.5 47t-116.5 -47t-47.5 -116z" />
    <glyph glyph-name="seven.taboldstyle" horiz-adv-x="1290" 
d="M61 512v553h1178v-358l-491 -1096h-431l492 1085v21h-328v-205h-420z" />
    <glyph glyph-name="six.taboldstyle" horiz-adv-x="1290" 
d="M41 522q0 145 57.5 271t218.5 342l226 299h471l-307 -400l-123 -71v-21q81 41 194 41q207 0 344.5 -137t137.5 -344q0 -107 -44.5 -204.5t-123 -170t-192.5 -115.5t-245 -43q-135 0 -251 43.5t-195 118t-123.5 176t-44.5 215.5zM481 492q0 -84 48.5 -134.5t125.5 -50.5
t125.5 50.5t48.5 134.5t-48.5 134t-125.5 50t-125.5 -50t-48.5 -134z" />
    <glyph glyph-name="five.taboldstyle" horiz-adv-x="1290" 
d="M61 72h420q1 -6 3 -16.5t13.5 -37t28 -47t48 -37t71.5 -16.5q78 0 121 46.5t43 137.5q0 90 -46.5 142.5t-117.5 52.5q-34 0 -62.5 -10.5t-44.5 -25.5t-27 -30t-15 -25l-4 -11h-379l41 870h1003v-340h-622l-13 -213h21l8.5 8.5t27 20t46 25t66 19.5t87.5 9q201 0 336 -139
t135 -353q0 -235 -157.5 -378.5t-436.5 -143.5q-119 0 -216.5 27t-157.5 70.5t-104.5 96t-66 105t-33.5 96t-14 70.5z" />
    <glyph glyph-name="four.taboldstyle" horiz-adv-x="1290" 
d="M41 0v348l420 717h461l-420 -717h184l123 266h287v-266h174v-348h-174v-389h-420v389h-635z" />
    <glyph glyph-name="three.taboldstyle" horiz-adv-x="1290" 
d="M61 41h420q1 -5 3 -13.5t13 -29.5t26 -37t45 -29.5t67 -13.5q74 0 113.5 33.5t39.5 89.5q0 63 -45.5 103t-126.5 40h-217v328h215q68 0 106 35.5t38 97.5q0 61 -36 97t-97 36q-32 0 -57 -11.5t-38.5 -28t-23 -33t-12.5 -27.5l-2 -12h-410q1 9 4 24.5t18.5 60t37.5 85.5
t66.5 90.5t100.5 85t144 60t192 24.5q256 0 399.5 -113t143.5 -276q0 -54 -15.5 -101t-39.5 -78.5t-53.5 -57t-59.5 -40t-54 -24.5t-40 -14l-15 -3v-20q6 -1 17.5 -2.5t43.5 -11t61 -23.5t64.5 -41.5t61 -62.5t43 -89t17.5 -119q0 -193 -150 -316.5t-424 -123.5
q-113 0 -206 25.5t-152 66t-103.5 89.5t-67 98.5t-36 90t-16.5 66.5z" />
    <glyph glyph-name="two.taboldstyle" horiz-adv-x="1290" 
d="M102 676q1 9 4.5 24t19.5 58.5t38.5 83.5t66.5 88.5t99 83t140 58.5t185 24q250 0 391.5 -101t141.5 -247q0 -48 -14 -92.5t-38 -80t-54.5 -68t-64.5 -57t-68 -45t-64.5 -34.5t-54.5 -24t-38 -15l-14 -4l-30 -11l-31 -10v-20l153 41h338v-328h-1095v297l358 184
q127 66 183 100.5t75 58.5t19 56q0 82 -103 82q-32 0 -57 -10.5t-38.5 -25.5t-23 -30t-12.5 -26l-2 -10h-410z" />
    <glyph glyph-name="one.taboldstyle" horiz-adv-x="1290" 
d="M143 0v328h349v327l-236 -153v379l287 184h368v-737h308v-328h-1076z" />
    <glyph glyph-name="zero.taboldstyle" horiz-adv-x="1290" 
d="M20 532q0 114 46.5 217.5t127.5 180t198.5 121.5t252.5 45t252.5 -45t198.5 -121.5t127.5 -180t46.5 -217.5t-46.5 -217t-127.5 -179.5t-198.5 -121.5t-252.5 -45t-252.5 45t-198.5 121.5t-127.5 179.5t-46.5 217zM461 532q0 -104 52.5 -164.5t131.5 -60.5t131.5 60.5
t52.5 164.5t-52.5 165t-131.5 61t-131.5 -61t-52.5 -165z" />
    <glyph glyph-name="K_K" horiz-adv-x="2181" 
d="M1229 768l420 666h512l-420 -666l461 -768h-512zM123 0v1434h461v-492h123l307 492h512l-420 -666l461 -768h-512l-328 522h-143v-522h-461z" />
    <glyph glyph-name="L_L" horiz-adv-x="1464" 
d="M717 522v912h358v-574h359v-338h-717zM123 0v1434h461v-1024h655v-410h-1116z" />
    <glyph glyph-name="T_E" horiz-adv-x="1566" 
d="M20 1024v410h1321v-410h-430v-82h574v-266h-574v-82h469v-236h-469v-92h574v-266h-1034v1024h-431z" />
    <glyph glyph-name="R_J" horiz-adv-x="2191" 
d="M1249 502v-2q1 -6 4 -15.5t17.5 -34t34 -43t56.5 -34t83 -15.5q84 0 129 43.5t45 120.5v912h461v-902q0 -264 -169.5 -423.5t-465.5 -159.5q-77 0 -147 15.5t-123.5 41.5t-100 59.5t-79.5 70.5t-60 74t-44 70.5t-29 59.5t-17 42l-4 15v2h-256v-399h-461v1434h768
q264 0 424 -148t160 -375q0 -63 -12.5 -119t-32.5 -96.5t-44 -74.5t-48 -55t-44 -36t-32 -22zM584 778h266q68 0 111 39t43 94t-43 94t-111 39h-266v-266z" />
    <glyph glyph-name="T_T" horiz-adv-x="1822" 
d="M20 1024v410h1321v-410h-430v-102h871v-328h-256v-594h-379v594h-236v-594h-460v1024h-431z" />
    <glyph glyph-name="U_U" horiz-adv-x="1802" 
d="M113 645v789h440v-768q0 -148 90.5 -233t257.5 -85t257.5 85t90.5 233v768h441v-789q0 -154 -52 -280t-150 -216.5t-248 -140t-339 -49.5t-338.5 49.5t-248 140t-150 216.5t-51.5 280zM604 686v461h246v-451q0 -61 51 -61t51 61v451h246v-461q0 -139 -76 -213t-221 -74
t-221 74t-76 213z" />
    <glyph glyph-name="P_H" horiz-adv-x="2519" 
d="M123 0v1434h747q262 0 426 -144.5t179 -365.5v-2h460v512h461v-1434h-461v512h-460v-512h-461v358q-72 -10 -144 -10h-286v-348h-461zM584 737h245q83 0 129 42t46 112t-46 111.5t-129 41.5h-245v-307z" />
    <glyph glyph-name="E_A" horiz-adv-x="2600" 
d="M123 0v1434h1106v-390h-645v-163h737l154 553h747l399 -1434h-450l-72 276h-502l-71 -276h-1403zM1690 625h317l-102 409h-113zM584 389h600l45 164h-645v-164z" />
    <glyph glyph-name="C_O" horiz-adv-x="1710" 
d="M61 717q0 153 59.5 291.5t164 241.5t257 164t328.5 61q104 0 196 -20t161 -54t128.5 -77.5t100.5 -92t74 -97t52.5 -92t32.5 -77.5t18 -54l5 -20h-389q-2 5 -5.5 14t-18 34.5t-32 48.5t-49.5 51.5t-69 49t-90.5 34.5t-114.5 14q-178 0 -293.5 -118t-115.5 -302
t115.5 -302t293.5 -118q67 0 124.5 16t96.5 41t70 55.5t49 61.5t30 56t16 41l4 16h389q-3 -13 -9 -35.5t-33 -87.5t-61.5 -124t-98.5 -131t-140.5 -124t-190.5 -87.5t-246 -35.5q-176 0 -328.5 61t-257 164t-164 241.5t-59.5 291.5zM543 717q0 138 94.5 232.5t232.5 94.5
t233 -94.5t95 -232.5t-95 -233t-233 -95t-232.5 95t-94.5 233zM768 717q0 -51 30.5 -82t71.5 -31t72 31t31 82t-31 81.5t-72 30.5t-71.5 -30.5t-30.5 -81.5z" />
    <glyph glyph-name="K_O" horiz-adv-x="2590" 
d="M123 0v1434h461v-492h123l307 492h512l-420 -666l461 -768h-512l-328 522h-143v-522h-461zM1341 748q0 114 44.5 218.5t123 183t192.5 125t245 46.5t245 -46.5t192 -125t122.5 -183t44.5 -218.5t-44.5 -219t-122.5 -183.5t-192 -125t-245 -46.5t-245 46.5t-192.5 125
t-123 183.5t-44.5 219zM1772 748q0 -97 47.5 -151t126.5 -54t126.5 54t47.5 151t-47.5 150.5t-126.5 53.5t-126.5 -53.5t-47.5 -150.5z" />
    <glyph glyph-name="W_E" horiz-adv-x="2713" 
d="M20 1434h451l154 -891h20l164 891h491l164 -891h21l153 891h983v-390h-614l-31 -163h502v-328h-573l-31 -164h747v-389h-1392l-164 850h-21l-163 -850h-564z" />
    <glyph glyph-name="A_T" horiz-adv-x="1914" 
d="M-10 0l284 1024h-131v410h1629v-410h-132l285 -1024h-450l-72 276h-256v-276h-379v276h-256l-72 -276h-450zM1147 625h164l-103 399h-61v-399zM604 625h164v399h-61z" />
    <glyph glyph-name="S_A" horiz-adv-x="2826" 
d="M-20 471h460q2 -6 6 -16.5t22 -37t42.5 -47t71.5 -37t104 -16.5q184 0 184 93q0 36 -28.5 63.5t-75.5 44t-106.5 36.5t-122 40t-122 56t-106.5 82t-75.5 121.5t-28.5 170.5q0 86 42.5 166t120.5 144t201 102.5t271 38.5q119 0 218.5 -26t163 -67.5t113 -91.5t75 -100.5
t41.5 -92t20 -67.5l4 -26h-461q-1 5 -3.5 12.5t-15 26.5t-30.5 34t-54 27t-82 12q-86 0 -124.5 -23t-38.5 -59q0 -31 28.5 -54t75.5 -37.5t106.5 -33.5t122 -39t122 -56t106.5 -82.5t75.5 -121.5t28.5 -170q0 -98 -39.5 -183.5t-116 -152.5t-200 -106t-279.5 -39
q-99 0 -186.5 17.5t-152 47t-120 68t-93 81t-67.5 85t-48 81t-29.5 68t-15.5 47.5zM1290 0l400 1434h747l399 -1434h-450l-72 276h-502l-71 -276h-451zM1907 625h317l-102 409h-113z" />
    <glyph glyph-name="L_F" horiz-adv-x="1484" 
d="M717 512v922h737v-287h-379v-92h314v-267h-314v-276h-358zM123 0v1434h461v-1024h655v-410h-1116z" />
    <glyph glyph-name="L_I" horiz-adv-x="1361" 
d="M778 532v902h461v-902h-461zM123 0v1434h461v-1024h655v-410h-1116z" />
    <glyph glyph-name="L_A" horiz-adv-x="2160" 
d="M123 0v1434h461v-1024h153l287 1024h748l399 -1434h-451l-92 369h-418l-4 2l2 -4v-367h-1085zM1239 717h297l-82 317h-113z" />
    <glyph glyph-name="L_O" horiz-adv-x="1720" 
d="M696 993q0 98 38.5 187t104.5 154t159.5 103t199.5 38t199.5 -38t159.5 -103t104.5 -154t38.5 -187q0 -132 -65 -242t-180.5 -174.5t-256.5 -64.5t-256.5 64.5t-180.5 174.5t-65 242zM123 0v1434h461v-1024h655v-410h-1116zM1044 993q0 -75 45.5 -124.5t108.5 -49.5
t108.5 49.5t45.5 124.5t-45.5 124.5t-108.5 49.5t-108.5 -49.5t-45.5 -124.5z" />
    <glyph glyph-name="C_E" horiz-adv-x="1710" 
d="M61 717q0 153 59.5 291.5t164 241.5t257 164t328.5 61q104 0 196 -20t161 -54t128.5 -77.5t100.5 -92t74 -97t52.5 -92t32.5 -77.5t18 -54l5 -20h-389q-2 5 -5.5 14t-18 34.5t-32 48.5t-49.5 51.5t-69 49t-90.5 34.5t-114.5 14q-178 0 -293.5 -118t-115.5 -302
t115.5 -302t293.5 -118q67 0 124.5 16t96.5 41t70 55.5t49 61.5t30 56t16 41l4 16h389q-3 -13 -9 -35.5t-33 -87.5t-61.5 -124t-98.5 -131t-140.5 -124t-190.5 -87.5t-246 -35.5q-176 0 -328.5 61t-257 164t-164 241.5t-59.5 291.5zM635 410v614h481v-184h-276v-52h225v-143
h-225v-51h276v-184h-481z" />
    <glyph glyph-name="A_V" horiz-adv-x="2211" 
d="M-10 0l399 1434h789l245 -1024h93l245 1024h461l-369 -1434h-768l-71 276h-502l-72 -276h-450zM604 625h318l-103 409h-112z" />
    <glyph glyph-name="ampersand.alt2" horiz-adv-x="1914" 
d="M51 584q0 234 159.5 383t424.5 149q84 0 157 -16.5t126 -44.5t97.5 -64t73.5 -75.5t51.5 -79.5t35 -76t20 -64t10.5 -44l2 -17l-727 -154q3 -7 9 -19t33.5 -42t65.5 -52.5t110 -41.5t161 -19q252 0 392.5 160t140.5 475h512v-307h-162q-1 -8 -4.5 -23t-17.5 -60.5
t-33.5 -89.5t-56.5 -104t-82.5 -111.5t-114 -104t-149 -89.5t-190.5 -60.5t-235 -23.5q-190 0 -345.5 50t-255.5 135t-154 195.5t-54 234.5zM461 645l307 72q-1 4 -4 10t-14 22t-25.5 28t-41 22t-58.5 10q-43 0 -76 -17t-49 -41t-25.5 -48t-11.5 -41z" />
    <glyph glyph-name="O_G" horiz-adv-x="2611" 
d="M61 717q0 156 61 295.5t166.5 241.5t257 161.5t324.5 59.5q215 0 410 -103q195 103 420 103q128 0 238.5 -30t185.5 -78t136 -105.5t97 -115.5t60 -106t33 -78l8 -30h-471q-3 5 -8.5 14t-28 32t-52 40.5t-82.5 32t-116 14.5q-54 0 -101 -12q80 -160 80 -336
q0 -179 -80 -336q47 -12 101 -12q69 0 125 14.5t86.5 35.5t51.5 42.5t27 36.5l7 14h-174v297h788v-297h-153q-3 -12 -9.5 -31.5t-33.5 -77t-61.5 -110t-97 -116t-136.5 -109.5t-184 -77.5t-236 -31.5q-218 0 -420 102q-196 -102 -410 -102q-173 0 -324.5 59.5t-257 161.5
t-166.5 241.5t-61 295.5zM543 717q0 -152 93.5 -250t233.5 -98t234 98t94 250t-94 250t-234 98t-233.5 -98t-93.5 -250z" />
    <glyph glyph-name="O_O" horiz-adv-x="2570" 
d="M61 717q0 156 61 295.5t166.5 241.5t257 161.5t324.5 59.5q224 0 410 -103q186 103 420 103q173 0 324.5 -59.5t257 -161.5t166.5 -241.5t61 -295.5t-61 -295.5t-166.5 -241.5t-257 -161.5t-324.5 -59.5q-227 0 -420 102q-193 -102 -410 -102q-173 0 -324.5 59.5
t-257 161.5t-166.5 241.5t-61 295.5zM1602 383q43 -14 98 -14q140 0 234 98t94 250t-94 250t-234 98q-44 0 -98 -14q77 -157 77 -334t-77 -334zM543 717q0 -152 93.5 -250t233.5 -98t234 98t94 250t-94 250t-234 98t-233.5 -98t-93.5 -250z" />
    <glyph glyph-name="O_C" horiz-adv-x="2539" 
d="M61 717q0 156 61 295.5t166.5 241.5t257 161.5t324.5 59.5q224 0 410 -103q186 103 420 103q104 0 196 -20t161 -54t128.5 -77.5t100.5 -92t74 -97t52.5 -92t32.5 -77.5t18 -54l5 -20h-471q-2 7 -8 19t-29 42t-53 52.5t-85.5 41.5t-121.5 19q-47 0 -101 -14
q80 -157 80 -334q0 -179 -80 -336q47 -12 101 -12q52 0 97.5 12t75.5 31t55 41.5t39 45.5t23.5 42t13.5 31l3 12h471q-3 -13 -9 -35.5t-32.5 -87.5t-61 -124t-98.5 -131t-140.5 -124t-190.5 -87.5t-246 -35.5q-227 0 -420 102q-193 -102 -410 -102q-173 0 -324.5 59.5
t-257 161.5t-166.5 241.5t-61 295.5zM543 717q0 -152 93.5 -250t233.5 -98t234 98t94 250t-94 250t-234 98t-233.5 -98t-93.5 -250z" />
    <glyph glyph-name="T_H_E" horiz-adv-x="2631" 
d="M20 1044v390h1260v-390h-399v-163h512v553h1147v-390h-687v-163h543v-328h-543v-164h687v-389h-1147v553h-512v-553h-461v1044h-400z" />
    <glyph glyph-name="nine.dnom" horiz-adv-x="716" 
d="M31 461q0 105 89.5 180.5t237.5 75.5t238 -75.5t90 -180.5q0 -79 -31.5 -143.5t-91.5 -133.5l-164 -184h-286l184 205l82 41v10q-43 -20 -113 -20q-107 0 -171 62.5t-64 162.5zM287 457q0 -29 18.5 -48.5t48.5 -19.5q33 0 54.5 20t21.5 48q0 27 -21 46t-51 19t-50.5 -19
t-20.5 -46z" />
    <glyph glyph-name="eight.dnom" horiz-adv-x="798" 
d="M41 184q0 38 17 69.5t41 50t48 31.5t41 18l17 5v11q-5 2 -14 5t-32 16t-40.5 29t-32 43.5t-14.5 59.5q0 84 80.5 139.5t246.5 55.5t247 -55.5t81 -139.5q0 -32 -13.5 -59t-33.5 -43.5t-39.5 -28.5t-32.5 -17l-14 -5v-11q7 -2 18 -5t39 -17t50 -32t39.5 -50t17.5 -70
q0 -92 -85.5 -148t-273.5 -56t-273 56t-85 148zM328 481q0 -23 20 -37t51 -14t51.5 14t20.5 37t-20.5 37t-51.5 14t-51 -14t-20 -37zM317 221q0 -27 21.5 -42t60.5 -15t60.5 15t21.5 42q0 26 -22 40.5t-60 14.5t-60 -14.5t-22 -40.5z" />
    <glyph glyph-name="seven.dnom" horiz-adv-x="634" 
d="M20 481v215h615v-215l-256 -481h-277l256 461v20h-338z" />
    <glyph glyph-name="six.dnom" horiz-adv-x="716" 
d="M31 236q0 79 31.5 143t91.5 133l163 184h287l-184 -204l-82 -41v-11q43 21 113 21q107 0 171 -62.5t64 -162.5q0 -105 -90 -180.5t-238 -75.5t-237.5 75.5t-89.5 180.5zM287 240q0 -27 20.5 -46.5t50.5 -19.5t51 19.5t21 46.5q0 28 -19 47.5t-49 19.5q-33 0 -54 -19.5
t-21 -47.5z" />
    <glyph glyph-name="five.dnom" horiz-adv-x="737" 
d="M51 238h256q0 -2 1.5 -5t6.5 -10t12 -13t21 -10.5t31 -4.5q25 0 43 16t18 45q0 23 -19 37t-46 14q-12 0 -24 -2.5t-17 -4.5l-6 -3l-226 10l31 389h522v-194h-297l-12 -82h2q51 20 133 20q106 0 171 -60.5t65 -154.5q0 -105 -86 -175t-238 -70q-66 0 -120 14t-88.5 37
t-61 50.5t-39.5 55t-21 50.5t-10 37z" />
    <glyph glyph-name="four.dnom" horiz-adv-x="716" 
d="M0 113v194l246 389h266l-236 -368h103l61 112h185v-112h71v-215h-71v-113h-256v113h-369z" />
    <glyph glyph-name="three.dnom" horiz-adv-x="727" 
d="M31 225h266q0 -2 1.5 -4.5t6.5 -9.5t12 -12.5t21 -10t31 -4.5q61 0 61 54q0 26 -21 42.5t-53 16.5h-141v113l174 102v10l-82 -20h-235v194h583v-184l-153 -92l-23 -10v-11h2q103 0 159 -52t56 -132q0 -99 -82.5 -167t-236.5 -68q-64 0 -118 13.5t-88.5 35t-61.5 47.5
t-41 52.5t-23 48t-11 35.5z" />
    <glyph glyph-name="two.dnom" horiz-adv-x="768" 
d="M41 0v205l184 92q122 61 163.5 90t41.5 53t-15.5 38t-45.5 14q-27 0 -45 -13t-22 -26l-5 -13h-266q1 6 3.5 16t14 38.5t26.5 55t44 58.5t64.5 54.5t89 38.5t116.5 16q147 0 232.5 -69t85.5 -167q0 -49 -23.5 -93t-56.5 -72.5t-66 -50t-57 -31.5l-23 -9l-30 -10l-31 -8
v-12l102 20h185v-215h-666z" />
    <glyph glyph-name="one.dnom" horiz-adv-x="747" 
d="M72 0v215h184v246l-164 -82v225l184 92h256v-481h154v-215h-614z" />
    <glyph glyph-name="zero.dnom" horiz-adv-x="798" 
d="M41 348q0 161 102 265t256 104t256.5 -104.5t102.5 -264.5t-102 -264t-257 -104q-154 0 -256 103.5t-102 264.5zM317 348q0 -71 24 -107t58 -36t58 36t24 107t-24 107.5t-58 36.5t-58 -36.5t-24 -107.5z" />
    <glyph glyph-name="nine.numr" horiz-adv-x="716" 
d="M31 1198q0 105 89.5 180.5t237.5 75.5t238 -75.5t90 -180.5q0 -79 -31.5 -143t-91.5 -133l-164 -185h-286l184 205l82 41v10q-43 -20 -113 -20q-107 0 -171 62.5t-64 162.5zM287 1194q0 -29 18.5 -48.5t48.5 -19.5q33 0 54.5 20t21.5 48q0 27 -21 46.5t-51 19.5
t-50.5 -19.5t-20.5 -46.5z" />
    <glyph glyph-name="eight.numr" horiz-adv-x="798" 
d="M41 922q0 38 17 69.5t41 50t48 31.5t41 18l17 5v10q-5 2 -14 5.5t-32 16.5t-40.5 29t-32 43.5t-14.5 59.5q0 84 80.5 139t246.5 55t247 -55t81 -139q0 -50 -33.5 -88.5t-66.5 -51.5l-33 -14v-10q7 -2 18 -5t39 -17t50 -32t39.5 -50t17.5 -70q0 -92 -85.5 -148.5
t-273.5 -56.5t-273 56t-85 149zM328 1219q0 -23 20 -37.5t51 -14.5t51.5 14.5t20.5 37.5t-20.5 37t-51.5 14t-51 -14t-20 -37zM317 958q0 -27 21.5 -42t60.5 -15t60.5 15t21.5 42q0 26 -22 41t-60 15t-60 -15t-22 -41z" />
    <glyph glyph-name="seven.numr" horiz-adv-x="634" 
d="M20 1219v215h615v-215l-256 -482h-277l256 461v21h-338z" />
    <glyph glyph-name="six.numr" horiz-adv-x="716" 
d="M31 973q0 79 31.5 143t91.5 133l163 185h287l-184 -205l-82 -41v-10q43 20 113 20q107 0 171 -62.5t64 -162.5q0 -105 -90 -180.5t-238 -75.5t-237.5 75.5t-89.5 180.5zM287 977q0 -27 20.5 -46.5t50.5 -19.5t51 19.5t21 46.5q0 28 -19 47.5t-49 19.5q-33 0 -54 -19.5
t-21 -47.5z" />
    <glyph glyph-name="five.numr" horiz-adv-x="737" 
d="M51 975h256q0 -2 1.5 -5t6.5 -10t12 -13t21 -10.5t31 -4.5q25 0 43 16t18 45q0 23 -19 37t-46 14q-12 0 -24 -2.5t-17 -5.5l-6 -2l-226 10l31 390h522v-195h-297l-12 -82h2q51 21 133 21q106 0 171 -60.5t65 -154.5q0 -105 -86 -175.5t-238 -70.5q-66 0 -120 14t-88.5 37
t-61 50.5t-39.5 55t-21 50.5t-10 37z" />
    <glyph glyph-name="four.numr" horiz-adv-x="716" 
d="M0 850v194l246 390h266l-236 -369h103l61 113h185v-113h71v-215h-71v-113h-256v113h-369z" />
    <glyph glyph-name="three.numr" horiz-adv-x="727" 
d="M31 963h266q0 -2 1.5 -4.5t6.5 -9.5t12 -12.5t21 -10t31 -4.5q61 0 61 53q0 26 -21 42.5t-53 16.5h-141v113l174 102v11l-82 -21h-235v195h583v-185l-153 -92l-23 -10v-10h2q103 0 159 -52.5t56 -132.5q0 -99 -82.5 -167t-236.5 -68q-88 0 -156 25.5t-102.5 61.5t-56 72
t-26.5 62z" />
    <glyph glyph-name="two.numr" horiz-adv-x="768" 
d="M41 737v205l184 92q121 60 163 90t42 54q0 51 -61 51q-27 0 -45 -12.5t-22 -25.5l-5 -13h-266q1 6 3.5 16t14 38.5t26.5 54.5t44 58t64.5 55t89 38.5t116.5 15.5q147 0 232.5 -68.5t85.5 -166.5q0 -49 -23.5 -93t-56.5 -72.5t-66 -50t-57 -31.5l-23 -9l-30 -11l-31 -8
v-12l102 20h185v-215h-666z" />
    <glyph glyph-name="one.numr" horiz-adv-x="747" 
d="M72 737v215h184v246l-164 -82v225l184 93h256v-482h154v-215h-614z" />
    <glyph glyph-name="zero.numr" horiz-adv-x="798" 
d="M41 1085q0 161 102 265t256 104t256.5 -104.5t102.5 -264.5t-102 -264t-257 -104q-154 0 -256 103.5t-102 264.5zM317 1085q0 -71 24 -107t58 -36t58 36t24 107t-24 107.5t-58 36.5t-58 -36.5t-24 -107.5z" />
    <glyph glyph-name="nine.tab" horiz-adv-x="1495" 
d="M72 952q0 104 46 198t130 166.5t213.5 115.5t286.5 43q154 0 280.5 -43t210 -118t129 -176t45.5 -216q0 -123 -60 -257.5t-186 -295.5l-286 -369h-502l317 410l113 61v21q-9 -5 -26.5 -11.5t-73.5 -18t-115 -11.5q-146 0 -266 67.5t-188 182.5t-68 251zM543 952
q0 -64 52.5 -108.5t141.5 -44.5t142 44.5t53 108.5t-52.5 109t-140.5 45q-90 0 -143 -45t-53 -109z" />
    <glyph glyph-name="eight.tab" horiz-adv-x="1495" 
d="M41 399q0 59 17.5 110.5t45.5 87t61.5 65t67.5 46.5t62 29t45 17l18 4v20q-5 1 -14.5 4t-36 14t-50.5 24.5t-53.5 38.5t-51 54t-36 71.5t-14.5 90.5q0 75 40 145t117 128t203.5 92.5t285.5 34.5t285.5 -34.5t203 -92.5t116.5 -128t40 -145q0 -66 -26.5 -121t-64 -86
t-75 -53t-63.5 -29l-27 -8v-20q7 -1 18 -4.5t44 -16.5t63 -29.5t66.5 -46t63 -64.5t44.5 -87t18 -111q0 -69 -25.5 -132.5t-81.5 -119.5t-137.5 -98t-200 -66t-261.5 -24t-262 24t-200 66t-137 98t-82 119.5t-26 132.5zM584 1014q0 -42 42.5 -72.5t121.5 -30.5t121 30.5
t42 72.5t-41.5 72t-121.5 30t-122 -30t-42 -72zM543 461q0 -58 55 -101t150 -43t149.5 43t54.5 101t-54.5 100.5t-149.5 42.5t-150 -42.5t-55 -100.5z" />
    <glyph glyph-name="afii10029.alt" horiz-adv-x="1679" 
d="M0 10v400q41 -11 92 -11q75 0 120 28t70 101t25 199v707h1260v-1434h-461v1024h-338v-307q0 -737 -573 -737q-50 0 -99 7.5t-72 14.5z" />
    <glyph glyph-name="afii10077.alt" horiz-adv-x="1361" 
d="M10 10v348q31 -10 72 -10q57 0 85 37.5t28 126.5v553h1075v-1065h-430v707h-226v-246q0 -232 -108.5 -356.5t-290.5 -124.5q-64 0 -115 7.5t-70 14.5z" />
    <glyph glyph-name="afii10028.alt" horiz-adv-x="1546" 
d="M123 0v1434h461v-502h225q39 0 60.5 23t21.5 65v96q0 176 92.5 257t286.5 81h205v-348h-64q-59 0 -59 -62v-92q0 -49 -18 -87t-43.5 -57t-51 -31.5t-43.5 -15.5l-18 -3v-21q8 -1 21 -4.5t46.5 -18.5t59 -37t46.5 -63.5t21 -93.5v-131q0 -61 62 -61h61v-348h-205
q-189 0 -284 86.5t-95 250.5v113q0 47 -18.5 69.5t-63.5 22.5h-245v-522h-461z" />
    <glyph glyph-name="afii10076.alt" horiz-adv-x="1300" 
d="M92 0v1065h430v-348h133q31 0 51.5 20t20.5 51v72q0 102 69 163.5t197 61.5h246v-297h-41q-23 0 -37 -14t-14 -37v-20q0 -38 -14.5 -67.5t-35.5 -45t-42.5 -25.5t-36.5 -13l-14 -3v-20q7 -1 18 -3t39 -13.5t49.5 -28t39 -48t17.5 -71.5v-51q0 -23 14.5 -37.5t37.5 -14.5
h41v-296h-199q-313 0 -313 225v92q0 31 -20.5 51.5t-51.5 20.5h-154v-369h-430z" />
    <glyph glyph-name="afii10024.alt" horiz-adv-x="2242" 
d="M51 -20v348h62q61 0 61 61v131q0 52 20 93.5t49 63.5t57.5 36.5t48.5 18.5l20 5v21q-7 1 -19 3.5t-42 15t-52.5 31.5t-41.5 57t-19 87v92q0 62 -60 62h-63v348h204q194 0 286.5 -81t92.5 -257v-96q0 -42 21.5 -65t60.5 -23h154v502h461v-502h153q39 0 60.5 23t21.5 65v96
q0 176 92.5 257t286.5 81h205v-348h-64q-59 0 -59 -62v-92q0 -49 -18 -87t-43.5 -57t-51 -31.5t-43.5 -15.5l-18 -3v-21q8 -1 21 -4.5t46.5 -18.5t59 -37t46.5 -63.5t21 -93.5v-131q0 -61 62 -61h61v-348h-204q-189 0 -284 86.5t-95 250.5v113q0 47 -18.5 69.5t-63.5 22.5
h-174v-522h-461v522h-174q-45 0 -63.5 -22.5t-18.5 -69.5v-113q0 -164 -95 -250.5t-284 -86.5h-205z" />
    <glyph glyph-name="afii10072.alt" horiz-adv-x="1904" 
d="M41 -20v296h41q23 0 37 14.5t14 37.5v51q0 40 17 71.5t41 48t48 27.5t41 14l17 3v20q-6 1 -15.5 3t-34 12.5t-43.5 25.5t-34.5 45t-15.5 68v20q0 23 -14.5 37t-37.5 14h-41v297h246q128 0 197 -61.5t69 -163.5v-72q0 -31 20.5 -51t51.5 -20h92v348h430v-348h93
q31 0 51 20t20 51v72q0 102 69 163.5t197 61.5h246v-297h-41q-23 0 -37 -14t-14 -37v-20q0 -38 -14.5 -67.5t-35.5 -45t-42.5 -25.5t-36.5 -13l-14 -3v-20q7 -1 18 -3t39 -13.5t50 -28t39.5 -48t17.5 -71.5v-51q0 -23 14 -37.5t37 -14.5h41v-296h-199q-313 0 -313 225v92
q0 31 -20.5 51.5t-51.5 20.5h-113v-369h-430v369h-112q-31 0 -51.5 -20.5t-20.5 -51.5v-92q0 -225 -313 -225h-199z" />
    <glyph glyph-name="afii10021.alt" horiz-adv-x="1730" 
d="M0 -246v635h123q6 3 16.5 8.5t37 31t46.5 60t36.5 98t16.5 140.5v707h1240v-1045h174v-635h-430v246h-830v-246h-430zM586 389h469v655h-318v-294q0 -78 -15.5 -144t-37.5 -104.5t-44.5 -65.5t-37.5 -37z" />
    <glyph glyph-name="afii10069.alt" horiz-adv-x="1402" 
d="M0 -205v533h102q4 1 10 4.5t22 18.5t28.5 36.5t22.5 62.5t10 93v522h1044v-737h133v-533h-399v205h-574v-205h-399zM502 328h307v409h-195v-194q0 -46 -11.5 -84t-28 -59.5t-33 -36.5t-27.5 -20l-12 -5v-10z" />
    <glyph glyph-name="seven.tab" horiz-adv-x="1495" 
d="M92 819v615h1321v-410l-553 -1024h-502l543 1004v20h-348v-205h-461z" />
    <glyph glyph-name="six.tab" horiz-adv-x="1495" 
d="M82 512q0 123 60 257.5t186 295.5l286 369h502l-317 -410l-113 -61v-21q9 5 26.5 11.5t73.5 18t115 11.5q146 0 266 -67.5t188 -182.5t68 -252q0 -104 -46 -198t-129.5 -166.5t-213 -115t-286.5 -42.5q-154 0 -280.5 43t-210.5 118t-129.5 176t-45.5 216zM563 481
q0 -64 52.5 -108.5t140.5 -44.5q90 0 143 44.5t53 108.5t-52.5 109t-141.5 45t-142 -45t-53 -109z" />
    <glyph glyph-name="ff.alt" horiz-adv-x="1587" 
d="M31 717v307h133v20q0 191 95 290.5t273 99.5h277v-308h-133q-46 0 -64 -18t-18 -64v-20h307v20q0 191 95.5 290.5t273.5 99.5h338v-308h-195q-46 0 -64 -18t-18 -64v-20h225v-307h-225v-717h-430v717h-307v-717h-430v717h-133z" />
    <glyph glyph-name="fi.alt" horiz-adv-x="1423" 
d="M31 717v307h133v20q0 191 95 290.5t273 99.5h584v-308h-440q-46 0 -64 -18t-18 -64v-20h737v-1024h-430v717h-307v-717h-430v717h-133z" />
    <glyph glyph-name="fl.alt" horiz-adv-x="1423" 
d="M31 717v307h133v20q0 103 27.5 175.5t91 124t171 76t263.5 24.5q155 0 308.5 -23t229.5 -46l76 -23v-1352h-430v1106q-82 20 -184 20q-74 0 -98.5 -17.5t-24.5 -64.5v-20h225v-307h-225v-717h-430v717h-133z" />
    <glyph glyph-name="f_j.alt" horiz-adv-x="1423" 
d="M31 717v307h133v20q0 191 95 290.5t273 99.5h584v-308h-440q-46 0 -64 -18t-18 -64v-20h737v-1004q0 -177 -116 -293t-293 -116h-277v307h154q46 0 74 30.5t28 82.5v686h-307v-717h-430v717h-133z" />
    <glyph glyph-name="f_t.alt" horiz-adv-x="1669" 
d="M31 717v307h133v20q0 103 27.5 175.5t91 124t171 76t263.5 24.5q155 0 308.5 -23t229.5 -46l76 -23v-328h256v-307h-256v-307q0 -46 28.5 -74.5t74.5 -28.5h174v-307h-308q-185 0 -292 109.5t-107 300.5v307h-307v-717h-430v717h-133zM594 1024h307v82q-82 20 -184 20
q-74 0 -98.5 -17.5t-24.5 -64.5v-20z" />
    <glyph glyph-name="f.alt" horiz-adv-x="849" 
d="M31 717v307h133v20q0 191 95 290.5t273 99.5h338v-308h-194q-46 0 -64 -18t-18 -64v-20h225v-307h-225v-717h-430v717h-133z" />
    <glyph glyph-name="j.alt" horiz-adv-x="645" 
d="M102 1372q0 93 60 149t166 56t165.5 -55.5t59.5 -149.5t-59.5 -149.5t-165.5 -55.5t-166 56t-60 149zM-143 -389v307h153q46 0 74.5 30.5t28.5 82.5v1034h430v-1045q0 -177 -116.5 -293t-293.5 -116h-276z" />
    <glyph glyph-name="afii10051.alt" horiz-adv-x="1771" 
d="M20 1044v390h1280v-390h-409v-143h266q282 0 428 -140t146 -403v-41q0 -553 -625 -553h-62v379h41q185 0 185 174v31q0 76 -44 120t-120 44h-215v-512h-461v1044h-410z" />
    <glyph glyph-name="afii10099.alt" horiz-adv-x="1372" 
d="M10 983v307h133v144h430v-144h256v-307h-256v-276h21q4 7 12 19t37.5 42t63 52.5t89 41.5t115.5 19q180 0 284.5 -114.5t104.5 -326.5v-409q0 -203 -110 -311.5t-299 -108.5h-215v307h92q46 0 74 30t28 83v338q0 75 -35 114t-98 39q-71 0 -117.5 -50.5t-46.5 -133.5v-338
h-430v983h-133z" />
    <glyph glyph-name="afii10105.alt" horiz-adv-x="645" 
d="M102 1372q0 93 60 149t166 56t165.5 -55.5t59.5 -149.5t-59.5 -149.5t-165.5 -55.5t-166 56t-60 149zM-143 -389v307h153q46 0 74.5 30.5t28.5 82.5v1034h430v-1045q0 -177 -116.5 -293t-293.5 -116h-276z" />
    <glyph glyph-name="tcaron.alt" horiz-adv-x="983" 
d="M676 1147q0 70 54 122t130 52q89 0 142 -66.5t53 -199.5q0 -132 -91.5 -219.5t-236.5 -87.5v122q66 0 104.5 32.5t38.5 80.5v21q-20 -11 -51 -11q-62 0 -102.5 43t-40.5 111zM31 768v307h133v225h430v-890q0 -46 28 -74.5t74 -28.5h174v-307h-307q-185 0 -292 109.5
t-107 300.5v358h-133z" />
    <glyph glyph-name="tcommaaccent.alt" horiz-adv-x="931" 
d="M31 768v307h133v225h430v-225h256v-307h-256v-358q0 -46 28 -74.5t74 -28.5h174v-307h-307q-185 0 -292 109.5t-107 300.5v358h-133zM307 -328q0 70 54.5 122t130.5 52q89 0 141.5 -66.5t52.5 -199.5q0 -132 -91.5 -219.5t-236.5 -87.5v123q67 0 105.5 32t38.5 80v21
q-20 -10 -51 -10q-62 0 -103 42.5t-41 110.5z" />
    <glyph glyph-name="uni021B.alt" horiz-adv-x="931" 
d="M31 768v307h133v225h430v-225h256v-307h-256v-358q0 -46 28 -74.5t74 -28.5h174v-307h-307q-185 0 -292 109.5t-107 300.5v358h-133zM307 -328q0 70 54.5 122t130.5 52q89 0 141.5 -66.5t52.5 -199.5q0 -132 -91.5 -219.5t-236.5 -87.5v123q67 0 105.5 32t38.5 80v21
q-20 -10 -51 -10q-62 0 -103 42.5t-41 110.5z" />
    <glyph glyph-name="t.alt" horiz-adv-x="931" 
d="M31 768v307h133v225h430v-225h256v-307h-256v-358q0 -46 28 -74.5t74 -28.5h174v-307h-307q-185 0 -292 109.5t-107 300.5v358h-133z" />
    <glyph glyph-name="afii10058.alt" horiz-adv-x="2416" 
d="M0 10v400q41 -11 92 -11q75 0 120 28t70 101t25 199v707h1219v-430h235q142 0 259.5 -39.5t194.5 -108t119 -159.5t42 -195t-42 -195t-119 -159.5t-194.5 -108t-259.5 -39.5h-696v1024h-297v-307q0 -737 -573 -737q-50 0 -99 7.5t-72 14.5zM1526 379h235q68 0 106 34
t38 89t-38 89t-106 34h-235v-246z" />
    <glyph glyph-name="afii10061.alt" horiz-adv-x="1587" 
d="M123 0v1434h461v-502h225q39 0 60.5 23t21.5 65v96q0 176 92.5 257t286.5 81h205v-348h-64q-59 0 -59 -62v-92q0 -49 -18 -87t-43.5 -57t-51 -31.5t-43.5 -15.5l-18 -3v-21q8 -1 21 -4.5t46.5 -18.5t59 -37t46.5 -63.5t21 -93.5v-131q0 -61 62 -61h61v-348h-205
q-189 0 -284 86.5t-95 250.5v113q0 47 -18.5 69.5t-63.5 22.5h-245v-522h-461zM637 1577l143 317h400v-10l-287 -307h-256z" />
    <glyph glyph-name="afii10106.alt" horiz-adv-x="1894" 
d="M10 10v348q31 -10 72 -10q57 0 85 37.5t28 126.5v553h1034v-307h174q217 0 333.5 -103t116.5 -276q0 -174 -117 -276.5t-337 -102.5h-600v707h-185v-246q0 -232 -108.5 -356.5t-290.5 -124.5q-64 0 -115 7.5t-70 14.5zM1229 276h82q53 0 82.5 28.5t29.5 76.5
q0 45 -29.5 72.5t-82.5 27.5h-82v-205z" />
    <glyph glyph-name="afii10109.alt" horiz-adv-x="1331" 
d="M92 0v1065h430v-348h133q31 0 51.5 20t20.5 51v72q0 102 69 163.5t197 61.5h246v-297h-41q-23 0 -37 -14t-14 -37v-20q0 -38 -14.5 -67.5t-35.5 -45t-42.5 -25.5t-36.5 -13l-14 -3v-20q7 -1 18 -3t39 -13.5t49.5 -28t39 -48t17.5 -71.5v-51q0 -23 14.5 -37.5t37.5 -14.5
h41v-296h-199q-313 0 -313 225v92q0 31 -20.5 51.5t-51.5 20.5h-154v-369h-430zM504 1210l143 318h400v-10l-287 -308h-256z" />
    <glyph glyph-name="florin.alt" horiz-adv-x="1044" 
d="M-72 -389v307h154q53 0 85 27.5t38 74.5l102 697h-112v307h153l10 72q24 169 131.5 253.5t329.5 84.5h246v-308h-164q-60 0 -89 -22.5t-44 -77.5v-2h223v-307h-264l-102 -717q-27 -190 -150.5 -289.5t-310.5 -99.5h-236z" />
    <glyph glyph-name="T_A" horiz-adv-x="1884" 
d="M20 1024v410h1475l399 -1434h-450l-72 276h-450v-276h-461v1024h-441zM922 625h358l-100 399h-258v-399z" />
    <glyph glyph-name="A_A" horiz-adv-x="2580" 
d="M-10 0l399 1434h748l112 -512l31 -236h20l31 236l113 512h747l400 -1434h-451l-72 276h-501l-72 -276h-410l-71 276h-502l-72 -276h-450zM1659 625h317l-102 409h-113zM604 625h318l-103 409h-112z" />
    <glyph glyph-name="J_A" horiz-adv-x="2181" 
d="M-10 369l409 92l5.5 -11t17 -25t30.5 -31.5t47 -24.5t64 -11q84 0 129 43.5t45 120.5v912h1055l399 -1434h-450l-72 276h-522q-69 -155 -219 -241t-365 -86q-98 0 -182.5 23t-141.5 60t-103 82t-72.5 90t-44 82t-23.5 60zM1198 625h379l-102 409h-277v-409z" />
    <glyph glyph-name="O_L_I" horiz-adv-x="3041" 
d="M61 717q0 156 61 295.5t166.5 241.5t257 161.5t324.5 59.5t324.5 -59.5t257 -161.5t166.5 -241.5t61 -295.5t-61 -295.5t-166.5 -241.5t-257 -161.5t-324.5 -59.5t-324.5 59.5t-257 161.5t-166.5 241.5t-61 295.5zM543 717q0 -152 93.5 -250t233.5 -98t234 98t94 250
t-94 250t-234 98t-233.5 -98t-93.5 -250zM2458 532v902h460v-902h-460zM1802 0v1434h461v-1024h655v-410h-1116z" />
    <glyph glyph-name="D_E" horiz-adv-x="2283" 
d="M123 0v1434h2068v-390h-757v-10q6 -6 15 -17t28 -51t28 -85h543v-328h-543q-9 -45 -26.5 -83.5t-30.5 -54.5l-14 -16v-10h757v-389h-2068zM584 399h133q153 0 240 85.5t87 232.5t-87 232t-240 85h-133v-635z" />
    <glyph glyph-name="A_R" horiz-adv-x="2406" 
d="M-10 0l399 1434h1352q264 0 423.5 -148t159.5 -375q0 -63 -14 -120t-36.5 -98t-50 -76t-55 -57t-50 -38t-36.5 -23l-14 -7l277 -492h-471l-225 399h-215v-399h-461v397h-410l-123 -397h-450zM1434 778h266q67 0 110 39t43 94t-43 94t-110 39h-266v-266zM655 778h318v256
h-246z" />
    <glyph glyph-name="N_A" horiz-adv-x="2519" 
d="M123 0v1434h532l430 -758h21l-31 194v564h1055l399 -1434h-450l-72 276h-471v-276h-532l-431 758h-20l31 -195v-563h-461zM1536 625h379l-103 409h-276v-409z" />
    <glyph glyph-name="Aacute.alt2" horiz-adv-x="1525" 
d="M-10 0l399 1434h246v276h399v-10l-143 -266h246l399 -1434h-451l-71 276h-502l-72 -276h-450zM604 625h318l-103 409h-112z" />
    <glyph glyph-name="Eacute.alt2" horiz-adv-x="1361" 
d="M123 0v1434h461v276h399v-10l-143 -266h430v-390h-686v-163h542v-328h-542v-164h686v-389h-1147z" />
    <glyph glyph-name="Iacute.alt2" horiz-adv-x="706" 
d="M215 1434v276h399v-10l-143 -266h-256zM123 0v1311h461v-1311h-461z" />
    <glyph glyph-name="Oacute.alt2" horiz-adv-x="1740" 
d="M61 717q0 144 51.5 273.5t142 227t218 162.5t275.5 84v246h399v-10l-133 -236q292 -46 478.5 -254.5t186.5 -492.5q0 -156 -61 -295.5t-166.5 -241.5t-257 -161.5t-324.5 -59.5t-324.5 59.5t-257 161.5t-166.5 241.5t-61 295.5zM543 717q0 -152 93.5 -250t233.5 -98
t234 98t94 250t-94 250t-234 98t-233.5 -98t-93.5 -250z" />
    <glyph glyph-name="Uacute.alt2" horiz-adv-x="1597" 
d="M666 1434v276h399v-10l-143 -266h-256zM113 584v850h460v-830q0 -106 62.5 -170.5t163.5 -64.5q100 0 162.5 65t62.5 170v830h461v-848q0 -285 -183 -456t-503 -171q-319 0 -502.5 170.5t-183.5 454.5z" />
    <glyph glyph-name="Yacute.alt2" horiz-adv-x="1443" 
d="M594 1434v276h399v-10l-143 -266h-256zM-31 1434h471l267 -512h30l267 512h471l-523 -922v-512h-460v512z" />
    <glyph glyph-name="afii10056.alt" horiz-adv-x="1239" 
d="M72 0v358h317v717h-317v359h1095v-359h-317v-717h317v-358h-1095zM655 1710q0 76 54 130t131 54q76 0 130 -54t54 -130t-54 -130t-130 -54q-77 0 -131 54t-54 130zM205 1710q0 76 53.5 130t130.5 54t130.5 -54t53.5 -130t-53.5 -130t-130.5 -54t-130.5 54t-53.5 130z" />
    <glyph glyph-name="afii10055.alt" horiz-adv-x="1239" 
d="M72 0v358h317v717h-317v359h1095v-359h-317v-717h317v-358h-1095z" />
    <glyph glyph-name="a.sc" horiz-adv-x="1413" 
d="M-10 0l358 1229h717l358 -1229h-440l-61 215h-430l-62 -215h-440zM584 543h245l-81 297h-82z" />
    <glyph glyph-name="aacute.sc" horiz-adv-x="1413" 
d="M-10 0l358 1229h717l358 -1229h-440l-61 215h-430l-62 -215h-440zM584 543h245l-81 297h-82zM563 1403l144 317h399v-10l-287 -307h-256z" />
    <glyph glyph-name="abreve.sc" horiz-adv-x="1413" 
d="M-10 0l358 1229h717l358 -1229h-440l-61 215h-430l-62 -215h-440zM584 543h245l-81 297h-82zM369 1700h225q16 -82 113 -82q96 0 112 82h225q0 -133 -89.5 -215t-247.5 -82t-248 82t-90 215z" />
    <glyph glyph-name="acircumflex.sc" horiz-adv-x="1413" 
d="M-10 0l358 1229h717l358 -1229h-440l-61 215h-430l-62 -215h-440zM584 543h245l-81 297h-82zM328 1403v10l225 307h297l225 -307v-10h-256l-102 133h-31l-102 -133h-256z" />
    <glyph glyph-name="adieresis.sc" horiz-adv-x="1413" 
d="M-10 0l358 1229h717l358 -1229h-440l-61 215h-430l-62 -215h-440zM584 543h245l-81 297h-82zM748 1544q0 77 54 131t130 54t130 -54t54 -131q0 -76 -54 -130t-130 -54t-130 54t-54 130zM297 1544q0 77 54 131t130 54q77 0 131 -54.5t54 -130.5t-54 -130t-131 -54
t-130.5 54t-53.5 130z" />
    <glyph glyph-name="agrave.sc" horiz-adv-x="1413" 
d="M-10 0l358 1229h717l358 -1229h-440l-61 215h-430l-62 -215h-440zM584 543h245l-81 297h-82zM307 1710v10h400l143 -317h-256z" />
    <glyph glyph-name="amacron.sc" horiz-adv-x="1413" 
d="M-10 0l358 1229h717l358 -1229h-440l-61 215h-430l-62 -215h-440zM584 543h245l-81 297h-82zM358 1423v236h707v-236h-707z" />
    <glyph glyph-name="aogonek.sc" horiz-adv-x="1413" 
d="M-10 0l358 1229h717l358 -1229q-9 -7 -24 -18.5t-54 -46.5t-68.5 -68t-54 -76.5t-24.5 -77.5q0 -61 72 -61q27 0 58 5t48 10l17 5v-174q-82 -41 -195 -41q-120 0 -183 55t-63 150q0 56 30 111.5t69 92.5t87 70t72 46t37 18h-264l-61 215h-430l-62 -215h-440zM584 543h245
l-81 297h-82z" />
    <glyph glyph-name="aring.sc" horiz-adv-x="1413" 
d="M-10 0l358 1229h717l358 -1229h-440l-61 215h-430l-62 -215h-440zM584 543h245l-81 297h-82zM451 1567q0 100 74.5 172.5t181.5 72.5t181.5 -72.5t74.5 -172.5q0 -101 -75 -173.5t-181 -72.5t-181 72.5t-75 173.5zM625 1567q0 -35 23.5 -58.5t58.5 -23.5t58 23.5t23 58.5
t-23 58.5t-58 23.5t-58.5 -23.5t-23.5 -58.5z" />
    <glyph glyph-name="atilde.sc" horiz-adv-x="1413" 
d="M-10 0l358 1229h717l358 -1229h-440l-61 215h-430l-62 -215h-440zM584 543h245l-81 297h-82zM348 1393v123q0 85 55 139.5t140 54.5q51 0 102 -18t93 -36t71 -18q23 0 32 9t9 32v21h225v-123q0 -85 -54.5 -140t-139.5 -55q-51 0 -102.5 18t-93.5 36t-71 18q-23 0 -32 -9
t-9 -32v-20h-225z" />
    <glyph glyph-name="ae.sc" horiz-adv-x="1914" 
d="M-10 0l358 1229h1485v-328h-563v-133h448v-307h-448v-133h563v-328h-1014v215h-327l-62 -215h-440zM584 543h235v297h-153z" />
    <glyph glyph-name="b.sc" horiz-adv-x="1413" 
d="M123 0v1229h747q213 0 321.5 -84.5t108.5 -222.5q0 -55 -21 -100t-51 -71t-60 -44t-51 -25l-21 -6v-21q5 -1 14.5 -3t36 -11t50.5 -21t53.5 -35t51 -51.5t36 -71.5t14.5 -93q0 -162 -129.5 -265.5t-372.5 -103.5h-727zM573 758h164q46 0 74.5 22t28.5 60t-28.5 60
t-74.5 22h-164v-164zM573 307h215q52 0 82.5 26t30.5 66t-30.5 66.5t-82.5 26.5h-215v-185z" />
    </font>
</defs>
</svg>
