<?xml version="1.0" standalone="no"?>
<!DOCTYPE svg PUBLIC "-//W3C//DTD SVG 1.1//EN" "http://www.w3.org/Graphics/SVG/1.1/DTD/svg11.dtd" >
<svg xmlns="http://www.w3.org/2000/svg" xmlns:xlink="http://www.w3.org/1999/xlink" version="1.1">
<metadata>
Created by FontForge 20170731 at Mon Aug  3 21:24:26 2020
 By Aleksey,,,
Copyright (c) 2018 by Typetype. Designer Ivan Gladkikh, technical designers Philipp Nurullin, Vika Usmanova, Nadyr Rakhimov, Marina Khodak. All rights reserved.
</metadata>
<defs>
<font id="TTFirsNeue-BlackItalic" horiz-adv-x="1556" >
  <font-face 
    font-family="TT Firs Neue Black"
    font-weight="900"
    font-style="italic"
    font-stretch="normal"
    units-per-em="2048"
    panose-1="2 0 5 3 4 0 0 9 0 4"
    ascent="1638"
    descent="-410"
    x-height="1085"
    cap-height="1434"
    bbox="-676 -737 3224 2120"
    underline-thickness="102"
    underline-position="-409"
    slope="-10"
    unicode-range="U+000D-FB02"
  />
<missing-glyph horiz-adv-x="0" 
 />
    <glyph glyph-name="ff" unicode="ff" horiz-adv-x="1654" 
d="M758 707l-125 -707h-471l125 707h-144l56 317h143l74 410h665l-57 -318h-195l-16 -92h287l74 410h737l-58 -318h-266l-16 -92h225l-55 -317h-225l-125 -707h-471l124 707h-286z" />
    <glyph glyph-name="fi" unicode="fi" horiz-adv-x="1488" 
d="M758 707l-125 -707h-471l125 707h-144l56 317h143l74 410h1003l-57 -318h-533l-16 -92h758l-180 -1024h-471l124 707h-286z" />
    <glyph glyph-name="fl" unicode="fl" horiz-adv-x="1650" 
d="M1645 1434l-199 -1117h246l-56 -317h-716l196 1116h-287l-16 -92h195l-56 -317h-194l-125 -707h-471l125 707h-144l56 317h143l74 410h1229z" />
    <glyph glyph-name="f_t" unicode="ft" horiz-adv-x="1724" 
d="M1645 1434l-74 -410h246l-56 -317h-245l-70 -390h266l-55 -317h-737l124 707h-286l-125 -707h-471l125 707h-144l56 317h143l74 410h1229zM831 1126l-20 -112h287l20 112h-287z" />
    <glyph glyph-name="f_j" unicode="fj" horiz-adv-x="1488" 
d="M758 707l-125 -707h-471l125 707h-144l56 317h143l74 410h1003l-57 -318h-533l-16 -92h758l-248 -1413h-635l55 317h164l137 779h-286z" />
    <glyph glyph-name=".notdef" horiz-adv-x="0" 
 />
    <glyph glyph-name=".null" horiz-adv-x="0" 
 />
    <glyph glyph-name=".null" horiz-adv-x="0" 
 />
    <glyph glyph-name="nonmarkingreturn" horiz-adv-x="682" 
 />
    <glyph glyph-name="CR" unicode="&#xd;" horiz-adv-x="0" 
 />
    <glyph glyph-name="space" unicode=" " horiz-adv-x="573" 
 />
    <glyph glyph-name="exclam" unicode="!" horiz-adv-x="712" 
d="M836 1434l-99 -564l-143 -348h-307v348l78 564h471zM379 -31q-85 0 -145 60t-60 145q0 99 71.5 172.5t164.5 73.5q85 0 144.5 -60t59.5 -145q0 -99 -71 -172.5t-164 -73.5z" />
    <glyph glyph-name="quotedbl" unicode="&#x22;" horiz-adv-x="1101" 
d="M743 1434l-57 -328l-82 -174h-307l-21 174l58 328h409zM1276 1434l-57 -328l-82 -174h-308l-20 174l57 328h410z" />
    <glyph glyph-name="numbersign" unicode="#" horiz-adv-x="1583" 
d="M676 0l131 287h-166l-129 -287h-410l131 287h-122l61 348h219l76 164h-154l62 348h248l131 287h409l-129 -287h164l129 287h410l-129 -287h121l-62 -348h-219l-74 -164h152l-62 -348h-247l-132 -287h-409zM864 799l-78 -164h191l76 164h-189z" />
    <glyph glyph-name="dollar" unicode="$" horiz-adv-x="1492" 
d="M983 410q0 28 -25 51.5t-67 42t-96.5 37.5t-114.5 40.5t-120.5 46.5t-115 60.5t-96.5 78.5t-67 104t-25 133q0 177 144 309.5t395 156.5l34 189h420l-43 -236q69 -26 126.5 -63.5t94.5 -77.5t66 -82.5t43.5 -80t24 -67.5t11.5 -48l3 -17h-510q0 5 -2 13t-12 28.5
t-25.5 36t-48.5 28.5t-76 13q-50 0 -81.5 -23t-31.5 -49q0 -19 25 -36.5t68 -33t98.5 -32.5t116.5 -38t122 -46.5t116.5 -61.5t98.5 -79.5t68 -104t25 -131.5q0 -93 -39.5 -179.5t-111.5 -155t-182.5 -115t-244.5 -58.5l-30 -188h-420l39 233q-106 36 -186 99.5
t-119.5 123.5t-64 124.5t-29.5 95t-5 41.5h502q0 -4 3 -18t16.5 -40.5t35 -49t63.5 -39.5t97 -17q65 0 99 24t34 58z" />
    <glyph glyph-name="percent" unicode="%" horiz-adv-x="1808" 
d="M1757 1434l-1112 -1434h-328l1113 1434h327zM594 758q-158 0 -258 92t-100 225q0 163 112 271t287 108q158 0 258 -92t100 -225q0 -163 -112 -271t-287 -108zM625 1198q-46 0 -74.5 -28t-28.5 -74q0 -38 22.5 -60t59.5 -22q46 0 74.5 28t28.5 74q0 38 -22.5 60t-59.5 22z
M1481 676q158 0 258 -92t100 -226q0 -163 -112 -270.5t-287 -107.5q-158 0 -258.5 92t-100.5 225q0 163 112.5 271t287.5 108zM1450 236q46 0 74 28t28 74q0 38 -22.5 60t-59.5 22q-46 0 -74 -28.5t-28 -74.5q0 -38 22.5 -59.5t59.5 -21.5z" />
    <glyph glyph-name="ampersand" unicode="&#x26;" horiz-adv-x="1626" 
d="M1153 205h-20q-6 -10 -17 -26.5t-52.5 -59t-89.5 -75t-128.5 -59t-169.5 -26.5q-246 0 -394.5 130t-148.5 321q0 219 159 365.5t415 146.5h79l5 20l-109 21l-45 92l68 379h1116l-68 -379h-563l-4 -21l493 -1034h-553l-36 82zM737 338q62 0 103 42t41 107q0 51 -36.5 84
t-96.5 33q-62 0 -103 -42t-41 -107q0 -51 36.5 -84t96.5 -33z" />
    <glyph glyph-name="quotesingle" unicode="'" horiz-adv-x="569" 
d="M743 1434l-57 -328l-82 -174h-307l-21 174l58 328h409z" />
    <glyph glyph-name="parenleft" unicode="(" horiz-adv-x="903" 
d="M195 459q0 118 24.5 231t66 204t95.5 175.5t113.5 149.5t119 121t113.5 95t95.5 67t65.5 41l25 13l195 -286q-9 -7 -25 -19.5t-61.5 -55.5t-86.5 -90t-91.5 -119t-87 -146t-61.5 -169.5t-25 -189.5t20.5 -186t50 -157t59 -117t50.5 -77l20 -26l-297 -287q-8 6 -21.5 18
t-53 53.5t-75 88t-79 121t-75 152.5t-53 182.5t-21.5 212.5z" />
    <glyph glyph-name="parenright" unicode=")" horiz-adv-x="894" 
d="M895 729q0 -118 -24.5 -231t-66.5 -204.5t-96 -175.5t-114 -149.5t-119.5 -121.5t-113.5 -95t-96 -67t-67 -41l-24 -13l-194 287q9 7 25 19.5t61.5 55.5t86.5 90t91.5 119t87 146t61.5 169.5t25 189.5t-20.5 186t-50 157t-59.5 117t-50 77l-21 26l297 286q8 -6 21.5 -18
t53.5 -53.5t76 -88t79.5 -120.5t75.5 -152.5t53.5 -182.5t21.5 -212z" />
    <glyph glyph-name="asterisk" unicode="*" horiz-adv-x="942" 
d="M768 666l-123 194l-123 -194l-217 143l146 174h-175v246h236v205h266v-205h236v-246h-174l145 -174z" />
    <glyph glyph-name="plus" unicode="+" horiz-adv-x="1126" 
d="M481 758v297h369v-297h297v-369h-297v-297h-369v297h-297v369h297z" />
    <glyph glyph-name="comma" unicode="," horiz-adv-x="552" 
d="M82 -307h-41l31 153h30q141 0 185 134l10 30q-21 -10 -41 -10q-70 0 -112 45.5t-42 128.5q0 99 71.5 172.5t164.5 73.5q94 0 149.5 -61.5t55.5 -174.5q0 -228 -126 -359.5t-335 -131.5z" />
    <glyph glyph-name="hyphen" unicode="-" horiz-adv-x="1017" 
d="M1004 369h-861l66 368h860z" />
    <glyph glyph-name="period" unicode="." horiz-adv-x="552" 
d="M307 -31q-85 0 -145 60t-60 145q0 99 71.5 172.5t164.5 73.5q85 0 145 -60t60 -145q0 -99 -71.5 -172.5t-164.5 -73.5z" />
    <glyph glyph-name="slash" unicode="/" horiz-adv-x="999" 
d="M0 0l784 1434h471l-784 -1434h-471z" />
    <glyph glyph-name="zero" unicode="0" horiz-adv-x="1658" 
d="M922 389q108 0 187 107.5t79 302.5q0 119 -53.5 182t-141.5 63q-109 0 -187.5 -107t-78.5 -302q0 -119 53.5 -182.5t141.5 -63.5zM911 -41q-158 0 -292.5 51t-227 139.5t-144.5 211.5t-52 264q0 247 106 441.5t290 301.5t413 107q158 0 292.5 -51t227 -139.5
t144.5 -211.5t52 -264q0 -247 -106 -441.5t-290 -301.5t-413 -107z" />
    <glyph glyph-name="one" unicode="1" horiz-adv-x="976" 
d="M479 881l-295 -164l90 512l365 205h471l-254 -1434h-532z" />
    <glyph glyph-name="two" unicode="2" horiz-adv-x="1484" 
d="M156 420l510 246q248 120 318.5 170t70.5 116q0 41 -35.5 66.5t-108.5 25.5q-35 0 -64.5 -11t-46 -27t-28 -32t-16.5 -27l-4 -11h-516q78 239 280.5 389t466.5 150q142 0 259.5 -39t194 -106t118.5 -153.5t42 -183.5q0 -69 -23.5 -133t-63 -113.5t-91 -93.5t-108 -76.5
t-113 -60t-108 -45t-91 -30t-63.5 -17.5l-23 -6l-4 -21l148 23h440l-74 -420h-1341z" />
    <glyph glyph-name="three" unicode="3" horiz-adv-x="1449" 
d="M799 604h-303l45 266l315 154l2 20h-563l70 390h1198l-68 -379l-430 -174l-2 -21q203 -18 312.5 -124t109.5 -265q0 -104 -44 -196.5t-124 -163t-203.5 -111.5t-273.5 -41q-140 0 -255 29t-187.5 72.5t-127 102.5t-81.5 111t-43.5 106.5t-19.5 80.5t-3 41h498
q0 -4 2.5 -16t14 -35.5t30 -43t55.5 -34.5t86 -15q75 0 114.5 35.5t39.5 98.5q0 56 -37.5 84t-126.5 28z" />
    <glyph glyph-name="four" unicode="4" horiz-adv-x="1519" 
d="M1343 0h-512l39 225h-768l76 430l629 779h563l-629 -779h226l20 113l125 143h391l-45 -256h164l-76 -430h-164z" />
    <glyph glyph-name="five" unicode="5" horiz-adv-x="1497" 
d="M774 881h21q4 3 11 7.5t32 17t52.5 22t71 17t89.5 7.5q219 0 345 -122t126 -318q0 -115 -45.5 -216t-128 -176t-207.5 -118t-275 -43q-143 0 -259 30t-193 80.5t-130.5 120t-79 144.5t-30.5 158h498q1 -5 3 -14.5t14 -32.5t29 -40.5t51 -32t77 -14.5q68 0 110.5 41
t42.5 103q0 55 -44 89t-119 34h-598l194 809h1127l-70 -390h-676z" />
    <glyph glyph-name="six" unicode="6" horiz-adv-x="1482" 
d="M508 1085l346 349h565l-409 -410l-115 -61l-2 -21q58 31 160 31q226 0 363.5 -128t137.5 -325q0 -111 -49 -212t-137 -179t-220.5 -124t-289.5 -46q-169 0 -303 41.5t-218.5 113.5t-128.5 166t-44 203q0 138 75 272.5t269 329.5zM868 358q73 0 118.5 37t45.5 86
q0 50 -48.5 86.5t-135.5 36.5q-73 0 -118.5 -37t-45.5 -86q0 -50 48.5 -86.5t135.5 -36.5z" />
    <glyph glyph-name="seven" unicode="7" horiz-adv-x="1327" 
d="M737 0h-583l702 963l4 20h-665l77 451h1250l-78 -451z" />
    <glyph glyph-name="eight" unicode="8" horiz-adv-x="1576" 
d="M932 -41q-167 0 -303 25.5t-226.5 68.5t-152.5 101.5t-89.5 122t-27.5 133.5q0 54 13 102t35.5 83.5t51.5 65.5t61 50.5t63.5 36.5t60.5 25.5t51.5 15.5t35.5 8l13 2l2 20q-8 2 -22 7.5t-49 26.5t-61.5 47.5t-48.5 73t-22 101.5q0 79 38 149.5t111 127t193.5 90
t272.5 33.5q146 0 267 -24t203 -64t138.5 -93.5t82.5 -111t26 -117.5q0 -56 -16.5 -104.5t-43 -80t-58 -57t-63.5 -39.5t-58.5 -23.5t-43.5 -12.5l-16 -3l-2 -20q11 -4 28.5 -11.5t62 -35.5t79 -62t62.5 -92.5t28 -124.5q0 -86 -42 -164t-122.5 -140t-212.5 -99t-299 -37z
M993 911q66 0 99.5 26t33.5 67q0 92 -153 92q-66 0 -99.5 -25.5t-33.5 -66.5q0 -42 36.5 -67.5t116.5 -25.5zM881 338q82 0 128 38t46 95q0 58 -50 95.5t-145 37.5q-82 0 -128 -38t-46 -95q0 -58 50 -95.5t145 -37.5z" />
    <glyph glyph-name="nine" unicode="9" horiz-adv-x="1482" 
d="M1241 348l-346 -348h-565l409 410l115 61l2 21q-58 -31 -160 -31q-227 0 -364 127.5t-137 324.5q0 111 49 212.5t137 179t220.5 124t289.5 46.5q169 0 303 -41.5t218.5 -113.5t128.5 -166.5t44 -203.5q0 -138 -75 -272.5t-269 -329.5zM881 1075q-73 0 -118.5 -37
t-45.5 -86q0 -50 48.5 -86.5t135.5 -36.5q73 0 118.5 37t45.5 86q0 50 -48.5 86.5t-135.5 36.5z" />
    <glyph glyph-name="colon" unicode=":" horiz-adv-x="593" 
d="M317 -31q-85 0 -144.5 60t-59.5 145q0 99 71 172.5t164 73.5q85 0 145 -60t60 -145q0 -99 -71.5 -172.5t-164.5 -73.5zM440 666q-85 0 -144.5 59.5t-59.5 144.5q0 99 71 172.5t164 73.5q85 0 145 -60t60 -145q0 -99 -71.5 -172t-164.5 -73z" />
    <glyph glyph-name="semicolon" unicode=";" horiz-adv-x="593" 
d="M82 -307h-41l31 153h30q141 0 185 134l10 30q-21 -10 -41 -10q-70 0 -112 45.5t-42 128.5q0 99 71.5 172.5t164.5 73.5q94 0 149.5 -61.5t55.5 -174.5q0 -228 -126 -359.5t-335 -131.5zM440 666q-85 0 -144.5 59.5t-59.5 144.5q0 99 71 172.5t164 73.5q85 0 145 -60
t60 -145q0 -99 -71.5 -172t-164.5 -73z" />
    <glyph glyph-name="less" unicode="&#x3c;" horiz-adv-x="1105" 
d="M1116 0l-921 328v430l921 327v-358l-532 -174v-21l532 -174v-358z" />
    <glyph glyph-name="equal" unicode="=" horiz-adv-x="1105" 
d="M1126 154h-901v348h901v-348zM1126 614h-901v349h901v-349z" />
    <glyph glyph-name="greater" unicode="&#x3e;" horiz-adv-x="1105" 
d="M1147 328l-922 -328v358l533 174v21l-533 174v358l922 -327v-430z" />
    <glyph glyph-name="question" unicode="?" horiz-adv-x="1368" 
d="M1491 1044q0 -82 -34 -145t-85 -99.5t-114 -70t-119 -58.5t-101 -63.5t-59 -85.5h-465q11 77 44 138.5t76.5 100t93.5 68t97.5 49.5t86.5 38t63 39.5t24 48.5q0 92 -153 92q-43 0 -78 -12.5t-54 -31t-31.5 -36.5t-16.5 -30l-4 -13h-488q3 10 9 28.5t30.5 70.5t56.5 99.5
t90 105.5t127 99.5t171 70t219 28.5q149 0 268 -35.5t193.5 -96t113.5 -137t39 -162.5zM680 -31q-85 0 -145 60t-60 145q0 99 71.5 172.5t164.5 73.5q85 0 144.5 -60t59.5 -145q0 -99 -71 -172.5t-164 -73.5z" />
    <glyph glyph-name="at" unicode="@" horiz-adv-x="1681" 
d="M1774 836q0 -241 -152 -385t-424 -144h-213l16 82h-10q-2 -4 -6 -11t-19 -24.5t-33 -31t-49 -24.5t-65 -11q-110 0 -183 81t-73 216q0 173 103 286t245 113q27 0 51 -6t40.5 -15t30 -20t21.5 -21.5t13.5 -20t7.5 -14.5l2 -5h10l15 82h307l-72 -410q70 0 120 67.5
t50 194.5q0 76 -31.5 142.5t-90.5 118.5t-152.5 82t-208.5 30q-162 0 -297 -76t-215 -215.5t-80 -314.5q0 -219 148 -349.5t399 -130.5q74 0 144.5 11t104.5 21l34 11l-43 -243q-14 -5 -39 -12.5t-100 -20t-148 -12.5q-172 0 -316.5 55t-243 150t-153.5 225t-55 278
q0 183 69.5 345.5t187.5 276.5t279 180.5t338 66.5q172 0 313 -48t232.5 -130t141 -190t49.5 -230zM952 512q35 0 63.5 43t28.5 121q0 43 -17.5 62.5t-43.5 19.5q-35 0 -63.5 -43t-28.5 -121q0 -43 17.5 -62.5t43.5 -19.5z" />
    <glyph glyph-name="A" unicode="A" 
d="M1085 0l-24 266h-440l-119 -266h-512l651 1434h809l137 -1434h-502zM934 1004l-168 -379h276l-26 379h-82z" />
    <glyph glyph-name="B" unicode="B" horiz-adv-x="1566" 
d="M983 1075h-158l-32 -184h180q53 0 82.5 27.5t29.5 74.5q0 34 -25.5 58t-76.5 24zM375 1434h792q220 0 340.5 -94.5t120.5 -233.5q0 -59 -16 -109t-41.5 -84t-56 -61t-61.5 -42.5t-56.5 -26t-41.5 -13.5l-16 -4l-2 -21q9 -2 24.5 -7.5t55.5 -28.5t70 -52.5t55 -84.5
t25 -121q0 -198 -144.5 -324.5t-398.5 -126.5h-901zM698 358h228q129 0 129 123q0 47 -31.5 75t-91.5 28h-195z" />
    <glyph glyph-name="C" unicode="C" horiz-adv-x="1732" 
d="M1055 1475q319 0 515 -168t245 -447h-504q-2 7 -6 19.5t-23.5 44.5t-46 56t-77.5 44t-114 20q-135 0 -226 -103t-91 -275q0 -129 69.5 -203t186.5 -74q56 0 106 18.5t81.5 45t54.5 53t33 44.5l10 19h516q-3 -13 -10.5 -35t-37.5 -85t-68 -121t-105.5 -128t-146.5 -121
t-195 -85.5t-248 -34.5q-177 0 -324 52.5t-246 145.5t-153.5 221t-54.5 277q0 167 66 318t179 261.5t273.5 175.5t341.5 65z" />
    <glyph glyph-name="D" unicode="D" horiz-adv-x="1587" 
d="M788 0h-665l252 1434h516q165 0 306 -52.5t237 -141.5t150 -209.5t54 -254.5q0 -155 -64.5 -297t-175.5 -248t-270.5 -168.5t-339.5 -62.5zM711 430h57q141 0 239.5 92.5t98.5 237.5q0 107 -71 175.5t-185 68.5h-39z" />
    <glyph glyph-name="E" unicode="E" horiz-adv-x="1388" 
d="M707 410h665l-72 -410h-1177l252 1434h1177l-71 -410h-666l-22 -133h522l-62 -348h-522z" />
    <glyph glyph-name="F" unicode="F" horiz-adv-x="1347" 
d="M717 461l-82 -461h-512l252 1434h1167l-72 -410h-655l-37 -215h492l-62 -348h-491z" />
    <glyph glyph-name="G" unicode="G" horiz-adv-x="1863" 
d="M1278 512h-164l53 297h820l-54 -297h-153q-4 -12 -13 -31.5t-43 -77t-74.5 -110t-109.5 -116t-147 -109.5t-188.5 -77.5t-231.5 -31.5q-177 0 -324 52.5t-246 145.5t-153.5 221t-54.5 277q0 167 66 318t179 261.5t273.5 175.5t341.5 65q132 0 244 -30t186 -78t133.5 -106
t92 -116.5t54 -106.5t28.5 -78l7 -30h-516q-2 5 -7 12.5t-24.5 27t-44.5 34.5t-68.5 27.5t-95.5 12.5q-135 0 -226 -103t-91 -275q0 -129 69.5 -203t186.5 -74q60 0 112.5 12.5t84.5 30.5t55.5 36.5t32.5 31.5z" />
    <glyph glyph-name="H" unicode="H" horiz-adv-x="1675" 
d="M123 0l252 1434h512l-86 -492h409l86 492h512l-252 -1434h-512l86 492h-409l-86 -492h-512z" />
    <glyph glyph-name="I" unicode="I" horiz-adv-x="753" 
d="M887 1434l-252 -1434h-512l252 1434h512z" />
    <glyph glyph-name="J" unicode="J" horiz-adv-x="1370" 
d="M1493 1434l-164 -936q-43 -250 -218.5 -394.5t-444.5 -144.5q-255 0 -409.5 120.5t-195.5 309.5l455 88q2 -4 5 -9.5t15.5 -21t28 -27t42.5 -21t59 -9.5q131 0 155 143l160 902h512z" />
    <glyph glyph-name="K" unicode="K" horiz-adv-x="1572" 
d="M1044 0l-198 502h-123l-88 -502h-512l252 1434h512l-82 -471h102l348 471h574l-526 -666l315 -768h-574z" />
    <glyph glyph-name="L" unicode="L" horiz-adv-x="1267" 
d="M715 451h645l-80 -451h-1157l252 1434h512z" />
    <glyph glyph-name="M" unicode="M" horiz-adv-x="2043" 
d="M1493 1434h684l-252 -1434h-512l115 653l63 187h-20l-254 -512h-471l-74 512h-22v-187l-115 -653h-512l252 1434h678l77 -666h52z" />
    <glyph glyph-name="N" unicode="N" horiz-adv-x="1705" 
d="M1221 758h24v205l82 471h512l-252 -1434h-553l-291 676h-24v-195l-84 -481h-512l252 1434h553z" />
    <glyph glyph-name="O" unicode="O" horiz-adv-x="1761" 
d="M973 389q135 0 226 103.5t91 275.5q0 129 -69.5 202.5t-186.5 73.5q-135 0 -226 -103t-91 -275q0 -129 69.5 -203t186.5 -74zM963 -41q-177 0 -324 52.5t-246.5 145.5t-154 221t-54.5 277q0 167 66 318t179 261.5t273.5 175.5t341.5 65q177 0 324 -53t246.5 -146
t154 -221t54.5 -277q0 -167 -66 -318t-179 -261t-273.5 -175t-341.5 -65z" />
    <glyph glyph-name="P" unicode="P" horiz-adv-x="1570" 
d="M764 737h223q69 0 116.5 47.5t47.5 116.5q0 55 -36 89t-97 34h-203zM375 1434h745q120 0 224 -40t176 -107.5t112.5 -159.5t40.5 -195q0 -125 -48 -236.5t-131 -192.5t-201.5 -128t-254.5 -47h-346l-57 -328h-512z" />
    <glyph glyph-name="Q" unicode="Q" horiz-adv-x="1761" 
d="M1833 778q0 -297 -193.5 -521.5t-496.5 -283.5l-70 -393h-512l76 434q-209 82 -325.5 250.5t-116.5 390.5q0 167 66 318t179 261.5t273.5 175.5t341.5 65q177 0 324 -53t246 -146t153.5 -221t54.5 -277zM983 389q135 0 226 103.5t91 275.5q0 129 -69.5 202.5t-186.5 73.5
q-135 0 -226 -103t-91 -275q0 -129 69.5 -203t186.5 -74z" />
    <glyph glyph-name="R" unicode="R" horiz-adv-x="1585" 
d="M1360 471l176 -471h-512l-135 389h-184l-70 -389h-512l252 1434h760q120 0 222.5 -38t172 -103t108.5 -153.5t39 -187.5q0 -77 -17.5 -145.5t-45.5 -116t-62 -86.5t-67.5 -63t-61.5 -40.5t-45 -22.5zM772 778h240q62 0 102.5 41.5t40.5 104.5q0 45 -30.5 72.5t-84.5 27.5
h-225z" />
    <glyph glyph-name="S" unicode="S" horiz-adv-x="1492" 
d="M983 410q0 28 -25 51.5t-67 42t-96.5 37.5t-114.5 40.5t-120.5 46.5t-115 60.5t-96.5 78.5t-67 104t-25 133q0 93 42.5 177.5t120.5 150t200.5 104.5t271.5 39q102 0 190.5 -16.5t152 -45t116.5 -65t87.5 -77t61 -81t40.5 -77t22.5 -65t10.5 -44.5l3 -17h-510q0 5 -2 13
t-12 28.5t-25.5 36t-48.5 28.5t-76 13q-50 0 -81.5 -23t-31.5 -49q0 -19 25 -36.5t68 -33t98.5 -32.5t116.5 -38t122 -46.5t116.5 -61.5t98.5 -79.5t68 -104t25 -131.5q0 -100 -46 -192t-129 -163.5t-210.5 -114t-280.5 -42.5q-140 0 -255.5 29.5t-189 74t-129 103.5
t-83.5 111.5t-45 104.5t-21 76.5t-4 33.5h502q0 -4 3 -18t16.5 -40.5t35 -49t63.5 -39.5t97 -17q65 0 99 24t34 58z" />
    <glyph glyph-name="T" unicode="T" horiz-adv-x="1411" 
d="M604 983h-430l80 451h1372l-80 -451h-430l-174 -983h-512z" />
    <glyph glyph-name="U" unicode="U" horiz-adv-x="1646" 
d="M1120 600l148 834h512l-158 -899q-22 -125 -80 -229.5t-147.5 -182t-216.5 -121t-277 -43.5q-239 0 -404 84t-235.5 242.5t-32.5 371.5l138 777h512l-142 -799q-18 -102 31 -163.5t154 -61.5q78 0 129.5 47.5t68.5 142.5z" />
    <glyph glyph-name="V" unicode="V" horiz-adv-x="1525" 
d="M858 430l391 1004h512l-610 -1434h-819l-117 1434h551v-1004h92z" />
    <glyph glyph-name="W" unicode="W" horiz-adv-x="2140" 
d="M1022 1434h563v-820h21l258 820h491l-538 -1434h-621v778h-20l-271 -778h-669v1434h479v-820h20z" />
    <glyph glyph-name="X" unicode="X" horiz-adv-x="1552" 
d="M303 1434h533l77 -492h103l239 492h523l-422 -717l231 -717h-563l-109 492h-81l-271 -492h-553l475 717z" />
    <glyph glyph-name="Y" unicode="Y" horiz-adv-x="1474" 
d="M1219 1434h512l-674 -922l-90 -512h-512l90 512l-350 922h512l159 -492h21z" />
    <glyph glyph-name="Z" unicode="Z" horiz-adv-x="1439" 
d="M82 0l72 410l708 594l4 20h-583l71 410h1260l-72 -410l-711 -594l-4 -20h627l-72 -410h-1300z" />
    <glyph glyph-name="bracketleft" unicode="[" horiz-adv-x="880" 
d="M1040 1116h-256l-184 -1044h256l-68 -379h-716l317 1802h717z" />
    <glyph glyph-name="backslash" unicode="\" horiz-adv-x="1007" 
d="M727 1434l281 -1434h-471l-281 1434h471z" />
    <glyph glyph-name="bracketright" unicode="]" horiz-adv-x="880" 
d="M498 1116h-256l65 379h717l-317 -1802h-717l67 379h256z" />
    <glyph glyph-name="asciicircum" unicode="^" horiz-adv-x="1126" 
d="M942 1434l318 -676h-379l-164 348h-41l-164 -348h-379l318 676h491z" />
    <glyph glyph-name="underscore" unicode="_" horiz-adv-x="860" 
d="M870 -471h-942l62 348h942z" />
    <glyph glyph-name="grave" unicode="`" horiz-adv-x="643" 
d="M657 1434l88 -318h-276l-244 307l2 11h430z" />
    <glyph glyph-name="a" unicode="a" horiz-adv-x="1419" 
d="M885 133h-21q-4 -7 -12.5 -18t-38 -39t-63 -50t-87.5 -39.5t-112 -17.5q-178 0 -287.5 120t-109.5 331q0 160 44 293.5t117.5 220t166.5 134.5t194 48q52 0 98.5 -9.5t79 -25t59.5 -34.5t44 -37.5t28.5 -34t16.5 -24.5l6 -9h20l23 143h471l-191 -1085h-471zM778 348
q72 0 128.5 64.5t56.5 160.5q0 74 -39 119t-95 45q-72 0 -128 -64.5t-56 -160.5q0 -74 38.5 -119t94.5 -45z" />
    <glyph glyph-name="b" unicode="b" horiz-adv-x="1421" 
d="M731 952h21q4 7 12.5 18t38 39t63 50t87.5 39.5t112 17.5q178 0 287.5 -119.5t109.5 -330.5q0 -160 -44 -294t-117.5 -220.5t-166.5 -134.5t-194 -48q-52 0 -98.5 9.5t-79 25t-59.5 34.5t-44 37.5t-28.5 34t-16.5 24.5l-6 9h-20l-25 -143h-471l252 1434h471zM838 737
q-72 0 -128.5 -64.5t-56.5 -160.5q0 -74 38.5 -119t94.5 -45q72 0 128.5 64.5t56.5 160.5q0 74 -38.5 119t-94.5 45z" />
    <glyph glyph-name="c" unicode="c" horiz-adv-x="1361" 
d="M1413 625h-471q0 5 -1.5 13.5t-10.5 29.5t-23 37t-42.5 29.5t-65.5 13.5q-67 0 -115.5 -65t-48.5 -181q0 -82 33.5 -123t89.5 -41q29 0 55 10.5t42.5 25t29.5 29t19 25.5l5 10h484q-2 -10 -7 -27t-26 -65.5t-49.5 -93t-81 -98.5t-116 -93t-159 -65.5t-206.5 -26.5
q-175 0 -311.5 71.5t-209.5 192.5t-73 269q0 125 51 238.5t138 196t209.5 131t258.5 48.5q103 0 190.5 -21.5t148 -56t108 -80.5t76 -92t47 -94t25.5 -84t7 -63z" />
    <glyph glyph-name="d" unicode="d" horiz-adv-x="1419" 
d="M885 133h-21q-4 -7 -12.5 -18t-38 -39t-63 -50t-87.5 -39.5t-112 -17.5q-178 0 -287.5 120t-109.5 331q0 160 44 293.5t117.5 220t166.5 134.5t194 48q52 0 98.5 -9.5t79 -25t59.5 -34.5t44 -37.5t28.5 -34t16.5 -24.5l6 -9h20l84 492h471l-252 -1434h-471zM778 348
q72 0 128.5 64.5t56.5 160.5q0 74 -39 119t-95 45q-72 0 -128 -64.5t-56 -160.5q0 -74 38.5 -119t94.5 -45z" />
    <glyph glyph-name="e" unicode="e" horiz-adv-x="1378" 
d="M748 -31q-175 0 -311.5 71.5t-209.5 192.5t-73 269q0 125 51 238.5t138 196t208.5 131t257.5 48.5q135 0 249 -41t190 -112t118.5 -166.5t42.5 -202.5q0 -22 -1.5 -42.5t-3.5 -29.5l-1 -10h-762q-6 -30 -6 -61q0 -73 32.5 -113.5t80.5 -40.5q29 0 54 9.5t41 23t28 27
t17 23.5l5 9h489q-3 -9 -9.5 -24t-32 -58.5t-56.5 -83.5t-84.5 -88.5t-115 -83t-150 -58.5t-186.5 -24zM819 788q-59 0 -98 -39t-55 -104h276q0 68 -34 105.5t-89 37.5z" />
    <glyph glyph-name="f" unicode="f" horiz-adv-x="897" 
d="M143 707l56 317h143l74 410h737l-57 -318h-267l-16 -92h225l-55 -317h-225l-125 -707h-471l125 707h-144z" />
    <glyph glyph-name="g" unicode="g" horiz-adv-x="1427" 
d="M903 195h-20q-4 -7 -12.5 -18t-39 -39t-65 -50t-90.5 -39.5t-117 -17.5q-176 0 -286.5 115t-110.5 305q0 149 44 276t117 211t167 131t194 47q52 0 98.5 -10t79.5 -25t60 -34t44 -37.5t29 -34t17 -24.5l4 -9h20l23 143h471l-260 -1474h-1127l56 317h655zM797 410
q72 0 123 51t51 133q0 63 -38.5 103t-105.5 40q-72 0 -123 -51t-51 -133q0 -63 38.5 -103t105.5 -40z" />
    <glyph glyph-name="h" unicode="h" horiz-adv-x="1374" 
d="M662 565l-99 -565h-471l252 1434h471l-88 -492h21q5 7 14.5 19t41 42t66 52.5t87.5 41.5t108 19q90 0 160.5 -29t118 -87.5t63 -147t-3.5 -207.5l-113 -645h-471l101 573q13 76 -13 115t-88 39q-57 0 -100.5 -41.5t-56.5 -120.5z" />
    <glyph glyph-name="i" unicode="i" horiz-adv-x="645" 
d="M92 0l191 1085h471l-191 -1085h-471zM553 1167q-119 0 -182.5 53.5t-63.5 141.5q0 101 71 168t185 67q119 0 182.5 -53t63.5 -141q0 -101 -71 -168.5t-185 -67.5z" />
    <glyph glyph-name="j" unicode="j" horiz-adv-x="653" 
d="M762 1085l-260 -1474h-717l55 317h246l205 1157h471zM561 1167q-119 0 -182.5 53.5t-63.5 141.5q0 101 71 168t185 67q119 0 182.5 -53t63.5 -141q0 -101 -71 -168.5t-185 -67.5z" />
    <glyph glyph-name="k" unicode="k" horiz-adv-x="1296" 
d="M625 348l-62 -348h-471l252 1434h471l-123 -697h72l225 348h481l-348 -522l189 -563h-482l-112 348h-92z" />
    <glyph glyph-name="l" unicode="l" horiz-adv-x="823" 
d="M815 1434l-197 -1117h246l-55 -317h-717l252 1434h471z" />
    <glyph glyph-name="m" unicode="m" horiz-adv-x="2039" 
d="M1485 0l100 573q27 154 -86 154q-58 0 -92 -36.5t-47 -117.5l-100 -573h-472l101 573q27 154 -86 154q-58 0 -92 -36.5t-47 -117.5l-101 -573h-471l191 1085h471l-27 -143h21q5 7 14.5 19t41 42t66 52.5t87.5 41.5t108 19q66 0 122 -18t88.5 -43.5t56 -51t32.5 -43.5
l8 -18h21q4 7 12.5 19t38 42t64 52.5t92 41.5t120.5 19q193 0 290.5 -121t57.5 -350l-112 -645h-471z" />
    <glyph glyph-name="n" unicode="n" horiz-adv-x="1374" 
d="M662 565l-99 -565h-471l191 1085h471l-27 -143h21q5 7 14.5 19t41 42t66 52.5t87.5 41.5t108 19q90 0 160.5 -29t118 -87.5t63 -147t-3.5 -207.5l-113 -645h-471l101 573q13 76 -13 115t-88 39q-57 0 -100.5 -41.5t-56.5 -120.5z" />
    <glyph glyph-name="o" unicode="o" horiz-adv-x="1392" 
d="M778 338q73 0 129 68t56 178q0 164 -144 164q-73 0 -128.5 -68t-55.5 -178q0 -164 143 -164zM768 -31q-139 0 -255.5 41.5t-194.5 113.5t-121 169.5t-43 208.5q0 126 50 238.5t137.5 195.5t214.5 131.5t273 48.5q139 0 255.5 -41.5t194.5 -113t121.5 -169t43.5 -208.5
q0 -126 -50 -238.5t-138 -196t-215 -132t-273 -48.5z" />
    <glyph glyph-name="p" unicode="p" horiz-adv-x="1419" 
d="M729 952h21q4 7 12.5 18t38 39t63 50t87.5 39.5t112 17.5q178 0 287.5 -119.5t109.5 -330.5q0 -160 -44 -294t-117.5 -220.5t-166.5 -134.5t-194 -48q-52 0 -98.5 9.5t-79 25t-59.5 34.5t-44 37.5t-28.5 34t-16.5 24.5l-6 9h-20l-94 -532h-472l263 1474h471zM836 737
q-72 0 -128.5 -64.5t-56.5 -160.5q0 -74 38.5 -119t94.5 -45q72 0 128.5 64.5t56.5 160.5q0 74 -38.5 119t-94.5 45z" />
    <glyph glyph-name="q" unicode="q" horiz-adv-x="1421" 
d="M885 133h-21q-4 -7 -12.5 -18t-38 -39t-63 -50t-87.5 -39.5t-112 -17.5q-178 0 -287.5 120t-109.5 331q0 160 44 293.5t117.5 220t166.5 134.5t194 48q52 0 98.5 -9.5t79 -25t59.5 -34.5t44 -37.5t28.5 -34t16.5 -24.5l6 -9h20l25 143h471l-260 -1474h-471zM778 348
q72 0 128.5 64.5t56.5 160.5q0 74 -39 119t-95 45q-72 0 -128 -64.5t-56 -160.5q0 -74 38.5 -119t94.5 -45z" />
    <glyph glyph-name="r" unicode="r" horiz-adv-x="952" 
d="M1096 1106l-82 -461h-197q-75 0 -113.5 -32t-50.5 -101l-90 -512h-471l191 1085h450l-26 -153h20q4 7 11.5 19t33 42t55.5 52.5t77.5 41.5t99.5 19h92z" />
    <glyph glyph-name="s" unicode="s" horiz-adv-x="1232" 
d="M219 748q0 161 127.5 264.5t364.5 103.5q89 0 165 -13t130.5 -35t99 -50.5t72.5 -59.5t49 -62.5t31.5 -60t16.5 -50.5t7 -35l2 -13h-428q0 3 -1.5 9.5t-8 17.5t-16 21t-27.5 17t-41 7q-29 0 -45.5 -12.5t-16.5 -28.5q0 -18 30 -34.5t78 -32t106 -34t115.5 -46
t105.5 -62.5t78 -89.5t30 -121.5q0 -170 -132 -274.5t-390 -104.5q-123 0 -223.5 22t-162 57.5t-107 78t-66.5 85t-33.5 78t-14.5 57.5l-1 22h434q0 -4 1 -10t8 -22t19.5 -28.5t40 -22.5t64.5 -10q42 0 62 12t20 29q0 20 -30 38t-78 33.5t-105.5 34t-115.5 46.5t-106 63.5
t-78 91t-30 124.5z" />
    <glyph glyph-name="t" unicode="t" horiz-adv-x="956" 
d="M154 768l55 317h143l41 226h471l-41 -226h246l-55 -317h-246l-80 -451h266l-55 -317h-737l135 768h-143z" />
    <glyph glyph-name="u" unicode="u" horiz-adv-x="1374" 
d="M907 520l99 565h471l-191 -1085h-471l27 143h-21q-5 -7 -14.5 -19t-41 -42t-66 -52.5t-87.5 -41.5t-108 -19q-90 0 -160.5 29t-118 87.5t-63 147t3.5 207.5l113 645h471l-101 -573q-13 -76 13 -115t88 -39q57 0 100.5 41.5t56.5 120.5z" />
    <glyph glyph-name="v" unicode="v" horiz-adv-x="1269" 
d="M184 0v1085h467v-716h62l260 716h481l-436 -1085h-834z" />
    <glyph glyph-name="w" unicode="w" horiz-adv-x="1884" 
d="M891 1085h465v-614h30l191 614h461l-396 -1085h-600v614h-20l-199 -614h-628v1085h454v-614h31z" />
    <glyph glyph-name="x" unicode="x" horiz-adv-x="1306" 
d="M809 0l-64 338h-61l-182 -338h-502l367 573l-156 512h491l66 -327h41l180 327h492l-336 -512l166 -573h-502z" />
    <glyph glyph-name="y" unicode="y" horiz-adv-x="1310" 
d="M686 1085v-696h31l276 696h492l-647 -1474h-473l182 389h-277l-75 1085h491z" />
    <glyph glyph-name="z" unicode="z" horiz-adv-x="1183" 
d="M1243 717l-477 -328l-4 -20h440l-65 -369h-1065l65 369l477 327l4 21h-399l64 368h1024z" />
    <glyph glyph-name="braceleft" unicode="{" horiz-adv-x="921" 
d="M829 -307h-327q-140 0 -217.5 70.5t-77.5 197.5q0 22 8 80l51 287v16q0 45 -43 45h-90l72 410h90q53 0 65 61l50 287q28 161 138.5 254.5t270.5 93.5h328l-66 -379h-153q-65 0 -74 -61l-39 -226q-6 -31 -17 -59t-24.5 -48t-30 -37.5t-32.5 -29.5t-32.5 -21.5t-30 -14.5
t-24.5 -9t-16 -5l-6 -1l-4 -20q6 -1 15 -3.5t32.5 -14.5t41.5 -29.5t33 -51t15 -75.5q0 -16 -4 -52l-39 -225q-2 -6 -2 -18q0 -43 53 -43h154z" />
    <glyph glyph-name="bar" unicode="|" horiz-adv-x="921" 
d="M809 1536v-1741h-430v1741h430z" />
    <glyph glyph-name="braceright" unicode="}" horiz-adv-x="921" 
d="M317 -307h-327l67 379h154q60 0 72 61l39 225q9 55 34.5 98t55.5 66t58.5 38t47.5 20l19 4l2 20q-6 1 -15 3.5t-33 14.5t-42 29.5t-33 51t-15 75.5q0 28 5 51l38 226q2 6 2 18q0 43 -51 43h-153l65 379h328q139 0 216 -71.5t77 -198.5q0 -37 -6 -78l-50 -287
q-2 -8 -2 -20q0 -41 43 -41h91l-72 -410h-90q-55 0 -64 -61l-51 -287q-29 -161 -139 -254.5t-271 -93.5z" />
    <glyph glyph-name="asciitilde" unicode="~" horiz-adv-x="1167" 
d="M799 748q31 0 51 19.5t20 51.5v31h328v-195q0 -136 -69.5 -211t-186.5 -75q-62 0 -117.5 16t-88 35t-71 35t-71.5 16q-31 0 -51.5 -20t-20.5 -52v-30h-327v194q0 128 73.5 207.5t182.5 79.5q62 0 117.5 -16t88 -35t71 -35t71.5 -16z" />
    <glyph glyph-name="nbspace" unicode="&#xa0;" horiz-adv-x="573" 
 />
    <glyph glyph-name="exclamdown" unicode="&#xa1;" horiz-adv-x="716" 
d="M72 -389l102 604l143 348h308v-348l-82 -604h-471zM532 1116q85 0 145 -60t60 -145q0 -99 -71 -172t-164 -73q-85 0 -145 59.5t-60 144.5q0 99 71 172.5t164 73.5z" />
    <glyph glyph-name="cent" unicode="&#xa2;" horiz-adv-x="1361" 
d="M438 -184l37 207q-151 64 -236 191.5t-85 287.5q0 218 143.5 385t366.5 213l30 170h410l-35 -195q79 -29 142.5 -77.5t100 -99t60.5 -106t32.5 -96t8.5 -71.5h-471q0 5 -1.5 13.5t-10.5 29.5t-23 37t-42.5 29.5t-65.5 13.5q-67 0 -115.5 -65t-48.5 -181q0 -82 33.5 -123
t89.5 -41q29 0 55 10.5t42.5 25t29.5 29t19 25.5l5 10h484q-2 -8 -6 -22.5t-21.5 -56.5t-40 -81t-65 -89.5t-93 -89.5t-126.5 -72.5t-164 -46.5l-29 -164h-410z" />
    <glyph glyph-name="sterling" unicode="&#xa3;" horiz-adv-x="1392" 
d="M883 881h276l-51 -287h-277l-6 -31q-8 -43 -27.5 -78t-42 -54t-44 -31.5t-35.5 -16.5l-14 -4l-3 -10h768l-65 -369h-1311l66 369h20q68 0 111.5 35.5t54.5 97.5l16 92h-122l51 287h123l28 172q32 196 183 319t401 123q262 0 407.5 -129.5t145.5 -341.5h-473v18
q0 74 -70 74q-71 0 -88 -106z" />
    <glyph glyph-name="currency" unicode="&#xa4;" horiz-adv-x="1568" 
d="M1143 553h-346l-25 -133h389l-45 -256h-389l-29 -164h-512l29 164h-143l45 256h143l25 133h-144l45 266h144l108 615h725q248 0 388.5 -116t140.5 -288q0 -214 -146 -345.5t-403 -131.5zM1047 1106h-154l-51 -287h174q70 0 111.5 44.5t41.5 123.5q0 119 -122 119z" />
    <glyph glyph-name="yen" unicode="&#xa5;" horiz-adv-x="1474" 
d="M260 522l39 226h215l-319 686h512l174 -410h20l318 410h512l-562 -686h215l-38 -226h-287l-25 -133h287l-39 -225h-287l-28 -164h-512l28 164h-286l39 225h286l25 133h-287z" />
    <glyph glyph-name="brokenbar" unicode="&#xa6;" horiz-adv-x="921" 
d="M809 1536v-748h-430v748h430zM809 543v-748h-430v748h430z" />
    <glyph glyph-name="section" unicode="&#xa7;" horiz-adv-x="1361" 
d="M1413 692q-8 -46 -36 -84t-62 -59t-67 -35.5t-55 -19.5l-22 -5l-4 -20q4 -3 11 -9t25 -26t31.5 -41.5t24.5 -54t11 -64.5q0 -62 -30.5 -117.5t-89.5 -100.5t-157.5 -71t-224.5 -26q-154 0 -268.5 25.5t-188 76t-116 117t-62.5 156.5h447q0 -6 0.5 -12t7 -23.5t18.5 -29.5
t39.5 -22.5t65.5 -10.5q43 0 65.5 15.5t22.5 37.5q0 17 -26 33t-68 30.5t-96.5 33t-110.5 38t-110.5 48.5t-96.5 62t-68 80t-26 101q0 56 25.5 102t59.5 72.5t72 44.5t61 24.5t27 6.5l4 20q-4 3 -11.5 9t-25.5 26t-32 41.5t-25.5 54t-11.5 64.5q0 61 32 117t92 100.5t156 71
t214 26.5q95 0 176.5 -12.5t140 -34t106.5 -49t78.5 -58.5t54 -61.5t35 -58t19 -49t8.5 -34.5l2 -12h-438q0 5 -1 12t-7.5 23t-17 27.5t-34 21t-55.5 9.5q-38 0 -60 -14.5t-22 -37.5q0 -17 25.5 -33.5t67.5 -31t96 -34t110 -39.5t110 -49.5t96 -63t67.5 -80.5t25.5 -101
q0 -15 -4 -43zM831 774l-96 41q-6 -1 -14.5 -4t-22.5 -18.5t-14 -38.5q0 -20 21 -37t77 -41l97 -41q6 1 14.5 4t22.5 18.5t14 38.5q0 19 -21 36.5t-78 41.5z" />
    <glyph glyph-name="dieresis" unicode="&#xa8;" horiz-adv-x="1003" 
d="M451 1065q-84 0 -134.5 48.5t-50.5 125.5q0 92 61.5 153.5t153.5 61.5q84 0 134.5 -48.5t50.5 -125.5q0 -92 -61.5 -153.5t-153.5 -61.5zM932 1065q-84 0 -134 48.5t-50 125.5q0 92 61.5 153.5t153.5 61.5q84 0 134 -48.5t50 -125.5q0 -92 -61.5 -153.5t-153.5 -61.5z
" />
    <glyph glyph-name="copyright" unicode="&#xa9;" horiz-adv-x="1720" 
d="M1792 717q0 -152 -62 -291t-168 -242t-254.5 -164t-314.5 -61t-314.5 61t-254 164t-167.5 242t-62 291t62 291t167.5 242t254 164t314.5 61t314.5 -61t254.5 -164t168 -242t62 -291zM1526 717q0 142 -68.5 259t-191 185t-273.5 68t-273 -68t-190.5 -185t-68.5 -259
t68.5 -259t190.5 -185t273 -68t273.5 68t191 185t68.5 259zM1004 829q-47 0 -75 -29.5t-28 -82.5t28 -83t75 -30q32 0 55.5 15.5t30.5 30.5l8 16h274q-1 -7 -3 -18.5t-13 -44.5t-26.5 -63t-46 -66.5t-68 -63t-96.5 -44.5t-128 -18q-159 0 -268 107.5t-109 261.5t109 261
t270 107q69 0 127 -17.5t96 -45.5t68 -62t45.5 -67.5t26 -61.5t13.5 -45l3 -18h-274q-1 2 -3 6.5t-9.5 15t-17 18.5t-27 14.5t-37.5 6.5z" />
    <glyph glyph-name="ordfeminine" unicode="&#xaa;" horiz-adv-x="835" 
d="M655 1044h-71q-29 0 -45.5 -12t-16.5 -28q0 -41 51 -41q31 0 53 21.5t29 59.5zM623 850h-11q-2 -5 -7 -12.5t-22.5 -27t-37.5 -34.5t-54 -27t-71 -12q-92 0 -148.5 55t-56.5 140q0 86 63.5 145.5t161.5 59.5h234l8 51q5 27 -9.5 44t-41.5 17q-23 0 -41 -15.5t-24 -30.5
l-7 -15h-272q1 6 4 15.5t15 37t28 52.5t45.5 56t64.5 53t87.5 37t113.5 15q173 0 257.5 -86.5t60.5 -220.5l-70 -389h-287z" />
    <glyph glyph-name="guillemotleft" unicode="&#xab;" horiz-adv-x="1447" 
d="M795 217l-289 -227l-383 553l579 553l224 -248l-353 -326zM1399 217l-289 -227l-383 553l580 553l223 -248l-352 -326z" />
    <glyph glyph-name="logicalnot" unicode="&#xac;" horiz-adv-x="1105" 
d="M205 471v369h921v-574h-389v205h-532z" />
    <glyph glyph-name="uni00AD" unicode="&#xad;" horiz-adv-x="1017" 
d="M1004 369h-861l66 368h860z" />
    <glyph glyph-name="registered" unicode="&#xae;" horiz-adv-x="1228" 
d="M748 348q-161 0 -295.5 76.5t-211.5 205.5t-77 281t77 281.5t211.5 206t295.5 76.5q121 0 229.5 -45t185.5 -121.5t122.5 -180.5t45.5 -217t-45.5 -217t-122.5 -180t-185.5 -121t-229.5 -45zM748 543q55 0 104.5 12.5t81 30.5t55.5 36.5t35 31.5l10 12h-184l-92 133h-21
v-133h-205v501h256q113 0 174.5 -53.5t61.5 -140.5q0 -30 -7.5 -55.5t-18 -41t-21 -27t-17.5 -15.5l-8 -5l97 -141q3 3 7.5 9.5t16 28t20.5 45.5t16 62t7 78q0 161 -103.5 265t-264.5 104t-265 -104t-104 -265t104 -264.5t265 -103.5zM768 1014h-31v-82h31q51 0 51 41
t-51 41z" />
    <glyph glyph-name="macron" unicode="&#xaf;" horiz-adv-x="903" 
d="M266 1167l43 246h738l-43 -246h-738z" />
    <glyph glyph-name="degree" unicode="&#xb0;" horiz-adv-x="696" 
d="M532 1454q130 0 213.5 -81.5t83.5 -205.5t-83.5 -205t-213.5 -81t-213 81t-83 205t83 205.5t213 81.5zM604 1167q0 31 -20.5 51.5t-51.5 20.5t-51 -20.5t-20 -51.5t20 -51t51 -20t51.5 20t20.5 51z" />
    <glyph glyph-name="plusminus" unicode="&#xb1;" horiz-adv-x="1167" 
d="M236 348h296v256h-296v348h296v297h369v-297h297v-348h-297v-256h297v-348h-962v348z" />
    <glyph glyph-name="twosuperior" unicode="&#xb2;" horiz-adv-x="776" 
d="M664 1157l-2 -10l104 20h164l-39 -225h-676l39 215l205 92q19 8 51 23q104 47 134 65.5t30 44.5q0 41 -51 41q-23 0 -39.5 -12.5t-21.5 -25.5l-5 -13h-283q1 6 4 16.5t16 40t30 57t49 60.5t70 56.5t96 40t125 16.5q146 0 231.5 -67t85.5 -158q0 -146 -188 -233
q-48 -22 -129 -44z" />
    <glyph glyph-name="threesuperior" unicode="&#xb3;" horiz-adv-x="747" 
d="M543 1239h-113l21 113l180 92l2 10l-86 -20h-236l37 204h604l-34 -194l-193 -101l-2 -12q91 -7 139.5 -53t48.5 -111q0 -103 -89 -174t-238 -71q-87 0 -153.5 22t-102 53t-58 69.5t-28.5 65t-6 46.5h274q0 -2 1.5 -4.5t5.5 -9.5t9.5 -12.5t15.5 -10t21 -4.5q23 0 37 14
t14 37q0 51 -71 51z" />
    <glyph glyph-name="acute" unicode="&#xb4;" horiz-adv-x="751" 
d="M266 1116l199 318h430l-2 -11l-350 -307h-277z" />
    <glyph glyph-name="mu" unicode="&#xb5;" horiz-adv-x="1378" 
d="M846 143h-21q-3 -7 -9 -19t-28 -42t-46.5 -52.5t-64.5 -41.5t-83 -19q-32 0 -59.5 8.5t-44 20t-28.5 24t-17 20.5t-5 9h-20l92 -348l-20 -113h-472l263 1495h471l-101 -573q-13 -76 13 -115t88 -39q57 0 100.5 41.5t56.5 120.5l99 565h471l-191 -1085h-471z" />
    <glyph glyph-name="paragraph" unicode="&#xb6;" horiz-adv-x="1228" 
d="M205 922q0 107 40.5 201t112.5 162.5t175.5 108.5t224.5 40h594v-410h-205v-1434h-430v820q-215 0 -363.5 148.5t-148.5 363.5z" />
    <glyph glyph-name="periodcentered" unicode="&#xb7;" horiz-adv-x="573" 
d="M369 358q-85 0 -145 60t-60 145q0 99 71 172.5t164 73.5q85 0 145 -60t60 -145q0 -99 -71 -172.5t-164 -73.5z" />
    <glyph glyph-name="cedilla" unicode="&#xb8;" horiz-adv-x="675" 
d="M498 41l-76 -137q8 -1 21 -3t46 -14.5t58 -31t46 -56t21 -86.5q0 -118 -90.5 -202t-226.5 -84q-64 0 -123 15.5t-86 30.5l-27 15l41 205l9 -6q9 -6 27.5 -15t41 -18.5t54 -16t63.5 -6.5q44 0 68 20t24 52q0 51 -72 51h-135l152 287h164z" />
    <glyph glyph-name="onesuperior" unicode="&#xb9;" horiz-adv-x="745" 
d="M236 942l38 225h185l41 226l-178 -82l40 235l201 92h277l-84 -471h153l-39 -225h-634z" />
    <glyph glyph-name="ordmasculine" unicode="&#xba;" horiz-adv-x="819" 
d="M584 973q42 0 72 42t30 122q0 82 -72 82q-42 0 -72 -42t-30 -122q0 -82 72 -82zM573 737q-160 0 -254 90t-94 238q0 170 112 279.5t288 109.5q160 0 254 -90t94 -238q0 -170 -112 -279.5t-288 -109.5z" />
    <glyph glyph-name="guillemotright" unicode="&#xbb;" horiz-adv-x="1447" 
d="M848 868l289 228l383 -553l-580 -553l-223 248l352 325zM244 868l288 228l383 -553l-579 -553l-223 248l352 325z" />
    <glyph glyph-name="onequarter" unicode="&#xbc;" horiz-adv-x="1820" 
d="M1710 0h-276l20 113h-369l37 204l301 379h287l-289 -358h92l93 113h184l-21 -113h72l-39 -225h-71zM205 737l39 226h184l41 225l-178 -82l41 235l200 93h277l-84 -471h154l-39 -226h-635zM1778 1434l-1112 -1434h-318l1112 1434h318z" />
    <glyph glyph-name="onehalf" unicode="&#xbd;" horiz-adv-x="1892" 
d="M205 737l39 226h184l41 225l-178 -82l41 235l200 93h277l-84 -471h154l-39 -226h-635zM1778 1434l-1112 -1434h-318l1112 1434h318zM1585 215l-2 -10l105 20h163l-39 -225h-675l39 215l204 92q19 8 51 23q104 47 134 65.5t30 44.5q0 41 -51 41q-23 0 -39 -12.5t-21 -25.5
l-5 -13h-283q1 6 4 16.5t16 40t30 57t48.5 60.5t70 56.5t96 40t124.5 16.5q146 0 232 -67t86 -158q0 -146 -188 -232q-48 -23 -130 -45z" />
    <glyph glyph-name="threequarters" unicode="&#xbe;" horiz-adv-x="1789" 
d="M522 1034h-112l20 113l180 92l2 10l-86 -20h-235l37 205h604l-35 -195l-192 -100l-3 -13q91 -7 140 -52.5t49 -110.5q0 -104 -89.5 -175t-238.5 -71q-87 0 -153.5 22t-102 53t-58 69.5t-28.5 65t-6 46.5h274q1 -5 4.5 -11.5t17.5 -18t32 -11.5q23 0 37 14t14 37
q0 51 -72 51zM1679 0h-276l20 113h-368l37 204l301 379h286l-288 -358h92l92 113h184l-20 -113h71l-38 -225h-72zM1747 1434l-1112 -1434h-318l1113 1434h317z" />
    <glyph glyph-name="questiondown" unicode="&#xbf;" horiz-adv-x="1306" 
d="M72 20q0 79 25 143.5t66 106.5t91 75t103 58.5t98.5 48t81 50.5t47.5 61h465q-11 -77 -44 -138.5t-76.5 -100t-93.5 -69t-98 -52t-87 -41.5t-63 -45t-24 -56q0 -102 154 -102q43 0 78 13.5t54 33t31.5 39.5t16.5 33l4 14h488q-3 -11 -9 -29.5t-30.5 -71.5t-56.5 -101.5
t-90 -107.5t-127 -101.5t-171 -71.5t-219 -29q-149 0 -268 35.5t-193.5 96.5t-113.5 139.5t-39 168.5zM883 1116q85 0 144.5 -60t59.5 -145q0 -99 -71 -172t-164 -73q-85 0 -145 59.5t-60 144.5q0 99 71.5 172.5t164.5 73.5z" />
    <glyph glyph-name="Agrave" unicode="&#xc0;" 
d="M1085 0l-24 266h-440l-119 -266h-512l651 1434h809l137 -1434h-502zM934 1004l-168 -379h276l-26 379h-82zM1118 1925l88 -317h-276l-244 307l2 10h430z" />
    <glyph glyph-name="Aacute" unicode="&#xc1;" 
d="M1085 0l-24 266h-440l-119 -266h-512l651 1434h809l137 -1434h-502zM934 1004l-168 -379h276l-26 379h-82zM897 1608l199 317h430l-2 -10l-350 -307h-277z" />
    <glyph glyph-name="Acircumflex" unicode="&#xc2;" 
d="M1085 0l-24 266h-440l-119 -266h-512l651 1434h809l137 -1434h-502zM934 1004l-168 -379h276l-26 379h-82zM940 1925h307l172 -305l-2 -12h-276l-60 123h-41l-104 -123h-277l3 12z" />
    <glyph glyph-name="Atilde" unicode="&#xc3;" 
d="M1085 0l-24 266h-440l-119 -266h-512l651 1434h809l137 -1434h-502zM934 1004l-168 -379h276l-26 379h-82zM1163 1853q41 0 47 41l4 21h236l-25 -143q-15 -91 -74 -143t-145 -52q-56 0 -147.5 36t-116.5 36q-41 0 -47 -41l-4 -21h-236l25 144q15 91 74 142.5t145 51.5
q56 0 147.5 -36t116.5 -36z" />
    <glyph glyph-name="Adieresis" unicode="&#xc4;" 
d="M1085 0l-24 266h-440l-119 -266h-512l651 1434h809l137 -1434h-502zM934 1004l-168 -379h276l-26 379h-82zM809 1556q-84 0 -134 49t-50 126q0 92 61.5 153.5t153.5 61.5q84 0 134 -48.5t50 -125.5q0 -92 -61.5 -154t-153.5 -62zM1290 1556q-84 0 -134 49t-50 126
q0 92 61.5 153.5t153.5 61.5q84 0 134 -48.5t50 -125.5q0 -92 -61.5 -154t-153.5 -62z" />
    <glyph glyph-name="Aring" unicode="&#xc5;" 
d="M1085 0l-24 266h-440l-119 -266h-512l651 1434h809l137 -1434h-502zM934 1004l-168 -379h276l-26 379h-82zM1034 1526q-99 0 -167 66t-68 159q0 106 84 186t192 80q99 0 167.5 -66t68.5 -159q0 -106 -84.5 -186t-192.5 -80zM1044 1690q38 0 65.5 27t27.5 65
q0 31 -20.5 51t-51.5 20q-38 0 -65 -27t-27 -65q0 -31 20 -51t51 -20z" />
    <glyph glyph-name="AE" unicode="&#xc6;" horiz-adv-x="2136" 
d="M1485 410h635l-72 -410h-1147l47 266h-338l-118 -266h-512l651 1434h1669l-72 -410h-635l-22 -133h491l-61 -348h-492zM938 1024l-182 -399h256l69 399h-143z" />
    <glyph glyph-name="Ccedilla" unicode="&#xc7;" horiz-adv-x="1732" 
d="M1055 1475q319 0 515 -168t245 -447h-504q-2 7 -6 19.5t-23.5 44.5t-46 56t-77.5 44t-114 20q-135 0 -226 -103t-91 -275q0 -129 69.5 -203t186.5 -74q56 0 106 18.5t81.5 45t54.5 53t33 44.5l10 19h516q-3 -13 -10.5 -35t-37.5 -85t-68 -121t-105.5 -128t-146.5 -121
t-195 -85.5t-248 -34.5q-3 0 -9.5 1t-9.5 1l-30 -57q8 -1 21 -3t46 -14.5t58 -31t46 -56t21 -86.5q0 -118 -90.5 -202t-226.5 -84q-64 0 -123 15.5t-86 30.5l-27 15l41 205l9 -6q9 -6 27.5 -15t41 -18.5t54 -16t63.5 -6.5q44 0 68 20t24 52q0 51 -72 51h-135l115 219
q-281 45 -442.5 230.5t-161.5 451.5q0 167 66 318t179 261.5t273.5 175.5t341.5 65z" />
    <glyph glyph-name="Egrave" unicode="&#xc8;" horiz-adv-x="1388" 
d="M707 410h665l-72 -410h-1177l252 1434h1177l-71 -410h-666l-22 -133h522l-62 -348h-522zM1047 1925l88 -317h-277l-244 307l2 10h431z" />
    <glyph glyph-name="Eacute" unicode="&#xc9;" horiz-adv-x="1388" 
d="M707 410h665l-72 -410h-1177l252 1434h1177l-71 -410h-666l-22 -133h522l-62 -348h-522zM819 1608l199 317h430l-2 -10l-350 -307h-277z" />
    <glyph glyph-name="Ecircumflex" unicode="&#xca;" horiz-adv-x="1388" 
d="M707 410h665l-72 -410h-1177l252 1434h1177l-71 -410h-666l-22 -133h522l-62 -348h-522zM872 1925h308l172 -305l-2 -12h-277l-59 123h-41l-105 -123h-276l2 12z" />
    <glyph glyph-name="Edieresis" unicode="&#xcb;" horiz-adv-x="1388" 
d="M707 410h665l-72 -410h-1177l252 1434h1177l-71 -410h-666l-22 -133h522l-62 -348h-522zM737 1546q-84 0 -134 48.5t-50 125.5q0 92 61.5 153.5t153.5 61.5q84 0 134 -48.5t50 -125.5q0 -92 -61.5 -153.5t-153.5 -61.5zM1219 1546q-84 0 -134.5 48.5t-50.5 125.5
q0 92 61.5 153.5t153.5 61.5q84 0 134.5 -48.5t50.5 -125.5q0 -92 -61.5 -153.5t-153.5 -61.5z" />
    <glyph glyph-name="Igrave" unicode="&#xcc;" horiz-adv-x="753" 
d="M887 1434l-252 -1434h-512l252 1434h512zM711 1925l88 -317h-277l-243 307l2 10h430z" />
    <glyph glyph-name="Iacute" unicode="&#xcd;" horiz-adv-x="753" 
d="M887 1434l-252 -1434h-512l252 1434h512zM522 1608l199 317h430l-2 -10l-350 -307h-277z" />
    <glyph glyph-name="Icircumflex" unicode="&#xce;" horiz-adv-x="753" 
d="M887 1434l-252 -1434h-512l252 1434h512zM557 1925h307l172 -305l-2 -12h-276l-60 123h-41l-104 -123h-277l3 12z" />
    <glyph glyph-name="Idieresis" unicode="&#xcf;" horiz-adv-x="753" 
d="M887 1434l-252 -1434h-512l252 1434h512zM430 1556q-84 0 -134 49t-50 126q0 92 61.5 153.5t153.5 61.5q84 0 134 -48.5t50 -125.5q0 -92 -61.5 -154t-153.5 -62zM911 1556q-84 0 -134 49t-50 126q0 92 61.5 153.5t153.5 61.5q84 0 134 -48.5t50 -125.5q0 -92 -61.5 -154
t-153.5 -62z" />
    <glyph glyph-name="Eth" unicode="&#xd0;" horiz-adv-x="1646" 
d="M848 0h-666l94 543h-143l62 348h143l96 543h516q165 0 306.5 -52.5t237.5 -141.5t150 -209.5t54 -254.5q0 -155 -64.5 -297t-175.5 -248t-270.5 -168.5t-339.5 -62.5zM770 430h57q141 0 239.5 92.5t98.5 237.5q0 107 -71 175.5t-185 68.5h-39l-20 -113h184l-61 -348h-185
z" />
    <glyph glyph-name="Ntilde" unicode="&#xd1;" horiz-adv-x="1705" 
d="M1221 758h24v205l82 471h512l-252 -1434h-553l-291 676h-24v-195l-84 -481h-512l252 1434h553zM1276 1853q41 0 47 41l4 21h236l-25 -143q-15 -91 -74 -143t-145 -52q-56 0 -147.5 36t-116.5 36q-41 0 -47 -41l-4 -21h-236l25 144q15 91 74 142.5t145 51.5
q56 0 147.5 -36t116.5 -36z" />
    <glyph glyph-name="Ograve" unicode="&#xd2;" horiz-adv-x="1761" 
d="M973 389q135 0 226 103.5t91 275.5q0 129 -69.5 202.5t-186.5 73.5q-135 0 -226 -103t-91 -275q0 -129 69.5 -203t186.5 -74zM963 -41q-177 0 -324 52.5t-246.5 145.5t-154 221t-54.5 277q0 167 66 318t179 261.5t273.5 175.5t341.5 65q177 0 324 -53t246.5 -146
t154 -221t54.5 -277q0 -167 -66 -318t-179 -261t-273.5 -175t-341.5 -65zM1128 1925l89 -317h-277l-244 307l2 10h430z" />
    <glyph glyph-name="Oacute" unicode="&#xd3;" horiz-adv-x="1761" 
d="M973 389q135 0 226 103.5t91 275.5q0 129 -69.5 202.5t-186.5 73.5q-135 0 -226 -103t-91 -275q0 -129 69.5 -203t186.5 -74zM963 -41q-177 0 -324 52.5t-246.5 145.5t-154 221t-54.5 277q0 167 66 318t179 261.5t273.5 175.5t341.5 65q177 0 324 -53t246.5 -146
t154 -221t54.5 -277q0 -167 -66 -318t-179 -261t-273.5 -175t-341.5 -65zM963 1608l198 317h430l-2 -10l-350 -307h-276z" />
    <glyph glyph-name="Ocircumflex" unicode="&#xd4;" horiz-adv-x="1761" 
d="M973 389q135 0 226 103.5t91 275.5q0 129 -69.5 202.5t-186.5 73.5q-135 0 -226 -103t-91 -275q0 -129 69.5 -203t186.5 -74zM963 -41q-177 0 -324 52.5t-246.5 145.5t-154 221t-54.5 277q0 167 66 318t179 261.5t273.5 175.5t341.5 65q177 0 324 -53t246.5 -146
t154 -221t54.5 -277q0 -167 -66 -318t-179 -261t-273.5 -175t-341.5 -65zM1018 1925h307l172 -305l-2 -12h-276l-60 123h-41l-104 -123h-277l2 12z" />
    <glyph glyph-name="Otilde" unicode="&#xd5;" horiz-adv-x="1761" 
d="M973 389q135 0 226 103.5t91 275.5q0 129 -69.5 202.5t-186.5 73.5q-135 0 -226 -103t-91 -275q0 -129 69.5 -203t186.5 -74zM963 -41q-177 0 -324 52.5t-246.5 145.5t-154 221t-54.5 277q0 167 66 318t179 261.5t273.5 175.5t341.5 65q177 0 324 -53t246.5 -146
t154 -221t54.5 -277q0 -167 -66 -318t-179 -261t-273.5 -175t-341.5 -65zM1245 1853q41 0 47 41l4 21h236l-25 -143q-15 -91 -74 -143t-145 -52q-56 0 -147.5 36t-116.5 36q-41 0 -47 -41l-4 -21h-236l25 144q15 91 74 142.5t145 51.5q56 0 147.5 -36t116.5 -36z" />
    <glyph glyph-name="Odieresis" unicode="&#xd6;" horiz-adv-x="1761" 
d="M973 389q135 0 226 103.5t91 275.5q0 129 -69.5 202.5t-186.5 73.5q-135 0 -226 -103t-91 -275q0 -129 69.5 -203t186.5 -74zM963 -41q-177 0 -324 52.5t-246.5 145.5t-154 221t-54.5 277q0 167 66 318t179 261.5t273.5 175.5t341.5 65q177 0 324 -53t246.5 -146
t154 -221t54.5 -277q0 -167 -66 -318t-179 -261t-273.5 -175t-341.5 -65zM860 1556q-84 0 -134 49t-50 126q0 92 61.5 153.5t153.5 61.5q84 0 134 -48.5t50 -125.5q0 -92 -61.5 -154t-153.5 -62zM1341 1556q-84 0 -134 49t-50 126q0 92 61.5 153.5t153.5 61.5
q84 0 134 -48.5t50 -125.5q0 -92 -61.5 -154t-153.5 -62z" />
    <glyph glyph-name="multiply" unicode="&#xd7;" horiz-adv-x="1155" 
d="M475 1100l225 -226l226 226l260 -260l-225 -226l225 -225l-260 -260l-226 225l-225 -225l-260 260l225 225l-225 226z" />
    <glyph glyph-name="Oslash" unicode="&#xd8;" horiz-adv-x="1765" 
d="M721 623l502 348q-67 73 -187 73q-135 0 -226 -103t-91 -275zM1880 1219l-141 -99q86 -156 86 -342q0 -167 -66 -318t-179 -261t-273.5 -175t-341.5 -65q-363 0 -590 217l-283 -196l39 235l141 98q-86 156 -86 342q0 167 66 318t179.5 261.5t274 175.5t341.5 65
q361 0 589 -218l283 197zM1290 811l-502 -348q67 -74 187 -74q135 0 226 103.5t91 275.5z" />
    <glyph glyph-name="Ugrave" unicode="&#xd9;" horiz-adv-x="1646" 
d="M1120 600l148 834h512l-158 -899q-22 -125 -80 -229.5t-147.5 -182t-216.5 -121t-277 -43.5q-239 0 -404 84t-235.5 242.5t-32.5 371.5l138 777h512l-142 -799q-18 -102 31 -163.5t154 -61.5q78 0 129.5 47.5t68.5 142.5zM1118 1925l88 -317h-276l-244 307l2 10h430z" />
    <glyph glyph-name="Uacute" unicode="&#xda;" horiz-adv-x="1646" 
d="M1120 600l148 834h512l-158 -899q-22 -125 -80 -229.5t-147.5 -182t-216.5 -121t-277 -43.5q-239 0 -404 84t-235.5 242.5t-32.5 371.5l138 777h512l-142 -799q-18 -102 31 -163.5t154 -61.5q78 0 129.5 47.5t68.5 142.5zM942 1608l199 317h430l-2 -10l-350 -307h-277z
" />
    <glyph glyph-name="Ucircumflex" unicode="&#xdb;" horiz-adv-x="1646" 
d="M1120 600l148 834h512l-158 -899q-22 -125 -80 -229.5t-147.5 -182t-216.5 -121t-277 -43.5q-239 0 -404 84t-235.5 242.5t-32.5 371.5l138 777h512l-142 -799q-18 -102 31 -163.5t154 -61.5q78 0 129.5 47.5t68.5 142.5zM987 1925h307l172 -305l-2 -12h-276l-60 123h-41
l-104 -123h-276l2 12z" />
    <glyph glyph-name="Udieresis" unicode="&#xdc;" horiz-adv-x="1646" 
d="M1120 600l148 834h512l-158 -899q-22 -125 -80 -229.5t-147.5 -182t-216.5 -121t-277 -43.5q-239 0 -404 84t-235.5 242.5t-32.5 371.5l138 777h512l-142 -799q-18 -102 31 -163.5t154 -61.5q78 0 129.5 47.5t68.5 142.5zM850 1556q-84 0 -134 49t-50 126
q0 92 61.5 153.5t153.5 61.5q84 0 134 -48.5t50 -125.5q0 -92 -61.5 -154t-153.5 -62zM1331 1556q-84 0 -134 49t-50 126q0 92 61.5 153.5t153.5 61.5q84 0 134 -48.5t50 -125.5q0 -92 -61.5 -154t-153.5 -62z" />
    <glyph glyph-name="Yacute" unicode="&#xdd;" horiz-adv-x="1474" 
d="M1219 1434h512l-674 -922l-90 -512h-512l90 512l-350 922h512l159 -492h21zM817 1608l199 317h430l-2 -10l-350 -307h-277z" />
    <glyph glyph-name="Thorn" unicode="&#xde;" horiz-adv-x="1669" 
d="M854 1239h324q174 0 303.5 -62.5t194.5 -166t65 -232.5q0 -249 -167 -406t-448 -157h-452l-39 -215h-512l252 1434h512zM743 614h342q61 0 97.5 34t36.5 89q0 46 -34.5 74.5t-88.5 28.5h-314z" />
    <glyph glyph-name="germandbls" unicode="&#xdf;" horiz-adv-x="1394" 
d="M733 369h98q123 0 123 112q0 39 -28 65.5t-72 26.5h-86l61 349h11q42 0 68 25.5t26 76.5q0 39 -23.5 60.5t-68.5 21.5q-39 0 -65.5 -24.5t-33.5 -69.5q-43 -254 -89.5 -512t-69 -379t-21.5 -121h-471l187 1063q15 87 57.5 160.5t111.5 130.5t172 89t230 32q134 0 244 -33
t178.5 -86.5t105.5 -118t37 -131.5q0 -72 -27.5 -128.5t-66.5 -86.5t-78 -49.5t-67 -25.5l-27 -5l-4 -20q6 -1 16 -4t39 -14.5t55.5 -26.5t59 -42t55.5 -59.5t39 -80.5t16 -103q0 -204 -140.5 -332.5t-381.5 -128.5h-235z" />
    <glyph glyph-name="agrave" unicode="&#xe0;" horiz-adv-x="1419" 
d="M885 133h-21q-4 -7 -12.5 -18t-38 -39t-63 -50t-87.5 -39.5t-112 -17.5q-178 0 -287.5 120t-109.5 331q0 160 44 293.5t117.5 220t166.5 134.5t194 48q52 0 98.5 -9.5t79 -25t59.5 -34.5t44 -37.5t28.5 -34t16.5 -24.5l6 -9h20l23 143h471l-191 -1085h-471zM778 348
q72 0 128.5 64.5t56.5 160.5q0 74 -39 119t-95 45q-72 0 -128 -64.5t-56 -160.5q0 -74 38.5 -119t94.5 -45zM975 1597l88 -317h-277l-243 307l2 10h430z" />
    <glyph glyph-name="aacute" unicode="&#xe1;" horiz-adv-x="1419" 
d="M885 133h-21q-4 -7 -12.5 -18t-38 -39t-63 -50t-87.5 -39.5t-112 -17.5q-178 0 -287.5 120t-109.5 331q0 160 44 293.5t117.5 220t166.5 134.5t194 48q52 0 98.5 -9.5t79 -25t59.5 -34.5t44 -37.5t28.5 -34t16.5 -24.5l6 -9h20l23 143h471l-191 -1085h-471zM778 348
q72 0 128.5 64.5t56.5 160.5q0 74 -39 119t-95 45q-72 0 -128 -64.5t-56 -160.5q0 -74 38.5 -119t94.5 -45zM768 1280l199 317h430l-2 -10l-351 -307h-276z" />
    <glyph glyph-name="acircumflex" unicode="&#xe2;" horiz-adv-x="1419" 
d="M885 133h-21q-4 -7 -12.5 -18t-38 -39t-63 -50t-87.5 -39.5t-112 -17.5q-178 0 -287.5 120t-109.5 331q0 160 44 293.5t117.5 220t166.5 134.5t194 48q52 0 98.5 -9.5t79 -25t59.5 -34.5t44 -37.5t28.5 -34t16.5 -24.5l6 -9h20l23 143h471l-191 -1085h-471zM778 348
q72 0 128.5 64.5t56.5 160.5q0 74 -39 119t-95 45q-72 0 -128 -64.5t-56 -160.5q0 -74 38.5 -119t94.5 -45zM844 1597h307l172 -305l-2 -12h-277l-59 123h-41l-104 -123h-277l2 12z" />
    <glyph glyph-name="atilde" unicode="&#xe3;" horiz-adv-x="1419" 
d="M885 133h-21q-4 -7 -12.5 -18t-38 -39t-63 -50t-87.5 -39.5t-112 -17.5q-178 0 -287.5 120t-109.5 331q0 160 44 293.5t117.5 220t166.5 134.5t194 48q52 0 98.5 -9.5t79 -25t59.5 -34.5t44 -37.5t28.5 -34t16.5 -24.5l6 -9h20l23 143h471l-191 -1085h-471zM778 348
q72 0 128.5 64.5t56.5 160.5q0 74 -39 119t-95 45q-72 0 -128 -64.5t-56 -160.5q0 -74 38.5 -119t94.5 -45zM1071 1505q41 0 47 41l4 21h236l-25 -144q-15 -91 -74 -142.5t-145 -51.5q-56 0 -147.5 35.5t-116.5 35.5q-41 0 -47 -40l-4 -21h-236l25 143q15 91 74 143t145 52
q56 0 147.5 -36t116.5 -36z" />
    <glyph glyph-name="adieresis" unicode="&#xe4;" horiz-adv-x="1419" 
d="M885 133h-21q-4 -7 -12.5 -18t-38 -39t-63 -50t-87.5 -39.5t-112 -17.5q-178 0 -287.5 120t-109.5 331q0 160 44 293.5t117.5 220t166.5 134.5t194 48q52 0 98.5 -9.5t79 -25t59.5 -34.5t44 -37.5t28.5 -34t16.5 -24.5l6 -9h20l23 143h471l-191 -1085h-471zM778 348
q72 0 128.5 64.5t56.5 160.5q0 74 -39 119t-95 45q-72 0 -128 -64.5t-56 -160.5q0 -74 38.5 -119t94.5 -45zM696 1229q-84 0 -134 48.5t-50 125.5q0 92 61.5 153.5t153.5 61.5q84 0 134 -48.5t50 -125.5q0 -92 -61.5 -153.5t-153.5 -61.5zM1178 1229q-84 0 -134.5 48.5
t-50.5 125.5q0 92 61.5 153.5t153.5 61.5q84 0 134.5 -48.5t50.5 -125.5q0 -92 -61.5 -153.5t-153.5 -61.5z" />
    <glyph glyph-name="aring" unicode="&#xe5;" horiz-adv-x="1419" 
d="M885 133h-21q-4 -7 -12.5 -18t-38 -39t-63 -50t-87.5 -39.5t-112 -17.5q-178 0 -287.5 120t-109.5 331q0 160 44 293.5t117.5 220t166.5 134.5t194 48q52 0 98.5 -9.5t79 -25t59.5 -34.5t44 -37.5t28.5 -34t16.5 -24.5l6 -9h20l23 143h471l-191 -1085h-471zM778 348
q72 0 128.5 64.5t56.5 160.5q0 74 -39 119t-95 45q-72 0 -128 -64.5t-56 -160.5q0 -74 38.5 -119t94.5 -45zM922 1188q-99 0 -167.5 66t-68.5 159q0 106 84.5 186t192.5 80q99 0 167 -66t68 -159q0 -106 -84 -186t-192 -80zM932 1352q38 0 65 27t27 65q0 31 -20.5 51.5
t-51.5 20.5q-38 0 -65 -27.5t-27 -65.5q0 -31 20.5 -51t51.5 -20z" />
    <glyph glyph-name="ae" unicode="&#xe6;" horiz-adv-x="2113" 
d="M1169 983h21q6 5 16.5 14t47.5 32t79 40.5t109 32t139 14.5q120 0 226 -41t179 -111t115.5 -164t42.5 -198q0 -26 -2.5 -51t-5.5 -37l-2 -12h-768q-4 -31 -4 -56q0 -72 33 -108.5t90 -36.5q42 0 76 20t47 40l14 20h498q-3 -9 -10 -23.5t-32.5 -57.5t-56.5 -82t-84 -86.5
t-113 -81.5t-145.5 -57.5t-179.5 -23.5q-100 0 -184.5 20.5t-133.5 49.5t-83 58.5t-47 50.5l-13 20h-20q-7 -8 -20.5 -21.5t-59 -48t-95.5 -60.5t-128 -47.5t-158 -21.5q-206 0 -320 90.5t-114 223.5q0 150 110.5 251t292.5 101h396l10 41q27 112 -98 112q-41 0 -75.5 -18
t-48.5 -36l-14 -17h-479q2 8 7.5 22.5t26.5 56t48 79t75.5 83.5t106 79.5t142 56t180.5 22.5q74 0 139.5 -13.5t105 -33t68.5 -39.5t41 -34zM901 502h-170q-55 0 -89 -30.5t-34 -82.5q0 -42 27 -67t76 -25q73 0 125.5 54t64.5 151zM1561 788q-61 0 -105 -41.5t-59 -111.5
h266q0 153 -102 153z" />
    <glyph glyph-name="ccedilla" unicode="&#xe7;" horiz-adv-x="1361" 
d="M1413 625h-471q0 5 -1.5 13.5t-10.5 29.5t-23 37t-42.5 29.5t-65.5 13.5q-67 0 -115.5 -65t-48.5 -181q0 -82 33.5 -123t89.5 -41q29 0 55 10.5t42.5 25t29.5 29t19 25.5l5 10h484q-2 -10 -7 -26.5t-26 -65t-49 -92.5t-80 -98t-115 -93t-157.5 -66t-204.5 -28l-35 -65
q8 -1 21 -3t46 -14.5t58 -31t46 -56t21 -86.5q0 -118 -90.5 -202t-226.5 -84q-64 0 -123 15.5t-86 30.5l-27 15l41 205l9 -6q9 -6 27.5 -15t41 -18.5t54 -16t63.5 -6.5q44 0 68 20t24 52q0 51 -72 51h-135l121 230q-204 41 -325 183.5t-121 334.5q0 125 51 238.5t138 196
t209.5 131t258.5 48.5q103 0 190.5 -21.5t148 -56t108 -80.5t76 -92t47 -94t25.5 -84t7 -63z" />
    <glyph glyph-name="egrave" unicode="&#xe8;" horiz-adv-x="1378" 
d="M748 -31q-175 0 -311.5 71.5t-209.5 192.5t-73 269q0 125 51 238.5t138 196t208.5 131t257.5 48.5q135 0 249 -41t190 -112t118.5 -166.5t42.5 -202.5q0 -22 -1.5 -42.5t-3.5 -29.5l-1 -10h-762q-6 -30 -6 -61q0 -73 32.5 -113.5t80.5 -40.5q29 0 54 9.5t41 23t28 27
t17 23.5l5 9h489q-3 -9 -9.5 -24t-32 -58.5t-56.5 -83.5t-84.5 -88.5t-115 -83t-150 -58.5t-186.5 -24zM819 788q-59 0 -98 -39t-55 -104h276q0 68 -34 105.5t-89 37.5zM903 1597l88 -317h-276l-244 307l2 10h430z" />
    <glyph glyph-name="eacute" unicode="&#xe9;" horiz-adv-x="1378" 
d="M748 -31q-175 0 -311.5 71.5t-209.5 192.5t-73 269q0 125 51 238.5t138 196t208.5 131t257.5 48.5q135 0 249 -41t190 -112t118.5 -166.5t42.5 -202.5q0 -22 -1.5 -42.5t-3.5 -29.5l-1 -10h-762q-6 -30 -6 -61q0 -73 32.5 -113.5t80.5 -40.5q29 0 54 9.5t41 23t28 27
t17 23.5l5 9h489q-3 -9 -9.5 -24t-32 -58.5t-56.5 -83.5t-84.5 -88.5t-115 -83t-150 -58.5t-186.5 -24zM819 788q-59 0 -98 -39t-55 -104h276q0 68 -34 105.5t-89 37.5zM727 1280l199 317h430l-2 -10l-350 -307h-277z" />
    <glyph glyph-name="ecircumflex" unicode="&#xea;" horiz-adv-x="1378" 
d="M748 -31q-175 0 -311.5 71.5t-209.5 192.5t-73 269q0 125 51 238.5t138 196t208.5 131t257.5 48.5q135 0 249 -41t190 -112t118.5 -166.5t42.5 -202.5q0 -22 -1.5 -42.5t-3.5 -29.5l-1 -10h-762q-6 -30 -6 -61q0 -73 32.5 -113.5t80.5 -40.5q29 0 54 9.5t41 23t28 27
t17 23.5l5 9h489q-3 -9 -9.5 -24t-32 -58.5t-56.5 -83.5t-84.5 -88.5t-115 -83t-150 -58.5t-186.5 -24zM819 788q-59 0 -98 -39t-55 -104h276q0 68 -34 105.5t-89 37.5zM772 1597h307l172 -305l-2 -12h-276l-60 123h-41l-104 -123h-276l2 12z" />
    <glyph glyph-name="edieresis" unicode="&#xeb;" horiz-adv-x="1378" 
d="M748 -31q-175 0 -311.5 71.5t-209.5 192.5t-73 269q0 125 51 238.5t138 196t208.5 131t257.5 48.5q135 0 249 -41t190 -112t118.5 -166.5t42.5 -202.5q0 -22 -1.5 -42.5t-3.5 -29.5l-1 -10h-762q-6 -30 -6 -61q0 -73 32.5 -113.5t80.5 -40.5q29 0 54 9.5t41 23t28 27
t17 23.5l5 9h489q-3 -9 -9.5 -24t-32 -58.5t-56.5 -83.5t-84.5 -88.5t-115 -83t-150 -58.5t-186.5 -24zM819 788q-59 0 -98 -39t-55 -104h276q0 68 -34 105.5t-89 37.5zM635 1227q-84 0 -134 48.5t-50 125.5q0 92 61.5 153.5t153.5 61.5q84 0 134 -48.5t50 -125.5
q0 -92 -61.5 -153.5t-153.5 -61.5zM1116 1227q-84 0 -134 48.5t-50 125.5q0 92 61.5 153.5t153.5 61.5q84 0 134 -48.5t50 -125.5q0 -92 -61.5 -153.5t-153.5 -61.5z" />
    <glyph glyph-name="igrave" unicode="&#xec;" horiz-adv-x="645" 
d="M92 0l191 1085h471l-191 -1085h-471zM586 1597l88 -317h-277l-243 307l2 10h430z" />
    <glyph glyph-name="iacute" unicode="&#xed;" horiz-adv-x="645" 
d="M92 0l191 1085h471l-191 -1085h-471zM410 1280l198 317h430l-2 -10l-350 -307h-276z" />
    <glyph glyph-name="icircumflex" unicode="&#xee;" horiz-adv-x="645" 
d="M92 0l191 1085h471l-191 -1085h-471zM455 1597h307l172 -305l-2 -12h-277l-59 123h-41l-104 -123h-277l2 12z" />
    <glyph glyph-name="idieresis" unicode="&#xef;" horiz-adv-x="645" 
d="M92 0l191 1085h471l-191 -1085h-471zM317 1229q-84 0 -134 48.5t-50 125.5q0 92 61.5 153.5t153.5 61.5q84 0 134 -48.5t50 -125.5q0 -92 -61.5 -153.5t-153.5 -61.5zM799 1229q-84 0 -134.5 48.5t-50.5 125.5q0 92 61.5 153.5t153.5 61.5q84 0 134.5 -48.5t50.5 -125.5
q0 -92 -61.5 -153.5t-153.5 -61.5z" />
    <glyph glyph-name="eth" unicode="&#xf0;" horiz-adv-x="1361" 
d="M748 338q66 0 111.5 53t45.5 141q0 65 -37.5 99.5t-99.5 34.5q-66 0 -112 -53.5t-46 -141.5q0 -65 37.5 -99t100.5 -34zM1292 1352l-106 -58q9 -10 24.5 -28t54.5 -75.5t69 -118t54.5 -149.5t24.5 -175q0 -177 -52.5 -324t-144.5 -246.5t-218 -154t-271 -54.5
q-138 0 -252 37.5t-188 101t-114 146.5t-40 176q0 109 41.5 208t111.5 170t166.5 113t202.5 42q80 0 146 -16.5t102.5 -40t61 -47t33.5 -39.5l8 -17h18v10q0 62 -39.5 134t-122.5 177l-235 -120l28 163l113 62l-188 205h491l33 -31l217 113z" />
    <glyph glyph-name="ntilde" unicode="&#xf1;" horiz-adv-x="1374" 
d="M662 565l-99 -565h-471l191 1085h471l-27 -143h21q5 7 14.5 19t41 42t66 52.5t87.5 41.5t108 19q90 0 160.5 -29t118 -87.5t63 -147t-3.5 -207.5l-113 -645h-471l101 573q13 76 -13 115t-88 39q-57 0 -100.5 -41.5t-56.5 -120.5zM1040 1505q41 0 47 41l5 21h235l-24 -144
q-15 -91 -74.5 -142.5t-145.5 -51.5q-56 0 -147.5 35.5t-116.5 35.5q-41 0 -47 -40l-4 -21h-236l25 143q15 91 74 143t145 52q56 0 147.5 -36t116.5 -36z" />
    <glyph glyph-name="ograve" unicode="&#xf2;" horiz-adv-x="1392" 
d="M778 338q73 0 129 68t56 178q0 164 -144 164q-73 0 -128.5 -68t-55.5 -178q0 -164 143 -164zM768 -31q-139 0 -255.5 41.5t-194.5 113.5t-121 169.5t-43 208.5q0 126 50 238.5t137.5 195.5t214.5 131.5t273 48.5q139 0 255.5 -41.5t194.5 -113t121.5 -169t43.5 -208.5
q0 -126 -50 -238.5t-138 -196t-215 -132t-273 -48.5zM913 1567l88 -318h-276l-244 307l2 11h430z" />
    <glyph glyph-name="oacute" unicode="&#xf3;" horiz-adv-x="1392" 
d="M778 338q73 0 129 68t56 178q0 164 -144 164q-73 0 -128.5 -68t-55.5 -178q0 -164 143 -164zM768 -31q-139 0 -255.5 41.5t-194.5 113.5t-121 169.5t-43 208.5q0 126 50 238.5t137.5 195.5t214.5 131.5t273 48.5q139 0 255.5 -41.5t194.5 -113t121.5 -169t43.5 -208.5
q0 -126 -50 -238.5t-138 -196t-215 -132t-273 -48.5zM737 1249l199 318h430l-2 -11l-350 -307h-277z" />
    <glyph glyph-name="ocircumflex" unicode="&#xf4;" horiz-adv-x="1392" 
d="M778 338q73 0 129 68t56 178q0 164 -144 164q-73 0 -128.5 -68t-55.5 -178q0 -164 143 -164zM768 -31q-139 0 -255.5 41.5t-194.5 113.5t-121 169.5t-43 208.5q0 126 50 238.5t137.5 195.5t214.5 131.5t273 48.5q139 0 255.5 -41.5t194.5 -113t121.5 -169t43.5 -208.5
q0 -126 -50 -238.5t-138 -196t-215 -132t-273 -48.5zM793 1567h307l172 -305l-2 -13h-277l-59 123h-41l-105 -123h-276l2 13z" />
    <glyph glyph-name="otilde" unicode="&#xf5;" horiz-adv-x="1392" 
d="M778 338q73 0 129 68t56 178q0 164 -144 164q-73 0 -128.5 -68t-55.5 -178q0 -164 143 -164zM768 -31q-139 0 -255.5 41.5t-194.5 113.5t-121 169.5t-43 208.5q0 126 50 238.5t137.5 195.5t214.5 131.5t273 48.5q139 0 255.5 -41.5t194.5 -113t121.5 -169t43.5 -208.5
q0 -126 -50 -238.5t-138 -196t-215 -132t-273 -48.5zM1030 1505q41 0 47 41l4 21h236l-25 -144q-15 -91 -74 -142.5t-145 -51.5q-56 0 -147.5 35.5t-116.5 35.5q-41 0 -47 -40l-4 -21h-236l25 143q15 91 74 143t145 52q56 0 147.5 -36t116.5 -36z" />
    <glyph glyph-name="odieresis" unicode="&#xf6;" horiz-adv-x="1392" 
d="M778 338q73 0 129 68t56 178q0 164 -144 164q-73 0 -128.5 -68t-55.5 -178q0 -164 143 -164zM768 -31q-139 0 -255.5 41.5t-194.5 113.5t-121 169.5t-43 208.5q0 126 50 238.5t137.5 195.5t214.5 131.5t273 48.5q139 0 255.5 -41.5t194.5 -113t121.5 -169t43.5 -208.5
q0 -126 -50 -238.5t-138 -196t-215 -132t-273 -48.5zM645 1229q-84 0 -134 48.5t-50 125.5q0 92 61.5 153.5t153.5 61.5q84 0 134 -48.5t50 -125.5q0 -92 -61.5 -153.5t-153.5 -61.5zM1126 1229q-84 0 -134 48.5t-50 125.5q0 92 61.5 153.5t153.5 61.5q84 0 134 -48.5
t50 -125.5q0 -92 -61.5 -153.5t-153.5 -61.5z" />
    <glyph glyph-name="divide" unicode="&#xf7;" horiz-adv-x="1126" 
d="M1147 471h-942v328h942v-328zM461 1075q0 92 61.5 153.5t153.5 61.5t153.5 -61.5t61.5 -153.5t-61.5 -153.5t-153.5 -61.5t-153.5 61.5t-61.5 153.5zM461 195q0 92 61.5 153.5t153.5 61.5t153.5 -61.5t61.5 -153.5t-61.5 -153.5t-153.5 -61.5t-153.5 61.5t-61.5 153.5z
" />
    <glyph glyph-name="oslash" unicode="&#xf8;" horiz-adv-x="1390" 
d="M772 -31q-278 0 -448 154l-222 -143l39 245l70 45q-53 106 -53 232t50 238.5t138 195.5t215 131.5t273 48.5q275 0 448 -153l221 143l-39 -246l-69 -45q53 -106 53 -231q0 -126 -50 -238.5t-138 -196t-215 -132t-273 -48.5zM637 557l-10 -49l319 207q-1 3 -3 8
t-10.5 17.5t-20.5 22t-34 17.5t-49 8q-143 0 -192 -231zM969 528l10 50l-320 -207q1 -3 3 -8t10.5 -18t20.5 -22.5t34 -17.5t49 -8q144 0 193 231z" />
    <glyph glyph-name="ugrave" unicode="&#xf9;" horiz-adv-x="1374" 
d="M907 520l99 565h471l-191 -1085h-471l27 143h-21q-5 -7 -14.5 -19t-41 -42t-66 -52.5t-87.5 -41.5t-108 -19q-90 0 -160.5 29t-118 87.5t-63 147t3.5 207.5l113 645h471l-101 -573q-13 -76 13 -115t88 -39q57 0 100.5 41.5t56.5 120.5zM954 1597l88 -317h-276l-244 307
l2 10h430z" />
    <glyph glyph-name="uacute" unicode="&#xfa;" horiz-adv-x="1374" 
d="M907 520l99 565h471l-191 -1085h-471l27 143h-21q-5 -7 -14.5 -19t-41 -42t-66 -52.5t-87.5 -41.5t-108 -19q-90 0 -160.5 29t-118 87.5t-63 147t3.5 207.5l113 645h471l-101 -573q-13 -76 13 -115t88 -39q57 0 100.5 41.5t56.5 120.5zM758 1280l198 317h430l-2 -10
l-350 -307h-276z" />
    <glyph glyph-name="ucircumflex" unicode="&#xfb;" horiz-adv-x="1374" 
d="M907 520l99 565h471l-191 -1085h-471l27 143h-21q-5 -7 -14.5 -19t-41 -42t-66 -52.5t-87.5 -41.5t-108 -19q-90 0 -160.5 29t-118 87.5t-63 147t3.5 207.5l113 645h471l-101 -573q-13 -76 13 -115t88 -39q57 0 100.5 41.5t56.5 120.5zM807 1597h307l172 -305l-2 -12
h-276l-60 123h-41l-104 -123h-277l2 12z" />
    <glyph glyph-name="udieresis" unicode="&#xfc;" horiz-adv-x="1374" 
d="M907 520l99 565h471l-191 -1085h-471l27 143h-21q-5 -7 -14.5 -19t-41 -42t-66 -52.5t-87.5 -41.5t-108 -19q-90 0 -160.5 29t-118 87.5t-63 147t3.5 207.5l113 645h471l-101 -573q-13 -76 13 -115t88 -39q57 0 100.5 41.5t56.5 120.5zM649 1229q-84 0 -134 48.5
t-50 125.5q0 92 61.5 153.5t153.5 61.5q84 0 134 -48.5t50 -125.5q0 -92 -61.5 -153.5t-153.5 -61.5zM1130 1229q-84 0 -134 48.5t-50 125.5q0 92 61.5 153.5t153.5 61.5q84 0 134.5 -48.5t50.5 -125.5q0 -92 -62 -153.5t-154 -61.5z" />
    <glyph glyph-name="yacute" unicode="&#xfd;" horiz-adv-x="1310" 
d="M686 1085v-696h31l276 696h492l-647 -1474h-473l182 389h-277l-75 1085h491zM707 1280l198 317h430l-2 -10l-350 -307h-276z" />
    <glyph glyph-name="thorn" unicode="&#xfe;" horiz-adv-x="1419" 
d="M729 952h21q4 7 12.5 18t38 39t63 50t87.5 39.5t112 17.5q178 0 287.5 -119.5t109.5 -330.5q0 -160 -44 -294t-117.5 -220.5t-166.5 -134.5t-194 -48q-52 0 -98.5 9.5t-79 25t-59.5 34.5t-44 37.5t-28.5 34t-16.5 24.5l-6 9h-20l-94 -532h-472l322 1823h471zM836 737
q-72 0 -128.5 -64.5t-56.5 -160.5q0 -74 38.5 -119t94.5 -45q72 0 128.5 64.5t56.5 160.5q0 74 -38.5 119t-94.5 45z" />
    <glyph glyph-name="ydieresis" unicode="&#xff;" horiz-adv-x="1310" 
d="M686 1085v-696h31l276 696h492l-647 -1474h-473l182 389h-277l-75 1085h491zM612 1229q-84 0 -134 48.5t-50 125.5q0 92 61.5 153.5t153.5 61.5q84 0 134 -48.5t50 -125.5q0 -92 -61.5 -153.5t-153.5 -61.5zM1094 1229q-84 0 -134.5 48.5t-50.5 125.5q0 92 61.5 153.5
t153.5 61.5q84 0 134.5 -48.5t50.5 -125.5q0 -92 -61.5 -153.5t-153.5 -61.5z" />
    <glyph glyph-name="Amacron" unicode="&#x100;" 
d="M1085 0l-24 266h-440l-119 -266h-512l651 1434h809l137 -1434h-502zM934 1004l-168 -379h276l-26 379h-82zM674 1618l43 246h737l-43 -246h-737z" />
    <glyph glyph-name="amacron" unicode="&#x101;" horiz-adv-x="1419" 
d="M885 133h-21q-4 -7 -12.5 -18t-38 -39t-63 -50t-87.5 -39.5t-112 -17.5q-178 0 -287.5 120t-109.5 331q0 160 44 293.5t117.5 220t166.5 134.5t194 48q52 0 98.5 -9.5t79 -25t59.5 -34.5t44 -37.5t28.5 -34t16.5 -24.5l6 -9h20l23 143h471l-191 -1085h-471zM778 348
q72 0 128.5 64.5t56.5 160.5q0 74 -39 119t-95 45q-72 0 -128 -64.5t-56 -160.5q0 -74 38.5 -119t94.5 -45zM594 1280l43 246h737l-43 -246h-737z" />
    <glyph glyph-name="Abreve" unicode="&#x102;" 
d="M1085 0l-24 266h-440l-119 -266h-512l651 1434h809l137 -1434h-502zM934 1004l-168 -379h276l-26 379h-82zM729 1905h234q0 -34 25.5 -58t76.5 -24t76.5 24t25.5 58h236q-15 -139 -109 -223.5t-239 -84.5q-158 0 -243 75.5t-85 201.5z" />
    <glyph glyph-name="abreve" unicode="&#x103;" horiz-adv-x="1419" 
d="M885 133h-21q-4 -7 -12.5 -18t-38 -39t-63 -50t-87.5 -39.5t-112 -17.5q-178 0 -287.5 120t-109.5 331q0 160 44 293.5t117.5 220t166.5 134.5t194 48q52 0 98.5 -9.5t79 -25t59.5 -34.5t44 -37.5t28.5 -34t16.5 -24.5l6 -9h20l23 143h471l-191 -1085h-471zM778 348
q72 0 128.5 64.5t56.5 160.5q0 74 -39 119t-95 45q-72 0 -128 -64.5t-56 -160.5q0 -74 38.5 -119t94.5 -45zM616 1577h234q0 -34 26 -58t76 -24q51 0 77 24t26 58h235q-15 -139 -109 -223t-239 -84q-158 0 -243 75t-85 201z" />
    <glyph glyph-name="Aogonek" unicode="&#x104;" 
d="M1085 0l-24 266h-440l-119 -266h-512l651 1434h809l137 -1434q-12 -7 -32 -18.5t-71.5 -47t-90.5 -70t-71 -79.5t-32 -82q0 -61 82 -61q23 0 47 2.5t37 5.5l12 2l-30 -184q-66 -21 -138 -21q-146 0 -216 51t-70 133q0 47 20 92.5t51 80t72 67t78 54t74 39.5t55.5 25.5
t26.5 10.5h-306zM934 1004l-168 -379h276l-26 379h-82z" />
    <glyph glyph-name="aogonek" unicode="&#x105;" horiz-adv-x="1419" 
d="M1044 -553q-146 0 -216 51t-70 133q0 54 26 106t69 91t87.5 71t91 54.5t70.5 32.5t35 14h-277l25 133h-21q-4 -7 -12.5 -18t-38 -39t-63 -50t-87.5 -39.5t-112 -17.5q-178 0 -287.5 120t-109.5 331q0 160 44 293.5t117.5 220t166.5 134.5t194 48q52 0 98.5 -9.5t79 -25
t59.5 -34.5t44 -37.5t28.5 -34t16.5 -24.5l6 -9h20l23 143h471l-191 -1085q-13 -7 -21.5 -12t-42.5 -27t-59.5 -40.5t-60.5 -48t-57.5 -55.5t-39 -56.5t-16.5 -57.5q0 -61 82 -61q23 0 47 2.5t37 5.5l12 2l-30 -184q-66 -21 -138 -21zM778 348q72 0 128.5 64.5t56.5 160.5
q0 74 -39 119t-95 45q-72 0 -128 -64.5t-56 -160.5q0 -74 38.5 -119t94.5 -45z" />
    <glyph glyph-name="Cacute" unicode="&#x106;" horiz-adv-x="1732" 
d="M1055 1475q319 0 515 -168t245 -447h-504q-2 7 -6 19.5t-23.5 44.5t-46 56t-77.5 44t-114 20q-135 0 -226 -103t-91 -275q0 -129 69.5 -203t186.5 -74q56 0 106 18.5t81.5 45t54.5 53t33 44.5l10 19h516q-3 -13 -10.5 -35t-37.5 -85t-68 -121t-105.5 -128t-146.5 -121
t-195 -85.5t-248 -34.5q-177 0 -324 52.5t-246 145.5t-153.5 221t-54.5 277q0 167 66 318t179 261.5t273.5 175.5t341.5 65zM952 1608l199 317h430l-2 -10l-350 -307h-277z" />
    <glyph glyph-name="cacute" unicode="&#x107;" horiz-adv-x="1361" 
d="M1413 625h-471q0 5 -1.5 13.5t-10.5 29.5t-23 37t-42.5 29.5t-65.5 13.5q-67 0 -115.5 -65t-48.5 -181q0 -82 33.5 -123t89.5 -41q29 0 55 10.5t42.5 25t29.5 29t19 25.5l5 10h484q-2 -10 -7 -27t-26 -65.5t-49.5 -93t-81 -98.5t-116 -93t-159 -65.5t-206.5 -26.5
q-175 0 -311.5 71.5t-209.5 192.5t-73 269q0 125 51 238.5t138 196t209.5 131t258.5 48.5q103 0 190.5 -21.5t148 -56t108 -80.5t76 -92t47 -94t25.5 -84t7 -63zM717 1280l198 317h431l-3 -10l-350 -307h-276z" />
    <glyph glyph-name="Ccircumflex" unicode="&#x108;" horiz-adv-x="1732" 
d="M1055 1475q319 0 515 -168t245 -447h-504q-2 7 -6 19.5t-23.5 44.5t-46 56t-77.5 44t-114 20q-135 0 -226 -103t-91 -275q0 -129 69.5 -203t186.5 -74q56 0 106 18.5t81.5 45t54.5 53t33 44.5l10 19h516q-3 -13 -10.5 -35t-37.5 -85t-68 -121t-105.5 -128t-146.5 -121
t-195 -85.5t-248 -34.5q-177 0 -324 52.5t-246 145.5t-153.5 221t-54.5 277q0 167 66 318t179 261.5t273.5 175.5t341.5 65zM1006 1925h307l172 -305l-2 -12h-277l-59 123h-41l-105 -123h-276l2 12z" />
    <glyph glyph-name="ccircumflex" unicode="&#x109;" horiz-adv-x="1361" 
d="M1413 625h-471q0 5 -1.5 13.5t-10.5 29.5t-23 37t-42.5 29.5t-65.5 13.5q-67 0 -115.5 -65t-48.5 -181q0 -82 33.5 -123t89.5 -41q29 0 55 10.5t42.5 25t29.5 29t19 25.5l5 10h484q-2 -10 -7 -27t-26 -65.5t-49.5 -93t-81 -98.5t-116 -93t-159 -65.5t-206.5 -26.5
q-175 0 -311.5 71.5t-209.5 192.5t-73 269q0 125 51 238.5t138 196t209.5 131t258.5 48.5q103 0 190.5 -21.5t148 -56t108 -80.5t76 -92t47 -94t25.5 -84t7 -63zM770 1597h307l172 -305l-2 -12h-276l-60 123h-41l-104 -123h-277l3 12z" />
    <glyph glyph-name="Ccaron" unicode="&#x10c;" horiz-adv-x="1732" 
d="M1055 1475q319 0 515 -168t245 -447h-504q-2 7 -6 19.5t-23.5 44.5t-46 56t-77.5 44t-114 20q-135 0 -226 -103t-91 -275q0 -129 69.5 -203t186.5 -74q56 0 106 18.5t81.5 45t54.5 53t33 44.5l10 19h516q-3 -13 -10.5 -35t-37.5 -85t-68 -121t-105.5 -128t-146.5 -121
t-195 -85.5t-248 -34.5q-177 0 -324 52.5t-246 145.5t-153.5 221t-54.5 277q0 167 66 318t179 261.5t273.5 175.5t341.5 65zM1257 1608h-307l-172 305l2 12h277l59 -123h41l105 123h276l-2 -12z" />
    <glyph glyph-name="ccaron" unicode="&#x10d;" horiz-adv-x="1361" 
d="M1413 625h-471q0 5 -1.5 13.5t-10.5 29.5t-23 37t-42.5 29.5t-65.5 13.5q-67 0 -115.5 -65t-48.5 -181q0 -82 33.5 -123t89.5 -41q29 0 55 10.5t42.5 25t29.5 29t19 25.5l5 10h484q-2 -10 -7 -27t-26 -65.5t-49.5 -93t-81 -98.5t-116 -93t-159 -65.5t-206.5 -26.5
q-175 0 -311.5 71.5t-209.5 192.5t-73 269q0 125 51 238.5t138 196t209.5 131t258.5 48.5q103 0 190.5 -21.5t148 -56t108 -80.5t76 -92t47 -94t25.5 -84t7 -63zM1012 1280h-307l-173 305l3 12h276l59 -122h41l105 122h276l-2 -12z" />
    <glyph glyph-name="Dcaron" unicode="&#x10e;" horiz-adv-x="1587" 
d="M788 0h-665l252 1434h516q165 0 306 -52.5t237 -141.5t150 -209.5t54 -254.5q0 -155 -64.5 -297t-175.5 -248t-270.5 -168.5t-339.5 -62.5zM711 430h57q141 0 239.5 92.5t98.5 237.5q0 107 -71 175.5t-185 68.5h-39zM1145 1608h-307l-172 305l2 12h276l60 -123h40
l105 123h276l-2 -12z" />
    <glyph glyph-name="dcaron" unicode="&#x10f;" horiz-adv-x="1822" 
d="M885 133h-21q-4 -7 -12.5 -18t-38 -39t-63 -50t-87.5 -39.5t-112 -17.5q-178 0 -287.5 120t-109.5 331q0 160 44 293.5t117.5 220t166.5 134.5t194 48q52 0 98.5 -9.5t79 -25t59.5 -34.5t44 -37.5t28.5 -34t16.5 -24.5l6 -9h20l84 492h471l-252 -1434h-471zM778 348
q72 0 128.5 64.5t56.5 160.5q0 74 -39 119t-95 45q-72 0 -128 -64.5t-56 -160.5q0 -74 38.5 -119t94.5 -45zM1649 870h-21l21 134h20q67 0 111 32.5t49 79.5l2 21q-18 -21 -59 -21q-62 0 -98 38t-36 106q0 85 60 144.5t145 59.5q87 0 136 -55t49 -160q0 -161 -109 -270
t-270 -109z" />
    <glyph glyph-name="Dcroat" unicode="&#x110;" horiz-adv-x="1646" 
d="M848 0h-666l94 543h-143l62 348h143l96 543h516q165 0 306.5 -52.5t237.5 -141.5t150 -209.5t54 -254.5q0 -155 -64.5 -297t-175.5 -248t-270.5 -168.5t-339.5 -62.5zM770 430h57q141 0 239.5 92.5t98.5 237.5q0 107 -71 175.5t-185 68.5h-39l-20 -113h184l-61 -348h-185
z" />
    <glyph glyph-name="dcroat" unicode="&#x111;" horiz-adv-x="1492" 
d="M1008 860h20l33 225h-195l43 236h195l18 113h471l-18 -113h143l-43 -236h-143l-191 -1085h-471l25 133h-21q-4 -7 -12.5 -18t-38.5 -39t-64.5 -50t-90.5 -39.5t-117 -17.5q-176 0 -286.5 113t-110.5 297q0 145 44 270t117 208t167 130t194 47q52 0 98.5 -10t79.5 -25
t60 -34t44 -37.5t29 -34t17 -24.5zM788 348q77 0 126 49t49 125q0 55 -41.5 94t-102.5 39q-77 0 -125.5 -48.5t-48.5 -125.5q0 -55 41 -94t102 -39z" />
    <glyph glyph-name="Emacron" unicode="&#x112;" horiz-adv-x="1388" 
d="M707 410h665l-72 -410h-1177l252 1434h1177l-71 -410h-666l-22 -133h522l-62 -348h-522zM602 1618l43 246h737l-43 -246h-737z" />
    <glyph glyph-name="emacron" unicode="&#x113;" horiz-adv-x="1378" 
d="M748 -31q-175 0 -311.5 71.5t-209.5 192.5t-73 269q0 125 51 238.5t138 196t208.5 131t257.5 48.5q135 0 249 -41t190 -112t118.5 -166.5t42.5 -202.5q0 -22 -1.5 -42.5t-3.5 -29.5l-1 -10h-762q-6 -30 -6 -61q0 -73 32.5 -113.5t80.5 -40.5q29 0 54 9.5t41 23t28 27
t17 23.5l5 9h489q-3 -9 -9.5 -24t-32 -58.5t-56.5 -83.5t-84.5 -88.5t-115 -83t-150 -58.5t-186.5 -24zM819 788q-59 0 -98 -39t-55 -104h276q0 68 -34 105.5t-89 37.5zM502 1280l43 246h737l-43 -246h-737z" />
    <glyph glyph-name="Edotaccent" unicode="&#x116;" horiz-adv-x="1388" 
d="M707 410h665l-72 -410h-1177l252 1434h1177l-71 -410h-666l-22 -133h522l-62 -348h-522zM983 1516q-119 0 -182.5 53t-63.5 141q0 101 71 168.5t185 67.5q119 0 182.5 -53.5t63.5 -141.5q0 -101 -71 -168t-185 -67z" />
    <glyph glyph-name="edotaccent" unicode="&#x117;" horiz-adv-x="1378" 
d="M748 -31q-175 0 -311.5 71.5t-209.5 192.5t-73 269q0 125 51 238.5t138 196t208.5 131t257.5 48.5q135 0 249 -41t190 -112t118.5 -166.5t42.5 -202.5q0 -22 -1.5 -42.5t-3.5 -29.5l-1 -10h-762q-6 -30 -6 -61q0 -73 32.5 -113.5t80.5 -40.5q29 0 54 9.5t41 23t28 27
t17 23.5l5 9h489q-3 -9 -9.5 -24t-32 -58.5t-56.5 -83.5t-84.5 -88.5t-115 -83t-150 -58.5t-186.5 -24zM819 788q-59 0 -98 -39t-55 -104h276q0 68 -34 105.5t-89 37.5zM870 1208q-119 0 -182 53.5t-63 141.5q0 101 71 168t185 67q119 0 182 -53t63 -141q0 -101 -71 -168.5
t-185 -67.5z" />
    <glyph glyph-name="Eogonek" unicode="&#x118;" horiz-adv-x="1388" 
d="M1014 -553q-146 0 -216.5 51t-70.5 133q0 47 20 92.5t51 80t72 67t78 54t74 39.5t55.5 25.5t26.5 10.5h-981l252 1434h1177l-71 -410h-666l-22 -133h522l-62 -348h-522l-24 -133h665l-72 -410h-2q-18 -10 -37.5 -22t-70.5 -48t-88 -69t-67.5 -77t-30.5 -81q0 -61 81 -61
q23 0 47 2.5t37 5.5l13 2l-31 -184q-65 -21 -137 -21z" />
    <glyph glyph-name="eogonek" unicode="&#x119;" horiz-adv-x="1378" 
d="M696 -553q-146 0 -216 51t-70 133q0 60 31 116t82 99t97 71.5t95 51.5q-166 7 -295 79.5t-197.5 191t-68.5 262.5q0 125 51 238.5t138 196t208.5 131t257.5 48.5q135 0 249 -41t190 -112t118.5 -166.5t42.5 -202.5q0 -22 -1.5 -42.5t-3.5 -29.5l-1 -10h-762
q-6 -30 -6 -61q0 -73 32.5 -113.5t80.5 -40.5q29 0 54 9.5t41 23t28 27t17 23.5l5 9h489q-29 -79 -83.5 -148.5t-117.5 -119t-133 -94.5t-133.5 -82.5t-115 -74.5t-82.5 -79t-31 -88q0 -61 82 -61q23 0 47 2.5t37 5.5l12 2l-30 -184q-66 -21 -138 -21zM819 788
q-59 0 -98 -39t-55 -104h276q0 68 -34 105.5t-89 37.5z" />
    <glyph glyph-name="Ecaron" unicode="&#x11a;" horiz-adv-x="1388" 
d="M707 410h665l-72 -410h-1177l252 1434h1177l-71 -410h-666l-22 -133h522l-62 -348h-522zM1135 1608h-308l-172 305l2 12h277l59 -123h41l105 123h276l-2 -12z" />
    <glyph glyph-name="ecaron" unicode="&#x11b;" horiz-adv-x="1378" 
d="M748 -31q-175 0 -311.5 71.5t-209.5 192.5t-73 269q0 125 51 238.5t138 196t208.5 131t257.5 48.5q135 0 249 -41t190 -112t118.5 -166.5t42.5 -202.5q0 -22 -1.5 -42.5t-3.5 -29.5l-1 -10h-762q-6 -30 -6 -61q0 -73 32.5 -113.5t80.5 -40.5q29 0 54 9.5t41 23t28 27
t17 23.5l5 9h489q-3 -9 -9.5 -24t-32 -58.5t-56.5 -83.5t-84.5 -88.5t-115 -83t-150 -58.5t-186.5 -24zM819 788q-59 0 -98 -39t-55 -104h276q0 68 -34 105.5t-89 37.5zM1022 1280h-307l-172 305l2 12h276l60 -122h41l104 122h277l-3 -12z" />
    <glyph glyph-name="Gbreve" unicode="&#x11e;" horiz-adv-x="1863" 
d="M1278 512h-164l53 297h820l-54 -297h-153q-4 -12 -13 -31.5t-43 -77t-74.5 -110t-109.5 -116t-147 -109.5t-188.5 -77.5t-231.5 -31.5q-177 0 -324 52.5t-246 145.5t-153.5 221t-54.5 277q0 167 66 318t179 261.5t273.5 175.5t341.5 65q132 0 244 -30t186 -78t133.5 -106
t92 -116.5t54 -106.5t28.5 -78l7 -30h-516q-2 5 -7 12.5t-24.5 27t-44.5 34.5t-68.5 27.5t-95.5 12.5q-135 0 -226 -103t-91 -275q0 -129 69.5 -203t186.5 -74q60 0 112.5 12.5t84.5 30.5t55.5 36.5t32.5 31.5zM791 1905h233q0 -34 26 -58t76 -24q51 0 77 24t26 58h235
q-15 -139 -109 -223.5t-239 -84.5q-158 0 -243 75.5t-85 201.5z" />
    <glyph glyph-name="gbreve" unicode="&#x11f;" horiz-adv-x="1427" 
d="M903 195h-20q-4 -7 -12.5 -18t-39 -39t-65 -50t-90.5 -39.5t-117 -17.5q-176 0 -286.5 115t-110.5 305q0 149 44 276t117 211t167 131t194 47q52 0 98.5 -10t79.5 -25t60 -34t44 -37.5t29 -34t17 -24.5l4 -9h20l23 143h471l-260 -1474h-1127l56 317h655zM797 410
q72 0 123 51t51 133q0 63 -38.5 103t-105.5 40q-72 0 -123 -51t-51 -133q0 -63 38.5 -103t105.5 -40zM582 1577h233q0 -34 26 -58t77 -24q50 0 76 24t26 58h235q-15 -139 -109 -223t-239 -84q-158 0 -242.5 75t-84.5 201z" />
    <glyph glyph-name="Gcommaaccent" unicode="&#x122;" horiz-adv-x="1863" 
d="M1278 512h-164l53 297h820l-54 -297h-153q-4 -12 -13 -31.5t-43 -77t-74.5 -110t-109.5 -116t-147 -109.5t-188.5 -77.5t-231.5 -31.5q-177 0 -324 52.5t-246 145.5t-153.5 221t-54.5 277q0 167 66 318t179 261.5t273.5 175.5t341.5 65q132 0 244 -30t186 -78t133.5 -106
t92 -116.5t54 -106.5t28.5 -78l7 -30h-516q-2 5 -7 12.5t-24.5 27t-44.5 34.5t-68.5 27.5t-95.5 12.5q-135 0 -226 -103t-91 -275q0 -129 69.5 -203t186.5 -74q60 0 112.5 12.5t84.5 30.5t55.5 36.5t32.5 31.5zM1110 -438q-25 -134 -124.5 -216.5t-233.5 -82.5q-23 0 -35 2
l24 133q3 0 9 -1t8 -1q60 0 103.5 33t53.5 77l3 21q-19 -14 -52 -14q-65 0 -102 37t-37 98q0 87 60 148t149 61q81 0 131.5 -54.5t50.5 -158.5q0 -24 -8 -82z" />
    <glyph glyph-name="gcommaaccent" unicode="&#x123;" horiz-adv-x="1427" 
d="M1116 1845h21l-21 -133h-20q-67 0 -111 -33t-49 -80l-2 -20q18 20 59 20q62 0 97.5 -37.5t35.5 -105.5q0 -85 -59.5 -145t-144.5 -60q-87 0 -136 55t-49 160q0 161 109 270t270 109zM903 195h-20q-4 -7 -12.5 -18t-39 -39t-65 -50t-90.5 -39.5t-117 -17.5
q-176 0 -286.5 115t-110.5 305q0 149 44 276t117 211t167 131t194 47q52 0 98.5 -10t79.5 -25t60 -34t44 -37.5t29 -34t17 -24.5l4 -9h20l23 143h471l-260 -1474h-1127l56 317h655zM797 410q72 0 123 51t51 133q0 63 -38.5 103t-105.5 40q-72 0 -123 -51t-51 -133
q0 -63 38.5 -103t105.5 -40z" />
    <glyph glyph-name="Imacron" unicode="&#x12a;" horiz-adv-x="753" 
d="M887 1434l-252 -1434h-512l252 1434h512zM295 1618l43 246h737l-43 -246h-737z" />
    <glyph glyph-name="imacron" unicode="&#x12b;" horiz-adv-x="645" 
d="M92 0l191 1085h471l-191 -1085h-471zM174 1280l43 246h737l-43 -246h-737z" />
    <glyph glyph-name="Iogonek" unicode="&#x12e;" horiz-adv-x="753" 
d="M348 -553q-146 0 -216.5 51t-70.5 133q0 54 26 106t69 91t87.5 71t91 54.5t70.5 32.5t35 14h-317l252 1434h512l-252 -1434q-12 -7 -32 -18.5t-71.5 -47t-90.5 -70t-71 -79.5t-32 -82q0 -61 82 -61q23 0 47 2.5t37 5.5l12 2l-31 -184q-65 -21 -137 -21z" />
    <glyph glyph-name="iogonek" unicode="&#x12f;" horiz-adv-x="645" 
d="M92 0l191 1085h471l-191 -1085q-13 -7 -21.5 -12t-42.5 -27t-59.5 -40.5t-60.5 -48t-57.5 -55.5t-39 -56.5t-16.5 -57.5q0 -61 82 -61q23 0 47 2.5t37 5.5l12 2l-30 -184q-66 -21 -138 -21q-146 0 -216 51t-70 133q0 54 26 106t69 91t87.5 71t91 54.5t70.5 32.5t35 14
h-277zM553 1167q-119 0 -182.5 53.5t-63.5 141.5q0 101 71 168t185 67q119 0 182.5 -53t63.5 -141q0 -101 -71 -168.5t-185 -67.5z" />
    <glyph glyph-name="Idotaccent" unicode="&#x130;" horiz-adv-x="753" 
d="M887 1434l-252 -1434h-512l252 1434h512zM676 1536q-119 0 -182.5 53.5t-63.5 141.5q0 101 71 168t185 67q119 0 182.5 -53t63.5 -141q0 -101 -71 -168.5t-185 -67.5z" />
    <glyph glyph-name="dotlessi" unicode="&#x131;" horiz-adv-x="645" 
d="M92 0l191 1085h471l-191 -1085h-471z" />
    <glyph glyph-name="Kcommaaccent" unicode="&#x136;" horiz-adv-x="1572" 
d="M1044 0l-198 502h-123l-88 -502h-512l252 1434h512l-82 -471h102l348 471h574l-526 -666l315 -768h-574zM1008 -438q-25 -134 -125 -216.5t-234 -82.5q-23 0 -35 2l25 133q3 0 8.5 -1t7.5 -1q60 0 104 33t54 77l2 21q-18 -14 -51 -14q-65 0 -102 37t-37 98q0 87 60 148
t149 61q81 0 131.5 -54.5t50.5 -158.5q0 -24 -8 -82z" />
    <glyph glyph-name="kcommaaccent" unicode="&#x137;" horiz-adv-x="1296" 
d="M625 348l-62 -348h-471l252 1434h471l-123 -697h72l225 348h481l-348 -522l189 -563h-482l-112 348h-92zM854 -438q-25 -134 -124.5 -216.5t-233.5 -82.5q-23 0 -35 2l24 133q3 0 9 -1t8 -1q60 0 103.5 33t53.5 77l3 21q-19 -14 -52 -14q-65 0 -102 37t-37 98
q0 87 60 148t149 61q81 0 131.5 -54.5t50.5 -158.5q0 -24 -8 -82z" />
    <glyph glyph-name="Lacute" unicode="&#x139;" horiz-adv-x="1267" 
d="M715 451h645l-80 -451h-1157l252 1434h512zM512 1608l199 317h430l-2 -10l-351 -307h-276z" />
    <glyph glyph-name="lacute" unicode="&#x13a;" horiz-adv-x="823" 
d="M815 1434l-197 -1117h246l-55 -317h-717l252 1434h471zM469 1608l199 317h430l-2 -10l-351 -307h-276z" />
    <glyph glyph-name="Lcommaaccent" unicode="&#x13b;" horiz-adv-x="1267" 
d="M715 451h645l-80 -451h-1157l252 1434h512zM874 -438q-25 -134 -124.5 -216.5t-233.5 -82.5q-23 0 -35 2l25 133q3 0 8.5 -1t7.5 -1q60 0 104 33t54 77l2 21q-18 -14 -51 -14q-65 0 -102 37t-37 98q0 87 60 148t148 61q82 0 132.5 -55t50.5 -158q0 -17 -9 -82z" />
    <glyph glyph-name="lcommaaccent" unicode="&#x13c;" horiz-adv-x="823" 
d="M815 1434l-197 -1117h246l-55 -317h-717l252 1434h471zM588 -438q-25 -134 -125 -216.5t-234 -82.5q-22 0 -34 2l24 133q3 0 9 -1t8 -1q60 0 103.5 33t53.5 77l2 21q-18 -14 -51 -14q-65 0 -102 37t-37 98q0 87 60 148t149 61q81 0 131.5 -54.5t50.5 -158.5q0 -24 -8 -82
z" />
    <glyph glyph-name="Lcaron" unicode="&#x13d;" horiz-adv-x="1269" 
d="M715 451h645l-80 -451h-1157l252 1434h512zM983 881h-20l20 133h21q67 0 110.5 32.5t48.5 79.5l2 21q-18 -21 -59 -21q-62 0 -97.5 38t-35.5 106q0 85 60 145t145 60q87 0 135.5 -55t48.5 -160q0 -161 -109 -270t-270 -109z" />
    <glyph glyph-name="lcaron" unicode="&#x13e;" horiz-adv-x="1052" 
d="M815 1434l-197 -1117h246l-55 -317h-717l252 1434h471zM879 870h-21l21 134h20q67 0 111 32.5t49 79.5l2 21q-19 -21 -60 -21q-62 0 -97.5 38t-35.5 106q0 85 60 144.5t145 59.5q87 0 135.5 -55t48.5 -160q0 -161 -108.5 -270t-269.5 -109z" />
    <glyph glyph-name="Lslash" unicode="&#x141;" horiz-adv-x="1343" 
d="M113 440l59 328l176 72l105 594h512l-66 -369l309 123l-57 -328l-309 -123l-51 -286h645l-78 -451h-1157l90 512z" />
    <glyph glyph-name="lslash" unicode="&#x142;" horiz-adv-x="917" 
d="M102 451l58 317l153 63l107 603h471l-70 -400l230 92l-56 -317l-231 -92l-70 -400h246l-55 -317h-717l90 514z" />
    <glyph glyph-name="Nacute" unicode="&#x143;" horiz-adv-x="1705" 
d="M1221 758h24v205l82 471h512l-252 -1434h-553l-291 676h-24v-195l-84 -481h-512l252 1434h553zM944 1608l199 317h430l-2 -10l-350 -307h-277z" />
    <glyph glyph-name="nacute" unicode="&#x144;" horiz-adv-x="1374" 
d="M662 565l-99 -565h-471l191 1085h471l-27 -143h21q5 7 14.5 19t41 42t66 52.5t87.5 41.5t108 19q90 0 160.5 -29t118 -87.5t63 -147t-3.5 -207.5l-113 -645h-471l101 573q13 76 -13 115t-88 39q-57 0 -100.5 -41.5t-56.5 -120.5zM727 1280l199 317h430l-2 -10l-350 -307
h-277z" />
    <glyph glyph-name="Ncommaaccent" unicode="&#x145;" horiz-adv-x="1705" 
d="M1221 758h24v205l82 471h512l-252 -1434h-553l-291 676h-24v-195l-84 -481h-512l252 1434h553zM1049 -438q-25 -134 -125 -216.5t-234 -82.5q-23 0 -35 2l25 133q3 0 8.5 -1t7.5 -1q60 0 104 33t54 77l2 21q-18 -14 -51 -14q-65 0 -102 37t-37 98q0 87 60 148t148 61
q82 0 132.5 -55t50.5 -158q0 -24 -8 -82z" />
    <glyph glyph-name="ncommaaccent" unicode="&#x146;" horiz-adv-x="1374" 
d="M662 565l-99 -565h-471l191 1085h471l-27 -143h21q5 7 14.5 19t41 42t66 52.5t87.5 41.5t108 19q90 0 160.5 -29t118 -87.5t63 -147t-3.5 -207.5l-113 -645h-471l101 573q13 76 -13 115t-88 39q-57 0 -100.5 -41.5t-56.5 -120.5zM854 -438q-25 -134 -124.5 -216.5
t-233.5 -82.5q-23 0 -35 2l24 133q3 0 9 -1t8 -1q60 0 103.5 33t53.5 77l3 21q-19 -14 -52 -14q-65 0 -102 37t-37 98q0 87 60 148t149 61q81 0 131.5 -54.5t50.5 -158.5q0 -24 -8 -82z" />
    <glyph glyph-name="Ncaron" unicode="&#x147;" horiz-adv-x="1705" 
d="M1221 758h24v205l82 471h512l-252 -1434h-553l-291 676h-24v-195l-84 -481h-512l252 1434h553zM1268 1608h-307l-173 305l3 12h276l59 -123h41l105 123h276l-2 -12z" />
    <glyph glyph-name="ncaron" unicode="&#x148;" horiz-adv-x="1374" 
d="M662 565l-99 -565h-471l191 1085h471l-27 -143h21q5 7 14.5 19t41 42t66 52.5t87.5 41.5t108 19q90 0 160.5 -29t118 -87.5t63 -147t-3.5 -207.5l-113 -645h-471l101 573q13 76 -13 115t-88 39q-57 0 -100.5 -41.5t-56.5 -120.5zM1042 1280h-307l-172 305l2 12h277
l59 -122h41l105 122h276l-2 -12z" />
    <glyph glyph-name="Omacron" unicode="&#x14c;" horiz-adv-x="1761" 
d="M973 389q135 0 226 103.5t91 275.5q0 129 -69.5 202.5t-186.5 73.5q-135 0 -226 -103t-91 -275q0 -129 69.5 -203t186.5 -74zM963 -41q-177 0 -324 52.5t-246.5 145.5t-154 221t-54.5 277q0 167 66 318t179 261.5t273.5 175.5t341.5 65q177 0 324 -53t246.5 -146
t154 -221t54.5 -277q0 -167 -66 -318t-179 -261t-273.5 -175t-341.5 -65zM737 1618l43 246h738l-43 -246h-738z" />
    <glyph glyph-name="omacron" unicode="&#x14d;" horiz-adv-x="1392" 
d="M778 338q73 0 129 68t56 178q0 164 -144 164q-73 0 -128.5 -68t-55.5 -178q0 -164 143 -164zM768 -31q-139 0 -255.5 41.5t-194.5 113.5t-121 169.5t-43 208.5q0 126 50 238.5t137.5 195.5t214.5 131.5t273 48.5q139 0 255.5 -41.5t194.5 -113t121.5 -169t43.5 -208.5
q0 -126 -50 -238.5t-138 -196t-215 -132t-273 -48.5zM543 1280l43 246h737l-43 -246h-737z" />
    <glyph glyph-name="Ohungarumlaut" unicode="&#x150;" horiz-adv-x="1761" 
d="M973 389q135 0 226 103.5t91 275.5q0 129 -69.5 202.5t-186.5 73.5q-135 0 -226 -103t-91 -275q0 -129 69.5 -203t186.5 -74zM963 -41q-177 0 -324 52.5t-246.5 145.5t-154 221t-54.5 277q0 167 66 318t179 261.5t273.5 175.5t341.5 65q177 0 324 -53t246.5 -146
t154 -221t54.5 -277q0 -167 -66 -318t-179 -261t-273.5 -175t-341.5 -65zM768 1608l199 317h348l-2 -10l-309 -307h-236zM1188 1608l198 317h369l-2 -10l-340 -307h-225z" />
    <glyph glyph-name="ohungarumlaut" unicode="&#x151;" horiz-adv-x="1392" 
d="M778 338q73 0 129 68t56 178q0 164 -144 164q-73 0 -128.5 -68t-55.5 -178q0 -164 143 -164zM768 -31q-139 0 -255.5 41.5t-194.5 113.5t-121 169.5t-43 208.5q0 126 50 238.5t137.5 195.5t214.5 131.5t273 48.5q139 0 255.5 -41.5t194.5 -113t121.5 -169t43.5 -208.5
q0 -126 -50 -238.5t-138 -196t-215 -132t-273 -48.5zM545 1280l198 317h349l-2 -10l-310 -307h-235zM965 1280l198 317h369l-2 -10l-340 -307h-225z" />
    <glyph glyph-name="OE" unicode="&#x152;" horiz-adv-x="2392" 
d="M1419 1434h1137l-76 -430h-635l-18 -113h491l-61 -348h-492l-20 -113h635l-76 -430h-1137l23 119q-6 -7 -16.5 -17.5t-47.5 -38t-79 -48.5t-109 -38.5t-139 -17.5q-129 0 -242.5 48.5t-195.5 134t-129.5 210t-47.5 269.5q0 177 64.5 337t171 272.5t249 178.5t294.5 66
q65 0 123.5 -9.5t101 -25t78.5 -34t59 -37.5t39.5 -34.5t23.5 -24.5l7 -10zM973 389q135 0 226 103.5t91 275.5q0 129 -69.5 202.5t-186.5 73.5q-135 0 -226 -103t-91 -275q0 -129 69.5 -203t186.5 -74z" />
    <glyph glyph-name="oe" unicode="&#x153;" horiz-adv-x="2105" 
d="M1495 -31q-54 0 -104 8.5t-86 22t-67 30t-51 33t-34 30t-21 21.5l-6 9h-20q-6 -6 -17 -16.5t-49.5 -37t-81.5 -47t-111 -37t-140 -16.5q-156 0 -283 71t-198.5 193t-71.5 269q0 125 49 238.5t132 195.5t199 131t244 49q74 0 141.5 -14.5t111 -36t75.5 -42.5t46 -35
l15 -15h21q6 6 18 15.5t51 34t81.5 43.5t107.5 34.5t131 15.5q120 0 225 -41.5t178 -112t114.5 -166t41.5 -202.5q0 -22 -1.5 -42.5t-2.5 -29.5l-2 -10h-762q-6 -30 -6 -61q0 -73 32.5 -113.5t80.5 -40.5q29 0 54 9.5t41 23t28 27t17 23.5l5 9h489q-3 -9 -9.5 -24
t-31.5 -58.5t-55.5 -83.5t-82.5 -88.5t-111.5 -83t-144.5 -58.5t-179 -24zM758 338q60 0 112 69t52 177q0 82 -33.5 123t-89.5 41q-60 0 -112 -69t-52 -177q0 -82 33.5 -123t89.5 -41zM1546 788q-59 0 -98 -39t-55 -104h276q0 68 -34 105.5t-89 37.5z" />
    <glyph glyph-name="Racute" unicode="&#x154;" horiz-adv-x="1585" 
d="M1360 471l176 -471h-512l-135 389h-184l-70 -389h-512l252 1434h760q120 0 222.5 -38t172 -103t108.5 -153.5t39 -187.5q0 -77 -17.5 -145.5t-45.5 -116t-62 -86.5t-67.5 -63t-61.5 -40.5t-45 -22.5zM772 778h240q62 0 102.5 41.5t40.5 104.5q0 45 -30.5 72.5t-84.5 27.5
h-225zM879 1608l198 317h430l-2 -10l-350 -307h-276z" />
    <glyph glyph-name="racute" unicode="&#x155;" horiz-adv-x="952" 
d="M1096 1106l-82 -461h-197q-75 0 -113.5 -32t-50.5 -101l-90 -512h-471l191 1085h450l-26 -153h20q4 7 11.5 19t33 42t55.5 52.5t77.5 41.5t99.5 19h92zM563 1280l199 317h430l-2 -10l-350 -307h-277z" />
    <glyph glyph-name="Rcommaaccent" unicode="&#x156;" horiz-adv-x="1585" 
d="M1360 471l176 -471h-512l-135 389h-184l-70 -389h-512l252 1434h760q120 0 222.5 -38t172 -103t108.5 -153.5t39 -187.5q0 -77 -17.5 -145.5t-45.5 -116t-62 -86.5t-67.5 -63t-61.5 -40.5t-45 -22.5zM772 778h240q62 0 102.5 41.5t40.5 104.5q0 45 -30.5 72.5t-84.5 27.5
h-225zM1008 -438q-25 -134 -125 -216.5t-234 -82.5q-23 0 -35 2l25 133q3 0 8.5 -1t7.5 -1q60 0 104 33t54 77l2 21q-18 -14 -51 -14q-65 0 -102 37t-37 98q0 87 60 148t149 61q81 0 131.5 -54.5t50.5 -158.5q0 -24 -8 -82z" />
    <glyph glyph-name="rcommaaccent" unicode="&#x157;" horiz-adv-x="952" 
d="M1096 1106l-82 -461h-197q-75 0 -113.5 -32t-50.5 -101l-90 -512h-471l191 1085h450l-26 -153h20q4 7 11.5 19t33 42t55.5 52.5t77.5 41.5t99.5 19h92zM465 -438q-25 -134 -125 -216.5t-234 -82.5q-22 0 -34 2l24 133q3 0 9 -1t8 -1q60 0 103.5 33t53.5 77l2 21
q-18 -14 -51 -14q-65 0 -102 37t-37 98q0 87 60 148t149 61q81 0 131.5 -54.5t50.5 -158.5q0 -24 -8 -82z" />
    <glyph glyph-name="Rcaron" unicode="&#x158;" horiz-adv-x="1585" 
d="M1360 471l176 -471h-512l-135 389h-184l-70 -389h-512l252 1434h760q120 0 222.5 -38t172 -103t108.5 -153.5t39 -187.5q0 -77 -17.5 -145.5t-45.5 -116t-62 -86.5t-67.5 -63t-61.5 -40.5t-45 -22.5zM772 778h240q62 0 102.5 41.5t40.5 104.5q0 45 -30.5 72.5t-84.5 27.5
h-225zM1196 1608h-307l-172 305l2 12h276l60 -123h41l104 123h277l-2 -12z" />
    <glyph glyph-name="rcaron" unicode="&#x159;" horiz-adv-x="952" 
d="M1096 1106l-82 -461h-197q-75 0 -113.5 -32t-50.5 -101l-90 -512h-471l191 1085h450l-26 -153h20q4 7 11.5 19t33 42t55.5 52.5t77.5 41.5t99.5 19h92zM848 1280h-307l-172 305l2 12h276l60 -122h41l104 122h276l-2 -12z" />
    <glyph glyph-name="Sacute" unicode="&#x15a;" horiz-adv-x="1492" 
d="M983 410q0 28 -25 51.5t-67 42t-96.5 37.5t-114.5 40.5t-120.5 46.5t-115 60.5t-96.5 78.5t-67 104t-25 133q0 93 42.5 177.5t120.5 150t200.5 104.5t271.5 39q102 0 190.5 -16.5t152 -45t116.5 -65t87.5 -77t61 -81t40.5 -77t22.5 -65t10.5 -44.5l3 -17h-510q0 5 -2 13
t-12 28.5t-25.5 36t-48.5 28.5t-76 13q-50 0 -81.5 -23t-31.5 -49q0 -19 25 -36.5t68 -33t98.5 -32.5t116.5 -38t122 -46.5t116.5 -61.5t98.5 -79.5t68 -104t25 -131.5q0 -100 -46 -192t-129 -163.5t-210.5 -114t-280.5 -42.5q-140 0 -255.5 29.5t-189 74t-129 103.5
t-83.5 111.5t-45 104.5t-21 76.5t-4 33.5h502q0 -4 3 -18t16.5 -40.5t35 -49t63.5 -39.5t97 -17q65 0 99 24t34 58zM829 1608l199 317h430l-2 -10l-350 -307h-277z" />
    <glyph glyph-name="sacute" unicode="&#x15b;" horiz-adv-x="1234" 
d="M219 748q0 161 127.5 264.5t364.5 103.5q89 0 165 -13t130.5 -35t99 -50.5t72.5 -59.5t49 -62.5t31.5 -60t16.5 -50.5t7 -35l2 -13h-428q0 3 -1.5 9.5t-8 17.5t-16 21t-27.5 17t-41 7q-29 0 -45.5 -12.5t-16.5 -28.5q0 -18 30 -34.5t78 -32t106 -34t115.5 -46
t105.5 -62.5t78 -89.5t30 -121.5q0 -170 -132 -274.5t-390 -104.5q-123 0 -223.5 22t-162 57.5t-107 78t-66.5 85t-33.5 78t-14.5 57.5l-1 22h434q0 -4 1 -10t8 -22t19.5 -28.5t40 -22.5t64.5 -10q42 0 62 12t20 29q0 20 -30 38t-78 33.5t-105.5 34t-115.5 46.5t-106 63.5
t-78 91t-30 124.5zM657 1280l199 317h430l-2 -10l-350 -307h-277z" />
    <glyph glyph-name="Scedilla" unicode="&#x15e;" horiz-adv-x="1492" 
d="M983 410q0 28 -25 51.5t-67 42t-96.5 37.5t-114.5 40.5t-120.5 46.5t-115 60.5t-96.5 78.5t-67 104t-25 133q0 93 42.5 177.5t120.5 150t200.5 104.5t271.5 39q102 0 190.5 -16.5t152 -45t116.5 -65t87.5 -77t61 -81t40.5 -77t22.5 -65t10.5 -44.5l3 -17h-510q0 5 -2 13
t-12 28.5t-25.5 36t-48.5 28.5t-76 13q-50 0 -81.5 -23t-31.5 -49q0 -19 25 -36.5t68 -33t98.5 -32.5t116.5 -38t122 -46.5t116.5 -61.5t98.5 -79.5t68 -104t25 -131.5q0 -100 -46 -192t-129 -163.5t-210.5 -114t-280.5 -42.5h-39l-30 -55q8 -1 21 -3t46 -14.5t58 -31
t46 -56t21 -86.5q0 -118 -90.5 -202t-226.5 -84q-64 0 -123 15.5t-86 30.5l-27 15l41 205l9 -6q9 -6 27.5 -15t41 -18.5t54 -16t63.5 -6.5q44 0 68 20t24 52q0 51 -72 51h-135l117 221q-103 18 -187.5 55.5t-138.5 82.5t-95 99t-62 99.5t-33.5 89t-15.5 64t-3 27.5h502
q0 -4 3 -18t16.5 -40.5t35 -49t63.5 -39.5t97 -17q65 0 99 24t34 58z" />
    <glyph glyph-name="scedilla" unicode="&#x15f;" horiz-adv-x="1232" 
d="M219 748q0 161 127.5 264.5t364.5 103.5q89 0 165 -13t130.5 -35t99 -50.5t72.5 -59.5t49 -62.5t31.5 -60t16.5 -50.5t7 -35l2 -13h-428q0 3 -1.5 9.5t-8 17.5t-16 21t-27.5 17t-41 7q-29 0 -45.5 -12.5t-16.5 -28.5q0 -18 30 -34.5t78 -32t106 -34t115.5 -46
t105.5 -62.5t78 -89.5t30 -121.5q0 -170 -132 -274.5t-390 -104.5h-8l-35 -65q8 -1 21 -3t46 -14.5t58 -31t46 -56t21 -86.5q0 -118 -90.5 -202t-226.5 -84q-64 0 -123 15.5t-86 30.5l-27 15l41 205l9 -6q9 -6 27.5 -15t41 -18.5t54 -16t63.5 -6.5q44 0 68 20t24 52
q0 51 -72 51h-135l119 228q-90 13 -163.5 41t-118.5 63t-78 74.5t-48.5 76t-24.5 66.5t-10 48l-1 18h434q0 -4 1 -10t8 -22t19.5 -28.5t40 -22.5t64.5 -10q42 0 62 12t20 29q0 20 -30 38t-78 33.5t-105.5 34t-115.5 46.5t-106 63.5t-78 91t-30 124.5z" />
    <glyph glyph-name="Scaron" unicode="&#x160;" horiz-adv-x="1492" 
d="M983 410q0 28 -25 51.5t-67 42t-96.5 37.5t-114.5 40.5t-120.5 46.5t-115 60.5t-96.5 78.5t-67 104t-25 133q0 93 42.5 177.5t120.5 150t200.5 104.5t271.5 39q102 0 190.5 -16.5t152 -45t116.5 -65t87.5 -77t61 -81t40.5 -77t22.5 -65t10.5 -44.5l3 -17h-510q0 5 -2 13
t-12 28.5t-25.5 36t-48.5 28.5t-76 13q-50 0 -81.5 -23t-31.5 -49q0 -19 25 -36.5t68 -33t98.5 -32.5t116.5 -38t122 -46.5t116.5 -61.5t98.5 -79.5t68 -104t25 -131.5q0 -100 -46 -192t-129 -163.5t-210.5 -114t-280.5 -42.5q-140 0 -255.5 29.5t-189 74t-129 103.5
t-83.5 111.5t-45 104.5t-21 76.5t-4 33.5h502q0 -4 3 -18t16.5 -40.5t35 -49t63.5 -39.5t97 -17q65 0 99 24t34 58zM1114 1608h-307l-172 305l2 12h276l60 -123h41l104 123h277l-2 -12z" />
    <glyph glyph-name="scaron" unicode="&#x161;" horiz-adv-x="1232" 
d="M219 748q0 161 127.5 264.5t364.5 103.5q89 0 165 -13t130.5 -35t99 -50.5t72.5 -59.5t49 -62.5t31.5 -60t16.5 -50.5t7 -35l2 -13h-428q0 3 -1.5 9.5t-8 17.5t-16 21t-27.5 17t-41 7q-29 0 -45.5 -12.5t-16.5 -28.5q0 -18 30 -34.5t78 -32t106 -34t115.5 -46
t105.5 -62.5t78 -89.5t30 -121.5q0 -170 -132 -274.5t-390 -104.5q-123 0 -223.5 22t-162 57.5t-107 78t-66.5 85t-33.5 78t-14.5 57.5l-1 22h434q0 -4 1 -10t8 -22t19.5 -28.5t40 -22.5t64.5 -10q42 0 62 12t20 29q0 20 -30 38t-78 33.5t-105.5 34t-115.5 46.5t-106 63.5
t-78 91t-30 124.5zM971 1280h-307l-172 305l2 12h276l59 -122h41l105 122h276l-2 -12z" />
    <glyph glyph-name="Tcommaaccent" unicode="&#x162;" horiz-adv-x="1411" 
d="M604 983h-430l80 451h1372l-80 -451h-430l-174 -983h-512zM823 -438q-25 -134 -124.5 -216.5t-233.5 -82.5q-23 0 -35 2l25 133q3 0 8.5 -1t7.5 -1q60 0 104 33t54 77l2 21q-18 -14 -51 -14q-65 0 -102.5 37t-37.5 98q0 87 60 148t149 61q81 0 131.5 -54.5t50.5 -158.5
q0 -24 -8 -82z" />
    <glyph glyph-name="tcommaaccent" unicode="&#x163;" horiz-adv-x="956" 
d="M154 768l55 317h143l41 226h471l-41 -226h246l-55 -317h-246l-80 -451h266l-55 -317h-737l135 768h-143zM659 -438q-25 -134 -124.5 -216.5t-233.5 -82.5q-23 0 -35 2l25 133q3 0 8.5 -1t7.5 -1q60 0 104 33t54 77l2 21q-18 -14 -51 -14q-65 0 -102.5 37t-37.5 98
q0 87 60 148t149 61q82 0 132.5 -55t50.5 -158q0 -17 -9 -82z" />
    <glyph glyph-name="Tcaron" unicode="&#x164;" horiz-adv-x="1411" 
d="M604 983h-430l80 451h1372l-80 -451h-430l-174 -983h-512zM1114 1608h-307l-172 305l2 12h276l60 -123h41l104 123h277l-2 -12z" />
    <glyph glyph-name="tcaron" unicode="&#x165;" horiz-adv-x="1142" 
d="M154 768l55 317h143l39 226h471l-174 -994h266l-55 -317h-737l135 768h-143zM928 737h-21l21 133h20q67 0 111 33t49 80l2 21q-18 -21 -59 -21q-62 0 -97.5 37.5t-35.5 105.5q0 85 59.5 145t144.5 60q87 0 136 -55t49 -160q0 -161 -109 -270t-270 -109z" />
    <glyph glyph-name="Umacron" unicode="&#x16a;" horiz-adv-x="1646" 
d="M1120 600l148 834h512l-158 -899q-22 -125 -80 -229.5t-147.5 -182t-216.5 -121t-277 -43.5q-239 0 -404 84t-235.5 242.5t-32.5 371.5l138 777h512l-142 -799q-18 -102 31 -163.5t154 -61.5q78 0 129.5 47.5t68.5 142.5zM717 1618l43 246h737l-43 -246h-737z" />
    <glyph glyph-name="umacron" unicode="&#x16b;" horiz-adv-x="1374" 
d="M907 520l99 565h471l-191 -1085h-471l27 143h-21q-5 -7 -14.5 -19t-41 -42t-66 -52.5t-87.5 -41.5t-108 -19q-90 0 -160.5 29t-118 87.5t-63 147t3.5 207.5l113 645h471l-101 -573q-13 -76 13 -115t88 -39q57 0 100.5 41.5t56.5 120.5zM522 1280l43 246h738l-43 -246
h-738z" />
    <glyph glyph-name="Uring" unicode="&#x16e;" horiz-adv-x="1646" 
d="M1120 600l148 834h512l-158 -899q-22 -125 -80 -229.5t-147.5 -182t-216.5 -121t-277 -43.5q-239 0 -404 84t-235.5 242.5t-32.5 371.5l138 777h512l-142 -799q-18 -102 31 -163.5t154 -61.5q78 0 129.5 47.5t68.5 142.5zM1075 1526q-99 0 -167 66t-68 159q0 106 84 186
t192 80q99 0 167.5 -66t68.5 -159q0 -106 -84.5 -186t-192.5 -80zM1085 1690q38 0 65.5 27t27.5 65q0 31 -20.5 51t-51.5 20q-38 0 -65 -27t-27 -65q0 -31 20 -51t51 -20z" />
    <glyph glyph-name="uring" unicode="&#x16f;" horiz-adv-x="1374" 
d="M907 520l99 565h471l-191 -1085h-471l27 143h-21q-5 -7 -14.5 -19t-41 -42t-66 -52.5t-87.5 -41.5t-108 -19q-90 0 -160.5 29t-118 87.5t-63 147t3.5 207.5l113 645h471l-101 -573q-13 -76 13 -115t88 -39q57 0 100.5 41.5t56.5 120.5zM901 1188q-99 0 -167 66t-68 159
q0 106 84 186t192 80q99 0 167.5 -66t68.5 -159q0 -106 -84.5 -186t-192.5 -80zM911 1352q38 0 65.5 27t27.5 65q0 31 -20.5 51.5t-51.5 20.5q-38 0 -65 -27.5t-27 -65.5q0 -31 20 -51t51 -20z" />
    <glyph glyph-name="Uhungarumlaut" unicode="&#x170;" horiz-adv-x="1646" 
d="M1120 600l148 834h512l-158 -899q-22 -125 -80 -229.5t-147.5 -182t-216.5 -121t-277 -43.5q-239 0 -404 84t-235.5 242.5t-32.5 371.5l138 777h512l-142 -799q-18 -102 31 -163.5t154 -61.5q78 0 129.5 47.5t68.5 142.5zM750 1608l198 317h348l-2 -10l-309 -307h-235z
M1169 1608l199 317h369l-2 -10l-340 -307h-226z" />
    <glyph glyph-name="uhungarumlaut" unicode="&#x171;" horiz-adv-x="1374" 
d="M907 520l99 565h471l-191 -1085h-471l27 143h-21q-5 -7 -14.5 -19t-41 -42t-66 -52.5t-87.5 -41.5t-108 -19q-90 0 -160.5 29t-118 87.5t-63 147t3.5 207.5l113 645h471l-101 -573q-13 -76 13 -115t88 -39q57 0 100.5 41.5t56.5 120.5zM555 1280l199 317h348l-2 -10
l-309 -307h-236zM975 1280l199 317h368l-2 -10l-340 -307h-225z" />
    <glyph glyph-name="Uogonek" unicode="&#x172;" horiz-adv-x="1646" 
d="M872 -553q-146 0 -216 51t-70 133q0 57 27.5 110t73.5 94.5t90 70.5t93 53q-349 9 -522.5 195.5t-118.5 502.5l138 777h512l-142 -799q-18 -102 31 -163.5t154 -61.5q78 0 129.5 47.5t68.5 142.5l148 834h512l-158 -899q-35 -198 -158 -341.5t-319 -199.5
q-24 -14 -50.5 -31t-71 -50.5t-78 -65t-58.5 -71t-25 -73.5q0 -61 82 -61q23 0 47 2.5t37 5.5l12 2l-30 -184q-66 -21 -138 -21z" />
    <glyph glyph-name="uogonek" unicode="&#x173;" horiz-adv-x="1374" 
d="M997 -553q-146 0 -216 51t-70 133q0 54 26 106t69 91t87.5 71t91 54.5t70.5 32.5t35 14h-275l27 143h-21q-5 -7 -14.5 -19t-41 -42t-66 -52.5t-87.5 -41.5t-108 -19q-90 0 -160.5 29t-118 87.5t-63 147t3.5 207.5l113 645h471l-101 -573q-13 -76 13 -115t88 -39
q57 0 100.5 41.5t56.5 120.5l99 565h471l-193 -1085q-13 -7 -21.5 -12t-42.5 -27t-59.5 -40.5t-60.5 -48t-57.5 -55.5t-39 -56.5t-16.5 -57.5q0 -61 82 -61q23 0 47 2.5t36 5.5l13 2l-30 -184q-66 -21 -138 -21z" />
    <glyph glyph-name="Ydieresis" unicode="&#x178;" horiz-adv-x="1474" 
d="M1219 1434h512l-674 -922l-90 -512h-512l90 512l-350 922h512l159 -492h21zM737 1556q-84 0 -134 49t-50 126q0 92 61.5 153.5t153.5 61.5q84 0 134 -48.5t50 -125.5q0 -92 -61.5 -154t-153.5 -62zM1219 1556q-84 0 -134.5 49t-50.5 126q0 92 61.5 153.5t153.5 61.5
q84 0 134.5 -48.5t50.5 -125.5q0 -92 -61.5 -154t-153.5 -62z" />
    <glyph glyph-name="Zacute" unicode="&#x179;" horiz-adv-x="1439" 
d="M82 0l72 410l708 594l4 20h-583l71 410h1260l-72 -410l-711 -594l-4 -20h627l-72 -410h-1300zM827 1608l199 317h430l-2 -10l-350 -307h-277z" />
    <glyph glyph-name="zacute" unicode="&#x17a;" horiz-adv-x="1183" 
d="M1243 717l-477 -328l-4 -20h440l-65 -369h-1065l65 369l477 327l4 21h-399l64 368h1024zM655 1280l199 317h430l-2 -10l-350 -307h-277z" />
    <glyph glyph-name="Zdotaccent" unicode="&#x17b;" horiz-adv-x="1439" 
d="M82 0l72 410l708 594l4 20h-583l71 410h1260l-72 -410l-711 -594l-4 -20h627l-72 -410h-1300zM1024 1536q-119 0 -182.5 53.5t-63.5 141.5q0 101 71 168t185 67q119 0 182.5 -53t63.5 -141q0 -101 -71 -168.5t-185 -67.5z" />
    <glyph glyph-name="zdotaccent" unicode="&#x17c;" horiz-adv-x="1183" 
d="M1243 717l-477 -328l-4 -20h440l-65 -369h-1065l65 369l477 327l4 21h-399l64 368h1024zM829 1208q-119 0 -182 53.5t-63 141.5q0 101 71 168t185 67q119 0 182 -53t63 -141q0 -101 -71 -168.5t-185 -67.5z" />
    <glyph glyph-name="Zcaron" unicode="&#x17d;" horiz-adv-x="1439" 
d="M82 0l72 410l708 594l4 20h-583l71 410h1260l-72 -410l-711 -594l-4 -20h627l-72 -410h-1300zM1155 1608h-307l-172 305l2 12h276l60 -123h41l104 123h277l-2 -12z" />
    <glyph glyph-name="zcaron" unicode="&#x17e;" horiz-adv-x="1183" 
d="M1243 717l-477 -328l-4 -20h440l-65 -369h-1065l65 369l477 327l4 21h-399l64 368h1024zM961 1280h-308l-172 305l2 12h277l59 -122h41l105 122h276l-2 -12z" />
    <glyph glyph-name="florin" unicode="&#x192;" horiz-adv-x="1069" 
d="M268 707l27 317h164l94 410h711l-29 -318h-285l-20 -92h205l-27 -317h-250l-250 -1096h-669l26 317h244l178 779h-119z" />
    <glyph glyph-name="uni01FA" unicode="&#x1fa;" 
d="M1055 1526q-99 0 -167.5 66t-68.5 159q0 82 51 150t129 98l80 121h338l-2 -11l-166 -147q82 -66 82 -170q0 -106 -84 -186t-192 -80zM1065 1690q38 0 65 27t27 65q0 31 -20.5 51t-51.5 20q-38 0 -65 -27t-27 -65q0 -31 20.5 -51t51.5 -20zM1085 0l-24 266h-440l-119 -266
h-512l651 1434h809l137 -1434h-502zM934 1004l-168 -379h276l-26 379h-82z" />
    <glyph glyph-name="uni01FB" unicode="&#x1fb;" horiz-adv-x="1419" 
d="M922 1188q-99 0 -167.5 66t-68.5 159q0 82 51 150t129 98l80 121h338l-2 -10l-166 -148q82 -66 82 -170q0 -106 -84 -186t-192 -80zM932 1352q38 0 65 27t27 65q0 31 -20.5 51.5t-51.5 20.5q-38 0 -65 -27.5t-27 -65.5q0 -31 20.5 -51t51.5 -20zM885 133h-21
q-4 -7 -12.5 -18t-38 -39t-63 -50t-87.5 -39.5t-112 -17.5q-178 0 -287.5 120t-109.5 331q0 160 44 293.5t117.5 220t166.5 134.5t194 48q52 0 98.5 -9.5t79 -25t59.5 -34.5t44 -37.5t28.5 -34t16.5 -24.5l6 -9h20l23 143h471l-191 -1085h-471zM778 348q72 0 128.5 64.5
t56.5 160.5q0 74 -39 119t-95 45q-72 0 -128 -64.5t-56 -160.5q0 -74 38.5 -119t94.5 -45z" />
    <glyph glyph-name="uni01FC" unicode="&#x1fc;" horiz-adv-x="2136" 
d="M1485 410h635l-72 -410h-1147l47 266h-338l-118 -266h-512l651 1434h1669l-72 -410h-635l-22 -133h491l-61 -348h-492zM938 1024l-182 -399h256l69 399h-143zM1280 1608l199 317h430l-2 -10l-351 -307h-276z" />
    <glyph glyph-name="uni01FD" unicode="&#x1fd;" horiz-adv-x="2113" 
d="M1169 983h21q6 5 16.5 14t47.5 32t79 40.5t109 32t139 14.5q120 0 226 -41t179 -111t115.5 -164t42.5 -198q0 -26 -2.5 -51t-5.5 -37l-2 -12h-768q-4 -31 -4 -56q0 -72 33 -108.5t90 -36.5q42 0 76 20t47 40l14 20h498q-3 -9 -10 -23.5t-32.5 -57.5t-56.5 -82t-84 -86.5
t-113 -81.5t-145.5 -57.5t-179.5 -23.5q-100 0 -184.5 20.5t-133.5 49.5t-83 58.5t-47 50.5l-13 20h-20q-7 -8 -20.5 -21.5t-59 -48t-95.5 -60.5t-128 -47.5t-158 -21.5q-206 0 -320 90.5t-114 223.5q0 150 110.5 251t292.5 101h396l10 41q27 112 -98 112q-41 0 -75.5 -18
t-48.5 -36l-14 -17h-479q2 8 7.5 22.5t26.5 56t48 79t75.5 83.5t106 79.5t142 56t180.5 22.5q74 0 139.5 -13.5t105 -33t68.5 -39.5t41 -34zM901 502h-170q-55 0 -89 -30.5t-34 -82.5q0 -42 27 -67t76 -25q73 0 125.5 54t64.5 151zM1561 788q-61 0 -105 -41.5t-59 -111.5
h266q0 153 -102 153zM1085 1280l199 317h430l-2 -10l-350 -307h-277z" />
    <glyph glyph-name="uni01FE" unicode="&#x1fe;" horiz-adv-x="1765" 
d="M721 623l502 348q-67 73 -187 73q-135 0 -226 -103t-91 -275zM1880 1219l-141 -99q86 -156 86 -342q0 -167 -66 -318t-179 -261t-273.5 -175t-341.5 -65q-363 0 -590 217l-283 -196l39 235l141 98q-86 156 -86 342q0 167 66 318t179.5 261.5t274 175.5t341.5 65
q361 0 589 -218l283 197zM1290 811l-502 -348q67 -74 187 -74q135 0 226 103.5t91 275.5zM963 1608l198 317h430l-2 -10l-350 -307h-276z" />
    <glyph glyph-name="uni01FF" unicode="&#x1ff;" horiz-adv-x="1390" 
d="M772 -31q-278 0 -448 154l-222 -143l39 245l70 45q-53 106 -53 232t50 238.5t138 195.5t215 131.5t273 48.5q275 0 448 -153l221 143l-39 -246l-69 -45q53 -106 53 -231q0 -126 -50 -238.5t-138 -196t-215 -132t-273 -48.5zM637 557l-10 -49l319 207q-1 3 -3 8
t-10.5 17.5t-20.5 22t-34 17.5t-49 8q-143 0 -192 -231zM969 528l10 50l-320 -207q1 -3 3 -8t10.5 -18t20.5 -22.5t34 -17.5t49 -8q144 0 193 231zM737 1280l199 317h430l-2 -10l-350 -307h-277z" />
    <glyph glyph-name="Scommaaccent" unicode="&#x218;" horiz-adv-x="1492" 
d="M983 410q0 28 -25 51.5t-67 42t-96.5 37.5t-114.5 40.5t-120.5 46.5t-115 60.5t-96.5 78.5t-67 104t-25 133q0 93 42.5 177.5t120.5 150t200.5 104.5t271.5 39q102 0 190.5 -16.5t152 -45t116.5 -65t87.5 -77t61 -81t40.5 -77t22.5 -65t10.5 -44.5l3 -17h-510q0 5 -2 13
t-12 28.5t-25.5 36t-48.5 28.5t-76 13q-50 0 -81.5 -23t-31.5 -49q0 -19 25 -36.5t68 -33t98.5 -32.5t116.5 -38t122 -46.5t116.5 -61.5t98.5 -79.5t68 -104t25 -131.5q0 -100 -46 -192t-129 -163.5t-210.5 -114t-280.5 -42.5q-140 0 -255.5 29.5t-189 74t-129 103.5
t-83.5 111.5t-45 104.5t-21 76.5t-4 33.5h502q0 -4 3 -18t16.5 -40.5t35 -49t63.5 -39.5t97 -17q65 0 99 24t34 58zM977 -438q-25 -134 -125 -216.5t-234 -82.5q-22 0 -34 2l24 133q3 0 9 -1t8 -1q60 0 103.5 33t53.5 77l2 21q-18 -14 -51 -14q-65 0 -102 37t-37 98
q0 87 60 148t149 61q81 0 131.5 -54.5t50.5 -158.5q0 -24 -8 -82z" />
    <glyph glyph-name="scommaaccent" unicode="&#x219;" horiz-adv-x="1232" 
d="M219 748q0 161 127.5 264.5t364.5 103.5q89 0 165 -13t130.5 -35t99 -50.5t72.5 -59.5t49 -62.5t31.5 -60t16.5 -50.5t7 -35l2 -13h-428q0 3 -1.5 9.5t-8 17.5t-16 21t-27.5 17t-41 7q-29 0 -45.5 -12.5t-16.5 -28.5q0 -18 30 -34.5t78 -32t106 -34t115.5 -46
t105.5 -62.5t78 -89.5t30 -121.5q0 -170 -132 -274.5t-390 -104.5q-123 0 -223.5 22t-162 57.5t-107 78t-66.5 85t-33.5 78t-14.5 57.5l-1 22h434q0 -4 1 -10t8 -22t19.5 -28.5t40 -22.5t64.5 -10q42 0 62 12t20 29q0 20 -30 38t-78 33.5t-105.5 34t-115.5 46.5t-106 63.5
t-78 91t-30 124.5zM831 -438q-25 -134 -124.5 -216.5t-233.5 -82.5q-23 0 -35 2l25 133q3 0 8.5 -1t7.5 -1q60 0 104 33t54 77l2 21q-18 -14 -51 -14q-65 0 -102 37t-37 98q0 87 60 148t148 61q82 0 132.5 -55t50.5 -158q0 -17 -9 -82z" />
    <glyph glyph-name="uni021A" unicode="&#x21a;" horiz-adv-x="1411" 
d="M604 983h-430l80 451h1372l-80 -451h-430l-174 -983h-512zM823 -438q-25 -134 -124.5 -216.5t-233.5 -82.5q-23 0 -35 2l25 133q3 0 8.5 -1t7.5 -1q60 0 104 33t54 77l2 21q-18 -14 -51 -14q-65 0 -102.5 37t-37.5 98q0 87 60 148t149 61q81 0 131.5 -54.5t50.5 -158.5
q0 -24 -8 -82z" />
    <glyph glyph-name="uni021B" unicode="&#x21b;" horiz-adv-x="956" 
d="M154 768l55 317h143l41 226h471l-41 -226h246l-55 -317h-246l-80 -451h266l-55 -317h-737l135 768h-143zM659 -438q-25 -134 -124.5 -216.5t-233.5 -82.5q-23 0 -35 2l25 133q3 0 8.5 -1t7.5 -1q60 0 104 33t54 77l2 21q-18 -14 -51 -14q-65 0 -102.5 37t-37.5 98
q0 87 60 148t149 61q82 0 132.5 -55t50.5 -158q0 -17 -9 -82z" />
    <glyph glyph-name="afii57929" unicode="&#x2bc;" horiz-adv-x="522" 
d="M287 881h-21l21 133h20q67 0 111 32.5t49 79.5l2 21q-18 -21 -59 -21q-62 0 -98 38t-36 106q0 85 60 145t145 60q87 0 136 -55t49 -160q0 -161 -109 -270t-270 -109z" />
    <glyph glyph-name="circumflex" unicode="&#x2c6;" horiz-adv-x="882" 
d="M547 1434h307l172 -306l-2 -12h-276l-60 123h-41l-104 -123h-277l2 12z" />
    <glyph glyph-name="caron" unicode="&#x2c7;" horiz-adv-x="882" 
d="M745 1116h-307l-172 305l2 13h277l59 -123h41l105 123h276l-2 -13z" />
    <glyph glyph-name="breve" unicode="&#x2d8;" horiz-adv-x="798" 
d="M268 1434h234q0 -34 26 -58t76 -24q51 0 77 24t26 58h235q-15 -139 -109 -223.5t-239 -84.5q-158 0 -243 75.5t-85 201.5z" />
    <glyph glyph-name="dotaccent" unicode="&#x2d9;" horiz-adv-x="624" 
d="M512 1065q-119 0 -182.5 53.5t-63.5 141.5q0 101 71 168t185 67q119 0 182.5 -53.5t63.5 -141.5q0 -101 -71 -168t-185 -67z" />
    <glyph glyph-name="ring" unicode="&#x2da;" horiz-adv-x="634" 
d="M502 963q-99 0 -167.5 66t-68.5 159q0 106 84.5 186t192.5 80q99 0 167 -66t68 -159q0 -106 -84 -186t-192 -80zM512 1126q38 0 65 27.5t27 65.5q0 31 -20.5 51t-51.5 20q-38 0 -65 -27t-27 -65q0 -31 20.5 -51.5t51.5 -20.5z" />
    <glyph glyph-name="ogonek" unicode="&#x2db;" horiz-adv-x="696" 
d="M348 -553q-146 0 -216.5 51t-70.5 133q0 48 21 94.5t54.5 82t73.5 67.5t80.5 54.5t74 38.5t54.5 24l21 8h195q-12 -7 -32 -18.5t-71.5 -47t-90.5 -70t-71 -79.5t-32 -82q0 -61 82 -61q23 0 47 2.5t37 5.5l12 2l-31 -184q-65 -21 -137 -21z" />
    <glyph glyph-name="tilde" unicode="&#x2dc;" horiz-adv-x="917" 
d="M774 1393q41 0 47 41l4 20h236l-25 -143q-15 -91 -74 -143t-145 -52q-56 0 -147.5 36t-116.5 36q-41 0 -47 -41l-4 -21h-236l25 144q15 91 74 142.5t145 51.5q56 0 147.5 -35.5t116.5 -35.5z" />
    <glyph glyph-name="hungarumlaut" unicode="&#x2dd;" horiz-adv-x="1110" 
d="M266 1116l199 318h348l-2 -11l-309 -307h-236zM686 1116l199 318h368l-2 -11l-340 -307h-225z" />
    <glyph glyph-name="uni0301" unicode="&#x301;" horiz-adv-x="0" 
d="M-602 1690l168 256h338l-2 -11l-279 -245h-225z" />
    <glyph glyph-name="uni030A" unicode="&#x30a;" horiz-adv-x="0" 
d="M-440 1311q-99 0 -167.5 66t-68.5 159q0 106 84.5 186t192.5 80q99 0 167 -66t68 -159q0 -106 -84 -186t-192 -80zM-430 1475q38 0 65 27t27 65q0 31 -20.5 51t-51.5 20q-38 0 -65 -27t-27 -65q0 -31 20.5 -51t51.5 -20z" />
    <glyph glyph-name="afii10023" unicode="&#x401;" horiz-adv-x="1388" 
d="M707 410h665l-72 -410h-1177l252 1434h1177l-71 -410h-666l-22 -133h522l-62 -348h-522zM737 1516q-84 0 -134 48.5t-50 125.5q0 92 61.5 153.5t153.5 61.5q84 0 134 -48.5t50 -125.5q0 -92 -61.5 -153.5t-153.5 -61.5zM1219 1516q-84 0 -134.5 48.5t-50.5 125.5
q0 92 61.5 153.5t153.5 61.5q84 0 134.5 -48.5t50.5 -125.5q0 -92 -61.5 -153.5t-153.5 -61.5z" />
    <glyph glyph-name="afii10051" unicode="&#x402;" horiz-adv-x="1779" 
d="M1798 307l-92 -532h-719l74 409h205l28 154q12 66 -23 110t-108 44h-172l-86 -492h-512l180 1024h-409l72 410h1331l-72 -410h-410l-22 -123h190q302 0 448 -156t97 -438z" />
    <glyph glyph-name="afii10052" unicode="&#x403;" horiz-adv-x="1306" 
d="M1454 983h-645l-174 -983h-512l252 1434h1157zM819 1577l199 317h430l-2 -10l-350 -307h-277z" />
    <glyph glyph-name="afii10053" unicode="&#x404;" horiz-adv-x="1742" 
d="M737 850h430l-47 -266h-403l1 -6q2 -6 5.5 -18t9.5 -26t16.5 -30.5t24 -32.5t33.5 -31t43 -26t55 -18t68 -7q59 0 111 18.5t84.5 45t56 53t33.5 44.5l10 19h516q-3 -13 -10.5 -35t-37.5 -85t-68 -121t-105.5 -128t-146.5 -121t-195 -85.5t-248 -34.5q-177 0 -324 52.5
t-246 145.5t-153.5 221t-54.5 277q0 167 66 318t179 261.5t273.5 175.5t341.5 65q319 0 515 -168t245 -447h-504q-2 7 -6 19.5t-24 44.5t-47.5 56t-80.5 44t-119 20q-62 0 -115.5 -20t-85 -48.5t-55 -57t-32.5 -48.5z" />
    <glyph glyph-name="afii10054" unicode="&#x405;" horiz-adv-x="1492" 
d="M983 410q0 28 -25 51.5t-67 42t-96.5 37.5t-114.5 40.5t-120.5 46.5t-115 60.5t-96.5 78.5t-67 104t-25 133q0 93 42.5 177.5t120.5 150t200.5 104.5t271.5 39q102 0 190.5 -16.5t152 -45t116.5 -65t87.5 -77t61 -81t40.5 -77t22.5 -65t10.5 -44.5l3 -17h-510q0 5 -2 13
t-12 28.5t-25.5 36t-48.5 28.5t-76 13q-50 0 -81.5 -23t-31.5 -49q0 -19 25 -36.5t68 -33t98.5 -32.5t116.5 -38t122 -46.5t116.5 -61.5t98.5 -79.5t68 -104t25 -131.5q0 -100 -46 -192t-129 -163.5t-210.5 -114t-280.5 -42.5q-140 0 -255.5 29.5t-189 74t-129 103.5
t-83.5 111.5t-45 104.5t-21 76.5t-4 33.5h502q0 -4 3 -18t16.5 -40.5t35 -49t63.5 -39.5t97 -17q65 0 99 24t34 58z" />
    <glyph glyph-name="afii10055" unicode="&#x406;" horiz-adv-x="753" 
d="M887 1434l-252 -1434h-512l252 1434h512z" />
    <glyph glyph-name="afii10056" unicode="&#x407;" horiz-adv-x="757" 
d="M887 1434l-252 -1434h-512l252 1434h512zM410 1516q-84 0 -134.5 48.5t-50.5 125.5q0 92 61.5 153.5t153.5 61.5q84 0 134.5 -48.5t50.5 -125.5q0 -92 -61.5 -153.5t-153.5 -61.5zM891 1516q-84 0 -134 48.5t-50 125.5q0 92 61.5 153.5t153.5 61.5q84 0 134 -48.5
t50 -125.5q0 -92 -61.5 -153.5t-153.5 -61.5z" />
    <glyph glyph-name="afii10057" unicode="&#x408;" horiz-adv-x="1370" 
d="M1493 1434l-164 -936q-43 -250 -218.5 -394.5t-444.5 -144.5q-255 0 -409.5 120.5t-195.5 309.5l455 88q2 -4 5 -9.5t15.5 -21t28 -27t42.5 -21t59 -9.5q131 0 155 143l160 902h512z" />
    <glyph glyph-name="afii10058" unicode="&#x409;" horiz-adv-x="2240" 
d="M901 983l-409 -983h-512l641 1434h993l-76 -430h203q127 0 232 -36t174.5 -99t107 -146t37.5 -178q0 -243 -174 -394t-461 -151h-807l172 983h-121zM1432 399h204q58 0 95.5 31t37.5 86q0 88 -110 88h-191z" />
    <glyph glyph-name="afii10059" unicode="&#x40a;" horiz-adv-x="2414" 
d="M1276 1434h512l-76 -430h203q127 0 232 -36t174.5 -99t107 -146t37.5 -178q0 -243 -174 -394t-461 -151h-807l96 553h-387l-98 -553h-512l252 1434h512l-76 -430h389zM1606 399h204q58 0 96 31t38 86q0 88 -111 88h-191z" />
    <glyph glyph-name="afii10060" unicode="&#x40b;" horiz-adv-x="1779" 
d="M1233 0l61 338q12 66 -23 110t-108 44h-172l-86 -492h-512l180 1024h-409l72 410h1331l-72 -410h-410l-22 -123h190q302 0 448 -156t97 -438l-53 -307h-512z" />
    <glyph glyph-name="afii10061" unicode="&#x40c;" horiz-adv-x="1572" 
d="M1044 0l-198 502h-123l-88 -502h-512l252 1434h512l-82 -471h102l348 471h574l-526 -666l315 -768h-574zM915 1577l199 317h430l-2 -10l-350 -307h-277z" />
    <glyph glyph-name="afii10062" unicode="&#x40e;" horiz-adv-x="1525" 
d="M1772 1434l-785 -1434h-532l227 420h-256l-221 1014h522l123 -584h82l307 584h533zM614 1905h285q0 -38 28 -60t74 -22q39 0 67.5 22t35.5 60h293q-29 -167 -134.5 -258t-291.5 -91q-165 0 -262 87t-97 221z" />
    <glyph glyph-name="afii10145" unicode="&#x40f;" horiz-adv-x="1675" 
d="M1808 1434l-252 -1434h-481l-43 -246h-471l43 246h-481l252 1434h512l-172 -983h409l172 983h512z" />
    <glyph glyph-name="afii10017" unicode="&#x410;" 
d="M1085 0l-24 266h-440l-119 -266h-512l651 1434h809l137 -1434h-502zM934 1004l-168 -379h276l-26 379h-82z" />
    <glyph glyph-name="afii10018" unicode="&#x411;" horiz-adv-x="1572" 
d="M1034 0h-911l252 1434h1270l-64 -369h-758l-22 -123h284q239 0 375.5 -118.5t136.5 -301.5q0 -233 -152.5 -377.5t-410.5 -144.5zM700 369h252q123 0 123 112q0 40 -30 66t-82 26h-228z" />
    <glyph glyph-name="afii10019" unicode="&#x412;" horiz-adv-x="1566" 
d="M983 1075h-158l-32 -184h180q53 0 82.5 27.5t29.5 74.5q0 34 -25.5 58t-76.5 24zM375 1434h792q220 0 340.5 -94.5t120.5 -233.5q0 -59 -16 -109t-41.5 -84t-56 -61t-61.5 -42.5t-56.5 -26t-41.5 -13.5l-16 -4l-2 -21q9 -2 24.5 -7.5t55.5 -28.5t70 -52.5t55 -84.5
t25 -121q0 -198 -144.5 -324.5t-398.5 -126.5h-901zM698 358h228q129 0 129 123q0 47 -31.5 75t-91.5 28h-195z" />
    <glyph glyph-name="afii10020" unicode="&#x413;" horiz-adv-x="1306" 
d="M1454 983h-645l-174 -983h-512l252 1434h1157z" />
    <glyph glyph-name="afii10021" unicode="&#x414;" horiz-adv-x="1681" 
d="M1210 0h-716l-43 -246h-471l114 656h154l448 1024h830l73 -1024h154l-115 -656h-471zM1094 410v614h-103l-262 -614h365z" />
    <glyph glyph-name="afii10022" unicode="&#x415;" horiz-adv-x="1388" 
d="M707 410h665l-72 -410h-1177l252 1434h1177l-71 -410h-666l-22 -133h522l-62 -348h-522z" />
    <glyph glyph-name="afii10024" unicode="&#x416;" horiz-adv-x="2330" 
d="M1077 942l86 492h512l-86 -492h72l332 492h573l-506 -666l295 -768h-573l-176 512h-93l-90 -512h-512l90 512h-81l-357 -512h-583l565 768l-273 666h564l159 -492h82z" />
    <glyph glyph-name="afii10025" unicode="&#x417;" horiz-adv-x="1529" 
d="M874 -41q-341 0 -529 147.5t-212 395.5h506q1 -6 4.5 -15.5t18.5 -34t36.5 -43t62.5 -34t93 -15.5q81 0 122.5 32.5t41.5 82.5q0 45 -41.5 77t-124.5 32h-190l53 307h215q60 0 92.5 27t32.5 69q0 38 -35 63t-105 25q-32 0 -60.5 -9.5t-46 -23t-30.5 -27t-18 -23.5l-6 -9
h-512q15 69 52 137.5t100 133t143 113.5t188.5 78.5t230.5 29.5q131 0 241 -23t185.5 -61.5t128 -90.5t77 -108.5t24.5 -116.5q0 -74 -31 -134.5t-75 -94t-87.5 -55.5t-74.5 -29l-31 -8l-4 -21q9 -3 25 -9t55.5 -30t70 -55t55.5 -87t25 -122q0 -94 -43 -178t-124 -149.5
t-210 -104.5t-289 -39z" />
    <glyph glyph-name="afii10026" unicode="&#x418;" horiz-adv-x="1705" 
d="M737 758h21l528 676h553l-252 -1434h-512l84 471l66 205h-21l-528 -676h-553l252 1434h512l-82 -471z" />
    <glyph glyph-name="afii10027" unicode="&#x419;" horiz-adv-x="1705" 
d="M737 758h21l528 676h553l-252 -1434h-512l84 471l66 205h-21l-528 -676h-553l252 1434h512l-82 -471zM739 1905h285q0 -38 28 -60t74 -22q39 0 67.5 22t35.5 60h293q-29 -167 -134.5 -258t-291.5 -91q-165 0 -262 87t-97 221z" />
    <glyph glyph-name="afii10028" unicode="&#x41a;" horiz-adv-x="1572" 
d="M1044 0l-198 502h-123l-88 -502h-512l252 1434h512l-82 -471h102l348 471h574l-526 -666l315 -768h-574z" />
    <glyph glyph-name="afii10029" unicode="&#x41b;" horiz-adv-x="1536" 
d="M911 983l-409 -983h-512l641 1434h809l127 -1434h-502l-61 983h-93z" />
    <glyph glyph-name="afii10030" unicode="&#x41c;" horiz-adv-x="2043" 
d="M1493 1434h684l-252 -1434h-512l115 653l63 187h-20l-254 -512h-471l-74 512h-22v-187l-115 -653h-512l252 1434h678l77 -666h52z" />
    <glyph glyph-name="afii10031" unicode="&#x41d;" horiz-adv-x="1675" 
d="M123 0l252 1434h512l-86 -492h409l86 492h512l-252 -1434h-512l86 492h-409l-86 -492h-512z" />
    <glyph glyph-name="afii10032" unicode="&#x41e;" horiz-adv-x="1761" 
d="M973 389q135 0 226 103.5t91 275.5q0 129 -69.5 202.5t-186.5 73.5q-135 0 -226 -103t-91 -275q0 -129 69.5 -203t186.5 -74zM963 -41q-177 0 -324 52.5t-246.5 145.5t-154 221t-54.5 277q0 167 66 318t179 261.5t273.5 175.5t341.5 65q177 0 324 -53t246.5 -146
t154 -221t54.5 -277q0 -167 -66 -318t-179 -261t-273.5 -175t-341.5 -65z" />
    <glyph glyph-name="afii10033" unicode="&#x41f;" horiz-adv-x="1675" 
d="M1808 1434l-252 -1434h-512l175 983h-410l-174 -983h-512l252 1434h1433z" />
    <glyph glyph-name="afii10034" unicode="&#x420;" horiz-adv-x="1570" 
d="M764 737h223q69 0 116.5 47.5t47.5 116.5q0 55 -36 89t-97 34h-203zM375 1434h745q120 0 224 -40t176 -107.5t112.5 -159.5t40.5 -195q0 -125 -48 -236.5t-131 -192.5t-201.5 -128t-254.5 -47h-346l-57 -328h-512z" />
    <glyph glyph-name="afii10035" unicode="&#x421;" horiz-adv-x="1732" 
d="M1055 1475q319 0 515 -168t245 -447h-504q-2 7 -6 19.5t-23.5 44.5t-46 56t-77.5 44t-114 20q-135 0 -226 -103t-91 -275q0 -129 69.5 -203t186.5 -74q56 0 106 18.5t81.5 45t54.5 53t33 44.5l10 19h516q-3 -13 -10.5 -35t-37.5 -85t-68 -121t-105.5 -128t-146.5 -121
t-195 -85.5t-248 -34.5q-177 0 -324 52.5t-246 145.5t-153.5 221t-54.5 277q0 167 66 318t179 261.5t273.5 175.5t341.5 65z" />
    <glyph glyph-name="afii10036" unicode="&#x422;" horiz-adv-x="1411" 
d="M604 983h-430l80 451h1372l-80 -451h-430l-174 -983h-512z" />
    <glyph glyph-name="afii10037" unicode="&#x423;" horiz-adv-x="1525" 
d="M1772 1434l-785 -1434h-532l227 420h-256l-221 1014h522l123 -584h82l307 584h533z" />
    <glyph glyph-name="afii10038" unicode="&#x424;" horiz-adv-x="2068" 
d="M877 442l100 572q-108 0 -184 -93t-76 -255q0 -102 45 -160t115 -64zM1313 72l-25 -144h-512l25 144q-278 38 -447.5 206.5t-169.5 407.5q0 145 59.5 273t164 221t256.5 147.5t329 54.5h39l25 144h512l-25 -144q278 -38 447.5 -206.5t169.5 -407.5q0 -145 -59.5 -273
t-164 -221t-256.5 -147.5t-329 -54.5h-39zM1468 1012l-100 -572q108 0 184 93t76 255q0 102 -45 160t-115 64z" />
    <glyph glyph-name="afii10039" unicode="&#x425;" horiz-adv-x="1552" 
d="M303 1434h533l77 -492h103l239 492h523l-422 -717l231 -717h-563l-109 492h-81l-271 -492h-553l475 717z" />
    <glyph glyph-name="afii10040" unicode="&#x426;" horiz-adv-x="1705" 
d="M1188 0h-1065l252 1434h512l-172 -983h348l172 983h512l-172 -983h164l-123 -697h-471z" />
    <glyph glyph-name="afii10041" unicode="&#x427;" horiz-adv-x="1607" 
d="M977 0l78 451q-4 -3 -12.5 -8.5t-38 -20t-62 -25t-85 -19.5t-107.5 -9q-95 0 -180 25.5t-153.5 76t-113.5 124.5t-60.5 172t5.5 218l80 449h512l-76 -424q-34 -191 172 -191q55 0 103.5 16t69.5 32l21 16q62 340 99 551h512l-252 -1434h-512z" />
    <glyph glyph-name="afii10042" unicode="&#x428;" horiz-adv-x="2228" 
d="M2361 1434l-252 -1434h-1986l252 1434h512l-172 -983h225l172 983h512l-172 -983h225l172 983h512z" />
    <glyph glyph-name="afii10043" unicode="&#x429;" horiz-adv-x="2320" 
d="M2361 1434l-172 -983h164l-123 -697h-471l43 246h-1679l252 1434h512l-172 -983h225l172 983h512l-172 -983h225l172 983h512z" />
    <glyph glyph-name="afii10044" unicode="&#x42a;" horiz-adv-x="1654" 
d="M961 1044h213q127 0 231 -39.5t171 -106t103.5 -152.5t36.5 -181q0 -120 -45.5 -224t-127 -179.5t-201 -118.5t-261.5 -43h-817l176 1004h-266l76 430h778zM846 399h215q55 0 94 40.5t39 97.5q0 50 -28 79t-74 29h-201z" />
    <glyph glyph-name="afii10045" unicode="&#x42b;" horiz-adv-x="2154" 
d="M819 1044h193q127 0 231 -39.5t171 -106t103.5 -152.5t36.5 -181q0 -120 -45.5 -224t-127 -179.5t-200.5 -118.5t-261 -43h-797l252 1434h512zM705 399h194q55 0 94 40.5t39 97.5q0 50 -28 79t-74 29h-180zM2288 1434l-252 -1434h-512l252 1434h512z" />
    <glyph glyph-name="afii10046" unicode="&#x42c;" horiz-adv-x="1533" 
d="M819 1044h234q127 0 231 -39.5t171 -106t103.5 -152.5t36.5 -181q0 -120 -45.5 -224t-127 -179.5t-200.5 -118.5t-261 -43h-838l252 1434h512zM705 399h235q55 0 94 40.5t39 97.5q0 50 -28 79t-74 29h-221z" />
    <glyph glyph-name="afii10047" unicode="&#x42d;" horiz-adv-x="1732" 
d="M1262 584h-431l48 266h403l-2 6q-1 6 -4.5 17.5t-9.5 25.5t-16.5 31t-24 32.5t-33.5 30.5t-43 26.5t-55 18t-68 6.5q-59 0 -111 -18.5t-84.5 -45t-56 -53t-33.5 -45.5l-10 -18h-516q2 8 6.5 21.5t21.5 55t38.5 82t59.5 95.5t81.5 102.5t107 95.5t134 82t164.5 55.5
t198 21.5q177 0 324 -53t246 -146t153.5 -221t54.5 -277q0 -167 -66 -318t-179 -261t-273.5 -175t-341.5 -65q-319 0 -515 167.5t-245 446.5h504q2 -7 6 -19.5t24 -44.5t47.5 -56t80.5 -44t119 -20q62 0 115.5 20t85 48.5t55 57.5t32.5 49z" />
    <glyph glyph-name="afii10048" unicode="&#x42e;" horiz-adv-x="2385" 
d="M1628 -41q-153 0 -281.5 42.5t-218 117t-148 169t-83.5 204.5h-176l-86 -492h-512l252 1434h512l-90 -512h129q42 111 112 208t166 175.5t227 124t279 45.5q166 0 306.5 -53t237 -145.5t150.5 -221.5t54 -277q0 -166 -65.5 -317.5t-176 -261.5t-264.5 -175t-324 -65z
M1638 389q114 0 200.5 105t86.5 274q0 134 -61 205t-164 71q-114 0 -200.5 -104.5t-86.5 -273.5q0 -134 61 -205.5t164 -71.5z" />
    <glyph glyph-name="afii10049" unicode="&#x42f;" horiz-adv-x="1603" 
d="M72 0l368 512q-8 4 -21 11.5t-46.5 37.5t-59 66t-46.5 98.5t-21 134.5q0 118 46 223.5t126 182.5t195 122.5t247 45.5h877l-252 -1434h-512l69 389h-174l-274 -389h-522zM891 778h219l43 246h-242q-61 0 -102 -39.5t-41 -95.5q0 -45 35 -78t88 -33z" />
    <glyph glyph-name="afii10065" unicode="&#x430;" horiz-adv-x="1419" 
d="M885 133h-21q-4 -7 -12.5 -18t-38 -39t-63 -50t-87.5 -39.5t-112 -17.5q-178 0 -287.5 120t-109.5 331q0 160 44 293.5t117.5 220t166.5 134.5t194 48q52 0 98.5 -9.5t79 -25t59.5 -34.5t44 -37.5t28.5 -34t16.5 -24.5l6 -9h20l23 143h471l-191 -1085h-471zM778 348
q72 0 128.5 64.5t56.5 160.5q0 74 -39 119t-95 45q-72 0 -128 -64.5t-56 -160.5q0 -74 38.5 -119t94.5 -45z" />
    <glyph glyph-name="afii10066" unicode="&#x431;" horiz-adv-x="1380" 
d="M678 819h20q3 5 9.5 13.5t31 29.5t53.5 37t77.5 29.5t103.5 13.5q203 0 321.5 -118t118.5 -302q0 -115 -45 -216t-125 -175.5t-198 -118t-257 -43.5q-275 0 -439.5 160.5t-164.5 423.5q0 200 60 366t165.5 278.5t250.5 174.5t313 62h500l-66 -369h-363q-162 0 -254 -66.5
t-112 -179.5zM778 338q64 0 109 51t45 133q0 68 -34 106t-89 38q-64 0 -109 -51.5t-45 -133.5q0 -68 34 -105.5t89 -37.5z" />
    <glyph glyph-name="afii10067" unicode="&#x432;" horiz-adv-x="1320" 
d="M283 1085h649q107 0 192 -22.5t135.5 -59.5t76.5 -81.5t26 -92.5q0 -60 -25.5 -108.5t-59.5 -75t-72.5 -44t-60.5 -23t-26 -5.5l-4 -20q8 -2 22 -6t50 -21.5t63 -41t49.5 -68t22.5 -99.5q0 -138 -115.5 -227.5t-335.5 -89.5h-778zM608 256h140q46 0 74 28t28 74
q0 33 -24.5 57.5t-67.5 24.5h-117zM680 666h121q40 0 65 24.5t25 71.5q0 28 -20 47.5t-50 19.5h-112z" />
    <glyph glyph-name="afii10068" unicode="&#x433;" horiz-adv-x="1060" 
d="M92 0l191 1085h942l-68 -389h-471l-123 -696h-471z" />
    <glyph glyph-name="afii10069" unicode="&#x434;" horiz-adv-x="1400" 
d="M1292 1085l37 -716h133l-100 -574h-440l36 205h-491l-37 -205h-440l100 574h133l291 716h778zM827 717l-145 -359h186v359h-41z" />
    <glyph glyph-name="afii10070" unicode="&#x435;" horiz-adv-x="1378" 
d="M748 -31q-175 0 -311.5 71.5t-209.5 192.5t-73 269q0 125 51 238.5t138 196t208.5 131t257.5 48.5q135 0 249 -41t190 -112t118.5 -166.5t42.5 -202.5q0 -22 -1.5 -42.5t-3.5 -29.5l-1 -10h-762q-6 -30 -6 -61q0 -73 32.5 -113.5t80.5 -40.5q29 0 54 9.5t41 23t28 27
t17 23.5l5 9h489q-3 -9 -9.5 -24t-32 -58.5t-56.5 -83.5t-84.5 -88.5t-115 -83t-150 -58.5t-186.5 -24zM819 788q-59 0 -98 -39t-55 -104h276q0 68 -34 105.5t-89 37.5z" />
    <glyph glyph-name="afii10072" unicode="&#x436;" horiz-adv-x="1849" 
d="M825 727l62 358h471l-62 -358h52l215 358h471l-338 -522l178 -563h-471l-94 338h-82l-60 -338h-471l60 338h-72l-213 -338h-481l375 563l-154 522h461l92 -358h61z" />
    <glyph glyph-name="afii10073" unicode="&#x437;" horiz-adv-x="1263" 
d="M700 287q52 0 77.5 19.5t25.5 51.5q0 33 -25.5 52.5t-77.5 19.5h-135l43 246h154q42 0 62 17.5t20 45.5q0 25 -20.5 42.5t-59.5 17.5q-29 0 -52 -12.5t-32 -25.5l-8 -13h-484q2 8 7.5 21t26.5 51.5t47.5 73t75 77t105.5 73t141.5 51.5t180.5 21q137 0 244 -27.5
t170.5 -73.5t96 -101t32.5 -115q0 -46 -12.5 -84.5t-32 -63t-43 -43.5t-47.5 -29t-43.5 -16.5t-32.5 -8.5l-12 -1l-5 -21q8 -2 20.5 -5.5t44.5 -20.5t57 -39.5t45 -64.5t20 -93q0 -61 -32 -119.5t-93.5 -108.5t-165 -81t-231.5 -31q-119 0 -218 23t-162.5 58t-112 80
t-73.5 86.5t-40 81t-19 58t-4 23.5h465q1 -4 3 -10t10.5 -22t20 -28t32.5 -22t46 -10z" />
    <glyph glyph-name="afii10074" unicode="&#x438;" horiz-adv-x="1388" 
d="M92 0l191 1085h471l-58 -327l-57 -154h20l361 481h471l-191 -1085h-471l58 328l57 153h-20l-361 -481h-471z" />
    <glyph glyph-name="afii10075" unicode="&#x439;" horiz-adv-x="1388" 
d="M92 0l191 1085h471l-58 -327l-57 -154h20l361 481h471l-191 -1085h-471l58 328l57 153h-20l-361 -481h-471zM575 1485h234q0 -34 25.5 -58t76.5 -24t77 24t26 58h235q-15 -139 -109 -223t-239 -84q-158 0 -243 75t-85 201z" />
    <glyph glyph-name="afii10076" unicode="&#x43a;" horiz-adv-x="1296" 
d="M623 338l-60 -338h-471l191 1085h471l-62 -358h72l225 358h481l-348 -522l189 -563h-482l-104 338h-102z" />
    <glyph glyph-name="afii10077" unicode="&#x43b;" horiz-adv-x="1290" 
d="M1235 1085l65 -1085h-487v717h-41l-280 -717h-482l447 1085h778z" />
    <glyph glyph-name="afii10078" unicode="&#x43c;" horiz-adv-x="1716" 
d="M1819 1085l-191 -1085h-471l78 440l57 154h-20l-209 -369h-328l-78 369h-16v-154l-78 -440h-471l191 1085h598l73 -460h21l233 460h611z" />
    <glyph glyph-name="afii10079" unicode="&#x43d;" horiz-adv-x="1368" 
d="M92 0l191 1085h471l-62 -348h246l61 348h471l-190 -1085h-471l61 348h-245l-62 -348h-471z" />
    <glyph glyph-name="afii10080" unicode="&#x43e;" horiz-adv-x="1392" 
d="M778 338q73 0 129 68t56 178q0 164 -144 164q-73 0 -128.5 -68t-55.5 -178q0 -164 143 -164zM768 -31q-139 0 -255.5 41.5t-194.5 113.5t-121 169.5t-43 208.5q0 126 50 238.5t137.5 195.5t214.5 131.5t273 48.5q139 0 255.5 -41.5t194.5 -113t121.5 -169t43.5 -208.5
q0 -126 -50 -238.5t-138 -196t-215 -132t-273 -48.5z" />
    <glyph glyph-name="afii10081" unicode="&#x43f;" horiz-adv-x="1357" 
d="M92 0l191 1085h1177l-190 -1085h-471l123 696h-236l-123 -696h-471z" />
    <glyph glyph-name="afii10082" unicode="&#x440;" horiz-adv-x="1419" 
d="M729 952h21q4 7 12.5 18t38 39t63 50t87.5 39.5t112 17.5q178 0 287.5 -119.5t109.5 -330.5q0 -160 -44 -294t-117.5 -220.5t-166.5 -134.5t-194 -48q-52 0 -98.5 9.5t-79 25t-59.5 34.5t-44 37.5t-28.5 34t-16.5 24.5l-6 9h-20l-94 -532h-472l263 1474h471zM836 737
q-72 0 -128.5 -64.5t-56.5 -160.5q0 -74 38.5 -119t94.5 -45q72 0 128.5 64.5t56.5 160.5q0 74 -38.5 119t-94.5 45z" />
    <glyph glyph-name="afii10083" unicode="&#x441;" horiz-adv-x="1361" 
d="M1413 625h-471q0 5 -1.5 13.5t-10.5 29.5t-23 37t-42.5 29.5t-65.5 13.5q-67 0 -115.5 -65t-48.5 -181q0 -82 33.5 -123t89.5 -41q29 0 55 10.5t42.5 25t29.5 29t19 25.5l5 10h484q-2 -10 -7 -27t-26 -65.5t-49.5 -93t-81 -98.5t-116 -93t-159 -65.5t-206.5 -26.5
q-175 0 -311.5 71.5t-209.5 192.5t-73 269q0 125 51 238.5t138 196t209.5 131t258.5 48.5q103 0 190.5 -21.5t148 -56t108 -80.5t76 -92t47 -94t25.5 -84t7 -63z" />
    <glyph glyph-name="afii10084" unicode="&#x442;" horiz-adv-x="1196" 
d="M123 696l70 389h1167l-70 -389h-348l-123 -696h-471l123 696h-348z" />
    <glyph glyph-name="afii10085" unicode="&#x443;" horiz-adv-x="1310" 
d="M686 1085v-696h31l276 696h492l-647 -1474h-473l182 389h-277l-75 1085h491z" />
    <glyph glyph-name="afii10086" unicode="&#x444;" horiz-adv-x="1722" 
d="M711 297l90 512q-48 0 -85.5 -32t-59 -84.5t-32 -111.5t-10.5 -120q0 -146 97 -164zM1102 -31l-64 -358h-469l64 358q-222 31 -350.5 168t-128.5 344q0 142 53.5 262.5t143.5 201.5t209 126t249 45h25l61 359h471l-61 -359q222 -31 350.5 -168t128.5 -344
q0 -142 -53.5 -262.5t-144 -201.5t-209.5 -126t-249 -45h-26zM1227 788l-90 -512q48 0 85.5 32.5t58.5 85t31.5 111.5t10.5 120q0 146 -96 163z" />
    <glyph glyph-name="afii10087" unicode="&#x445;" horiz-adv-x="1306" 
d="M809 0l-64 338h-61l-182 -338h-502l367 573l-156 512h491l66 -327h41l180 327h492l-336 -512l166 -573h-502z" />
    <glyph glyph-name="afii10088" unicode="&#x446;" horiz-adv-x="1390" 
d="M92 0l191 1085h471l-121 -696h194l121 696h471l-121 -696h134l-107 -594h-440l37 205h-830z" />
    <glyph glyph-name="afii10089" unicode="&#x447;" horiz-adv-x="1275" 
d="M715 0l47 266q-80 -30 -201 -30q-210 0 -317.5 124.5t-69.5 341.5l68 383h471l-62 -348q-9 -56 12.5 -84t81.5 -28q23 0 44.5 7.5t31.5 15.5l10 7l76 430h471l-192 -1085h-471z" />
    <glyph glyph-name="afii10090" unicode="&#x448;" horiz-adv-x="1859" 
d="M1358 1085l-121 -696h133l121 696h471l-190 -1085h-1680l191 1085h471l-121 -696h133l121 696h471z" />
    <glyph glyph-name="afii10091" unicode="&#x449;" horiz-adv-x="1933" 
d="M92 0l191 1085h471l-121 -696h133l121 696h471l-121 -696h133l121 696h471l-121 -696h133l-106 -594h-441l37 205h-1372z" />
    <glyph glyph-name="afii10092" unicode="&#x44a;" horiz-adv-x="1349" 
d="M819 778h133q192 0 310 -103t118 -249q0 -185 -129.5 -305.5t-341.5 -120.5h-698l125 717h-203l66 368h675zM713 287h73q123 0 123 112q0 39 -28 66t-72 27h-61z" />
    <glyph glyph-name="afii10093" unicode="&#x44b;" horiz-adv-x="1802" 
d="M594 287h63q123 0 123 112q0 39 -28 66t-72 27h-51zM700 778h123q192 0 310 -103t118 -249q0 -185 -129.5 -305.5t-341.5 -120.5h-688l191 1085h471zM1243 0l191 1085h471l-191 -1085h-471z" />
    <glyph glyph-name="afii10094" unicode="&#x44c;" horiz-adv-x="1251" 
d="M604 287h84q123 0 123 112q0 39 -28 66t-72 27h-72zM700 778h154q192 0 310 -103t118 -249q0 -185 -129.5 -305.5t-341.5 -120.5h-719l191 1085h471z" />
    <glyph glyph-name="afii10095" unicode="&#x44d;" horiz-adv-x="1351" 
d="M143 461h471q0 -7 1 -18t9 -39t21.5 -50t43 -39.5t69.5 -17.5q34 0 63.5 16t46.5 38.5t29 45t17 38.5l4 16h-236l31 174h229q0 82 -33 122.5t-90 40.5q-34 0 -64.5 -14.5t-49.5 -35t-32.5 -41.5t-19.5 -35l-6 -15h-483q2 10 7 27t26 65.5t49.5 93t81 98.5t116 93
t159 65.5t206.5 26.5q175 0 311.5 -71t209.5 -192t73 -269q0 -167 -86.5 -308t-238 -224t-333.5 -83q-103 0 -190.5 21.5t-148 56t-108 80.5t-76 92.5t-47 94.5t-25.5 84t-7 63z" />
    <glyph glyph-name="afii10096" unicode="&#x44e;" horiz-adv-x="1843" 
d="M686 358h-121l-63 -358h-410l191 1085h409l-65 -378h80q28 77 79.5 147t125.5 130t177.5 96t221.5 36q124 0 231.5 -41.5t182 -112.5t117 -167.5t42.5 -204.5q0 -169 -88 -312t-239 -226t-328 -83q-72 0 -137 13.5t-113.5 36t-90.5 51.5t-71 61.5t-52.5 64.5t-38 61
t-24 51.5t-12.5 35.5zM1239 338q60 0 112 71.5t52 190.5q0 72 -29.5 110t-83.5 38q-60 0 -112 -72t-52 -191q0 -72 29.5 -109.5t83.5 -37.5z" />
    <glyph glyph-name="afii10097" unicode="&#x44f;" horiz-adv-x="1275" 
d="M676 686q0 -45 21.5 -68.5t60.5 -23.5h73l37 205h-80q-52 0 -82 -32.5t-30 -80.5zM20 0l318 418q-5 3 -14 9t-32 29t-40.5 51t-32 76t-14.5 103q0 173 125 286t336 113h712l-190 -1085h-471l55 317h-51l-219 -317h-482z" />
    <glyph glyph-name="afii10071" unicode="&#x451;" horiz-adv-x="1378" 
d="M748 -31q-175 0 -311.5 71.5t-209.5 192.5t-73 269q0 125 51 238.5t138 196t208.5 131t257.5 48.5q135 0 249 -41t190 -112t118.5 -166.5t42.5 -202.5q0 -22 -1.5 -42.5t-3.5 -29.5l-1 -10h-762q-6 -30 -6 -61q0 -73 32.5 -113.5t80.5 -40.5q29 0 54 9.5t41 23t28 27
t17 23.5l5 9h489q-3 -9 -9.5 -24t-32 -58.5t-56.5 -83.5t-84.5 -88.5t-115 -83t-150 -58.5t-186.5 -24zM819 788q-59 0 -98 -39t-55 -104h276q0 68 -34 105.5t-89 37.5zM635 1178q-84 0 -134 48.5t-50 125.5q0 92 61.5 153.5t153.5 61.5q84 0 134 -48.5t50 -125.5
q0 -92 -61.5 -153.5t-153.5 -61.5zM1116 1178q-84 0 -134 48.5t-50 125.5q0 92 61.5 153.5t153.5 61.5q84 0 134 -48.5t50 -125.5q0 -92 -61.5 -153.5t-153.5 -61.5z" />
    <glyph glyph-name="afii10099" unicode="&#x452;" horiz-adv-x="1425" 
d="M868 -72l72 410q27 154 -100 154q-57 0 -101 -41.5t-57 -120.5l-57 -330h-471l170 973h-142l56 317h143l25 144h471l-25 -144h256l-55 -317h-258l-47 -266h20q5 7 14.5 19t41 42t66 52.5t87.5 41.5t108 19q90 0 160.5 -29t118 -87.5t63 -147t-3.5 -207.5l-139 -799h-647
l57 317h174z" />
    <glyph glyph-name="afii10100" unicode="&#x453;" horiz-adv-x="1060" 
d="M92 0l191 1085h942l-68 -389h-471l-123 -696h-471zM623 1219l198 317h430l-2 -10l-350 -307h-276z" />
    <glyph glyph-name="afii10101" unicode="&#x454;" horiz-adv-x="1361" 
d="M1413 625h-471q0 3 -0.5 9t-3 23t-7.5 32.5t-16 34t-25 32t-38 23t-53 9.5q-34 0 -63.5 -16t-46.5 -38t-29 -44.5t-16 -38.5l-5 -16h235l-30 -174h-230q0 -82 33.5 -123t89.5 -41q34 0 64.5 14.5t49.5 35.5t32.5 41.5t19.5 35.5l6 14h484q-2 -10 -7 -27t-26 -65.5
t-49.5 -93t-81 -98.5t-116 -93t-159 -65.5t-206.5 -26.5q-175 0 -311.5 71.5t-209.5 192.5t-73 269q0 125 51 238.5t138 196t209.5 131t258.5 48.5q103 0 190.5 -21.5t148 -56t108 -80.5t76 -92t47 -94t25.5 -84t7 -63z" />
    <glyph glyph-name="afii10102" unicode="&#x455;" horiz-adv-x="1232" 
d="M219 748q0 161 127.5 264.5t364.5 103.5q89 0 165 -13t130.5 -35t99 -50.5t72.5 -59.5t49 -62.5t31.5 -60t16.5 -50.5t7 -35l2 -13h-428q0 3 -1.5 9.5t-8 17.5t-16 21t-27.5 17t-41 7q-29 0 -45.5 -12.5t-16.5 -28.5q0 -18 30 -34.5t78 -32t106 -34t115.5 -46
t105.5 -62.5t78 -89.5t30 -121.5q0 -170 -132 -274.5t-390 -104.5q-123 0 -223.5 22t-162 57.5t-107 78t-66.5 85t-33.5 78t-14.5 57.5l-1 22h434q0 -4 1 -10t8 -22t19.5 -28.5t40 -22.5t64.5 -10q42 0 62 12t20 29q0 20 -30 38t-78 33.5t-105.5 34t-115.5 46.5t-106 63.5
t-78 91t-30 124.5z" />
    <glyph glyph-name="afii10103" unicode="&#x456;" horiz-adv-x="645" 
d="M92 0l191 1085h471l-191 -1085h-471zM553 1167q-119 0 -182.5 53.5t-63.5 141.5q0 101 71 168t185 67q119 0 182.5 -53t63.5 -141q0 -101 -71 -168.5t-185 -67.5z" />
    <glyph glyph-name="afii10104" unicode="&#x457;" horiz-adv-x="645" 
d="M307 1178q-84 0 -134 48.5t-50 125.5q0 92 61.5 153.5t153.5 61.5q84 0 134 -48.5t50 -125.5q0 -92 -61.5 -153.5t-153.5 -61.5zM788 1178q-84 0 -134 48.5t-50 125.5q0 92 61.5 153.5t153.5 61.5q84 0 134.5 -48.5t50.5 -125.5q0 -92 -62 -153.5t-154 -61.5zM92 0
l191 1085h471l-191 -1085h-471z" />
    <glyph glyph-name="afii10105" unicode="&#x458;" horiz-adv-x="653" 
d="M762 1085l-260 -1474h-717l55 317h246l205 1157h471zM561 1167q-119 0 -182.5 53.5t-63.5 141.5q0 101 71 168t185 67q119 0 182.5 -53t63.5 -141q0 -101 -71 -168.5t-185 -67.5z" />
    <glyph glyph-name="afii10106" unicode="&#x459;" horiz-adv-x="1814" 
d="M1294 778h123q192 0 310 -103t118 -249q0 -185 -129.5 -305.5t-341.5 -120.5h-688l125 717h-55l-281 -717h-465l457 1085h881zM1198 287h53q123 0 123 112q0 39 -28 66t-72 27h-41z" />
    <glyph glyph-name="afii10107" unicode="&#x45a;" horiz-adv-x="1916" 
d="M1397 778h123q192 0 310 -103t118 -249q0 -185 -129.5 -305.5t-341.5 -120.5h-689l70 389h-225l-70 -389h-471l191 1085h471l-54 -307h226l53 307h471zM1300 287h54q123 0 123 112q0 39 -28.5 66t-72.5 27h-41z" />
    <glyph glyph-name="afii10108" unicode="&#x45b;" horiz-adv-x="1425" 
d="M1053 973h-258l-47 -266h20q5 7 14.5 19t41 42t66 52.5t87.5 41.5t108 19q90 0 160.5 -29t118 -87.5t63 -147t-3.5 -207.5l-71 -410h-471l59 338q27 154 -100 154q-57 0 -101 -41.5t-57 -120.5l-57 -330h-471l170 973h-142l56 317h143l25 144h471l-25 -144h256z" />
    <glyph glyph-name="afii10109" unicode="&#x45c;" horiz-adv-x="1296" 
d="M623 338l-60 -338h-471l191 1085h471l-62 -358h72l225 358h481l-348 -522l189 -563h-482l-104 338h-102zM721 1219l199 317h430l-2 -10l-351 -307h-276z" />
    <glyph glyph-name="afii10110" unicode="&#x45e;" horiz-adv-x="1310" 
d="M686 1085v-696h31l276 696h492l-647 -1474h-473l182 389h-277l-75 1085h491zM524 1485h234q0 -34 26 -58t76 -24q51 0 77 24t26 58h235q-15 -139 -109 -223t-239 -84q-158 0 -243 75t-85 201z" />
    <glyph glyph-name="afii10193" unicode="&#x45f;" horiz-adv-x="1357" 
d="M92 0l191 1085h471l-121 -696h235l121 696h471l-190 -1085h-369l-37 -205h-440l37 205h-369z" />
    <glyph glyph-name="afii10050" unicode="&#x490;" horiz-adv-x="1323" 
d="M1454 983h-645l-174 -983h-512l252 1434h645l37 204h512z" />
    <glyph glyph-name="afii10098" unicode="&#x491;" horiz-adv-x="1067" 
d="M92 0l191 1085h471l26 144h471l-94 -533h-471l-123 -696h-471z" />
    <glyph glyph-name="uni1E9E" unicode="&#x1e9e;" horiz-adv-x="1654" 
d="M860 1434h856l-63 -369l-279 -193l-4 -18q7 -2 18.5 -5t44.5 -17t63.5 -31.5t67 -48.5t63.5 -67t45 -89.5t18 -114.5q0 -213 -158 -347t-436 -134h-318l70 389h194q60 0 92.5 32t32.5 81q0 39 -29 65.5t-75 26.5h-160l51 287l234 163h-277q-104 0 -123 -112l-163 -932
h-512l174 983q35 199 185.5 325t387.5 126z" />
    <glyph glyph-name="endash" unicode="&#x2013;" horiz-adv-x="1624" 
d="M1618 389h-1475l58 328h1474z" />
    <glyph glyph-name="emdash" unicode="&#x2014;" horiz-adv-x="1992" 
d="M1987 389h-1844l58 328h1843z" />
    <glyph glyph-name="quoteleft" unicode="&#x2018;" horiz-adv-x="552" 
d="M666 1516h41l-31 -154h-31q-140 0 -184 -133l-10 -31q21 10 41 10q70 0 111.5 -45.5t41.5 -128.5q0 -99 -71 -172.5t-164 -73.5q-94 0 -149.5 61.5t-55.5 174.5q0 228 126 360t335 132z" />
    <glyph glyph-name="quoteright" unicode="&#x2019;" horiz-adv-x="552" 
d="M246 788h-41l31 154h30q141 0 185 133l10 31q-21 -10 -41 -10q-70 0 -112 45.5t-42 128.5q0 99 71.5 172.5t164.5 73.5q94 0 149.5 -61.5t55.5 -174.5q0 -228 -126 -360t-335 -132z" />
    <glyph glyph-name="quotesinglbase" unicode="&#x201a;" horiz-adv-x="552" 
d="M82 -307h-41l31 153h30q141 0 185 134l10 30q-21 -10 -41 -10q-70 0 -112 45.5t-42 128.5q0 99 71.5 172.5t164.5 73.5q94 0 149.5 -61.5t55.5 -174.5q0 -228 -126 -359.5t-335 -131.5z" />
    <glyph glyph-name="quotedblleft" unicode="&#x201c;" horiz-adv-x="1075" 
d="M666 1516h41l-31 -154h-31q-140 0 -184 -133l-10 -31q21 10 41 10q70 0 111.5 -45.5t41.5 -128.5q0 -99 -71 -172.5t-164 -73.5q-94 0 -149.5 61.5t-55.5 174.5q0 228 126 360t335 132zM1188 1516h41l-31 -154h-31q-140 0 -184 -133l-10 -31q21 10 41 10
q70 0 111.5 -45.5t41.5 -128.5q0 -99 -71 -172.5t-164 -73.5q-94 0 -149.5 61.5t-55.5 174.5q0 228 126 360t335 132z" />
    <glyph glyph-name="quotedblright" unicode="&#x201d;" horiz-adv-x="1075" 
d="M246 788h-41l31 154h30q141 0 185 133l10 31q-21 -10 -41 -10q-70 0 -112 45.5t-42 128.5q0 99 71.5 172.5t164.5 73.5q94 0 149.5 -61.5t55.5 -174.5q0 -228 -126 -360t-335 -132zM768 788h-41l31 154h30q141 0 185 133l10 31q-21 -10 -41 -10q-70 0 -112 45.5
t-42 128.5q0 99 71.5 172.5t164.5 73.5q94 0 149.5 -61.5t55.5 -174.5q0 -228 -126 -360t-335 -132z" />
    <glyph glyph-name="quotedblbase" unicode="&#x201e;" horiz-adv-x="1075" 
d="M82 -307h-41l31 153h30q141 0 185 134l10 30q-21 -10 -41 -10q-70 0 -112 45.5t-42 128.5q0 99 71.5 172.5t164.5 73.5q94 0 149.5 -61.5t55.5 -174.5q0 -228 -126 -359.5t-335 -131.5zM604 -307h-41l31 153h31q140 0 184 134l10 30q-21 -10 -41 -10q-70 0 -111.5 45.5
t-41.5 128.5q0 99 71 172.5t164 73.5q94 0 149.5 -61.5t55.5 -174.5q0 -228 -126 -359.5t-335 -131.5z" />
    <glyph glyph-name="dagger" unicode="&#x2020;" horiz-adv-x="997" 
d="M283 0l127 717h-226l66 368h225l62 349h430l-62 -349h225l-65 -368h-225l-127 -717h-430z" />
    <glyph glyph-name="daggerdbl" unicode="&#x2021;" horiz-adv-x="1003" 
d="M393 594l43 246h-225l65 368h226l39 226h430l-39 -226h225l-65 -368h-226l-43 -246h226l-66 -369h-225l-39 -225h-430l39 225h-226l66 369h225z" />
    <glyph glyph-name="bullet" unicode="&#x2022;" horiz-adv-x="1064" 
d="M614 328q-115 0 -190.5 74t-75.5 182q0 130 91.5 223.5t215.5 93.5q115 0 191 -74t76 -182q0 -130 -92 -223.5t-216 -93.5z" />
    <glyph glyph-name="ellipsis" unicode="&#x2026;" horiz-adv-x="1863" 
d="M307 -31q-85 0 -145 60t-60 145q0 99 71.5 172.5t164.5 73.5q85 0 145 -60t60 -145q0 -99 -71.5 -172.5t-164.5 -73.5zM1618 -31q-85 0 -145 60t-60 145q0 99 71.5 172.5t164.5 73.5q85 0 144.5 -60t59.5 -145q0 -99 -71 -172.5t-164 -73.5zM963 -31q-85 0 -145 60
t-60 145q0 99 71 172.5t164 73.5q85 0 145 -60t60 -145q0 -99 -71 -172.5t-164 -73.5z" />
    <glyph glyph-name="perthousand" unicode="&#x2030;" horiz-adv-x="2607" 
d="M1757 1434l-1112 -1434h-328l1113 1434h327zM594 758q-158 0 -258 92t-100 225q0 163 112 271t287 108q158 0 258 -92t100 -225q0 -163 -112 -271t-287 -108zM625 1198q-46 0 -74.5 -28t-28.5 -74q0 -38 22.5 -60t59.5 -22q46 0 74.5 28t28.5 74q0 38 -22.5 60t-59.5 22z
M1430 676q158 0 258 -92t100 -226q0 -163 -112 -270.5t-287 -107.5q-158 0 -258.5 92t-100.5 225q0 163 112.5 271t287.5 108zM1399 236q46 0 74 28t28 74q0 38 -22.5 60t-59.5 22q-46 0 -74 -28.5t-28 -74.5q0 -38 22.5 -59.5t59.5 -21.5zM2249 676q158 0 258 -92t100 -226
q0 -163 -112 -270.5t-287 -107.5q-158 0 -258.5 92t-100.5 225q0 163 112.5 271t287.5 108zM2218 236q46 0 74 28t28 74q0 38 -22.5 60t-59.5 22q-46 0 -74 -28.5t-28 -74.5q0 -38 22.5 -59.5t59.5 -21.5z" />
    <glyph glyph-name="guilsinglleft" unicode="&#x2039;" horiz-adv-x="890" 
d="M973 827l-359 -305l236 -284l-293 -248l-434 553l631 553z" />
    <glyph glyph-name="guilsinglright" unicode="&#x203a;" horiz-adv-x="890" 
d="M113 258l358 305l-235 285l292 248l435 -553l-631 -553z" />
    <glyph glyph-name="fraction" unicode="&#x2044;" horiz-adv-x="354" 
d="M1020 1434l-1112 -1434h-318l1112 1434h318z" />
    <glyph glyph-name="zerosuperior" unicode="&#x2070;" horiz-adv-x="819" 
d="M614 1157q34 0 63.5 47t29.5 137q0 42 -18 62t-44 20q-34 0 -63 -46.5t-29 -137.5q0 -43 17.5 -62.5t43.5 -19.5zM604 922q-152 0 -250 93.5t-98 233.5q0 176 114.5 293t284.5 117q152 0 250.5 -94t98.5 -234q0 -176 -115 -292.5t-285 -116.5z" />
    <glyph glyph-name="foursuperior" unicode="&#x2074;" horiz-adv-x="735" 
d="M819 942h-276l20 113h-368l36 205l301 378h287l-289 -358h93l92 113h184l-20 -113h71l-39 -225h-71z" />
    <glyph glyph-name="fivesuperior" unicode="&#x2075;" horiz-adv-x="755" 
d="M612 1434l-18 -72q51 20 102 20q106 0 166 -55.5t60 -148.5q0 -110 -89 -183t-239 -73q-87 0 -153.5 22.5t-102 53.5t-58 70.5t-28.5 68t-6 51.5h274q0 -2 1.5 -4.5t5.5 -9.5t9.5 -12.5t15.5 -10t21 -4.5q23 0 37.5 14t14.5 37q0 51 -72 51h-256l100 389h543l-37 -204
h-291z" />
    <glyph glyph-name="sixsuperior" unicode="&#x2076;" horiz-adv-x="737" 
d="M246 1178q0 63 39.5 128t128.5 148l196 184h308l-232 -204l-88 -41l-2 -11q49 21 100 21q106 0 166 -56t60 -149q0 -125 -88 -200.5t-240 -75.5q-82 0 -146 19t-101 47t-61 64.5t-32 67t-8 58.5zM580 1126q27 0 46 19.5t19 48.5q0 25 -16 40t-41 15q-27 0 -46.5 -19
t-19.5 -48q0 -25 16.5 -40.5t41.5 -15.5z" />
    <glyph glyph-name="sevensuperior" unicode="&#x2077;" horiz-adv-x="645" 
d="M258 1413l39 225h625l-39 -225l-330 -471h-307l336 451l4 20h-328z" />
    <glyph glyph-name="eightsuperior" unicode="&#x2078;" horiz-adv-x="798" 
d="M614 1659q191 0 285 -58t94 -137q0 -27 -9 -51t-23 -41t-31.5 -31t-34 -22.5t-31.5 -14t-23.5 -8t-9.5 -2.5v-10q5 -2 14 -5.5t32 -17.5t40 -30.5t31.5 -44.5t14.5 -60q0 -90 -77 -147t-231 -57q-220 0 -319.5 58.5t-99.5 145.5q0 46 20 83t48 57t56 33.5t48 17.5l20 4
v10q-5 2 -12 5.5t-26.5 16t-34 27.5t-26.5 40.5t-12 54.5q0 76 76.5 130t220.5 54zM645 1372q62 0 62 51q0 16 -16.5 28.5t-45.5 12.5q-61 0 -61 -51q0 -16 16 -28.5t45 -12.5zM614 1116q29 0 45.5 14.5t16.5 36.5q0 52 -82 52q-29 0 -45.5 -15t-16.5 -37q0 -51 82 -51z" />
    <glyph glyph-name="ninesuperior" unicode="&#x2079;" horiz-adv-x="737" 
d="M942 1403q0 -63 -39.5 -128.5t-128.5 -148.5l-196 -184h-308l232 205l88 41l2 10q-49 -20 -100 -20q-106 0 -166 55.5t-60 148.5q0 125 88 201t240 76q82 0 146 -19t101 -47t61 -64.5t32 -67t8 -58.5zM608 1454q-27 0 -46 -19.5t-19 -48.5q0 -25 16 -40t41 -15
q27 0 46.5 19.5t19.5 48.5q0 24 -16.5 39.5t-41.5 15.5z" />
    <glyph glyph-name="zeroinferior" unicode="&#x2080;" horiz-adv-x="819" 
d="M430 10q33 0 62.5 47t29.5 138q0 42 -17.5 61.5t-43.5 19.5q-34 0 -63 -46.5t-29 -137.5q0 -43 17.5 -62.5t43.5 -19.5zM420 -225q-152 0 -250 93.5t-98 233.5q0 176 114.5 293t284.5 117q152 0 250 -94t98 -234q0 -176 -114.5 -292.5t-284.5 -116.5z" />
    <glyph glyph-name="oneinferior" unicode="&#x2081;" horiz-adv-x="745" 
d="M51 -205l39 225h184l41 226l-178 -82l41 235l201 93h276l-84 -472h154l-39 -225h-635z" />
    <glyph glyph-name="twoinferior" unicode="&#x2082;" horiz-adv-x="776" 
d="M479 10l-2 -10l105 20h163l-38 -225h-676l39 215l204 92q158 72 183 88q32 21 32 46q0 40 -51 40q-23 0 -39 -13t-21 -25l-5 -13h-283q1 6 4 16.5t16 40t30 57t48.5 60.5t70 56.5t96 40t124.5 16.5q146 0 232 -67t86 -158q0 -146 -188 -232q-48 -23 -130 -45z" />
    <glyph glyph-name="threeinferior" unicode="&#x2083;" horiz-adv-x="747" 
d="M369 92h-113l20 113l181 92l2 10l-86 -20h-236l37 205h604l-35 -195l-192 -100l-2 -13q91 -7 139.5 -53t48.5 -111q0 -103 -89 -174t-238 -71q-63 0 -116 11.5t-88 30t-62 43.5t-42.5 49t-25 49t-12.5 42.5t-3 30.5h275q0 -2 1.5 -4.5t5.5 -9.5t9.5 -12.5t15.5 -10
t21 -4.5q23 0 37 14t14 37q0 51 -71 51z" />
    <glyph glyph-name="fourinferior" unicode="&#x2084;" horiz-adv-x="735" 
d="M635 -205h-277l21 113h-369l37 205l301 379h287l-289 -359h92l92 113h185l-21 -113h72l-39 -225h-72z" />
    <glyph glyph-name="fiveinferior" unicode="&#x2085;" horiz-adv-x="755" 
d="M428 287l-18 -72q51 21 102 21q106 0 165.5 -55.5t59.5 -149.5q0 -110 -88.5 -183t-238.5 -73q-87 0 -153.5 22.5t-102.5 53.5t-58 70.5t-28.5 68t-6.5 51.5h275q0 -2 1.5 -4.5t5.5 -9.5t9.5 -12.5t15.5 -10t21 -4.5q23 0 37 14t14 37q0 51 -71 51h-256l100 390h543
l-37 -205h-291z" />
    <glyph glyph-name="sixinferior" unicode="&#x2086;" horiz-adv-x="737" 
d="M51 31q0 63 39.5 128t128.5 148l197 185h307l-231 -205l-89 -41l-2 -10q50 20 101 20q106 0 165.5 -55.5t59.5 -149.5q0 -125 -88 -200.5t-240 -75.5q-82 0 -146 19t-101 47t-61 64.5t-32 67t-8 58.5zM385 -20q27 0 46.5 19t19.5 48q0 24 -16.5 39.5t-41.5 15.5
q-27 0 -46 -19t-19 -48q0 -25 16 -40t41 -15z" />
    <glyph glyph-name="seveninferior" unicode="&#x2087;" horiz-adv-x="645" 
d="M63 266l39 226h625l-39 -226l-330 -471h-307l336 451l4 20h-328z" />
    <glyph glyph-name="eightinferior" unicode="&#x2088;" horiz-adv-x="798" 
d="M430 512q191 0 285 -58t94 -137q0 -27 -9 -51t-23 -41t-31.5 -31t-34 -22.5t-31.5 -14t-23.5 -8t-9.5 -2.5v-10q5 -2 14 -5.5t31.5 -17t40 -30t31.5 -44.5t14 -60q0 -91 -77 -148t-230 -57q-220 0 -320 59t-100 146q0 46 20 83t48.5 56.5t56.5 33t48 17.5l20 4v10
q-5 2 -12 5.5t-26.5 16t-34 27.5t-26.5 40.5t-12 54.5q0 76 76.5 130t220.5 54zM461 225q61 0 61 51q0 16 -16 28.5t-45 12.5q-62 0 -62 -51q0 -16 16.5 -28.5t45.5 -12.5zM430 -31q29 0 45.5 14.5t16.5 36.5q0 52 -82 52q-29 0 -45.5 -15t-16.5 -37q0 -51 82 -51z" />
    <glyph glyph-name="nineinferior" unicode="&#x2089;" horiz-adv-x="737" 
d="M758 256q0 -63 -39.5 -128t-128.5 -148l-197 -185h-307l231 205l89 41l2 10q-50 -20 -101 -20q-106 0 -165.5 55.5t-59.5 149.5q0 125 88 200.5t240 75.5q82 0 146 -19t101 -47t61 -64.5t32 -67t8 -58.5zM424 307q-27 0 -46.5 -19t-19.5 -48q0 -25 16.5 -40.5t41.5 -15.5
q27 0 46 19.5t19 48.5q0 25 -16 40t-41 15z" />
    <glyph glyph-name="Euro" unicode="&#x20ac;" horiz-adv-x="1843" 
d="M1135 1065q-37 0 -73 -10.5t-60.5 -25.5t-44 -30t-28.5 -25l-9 -11h241l-33 -185h-311l-16 -123h307l-33 -184h-227q9 -16 23.5 -32.5t41 -36t68.5 -32t92 -12.5q60 0 112.5 21.5t84.5 52.5t55.5 62.5t32.5 53.5l10 21h516q-3 -13 -10.5 -35t-37.5 -85t-68 -121
t-105.5 -128t-146.5 -121t-195 -85.5t-248 -34.5q-296 0 -496 140t-260 372h-204l32 184h150q0 68 8 123h-137l33 185h155q96 229 310.5 370.5t490.5 141.5q319 0 515 -168t245 -447h-504q-1 4 -3 11.5t-11 29t-21 40.5t-34.5 43t-49.5 41t-68 28.5t-89 11.5z" />
    <glyph glyph-name="uni20B4" unicode="&#x20b4;" horiz-adv-x="1488" 
d="M231 942h746q6 3 14.5 10t22.5 28t14 44q0 41 -35 66.5t-108 25.5q-34 0 -61.5 -9.5t-42.5 -23t-24.5 -27t-12.5 -22.5l-3 -10h-493q2 9 7 25.5t27.5 63.5t52 89.5t84.5 94.5t122 89.5t167.5 63t217.5 25.5q133 0 244.5 -21.5t186 -56t126.5 -79.5t75 -91t23 -90
q0 -34 -12 -67t-29.5 -55t-34.5 -39.5t-29 -25.5l-12 -8h99l-33 -184h-1331zM1483 492h-746q-6 -3 -14.5 -10t-22.5 -28t-14 -44q0 -41 35.5 -67t107.5 -26q34 0 61.5 9.5t42.5 23.5t24.5 27.5t12.5 22.5l3 10h493q-2 -9 -7 -25.5t-27.5 -63.5t-52 -89.5t-84.5 -94.5
t-122 -89.5t-167.5 -63t-217.5 -25.5q-133 0 -244.5 21.5t-186 56t-126.5 79.5t-75 91t-23 90q0 34 12 67t29 55t34.5 39.5t29.5 25.5l12 8h-98l32 184h1332z" />
    <glyph glyph-name="uni20BD" unicode="&#x20bd;" horiz-adv-x="1568" 
d="M1143 553h-346l-25 -133h389l-45 -256h-389l-29 -164h-512l29 164h-143l45 256h143l25 133h-144l45 266h144l108 615h725q248 0 388.5 -116t140.5 -288q0 -214 -146 -345.5t-403 -131.5zM1047 1106h-154l-51 -287h174q70 0 111.5 44.5t41.5 123.5q0 119 -122 119z" />
    <glyph glyph-name="afii61352" unicode="&#x2116;" horiz-adv-x="2447" 
d="M2462 369h-656l49 286h656zM2222 758q-145 0 -241.5 92.5t-96.5 224.5q0 155 114.5 267t274.5 112q145 0 241.5 -92.5t96.5 -224.5q0 -155 -114.5 -267t-274.5 -112zM2243 1024q38 0 65 27t27 65q0 31 -22.5 51.5t-59.5 20.5q-38 0 -65 -27t-27 -65q0 -31 22.5 -51.5
t59.5 -20.5zM1221 758h24v205l82 471h512l-252 -1434h-553l-291 676h-24v-195l-84 -481h-512l252 1434h553z" />
    <glyph glyph-name="trademark" unicode="&#x2122;" horiz-adv-x="1843" 
d="M973 778v656h389l92 -228h21l92 228h389v-656h-328v185l31 153h-21l-92 -194h-164l-92 194h-20l30 -155v-183h-327zM184 1147v287h717v-287h-194v-369h-328v369h-195z" />
    <glyph glyph-name="arrowleft" unicode="&#x2190;" horiz-adv-x="1843" 
d="M860 195h-61l-471 501v52l471 501h61v-389h901v-276h-901v-389z" />
    <glyph glyph-name="arrowup" unicode="&#x2191;" horiz-adv-x="1843" 
d="M1567 963v-62h-389v-901h-277v901h-389v62l502 471h51z" />
    <glyph glyph-name="arrowright" unicode="&#x2192;" horiz-adv-x="1843" 
d="M1311 195h-62v389h-901v276h901v389h62l471 -501v-52z" />
    <glyph glyph-name="arrowdown" unicode="&#x2193;" horiz-adv-x="1843" 
d="M1526 532v-61l-502 -471h-51l-502 471v61h389v902h277v-902h389z" />
    <glyph glyph-name="uni2196" unicode="&#x2196;" horiz-adv-x="1847" 
d="M1249 1290v-71l-235 -230l639 -637l-197 -196l-637 637l-225 -230h-72v686l41 41h686z" />
    <glyph glyph-name="uni2197" unicode="&#x2197;" horiz-adv-x="1847" 
d="M864 1219v71h686l41 -41v-686h-71l-226 230l-637 -637l-196 196l639 637z" />
    <glyph glyph-name="uni2198" unicode="&#x2198;" horiz-adv-x="1841" 
d="M1513 932h72v-686l-41 -41h-686v71l229 226l-636 637l196 196l637 -639z" />
    <glyph glyph-name="uni2199" unicode="&#x2199;" horiz-adv-x="1841" 
d="M543 932h71l230 -236l637 639l196 -196l-637 -637l230 -226v-71h-686l-41 41v686z" />
    <glyph glyph-name="minus" unicode="&#x2212;" horiz-adv-x="1105" 
d="M1137 369h-942v368h942v-368z" />
    <glyph glyph-name="approxequal" unicode="&#x2248;" horiz-adv-x="1187" 
d="M840 911q31 0 51 20t20 52v31h297v-123q0 -136 -69.5 -211.5t-186.5 -75.5q-62 0 -119 16t-91 35.5t-74.5 35.5t-73.5 16q-31 0 -51.5 -20t-20.5 -52v-31h-297v123q0 128 73.5 207.5t182.5 79.5q62 0 119 -16t91.5 -35.5t75 -35.5t73.5 -16zM840 420q31 0 51 20t20 52v30
h297v-123q0 -136 -69.5 -211t-186.5 -75q-62 0 -119 16t-91 35t-74.5 35t-73.5 16q-31 0 -51.5 -20t-20.5 -52v-30h-297v123q0 128 73 207t183 79q62 0 119 -16t91.5 -35t75 -35t73.5 -16z" />
    <glyph glyph-name="notequal" unicode="&#x2260;" horiz-adv-x="1105" 
d="M1126 625h-266l-51 -133h317v-328h-440l-61 -164h-328l61 164h-133v328h256l51 133h-307v327h441l61 164h328l-62 -164h133v-327z" />
    <glyph glyph-name="lessequal" unicode="&#x2264;" horiz-adv-x="1105" 
d="M1137 297l-922 276v431l922 276v-328l-574 -153v-21l574 -153v-328zM215 492l922 -297v-318l-922 297v318z" />
    <glyph glyph-name="greaterequal" unicode="&#x2265;" horiz-adv-x="1105" 
d="M1126 573l-921 -276v328l573 153v21l-573 153v328l921 -276v-431zM205 195l921 297v-318l-921 -297v318z" />
    <glyph glyph-name="commaaccent" unicode="&#xf6c3;" horiz-adv-x="524" 
d="M455 -387q-25 -134 -125 -216.5t-234 -82.5q-23 0 -35 2l25 133q3 0 8.5 -1t7.5 -1q60 0 104 33.5t54 77.5l2 20q-18 -14 -51 -14q-65 0 -102 37t-37 98q0 87 60 148t149 61q81 0 131.5 -54.5t50.5 -158.5q0 -24 -8 -82z" />
    <glyph glyph-name="cyrBreve" unicode="&#xf6d1;" horiz-adv-x="907" 
d="M268 1884h285q0 -38 28 -60t74 -22q39 0 67.5 22t35.5 60h293q-29 -167 -134 -257.5t-292 -90.5q-165 0 -262 86.5t-97 220.5z" />
    <glyph glyph-name="cyrbreve" unicode="&#xf6d4;" horiz-adv-x="798" 
d="M268 1434h234q0 -34 26 -58t76 -24q51 0 77 24t26 58h235q-15 -139 -109 -223.5t-239 -84.5q-158 0 -243 75.5t-85 201.5z" />
    <glyph glyph-name="zero.oldstyle" unicode="&#xf730;" horiz-adv-x="1392" 
d="M778 338q73 0 129 68t56 178q0 164 -144 164q-73 0 -128.5 -68t-55.5 -178q0 -164 143 -164zM768 -31q-139 0 -255.5 41.5t-194.5 113.5t-121 169.5t-43 208.5q0 126 50 238.5t137.5 195.5t214.5 131.5t273 48.5q139 0 255.5 -41.5t194.5 -113t121.5 -169t43.5 -208.5
q0 -126 -50 -238.5t-138 -196t-215 -132t-273 -48.5z" />
    <glyph glyph-name="one.oldstyle" unicode="&#xf731;" horiz-adv-x="856" 
d="M766 0h-471l111 625l-263 -154l74 420l332 194h409z" />
    <glyph glyph-name="two.oldstyle" unicode="&#xf732;" horiz-adv-x="1228" 
d="M766 338l-4 -21l160 31h317l-61 -348h-1127l58 328l362 164q123 56 185 85.5t102.5 54.5t50.5 40t10 35q0 22 -21 36.5t-61 14.5q-45 0 -73.5 -20.5t-34.5 -41.5l-6 -20h-439q13 59 39.5 116.5t75 117.5t111.5 104.5t156 73t202 28.5q134 0 240 -30t171 -80.5
t98.5 -113.5t33.5 -134q0 -67 -30 -126.5t-78 -100.5t-106 -75.5t-116.5 -55.5t-106.5 -35.5t-78 -20.5z" />
    <glyph glyph-name="three.oldstyle" unicode="&#xf733;" horiz-adv-x="1249" 
d="M635 174h-223l63 358h242q58 0 90.5 35t32.5 99q0 40 -24 66t-68 26q-29 0 -52 -10.5t-35.5 -26t-21 -30.5t-11.5 -25l-3 -11h-461q27 96 77.5 176.5t125.5 145.5t183 102t238 37q256 0 399.5 -113t143.5 -276q0 -65 -19 -120t-49.5 -91t-67.5 -64.5t-74 -44t-67.5 -26
t-49.5 -13.5l-19 -3l-4 -21q10 -2 27.5 -7t62 -27.5t78.5 -53t62 -87.5t28 -128q0 -97 -38 -180.5t-109.5 -146t-181 -98.5t-244.5 -36q-134 0 -239 27t-171.5 70.5t-111.5 106t-66 127t-27 140.5h461q0 -5 1.5 -12.5t9.5 -26.5t20 -34t36 -27t56 -12q61 0 97 35.5t36 97.5
q0 48 -33 75t-100 27z" />
    <glyph glyph-name="four.oldstyle" unicode="&#xf734;" horiz-adv-x="1318" 
d="M1098 -389h-471l69 389h-635l70 389l531 696h512l-531 -696h143l187 246h307l-43 -246h164l-70 -389h-164z" />
    <glyph glyph-name="five.oldstyle" unicode="&#xf735;" horiz-adv-x="1325" 
d="M672 522h20q9 8 26.5 20t73.5 32t115 20q191 0 310.5 -117.5t119.5 -302.5q0 -168 -78.5 -303t-221.5 -213t-324 -78q-112 0 -204.5 20t-154.5 52t-109 77.5t-73.5 90t-43 96t-21.5 90t-5 76.5h463q0 -5 1 -14t8.5 -32t19.5 -40.5t38 -32t60 -14.5q70 0 117 57t47 148
q0 61 -34 97t-89 36q-29 0 -55 -10.5t-43 -25.5t-30 -30.5t-19 -26.5l-6 -10h-418l200 901h1045l-66 -368h-622z" />
    <glyph glyph-name="six.oldstyle" unicode="&#xf736;" horiz-adv-x="1341" 
d="M805 963l-4 -21q70 31 162 31q191 0 310.5 -116t119.5 -294q0 -122 -48 -231t-132 -189t-205 -127t-260 -47q-277 0 -441 145.5t-164 366.5q0 64 8 117t32.5 108t49 97.5t78.5 107.5t100 115t132 141l252 267h522l-387 -400zM748 338q70 0 116.5 49t46.5 125
q0 62 -35.5 97.5t-97.5 35.5q-70 0 -117 -49t-47 -125q0 -61 36 -97t98 -36z" />
    <glyph glyph-name="seven.oldstyle" unicode="&#xf737;" horiz-adv-x="1161" 
d="M139 696l70 389h1116l-70 -389l-661 -1085h-492l660 1065l2 20h-625z" />
    <glyph glyph-name="eight.oldstyle" unicode="&#xf738;" horiz-adv-x="1392" 
d="M819 -41q-179 0 -317 33.5t-221.5 92.5t-125.5 133t-42 161q0 71 21 132t55 101.5t74.5 72.5t81.5 50.5t75 30.5t55 16l21 4l4 21q-9 3 -23 9t-51 30t-65 52.5t-51 79t-23 107.5q0 78 35.5 147.5t103 124t177 86.5t247.5 32q167 0 294.5 -31.5t202 -85.5t111.5 -120
t37 -142q0 -63 -17.5 -116t-46 -87.5t-63 -61.5t-68.5 -41.5t-62.5 -24t-45.5 -12.5l-18 -3l-5 -21q10 -4 27.5 -11.5t61 -37t77 -64.5t61 -94.5t27.5 -126.5q0 -92 -37.5 -170.5t-110 -138t-189.5 -93.5t-267 -34zM860 901q48 0 80.5 38.5t32.5 104.5q0 82 -82 82
q-48 0 -80.5 -38.5t-32.5 -104.5q0 -82 82 -82zM768 307q64 0 109 51.5t45 133.5q0 60 -33.5 91t-89.5 31q-64 0 -109 -51t-45 -133q0 -60 33.5 -91.5t89.5 -31.5z" />
    <glyph glyph-name="nine.oldstyle" unicode="&#xf739;" horiz-adv-x="1341" 
d="M731 123l4 20q-70 -30 -162 -30q-191 0 -310.5 115.5t-119.5 293.5q0 122 48 231t132 189t205 127t260 47q277 0 441 -145.5t164 -366.5q0 -64 -8 -117t-32.5 -108t-49 -97.5t-78.5 -107.5t-100 -115t-132 -141l-291 -307h-522l426 440zM788 748q-70 0 -116.5 -49.5
t-46.5 -125.5q0 -61 35.5 -97t97.5 -36q70 0 117 49t47 125q0 62 -36 98t-98 36z" />
    <glyph glyph-name="T_E" 
d="M584 1044h-410l70 390h1331l-70 -390h-409l-21 -112h553l-49 -277h-553l-12 -71h461l-41 -236h-461l-12 -72h552l-49 -276h-1065z" />
    <glyph glyph-name="ecircumflex.sc" horiz-adv-x="1292" 
d="M676 348h584l-62 -348h-1075l217 1229h1075l-61 -348h-584l-18 -103h460l-57 -327h-461zM793 1720h307l172 -305l-2 -12h-277l-59 123h-41l-105 -123h-276l2 12z" />
    <glyph glyph-name="guilsinglright.case" horiz-adv-x="890" 
d="M143 422l359 305l-236 285l293 248l434 -553l-631 -553z" />
    <glyph glyph-name="hyphen.case" horiz-adv-x="1017" 
d="M1034 563h-860l66 369h860z" />
    <glyph glyph-name="endash.case" horiz-adv-x="1644" 
d="M1659 584h-1475l58 327h1474z" />
    <glyph glyph-name="emdash.case" horiz-adv-x="2013" 
d="M2028 584h-1844l58 327h1843z" />
    <glyph glyph-name="periodcentered.case" horiz-adv-x="573" 
d="M399 522q-85 0 -144.5 60t-59.5 145q0 99 71 172.5t164 73.5q85 0 145 -60t60 -145q0 -99 -71.5 -172.5t-164.5 -73.5z" />
    <glyph glyph-name="Iogonek.alt" horiz-adv-x="1265" 
d="M911 -553q-146 0 -216 51t-70 133q0 54 26 106t69 91t87.5 71t91 54.5t70.5 32.5t35 14h-932l69 389h308l114 655h-307l68 390h1126l-68 -390h-307l-114 -655h307l-70 -389q-13 -7 -21.5 -12t-42.5 -27t-59.5 -40.5t-60.5 -48t-57.5 -55.5t-39 -56.5t-16.5 -57.5
q0 -61 82 -61q23 0 47 2.5t36 5.5l13 2l-30 -184q-66 -21 -138 -21z" />
    <glyph glyph-name="gbreve.alt" horiz-adv-x="1380" 
d="M1335 829l-12 -10q29 -30 29 -102q0 -70 -33.5 -133.5t-98 -114.5t-168 -81t-233.5 -30q-55 0 -107 6t-77 12l-25 7l-18 -104q154 -6 278 -31.5t203 -63t131.5 -85t74 -94.5t21.5 -95q0 -54 -20 -103t-64 -92.5t-109.5 -75.5t-163 -50.5t-216.5 -18.5q-157 0 -285.5 23
t-212.5 60t-141.5 85.5t-82.5 99t-25 101.5q0 69 32 126t77.5 89t90.5 54t77 30l32 8l45 250q-4 3 -11.5 9t-26.5 28t-33 46.5t-26 64.5t-12 83q0 174 147 281.5t416 107.5q92 0 165.5 -7.5t102.5 -14.5t29 -9h469l-53 -297h-20zM788 625q61 0 97.5 34t36.5 89
q0 40 -37.5 71t-96.5 31q-61 0 -97 -34t-36 -89q0 -40 37 -71t96 -31zM680 -158q79 0 116.5 22.5t37.5 55.5q0 86 -236 86q-79 0 -116.5 -22.5t-37.5 -55.5q0 -86 236 -86zM575 1577h234q0 -34 25.5 -58t76.5 -24t77 24t26 58h235q-15 -139 -109 -223t-239 -84
q-158 0 -243 75t-85 201z" />
    <glyph glyph-name="gcommaaccent.alt" horiz-adv-x="1380" 
d="M1085 1845h21l-21 -133h-20q-67 0 -111 -33t-49 -80l-2 -20q19 20 60 20q62 0 97.5 -37.5t35.5 -105.5q0 -85 -60 -145t-145 -60q-87 0 -135.5 55t-48.5 160q0 161 108.5 270t269.5 109zM1335 829l-12 -10q29 -30 29 -102q0 -70 -33.5 -133.5t-98 -114.5t-168 -81
t-233.5 -30q-55 0 -107 6t-77 12l-25 7l-18 -104q154 -6 278 -31.5t203 -63t131.5 -85t74 -94.5t21.5 -95q0 -54 -20 -103t-64 -92.5t-109.5 -75.5t-163 -50.5t-216.5 -18.5q-157 0 -285.5 23t-212.5 60t-141.5 85.5t-82.5 99t-25 101.5q0 69 32 126t77.5 89t90.5 54t77 30
l32 8l45 250q-4 3 -11.5 9t-26.5 28t-33 46.5t-26 64.5t-12 83q0 174 147 281.5t416 107.5q92 0 165.5 -7.5t102.5 -14.5t29 -9h469l-53 -297h-20zM788 625q61 0 97.5 34t36.5 89q0 40 -37.5 71t-96.5 31q-61 0 -97 -34t-36 -89q0 -40 37 -71t96 -31zM680 -158
q79 0 116.5 22.5t37.5 55.5q0 86 -236 86q-79 0 -116.5 -22.5t-37.5 -55.5q0 -86 236 -86z" />
    <glyph glyph-name="afii10029.alt" horiz-adv-x="1734" 
d="M10 10l78 441q39 -11 90 -11q119 0 178 64t90 244l121 686h1301l-252 -1434h-512l174 983h-277l-47 -266q-29 -166 -75.5 -290t-109.5 -209.5t-147.5 -138t-185 -76t-227.5 -23.5q-55 0 -104.5 7.5t-72.5 14.5z" />
    <glyph glyph-name="afii10077.alt" horiz-adv-x="1398" 
d="M776 696l-39 -225q-43 -255 -167.5 -373t-329.5 -118q-68 0 -123 7.5t-76 14.5l-21 8l70 389q29 -10 70 -10q56 0 84 30.5t43 112.5l98 553h1116l-192 -1085h-471l123 696h-185z" />
    <glyph glyph-name="afii10028.alt" horiz-adv-x="1587" 
d="M1071 1024l16 92q31 171 136.5 254.5t302.5 83.5h246l-66 -369h-61q-23 0 -39 -14t-21 -37l-14 -82q-6 -36 -21 -65.5t-34 -49t-40.5 -34.5t-41.5 -23.5t-36 -13.5t-26 -6l-10 -2l-4 -21q7 -1 18 -3t39 -13t50 -27.5t39.5 -48t17.5 -72.5q0 -13 -4 -41l-25 -133
q-2 -4 -2 -12q0 -17 12.5 -28t32.5 -11h61l-65 -368h-246q-168 0 -248 60.5t-80 186.5q0 33 11 101l18 102q0 3 1 8.5t1 7.5q0 26 -16 41t-45 15h-205l-88 -502h-512l252 1434h512l-84 -482h184q34 0 56 19t28 53z" />
    <glyph glyph-name="afii10076.alt" horiz-adv-x="1341" 
d="M758 348h-133l-62 -348h-471l191 1085h471l-62 -348h113q62 0 74 62l14 82q18 102 97.5 163.5t207.5 61.5h277l-54 -307h-41q-43 0 -49 -41l-4 -31q-6 -40 -26 -71.5t-44.5 -48t-48 -27.5t-39.5 -14l-16 -3l-2 -20q6 -1 15 -3t33 -11t42.5 -22t33.5 -38t15 -57
q0 -9 -4 -33l-10 -51q0 -2 -1 -5.5t-1 -5.5q0 -30 37 -30h41l-56 -307h-276q-113 0 -171 48t-58 132q0 13 4 45l14 82q0 3 1 8.5t1 7.5q0 45 -53 45z" />
    <glyph glyph-name="afii10024.alt" horiz-adv-x="2277" 
d="M897 1116l-16 -92q-2 -6 -2 -18q0 -25 16 -39.5t45 -14.5h113l84 482h512l-84 -482h112q34 0 56 19t28 53l17 92q31 171 136 254.5t302 83.5h246l-66 -369h-61q-23 0 -39 -14t-21 -37l-14 -82q-6 -36 -21 -65.5t-34 -49t-40.5 -34.5t-41.5 -23.5t-36 -13.5t-26 -6l-10 -2
l-4 -21q7 -1 18 -3t39 -13t50 -27.5t39.5 -48t17.5 -72.5q0 -13 -4 -41l-25 -133q-2 -4 -2 -12q0 -17 12.5 -28t32.5 -11h62l-66 -368h-246q-168 0 -247.5 60.5t-79.5 186.5q0 39 10 101l18 102q0 3 1 8.5t1 7.5q0 26 -16 41t-45 15h-133l-88 -502h-512l88 502h-133
q-34 0 -56 -19t-28 -53l-19 -102q-33 -179 -138 -263.5t-302 -84.5h-246l66 368h61q23 0 39 14t21 37l24 133q9 52 36.5 92t58 60t63.5 33t50 16.5t22 3.5l4 21q-6 1 -15.5 2.5t-34.5 12t-44 25.5t-34.5 45t-15.5 68q0 13 4 41l15 82v10q0 19 -11.5 30t-31.5 11h-62l66 369
h246q169 0 248 -61t79 -185q0 -48 -8 -92z" />
    <glyph glyph-name="afii10072.alt" horiz-adv-x="1970" 
d="M942 1085h471l-61 -348h82q61 0 73 62l15 82q18 102 97.5 163.5t207.5 61.5h276l-53 -307h-41q-43 0 -49 -41l-6 -31q-8 -40 -29 -71.5t-44.5 -48t-46 -27.5t-37.5 -14l-15 -3l-4 -20q6 -1 15 -3t32.5 -11.5t41.5 -23t33 -40t15 -59.5q0 -17 -2 -27l-8 -51q0 -2 -1 -6
t-1 -5q0 -30 34 -30h41l-53 -307h-276q-113 0 -172.5 48t-59.5 132q0 13 4 45l15 82q2 6 2 18q0 43 -52 43h-102l-61 -348h-471l61 348h-102q-65 0 -74 -61l-14 -82q-18 -102 -98 -163.5t-208 -61.5h-276l53 307h41q43 0 49 41l9 51q6 40 28.5 71.5t49.5 48t53 27.5t44 14
l17 3l4 20q-5 1 -13 2.5t-28.5 10.5t-36 21.5t-28.5 37t-13 55.5q0 13 4 37l7 31v10q0 31 -33 31h-41l53 307h277q113 0 172 -48.5t59 -133.5q0 -15 -4 -43l-14 -82q-2 -6 -2 -19q0 -43 51 -43h82z" />
    <glyph glyph-name="afii10021.alt" horiz-adv-x="1771" 
d="M1630 410h164l-115 -656h-471l43 246h-778l-43 -246h-471l115 656h123q6 2 16.5 7t39.5 28t53.5 55t51 92.5t39.5 134.5l125 707h1290zM1118 410l109 614h-266l-48 -266q-13 -72 -39.5 -134t-56 -99.5t-56.5 -65t-45 -38.5l-18 -11h420z" />
    <glyph glyph-name="afii10069.alt" horiz-adv-x="1449" 
d="M-20 -205l98 553h102q4 1 10.5 3.5t24.5 16t33.5 33.5t32.5 60t26 92l94 532h1086l-129 -737h133l-98 -553h-441l37 205h-532l-37 -205h-440zM801 737l-33 -184q-8 -43 -27 -79t-40.5 -56.5t-42.5 -35t-34 -19.5l-14 -5v-10h277l67 389h-153z" />
    <glyph glyph-name="guillemotright.case" horiz-adv-x="1447" 
d="M879 1032l288 228l383 -553l-579 -553l-223 247l352 326zM274 1032l289 228l383 -553l-579 -553l-224 247l353 326z" />
    <glyph glyph-name="guillemotleft.case" horiz-adv-x="1447" 
d="M825 381l-288 -227l-383 553l579 553l223 -248l-352 -326zM1430 381l-289 -227l-383 553l579 553l224 -248l-353 -326z" />
    <glyph glyph-name="questiondown.case" horiz-adv-x="1357" 
d="M143 389q0 82 34 145t85 99.5t114 70t119 58.5t101 63.5t59 85.5h465q-11 -77 -44 -138.5t-76.5 -99.5t-93.5 -68t-97.5 -49.5t-86.5 -37.5t-63 -39.5t-24 -48.5q0 -92 153 -92q43 0 78 12.5t54 31t32 36.5t17 30l4 13h487q-3 -10 -8.5 -28.5t-30.5 -70.5t-56.5 -99.5
t-89.5 -105.5t-127 -99.5t-171 -70t-219 -28.5q-149 0 -268.5 35.5t-193.5 95.5t-113.5 136.5t-39.5 162.5zM954 1464q85 0 145 -59.5t60 -144.5q0 -99 -71 -172.5t-164 -73.5q-85 0 -145 60t-60 145q0 99 71 172t164 73z" />
    <glyph glyph-name="exclamdown.case" horiz-adv-x="712" 
d="M123 0l98 563l144 348h307v-348l-78 -563h-471zM580 1464q85 0 144.5 -59.5t59.5 -144.5q0 -99 -71 -172.5t-164 -73.5q-85 0 -145 60t-60 145q0 99 71.5 172t164.5 73z" />
    <glyph glyph-name="braceright.case" horiz-adv-x="921" 
d="M338 -184h-328l68 379h153q60 0 72 61l39 225q9 55 34.5 98t55.5 66t58.5 38t47.5 19l19 5l2 20q-6 1 -15 3.5t-32.5 14.5t-41.5 29.5t-33 51t-15 75.5q0 33 4 51l39 226q2 6 2 18q0 43 -51 43h-154l66 379h327q139 0 216 -71.5t77 -198.5q0 -38 -6 -78l-49 -287
q-2 -8 -2 -20q0 -41 43 -41h90l-72 -410h-90q-54 0 -63 -61l-51 -287q-29 -161 -139 -254.5t-271 -93.5z" />
    <glyph glyph-name="braceleft.case" horiz-adv-x="921" 
d="M850 -184h-328q-140 0 -217.5 70.5t-77.5 197.5q0 15 9 80l51 287v16q0 45 -43 45h-90l71 410h90q24 0 42 15.5t24 45.5l49 287q28 161 139 254.5t271 93.5h327l-65 -379h-154q-65 0 -74 -61l-38 -226q-6 -31 -17 -59t-24.5 -48t-30 -37.5t-32.5 -29.5t-32.5 -21.5
t-30 -14.5t-24.5 -9t-17 -5l-5 -1l-5 -20q6 -1 15 -3.5t33 -15t42 -30t33 -51t15 -75.5q0 -15 -4 -51l-39 -225q-2 -6 -2 -18q0 -43 53 -43h154z" />
    <glyph glyph-name="bracketright.case" horiz-adv-x="880" 
d="M518 1239h-256l66 379h716l-317 -1802h-717l68 379h256z" />
    <glyph glyph-name="bracketleft.case" horiz-adv-x="880" 
d="M1061 1239h-256l-184 -1044h256l-68 -379h-717l318 1802h716z" />
    <glyph glyph-name="parenright.case" horiz-adv-x="894" 
d="M915 852q0 -118 -24.5 -231t-66.5 -204.5t-96 -175.5t-113.5 -149.5t-119 -121.5t-113.5 -95t-96 -67t-66 -41l-25 -13l-195 287q9 7 25 19.5t61.5 55.5t86.5 89.5t91.5 119t87 146t61.5 169t25 189.5t-20.5 186.5t-50 157.5t-59 117t-50.5 78l-20 25l297 286
q8 -6 21.5 -18t53 -53.5t75.5 -88t80 -120.5t75.5 -152.5t53 -182.5t21.5 -212z" />
    <glyph glyph-name="parenleft.case" horiz-adv-x="903" 
d="M215 582q0 150 39.5 291.5t103 248t140 200t153.5 157.5t140.5 110.5t102.5 68.5l40 21l194 -286q-9 -7 -25 -19.5t-61.5 -55.5t-86.5 -90t-91.5 -119t-87 -146t-61.5 -169.5t-25 -189.5t20.5 -186t50 -157t59.5 -117t50 -78l21 -25l-297 -287q-8 6 -21.5 18t-53 53.5
t-75.5 88t-79.5 121t-75 152.5t-53 182.5t-21.5 212.5z" />
    <glyph glyph-name="at.case" horiz-adv-x="1681" 
d="M1774 887q0 -241 -152 -385t-424 -144h-213l16 82h-10q-2 -4 -6 -11t-19 -24.5t-33 -31t-49 -24.5t-65 -11q-110 0 -183 81t-73 216q0 173 103 286t245 113q27 0 51 -6t40.5 -15t30 -20t21.5 -21.5t13.5 -20t7.5 -14.5l2 -5h10l15 82h307l-72 -410q70 0 120 67.5
t50 194.5q0 76 -31.5 142.5t-90.5 118.5t-152.5 82t-208.5 30q-162 0 -297 -76t-215 -215.5t-80 -314.5q0 -219 148 -349t399 -130q74 0 144.5 11t104.5 21l34 11l-43 -244q-14 -5 -39 -12.5t-100 -20t-148 -12.5q-172 0 -316.5 55t-243 150t-153.5 225t-55 278
q0 183 69.5 345.5t187.5 276.5t279 180.5t338 66.5q172 0 313 -48t232.5 -130t141 -190t49.5 -230zM952 563q35 0 63.5 43t28.5 121q0 43 -17.5 62.5t-43.5 19.5q-35 0 -63.5 -43t-28.5 -121q0 -43 17.5 -62.5t43.5 -19.5z" />
    <glyph glyph-name="afii10065.alt" horiz-adv-x="1345" 
d="M881 471h-164q-52 0 -82.5 -26t-30.5 -66q0 -33 25.5 -52.5t77.5 -19.5q138 0 174 164zM461 -31q-157 0 -247.5 80.5t-90.5 206.5q0 164 110 266.5t299 102.5h373l10 53q9 50 -16.5 80t-79.5 30q-36 0 -64 -18t-38 -36l-10 -17h-482q2 8 6 22.5t22.5 56t44.5 79
t74.5 83.5t108 79.5t150.5 56t198 22.5q186 0 318.5 -59t195 -178t33.5 -283l-106 -596h-471l26 154h-20q-2 -4 -6.5 -10.5t-20.5 -26t-34 -37t-48.5 -38.5t-63 -36.5t-78 -26t-93.5 -10.5z" />
    <glyph glyph-name="I.alt" horiz-adv-x="1265" 
d="M324 1434h1126l-68 -390h-307l-114 -655h307l-70 -389h-1126l69 389h308l114 655h-307z" />
    <glyph glyph-name="y.alt" horiz-adv-x="1314" 
d="M1479 1085l-457 -1085q-86 -202 -215 -295.5t-346 -93.5h-369l55 317h277q56 0 91.5 24.5t62.5 88.5l34 82h-348l-76 962h500v-645h41l268 645h482z" />
    <glyph glyph-name="afii10085.alt" horiz-adv-x="1314" 
d="M1479 1085l-457 -1085q-86 -202 -215 -295.5t-346 -93.5h-369l55 317h277q56 0 91.5 24.5t62.5 88.5l34 82h-348l-76 962h500v-645h41l268 645h482z" />
    <glyph glyph-name="l.alt" horiz-adv-x="641" 
d="M92 0l252 1434h471l-252 -1434h-471z" />
    <glyph glyph-name="ydieresis.alt" horiz-adv-x="1314" 
d="M1479 1085l-457 -1085q-86 -202 -215 -295.5t-346 -93.5h-369l55 317h277q56 0 91.5 24.5t62.5 88.5l34 82h-348l-76 962h500v-645h41l268 645h482zM614 1229q-84 0 -134 48.5t-50 125.5q0 92 61.5 153.5t153.5 61.5q84 0 134 -48.5t50 -125.5q0 -92 -61.5 -153.5
t-153.5 -61.5zM1096 1229q-84 0 -134.5 48.5t-50.5 125.5q0 92 61.5 153.5t153.5 61.5q84 0 134.5 -48.5t50.5 -125.5q0 -92 -61.5 -153.5t-153.5 -61.5z" />
    <glyph glyph-name="zero.dnom" horiz-adv-x="819" 
d="M451 215q34 0 63 46.5t29 137.5q0 42 -18 62t-44 20q-34 0 -63 -46.5t-29 -137.5q0 -42 18 -62t44 -20zM440 -20q-152 0 -250 93.5t-98 233.5q0 176 115 293t285 117q152 0 250 -94t98 -234q0 -176 -115 -292.5t-285 -116.5z" />
    <glyph glyph-name="one.dnom" horiz-adv-x="745" 
d="M72 0l39 225h184l41 226l-178 -82l41 235l200 92h277l-84 -471h153l-38 -225h-635z" />
    <glyph glyph-name="two.dnom" horiz-adv-x="776" 
d="M500 215l-2 -10l104 20h164l-39 -225h-676l39 215l205 92q19 8 51 23q104 47 134 65.5t30 44.5q0 41 -51 41q-23 0 -39.5 -12.5t-21.5 -25.5l-5 -13h-282q1 6 4 16.5t16 40t30 57t48.5 60.5t70 56.5t96 40t124.5 16.5q146 0 231.5 -67t85.5 -158q0 -146 -188 -233
q-48 -22 -129 -44z" />
    <glyph glyph-name="three.dnom" horiz-adv-x="747" 
d="M379 297h-113l21 113l180 92l2 10l-86 -20h-236l37 204h604l-34 -194l-193 -101l-2 -12q91 -7 140 -53t49 -111q0 -103 -89.5 -174t-238.5 -71q-87 0 -153.5 22t-102 53t-58 69.5t-28.5 65t-6 46.5h274q0 -2 1.5 -4.5t5.5 -9.5t9.5 -12.5t15.5 -10t21 -4.5q23 0 37.5 14
t14.5 37q0 51 -72 51z" />
    <glyph glyph-name="four.dnom" horiz-adv-x="735" 
d="M655 0h-276l20 113h-368l37 204l301 379h286l-288 -358h92l92 113h184l-20 -113h71l-38 -225h-72z" />
    <glyph glyph-name="five.dnom" horiz-adv-x="765" 
d="M449 492l-19 -72q51 20 102 20q106 0 166 -55.5t60 -148.5q0 -110 -89 -183t-239 -73q-87 0 -153.5 22.5t-102 53.5t-58 70.5t-28.5 68t-6 51.5h274q1 -5 4.5 -11.5t17.5 -18t32 -11.5q23 0 37 14t14 37q0 51 -72 51h-256l100 389h543l-37 -204h-290z" />
    <glyph glyph-name="six.dnom" horiz-adv-x="737" 
d="M82 236q0 63 39.5 128t128.5 148l196 184h308l-232 -204l-88 -41l-2 -11q49 21 100 21q106 0 166 -56t60 -149q0 -125 -88 -200.5t-240 -75.5q-82 0 -146 19t-101 47t-61 64.5t-32 67t-8 58.5zM416 184q27 0 46 19.5t19 48.5q0 25 -16 40t-41 15q-27 0 -46.5 -19
t-19.5 -48q0 -25 16.5 -40.5t41.5 -15.5z" />
    <glyph glyph-name="seven.dnom" horiz-adv-x="645" 
d="M94 471l39 225h625l-39 -225l-330 -471h-307l336 451l4 20h-328z" />
    <glyph glyph-name="eight.dnom" horiz-adv-x="798" 
d="M451 717q191 0 284.5 -58t93.5 -137q0 -37 -16.5 -68.5t-39.5 -49.5t-47.5 -30.5t-39.5 -17t-18 -4.5v-10q5 -2 14 -5.5t31.5 -17.5t40 -30.5t31.5 -44.5t14 -60q0 -90 -77 -147t-230 -57q-220 0 -320 58.5t-100 145.5q0 46 20 83t48 57t56 33.5t48 17.5l20 4v10
q-4 2 -11.5 5t-26.5 16t-33.5 28t-26.5 40t-12 54q0 76 76.5 130.5t220.5 54.5zM481 430q62 0 62 51q0 16 -16.5 28.5t-45.5 12.5q-61 0 -61 -51q0 -16 16 -28.5t45 -12.5zM451 174q29 0 45 14.5t16 36.5q0 51 -82 51q-29 0 -45 -14.5t-16 -36.5q0 -51 82 -51z" />
    <glyph glyph-name="nine.dnom" horiz-adv-x="737" 
d="M788 461q0 -63 -39 -128.5t-128 -148.5l-197 -184h-307l231 205l88 41l2 10q-49 -20 -100 -20q-106 0 -165.5 55.5t-59.5 148.5q0 125 87.5 201t239.5 76q82 0 146 -19t101 -47t61 -64.5t32 -67t8 -58.5zM455 512q-27 0 -46.5 -19.5t-19.5 -48.5q0 -25 16 -40t41 -15
q27 0 46.5 19.5t19.5 48.5q0 25 -16 40t-41 15z" />
    <glyph glyph-name="zero.numr" horiz-adv-x="819" 
d="M584 952q33 0 62.5 47t29.5 138q0 42 -18 62t-44 20q-33 0 -62.5 -47t-29.5 -138q0 -42 18 -62t44 -20zM573 717q-152 0 -250 93.5t-98 233.5q0 176 115 293t285 117q152 0 250 -94t98 -234q0 -176 -115 -292.5t-285 -116.5z" />
    <glyph glyph-name="one.numr" horiz-adv-x="745" 
d="M205 737l39 226h184l41 225l-178 -82l41 235l200 93h277l-84 -471h154l-39 -226h-635z" />
    <glyph glyph-name="two.numr" horiz-adv-x="786" 
d="M633 952l-2 -10l104 21h164l-39 -226h-676l39 215l205 92q158 72 183 88q31 22 32 46q0 41 -51 41q-23 0 -39.5 -13t-21.5 -26l-5 -13h-282q1 6 4 16.5t16 40t30 57t48.5 60.5t70 56.5t96 40t124.5 16.5q146 0 231.5 -67t85.5 -158q0 -146 -188 -233q-48 -22 -129 -44z
" />
    <glyph glyph-name="three.numr" horiz-adv-x="747" 
d="M502 1034h-113l21 113l180 92l2 10l-86 -20h-236l37 205h604l-34 -195l-193 -100l-2 -13q91 -7 139.5 -52.5t48.5 -110.5q0 -104 -89 -175t-238 -71q-87 0 -153.5 22t-102 53t-58 69.5t-28.5 65t-6 46.5h274q0 -2 1.5 -4.5t5.5 -9.5t9.5 -12.5t15.5 -10t21 -4.5
q23 0 37 14t14 37q0 51 -71 51z" />
    <glyph glyph-name="four.numr" horiz-adv-x="745" 
d="M788 737h-276l20 113h-368l37 205l301 379h286l-288 -359h92l92 113h184l-20 -113h72l-39 -225h-72z" />
    <glyph glyph-name="five.numr" horiz-adv-x="765" 
d="M571 1229l-18 -72q51 21 102 21q106 0 166 -56t60 -149q0 -110 -89 -183t-239 -73q-87 0 -153.5 22.5t-102 53.5t-58 70.5t-28.5 68t-6 51.5h274q0 -2 1.5 -4.5t5.5 -9.5t9.5 -12.5t15.5 -10t21 -4.5q23 0 37.5 14t14.5 37q0 51 -72 51h-256l100 390h543l-37 -205h-291z
" />
    <glyph glyph-name="six.numr" horiz-adv-x="737" 
d="M205 973q0 63 39.5 128t128.5 148l196 185h308l-232 -205l-88 -41l-2 -10q49 20 100 20q106 0 166 -56t60 -149q0 -125 -88 -200.5t-240 -75.5q-82 0 -146 19t-101 47t-61 64.5t-32 67t-8 58.5zM539 922q27 0 46 19t19 48q0 25 -16 40t-41 15q-27 0 -46.5 -19t-19.5 -48
q0 -24 16.5 -39.5t41.5 -15.5z" />
    <glyph glyph-name="seven.numr" horiz-adv-x="645" 
d="M227 1208l39 226h625l-39 -226l-330 -471h-307l336 451l4 20h-328z" />
    <glyph glyph-name="eight.numr" horiz-adv-x="798" 
d="M584 1454q191 0 285 -57.5t94 -136.5q0 -27 -9 -51t-23 -41t-31.5 -31t-34 -22.5t-31.5 -14t-23.5 -8t-9.5 -2.5v-11q5 -2 14 -5.5t31.5 -17t40 -30t31.5 -44.5t14 -60q0 -91 -77 -148t-230 -57q-220 0 -320 59t-100 146q0 46 20 83t48 56.5t56 33t48 17.5l20 4v10
q-4 2 -11.5 5.5t-26.5 16t-33.5 27.5t-26.5 40.5t-12 54.5q0 76 76.5 130t220.5 54zM614 1167q30 0 46 14t16 38q0 16 -16.5 28.5t-45.5 12.5q-30 0 -45.5 -14t-15.5 -38q0 -16 16 -28.5t45 -12.5zM584 911q29 0 45 15t16 37q0 51 -82 51q-29 0 -45 -14.5t-16 -36.5
q0 -52 82 -52z" />
    <glyph glyph-name="nine.numr" horiz-adv-x="737" 
d="M901 1198q0 -63 -39.5 -128t-128.5 -148l-196 -185h-308l232 205l88 41l2 10q-49 -20 -100 -20q-106 0 -166 56t-60 149q0 125 88 200.5t240 75.5q82 0 146 -19t101 -47t61 -64.5t32 -67t8 -58.5zM567 1249q-27 0 -46 -19t-19 -48q0 -25 16 -40.5t41 -15.5
q27 0 46.5 19.5t19.5 48.5q0 24 -16.5 39.5t-41.5 15.5z" />
    <glyph glyph-name="yacute.alt" horiz-adv-x="1314" 
d="M1479 1085l-457 -1085q-86 -202 -215 -295.5t-346 -93.5h-369l55 317h277q56 0 91.5 24.5t62.5 88.5l34 82h-348l-76 962h500v-645h41l268 645h482zM707 1280l198 317h430l-2 -10l-350 -307h-276z" />
    <glyph glyph-name="zero.tab" 
d="M872 -41q-192 0 -340.5 51.5t-237 143t-122 217t-4.5 272.5l53 272q24 123 81 224.5t146 177t215.5 117t280.5 41.5q192 0 340.5 -51.5t237.5 -143t122.5 -217t4.5 -272.5l-54 -273q-24 -123 -81 -224t-146 -176.5t-215.5 -117t-280.5 -41.5zM944 1044q-77 0 -127 -50
t-69 -146l-43 -232q-20 -110 23.5 -168.5t143.5 -58.5q77 0 127.5 50.5t69.5 146.5l43 231q20 110 -24 168.5t-144 58.5z" />
    <glyph glyph-name="one.tab" 
d="M727 881l-295 -164l90 512l365 205h471l-180 -1024h378l-71 -410h-1331l71 410h420z" />
    <glyph glyph-name="two.tab" 
d="M197 420l510 246q248 120 318.5 170t70.5 116q0 41 -35.5 66.5t-108.5 25.5q-35 0 -64.5 -11t-46 -27t-28 -32t-15.5 -27l-5 -11h-517q78 239 281 389t467 150q142 0 259.5 -39t194 -106t118.5 -153.5t42 -183.5q0 -69 -23.5 -133t-63 -113.5t-91 -93.5t-108 -76.5
t-113 -60t-108 -45t-91 -30t-62.5 -17.5l-24 -6l-4 -21l148 23h440l-74 -420h-1341z" />
    <glyph glyph-name="three.tab" 
d="M860 604h-303l45 266l316 154l2 20h-564l70 390h1198l-68 -379l-430 -174l-2 -21q203 -18 312.5 -124t109.5 -265q0 -104 -44 -196.5t-124 -163t-203.5 -111.5t-273.5 -41q-140 0 -255 29t-187.5 72.5t-127 102.5t-81.5 111t-43.5 106.5t-19.5 80.5t-3 41h498
q0 -4 2.5 -16t14 -35.5t30 -43t55.5 -34.5t86 -15q75 0 114.5 35.5t39.5 98.5q0 56 -37.5 84t-126.5 28z" />
    <glyph glyph-name="four.tab" 
d="M1364 0h-512l39 225h-768l76 430l628 779h564l-629 -779h225l21 113l125 143h391l-45 -256h163l-75 -430h-164z" />
    <glyph glyph-name="five.tab" 
d="M815 881h21q4 3 11 7.5t32 17t52.5 22t71 17t89.5 7.5q219 0 345 -122t126 -318q0 -115 -45.5 -216t-128 -176t-207.5 -118t-275 -43q-143 0 -259 30t-193 80.5t-130.5 120t-79 144.5t-30.5 158h498q1 -5 3 -14.5t14 -32.5t29 -40.5t51 -32t77 -14.5q68 0 110.5 41
t42.5 103q0 55 -44 89t-119 34h-598l194 809h1126l-69 -390h-676z" />
    <glyph glyph-name="six.tab" 
d="M528 1085l346 349h566l-410 -410l-115 -61l-2 -21q58 31 160 31q227 0 364.5 -128t137.5 -325q0 -111 -49 -212t-137 -179t-220.5 -124t-289.5 -46q-136 0 -250 27t-195 75t-138 113.5t-84.5 143.5t-27.5 165q0 138 75 272.5t269 329.5zM889 358q73 0 118.5 37t45.5 86
q0 50 -49 86.5t-136 36.5q-73 0 -118 -37t-45 -86q0 -50 48.5 -86.5t135.5 -36.5z" />
    <glyph glyph-name="seven.tab" 
d="M236 778l114 656h1372l-80 -451l-704 -983h-573l702 963l4 20h-289l-34 -205h-512z" />
    <glyph glyph-name="eight.tab" 
d="M922 -41q-167 0 -303 25.5t-226.5 68.5t-152.5 101.5t-89.5 122t-27.5 133.5q0 54 13 102t35.5 83.5t51.5 65.5t61 50.5t63.5 36.5t60.5 25.5t51.5 15.5t35.5 8l13 2l2 20q-8 2 -22 7.5t-49 26.5t-61.5 47.5t-48.5 73t-22 101.5q0 79 38 149.5t111 127t193.5 90
t272.5 33.5q146 0 267 -24t202.5 -64t138.5 -93.5t82.5 -111t25.5 -117.5q0 -56 -16.5 -104.5t-43 -80t-58.5 -57t-63.5 -39.5t-58 -23.5t-42.5 -12.5l-17 -3l-2 -20q11 -4 28.5 -11.5t62 -35.5t79 -62t62.5 -92.5t28 -124.5q0 -86 -41.5 -164t-122 -140t-212.5 -99
t-299 -37zM983 911q66 0 99.5 26t33.5 67q0 92 -153 92q-66 0 -100 -25.5t-34 -66.5q0 -42 37 -67.5t117 -25.5zM870 338q82 0 128 38t46 95q0 58 -49.5 95.5t-144.5 37.5q-82 0 -128 -38t-46 -95q0 -58 49.5 -95.5t144.5 -37.5z" />
    <glyph glyph-name="nine.tab" 
d="M1282 348l-346 -348h-565l409 410l115 61l2 21q-58 -31 -160 -31q-227 0 -364 127.5t-137 324.5q0 111 49 212.5t137 179t220.5 124t289.5 46.5q169 0 303 -41.5t218.5 -113.5t128.5 -166.5t44 -203.5q0 -138 -75 -272.5t-269 -329.5zM922 1075q-73 0 -118.5 -37
t-45.5 -86q0 -50 48.5 -86.5t135.5 -36.5q73 0 118.5 37t45.5 86q0 50 -48.5 86.5t-135.5 36.5z" />
    <glyph glyph-name="Imacron.alt" horiz-adv-x="1265" 
d="M324 1434h1126l-68 -390h-307l-114 -655h307l-70 -389h-1126l69 389h308l114 655h-307zM522 1618l43 246h738l-43 -246h-738z" />
    <glyph glyph-name="Idotaccent.alt" horiz-adv-x="1265" 
d="M324 1434h1126l-68 -390h-307l-114 -655h307l-70 -389h-1126l69 389h308l114 655h-307zM909 1516q-119 0 -182 53t-63 141q0 101 71 168.5t185 67.5q119 0 182 -53.5t63 -141.5q0 -101 -71 -168t-185 -67z" />
    <glyph glyph-name="Idieresis.alt" horiz-adv-x="1265" 
d="M324 1434h1126l-68 -390h-307l-114 -655h307l-70 -389h-1126l69 389h308l114 655h-307zM655 1556q-84 0 -134 49t-50 126q0 92 61.5 153.5t153.5 61.5q84 0 134 -48.5t50 -125.5q0 -92 -61.5 -154t-153.5 -62zM1137 1556q-84 0 -134.5 49t-50.5 126q0 92 61.5 153.5
t153.5 61.5q84 0 134.5 -48.5t50.5 -125.5q0 -92 -61.5 -154t-153.5 -62z" />
    <glyph glyph-name="Icircumflex.alt" horiz-adv-x="1265" 
d="M324 1434h1126l-68 -390h-307l-114 -655h307l-70 -389h-1126l69 389h308l114 655h-307zM797 1925h307l172 -305l-2 -12h-277l-59 123h-41l-104 -123h-277l2 12z" />
    <glyph glyph-name="Iacute.alt" horiz-adv-x="1265" 
d="M324 1434h1126l-68 -390h-307l-114 -655h307l-70 -389h-1126l69 389h308l114 655h-307zM745 1608l199 317h430l-2 -10l-350 -307h-277z" />
    <glyph glyph-name="Igrave.alt" horiz-adv-x="1265" 
d="M324 1434h1126l-68 -390h-307l-114 -655h307l-70 -389h-1126l69 389h308l114 655h-307zM944 1925l88 -317h-276l-244 307l2 10h430z" />
    <glyph glyph-name="lcommaaccent.alt" horiz-adv-x="641" 
d="M92 0l252 1434h471l-252 -1434h-471zM465 -438q-25 -134 -125 -216.5t-234 -82.5q-22 0 -34 2l24 133q3 0 9 -1t8 -1q60 0 103.5 33t53.5 77l2 21q-18 -14 -51 -14q-65 0 -102 37t-37 98q0 87 60 148t149 61q81 0 131.5 -54.5t50.5 -158.5q0 -24 -8 -82z" />
    <glyph glyph-name="lcaron.alt" horiz-adv-x="1056" 
d="M92 0l252 1434h471l-252 -1434h-471zM883 870h-21l21 134h20q67 0 111 32.5t49 79.5l2 21q-18 -21 -59 -21q-62 0 -98 38t-36 106q0 85 60 144.5t145 59.5q87 0 136 -55t49 -160q0 -161 -109 -270t-270 -109z" />
    <glyph glyph-name="lacute.alt" horiz-adv-x="641" 
d="M92 0l252 1434h471l-252 -1434h-471zM469 1608l199 317h430l-2 -10l-351 -307h-276z" />
    <glyph glyph-name="atilde.alt" horiz-adv-x="1345" 
d="M881 471h-164q-52 0 -82.5 -26t-30.5 -66q0 -33 25.5 -52.5t77.5 -19.5q138 0 174 164zM461 -31q-157 0 -247.5 80.5t-90.5 206.5q0 164 110 266.5t299 102.5h373l10 53q9 50 -16.5 80t-79.5 30q-36 0 -64 -18t-38 -36l-10 -17h-482q2 8 6 22.5t22.5 56t44.5 79
t74.5 83.5t108 79.5t150.5 56t198 22.5q186 0 318.5 -59t195 -178t33.5 -283l-106 -596h-471l26 154h-20q-2 -4 -6.5 -10.5t-20.5 -26t-34 -37t-48.5 -38.5t-63 -36.5t-78 -26t-93.5 -10.5zM1049 1505q41 0 47 41l4 21h235l-24 -144q-15 -91 -74 -142.5t-145 -51.5
q-56 0 -148 35.5t-117 35.5q-41 0 -47 -40l-4 -21h-235l24 143q15 91 74 143t145 52q56 0 148 -36t117 -36z" />
    <glyph glyph-name="aring.alt" horiz-adv-x="1345" 
d="M881 471h-164q-52 0 -82.5 -26t-30.5 -66q0 -33 25.5 -52.5t77.5 -19.5q138 0 174 164zM461 -31q-157 0 -247.5 80.5t-90.5 206.5q0 164 110 266.5t299 102.5h373l10 53q9 50 -16.5 80t-79.5 30q-36 0 -64 -18t-38 -36l-10 -17h-482q2 8 6 22.5t22.5 56t44.5 79
t74.5 83.5t108 79.5t150.5 56t198 22.5q186 0 318.5 -59t195 -178t33.5 -283l-106 -596h-471l26 154h-20q-2 -4 -6.5 -10.5t-20.5 -26t-34 -37t-48.5 -38.5t-63 -36.5t-78 -26t-93.5 -10.5zM922 1188q-99 0 -167.5 66t-68.5 159q0 106 84.5 186t192.5 80q99 0 167 -66
t68 -159q0 -106 -84 -186t-192 -80zM932 1352q38 0 65 27t27 65q0 31 -20.5 51.5t-51.5 20.5q-38 0 -65 -27.5t-27 -65.5q0 -31 20.5 -51t51.5 -20z" />
    <glyph glyph-name="aogonek.alt" horiz-adv-x="1345" 
d="M983 -553q-146 0 -216.5 51t-70.5 133q0 47 20 92.5t51 80t72 67t78 54t74 39.5t55.5 25.5t26.5 10.5h-274l26 154h-20q-2 -4 -6.5 -10.5t-20.5 -26t-34 -37t-48.5 -38.5t-63 -36.5t-78 -26t-93.5 -10.5q-157 0 -247.5 80.5t-90.5 206.5q0 164 110 266.5t299 102.5h373
l10 53q9 50 -16.5 80t-79.5 30q-36 0 -64 -18t-38 -36l-10 -17h-482q2 8 6 22.5t22.5 56t44.5 79t74.5 83.5t108 79.5t150.5 56t198 22.5q186 0 318.5 -59t195 -178t33.5 -283l-106 -596q-12 -7 -32 -18.5t-71.5 -47t-90.5 -70t-71 -79.5t-32 -82q0 -61 82 -61q23 0 47 2.5
t36 5.5l13 2l-31 -184q-65 -21 -137 -21zM881 471h-164q-52 0 -82.5 -26t-30.5 -66q0 -33 25.5 -52.5t77.5 -19.5q138 0 174 164z" />
    <glyph glyph-name="amacron.alt" horiz-adv-x="1345" 
d="M881 471h-164q-52 0 -82.5 -26t-30.5 -66q0 -33 25.5 -52.5t77.5 -19.5q138 0 174 164zM461 -31q-157 0 -247.5 80.5t-90.5 206.5q0 164 110 266.5t299 102.5h373l10 53q9 50 -16.5 80t-79.5 30q-36 0 -64 -18t-38 -36l-10 -17h-482q2 8 6 22.5t22.5 56t44.5 79
t74.5 83.5t108 79.5t150.5 56t198 22.5q186 0 318.5 -59t195 -178t33.5 -283l-106 -596h-471l26 154h-20q-2 -4 -6.5 -10.5t-20.5 -26t-34 -37t-48.5 -38.5t-63 -36.5t-78 -26t-93.5 -10.5zM553 1280l43 246h737l-43 -246h-737z" />
    <glyph glyph-name="t.alt" horiz-adv-x="935" 
d="M154 768l55 317h123l41 226h471l-41 -226h246l-56 -317h-245l-62 -348q-7 -47 16 -75t68 -28h164l-55 -317h-308q-212 0 -301 112.5t-53 317.5l59 338h-122z" />
    <glyph glyph-name="f.alt" horiz-adv-x="897" 
d="M143 707l56 317h143l2 10q36 202 145 301t306 99h358l-57 -318h-185q-45 0 -66 -18t-30 -64l-2 -10h225l-55 -317h-225l-125 -707h-471l125 707h-144z" />
    <glyph glyph-name="ff.alt" horiz-adv-x="1654" 
d="M143 707l56 317h143l2 10q43 214 147.5 307t303.5 93h286l-57 -318h-113q-45 0 -66 -18t-30 -64l-2 -10h287l2 10q43 214 147 307t303 93h359l-58 -318h-184q-45 0 -66 -18t-30 -64l-2 -10h225l-55 -317h-225l-125 -707h-471l124 707h-286l-125 -707h-471l125 707h-144z
" />
    <glyph glyph-name="fi.alt" horiz-adv-x="1488" 
d="M143 707l56 317h143l2 10q43 214 147.5 307t303.5 93h624l-57 -318h-451q-45 0 -66 -18t-30 -64l-2 -10h758l-180 -1024h-471l124 707h-286l-125 -707h-471l125 707h-144z" />
    <glyph glyph-name="f_j.alt" horiz-adv-x="1480" 
d="M1044 707h-286l-125 -707h-471l125 707h-144l56 317h143l2 10q43 214 147.5 307t303.5 93h624l-57 -318h-451q-45 0 -66 -18t-30 -64l-2 -10h760l-174 -983q-77 -430 -506 -430h-246l55 317h103q46 0 80 28.5t41 74.5z" />
    <glyph glyph-name="fl.alt" horiz-adv-x="1480" 
d="M813 1024h195l-56 -317h-194l-125 -707h-471l125 707h-144l56 317h143l2 10q43 214 147.5 307t303.5 93h850l-254 -1434h-471l196 1116h-205q-45 0 -66 -18t-30 -64z" />
    <glyph glyph-name="f_t.alt" horiz-adv-x="1724" 
d="M143 707l56 317h143l2 10q43 214 147.5 307t303.5 93h850l-74 -410h246l-56 -317h-245l-52 -287q-8 -45 15.5 -74t68.5 -29h164l-55 -317h-307q-215 0 -303.5 110.5t-51.5 319.5l49 277h-286l-125 -707h-471l125 707h-144zM811 1014h287l20 112h-205q-47 0 -67 -21
t-29 -81z" />
    <glyph glyph-name="ampersand.alt" horiz-adv-x="1642" 
d="M1608 993h-502q-1 3 -3 8t-14.5 17t-30.5 21.5t-54 17.5t-82 8q-65 0 -99.5 -24t-34.5 -58t35 -58t103 -24l-58 -328h-49q-164 0 -164 -92q0 -49 41.5 -80.5t122.5 -31.5q63 0 114.5 21t80 51t48 60t26.5 51l6 21h-123l57 328h758l-57 -328h-134q-30 -89 -70 -167
t-110 -163t-156 -145.5t-213.5 -99.5t-277.5 -39q-148 0 -272.5 40t-204.5 106t-124 148t-44 167q0 69 19.5 127.5t50.5 97t69 69t76 47t69 27t51 14.5l19 3l4 20q-4 1 -11.5 4t-29 13.5t-40.5 23t-43 34t-41 45.5t-28.5 58t-11.5 72q0 71 41 140.5t116.5 128t198 95
t269.5 36.5q171 0 307 -39t220.5 -106.5t130 -153t49.5 -183.5z" />
    <glyph glyph-name="j.alt" horiz-adv-x="663" 
d="M291 1085h471l-184 -1044q-37 -208 -175.5 -319t-330.5 -111h-287l55 317h144q46 0 79.5 28.5t40.5 74.5zM561 1167q-119 0 -182.5 53.5t-63.5 141.5q0 101 71 168t185 67q119 0 182.5 -53t63.5 -141q0 -101 -71 -168.5t-185 -67.5z" />
    <glyph glyph-name="afii10051.alt" horiz-adv-x="1775" 
d="M1806 410q0 -183 -82.5 -327.5t-234.5 -226t-348 -81.5h-154l72 409h59q79 0 122.5 47t43.5 138q0 57 -33 90t-100 33h-160l-86 -492h-512l180 1024h-409l72 410h1331l-72 -410h-410l-22 -123h190q273 0 413 -128.5t140 -362.5z" />
    <glyph glyph-name="afii10055.alt" horiz-adv-x="1265" 
d="M324 1434h1126l-68 -390h-307l-114 -655h307l-70 -389h-1126l69 389h308l114 655h-307z" />
    <glyph glyph-name="afii10056.alt" horiz-adv-x="1265" 
d="M324 1434h1126l-68 -390h-307l-114 -655h307l-70 -389h-1126l69 389h308l114 655h-307zM655 1516q-84 0 -134 48.5t-50 125.5q0 92 61.5 153.5t153.5 61.5q84 0 134 -48.5t50 -125.5q0 -92 -61.5 -153.5t-153.5 -61.5zM1137 1516q-84 0 -134.5 48.5t-50.5 125.5
q0 92 61.5 153.5t153.5 61.5q84 0 134.5 -48.5t50.5 -125.5q0 -92 -61.5 -153.5t-153.5 -61.5z" />
    <glyph glyph-name="afii10058.alt" horiz-adv-x="2463" 
d="M10 10l78 441q39 -11 90 -11q119 0 178 64t90 244l121 686h1270l-76 -430h203q127 0 232 -36t174.5 -99t107 -146t37.5 -178q0 -243 -174 -394t-461 -151h-807l172 983h-244l-47 -266q-29 -166 -75.5 -290t-109.5 -209.5t-147.5 -138t-185 -76t-227.5 -23.5
q-55 0 -104.5 7.5t-72.5 14.5zM1655 399h205q58 0 95.5 31t37.5 86q0 88 -111 88h-190l-15 -80z" />
    <glyph glyph-name="afii10061.alt" horiz-adv-x="1587" 
d="M1071 1024l16 92q31 171 136.5 254.5t302.5 83.5h246l-66 -369h-61q-23 0 -39 -14t-21 -37l-14 -82q-6 -36 -21 -65.5t-34 -49t-40.5 -34.5t-41.5 -23.5t-36 -13.5t-26 -6l-10 -2l-4 -21q7 -1 18 -3t39 -13t50 -27.5t39.5 -48t17.5 -72.5q0 -13 -4 -41l-25 -133
q-2 -4 -2 -12q0 -17 12.5 -28t32.5 -11h61l-65 -368h-246q-168 0 -248 60.5t-80 186.5q0 33 11 101l18 102q0 3 1 8.5t1 7.5q0 26 -16 41t-45 15h-205l-88 -502h-512l252 1434h512l-84 -482h184q34 0 56 19t28 53zM922 1577l198 317h430l-2 -10l-350 -307h-276z" />
    <glyph glyph-name="afii10099.alt" horiz-adv-x="1425" 
d="M1423 410l-63 -369q-37 -208 -176.5 -319t-331.5 -111h-215l57 317h72q46 0 80 28.5t41 74.5l53 307q27 154 -100 154q-57 0 -101 -41.5t-57 -120.5l-57 -330h-471l170 973h-142l56 317h143l25 144h471l-25 -144h256l-55 -317h-258l-47 -266h20q5 7 14.5 19t41 42
t66 52.5t87.5 41.5t108 19q90 0 160.5 -29t118 -87.5t63 -147t-3.5 -207.5z" />
    <glyph glyph-name="afii10105.alt" horiz-adv-x="663" 
d="M291 1085h471l-184 -1044q-37 -208 -175.5 -319t-330.5 -111h-287l55 317h144q46 0 79.5 28.5t40.5 74.5zM561 1167q-119 0 -182.5 53.5t-63.5 141.5q0 101 71 168t185 67q119 0 182.5 -53t63.5 -141q0 -101 -71 -168.5t-185 -67.5z" />
    <glyph glyph-name="afii10106.alt" horiz-adv-x="1935" 
d="M776 717l-39 -246q-43 -255 -167.5 -373t-329.5 -118q-68 0 -123 7.5t-76 14.5l-21 8l70 389q29 -10 70 -10q56 0 84 30.5t43 112.5l98 553h1085l-55 -307h123q192 0 310 -103t118 -249q0 -185 -129.5 -305.5t-341.5 -120.5h-688l123 717h-154zM1319 287h53
q123 0 123 112q0 39 -28 66t-72 27h-41z" />
    <glyph glyph-name="afii10109.alt" horiz-adv-x="1341" 
d="M758 348h-133l-62 -348h-471l191 1085h471l-62 -348h113q62 0 74 62l14 82q18 102 97.5 163.5t207.5 61.5h277l-54 -307h-41q-43 0 -49 -41l-4 -31q-6 -40 -26 -71.5t-44.5 -48t-48 -27.5t-39.5 -14l-16 -3l-2 -20q6 -1 15 -3t33 -11t42.5 -22t33.5 -38t15 -57
q0 -9 -4 -33l-10 -51q0 -2 -1 -5.5t-1 -5.5q0 -30 37 -30h41l-56 -307h-276q-113 0 -171 48t-58 132q0 13 4 45l14 82q0 3 1 8.5t1 7.5q0 45 -53 45zM731 1219l199 317h430l-2 -10l-350 -307h-277z" />
    <glyph glyph-name="T_H_E" horiz-adv-x="2631" 
d="M543 1024h-369l72 410h1208l-72 -410h-327l-23 -133h492l94 543h1178l-72 -410h-666l-22 -133h522l-61 -348h-523l-24 -133h665l-71 -410h-1178l96 543h-491l-97 -543h-512z" />
    <glyph glyph-name="T_T" horiz-adv-x="1814" 
d="M1016 553l-96 -553h-512l176 1004h-410l76 430h1331l-76 -430h-409l-19 -103h850l-61 -348h-236l-96 -553h-410l97 553h-205z" />
    <glyph glyph-name="U_U" horiz-adv-x="1839" 
d="M1401 1147l-84 -475q-22 -121 -97 -186.5t-194 -65.5q-158 0 -228 81.5t-46 219.5l75 426h246l-76 -426q-5 -24 5.5 -39.5t31.5 -15.5q37 0 45 47l76 434h246zM1014 -41q-415 0 -630.5 212t-154.5 560l125 703h471l-131 -740q-25 -146 65 -235.5t267 -89.5q137 0 226 73
t110 195l139 797h471l-147 -844q-50 -292 -263.5 -461.5t-547.5 -169.5z" />
    <glyph glyph-name="adieresis.alt" horiz-adv-x="1345" 
d="M881 471h-164q-52 0 -82.5 -26t-30.5 -66q0 -33 25.5 -52.5t77.5 -19.5q138 0 174 164zM461 -31q-157 0 -247.5 80.5t-90.5 206.5q0 164 110 266.5t299 102.5h373l10 53q9 50 -16.5 80t-79.5 30q-36 0 -64 -18t-38 -36l-10 -17h-482q2 8 6 22.5t22.5 56t44.5 79
t74.5 83.5t108 79.5t150.5 56t198 22.5q186 0 318.5 -59t195 -178t33.5 -283l-106 -596h-471l26 154h-20q-2 -4 -6.5 -10.5t-20.5 -26t-34 -37t-48.5 -38.5t-63 -36.5t-78 -26t-93.5 -10.5zM676 1229q-84 0 -134 48.5t-50 125.5q0 92 61.5 153.5t153.5 61.5q84 0 134 -48.5
t50 -125.5q0 -92 -61.5 -153.5t-153.5 -61.5zM1157 1229q-84 0 -134 48.5t-50 125.5q0 92 61.5 153.5t153.5 61.5q84 0 134 -48.5t50 -125.5q0 -92 -61.5 -153.5t-153.5 -61.5z" />
    <glyph glyph-name="L_F" horiz-adv-x="1531" 
d="M1214 553h-368l153 881h748l-51 -297h-379l-12 -72h317l-49 -277h-318zM715 451h645l-80 -451h-1157l252 1434h512z" />
    <glyph glyph-name="C_E" horiz-adv-x="1732" 
d="M1815 860h-420q-1 5 -3 14.5t-13 36t-25 50.5t-41.5 53.5t-61.5 51t-85.5 36t-112.5 14.5q-117 0 -218 -58t-162 -160t-61 -222q0 -159 108 -259t271 -100q78 0 145 26t107.5 63t69 74t39.5 63l12 26h420q-3 -13 -10.5 -35t-37.5 -85t-68 -121t-105.5 -128t-146.5 -121
t-195 -85.5t-248 -34.5q-177 0 -324 52.5t-246 145.5t-153.5 221t-54.5 277q0 167 66 318t179 261.5t273.5 175.5t341.5 65q319 0 515 -168t245 -447zM1233 604l-31 -174h-463l103 574h463l-31 -175h-258l-8 -41h215l-25 -143h-215l-8 -41h258z" />
    <glyph glyph-name="C_O" horiz-adv-x="1732" 
d="M991 399q-137 0 -217 78t-80 209q0 146 101 247t247 101q129 0 210 -81t81 -205q0 -150 -101 -249.5t-241 -99.5zM1815 860h-420q-1 5 -3 14.5t-13 36t-25 50.5t-41.5 53.5t-61.5 51t-85.5 36t-112.5 14.5q-117 0 -218 -58t-162 -160t-61 -222q0 -159 108 -259t271 -100
q78 0 145 26t107.5 63t69 74t39.5 63l12 26h420q-3 -13 -10.5 -35t-37.5 -85t-68 -121t-105.5 -128t-146.5 -121t-195 -85.5t-248 -34.5q-177 0 -324 52.5t-246 145.5t-153.5 221t-54.5 277q0 167 66 318t179 261.5t273.5 175.5t341.5 65q319 0 515 -168t245 -447zM1012 614
q39 0 70.5 34t31.5 79q0 38 -27 65t-65 27q-39 0 -70.5 -33.5t-31.5 -78.5q0 -38 27 -65.5t65 -27.5z" />
    <glyph glyph-name="E_A" horiz-adv-x="2641" 
d="M2191 0l-24 266h-441l-118 -266h-1485l252 1434h1136l-71 -410h-625l-22 -133h727l237 543h799l137 -1434h-502zM707 410h589l60 133h-625zM2040 1004l-168 -379h276l-26 379h-82z" />
    <glyph glyph-name="S_A" horiz-adv-x="2838" 
d="M748 328q59 0 90.5 26t31.5 66q0 41 -27 75.5t-70.5 60.5t-95.5 52.5t-104.5 60.5t-96 75.5t-70.5 105.5t-27 143q0 97 42 183.5t118.5 153.5t194 106t259.5 39q106 0 196.5 -18t154.5 -47t116 -70.5t84.5 -83.5t56.5 -91.5t36 -89.5t18 -82h-500q0 7 -1.5 17t-9.5 28
t-20.5 32t-38.5 25t-61 11q-52 0 -77 -19.5t-25 -52.5q0 -22 27 -43.5t70.5 -42t95.5 -45.5t104.5 -61.5t96 -82t70.5 -115t27 -152.5q0 -108 -45 -204.5t-128 -169.5t-210 -116t-280 -43q-157 0 -282 39.5t-208 110.5t-133 164.5t-66 207.5h502q0 -4 3 -17t15 -37.5
t30.5 -45.5t54.5 -37t82 -16zM2378 0l-25 266h-440l-119 -266h-512l651 1434h809l137 -1434h-501zM2226 1004l-168 -379h277l-27 379h-82z" />
    <glyph glyph-name="L_O" horiz-adv-x="1753" 
d="M715 451h645l-80 -451h-1157l252 1434h512zM1382 870q56 0 100 48.5t44 117.5q0 51 -30.5 86t-70.5 35q-57 0 -100 -48.5t-43 -117.5q0 -51 30.5 -86t69.5 -35zM1374 553q-206 0 -334.5 120.5t-128.5 301.5q0 135 70.5 250t191 182.5t261.5 67.5q206 0 334 -120t128 -302
q0 -135 -70 -250t-190.5 -182.5t-261.5 -67.5z" />
    <glyph glyph-name="L_A" horiz-adv-x="2181" 
d="M1731 0l-43 451h-328l-80 -451h-1157l252 1434h512l-172 -983h133l448 983h799l137 -1434h-501zM1575 1034l-94 -246h207v246h-113z" />
    <glyph glyph-name="L_L" horiz-adv-x="1501" 
d="M999 1434h390l-93 -533h328l-61 -348h-717zM715 451h645l-80 -451h-1157l252 1434h512z" />
    <glyph glyph-name="K_O" horiz-adv-x="2693" 
d="M1044 0l-198 502h-123l-88 -502h-512l252 1434h512l-82 -471h102l348 471h574l-526 -666l315 -768h-574zM2130 573q73 0 123.5 54.5t50.5 150.5q0 69 -37 106.5t-106 37.5q-73 0 -123.5 -54.5t-50.5 -150.5q0 -69 37 -106.5t106 -37.5zM2109 174q-135 0 -247.5 41
t-187.5 112t-116.5 166t-41.5 203q0 125 51 240t138.5 199.5t212 135t263.5 50.5q135 0 248 -41t188 -112t116.5 -166t41.5 -203q0 -125 -51.5 -240t-139 -199.5t-212 -135t-263.5 -50.5z" />
    <glyph glyph-name="A_V" horiz-adv-x="2269" 
d="M1085 0l-24 266h-440l-119 -266h-512l651 1434h819l80 -1004h82l391 1004h512l-610 -1434h-830zM934 1004l-168 -379h276l-26 379h-82z" />
    <glyph glyph-name="W_E" horiz-adv-x="2744" 
d="M1042 1434h564v-820h20l258 820h1024l-72 -410h-614l-51 -133h498l-62 -348h-567l-49 -133h737l-72 -410h-1439v778h-21l-270 -778h-670v1434h479v-820h21z" />
    <glyph glyph-name="L_I" horiz-adv-x="1398" 
d="M715 451h645l-80 -451h-1157l252 1434h512zM1532 1434l-150 -850h-512l150 850h512z" />
    <glyph glyph-name="R_J" horiz-adv-x="2256" 
d="M2380 1434l-164 -936q-43 -250 -219 -394.5t-445 -144.5q-130 0 -237.5 33.5t-180.5 93t-119.5 136t-66.5 167.5h-243l-70 -389h-512l252 1434h760q120 0 222.5 -38t172 -103t108.5 -153.5t39 -187.5q0 -71 -15 -135.5t-39.5 -110t-54 -83.5t-59 -62t-54 -41t-39.5 -24
l-15 -7q0 -4 1.5 -11t11 -24t24 -30t45 -24t69.5 -11q132 0 156 143l160 902h512zM772 778h240q62 0 102.5 41.5t40.5 104.5q0 45 -30.5 72.5t-84.5 27.5h-225z" />
    <glyph glyph-name="P_H" horiz-adv-x="2541" 
d="M989 0l64 346q-79 -18 -166 -18h-195l-57 -328h-512l252 1434h745q158 0 283.5 -67t194 -178.5t71.5 -246.5h408l86 492h512l-252 -1434h-512l86 492h-410l-86 -492h-512zM764 737h223q69 0 116.5 47.5t47.5 116.5q0 55 -36 89t-97 34h-203z" />
    <glyph glyph-name="K_K" horiz-adv-x="2228" 
d="M1024 0l-199 502h-102l-88 -502h-512l252 1434h512l-82 -471h82l348 471h573l-526 -666l315 -768h-573zM1731 0l-326 768l526 666h553l-526 -666l315 -768h-542z" />
    <glyph glyph-name="A_T" horiz-adv-x="2054" 
d="M2085 1024h-143l106 -1024h-502l-24 266h-215l-47 -266h-441l47 266h-215l-119 -266h-501l467 1024h-154l72 410h1741zM973 1044l-191 -440h154l78 440h-41zM1509 604l-34 440h-41l-78 -440h153z" />
    <glyph glyph-name="O_O" horiz-adv-x="2672" 
d="M1956 1475q177 0 324 -53t246 -146t153.5 -221t54.5 -277q0 -167 -66 -318t-179 -261t-273.5 -175t-341.5 -65q-80 0 -157 13.5t-130 33t-94 39.5t-61 33l-19 14h-20q-6 -5 -18.5 -14t-56 -32t-93.5 -40.5t-132 -32t-171 -14.5q-216 0 -385 90.5t-261 249t-92 356.5
q0 167 66 318t179 261.5t273.5 175.5t341.5 65q86 0 166 -14t133.5 -33.5t94 -39t59.5 -33.5l19 -14h20q7 5 20 14.5t56.5 32.5t89.5 40.5t115.5 32t138.5 14.5zM973 389q135 0 226 103.5t91 275.5q0 129 -69.5 202.5t-186.5 73.5q-135 0 -226 -103t-91 -275
q0 -129 69.5 -203t186.5 -74zM1946 1044q-40 0 -78.5 -10t-57.5 -20l-18 -10q31 -103 31 -226q0 -100 -20.5 -189.5t-40.5 -128.5l-21 -40q51 -31 143 -31q135 0 226.5 103.5t91.5 275.5q0 129 -69.5 202.5t-186.5 73.5z" />
    <glyph glyph-name="O_C" horiz-adv-x="2631" 
d="M922 -41q-216 0 -385 90.5t-261 249t-92 356.5q0 167 66 318t179 261.5t273.5 175.5t341.5 65q86 0 166 -14t133.5 -33.5t94 -39t59.5 -33.5l19 -14h20q7 5 20 14.5t56.5 32.5t89.5 40.5t115.5 32t138.5 14.5q165 0 299 -45.5t226 -128.5t150.5 -193.5t82.5 -247.5h-502
q-2 7 -6 19.5t-23 44.5t-45.5 56t-77.5 44t-114 20q-40 0 -78.5 -10t-57.5 -20l-18 -10q31 -103 31 -226q0 -100 -20.5 -189.5t-40.5 -128.5l-21 -40q51 -31 143 -31q56 0 106.5 19t82 46t55 54t33.5 46l10 19h512q-3 -13 -10 -35t-36 -86t-66 -122t-104 -128.5t-146 -121.5
t-196 -86t-251 -35q-80 0 -157 13.5t-130 33t-94 39.5t-61 33l-19 14h-20q-6 -5 -18.5 -14t-56 -32t-93.5 -40.5t-132 -32t-171 -14.5zM973 389q135 0 226 103.5t91 275.5q0 129 -69.5 202.5t-186.5 73.5q-135 0 -226 -103t-91 -275q0 -129 69.5 -203t186.5 -74z" />
    <glyph glyph-name="O_G" horiz-adv-x="2764" 
d="M1884 389q60 0 112.5 12.5t84.5 30.5t55.5 36.5t33.5 31.5l9 12h-164l53 297h820l-54 -297h-153q-4 -12 -13 -31.5t-43 -77t-74.5 -110t-109.5 -116t-147 -109.5t-188.5 -77.5t-231.5 -31.5q-80 0 -157 13.5t-130 33t-94 39.5t-61 33l-19 14h-20q-6 -5 -18.5 -14t-56 -32
t-93.5 -40.5t-132 -32t-171 -14.5q-216 0 -385 90.5t-261 249t-92 356.5q0 167 66 318t179 261.5t273.5 175.5t341.5 65q86 0 166 -14t133.5 -33.5t94 -39t59.5 -33.5l19 -14h20q7 5 20 14.5t56.5 32.5t89.5 40.5t115.5 32t138.5 14.5q132 0 244 -30t186 -78t133.5 -106
t92 -116.5t54 -106.5t28.5 -78l7 -30h-516q-2 5 -7 12.5t-24.5 27t-44 34.5t-68 27.5t-95.5 12.5q-40 0 -78.5 -10t-57.5 -20l-18 -10q31 -103 31 -226q0 -100 -20.5 -189.5t-40.5 -128.5l-21 -40q51 -31 143 -31zM973 389q135 0 226 103.5t91 275.5q0 129 -69.5 202.5
t-186.5 73.5q-135 0 -226 -103t-91 -275q0 -129 69.5 -203t186.5 -74z" />
    <glyph glyph-name="T_A" horiz-adv-x="1902" 
d="M584 1004h-410l76 430h1556l138 -1434h-512l-25 266h-440l-47 -266h-512zM1096 1004l-68 -379h358l-24 379h-266z" />
    <glyph glyph-name="O_L_I" horiz-adv-x="3090" 
d="M973 389q135 0 226 103.5t91 275.5q0 129 -69.5 202.5t-186.5 73.5q-135 0 -226 -103t-91 -275q0 -129 69.5 -203t186.5 -74zM963 -41q-177 0 -324 52.5t-246.5 145.5t-154 221t-54.5 277q0 167 66 318t179 261.5t273.5 175.5t341.5 65q177 0 324 -53t246.5 -146
t154 -221t54.5 -277q0 -167 -66 -318t-179 -261t-273.5 -175t-341.5 -65zM2406 451h646l-80 -451h-1157l251 1434h512zM3224 1434l-150 -850h-512l150 850h512z" />
    <glyph glyph-name="N_A" horiz-adv-x="2560" 
d="M1221 758h24v205l82 471h1147l137 -1434h-512l-24 266h-441l-47 -266h-553l-291 676h-24v-195l-84 -481h-512l252 1434h553zM1763 1004l-65 -379h358l-26 379h-267z" />
    <glyph glyph-name="D_E" horiz-adv-x="2299" 
d="M2212 0h-2089l252 1434h2089l-72 -410h-747l-3 -10q5 -5 13.5 -14t25.5 -41t23 -68h522l-61 -348h-523q-20 -41 -46 -71.5t-42 -41.5l-16 -10l-2 -10h748zM707 410h92q154 0 261 107t107 261q0 107 -69 176.5t-176 69.5h-107z" />
    <glyph glyph-name="J_A" horiz-adv-x="2201" 
d="M1726 266h-479q-84 -147 -233.5 -227t-347.5 -80q-255 0 -409.5 120.5t-195.5 309.5l455 88q2 -4 5 -9.5t15.5 -21t28 -27t42.5 -21t59 -9.5q131 0 155 143l160 902h1137l135 -1434h-502zM1417 1004l-67 -379h358l-25 379h-266z" />
    <glyph glyph-name="A_R" horiz-adv-x="2476" 
d="M2251 471l176 -471h-512l-135 389h-185l-69 -389h-512l67 389h-407l-172 -389h-512l651 1434h1384q241 0 392 -139t151 -343q0 -77 -17.5 -145.5t-45.5 -116t-61.5 -86.5t-67.5 -63t-62 -40.5t-46 -22.5zM1663 778h240q62 0 102.5 41.5t40.5 104.5q0 45 -30.5 72.5
t-84.5 27.5h-225zM934 1004l-100 -226h317l39 226h-256z" />
    <glyph glyph-name="A_A" horiz-adv-x="2611" 
d="M1716 1434h789l137 -1434h-502l-24 266h-441l-119 -266h-471l-24 266h-440l-119 -266h-512l651 1434h825v-492l-16 -205h20l58 205zM934 1004l-168 -379h276l-26 379h-82zM1989 1004l-168 -379h276l-26 379h-82z" />
    <glyph glyph-name="acircumflex.alt" horiz-adv-x="1345" 
d="M881 471h-164q-52 0 -82.5 -26t-30.5 -66q0 -33 25.5 -52.5t77.5 -19.5q138 0 174 164zM461 -31q-157 0 -247.5 80.5t-90.5 206.5q0 164 110 266.5t299 102.5h373l10 53q9 50 -16.5 80t-79.5 30q-36 0 -64 -18t-38 -36l-10 -17h-482q2 8 6 22.5t22.5 56t44.5 79
t74.5 83.5t108 79.5t150.5 56t198 22.5q186 0 318.5 -59t195 -178t33.5 -283l-106 -596h-471l26 154h-20q-2 -4 -6.5 -10.5t-20.5 -26t-34 -37t-48.5 -38.5t-63 -36.5t-78 -26t-93.5 -10.5zM803 1597h307l172 -305l-2 -12h-276l-60 123h-41l-104 -123h-277l2 12z" />
    <glyph glyph-name="florin.alt" horiz-adv-x="1069" 
d="M387 707h-119l27 317h164l10 41q46 196 154.5 282.5t308.5 86.5h332l-29 -318h-203q-46 0 -68 -19.5t-34 -72.5h205l-27 -317h-250l-160 -707q-45 -190 -184 -289.5t-336 -99.5h-239l26 317h141q45 0 80 28.5t47 74.5z" />
    <glyph glyph-name="abreve.alt" horiz-adv-x="1345" 
d="M881 471h-164q-52 0 -82.5 -26t-30.5 -66q0 -33 25.5 -52.5t77.5 -19.5q138 0 174 164zM461 -31q-157 0 -247.5 80.5t-90.5 206.5q0 164 110 266.5t299 102.5h373l10 53q9 50 -16.5 80t-79.5 30q-36 0 -64 -18t-38 -36l-10 -17h-482q2 8 6 22.5t22.5 56t44.5 79
t74.5 83.5t108 79.5t150.5 56t198 22.5q186 0 318.5 -59t195 -178t33.5 -283l-106 -596h-471l26 154h-20q-2 -4 -6.5 -10.5t-20.5 -26t-34 -37t-48.5 -38.5t-63 -36.5t-78 -26t-93.5 -10.5zM596 1577h233q0 -34 26 -58t77 -24q50 0 76 24t26 58h236q-15 -139 -109 -223
t-239 -84q-158 0 -243 75t-85 201z" />
    <glyph glyph-name="aacute.alt" horiz-adv-x="1345" 
d="M881 471h-164q-52 0 -82.5 -26t-30.5 -66q0 -33 25.5 -52.5t77.5 -19.5q138 0 174 164zM461 -31q-157 0 -247.5 80.5t-90.5 206.5q0 164 110 266.5t299 102.5h373l10 53q9 50 -16.5 80t-79.5 30q-36 0 -64 -18t-38 -36l-10 -17h-482q2 8 6 22.5t22.5 56t44.5 79
t74.5 83.5t108 79.5t150.5 56t198 22.5q186 0 318.5 -59t195 -178t33.5 -283l-106 -596h-471l26 154h-20q-2 -4 -6.5 -10.5t-20.5 -26t-34 -37t-48.5 -38.5t-63 -36.5t-78 -26t-93.5 -10.5zM758 1280l198 317h430l-2 -10l-350 -307h-276z" />
    <glyph glyph-name="agrave.alt" horiz-adv-x="1345" 
d="M881 471h-164q-52 0 -82.5 -26t-30.5 -66q0 -33 25.5 -52.5t77.5 -19.5q138 0 174 164zM461 -31q-157 0 -247.5 80.5t-90.5 206.5q0 164 110 266.5t299 102.5h373l10 53q9 50 -16.5 80t-79.5 30q-36 0 -64 -18t-38 -36l-10 -17h-482q2 8 6 22.5t22.5 56t44.5 79
t74.5 83.5t108 79.5t150.5 56t198 22.5q186 0 318.5 -59t195 -178t33.5 -283l-106 -596h-471l26 154h-20q-2 -4 -6.5 -10.5t-20.5 -26t-34 -37t-48.5 -38.5t-63 -36.5t-78 -26t-93.5 -10.5zM954 1597l88 -317h-276l-244 307l2 10h430z" />
    <glyph glyph-name="afii10110.alt" horiz-adv-x="1314" 
d="M1479 1085l-457 -1085q-86 -202 -215 -295.5t-346 -93.5h-369l55 317h277q56 0 91.5 24.5t62.5 88.5l34 82h-348l-76 962h500v-645h41l268 645h482zM532 1485h234q0 -34 26 -58t76 -24q51 0 77 24t26 58h235q-15 -139 -109 -223t-239 -84q-158 0 -243 75t-85 201z" />
    <glyph glyph-name="lslash.alt" horiz-adv-x="876" 
d="M92 440l55 318l189 73l106 603h471l-71 -400l209 82l-56 -317l-209 -82l-127 -717h-471l91 514z" />
    </font>
</defs>
</svg>
