<?xml version="1.0" standalone="no"?>
<!DOCTYPE svg PUBLIC "-//W3C//DTD SVG 1.1//EN" "http://www.w3.org/Graphics/SVG/1.1/DTD/svg11.dtd" >
<svg xmlns="http://www.w3.org/2000/svg" xmlns:xlink="http://www.w3.org/1999/xlink" version="1.1">
<metadata>
Created by FontForge 20170731 at Mon Aug  3 21:24:36 2020
 By Aleksey,,,
Copyright (c) 2018 by Typetype. Designer Ivan Gladkikh, technical designers Philipp Nurullin, Vika Usmanova, Nadyr Rakhimov, Marina Khodak. All rights reserved.
</metadata>
<defs>
<font id="TTFirsNeue-BoldItalic" horiz-adv-x="1320" >
  <font-face 
    font-family="TT Firs Neue"
    font-weight="700"
    font-style="italic"
    font-stretch="normal"
    units-per-em="2048"
    panose-1="2 0 8 3 4 0 0 9 0 4"
    ascent="1638"
    descent="-410"
    x-height="1065"
    cap-height="1434"
    bbox="-666 -696 3158 2122"
    underline-thickness="102"
    underline-position="-409"
    slope="-10"
    unicode-range="U+000D-FB02"
  />
<missing-glyph horiz-adv-x="0" 
 />
    <glyph glyph-name="ff" unicode="ff" horiz-adv-x="1501" 
d="M643 748l-131 -748h-348l131 748h-133l49 276h133l72 410h594l-49 -277h-246l-23 -133h348l72 410h635l-49 -277h-287l-22 -133h235l-49 -276h-236l-131 -748h-348l131 748h-348z" />
    <glyph glyph-name="fi" unicode="fi" horiz-adv-x="1310" 
d="M162 748l49 276h133l72 410h860l-49 -277h-512l-23 -133h697l-181 -1024h-348l131 748h-348l-131 -748h-348l131 748h-133z" />
    <glyph glyph-name="fl" unicode="fl" horiz-adv-x="1464" 
d="M860 0l203 1157h-348l-23 -133h236l-49 -276h-236l-131 -748h-348l131 748h-133l49 276h133l72 410h1044l-207 -1178h236l-45 -256h-584z" />
    <glyph glyph-name="f_t" unicode="ft" horiz-adv-x="1556" 
d="M162 748l49 276h133l72 410h1044l-71 -410h276l-49 -276h-277l-86 -492h297l-45 -256h-645l131 748h-348l-131 -748h-348l131 748h-133zM692 1024h348l23 133h-348z" />
    <glyph glyph-name="f_j" unicode="fj" horiz-adv-x="1310" 
d="M1389 1024l-250 -1413h-625l45 256h277l155 881h-348l-131 -748h-348l131 748h-133l49 276h133l72 410h860l-49 -277h-512l-23 -133h697z" />
    <glyph glyph-name=".notdef" horiz-adv-x="0" 
 />
    <glyph glyph-name=".null" horiz-adv-x="0" 
 />
    <glyph glyph-name=".null" horiz-adv-x="0" 
 />
    <glyph glyph-name="nonmarkingreturn" horiz-adv-x="682" 
 />
    <glyph glyph-name="CR" unicode="&#xd;" horiz-adv-x="0" 
 />
    <glyph glyph-name="space" unicode=" " horiz-adv-x="573" 
 />
    <glyph glyph-name="exclam" unicode="!" horiz-adv-x="634" 
d="M731 1434l-110 -635l-119 -328h-226l-4 328l111 635h348zM319 -31q-74 0 -120.5 48t-46.5 118q0 83 59 143t139 60q74 0 122 -48t48 -118q0 -83 -60.5 -143t-140.5 -60z" />
    <glyph glyph-name="quotedbl" unicode="&#x22;" horiz-adv-x="983" 
d="M657 1434l-53 -308l-76 -194h-235l-6 194l53 308h317zM1098 1434l-54 -308l-75 -194h-236l-6 194l53 308h318z" />
    <glyph glyph-name="numbersign" unicode="#" horiz-adv-x="1474" 
d="M369 1106h256l149 328h307l-149 -328h215l149 328h308l-150 -328h164l-47 -266h-236l-114 -246h184l-47 -266h-256l-150 -328h-307l150 328h-215l-150 -328h-307l149 328h-163l47 266h235l115 246h-184zM1028 840h-215l-115 -246h215z" />
    <glyph glyph-name="dollar" unicode="$" horiz-adv-x="1413" 
d="M829 287q81 0 135 32t54 89q0 39 -41 71.5t-106 57t-143.5 50.5t-157.5 61t-144 79t-106 114t-41 158q0 87 36.5 168t102.5 146t166.5 108t220.5 52l35 186h348l-39 -227q281 -103 336 -408h-385q-1 5 -4 13.5t-19.5 29.5t-41 37t-73.5 29.5t-112 13.5q-86 0 -127 -28.5
t-41 -71.5q0 -40 41 -72.5t106 -57.5t144 -51.5t158.5 -61.5t144.5 -79.5t106 -114.5t41 -157q0 -91 -36 -174.5t-102 -151t-168.5 -112t-227.5 -54.5l-33 -186h-348l41 223q-176 55 -275 178t-131 285h385l2.5 -10t10.5 -24t21.5 -34.5t36.5 -36.5t54 -34.5t76 -24.5
t100 -10z" />
    <glyph glyph-name="percent" unicode="%" horiz-adv-x="1699" 
d="M623 983q55 0 93 38.5t38 96.5q0 48 -32.5 78.5t-84.5 30.5q-55 0 -93 -38.5t-38 -96.5q0 -48 32.5 -78.5t84.5 -30.5zM604 756q-147 0 -240.5 91.5t-93.5 227.5q0 158 114 268.5t271 110.5q147 0 240.5 -91.5t93.5 -227.5q0 -158 -114 -268.5t-271 -110.5zM1669 1434
l-1112 -1434h-266l1112 1434h266zM1337 451q-55 0 -93 -39t-38 -97q0 -48 32.5 -78t84.5 -30q55 0 93 38.5t38 96.5q0 48 -32.5 78.5t-84.5 30.5zM1356 678q147 0 240.5 -92t93.5 -228q0 -158 -114 -268t-271 -110q-147 0 -240.5 91.5t-93.5 227.5q0 158 114 268.5
t271 110.5z" />
    <glyph glyph-name="ampersand" unicode="&#x26;" horiz-adv-x="1556" 
d="M694 264q94 0 157.5 65t63.5 169q0 79 -51.5 127.5t-140.5 48.5q-94 0 -157.5 -65t-63.5 -169q0 -79 51.5 -127.5t140.5 -48.5zM1149 266h-21q-8 -48 -47 -101t-99.5 -99t-146.5 -76.5t-176 -30.5q-120 0 -220 37.5t-166.5 101t-103 147.5t-36.5 177q0 145 76.5 267.5
t208.5 193.5t289 71l96 -2l2 21l-96 41l-60 123l51 297h1004l-53 -308h-574l-4 -20l543 -1106h-420l-78 143z" />
    <glyph glyph-name="quotesingle" unicode="'" horiz-adv-x="542" 
d="M657 1434l-53 -308l-76 -194h-235l-6 194l53 308h317z" />
    <glyph glyph-name="parenleft" unicode="(" horiz-adv-x="839" 
d="M940 1556l133 -235q-10 -7 -28 -20t-69 -57.5t-97 -93.5t-103 -127t-97.5 -159t-68.5 -187.5t-28 -215.5q0 -100 23.5 -199t57 -168t67.5 -124t58 -82l23 -27l-211 -230q-8 6 -21 18.5t-50.5 54.5t-72 88.5t-76.5 120.5t-72.5 151.5t-51 180t-20.5 206.5q0 120 24 234.5
t64.5 207t93.5 177.5t111 150t116.5 121t111 95t94 66.5t65 40.5t24.5 13z" />
    <glyph glyph-name="parenright" unicode=")" horiz-adv-x="839" 
d="M106 -369l-133 236q10 7 28 20t69 57.5t97.5 93.5t103 127t97.5 159t69 187.5t28 215.5q0 100 -23.5 199t-57.5 168t-67.5 124t-56.5 82l-24 27l210 229q8 -6 21 -18.5t51 -54.5t72.5 -88.5t76.5 -120t72 -151t51 -180t21 -206.5q0 -120 -24 -234.5t-64.5 -207
t-93.5 -177.5t-111 -150.5t-117 -121.5t-111.5 -95t-94 -66.5t-65 -40.5t-24.5 -13z" />
    <glyph glyph-name="asterisk" unicode="*" horiz-adv-x="860" 
d="M705 1229h235v-205h-174l133 -184l-174 -123l-123 205l-123 -205l-174 123l133 184h-174v205h236v205h205v-205z" />
    <glyph glyph-name="plus" unicode="+" horiz-adv-x="1105" 
d="M522 451h-307v286h307v307h287v-307h307v-286h-307v-308h-287v308z" />
    <glyph glyph-name="comma" unicode="," horiz-adv-x="491" 
d="M477 143q0 -196 -103.5 -318t-271.5 -122h-43l23 133h10q142 0 178 144l4 16q-18 -6 -43 -6q-58 0 -93.5 40t-35.5 101q0 86 61.5 146.5t141.5 60.5q79 0 125.5 -50.5t46.5 -144.5z" />
    <glyph glyph-name="hyphen" unicode="-" horiz-adv-x="1003" 
d="M973 410h-799l51 286h799z" />
    <glyph glyph-name="period" unicode="." horiz-adv-x="491" 
d="M270 -31q-74 0 -121 48t-47 118q0 83 59.5 143t139.5 60q74 0 122 -48t48 -118q0 -83 -60.5 -143t-140.5 -60z" />
    <glyph glyph-name="slash" unicode="/" horiz-adv-x="901" 
d="M0 0l795 1434h358l-795 -1434h-358z" />
    <glyph glyph-name="zero" unicode="0" horiz-adv-x="1597" 
d="M883 307v-2q69 0 133 31.5t116 91.5t83.5 159.5t31.5 223.5q0 152 -76 233.5t-208 83.5q-69 0 -133 -31.5t-116.5 -91.5t-84 -159t-31.5 -223q0 -152 76.5 -234t208.5 -82zM858 -41q-193 0 -343.5 84t-233 234t-82.5 341q0 187 65.5 349.5t174 272.5t251.5 172.5
t297 62.5q193 0 343.5 -84.5t233.5 -234.5t83 -341q0 -187 -65.5 -349.5t-174.5 -272t-252 -172t-297 -62.5z" />
    <glyph glyph-name="one" unicode="1" horiz-adv-x="839" 
d="M317 0l177 1004l-287 -175l69 400l334 205h348l-251 -1434h-390z" />
    <glyph glyph-name="two" unicode="2" horiz-adv-x="1341" 
d="M911 432l-141 -74l-88 -30l-4 -21l147 21h482l-58 -328h-1188l58 328l536 297q221 123 292 189.5t71 158.5q0 68 -48.5 110.5t-135.5 42.5q-38 0 -71.5 -9t-56 -23.5t-41 -32t-29 -34.5t-18 -31.5t-10.5 -23.5l-2 -9h-391q2 11 7 29.5t26 71.5t49 101.5t79.5 107.5
t113.5 101.5t155 71.5t201 29q137 0 248.5 -36t182 -98t108.5 -143.5t38 -173.5q0 -50 -8.5 -96.5t-23 -85t-38.5 -76t-49.5 -67.5t-62.5 -61t-70.5 -55t-80.5 -52.5t-86 -49.5t-93 -49z" />
    <glyph glyph-name="three" unicode="3" horiz-adv-x="1351" 
d="M1012 901l-4 -20q175 -30 265.5 -131t90.5 -258q0 -110 -45.5 -207.5t-125 -169.5t-195.5 -114t-250 -42q-98 0 -182 17t-143.5 45.5t-108 65t-79 77.5t-53.5 82t-34 77.5t-18 65t-8 45.5l-1 17h391q1 -7 4 -18t19 -39t39.5 -50t70.5 -39.5t107 -17.5q98 0 160.5 54
t62.5 130q0 64 -59 114t-154 50h-309l43 246l364 204l4 21h-553l58 328h1075l-58 -328z" />
    <glyph glyph-name="four" unicode="4" horiz-adv-x="1361" 
d="M1178 0h-379l43 246h-748l58 327l632 861h420l-633 -861h328l57 318h379l-57 -318h184l-57 -327h-184z" />
    <glyph glyph-name="five" unicode="5" horiz-adv-x="1382" 
d="M641 594h-399l209 840h1003l-57 -328h-676l-62 -225h21q3 3 9.5 8t29.5 18t49.5 23t69 18t88.5 8q218 0 352.5 -128.5t134.5 -319.5q0 -115 -45.5 -216t-126 -174.5t-196.5 -116t-252 -42.5q-95 0 -177 16.5t-140 44.5t-106 64t-78 75.5t-53 79.5t-34 76t-17.5 64
t-7.5 45l-2 16h385q0 -3 1.5 -8.5t8 -21.5t15.5 -30.5t27 -32t41.5 -30.5t59.5 -21.5t79 -8.5q102 0 164.5 57t62.5 141q0 75 -55.5 122.5t-153.5 47.5q-50 0 -93 -15.5t-61 -30.5z" />
    <glyph glyph-name="six" unicode="6" horiz-adv-x="1372" 
d="M164 459q0 89 27.5 174t81.5 165t106.5 140.5t130.5 138.5l356 357h430l-381 -412l-110 -59l-4 -21q51 33 149 33q199 0 331 -133t132 -326q0 -114 -47 -216t-129 -177t-202 -119.5t-259 -44.5q-144 0 -261 39t-193 106.5t-117 158.5t-41 196zM786 676q-106 0 -170.5 -59
t-64.5 -152q0 -77 62 -127.5t175 -50.5q106 0 171 59t65 152q0 77 -62.5 127.5t-175.5 50.5z" />
    <glyph glyph-name="seven" unicode="7" horiz-adv-x="1187" 
d="M573 0h-419l733 1085l4 21h-696l57 328h1116l-57 -328z" />
    <glyph glyph-name="eight" unicode="8" horiz-adv-x="1454" 
d="M838 -41q-192 0 -346.5 51.5t-247 153t-92.5 237.5q0 71 20.5 131t53.5 99t73 69.5t80 47t73 27t54 13.5l20 3v20q-8 3 -21 9t-46.5 28.5t-59 50t-46.5 74.5t-21 100q0 79 38 151t107.5 128t177.5 89.5t240 33.5q155 0 277.5 -34t195.5 -90.5t110.5 -125.5t37.5 -144
q0 -58 -16.5 -107t-43 -82t-58.5 -59t-63.5 -40.5t-58 -24.5t-42.5 -13l-17 -3l-5 -21q10 -3 27 -9.5t59.5 -32.5t75 -58.5t59.5 -90.5t27 -126q0 -87 -40.5 -168t-116 -145.5t-196.5 -103t-269 -38.5zM905 1167q-87 0 -134.5 -39t-47.5 -98q0 -55 52 -92t153 -37
q87 0 134.5 39t47.5 98q0 55 -52 92t-153 37zM805 614q-110 0 -173 -52t-63 -128q0 -71 66.5 -119.5t187.5 -48.5q110 0 173 52t63 128q0 71 -66.5 119.5t-187.5 48.5z" />
    <glyph glyph-name="nine" unicode="9" horiz-adv-x="1372" 
d="M1454 975q0 -89 -27.5 -174t-81.5 -165t-107 -141.5t-130 -138.5l-356 -356h-430l380 412l111 59l4 21q-51 -33 -149 -33q-199 0 -331 133t-132 326q0 114 47 216t129 177t202 119.5t259 44.5q144 0 261 -39t193 -106.5t117 -158.5t41 -196zM831 758q106 0 171 59t65 152
q0 77 -62.5 127.5t-175.5 50.5q-106 0 -170.5 -59t-64.5 -152q0 -77 62 -127.5t175 -50.5z" />
    <glyph glyph-name="colon" unicode=":" horiz-adv-x="512" 
d="M270 -31q-74 0 -121 48t-47 118q0 83 59.5 143t139.5 60q74 0 122 -48t48 -118q0 -83 -60.5 -143t-140.5 -60zM399 717q-74 0 -121 48t-47 118q0 83 59.5 142.5t139.5 59.5q74 0 122 -47.5t48 -117.5q0 -83 -60.5 -143t-140.5 -60z" />
    <glyph glyph-name="semicolon" unicode=";" horiz-adv-x="512" 
d="M477 143q0 -196 -103.5 -318t-271.5 -122h-43l23 133h10q142 0 178 144l4 16q-18 -6 -43 -6q-58 0 -93.5 40t-35.5 101q0 86 61.5 146.5t141.5 60.5q79 0 125.5 -50.5t46.5 -144.5zM399 717q-74 0 -121 48t-47 118q0 83 59.5 142.5t139.5 59.5q74 0 122 -47.5t48 -117.5
q0 -83 -60.5 -143t-140.5 -60z" />
    <glyph glyph-name="less" unicode="&#x3c;" horiz-adv-x="1105" 
d="M512 522l573 -235v-287l-870 369v327l870 369v-287l-573 -235v-21z" />
    <glyph glyph-name="equal" unicode="=" horiz-adv-x="1105" 
d="M1085 205h-839v276h839v-276zM1085 625h-839v276h839v-276z" />
    <glyph glyph-name="greater" unicode="&#x3e;" horiz-adv-x="1105" 
d="M236 287l573 235v21l-573 235v287l870 -369v-327l-870 -369v287z" />
    <glyph glyph-name="question" unicode="?" horiz-adv-x="1239" 
d="M973 1036q0 64 -57.5 97.5t-143.5 33.5q-54 0 -97.5 -18t-66.5 -43.5t-38.5 -51t-19.5 -43.5l-5 -18h-381q3 10 8.5 27.5t29 67.5t53 95.5t83 101t115.5 95.5t154 67.5t196 27.5q127 0 231 -34t170.5 -91.5t102.5 -132t36 -156.5q0 -85 -25 -151t-66 -107.5t-90.5 -74.5
t-101 -58.5t-95.5 -51.5t-76 -63t-41 -84h-375q12 81 45.5 144.5t78.5 103t96.5 71t100.5 56t89.5 49.5t65 60.5t24.5 80.5zM590 -31q-74 0 -121 48t-47 118q0 83 59.5 143t139.5 60q74 0 122 -48t48 -118q0 -83 -60.5 -143t-140.5 -60z" />
    <glyph glyph-name="at" unicode="@" horiz-adv-x="1669" 
d="M1753 834q0 -123 -46.5 -225.5t-122.5 -167t-169.5 -99.5t-191.5 -35h-222l15 78h-10q-2 -4 -6.5 -9.5t-20.5 -21t-34.5 -27t-50 -21t-65.5 -9.5q-109 0 -182.5 80.5t-73.5 210.5q0 92 29.5 170t77.5 128.5t106.5 78.5t118.5 28q126 0 175 -86q8 -13 12 -25v-1h10l18 102
h256l-80 -451h15q34 0 69 16.5t66.5 49.5t51.5 92t20 133q0 76 -32 146t-91.5 126.5t-156.5 90t-216 33.5q-124 0 -235.5 -47.5t-195 -131t-132.5 -204.5t-49 -261q0 -224 147.5 -358.5t405.5 -134.5q79 0 155.5 14t113.5 28l36 13l-37 -215q-14 -6 -40.5 -15t-106 -24.5
t-156.5 -15.5q-170 0 -312.5 54t-238.5 148t-149.5 222t-53.5 274q0 184 69.5 347t187 276.5t276 179.5t331.5 66q166 0 304 -51t226.5 -135.5t136.5 -191.5t48 -222zM932 502h6q45 0 86 48t41 126q0 53 -26 82.5t-64 29.5q-44 0 -83.5 -48t-39.5 -126q0 -50 23 -79.5
t57 -32.5z" />
    <glyph glyph-name="A" unicode="A" horiz-adv-x="1474" 
d="M1358 1434l137 -1434h-383l-20 287h-553l-123 -287h-396l642 1434h696zM883 1085l-205 -471h389l-41 471h-143z" />
    <glyph glyph-name="B" unicode="B" horiz-adv-x="1495" 
d="M963 0h-830l252 1434h721q111 0 199.5 -30t142.5 -79.5t82.5 -109.5t28.5 -125q0 -81 -28.5 -145.5t-69.5 -98.5t-81.5 -56t-69.5 -28l-28 -6v-11q9 -3 23.5 -8.5t52 -29t66 -53.5t52 -85t23.5 -120q0 -196 -144.5 -322.5t-391.5 -126.5zM1004 1126h-293l-43 -245h336
q69 0 109 37.5t40 95.5q0 48 -40 80t-109 32zM565 307h357q88 0 136 43t48 111q0 57 -48 95t-136 38h-306z" />
    <glyph glyph-name="C" unicode="C" horiz-adv-x="1689" 
d="M932 -41q-169 0 -311 55.5t-237.5 150.5t-148.5 221.5t-53 266.5q0 164 67.5 315.5t181 262.5t272.5 177.5t333 66.5q140 0 256.5 -35.5t193.5 -92t134.5 -133t87 -150.5t43.5 -153h-387q-38 95 -123.5 155t-226.5 60q-180 0 -306 -129.5t-126 -334.5
q0 -158 101.5 -256.5t270.5 -98.5q58 0 110.5 13.5t90 35.5t69.5 48t52.5 52t35.5 48t21 36l6 13h396q-4 -12 -12.5 -33.5t-41.5 -83.5t-72.5 -118t-108 -124.5t-146 -117.5t-188.5 -83t-234 -34z" />
    <glyph glyph-name="D" unicode="D" horiz-adv-x="1556" 
d="M840 1085h-138l-129 -737h234q184 0 295.5 113t111.5 303q0 141 -98 231t-276 90zM385 1434h496q158 0 295.5 -51t233 -139t150 -210t54.5 -260q0 -160 -64 -303.5t-174.5 -246.5t-265.5 -163.5t-330 -60.5h-647z" />
    <glyph glyph-name="E" unicode="E" 
d="M573 348h727l-61 -348h-1106l252 1434h1106l-61 -349h-728l-36 -215h583l-55 -307h-584z" />
    <glyph glyph-name="F" unicode="F" horiz-adv-x="1269" 
d="M596 481l-84 -481h-379l252 1434h1085l-61 -349h-707l-47 -276h543l-59 -328h-543z" />
    <glyph glyph-name="G" unicode="G" horiz-adv-x="1792" 
d="M954 307q72 0 135.5 21t103.5 51.5t69.5 60.5t41.5 51l13 21h-205l49 287h748l-49 -287h-142q-4 -12 -13 -31.5t-42.5 -77t-73 -110t-107 -116t-143 -109.5t-183 -77.5t-224.5 -31.5q-169 0 -311 55.5t-237.5 150.5t-148.5 221.5t-53 266.5q0 164 67.5 315.5t181 262.5
t272.5 177.5t333 66.5q281 0 467.5 -141.5t243.5 -401.5h-391q-21 40 -45.5 70t-64 60.5t-98.5 47t-134 16.5q-180 0 -306 -129.5t-126 -334.5q0 -158 101.5 -256.5t270.5 -98.5z" />
    <glyph glyph-name="H" unicode="H" horiz-adv-x="1576" 
d="M133 0l252 1434h379l-92 -533h553l92 533h379l-252 -1434h-379l98 553h-553l-98 -553h-379z" />
    <glyph glyph-name="I" unicode="I" horiz-adv-x="645" 
d="M764 1434l-252 -1434h-379l252 1434h379z" />
    <glyph glyph-name="J" unicode="J" horiz-adv-x="1249" 
d="M1366 1434l-174 -981q-42 -235 -198 -369.5t-396 -134.5q-99 0 -182.5 22.5t-137.5 56.5t-96 78.5t-64.5 85t-36.5 78.5t-18 57t-4 23l355 74q1 -5 4 -13.5t17.5 -30.5t34 -39t57 -30.5t83.5 -13.5q86 0 140 48.5t69 139.5l168 949h379z" />
    <glyph glyph-name="K" unicode="K" horiz-adv-x="1474" 
d="M1065 0l-260 553h-195l-98 -553h-379l252 1434h379l-92 -533h153l441 533h440l-569 -676l348 -758h-420z" />
    <glyph glyph-name="L" unicode="L" horiz-adv-x="1187" 
d="M764 1434l-191 -1086h687l-62 -348h-1065l252 1434h379z" />
    <glyph glyph-name="M" unicode="M" horiz-adv-x="1976" 
d="M1255 328h-419l-158 676h-21v-185l-145 -819h-379l252 1434h522l168 -738h51l426 738h543l-252 -1434h-379l146 819l61 185h-20z" />
    <glyph glyph-name="N" unicode="N" horiz-adv-x="1597" 
d="M1024 0l-362 901h-21l-2 -184l-127 -717h-379l252 1434h440l365 -902h20l2 185l125 717h379l-252 -1434h-440z" />
    <glyph glyph-name="O" unicode="O" horiz-adv-x="1740" 
d="M586 662q0 -158 101.5 -256.5t270.5 -98.5q180 0 306.5 130t126.5 335q0 158 -102 256t-271 98q-180 0 -306 -129.5t-126 -334.5zM186 653q0 164 67.5 315.5t181 262.5t272.5 177.5t333 66.5q168 0 310.5 -56t238 -151t148.5 -221.5t53 -266.5q0 -164 -67 -315t-181 -262
t-273 -177.5t-333 -66.5q-169 0 -311 55.5t-237.5 150.5t-148.5 221.5t-53 266.5z" />
    <glyph glyph-name="P" unicode="P" horiz-adv-x="1495" 
d="M983 1085h-281l-61 -348h342q98 0 153.5 52t55.5 137q0 70 -53 114.5t-156 44.5zM385 1434h649q123 0 228 -39.5t175 -106t109 -154t39 -184.5q0 -154 -81 -283t-223 -203.5t-314 -74.5h-385l-70 -389h-379z" />
    <glyph glyph-name="Q" unicode="Q" horiz-adv-x="1740" 
d="M186 653q0 164 67.5 315.5t181 262.5t272.5 177.5t333 66.5q168 0 310.5 -56t238 -151t148.5 -221.5t53 -266.5q0 -201 -96.5 -378t-265.5 -292.5t-375 -142.5l-70 -387h-389l76 420q-223 68 -353.5 247.5t-130.5 405.5zM586 662q0 -158 101.5 -256.5t270.5 -98.5
q180 0 306.5 130t126.5 335q0 158 -102 256t-271 98q-180 0 -306 -129.5t-126 -334.5z" />
    <glyph glyph-name="R" unicode="R" horiz-adv-x="1515" 
d="M1233 483l201 -483h-410l-180 430h-256l-76 -430h-379l252 1434h649q249 0 403 -133t154 -332q0 -76 -20 -143.5t-53 -119t-79.5 -95.5t-97 -74.5t-108.5 -53.5zM649 778h355q85 0 139.5 46.5t54.5 115.5q0 59 -48.5 102t-135.5 43h-312z" />
    <glyph glyph-name="S" unicode="S" horiz-adv-x="1413" 
d="M829 287q81 0 135 32t54 89q0 39 -41 71.5t-106 57t-143.5 50.5t-157.5 61t-144 79t-106 114t-41 158q0 93 41 178.5t115 152t187 106t246 39.5q101 0 186 -18t144.5 -46t108 -69t78 -80t51.5 -86t32 -81.5t17 -70.5h-385q-1 5 -4 13.5t-19.5 29.5t-41 37t-73.5 29.5
t-112 13.5q-86 0 -127 -28.5t-41 -71.5q0 -40 41 -72.5t106 -57.5t144 -51.5t158.5 -61.5t144.5 -79.5t106 -114.5t41 -157q0 -97 -41 -185.5t-116 -157.5t-191 -110t-256 -41q-128 0 -234 28t-179.5 74.5t-128.5 112.5t-86.5 136.5t-47.5 150.5h385l2.5 -10t10.5 -24
t21.5 -34.5t36.5 -36.5t54 -34.5t76 -24.5t100 -10z" />
    <glyph glyph-name="T" unicode="T" 
d="M635 1085h-451l62 349h1280l-62 -349h-450l-191 -1085h-379z" />
    <glyph glyph-name="U" unicode="U" horiz-adv-x="1536" 
d="M745 1434l-145 -826q-25 -145 46.5 -223t197.5 -78q108 0 183 67t97 187l154 873h379l-164 -914q-46 -259 -223 -410t-441 -151q-166 0 -294.5 52t-203.5 143t-103 214t-3 265l142 801h378z" />
    <glyph glyph-name="V" unicode="V" horiz-adv-x="1464" 
d="M1696 1434l-621 -1434h-706l-117 1434h379l76 -1086h133l456 1086h400z" />
    <glyph glyph-name="W" unicode="W" horiz-adv-x="2068" 
d="M670 430l368 1004h455l16 -1004h21l360 1004h389l-548 -1434h-523l-16 963h-21l-352 -963h-502l-45 1434h369l8 -1004h21z" />
    <glyph glyph-name="X" unicode="X" horiz-adv-x="1423" 
d="M692 1434l129 -553h103l321 553h410l-455 -727l234 -707h-400l-151 532h-103l-340 -532h-420l484 707l-201 727h389z" />
    <glyph glyph-name="Y" unicode="Y" horiz-adv-x="1402" 
d="M954 512l-90 -512h-379l90 512l-370 922h389l209 -553h31l405 553h410z" />
    <glyph glyph-name="Z" unicode="Z" horiz-adv-x="1361" 
d="M82 0l61 348l803 717l2 20h-655l61 349h1178l-62 -349l-802 -716l-2 -21h696l-62 -348h-1218z" />
    <glyph glyph-name="bracketleft" unicode="[" horiz-adv-x="788" 
d="M956 1188h-266l-211 -1188h266l-53 -307h-614l317 1802h615z" />
    <glyph glyph-name="backslash" unicode="\" horiz-adv-x="901" 
d="M610 1434l291 -1434h-358l-291 1434h358z" />
    <glyph glyph-name="bracketright" unicode="]" horiz-adv-x="788" 
d="M518 1188h-266l53 307h615l-318 -1802h-614l53 307h266z" />
    <glyph glyph-name="asciicircum" unicode="^" horiz-adv-x="1034" 
d="M831 1434l308 -666h-287l-184 389h-31l-184 -389h-287l307 666h358z" />
    <glyph glyph-name="underscore" unicode="_" horiz-adv-x="768" 
d="M774 -430h-850l47 266h850z" />
    <glyph glyph-name="grave" unicode="`" horiz-adv-x="624" 
d="M252 1434h348l98 -318h-235l-213 307z" />
    <glyph glyph-name="a" unicode="a" 
d="M864 0l23 133h-17q-5 -7 -14.5 -18t-41 -39t-65.5 -50t-87 -39.5t-107 -17.5q-180 0 -296 130.5t-116 340.5q0 148 46.5 274.5t123 208.5t171.5 127.5t194 45.5q69 0 128.5 -20t94 -48t59.5 -58t34.5 -48t9.5 -21h20l29 164h348l-189 -1065h-348zM709 266
q105 0 178.5 84.5t73.5 235.5q0 101 -56 157t-151 56q-105 0 -178.5 -84.5t-73.5 -235.5q0 -101 56 -157t151 -56z" />
    <glyph glyph-name="b" unicode="b" 
d="M702 1434l-88 -502h17q5 7 14.5 18t41 39t65.5 50t87 39.5t107 17.5q180 0 296 -130.5t116 -340.5q0 -148 -46.5 -274.5t-123 -208.5t-171.5 -127.5t-194 -45.5q-69 0 -128 20t-94 48t-59.5 58t-34 48t-9.5 21h-21l-26 -164h-349l252 1434h348zM793 799
q-105 0 -178.5 -84.5t-73.5 -235.5q0 -101 56 -157t151 -56q105 0 178 84.5t73 235.5q0 101 -55.5 157t-150.5 56z" />
    <glyph glyph-name="c" unicode="c" horiz-adv-x="1239" 
d="M686 -31q-108 0 -206 36t-173 101t-119.5 163.5t-44.5 215.5q0 164 85 305t228 223.5t306 82.5q82 0 152 -15t120 -40.5t91 -58.5t67 -69.5t46 -73.5t29.5 -70t15.5 -58.5t7 -40.5l2 -15h-356q-1 6 -4.5 15.5t-17.5 34.5t-33 44t-54.5 34.5t-78.5 15.5q-95 0 -171.5 -87
t-76.5 -223q0 -103 55 -163t139 -60q44 0 81.5 15t60.5 36t39.5 42t22.5 36l7 15h365q-3 -9 -8 -25t-27 -62t-49.5 -87.5t-76.5 -92.5t-105.5 -87.5t-140 -61.5t-177.5 -25z" />
    <glyph glyph-name="d" unicode="d" 
d="M864 0l23 133h-17q-5 -7 -14.5 -18t-41 -39t-65.5 -50t-87 -39.5t-107 -17.5q-180 0 -296 130.5t-116 340.5q0 148 46.5 274.5t123 208.5t171.5 127.5t194 45.5q69 0 128.5 -20t94 -48t59.5 -58t34.5 -48t9.5 -21h20l94 533h348l-254 -1434h-348zM709 266
q105 0 178.5 84.5t73.5 235.5q0 101 -56 157t-151 56q-105 0 -178.5 -84.5t-73.5 -235.5q0 -101 56 -157t151 -56z" />
    <glyph glyph-name="e" unicode="e" horiz-adv-x="1280" 
d="M700 -31q-242 0 -399.5 145.5t-157.5 372.5q0 122 51.5 235t136.5 194.5t201 130.5t240 49q121 0 223.5 -41t171.5 -111.5t107.5 -164.5t38.5 -199q0 -41 -10 -109h-809q5 -108 59.5 -166.5t153.5 -58.5q41 0 77 11.5t58 28t38 33t22 27.5l7 12h375q-3 -8 -9 -22
t-29 -54.5t-51.5 -77t-77.5 -81.5t-106 -77.5t-138.5 -54.5t-172.5 -22zM526 645h432q-5 68 -60 121t-130 53q-85 0 -148 -45t-94 -129z" />
    <glyph glyph-name="f" unicode="f" horiz-adv-x="804" 
d="M162 748l49 276h133l72 410h635l-50 -277h-286l-23 -133h236l-49 -276h-236l-131 -748h-348l131 748h-133z" />
    <glyph glyph-name="g" unicode="g" 
d="M905 154h-16q-5 -6 -13.5 -15.5t-38.5 -34.5t-63.5 -44t-86.5 -34.5t-109 -15.5q-182 0 -301 129t-119 334q0 137 46 256t121 198t169.5 124t193.5 45q71 0 131 -19t95.5 -46t60 -54.5t33.5 -46.5l10 -19h20l27 154h348l-256 -1454l-1014 2l50 274h665zM727 297
q103 0 175.5 77.5t72.5 207.5q0 95 -57.5 150.5t-153.5 55.5q-103 0 -175.5 -77t-72.5 -207q0 -95 57.5 -151t153.5 -56z" />
    <glyph glyph-name="h" unicode="h" horiz-adv-x="1280" 
d="M1298 621l-110 -621h-348l106 600q16 95 -26.5 154t-141.5 59q-80 0 -144 -60.5t-81 -158.5l-102 -594h-349l252 1434h348l-86 -502h17q5 7 14 18t40 39t65 50t86.5 39.5t107.5 17.5q206 0 298 -133t54 -342z" />
    <glyph glyph-name="i" unicode="i" horiz-adv-x="552" 
d="M639 1065l-188 -1065h-349l189 1065h348zM508 1178q-83 0 -130.5 42t-47.5 111q0 86 54 140.5t138 54.5q83 0 130.5 -42.5t47.5 -111.5q0 -86 -54 -140t-138 -54z" />
    <glyph glyph-name="j" unicode="j" horiz-adv-x="552" 
d="M639 1065l-256 -1454h-625l49 276h277l207 1178h348zM508 1178q-83 0 -130.5 42t-47.5 111q0 86 54 140.5t138 54.5q83 0 130.5 -42.5t47.5 -111.5q0 -86 -54 -140t-138 -54z" />
    <glyph glyph-name="k" unicode="k" horiz-adv-x="1187" 
d="M520 389l-69 -389h-349l252 1434h348l-131 -748h103l303 379h379l-398 -502l240 -563h-379l-166 389h-133z" />
    <glyph glyph-name="l" unicode="l" horiz-adv-x="706" 
d="M102 0l252 1434h348l-202 -1158h235l-49 -276h-584z" />
    <glyph glyph-name="m" unicode="m" horiz-adv-x="1951" 
d="M1239 922h18q6 7 16.5 19t46 42t74.5 52.5t100 41.5t124 19q205 0 297.5 -131.5t54.5 -346.5l-106 -618h-348l106 600q18 100 -18 156.5t-129 56.5q-78 0 -136 -56.5t-75 -154.5l-107 -602h-348l106 600q18 100 -18 156.5t-129 56.5q-78 0 -136 -56.5t-75 -154.5
l-106 -602h-349l189 1065h348l-23 -133h17q4 7 12.5 18t37 39t61 50t84.5 39.5t108 17.5q71 0 128 -18t88 -43.5t52 -51t28 -43.5z" />
    <glyph glyph-name="n" unicode="n" horiz-adv-x="1280" 
d="M1298 621l-110 -621h-348l106 600q16 95 -26.5 154t-141.5 59q-80 0 -144 -60.5t-81 -158.5l-102 -594h-349l189 1065h348l-23 -133h17q5 7 14 18t40 39t65 50t86.5 39.5t107.5 17.5q206 0 298 -133t54 -342z" />
    <glyph glyph-name="o" unicode="o" horiz-adv-x="1290" 
d="M500 489q0 -100 60.5 -161.5t156.5 -61.5q105 0 183.5 86t78.5 223q0 101 -60.5 162.5t-156.5 61.5q-105 0 -183.5 -86.5t-78.5 -223.5zM143 485q0 164 86.5 305t233.5 223.5t317 82.5q122 0 226.5 -41t176 -111t112 -164.5t40.5 -199.5q0 -164 -86.5 -305t-233.5 -223.5
t-317 -82.5q-122 0 -226.5 41t-176 111t-112 164.5t-40.5 199.5z" />
    <glyph glyph-name="p" unicode="p" 
d="M637 1065l-23 -133h17q5 7 14.5 18t41 39t65.5 50t87 39.5t107 17.5q180 0 296 -130.5t116 -340.5q0 -148 -46.5 -274.5t-123 -208.5t-171.5 -127.5t-194 -45.5q-69 0 -128 20t-94 48t-59.5 58t-34 48t-9.5 21h-21l-96 -553h-348l256 1454h348zM793 799
q-105 0 -178.5 -84.5t-73.5 -235.5q0 -101 56 -157t151 -56q105 0 178 84.5t73 235.5q0 101 -55.5 157t-150.5 56z" />
    <glyph glyph-name="q" unicode="q" 
d="M797 -389l90 522h-17q-5 -7 -14.5 -18t-41 -39t-65.5 -50t-87 -39.5t-107 -17.5q-180 0 -296 130.5t-116 340.5q0 148 46.5 274.5t123 208.5t171.5 127.5t194 45.5q69 0 128.5 -20t94 -48t59.5 -58t34.5 -48t9.5 -21h20l29 164h348l-256 -1454h-348zM709 266
q105 0 178.5 84.5t73.5 235.5q0 101 -56 157t-151 56q-105 0 -178.5 -84.5t-73.5 -235.5q0 -101 56 -157t151 -56z" />
    <glyph glyph-name="r" unicode="r" horiz-adv-x="870" 
d="M961 748h-175q-92 0 -157 -56t-82 -149l-96 -543h-349l189 1065h338l-29 -154h21q3 7 10 19t31.5 42t54 52.5t79 41.5t105.5 19h119z" />
    <glyph glyph-name="s" unicode="s" horiz-adv-x="1126" 
d="M221 748q0 70 29.5 132.5t85 110.5t141.5 76.5t191 28.5q100 0 183 -20t135.5 -50t92.5 -70t59.5 -75.5t32 -70.5t15 -51.5t2.5 -21.5h-334v3l-3 9t-5.5 13.5t-10 16.5t-15 17.5t-21 16.5t-28 14t-37 9.5t-46.5 3.5q-50 0 -78 -20t-28 -52q0 -25 30.5 -45.5t79.5 -36.5
t107.5 -34t117.5 -44t108 -60t79.5 -88t30.5 -122q0 -74 -30.5 -139.5t-89 -117t-152 -82t-210.5 -30.5q-105 0 -191.5 21t-141.5 54.5t-96.5 73.5t-62.5 80.5t-33.5 74t-15.5 54.5l-3 21h344q0 -3 3 -12.5t16 -27.5t33.5 -33.5t61 -27t92.5 -11.5q57 0 86 19.5t29 49.5
q0 25 -30.5 46t-79.5 38.5t-107.5 36.5t-117.5 46t-108 62t-79.5 90t-30.5 124z" />
    <glyph glyph-name="t" unicode="t" horiz-adv-x="860" 
d="M170 788l49 277h133l39 225h348l-39 -225h277l-49 -277h-277l-90 -512h297l-49 -276h-645l139 788h-133z" />
    <glyph glyph-name="u" unicode="u" horiz-adv-x="1290" 
d="M180 444l111 621h348l-107 -600q-16 -95 26.5 -154t141.5 -59q80 0 144.5 60.5t81.5 158.5l102 594h348l-188 -1065h-348l22 133h-16q-5 -7 -14 -18t-40 -39t-65 -50t-87 -39.5t-108 -17.5q-206 0 -298 133t-54 342z" />
    <glyph glyph-name="v" unicode="v" horiz-adv-x="1177" 
d="M1343 1065l-454 -1065h-625l-78 1065h349l40 -758h93l307 758h368z" />
    <glyph glyph-name="w" unicode="w" horiz-adv-x="1761" 
d="M995 696h-20l-256 -696h-486l-26 1065h352v-696h31l256 696h409l11 -696h30l246 696h365l-404 -1065h-497z" />
    <glyph glyph-name="x" unicode="x" horiz-adv-x="1198" 
d="M1208 0h-379l-106 379h-61l-242 -379h-400l396 553l-187 512h369l98 -369h62l229 369h389l-366 -512z" />
    <glyph glyph-name="y" unicode="y" horiz-adv-x="1177" 
d="M498 0h-226q-6 72 -39 464t-49 601h348l50 -768h61q65 149 188.5 426.5t151.5 341.5h369l-666 -1454h-369z" />
    <glyph glyph-name="z" unicode="z" horiz-adv-x="1085" 
d="M1202 1065l-53 -297l-561 -451l-2 -20h501l-53 -297h-973l54 297l559 451l4 20h-461l53 297h932z" />
    <glyph glyph-name="braceleft" unicode="{" horiz-adv-x="829" 
d="M504 604l-4 -20q7 -1 17.5 -3.5t36.5 -16t44.5 -33.5t29 -60t1.5 -92l-54 -301q-6 -38 13.5 -63t62.5 -25h133l-51 -297h-235q-161 0 -235 86.5t-46 240.5l62 349q6 30 -11.5 50.5t-48.5 20.5h-82l53 308h82q31 0 55.5 20t30.5 51l62 348q28 155 131.5 241.5t263.5 86.5
h236l-54 -297h-133q-43 0 -71.5 -25t-34.5 -63l-53 -301q-7 -38 -21.5 -69.5t-33 -52t-38.5 -36.5t-39 -24.5t-34.5 -14t-24.5 -6.5z" />
    <glyph glyph-name="bar" unicode="|" horiz-adv-x="819" 
d="M696 1536v-1741h-327v1741h327z" />
    <glyph glyph-name="braceright" unicode="}" horiz-adv-x="829" 
d="M535 584l2 20q-6 1 -17 3.5t-36.5 16t-43.5 33.5t-28.5 60t-1.5 92l53 301q6 38 -13.5 63t-62.5 25h-133l51 297h236q161 0 234.5 -87t45.5 -241l-61 -348q-6 -31 11 -51t48 -20h82l-55 -308h-82q-31 0 -54.5 -20t-29.5 -51l-62 -349q-28 -155 -131.5 -241t-263.5 -86
h-235l53 297h133q43 0 72 25t35 63l53 301q7 38 21.5 69.5t33 52t38.5 36.5t39 24.5t34.5 14t25.5 6.5z" />
    <glyph glyph-name="asciitilde" unicode="~" horiz-adv-x="1105" 
d="M522 532q-31 0 -51 -20t-20 -51v-31h-267v123q0 129 69.5 202.5t186.5 73.5q66 0 122 -17.5t87 -38.5t68.5 -38.5t70.5 -17.5q31 0 51.5 20t20.5 51v31h266v-123q0 -129 -69.5 -202.5t-186.5 -73.5q-66 0 -122 17.5t-87 38.5t-68.5 38.5t-70.5 17.5z" />
    <glyph glyph-name="nbspace" unicode="&#xa0;" horiz-adv-x="573" 
 />
    <glyph glyph-name="exclamdown" unicode="&#xa1;" horiz-adv-x="634" 
d="M84 -389l113 645l118 328h226l4 -328l-113 -645h-348zM498 1085q74 0 121 -47.5t47 -117.5q0 -83 -59.5 -143t-139.5 -60q-74 0 -122 48t-48 118q0 82 60.5 142t140.5 60z" />
    <glyph glyph-name="cent" unicode="&#xa2;" horiz-adv-x="1239" 
d="M436 -184l35 192q-147 56 -237.5 180.5t-90.5 296.5q0 221 151 392.5t368 207.5l28 164h318l-33 -186q62 -21 113 -54.5t83 -71t56.5 -78t36 -76.5t18.5 -65t8 -46l2 -17h-356q-1 6 -4.5 15.5t-17.5 34.5t-33 44t-54.5 34.5t-78.5 15.5q-95 0 -171.5 -87t-76.5 -223
q0 -103 55 -163t139 -60q44 0 81.5 15t60.5 36t39.5 42t22.5 36l7 15h365q-2 -8 -7 -22t-23.5 -54.5t-41.5 -78t-64 -85.5t-88.5 -85t-116.5 -68t-147 -42l-28 -159h-318z" />
    <glyph glyph-name="sterling" unicode="&#xa3;" horiz-adv-x="1280" 
d="M750 881h297l-48 -267h-297l-18 -102q-7 -37 -24.5 -68.5t-37 -50.5t-38 -32t-30.5 -18l-13 -5l-2 -10h757l-57 -328h-1198l57 328h31q143 0 170 153l23 133h-132l48 267h133l35 196q34 195 168.5 306.5t345.5 111.5q117 0 206.5 -29.5t140.5 -73t84.5 -103.5t45 -110
t14.5 -104h-362q0 5 -0.5 12.5t-6.5 27t-17.5 34.5t-37 27t-61.5 12q-124 0 -148 -141z" />
    <glyph glyph-name="currency" unicode="&#xa4;" horiz-adv-x="1474" 
d="M1004 1126h-222l-57 -327h266q91 0 147 50t56 126q0 60 -53 105.5t-137 45.5zM457 1434h598q257 0 395.5 -115.5t138.5 -290.5q0 -223 -147 -359.5t-410 -136.5h-354l-23 -122h441l-43 -246h-441l-28 -164h-379l28 164h-153l43 246h153l23 122h-154l48 267h153z" />
    <glyph glyph-name="yen" unicode="&#xa5;" horiz-adv-x="1402" 
d="M1028 696h246l-37 -204h-287l-24 -134h286l-34 -204h-287l-27 -154h-379l27 154h-287l35 204h287l24 134h-286l37 204h245l-362 738h389l223 -482h31l391 482h410z" />
    <glyph glyph-name="brokenbar" unicode="&#xa6;" horiz-adv-x="819" 
d="M696 1536v-748h-327v748h327zM696 543v-748h-327v748h327z" />
    <glyph glyph-name="section" unicode="&#xa7;" horiz-adv-x="1228" 
d="M643 848q-3 -1 -8.5 -2.5t-19 -8.5t-23.5 -16t-18.5 -26t-8.5 -37q0 -14 5.5 -26t19 -23.5t27.5 -20t40.5 -20t49 -20.5t61 -24t68.5 -28l7 2q7 3 19 9t23.5 15.5t19.5 25.5t8 36q0 15 -5.5 27.5t-18.5 23.5t-27 20t-40 20.5t-49 20t-61 24t-69 28.5zM680 1171
q0 -26 33.5 -49t87 -43t118 -41.5t129 -50.5t118 -64.5t87 -88.5t33.5 -117q0 -38 -12.5 -72t-32.5 -58t-43.5 -44t-47.5 -32.5t-44 -21.5t-32 -13l-13 -3l-4 -20q4 -3 10.5 -8.5t23.5 -24t30 -38.5t23.5 -51t10.5 -63q0 -129 -124 -219t-337 -90q-106 0 -194.5 18.5
t-145.5 48.5t-101.5 66t-68 72t-38.5 66t-19 48l-4 19h342q1 -4 4.5 -11t18 -24.5t35.5 -31t60.5 -24.5t88.5 -11q66 0 96.5 22t30.5 55q0 26 -33.5 49t-87 43t-118 42t-129 51t-118 64.5t-87 88.5t-33.5 117q0 38 12.5 72t32.5 58t44 44t47.5 32.5t43.5 21.5t33 13l12 3
l4 20q-4 3 -10.5 8.5t-23.5 23.5t-30 38t-23.5 51.5t-10.5 63.5q0 127 123 218t333 91q81 0 152 -11.5t122.5 -31t94.5 -45t71 -53.5t50 -56t34 -53.5t19.5 -45t9.5 -31.5l2 -11h-342q-1 4 -3.5 11t-15.5 24.5t-31.5 31t-54 24.5t-79.5 11q-66 0 -97.5 -23t-31.5 -55z" />
    <glyph glyph-name="dieresis" unicode="&#xa8;" horiz-adv-x="870" 
d="M403 1126q-66 0 -108.5 42.5t-42.5 105.5q0 76 52 128t124 52q67 0 109.5 -42.5t42.5 -104.5q0 -75 -53 -128t-124 -53zM823 1126q-66 0 -108.5 42.5t-42.5 105.5q0 76 52 128t124 52q66 0 108.5 -42t42.5 -105q0 -76 -52.5 -128.5t-123.5 -52.5z" />
    <glyph glyph-name="copyright" unicode="&#xa9;" horiz-adv-x="1730" 
d="M983 338q-160 0 -269.5 112t-109.5 267t109.5 267t269.5 112q65 0 120.5 -17t93.5 -44t68 -60t47.5 -66t29.5 -60t16 -44l4 -17h-246q-1 3 -4 8t-13 17t-23 21.5t-35 17.5t-48 8q-61 0 -102 -41t-41 -102q0 -62 41 -103t102 -41q41 0 71.5 18t41.5 36l10 18h246
q-1 -6 -4 -17.5t-16 -43t-29.5 -60.5t-47.5 -64.5t-68 -61t-93 -43t-121 -17.5zM420 717q0 -232 159.5 -387.5t403.5 -155.5t403.5 155.5t159.5 387.5t-159.5 387.5t-403.5 155.5t-403.5 -155.5t-159.5 -387.5zM1782 717q0 -152 -62 -291t-168 -242t-254.5 -164t-314.5 -61
t-314.5 61t-254.5 164t-168 242t-62 291t62 291t168 242t254.5 164t314.5 61t314.5 -61t254.5 -164t168 -242t62 -291z" />
    <glyph glyph-name="ordfeminine" unicode="&#xaa;" horiz-adv-x="798" 
d="M408 737q-89 0 -145 55.5t-56 131.5q0 100 66 161.5t178 61.5h221l8 37q7 38 -15.5 62t-64.5 24q-31 0 -51.5 -15.5t-25.5 -30.5l-5 -16h-242q2 10 8 26.5t31 59t58.5 75t96 59t138.5 26.5q169 0 253 -76t61 -211l-72 -409h-246l19 98h-11q-3 -5 -8.5 -13t-25 -28.5
t-41.5 -36t-57 -28.5t-72 -13zM653 1034h-123q-29 0 -45 -15t-16 -42q0 -20 16.5 -32.5t44.5 -12.5q44 0 81.5 29.5t41.5 72.5z" />
    <glyph glyph-name="guillemotleft" unicode="&#xab;" horiz-adv-x="1310" 
d="M729 178l-219 -178l-367 532l555 533l172 -195l-378 -358zM1272 178l-219 -178l-367 532l555 533l172 -195l-379 -358z" />
    <glyph glyph-name="logicalnot" unicode="&#xac;" horiz-adv-x="1105" 
d="M799 297v205h-563v286h870v-491h-307z" />
    <glyph glyph-name="uni00AD" unicode="&#xad;" horiz-adv-x="1003" 
d="M973 410h-799l51 286h799z" />
    <glyph glyph-name="registered" unicode="&#xae;" horiz-adv-x="1239" 
d="M532 1188h256q111 0 173.5 -52t62.5 -132q0 -34 -9.5 -63t-23 -45t-27 -27t-22.5 -15l-10 -4l112 -164h-194l-92 133h-41v-133h-185v502zM778 1034h-61v-82h61q25 0 38 11.5t13 29.5t-13 29.5t-38 11.5zM1331 922q0 -152 -74.5 -278.5t-206.5 -200.5t-292 -74t-292 74
t-207 200.5t-75 278.5t75 278.5t207 200.5t292 74t292 -74t206.5 -200.5t74.5 -278.5zM1147 922q0 174 -108.5 276t-280.5 102t-280.5 -102t-108.5 -276t108.5 -276.5t280.5 -102.5t280.5 102.5t108.5 276.5z" />
    <glyph glyph-name="macron" unicode="&#xaf;" horiz-adv-x="778" 
d="M254 1208l39 215h655l-39 -215h-655z" />
    <glyph glyph-name="degree" unicode="&#xb0;" horiz-adv-x="696" 
d="M530 1444q122 0 204.5 -80.5t82.5 -196.5t-82.5 -196t-204.5 -80t-204 80t-82 196t82 196.5t204 80.5zM530 1260q-38 0 -65 -27.5t-27 -65.5t27 -65t65 -27t65.5 27t27.5 65t-27.5 65.5t-65.5 27.5z" />
    <glyph glyph-name="plusminus" unicode="&#xb1;" horiz-adv-x="1105" 
d="M1116 0h-901v276h307v267h-307v276h307v307h287v-307h307v-276h-307v-267h307v-276z" />
    <glyph glyph-name="twosuperior" unicode="&#xb2;" horiz-adv-x="757" 
d="M569 1137l-2 -11l97 21h215l-37 -205h-635l37 205l178 82q153 71 198.5 101t45.5 69q0 24 -19.5 40.5t-50.5 16.5q-30 0 -51.5 -16t-28.5 -32l-6 -15h-240q1 6 4.5 15.5t16 37t29 52.5t46 56t64 53t85 37t108.5 15q147 0 226 -64t79 -157q0 -118 -85 -189t-274 -112z" />
    <glyph glyph-name="threesuperior" unicode="&#xb3;" horiz-adv-x="727" 
d="M702 1362l-2 -10q85 -7 133 -55.5t48 -120.5q0 -111 -83.5 -182.5t-217.5 -71.5q-66 0 -120 13.5t-87.5 35t-59 47.5t-37.5 52.5t-19.5 48t-8.5 35.5l-2 13h231q1 -2 2.5 -6.5t8 -15t15 -18.5t23.5 -14.5t33 -6.5q31 0 54.5 19.5t23.5 48.5q0 28 -18 45t-52 20h-143
l22 123l193 102l2 11l-86 -21h-225l32 184h564l-31 -174z" />
    <glyph glyph-name="acute" unicode="&#xb4;" horiz-adv-x="624" 
d="M467 1434h348l-2 -11l-319 -307h-236z" />
    <glyph glyph-name="mu" unicode="&#xb5;" horiz-adv-x="1290" 
d="M584 -31q-26 0 -49.5 3t-40.5 8.5t-31.5 12.5t-24 15t-17.5 15.5t-12 14.5t-7 12.5t-4 7.5l-1 3h-20l41 -245l-39 -226h-348l260 1475h348l-107 -600q-16 -95 26.5 -154t141.5 -59q80 0 144.5 60.5t81.5 158.5l102 594h348l-188 -1065h-348l22 133h-16q-3 -7 -8.5 -18
t-27.5 -39t-49.5 -50t-74.5 -39.5t-102 -17.5z" />
    <glyph glyph-name="paragraph" unicode="&#xb6;" horiz-adv-x="1075" 
d="M195 973q0 194 139 327.5t352 133.5h492v-349h-195v-1484h-328v911q-192 0 -326 134.5t-134 326.5z" />
    <glyph glyph-name="periodcentered" unicode="&#xb7;" horiz-adv-x="573" 
d="M375 389q-72 0 -120 49t-48 119q0 82 60 141.5t139 59.5q72 0 119.5 -49t47.5 -119q0 -82 -59.5 -141.5t-138.5 -59.5z" />
    <glyph glyph-name="cedilla" unicode="&#xb8;" horiz-adv-x="583" 
d="M391 41l-80 -139q6 -1 16.5 -4t37.5 -16t47.5 -31t37.5 -53t17 -79q0 -107 -83.5 -184.5t-205.5 -77.5q-59 0 -110.5 14.5t-73.5 28.5l-21 15l29 174q9 -6 26 -16t64.5 -26t91.5 -16q39 0 63.5 21.5t24.5 52.5q0 23 -20.5 41t-52.5 18h-113l152 277h153z" />
    <glyph glyph-name="onesuperior" unicode="&#xb9;" horiz-adv-x="747" 
d="M248 942l37 205h184l47 266l-180 -92l37 215l202 102h226l-86 -491h164l-37 -205h-594z" />
    <glyph glyph-name="ordmasculine" unicode="&#xba;" horiz-adv-x="819" 
d="M557 737q-156 0 -251 92t-95 230q0 169 115 282t280 113q156 0 251 -91.5t95 -229.5q0 -169 -115.5 -282.5t-279.5 -113.5zM565 952q51 0 92 46.5t41 125.5q0 53 -28 84t-72 31q-51 0 -92 -46.5t-41 -125.5q0 -53 28 -84t72 -31z" />
    <glyph glyph-name="guillemotright" unicode="&#xbb;" horiz-adv-x="1310" 
d="M797 887l219 178l366 -533l-555 -532l-172 195l379 358zM254 887l219 178l367 -533l-555 -532l-172 195l379 358z" />
    <glyph glyph-name="onequarter" unicode="&#xbc;" horiz-adv-x="1689" 
d="M203 737l37 205h184l47 266l-180 -92l37 215l202 103h226l-86 -492h164l-37 -205h-594zM1681 1434l-1112 -1434h-266l1112 1434h266zM1532 0h-236l23 123h-358l32 184l314 389h245l-299 -368h103l67 102h185l-17 -102h82l-37 -205h-82z" />
    <glyph glyph-name="onehalf" unicode="&#xbd;" horiz-adv-x="1771" 
d="M203 737l37 205h184l47 266l-180 -92l37 215l202 103h226l-86 -492h164l-37 -205h-594zM1681 1434l-1112 -1434h-266l1112 1434h266zM1391 195l-2 -11l96 21h215l-37 -205h-635l37 205l178 82q153 71 198.5 101t45.5 69q0 24 -19.5 40.5t-50.5 16.5q-30 0 -51.5 -16
t-27.5 -32l-7 -15h-239q1 6 4.5 15.5t16 37t29 52.5t45.5 56t63.5 53t85 37t108.5 15q147 0 226 -64t79 -157q0 -118 -85 -189t-273 -112z" />
    <glyph glyph-name="threequarters" unicode="&#xbe;" horiz-adv-x="1669" 
d="M678 1157l-2 -10q85 -7 132.5 -55.5t47.5 -120.5q0 -111 -83.5 -182.5t-217.5 -71.5q-66 0 -120 13.5t-87.5 35.5t-59 48t-37.5 52t-19.5 48t-9.5 36l-1 13h232q2 -7 7 -17.5t26 -27.5t49 -17q31 0 54 19.5t23 48.5q0 59 -69 65h-144l23 123l192 103l2 10l-86 -21h-225
l33 185h563l-31 -174zM1532 0h-236l23 123h-358l32 184l314 389h245l-299 -368h103l67 102h185l-17 -102h82l-37 -205h-82zM1681 1434l-1112 -1434h-266l1112 1434h266z" />
    <glyph glyph-name="questiondown" unicode="&#xbf;" horiz-adv-x="1239" 
d="M471 8q0 -64 57 -97.5t142 -33.5q54 0 97.5 18t66.5 43.5t38.5 51t19.5 43.5l5 18h381q-3 -10 -8.5 -27.5t-29 -67.5t-53 -95t-83 -100.5t-115.5 -95.5t-154 -67.5t-196 -27.5q-127 0 -231 34t-170.5 91.5t-103 132t-36.5 156.5q0 87 25 154.5t66 110.5t91 76t102 59.5
t96.5 52.5t76.5 63t41 84h375q-12 -81 -45.5 -144t-78.5 -102t-96.5 -70t-100.5 -56t-89.5 -51.5t-65 -64.5t-24.5 -88zM854 1085q74 0 121 -47.5t47 -117.5q0 -83 -59.5 -143t-139.5 -60q-74 0 -122 48t-48 118q0 82 60.5 142t140.5 60z" />
    <glyph glyph-name="Agrave" unicode="&#xc0;" horiz-adv-x="1474" 
d="M1358 1434l137 -1434h-383l-20 287h-553l-123 -287h-396l642 1434h696zM883 1085l-205 -471h389l-41 471h-143zM692 1925h348l99 -317h-236l-213 307z" />
    <glyph glyph-name="Aacute" unicode="&#xc1;" horiz-adv-x="1474" 
d="M1358 1434l137 -1434h-383l-20 287h-553l-123 -287h-396l642 1434h696zM883 1085l-205 -471h389l-41 471h-143zM1110 1925h348l-2 -10l-319 -307h-236z" />
    <glyph glyph-name="Acircumflex" unicode="&#xc2;" horiz-adv-x="1474" 
d="M1358 1434l137 -1434h-383l-20 287h-553l-123 -287h-396l642 1434h696zM883 1085l-205 -471h389l-41 471h-143zM924 1925h276l172 -307l-2 -10h-231l-88 143h-31l-137 -143h-240l2 10z" />
    <glyph glyph-name="Atilde" unicode="&#xc3;" horiz-adv-x="1474" 
d="M1358 1434l137 -1434h-383l-20 287h-553l-123 -287h-396l642 1434h696zM883 1085l-205 -471h389l-41 471h-143zM901 1905q48 0 89 -14.5t63 -32t48.5 -32t49.5 -14.5t39.5 14.5t21.5 37.5l7 30h194l-18 -102q-17 -92 -77.5 -143.5t-152.5 -51.5q-48 0 -89 14.5t-63 32
t-48.5 32t-49.5 14.5t-39.5 -14.5t-21.5 -37.5l-6 -30h-193l19 102q17 93 76 144t151 51z" />
    <glyph glyph-name="Adieresis" unicode="&#xc4;" horiz-adv-x="1474" 
d="M1358 1434l137 -1434h-383l-20 287h-553l-123 -287h-396l642 1434h696zM883 1085l-205 -471h389l-41 471h-143zM807 1587q-67 0 -109.5 42.5t-42.5 105.5q0 75 52.5 127.5t123.5 52.5q67 0 109.5 -42.5t42.5 -105.5q0 -75 -52.5 -127.5t-123.5 -52.5zM1227 1587
q-67 0 -109.5 42.5t-42.5 105.5q0 75 52.5 127.5t123.5 52.5q67 0 109.5 -42.5t42.5 -105.5q0 -75 -52.5 -127.5t-123.5 -52.5z" />
    <glyph glyph-name="Aring" unicode="&#xc5;" horiz-adv-x="1474" 
d="M1358 1434l137 -1434h-383l-20 287h-553l-123 -287h-396l642 1434h696zM883 1085l-205 -471h389l-41 471h-143zM999 1536q-104 0 -167.5 61t-63.5 154q0 109 76 182.5t186 73.5q104 0 168 -61.5t64 -153.5q0 -109 -76.5 -182.5t-186.5 -73.5zM1006 1679q42 0 71 28.5
t29 70.5q0 36 -22.5 61t-59.5 25q-42 0 -71 -28.5t-29 -70.5q0 -36 22.5 -61t59.5 -25z" />
    <glyph glyph-name="AE" unicode="&#xc6;" horiz-adv-x="2109" 
d="M1393 348h696l-61 -348h-1076l52 287h-461l-127 -287h-396l642 1434h1617l-61 -349h-696l-37 -215h553l-56 -307h-552zM887 1085l-213 -471h387l82 471h-256z" />
    <glyph glyph-name="Ccedilla" unicode="&#xc7;" horiz-adv-x="1689" 
d="M932 -41l-33 -57q6 -1 16.5 -4t37.5 -16t47.5 -31t37.5 -53t17 -79q0 -107 -83.5 -184.5t-205.5 -77.5q-59 0 -110.5 14.5t-73.5 28.5l-21 15l29 174q9 -6 26 -16t64.5 -26t91.5 -16q39 0 63.5 21.5t24.5 52.5q0 23 -21 41t-53 18h-112l112 205q-184 29 -322.5 128.5
t-210 243.5t-71.5 312q0 164 67.5 315.5t181 262.5t272.5 177.5t333 66.5q140 0 256.5 -35.5t193.5 -92t134.5 -133t87 -150.5t43.5 -153h-387q-38 95 -123.5 155t-226.5 60q-180 0 -306 -129.5t-126 -334.5q0 -158 101.5 -256.5t270.5 -98.5q58 0 110.5 13.5t90 35.5
t69.5 48t52.5 52t35.5 48t21 36l6 13h396q-4 -12 -12.5 -33.5t-41.5 -83.5t-72.5 -118t-108 -124.5t-146 -117.5t-188.5 -83t-234 -34z" />
    <glyph glyph-name="Egrave" unicode="&#xc8;" 
d="M573 348h727l-61 -348h-1106l252 1434h1106l-61 -349h-728l-36 -215h583l-55 -307h-584zM639 1925h348l98 -317h-235l-213 307z" />
    <glyph glyph-name="Eacute" unicode="&#xc9;" 
d="M573 348h727l-61 -348h-1106l252 1434h1106l-61 -349h-728l-36 -215h583l-55 -307h-584zM1028 1925h348l-2 -10l-319 -307h-236z" />
    <glyph glyph-name="Ecircumflex" unicode="&#xca;" 
d="M573 348h727l-61 -348h-1106l252 1434h1106l-61 -349h-728l-36 -215h583l-55 -307h-584zM864 1925h277l172 -307l-2 -10h-232l-88 143h-30l-138 -143h-239l2 10z" />
    <glyph glyph-name="Edieresis" unicode="&#xcb;" 
d="M573 348h727l-61 -348h-1106l252 1434h1106l-61 -349h-728l-36 -215h583l-55 -307h-584zM745 1587q-66 0 -108.5 42.5t-42.5 105.5q0 75 52 127.5t124 52.5q66 0 109 -42.5t43 -105.5q0 -75 -52.5 -127.5t-124.5 -52.5zM1165 1587q-66 0 -108.5 42.5t-42.5 105.5
q0 75 52 127.5t124 52.5q66 0 108.5 -42.5t42.5 -105.5q0 -75 -52.5 -127.5t-123.5 -52.5z" />
    <glyph glyph-name="Igrave" unicode="&#xcc;" horiz-adv-x="645" 
d="M764 1434l-252 -1434h-379l252 1434h379zM260 1925h348l99 -317h-236l-213 307z" />
    <glyph glyph-name="Iacute" unicode="&#xcd;" horiz-adv-x="645" 
d="M764 1434l-252 -1434h-379l252 1434h379zM690 1925h348l-2 -10l-319 -307h-236z" />
    <glyph glyph-name="Icircumflex" unicode="&#xce;" horiz-adv-x="645" 
d="M764 1434l-252 -1434h-379l252 1434h379zM504 1925h276l172 -307l-2 -10h-231l-88 143h-31l-137 -143h-240l2 10z" />
    <glyph glyph-name="Idieresis" unicode="&#xcf;" horiz-adv-x="645" 
d="M764 1434l-252 -1434h-379l252 1434h379zM397 1587q-66 0 -108.5 42.5t-42.5 105.5q0 75 52 127.5t124 52.5q66 0 108.5 -42.5t42.5 -105.5q0 -75 -52.5 -127.5t-123.5 -52.5zM817 1587q-66 0 -108.5 42.5t-42.5 105.5q0 75 52 127.5t124 52.5q66 0 108.5 -42.5
t42.5 -105.5q0 -75 -52.5 -127.5t-123.5 -52.5z" />
    <glyph glyph-name="Eth" unicode="&#xd0;" horiz-adv-x="1597" 
d="M182 860h144l100 574h496q158 0 295.5 -51t233 -139t150 -210t54.5 -260q0 -160 -64 -303.5t-174.5 -246.5t-265.5 -163.5t-330 -60.5h-647l100 573h-143zM881 1085h-138l-38 -225h266l-51 -287h-267l-39 -225h234q184 0 295.5 113t111.5 303q0 141 -98 231t-276 90z" />
    <glyph glyph-name="Ntilde" unicode="&#xd1;" horiz-adv-x="1597" 
d="M1024 0l-362 901h-21l-2 -184l-127 -717h-379l252 1434h440l365 -902h20l2 185l125 717h379l-252 -1434h-440zM963 1905q48 0 88.5 -14.5t62.5 -32t48.5 -32t49.5 -14.5t40 14.5t22 37.5l6 30h195l-19 -102q-17 -93 -77 -144t-152 -51q-48 0 -89 14.5t-63 32t-48.5 32
t-49.5 14.5t-40 -14.5t-22 -37.5l-6 -30h-192l18 102q17 93 76.5 144t151.5 51z" />
    <glyph glyph-name="Ograve" unicode="&#xd2;" horiz-adv-x="1740" 
d="M586 662q0 -158 101.5 -256.5t270.5 -98.5q180 0 306.5 130t126.5 335q0 158 -102 256t-271 98q-180 0 -306 -129.5t-126 -334.5zM186 653q0 164 67.5 315.5t181 262.5t272.5 177.5t333 66.5q168 0 310.5 -56t238 -151t148.5 -221.5t53 -266.5q0 -164 -67 -315t-181 -262
t-273 -177.5t-333 -66.5q-169 0 -311 55.5t-237.5 150.5t-148.5 221.5t-53 266.5zM762 1925h348l98 -317h-235l-213 307z" />
    <glyph glyph-name="Oacute" unicode="&#xd3;" horiz-adv-x="1740" 
d="M586 662q0 -158 101.5 -256.5t270.5 -98.5q180 0 306.5 130t126.5 335q0 158 -102 256t-271 98q-180 0 -306 -129.5t-126 -334.5zM186 653q0 164 67.5 315.5t181 262.5t272.5 177.5t333 66.5q168 0 310.5 -56t238 -151t148.5 -221.5t53 -266.5q0 -164 -67 -315t-181 -262
t-273 -177.5t-333 -66.5q-169 0 -311 55.5t-237.5 150.5t-148.5 221.5t-53 266.5zM1163 1925h348l-2 -10l-319 -307h-236z" />
    <glyph glyph-name="Ocircumflex" unicode="&#xd4;" horiz-adv-x="1740" 
d="M586 662q0 -158 101.5 -256.5t270.5 -98.5q180 0 306.5 130t126.5 335q0 158 -102 256t-271 98q-180 0 -306 -129.5t-126 -334.5zM186 653q0 164 67.5 315.5t181 262.5t272.5 177.5t333 66.5q168 0 310.5 -56t238 -151t148.5 -221.5t53 -266.5q0 -164 -67 -315t-181 -262
t-273 -177.5t-333 -66.5q-169 0 -311 55.5t-237.5 150.5t-148.5 221.5t-53 266.5zM999 1925h277l172 -307l-2 -10h-232l-88 143h-30l-138 -143h-239l2 10z" />
    <glyph glyph-name="Otilde" unicode="&#xd5;" horiz-adv-x="1740" 
d="M586 662q0 -158 101.5 -256.5t270.5 -98.5q180 0 306.5 130t126.5 335q0 158 -102 256t-271 98q-180 0 -306 -129.5t-126 -334.5zM186 653q0 164 67.5 315.5t181 262.5t272.5 177.5t333 66.5q168 0 310.5 -56t238 -151t148.5 -221.5t53 -266.5q0 -164 -67 -315t-181 -262
t-273 -177.5t-333 -66.5q-169 0 -311 55.5t-237.5 150.5t-148.5 221.5t-53 266.5zM985 1905q48 0 89 -14.5t63 -32t48.5 -32t49.5 -14.5t39.5 14.5t21.5 37.5l7 30h194l-18 -102q-17 -92 -77.5 -143.5t-152.5 -51.5q-48 0 -89 14.5t-63 32t-48.5 32t-49.5 14.5t-39.5 -14.5
t-21.5 -37.5l-6 -30h-193l19 102q17 93 76 144t151 51z" />
    <glyph glyph-name="Odieresis" unicode="&#xd6;" horiz-adv-x="1740" 
d="M586 662q0 -158 101.5 -256.5t270.5 -98.5q180 0 306.5 130t126.5 335q0 158 -102 256t-271 98q-180 0 -306 -129.5t-126 -334.5zM186 653q0 164 67.5 315.5t181 262.5t272.5 177.5t333 66.5q168 0 310.5 -56t238 -151t148.5 -221.5t53 -266.5q0 -164 -67 -315t-181 -262
t-273 -177.5t-333 -66.5q-169 0 -311 55.5t-237.5 150.5t-148.5 221.5t-53 266.5zM901 1587q-66 0 -108.5 42.5t-42.5 105.5q0 75 52 127.5t124 52.5q66 0 108.5 -42.5t42.5 -105.5q0 -75 -52.5 -127.5t-123.5 -52.5zM1321 1587q-67 0 -109.5 42.5t-42.5 105.5
q0 75 52.5 127.5t124.5 52.5q66 0 108.5 -42.5t42.5 -105.5q0 -75 -52.5 -127.5t-123.5 -52.5z" />
    <glyph glyph-name="multiply" unicode="&#xd7;" horiz-adv-x="1105" 
d="M236 379l235 235l-235 236l204 205l236 -236l235 236l205 -205l-235 -236l235 -235l-205 -205l-235 236l-236 -236z" />
    <glyph glyph-name="Oslash" unicode="&#xd8;" horiz-adv-x="1740" 
d="M80 217l180 121q-74 142 -74 315q0 164 67.5 315.5t181 262.5t272.5 177.5t333 66.5q180 0 327 -62.5t247 -173.5l323 215l-41 -237l-182 -121q76 -149 76 -316q0 -164 -67 -315t-181 -262t-273 -177.5t-333 -66.5q-181 0 -327.5 62.5t-248.5 173.5l-321 -215zM1391 772
q0 48 -13 98l-694 -460q98 -103 274 -103q180 0 306.5 130t126.5 335zM586 662q0 -54 12 -101l694 463q-102 102 -274 102q-180 0 -306 -129.5t-126 -334.5z" />
    <glyph glyph-name="Ugrave" unicode="&#xd9;" horiz-adv-x="1536" 
d="M745 1434l-145 -826q-25 -145 46.5 -223t197.5 -78q108 0 183 67t97 187l154 873h379l-164 -914q-46 -259 -223 -410t-441 -151q-166 0 -294.5 52t-203.5 143t-103 214t-3 265l142 801h378zM719 1925h348l98 -317h-235l-213 307z" />
    <glyph glyph-name="Uacute" unicode="&#xda;" horiz-adv-x="1536" 
d="M745 1434l-145 -826q-25 -145 46.5 -223t197.5 -78q108 0 183 67t97 187l154 873h379l-164 -914q-46 -259 -223 -410t-441 -151q-166 0 -294.5 52t-203.5 143t-103 214t-3 265l142 801h378zM1102 1925h348l-2 -10l-320 -307h-235z" />
    <glyph glyph-name="Ucircumflex" unicode="&#xdb;" horiz-adv-x="1536" 
d="M745 1434l-145 -826q-25 -145 46.5 -223t197.5 -78q108 0 183 67t97 187l154 873h379l-164 -914q-46 -259 -223 -410t-441 -151q-166 0 -294.5 52t-203.5 143t-103 214t-3 265l142 801h378zM948 1925h277l172 -307l-2 -10h-232l-88 143h-31l-137 -143h-239l2 10z" />
    <glyph glyph-name="Udieresis" unicode="&#xdc;" horiz-adv-x="1536" 
d="M745 1434l-145 -826q-25 -145 46.5 -223t197.5 -78q108 0 183 67t97 187l154 873h379l-164 -914q-46 -259 -223 -410t-441 -151q-166 0 -294.5 52t-203.5 143t-103 214t-3 265l142 801h378zM827 1587q-66 0 -108.5 42.5t-42.5 105.5q0 75 52 127.5t124 52.5
q66 0 109 -42.5t43 -105.5q0 -75 -52.5 -127.5t-124.5 -52.5zM1247 1587q-66 0 -108.5 42.5t-42.5 105.5q0 75 52 127.5t124 52.5q66 0 108.5 -42.5t42.5 -105.5q0 -75 -52.5 -127.5t-123.5 -52.5z" />
    <glyph glyph-name="Yacute" unicode="&#xdd;" horiz-adv-x="1402" 
d="M954 512l-90 -512h-379l90 512l-370 922h389l209 -553h31l405 553h410zM997 1925h349l-3 -10l-319 -307h-236z" />
    <glyph glyph-name="Thorn" unicode="&#xde;" horiz-adv-x="1576" 
d="M1034 881h-366l-56 -308h437q198 0 198 168q0 62 -55 101t-158 39zM729 1229h356q243 0 398 -133.5t155 -331.5q0 -150 -77.5 -273t-216.5 -194.5t-312 -71.5h-481l-39 -225h-379l252 1434h379z" />
    <glyph glyph-name="germandbls" unicode="&#xdf;" horiz-adv-x="1290" 
d="M690 604l53 297h19q72 0 121 44t49 108q0 53 -38.5 89t-100.5 36q-61 0 -105 -36.5t-53 -92.5l-184 -1049h-349l189 1090q28 167 169.5 276t348.5 109q115 0 209.5 -31t154.5 -83t92.5 -116t32.5 -133q0 -76 -26.5 -136.5t-64 -93t-75 -53.5t-64.5 -27l-26 -7l-4 -21
q6 -1 15.5 -3.5t37 -13.5t52.5 -25.5t55.5 -40.5t52.5 -57.5t37 -79t15 -101.5q0 -202 -136.5 -327.5t-363.5 -125.5h-219l53 297h131q76 0 129 48t53 114q0 61 -48.5 103t-123.5 42h-88z" />
    <glyph glyph-name="agrave" unicode="&#xe0;" 
d="M864 0l23 133h-17q-5 -7 -14.5 -18t-41 -39t-65.5 -50t-87 -39.5t-107 -17.5q-180 0 -296 130.5t-116 340.5q0 148 46.5 274.5t123 208.5t171.5 127.5t194 45.5q69 0 128.5 -20t94 -48t59.5 -58t34.5 -48t9.5 -21h20l29 164h348l-189 -1065h-348zM709 266
q105 0 178.5 84.5t73.5 235.5q0 101 -56 157t-151 56q-105 0 -178.5 -84.5t-73.5 -235.5q0 -101 56 -157t151 -56zM539 1577h348l98 -317h-235l-213 307z" />
    <glyph glyph-name="aacute" unicode="&#xe1;" 
d="M864 0l23 133h-17q-5 -7 -14.5 -18t-41 -39t-65.5 -50t-87 -39.5t-107 -17.5q-180 0 -296 130.5t-116 340.5q0 148 46.5 274.5t123 208.5t171.5 127.5t194 45.5q69 0 128.5 -20t94 -48t59.5 -58t34.5 -48t9.5 -21h20l29 164h348l-189 -1065h-348zM709 266
q105 0 178.5 84.5t73.5 235.5q0 101 -56 157t-151 56q-105 0 -178.5 -84.5t-73.5 -235.5q0 -101 56 -157t151 -56zM895 1577h348l-2 -10l-319 -307h-236z" />
    <glyph glyph-name="acircumflex" unicode="&#xe2;" 
d="M864 0l23 133h-17q-5 -7 -14.5 -18t-41 -39t-65.5 -50t-87 -39.5t-107 -17.5q-180 0 -296 130.5t-116 340.5q0 148 46.5 274.5t123 208.5t171.5 127.5t194 45.5q69 0 128.5 -20t94 -48t59.5 -58t34.5 -48t9.5 -21h20l29 164h348l-189 -1065h-348zM709 266
q105 0 178.5 84.5t73.5 235.5q0 101 -56 157t-151 56q-105 0 -178.5 -84.5t-73.5 -235.5q0 -101 56 -157t151 -56zM762 1577h276l172 -307l-2 -10h-231l-88 143h-31l-137 -143h-240l2 10z" />
    <glyph glyph-name="atilde" unicode="&#xe3;" 
d="M864 0l23 133h-17q-5 -7 -14.5 -18t-41 -39t-65.5 -50t-87 -39.5t-107 -17.5q-180 0 -296 130.5t-116 340.5q0 148 46.5 274.5t123 208.5t171.5 127.5t194 45.5q69 0 128.5 -20t94 -48t59.5 -58t34.5 -48t9.5 -21h20l29 164h348l-189 -1065h-348zM709 266
q105 0 178.5 84.5t73.5 235.5q0 101 -56 157t-151 56q-105 0 -178.5 -84.5t-73.5 -235.5q0 -101 56 -157t151 -56zM737 1546q48 0 89 -14.5t63 -31.5t48.5 -31.5t49.5 -14.5t40.5 14t21.5 37l6 31h194l-18 -102q-17 -92 -77.5 -143.5t-152.5 -51.5q-48 0 -88.5 14.5
t-62.5 31.5t-48.5 31.5t-49.5 14.5t-40.5 -14t-21.5 -37l-6 -31h-192l18 103q17 93 76 143.5t151 50.5z" />
    <glyph glyph-name="adieresis" unicode="&#xe4;" 
d="M864 0l23 133h-17q-5 -7 -14.5 -18t-41 -39t-65.5 -50t-87 -39.5t-107 -17.5q-180 0 -296 130.5t-116 340.5q0 148 46.5 274.5t123 208.5t171.5 127.5t194 45.5q69 0 128.5 -20t94 -48t59.5 -58t34.5 -48t9.5 -21h20l29 164h348l-189 -1065h-348zM709 266
q105 0 178.5 84.5t73.5 235.5q0 101 -56 157t-151 56q-105 0 -178.5 -84.5t-73.5 -235.5q0 -101 56 -157t151 -56zM643 1239q-67 0 -109 42.5t-42 104.5q0 76 52.5 128.5t123.5 52.5q66 0 108.5 -42.5t42.5 -105.5q0 -75 -52.5 -127.5t-123.5 -52.5zM1063 1239
q-67 0 -109.5 42.5t-42.5 104.5q0 76 52.5 128.5t123.5 52.5q67 0 109.5 -42.5t42.5 -105.5q0 -75 -52.5 -127.5t-123.5 -52.5z" />
    <glyph glyph-name="aring" unicode="&#xe5;" 
d="M864 0l23 133h-17q-5 -7 -14.5 -18t-41 -39t-65.5 -50t-87 -39.5t-107 -17.5q-180 0 -296 130.5t-116 340.5q0 148 46.5 274.5t123 208.5t171.5 127.5t194 45.5q69 0 128.5 -20t94 -48t59.5 -58t34.5 -48t9.5 -21h20l29 164h348l-189 -1065h-348zM709 266
q105 0 178.5 84.5t73.5 235.5q0 101 -56 157t-151 56q-105 0 -178.5 -84.5t-73.5 -235.5q0 -101 56 -157t151 -56zM856 1188q-104 0 -167.5 61t-63.5 154q0 109 76 182.5t186 73.5q104 0 167.5 -61t63.5 -154q0 -109 -76 -182.5t-186 -73.5zM862 1331q42 0 71.5 28.5
t29.5 70.5q0 36 -22.5 61t-59.5 25q-42 0 -71.5 -28.5t-29.5 -70.5q0 -36 22.5 -61t59.5 -25z" />
    <glyph glyph-name="ae" unicode="&#xe6;" horiz-adv-x="2011" 
d="M539 -31q-191 0 -303.5 81.5t-112.5 203.5q0 168 114.5 274.5t319.5 106.5h356q3 6 5 18q11 73 -29 119.5t-131 46.5q-36 0 -67 -10.5t-49.5 -25.5t-32 -30t-18.5 -25l-5 -11h-355q2 8 6.5 21.5t23 53t42.5 75.5t67.5 79.5t95.5 75t129 53t165 21.5q77 0 141.5 -18
t102.5 -43.5t65 -51t37 -43.5l10 -18h21q5 7 14 19t43.5 42t75 52.5t109 41.5t145.5 19q151 0 271 -70.5t184.5 -188t64.5 -257.5q0 -41 -10 -109h-799q4 -107 57.5 -166t145.5 -59q41 0 77 11.5t58 28t38 33t23 27.5l6 12h375q-3 -8 -9 -22t-29 -54.5t-51 -77t-77.5 -81.5
t-106 -77.5t-138 -54.5t-172.5 -22q-80 0 -151.5 22t-116 53.5t-78 63.5t-48.5 54l-14 22h-20q-31 -37 -69 -70t-95 -68t-135 -56t-166 -21zM887 471h-264q-61 0 -96 -31.5t-35 -91.5q0 -102 155 -102q103 0 165.5 61t74.5 164zM1268 645h422q-5 68 -60.5 121t-130.5 53
q-78 0 -139.5 -45.5t-91.5 -128.5z" />
    <glyph glyph-name="ccedilla" unicode="&#xe7;" horiz-adv-x="1239" 
d="M1270 410q-2 -9 -7.5 -24t-26 -59.5t-46.5 -85t-72.5 -90.5t-100.5 -87t-134 -64t-170 -31l-39 -67q6 -1 16.5 -4t37.5 -16t47 -31t37 -53t17 -79q0 -107 -83.5 -184.5t-204.5 -77.5q-59 0 -110.5 14.5t-72.5 28.5l-22 15l29 174q9 -6 26 -16t64.5 -26t91.5 -16
q39 0 63.5 21.5t24.5 52.5q0 23 -21 41t-53 18h-112l118 216q-185 37 -304.5 171t-119.5 334q0 164 85 305t228 223.5t306 82.5q82 0 152 -15t120 -40.5t91 -58.5t67 -69.5t46 -73.5t29.5 -70t15.5 -58.5t7 -40.5l2 -15h-356q-1 6 -4.5 15.5t-17.5 34.5t-33 44t-54.5 34.5
t-78.5 15.5q-95 0 -171.5 -87t-76.5 -223q0 -103 55 -163t139 -60q44 0 81.5 15t60.5 36t39.5 42t22.5 36l7 15h365z" />
    <glyph glyph-name="egrave" unicode="&#xe8;" horiz-adv-x="1280" 
d="M700 -31q-242 0 -399.5 145.5t-157.5 372.5q0 122 51.5 235t136.5 194.5t201 130.5t240 49q121 0 223.5 -41t171.5 -111.5t107.5 -164.5t38.5 -199q0 -41 -10 -109h-809q5 -108 59.5 -166.5t153.5 -58.5q41 0 77 11.5t58 28t38 33t22 27.5l7 12h375q-3 -8 -9 -22
t-29 -54.5t-51.5 -77t-77.5 -81.5t-106 -77.5t-138.5 -54.5t-172.5 -22zM526 645h432q-5 68 -60 121t-130 53q-85 0 -148 -45t-94 -129zM498 1577h348l98 -317h-235l-213 307z" />
    <glyph glyph-name="eacute" unicode="&#xe9;" horiz-adv-x="1280" 
d="M700 -31q-242 0 -399.5 145.5t-157.5 372.5q0 122 51.5 235t136.5 194.5t201 130.5t240 49q121 0 223.5 -41t171.5 -111.5t107.5 -164.5t38.5 -199q0 -41 -10 -109h-809q5 -108 59.5 -166.5t153.5 -58.5q41 0 77 11.5t58 28t38 33t22 27.5l7 12h375q-3 -8 -9 -22
t-29 -54.5t-51.5 -77t-77.5 -81.5t-106 -77.5t-138.5 -54.5t-172.5 -22zM526 645h432q-5 68 -60 121t-130 53q-85 0 -148 -45t-94 -129zM887 1577h348l-2 -10l-320 -307h-235z" />
    <glyph glyph-name="ecircumflex" unicode="&#xea;" horiz-adv-x="1280" 
d="M700 -31q-242 0 -399.5 145.5t-157.5 372.5q0 122 51.5 235t136.5 194.5t201 130.5t240 49q121 0 223.5 -41t171.5 -111.5t107.5 -164.5t38.5 -199q0 -41 -10 -109h-809q5 -108 59.5 -166.5t153.5 -58.5q41 0 77 11.5t58 28t38 33t22 27.5l7 12h375q-3 -8 -9 -22
t-29 -54.5t-51.5 -77t-77.5 -81.5t-106 -77.5t-138.5 -54.5t-172.5 -22zM526 645h432q-5 68 -60 121t-130 53q-85 0 -148 -45t-94 -129zM733 1577h277l172 -307l-2 -10h-232l-88 143h-31l-137 -143h-239l2 10z" />
    <glyph glyph-name="edieresis" unicode="&#xeb;" horiz-adv-x="1280" 
d="M700 -31q-242 0 -399.5 145.5t-157.5 372.5q0 122 51.5 235t136.5 194.5t201 130.5t240 49q121 0 223.5 -41t171.5 -111.5t107.5 -164.5t38.5 -199q0 -41 -10 -109h-809q5 -108 59.5 -166.5t153.5 -58.5q41 0 77 11.5t58 28t38 33t22 27.5l7 12h375q-3 -8 -9 -22
t-29 -54.5t-51.5 -77t-77.5 -81.5t-106 -77.5t-138.5 -54.5t-172.5 -22zM526 645h432q-5 68 -60 121t-130 53q-85 0 -148 -45t-94 -129zM623 1241q-67 0 -109.5 42.5t-42.5 105.5q0 75 52.5 127.5t123.5 52.5q67 0 109.5 -42.5t42.5 -105.5q0 -75 -52.5 -127.5t-123.5 -52.5
zM1042 1241q-66 0 -108.5 42.5t-42.5 105.5q0 75 52.5 127.5t123.5 52.5q67 0 109.5 -42.5t42.5 -105.5q0 -75 -52.5 -127.5t-124.5 -52.5z" />
    <glyph glyph-name="igrave" unicode="&#xec;" horiz-adv-x="552" 
d="M639 1065l-188 -1065h-349l189 1065h348zM143 1577h349l98 -317h-236l-213 307z" />
    <glyph glyph-name="iacute" unicode="&#xed;" horiz-adv-x="552" 
d="M639 1065l-188 -1065h-349l189 1065h348zM578 1577h348l-2 -10l-320 -307h-235z" />
    <glyph glyph-name="icircumflex" unicode="&#xee;" horiz-adv-x="552" 
d="M639 1065l-188 -1065h-349l189 1065h348zM395 1577h277l172 -307l-2 -10h-232l-88 143h-30l-138 -143h-239l2 10z" />
    <glyph glyph-name="idieresis" unicode="&#xef;" horiz-adv-x="552" 
d="M639 1065l-188 -1065h-349l189 1065h348zM295 1239q-67 0 -109.5 42.5t-42.5 104.5q0 76 52.5 128.5t123.5 52.5q67 0 109.5 -42.5t42.5 -105.5q0 -75 -52.5 -127.5t-123.5 -52.5zM715 1239q-67 0 -109.5 42.5t-42.5 104.5q0 76 52.5 128.5t123.5 52.5q67 0 109.5 -42.5
t42.5 -105.5q0 -75 -52.5 -127.5t-123.5 -52.5z" />
    <glyph glyph-name="eth" unicode="&#xf0;" horiz-adv-x="1269" 
d="M842 1147l-260 -143l28 163l138 82l-152 185h358l52 -62l249 144l-28 -164l-148 -78q40 -50 50.5 -63t45.5 -60.5t47 -70.5t36 -70t33 -83.5t17.5 -87t8.5 -102.5q0 -178 -51.5 -324.5t-140 -242.5t-205 -148.5t-248.5 -52.5q-250 0 -394.5 129.5t-144.5 325.5
q0 149 72 276t192.5 200t259.5 73q204 0 311 -134q18 -23 40 -65h20q0 59 -28.5 126t-60.5 114t-97 133zM686 256q98 0 169 72.5t71 183.5q0 87 -55.5 141t-145.5 54q-98 0 -169 -72.5t-71 -183.5q0 -87 55.5 -141t145.5 -54z" />
    <glyph glyph-name="ntilde" unicode="&#xf1;" horiz-adv-x="1280" 
d="M1298 621l-110 -621h-348l106 600q16 95 -26.5 154t-141.5 59q-80 0 -144 -60.5t-81 -158.5l-102 -594h-349l189 1065h348l-23 -133h17q5 7 14 18t40 39t65 50t86.5 39.5t107.5 17.5q206 0 298 -133t54 -342zM743 1546q48 0 89 -14.5t63 -31.5t48.5 -31.5t49.5 -14.5
t40.5 14t21.5 37l6 31h194l-18 -102q-17 -93 -77 -144t-152 -51q-48 0 -89 14.5t-63 31.5t-48.5 31.5t-49.5 14.5t-40.5 -14t-21.5 -37l-6 -31h-192l18 103q17 93 76 143.5t151 50.5z" />
    <glyph glyph-name="ograve" unicode="&#xf2;" horiz-adv-x="1290" 
d="M500 489q0 -100 60.5 -161.5t156.5 -61.5q105 0 183.5 86t78.5 223q0 101 -60.5 162.5t-156.5 61.5q-105 0 -183.5 -86.5t-78.5 -223.5zM143 485q0 164 86.5 305t233.5 223.5t317 82.5q122 0 226.5 -41t176 -111t112 -164.5t40.5 -199.5q0 -164 -86.5 -305t-233.5 -223.5
t-317 -82.5q-122 0 -226.5 41t-176 111t-112 164.5t-40.5 199.5zM498 1567h348l98 -318h-235l-213 307z" />
    <glyph glyph-name="oacute" unicode="&#xf3;" horiz-adv-x="1290" 
d="M500 489q0 -100 60.5 -161.5t156.5 -61.5q105 0 183.5 86t78.5 223q0 101 -60.5 162.5t-156.5 61.5q-105 0 -183.5 -86.5t-78.5 -223.5zM143 485q0 164 86.5 305t233.5 223.5t317 82.5q122 0 226.5 -41t176 -111t112 -164.5t40.5 -199.5q0 -164 -86.5 -305t-233.5 -223.5
t-317 -82.5q-122 0 -226.5 41t-176 111t-112 164.5t-40.5 199.5zM891 1567h348l-2 -11l-319 -307h-236z" />
    <glyph glyph-name="ocircumflex" unicode="&#xf4;" horiz-adv-x="1290" 
d="M500 489q0 -100 60.5 -161.5t156.5 -61.5q105 0 183.5 86t78.5 223q0 101 -60.5 162.5t-156.5 61.5q-105 0 -183.5 -86.5t-78.5 -223.5zM143 485q0 164 86.5 305t233.5 223.5t317 82.5q122 0 226.5 -41t176 -111t112 -164.5t40.5 -199.5q0 -164 -86.5 -305t-233.5 -223.5
t-317 -82.5q-122 0 -226.5 41t-176 111t-112 164.5t-40.5 199.5zM731 1567h277l172 -307l-2 -11h-232l-88 144h-31l-137 -144h-239l2 11z" />
    <glyph glyph-name="otilde" unicode="&#xf5;" horiz-adv-x="1290" 
d="M500 489q0 -100 60.5 -161.5t156.5 -61.5q105 0 183.5 86t78.5 223q0 101 -60.5 162.5t-156.5 61.5q-105 0 -183.5 -86.5t-78.5 -223.5zM143 485q0 164 86.5 305t233.5 223.5t317 82.5q122 0 226.5 -41t176 -111t112 -164.5t40.5 -199.5q0 -164 -86.5 -305t-233.5 -223.5
t-317 -82.5q-122 0 -226.5 41t-176 111t-112 164.5t-40.5 199.5zM707 1546q48 0 88.5 -14.5t62.5 -31.5t48.5 -31.5t49.5 -14.5t40.5 14t21.5 37l6 31h195l-19 -102q-17 -93 -77 -144t-152 -51q-48 0 -89 14.5t-63 31.5t-48.5 31.5t-49.5 14.5t-40.5 -14t-21.5 -37l-6 -31
h-192l18 103q17 93 76.5 143.5t151.5 50.5z" />
    <glyph glyph-name="odieresis" unicode="&#xf6;" horiz-adv-x="1290" 
d="M500 489q0 -100 60.5 -161.5t156.5 -61.5q105 0 183.5 86t78.5 223q0 101 -60.5 162.5t-156.5 61.5q-105 0 -183.5 -86.5t-78.5 -223.5zM143 485q0 164 86.5 305t233.5 223.5t317 82.5q122 0 226.5 -41t176 -111t112 -164.5t40.5 -199.5q0 -164 -86.5 -305t-233.5 -223.5
t-317 -82.5q-122 0 -226.5 41t-176 111t-112 164.5t-40.5 199.5zM623 1239q-67 0 -109.5 42.5t-42.5 104.5q0 76 52.5 128.5t123.5 52.5q67 0 109.5 -42.5t42.5 -105.5q0 -75 -52.5 -127.5t-123.5 -52.5zM1042 1239q-66 0 -108.5 42.5t-42.5 104.5q0 76 52.5 128.5
t123.5 52.5q67 0 109.5 -42.5t42.5 -105.5q0 -75 -52.5 -127.5t-124.5 -52.5z" />
    <glyph glyph-name="divide" unicode="&#xf7;" horiz-adv-x="1105" 
d="M1106 461h-881v266h881v-266zM850 993q0 -70 -54 -122t-130 -52t-130.5 52t-54.5 122t54.5 122t130.5 52t130 -52t54 -122zM850 195q0 -70 -54 -122.5t-130 -52.5t-130.5 52.5t-54.5 122.5t54.5 122t130.5 52t130 -52t54 -122z" />
    <glyph glyph-name="oslash" unicode="&#xf8;" horiz-adv-x="1290" 
d="M90 211l98 63q-45 102 -45 211q0 164 86.5 305t233.5 223.5t317 82.5q126 0 232 -43.5t180 -120.5l235 153l-38 -231l-99 -63q45 -98 45 -211q0 -164 -86.5 -305t-233.5 -223.5t-317 -82.5q-250 0 -411 164l-236 -153zM500 489v-10l407 266q-61 54 -145 54
q-105 0 -183.5 -86.5t-78.5 -223.5zM979 575v11l-408 -267q63 -53 146 -53q105 0 183.5 86t78.5 223z" />
    <glyph glyph-name="ugrave" unicode="&#xf9;" horiz-adv-x="1290" 
d="M180 444l111 621h348l-107 -600q-16 -95 26.5 -154t141.5 -59q80 0 144.5 60.5t81.5 158.5l102 594h348l-188 -1065h-348l22 133h-16q-5 -7 -14 -18t-40 -39t-65 -50t-87 -39.5t-108 -17.5q-206 0 -298 133t-54 342zM537 1577h348l98 -317h-235l-213 307z" />
    <glyph glyph-name="uacute" unicode="&#xfa;" horiz-adv-x="1290" 
d="M180 444l111 621h348l-107 -600q-16 -95 26.5 -154t141.5 -59q80 0 144.5 60.5t81.5 158.5l102 594h348l-188 -1065h-348l22 133h-16q-5 -7 -14 -18t-40 -39t-65 -50t-87 -39.5t-108 -17.5q-206 0 -298 133t-54 342zM930 1577h348l-2 -10l-320 -307h-235z" />
    <glyph glyph-name="ucircumflex" unicode="&#xfb;" horiz-adv-x="1290" 
d="M180 444l111 621h348l-107 -600q-16 -95 26.5 -154t141.5 -59q80 0 144.5 60.5t81.5 158.5l102 594h348l-188 -1065h-348l22 133h-16q-5 -7 -14 -18t-40 -39t-65 -50t-87 -39.5t-108 -17.5q-206 0 -298 133t-54 342zM770 1577h277l172 -307l-2 -10h-232l-88 143h-31
l-137 -143h-240l3 10z" />
    <glyph glyph-name="udieresis" unicode="&#xfc;" horiz-adv-x="1290" 
d="M180 444l111 621h348l-107 -600q-16 -95 26.5 -154t141.5 -59q80 0 144.5 60.5t81.5 158.5l102 594h348l-188 -1065h-348l22 133h-16q-5 -7 -14 -18t-40 -39t-65 -50t-87 -39.5t-108 -17.5q-206 0 -298 133t-54 342zM651 1239q-67 0 -109 42.5t-42 104.5q0 76 52.5 128.5
t123.5 52.5q66 0 108.5 -42.5t42.5 -105.5q0 -75 -52.5 -127.5t-123.5 -52.5zM1071 1239q-67 0 -109 42.5t-42 104.5q0 76 52.5 128.5t123.5 52.5q66 0 108.5 -42.5t42.5 -105.5q0 -75 -52.5 -127.5t-123.5 -52.5z" />
    <glyph glyph-name="yacute" unicode="&#xfd;" horiz-adv-x="1177" 
d="M498 0h-226q-6 72 -39 464t-49 601h348l50 -768h61q65 149 188.5 426.5t151.5 341.5h369l-666 -1454h-369zM854 1577h348l-2 -10l-319 -307h-236z" />
    <glyph glyph-name="thorn" unicode="&#xfe;" 
d="M702 1434l-88 -502h17q5 7 14.5 18t41 39t65.5 50t87 39.5t107 17.5q180 0 296 -130.5t116 -340.5q0 -148 -46.5 -274.5t-123 -208.5t-171.5 -127.5t-194 -45.5q-69 0 -128 20t-94 48t-59.5 58t-34 48t-9.5 21h-21l-96 -553h-348l321 1823h348zM793 799
q-105 0 -178.5 -84.5t-73.5 -235.5q0 -101 56 -157t151 -56q105 0 178 84.5t73 235.5q0 101 -55.5 157t-150.5 56z" />
    <glyph glyph-name="ydieresis" unicode="&#xff;" horiz-adv-x="1177" 
d="M498 0h-226q-6 72 -39 464t-49 601h348l50 -768h61q65 149 188.5 426.5t151.5 341.5h369l-666 -1454h-369zM592 1239q-67 0 -109.5 42.5t-42.5 104.5q0 76 52.5 128.5t123.5 52.5q66 0 109 -42.5t43 -105.5q0 -75 -52 -127.5t-124 -52.5zM1012 1239q-67 0 -109.5 42.5
t-42.5 104.5q0 76 52.5 128.5t123.5 52.5q66 0 109 -42.5t43 -105.5q0 -75 -52 -127.5t-124 -52.5z" />
    <glyph glyph-name="Amacron" unicode="&#x100;" horiz-adv-x="1474" 
d="M1358 1434l137 -1434h-383l-20 287h-553l-123 -287h-396l642 1434h696zM883 1085l-205 -471h389l-41 471h-143zM674 1628l39 215h655l-39 -215h-655z" />
    <glyph glyph-name="amacron" unicode="&#x101;" 
d="M864 0l23 133h-17q-5 -7 -14.5 -18t-41 -39t-65.5 -50t-87 -39.5t-107 -17.5q-180 0 -296 130.5t-116 340.5q0 148 46.5 274.5t123 208.5t171.5 127.5t194 45.5q69 0 128.5 -20t94 -48t59.5 -58t34.5 -48t9.5 -21h20l29 164h348l-189 -1065h-348zM709 266
q105 0 178.5 84.5t73.5 235.5q0 101 -56 157t-151 56q-105 0 -178.5 -84.5t-73.5 -235.5q0 -101 56 -157t151 -56zM522 1270l39 215h656l-39 -215h-656z" />
    <glyph glyph-name="Abreve" unicode="&#x102;" horiz-adv-x="1474" 
d="M1358 1434l137 -1434h-383l-20 287h-553l-123 -287h-396l642 1434h696zM883 1085l-205 -471h389l-41 471h-143zM1024 1610q-162 0 -245 71t-83 187v26h209v-6q0 -37 33.5 -61.5t93.5 -24.5q53 0 84.5 26t34.5 66h205q-18 -140 -105 -212t-227 -72z" />
    <glyph glyph-name="abreve" unicode="&#x103;" 
d="M864 0l23 133h-17q-5 -7 -14.5 -18t-41 -39t-65.5 -50t-87 -39.5t-107 -17.5q-180 0 -296 130.5t-116 340.5q0 148 46.5 274.5t123 208.5t171.5 127.5t194 45.5q69 0 128.5 -20t94 -48t59.5 -58t34.5 -48t9.5 -21h20l29 164h348l-189 -1065h-348zM709 266
q105 0 178.5 84.5t73.5 235.5q0 101 -56 157t-151 56q-105 0 -178.5 -84.5t-73.5 -235.5q0 -101 56 -157t151 -56zM881 1262q-162 0 -245 71t-83 187v26h209v-6q0 -37 33.5 -61.5t93.5 -24.5q53 0 84.5 26t34.5 66h204q-18 -140 -104.5 -212t-226.5 -72z" />
    <glyph glyph-name="Aogonek" unicode="&#x104;" horiz-adv-x="1474" 
d="M1225 -522q-110 0 -178 48.5t-68 135.5q0 52 24.5 100.5t63 84t80.5 65t83.5 48.5t65 28.5t31.5 11.5h-215l-20 287h-553l-123 -287h-396l642 1434h696l137 -1434l-17 -8.5t-42.5 -23t-60 -36t-63.5 -45.5t-60.5 -52.5t-42.5 -56.5t-17 -59q0 -67 94 -67q27 0 56 5t44 10
l15 5l-29 -168q-61 -26 -147 -26zM883 1085l-205 -471h389l-41 471h-143z" />
    <glyph glyph-name="aogonek" unicode="&#x105;" 
d="M864 0l23 133h-17q-5 -7 -14.5 -18t-41 -39t-65.5 -50t-87 -39.5t-107 -17.5q-180 0 -296 130.5t-116 340.5q0 148 46.5 274.5t123 208.5t171.5 127.5t194 45.5q69 0 128.5 -20t94 -48t59.5 -58t34.5 -48t9.5 -21h20l29 164h348l-189 -1065l-17 -8.5t-42.5 -23t-60 -36
t-63.5 -45.5t-60.5 -52.5t-42.5 -56.5t-17 -59q0 -67 95 -67q27 0 55.5 5t43.5 10l15 5l-28 -168q-62 -26 -148 -26q-110 0 -178 48.5t-68 135.5q0 52 24.5 100.5t63 84t80.5 65t83.5 48.5t65 28.5t31.5 11.5h-180zM709 266q105 0 178.5 84.5t73.5 235.5q0 101 -56 157
t-151 56q-105 0 -178.5 -84.5t-73.5 -235.5q0 -101 56 -157t151 -56z" />
    <glyph glyph-name="Cacute" unicode="&#x106;" horiz-adv-x="1689" 
d="M932 -41q-169 0 -311 55.5t-237.5 150.5t-148.5 221.5t-53 266.5q0 164 67.5 315.5t181 262.5t272.5 177.5t333 66.5q140 0 256.5 -35.5t193.5 -92t134.5 -133t87 -150.5t43.5 -153h-387q-38 95 -123.5 155t-226.5 60q-180 0 -306 -129.5t-126 -334.5
q0 -158 101.5 -256.5t270.5 -98.5q58 0 110.5 13.5t90 35.5t69.5 48t52.5 52t35.5 48t21 36l6 13h396q-4 -12 -12.5 -33.5t-41.5 -83.5t-72.5 -118t-108 -124.5t-146 -117.5t-188.5 -83t-234 -34zM1143 1925h348l-2 -10l-320 -307h-235z" />
    <glyph glyph-name="cacute" unicode="&#x107;" horiz-adv-x="1239" 
d="M686 -31q-108 0 -206 36t-173 101t-119.5 163.5t-44.5 215.5q0 164 85 305t228 223.5t306 82.5q82 0 152 -15t120 -40.5t91 -58.5t67 -69.5t46 -73.5t29.5 -70t15.5 -58.5t7 -40.5l2 -15h-356q-1 6 -4.5 15.5t-17.5 34.5t-33 44t-54.5 34.5t-78.5 15.5q-95 0 -171.5 -87
t-76.5 -223q0 -103 55 -163t139 -60q44 0 81.5 15t60.5 36t39.5 42t22.5 36l7 15h365q-3 -9 -8 -25t-27 -62t-49.5 -87.5t-76.5 -92.5t-105.5 -87.5t-140 -61.5t-177.5 -25zM895 1577h348l-2 -10l-319 -307h-236z" />
    <glyph glyph-name="Ccircumflex" unicode="&#x108;" horiz-adv-x="1689" 
d="M932 -41q-169 0 -311 55.5t-237.5 150.5t-148.5 221.5t-53 266.5q0 164 67.5 315.5t181 262.5t272.5 177.5t333 66.5q140 0 256.5 -35.5t193.5 -92t134.5 -133t87 -150.5t43.5 -153h-387q-38 95 -123.5 155t-226.5 60q-180 0 -306 -129.5t-126 -334.5
q0 -158 101.5 -256.5t270.5 -98.5q58 0 110.5 13.5t90 35.5t69.5 48t52.5 52t35.5 48t21 36l6 13h396q-4 -12 -12.5 -33.5t-41.5 -83.5t-72.5 -118t-108 -124.5t-146 -117.5t-188.5 -83t-234 -34zM969 1925h276l172 -307l-2 -10h-231l-88 143h-31l-137 -143h-240l2 10z" />
    <glyph glyph-name="ccircumflex" unicode="&#x109;" horiz-adv-x="1239" 
d="M686 -31q-108 0 -206 36t-173 101t-119.5 163.5t-44.5 215.5q0 164 85 305t228 223.5t306 82.5q82 0 152 -15t120 -40.5t91 -58.5t67 -69.5t46 -73.5t29.5 -70t15.5 -58.5t7 -40.5l2 -15h-356q-1 6 -4.5 15.5t-17.5 34.5t-33 44t-54.5 34.5t-78.5 15.5q-95 0 -171.5 -87
t-76.5 -223q0 -103 55 -163t139 -60q44 0 81.5 15t60.5 36t39.5 42t22.5 36l7 15h365q-3 -9 -8 -25t-27 -62t-49.5 -87.5t-76.5 -92.5t-105.5 -87.5t-140 -61.5t-177.5 -25zM733 1577h277l172 -307l-2 -10h-232l-88 143h-31l-137 -143h-239l2 10z" />
    <glyph glyph-name="Ccaron" unicode="&#x10c;" horiz-adv-x="1689" 
d="M932 -41q-169 0 -311 55.5t-237.5 150.5t-148.5 221.5t-53 266.5q0 164 67.5 315.5t181 262.5t272.5 177.5t333 66.5q140 0 256.5 -35.5t193.5 -92t134.5 -133t87 -150.5t43.5 -153h-387q-38 95 -123.5 155t-226.5 60q-180 0 -306 -129.5t-126 -334.5
q0 -158 101.5 -256.5t270.5 -98.5q58 0 110.5 13.5t90 35.5t69.5 48t52.5 52t35.5 48t21 36l6 13h396q-4 -12 -12.5 -33.5t-41.5 -83.5t-72.5 -118t-108 -124.5t-146 -117.5t-188.5 -83t-234 -34zM1169 1608h-276l-172 307l2 10h231l88 -143h31l137 143h240l-2 -10z" />
    <glyph glyph-name="ccaron" unicode="&#x10d;" horiz-adv-x="1239" 
d="M686 -31q-108 0 -206 36t-173 101t-119.5 163.5t-44.5 215.5q0 164 85 305t228 223.5t306 82.5q82 0 152 -15t120 -40.5t91 -58.5t67 -69.5t46 -73.5t29.5 -70t15.5 -58.5t7 -40.5l2 -15h-356q-1 6 -4.5 15.5t-17.5 34.5t-33 44t-54.5 34.5t-78.5 15.5q-95 0 -171.5 -87
t-76.5 -223q0 -103 55 -163t139 -60q44 0 81.5 15t60.5 36t39.5 42t22.5 36l7 15h365q-3 -9 -8 -25t-27 -62t-49.5 -87.5t-76.5 -92.5t-105.5 -87.5t-140 -61.5t-177.5 -25zM940 1260h-276l-172 307l2 10h231l88 -143h31l137 143h240l-2 -10z" />
    <glyph glyph-name="Dcaron" unicode="&#x10e;" horiz-adv-x="1556" 
d="M840 1085h-138l-129 -737h234q184 0 295.5 113t111.5 303q0 141 -98 231t-276 90zM385 1434h496q158 0 295.5 -51t233 -139t150 -210t54.5 -260q0 -160 -64 -303.5t-174.5 -246.5t-265.5 -163.5t-330 -60.5h-647zM1114 1608h-276l-172 307l2 10h231l88 -143h31l137 143
h240l-2 -10z" />
    <glyph glyph-name="dcaron" unicode="&#x10f;" horiz-adv-x="1566" 
d="M864 0l23 133h-17q-5 -7 -14.5 -18t-41 -39t-65.5 -50t-87 -39.5t-107 -17.5q-180 0 -296 130.5t-116 340.5q0 148 46.5 274.5t123 208.5t171.5 127.5t194 45.5q69 0 128.5 -20t94 -48t59.5 -58t34.5 -48t9.5 -21h20l94 533h348l-254 -1434h-348zM709 266
q105 0 178.5 84.5t73.5 235.5q0 101 -56 157t-151 56q-105 0 -178.5 -84.5t-73.5 -235.5q0 -101 56 -157t151 -56zM1534 1276q0 78 52 128t124 50q71 0 111.5 -44t40.5 -134q0 -147 -88 -245.5t-242 -98.5h-31l23 123h22q55 0 90.5 25.5t44.5 66.5l5 20q-19 -6 -44 -6
q-53 0 -80.5 31t-27.5 84z" />
    <glyph glyph-name="Dcroat" unicode="&#x110;" horiz-adv-x="1597" 
d="M182 860h144l100 574h496q158 0 295.5 -51t233 -139t150 -210t54.5 -260q0 -160 -64 -303.5t-174.5 -246.5t-265.5 -163.5t-330 -60.5h-647l100 573h-143zM881 1085h-138l-38 -225h266l-51 -287h-267l-39 -225h234q184 0 295.5 113t111.5 303q0 141 -98 231t-276 90z" />
    <glyph glyph-name="dcroat" unicode="&#x111;" horiz-adv-x="1361" 
d="M1407 1106l-195 -1106h-348l19 115h-21q-4 -6 -12.5 -16t-37.5 -35t-61.5 -44t-84.5 -35t-107 -16q-183 0 -299.5 123.5t-116.5 321.5q0 133 44 247.5t116.5 190.5t165 119t190.5 43q52 0 98.5 -11t78.5 -28t59 -38t43.5 -41.5t28 -37.5t15.5 -28l5 -11h21l51 287h-225
l38 215h226l20 113h348l-20 -113h133l-39 -215h-133zM702 266q105 0 176.5 70.5t71.5 189.5q0 89 -53.5 140t-146.5 51q-105 0 -176.5 -70.5t-71.5 -189.5q0 -89 53.5 -140t146.5 -51z" />
    <glyph glyph-name="Emacron" unicode="&#x112;" 
d="M573 348h727l-61 -348h-1106l252 1434h1106l-61 -349h-728l-36 -215h583l-55 -307h-584zM645 1628l39 215h655l-39 -215h-655z" />
    <glyph glyph-name="emacron" unicode="&#x113;" horiz-adv-x="1280" 
d="M700 -31q-242 0 -399.5 145.5t-157.5 372.5q0 122 51.5 235t136.5 194.5t201 130.5t240 49q121 0 223.5 -41t171.5 -111.5t107.5 -164.5t38.5 -199q0 -41 -10 -109h-809q5 -108 59.5 -166.5t153.5 -58.5q41 0 77 11.5t58 28t38 33t22 27.5l7 12h375q-3 -8 -9 -22
t-29 -54.5t-51.5 -77t-77.5 -81.5t-106 -77.5t-138.5 -54.5t-172.5 -22zM526 645h432q-5 68 -60 121t-130 53q-85 0 -148 -45t-94 -129zM494 1276l38 215h656l-39 -215h-655z" />
    <glyph glyph-name="Edotaccent" unicode="&#x116;" 
d="M573 348h727l-61 -348h-1106l252 1434h1106l-61 -349h-728l-36 -215h583l-55 -307h-584zM956 1556q-83 0 -130.5 42.5t-47.5 111.5q0 86 54.5 140.5t138.5 54.5q83 0 130.5 -42.5t47.5 -111.5q0 -86 -54.5 -140.5t-138.5 -54.5z" />
    <glyph glyph-name="edotaccent" unicode="&#x117;" horiz-adv-x="1280" 
d="M700 -31q-242 0 -399.5 145.5t-157.5 372.5q0 122 51.5 235t136.5 194.5t201 130.5t240 49q121 0 223.5 -41t171.5 -111.5t107.5 -164.5t38.5 -199q0 -41 -10 -109h-809q5 -108 59.5 -166.5t153.5 -58.5q41 0 77 11.5t58 28t38 33t22 27.5l7 12h375q-3 -8 -9 -22
t-29 -54.5t-51.5 -77t-77.5 -81.5t-106 -77.5t-138.5 -54.5t-172.5 -22zM526 645h432q-5 68 -60 121t-130 53q-85 0 -148 -45t-94 -129zM831 1221q-83 0 -130.5 42t-47.5 111q0 86 54.5 140.5t138.5 54.5q83 0 130.5 -42.5t47.5 -111.5q0 -86 -54.5 -140t-138.5 -54z" />
    <glyph glyph-name="Eogonek" unicode="&#x118;" 
d="M969 -522q-110 0 -178 48.5t-68 135.5q0 61 35 118.5t82 94.5t101 67t85.5 42.5t42.5 15.5h-936l252 1434h1106l-61 -349h-728l-36 -215h583l-55 -307h-584l-37 -215h727l-61 -348l-17 -8.5t-42.5 -23t-60 -36t-63.5 -45.5t-60.5 -52.5t-42.5 -56.5t-17 -59q0 -67 94 -67
q27 0 56 5t44 10l15 5l-29 -168q-61 -26 -147 -26z" />
    <glyph glyph-name="eogonek" unicode="&#x119;" horiz-adv-x="1280" 
d="M635 -522q-110 0 -178 48.5t-68 135.5q0 56 27.5 107.5t73.5 90.5t87 64.5t87 46.5q-229 12 -375 155.5t-146 360.5q0 122 51.5 235t136.5 194.5t201 130.5t240 49q121 0 223.5 -41t171.5 -111.5t107.5 -164.5t38.5 -199q0 -41 -10 -109h-809q5 -108 59.5 -166.5
t153.5 -58.5q41 0 77 11.5t58 28t38 33t22 27.5l7 12h375q-4 -11 -12 -29.5t-39.5 -69t-71 -94.5t-109 -91.5t-149.5 -73.5q-10 -4 -37 -18.5t-74.5 -44.5t-88 -62.5t-71 -75t-30.5 -80.5q0 -67 94 -67q27 0 56 5t44 10l15 5l-29 -168q-61 -26 -147 -26zM526 645h432
q-5 68 -60 121t-130 53q-85 0 -148 -45t-94 -129z" />
    <glyph glyph-name="Ecaron" unicode="&#x11a;" 
d="M573 348h727l-61 -348h-1106l252 1434h1106l-61 -349h-728l-36 -215h583l-55 -307h-584zM1094 1608h-277l-172 307l2 10h232l88 -143h30l138 143h239l-2 -10z" />
    <glyph glyph-name="ecaron" unicode="&#x11b;" horiz-adv-x="1280" 
d="M700 -31q-242 0 -399.5 145.5t-157.5 372.5q0 122 51.5 235t136.5 194.5t201 130.5t240 49q121 0 223.5 -41t171.5 -111.5t107.5 -164.5t38.5 -199q0 -41 -10 -109h-809q5 -108 59.5 -166.5t153.5 -58.5q41 0 77 11.5t58 28t38 33t22 27.5l7 12h375q-3 -8 -9 -22
t-29 -54.5t-51.5 -77t-77.5 -81.5t-106 -77.5t-138.5 -54.5t-172.5 -22zM526 645h432q-5 68 -60 121t-130 53q-85 0 -148 -45t-94 -129zM938 1260h-276l-173 307l3 10h231l88 -143h31l137 143h240l-2 -10z" />
    <glyph glyph-name="Gbreve" unicode="&#x11e;" horiz-adv-x="1792" 
d="M954 307q72 0 135.5 21t103.5 51.5t69.5 60.5t41.5 51l13 21h-205l49 287h748l-49 -287h-142q-4 -12 -13 -31.5t-42.5 -77t-73 -110t-107 -116t-143 -109.5t-183 -77.5t-224.5 -31.5q-169 0 -311 55.5t-237.5 150.5t-148.5 221.5t-53 266.5q0 164 67.5 315.5t181 262.5
t272.5 177.5t333 66.5q281 0 467.5 -141.5t243.5 -401.5h-391q-21 40 -45.5 70t-64 60.5t-98.5 47t-134 16.5q-180 0 -306 -129.5t-126 -334.5q0 -158 101.5 -256.5t270.5 -98.5zM1087 1610q-162 0 -244.5 71t-82.5 187v26h209v-6q0 -37 33.5 -61.5t93.5 -24.5q53 0 84 26
t34 66h205q-18 -140 -105 -212t-227 -72z" />
    <glyph glyph-name="gbreve" unicode="&#x11f;" 
d="M905 154h-16q-5 -6 -13.5 -15.5t-38.5 -34.5t-63.5 -44t-86.5 -34.5t-109 -15.5q-182 0 -301 129t-119 334q0 137 46 256t121 198t169.5 124t193.5 45q71 0 131 -19t95.5 -46t60 -54.5t33.5 -46.5l10 -19h20l27 154h348l-256 -1454l-1014 2l50 274h665zM727 297
q103 0 175.5 77.5t72.5 207.5q0 95 -57.5 150.5t-153.5 55.5q-103 0 -175.5 -77t-72.5 -207q0 -95 57.5 -151t153.5 -56zM870 1262q-162 0 -244.5 71t-82.5 187v26h209v-6q0 -37 33.5 -61.5t93.5 -24.5q53 0 84 26t34 66h205q-18 -140 -105 -212t-227 -72z" />
    <glyph glyph-name="Gcommaaccent" unicode="&#x122;" horiz-adv-x="1792" 
d="M954 307q72 0 135.5 21t103.5 51.5t69.5 60.5t41.5 51l13 21h-205l49 287h748l-49 -287h-142q-4 -12 -13 -31.5t-42.5 -77t-73 -110t-107 -116t-143 -109.5t-183 -77.5t-224.5 -31.5q-169 0 -311 55.5t-237.5 150.5t-148.5 221.5t-53 266.5q0 164 67.5 315.5t181 262.5
t272.5 177.5t333 66.5q281 0 467.5 -141.5t243.5 -401.5h-391q-21 40 -45.5 70t-64 60.5t-98.5 47t-134 16.5q-180 0 -306 -129.5t-126 -334.5q0 -158 101.5 -256.5t270.5 -98.5zM727 -352q0 78 52 128t124 50q71 0 111.5 -44t40.5 -134q0 -147 -88 -245.5t-242 -98.5h-31
l23 123h22q55 0 90.5 25.5t44.5 66.5l5 20q-18 -6 -43 -6q-53 0 -81 31.5t-28 83.5z" />
    <glyph glyph-name="gcommaaccent" unicode="&#x123;" 
d="M1044 1407q0 -78 -52 -128t-124 -50q-71 0 -111 44t-40 134q0 147 88 245.5t242 98.5h30l-22 -123h-23q-55 0 -90.5 -25.5t-44.5 -66.5l-4 -20q18 6 43 6q53 0 80.5 -31t27.5 -84zM905 154h-16q-5 -6 -13.5 -15.5t-38.5 -34.5t-63.5 -44t-86.5 -34.5t-109 -15.5
q-182 0 -301 129t-119 334q0 137 46 256t121 198t169.5 124t193.5 45q71 0 131 -19t95.5 -46t60 -54.5t33.5 -46.5l10 -19h20l27 154h348l-256 -1454l-1014 2l50 274h665zM727 297q103 0 175.5 77.5t72.5 207.5q0 95 -57.5 150.5t-153.5 55.5q-103 0 -175.5 -77t-72.5 -207
q0 -95 57.5 -151t153.5 -56z" />
    <glyph glyph-name="Imacron" unicode="&#x12a;" horiz-adv-x="645" 
d="M764 1434l-252 -1434h-379l252 1434h379zM266 1628l39 215h656l-39 -215h-656z" />
    <glyph glyph-name="imacron" unicode="&#x12b;" horiz-adv-x="552" 
d="M639 1065l-188 -1065h-349l189 1065h348zM164 1280l39 215h655l-39 -215h-655z" />
    <glyph glyph-name="Iogonek" unicode="&#x12e;" horiz-adv-x="645" 
d="M242 -522q-110 0 -178 48.5t-68 135.5q0 46 19 89.5t50 76t68 61.5t74 49t68 34.5t50 21.5l19 6h-211l252 1434h379l-252 -1434l-17 -8.5t-42.5 -23t-60 -36t-63.5 -45.5t-60.5 -52.5t-42.5 -56.5t-17 -59q0 -67 94 -67q27 0 56 5t44 10l15 5l-29 -168q-61 -26 -147 -26z
" />
    <glyph glyph-name="iogonek" unicode="&#x12f;" horiz-adv-x="552" 
d="M180 -522q-110 0 -178 48.5t-68 135.5q0 52 24.5 100.5t63 84t80.5 65t83.5 48.5t65.5 28.5t32 11.5h-181l189 1065h348l-188 -1065q-11 -5 -37.5 -19t-75 -44t-89 -62.5t-71.5 -75t-31 -80.5q0 -67 95 -67q27 0 55.5 5t43.5 10l15 5l-28 -168q-62 -26 -148 -26z
M508 1178q-83 0 -130.5 42t-47.5 111q0 86 54 140.5t138 54.5q83 0 130.5 -42.5t47.5 -111.5q0 -86 -54 -140t-138 -54z" />
    <glyph glyph-name="Idotaccent" unicode="&#x130;" horiz-adv-x="645" 
d="M764 1434l-252 -1434h-379l252 1434h379zM606 1567q-83 0 -130.5 42t-47.5 111q0 86 54.5 140.5t138.5 54.5q83 0 130.5 -42.5t47.5 -111.5q0 -86 -54.5 -140t-138.5 -54z" />
    <glyph glyph-name="dotlessi" unicode="&#x131;" horiz-adv-x="552" 
d="M639 1065l-188 -1065h-349l189 1065h348z" />
    <glyph glyph-name="Kcommaaccent" unicode="&#x136;" horiz-adv-x="1474" 
d="M1065 0l-260 553h-195l-98 -553h-379l252 1434h379l-92 -533h153l441 533h440l-569 -676l348 -758h-420zM573 -352q0 78 52 128t125 50q71 0 111 -44t40 -134q0 -147 -88 -245.5t-242 -98.5h-30l22 123h23q55 0 90.5 25.5t44.5 66.5l4 20q-18 -6 -43 -6q-53 0 -81 31.5
t-28 83.5z" />
    <glyph glyph-name="kcommaaccent" unicode="&#x137;" horiz-adv-x="1187" 
d="M520 389l-69 -389h-349l252 1434h348l-131 -748h103l303 379h379l-398 -502l240 -563h-379l-166 389h-133zM469 -352q0 78 52 128t124 50q71 0 111.5 -44t40.5 -134q0 -147 -88 -245.5t-242 -98.5h-31l23 123h22q55 0 90.5 25.5t44.5 66.5l5 20q-18 -6 -43 -6
q-53 0 -81 31.5t-28 83.5z" />
    <glyph glyph-name="Lacute" unicode="&#x139;" horiz-adv-x="1187" 
d="M764 1434l-191 -1086h687l-62 -348h-1065l252 1434h379zM680 1925h348l-2 -10l-319 -307h-236z" />
    <glyph glyph-name="lacute" unicode="&#x13a;" horiz-adv-x="706" 
d="M102 0l252 1434h348l-202 -1158h235l-49 -276h-584zM649 1925h348l-2 -10l-319 -307h-236z" />
    <glyph glyph-name="Lcommaaccent" unicode="&#x13b;" horiz-adv-x="1187" 
d="M764 1434l-191 -1086h687l-62 -348h-1065l252 1434h379zM481 -348q0 78 52 128t124 50q71 0 111.5 -44t40.5 -134q0 -147 -88 -245.5t-242 -98.5h-30l22 123h23q55 0 90.5 25.5t44.5 66.5l4 20q-18 -6 -43 -6q-53 0 -81 31.5t-28 83.5z" />
    <glyph glyph-name="lcommaaccent" unicode="&#x13c;" horiz-adv-x="706" 
d="M102 0l252 1434h348l-202 -1158h235l-49 -276h-584zM182 -352q0 78 52 128t124 50q71 0 111.5 -44t40.5 -134q0 -147 -88 -245.5t-242 -98.5h-30l22 123h23q55 0 90.5 25.5t44.5 66.5l4 20q-18 -6 -43 -6q-53 0 -81 31.5t-28 83.5z" />
    <glyph glyph-name="Lcaron" unicode="&#x13d;" horiz-adv-x="1187" 
d="M764 1434l-191 -1086h687l-62 -348h-1065l252 1434h379zM881 1286q0 78 52 128t124 50q71 0 111 -44t40 -134q0 -147 -87.5 -245.5t-241.5 -98.5h-31l22 123h23q55 0 90.5 25.5t44.5 66.5l4 21q-18 -7 -43 -7q-53 0 -80.5 31t-27.5 84z" />
    <glyph glyph-name="lcaron" unicode="&#x13e;" horiz-adv-x="808" 
d="M102 0l252 1434h348l-202 -1158h235l-49 -276h-584zM766 1286q0 78 52 128t124 50q71 0 111.5 -44t40.5 -134q0 -147 -88 -245.5t-242 -98.5h-31l23 123h22q55 0 90.5 25.5t44.5 66.5l5 21q-19 -7 -44 -7q-53 0 -80.5 31t-27.5 84z" />
    <glyph glyph-name="Lslash" unicode="&#x141;" horiz-adv-x="1216" 
d="M793 1434l-80 -461l319 133l-49 -287l-321 -133l-60 -338h686l-61 -348h-1065l92 522l-166 -69l51 284l166 72l109 625h379z" />
    <glyph glyph-name="lslash" unicode="&#x142;" horiz-adv-x="768" 
d="M162 0l94 532l-166 -71l47 266l166 72l113 635h348l-86 -482l221 92l-47 -266l-221 -92l-76 -430h236l-46 -256h-583z" />
    <glyph glyph-name="Nacute" unicode="&#x143;" horiz-adv-x="1597" 
d="M1024 0l-362 901h-21l-2 -184l-127 -717h-379l252 1434h440l365 -902h20l2 185l125 717h379l-252 -1434h-440zM1141 1925h348l-2 -10l-320 -307h-235z" />
    <glyph glyph-name="nacute" unicode="&#x144;" horiz-adv-x="1280" 
d="M1298 621l-110 -621h-348l106 600q16 95 -26.5 154t-141.5 59q-80 0 -144 -60.5t-81 -158.5l-102 -594h-349l189 1065h348l-23 -133h17q5 7 14 18t40 39t65 50t86.5 39.5t107.5 17.5q206 0 298 -133t54 -342zM938 1577h348l-2 -10l-319 -307h-236z" />
    <glyph glyph-name="Ncommaaccent" unicode="&#x145;" horiz-adv-x="1597" 
d="M1024 0l-362 901h-21l-2 -184l-127 -717h-379l252 1434h440l365 -902h20l2 185l125 717h379l-252 -1434h-440zM614 -352q0 78 52 128t125 50q71 0 111 -44t40 -134q0 -147 -88 -245.5t-242 -98.5h-30l22 123h23q55 0 90.5 25.5t44.5 66.5l4 20q-18 -6 -43 -6
q-53 0 -81 31.5t-28 83.5z" />
    <glyph glyph-name="ncommaaccent" unicode="&#x146;" horiz-adv-x="1280" 
d="M1298 621l-110 -621h-348l106 600q16 95 -26.5 154t-141.5 59q-80 0 -144 -60.5t-81 -158.5l-102 -594h-349l189 1065h348l-23 -133h17q5 7 14 18t40 39t65 50t86.5 39.5t107.5 17.5q206 0 298 -133t54 -342zM461 -352q0 78 52 128t124 50q71 0 111 -44t40 -134
q0 -147 -87.5 -245.5t-241.5 -98.5h-31l23 123h22q55 0 90.5 25.5t44.5 66.5l4 20q-18 -6 -43 -6q-53 0 -80.5 31t-27.5 84z" />
    <glyph glyph-name="Ncaron" unicode="&#x147;" horiz-adv-x="1597" 
d="M1024 0l-362 901h-21l-2 -184l-127 -717h-379l252 1434h440l365 -902h20l2 185l125 717h379l-252 -1434h-440zM1196 1608h-276l-172 307l2 10h231l88 -143h31l137 143h240l-2 -10z" />
    <glyph glyph-name="ncaron" unicode="&#x148;" horiz-adv-x="1280" 
d="M1298 621l-110 -621h-348l106 600q16 95 -26.5 154t-141.5 59q-80 0 -144 -60.5t-81 -158.5l-102 -594h-349l189 1065h348l-23 -133h17q5 7 14 18t40 39t65 50t86.5 39.5t107.5 17.5q206 0 298 -133t54 -342zM981 1260h-276l-173 307l3 10h231l88 -143h31l137 143h240
l-2 -10z" />
    <glyph glyph-name="Omacron" unicode="&#x14c;" horiz-adv-x="1740" 
d="M586 662q0 -158 101.5 -256.5t270.5 -98.5q180 0 306.5 130t126.5 335q0 158 -102 256t-271 98q-180 0 -306 -129.5t-126 -334.5zM186 653q0 164 67.5 315.5t181 262.5t272.5 177.5t333 66.5q168 0 310.5 -56t238 -151t148.5 -221.5t53 -266.5q0 -164 -67 -315t-181 -262
t-273 -177.5t-333 -66.5q-169 0 -311 55.5t-237.5 150.5t-148.5 221.5t-53 266.5zM760 1628l39 215h655l-39 -215h-655z" />
    <glyph glyph-name="omacron" unicode="&#x14d;" horiz-adv-x="1290" 
d="M500 489q0 -100 60.5 -161.5t156.5 -61.5q105 0 183.5 86t78.5 223q0 101 -60.5 162.5t-156.5 61.5q-105 0 -183.5 -86.5t-78.5 -223.5zM143 485q0 164 86.5 305t233.5 223.5t317 82.5q122 0 226.5 -41t176 -111t112 -164.5t40.5 -199.5q0 -164 -86.5 -305t-233.5 -223.5
t-317 -82.5q-122 0 -226.5 41t-176 111t-112 164.5t-40.5 199.5zM481 1280l39 215h656l-39 -215h-656z" />
    <glyph glyph-name="Ohungarumlaut" unicode="&#x150;" horiz-adv-x="1740" 
d="M586 662q0 -158 101.5 -256.5t270.5 -98.5q180 0 306.5 130t126.5 335q0 158 -102 256t-271 98q-180 0 -306 -129.5t-126 -334.5zM186 653q0 164 67.5 315.5t181 262.5t272.5 177.5t333 66.5q168 0 310.5 -56t238 -151t148.5 -221.5t53 -266.5q0 -164 -67 -315t-181 -262
t-273 -177.5t-333 -66.5q-169 0 -311 55.5t-237.5 150.5t-148.5 221.5t-53 266.5zM782 1608l199 317h287l-2 -10l-289 -307h-195zM1151 1608l199 317h297l-2 -10l-299 -307h-195z" />
    <glyph glyph-name="ohungarumlaut" unicode="&#x151;" horiz-adv-x="1290" 
d="M500 489q0 -100 60.5 -161.5t156.5 -61.5q105 0 183.5 86t78.5 223q0 101 -60.5 162.5t-156.5 61.5q-105 0 -183.5 -86.5t-78.5 -223.5zM143 485q0 164 86.5 305t233.5 223.5t317 82.5q122 0 226.5 -41t176 -111t112 -164.5t40.5 -199.5q0 -164 -86.5 -305t-233.5 -223.5
t-317 -82.5q-122 0 -226.5 41t-176 111t-112 164.5t-40.5 199.5zM512 1260l199 317h286l-2 -10l-288 -307h-195zM881 1260l198 317h297l-2 -10l-299 -307h-194z" />
    <glyph glyph-name="OE" unicode="&#x152;" horiz-adv-x="2406" 
d="M1008 1126q-81 0 -156 -32t-134.5 -89.5t-95.5 -147.5t-36 -198q0 -158 100.5 -255t251.5 -97q81 0 158 32t137.5 89.5t97.5 147.5t37 198q0 159 -102 255.5t-258 96.5zM1243 0l25 139q-6 -7 -18 -19.5t-53.5 -43.5t-88.5 -54.5t-124.5 -43t-160.5 -19.5
q-132 0 -250 51.5t-203 140.5t-134.5 215t-49.5 269q0 141 43.5 271.5t120 232.5t175 178.5t214 117t232.5 40.5q77 0 145 -12.5t116.5 -32.5t89 -44.5t65.5 -49t43 -44.5t25 -32l7 -13l33 187h1075l-61 -349h-697l-38 -215h553l-54 -307h-553l-37 -215h697l-62 -348h-1075z
" />
    <glyph glyph-name="oe" unicode="&#x153;" horiz-adv-x="2080" 
d="M1501 -31q-80 0 -149 20t-111 48.5t-72.5 57.5t-42.5 49l-12 20h-20q-6 -8 -17 -21t-51 -46.5t-85.5 -59.5t-119.5 -47t-153 -21q-147 0 -268 69.5t-189 188t-68 258.5q0 164 86 305t231 223.5t310 82.5q77 0 145 -19t110 -46t73 -54.5t44 -46.5l13 -19h21q6 8 17 20
t50 44t84 56.5t117 44.5t149 20q151 0 271 -70.5t185 -188t65 -257.5q0 -34 -11 -109h-798q5 -107 57.5 -166t144.5 -59q41 0 77 11.5t58 28t38.5 33t23.5 27.5l6 12h375q-3 -8 -9 -22t-29 -54.5t-51.5 -77t-77.5 -81.5t-106 -77.5t-138.5 -54.5t-172.5 -22zM1337 645h422
q-5 68 -60 121t-130 53q-78 0 -140 -45.5t-92 -128.5zM707 266q98 0 174.5 86.5t76.5 222.5q0 100 -58.5 162t-147.5 62q-98 0 -175 -87t-77 -223q0 -100 59 -161.5t148 -61.5z" />
    <glyph glyph-name="Racute" unicode="&#x154;" horiz-adv-x="1515" 
d="M1233 483l201 -483h-410l-180 430h-256l-76 -430h-379l252 1434h649q249 0 403 -133t154 -332q0 -76 -20 -143.5t-53 -119t-79.5 -95.5t-97 -74.5t-108.5 -53.5zM649 778h355q85 0 139.5 46.5t54.5 115.5q0 59 -48.5 102t-135.5 43h-312zM1069 1925h348l-2 -10l-319 -307
h-236z" />
    <glyph glyph-name="racute" unicode="&#x155;" horiz-adv-x="870" 
d="M961 748h-175q-92 0 -157 -56t-82 -149l-96 -543h-349l189 1065h338l-29 -154h21q3 7 10 19t31.5 42t54 52.5t79 41.5t105.5 19h119zM772 1577h348l-2 -10l-319 -307h-236z" />
    <glyph glyph-name="Rcommaaccent" unicode="&#x156;" horiz-adv-x="1515" 
d="M1233 483l201 -483h-410l-180 430h-256l-76 -430h-379l252 1434h649q249 0 403 -133t154 -332q0 -76 -20 -143.5t-53 -119t-79.5 -95.5t-97 -74.5t-108.5 -53.5zM649 778h355q85 0 139.5 46.5t54.5 115.5q0 59 -48.5 102t-135.5 43h-312zM594 -352q0 78 52 128t124 50
q71 0 111.5 -44t40.5 -134q0 -147 -88 -245.5t-242 -98.5h-31l23 123h22q55 0 90.5 25.5t44.5 66.5l4 20q-18 -6 -43 -6q-53 0 -80.5 31t-27.5 84z" />
    <glyph glyph-name="rcommaaccent" unicode="&#x157;" horiz-adv-x="870" 
d="M961 748h-175q-92 0 -157 -56t-82 -149l-96 -543h-349l189 1065h338l-29 -154h21q3 7 10 19t31.5 42t54 52.5t79 41.5t105.5 19h119zM72 -352q0 78 52 128t124 50q71 0 111 -44t40 -134q0 -147 -87.5 -245.5t-241.5 -98.5h-31l22 123h23q55 0 90.5 25.5t44.5 66.5l4 20
q-18 -6 -43 -6q-53 0 -80.5 31t-27.5 84z" />
    <glyph glyph-name="Rcaron" unicode="&#x158;" horiz-adv-x="1515" 
d="M1233 483l201 -483h-410l-180 430h-256l-76 -430h-379l252 1434h649q249 0 403 -133t154 -332q0 -76 -20 -143.5t-53 -119t-79.5 -95.5t-97 -74.5t-108.5 -53.5zM649 778h355q85 0 139.5 46.5t54.5 115.5q0 59 -48.5 102t-135.5 43h-312zM1145 1608h-277l-172 307l2 10
h232l88 -143h31l137 143h239l-2 -10z" />
    <glyph glyph-name="rcaron" unicode="&#x159;" horiz-adv-x="870" 
d="M961 748h-175q-92 0 -157 -56t-82 -149l-96 -543h-349l189 1065h338l-29 -154h21q3 7 10 19t31.5 42t54 52.5t79 41.5t105.5 19h119zM827 1260h-276l-172 307l2 10h231l88 -143h31l137 143h240l-2 -10z" />
    <glyph glyph-name="Sacute" unicode="&#x15a;" horiz-adv-x="1413" 
d="M829 287q81 0 135 32t54 89q0 39 -41 71.5t-106 57t-143.5 50.5t-157.5 61t-144 79t-106 114t-41 158q0 93 41 178.5t115 152t187 106t246 39.5q101 0 186 -18t144.5 -46t108 -69t78 -80t51.5 -86t32 -81.5t17 -70.5h-385q-1 5 -4 13.5t-19.5 29.5t-41 37t-73.5 29.5
t-112 13.5q-86 0 -127 -28.5t-41 -71.5q0 -40 41 -72.5t106 -57.5t144 -51.5t158.5 -61.5t144.5 -79.5t106 -114.5t41 -157q0 -97 -41 -185.5t-116 -157.5t-191 -110t-256 -41q-128 0 -234 28t-179.5 74.5t-128.5 112.5t-86.5 136.5t-47.5 150.5h385l2.5 -10t10.5 -24
t21.5 -34.5t36.5 -36.5t54 -34.5t76 -24.5t100 -10zM1018 1925h348l-2 -10l-320 -307h-235z" />
    <glyph glyph-name="sacute" unicode="&#x15b;" horiz-adv-x="1126" 
d="M221 748q0 70 29.5 132.5t85 110.5t141.5 76.5t191 28.5q100 0 183 -20t135.5 -50t92.5 -70t59.5 -75.5t32 -70.5t15 -51.5t2.5 -21.5h-334v3l-3 9t-5.5 13.5t-10 16.5t-15 17.5t-21 16.5t-28 14t-37 9.5t-46.5 3.5q-50 0 -78 -20t-28 -52q0 -25 30.5 -45.5t79.5 -36.5
t107.5 -34t117.5 -44t108 -60t79.5 -88t30.5 -122q0 -74 -30.5 -139.5t-89 -117t-152 -82t-210.5 -30.5q-105 0 -191.5 21t-141.5 54.5t-96.5 73.5t-62.5 80.5t-33.5 74t-15.5 54.5l-3 21h344q0 -3 3 -12.5t16 -27.5t33.5 -33.5t61 -27t92.5 -11.5q57 0 86 19.5t29 49.5
q0 25 -30.5 46t-79.5 38.5t-107.5 36.5t-117.5 46t-108 62t-79.5 90t-30.5 124zM813 1577h348l-2 -10l-319 -307h-236z" />
    <glyph glyph-name="Scedilla" unicode="&#x15e;" horiz-adv-x="1413" 
d="M829 287q81 0 135 32t54 89q0 39 -41 71.5t-106 57t-143.5 50.5t-157.5 61t-144 79t-106 114t-41 158q0 93 41 178.5t115 152t187 106t246 39.5q101 0 186 -18t144.5 -46t108 -69t78 -80t51.5 -86t32 -81.5t17 -70.5h-385q-1 5 -4 13.5t-19.5 29.5t-41 37t-73.5 29.5
t-112 13.5q-86 0 -127 -28.5t-41 -71.5q0 -40 41 -72.5t106 -57.5t144 -51.5t158.5 -61.5t144.5 -79.5t106 -114.5t41 -157q0 -96 -40 -184t-114 -156.5t-188 -110.5t-252 -43l-32 -57q6 -1 16.5 -4t37.5 -16t47 -31t37 -53t17 -79q0 -107 -83.5 -184.5t-204.5 -77.5
q-59 0 -110.5 14.5t-73.5 28.5l-21 15l28 174q10 -6 26.5 -16t64.5 -26t92 -16q39 0 63.5 21.5t24.5 52.5q0 23 -21 41t-53 18h-113l111 203q-122 16 -219.5 62.5t-161 115.5t-102 147.5t-56.5 168.5h385l2.5 -10t10.5 -24t21.5 -34.5t36.5 -36.5t54 -34.5t76 -24.5t100 -10
z" />
    <glyph glyph-name="scedilla" unicode="&#x15f;" horiz-adv-x="1126" 
d="M221 748q0 70 29.5 132.5t85 110.5t141.5 76.5t191 28.5q100 0 183 -20t135.5 -50t92.5 -70t59.5 -75.5t32 -70.5t15 -51.5t2.5 -21.5h-334v3l-3 9t-5.5 13.5t-10 16.5t-15 17.5t-21 16.5t-28 14t-37 9.5t-46.5 3.5q-50 0 -78 -20t-28 -52q0 -25 30.5 -45.5t79.5 -36.5
t107.5 -34t117.5 -44t108 -60t79.5 -88t30.5 -122q0 -150 -121 -256.5t-342 -112.5l-39 -67q6 -1 16.5 -4t37.5 -16t47 -31t37 -53t17 -79q0 -107 -83.5 -184.5t-204.5 -77.5q-59 0 -110.5 14.5t-73.5 28.5l-21 15l29 174q9 -6 26 -16t64.5 -26t91.5 -16q39 0 63.5 21.5
t24.5 52.5q0 23 -21 41t-53 18h-112l116 216q-80 11 -146 37.5t-107.5 59.5t-73.5 70.5t-48 73t-26 64t-12 45.5l-2 18h344q0 -3 3 -12.5t16 -27.5t33.5 -33.5t61 -27t92.5 -11.5q57 0 86 19.5t29 49.5q0 25 -30.5 46t-79.5 38.5t-107.5 36.5t-117.5 46t-108 62t-79.5 90
t-30.5 124z" />
    <glyph glyph-name="Scaron" unicode="&#x160;" horiz-adv-x="1413" 
d="M829 287q81 0 135 32t54 89q0 39 -41 71.5t-106 57t-143.5 50.5t-157.5 61t-144 79t-106 114t-41 158q0 93 41 178.5t115 152t187 106t246 39.5q101 0 186 -18t144.5 -46t108 -69t78 -80t51.5 -86t32 -81.5t17 -70.5h-385q-1 5 -4 13.5t-19.5 29.5t-41 37t-73.5 29.5
t-112 13.5q-86 0 -127 -28.5t-41 -71.5q0 -40 41 -72.5t106 -57.5t144 -51.5t158.5 -61.5t144.5 -79.5t106 -114.5t41 -157q0 -97 -41 -185.5t-116 -157.5t-191 -110t-256 -41q-128 0 -234 28t-179.5 74.5t-128.5 112.5t-86.5 136.5t-47.5 150.5h385l2.5 -10t10.5 -24
t21.5 -34.5t36.5 -36.5t54 -34.5t76 -24.5t100 -10zM1063 1608h-277l-172 307l2 10h232l88 -143h31l137 143h239l-2 -10z" />
    <glyph glyph-name="scaron" unicode="&#x161;" horiz-adv-x="1126" 
d="M221 748q0 70 29.5 132.5t85 110.5t141.5 76.5t191 28.5q100 0 183 -20t135.5 -50t92.5 -70t59.5 -75.5t32 -70.5t15 -51.5t2.5 -21.5h-334v3l-3 9t-5.5 13.5t-10 16.5t-15 17.5t-21 16.5t-28 14t-37 9.5t-46.5 3.5q-50 0 -78 -20t-28 -52q0 -25 30.5 -45.5t79.5 -36.5
t107.5 -34t117.5 -44t108 -60t79.5 -88t30.5 -122q0 -74 -30.5 -139.5t-89 -117t-152 -82t-210.5 -30.5q-105 0 -191.5 21t-141.5 54.5t-96.5 73.5t-62.5 80.5t-33.5 74t-15.5 54.5l-3 21h344q0 -3 3 -12.5t16 -27.5t33.5 -33.5t61 -27t92.5 -11.5q57 0 86 19.5t29 49.5
q0 25 -30.5 46t-79.5 38.5t-107.5 36.5t-117.5 46t-108 62t-79.5 90t-30.5 124zM877 1260h-277l-172 307l2 10h232l88 -143h30l138 143h239l-2 -10z" />
    <glyph glyph-name="Tcommaaccent" unicode="&#x162;" 
d="M635 1085h-451l62 349h1280l-62 -349h-450l-191 -1085h-379zM426 -352q0 78 52 128t124 50q71 0 111.5 -44t40.5 -134q0 -147 -88 -245.5t-242 -98.5h-31l23 123h22q55 0 90.5 25.5t44.5 66.5l5 20q-18 -6 -43 -6q-53 0 -81 31.5t-28 83.5z" />
    <glyph glyph-name="tcommaaccent" unicode="&#x163;" horiz-adv-x="860" 
d="M170 788l49 277h133l39 225h348l-39 -225h277l-49 -277h-277l-90 -512h297l-49 -276h-645l139 788h-133zM262 -352q0 78 52 128t124 50q71 0 111.5 -44t40.5 -134q0 -147 -88 -245.5t-242 -98.5h-31l23 123h22q55 0 91 25.5t45 66.5l4 20q-18 -6 -43 -6q-53 0 -81 31.5
t-28 83.5z" />
    <glyph glyph-name="Tcaron" unicode="&#x164;" 
d="M635 1085h-451l62 349h1280l-62 -349h-450l-191 -1085h-379zM1042 1608h-276l-172 307l2 10h231l88 -143h31l137 143h240l-2 -10z" />
    <glyph glyph-name="tcaron" unicode="&#x165;" horiz-adv-x="929" 
d="M170 788l49 277h133l39 225h348l-178 -1014h297l-49 -276h-645l139 788h-133zM805 1143q0 78 52 128t124 50q71 0 111.5 -44t40.5 -134q0 -147 -88 -245.5t-242 -98.5h-31l23 123h22q55 0 90.5 25.5t44.5 66.5l4 20q-18 -6 -43 -6q-53 0 -80.5 31t-27.5 84z" />
    <glyph glyph-name="Umacron" unicode="&#x16a;" horiz-adv-x="1536" 
d="M745 1434l-145 -826q-25 -145 46.5 -223t197.5 -78q108 0 183 67t97 187l154 873h379l-164 -914q-46 -259 -223 -410t-441 -151q-166 0 -294.5 52t-203.5 143t-103 214t-3 265l142 801h378zM696 1628l39 215h656l-39 -215h-656z" />
    <glyph glyph-name="umacron" unicode="&#x16b;" horiz-adv-x="1290" 
d="M180 444l111 621h348l-107 -600q-16 -95 26.5 -154t141.5 -59q80 0 144.5 60.5t81.5 158.5l102 594h348l-188 -1065h-348l22 133h-16q-5 -7 -14 -18t-40 -39t-65 -50t-87 -39.5t-108 -17.5q-206 0 -298 133t-54 342zM541 1280l39 215h655l-39 -215h-655z" />
    <glyph glyph-name="Uring" unicode="&#x16e;" horiz-adv-x="1536" 
d="M745 1434l-145 -826q-25 -145 46.5 -223t197.5 -78q108 0 183 67t97 187l154 873h379l-164 -914q-46 -259 -223 -410t-441 -151q-166 0 -294.5 52t-203.5 143t-103 214t-3 265l142 801h378zM1020 1536q-104 0 -168 61.5t-64 153.5q0 109 76.5 182.5t186.5 73.5
q104 0 167.5 -61t63.5 -154q0 -109 -76 -182.5t-186 -73.5zM1026 1679q42 0 71 28.5t29 70.5q0 36 -22.5 61t-59.5 25q-42 0 -71 -28.5t-29 -70.5q0 -36 22.5 -61t59.5 -25z" />
    <glyph glyph-name="uring" unicode="&#x16f;" horiz-adv-x="1290" 
d="M180 444l111 621h348l-107 -600q-16 -95 26.5 -154t141.5 -59q80 0 144.5 60.5t81.5 158.5l102 594h348l-188 -1065h-348l22 133h-16q-5 -7 -14 -18t-40 -39t-65 -50t-87 -39.5t-108 -17.5q-206 0 -298 133t-54 342zM868 1188q-104 0 -167.5 61t-63.5 154q0 109 76 182.5
t186 73.5q104 0 167.5 -61t63.5 -154q0 -109 -76 -182.5t-186 -73.5zM874 1331q42 0 71.5 28.5t29.5 70.5q0 36 -22.5 61t-59.5 25q-42 0 -71 -28.5t-29 -70.5q0 -37 22 -61.5t59 -24.5z" />
    <glyph glyph-name="Uhungarumlaut" unicode="&#x170;" horiz-adv-x="1536" 
d="M745 1434l-145 -826q-25 -145 46.5 -223t197.5 -78q108 0 183 67t97 187l154 873h379l-164 -914q-46 -259 -223 -410t-441 -151q-166 0 -294.5 52t-203.5 143t-103 214t-3 265l142 801h378zM715 1608l198 317h287l-2 -10l-289 -307h-194zM1083 1608l199 317h297l-2 -10
l-299 -307h-195z" />
    <glyph glyph-name="uhungarumlaut" unicode="&#x171;" horiz-adv-x="1290" 
d="M180 444l111 621h348l-107 -600q-16 -95 26.5 -154t141.5 -59q80 0 144.5 60.5t81.5 158.5l102 594h348l-188 -1065h-348l22 133h-16q-5 -7 -14 -18t-40 -39t-65 -50t-87 -39.5t-108 -17.5q-206 0 -298 133t-54 342zM545 1260l198 317h287l-2 -10l-289 -307h-194z
M913 1260l199 317h297l-2 -10l-299 -307h-195z" />
    <glyph glyph-name="Uogonek" unicode="&#x172;" horiz-adv-x="1536" 
d="M795 -522q-110 0 -178 48.5t-68 135.5q0 52 24 100.5t64 86t79.5 64t84.5 48.5q-107 3 -198 28t-159 69t-119 104.5t-77 134t-34 158.5t11 178l142 801h378l-145 -826q-25 -145 46.5 -223t197.5 -78q108 0 183 67t97 187l154 873h379l-164 -914q-37 -203 -154.5 -341
t-298.5 -191q-36 -18 -76 -42.5t-89.5 -61.5t-81 -81t-31.5 -84q0 -67 94 -67q27 0 56 5t44 10l15 5l-29 -168q-61 -26 -147 -26z" />
    <glyph glyph-name="uogonek" unicode="&#x173;" horiz-adv-x="1290" 
d="M918 -522q-110 0 -178 48.5t-68 135.5q0 61 35 118.5t82 94.5t101 67t85.5 42.5t42.5 15.5h-178l22 133h-16q-5 -7 -14 -18t-40 -39t-65 -50t-87 -39.5t-108 -17.5q-206 0 -298 133t-54 342l111 621h348l-107 -600q-16 -95 26.5 -154t141.5 -59q80 0 144.5 60.5
t81.5 158.5l102 594h348l-188 -1065l-17 -8.5t-42.5 -23t-60 -36t-63.5 -45.5t-60.5 -52.5t-42.5 -56.5t-17 -59q0 -67 94 -67q27 0 56 5t44 10l15 5l-29 -168q-61 -26 -147 -26z" />
    <glyph glyph-name="Ydieresis" unicode="&#x178;" horiz-adv-x="1402" 
d="M954 512l-90 -512h-379l90 512l-370 922h389l209 -553h31l405 553h410zM725 1587q-67 0 -109.5 42.5t-42.5 105.5q0 75 52.5 127.5t124.5 52.5q66 0 108.5 -42.5t42.5 -105.5q0 -75 -52.5 -127.5t-123.5 -52.5zM1145 1587q-67 0 -109.5 42.5t-42.5 105.5q0 75 52.5 127.5
t123.5 52.5q67 0 109.5 -42.5t42.5 -105.5q0 -75 -52.5 -127.5t-123.5 -52.5z" />
    <glyph glyph-name="Zacute" unicode="&#x179;" horiz-adv-x="1361" 
d="M82 0l61 348l803 717l2 20h-655l61 349h1178l-62 -349l-802 -716l-2 -21h696l-62 -348h-1218zM1030 1925h348l-2 -10l-319 -307h-236z" />
    <glyph glyph-name="zacute" unicode="&#x17a;" horiz-adv-x="1085" 
d="M1202 1065l-53 -297l-561 -451l-2 -20h501l-53 -297h-973l54 297l559 451l4 20h-461l53 297h932zM834 1577h348l-2 -10l-320 -307h-235z" />
    <glyph glyph-name="Zdotaccent" unicode="&#x17b;" horiz-adv-x="1361" 
d="M82 0l61 348l803 717l2 20h-655l61 349h1178l-62 -349l-802 -716l-2 -21h696l-62 -348h-1218zM967 1577q-83 0 -131 42.5t-48 111.5q0 86 54.5 140t138.5 54q83 0 130.5 -42t47.5 -111q0 -86 -54 -140.5t-138 -54.5z" />
    <glyph glyph-name="zdotaccent" unicode="&#x17c;" horiz-adv-x="1085" 
d="M1202 1065l-53 -297l-561 -451l-2 -20h501l-53 -297h-973l54 297l559 451l4 20h-461l53 297h932zM766 1219q-83 0 -130.5 42t-47.5 111q0 86 54 140.5t138 54.5q83 0 130.5 -42.5t47.5 -111.5q0 -86 -54 -140t-138 -54z" />
    <glyph glyph-name="Zcaron" unicode="&#x17d;" horiz-adv-x="1361" 
d="M82 0l61 348l803 717l2 20h-655l61 349h1178l-62 -349l-802 -716l-2 -21h696l-62 -348h-1218zM1094 1608h-277l-172 307l2 10h232l88 -143h30l138 143h239l-2 -10z" />
    <glyph glyph-name="zcaron" unicode="&#x17e;" horiz-adv-x="1085" 
d="M1202 1065l-53 -297l-561 -451l-2 -20h501l-53 -297h-973l54 297l559 451l4 20h-461l53 297h932zM899 1260h-276l-172 307l2 10h231l88 -143h31l137 143h240l-2 -10z" />
    <glyph glyph-name="florin" unicode="&#x192;" horiz-adv-x="952" 
d="M1004 737h-267l-262 -1126h-594l25 287h287l196 839h-102l24 287h144l98 410h594l-25 -287h-286l-33 -123h225z" />
    <glyph glyph-name="uni01FA" unicode="&#x1fa;" horiz-adv-x="1474" 
d="M1075 2122h277v-8l-156 -152q86 -61 86 -170t-76 -182.5t-186 -73.5q-104 0 -168 61.5t-64 153.5q0 95 59 163.5t150 86.5zM1026 1679q42 0 71 28.5t29 70.5q0 36 -22.5 61t-59.5 25q-42 0 -71 -28.5t-29 -70.5q0 -36 22.5 -61t59.5 -25zM1358 1434l137 -1434h-383
l-20 287h-553l-123 -287h-396l642 1434h696zM883 1085l-205 -471h389l-41 471h-143z" />
    <glyph glyph-name="uni01FB" unicode="&#x1fb;" 
d="M911 1772h277v-9l-156 -149q86 -61 86 -170t-76 -182.5t-186 -73.5q-104 0 -167.5 61t-63.5 154q0 95 59.5 163.5t151.5 86.5zM862 1331q42 0 71.5 28.5t29.5 70.5q0 36 -22.5 61t-59.5 25q-42 0 -71.5 -28.5t-29.5 -70.5q0 -36 22.5 -61t59.5 -25zM864 0l23 133h-17
q-5 -7 -14.5 -18t-41 -39t-65.5 -50t-87 -39.5t-107 -17.5q-180 0 -296 130.5t-116 340.5q0 148 46.5 274.5t123 208.5t171.5 127.5t194 45.5q69 0 128.5 -20t94 -48t59.5 -58t34.5 -48t9.5 -21h20l29 164h348l-189 -1065h-348zM709 266q105 0 178.5 84.5t73.5 235.5
q0 101 -56 157t-151 56q-105 0 -178.5 -84.5t-73.5 -235.5q0 -101 56 -157t151 -56z" />
    <glyph glyph-name="uni01FC" unicode="&#x1fc;" horiz-adv-x="2109" 
d="M1393 348h696l-61 -348h-1076l52 287h-461l-127 -287h-396l642 1434h1617l-61 -349h-696l-37 -215h553l-56 -307h-552zM887 1085l-213 -471h387l82 471h-256zM1489 1925h348l-2 -10l-319 -307h-236z" />
    <glyph glyph-name="uni01FD" unicode="&#x1fd;" horiz-adv-x="2011" 
d="M539 -31q-191 0 -303.5 81.5t-112.5 203.5q0 168 114.5 274.5t319.5 106.5h356q3 6 5 18q11 73 -29 119.5t-131 46.5q-36 0 -67 -10.5t-49.5 -25.5t-32 -30t-18.5 -25l-5 -11h-355q2 8 6.5 21.5t23 53t42.5 75.5t67.5 79.5t95.5 75t129 53t165 21.5q77 0 141.5 -18
t102.5 -43.5t65 -51t37 -43.5l10 -18h21q5 7 14 19t43.5 42t75 52.5t109 41.5t145.5 19q151 0 271 -70.5t184.5 -188t64.5 -257.5q0 -41 -10 -109h-799q4 -107 57.5 -166t145.5 -59q41 0 77 11.5t58 28t38 33t23 27.5l6 12h375q-3 -8 -9 -22t-29 -54.5t-51 -77t-77.5 -81.5
t-106 -77.5t-138 -54.5t-172.5 -22q-80 0 -151.5 22t-116 53.5t-78 63.5t-48.5 54l-14 22h-20q-31 -37 -69 -70t-95 -68t-135 -56t-166 -21zM887 471h-264q-61 0 -96 -31.5t-35 -91.5q0 -102 155 -102q103 0 165.5 61t74.5 164zM1268 645h422q-5 68 -60.5 121t-130.5 53
q-78 0 -139.5 -45.5t-91.5 -128.5zM1255 1567h349l-2 -11l-320 -307h-235z" />
    <glyph glyph-name="uni01FE" unicode="&#x1fe;" horiz-adv-x="1740" 
d="M80 217l180 121q-74 142 -74 315q0 164 67.5 315.5t181 262.5t272.5 177.5t333 66.5q180 0 327 -62.5t247 -173.5l323 215l-41 -237l-182 -121q76 -149 76 -316q0 -164 -67 -315t-181 -262t-273 -177.5t-333 -66.5q-181 0 -327.5 62.5t-248.5 173.5l-321 -215zM1391 772
q0 48 -13 98l-694 -460q98 -103 274 -103q180 0 306.5 130t126.5 335zM586 662q0 -54 12 -101l694 463q-102 102 -274 102q-180 0 -306 -129.5t-126 -334.5zM1163 1925h348l-2 -10l-319 -307h-236z" />
    <glyph glyph-name="uni01FF" unicode="&#x1ff;" horiz-adv-x="1290" 
d="M90 211l98 63q-45 102 -45 211q0 164 86.5 305t233.5 223.5t317 82.5q126 0 232 -43.5t180 -120.5l235 153l-38 -231l-99 -63q45 -98 45 -211q0 -164 -86.5 -305t-233.5 -223.5t-317 -82.5q-250 0 -411 164l-236 -153zM500 489v-10l407 266q-61 54 -145 54
q-105 0 -183.5 -86.5t-78.5 -223.5zM979 575v11l-408 -267q63 -53 146 -53q105 0 183.5 86t78.5 223zM891 1567h348l-2 -11l-319 -307h-236z" />
    <glyph glyph-name="Scommaaccent" unicode="&#x218;" horiz-adv-x="1413" 
d="M829 287q81 0 135 32t54 89q0 39 -41 71.5t-106 57t-143.5 50.5t-157.5 61t-144 79t-106 114t-41 158q0 93 41 178.5t115 152t187 106t246 39.5q101 0 186 -18t144.5 -46t108 -69t78 -80t51.5 -86t32 -81.5t17 -70.5h-385q-1 5 -4 13.5t-19.5 29.5t-41 37t-73.5 29.5
t-112 13.5q-86 0 -127 -28.5t-41 -71.5q0 -40 41 -72.5t106 -57.5t144 -51.5t158.5 -61.5t144.5 -79.5t106 -114.5t41 -157q0 -97 -41 -185.5t-116 -157.5t-191 -110t-256 -41q-128 0 -234 28t-179.5 74.5t-128.5 112.5t-86.5 136.5t-47.5 150.5h385l2.5 -10t10.5 -24
t21.5 -34.5t36.5 -36.5t54 -34.5t76 -24.5t100 -10zM563 -352q0 78 52 128t124 50q71 0 111.5 -44t40.5 -134q0 -147 -88 -245.5t-242 -98.5h-31l23 123h22q55 0 91 25.5t45 66.5l4 20q-18 -6 -43 -6q-53 0 -81 31.5t-28 83.5z" />
    <glyph glyph-name="scommaaccent" unicode="&#x219;" horiz-adv-x="1126" 
d="M221 748q0 70 29.5 132.5t85 110.5t141.5 76.5t191 28.5q100 0 183 -20t135.5 -50t92.5 -70t59.5 -75.5t32 -70.5t15 -51.5t2.5 -21.5h-334v3l-3 9t-5.5 13.5t-10 16.5t-15 17.5t-21 16.5t-28 14t-37 9.5t-46.5 3.5q-50 0 -78 -20t-28 -52q0 -25 30.5 -45.5t79.5 -36.5
t107.5 -34t117.5 -44t108 -60t79.5 -88t30.5 -122q0 -74 -30.5 -139.5t-89 -117t-152 -82t-210.5 -30.5q-105 0 -191.5 21t-141.5 54.5t-96.5 73.5t-62.5 80.5t-33.5 74t-15.5 54.5l-3 21h344q0 -3 3 -12.5t16 -27.5t33.5 -33.5t61 -27t92.5 -11.5q57 0 86 19.5t29 49.5
q0 25 -30.5 46t-79.5 38.5t-107.5 36.5t-117.5 46t-108 62t-79.5 90t-30.5 124zM418 -350q0 78 52 128t124 50q71 0 111 -44t40 -134q0 -147 -87.5 -245.5t-241.5 -98.5h-31l23 123h22q55 0 90.5 25.5t44.5 66.5l4 20q-18 -6 -43 -6q-53 0 -80.5 31t-27.5 84z" />
    <glyph glyph-name="uni021A" unicode="&#x21a;" 
d="M635 1085h-451l62 349h1280l-62 -349h-450l-191 -1085h-379zM426 -352q0 78 52 128t124 50q71 0 111.5 -44t40.5 -134q0 -147 -88 -245.5t-242 -98.5h-31l23 123h22q55 0 90.5 25.5t44.5 66.5l5 20q-18 -6 -43 -6q-53 0 -81 31.5t-28 83.5z" />
    <glyph glyph-name="uni021B" unicode="&#x21b;" horiz-adv-x="860" 
d="M170 788l49 277h133l39 225h348l-39 -225h277l-49 -277h-277l-90 -512h297l-49 -276h-645l139 788h-133zM262 -352q0 78 52 128t124 50q71 0 111.5 -44t40.5 -134q0 -147 -88 -245.5t-242 -98.5h-31l23 123h22q55 0 91 25.5t45 66.5l4 20q-18 -6 -43 -6q-53 0 -81 31.5
t-28 83.5z" />
    <glyph glyph-name="afii57929" unicode="&#x2bc;" horiz-adv-x="460" 
d="M285 1266q0 78 52 128t124 50q71 0 111 -44t40 -134q0 -147 -87.5 -245.5t-241.5 -98.5h-31l22 122h23q55 0 90.5 26t44.5 67l4 20q-18 -6 -43 -6q-53 0 -80.5 31t-27.5 84z" />
    <glyph glyph-name="circumflex" unicode="&#x2c6;" horiz-adv-x="849" 
d="M518 1434h277l172 -308l-2 -10h-232l-88 144h-31l-137 -144h-239l2 10z" />
    <glyph glyph-name="caron" unicode="&#x2c7;" horiz-adv-x="849" 
d="M719 1116h-277l-172 307l2 11h232l88 -144h31l137 144h239l-2 -11z" />
    <glyph glyph-name="breve" unicode="&#x2d8;" horiz-adv-x="778" 
d="M588 1139q-162 0 -245 71t-83 187v26h209v-6q0 -37 33.5 -61.5t93.5 -24.5q53 0 84.5 26t34.5 66h205q-18 -140 -105 -212t-227 -72z" />
    <glyph glyph-name="dotaccent" unicode="&#x2d9;" horiz-adv-x="491" 
d="M449 1116q-83 0 -131 42.5t-48 111.5q0 86 54.5 140t138.5 54q83 0 130.5 -42t47.5 -111q0 -86 -54 -140.5t-138 -54.5z" />
    <glyph glyph-name="ring" unicode="&#x2da;" horiz-adv-x="614" 
d="M471 973q-104 0 -167.5 61t-63.5 154q0 109 76 182.5t186 73.5q104 0 167.5 -61t63.5 -154q0 -109 -76 -182.5t-186 -73.5zM477 1116q42 0 71.5 28t29.5 70q0 36 -22.5 61t-59.5 25q-42 0 -71.5 -28t-29.5 -70q0 -36 22.5 -61t59.5 -25z" />
    <glyph glyph-name="ogonek" unicode="&#x2db;" horiz-adv-x="563" 
d="M231 -522q-110 0 -177.5 48.5t-67.5 135.5q0 46 19 89.5t50 76t68 61.5t74 49t68 34.5t50 21.5l19 6h168l-17 -8.5t-42.5 -23t-60 -36t-63.5 -45.5t-60.5 -52.5t-42.5 -56.5t-17 -59q0 -67 94 -67q27 0 56 5t44 10l15 5l-29 -168q-62 -26 -148 -26z" />
    <glyph glyph-name="tilde" unicode="&#x2dc;" horiz-adv-x="829" 
d="M487 1444q48 0 89 -14.5t63 -31.5t48.5 -31.5t49.5 -14.5t40.5 14t21.5 37l6 31h194l-18 -103q-17 -92 -77 -143t-152 -51q-48 0 -89 14.5t-63 31.5t-48.5 31.5t-49.5 14.5t-40.5 -14t-21.5 -37l-6 -31h-192l18 102q17 93 76 144t151 51z" />
    <glyph glyph-name="hungarumlaut" unicode="&#x2dd;" horiz-adv-x="931" 
d="M258 1116l199 318h286l-2 -11l-288 -307h-195zM627 1116l198 318h297l-2 -11l-299 -307h-194z" />
    <glyph glyph-name="uni0301" unicode="&#x301;" horiz-adv-x="0" 
d="M-420 1946h277v-9l-256 -247h-185z" />
    <glyph glyph-name="uni030A" unicode="&#x30a;" horiz-adv-x="0" 
d="M-434 1321q-104 0 -168 61.5t-64 153.5q0 109 76.5 182.5t186.5 73.5q104 0 167.5 -61t63.5 -154q0 -109 -76 -182.5t-186 -73.5zM-428 1464q42 0 71 28.5t29 70.5q0 36 -22.5 61t-59.5 25q-42 0 -71 -28.5t-29 -70.5q0 -36 22.5 -61t59.5 -25z" />
    <glyph glyph-name="afii10023" unicode="&#x401;" 
d="M573 348h727l-61 -348h-1106l252 1434h1106l-61 -349h-728l-36 -215h583l-55 -307h-584zM745 1546q-66 0 -108.5 42.5t-42.5 105.5q0 76 52 128t124 52q66 0 109 -43t43 -105q0 -75 -52.5 -127.5t-124.5 -52.5zM1165 1546q-66 0 -108.5 42.5t-42.5 105.5q0 76 52 128
t124 52q66 0 108.5 -42.5t42.5 -105.5q0 -76 -52.5 -128t-123.5 -52z" />
    <glyph glyph-name="afii10051" unicode="&#x402;" horiz-adv-x="1710" 
d="M1694 326l-97 -551h-614l61 348h236l39 219q15 85 -33.5 148t-138.5 63h-262l-97 -553h-378l190 1085h-410l62 349h1208l-61 -349h-420l-33 -184h273q254 0 386.5 -159.5t88.5 -415.5z" />
    <glyph glyph-name="afii10052" unicode="&#x403;" horiz-adv-x="1218" 
d="M133 0l252 1434h1045l-62 -349h-666l-190 -1085h-379zM1008 1894h348l-2 -10l-320 -307h-235z" />
    <glyph glyph-name="afii10053" unicode="&#x404;" horiz-adv-x="1689" 
d="M932 -41q-169 0 -311 55.5t-237.5 150.5t-148.5 221.5t-53 266.5q0 164 67.5 315.5t181 262.5t272.5 177.5t333 66.5q140 0 256.5 -35.5t193.5 -92t134.5 -133t87 -150.5t43.5 -153h-387q-38 95 -123.5 155t-226.5 60q-133 0 -240 -74t-158 -202h484l-47 -266h-463
q25 -127 121 -202t243 -75q58 0 110.5 13.5t90 35.5t69.5 48t52.5 52t35.5 48t21 36l6 13h396q-4 -12 -12.5 -33.5t-41.5 -83.5t-72.5 -118t-108 -124.5t-146 -117.5t-188.5 -83t-234 -34z" />
    <glyph glyph-name="afii10054" unicode="&#x405;" horiz-adv-x="1413" 
d="M829 287q81 0 135 32t54 89q0 39 -41 71.5t-106 57t-143.5 50.5t-157.5 61t-144 79t-106 114t-41 158q0 93 41 178.5t115 152t187 106t246 39.5q101 0 186 -18t144.5 -46t108 -69t78 -80t51.5 -86t32 -81.5t17 -70.5h-385q-1 5 -4 13.5t-19.5 29.5t-41 37t-73.5 29.5
t-112 13.5q-86 0 -127 -28.5t-41 -71.5q0 -40 41 -72.5t106 -57.5t144 -51.5t158.5 -61.5t144.5 -79.5t106 -114.5t41 -157q0 -97 -41 -185.5t-116 -157.5t-191 -110t-256 -41q-128 0 -234 28t-179.5 74.5t-128.5 112.5t-86.5 136.5t-47.5 150.5h385l2.5 -10t10.5 -24
t21.5 -34.5t36.5 -36.5t54 -34.5t76 -24.5t100 -10z" />
    <glyph glyph-name="afii10055" unicode="&#x406;" horiz-adv-x="645" 
d="M764 1434l-252 -1434h-379l252 1434h379z" />
    <glyph glyph-name="afii10056" unicode="&#x407;" horiz-adv-x="645" 
d="M764 1434l-252 -1434h-379l252 1434h379zM387 1546q-66 0 -108.5 42.5t-42.5 105.5q0 76 52 128t124 52q66 0 108.5 -42.5t42.5 -105.5q0 -76 -52.5 -128t-123.5 -52zM807 1546q-67 0 -109.5 43t-42.5 105q0 76 52.5 128t123.5 52q67 0 109.5 -43t42.5 -105
q0 -76 -52.5 -128t-123.5 -52z" />
    <glyph glyph-name="afii10057" unicode="&#x408;" horiz-adv-x="1249" 
d="M1366 1434l-174 -981q-42 -235 -198 -369.5t-396 -134.5q-99 0 -182.5 22.5t-137.5 56.5t-96 78.5t-64.5 85t-36.5 78.5t-18 57t-4 23l355 74q1 -5 4 -13.5t17.5 -30.5t34 -39t57 -30.5t83.5 -13.5q86 0 140 48.5t69 139.5l168 949h379z" />
    <glyph glyph-name="afii10058" unicode="&#x409;" horiz-adv-x="2242" 
d="M1679 0h-747l190 1085h-245l-467 -1085h-390l631 1434h912l-76 -430h244q250 0 401.5 -129t151.5 -330q0 -156 -74.5 -279.5t-213 -194.5t-317.5 -71zM1372 348h334q82 0 133 45.5t51 118.5q0 60 -47.5 101.5t-122.5 41.5h-295z" />
    <glyph glyph-name="afii10059" unicode="&#x40a;" horiz-adv-x="2355" 
d="M1792 0h-748l109 614h-532l-109 -614h-379l252 1434h379l-82 -471h532l82 471h379l-82 -471h250q250 0 401.5 -123t151.5 -316q0 -230 -166.5 -377t-437.5 -147zM1485 348h344q81 0 127.5 39t46.5 105q0 53 -43 87.5t-117 34.5h-311z" />
    <glyph glyph-name="afii10060" unicode="&#x40b;" horiz-adv-x="1710" 
d="M1694 326l-58 -326h-379l62 342q15 85 -33.5 148t-138.5 63h-262l-97 -553h-378l190 1085h-410l62 349h1208l-61 -349h-420l-33 -184h273q254 0 386.5 -159.5t88.5 -415.5z" />
    <glyph glyph-name="afii10061" unicode="&#x40c;" horiz-adv-x="1474" 
d="M1065 0l-260 553h-195l-98 -553h-379l252 1434h379l-92 -533h153l441 533h440l-569 -676l348 -758h-420zM1090 1894h348l-2 -10l-320 -307h-235z" />
    <glyph glyph-name="afii10062" unicode="&#x40e;" horiz-adv-x="1372" 
d="M676 471h-266l-209 963h389l127 -615h153l344 615h400l-805 -1434h-399zM918 1567q-171 0 -264 82t-93 209l2 36h244v-16q0 -44 30.5 -70t90.5 -26q115 0 127 112h248q-22 -157 -122.5 -242t-262.5 -85z" />
    <glyph glyph-name="afii10145" unicode="&#x40f;" horiz-adv-x="1576" 
d="M571 -246l43 246h-481l252 1434h379l-191 -1086h553l191 1086h379l-252 -1434h-481l-43 -246h-349z" />
    <glyph glyph-name="afii10017" unicode="&#x410;" horiz-adv-x="1474" 
d="M1358 1434l137 -1434h-383l-20 287h-553l-123 -287h-396l642 1434h696zM883 1085l-205 -471h389l-41 471h-143z" />
    <glyph glyph-name="afii10018" unicode="&#x411;" horiz-adv-x="1474" 
d="M674 922h330q231 0 364 -118.5t133 -301.5q0 -217 -153.5 -359.5t-395.5 -142.5h-819l252 1434h1167l-57 -328h-788zM569 328h373q72 0 119 41.5t47 99.5q0 51 -41.5 88t-114.5 37h-336z" />
    <glyph glyph-name="afii10019" unicode="&#x412;" horiz-adv-x="1495" 
d="M963 0h-830l252 1434h721q111 0 199.5 -30t142.5 -79.5t82.5 -109.5t28.5 -125q0 -81 -28.5 -145.5t-69.5 -98.5t-81.5 -56t-69.5 -28l-28 -6v-11q9 -3 23.5 -8.5t52 -29t66 -53.5t52 -85t23.5 -120q0 -196 -144.5 -322.5t-391.5 -126.5zM1004 1126h-293l-43 -245h336
q69 0 109 37.5t40 95.5q0 48 -40 80t-109 32zM565 307h357q88 0 136 43t48 111q0 57 -48 95t-136 38h-306z" />
    <glyph glyph-name="afii10020" unicode="&#x413;" horiz-adv-x="1218" 
d="M133 0l252 1434h1045l-62 -349h-666l-190 -1085h-379z" />
    <glyph glyph-name="afii10021" unicode="&#x414;" horiz-adv-x="1607" 
d="M1155 348l-63 737h-174l-326 -737h563zM1260 0h-891l-43 -246h-359l105 594h164l479 1086h706l95 -1086h163l-104 -594h-358z" />
    <glyph glyph-name="afii10022" unicode="&#x415;" 
d="M573 348h727l-61 -348h-1106l252 1434h1106l-61 -349h-728l-36 -215h583l-55 -307h-584z" />
    <glyph glyph-name="afii10024" unicode="&#x416;" horiz-adv-x="2181" 
d="M1792 0l-240 553h-163l-99 -553h-379l99 553h-123l-436 -553h-451l594 758l-311 676h409l236 -533h143l92 533h379l-92 -533h102l420 533h451l-549 -676l328 -758h-410z" />
    <glyph glyph-name="afii10025" unicode="&#x417;" horiz-adv-x="1423" 
d="M137 461h385l2.5 -10t10.5 -24t21.5 -34.5t36.5 -36.5t54 -34.5t76 -24.5t100 -10q96 0 151.5 46t55.5 113q0 61 -62 99.5t-180 38.5h-165l53 307h235q179 0 179 125q0 54 -52 92.5t-153 38.5q-55 0 -100 -14.5t-70 -35.5t-42.5 -42.5t-23.5 -36.5l-6 -14h-397
q3 10 8.5 27t29.5 66t54.5 93.5t85.5 98.5t120 93t161 66t206 27q144 0 258.5 -34t184 -91.5t105.5 -128t36 -148.5q0 -49 -9.5 -92t-26 -74.5t-37.5 -58.5t-44.5 -45t-46.5 -32.5t-44 -22.5t-37.5 -13.5t-25.5 -7.5l-10 -2l-4 -20q9 -3 23 -8t51 -28t65 -51.5t51 -80.5
t23 -113q0 -97 -40.5 -181t-115 -147.5t-190.5 -100t-258 -36.5q-108 0 -200 17t-156.5 46t-117.5 67t-86 79.5t-58 83t-36.5 79.5t-18.5 67t-8 46z" />
    <glyph glyph-name="afii10026" unicode="&#x418;" horiz-adv-x="1597" 
d="M598 543l678 891h440l-252 -1434h-379l125 707l64 184h-21l-680 -891h-440l252 1434h379l-123 -707l-63 -184h20z" />
    <glyph glyph-name="afii10027" unicode="&#x419;" horiz-adv-x="1597" 
d="M598 543l678 891h440l-252 -1434h-379l125 707l64 184h-21l-680 -891h-440l252 1434h379l-123 -707l-63 -184h20zM1073 1567q-170 0 -263 82t-93 209l2 36h244v-16q0 -44 30 -70t90 -26q115 0 127 112h248q-22 -157 -122.5 -242t-262.5 -85z" />
    <glyph glyph-name="afii10028" unicode="&#x41a;" horiz-adv-x="1474" 
d="M1065 0l-260 553h-195l-98 -553h-379l252 1434h379l-92 -533h153l441 533h440l-569 -676l348 -758h-420z" />
    <glyph glyph-name="afii10029" unicode="&#x41b;" horiz-adv-x="1454" 
d="M1348 1434l127 -1434h-371l-96 1085h-123l-477 -1085h-388l631 1434h697z" />
    <glyph glyph-name="afii10030" unicode="&#x41c;" horiz-adv-x="1976" 
d="M1255 328h-419l-158 676h-21v-185l-145 -819h-379l252 1434h522l168 -738h51l426 738h543l-252 -1434h-379l146 819l61 185h-20z" />
    <glyph glyph-name="afii10031" unicode="&#x41d;" horiz-adv-x="1576" 
d="M133 0l252 1434h379l-92 -533h553l92 533h379l-252 -1434h-379l98 553h-553l-98 -553h-379z" />
    <glyph glyph-name="afii10032" unicode="&#x41e;" horiz-adv-x="1740" 
d="M586 662q0 -158 101.5 -256.5t270.5 -98.5q180 0 306.5 130t126.5 335q0 158 -102 256t-271 98q-180 0 -306 -129.5t-126 -334.5zM186 653q0 164 67.5 315.5t181 262.5t272.5 177.5t333 66.5q168 0 310.5 -56t238 -151t148.5 -221.5t53 -266.5q0 -164 -67 -315t-181 -262
t-273 -177.5t-333 -66.5q-169 0 -311 55.5t-237.5 150.5t-148.5 221.5t-53 266.5z" />
    <glyph glyph-name="afii10033" unicode="&#x41f;" horiz-adv-x="1576" 
d="M133 0l252 1434h1311l-252 -1434h-379l190 1085h-553l-190 -1085h-379z" />
    <glyph glyph-name="afii10034" unicode="&#x420;" horiz-adv-x="1495" 
d="M983 1085h-281l-61 -348h342q98 0 153.5 52t55.5 137q0 70 -53 114.5t-156 44.5zM385 1434h649q123 0 228 -39.5t175 -106t109 -154t39 -184.5q0 -154 -81 -283t-223 -203.5t-314 -74.5h-385l-70 -389h-379z" />
    <glyph glyph-name="afii10035" unicode="&#x421;" horiz-adv-x="1689" 
d="M932 -41q-169 0 -311 55.5t-237.5 150.5t-148.5 221.5t-53 266.5q0 164 67.5 315.5t181 262.5t272.5 177.5t333 66.5q140 0 256.5 -35.5t193.5 -92t134.5 -133t87 -150.5t43.5 -153h-387q-38 95 -123.5 155t-226.5 60q-180 0 -306 -129.5t-126 -334.5
q0 -158 101.5 -256.5t270.5 -98.5q58 0 110.5 13.5t90 35.5t69.5 48t52.5 52t35.5 48t21 36l6 13h396q-4 -12 -12.5 -33.5t-41.5 -83.5t-72.5 -118t-108 -124.5t-146 -117.5t-188.5 -83t-234 -34z" />
    <glyph glyph-name="afii10036" unicode="&#x422;" 
d="M635 1085h-451l62 349h1280l-62 -349h-450l-191 -1085h-379z" />
    <glyph glyph-name="afii10037" unicode="&#x423;" horiz-adv-x="1372" 
d="M676 471h-266l-209 963h389l127 -615h153l344 615h400l-805 -1434h-399z" />
    <glyph glyph-name="afii10038" unicode="&#x424;" horiz-adv-x="1955" 
d="M1341 1044l-112 -634q164 0 274.5 95t110.5 249q0 114 -73.5 193.5t-199.5 96.5zM850 410l113 634q-164 0 -274.5 -95t-110.5 -249q0 -114 73 -193.5t199 -96.5zM1425 1526l-24 -144q284 -39 448 -208t164 -400q0 -143 -61 -272.5t-166.5 -224t-255 -150t-318.5 -55.5
h-43l-24 -144h-379l25 144q-284 39 -448.5 208t-164.5 400q0 143 61 272.5t166.5 224t255 150t318.5 55.5h43l25 144h378z" />
    <glyph glyph-name="afii10039" unicode="&#x425;" horiz-adv-x="1423" 
d="M692 1434l129 -553h103l321 553h410l-455 -727l234 -707h-400l-151 532h-103l-340 -532h-420l484 707l-201 727h389z" />
    <glyph glyph-name="afii10040" unicode="&#x426;" horiz-adv-x="1597" 
d="M1208 0h-1075l252 1434h379l-191 -1086h492l190 1086h379l-190 -1086h184l-104 -594h-359z" />
    <glyph glyph-name="afii10041" unicode="&#x427;" horiz-adv-x="1515" 
d="M346 1434h381l-78 -445q-21 -116 40 -178.5t200 -62.5q69 0 132 17t91 35l29 17l108 617h379l-254 -1434h-379l86 483q-5 -3 -13.5 -8t-38.5 -17.5t-63.5 -22t-86.5 -17.5t-109 -8q-280 0 -413.5 161t-88.5 420z" />
    <glyph glyph-name="afii10042" unicode="&#x428;" horiz-adv-x="2140" 
d="M2259 1434l-252 -1434h-1874l252 1434h379l-191 -1086h369l191 1086h378l-190 -1086h367l190 1086h381z" />
    <glyph glyph-name="afii10043" unicode="&#x429;" horiz-adv-x="2222" 
d="M1833 0h-1700l252 1434h379l-191 -1086h369l191 1086h378l-190 -1086h367l190 1086h381l-191 -1086h185l-105 -594h-358z" />
    <glyph glyph-name="afii10044" unicode="&#x42a;" horiz-adv-x="1607" 
d="M1044 0h-747l190 1085h-286l61 349h666l-76 -430h244q250 0 401.5 -129t151.5 -330q0 -156 -74.5 -279.5t-213 -194.5t-317.5 -71zM737 348h334q82 0 133 45.5t51 118.5q0 60 -47.5 101.5t-122.5 41.5h-294z" />
    <glyph glyph-name="afii10045" unicode="&#x42b;" horiz-adv-x="1986" 
d="M850 0h-717l252 1434h379l-76 -430h213q250 0 401.5 -129t151.5 -330q0 -116 -43.5 -217t-121.5 -173t-191.5 -113.5t-247.5 -41.5zM573 348h304q82 0 133 45.5t51 118.5q0 60 -47.5 101.5t-122.5 41.5h-264zM1853 0h-378l251 1434h379z" />
    <glyph glyph-name="afii10046" unicode="&#x42c;" horiz-adv-x="1464" 
d="M901 0h-768l252 1434h379l-76 -430h264q250 0 401.5 -129t151.5 -330q0 -116 -43.5 -217t-121.5 -173t-191.5 -113.5t-247.5 -41.5zM573 348h355q82 0 133 45.5t51 118.5q0 60 -47.5 101.5t-122.5 41.5h-315z" />
    <glyph glyph-name="afii10047" unicode="&#x42d;" horiz-adv-x="1689" 
d="M868 850h463q-24 126 -121 201t-243 75q-53 0 -102 -12t-85 -31t-67 -41.5t-51.5 -45.5t-35.5 -42t-22 -31l-6 -12h-399q4 12 13 32t41.5 79t72 112t107.5 118t144 112t184.5 79t227.5 32q168 0 310.5 -56t238 -151t148.5 -221.5t53 -266.5q0 -164 -67 -315t-181 -262
t-273 -177.5t-333 -66.5q-145 0 -265 38.5t-198 98.5t-134.5 140.5t-84.5 158t-39 158.5h385q29 -108 119 -177t239 -69q133 0 241 74.5t157 202.5h-484z" />
    <glyph glyph-name="afii10048" unicode="&#x42e;" horiz-adv-x="2287" 
d="M670 891h161q78 253 295.5 418.5t491.5 165.5q161 0 297.5 -56t228 -151t142.5 -221.5t51 -266.5q0 -164 -65.5 -315.5t-175.5 -262t-263 -177t-320 -66.5q-145 0 -270.5 45.5t-215.5 124.5t-148 185t-76 229h-195l-96 -543h-379l252 1434h379zM1536 307q165 0 283 130
t118 335q0 158 -94 256t-248 98q-165 0 -283 -129.5t-118 -334.5q0 -158 94 -256.5t248 -98.5z" />
    <glyph glyph-name="afii10049" unicode="&#x42f;" horiz-adv-x="1515" 
d="M838 778h303l53 307h-328h-26q-88 0 -142.5 -46t-54.5 -115q0 -60 51 -103t144 -43zM82 0l401 530q-231 146 -231 365q0 148 77 271.5t214 195.5t305 72h786l-252 -1434h-378l75 430h-266l-321 -430h-410z" />
    <glyph glyph-name="afii10065" unicode="&#x430;" 
d="M864 0l23 133h-17q-5 -7 -14.5 -18t-41 -39t-65.5 -50t-87 -39.5t-107 -17.5q-180 0 -296 130.5t-116 340.5q0 148 46.5 274.5t123 208.5t171.5 127.5t194 45.5q69 0 128.5 -20t94 -48t59.5 -58t34.5 -48t9.5 -21h20l29 164h348l-189 -1065h-348zM709 266
q105 0 178.5 84.5t73.5 235.5q0 101 -56 157t-151 56q-105 0 -178.5 -84.5t-73.5 -235.5q0 -101 56 -157t151 -56z" />
    <glyph glyph-name="afii10066" unicode="&#x431;" horiz-adv-x="1269" 
d="M932 1434h446l-51 -297h-375q-164 0 -263.5 -80t-131.5 -217l21 -2q4 5 11 13t33.5 28t57 35.5t81 28.5t105.5 13q194 0 317.5 -123t123.5 -307q0 -115 -45 -218t-123.5 -177.5t-190.5 -118t-239 -43.5q-110 0 -205.5 33.5t-170 99t-117 171t-42.5 239.5
q0 254 96.5 464.5t271 334t390.5 123.5zM715 266q97 0 166 71.5t69 182.5q0 87 -54.5 142t-143.5 55q-97 0 -166.5 -71.5t-69.5 -182.5q0 -87 55 -142t144 -55z" />
    <glyph glyph-name="afii10067" unicode="&#x432;" horiz-adv-x="1198" 
d="M793 0h-691l189 1065h590q167 0 257.5 -73.5t90.5 -176.5q0 -45 -12.5 -83.5t-32.5 -63.5t-44 -45.5t-47.5 -31.5t-43.5 -18t-33 -9l-12 -3l-3 -20q8 -1 21 -4.5t46 -19.5t58.5 -37.5t46.5 -63t21 -92.5q0 -145 -102.5 -234.5t-298.5 -89.5zM737 440h-209l-36 -204h237
q54 0 88.5 31t34.5 85q0 38 -28.5 63t-86.5 25zM799 829h-203l-29 -163h221q42 0 67.5 26t25.5 70q0 29 -21 48t-61 19z" />
    <glyph glyph-name="afii10068" unicode="&#x433;" horiz-adv-x="972" 
d="M102 0l189 1065h839l-53 -297h-491l-135 -768h-349z" />
    <glyph glyph-name="afii10069" unicode="&#x434;" horiz-adv-x="1280" 
d="M1149 1065l59 -768h123l-88 -502h-328l37 205h-604l-37 -205h-327l88 502h123l329 768h625zM735 768l-200 -471h333l-39 471h-94z" />
    <glyph glyph-name="afii10070" unicode="&#x435;" horiz-adv-x="1280" 
d="M700 -31q-242 0 -399.5 145.5t-157.5 372.5q0 122 51.5 235t136.5 194.5t201 130.5t240 49q121 0 223.5 -41t171.5 -111.5t107.5 -164.5t38.5 -199q0 -41 -10 -109h-809q5 -108 59.5 -166.5t153.5 -58.5q41 0 77 11.5t58 28t38 33t22 27.5l7 12h375q-3 -8 -9 -22
t-29 -54.5t-51.5 -77t-77.5 -81.5t-106 -77.5t-138.5 -54.5t-172.5 -22zM526 645h432q-5 68 -60 121t-130 53q-85 0 -148 -45t-94 -129z" />
    <glyph glyph-name="afii10072" unicode="&#x436;" horiz-adv-x="1771" 
d="M1145 389l-70 -389h-348l70 389h-103l-295 -389h-389l436 563l-217 502h369l158 -379h92l67 379h349l-68 -379h82l293 379h379l-398 -502l240 -563h-379l-156 389h-112z" />
    <glyph glyph-name="afii10073" unicode="&#x437;" horiz-adv-x="1136" 
d="M111 348h346q14 -57 69.5 -84.5t120.5 -27.5q68 0 101.5 29t33.5 75q0 38 -35 64t-106 26h-131l41 225h158q114 0 114 90q0 35 -34.5 59.5t-102.5 24.5q-36 0 -64.5 -9.5t-44.5 -23t-27 -27t-14 -23.5l-4 -9h-358q2 8 7 20.5t24.5 50t44.5 71.5t69.5 75.5t96.5 71t128 50
t163 20.5q233 0 353 -88t120 -213q0 -64 -23 -112.5t-56 -72.5t-66 -39t-56 -19l-23 -3l-4 -21q7 -2 19 -5.5t42 -20t52.5 -38.5t41.5 -63t19 -90q0 -62 -28.5 -121t-83.5 -109.5t-148.5 -81t-212.5 -30.5q-84 0 -156.5 13t-123.5 35t-93 50.5t-68.5 59.5t-46.5 62.5t-30 60
t-16 50.5t-7 35z" />
    <glyph glyph-name="afii10074" unicode="&#x438;" horiz-adv-x="1290" 
d="M461 0h-359l189 1065h348l-76 -430l-49 -164h21l483 594h358l-188 -1065h-348l75 430l50 164h-21z" />
    <glyph glyph-name="afii10075" unicode="&#x439;" horiz-adv-x="1290" 
d="M461 0h-359l189 1065h348l-76 -430l-49 -164h21l483 594h358l-188 -1065h-348l75 430l50 164h-21zM860 1190q-162 0 -245 71t-83 187v27h209v-7q0 -37 33.5 -61.5t93.5 -24.5q53 0 84.5 26.5t34.5 66.5h205q-18 -140 -105 -212.5t-227 -72.5z" />
    <glyph glyph-name="afii10076" unicode="&#x43a;" horiz-adv-x="1187" 
d="M520 389l-69 -389h-349l189 1065h348l-68 -379h103l303 379h379l-398 -502l240 -563h-379l-166 389h-133z" />
    <glyph glyph-name="afii10077" unicode="&#x43b;" horiz-adv-x="1167" 
d="M694 768l-329 -768h-355l455 1065h635l78 -1065h-342l-58 768h-84z" />
    <glyph glyph-name="afii10078" unicode="&#x43c;" horiz-adv-x="1587" 
d="M682 205l-123 471h-20l-4 -144l-95 -532h-338l189 1065h454l121 -533h31l309 533h467l-188 -1065h-338l94 532l45 144h-20l-287 -471h-297z" />
    <glyph glyph-name="afii10079" unicode="&#x43d;" horiz-adv-x="1269" 
d="M102 0l189 1065h348l-68 -379h369l68 379h348l-189 -1065h-348l70 389h-369l-69 -389h-349z" />
    <glyph glyph-name="afii10080" unicode="&#x43e;" horiz-adv-x="1290" 
d="M500 489q0 -100 60.5 -161.5t156.5 -61.5q105 0 183.5 86t78.5 223q0 101 -60.5 162.5t-156.5 61.5q-105 0 -183.5 -86.5t-78.5 -223.5zM143 485q0 164 86.5 305t233.5 223.5t317 82.5q122 0 226.5 -41t176 -111t112 -164.5t40.5 -199.5q0 -164 -86.5 -305t-233.5 -223.5
t-317 -82.5q-122 0 -226.5 41t-176 111t-112 164.5t-40.5 199.5z" />
    <glyph glyph-name="afii10081" unicode="&#x43f;" horiz-adv-x="1259" 
d="M102 0l189 1065h1055l-189 -1065h-348l135 768h-358l-135 -768h-349z" />
    <glyph glyph-name="afii10082" unicode="&#x440;" 
d="M637 1065l-23 -133h17q5 7 14.5 18t41 39t65.5 50t87 39.5t107 17.5q180 0 296 -130.5t116 -340.5q0 -148 -46.5 -274.5t-123 -208.5t-171.5 -127.5t-194 -45.5q-69 0 -128 20t-94 48t-59.5 58t-34 48t-9.5 21h-21l-96 -553h-348l256 1454h348zM793 799
q-105 0 -178.5 -84.5t-73.5 -235.5q0 -101 56 -157t151 -56q105 0 178 84.5t73 235.5q0 101 -55.5 157t-150.5 56z" />
    <glyph glyph-name="afii10083" unicode="&#x441;" horiz-adv-x="1239" 
d="M686 -31q-108 0 -206 36t-173 101t-119.5 163.5t-44.5 215.5q0 164 85 305t228 223.5t306 82.5q82 0 152 -15t120 -40.5t91 -58.5t67 -69.5t46 -73.5t29.5 -70t15.5 -58.5t7 -40.5l2 -15h-356q-1 6 -4.5 15.5t-17.5 34.5t-33 44t-54.5 34.5t-78.5 15.5q-95 0 -171.5 -87
t-76.5 -223q0 -103 55 -163t139 -60q44 0 81.5 15t60.5 36t39.5 42t22.5 36l7 15h365q-3 -9 -8 -25t-27 -62t-49.5 -87.5t-76.5 -92.5t-105.5 -87.5t-140 -61.5t-177.5 -25z" />
    <glyph glyph-name="afii10084" unicode="&#x442;" horiz-adv-x="1064" 
d="M125 768l53 297h1045l-54 -297h-348l-135 -768h-348l135 768h-348z" />
    <glyph glyph-name="afii10085" unicode="&#x443;" horiz-adv-x="1177" 
d="M498 0h-226q-6 72 -39 464t-49 601h348l50 -768h61q65 149 188.5 426.5t151.5 341.5h369l-666 -1454h-369z" />
    <glyph glyph-name="afii10086" unicode="&#x444;" horiz-adv-x="1556" 
d="M647 254l98 555q-102 -10 -181 -97.5t-79 -232.5q0 -88 44.5 -146t117.5 -79zM1094 811l-99 -555q102 10 181 97.5t79 232.5q0 88 -44 146t-117 79zM946 -20l-63 -369h-348l65 369q-204 31 -330.5 170.5t-126.5 330.5q0 131 53.5 244.5t143 191t208 122.5t247.5 46
l65 369h348l-67 -369q204 -31 330 -170t126 -331q0 -174 -91 -313t-238.5 -214t-321.5 -77z" />
    <glyph glyph-name="afii10087" unicode="&#x445;" horiz-adv-x="1198" 
d="M1208 0h-379l-106 379h-61l-242 -379h-400l396 553l-187 512h369l98 -369h62l229 369h389l-366 -512z" />
    <glyph glyph-name="afii10088" unicode="&#x446;" horiz-adv-x="1290" 
d="M639 1065l-135 -768h327l136 768h348l-135 -768h133l-92 -512h-328l39 215h-830l189 1065h348z" />
    <glyph glyph-name="afii10089" unicode="&#x447;" horiz-adv-x="1208" 
d="M621 1065l-64 -354q-12 -75 27 -116.5t131 -41.5q40 0 77.5 10.5t54.5 21.5l17 11l82 469h348l-186 -1065h-348l51 297q-84 -39 -215 -39q-216 0 -321 116.5t-70 317.5l65 373h351z" />
    <glyph glyph-name="afii10090" unicode="&#x448;" horiz-adv-x="1720" 
d="M739 297l135 768h349l-136 -768h236l135 768h348l-188 -1065h-1516l189 1065h348l-135 -768h235z" />
    <glyph glyph-name="afii10091" unicode="&#x449;" horiz-adv-x="1781" 
d="M1423 0h-1321l189 1065h348l-135 -768h235l135 768h349l-136 -768h236l135 768h348l-135 -768h133l-90 -502h-328z" />
    <glyph glyph-name="afii10092" unicode="&#x44a;" horiz-adv-x="1228" 
d="M692 737h168q175 0 286 -99.5t111 -242.5q0 -166 -125.5 -280.5t-318.5 -114.5h-598l135 768h-205l54 297h553zM788 471h-141l-37 -205h172q59 0 92 31t33 84q0 42 -32 66t-87 24z" />
    <glyph glyph-name="afii10093" unicode="&#x44b;" horiz-adv-x="1607" 
d="M666 471h-131l-37 -205h161q59 0 92 31t33 84q0 42 -32 66t-86 24zM580 737h157q175 0 286.5 -99.5t111.5 -242.5q0 -166 -126 -280.5t-319 -114.5h-588l189 1065h348zM1157 0l189 1065h348l-189 -1065h-348z" />
    <glyph glyph-name="afii10094" unicode="&#x44c;" horiz-adv-x="1146" 
d="M707 471h-172l-37 -205h202q59 0 92 31t33 84q0 42 -31.5 66t-86.5 24zM580 737h198q175 0 286.5 -99.5t111.5 -242.5q0 -166 -126 -280.5t-319 -114.5h-629l189 1065h348z" />
    <glyph glyph-name="afii10095" unicode="&#x44d;" horiz-adv-x="1239" 
d="M741 1096q108 0 206 -36t173 -101t119.5 -163.5t44.5 -215.5q0 -123 -50 -236t-134 -195t-198 -131t-236 -49q-102 0 -187 23.5t-138 61.5t-93.5 84t-60.5 92t-32.5 84t-14.5 62l-3 23h359q2 -5 5 -14t17.5 -32t33 -40.5t53 -32t75.5 -14.5q65 0 125.5 44t93.5 120h-291
l35 205h279q-15 77 -67 120.5t-122 43.5q-43 0 -79.5 -13.5t-58.5 -33.5t-38 -39.5t-23 -32.5l-6 -14h-368q3 9 8.5 24.5t27.5 60t49.5 85.5t76 90.5t105 85t139 60t175.5 24.5z" />
    <glyph glyph-name="afii10096" unicode="&#x44e;" horiz-adv-x="1714" 
d="M1141 -31q-217 0 -360 121.5t-167 298.5h-114l-70 -389h-328l189 1065h327l-71 -399h94q31 86 85 162.5t127 137t168.5 95.5t201.5 35q237 0 386.5 -145.5t149.5 -364.5q0 -171 -85 -313.5t-226.5 -223t-306.5 -80.5zM1161 266q97 0 168.5 87t71.5 237q0 100 -53.5 154.5
t-143.5 54.5q-97 0 -168 -87t-71 -237q0 -101 53 -155t143 -54z" />
    <glyph glyph-name="afii10097" unicode="&#x44f;" horiz-adv-x="1198" 
d="M686 584h164l37 204h-191q-58 0 -92.5 -31t-34.5 -81q0 -43 31.5 -67.5t85.5 -24.5zM51 0l303 401q-6 3 -15.5 8.5t-34.5 28t-44.5 49t-35 71.5t-15.5 97q0 176 126.5 293t330.5 117h618l-188 -1065h-348l55 317h-164l-217 -317h-371z" />
    <glyph glyph-name="afii10071" unicode="&#x451;" horiz-adv-x="1280" 
d="M700 -31q-242 0 -399.5 145.5t-157.5 372.5q0 122 51.5 235t136.5 194.5t201 130.5t240 49q121 0 223.5 -41t171.5 -111.5t107.5 -164.5t38.5 -199q0 -41 -10 -109h-809q5 -108 59.5 -166.5t153.5 -58.5q41 0 77 11.5t58 28t38 33t22 27.5l7 12h375q-3 -8 -9 -22
t-29 -54.5t-51.5 -77t-77.5 -81.5t-106 -77.5t-138.5 -54.5t-172.5 -22zM526 645h432q-5 68 -60 121t-130 53q-85 0 -148 -45t-94 -129zM592 1186q-67 0 -109.5 42.5t-42.5 104.5q0 75 52 127.5t124 52.5q67 0 109.5 -42.5t42.5 -104.5q0 -76 -52 -128t-124 -52zM1012 1186
q-67 0 -109.5 42.5t-42.5 104.5q0 75 52 127.5t124 52.5q67 0 109.5 -42.5t42.5 -104.5q0 -76 -52 -128t-124 -52z" />
    <glyph glyph-name="afii10099" unicode="&#x452;" horiz-adv-x="1310" 
d="M1303 406l-142 -795h-586l50 276h237l88 498q16 95 -26.5 154t-141.5 59q-80 0 -144 -60.5t-81 -158.5l-65 -379h-349l176 993h-133l47 277h134l28 164h348l-28 -164h246l-48 -277h-245l-47 -276h16q5 7 14 18t40 39t65 50t86.5 39.5t107.5 17.5q206 0 298.5 -133
t54.5 -342z" />
    <glyph glyph-name="afii10100" unicode="&#x453;" horiz-adv-x="972" 
d="M102 0l189 1065h839l-53 -297h-491l-135 -768h-349zM813 1516h348l-2 -11l-319 -307h-236z" />
    <glyph glyph-name="afii10101" unicode="&#x454;" horiz-adv-x="1236" 
d="M686 -31q-108 0 -206 36t-173 101t-119.5 163.5t-44.5 215.5q0 164 85 305t228 223.5t306 82.5q81 0 150.5 -14.5t119 -39.5t90.5 -57.5t67 -68t46 -71t30 -68t16 -57.5t7 -40l2 -14h-358q-1 5 -4.5 14t-17.5 32t-32.5 40.5t-53 32t-76.5 14.5q-66 0 -126.5 -44.5
t-93.5 -119.5h291l-37 -205h-276q15 -77 66.5 -120.5t121.5 -43.5q41 0 77 13.5t59 33t39.5 39.5t24.5 34l7 13h365q-3 -9 -8.5 -24.5t-27 -60t-49 -85.5t-76 -90.5t-105 -85t-139 -60t-175.5 -24.5z" />
    <glyph glyph-name="afii10102" unicode="&#x455;" horiz-adv-x="1126" 
d="M221 748q0 70 29.5 132.5t85 110.5t141.5 76.5t191 28.5q100 0 183 -20t135.5 -50t92.5 -70t59.5 -75.5t32 -70.5t15 -51.5t2.5 -21.5h-334v3l-3 9t-5.5 13.5t-10 16.5t-15 17.5t-21 16.5t-28 14t-37 9.5t-46.5 3.5q-50 0 -78 -20t-28 -52q0 -25 30.5 -45.5t79.5 -36.5
t107.5 -34t117.5 -44t108 -60t79.5 -88t30.5 -122q0 -74 -30.5 -139.5t-89 -117t-152 -82t-210.5 -30.5q-105 0 -191.5 21t-141.5 54.5t-96.5 73.5t-62.5 80.5t-33.5 74t-15.5 54.5l-3 21h344q0 -3 3 -12.5t16 -27.5t33.5 -33.5t61 -27t92.5 -11.5q57 0 86 19.5t29 49.5
q0 25 -30.5 46t-79.5 38.5t-107.5 36.5t-117.5 46t-108 62t-79.5 90t-30.5 124z" />
    <glyph glyph-name="afii10103" unicode="&#x456;" horiz-adv-x="552" 
d="M639 1065l-188 -1065h-349l189 1065h348zM508 1178q-83 0 -130.5 42t-47.5 111q0 86 54 140.5t138 54.5q83 0 130.5 -42.5t47.5 -111.5q0 -86 -54 -140t-138 -54z" />
    <glyph glyph-name="afii10104" unicode="&#x457;" horiz-adv-x="552" 
d="M639 1065l-188 -1065h-349l189 1065h348zM285 1198q-67 0 -109.5 43t-42.5 105q0 76 52.5 128t123.5 52q67 0 109.5 -43t42.5 -105q0 -76 -52.5 -128t-123.5 -52zM705 1198q-67 0 -109.5 43t-42.5 105q0 76 52.5 128t123.5 52q67 0 109.5 -43t42.5 -105q0 -76 -52.5 -128
t-123.5 -52z" />
    <glyph glyph-name="afii10105" unicode="&#x458;" horiz-adv-x="552" 
d="M639 1065l-256 -1454h-625l49 276h277l207 1178h348zM508 1178q-83 0 -130.5 42t-47.5 111q0 86 54 140.5t138 54.5q83 0 130.5 -42.5t47.5 -111.5q0 -86 -54 -140t-138 -54z" />
    <glyph glyph-name="afii10106" unicode="&#x459;" horiz-adv-x="1740" 
d="M1214 737h158q175 0 286 -99.5t111 -242.5q0 -166 -125.5 -280.5t-318.5 -114.5h-588l135 768h-163l-330 -768h-359l465 1065h789zM1300 471h-131l-36 -205h161q59 0 92 31t33 84q0 42 -32 66t-87 24z" />
    <glyph glyph-name="afii10107" unicode="&#x45a;" horiz-adv-x="1812" 
d="M1286 737h158q175 0 286 -99.5t111 -242.5q0 -166 -125.5 -280.5t-318.5 -114.5h-588l78 440h-359l-77 -440h-349l189 1065h348l-59 -328h358l59 328h349zM1372 471h-131l-37 -205h162q59 0 92 31t33 84q0 42 -32 66t-87 24z" />
    <glyph glyph-name="afii10108" unicode="&#x45b;" horiz-adv-x="1310" 
d="M1303 406l-74 -406h-348l69 385q16 95 -26.5 154t-141.5 59q-80 0 -144 -60.5t-81 -158.5l-65 -379h-349l176 993h-133l47 277h134l28 164h348l-28 -164h246l-48 -277h-245l-47 -276h16q5 7 14 18t40 39t65 50t86.5 39.5t107.5 17.5q206 0 298.5 -133t54.5 -342z" />
    <glyph glyph-name="afii10109" unicode="&#x45c;" horiz-adv-x="1187" 
d="M905 1516h348l-2 -11l-319 -307h-236zM520 389l-69 -389h-349l189 1065h348l-68 -379h103l303 379h379l-398 -502l240 -563h-379l-166 389h-133z" />
    <glyph glyph-name="afii10110" unicode="&#x45e;" horiz-adv-x="1177" 
d="M498 0h-226q-6 72 -39 464t-49 601h348l50 -768h61q65 149 188.5 426.5t151.5 341.5h369l-666 -1454h-369zM776 1190q-162 0 -244.5 71t-82.5 187v27h208v-7q0 -37 33.5 -61.5t93.5 -24.5q53 0 84.5 26.5t34.5 66.5h205q-18 -140 -105 -212.5t-227 -72.5z" />
    <glyph glyph-name="afii10193" unicode="&#x45f;" horiz-adv-x="1269" 
d="M1356 1065l-189 -1065h-368l-37 -205h-328l37 205h-369l189 1065h348l-135 -768h368l136 768h348z" />
    <glyph glyph-name="afii10050" unicode="&#x490;" horiz-adv-x="1218" 
d="M1368 1085h-666l-190 -1085h-379l252 1434h666l36 204h379z" />
    <glyph glyph-name="afii10098" unicode="&#x491;" horiz-adv-x="972" 
d="M586 768l-135 -768h-349l189 1065h491l29 164h348l-82 -461h-491z" />
    <glyph glyph-name="uni1E9E" unicode="&#x1e9e;" horiz-adv-x="1556" 
d="M1286 901l-4 -20q6 -1 16.5 -3.5t41.5 -14.5t59 -28t62 -46.5t58.5 -68t42 -94.5t17.5 -124q2 -224 -141 -363t-391 -139h-320l61 348h248q74 0 115 36t41 95q0 49 -37.5 82t-110.5 33h-202l55 307l236 184h-246h-33q-160 0 -186 -147l-166 -938h-379l176 989
q36 203 186.5 324t384.5 121h744l-58 -328z" />
    <glyph glyph-name="endash" unicode="&#x2013;" horiz-adv-x="1536" 
d="M1505 420h-1331l47 266h1331z" />
    <glyph glyph-name="emdash" unicode="&#x2014;" horiz-adv-x="1925" 
d="M1894 420h-1720l47 266h1721z" />
    <glyph glyph-name="quoteleft" unicode="&#x2018;" horiz-adv-x="501" 
d="M225 1044q0 196 103.5 318.5t271.5 122.5h43l-22 -133h-11q-142 0 -178 -144l-4 -16q18 6 43 6q58 0 93.5 -40t35.5 -101q0 -86 -61.5 -146.5t-141.5 -60.5t-126 50t-46 144z" />
    <glyph glyph-name="quoteright" unicode="&#x2019;" horiz-adv-x="501" 
d="M649 1290q0 -196 -103.5 -318t-271.5 -122h-43l23 133h10q142 0 178 143l4 17q-18 -6 -43 -6q-58 0 -93.5 40t-35.5 101q0 86 61.5 146.5t141.5 60.5q79 0 125.5 -50.5t46.5 -144.5z" />
    <glyph glyph-name="quotesinglbase" unicode="&#x201a;" horiz-adv-x="491" 
d="M477 143q0 -196 -103.5 -318t-271.5 -122h-43l23 133h10q142 0 178 144l4 16q-18 -6 -43 -6q-58 0 -93.5 40t-35.5 101q0 86 61.5 146.5t141.5 60.5q79 0 125.5 -50.5t46.5 -144.5z" />
    <glyph glyph-name="quotedblleft" unicode="&#x201c;" horiz-adv-x="952" 
d="M225 1044q0 196 103.5 318.5t271.5 122.5h43l-22 -133h-11q-142 0 -178 -144l-4 -16q18 6 43 6q58 0 93.5 -40t35.5 -101q0 -86 -61.5 -146.5t-141.5 -60.5t-126 50t-46 144zM676 1044q0 196 103.5 318.5t271.5 122.5h43l-23 -133h-10q-142 0 -178 -144l-4 -16q18 6 43 6
q58 0 93.5 -40t35.5 -101q0 -86 -61.5 -146.5t-141.5 -60.5t-126 50t-46 144z" />
    <glyph glyph-name="quotedblright" unicode="&#x201d;" horiz-adv-x="952" 
d="M649 1290q0 -196 -103.5 -318t-271.5 -122h-43l23 133h10q142 0 178 143l4 17q-18 -6 -43 -6q-58 0 -93.5 40t-35.5 101q0 86 61.5 146.5t141.5 60.5q79 0 125.5 -50.5t46.5 -144.5zM1100 1290q0 -196 -103.5 -318t-271.5 -122h-43l23 133h10q142 0 178 143l4 17
q-18 -6 -43 -6q-58 0 -93.5 40t-35.5 101q0 86 61.5 146.5t141.5 60.5q79 0 125.5 -50.5t46.5 -144.5z" />
    <glyph glyph-name="quotedblbase" unicode="&#x201e;" horiz-adv-x="942" 
d="M477 143q0 -196 -103.5 -318t-271.5 -122h-43l23 133h10q142 0 178 144l4 16q-18 -6 -43 -6q-58 0 -93.5 40t-35.5 101q0 86 61.5 146.5t141.5 60.5q79 0 125.5 -50.5t46.5 -144.5zM928 143q0 -196 -103.5 -318t-271.5 -122h-43l22 133h11q142 0 178 144l4 16
q-18 -6 -43 -6q-58 0 -93.5 40t-35.5 101q0 86 61.5 146.5t141.5 60.5q79 0 125.5 -50.5t46.5 -144.5z" />
    <glyph glyph-name="dagger" unicode="&#x2020;" horiz-adv-x="962" 
d="M307 0l135 768h-245l53 297h246l63 369h328l-64 -369h246l-53 -297h-246l-135 -768h-328z" />
    <glyph glyph-name="daggerdbl" unicode="&#x2021;" horiz-adv-x="962" 
d="M406 553l57 328h-246l51 297h246l45 256h328l-45 -256h245l-51 -297h-245l-58 -328h246l-53 -297h-246l-45 -256h-328l45 256h-246l54 297h246z" />
    <glyph glyph-name="bullet" unicode="&#x2022;" horiz-adv-x="962" 
d="M575 358q-94 0 -156.5 61t-62.5 150q0 110 76 185t178 75q94 0 156.5 -61t62.5 -150q0 -110 -76 -185t-178 -75z" />
    <glyph glyph-name="ellipsis" unicode="&#x2026;" horiz-adv-x="1679" 
d="M270 -31q-74 0 -121 48t-47 118q0 83 59.5 143t139.5 60q74 0 122 -48t48 -118q0 -83 -60.5 -143t-140.5 -60zM864 -31q-74 0 -121 48t-47 118q0 83 59.5 143t139.5 60q74 0 122 -48t48 -118q0 -83 -60.5 -143t-140.5 -60zM1458 -31q-74 0 -121 48t-47 118q0 83 59.5 143
t139.5 60q74 0 122 -48t48 -118q0 -83 -60.5 -143t-140.5 -60z" />
    <glyph glyph-name="perthousand" unicode="&#x2030;" horiz-adv-x="2473" 
d="M623 983q55 0 93 38.5t38 96.5q0 48 -32.5 78.5t-84.5 30.5q-55 0 -93 -38.5t-38 -96.5q0 -48 32.5 -78.5t84.5 -30.5zM604 756q-147 0 -240.5 91.5t-93.5 227.5q0 158 114 268.5t271 110.5q147 0 240.5 -91.5t93.5 -227.5q0 -158 -114 -268.5t-271 -110.5zM1669 1434
l-1112 -1434h-266l1112 1434h266zM1315 451q-55 0 -93 -39t-38 -97q0 -48 32 -78t84 -30q55 0 93.5 38.5t38.5 96.5q0 48 -32.5 78.5t-84.5 30.5zM1333 678q147 0 240.5 -92t93.5 -228q0 -158 -114 -268t-271 -110q-147 0 -240.5 91.5t-93.5 227.5q0 158 114 268.5
t271 110.5zM2111 451q-55 0 -93 -39t-38 -97q0 -48 32.5 -78t84.5 -30q55 0 93 38.5t38 96.5q0 48 -32.5 78.5t-84.5 30.5zM2130 678q147 0 240.5 -92t93.5 -228q0 -158 -114 -268t-271 -110q-147 0 -240.5 91.5t-93.5 227.5q0 158 114 268.5t271 110.5z" />
    <glyph glyph-name="guilsinglleft" unicode="&#x2039;" horiz-adv-x="839" 
d="M803 197l-232 -197l-428 532l617 533l178 -217l-406 -336z" />
    <glyph glyph-name="guilsinglright" unicode="&#x203a;" horiz-adv-x="839" 
d="M252 868l231 197l428 -533l-616 -532l-178 217l405 336z" />
    <glyph glyph-name="fraction" unicode="&#x2044;" horiz-adv-x="307" 
d="M969 1434l-1112 -1434h-267l1112 1434h267z" />
    <glyph glyph-name="zerosuperior" unicode="&#x2070;" horiz-adv-x="798" 
d="M575 1126q48 0 92 52.5t44 158.5q0 53 -22.5 85t-55.5 32q-48 0 -91.5 -52.5t-43.5 -158.5q0 -53 22 -85t55 -32zM571 922q-138 0 -227.5 90.5t-89.5 232.5q0 89 32 167t85.5 131.5t122.5 84.5t143 31q138 0 227.5 -91t89.5 -233q0 -118 -55 -214t-142 -147.5t-186 -51.5
z" />
    <glyph glyph-name="foursuperior" unicode="&#x2074;" horiz-adv-x="727" 
d="M778 942h-235l22 123h-358l33 184l313 389h246l-299 -368h102l68 102h184l-16 -102h82l-37 -205h-82z" />
    <glyph glyph-name="fivesuperior" unicode="&#x2075;" horiz-adv-x="747" 
d="M565 1454l-24 -86q35 21 96 21q118 0 183 -56.5t65 -146.5q0 -111 -85.5 -187.5t-228.5 -76.5q-62 0 -113 12t-83.5 29t-58 43t-38 47t-21 48t-10.5 39t-3 27h233q0 -2 1 -5.5t6 -12.5t13 -15.5t24.5 -12t37.5 -5.5q36 0 60 20t24 52q0 25 -23.5 43t-62.5 18
q-20 0 -37.5 -5t-25.5 -10l-7 -5l-194 20l100 389h502l-33 -184h-297z" />
    <glyph glyph-name="sixsuperior" unicode="&#x2076;" horiz-adv-x="716" 
d="M233 1161q0 148 175 309l182 168h276l-231 -208l-78 -37l-2 -11q47 25 100 25q95 0 155 -61.5t60 -151.5q0 -118 -87.5 -195t-229.5 -77q-152 0 -236 68t-84 171zM549 1106q38 0 61 22t23 56q0 31 -21 50t-59 19t-61 -21.5t-23 -55.5q0 -31 21 -50.5t59 -19.5z" />
    <glyph glyph-name="sevensuperior" unicode="&#x2077;" horiz-adv-x="645" 
d="M887 1434l-352 -492h-246l340 471l2 21h-338l37 204h594z" />
    <glyph glyph-name="eightsuperior" unicode="&#x2078;" horiz-adv-x="798" 
d="M616 922q-161 0 -267.5 58t-106.5 153q0 45 19 81t46 55t54 31t46 16l19 3l2 10q-4 1 -10.5 4t-23.5 13.5t-30 24t-23.5 37.5t-10.5 52q0 84 73 141.5t213 57.5q175 0 261 -57.5t86 -139.5q0 -41 -15.5 -73t-37.5 -49t-44 -28.5t-38 -14.5l-15 -3l-2 -10q5 -2 13.5 -5
t30 -15.5t38 -28.5t30 -44t13.5 -61q0 -86 -81 -147t-239 -61zM602 1096q44 0 68 17.5t24 41.5q0 26 -27 45t-83 19q-44 0 -68 -18t-24 -42q0 -26 27 -44.5t83 -18.5zM645 1372q35 0 55.5 14t20.5 39q0 22 -23 36t-63 14q-35 0 -55.5 -14.5t-20.5 -39.5q0 -22 22.5 -35.5
t63.5 -13.5z" />
    <glyph glyph-name="ninesuperior" unicode="&#x2079;" horiz-adv-x="716" 
d="M901 1419q0 -149 -174 -309l-182 -168h-277l232 209l78 37l2 10q-48 -24 -101 -24q-95 0 -155 61t-60 151q0 118 88 195.5t230 77.5q152 0 235.5 -68.5t83.5 -171.5zM586 1475q-38 0 -61 -22t-23 -56q0 -31 21 -50.5t59 -19.5t61 22t23 56q0 31 -21 50.5t-59 19.5z" />
    <glyph glyph-name="zeroinferior" unicode="&#x2080;" horiz-adv-x="798" 
d="M410 -20q48 0 91.5 52t43.5 158q0 53 -22.5 85t-55.5 32q-48 0 -91.5 -52.5t-43.5 -158.5q0 -53 22.5 -84.5t55.5 -31.5zM406 -225q-139 0 -228.5 90.5t-89.5 232.5q0 89 32 167t85.5 131.5t122.5 84.5t143 31q138 0 227.5 -91t89.5 -233q0 -89 -32 -167t-85 -131.5
t-122 -84t-143 -30.5z" />
    <glyph glyph-name="oneinferior" unicode="&#x2081;" horiz-adv-x="747" 
d="M41 -205l37 205h184l47 266l-180 -92l37 215l203 103h225l-86 -492h164l-37 -205h-594z" />
    <glyph glyph-name="twoinferior" unicode="&#x2082;" horiz-adv-x="757" 
d="M389 -10l-2 -10l96 20h215l-36 -205h-635l36 205l179 82q153 71 198 101t45 69q0 24 -19 40.5t-50 16.5q-30 0 -51.5 -15.5t-28.5 -31.5l-6 -16h-240q1 6 4.5 15.5t16 37t29 52.5t45.5 56t63.5 53t85 37t108.5 15q147 0 226.5 -64t79.5 -157q0 -118 -85 -189t-274 -112z
" />
    <glyph glyph-name="threeinferior" unicode="&#x2083;" horiz-adv-x="727" 
d="M518 215l-2 -10q85 -7 132.5 -55.5t47.5 -120.5q0 -111 -83.5 -182.5t-217.5 -71.5q-66 0 -120 13.5t-87.5 35t-59 47.5t-37.5 52.5t-19.5 48t-9.5 34.5l-1 14h232q1 -2 2.5 -6.5t8 -15t15 -18.5t23.5 -14.5t33 -6.5q31 0 54.5 19.5t23.5 48.5q0 28 -18 45t-52 20h-143
l22 123l193 102l2 11l-86 -21h-226l33 185h563l-30 -175z" />
    <glyph glyph-name="fourinferior" unicode="&#x2084;" horiz-adv-x="727" 
d="M592 -205h-236l23 123h-359l33 184l314 390h245l-299 -369h103l67 102h185l-17 -102h82l-37 -205h-82z" />
    <glyph glyph-name="fiveinferior" unicode="&#x2085;" horiz-adv-x="747" 
d="M397 307l-24 -86q35 21 96 21q118 0 183 -56.5t65 -146.5q0 -111 -85.5 -187.5t-228.5 -76.5q-62 0 -113 12t-83.5 29t-58 43t-38 47t-21 48t-10.5 39t-3 27h233q0 -2 1 -5.5t6 -12.5t13 -15.5t24.5 -12t37.5 -5.5q36 0 60 20t24 52q0 25 -23.5 43t-62.5 18
q-20 0 -37.5 -5t-25.5 -10l-7 -5l-194 20l100 390h502l-33 -185h-297z" />
    <glyph glyph-name="sixinferior" unicode="&#x2086;" horiz-adv-x="716" 
d="M51 14q0 150 174 310l183 168h276l-231 -209l-78 -37l-2 -10q47 24 100 24q95 0 155 -61.5t60 -151.5q0 -118 -87.5 -195t-229.5 -77q-152 0 -236 68t-84 171zM367 -41q38 0 61 22t23 56q0 31 -21 50t-59 19t-61 -21.5t-23 -55.5q0 -31 21 -50.5t59 -19.5z" />
    <glyph glyph-name="seveninferior" unicode="&#x2087;" horiz-adv-x="645" 
d="M700 287l-352 -492h-246l340 471l2 21h-338l37 205h594z" />
    <glyph glyph-name="eightinferior" unicode="&#x2088;" horiz-adv-x="798" 
d="M436 -225q-162 0 -268.5 58t-106.5 153q0 45 19 81t46 55t54.5 31t46.5 15l19 4l2 10q-4 1 -10.5 4t-23.5 13.5t-30 24t-23.5 37.5t-10.5 52q0 84 73 141.5t213 57.5q175 0 260.5 -57.5t85.5 -139.5q0 -41 -15.5 -73t-37 -49t-43.5 -28.5t-38 -14.5l-15 -3l-2 -10
q5 -1 13.5 -4.5t30 -16t38 -28t30 -43.5t13.5 -61q0 -86 -81 -147.5t-239 -61.5zM422 -51q44 0 68 17.5t24 41.5q0 26 -27.5 45t-83.5 19q-44 0 -68 -18t-24 -42q0 -26 27.5 -44.5t83.5 -18.5zM465 225q35 0 55.5 14.5t20.5 39.5q0 22 -22.5 35.5t-63.5 13.5
q-35 0 -55.5 -14.5t-20.5 -39.5q0 -22 22.5 -35.5t63.5 -13.5z" />
    <glyph glyph-name="nineinferior" unicode="&#x2089;" horiz-adv-x="716" 
d="M719 272q0 -149 -174 -309l-183 -168h-276l231 209l78 37l2 10q-47 -24 -100 -24q-95 0 -155 61.5t-60 151.5q0 118 87.5 195t229.5 77q152 0 236 -68.5t84 -171.5zM403 328q-38 0 -61 -22t-23 -56q0 -31 21 -50.5t59 -19.5t61 22t23 56q0 31 -21 50.5t-59 19.5z" />
    <glyph glyph-name="Euro" unicode="&#x20ac;" horiz-adv-x="1781" 
d="M1030 -41q-276 0 -468.5 139.5t-254.5 362.5h-186l33 184h127v8q0 37 3 71t6 49l3 15h-115l33 185h137q100 223 313.5 362.5t473.5 139.5q140 0 256.5 -35.5t193.5 -92t134 -133t86.5 -150.5t43.5 -153h-387q-38 95 -123.5 155t-226.5 60q-96 0 -182 -40.5t-146 -112.5
h359l-33 -185h-416q-14 -54 -14 -126v-17h405l-32 -184h-318q48 -73 130 -113.5t188 -40.5q58 0 110.5 13.5t90 35.5t69.5 48t52.5 52t35.5 48t21 36l6 13h395q-4 -12 -12.5 -33.5t-41.5 -83.5t-72.5 -118t-108 -124.5t-146 -117.5t-188.5 -83t-234 -34z" />
    <glyph glyph-name="uni20B4" unicode="&#x20b4;" horiz-adv-x="1413" 
d="M1401 952h76l-33 -184h-1229l33 184h770q2 1 5.5 3.5t13 12t16.5 20t12.5 29t5.5 38.5q0 51 -55.5 92t-153.5 41q-47 0 -87.5 -15t-65 -36t-42.5 -42t-25 -36l-7 -15h-377q3 9 8 24.5t27.5 60.5t51 85.5t81 90t114 85.5t152.5 60.5t195 24.5q122 0 224 -21.5t169.5 -56
t114.5 -79.5t67.5 -90.5t20.5 -90.5q0 -32 -8.5 -62.5t-20.5 -51.5t-24 -38t-20 -25zM240 481h-76l33 185h1228l-32 -185h-770q-2 -1 -5.5 -3.5t-13 -11.5t-16.5 -20t-13 -29t-6 -38q0 -51 55.5 -92t153.5 -41q47 0 88 14.5t65.5 35.5t42.5 42.5t25 35.5l7 15h376
q-2 -9 -7.5 -24.5t-28 -60t-51 -85.5t-80.5 -90.5t-113.5 -85t-152.5 -60t-195 -24.5q-122 0 -224 21.5t-169.5 56t-114.5 79.5t-67.5 90.5t-20.5 90.5q0 50 20.5 96t41.5 67z" />
    <glyph glyph-name="uni20BD" unicode="&#x20bd;" horiz-adv-x="1474" 
d="M1004 1126h-222l-57 -327h266q91 0 147 50t56 126q0 60 -53 105.5t-137 45.5zM457 1434h598q257 0 395.5 -115.5t138.5 -290.5q0 -223 -147 -359.5t-410 -136.5h-354l-23 -122h441l-43 -246h-441l-28 -164h-379l28 164h-153l43 246h153l23 122h-154l48 267h153z" />
    <glyph glyph-name="afii61352" unicode="&#x2116;" horiz-adv-x="2324" 
d="M1004 0l-342 901h-21l-2 -184l-127 -717h-379l252 1434h440l344 -902h21l2 185l125 717h379l-252 -1434h-440zM2314 410h-635l43 245h635zM2109 983q49 0 87 39.5t38 99.5q0 47 -28 77t-72 30q-49 0 -87 -39.5t-38 -99.5q0 -47 28 -77t72 -30zM2150 1454
q139 0 230.5 -92.5t91.5 -224.5q0 -157 -113.5 -268t-265.5 -111q-139 0 -230 92t-91 225q0 157 113 268t265 111z" />
    <glyph glyph-name="trademark" unicode="&#x2122;" horiz-adv-x="1740" 
d="M881 1434v-236h-205v-420h-266v420h-205v236h676zM1505 922h-184l-102 245h-21l21 -123v-266h-267v656h344l107 -277h20l107 277h344v-656h-266v266l20 123h-20z" />
    <glyph glyph-name="arrowleft" unicode="&#x2190;" horiz-adv-x="1843" 
d="M748 1157h40v-348h984v-205h-984v-348h-40l-431 430v41z" />
    <glyph glyph-name="arrowup" unicode="&#x2191;" horiz-adv-x="1843" 
d="M594 963v41l430 430h41l430 -430v-41h-348v-963h-205v963h-348z" />
    <glyph glyph-name="arrowright" unicode="&#x2192;" horiz-adv-x="1843" 
d="M1311 1157h41l430 -430v-41l-430 -430h-41v348h-983v205h983v348z" />
    <glyph glyph-name="arrowdown" unicode="&#x2193;" horiz-adv-x="1843" 
d="M594 430v41h348v963h205v-963h348v-41l-430 -430h-41z" />
    <glyph glyph-name="uni2196" unicode="&#x2196;" horiz-adv-x="1843" 
d="M532 625h-40v624l30 31h625v-41l-236 -235l686 -687l-143 -143l-686 686z" />
    <glyph glyph-name="uni2197" unicode="&#x2197;" horiz-adv-x="1843" 
d="M1567 625h-41l-236 235l-686 -686l-143 143l686 687l-236 235v41h625l31 -31v-624z" />
    <glyph glyph-name="uni2198" unicode="&#x2198;" horiz-adv-x="1843" 
d="M1526 850h41v-625l-31 -30h-625v41l236 235l-686 686l143 143l686 -686z" />
    <glyph glyph-name="uni2199" unicode="&#x2199;" horiz-adv-x="1843" 
d="M492 850h40l236 -236l686 686l143 -143l-686 -686l236 -235v-41h-625l-30 30v625z" />
    <glyph glyph-name="minus" unicode="&#x2212;" horiz-adv-x="1105" 
d="M1106 410h-881v286h881v-286z" />
    <glyph glyph-name="approxequal" unicode="&#x2248;" horiz-adv-x="1105" 
d="M881 164q-62 0 -119 17.5t-90.5 38.5t-71.5 38.5t-68 17.5q-31 0 -51 -20t-20 -51v-31h-256v80q0 123 68.5 195.5t177.5 72.5q62 0 118.5 -17.5t90 -38.5t71.5 -38.5t68 -17.5q31 0 51 20t20 51v31h256v-80q0 -123 -68 -195.5t-177 -72.5zM881 594q-62 0 -119 17.5
t-90.5 39t-71.5 39t-68 17.5q-31 0 -51 -20.5t-20 -51.5v-31h-256v80q0 123 68.5 195.5t177.5 72.5q62 0 118.5 -17.5t90 -38.5t71.5 -38.5t68 -17.5q31 0 51 20t20 51v31h256v-80q0 -123 -68 -195.5t-177 -72.5z" />
    <glyph glyph-name="notequal" unicode="&#x2260;" horiz-adv-x="1105" 
d="M1085 205h-430l-92 -205h-287l93 205h-123v276h246l61 144h-307v276h430l92 205h287l-92 -205h122v-276h-245l-62 -144h307v-276z" />
    <glyph glyph-name="lessequal" unicode="&#x2264;" horiz-adv-x="1105" 
d="M1116 174v-256l-870 307v256zM1116 532v-266l-870 307v328l870 307v-266l-573 -194v-21z" />
    <glyph glyph-name="greaterequal" unicode="&#x2265;" horiz-adv-x="1105" 
d="M225 -82v256l871 307v-256zM225 266v266l574 195v21l-574 194v266l871 -307v-328z" />
    <glyph glyph-name="commaaccent" unicode="&#xf6c3;" horiz-adv-x="460" 
d="M6 -322q0 78 52 128.5t124 50.5q71 0 111.5 -44.5t40.5 -134.5q0 -147 -88 -245.5t-242 -98.5h-31l23 123h22q55 0 91 25.5t45 66.5l4 21q-18 -6 -43 -6q-53 0 -81 31t-28 83z" />
    <glyph glyph-name="cyrBreve" unicode="&#xf6d1;" horiz-adv-x="860" 
d="M682 1546q-170 0 -263 82t-93 209l2 37h243v-16q0 -44 30.5 -70.5t90.5 -26.5q115 0 127 113h248q-22 -158 -122.5 -243t-262.5 -85z" />
    <glyph glyph-name="cyrbreve" unicode="&#xf6d4;" horiz-adv-x="778" 
d="M588 1139q-162 0 -245 71t-83 187v26h209v-6q0 -37 33.5 -61.5t93.5 -24.5q53 0 84.5 26t34.5 66h205q-18 -140 -105 -212t-227 -72z" />
    <glyph glyph-name="zero.oldstyle" unicode="&#xf730;" horiz-adv-x="1310" 
d="M725 256q107 0 185.5 89t78.5 237q0 104 -58.5 165.5t-154.5 61.5q-107 0 -185.5 -89t-78.5 -237q0 -104 58.5 -165.5t154.5 -61.5zM715 -31q-126 0 -232 40t-177.5 109t-111.5 162.5t-40 200.5q0 171 84.5 312.5t229 222t316.5 80.5q126 0 232.5 -40t178 -109
t111.5 -163t40 -200q0 -128 -50 -242.5t-134.5 -196t-201 -129t-245.5 -47.5z" />
    <glyph glyph-name="one.oldstyle" unicode="&#xf731;" horiz-adv-x="757" 
d="M633 0h-348l125 707l-254 -164l59 338l299 184h307z" />
    <glyph glyph-name="two.oldstyle" unicode="&#xf732;" horiz-adv-x="1146" 
d="M780 328l-151 -52l-4 -20l149 31h369l-51 -287h-1024l45 254l415 207q80 39 115.5 57.5t80 45t61 44.5t28.5 42t12 52q0 46 -37 76.5t-106 30.5q-36 0 -67 -12.5t-49 -30.5t-31 -36.5t-18 -31.5l-5 -12h-354q2 9 7 23.5t24.5 57t44.5 81.5t70.5 86t99.5 81t133 57.5
t170 23.5q115 0 208.5 -29.5t151.5 -79t89.5 -111.5t31.5 -128q0 -82 -30.5 -149t-88.5 -117t-127.5 -86.5t-161.5 -67.5z" />
    <glyph glyph-name="three.oldstyle" unicode="&#xf733;" horiz-adv-x="1167" 
d="M575 205h-198l49 287h229q80 0 135.5 50.5t55.5 123.5q0 61 -45.5 102t-116.5 41q-41 0 -75 -12.5t-54 -30.5t-34 -36.5t-19 -31.5l-6 -12h-342q2 9 7 23.5t25 57t45 81.5t70 86t98 81t131.5 57.5t167.5 23.5q117 0 214 -33t158.5 -88t94.5 -124t33 -144q0 -63 -16 -116
t-41.5 -87t-56 -60.5t-61.5 -40.5t-56.5 -22.5t-41.5 -10.5l-16 -3l-4 -21q5 -1 12.5 -3.5t30.5 -13t43.5 -24t46 -38t43.5 -53t30.5 -71.5t12.5 -92q0 -203 -151 -337t-402 -134q-100 0 -183 19.5t-138 50t-97 73t-65 83t-38 87t-19.5 77.5t-5.5 61h350q1 -7 2.5 -18
t13.5 -39t30.5 -50t57 -39.5t88.5 -17.5q87 0 144 52.5t57 135.5q0 63 -50.5 106.5t-142.5 43.5z" />
    <glyph glyph-name="four.oldstyle" unicode="&#xf734;" horiz-adv-x="1208" 
d="M965 -389h-349l70 389h-635l53 297l576 768h389l-577 -778h245l135 307h267l-54 -307h195l-51 -287h-195z" />
    <glyph glyph-name="five.oldstyle" unicode="&#xf735;" horiz-adv-x="1208" 
d="M453 195h-310l205 870h926l-51 -287h-619l-67 -272h20q9 7 25 17t71.5 27t116.5 17q185 0 304.5 -121.5t119.5 -306.5q0 -159 -75.5 -287t-209.5 -200t-301 -72q-102 0 -185.5 20t-138.5 51t-96 75.5t-63 86.5t-35 90.5t-16.5 81.5t-3.5 66h348q0 -15 3 -32.5t15 -44
t31.5 -47t58 -35.5t88.5 -15q93 0 156.5 68.5t63.5 181.5q0 83 -50.5 131.5t-140.5 48.5q-38 0 -72 -11.5t-54.5 -28t-35.5 -33t-21 -28.5z" />
    <glyph glyph-name="six.oldstyle" unicode="&#xf736;" horiz-adv-x="1269" 
d="M133 471q0 67 12 128t40.5 119.5t55 102.5t77 102t83.5 92.5t95 96.5l321 322h428l-414 -410l-122 -61l-4 -21q57 33 145 33q200 0 325 -128t125 -319q0 -110 -48 -212.5t-130 -178.5t-197.5 -122t-242.5 -46q-121 0 -225 40.5t-174.5 108.5t-110 159.5t-39.5 193.5z
M696 256q101 0 172.5 70t71.5 180q0 86 -59 143.5t-150 57.5q-101 0 -172.5 -70t-71.5 -180q0 -86 59 -143.5t150 -57.5z" />
    <glyph glyph-name="seven.oldstyle" unicode="&#xf737;" horiz-adv-x="1064" 
d="M137 778l49 287h1035l-52 -297l-716 -1157h-359l715 1147l4 20h-676z" />
    <glyph glyph-name="eight.oldstyle" unicode="&#xf738;" horiz-adv-x="1290" 
d="M739 -31q-281 0 -452.5 116.5t-171.5 299.5q0 68 21 126.5t54 98t73 71.5t80.5 50.5t73.5 31t54 17.5l21 4l2 21q-8 3 -21 9.5t-46.5 30.5t-59.5 53t-47 79t-21 106q0 72 34 139.5t97.5 122t164.5 87t224 32.5q138 0 248 -31.5t177 -84t102.5 -117t35.5 -133.5
q0 -58 -16.5 -108t-43.5 -84t-59.5 -62t-64.5 -44t-59 -27t-43 -15l-17 -4l-2 -21q5 -2 14 -6t34.5 -18t48.5 -31t51.5 -45.5t49 -60t34.5 -76t14 -93.5q0 -85 -38.5 -162t-110.5 -138t-184.5 -97.5t-250.5 -36.5zM825 891q75 0 122.5 44t47.5 112q0 59 -41 95t-116 36
t-122.5 -44t-47.5 -112q0 -59 41 -95t116 -36zM729 625q-101 0 -163 -56t-62 -141q0 -74 58.5 -123t164.5 -49q101 0 163 56t62 141q0 74 -58.5 123t-164.5 49z" />
    <glyph glyph-name="nine.oldstyle" unicode="&#xf739;" horiz-adv-x="1269" 
d="M1311 594q0 -67 -12 -128t-40.5 -119.5t-55 -102.5t-77 -102t-83.5 -92.5t-95 -96.5l-344 -342h-428l436 430l123 61l4 21q-57 -33 -145 -33q-201 0 -326 128t-125 319q0 110 48.5 212.5t130 178.5t197 122t243.5 46q121 0 225 -40.5t174.5 -108.5t110 -159.5
t39.5 -193.5zM748 809q-101 0 -172.5 -70t-71.5 -180q0 -86 59 -143.5t150 -57.5q101 0 172 70t71 180q0 86 -58.5 143.5t-149.5 57.5z" />
    <glyph glyph-name="Udieresis.alt2" horiz-adv-x="1536" 
d="M510 1147q-67 0 -109.5 42.5t-42.5 104.5q0 76 53 128.5t124 52.5q66 0 108.5 -42.5t42.5 -105.5q0 -75 -52 -127.5t-124 -52.5zM1421 1147q-67 0 -109 42.5t-42 104.5q0 76 52.5 128.5t123.5 52.5q66 0 108.5 -42.5t42.5 -105.5q0 -75 -52.5 -127.5t-123.5 -52.5z
M696 1167l-96 -559q-25 -145 46.5 -223t197.5 -78q108 0 183 67t97 187l105 606h28q1 -3 4.5 -7.5t16 -17t29.5 -22t46.5 -17t65.5 -7.5q48 0 87 18t54 36l15 17h33l-115 -647q-46 -259 -223 -410t-441 -151q-166 0 -294.5 52t-203.5 143t-103 214t-3 265l92 534h29l5 -7.5
t16 -17t29 -22t44.5 -17t61.5 -7.5q47 0 87.5 18t57.5 36l17 17h32z" />
    <glyph glyph-name="edotaccent.sc" horiz-adv-x="1218" 
d="M565 307h625l-53 -307h-1004l217 1229h1004l-56 -307h-624l-27 -154h502l-51 -297h-502zM874 1364q-83 0 -130.5 42.5t-47.5 111.5q0 86 54.5 140t138.5 54q83 0 130.5 -42t47.5 -111q0 -86 -54.5 -140.5t-138.5 -54.5z" />
    <glyph glyph-name="bracketleft.case" horiz-adv-x="788" 
d="M997 1311h-266l-211 -1188h266l-53 -307h-614l317 1802h615z" />
    <glyph glyph-name="bracketright.case" horiz-adv-x="788" 
d="M528 1311h-266l53 307h615l-318 -1802h-614l53 307h266z" />
    <glyph glyph-name="braceleft.case" horiz-adv-x="829" 
d="M524 727l-4 -20q7 -1 17.5 -3.5t36.5 -16t44.5 -33.5t29 -60t1.5 -92l-53 -301q-6 -38 13.5 -63t62.5 -25h133l-51 -297h-236q-161 0 -234.5 86.5t-45.5 240.5l61 349q6 31 -11 51t-48 20h-82l53 307h82q31 0 55.5 20.5t30.5 51.5l61 348q28 155 132 241.5t264 86.5h235
l-53 -297h-133q-43 0 -72 -25t-35 -63l-53 -301q-7 -38 -21.5 -69.5t-33 -52t-38.5 -36.5t-39 -24.5t-34.5 -14t-24.5 -7.5z" />
    <glyph glyph-name="braceright.case" horiz-adv-x="829" 
d="M555 707l2 20q-6 1 -17 3.5t-36.5 16t-43.5 33.5t-28.5 60t-1.5 92l53 301q6 38 -13 63t-62 25h-134l52 297h235q161 0 235 -87t46 -241l-62 -348q-6 -31 11.5 -51.5t48.5 -20.5h82l-56 -307h-82q-31 0 -54.5 -20t-29.5 -51l-61 -349q-28 -155 -131.5 -241t-263.5 -86
h-236l53 297h134q43 0 71.5 25t34.5 63l53 301q7 38 21.5 69.5t33 52t38.5 36.5t39 24.5t34.5 14t25.5 7.5z" />
    <glyph glyph-name="exclamdown.case" horiz-adv-x="634" 
d="M143 0l113 635l119 328h225l4 -328l-112 -635h-349zM731 1307q0 -85 -67 -148t-154 -63q-67 0 -110.5 45t-43.5 112q0 85 66.5 148t152.5 63q68 0 112 -45t44 -112z" />
    <glyph glyph-name="questiondown.case" horiz-adv-x="1228" 
d="M483 397q0 -64 57.5 -97.5t143.5 -33.5q54 0 97.5 18t66.5 43.5t38.5 51t19.5 43.5l5 18h381q-3 -10 -8.5 -27.5t-29 -67.5t-53 -95t-83 -100.5t-115.5 -95.5t-154 -67.5t-196 -27.5q-127 0 -231 34t-170.5 91.5t-102.5 132t-36 156.5q0 85 25 151t66 107.5t90.5 74.5
t101 58.5t95.5 51.5t76 63t41 84h375q-12 -81 -45.5 -144.5t-78.5 -103t-96.5 -71t-100.5 -56t-89.5 -50t-65 -61t-24.5 -80.5zM866 1464q74 0 121 -48t47 -118q0 -83 -59 -142.5t-139 -59.5q-74 0 -122 48t-48 118q0 83 60 142.5t140 59.5z" />
    <glyph glyph-name="guillemotleft.case" horiz-adv-x="1310" 
d="M758 352l-219 -178l-367 533l555 532l172 -195l-379 -358zM1300 352l-219 -178l-366 533l555 532l172 -195l-379 -358z" />
    <glyph glyph-name="guillemotright.case" horiz-adv-x="1310" 
d="M825 1061l219 178l367 -532l-555 -533l-172 195l379 358zM283 1061l219 178l366 -532l-555 -533l-172 195l379 358z" />
    <glyph glyph-name="guilsinglleft.case" horiz-adv-x="839" 
d="M831 371l-231 -197l-428 533l616 532l179 -217l-406 -336z" />
    <glyph glyph-name="guilsinglright.case" horiz-adv-x="839" 
d="M281 1042l231 197l428 -532l-616 -533l-179 217l406 336z" />
    <glyph glyph-name="hyphen.case" horiz-adv-x="1003" 
d="M1004 625h-799l51 286h799z" />
    <glyph glyph-name="endash.case" horiz-adv-x="1536" 
d="M1536 625h-1331l47 266h1331z" />
    <glyph glyph-name="emdash.case" horiz-adv-x="1925" 
d="M1925 625h-1720l47 266h1720z" />
    <glyph glyph-name="periodcentered.case" horiz-adv-x="573" 
d="M389 563q-72 0 -120 49t-48 119q0 82 60 141.5t139 59.5q72 0 120 -49t48 -119q0 -82 -60 -141.5t-139 -59.5z" />
    <glyph glyph-name="Iogonek.alt" horiz-adv-x="1177" 
d="M819 -522q-110 0 -178 48.5t-68 135.5q0 52 24 100.5t62.5 84t80.5 65t83.5 48.5t65 28.5t31.5 11.5h-844l53 307h317l146 819h-318l54 308h1013l-53 -308h-317l-146 -819h318l-53 -307q-12 -6 -32.5 -16.5t-73 -42.5t-92.5 -64t-73 -76t-33 -82q0 -67 95 -67
q27 0 55.5 5t43.5 10l15 5l-28 -168q-62 -26 -148 -26z" />
    <glyph glyph-name="gbreve.alt" horiz-adv-x="1269" 
d="M643 -199q97 0 140.5 28.5t43.5 70.5q0 20 -14.5 38.5t-45.5 35.5t-89.5 27.5t-136.5 10.5q-98 0 -141.5 -28t-43.5 -70q0 -27 24.5 -51t92.5 -43t170 -19zM729 561q80 0 127 43.5t47 112.5q0 58 -45 94.5t-129 36.5q-80 0 -127 -43.5t-47 -112.5q0 -58 45 -94.5
t129 -36.5zM1227 850l-13 -10q27 -41 27 -123t-33 -154.5t-94.5 -129t-158.5 -89.5t-216 -33q-32 0 -73.5 4.5t-67.5 8.5l-25 4l-16 -92q136 -3 245 -24t179 -54t117 -76.5t66.5 -89t19.5 -94.5q0 -63 -31 -119t-92.5 -102.5t-165 -73.5t-236.5 -27q-125 0 -238.5 19.5
t-210 58.5t-153.5 106.5t-57 155.5q0 67 30.5 121.5t73.5 85.5t86.5 52t73.5 29l31 7l39 227q-5 3 -13 10t-28 30t-35.5 49.5t-28 69.5t-12.5 89q0 176 137 293t367 117q67 0 125.5 -8.5t83.5 -15.5l24 -7h494l-45 -256h-62zM850 1262q-162 0 -245 71t-83 187v26h209v-6
q0 -37 33.5 -61.5t93.5 -24.5q53 0 84.5 26t34.5 66h205q-18 -140 -105 -212t-227 -72z" />
    <glyph glyph-name="gcommaaccent.alt" horiz-adv-x="1269" 
d="M995 1407q0 -78 -52 -128t-124 -50q-71 0 -111 44t-40 134q0 147 87.5 245.5t241.5 98.5h31l-22 -123h-23q-55 0 -90.5 -25.5t-44.5 -66.5l-4 -20q18 6 43 6q53 0 80.5 -31t27.5 -84zM643 -199q97 0 140.5 28.5t43.5 70.5q0 20 -14.5 38.5t-45.5 35.5t-89.5 27.5
t-136.5 10.5q-98 0 -141.5 -28t-43.5 -70q0 -27 24.5 -51t92.5 -43t170 -19zM729 561q80 0 127 43.5t47 112.5q0 58 -45 94.5t-129 36.5q-80 0 -127 -43.5t-47 -112.5q0 -58 45 -94.5t129 -36.5zM1227 850l-13 -10q27 -41 27 -123t-33 -154.5t-94.5 -129t-158.5 -89.5
t-216 -33q-32 0 -73.5 4.5t-67.5 8.5l-25 4l-16 -92q136 -3 245 -24t179 -54t117 -76.5t66.5 -89t19.5 -94.5q0 -63 -31 -119t-92.5 -102.5t-165 -73.5t-236.5 -27q-125 0 -238.5 19.5t-210 58.5t-153.5 106.5t-57 155.5q0 67 30.5 121.5t73.5 85.5t86.5 52t73.5 29l31 7
l39 227q-5 3 -13 10t-28 30t-35.5 49.5t-28 69.5t-12.5 89q0 176 137 293t367 117q67 0 125.5 -8.5t83.5 -15.5l24 -7h494l-45 -256h-62z" />
    <glyph glyph-name="Adieresis.alt2" horiz-adv-x="1474" 
d="M883 1085l-205 -471h389l-41 471h-143zM1358 1434l2 -21q-3 -2 -7 -5.5t-14.5 -17t-19 -29t-15 -42t-6.5 -55.5q0 -33 9.5 -62.5t23 -48t27.5 -32t24 -19.5l9 -6l104 -1096h-383l-20 287h-553l-123 -287h-396l490 1096q7 1 17.5 4.5t38.5 19t49.5 38t39 66.5t17.5 99
q0 26 -4 48.5t-8 32.5l-5 9l7 21h696zM438 1126q-66 0 -108.5 42.5t-42.5 105.5q0 76 52.5 128t123.5 52q67 0 109 -42t42 -105q0 -76 -52.5 -128.5t-123.5 -52.5zM1505 1126q-66 0 -108.5 42.5t-42.5 105.5q0 76 52 128t124 52q66 0 108.5 -42t42.5 -105
q0 -76 -52.5 -128.5t-123.5 -52.5z" />
    <glyph glyph-name="Odieresis.alt2" horiz-adv-x="1740" 
d="M1731 1073q7 -16 16.5 -43t26 -104.5t16.5 -145.5q0 -164 -67 -315t-181 -262t-273 -177.5t-333 -66.5q-169 0 -311 55.5t-237.5 150.5t-148.5 221.5t-53 266.5q0 237 136 441q41 -21 98 -21q96 0 163.5 66.5t67.5 169.5q0 19 -2 36.5t-4 24.5l-2 8q189 97 397 97
q271 0 469 -142q-8 -24 -8 -63q0 -85 58.5 -144t171.5 -53zM586 662q0 -158 101.5 -256.5t270.5 -98.5q180 0 306.5 130t126.5 335q0 158 -102 256t-271 98q-180 0 -306 -129.5t-126 -334.5zM424 1126q-66 0 -109 43t-43 105q0 75 52.5 127.5t124.5 52.5q67 0 109 -42
t42 -105q0 -76 -52.5 -128.5t-123.5 -52.5zM1706 1126q-66 0 -109 43t-43 105q0 75 52.5 127.5t124.5 52.5q67 0 109 -42t42 -105q0 -76 -52.5 -128.5t-123.5 -52.5z" />
    <glyph glyph-name="Aring.alt2" horiz-adv-x="1474" 
d="M1358 1434l137 -1434h-383l-20 287h-553l-123 -287h-396l642 1434h147q-31 31 -31 86q0 75 68 132.5t170 57.5q104 0 168.5 -54t64.5 -124q0 -63 -35 -98h144zM883 1085l-205 -471h389l-41 471h-143zM1014 1434q41 0 64.5 20.5t23.5 54.5q0 30 -24.5 49t-71.5 19
q-41 0 -64.5 -21t-23.5 -55q0 -29 24.5 -48t71.5 -19z" />
    <glyph glyph-name="parenleft.case" horiz-adv-x="839" 
d="M950 1679l133 -235q-10 -7 -28 -20t-69 -57.5t-97 -93.5t-103 -127t-97.5 -159t-68.5 -187.5t-28 -215.5q0 -100 23.5 -199t57 -168t67.5 -124t58 -82l23 -27l-211 -230q-8 6 -21 18.5t-50.5 54.5t-72 88.5t-76.5 120t-72.5 151t-51 180t-20.5 206.5q0 120 24 234.5
t64.5 207t93.5 177.5t111 150.5t116.5 121.5t111 95t94 66.5t65 40.5t24.5 13z" />
    <glyph glyph-name="Scaron.alt2" horiz-adv-x="1413" 
d="M829 287q81 0 135 32t54 89q0 39 -41 71.5t-106 57t-143.5 50.5t-157.5 61t-144 79t-106 114t-41 158q0 163 121 294.5t325 168.5l-90 207l2 10h229l76 -204h31l149 204h242l-2 -10l-195 -246q67 -26 121.5 -67t87 -82t56.5 -90.5t35 -85.5t18 -74h-385q-1 5 -4 13.5
t-19.5 29.5t-41 37t-73.5 29.5t-112 13.5q-86 0 -127 -28.5t-41 -71.5q0 -40 41 -72.5t106 -57.5t144 -51.5t158.5 -61.5t144.5 -79.5t106 -114.5t41 -157q0 -97 -41 -185.5t-116 -157.5t-191 -110t-256 -41q-128 0 -234 28t-179.5 74.5t-128.5 112.5t-86.5 136.5
t-47.5 150.5h385l2.5 -10t10.5 -24t21.5 -34.5t36.5 -36.5t54 -34.5t76 -24.5t100 -10z" />
    <glyph glyph-name="Zcaron.alt2" horiz-adv-x="1361" 
d="M82 0l61 348l807 717l2 20h-659l61 349h348l-79 235l2 10h227l68 -245h30l158 245h244l-2 -10l-166 -235h348l-62 -349l-811 -716l-4 -21h707l-62 -348h-1218z" />
    <glyph glyph-name="Otilde.alt2" horiz-adv-x="1740" 
d="M999 1710q48 0 89 -14.5t63 -31.5t48.5 -31.5t49.5 -14.5t39 14t21 37l6 31h194l-18 -103q-17 -92 -77 -143t-152 -51q-48 0 -89 14.5t-63 31.5t-48.5 31.5t-49.5 14.5t-39 -14t-21 -37l-6 -31h-194l18 103q17 92 77 143t152 51zM965 297q182 0 300.5 114.5t118.5 293.5
q0 145 -103 237t-282 92q-182 0 -299.5 -114t-117.5 -293q0 -145 102.5 -237.5t280.5 -92.5zM946 -41q-171 0 -316.5 54.5t-242.5 146t-151 212t-54 253.5q0 149 65.5 286.5t177 238.5t267.5 161.5t328 60.5q137 0 259 -35t213 -97.5t157.5 -145.5t100.5 -182t34 -205
q0 -149 -65.5 -286.5t-177 -239t-267.5 -162t-328 -60.5z" />
    <glyph glyph-name="at.case" horiz-adv-x="1669" 
d="M1761 899q0 -123 -46.5 -225.5t-123 -166.5t-169.5 -99t-191 -35h-221l14 78h-10q-2 -4 -6.5 -10t-20 -21t-34 -27t-50 -21.5t-65.5 -9.5q-109 0 -182.5 80.5t-73.5 210.5q0 92 29.5 170t77 128.5t106 79t118.5 28.5q126 0 176 -87q7 -13 11 -25v-1h10l18 103h256
l-79 -451h14q34 0 69 16.5t66.5 49.5t51.5 92t20 133q0 76 -32 146t-91.5 126t-156.5 89.5t-216 33.5q-124 0 -235.5 -47.5t-195 -130.5t-132.5 -204t-49 -261q0 -224 147.5 -359t405.5 -135q79 0 155.5 14t113.5 28l36 14l-37 -215q-14 -6 -40.5 -15.5t-106 -25
t-156.5 -15.5q-170 0 -312.5 54.5t-238.5 148.5t-149.5 222t-53.5 274q0 184 70 346.5t187.5 276.5t276 179.5t331.5 65.5q166 0 304 -51t226 -135.5t136 -191.5t48 -222zM940 567h6q45 0 86 48t41 126q0 53 -26.5 83t-63.5 30q-44 0 -83.5 -48t-39.5 -126q0 -50 23 -80
t57 -33z" />
    <glyph glyph-name="afii10065.alt" horiz-adv-x="1239" 
d="M883 451h-265q-62 0 -94 -30.5t-32 -82.5q0 -92 155 -92q103 0 162 57t74 148zM477 -31q-158 0 -256 77t-98 208q0 164 116.5 267.5t317.5 103.5h354q5 16 7 28q11 73 -29 119.5t-131 46.5q-36 0 -67 -10.5t-49.5 -25.5t-32 -30t-18.5 -25l-5 -11h-355q2 8 6.5 21.5
t23 53t42.5 75.5t67.5 79.5t95.5 75t129 53t165 21.5q186 0 309 -64.5t170 -173t21 -248.5l-109 -610h-348l22 133h-16q-4 -7 -13 -18t-39.5 -39t-66 -50t-93.5 -39.5t-120 -17.5z" />
    <glyph glyph-name="I.alt" horiz-adv-x="1177" 
d="M274 1126l54 308h1013l-53 -308h-317l-146 -819h318l-53 -307h-1014l53 307h317l146 819h-318z" />
    <glyph glyph-name="y.alt" horiz-adv-x="1208" 
d="M543 61h-256l-90 1004h348l57 -717h72l321 717h371l-506 -1114q-43 -93 -84.5 -154t-96.5 -104.5t-124.5 -62.5t-163.5 -19h-317l49 276h225q63 0 99.5 25.5t72.5 99.5q14 28 23 49z" />
    <glyph glyph-name="afii10085.alt" horiz-adv-x="1208" 
d="M543 61h-256l-90 1004h348l57 -717h72l321 717h371l-506 -1114q-43 -93 -84.5 -154t-96.5 -104.5t-124.5 -62.5t-163.5 -19h-317l49 276h225q63 0 99.5 25.5t72.5 99.5q14 28 23 49z" />
    <glyph glyph-name="l.alt" horiz-adv-x="552" 
d="M102 0l252 1434h348l-251 -1434h-349z" />
    <glyph glyph-name="ydieresis.alt" horiz-adv-x="1208" 
d="M543 61h-256l-90 1004h348l57 -717h72l321 717h371l-506 -1114q-43 -93 -84.5 -154t-96.5 -104.5t-124.5 -62.5t-163.5 -19h-317l49 276h225q63 0 99.5 25.5t72.5 99.5q14 28 23 49zM588 1239q-67 0 -109.5 42.5t-42.5 104.5q0 76 52.5 128.5t123.5 52.5q66 0 109 -42.5
t43 -105.5q0 -75 -52 -127.5t-124 -52.5zM1008 1239q-67 0 -109.5 42.5t-42.5 104.5q0 76 52.5 128.5t123.5 52.5q66 0 109 -42.5t43 -105.5q0 -75 -52 -127.5t-124 -52.5z" />
    <glyph glyph-name="yacute.alt" horiz-adv-x="1208" 
d="M543 61h-256l-90 1004h348l57 -717h72l321 717h371l-506 -1114q-43 -93 -84.5 -154t-96.5 -104.5t-124.5 -62.5t-163.5 -19h-317l49 276h225q63 0 99.5 25.5t72.5 99.5q14 28 23 49zM864 1577h348l-2 -10l-319 -307h-236z" />
    <glyph glyph-name="Imacron.alt" horiz-adv-x="1177" 
d="M274 1126l54 308h1013l-53 -308h-317l-146 -819h318l-53 -307h-1014l53 307h317l146 819h-318zM532 1628l39 215h656l-39 -215h-656z" />
    <glyph glyph-name="Idotaccent.alt" horiz-adv-x="1177" 
d="M274 1126l54 308h1013l-53 -308h-317l-146 -819h318l-53 -307h-1014l53 307h317l146 819h-318zM854 1556q-83 0 -130.5 42.5t-47.5 111.5q0 86 54 140.5t138 54.5q83 0 131 -42.5t48 -111.5q0 -86 -54.5 -140.5t-138.5 -54.5z" />
    <glyph glyph-name="Idieresis.alt" horiz-adv-x="1177" 
d="M274 1126l54 308h1013l-53 -308h-317l-146 -819h318l-53 -307h-1014l53 307h317l146 819h-318zM643 1587q-66 0 -108.5 42.5t-42.5 105.5q0 75 52 127.5t124 52.5q66 0 108.5 -42.5t42.5 -105.5q0 -75 -52.5 -127.5t-123.5 -52.5zM1063 1587q-67 0 -109.5 42.5
t-42.5 105.5q0 75 52.5 127.5t123.5 52.5q67 0 109.5 -42.5t42.5 -105.5q0 -75 -52.5 -127.5t-123.5 -52.5z" />
    <glyph glyph-name="Icircumflex.alt" horiz-adv-x="1177" 
d="M274 1126l54 308h1013l-53 -308h-317l-146 -819h318l-53 -307h-1014l53 307h317l146 819h-318zM772 1925h277l172 -307l-2 -10h-232l-88 143h-31l-137 -143h-239l2 10z" />
    <glyph glyph-name="Iacute.alt" horiz-adv-x="1177" 
d="M274 1126l54 308h1013l-53 -308h-317l-146 -819h318l-53 -307h-1014l53 307h317l146 819h-318zM936 1925h348l-2 -10l-319 -307h-236z" />
    <glyph glyph-name="Igrave.alt" horiz-adv-x="1177" 
d="M274 1126l54 308h1013l-53 -308h-317l-146 -819h318l-53 -307h-1014l53 307h317l146 819h-318zM528 1925h349l98 -317h-236l-213 307z" />
    <glyph glyph-name="foundryicon" horiz-adv-x="3149" 
d="M659 942v-63h-147v-408h-72v408h-145v63h364zM1153 811q65 0 111.5 -51t46.5 -121q0 -73 -46.5 -123.5t-111.5 -50.5q-59 0 -96 43v-162h-70v459h49l19 -39q38 45 98 45zM1147 528q39 0 67.5 33t28.5 78q0 43 -29 74.5t-67 31.5q-40 0 -68 -31.5t-28 -74.5
q0 -46 28 -78.5t68 -32.5zM772 567l90 238h76l-158 -389q-33 -70 -100 -70q-15 0 -21 2v58q49 0 64 40l12 33l-129 326h76zM1526 811q64 0 109.5 -49.5t45.5 -120.5l-2 -31h-243q3 -34 29 -59t61 -25q56 0 76 35h71q-18 -46 -58.5 -71t-88.5 -25q-66 0 -113 50.5t-47 123.5
q0 71 47 121.5t113 50.5zM1436 666h180q-1 34 -29 58t-61 24q-34 0 -60 -22.5t-30 -59.5zM2013 942v-63h-147v-408h-72v408h-145v63h364zM2507 811q64 0 110.5 -50.5t46.5 -121.5q0 -73 -46 -123.5t-111 -50.5q-60 0 -97 43v-162h-69v459h49l18 -39q38 45 99 45zM2501 528
q39 0 67.5 33t28.5 78q0 43 -29 74.5t-67 31.5q-40 0 -68.5 -31.5t-28.5 -74.5q0 -46 28.5 -78.5t68.5 -32.5zM2126 567l90 238h76l-158 -389q-33 -70 -100 -70q-15 0 -21 2v58q49 0 64 40l12 33l-129 326h76zM2879 811q65 0 110.5 -50t45.5 -120l-2 -31h-244q3 -34 29 -59
t61 -25q56 0 76 35h72q-18 -46 -59 -71t-89 -25q-66 0 -112.5 50.5t-46.5 123.5q0 71 46.5 121.5t112.5 50.5zM2789 666h181q-1 34 -29 58t-62 24t-60 -22.5t-30 -59.5z" />
    <glyph glyph-name="lcommaaccent.alt" horiz-adv-x="552" 
d="M102 0l252 1434h348l-251 -1434h-349zM72 -352q0 78 52 128t124 50q71 0 111 -44t40 -134q0 -147 -87.5 -245.5t-241.5 -98.5h-31l22 123h23q55 0 90.5 25.5t44.5 66.5l4 20q-18 -6 -43 -6q-53 0 -80.5 31t-27.5 84z" />
    <glyph glyph-name="lcaron.alt" horiz-adv-x="788" 
d="M102 0l252 1434h348l-251 -1434h-349zM766 1286q0 78 52 128t124 50q71 0 111.5 -44t40.5 -134q0 -147 -88 -245.5t-242 -98.5h-31l23 123h22q55 0 90.5 25.5t44.5 66.5l5 21q-19 -7 -44 -7q-53 0 -80.5 31t-27.5 84z" />
    <glyph glyph-name="lacute.alt" horiz-adv-x="552" 
d="M102 0l252 1434h348l-251 -1434h-349zM651 1925h348l-2 -10l-319 -307h-236z" />
    <glyph glyph-name="atilde.alt" horiz-adv-x="1239" 
d="M883 451h-265q-62 0 -94 -30.5t-32 -82.5q0 -92 155 -92q103 0 162 57t74 148zM477 -31q-158 0 -256 77t-98 208q0 164 116.5 267.5t317.5 103.5h354q5 16 7 28q11 73 -29 119.5t-131 46.5q-36 0 -67 -10.5t-49.5 -25.5t-32 -30t-18.5 -25l-5 -11h-355q2 8 6.5 21.5
t23 53t42.5 75.5t67.5 79.5t95.5 75t129 53t165 21.5q186 0 309 -64.5t170 -173t21 -248.5l-109 -610h-348l22 133h-16q-4 -7 -13 -18t-39.5 -39t-66 -50t-93.5 -39.5t-120 -17.5zM717 1546q48 0 89 -14.5t63 -31.5t48.5 -31.5t49.5 -14.5t40 14t21 37l6 31h195l-19 -102
q-17 -93 -77 -144t-152 -51q-48 0 -89 14.5t-63 31.5t-48.5 31.5t-49.5 14.5t-40 -14t-21 -37l-6 -31h-193l18 103q17 93 76.5 143.5t151.5 50.5z" />
    <glyph glyph-name="aring.alt" horiz-adv-x="1239" 
d="M883 451h-265q-62 0 -94 -30.5t-32 -82.5q0 -92 155 -92q103 0 162 57t74 148zM477 -31q-158 0 -256 77t-98 208q0 164 116.5 267.5t317.5 103.5h354q5 16 7 28q11 73 -29 119.5t-131 46.5q-36 0 -67 -10.5t-49.5 -25.5t-32 -30t-18.5 -25l-5 -11h-355q2 8 6.5 21.5
t23 53t42.5 75.5t67.5 79.5t95.5 75t129 53t165 21.5q186 0 309 -64.5t170 -173t21 -248.5l-109 -610h-348l22 133h-16q-4 -7 -13 -18t-39.5 -39t-66 -50t-93.5 -39.5t-120 -17.5zM866 1178q-104 0 -167.5 61t-63.5 154q0 109 76 182.5t186 73.5q104 0 167.5 -61t63.5 -154
q0 -109 -76 -182.5t-186 -73.5zM872 1321q42 0 71.5 28t29.5 70q0 36 -22.5 61t-59.5 25q-42 0 -71 -28t-29 -70q0 -37 22 -61.5t59 -24.5z" />
    <glyph glyph-name="aogonek.alt" horiz-adv-x="1239" 
d="M881 -522q-110 0 -178 48.5t-68 135.5q0 61 35 118.5t82 94.5t101 67t85.5 42.5t42.5 15.5h-178l22 133h-16q-4 -7 -13 -18t-39.5 -39t-66 -50t-93.5 -39.5t-120 -17.5q-158 0 -256 77t-98 208q0 164 116.5 267.5t317.5 103.5h354q5 16 7 28q11 73 -29 119.5t-131 46.5
q-36 0 -67 -10.5t-49.5 -25.5t-32 -30t-18.5 -25l-5 -11h-355q2 8 6.5 21.5t23 53t42.5 75.5t67.5 79.5t95.5 75t129 53t165 21.5q186 0 309 -64.5t170 -173t21 -248.5l-109 -610h-2q-10 -4 -37 -18.5t-74.5 -44.5t-88 -62.5t-71 -75t-30.5 -80.5q0 -67 94 -67q27 0 56 5
t44 10l15 5l-29 -168q-61 -26 -147 -26zM883 451h-265q-62 0 -94 -30.5t-32 -82.5q0 -92 155 -92q103 0 162 57t74 148z" />
    <glyph glyph-name="amacron.alt" horiz-adv-x="1239" 
d="M883 451h-265q-62 0 -94 -30.5t-32 -82.5q0 -92 155 -92q103 0 162 57t74 148zM477 -31q-158 0 -256 77t-98 208q0 164 116.5 267.5t317.5 103.5h354q5 16 7 28q11 73 -29 119.5t-131 46.5q-36 0 -67 -10.5t-49.5 -25.5t-32 -30t-18.5 -25l-5 -11h-355q2 8 6.5 21.5
t23 53t42.5 75.5t67.5 79.5t95.5 75t129 53t165 21.5q186 0 309 -64.5t170 -173t21 -248.5l-109 -610h-348l22 133h-16q-4 -7 -13 -18t-39.5 -39t-66 -50t-93.5 -39.5t-120 -17.5zM512 1280l39 215h655l-39 -215h-655z" />
    <glyph glyph-name="adieresis.alt" horiz-adv-x="1239" 
d="M883 451h-265q-62 0 -94 -30.5t-32 -82.5q0 -92 155 -92q103 0 162 57t74 148zM477 -31q-158 0 -256 77t-98 208q0 164 116.5 267.5t317.5 103.5h354q5 16 7 28q11 73 -29 119.5t-131 46.5q-36 0 -67 -10.5t-49.5 -25.5t-32 -30t-18.5 -25l-5 -11h-355q2 8 6.5 21.5
t23 53t42.5 75.5t67.5 79.5t95.5 75t129 53t165 21.5q186 0 309 -64.5t170 -173t21 -248.5l-109 -610h-348l22 133h-16q-4 -7 -13 -18t-39.5 -39t-66 -50t-93.5 -39.5t-120 -17.5zM631 1239q-67 0 -109.5 42.5t-42.5 104.5q0 76 52.5 128.5t123.5 52.5q67 0 109.5 -42.5
t42.5 -105.5q0 -75 -52.5 -127.5t-123.5 -52.5zM1051 1239q-67 0 -109.5 42.5t-42.5 104.5q0 76 52.5 128.5t123.5 52.5q67 0 109.5 -42.5t42.5 -105.5q0 -75 -52.5 -127.5t-123.5 -52.5z" />
    <glyph glyph-name="acircumflex.alt" horiz-adv-x="1239" 
d="M883 451h-265q-62 0 -94 -30.5t-32 -82.5q0 -92 155 -92q103 0 162 57t74 148zM477 -31q-158 0 -256 77t-98 208q0 164 116.5 267.5t317.5 103.5h354q5 16 7 28q11 73 -29 119.5t-131 46.5q-36 0 -67 -10.5t-49.5 -25.5t-32 -30t-18.5 -25l-5 -11h-355q2 8 6.5 21.5
t23 53t42.5 75.5t67.5 79.5t95.5 75t129 53t165 21.5q186 0 309 -64.5t170 -173t21 -248.5l-109 -610h-348l22 133h-16q-4 -7 -13 -18t-39.5 -39t-66 -50t-93.5 -39.5t-120 -17.5zM743 1577h277l172 -307l-2 -10h-232l-88 143h-30l-138 -143h-239l2 10z" />
    <glyph glyph-name="abreve.alt" horiz-adv-x="1239" 
d="M883 451h-265q-62 0 -94 -30.5t-32 -82.5q0 -92 155 -92q103 0 162 57t74 148zM477 -31q-158 0 -256 77t-98 208q0 164 116.5 267.5t317.5 103.5h354q5 16 7 28q11 73 -29 119.5t-131 46.5q-36 0 -67 -10.5t-49.5 -25.5t-32 -30t-18.5 -25l-5 -11h-355q2 8 6.5 21.5
t23 53t42.5 75.5t67.5 79.5t95.5 75t129 53t165 21.5q186 0 309 -64.5t170 -173t21 -248.5l-109 -610h-348l22 133h-16q-4 -7 -13 -18t-39.5 -39t-66 -50t-93.5 -39.5t-120 -17.5zM858 1260q-162 0 -245 71t-83 187v26h209v-6q0 -37 33.5 -61.5t93.5 -24.5q53 0 84.5 26
t34.5 66h205q-18 -140 -105 -212t-227 -72z" />
    <glyph glyph-name="aacute.alt" horiz-adv-x="1239" 
d="M883 451h-265q-62 0 -94 -30.5t-32 -82.5q0 -92 155 -92q103 0 162 57t74 148zM477 -31q-158 0 -256 77t-98 208q0 164 116.5 267.5t317.5 103.5h354q5 16 7 28q11 73 -29 119.5t-131 46.5q-36 0 -67 -10.5t-49.5 -25.5t-32 -30t-18.5 -25l-5 -11h-355q2 8 6.5 21.5
t23 53t42.5 75.5t67.5 79.5t95.5 75t129 53t165 21.5q186 0 309 -64.5t170 -173t21 -248.5l-109 -610h-348l22 133h-16q-4 -7 -13 -18t-39.5 -39t-66 -50t-93.5 -39.5t-120 -17.5zM915 1577h349l-2 -10l-320 -307h-235z" />
    <glyph glyph-name="agrave.alt" horiz-adv-x="1239" 
d="M883 451h-265q-62 0 -94 -30.5t-32 -82.5q0 -92 155 -92q103 0 162 57t74 148zM477 -31q-158 0 -256 77t-98 208q0 164 116.5 267.5t317.5 103.5h354q5 16 7 28q11 73 -29 119.5t-131 46.5q-36 0 -67 -10.5t-49.5 -25.5t-32 -30t-18.5 -25l-5 -11h-355q2 8 6.5 21.5
t23 53t42.5 75.5t67.5 79.5t95.5 75t129 53t165 21.5q186 0 309 -64.5t170 -173t21 -248.5l-109 -610h-348l22 133h-16q-4 -7 -13 -18t-39.5 -39t-66 -50t-93.5 -39.5t-120 -17.5zM506 1577h348l98 -317h-235l-213 307z" />
    <glyph glyph-name="afii10110.alt" horiz-adv-x="1208" 
d="M543 61h-256l-90 1004h348l57 -717h72l321 717h371l-506 -1114q-43 -93 -84.5 -154t-96.5 -104.5t-124.5 -62.5t-163.5 -19h-317l49 276h225q63 0 99.5 25.5t72.5 99.5q14 28 23 49zM799 1180q-162 0 -245 71t-83 187v26h209v-6q0 -37 33.5 -61.5t93.5 -24.5
q53 0 84.5 26t34.5 66h204q-18 -140 -104.5 -212t-226.5 -72z" />
    <glyph glyph-name="lslash.alt" horiz-adv-x="727" 
d="M182 0l92 522l-186 -71l47 266l187 71l114 646h348l-86 -484l199 84l-47 -266l-199 -84l-121 -684h-348z" />
    <glyph glyph-name="g.alt" horiz-adv-x="1269" 
d="M643 -199q97 0 140.5 28.5t43.5 70.5q0 20 -14.5 38.5t-45.5 35.5t-89.5 27.5t-136.5 10.5q-98 0 -141.5 -28t-43.5 -70q0 -27 24.5 -51t92.5 -43t170 -19zM729 561q80 0 127 43.5t47 112.5q0 58 -45 94.5t-129 36.5q-80 0 -127 -43.5t-47 -112.5q0 -58 45 -94.5
t129 -36.5zM1227 850l-13 -10q27 -41 27 -123t-33 -154.5t-94.5 -129t-158.5 -89.5t-216 -33q-32 0 -73.5 4.5t-67.5 8.5l-25 4l-16 -92q136 -3 245 -24t179 -54t117 -76.5t66.5 -89t19.5 -94.5q0 -63 -31 -119t-92.5 -102.5t-165 -73.5t-236.5 -27q-125 0 -238.5 19.5
t-210 58.5t-153.5 106.5t-57 155.5q0 67 30.5 121.5t73.5 85.5t86.5 52t73.5 29l31 7l39 227q-5 3 -13 10t-28 30t-35.5 49.5t-28 69.5t-12.5 89q0 176 137 293t367 117q67 0 125.5 -8.5t83.5 -15.5l24 -7h494l-45 -256h-62z" />
    <glyph glyph-name="a.alt" horiz-adv-x="1239" 
d="M883 451h-265q-62 0 -94 -30.5t-32 -82.5q0 -92 155 -92q103 0 162 57t74 148zM477 -31q-158 0 -256 77t-98 208q0 164 116.5 267.5t317.5 103.5h354q5 16 7 28q11 73 -29 119.5t-131 46.5q-36 0 -67 -10.5t-49.5 -25.5t-32 -30t-18.5 -25l-5 -11h-355q2 8 6.5 21.5
t23 53t42.5 75.5t67.5 79.5t95.5 75t129 53t165 21.5q186 0 309 -64.5t170 -173t21 -248.5l-109 -610h-348l22 133h-16q-4 -7 -13 -18t-39.5 -39t-66 -50t-93.5 -39.5t-120 -17.5z" />
    <glyph glyph-name="nine.taboldstyle" horiz-adv-x="1249" 
d="M1311 594q0 -67 -12 -128t-40.5 -119.5t-55 -102.5t-77 -102t-83.5 -92.5t-95 -96.5l-344 -342h-428l436 430l123 61l4 21q-57 -33 -145 -33q-201 0 -326 128t-125 319q0 110 48.5 212.5t130 178.5t197 122t243.5 46q121 0 225 -40.5t174.5 -108.5t110 -159.5
t39.5 -193.5zM748 809q-101 0 -172.5 -70t-71.5 -180q0 -86 59 -143.5t150 -57.5q101 0 172 70t71 180q0 86 -58.5 143.5t-149.5 57.5z" />
    <glyph glyph-name="Germandbls" horiz-adv-x="1556" 
d="M1286 901l-4 -20q6 -1 16.5 -3.5t41.5 -14.5t59 -28t62 -46.5t58.5 -68t42 -94.5t17.5 -124q2 -224 -141 -363t-391 -139h-320l61 348h248q74 0 115 36t41 95q0 49 -37.5 82t-110.5 33h-202l55 307l236 184h-246h-33q-160 0 -186 -147l-166 -938h-379l176 989
q36 203 186.5 324t384.5 121h744l-58 -328z" />
    <glyph glyph-name="eight.taboldstyle" horiz-adv-x="1249" 
d="M719 -31q-282 0 -453.5 116.5t-171.5 299.5q0 68 21 126.5t54 98t73 71.5t80.5 50.5t73.5 31t54 17.5l21 4l2 21q-8 3 -21 9.5t-46.5 30.5t-59 53t-46.5 79t-21 106q0 72 34 139.5t97.5 122t164.5 87t224 32.5q138 0 248 -31.5t177 -84t102.5 -117t35.5 -133.5
q0 -58 -16.5 -108t-43.5 -84t-59.5 -62t-64.5 -44t-59 -27t-43 -15l-17 -4l-2 -21q5 -2 14 -6t34.5 -18t48.5 -31t51.5 -45.5t49 -60t34.5 -76t14 -93.5q0 -85 -38.5 -162t-110.5 -138t-184.5 -97.5t-250.5 -36.5zM805 891q75 0 122.5 44t47.5 112q0 59 -41.5 95t-116.5 36
t-122.5 -44t-47.5 -112q0 -59 41.5 -95t116.5 -36zM709 625q-101 0 -163.5 -56t-62.5 -141q0 -74 59 -123t165 -49q101 0 163 56t62 141q0 74 -58.5 123t-164.5 49z" />
    <glyph glyph-name="seven.taboldstyle" horiz-adv-x="1249" 
d="M164 563l88 502h1106l-49 -287l-729 -1167h-379l735 1147l4 20h-389l-39 -215h-348z" />
    <glyph glyph-name="six.taboldstyle" horiz-adv-x="1249" 
d="M133 471q0 67 12 128t40.5 119.5t55 102.5t77 102t83.5 92.5t95 96.5l321 322h428l-414 -410l-122 -61l-4 -21q57 33 145 33q200 0 325 -128t125 -319q0 -110 -48 -212.5t-130 -178.5t-197.5 -122t-242.5 -46q-121 0 -225 40.5t-174.5 108.5t-110 159.5t-39.5 193.5z
M696 256q101 0 172.5 70t71.5 180q0 86 -59 143.5t-150 57.5q-101 0 -172.5 -70t-71.5 -180q0 -86 59 -143.5t150 -57.5z" />
    <glyph glyph-name="five.taboldstyle" horiz-adv-x="1249" 
d="M473 195h-309l205 870h925l-51 -287h-618l-68 -272h21q9 7 25 17t71.5 27t116.5 17q185 0 304 -121.5t119 -306.5q0 -159 -75.5 -287t-209 -200t-300.5 -72q-102 0 -185.5 20t-138.5 51t-96 75.5t-63 86.5t-35.5 90.5t-17 81.5t-3.5 66h348q0 -15 3 -32.5t15.5 -44
t32 -47t58 -35.5t88.5 -15q93 0 156 68.5t63 181.5q0 83 -50 131.5t-140 48.5q-38 0 -72 -11.5t-55 -28t-36 -33t-21 -28.5z" />
    <glyph glyph-name="four.taboldstyle" horiz-adv-x="1249" 
d="M985 -389h-348l70 389h-635l53 297l575 768h390l-578 -778h246l135 307h266l-53 -307h194l-51 -287h-194z" />
    <glyph glyph-name="three.taboldstyle" horiz-adv-x="1249" 
d="M627 205h-199l49 287h230q80 0 135 50.5t55 123.5q0 61 -45.5 102t-116.5 41q-41 0 -75 -12.5t-54 -30.5t-34 -36.5t-20 -31.5l-5 -12h-342q2 9 7 23.5t25 57t45 81.5t70.5 86t98.5 81t131.5 57.5t167.5 23.5q117 0 214 -33t158 -88t94 -124t33 -144q0 -63 -16 -116
t-41.5 -87t-56 -60.5t-61 -40.5t-56 -22.5t-41.5 -10.5l-16 -3l-5 -21q9 -2 24 -7.5t52.5 -27.5t66.5 -52t53 -85.5t24 -122.5q0 -203 -151 -337t-402 -134q-100 0 -183 19.5t-138 50t-97 73t-65.5 83t-38.5 87t-19.5 77.5t-5.5 61h350q1 -7 2.5 -18t13.5 -39t30.5 -50
t57 -39.5t88.5 -17.5q87 0 144 52.5t57 135.5q0 63 -50 106.5t-142 43.5z" />
    <glyph glyph-name="two.taboldstyle" horiz-adv-x="1249" 
d="M842 328l-152 -52l-4 -20l150 31h368l-51 -287h-1024l45 254l416 207q80 39 115.5 57.5t80 45t61 44.5t28.5 42t12 52q0 45 -37.5 76t-106.5 31q-36 0 -67 -12.5t-49 -30.5t-31 -36.5t-18 -31.5l-5 -12h-354q2 9 7 23.5t24.5 57t44.5 81.5t70.5 86t99.5 81t133 57.5
t170 23.5q115 0 208.5 -29.5t151.5 -79t89.5 -111.5t31.5 -128q0 -82 -30.5 -149t-88 -117t-127 -86.5t-161.5 -67.5z" />
    <glyph glyph-name="one.taboldstyle" horiz-adv-x="1249" 
d="M164 0l51 287h338l74 420l-254 -164l59 338l299 184h307l-137 -778h297l-51 -287h-983z" />
    <glyph glyph-name="zero.taboldstyle" horiz-adv-x="1249" 
d="M694 256q107 0 185.5 89t78.5 237q0 104 -58.5 165.5t-154.5 61.5q-107 0 -185.5 -89t-78.5 -237q0 -104 58.5 -165.5t154.5 -61.5zM684 -31q-126 0 -232 40t-177.5 109t-111.5 162.5t-40 200.5q0 128 50 242.5t134.5 196t201 129t245.5 47.5q126 0 232 -40t177.5 -109
t111.5 -162.5t40 -200.5q0 -128 -50 -242.5t-134.5 -196t-201 -129t-245.5 -47.5z" />
    <glyph glyph-name="K_K" horiz-adv-x="2068" 
d="M1065 0l-260 553h-195l-98 -553h-379l252 1434h379l-92 -533h153l441 533h440l-569 -676l348 -758h-420zM2079 0h-420l-359 758l560 676h440l-569 -676z" />
    <glyph glyph-name="L_L" horiz-adv-x="1413" 
d="M1225 1434l-117 -666h420l-51 -297h-727l168 963h307zM764 1434l-191 -1086h687l-62 -348h-1065l252 1434h379z" />
    <glyph glyph-name="T_E" horiz-adv-x="1509" 
d="M635 1085h-451l62 349h1280l-62 -349h-450l-21 -112h615l-45 -256h-615l-18 -113h481l-43 -235h-481l-19 -113h615l-45 -256h-994z" />
    <glyph glyph-name="R_J" horiz-adv-x="2150" 
d="M1296 512q0 -4 0.5 -12t5 -30.5t12 -42.5t23.5 -45t38 -43t57.5 -30t78.5 -12q86 0 140 48.5t69 139.5l168 949h379l-174 -981q-42 -235 -198 -369.5t-396 -134.5q-87 0 -161 16.5t-126 43.5t-94.5 64.5t-69 75t-46.5 80t-29.5 75.5t-15 64.5t-6.5 44t-1 17.5h-362
l-76 -430h-379l252 1434h649q249 0 403 -133t154 -332q0 -67 -16.5 -129t-42.5 -106.5t-57 -82.5t-62.5 -63t-57.5 -43t-43 -25zM649 778h355q85 0 139.5 46.5t54.5 115.5q0 59 -48.5 102t-135.5 43h-312z" />
    <glyph glyph-name="T_T" horiz-adv-x="1775" 
d="M1245 655h-266l51 287h860l-51 -287h-266l-115 -655h-328zM635 1085h-451l62 349h1280l-62 -349h-450l-191 -1085h-379z" />
    <glyph glyph-name="U_U" horiz-adv-x="1751" 
d="M715 1434l-131 -752q-15 -87 2 -157t56 -113t95 -71.5t113 -40t117 -11.5q164 0 269 86.5t132 236.5l145 822h359l-152 -863q-50 -287 -247 -449.5t-510 -162.5q-209 0 -365.5 56.5t-245.5 157.5t-121.5 236.5t-3.5 295.5l129 729h359zM965 369q-162 0 -238.5 88.5
t-48.5 244.5l80 445h246l-84 -465q-5 -32 5.5 -55t41.5 -23q33 0 49.5 14.5t23.5 53.5l86 475h246l-88 -498q-25 -135 -107.5 -207.5t-211.5 -72.5z" />
    <glyph glyph-name="P_H" horiz-adv-x="2488" 
d="M385 1434h649q123 0 228 -39.5t175 -106t109 -154t39 -184.5q0 -8 -1 -24.5t-1 -24.5h553l92 533h379l-252 -1434h-379l99 553h-553l-99 -553h-379l70 403q-66 -14 -147 -14h-385l-70 -389h-379zM641 737h342q98 0 153.5 52t55.5 137q0 70 -53 114.5t-156 44.5h-281z" />
    <glyph glyph-name="E_A" horiz-adv-x="2467" 
d="M2351 1434l137 -1434h-383l-30 410h-492l-174 -410h-1276l252 1434h1014l-62 -349h-635l-36 -215h737l252 564h696zM573 348h594l99 215h-656zM1876 1085l-152 -348h326l-31 348h-143z" />
    <glyph glyph-name="C_O" horiz-adv-x="1689" 
d="M1032 1475q131 0 241.5 -30.5t190 -82.5t139.5 -124.5t95.5 -153.5t52.5 -173h-348q-1 5 -4 14.5t-15 36t-28.5 50.5t-47.5 53.5t-68.5 51t-95 36t-124.5 14.5q-129 0 -237.5 -63.5t-174 -180.5t-65.5 -264q0 -175 112.5 -284t298.5 -109q66 0 125 16t100.5 41t76.5 55.5
t57 61.5t37 56t22 41l6 16h359q-4 -12 -13 -33.5t-42 -83.5t-72.5 -118t-108 -124.5t-146 -117.5t-187.5 -83t-232 -34q-169 0 -311.5 53.5t-239 146t-150 218.5t-53.5 270q0 174 68 328.5t182.5 263.5t271 172.5t328.5 63.5zM975 594q49 0 87 39t38 98q0 47 -29 78t-72 31
q-49 0 -88 -39.5t-39 -98.5q0 -47 30 -77.5t73 -30.5zM961 379q-140 0 -228 85t-88 214q0 161 108 269t259 108q139 0 227 -85t88 -214q0 -162 -107.5 -269.5t-258.5 -107.5z" />
    <glyph glyph-name="K_O" horiz-adv-x="2498" 
d="M1065 0l-260 553h-195l-98 -553h-379l252 1434h379l-92 -533h153l441 533h440l-569 -676l348 -758h-420zM1972 494q102 0 174 77t72 207q0 96 -57.5 151.5t-153.5 55.5q-102 0 -174 -77.5t-72 -207.5q0 -96 57.5 -151t153.5 -55zM1954 176q-167 0 -296 68.5t-197 185
t-68 260.5q0 169 84.5 310t229.5 222t318 81q167 0 296 -68.5t197.5 -185.5t68.5 -261q0 -127 -50 -240.5t-135 -195t-202 -129t-246 -47.5z" />
    <glyph glyph-name="W_E" horiz-adv-x="2652" 
d="M670 430l368 1004h455l16 -1004h21l360 1004h932l-61 -349h-615l-82 -215h516l-55 -307h-579l-82 -215h768l-62 -348h-1362l-16 963h-21l-352 -963h-502l-45 1434h369l8 -1004h21z" />
    <glyph glyph-name="A_T" horiz-adv-x="1781" 
d="M416 1434h1474l-61 -349h-154l107 -1085h-389l-21 287h-246l-51 -287h-348l51 287h-246l-122 -287h-390l488 1085h-154zM928 1085h-51l-205 -471h174zM1307 1085h-52l-81 -471h174z" />
    <glyph glyph-name="S_A" horiz-adv-x="2732" 
d="M745 287q73 0 126 34.5t53 92.5q0 38 -29.5 70.5t-77 59t-104.5 54t-114.5 62.5t-105 77.5t-77 107.5t-29.5 144q0 95 40 182t113.5 155t187.5 108.5t251 40.5q94 0 175 -15.5t139 -41.5t106 -60t78.5 -71.5t53.5 -74.5t34.5 -71t19 -60t9.5 -41l1 -16h-385
q-1 5 -4.5 13.5t-20.5 29.5t-41.5 37t-73 29.5t-109.5 13.5q-88 0 -129 -31.5t-41 -75.5q0 -34 23 -63.5t61 -51.5t86.5 -48t98.5 -50t98.5 -59.5t86.5 -75.5t61 -98.5t23 -128.5q0 -98 -40.5 -188.5t-115 -161.5t-189.5 -113.5t-253 -42.5q-98 0 -183 17t-146.5 46t-113 67
t-84.5 79.5t-59 83t-39.5 79.5t-22 67t-11.5 46l-2 17h385l2.5 -10t10.5 -24t21 -34.5t35.5 -36.5t52 -34.5t72.5 -24.5t96 -10zM2615 1434l138 -1434h-383l-21 287h-553l-123 -287h-395l641 1434h696zM2140 1085l-205 -471h389l-40 471h-144z" />
    <glyph glyph-name="L_F" horiz-adv-x="1413" 
d="M1044 461h-296l170 973h706l-45 -256h-410l-24 -144h338l-43 -246h-338zM764 1434l-191 -1086h687l-62 -348h-1065l252 1434h379z" />
    <glyph glyph-name="L_I" horiz-adv-x="1331" 
d="M905 492l166 942h379l-166 -942h-379zM764 1434l-191 -1086h687l-62 -348h-1065l252 1434h379z" />
    <glyph glyph-name="L_A" horiz-adv-x="2048" 
d="M1931 1434l137 -1434h-382l-21 287h-481l-51 -287h-1000l252 1434h379l-191 -1086h175l487 1086h696zM1456 1085l-205 -471h389l-41 471h-143z" />
    <glyph glyph-name="L_O" horiz-adv-x="1720" 
d="M764 1434l-191 -1086h687l-62 -348h-1065l252 1434h379zM1305 737q97 0 166 71.5t69 182.5q0 86 -55.5 141.5t-143.5 55.5q-97 0 -166 -71.5t-69 -182.5q0 -86 55.5 -141.5t143.5 -55.5zM1284 451q-213 0 -349 133.5t-136 330.5q0 116 45.5 220t122 178.5t180 118
t215.5 43.5q213 0 349 -134t136 -331q0 -154 -77 -283t-206.5 -202.5t-279.5 -73.5z" />
    <glyph glyph-name="C_E" horiz-adv-x="1689" 
d="M1032 1475q131 0 241.5 -30.5t190 -82.5t139.5 -124.5t95.5 -153.5t52.5 -173h-348q-1 5 -4 14.5t-15 36t-28.5 50.5t-47.5 53.5t-68.5 51t-95 36t-124.5 14.5q-129 0 -237.5 -63.5t-174 -180.5t-65.5 -264q0 -175 112.5 -284t298.5 -109q66 0 125 16t100.5 41t76.5 55.5
t57 61.5t37 56t22 41l6 16h359q-4 -12 -13 -33.5t-42 -83.5t-72.5 -118t-108 -124.5t-146 -117.5t-187.5 -83t-232 -34q-169 0 -311.5 53.5t-239 146t-150 218.5t-53.5 270q0 174 68 328.5t182.5 263.5t271 172.5t328.5 63.5zM1204 573l-33 -184h-501l114 655h502l-33 -184
h-297l-10 -61h236l-27 -154h-235l-13 -72h297z" />
    <glyph glyph-name="A_V" horiz-adv-x="2211" 
d="M2443 1434l-620 -1434h-711l-20 287h-553l-123 -287h-396l642 1434h716l76 -1086h133l457 1086h399zM883 1085l-205 -471h389l-41 471h-143z" />
    <glyph glyph-name="ampersand.alt2" horiz-adv-x="1873" 
d="M743 1126q111 0 202 -29.5t151 -78.5t100.5 -115t58 -136t17.5 -144l-766 -150q1 -4 3.5 -11.5t15 -29t29.5 -41t50.5 -43.5t75 -41t105.5 -29t139 -12q84 0 158.5 21.5t129.5 58.5t102 84.5t79.5 100.5t58 105.5t40.5 100t25 84.5t13 59l4 21h451l-48 -266h-151
q-4 -14 -12 -38t-41 -93t-74.5 -132t-114.5 -140t-158.5 -132t-210 -93t-264.5 -38q-179 0 -325 48.5t-239 129.5t-143 184t-50 216q0 119 46.5 226.5t125.5 184.5t188 122.5t229 45.5zM514 655l401 80q-18 53 -65 84t-119 31q-52 0 -93.5 -20t-63.5 -49t-36.5 -57.5
t-19.5 -48.5z" />
    <glyph glyph-name="O_G" horiz-adv-x="2578" 
d="M586 662q0 -158 101.5 -256.5t270.5 -98.5q180 0 306.5 130t126.5 335q0 158 -102 256t-271 98q-180 0 -306 -129.5t-126 -334.5zM1718 -41q-215 0 -391 92q-189 -92 -391 -92q-169 0 -311 55.5t-237.5 150.5t-148.5 221.5t-53 266.5q0 164 67.5 315.5t181 262.5
t272.5 177.5t333 66.5q211 0 392 -93q191 93 391 93q114 0 212.5 -23t170.5 -64t129 -92.5t96 -114.5t63.5 -123.5t38.5 -125.5h-391q-94 194 -342 194q-44 0 -96 -10q86 -151 86 -336q0 -252 -152 -463q41 -10 103 -10q52 0 100.5 11.5t83.5 29.5t65.5 40t50.5 43.5
t34.5 39.5t20.5 29l7 12h-205l50 287h747l-49 -287h-141q-4 -12 -13 -31.5t-42.5 -77t-73 -110t-107.5 -116t-143.5 -109.5t-183 -77.5t-224.5 -31.5z" />
    <glyph glyph-name="O_O" horiz-adv-x="2523" 
d="M1741 307q87 0 165.5 33.5t137.5 93t94 147.5t35 191q0 158 -102 256t-271 98q-44 0 -96 -10q86 -151 86 -336q0 -252 -152 -463q41 -10 103 -10zM586 662q0 -158 101.5 -256.5t270.5 -98.5q180 0 306.5 130t126.5 335q0 158 -102 256t-271 98q-180 0 -306 -129.5
t-126 -334.5zM1718 -41q-215 0 -391 92q-189 -92 -391 -92q-169 0 -311 55.5t-237.5 150.5t-148.5 221.5t-53 266.5q0 164 67.5 315.5t181 262.5t272.5 177.5t333 66.5q211 0 392 -93q191 93 391 93q168 0 310.5 -56t237.5 -151t148 -221t53 -267q0 -164 -67 -315t-181 -262
t-273 -177.5t-333 -66.5z" />
    <glyph glyph-name="O_C" horiz-adv-x="2476" 
d="M1718 -41q-215 0 -391 92q-189 -92 -391 -92q-169 0 -311 55.5t-237.5 150.5t-148.5 221.5t-53 266.5q0 164 67.5 315.5t181 262.5t272.5 177.5t333 66.5q211 0 392 -93q191 93 391 93q140 0 256.5 -35.5t193.5 -92t134 -133t86.5 -150.5t43.5 -153h-387
q-38 95 -123.5 155t-226.5 60q-44 0 -96 -10q86 -151 86 -336q0 -252 -152 -463q41 -10 103 -10q58 0 110.5 13.5t90 35.5t69.5 48t52.5 52t35.5 48t21 36l6 13h395q-4 -12 -12.5 -33.5t-41.5 -83.5t-72.5 -118t-108 -124.5t-146 -117.5t-188.5 -83t-234 -34zM586 662
q0 -158 101.5 -256.5t270.5 -98.5q180 0 306.5 130t126.5 335q0 158 -102 256t-271 98q-180 0 -306 -129.5t-126 -334.5z" />
    <glyph glyph-name="T_H_E" horiz-adv-x="2564" 
d="M635 1085h-451l62 349h1280l-62 -349h-450l-39 -215h553l100 564h1106l-61 -349h-727l-39 -215h583l-53 -307h-584l-36 -215h727l-62 -348h-1106l99 563h-553l-99 -563h-379z" />
    <glyph glyph-name="nine.dnom" horiz-adv-x="716" 
d="M750 477q0 -148 -175 -309l-182 -168h-276l231 209l78 37l2 10q-47 -25 -100 -25q-95 0 -155 61.5t-60 151.5q0 118 87.5 195.5t229.5 77.5q152 0 236 -68.5t84 -171.5zM434 532q-38 0 -61 -21.5t-23 -55.5q0 -31 21 -50.5t59 -19.5t61 22t23 56q0 31 -21 50t-59 19z" />
    <glyph glyph-name="eight.dnom" horiz-adv-x="798" 
d="M467 -20q-162 0 -268.5 57.5t-106.5 152.5q0 45 19 81t46 55t54 31.5t46 16.5l19 3l3 10q-4 1 -10.5 4t-24 13.5t-30.5 24t-23.5 37.5t-10.5 52q0 84 73.5 141.5t213.5 57.5q175 0 260.5 -57.5t85.5 -139.5q0 -41 -15.5 -73t-37.5 -49t-43.5 -28.5t-36.5 -14.5l-16 -3
l-2 -10q5 -2 13.5 -5t30 -15.5t37.5 -28.5t29.5 -44t13.5 -61q0 -86 -80.5 -147t-238.5 -61zM453 154q44 0 68 17.5t24 41.5q0 26 -27.5 44.5t-83.5 18.5q-44 0 -68 -17.5t-24 -41.5q0 -26 27.5 -44.5t83.5 -18.5zM496 430q35 0 55 14t20 39q0 22 -22.5 35.5t-63.5 13.5
q-35 0 -55 -14t-20 -39q0 -22 22.5 -35.5t63.5 -13.5z" />
    <glyph glyph-name="seven.dnom" horiz-adv-x="645" 
d="M721 492l-352 -492h-246l340 471l2 21h-338l37 204h594z" />
    <glyph glyph-name="six.dnom" horiz-adv-x="716" 
d="M82 219q0 149 174 309l182 168h277l-232 -209l-77 -36l-3 -11q48 25 101 25q95 0 155 -61.5t60 -151.5q0 -117 -88 -194.5t-230 -77.5q-152 0 -235.5 68t-83.5 171zM397 164q38 0 61 22t23 56q0 31 -21 50t-59 19t-61 -22t-23 -56q0 -31 21 -50t59 -19z" />
    <glyph glyph-name="five.dnom" horiz-adv-x="747" 
d="M428 512l-25 -86q36 20 97 20q118 0 183 -56.5t65 -145.5q0 -111 -85.5 -187.5t-228.5 -76.5q-62 0 -113 12t-84 29t-58 43t-37.5 47t-21.5 48t-11 39t-3 27h234q0 -2 1 -5.5t6 -12.5t13 -15.5t24.5 -12t37.5 -5.5q36 0 60 20t24 52q0 25 -23.5 43t-62.5 18
q-20 0 -37.5 -5t-24.5 -10l-8 -5l-194 20l100 389h502l-33 -184h-297z" />
    <glyph glyph-name="four.dnom" horiz-adv-x="727" 
d="M623 0h-236l23 123h-359l33 184l313 389h246l-299 -368h102l68 102h184l-16 -102h82l-37 -205h-82z" />
    <glyph glyph-name="three.dnom" horiz-adv-x="727" 
d="M547 420l-2 -10q84 -7 132 -56t48 -121q0 -111 -83.5 -182t-217.5 -71q-66 0 -120 13.5t-87.5 35t-59 47.5t-37.5 52.5t-19.5 48t-8.5 35.5l-2 13h232q1 -2 2.5 -6.5t8 -15t15 -18.5t23 -14.5t32.5 -6.5q32 0 55 19t23 48q0 28 -18 45.5t-51 20.5h-144l23 123l192 102
l2 10l-86 -20h-225l33 184h563l-31 -174z" />
    <glyph glyph-name="two.dnom" horiz-adv-x="757" 
d="M424 195l-2 -11l96 21h215l-37 -205h-635l37 205l178 82q153 71 198.5 101t45.5 69q0 24 -19 40.5t-50 16.5q-30 0 -51.5 -16t-27.5 -32l-7 -15h-240q1 6 4.5 15.5t16 37t29 52.5t45.5 56t63.5 53t85 37t108.5 15q147 0 226 -64t79 -157q0 -118 -85 -189t-273 -112z" />
    <glyph glyph-name="one.dnom" horiz-adv-x="747" 
d="M92 0l37 205h184l47 266l-180 -92l37 215l203 102h225l-86 -491h164l-37 -205h-594z" />
    <glyph glyph-name="zero.dnom" horiz-adv-x="798" 
d="M426 184q48 0 91.5 52.5t43.5 158.5q0 53 -22.5 85t-55.5 32q-48 0 -91.5 -52.5t-43.5 -158.5q0 -53 22.5 -85t55.5 -32zM422 -20q-139 0 -228.5 90.5t-89.5 232.5q0 89 32 167t85.5 131.5t122.5 84.5t143 31q138 0 228 -91t90 -233q0 -118 -55 -214t-142 -147.5
t-186 -51.5z" />
    <glyph glyph-name="nine.numr" horiz-adv-x="716" 
d="M866 1214q0 -149 -174 -309l-182 -168h-277l232 209l78 37l2 10q-48 -24 -101 -24q-95 0 -155 61.5t-60 151.5q0 117 88 194.5t230 77.5q152 0 235.5 -68.5t83.5 -171.5zM551 1270q-38 0 -61 -22t-23 -56q0 -31 21 -50.5t59 -19.5t61 22t23 56q0 31 -21 50.5t-59 19.5z
" />
    <glyph glyph-name="eight.numr" horiz-adv-x="798" 
d="M569 717q-161 0 -267.5 58t-106.5 153q0 45 19 81t46 55t54 31t46 15l19 4l2 10q-4 1 -10.5 4t-23.5 13.5t-30 24t-23.5 37.5t-10.5 52q0 84 73 141.5t213 57.5q175 0 260.5 -57.5t85.5 -139.5q0 -41 -15.5 -73t-37.5 -49t-43.5 -28t-36.5 -14l-16 -3l-2 -11
q5 -1 13.5 -4.5t30 -16t38 -28t30 -43.5t13.5 -61q0 -86 -81 -147.5t-239 -61.5zM555 891q44 0 68 17.5t24 41.5q0 26 -27 45t-83 19q-44 0 -68.5 -18t-24.5 -42q0 -26 27.5 -44.5t83.5 -18.5zM598 1167q35 0 55.5 14.5t20.5 39.5q0 22 -22.5 35.5t-63.5 13.5
q-35 0 -55.5 -14t-20.5 -39q0 -22 23 -36t63 -14z" />
    <glyph glyph-name="seven.numr" horiz-adv-x="645" 
d="M840 1229l-353 -492h-245l340 471l2 21h-338l37 205h594z" />
    <glyph glyph-name="six.numr" horiz-adv-x="716" 
d="M199 956q0 150 174 310l182 168h276l-231 -209l-78 -37l-2 -10q48 24 101 24q95 0 155 -61.5t60 -151.5q0 -117 -88 -194.5t-230 -77.5q-152 0 -235.5 68t-83.5 171zM514 901q38 0 61 22t23 56q0 31 -21 50.5t-59 19.5t-61 -22t-23 -56q0 -31 21 -50.5t59 -19.5z" />
    <glyph glyph-name="five.numr" horiz-adv-x="747" 
d="M530 1249l-24 -86q35 21 96 21q118 0 183 -56.5t65 -146.5q0 -111 -85 -187.5t-228 -76.5q-62 0 -113 12t-84 29t-58 43t-37.5 47.5t-21.5 48.5t-11 39t-3 27h233q0 -2 1 -5.5t6 -12.5t13 -16t24.5 -12.5t37.5 -5.5q36 0 60 20t24 52q0 25 -23.5 43t-62.5 18
q-20 0 -37 -5t-25 -10l-7 -5l-195 20l100 390h502l-33 -185h-297z" />
    <glyph glyph-name="four.numr" horiz-adv-x="727" 
d="M743 737h-235l22 123h-358l33 184l313 390h246l-299 -369h102l68 102h184l-16 -102h82l-37 -205h-82z" />
    <glyph glyph-name="three.numr" horiz-adv-x="727" 
d="M659 1157l-2 -10q85 -7 133 -55.5t48 -120.5q0 -111 -83.5 -182.5t-217.5 -71.5q-66 0 -120 13.5t-87.5 35.5t-59 48t-37.5 52t-19.5 48t-9.5 36l-1 13h231q2 -7 7 -17.5t26 -27.5t49 -17q31 0 54.5 19.5t23.5 48.5q0 28 -18 45t-52 20h-143l22 123l193 103l2 10l-86 -21
h-225l32 185h564l-31 -174z" />
    <glyph glyph-name="two.numr" horiz-adv-x="757" 
d="M535 932l-3 -10l97 20h215l-37 -205h-635l37 205l178 82q153 71 198.5 101t45.5 69q0 24 -19.5 40.5t-50.5 16.5q-30 0 -51.5 -15.5t-27.5 -31.5l-7 -16h-239q1 6 4.5 15.5t16 37t29 52.5t45.5 56t63.5 53t85 37t108.5 15q147 0 226 -64t79 -157q0 -118 -85 -189
t-273 -112z" />
    <glyph glyph-name="one.numr" horiz-adv-x="747" 
d="M213 737l37 205h184l47 266l-180 -92l37 215l203 103h225l-86 -492h164l-37 -205h-594z" />
    <glyph glyph-name="afii10029.alt" horiz-adv-x="1617" 
d="M0 10l59 338q37 -20 88 -20q57 0 98 16.5t77 59t63 119.5t47 194l127 717h1176l-252 -1434h-379l190 1085h-417l-66 -368q-31 -172 -77 -300.5t-102.5 -211.5t-130.5 -133.5t-154 -71t-179 -20.5q-45 0 -87 7.5t-61 14.5z" />
    <glyph glyph-name="afii10077.alt" horiz-adv-x="1300" 
d="M686 768l-57 -328q-22 -127 -65 -218t-103.5 -143t-129.5 -75.5t-153 -23.5q-55 0 -97 7.5t-57 14.5l-14 8l51 287q29 -10 70 -10q64 0 101 40.5t55 143.5l104 594h993l-188 -1065h-348l135 768h-297z" />
    <glyph glyph-name="afii10028.alt" horiz-adv-x="1495" 
d="M1247 748l-2 -21q7 -1 19 -4.5t40.5 -19t49 -38t32.5 -65.5t3 -98l-25 -144q-6 -38 7.5 -54.5t51.5 -16.5h72l-55 -307h-154q-182 0 -260.5 85.5t-50.5 241.5l24 133q9 54 -14.5 83.5t-77.5 29.5h-297l-98 -553h-379l252 1434h379l-92 -533h276q54 0 88 29.5t43 83.5
l21 112q31 168 136 248t290 80h153l-53 -307h-72q-75 0 -86 -72l-18 -112q-9 -52 -33 -93t-52 -62.5t-55 -36t-45 -19.5z" />
    <glyph glyph-name="afii10076.alt" horiz-adv-x="1218" 
d="M774 205l19 102q6 38 -12 60t-56 22h-205l-69 -389h-349l189 1065h348l-68 -379h185q38 0 64 22t32 60l16 92q19 103 99 164t207 61h174l-48 -276h-40q-65 0 -74 -61l-6 -41q-5 -34 -23.5 -63t-41 -45t-44.5 -27t-37 -15l-14 -4l-4 -21q6 -1 16 -4t35 -15.5t42.5 -28.5
t28.5 -47t3 -68l-11 -52q-12 -61 52 -61h41l-49 -276h-175q-128 0 -186 61.5t-39 163.5z" />
    <glyph glyph-name="afii10024.alt" horiz-adv-x="2181" 
d="M1944 748l-5 -21q7 -1 19 -4.5t41 -19t49.5 -38t33 -65.5t3.5 -98l-25 -144q-6 -39 7 -55t51 -16h71l-53 -307h-154q-182 0 -260.5 85.5t-50.5 241.5l25 133q9 54 -15.5 83.5t-78.5 29.5h-216l-96 -553h-379l97 553h-215q-54 0 -88 -29.5t-43 -83.5l-25 -133
q-31 -168 -135.5 -247.5t-290.5 -79.5h-154l54 307h71q39 0 59.5 16.5t26.5 54.5l25 144q9 55 35.5 98t57.5 66t60.5 37.5t49.5 18.5l20 5l4 21q-6 1 -16.5 4.5t-35.5 18.5t-43 36.5t-28.5 62.5t-1.5 93l19 112q6 39 -7 55.5t-51 16.5h-71l53 307h154q182 0 260.5 -86
t50.5 -242l-21 -112q-9 -54 14.5 -83.5t77.5 -29.5h195l94 533h379l-94 -533h194q54 0 89.5 29.5t44.5 83.5l20 112q31 168 136 248t290 80h154l-54 -307h-71q-75 0 -86 -72l-19 -112q-9 -52 -33 -93t-52 -62.5t-54.5 -36t-44.5 -19.5z" />
    <glyph glyph-name="afii10072.alt" horiz-adv-x="1802" 
d="M1360 205l18 102q7 38 -11 60t-56 22h-164l-68 -389h-348l68 389h-164q-38 0 -63 -22t-33 -60l-19 -102q-19 -103 -98.5 -164t-206.5 -61h-174l49 276h41q60 0 72 61l10 52q8 37 29.5 67.5t46.5 47.5t49.5 28.5t40.5 15.5l16 4l2 21q-5 1 -13 4t-28 15t-34.5 27.5
t-24 44.5t-4.5 63l6 41q9 61 -51 61h-41l49 276h174q128 0 187 -61.5t40 -163.5l-16 -92q-6 -38 12 -60t56 -22h143l66 379h348l-66 -379h143q38 0 64.5 22t32.5 60l16 92q19 103 98.5 164t206.5 61h174l-49 -276h-41q-62 0 -71 -61l-7 -41q-5 -34 -23.5 -63t-41 -45
t-44.5 -27t-37 -15l-15 -4l-2 -21q6 -1 15.5 -4t33.5 -15.5t41 -28.5t27.5 -47t4.5 -68l-8 -52q-9 -61 51 -61h41l-49 -276h-174q-128 0 -187 61.5t-40 163.5z" />
    <glyph glyph-name="afii10021.alt" horiz-adv-x="1679" 
d="M1280 0h-911l-43 -246h-359l105 594h133q6 3 17 10.5t41.5 37.5t56 69t53.5 109t43 153l125 707h1167l-192 -1086h184l-105 -594h-358zM1137 348l131 737h-410l-61 -348q-16 -92 -44 -166t-56 -113.5t-54 -66t-43 -35.5l-16 -8h553z" />
    <glyph glyph-name="afii10069.alt" horiz-adv-x="1331" 
d="M1360 1065l-135 -768h133l-88 -502h-328l37 205h-635l-37 -205h-327l88 502h102q4 2 11 6.5t26 23.5t35.5 43t34 67t26.5 95l94 533h963zM682 768l-41 -236q-9 -52 -25 -94t-32 -65t-30.5 -39t-23.5 -22l-10 -5l-2 -10h359l84 471h-279z" />
    <glyph glyph-name="zero.numr" horiz-adv-x="798" 
d="M541 922q48 0 91.5 52.5t43.5 158.5q0 53 -22.5 84.5t-55.5 31.5q-48 0 -91.5 -52.5t-43.5 -158.5q0 -53 22.5 -84.5t55.5 -31.5zM537 717q-139 0 -228.5 90.5t-89.5 232.5q0 89 32 167t85.5 131.5t122.5 84.5t143 31q138 0 228 -91t90 -233q0 -118 -55 -214t-142 -147.5
t-186 -51.5z" />
    <glyph glyph-name="nine.tab" horiz-adv-x="1392" 
d="M1464 975q0 -89 -27.5 -174t-81.5 -165t-107 -141.5t-130 -138.5l-356 -356h-430l381 412l110 59l4 21q-51 -33 -149 -33q-199 0 -331 133t-132 326q0 114 47 216t129 177t202 119.5t259 44.5q144 0 261 -39t193 -106.5t117 -158.5t41 -196zM842 758q106 0 170.5 59
t64.5 152q0 77 -62 127.5t-175 50.5q-106 0 -171 -59t-65 -152q0 -77 62.5 -127.5t175.5 -50.5z" />
    <glyph glyph-name="ff.alt" horiz-adv-x="1501" 
d="M1040 1024l11 51q34 178 129 268.5t245 90.5h322l-49 -277h-201q-44 0 -67 -24t-35 -80l-6 -29h235l-49 -276h-236l-131 -748h-348l131 748h-348l-131 -748h-348l131 748h-133l49 276h133l10 51q34 178 129.5 268.5t245.5 90.5h281l-49 -277h-160q-44 0 -67.5 -24
t-35.5 -80l-6 -29h348z" />
    <glyph glyph-name="fi.alt" horiz-adv-x="1310" 
d="M692 1024h697l-181 -1024h-348l131 748h-348l-131 -748h-348l131 748h-133l49 276h133l10 51q34 178 129.5 268.5t245.5 90.5h547l-49 -277h-426q-44 0 -67.5 -24t-35.5 -80z" />
    </font>
</defs>
</svg>
