<?xml version="1.0" standalone="no"?>
<!DOCTYPE svg PUBLIC "-//W3C//DTD SVG 1.1//EN" "http://www.w3.org/Graphics/SVG/1.1/DTD/svg11.dtd" >
<svg xmlns="http://www.w3.org/2000/svg" xmlns:xlink="http://www.w3.org/1999/xlink" version="1.1">
<metadata>
Created by FontForge 20170731 at Mon Aug  3 21:24:37 2020
 By Aleksey,,,
Copyright (c) 2018 by Typetype. Designer Ivan Gladkikh, technical designers Philipp Nurullin, Vika Usmanova, Nadyr Rakhimov, Marina Khodak. All rights reserved.
</metadata>
<defs>
<font id="TTFirsNeue-Light" horiz-adv-x="1228" >
  <font-face 
    font-family="TT Firs Neue Light"
    font-weight="300"
    font-stretch="normal"
    units-per-em="2048"
    panose-1="2 0 5 3 3 0 0 2 0 4"
    ascent="1638"
    descent="-410"
    x-height="1024"
    cap-height="1434"
    bbox="-891 -573 2945 2109"
    underline-thickness="102"
    underline-position="-409"
    unicode-range="U+000D-FB02"
  />
<missing-glyph horiz-adv-x="0" 
 />
    <glyph glyph-name="ff" unicode="ff" horiz-adv-x="1239" 
d="M51 911v113h144v410h460v-113h-338v-297h502v410h461v-113h-338v-297h277v-113h-277v-911h-123v911h-502v-911h-122v911h-144z" />
    <glyph glyph-name="fi" unicode="fi" horiz-adv-x="1105" 
d="M51 911v113h144v410h686v-113h-564v-297h625v-1024h-123v911h-502v-911h-122v911h-144z" />
    <glyph glyph-name="fl" unicode="fl" horiz-adv-x="1208" 
d="M51 911v113h144v410h747v-1321h236v-113h-359v1321h-502v-297h277v-113h-277v-911h-122v911h-144z" />
    <glyph glyph-name="f_j" unicode="fj" horiz-adv-x="1105" 
d="M51 911v113h144v410h686v-113h-564v-297h625v-1413h-420v113h297v1187h-502v-911h-122v911h-144z" />
    <glyph glyph-name="f_t" unicode="ft" horiz-adv-x="1351" 
d="M51 911v113h144v410h747v-410h338v-113h-338v-798h348v-113h-471v911h-502v-911h-122v911h-144zM317 1024h502v297h-502v-297z" />
    <glyph glyph-name=".notdef" horiz-adv-x="0" 
 />
    <glyph glyph-name=".null" horiz-adv-x="0" 
 />
    <glyph glyph-name=".null" horiz-adv-x="0" 
 />
    <glyph glyph-name="nonmarkingreturn" horiz-adv-x="682" 
 />
    <glyph glyph-name="CR" unicode="&#xd;" horiz-adv-x="0" 
 />
    <glyph glyph-name="space" unicode=" " horiz-adv-x="573" 
 />
    <glyph glyph-name="exclam" unicode="!" horiz-adv-x="573" 
d="M225 686v748h123v-748l-20 -276h-82zM184 72q0 47 28.5 74.5t74.5 27.5t74 -28t28 -74t-28 -74.5t-74 -28.5q-45 0 -74 29t-29 74z" />
    <glyph glyph-name="quotedbl" unicode="&#x22;" horiz-adv-x="727" 
d="M143 1167v267h123v-267l-20 -235h-82zM461 1167v267h123v-267l-21 -235h-82z" />
    <glyph glyph-name="numbersign" unicode="#" horiz-adv-x="1351" 
d="M61 420v102h256l113 389h-246v103h277l123 420h123l-123 -420h358l123 420h123l-123 -420h225v-103h-256l-112 -389h245v-102h-276l-123 -420h-123l123 420h-358l-123 -420h-123l123 420h-226zM440 522h359l112 389h-358z" />
    <glyph glyph-name="dollar" unicode="$" horiz-adv-x="1300" 
d="M92 379h133q2 -6 5.5 -17t19.5 -41.5t36 -58.5t56.5 -62.5t79.5 -59t107 -41.5t137 -17q191 0 295 82.5t104 204.5q0 62 -31 110t-84 79.5t-121 57t-144 47t-151.5 45t-143.5 55.5t-121 73.5t-84 105t-31 143.5q0 150 119.5 261.5t320.5 126.5v186h133v-189
q81 -8 150 -33.5t115 -59t82.5 -72t57 -75.5t34 -67t18.5 -49l4 -18h-133q-1 5 -4 14.5t-16.5 36t-31 50.5t-51 53.5t-74 51t-101.5 36t-132 14.5q-169 0 -263.5 -77t-94.5 -190q0 -60 31 -107.5t84 -78.5t121 -56.5t144 -47.5t151.5 -45.5t143.5 -56.5t121 -74.5t84 -105.5
t31 -144q0 -158 -127 -274.5t-344 -133.5v-186h-133v188q-87 8 -162 35t-125 64t-90 80t-62.5 85t-37.5 76t-20 55z" />
    <glyph glyph-name="percent" unicode="%" horiz-adv-x="1566" 
d="M82 1116q0 138 100 238t238 100t238 -100t100 -238t-100 -238t-238 -100t-238 100t-100 238zM287 0l860 1434h133l-860 -1434h-133zM205 1116q0 -99 61 -162t154 -63t154 63t61 162t-61 162t-154 63t-154 -63t-61 -162zM809 317q0 138 100 238t238 100t238 -100t100 -238
t-100 -237.5t-238 -99.5t-238 99.5t-100 237.5zM932 317q0 -99 61 -162t154 -63t154 63t61 162t-61 162.5t-154 63.5t-154 -63.5t-61 -162.5z" />
    <glyph glyph-name="ampersand" unicode="&#x26;" horiz-adv-x="1433" 
d="M51 471q0 141 67.5 259t183 185.5t251.5 67.5q36 0 72 -7.5t53 -15.5l18 -8v2l-12 19l-223 338v123h799v-123h-646v-2l861 -1309h-154l-262 399l-12 21h-3q0 -193 -138 -327t-343 -134q-215 0 -363.5 148.5t-148.5 363.5zM195 471q0 -167 106.5 -278t261.5 -111t262 111
t107 278t-107 278t-262 111t-261.5 -111t-106.5 -278z" />
    <glyph glyph-name="quotesingle" unicode="'" horiz-adv-x="409" 
d="M143 1167v267h123v-267l-20 -235h-82z" />
    <glyph glyph-name="parenleft" unicode="(" horiz-adv-x="747" 
d="M164 594q0 100 16.5 197t44.5 175.5t64 152t75.5 130t79.5 106t76 84t64 59t44 36.5l17 12l72 -92q-9 -6 -24 -18.5t-58.5 -55t-83.5 -90.5t-88.5 -125t-83 -158.5t-58.5 -190.5t-24 -222t23 -221.5t60 -191.5t82 -157t90 -126t82 -90t60 -56l23 -18l-72 -92
q-10 7 -27.5 20t-67.5 59.5t-95 98.5t-100.5 137t-95.5 175t-67.5 212t-27.5 250z" />
    <glyph glyph-name="parenright" unicode=")" horiz-adv-x="747" 
d="M31 -266q9 6 24 18.5t58.5 55t83.5 90.5t88.5 125t83 158.5t58.5 190.5t24 222t-23 221.5t-60 191.5t-82 157t-90 126t-82 90t-60 56l-23 18l71 92q10 -7 27.5 -20t67.5 -59.5t95.5 -98.5t101 -137t95.5 -175t67.5 -212t27.5 -250t-26.5 -249t-69 -213.5t-94 -174
t-103 -138t-94 -97.5t-69.5 -60l-26 -20z" />
    <glyph glyph-name="asterisk" unicode="*" horiz-adv-x="737" 
d="M72 1085v103h245v246h103v-246h246v-103h-215l143 -215l-92 -51l-133 215l-133 -215l-93 51l144 215h-215z" />
    <glyph glyph-name="plus" unicode="+" horiz-adv-x="1024" 
d="M113 573v113h338v358h122v-358h338v-113h-338v-358h-122v358h-338z" />
    <glyph glyph-name="comma" unicode="," horiz-adv-x="399" 
d="M92 61q0 46 28.5 74.5t74.5 28.5q49 0 80.5 -41.5t31.5 -122.5q0 -104 -55 -167.5t-150 -78.5v62q123 30 123 133q0 10 -2.5 20.5t-4.5 15.5l-3 5q-21 -10 -41 -10q-31 0 -56.5 25t-25.5 56z" />
    <glyph glyph-name="hyphen" unicode="-" horiz-adv-x="983" 
d="M123 512v123h737v-123h-737z" />
    <glyph glyph-name="period" unicode="." horiz-adv-x="389" 
d="M92 72q0 47 28.5 74.5t74.5 27.5t74 -28t28 -74t-28 -74.5t-74 -28.5q-45 0 -74 29t-29 74z" />
    <glyph glyph-name="slash" unicode="/" horiz-adv-x="716" 
d="M10 0l563 1434h134l-564 -1434h-133z" />
    <glyph glyph-name="zero" unicode="0" horiz-adv-x="1515" 
d="M123 717q0 172 50.5 316.5t136.5 240t202 148.5t246 53t246 -53t202 -148.5t136.5 -240t50.5 -316.5t-50.5 -316.5t-136.5 -240t-202 -148.5t-246 -53t-246 53t-202 148.5t-136.5 240t-50.5 316.5zM256 717q0 -150 39.5 -271.5t108 -200.5t159.5 -121t195 -42t195 42
t159.5 121t108 200.5t39.5 271.5t-39.5 271.5t-108 200.5t-159.5 121t-195 42t-195 -42t-159.5 -121t-108 -200.5t-39.5 -271.5z" />
    <glyph glyph-name="one" unicode="1" horiz-adv-x="634" 
d="M51 1075v144l277 215h123v-1434h-134v1280z" />
    <glyph glyph-name="two" unicode="2" horiz-adv-x="1167" 
d="M61 0v123l441 338q100 77 163.5 130.5t119.5 110t85 105t45.5 102t16.5 115.5q0 140 -100 234t-259 94q-63 0 -116 -17.5t-87.5 -45.5t-62 -62t-42.5 -68t-24.5 -62t-12.5 -45l-3 -18h-143q1 9 3.5 25t15.5 62t32 87.5t57.5 92.5t87.5 87.5t126 61.5t169 25
q140 0 253.5 -61.5t176 -164.5t62.5 -225q0 -90 -31.5 -173t-95 -162t-139.5 -148t-185 -152l-327 -248l-21 -14v-6l21 2h778v-123h-1004z" />
    <glyph glyph-name="three" unicode="3" horiz-adv-x="1208" 
d="M51 369h133q1 -6 4 -16.5t16.5 -40t31 -57t51 -60.5t74 -56.5t101.5 -40t132 -16.5q173 0 276 93t103 235t-103 234.5t-276 92.5h-256v123l512 449v2h-727v123h911v-123l-491 -430l-21 -17v-4h72q112 0 209 -36t162.5 -97t103 -143t37.5 -174q0 -189 -143.5 -320
t-368.5 -131q-76 0 -142.5 14t-116 38t-91.5 54.5t-70.5 64.5t-51 68t-35.5 64.5t-21.5 54.5t-11.5 38z" />
    <glyph glyph-name="four" unicode="4" horiz-adv-x="1198" 
d="M61 328v123l512 983h144l-512 -983h624v389h11h123v-389h215v-123h-215v-328h-134v328h-768z" />
    <glyph glyph-name="five" unicode="5" horiz-adv-x="1259" 
d="M123 369h133q3 -12 9.5 -31t36.5 -68.5t70.5 -87.5t115.5 -69t167 -31q168 0 273.5 103.5t105.5 265.5t-105.5 265t-273.5 103q-69 0 -130 -18t-99 -43.5t-66.5 -51t-40.5 -43.5l-12 -18h-123l62 789h829v-123h-717l-41 -490v-2q5 5 14 13.5t40.5 29.5t67.5 37t94.5 29.5
t121.5 13.5q221 0 366.5 -141t145.5 -350t-145.5 -350.5t-366.5 -141.5q-92 0 -171 22.5t-132 59t-95.5 80t-66.5 87t-40 80t-22 58.5z" />
    <glyph glyph-name="six" unicode="6" horiz-adv-x="1239" 
d="M82 461q0 40 5.5 77.5t11.5 65t24 64t27 55.5t38 59t40 54.5t49.5 62.5t50.5 64l368 471h154l-379 -480l-8 -10l-2 -2q51 21 174 21q141 0 259 -67.5t185.5 -183t67.5 -251.5q0 -102 -40.5 -194.5t-110.5 -160t-169.5 -107.5t-212.5 -40t-212.5 40t-169 107.5t-110 160
t-40.5 194.5zM215 461q0 -163 112 -271t287 -108t287.5 108t112.5 271t-112.5 271t-287.5 108t-287 -108t-112 -271z" />
    <glyph glyph-name="seven" unicode="7" horiz-adv-x="993" 
d="M20 1311v123h932v-123l-604 -1311h-143l604 1309v2h-789z" />
    <glyph glyph-name="eight" unicode="8" horiz-adv-x="1310" 
d="M102 389q0 61 17 115t40.5 90.5t59 68t62 48.5t61 32t44 18t22.5 7v2q-119 40 -186 134q-58 82 -58 192q0 74 34 142t95.5 121t155.5 84.5t206 31.5t206 -31.5t155.5 -84.5t96 -121.5t34.5 -141.5q0 -72 -25.5 -132t-61.5 -94t-72 -58.5t-62 -33.5l-25 -8v-2
q6 -2 17.5 -5t43 -16.5t60.5 -31t64.5 -48.5t61 -68.5t43 -92t17.5 -117.5q0 -85 -38 -162.5t-107 -137t-175 -95t-233 -35.5t-233 35.5t-175 95t-107 137t-38 162.5zM297 1096q0 -109 96 -193t262 -84q85 0 155 24.5t113.5 64.5t67 88.5t23.5 99.5q0 106 -95 181t-264 75
t-263.5 -75t-94.5 -181zM236 389q0 -130 110.5 -218.5t308.5 -88.5t309 88.5t111 218.5t-111 218.5t-309 88.5t-308.5 -88.5t-110.5 -218.5z" />
    <glyph glyph-name="nine" unicode="9" horiz-adv-x="1239" 
d="M92 973q0 102 40.5 194.5t110.5 160t169.5 107.5t212.5 40t212.5 -40t169 -107.5t110 -160t40.5 -194.5q0 -40 -5.5 -77.5t-11.5 -65t-24 -64t-27 -55.5t-38 -59t-40 -54.5t-49.5 -62.5t-50.5 -64l-368 -471h-154l379 479l8 10l2 3q-51 -21 -174 -21q-141 0 -259 67.5
t-185.5 183t-67.5 251.5zM225 973q0 -163 112.5 -271t287.5 -108t287 108t112 271t-112 271t-287 108t-287.5 -108t-112.5 -271z" />
    <glyph glyph-name="colon" unicode=":" horiz-adv-x="389" 
d="M92 946q0 47 28.5 75t74.5 28t74 -28.5t28 -74.5t-28 -74t-74 -28q-45 0 -74 29t-29 73zM92 72q0 47 28.5 74.5t74.5 27.5t74 -28t28 -74t-28 -74.5t-74 -28.5q-45 0 -74 29t-29 74z" />
    <glyph glyph-name="semicolon" unicode=";" horiz-adv-x="389" 
d="M92 61q0 46 28.5 74.5t74.5 28.5q49 0 80.5 -41.5t31.5 -122.5q0 -104 -55 -167.5t-150 -78.5v62q123 30 123 133q0 10 -2.5 20.5t-4.5 15.5l-3 5q-21 -10 -41 -10q-31 0 -56.5 25t-25.5 56zM92 946q0 47 28.5 75t74.5 28t74 -28.5t28 -74.5t-28 -74t-74 -28
q-45 0 -74 29t-29 73z" />
    <glyph glyph-name="less" unicode="&#x3c;" horiz-adv-x="1024" 
d="M113 440v144l778 409v-123l-655 -348v-20l655 -348v-123z" />
    <glyph glyph-name="equal" unicode="=" horiz-adv-x="1024" 
d="M133 676v112h758v-112h-758zM133 297v113h758v-113h-758z" />
    <glyph glyph-name="greater" unicode="&#x3e;" horiz-adv-x="1024" 
d="M133 31v123l655 348v20l-655 348v123l778 -409v-144z" />
    <glyph glyph-name="question" unicode="?" horiz-adv-x="1075" 
d="M31 1065q2 9 5.5 23.5t20.5 57t39.5 81.5t64.5 86t92.5 81t126 57.5t163.5 23.5q202 0 331.5 -117t129.5 -283q0 -77 -24.5 -137.5t-63 -100.5t-85.5 -74t-94.5 -67.5t-86 -71.5t-63 -95.5t-24.5 -129.5h-133q0 85 24.5 152.5t63 110.5t85.5 79t94 68t85.5 66.5t63 85
t24.5 114.5q0 119 -88.5 198t-238.5 79q-65 0 -120.5 -16t-93.5 -41t-68 -56t-47.5 -61.5t-29.5 -55.5t-16 -41l-4 -16h-133zM399 72q0 47 28.5 74.5t74.5 27.5t74 -28t28 -74t-28 -74.5t-74 -28.5q-45 0 -74 29t-29 74z" />
    <glyph glyph-name="at" unicode="@" horiz-adv-x="1669" 
d="M102 655q0 159 60 301t162.5 244.5t244.5 162.5t301 60q156 0 292.5 -53t228 -139t144 -196.5t52.5 -225.5q0 -220 -138.5 -345.5t-401.5 -125.5h-3v102h-2l-2 -5q-3 -5 -6.5 -10.5t-9.5 -14t-13 -16.5t-18 -17.5t-23 -18t-28.5 -16t-34.5 -13t-40.5 -9t-47.5 -3.5
q-123 0 -215 97t-92 241t91 241t216 97q46 0 85.5 -12.5t62 -27t41.5 -35.5t24 -29.5t10 -18.5h2v103h123v-522q135 0 216 93t81 265q0 96 -41.5 186.5t-116.5 160.5t-188.5 112.5t-247.5 42.5q-137 0 -258 -49.5t-208 -136t-138 -208.5t-51 -262q0 -191 84.5 -341
t233.5 -232t337 -82q65 0 129 10.5t109 25.5t80.5 30t53.5 26l18 10v-112q-6 -4 -18.5 -11t-52 -25t-82.5 -31.5t-107.5 -24.5t-129.5 -11q-163 0 -305.5 58.5t-244 160t-160 244t-58.5 305.5zM635 655q0 -98 59.5 -161.5t145.5 -63.5t145 63.5t59 161.5t-59 162t-145 64
t-145.5 -64t-59.5 -162z" />
    <glyph glyph-name="A" unicode="A" horiz-adv-x="1372" 
d="M51 0l379 1434h512l379 -1434h-133l-123 471h-758l-123 -471h-133zM338 594h696l-194 717h-308z" />
    <glyph glyph-name="B" unicode="B" horiz-adv-x="1433" 
d="M184 0v1434h666q182 0 296 -108t114 -271q0 -48 -11 -91t-28 -73t-38 -55.5t-41.5 -41t-37.5 -26.5t-28 -16l-11 -4v-11q10 -3 27.5 -8.5t61.5 -31t78 -60t61.5 -98t27.5 -140.5q0 -174 -127 -286.5t-344 -112.5h-666zM317 799h533q129 0 202.5 69.5t73.5 186.5
t-73.5 186.5t-202.5 69.5h-533v-512zM317 123h533q164 0 251 74.5t87 201.5t-87 202t-251 75h-533v-553z" />
    <glyph glyph-name="C" unicode="C" horiz-adv-x="1638" 
d="M102 717q0 162 56.5 303.5t154.5 241t235 156.5t292 57q90 0 172 -17.5t143.5 -47t115 -68t91.5 -81t69 -85t50 -81t32 -68t18 -47.5l5 -17h-133q-3 8 -8 22t-26.5 54.5t-48.5 77t-74 81.5t-102 77.5t-134.5 54.5t-169.5 22q-129 0 -241 -46.5t-192 -128.5t-125.5 -201
t-45.5 -259t45.5 -259t125.5 -201t192 -128.5t241 -46.5q92 0 173.5 23t138 60t103 82t75 90t48.5 82t28 60l7 23h133q-3 -11 -9.5 -30.5t-32.5 -76t-58.5 -108t-91.5 -114t-128 -107.5t-170 -76t-216 -31q-155 0 -292 57t-235 156.5t-154.5 241t-56.5 303.5z" />
    <glyph glyph-name="D" unicode="D" horiz-adv-x="1474" 
d="M184 0v1434h451q212 0 380.5 -93.5t262.5 -257t94 -366.5t-94 -366.5t-262.5 -257t-380.5 -93.5h-451zM317 123h318q268 0 436 166t168 428t-168 428t-436 166h-318v-1188z" />
    <glyph glyph-name="E" unicode="E" horiz-adv-x="1249" 
d="M184 0v1434h973v-123h-840v-523h687v-122h-687v-543h840v-123h-973z" />
    <glyph glyph-name="F" unicode="F" horiz-adv-x="1187" 
d="M184 0v1434h953v-123h-820v-563h656v-123h-656v-625h-133z" />
    <glyph glyph-name="G" unicode="G" horiz-adv-x="1761" 
d="M102 717q0 162 56.5 303.5t154.5 241t235 156.5t292 57q113 0 212.5 -27.5t168 -72t125 -98t91 -107t58 -98t32.5 -72.5l9 -27h-133q-3 8 -8.5 21.5t-28 53t-49.5 75.5t-75 79.5t-102.5 75t-133 53t-166.5 21.5q-129 0 -241 -46.5t-192 -128.5t-125.5 -201t-45.5 -259
t45.5 -259t125.5 -201t192 -128.5t241 -46.5q155 0 283.5 71t206.5 192t93 269h-286v123h604v-123h-185q-47 -297 -238 -476t-478 -179q-155 0 -292 57t-235 156.5t-154.5 241t-56.5 303.5z" />
    <glyph glyph-name="H" unicode="H" horiz-adv-x="1464" 
d="M184 0v1434h133v-646h830v646h133v-1434h-133v666h-830v-666h-133z" />
    <glyph glyph-name="I" unicode="I" horiz-adv-x="501" 
d="M184 0v1434h133v-1434h-133z" />
    <glyph glyph-name="J" unicode="J" horiz-adv-x="1126" 
d="M0 317l133 31q1 -6 4 -15.5t15 -37t27.5 -52.5t44 -56t63 -53t85 -37t109.5 -15q156 0 247 97t91 272v983h133v-983q0 -229 -127 -360.5t-344 -131.5q-81 0 -152 19.5t-118.5 51.5t-86 70t-61 76t-37.5 70t-20 52z" />
    <glyph glyph-name="K" unicode="K" horiz-adv-x="1300" 
d="M184 0v1434h133v-646h318l461 646h164l-502 -697l522 -737h-164l-471 666h-328v-666h-133z" />
    <glyph glyph-name="L" unicode="L" horiz-adv-x="1116" 
d="M184 0v1434h133v-1311h779v-123h-912z" />
    <glyph glyph-name="M" unicode="M" horiz-adv-x="1873" 
d="M184 0v1434h215l471 -953h134l471 953h215v-1434h-134v1290l3 21h-3l-471 -953h-297l-471 953l-2 -2l2 -19v-1290h-133z" />
    <glyph glyph-name="N" unicode="N" horiz-adv-x="1484" 
d="M184 0v1434h205l778 -1301h2l-2 21v1280h133v-1434h-204l-779 1300h-2l2 -20v-1280h-133z" />
    <glyph glyph-name="O" unicode="O" horiz-adv-x="1679" 
d="M102 717q0 162 56.5 303.5t154.5 241t235 156.5t292 57t292 -57t234.5 -156.5t154 -241t56.5 -303.5t-56.5 -303.5t-154 -241t-234.5 -156.5t-292 -57t-292 57t-235 156.5t-154.5 241t-56.5 303.5zM236 717q0 -140 45.5 -259t125.5 -201t192 -128.5t241 -46.5t241 46.5
t192 128.5t125.5 201t45.5 259t-45.5 259t-125.5 201t-192 128.5t-241 46.5t-241 -46.5t-192 -128.5t-125.5 -201t-45.5 -259z" />
    <glyph glyph-name="P" unicode="P" horiz-adv-x="1361" 
d="M184 0v1434h584q234 0 373 -129t139 -332t-139 -332t-373 -129h-451v-512h-133zM317 635h451q182 0 280.5 91t98.5 247t-98.5 247t-280.5 91h-451v-676z" />
    <glyph glyph-name="Q" unicode="Q" horiz-adv-x="1679" 
d="M102 717q0 162 56.5 303.5t154.5 241t235 156.5t292 57t292 -57t234.5 -156.5t154 -241t56.5 -303.5q0 -155 -51 -291t-139.5 -234t-211.5 -158.5t-264 -70.5v-373h-133v371q-144 11 -269.5 72t-215 159t-140.5 234t-51 291zM236 717q0 -140 45.5 -259t125.5 -201
t192 -128.5t241 -46.5t241 46.5t192 128.5t125.5 201t45.5 259t-45.5 259t-125.5 201t-192 128.5t-241 46.5t-241 -46.5t-192 -128.5t-125.5 -201t-45.5 -259z" />
    <glyph glyph-name="R" unicode="R" horiz-adv-x="1392" 
d="M184 0v1434h594q233 0 367.5 -122.5t134.5 -318.5q0 -167 -99 -283.5t-280 -146.5l369 -563h-154l-358 553h-441v-553h-133zM317 676h461q181 0 275 84t94 233t-94 233.5t-275 84.5h-461v-635z" />
    <glyph glyph-name="S" unicode="S" horiz-adv-x="1300" 
d="M92 379h133q2 -6 5.5 -17t19.5 -41.5t36 -58.5t56.5 -62.5t79.5 -59t107 -41.5t137 -17q191 0 295 82.5t104 204.5q0 62 -31 110t-84 79.5t-121 57t-144 47t-151.5 45t-143.5 55.5t-121 73.5t-84 105t-31 143.5q0 77 34 147.5t95.5 124.5t155.5 86t206 32q76 0 142.5 -13
t116 -35t91.5 -50.5t70.5 -59.5t51 -62.5t35.5 -60t21.5 -50.5t11.5 -35l3 -13h-133q-1 5 -4 14.5t-16.5 36t-31 50.5t-51 53.5t-74 51t-101.5 36t-132 14.5q-169 0 -263.5 -77t-94.5 -190q0 -60 31 -107.5t84 -78.5t121 -56.5t144 -47.5t151.5 -45.5t143.5 -56.5t121 -74.5
t84 -105.5t31 -144q0 -81 -36 -155t-102.5 -131t-168.5 -90.5t-225 -33.5q-100 0 -186 23t-143 60t-103 82t-71.5 90t-42.5 82t-22 60z" />
    <glyph glyph-name="T" unicode="T" horiz-adv-x="1198" 
d="M20 1311v123h1158v-123h-512v-1311h-134v1311h-512z" />
    <glyph glyph-name="U" unicode="U" horiz-adv-x="1454" 
d="M174 532v902h133v-902q0 -213 113 -331.5t307 -118.5t307 118.5t113 331.5v902h133v-902q0 -260 -153 -416.5t-400 -156.5t-400 156.5t-153 416.5z" />
    <glyph glyph-name="V" unicode="V" horiz-adv-x="1382" 
d="M61 1434h144l338 -1311h297l338 1311h143l-379 -1434h-502z" />
    <glyph glyph-name="W" unicode="W" horiz-adv-x="1966" 
d="M82 1434h143l277 -1311h71l287 1311h246l287 -1311h71l277 1311h143l-317 -1434h-277l-276 1311h-62l-276 -1311h-277z" />
    <glyph glyph-name="X" unicode="X" horiz-adv-x="1290" 
d="M51 0l389 717l-368 717h143l338 -656h184l338 656h144l-369 -717l389 -717h-143l-359 655h-184l-358 -655h-144z" />
    <glyph glyph-name="Y" unicode="Y" horiz-adv-x="1300" 
d="M20 1434h164l461 -758h10l461 758h164l-563 -912v-522h-133v522z" />
    <glyph glyph-name="Z" unicode="Z" 
d="M72 0v123l901 1177v11h-871v123h1045v-123l-901 -1178v-10h911v-123h-1085z" />
    <glyph glyph-name="bracketleft" unicode="[" horiz-adv-x="665" 
d="M184 -297v1782h430v-123h-297v-1536h297v-123h-430z" />
    <glyph glyph-name="backslash" unicode="\" horiz-adv-x="716" 
d="M10 1434h133l564 -1434h-134z" />
    <glyph glyph-name="bracketright" unicode="]" horiz-adv-x="665" 
d="M51 -297v123h297v1536h-297v123h430v-1782h-430z" />
    <glyph glyph-name="asciicircum" unicode="^" horiz-adv-x="942" 
d="M92 788l297 646h164l297 -646h-123l-235 523h-41l-236 -523h-123z" />
    <glyph glyph-name="underscore" unicode="_" horiz-adv-x="634" 
d="M-41 -338v113h717v-113h-717z" />
    <glyph glyph-name="grave" unicode="`" horiz-adv-x="460" 
d="M61 1421v2h154l184 -297h-102z" />
    <glyph glyph-name="a" unicode="a" horiz-adv-x="1259" 
d="M92 512q0 113 39.5 212.5t106.5 169t157 110t189 40.5q76 0 144.5 -22t115.5 -56.5t78.5 -72t48.5 -74.5h2v205h123v-1024h-123v205h-2q-17 -37 -48.5 -74.5t-78.5 -72t-115.5 -56.5t-144.5 -22q-99 0 -189 40.5t-157 110t-106.5 169t-39.5 212.5zM215 512
q0 -181 111 -300.5t268 -119.5q151 0 265 120.5t114 299.5t-114 299.5t-265 120.5q-157 0 -268 -119.5t-111 -300.5z" />
    <glyph glyph-name="b" unicode="b" horiz-adv-x="1259" 
d="M164 0v1434h123v-615h2q17 37 48.5 74.5t78.5 72t115.5 56.5t144.5 22q99 0 189 -40.5t156.5 -110t106 -169t39.5 -212.5t-39.5 -212.5t-106 -169t-156.5 -110t-189 -40.5q-76 0 -144.5 22t-115.5 56.5t-78.5 72t-48.5 74.5h-2v-205h-123zM287 512q0 -179 114 -299.5
t265 -120.5q157 0 267.5 119.5t110.5 300.5t-110.5 300.5t-267.5 119.5q-151 0 -265 -120.5t-114 -299.5z" />
    <glyph glyph-name="c" unicode="c" horiz-adv-x="1167" 
d="M92 512q0 113 40 212.5t107.5 169t160 110t194.5 40.5q79 0 148.5 -19.5t117 -51.5t86.5 -70t62.5 -76t39 -70t21.5 -51l6 -20h-123q-3 10 -10.5 26.5t-37 59t-66 75t-102 59t-142.5 26.5q-157 0 -268 -119.5t-111 -300.5t111 -300.5t268 -119.5q80 0 147.5 27.5
t107 66.5t67 78t37.5 66l10 28h122q-2 -8 -6 -21.5t-21.5 -53t-40 -75t-63 -79t-88.5 -75t-119.5 -53t-152.5 -21.5q-102 0 -194.5 40.5t-160 110t-107.5 169t-40 212.5z" />
    <glyph glyph-name="d" unicode="d" horiz-adv-x="1259" 
d="M92 512q0 113 39.5 212.5t106.5 169t157 110t189 40.5q76 0 144.5 -22t115.5 -56.5t78.5 -72t48.5 -74.5h2v615h123v-1434h-123v205h-2q-17 -37 -48.5 -74.5t-78.5 -72t-115.5 -56.5t-144.5 -22q-99 0 -189 40.5t-157 110t-106.5 169t-39.5 212.5zM215 512
q0 -181 111 -300.5t268 -119.5q151 0 265 120.5t114 299.5t-114 299.5t-265 120.5q-157 0 -268 -119.5t-111 -300.5z" />
    <glyph glyph-name="e" unicode="e" horiz-adv-x="1208" 
d="M92 512q0 151 68 273t185 190.5t259 68.5t259 -68t185 -188t68 -266v-51h-901q8 -162 118.5 -270.5t270.5 -108.5q77 0 143.5 23t106 56t68.5 66.5t40 56.5l11 23h123q-2 -7 -7 -19t-24.5 -47t-43 -67t-65 -71t-89 -67t-117 -47t-146.5 -19q-142 0 -259 68.5t-185 190.5
t-68 273zM215 584h768q-15 149 -121 248.5t-258 99.5q-151 0 -258 -99t-131 -249z" />
    <glyph glyph-name="f" unicode="f" horiz-adv-x="614" 
d="M51 911v113h144v410h460v-113h-338v-297h277v-113h-277v-911h-122v911h-144z" />
    <glyph glyph-name="g" unicode="g" horiz-adv-x="1259" 
d="M92 512q0 113 39.5 212.5t106.5 169t157 110t189 40.5q76 0 144.5 -22t115.5 -56.5t78.5 -72t48.5 -74.5h2v205h123v-1413h-871v113h748v481h-2q-17 -37 -48.5 -74.5t-78.5 -72t-115.5 -56.5t-144.5 -22q-99 0 -189 40.5t-157 110t-106.5 169t-39.5 212.5zM215 512
q0 -181 111 -300.5t268 -119.5q151 0 265 120.5t114 299.5t-114 299.5t-265 120.5q-157 0 -268 -119.5t-111 -300.5z" />
    <glyph glyph-name="h" unicode="h" horiz-adv-x="1187" 
d="M164 0v1434h123v-584h2q17 34 45 65.5t71.5 62t108.5 48.5t141 18q172 0 280.5 -118.5t108.5 -321.5v-604h-122v604q0 158 -77 243t-210 85q-148 0 -248 -104.5t-100 -264.5v-563h-123z" />
    <glyph glyph-name="i" unicode="i" horiz-adv-x="450" 
d="M133 1331q0 38 27 65t65 27t65 -27t27 -65t-27 -65t-65 -27t-65 27t-27 65zM164 0v1024h123v-1024h-123z" />
    <glyph glyph-name="j" unicode="j" horiz-adv-x="450" 
d="M133 1331q0 38 27 65t65 27t65 -27t27 -65t-27 -65t-65 -27t-65 27t-27 65zM-133 -389v113h297v1300h123v-1413h-420z" />
    <glyph glyph-name="k" unicode="k" horiz-adv-x="1054" 
d="M164 0v1434h123v-840h245l338 430h144l-379 -492l409 -532h-143l-369 481h-245v-481h-123z" />
    <glyph glyph-name="l" unicode="l" horiz-adv-x="552" 
d="M164 0v1434h123v-1321h235v-113h-358z" />
    <glyph glyph-name="m" unicode="m" horiz-adv-x="1863" 
d="M164 0v1024h123v-174h2q4 8 12 21t39 46.5t67 59t97.5 46.5t130.5 21t128 -23t94 -56t60.5 -66.5t35.5 -56.5l10 -23h10q2 5 6 13t19 31.5t33.5 44.5t51 47t69 44.5t89 31.5t111.5 13q158 0 263 -119t105 -321v-604h-123v604q0 157 -73.5 242.5t-192.5 85.5
q-131 0 -229 -100.5t-98 -237.5v-594h-123v604q0 157 -74 242.5t-193 85.5q-131 0 -229 -100.5t-98 -237.5v-594h-123z" />
    <glyph glyph-name="n" unicode="n" horiz-adv-x="1187" 
d="M164 0v1024h123v-174h2q17 34 45 65.5t71.5 62t108.5 48.5t141 18q172 0 280.5 -118.5t108.5 -321.5v-604h-122v604q0 158 -77 243t-210 85q-148 0 -248 -104.5t-100 -264.5v-563h-123z" />
    <glyph glyph-name="o" unicode="o" 
d="M92 512q0 229 149.5 380.5t372.5 151.5q224 0 373.5 -151.5t149.5 -380.5t-149.5 -380.5t-373.5 -151.5q-223 0 -372.5 151.5t-149.5 380.5zM215 512q0 -183 114.5 -301.5t284.5 -118.5t285 118.5t115 301.5t-115 301.5t-285 118.5t-284.5 -118.5t-114.5 -301.5z" />
    <glyph glyph-name="p" unicode="p" horiz-adv-x="1259" 
d="M164 -389v1413h123v-205h2q17 37 48.5 74.5t78.5 72t115.5 56.5t144.5 22q99 0 189 -40.5t156.5 -110t106 -169t39.5 -212.5t-39.5 -212.5t-106 -169t-156.5 -110t-189 -40.5q-76 0 -144.5 22t-115.5 56.5t-78.5 72t-48.5 74.5h-2v-594h-123zM287 512q0 -179 114 -299.5
t265 -120.5q157 0 267.5 119.5t110.5 300.5t-110.5 300.5t-267.5 119.5q-151 0 -265 -120.5t-114 -299.5z" />
    <glyph glyph-name="q" unicode="q" horiz-adv-x="1259" 
d="M92 512q0 113 39.5 212.5t106.5 169t157 110t189 40.5q76 0 144.5 -22t115.5 -56.5t78.5 -72t48.5 -74.5h2v205h123v-1413h-123v594h-2q-17 -37 -48.5 -74.5t-78.5 -72t-115.5 -56.5t-144.5 -22q-99 0 -189 40.5t-157 110t-106.5 169t-39.5 212.5zM215 512
q0 -181 111 -300.5t268 -119.5q151 0 265 120.5t114 299.5t-114 299.5t-265 120.5q-157 0 -268 -119.5t-111 -300.5z" />
    <glyph glyph-name="r" unicode="r" horiz-adv-x="757" 
d="M164 0v1024h123v-195h2q3 8 10 22t34.5 49.5t62.5 62.5t96 49t133 22h112v-112h-112q-148 0 -243 -99.5t-95 -259.5v-563h-123z" />
    <glyph glyph-name="s" unicode="s" horiz-adv-x="1044" 
d="M82 307h133q2 -4 5 -12t15.5 -30.5t28.5 -42.5t44.5 -45t61 -43t81 -30t102.5 -12q139 0 207.5 51t68.5 133q0 54 -38.5 90.5t-100 56t-135.5 35.5t-148 37t-135.5 51t-100 86.5t-38.5 135.5q0 114 101.5 195t277.5 81q73 0 136 -16.5t106 -42.5t77.5 -57.5t54.5 -63
t33 -57.5t18 -43l5 -16h-133q-2 7 -8 19.5t-29 44.5t-53 56t-85.5 44t-121.5 20q-123 0 -189.5 -48.5t-66.5 -115.5q0 -54 38.5 -90.5t100 -56t135.5 -35.5t148 -37t135.5 -51t100 -86.5t38.5 -135.5q0 -129 -103.5 -212.5t-295.5 -83.5q-79 0 -148 18t-115.5 47t-84.5 63.5
t-60 69.5t-37 64t-20 47z" />
    <glyph glyph-name="t" unicode="t" horiz-adv-x="727" 
d="M51 911v113h144v225h122v-225h338v-113h-338v-798h349v-113h-471v911h-144z" />
    <glyph glyph-name="u" unicode="u" horiz-adv-x="1208" 
d="M164 420v604h123v-604q0 -158 76.5 -243t209.5 -85q148 0 248.5 104.5t100.5 264.5v563h122v-1024h-122v174h-2q-17 -34 -45.5 -65.5t-72 -62t-108.5 -48.5t-141 -18q-172 0 -280.5 118.5t-108.5 321.5z" />
    <glyph glyph-name="v" unicode="v" horiz-adv-x="1075" 
d="M51 1024h133l246 -911h215l246 911h133l-287 -1024h-399z" />
    <glyph glyph-name="w" unicode="w" horiz-adv-x="1576" 
d="M72 1024h133l194 -911h72l184 911h267l184 -911h72l194 911h133l-225 -1024h-276l-185 911h-61l-185 -911h-276z" />
    <glyph glyph-name="x" unicode="x" horiz-adv-x="993" 
d="M20 0l308 522l-287 502h143l246 -440h133l246 440h143l-286 -502l307 -522h-144l-266 471h-133l-266 -471h-144z" />
    <glyph glyph-name="y" unicode="y" horiz-adv-x="1034" 
d="M51 1024h133l236 -911h194l267 911h133l-420 -1413h-133l123 389h-256z" />
    <glyph glyph-name="z" unicode="z" horiz-adv-x="962" 
d="M61 0v113l656 796v2h-635v113h799v-113l-656 -796v-2h676v-113h-840z" />
    <glyph glyph-name="braceleft" unicode="{" horiz-adv-x="696" 
d="M92 543v112h62q54 0 83 29.5t29 83.5v471q0 108 72.5 177t193.5 69h123v-123h-123q-61 0 -97 -34t-36 -89v-471q0 -40 -12.5 -71.5t-30.5 -48t-36.5 -27.5t-31.5 -14l-12 -3v-10q5 -1 13.5 -3t29.5 -13.5t37 -28t29.5 -48t13.5 -71.5v-481q0 -55 36 -89t97 -34h123v-123
h-123q-121 0 -193.5 69t-72.5 177v481q0 54 -29 83.5t-83 29.5h-62z" />
    <glyph glyph-name="bar" unicode="|" horiz-adv-x="624" 
d="M246 -205v1741h133v-1741h-133z" />
    <glyph glyph-name="braceright" unicode="}" horiz-adv-x="696" 
d="M41 -297v123h123q61 0 97 34t36 89v481q0 40 12.5 71.5t30.5 48t36.5 27.5t31.5 14l12 3v10q-5 1 -13.5 3t-29.5 13.5t-37 28t-29.5 48t-13.5 71.5v471q0 55 -36 89t-97 34h-123v123h123q121 0 193.5 -69t72.5 -177v-471q0 -54 29.5 -83.5t83.5 -29.5h61v-112h-61
q-54 0 -83.5 -29.5t-29.5 -83.5v-481q0 -108 -72.5 -177t-193.5 -69h-123z" />
    <glyph glyph-name="asciitilde" unicode="~" horiz-adv-x="1024" 
d="M92 502v41q0 114 62 179.5t163 65.5q59 0 116.5 -25.5t96 -56t84 -56t82.5 -25.5q54 0 83.5 31.5t29.5 91.5v40h123v-40q0 -114 -62 -180t-163 -66q-59 0 -116.5 25.5t-96 56.5t-84 56.5t-82.5 25.5q-54 0 -83.5 -31.5t-29.5 -91.5v-41h-123z" />
    <glyph glyph-name="nbspace" unicode="&#xa0;" horiz-adv-x="573" 
 />
    <glyph glyph-name="exclamdown" unicode="&#xa1;" horiz-adv-x="573" 
d="M184 942q0 46 28.5 74t74.5 28q45 0 73.5 -28.5t28.5 -73.5q0 -47 -28 -74.5t-74 -27.5t-74.5 28t-28.5 74zM225 -389v717l21 276h82l20 -276v-717h-123z" />
    <glyph glyph-name="cent" unicode="&#xa2;" horiz-adv-x="1167" 
d="M92 512q0 212 126 360t314 172v164h123v-164q69 -8 129.5 -32.5t102 -56.5t75.5 -69t54.5 -72t34 -64t19.5 -46l5 -18h-123q-3 10 -10.5 26.5t-37 59t-66 75t-102 59t-142.5 26.5q-157 0 -268 -119.5t-111 -300.5t111 -300.5t268 -119.5q80 0 147.5 27.5t107 66.5t67 78
t37.5 66l10 28h122q-2 -7 -5.5 -19t-19 -48t-35 -69.5t-55 -75t-77.5 -74t-104.5 -58.5t-133.5 -34v-185h-123v185q-188 24 -314 172t-126 360z" />
    <glyph glyph-name="sterling" unicode="&#xa3;" horiz-adv-x="1126" 
d="M61 0v123h31q78 0 121 46.5t43 137.5v400h-154v122h154v267q0 177 111 288t288 111q73 0 134.5 -18t101.5 -47t71.5 -64t48 -70t27.5 -64t14 -47l3 -18h-133q-1 4 -3 11.5t-10.5 29t-20.5 40.5t-33.5 43t-48 41t-66 28.5t-85.5 11.5q-124 0 -195 -73t-71 -203v-267h348
v-122h-348v-400q0 -40 -7.5 -72.5t-18 -50.5t-21 -30.5t-18.5 -16.5l-7 -4v-10h768v-123h-1024z" />
    <glyph glyph-name="currency" unicode="&#xa4;" horiz-adv-x="1361" 
d="M72 225v123h174v184h-174v123h174v779h522q233 0 372.5 -127.5t139.5 -323.5t-139.5 -323.5t-372.5 -127.5h-389v-184h522v-123h-522v-225h-133v225h-174zM379 655h389q181 0 280 89t99 239t-99 239t-280 89h-389v-656z" />
    <glyph glyph-name="yen" unicode="&#xa5;" horiz-adv-x="1300" 
d="M20 1434h164l461 -738h10l461 738h164l-553 -861h307v-122h-317v-144h317v-123h-317v-184h-133v184h-318v123h318v144h-318v122h307z" />
    <glyph glyph-name="brokenbar" unicode="&#xa6;" horiz-adv-x="624" 
d="M246 788v748h133v-748h-133zM246 -205v748h133v-748h-133z" />
    <glyph glyph-name="section" unicode="&#xa7;" horiz-adv-x="1146" 
d="M113 256h133q2 -7 7 -19.5t29 -44.5t56.5 -56t95 -44t139.5 -20q157 0 232.5 47.5t75.5 116.5q0 52 -42 89.5t-108.5 60.5t-147.5 43t-162 43.5t-147.5 54.5t-108.5 84.5t-42 125.5q0 82 60.5 146t154.5 90v2q-73 25 -128.5 87.5t-55.5 135.5q0 116 108 196.5t311 80.5
q77 0 144 -16t111.5 -41t80.5 -55.5t57 -61.5t34.5 -56t18.5 -41l5 -16h-133q-2 7 -7 19t-28.5 42t-55.5 52.5t-92.5 41.5t-134.5 19q-150 0 -223.5 -47.5t-73.5 -116.5q0 -52 41.5 -89.5t107 -60.5t145.5 -43t160 -44t145.5 -55t107 -84.5t41.5 -125.5q0 -82 -58.5 -146.5
t-146.5 -88.5v-2q74 -25 129.5 -87.5t55.5 -135.5q0 -116 -110.5 -196.5t-320.5 -80.5q-62 0 -118 10t-97 27.5t-77 39.5t-60 47t-44 49.5t-31.5 46.5t-19 39.5t-10.5 27.5zM246 737q0 -32 21 -59t51.5 -45t82 -36t94.5 -29t108 -27.5t104 -28.5q84 15 139 68.5t55 115.5
q0 28 -13.5 51t-40.5 41.5t-57.5 33t-76 28t-83 24t-91 24t-88.5 24.5q-90 -15 -147.5 -68.5t-57.5 -116.5z" />
    <glyph glyph-name="dieresis" unicode="&#xa8;" horiz-adv-x="655" 
d="M410 1331q0 38 27 65t65 27t65 -27t27 -65t-27 -65t-65 -27t-65 27t-27 65zM61 1331q0 38 27.5 65t65.5 27t65 -27t27 -65t-27 -65t-65 -27t-65.5 27t-27.5 65z" />
    <glyph glyph-name="copyright" unicode="&#xa9;" horiz-adv-x="1720" 
d="M102 717q0 159 58.5 299.5t159 241t241 159t299.5 58.5t299.5 -58.5t241 -159t159 -241t58.5 -299.5t-58.5 -299.5t-159 -241t-241 -159t-299.5 -58.5t-299.5 58.5t-241 159t-159 241t-58.5 299.5zM225 717q0 -136 49 -256t133.5 -205t202.5 -134.5t250 -49.5t250 49.5
t202.5 134.5t133.5 205t49 256t-49 256t-133.5 205t-202.5 134.5t-250 49.5t-250 -49.5t-202.5 -134.5t-133.5 -205t-49 -256zM512 717q0 167 101.5 273t256.5 106q74 0 137.5 -26.5t101 -64t64 -75t36.5 -64.5l10 -26h-134q-2 6 -6.5 15.5t-22 34t-39.5 43.5t-61.5 34.5
t-85.5 15.5q-102 0 -168.5 -72.5t-66.5 -193.5t66.5 -193.5t168.5 -72.5q46 0 85 14.5t62 35.5t39.5 42.5t22.5 36.5l6 14h134q-3 -10 -10.5 -27.5t-36 -61.5t-64.5 -78t-100 -61.5t-138 -27.5q-155 0 -256.5 106t-101.5 273z" />
    <glyph glyph-name="ordfeminine" unicode="&#xaa;" horiz-adv-x="778" 
d="M92 963q0 86 65.5 140t178.5 54h217v41q0 60 -41 101.5t-102 41.5q-37 0 -67.5 -9.5t-48 -23t-29 -27t-15.5 -23.5l-4 -9h-133q2 4 5 11.5t14.5 29t26 40.5t40 43t54 41t70 28.5t87.5 11.5q115 0 190.5 -74t75.5 -182v-430h-123v92h-10q-2 -4 -7.5 -11t-24 -24.5t-41 -31
t-61 -24.5t-81.5 -11q-105 0 -170.5 59t-65.5 146zM215 963q0 -41 33.5 -67t99.5 -26q83 0 144 57t61 128h-205q-66 0 -99.5 -25.5t-33.5 -66.5z" />
    <glyph glyph-name="guillemotleft" unicode="&#xab;" horiz-adv-x="1085" 
d="M481 512l420 481l82 -82l-348 -399l348 -399l-82 -82zM72 512l420 481l81 -82l-348 -399l348 -399l-81 -82z" />
    <glyph glyph-name="logicalnot" unicode="&#xac;" horiz-adv-x="1024" 
d="M123 584v112h768v-338h-123v226h-645z" />
    <glyph glyph-name="uni00AD" unicode="&#xad;" horiz-adv-x="983" 
d="M123 512v123h737v-123h-737z" />
    <glyph glyph-name="registered" unicode="&#xae;" 
d="M82 952q0 224 151.5 373.5t380.5 149.5t381 -150t152 -373t-151.5 -372.5t-381.5 -149.5q-229 0 -380.5 149.5t-151.5 372.5zM184 952q0 -185 119.5 -302.5t310.5 -117.5t310.5 117.5t119.5 302.5t-119.5 302.5t-310.5 117.5t-310.5 -117.5t-119.5 -302.5zM420 707v501
h225q97 0 151 -47.5t54 -126.5q0 -34 -11.5 -62.5t-28 -44.5t-33.5 -27t-29 -15l-11 -4l113 -174h-113l-102 153h-113v-153h-102zM522 963h123q52 0 77.5 19.5t25.5 51.5q0 33 -25.5 52.5t-77.5 19.5h-123v-143z" />
    <glyph glyph-name="macron" unicode="&#xaf;" horiz-adv-x="645" 
d="M61 1311v112h523v-112h-523z" />
    <glyph glyph-name="degree" unicode="&#xb0;" horiz-adv-x="675" 
d="M72 1178q0 106 79 181t187 75t187 -75t79 -181t-79 -181t-187 -75t-187 75t-79 181zM184 1178q0 -67 45.5 -110.5t108.5 -43.5t108.5 43.5t45.5 110.5t-45.5 110t-108.5 43t-108.5 -43t-45.5 -110z" />
    <glyph glyph-name="plusminus" unicode="&#xb1;" horiz-adv-x="1024" 
d="M113 61v113h338v348h-338v113h338v358h122v-358h338v-113h-338v-348h338v-113h-798z" />
    <glyph glyph-name="twosuperior" unicode="&#xb2;" horiz-adv-x="716" 
d="M72 942v113l174 102q146 85 206 145t60 121q0 56 -40 89.5t-114 33.5q-36 0 -66 -12.5t-47.5 -31t-29 -36.5t-15.5 -30l-5 -13h-123q1 5 3 13.5t11 33t21.5 47t35.5 49.5t51.5 46.5t71 33t92.5 13.5q127 0 202 -66.5t75 -169.5q0 -99 -89 -190t-259 -168l-11 -6l-10 -4
v-2l21 2h358v-113h-573z" />
    <glyph glyph-name="threesuperior" unicode="&#xb3;" horiz-adv-x="706" 
d="M61 1137h134q1 -4 4 -11t15.5 -25t28.5 -31.5t47 -24.5t68 -11q74 0 114 33.5t40 89.5q0 49 -41.5 81t-120.5 32h-145v102l215 154v2l-21 -2h-297v112h492v-112l-195 -140l-20 -12v-2h10q106 0 176 -65.5t70 -159.5q0 -96 -75 -160.5t-202 -64.5q-52 0 -96.5 12t-74.5 31
t-53.5 42t-36.5 45.5t-21.5 41.5t-11.5 31z" />
    <glyph glyph-name="acute" unicode="&#xb4;" horiz-adv-x="460" 
d="M61 1126l185 297h153v-2l-235 -295h-103z" />
    <glyph glyph-name="mu" unicode="&#xb5;" horiz-adv-x="1208" 
d="M164 -410v1434h123v-604q0 -160 80 -244t227 -84q134 0 231 105.5t97 263.5v563h122v-1024h-122v174h-2q-37 -75 -122.5 -134.5t-203.5 -59.5q-63 0 -118 14.5t-88 35.5t-57 42.5t-34 35.5l-10 15h-2l2 -21v-512h-123z" />
    <glyph glyph-name="paragraph" unicode="&#xb6;" horiz-adv-x="788" 
d="M61 1075q0 156 108.5 257.5t285.5 101.5h282v-123h-174v-1700h-133v1106q-157 0 -263 108t-106 250z" />
    <glyph glyph-name="periodcentered" unicode="&#xb7;" horiz-adv-x="573" 
d="M184 543q0 47 28.5 74.5t74.5 27.5t74 -28t28 -74t-28 -74.5t-74 -28.5q-45 0 -74 29t-29 74z" />
    <glyph glyph-name="cedilla" unicode="&#xb8;" horiz-adv-x="481" 
d="M61 -440v92q6 -5 17 -11.5t48.5 -18t78.5 -11.5q53 0 82.5 27.5t29.5 74.5q0 40 -31.5 66t-90.5 26h-72l102 215h92l-61 -133q70 -8 117 -57t47 -117q0 -86 -58.5 -140t-156.5 -54q-41 0 -77 10.5t-52 20.5z" />
    <glyph glyph-name="onesuperior" unicode="&#xb9;" horiz-adv-x="696" 
d="M113 942v113h204v450l-184 -112v133l195 112h112v-583h195v-113h-522z" />
    <glyph glyph-name="ordmasculine" unicode="&#xba;" horiz-adv-x="839" 
d="M72 1106q0 146 101 247t247 101t247 -101t101 -247t-101 -247t-247 -101t-247 101t-101 247zM195 1106q0 -107 62.5 -171.5t162.5 -64.5t162.5 64.5t62.5 171.5t-62.5 171t-162.5 64t-162.5 -64t-62.5 -171z" />
    <glyph glyph-name="guillemotright" unicode="&#xbb;" horiz-adv-x="1085" 
d="M512 113l348 399l-348 399l82 82l420 -481l-420 -481zM102 113l349 399l-349 399l82 82l420 -481l-420 -481z" />
    <glyph glyph-name="onequarter" unicode="&#xbc;" horiz-adv-x="1505" 
d="M113 737v113h204v450l-184 -112v133l195 113h112v-584h195v-113h-522zM328 0l880 1434h123l-880 -1434h-123zM891 154v112l276 430h133l-276 -430h225v144h123v-144h103v-112h-103v-154h-123v154h-358z" />
    <glyph glyph-name="onehalf" unicode="&#xbd;" horiz-adv-x="1617" 
d="M113 737v113h204v450l-184 -112v133l195 113h112v-584h195v-113h-522zM328 0l880 1434h123l-880 -1434h-123zM973 0v113l174 102q146 85 206 145t60 121q0 56 -39.5 89.5t-113.5 33.5q-36 0 -66 -12.5t-47.5 -31t-29.5 -36.5t-17 -30l-4 -13h-123q2 10 6 25.5t25 56.5
t49.5 72t83.5 56.5t123 25.5q127 0 201.5 -66.5t74.5 -169.5q0 -99 -89 -190t-259 -168l-10 -6l-11 -4v-2l21 2h358v-113h-573z" />
    <glyph glyph-name="threequarters" unicode="&#xbe;" horiz-adv-x="1495" 
d="M61 932h134q1 -4 4 -11t15.5 -25t28.5 -31.5t47 -24.5t68 -11q74 0 114 33.5t40 89.5q0 49 -41.5 81t-120.5 32h-145v102l215 154v2l-21 -2h-297v113h492v-113l-195 -139l-20 -13v-2h10q106 0 176 -65.5t70 -159.5q0 -96 -75 -160.5t-202 -64.5q-52 0 -96.5 12t-74.5 31
t-53.5 41.5t-36.5 45.5t-21.5 42t-11.5 31zM317 0l881 1434h123l-881 -1434h-123zM881 154v112l276 430h133l-276 -430h225v144h123v-144h102v-112h-102v-154h-123v154h-358z" />
    <glyph glyph-name="questiondown" unicode="&#xbf;" horiz-adv-x="1075" 
d="M461 942q0 46 28 74t74 28q45 0 74 -29t29 -73q0 -47 -28.5 -74.5t-74.5 -27.5t-74 28t-28 74zM61 -20q0 77 24.5 135t63 94t85.5 66t94.5 59t86 63.5t63 89.5t24.5 127h133q0 -85 -24.5 -150t-63 -104.5t-85.5 -71t-94 -59t-85.5 -58t-63 -79t-24.5 -112.5
q0 -119 88.5 -198t238.5 -79q65 0 120.5 16t93.5 41t68 55.5t47.5 61.5t29.5 56t16 41l4 16h133q-2 -9 -5.5 -23.5t-20.5 -57t-39.5 -81.5t-64.5 -86t-92.5 -81t-126 -57.5t-163.5 -23.5q-202 0 -331.5 117t-129.5 283z" />
    <glyph glyph-name="Agrave" unicode="&#xc0;" horiz-adv-x="1372" 
d="M51 0l379 1434h512l379 -1434h-133l-123 471h-758l-123 -471h-133zM338 594h696l-194 717h-308zM399 1913v2h154l184 -297h-102z" />
    <glyph glyph-name="Aacute" unicode="&#xc1;" horiz-adv-x="1372" 
d="M51 0l379 1434h512l379 -1434h-133l-123 471h-758l-123 -471h-133zM338 594h696l-194 717h-308zM625 1618l184 297h154v-2l-236 -295h-102z" />
    <glyph glyph-name="Acircumflex" unicode="&#xc2;" horiz-adv-x="1372" 
d="M51 0l379 1434h512l379 -1434h-133l-123 471h-758l-123 -471h-133zM338 594h696l-194 717h-308zM389 1618v2l225 295h134l225 -295v-2h-123l-154 205h-30l-154 -205h-123z" />
    <glyph glyph-name="Atilde" unicode="&#xc3;" horiz-adv-x="1372" 
d="M51 0l379 1434h512l379 -1434h-133l-123 471h-758l-123 -471h-133zM338 594h696l-194 717h-308zM379 1638v54q0 75 49 123.5t125 48.5q45 0 86 -21t66.5 -45.5t56 -45.5t57.5 -21q31 0 51.5 20t20.5 51v51h102v-53q0 -75 -49 -123.5t-125 -48.5q-45 0 -86 21t-66.5 45.5
t-56 45.5t-57.5 21q-31 0 -51.5 -20t-20.5 -51v-52h-102z" />
    <glyph glyph-name="Adieresis" unicode="&#xc4;" horiz-adv-x="1372" 
d="M51 0l379 1434h512l379 -1434h-133l-123 471h-758l-123 -471h-133zM338 594h696l-194 717h-308zM768 1741q0 38 27 65t65 27t65 -27t27 -65t-27 -65t-65 -27t-65 27t-27 65zM420 1741q0 38 27 65t65 27t65 -27t27 -65t-27 -65t-65 -27t-65 27t-27 65z" />
    <glyph glyph-name="Aring" unicode="&#xc5;" horiz-adv-x="1372" 
d="M51 0l379 1434h512l379 -1434h-133l-123 471h-758l-123 -471h-133zM338 594h696l-194 717h-308zM481 1761q0 85 60 145t145 60t145 -60t60 -145t-60 -145t-145 -60t-145 60t-60 145zM573 1761q0 -46 33.5 -79t79.5 -33t79.5 33t33.5 79t-33.5 79.5t-79.5 33.5
t-79.5 -33.5t-33.5 -79.5z" />
    <glyph glyph-name="AE" unicode="&#xc6;" horiz-adv-x="1976" 
d="M51 0l379 1434h1454v-123h-799v-523h646v-122h-646v-543h799v-123h-932v471h-645l-123 -471h-133zM338 594h614v717h-420z" />
    <glyph glyph-name="Ccedilla" unicode="&#xc7;" horiz-adv-x="1638" 
d="M102 717q0 162 56.5 303.5t154.5 241t235 156.5t292 57q90 0 172 -17.5t143.5 -47t115 -68t91.5 -81t69 -85t50 -81t32 -68t18 -47.5l5 -17h-133q-3 8 -8 22t-26.5 54.5t-48.5 77t-74 81.5t-102 77.5t-134.5 54.5t-169.5 22q-129 0 -241 -46.5t-192 -128.5t-125.5 -201
t-45.5 -259t45.5 -259t125.5 -201t192 -128.5t241 -46.5q92 0 173.5 23t138 60t103 82t75 90t48.5 82t28 60l7 23h133q-3 -11 -9 -30t-31.5 -74.5t-57.5 -106t-89.5 -112.5t-124 -107t-165 -77.5t-209.5 -35.5l-31 -72q70 -8 117 -57t47 -117q0 -86 -58.5 -140t-156.5 -54
q-41 0 -76.5 10.5t-51.5 20.5l-15 10v92q6 -5 17 -11.5t48 -18t78 -11.5q53 0 83 28t30 74q0 40 -32 66t-91 26h-72l74 158q-291 25 -479.5 235t-188.5 519z" />
    <glyph glyph-name="Egrave" unicode="&#xc8;" horiz-adv-x="1249" 
d="M184 0v1434h973v-123h-840v-523h687v-122h-687v-543h840v-123h-973zM420 1913v2h153l185 -297h-103z" />
    <glyph glyph-name="Eacute" unicode="&#xc9;" horiz-adv-x="1249" 
d="M184 0v1434h973v-123h-840v-523h687v-122h-687v-543h840v-123h-973zM604 1618l184 297h154v-2l-235 -295h-103z" />
    <glyph glyph-name="Ecircumflex" unicode="&#xca;" horiz-adv-x="1249" 
d="M184 0v1434h973v-123h-840v-523h687v-122h-687v-543h840v-123h-973zM389 1618v2l225 295h134l225 -295v-2h-123l-154 205h-30l-154 -205h-123z" />
    <glyph glyph-name="Edieresis" unicode="&#xcb;" horiz-adv-x="1249" 
d="M184 0v1434h973v-123h-840v-523h687v-122h-687v-543h840v-123h-973zM758 1741q0 38 27 65t65 27t65 -27t27 -65t-27 -65t-65 -27t-65 27t-27 65zM410 1741q0 38 27 65t65 27t65 -27t27 -65t-27 -65t-65 -27t-65 27t-27 65z" />
    <glyph glyph-name="Igrave" unicode="&#xcc;" horiz-adv-x="501" 
d="M184 0v1434h133v-1434h-133zM-31 1913v2h154l184 -297h-102z" />
    <glyph glyph-name="Iacute" unicode="&#xcd;" horiz-adv-x="501" 
d="M184 0v1434h133v-1434h-133zM205 1618l184 297h154v-2l-236 -295h-102z" />
    <glyph glyph-name="Icircumflex" unicode="&#xce;" horiz-adv-x="501" 
d="M184 0v1434h133v-1434h-133zM-41 1618v2l225 295h133l226 -295v-2h-123l-154 205h-30l-154 -205h-123z" />
    <glyph glyph-name="Idieresis" unicode="&#xcf;" horiz-adv-x="501" 
d="M184 0v1434h133v-1434h-133zM338 1741q0 38 27 65t65 27t65 -27t27 -65t-27 -65t-65 -27t-65 27t-27 65zM-10 1741q0 38 27 65t65 27t65 -27t27 -65t-27 -65t-65 -27t-65 27t-27 65z" />
    <glyph glyph-name="Eth" unicode="&#xd0;" horiz-adv-x="1495" 
d="M51 645v133h154v656h450q212 0 381 -93.5t263 -257t94 -366.5t-94 -366.5t-263 -257t-381 -93.5h-450v645h-154zM338 123h317q268 0 436.5 166t168.5 428t-168.5 428t-436.5 166h-317v-533h379v-133h-379v-522z" />
    <glyph glyph-name="Ntilde" unicode="&#xd1;" horiz-adv-x="1484" 
d="M184 0v1434h205l778 -1301h2l-2 21v1280h133v-1434h-204l-779 1300h-2l2 -20v-1280h-133zM451 1638v54q0 75 49 123.5t125 48.5q45 0 86 -21t66.5 -45.5t56 -45.5t57.5 -21q31 0 51.5 20t20.5 51v51h102v-53q0 -75 -49 -123.5t-125 -48.5q-45 0 -86 21t-66.5 45.5
t-56 45.5t-57.5 21q-31 0 -51.5 -20t-20.5 -51v-52h-102z" />
    <glyph glyph-name="Ograve" unicode="&#xd2;" horiz-adv-x="1679" 
d="M102 717q0 162 56.5 303.5t154.5 241t235 156.5t292 57t292 -57t234.5 -156.5t154 -241t56.5 -303.5t-56.5 -303.5t-154 -241t-234.5 -156.5t-292 -57t-292 57t-235 156.5t-154.5 241t-56.5 303.5zM236 717q0 -140 45.5 -259t125.5 -201t192 -128.5t241 -46.5t241 46.5
t192 128.5t125.5 201t45.5 259t-45.5 259t-125.5 201t-192 128.5t-241 46.5t-241 -46.5t-192 -128.5t-125.5 -201t-45.5 -259zM563 1913v2h154l184 -297h-102z" />
    <glyph glyph-name="Oacute" unicode="&#xd3;" horiz-adv-x="1679" 
d="M102 717q0 162 56.5 303.5t154.5 241t235 156.5t292 57t292 -57t234.5 -156.5t154 -241t56.5 -303.5t-56.5 -303.5t-154 -241t-234.5 -156.5t-292 -57t-292 57t-235 156.5t-154.5 241t-56.5 303.5zM236 717q0 -140 45.5 -259t125.5 -201t192 -128.5t241 -46.5t241 46.5
t192 128.5t125.5 201t45.5 259t-45.5 259t-125.5 201t-192 128.5t-241 46.5t-241 -46.5t-192 -128.5t-125.5 -201t-45.5 -259zM778 1618l185 297h153v-2l-235 -295h-103z" />
    <glyph glyph-name="Ocircumflex" unicode="&#xd4;" horiz-adv-x="1679" 
d="M102 717q0 162 56.5 303.5t154.5 241t235 156.5t292 57t292 -57t234.5 -156.5t154 -241t56.5 -303.5t-56.5 -303.5t-154 -241t-234.5 -156.5t-292 -57t-292 57t-235 156.5t-154.5 241t-56.5 303.5zM236 717q0 -140 45.5 -259t125.5 -201t192 -128.5t241 -46.5t241 46.5
t192 128.5t125.5 201t45.5 259t-45.5 259t-125.5 201t-192 128.5t-241 46.5t-241 -46.5t-192 -128.5t-125.5 -201t-45.5 -259zM553 1618v2l225 295h133l226 -295v-2h-123l-154 205h-31l-153 -205h-123z" />
    <glyph glyph-name="Otilde" unicode="&#xd5;" horiz-adv-x="1679" 
d="M102 717q0 162 56.5 303.5t154.5 241t235 156.5t292 57t292 -57t234.5 -156.5t154 -241t56.5 -303.5t-56.5 -303.5t-154 -241t-234.5 -156.5t-292 -57t-292 57t-235 156.5t-154.5 241t-56.5 303.5zM236 717q0 -140 45.5 -259t125.5 -201t192 -128.5t241 -46.5t241 46.5
t192 128.5t125.5 201t45.5 259t-45.5 259t-125.5 201t-192 128.5t-241 46.5t-241 -46.5t-192 -128.5t-125.5 -201t-45.5 -259zM543 1638v54q0 75 49 123.5t125 48.5q45 0 86 -21t66.5 -45.5t56 -45.5t57.5 -21q31 0 51.5 20t20.5 51v51h102v-53q0 -75 -49 -123.5t-125 -48.5
q-45 0 -86 21t-66.5 45.5t-56 45.5t-57.5 21q-31 0 -51.5 -20t-20.5 -51v-52h-102z" />
    <glyph glyph-name="Odieresis" unicode="&#xd6;" horiz-adv-x="1679" 
d="M102 717q0 162 56.5 303.5t154.5 241t235 156.5t292 57t292 -57t234.5 -156.5t154 -241t56.5 -303.5t-56.5 -303.5t-154 -241t-234.5 -156.5t-292 -57t-292 57t-235 156.5t-154.5 241t-56.5 303.5zM236 717q0 -140 45.5 -259t125.5 -201t192 -128.5t241 -46.5t241 46.5
t192 128.5t125.5 201t45.5 259t-45.5 259t-125.5 201t-192 128.5t-241 46.5t-241 -46.5t-192 -128.5t-125.5 -201t-45.5 -259zM922 1741q0 38 27 65t65 27t65 -27t27 -65t-27 -65t-65 -27t-65 27t-27 65zM573 1741q0 38 27.5 65t65.5 27t65 -27t27 -65t-27 -65t-65 -27
t-65.5 27t-27.5 65z" />
    <glyph glyph-name="multiply" unicode="&#xd7;" horiz-adv-x="1024" 
d="M164 338l266 266l-266 266l82 82l266 -266l266 266l82 -82l-266 -266l266 -266l-82 -82l-266 266l-266 -266z" />
    <glyph glyph-name="Oslash" unicode="&#xd8;" horiz-adv-x="1679" 
d="M51 -10v153l172 142q-121 193 -121 432q0 162 56.5 303.5t154.5 241t235 156.5t292 57q161 0 300.5 -61.5t241.5 -172.5l246 203v-154l-174 -143q123 -188 123 -430q0 -162 -56.5 -303.5t-154 -241t-234.5 -156.5t-292 -57q-162 0 -303 60.5t-242 170.5zM236 717
q0 -199 88 -350l962 794q-83 92 -197.5 141.5t-248.5 49.5q-129 0 -241 -46.5t-192 -128.5t-125.5 -201t-45.5 -259zM393 272q82 -92 197 -141t250 -49q129 0 241 46.5t192 128.5t125.5 201t45.5 259q0 194 -88 348z" />
    <glyph glyph-name="Ugrave" unicode="&#xd9;" horiz-adv-x="1454" 
d="M174 532v902h133v-902q0 -213 113 -331.5t307 -118.5t307 118.5t113 331.5v902h133v-902q0 -260 -153 -416.5t-400 -156.5t-400 156.5t-153 416.5zM451 1913v2h153l184 -297h-102z" />
    <glyph glyph-name="Uacute" unicode="&#xda;" horiz-adv-x="1454" 
d="M174 532v902h133v-902q0 -213 113 -331.5t307 -118.5t307 118.5t113 331.5v902h133v-902q0 -260 -153 -416.5t-400 -156.5t-400 156.5t-153 416.5zM666 1618l184 297h154v-2l-236 -295h-102z" />
    <glyph glyph-name="Ucircumflex" unicode="&#xdb;" horiz-adv-x="1454" 
d="M174 532v902h133v-902q0 -213 113 -331.5t307 -118.5t307 118.5t113 331.5v902h133v-902q0 -260 -153 -416.5t-400 -156.5t-400 156.5t-153 416.5zM430 1618v2l225 295h133l226 -295v-2h-123l-154 205h-30l-154 -205h-123z" />
    <glyph glyph-name="Udieresis" unicode="&#xdc;" horiz-adv-x="1454" 
d="M174 532v902h133v-902q0 -213 113 -331.5t307 -118.5t307 118.5t113 331.5v902h133v-902q0 -260 -153 -416.5t-400 -156.5t-400 156.5t-153 416.5zM809 1741q0 38 27 65t65 27t65 -27t27 -65t-27 -65t-65 -27t-65 27t-27 65zM461 1741q0 38 27 65t65 27t65 -27t27 -65
t-27 -65t-65 -27t-65 27t-27 65z" />
    <glyph glyph-name="Yacute" unicode="&#xdd;" horiz-adv-x="1300" 
d="M20 1434h164l461 -758h10l461 758h164l-563 -912v-522h-133v522zM594 1618l184 297h154v-2l-236 -295h-102z" />
    <glyph glyph-name="Thorn" unicode="&#xde;" horiz-adv-x="1433" 
d="M184 0v1434h133v-287h553q225 0 358.5 -119t133.5 -301t-133.5 -301t-358.5 -119h-553v-307h-133zM317 430h553q172 0 265.5 81.5t93.5 215.5t-93.5 215.5t-265.5 81.5h-553v-594z" />
    <glyph glyph-name="germandbls" unicode="&#xdf;" horiz-adv-x="1167" 
d="M164 0v1085q0 156 112 262.5t287 106.5q174 0 287 -104.5t113 -253.5q0 -69 -21 -126t-51 -89t-60.5 -54.5t-51.5 -30.5l-21 -8v-10q7 -1 18 -3t44 -12.5t63 -25.5t66.5 -44.5t63 -66t44.5 -93t18 -123.5q0 -178 -119.5 -294t-310.5 -116h-123v113h123q137 0 222 83
t85 214q0 126 -89.5 211.5t-227.5 85.5h-111v112q142 0 229 79.5t87 197.5q0 102 -78 173.5t-199 71.5q-122 0 -199 -75t-77 -191v-1075h-123z" />
    <glyph glyph-name="agrave" unicode="&#xe0;" horiz-adv-x="1259" 
d="M92 512q0 113 39.5 212.5t106.5 169t157 110t189 40.5q76 0 144.5 -22t115.5 -56.5t78.5 -72t48.5 -74.5h2v205h123v-1024h-123v205h-2q-17 -37 -48.5 -74.5t-78.5 -72t-115.5 -56.5t-144.5 -22q-99 0 -189 40.5t-157 110t-106.5 169t-39.5 212.5zM215 512
q0 -181 111 -300.5t268 -119.5q151 0 265 120.5t114 299.5t-114 299.5t-265 120.5q-157 0 -268 -119.5t-111 -300.5zM317 1524v2h154l184 -297h-102z" />
    <glyph glyph-name="aacute" unicode="&#xe1;" horiz-adv-x="1259" 
d="M92 512q0 113 39.5 212.5t106.5 169t157 110t189 40.5q76 0 144.5 -22t115.5 -56.5t78.5 -72t48.5 -74.5h2v205h123v-1024h-123v205h-2q-17 -37 -48.5 -74.5t-78.5 -72t-115.5 -56.5t-144.5 -22q-99 0 -189 40.5t-157 110t-106.5 169t-39.5 212.5zM215 512
q0 -181 111 -300.5t268 -119.5q151 0 265 120.5t114 299.5t-114 299.5t-265 120.5q-157 0 -268 -119.5t-111 -300.5zM502 1229l184 297h154v-2l-236 -295h-102z" />
    <glyph glyph-name="acircumflex" unicode="&#xe2;" horiz-adv-x="1259" 
d="M92 512q0 113 39.5 212.5t106.5 169t157 110t189 40.5q76 0 144.5 -22t115.5 -56.5t78.5 -72t48.5 -74.5h2v205h123v-1024h-123v205h-2q-17 -37 -48.5 -74.5t-78.5 -72t-115.5 -56.5t-144.5 -22q-99 0 -189 40.5t-157 110t-106.5 169t-39.5 212.5zM215 512
q0 -181 111 -300.5t268 -119.5q151 0 265 120.5t114 299.5t-114 299.5t-265 120.5q-157 0 -268 -119.5t-111 -300.5zM307 1229v2l225 295h134l225 -295v-2h-123l-154 205h-30l-154 -205h-123z" />
    <glyph glyph-name="atilde" unicode="&#xe3;" horiz-adv-x="1259" 
d="M92 512q0 113 39.5 212.5t106.5 169t157 110t189 40.5q76 0 144.5 -22t115.5 -56.5t78.5 -72t48.5 -74.5h2v205h123v-1024h-123v205h-2q-17 -37 -48.5 -74.5t-78.5 -72t-115.5 -56.5t-144.5 -22q-99 0 -189 40.5t-157 110t-106.5 169t-39.5 212.5zM215 512
q0 -181 111 -300.5t268 -119.5q151 0 265 120.5t114 299.5t-114 299.5t-265 120.5q-157 0 -268 -119.5t-111 -300.5zM297 1239v53q0 75 49 123.5t125 48.5q45 0 86 -21t66.5 -45.5t56 -45.5t57.5 -21q31 0 51.5 20.5t20.5 51.5v51h102v-53q0 -75 -49 -123.5t-125 -48.5
q-45 0 -86 21t-66.5 45.5t-56 45.5t-57.5 21q-31 0 -51.5 -20.5t-20.5 -51.5v-51h-102z" />
    <glyph glyph-name="adieresis" unicode="&#xe4;" horiz-adv-x="1259" 
d="M92 512q0 113 39.5 212.5t106.5 169t157 110t189 40.5q76 0 144.5 -22t115.5 -56.5t78.5 -72t48.5 -74.5h2v205h123v-1024h-123v205h-2q-17 -37 -48.5 -74.5t-78.5 -72t-115.5 -56.5t-144.5 -22q-99 0 -189 40.5t-157 110t-106.5 169t-39.5 212.5zM215 512
q0 -181 111 -300.5t268 -119.5q151 0 265 120.5t114 299.5t-114 299.5t-265 120.5q-157 0 -268 -119.5t-111 -300.5zM676 1352q0 38 27 65t65 27t65 -27t27 -65t-27 -65t-65 -27t-65 27t-27 65zM328 1352q0 38 27 65t65 27t65 -27t27 -65t-27 -65t-65 -27t-65 27t-27 65z
" />
    <glyph glyph-name="aring" unicode="&#xe5;" horiz-adv-x="1259" 
d="M92 512q0 113 39.5 212.5t106.5 169t157 110t189 40.5q76 0 144.5 -22t115.5 -56.5t78.5 -72t48.5 -74.5h2v205h123v-1024h-123v205h-2q-17 -37 -48.5 -74.5t-78.5 -72t-115.5 -56.5t-144.5 -22q-99 0 -189 40.5t-157 110t-106.5 169t-39.5 212.5zM215 512
q0 -181 111 -300.5t268 -119.5q151 0 265 120.5t114 299.5t-114 299.5t-265 120.5q-157 0 -268 -119.5t-111 -300.5zM389 1403q0 85 60 145t145 60t145 -60t60 -145t-60 -145t-145 -60t-145 60t-60 145zM481 1403q0 -46 33.5 -79.5t79.5 -33.5t79.5 33.5t33.5 79.5
t-33.5 79.5t-79.5 33.5t-79.5 -33.5t-33.5 -79.5z" />
    <glyph glyph-name="ae" unicode="&#xe6;" horiz-adv-x="1976" 
d="M123 287q0 136 101.5 221.5t287.5 85.5h369v68q0 126 -73.5 198t-203.5 72q-72 0 -131 -22t-92 -54t-55.5 -63.5t-30.5 -53.5l-8 -22h-123q1 7 4.5 18.5t18 45.5t34 65t55.5 69t79.5 65t108.5 45.5t140 18.5q56 0 106.5 -12t85.5 -31t65 -42t48 -45.5t31 -41.5t18 -31
l5 -12h10q5 9 15 23.5t46.5 51.5t79.5 65.5t115.5 51.5t152.5 23q216 0 359 -145t143 -367v-51h-880q7 -168 115.5 -278.5t262.5 -110.5q74 0 138.5 23t103.5 56t67 66.5t39 56.5l11 23h123q-2 -7 -7 -19t-24 -47t-42.5 -67t-64 -71t-87.5 -67t-114.5 -47t-142.5 -19
q-65 0 -123.5 14.5t-100.5 38t-78 52t-59 57t-39 52t-23 38.5l-7 14h-10q-3 -6 -8 -15.5t-24.5 -37t-42.5 -52.5t-62.5 -56t-84 -53t-107.5 -37t-132 -15q-165 0 -261.5 86.5t-96.5 220.5zM1004 594h747q-15 148 -116 243t-253 95q-151 0 -252.5 -94t-125.5 -244zM246 287
q0 -88 65 -141.5t191 -53.5q166 0 272.5 112.5t106.5 276.5h-369q-133 0 -199.5 -52.5t-66.5 -141.5z" />
    <glyph glyph-name="ccedilla" unicode="&#xe7;" horiz-adv-x="1167" 
d="M92 512q0 113 40 212.5t107.5 169t160 110t194.5 40.5q79 0 148.5 -19.5t117 -51.5t86.5 -70t62.5 -76t39 -70t21.5 -51l6 -20h-123q-3 10 -10.5 26.5t-37 59t-66 75t-102 59t-142.5 26.5q-157 0 -268 -119.5t-111 -300.5t111 -300.5t268 -119.5q80 0 147.5 27.5
t107 66.5t67 78t37.5 66l10 28h122q-2 -7 -6 -20t-20 -50.5t-37 -72t-59 -77.5t-83 -74.5t-111 -54.5t-142 -27l-43 -95q70 -8 117 -57t47 -117q0 -86 -59 -140t-157 -54q-41 0 -76.5 10.5t-51.5 20.5l-15 10v92q6 -5 17 -11.5t48 -18t78 -11.5q53 0 83 28t30 74
q0 40 -32 66t-91 26h-71l84 179q-189 22 -316 169t-127 359z" />
    <glyph glyph-name="egrave" unicode="&#xe8;" horiz-adv-x="1208" 
d="M92 512q0 151 68 273t185 190.5t259 68.5t259 -68t185 -188t68 -266v-51h-901q8 -162 118.5 -270.5t270.5 -108.5q77 0 143.5 23t106 56t68.5 66.5t40 56.5l11 23h123q-2 -7 -7 -19t-24.5 -47t-43 -67t-65 -71t-89 -67t-117 -47t-146.5 -19q-142 0 -259 68.5t-185 190.5
t-68 273zM215 584h768q-15 149 -121 248.5t-258 99.5q-151 0 -258 -99t-131 -249zM328 1524v2h153l185 -297h-103z" />
    <glyph glyph-name="eacute" unicode="&#xe9;" horiz-adv-x="1208" 
d="M92 512q0 151 68 273t185 190.5t259 68.5t259 -68t185 -188t68 -266v-51h-901q8 -162 118.5 -270.5t270.5 -108.5q77 0 143.5 23t106 56t68.5 66.5t40 56.5l11 23h123q-2 -7 -7 -19t-24.5 -47t-43 -67t-65 -71t-89 -67t-117 -47t-146.5 -19q-142 0 -259 68.5t-185 190.5
t-68 273zM215 584h768q-15 149 -121 248.5t-258 99.5q-151 0 -258 -99t-131 -249zM553 1229l184 297h154v-2l-236 -295h-102z" />
    <glyph glyph-name="ecircumflex" unicode="&#xea;" horiz-adv-x="1208" 
d="M92 512q0 151 68 273t185 190.5t259 68.5t259 -68t185 -188t68 -266v-51h-901q8 -162 118.5 -270.5t270.5 -108.5q77 0 143.5 23t106 56t68.5 66.5t40 56.5l11 23h123q-2 -7 -7 -19t-24.5 -47t-43 -67t-65 -71t-89 -67t-117 -47t-146.5 -19q-142 0 -259 68.5t-185 190.5
t-68 273zM215 584h768q-15 149 -121 248.5t-258 99.5q-151 0 -258 -99t-131 -249zM307 1229v2l225 295h134l225 -295v-2h-123l-154 205h-30l-154 -205h-123z" />
    <glyph glyph-name="edieresis" unicode="&#xeb;" horiz-adv-x="1208" 
d="M92 512q0 151 68 273t185 190.5t259 68.5t259 -68t185 -188t68 -266v-51h-901q8 -162 118.5 -270.5t270.5 -108.5q77 0 143.5 23t106 56t68.5 66.5t40 56.5l11 23h123q-2 -7 -7 -19t-24.5 -47t-43 -67t-65 -71t-89 -67t-117 -47t-146.5 -19q-142 0 -259 68.5t-185 190.5
t-68 273zM215 584h768q-15 149 -121 248.5t-258 99.5q-151 0 -258 -99t-131 -249zM676 1352q0 38 27 65t65 27t65 -27t27 -65t-27 -65t-65 -27t-65 27t-27 65zM328 1352q0 38 27 65t65 27t65 -27t27 -65t-27 -65t-65 -27t-65 27t-27 65z" />
    <glyph glyph-name="igrave" unicode="&#xec;" horiz-adv-x="450" 
d="M164 0v1024h123v-1024h-123zM-61 1524v2h153l184 -297h-102z" />
    <glyph glyph-name="iacute" unicode="&#xed;" horiz-adv-x="450" 
d="M164 0v1024h123v-1024h-123zM174 1229l184 297h154v-2l-236 -295h-102z" />
    <glyph glyph-name="icircumflex" unicode="&#xee;" horiz-adv-x="450" 
d="M164 0v1024h123v-1024h-123zM-72 1217v2l226 294h133l225 -294v-2h-123l-153 204h-31l-154 -204h-123z" />
    <glyph glyph-name="idieresis" unicode="&#xef;" horiz-adv-x="450" 
d="M164 0v1024h123v-1024h-123zM307 1352q0 38 27 65t65 27t65.5 -27t27.5 -65t-27.5 -65t-65.5 -27t-65 27t-27 65zM-41 1352q0 38 27 65t65 27t65 -27t27 -65t-27 -65t-65 -27t-65 27t-27 65z" />
    <glyph glyph-name="eth" unicode="&#xf0;" horiz-adv-x="1177" 
d="M92 461q0 207 137 344t344 137q74 0 139.5 -19t105.5 -46t69 -54t41 -46l12 -19h2q-28 113 -104 212t-201 216l-2 2l-246 -164v113l184 123q-102 98 -194 174h145q102 -85 131 -113l267 174v-113l-195 -133q88 -88 143 -155.5t106 -159t75 -200t24 -242.5
q0 -229 -137 -370.5t-354 -141.5q-214 0 -353 136.5t-139 344.5zM215 461q0 -161 104 -265t265 -104t264.5 104t103.5 265q0 160 -103 264t-265 104q-161 0 -265 -103.5t-104 -264.5z" />
    <glyph glyph-name="ntilde" unicode="&#xf1;" horiz-adv-x="1187" 
d="M164 0v1024h123v-174h2q17 34 45 65.5t71.5 62t108.5 48.5t141 18q172 0 280.5 -118.5t108.5 -321.5v-604h-122v604q0 158 -77 243t-210 85q-148 0 -248 -104.5t-100 -264.5v-563h-123zM287 1239v53q0 75 49 123.5t125 48.5q45 0 86 -21t66.5 -45.5t56 -45.5t57.5 -21
q31 0 51.5 20.5t20.5 51.5v51h102v-53q0 -75 -49 -123.5t-125 -48.5q-45 0 -86 21t-66.5 45.5t-56 45.5t-57.5 21q-31 0 -51.5 -20.5t-20.5 -51.5v-51h-102z" />
    <glyph glyph-name="ograve" unicode="&#xf2;" 
d="M92 512q0 229 149.5 380.5t372.5 151.5q224 0 373.5 -151.5t149.5 -380.5t-149.5 -380.5t-373.5 -151.5q-223 0 -372.5 151.5t-149.5 380.5zM215 512q0 -183 114.5 -301.5t284.5 -118.5t285 118.5t115 301.5t-115 301.5t-285 118.5t-284.5 -118.5t-114.5 -301.5z
M338 1524v2h154l184 -297h-103z" />
    <glyph glyph-name="oacute" unicode="&#xf3;" 
d="M92 512q0 229 149.5 380.5t372.5 151.5q224 0 373.5 -151.5t149.5 -380.5t-149.5 -380.5t-373.5 -151.5q-223 0 -372.5 151.5t-149.5 380.5zM215 512q0 -183 114.5 -301.5t284.5 -118.5t285 118.5t115 301.5t-115 301.5t-285 118.5t-284.5 -118.5t-114.5 -301.5z
M553 1229l184 297h154v-2l-236 -295h-102z" />
    <glyph glyph-name="ocircumflex" unicode="&#xf4;" 
d="M92 512q0 229 149.5 380.5t372.5 151.5q224 0 373.5 -151.5t149.5 -380.5t-149.5 -380.5t-373.5 -151.5q-223 0 -372.5 151.5t-149.5 380.5zM215 512q0 -183 114.5 -301.5t284.5 -118.5t285 118.5t115 301.5t-115 301.5t-285 118.5t-284.5 -118.5t-114.5 -301.5z
M317 1229v2l226 295h133l225 -295v-2h-123l-153 205h-31l-154 -205h-123z" />
    <glyph glyph-name="otilde" unicode="&#xf5;" 
d="M92 512q0 229 149.5 380.5t372.5 151.5q224 0 373.5 -151.5t149.5 -380.5t-149.5 -380.5t-373.5 -151.5q-223 0 -372.5 151.5t-149.5 380.5zM215 512q0 -183 114.5 -301.5t284.5 -118.5t285 118.5t115 301.5t-115 301.5t-285 118.5t-284.5 -118.5t-114.5 -301.5z
M307 1239v53q0 75 49 123.5t125 48.5q45 0 86 -21t66.5 -45.5t56.5 -45.5t58 -21q31 0 51 20.5t20 51.5v51h103v-53q0 -75 -49 -123.5t-125 -48.5q-45 0 -86 21t-66.5 45.5t-56.5 45.5t-58 21q-31 0 -51 -20.5t-20 -51.5v-51h-103z" />
    <glyph glyph-name="odieresis" unicode="&#xf6;" 
d="M92 512q0 229 149.5 380.5t372.5 151.5q224 0 373.5 -151.5t149.5 -380.5t-149.5 -380.5t-373.5 -151.5q-223 0 -372.5 151.5t-149.5 380.5zM215 512q0 -183 114.5 -301.5t284.5 -118.5t285 118.5t115 301.5t-115 301.5t-285 118.5t-284.5 -118.5t-114.5 -301.5z
M696 1352q0 38 27 65t65 27t65.5 -27t27.5 -65t-27.5 -65t-65.5 -27t-65 27t-27 65zM348 1352q0 38 27 65t65 27t65 -27t27 -65t-27 -65t-65 -27t-65 27t-27 65z" />
    <glyph glyph-name="divide" unicode="&#xf7;" horiz-adv-x="1024" 
d="M410 911q0 40 29 71.5t73 31.5t73 -31.5t29 -71.5t-29 -71t-73 -31t-73 31t-29 71zM123 492v122h778v-122h-778zM410 195q0 40 29 71t73 31t73 -31t29 -71t-29 -71.5t-73 -31.5t-73 31.5t-29 71.5z" />
    <glyph glyph-name="oslash" unicode="&#xf8;" 
d="M82 -10v153l90 76q-80 129 -80 293q0 229 149.5 380.5t372.5 151.5q107 0 202 -38.5t167 -108.5l164 137v-153l-90 -76q80 -132 80 -293q0 -229 -149.5 -380.5t-373.5 -151.5q-221 0 -368 147zM215 512q0 -121 51 -215l625 524q-111 111 -277 111q-170 0 -284.5 -118.5
t-114.5 -301.5zM336 203q114 -111 278 -111q170 0 285 118.5t115 301.5q0 119 -51 213z" />
    <glyph glyph-name="ugrave" unicode="&#xf9;" horiz-adv-x="1208" 
d="M164 420v604h123v-604q0 -158 76.5 -243t209.5 -85q148 0 248.5 104.5t100.5 264.5v563h122v-1024h-122v174h-2q-17 -34 -45.5 -65.5t-72 -62t-108.5 -48.5t-141 -18q-172 0 -280.5 118.5t-108.5 321.5zM338 1524v2h154l184 -297h-103z" />
    <glyph glyph-name="uacute" unicode="&#xfa;" horiz-adv-x="1208" 
d="M164 420v604h123v-604q0 -158 76.5 -243t209.5 -85q148 0 248.5 104.5t100.5 264.5v563h122v-1024h-122v174h-2q-17 -34 -45.5 -65.5t-72 -62t-108.5 -48.5t-141 -18q-172 0 -280.5 118.5t-108.5 321.5zM543 1229l184 297h154v-2l-236 -295h-102z" />
    <glyph glyph-name="ucircumflex" unicode="&#xfb;" horiz-adv-x="1208" 
d="M164 420v604h123v-604q0 -158 76.5 -243t209.5 -85q148 0 248.5 104.5t100.5 264.5v563h122v-1024h-122v174h-2q-17 -34 -45.5 -65.5t-72 -62t-108.5 -48.5t-141 -18q-172 0 -280.5 118.5t-108.5 321.5zM317 1229v2l226 295h133l225 -295v-2h-123l-153 205h-31l-154 -205
h-123z" />
    <glyph glyph-name="udieresis" unicode="&#xfc;" horiz-adv-x="1208" 
d="M164 420v604h123v-604q0 -158 76.5 -243t209.5 -85q148 0 248.5 104.5t100.5 264.5v563h122v-1024h-122v174h-2q-17 -34 -45.5 -65.5t-72 -62t-108.5 -48.5t-141 -18q-172 0 -280.5 118.5t-108.5 321.5zM686 1352q0 38 27 65t65 27t65 -27t27 -65t-27 -65t-65 -27t-65 27
t-27 65zM338 1352q0 38 27 65t65 27t65 -27t27 -65t-27 -65t-65 -27t-65 27t-27 65z" />
    <glyph glyph-name="yacute" unicode="&#xfd;" horiz-adv-x="1034" 
d="M51 1024h133l236 -911h194l267 911h133l-420 -1413h-133l123 389h-256zM471 1229l184 297h154v-2l-236 -295h-102z" />
    <glyph glyph-name="thorn" unicode="&#xfe;" horiz-adv-x="1259" 
d="M164 -389v1823h123v-615h2q17 37 48.5 74.5t78.5 72t115.5 56.5t144.5 22q99 0 189 -40.5t156.5 -110t106 -169t39.5 -212.5t-39.5 -212.5t-106 -169t-156.5 -110t-189 -40.5q-76 0 -144.5 22t-115.5 56.5t-78.5 72t-48.5 74.5h-2v-594h-123zM287 512q0 -179 114 -299.5
t265 -120.5q157 0 267.5 119.5t110.5 300.5t-110.5 300.5t-267.5 119.5q-151 0 -265 -120.5t-114 -299.5z" />
    <glyph glyph-name="ydieresis" unicode="&#xff;" horiz-adv-x="1034" 
d="M51 1024h133l236 -911h194l267 911h133l-420 -1413h-133l123 389h-256zM614 1341q0 38 27.5 65.5t65.5 27.5t65 -27.5t27 -65.5t-27 -65t-65 -27t-65.5 27t-27.5 65zM266 1341q0 38 27 65.5t65 27.5t65.5 -27.5t27.5 -65.5t-27.5 -65t-65.5 -27t-65 27t-27 65z" />
    <glyph glyph-name="Amacron" unicode="&#x100;" horiz-adv-x="1372" 
d="M51 0l379 1434h512l379 -1434h-133l-123 471h-758l-123 -471h-133zM338 594h696l-194 717h-308zM430 1679v113h522v-113h-522z" />
    <glyph glyph-name="amacron" unicode="&#x101;" horiz-adv-x="1259" 
d="M92 512q0 113 39.5 212.5t106.5 169t157 110t189 40.5q76 0 144.5 -22t115.5 -56.5t78.5 -72t48.5 -74.5h2v205h123v-1024h-123v205h-2q-17 -37 -48.5 -74.5t-78.5 -72t-115.5 -56.5t-144.5 -22q-99 0 -189 40.5t-157 110t-106.5 169t-39.5 212.5zM215 512
q0 -181 111 -300.5t268 -119.5q151 0 265 120.5t114 299.5t-114 299.5t-265 120.5q-157 0 -268 -119.5t-111 -300.5zM338 1280v113h522v-113h-522z" />
    <glyph glyph-name="Abreve" unicode="&#x102;" horiz-adv-x="1372" 
d="M51 0l379 1434h512l379 -1434h-133l-123 471h-758l-123 -471h-133zM338 594h696l-194 717h-308zM399 1864h113q0 -63 44.5 -103.5t119.5 -40.5t119.5 40.5t44.5 103.5h112q0 -102 -78 -174t-198 -72q-121 0 -199 72t-78 174z" />
    <glyph glyph-name="abreve" unicode="&#x103;" horiz-adv-x="1259" 
d="M92 512q0 113 39.5 212.5t106.5 169t157 110t189 40.5q76 0 144.5 -22t115.5 -56.5t78.5 -72t48.5 -74.5h2v205h123v-1024h-123v205h-2q-17 -37 -48.5 -74.5t-78.5 -72t-115.5 -56.5t-144.5 -22q-99 0 -189 40.5t-157 110t-106.5 169t-39.5 212.5zM215 512
q0 -181 111 -300.5t268 -119.5q151 0 265 120.5t114 299.5t-114 299.5t-265 120.5q-157 0 -268 -119.5t-111 -300.5zM307 1485h113q0 -63 44.5 -103.5t119.5 -40.5t119.5 40.5t44.5 103.5h112q0 -102 -78 -174t-198 -72q-121 0 -199 72t-78 174z" />
    <glyph glyph-name="Aogonek" unicode="&#x104;" horiz-adv-x="1372" 
d="M51 0l379 1434h512l379 -1434q-10 -4 -26.5 -12t-59 -34.5t-75 -55t-59 -73.5t-26.5 -91q0 -39 29 -65.5t74 -26.5q32 0 68 7.5t56 14.5l19 8v-92q-61 -41 -143 -41q-91 0 -148 53.5t-57 131.5q0 49 22.5 95t54.5 77.5t63.5 56t54.5 35.5l22 12h-2l-123 471h-758
l-123 -471h-133zM338 594h696l-194 717h-308z" />
    <glyph glyph-name="aogonek" unicode="&#x105;" horiz-adv-x="1259" 
d="M92 512q0 113 39.5 212.5t106.5 169t157 110t189 40.5q76 0 144.5 -22t115.5 -56.5t78.5 -72t48.5 -74.5h2v205h123v-1024q-10 -4 -26.5 -12t-59 -34.5t-75 -55t-59 -73.5t-26.5 -91q0 -39 28.5 -65.5t73.5 -26.5q32 0 68 7.5t56 14.5l20 8v-92q-62 -41 -144 -41
q-90 0 -147 53.5t-57 131.5q0 49 23 96t56 79.5t66.5 58t56.5 38.5l23 12v4v193h-2q-17 -37 -48.5 -74.5t-78.5 -72t-115.5 -56.5t-144.5 -22q-99 0 -189 40.5t-157 110t-106.5 169t-39.5 212.5zM215 512q0 -181 111 -300.5t268 -119.5q151 0 265 120.5t114 299.5
t-114 299.5t-265 120.5q-157 0 -268 -119.5t-111 -300.5z" />
    <glyph glyph-name="Cacute" unicode="&#x106;" horiz-adv-x="1638" 
d="M102 717q0 162 56.5 303.5t154.5 241t235 156.5t292 57q90 0 172 -17.5t143.5 -47t115 -68t91.5 -81t69 -85t50 -81t32 -68t18 -47.5l5 -17h-133q-3 8 -8 22t-26.5 54.5t-48.5 77t-74 81.5t-102 77.5t-134.5 54.5t-169.5 22q-129 0 -241 -46.5t-192 -128.5t-125.5 -201
t-45.5 -259t45.5 -259t125.5 -201t192 -128.5t241 -46.5q92 0 173.5 23t138 60t103 82t75 90t48.5 82t28 60l7 23h133q-3 -11 -9.5 -30.5t-32.5 -76t-58.5 -108t-91.5 -114t-128 -107.5t-170 -76t-216 -31q-155 0 -292 57t-235 156.5t-154.5 241t-56.5 303.5zM758 1618
l184 297h154v-2l-236 -295h-102z" />
    <glyph glyph-name="cacute" unicode="&#x107;" horiz-adv-x="1167" 
d="M92 512q0 113 40 212.5t107.5 169t160 110t194.5 40.5q79 0 148.5 -19.5t117 -51.5t86.5 -70t62.5 -76t39 -70t21.5 -51l6 -20h-123q-3 10 -10.5 26.5t-37 59t-66 75t-102 59t-142.5 26.5q-157 0 -268 -119.5t-111 -300.5t111 -300.5t268 -119.5q80 0 147.5 27.5
t107 66.5t67 78t37.5 66l10 28h122q-2 -8 -6 -21.5t-21.5 -53t-40 -75t-63 -79t-88.5 -75t-119.5 -53t-152.5 -21.5q-102 0 -194.5 40.5t-160 110t-107.5 169t-40 212.5zM522 1229l185 297h153v-2l-235 -295h-103z" />
    <glyph glyph-name="Ccircumflex" unicode="&#x108;" horiz-adv-x="1638" 
d="M102 717q0 162 56.5 303.5t154.5 241t235 156.5t292 57q90 0 172 -17.5t143.5 -47t115 -68t91.5 -81t69 -85t50 -81t32 -68t18 -47.5l5 -17h-133q-3 8 -8 22t-26.5 54.5t-48.5 77t-74 81.5t-102 77.5t-134.5 54.5t-169.5 22q-129 0 -241 -46.5t-192 -128.5t-125.5 -201
t-45.5 -259t45.5 -259t125.5 -201t192 -128.5t241 -46.5q92 0 173.5 23t138 60t103 82t75 90t48.5 82t28 60l7 23h133q-3 -11 -9.5 -30.5t-32.5 -76t-58.5 -108t-91.5 -114t-128 -107.5t-170 -76t-216 -31q-155 0 -292 57t-235 156.5t-154.5 241t-56.5 303.5zM532 1618v2
l226 295h133l225 -295v-2h-123l-153 205h-31l-154 -205h-123z" />
    <glyph glyph-name="ccircumflex" unicode="&#x109;" horiz-adv-x="1167" 
d="M92 512q0 113 40 212.5t107.5 169t160 110t194.5 40.5q79 0 148.5 -19.5t117 -51.5t86.5 -70t62.5 -76t39 -70t21.5 -51l6 -20h-123q-3 10 -10.5 26.5t-37 59t-66 75t-102 59t-142.5 26.5q-157 0 -268 -119.5t-111 -300.5t111 -300.5t268 -119.5q80 0 147.5 27.5
t107 66.5t67 78t37.5 66l10 28h122q-2 -8 -6 -21.5t-21.5 -53t-40 -75t-63 -79t-88.5 -75t-119.5 -53t-152.5 -21.5q-102 0 -194.5 40.5t-160 110t-107.5 169t-40 212.5zM297 1229v2l225 295h133l226 -295v-2h-123l-154 205h-31l-153 -205h-123z" />
    <glyph glyph-name="Ccaron" unicode="&#x10c;" horiz-adv-x="1638" 
d="M102 717q0 162 56.5 303.5t154.5 241t235 156.5t292 57q90 0 172 -17.5t143.5 -47t115 -68t91.5 -81t69 -85t50 -81t32 -68t18 -47.5l5 -17h-133q-3 8 -8 22t-26.5 54.5t-48.5 77t-74 81.5t-102 77.5t-134.5 54.5t-169.5 22q-129 0 -241 -46.5t-192 -128.5t-125.5 -201
t-45.5 -259t45.5 -259t125.5 -201t192 -128.5t241 -46.5q92 0 173.5 23t138 60t103 82t75 90t48.5 82t28 60l7 23h133q-3 -11 -9.5 -30.5t-32.5 -76t-58.5 -108t-91.5 -114t-128 -107.5t-170 -76t-216 -31q-155 0 -292 57t-235 156.5t-154.5 241t-56.5 303.5zM532 1913v2
h123l154 -205h31l153 205h123v-2l-225 -295h-133z" />
    <glyph glyph-name="ccaron" unicode="&#x10d;" horiz-adv-x="1167" 
d="M92 512q0 113 40 212.5t107.5 169t160 110t194.5 40.5q79 0 148.5 -19.5t117 -51.5t86.5 -70t62.5 -76t39 -70t21.5 -51l6 -20h-123q-3 10 -10.5 26.5t-37 59t-66 75t-102 59t-142.5 26.5q-157 0 -268 -119.5t-111 -300.5t111 -300.5t268 -119.5q80 0 147.5 27.5
t107 66.5t67 78t37.5 66l10 28h122q-2 -8 -6 -21.5t-21.5 -53t-40 -75t-63 -79t-88.5 -75t-119.5 -53t-152.5 -21.5q-102 0 -194.5 40.5t-160 110t-107.5 169t-40 212.5zM297 1524v2h123l153 -205h31l154 205h123v-2l-226 -295h-133z" />
    <glyph glyph-name="Dcaron" unicode="&#x10e;" horiz-adv-x="1474" 
d="M184 0v1434h451q212 0 380.5 -93.5t262.5 -257t94 -366.5t-94 -366.5t-262.5 -257t-380.5 -93.5h-451zM317 123h318q268 0 436 166t168 428t-168 428t-436 166h-318v-1188zM410 1913v2h122l154 -205h31l153 205h123v-2l-225 -295h-133z" />
    <glyph glyph-name="dcaron" unicode="&#x10f;" horiz-adv-x="1351" 
d="M92 512q0 113 39.5 212.5t106.5 169t157 110t189 40.5q76 0 144.5 -22t115.5 -56.5t78.5 -72t48.5 -74.5h2v615h123v-1434h-123v205h-2q-17 -37 -48.5 -74.5t-78.5 -72t-115.5 -56.5t-144.5 -22q-99 0 -189 40.5t-157 110t-106.5 169t-39.5 212.5zM215 512
q0 -181 111 -300.5t268 -119.5q151 0 265 120.5t114 299.5t-114 299.5t-265 120.5q-157 0 -268 -119.5t-111 -300.5zM1198 1368q0 32 27.5 57t64.5 25q48 0 80.5 -40.5t32.5 -113.5q0 -91 -54.5 -149t-140.5 -66v62q54 7 83.5 36.5t29.5 75.5q0 9 -2.5 19t-4.5 16l-3 6
q-11 -10 -31 -10q-38 0 -60 22t-22 60z" />
    <glyph glyph-name="Dcroat" unicode="&#x110;" horiz-adv-x="1495" 
d="M51 645v133h154v656h450q212 0 381 -93.5t263 -257t94 -366.5t-94 -366.5t-263 -257t-381 -93.5h-450v645h-154zM338 123h317q268 0 436.5 166t168.5 428t-168.5 428t-436.5 166h-317v-533h379v-133h-379v-522z" />
    <glyph glyph-name="dcroat" unicode="&#x111;" horiz-adv-x="1249" 
d="M92 481q0 220 134.5 361t336.5 141q77 0 144.5 -21t108 -51t70.5 -60.5t42 -51.5l12 -21h2v379h-276v113h276v164h123v-164h143v-113h-143v-1157h-123v184h-2q-4 -8 -12.5 -22t-41 -49t-71.5 -62t-107 -49t-145 -22q-202 0 -336.5 140.5t-134.5 360.5zM215 481
q0 -175 103 -282t266 -107q156 0 257 107t101 282t-101 282t-257 107q-163 0 -266 -107t-103 -282z" />
    <glyph glyph-name="Emacron" unicode="&#x112;" horiz-adv-x="1249" 
d="M184 0v1434h973v-123h-840v-523h687v-122h-687v-543h840v-123h-973zM410 1700v112h522v-112h-522z" />
    <glyph glyph-name="emacron" unicode="&#x113;" horiz-adv-x="1208" 
d="M92 512q0 151 68 273t185 190.5t259 68.5t259 -68t185 -188t68 -266v-51h-901q8 -162 118.5 -270.5t270.5 -108.5q77 0 143.5 23t106 56t68.5 66.5t40 56.5l11 23h123q-2 -7 -7 -19t-24.5 -47t-43 -67t-65 -71t-89 -67t-117 -47t-146.5 -19q-142 0 -259 68.5t-185 190.5
t-68 273zM215 584h768q-15 149 -121 248.5t-258 99.5q-151 0 -258 -99t-131 -249zM348 1280v113h522v-113h-522z" />
    <glyph glyph-name="Edotaccent" unicode="&#x116;" horiz-adv-x="1249" 
d="M184 0v1434h973v-123h-840v-523h687v-122h-687v-543h840v-123h-973zM594 1741q0 38 27 65t65 27t65 -27t27 -65t-27 -65t-65 -27t-65 27t-27 65z" />
    <glyph glyph-name="edotaccent" unicode="&#x117;" horiz-adv-x="1208" 
d="M92 512q0 151 68 273t185 190.5t259 68.5t259 -68t185 -188t68 -266v-51h-901q8 -162 118.5 -270.5t270.5 -108.5q77 0 143.5 23t106 56t68.5 66.5t40 56.5l11 23h123q-2 -7 -7 -19t-24.5 -47t-43 -67t-65 -71t-89 -67t-117 -47t-146.5 -19q-142 0 -259 68.5t-185 190.5
t-68 273zM215 584h768q-15 149 -121 248.5t-258 99.5q-151 0 -258 -99t-131 -249zM502 1341q0 38 27 65.5t65 27.5t65 -27.5t27 -65.5t-27 -65t-65 -27t-65 27t-27 65z" />
    <glyph glyph-name="Eogonek" unicode="&#x118;" horiz-adv-x="1249" 
d="M184 0v1434h973v-123h-840v-523h687v-122h-687v-543h840v-123q-10 -4 -26.5 -12t-59 -34.5t-75 -55t-59 -73.5t-26.5 -91q0 -39 29 -65.5t74 -26.5q32 0 68 7.5t56 14.5l19 8v-92q-61 -41 -143 -41q-91 0 -148 53.5t-57 131.5q0 49 22 95t53.5 77.5t63.5 56t54 35.5
l22 12h-840z" />
    <glyph glyph-name="eogonek" unicode="&#x119;" horiz-adv-x="1208" 
d="M92 512q0 151 68 273t185 190.5t259 68.5t259 -68t185 -188t68 -266v-51h-901q8 -162 118.5 -270.5t270.5 -108.5q77 0 143.5 23t106 56t68.5 66.5t40 56.5l11 23h123q-3 -8 -9 -22.5t-29.5 -55t-52.5 -76t-79 -76.5t-107 -67q-11 -5 -29 -14t-63.5 -39t-81 -61.5
t-64 -78.5t-28.5 -93q0 -39 28.5 -65.5t73.5 -26.5q32 0 68 7.5t56 14.5l20 8v-92q-62 -41 -144 -41q-90 0 -147 53.5t-57 131.5q0 141 182 258q-5 0 -14.5 -1t-14.5 -1q-142 0 -259 68.5t-185 190.5t-68 273zM215 584h768q-15 149 -121 248.5t-258 99.5q-151 0 -258 -99
t-131 -249z" />
    <glyph glyph-name="Ecaron" unicode="&#x11a;" horiz-adv-x="1249" 
d="M184 0v1434h973v-123h-840v-523h687v-122h-687v-543h840v-123h-973zM389 1913v2h123l154 -205h30l154 205h123v-2l-225 -295h-134z" />
    <glyph glyph-name="ecaron" unicode="&#x11b;" horiz-adv-x="1208" 
d="M92 512q0 151 68 273t185 190.5t259 68.5t259 -68t185 -188t68 -266v-51h-901q8 -162 118.5 -270.5t270.5 -108.5q77 0 143.5 23t106 56t68.5 66.5t40 56.5l11 23h123q-2 -7 -7 -19t-24.5 -47t-43 -67t-65 -71t-89 -67t-117 -47t-146.5 -19q-142 0 -259 68.5t-185 190.5
t-68 273zM215 584h768q-15 149 -121 248.5t-258 99.5q-151 0 -258 -99t-131 -249zM307 1524v2h123l154 -205h30l154 205h123v-2l-225 -295h-134z" />
    <glyph glyph-name="Gbreve" unicode="&#x11e;" horiz-adv-x="1761" 
d="M102 717q0 162 56.5 303.5t154.5 241t235 156.5t292 57q113 0 212.5 -27.5t168 -72t125 -98t91 -107t58 -98t32.5 -72.5l9 -27h-133q-3 8 -8.5 21.5t-28 53t-49.5 75.5t-75 79.5t-102.5 75t-133 53t-166.5 21.5q-129 0 -241 -46.5t-192 -128.5t-125.5 -201t-45.5 -259
t45.5 -259t125.5 -201t192 -128.5t241 -46.5q155 0 283.5 71t206.5 192t93 269h-286v123h604v-123h-185q-47 -297 -238 -476t-478 -179q-155 0 -292 57t-235 156.5t-154.5 241t-56.5 303.5zM604 1864h113q0 -63 44.5 -103.5t119.5 -40.5t119 40.5t44 103.5h113
q0 -102 -78 -174t-198 -72q-121 0 -199 72t-78 174z" />
    <glyph glyph-name="gbreve" unicode="&#x11f;" horiz-adv-x="1259" 
d="M92 512q0 113 39.5 212.5t106.5 169t157 110t189 40.5q76 0 144.5 -22t115.5 -56.5t78.5 -72t48.5 -74.5h2v205h123v-1413h-871v113h748v481h-2q-17 -37 -48.5 -74.5t-78.5 -72t-115.5 -56.5t-144.5 -22q-99 0 -189 40.5t-157 110t-106.5 169t-39.5 212.5zM215 512
q0 -181 111 -300.5t268 -119.5q151 0 265 120.5t114 299.5t-114 299.5t-265 120.5q-157 0 -268 -119.5t-111 -300.5zM307 1485h113q0 -63 44.5 -103.5t119.5 -40.5t119.5 40.5t44.5 103.5h112q0 -102 -78 -174t-198 -72q-121 0 -199 72t-78 174z" />
    <glyph glyph-name="Gcommaaccent" unicode="&#x122;" horiz-adv-x="1761" 
d="M102 717q0 162 56.5 303.5t154.5 241t235 156.5t292 57q113 0 212.5 -27.5t168 -72t125 -98t91 -107t58 -98t32.5 -72.5l9 -27h-133q-3 8 -8.5 21.5t-28 53t-49.5 75.5t-75 79.5t-102.5 75t-133 53t-166.5 21.5q-129 0 -241 -46.5t-192 -128.5t-125.5 -201t-45.5 -259
t45.5 -259t125.5 -201t192 -128.5t241 -46.5q155 0 283.5 71t206.5 192t93 269h-286v123h604v-123h-185q-47 -297 -238 -476t-478 -179q-155 0 -292 57t-235 156.5t-154.5 241t-56.5 303.5zM727 -287q0 32 27.5 57t64.5 25q48 0 80.5 -40t32.5 -113q0 -91 -54.5 -149
t-140.5 -66v61q54 7 83.5 37t29.5 76q0 9 -2.5 19t-5.5 16l-2 6q-11 -11 -31 -11q-38 0 -60 22t-22 60z" />
    <glyph glyph-name="gcommaaccent" unicode="&#x123;" horiz-adv-x="1259" 
d="M481 1362q0 91 54.5 149t140.5 66v-61q-54 -7 -83.5 -37t-29.5 -76q0 -9 2.5 -19t4.5 -16l3 -6q11 10 31 10q38 0 60 -22t22 -60q0 -32 -27.5 -57t-64.5 -25q-48 0 -80.5 40.5t-32.5 113.5zM92 512q0 113 39.5 212.5t106.5 169t157 110t189 40.5q76 0 144.5 -22
t115.5 -56.5t78.5 -72t48.5 -74.5h2v205h123v-1413h-871v113h748v481h-2q-17 -37 -48.5 -74.5t-78.5 -72t-115.5 -56.5t-144.5 -22q-99 0 -189 40.5t-157 110t-106.5 169t-39.5 212.5zM215 512q0 -181 111 -300.5t268 -119.5q151 0 265 120.5t114 299.5t-114 299.5
t-265 120.5q-157 0 -268 -119.5t-111 -300.5z" />
    <glyph glyph-name="Imacron" unicode="&#x12a;" horiz-adv-x="501" 
d="M184 0v1434h133v-1434h-133zM-10 1679v113h522v-113h-522z" />
    <glyph glyph-name="imacron" unicode="&#x12b;" horiz-adv-x="450" 
d="M164 0v1024h123v-1024h-123zM-41 1280v113h522v-113h-522z" />
    <glyph glyph-name="Iogonek" unicode="&#x12e;" horiz-adv-x="501" 
d="M-31 -276q0 49 22.5 95t54.5 77.5t63.5 56t54.5 35.5l22 12h-2v1434h133v-1434q-10 -4 -26.5 -12t-58.5 -34.5t-74.5 -55t-59 -73.5t-26.5 -91q0 -39 28.5 -65.5t73.5 -26.5q32 0 68 7.5t56 14.5l19 8v-92q-61 -41 -143 -41q-91 0 -148 53.5t-57 131.5z" />
    <glyph glyph-name="iogonek" unicode="&#x12f;" horiz-adv-x="450" 
d="M-61 -276q0 49 23 96t56 80t66.5 59t56.5 39l23 12v2v1012h123v-1024q-10 -4 -26.5 -12t-59 -34.5t-75 -55t-59 -73.5t-26.5 -91q0 -39 28.5 -65.5t73.5 -26.5q32 0 68 7.5t56 14.5l20 8v-92q-62 -41 -144 -41q-90 0 -147 53.5t-57 131.5zM133 1331q0 40 27 67t65 27
t65 -27t27 -67q0 -37 -27 -63.5t-65 -26.5t-65 26.5t-27 63.5z" />
    <glyph glyph-name="Idotaccent" unicode="&#x130;" horiz-adv-x="501" 
d="M184 0v1434h133v-1434h-133zM164 1743q0 38 27 65t65 27t65 -27t27 -65t-27 -65t-65 -27t-65 27t-27 65z" />
    <glyph glyph-name="dotlessi" unicode="&#x131;" horiz-adv-x="450" 
d="M164 0v1024h123v-1024h-123z" />
    <glyph glyph-name="Kcommaaccent" unicode="&#x136;" horiz-adv-x="1300" 
d="M184 0v1434h133v-646h318l461 646h164l-502 -697l522 -737h-164l-471 666h-328v-666h-133zM594 -287q0 32 27.5 57t64.5 25q48 0 80.5 -40t32.5 -113q0 -91 -54.5 -149t-140.5 -66v61q54 7 83.5 37t29.5 76q0 9 -2.5 19t-4.5 16l-3 6q-11 -11 -31 -11q-38 0 -60 22
t-22 60z" />
    <glyph glyph-name="kcommaaccent" unicode="&#x137;" horiz-adv-x="1054" 
d="M164 0v1434h123v-840h245l338 430h144l-379 -492l409 -532h-143l-369 481h-245v-481h-123zM471 -287q0 32 27.5 57t64.5 25q48 0 80.5 -40t32.5 -113q0 -91 -54.5 -149t-140.5 -66v61q54 7 83.5 37t29.5 76q0 9 -2.5 19t-5.5 16l-2 6q-11 -11 -31 -11q-38 0 -60 22
t-22 60z" />
    <glyph glyph-name="Lacute" unicode="&#x139;" horiz-adv-x="1116" 
d="M184 0v1434h133v-1311h779v-123h-912zM205 1618l184 297h154v-2l-236 -295h-102z" />
    <glyph glyph-name="lacute" unicode="&#x13a;" horiz-adv-x="552" 
d="M164 0v1434h123v-1321h235v-113h-358zM174 1618l184 297h154v-2l-236 -295h-102z" />
    <glyph glyph-name="Lcommaaccent" unicode="&#x13b;" horiz-adv-x="1116" 
d="M184 0v1434h133v-1311h779v-123h-912zM553 -287q0 32 27.5 57t64.5 25q48 0 80.5 -40t32.5 -113q0 -91 -54.5 -149t-140.5 -66v61q54 7 83.5 37t29.5 76q0 9 -2.5 19t-5.5 16l-2 6q-11 -11 -31 -11q-38 0 -60 22t-22 60z" />
    <glyph glyph-name="lcommaaccent" unicode="&#x13c;" horiz-adv-x="552" 
d="M164 0v1434h123v-1321h235v-113h-358zM244 -287q0 32 27.5 57t64.5 25q48 0 80.5 -40t32.5 -113q0 -91 -54.5 -149t-140.5 -66v61q54 7 83.5 37t29.5 76q0 9 -2.5 19t-5.5 16l-3 6q-10 -11 -30 -11q-38 0 -60 22t-22 60z" />
    <glyph glyph-name="Lcaron" unicode="&#x13d;" horiz-adv-x="1116" 
d="M184 0v1434h133v-1311h779v-123h-912zM512 1372q0 32 27.5 57t64.5 25q48 0 80.5 -40.5t32.5 -113.5q0 -91 -54.5 -149t-140.5 -66v62q54 7 83.5 37t29.5 76q0 9 -2.5 19t-4.5 15l-3 6q-11 -10 -31 -10q-38 0 -60 22t-22 60z" />
    <glyph glyph-name="lcaron" unicode="&#x13e;" horiz-adv-x="552" 
d="M164 0v1434h123v-1321h235v-113h-358zM399 1372q0 31 27.5 56.5t65.5 25.5q48 0 80 -40.5t32 -113.5q0 -91 -54 -149t-140 -66v62q54 7 83 37t29 76q0 9 -2.5 19t-5.5 15l-2 6q-11 -10 -31 -10q-38 0 -60 22t-22 60z" />
    <glyph glyph-name="Lslash" unicode="&#x141;" horiz-adv-x="1116" 
d="M51 502v133l133 61v738h133v-676l308 143v-133l-308 -143v-502h779v-123h-912v563z" />
    <glyph glyph-name="lslash" unicode="&#x142;" horiz-adv-x="573" 
d="M10 502v123l174 82v727h123v-676l195 92v-123l-195 -92v-522h236v-113h-359v584z" />
    <glyph glyph-name="Nacute" unicode="&#x143;" horiz-adv-x="1484" 
d="M184 0v1434h205l778 -1301h2l-2 21v1280h133v-1434h-204l-779 1300h-2l2 -20v-1280h-133zM686 1618l184 297h154v-2l-236 -295h-102z" />
    <glyph glyph-name="nacute" unicode="&#x144;" horiz-adv-x="1187" 
d="M164 0v1024h123v-174h2q17 34 45 65.5t71.5 62t108.5 48.5t141 18q172 0 280.5 -118.5t108.5 -321.5v-604h-122v604q0 158 -77 243t-210 85q-148 0 -248 -104.5t-100 -264.5v-563h-123zM543 1229l184 297h154v-2l-236 -295h-102z" />
    <glyph glyph-name="Ncommaaccent" unicode="&#x145;" horiz-adv-x="1484" 
d="M184 0v1434h205l778 -1301h2l-2 21v1280h133v-1434h-204l-779 1300h-2l2 -20v-1280h-133zM645 -287q0 32 27.5 57t64.5 25q48 0 80.5 -40t32.5 -113q0 -91 -54.5 -149t-140.5 -66v61q54 7 83.5 37t29.5 76q0 9 -2.5 19t-5.5 16l-2 6q-11 -11 -31 -11q-38 0 -60 22t-22 60
z" />
    <glyph glyph-name="ncommaaccent" unicode="&#x146;" horiz-adv-x="1187" 
d="M164 0v1024h123v-174h2q17 34 45 65.5t71.5 62t108.5 48.5t141 18q172 0 280.5 -118.5t108.5 -321.5v-604h-122v604q0 158 -77 243t-210 85q-148 0 -248 -104.5t-100 -264.5v-563h-123zM510 -287q0 32 27.5 57t64.5 25q48 0 80.5 -40t32.5 -113q0 -91 -54.5 -149
t-140.5 -66v61q54 7 83.5 37t29.5 76q0 9 -2.5 19t-4.5 16l-3 6q-11 -11 -31 -11q-38 0 -60 22t-22 60z" />
    <glyph glyph-name="Ncaron" unicode="&#x147;" horiz-adv-x="1484" 
d="M184 0v1434h205l778 -1301h2l-2 21v1280h133v-1434h-204l-779 1300h-2l2 -20v-1280h-133zM471 1913v2h123l154 -205h30l154 205h123v-2l-226 -295h-133z" />
    <glyph glyph-name="ncaron" unicode="&#x148;" horiz-adv-x="1187" 
d="M164 0v1024h123v-174h2q17 34 45 65.5t71.5 62t108.5 48.5t141 18q172 0 280.5 -118.5t108.5 -321.5v-604h-122v604q0 158 -77 243t-210 85q-148 0 -248 -104.5t-100 -264.5v-563h-123zM307 1524v2h123l154 -205h30l154 205h123v-2l-225 -295h-134z" />
    <glyph glyph-name="Omacron" unicode="&#x14c;" horiz-adv-x="1679" 
d="M102 717q0 162 56.5 303.5t154.5 241t235 156.5t292 57t292 -57t234.5 -156.5t154 -241t56.5 -303.5t-56.5 -303.5t-154 -241t-234.5 -156.5t-292 -57t-292 57t-235 156.5t-154.5 241t-56.5 303.5zM236 717q0 -140 45.5 -259t125.5 -201t192 -128.5t241 -46.5t241 46.5
t192 128.5t125.5 201t45.5 259t-45.5 259t-125.5 201t-192 128.5t-241 46.5t-241 -46.5t-192 -128.5t-125.5 -201t-45.5 -259zM584 1679v113h522v-113h-522z" />
    <glyph glyph-name="omacron" unicode="&#x14d;" 
d="M92 512q0 229 149.5 380.5t372.5 151.5q224 0 373.5 -151.5t149.5 -380.5t-149.5 -380.5t-373.5 -151.5q-223 0 -372.5 151.5t-149.5 380.5zM215 512q0 -183 114.5 -301.5t284.5 -118.5t285 118.5t115 301.5t-115 301.5t-285 118.5t-284.5 -118.5t-114.5 -301.5z
M348 1280v113h522v-113h-522z" />
    <glyph glyph-name="Ohungarumlaut" unicode="&#x150;" horiz-adv-x="1679" 
d="M102 717q0 162 56.5 303.5t154.5 241t235 156.5t292 57t292 -57t234.5 -156.5t154 -241t56.5 -303.5t-56.5 -303.5t-154 -241t-234.5 -156.5t-292 -57t-292 57t-235 156.5t-154.5 241t-56.5 303.5zM236 717q0 -140 45.5 -259t125.5 -201t192 -128.5t241 -46.5t241 46.5
t192 128.5t125.5 201t45.5 259t-45.5 259t-125.5 201t-192 128.5t-241 46.5t-241 -46.5t-192 -128.5t-125.5 -201t-45.5 -259zM932 1618l153 297h144v-2l-205 -295h-92zM635 1618l153 297h144v-2l-205 -295h-92z" />
    <glyph glyph-name="ohungarumlaut" unicode="&#x151;" 
d="M92 512q0 229 149.5 380.5t372.5 151.5q224 0 373.5 -151.5t149.5 -380.5t-149.5 -380.5t-373.5 -151.5q-223 0 -372.5 151.5t-149.5 380.5zM215 512q0 -183 114.5 -301.5t284.5 -118.5t285 118.5t115 301.5t-115 301.5t-285 118.5t-284.5 -118.5t-114.5 -301.5z
M707 1229l153 297h144v-2l-205 -295h-92zM410 1229l153 297h144v-2l-205 -295h-92z" />
    <glyph glyph-name="OE" unicode="&#x152;" horiz-adv-x="2416" 
d="M102 717q0 165 56 308t151.5 241t225 153.5t274.5 55.5q75 0 145.5 -15.5t123.5 -38.5t102.5 -56.5t80.5 -60.5t60 -60t39.5 -47t19.5 -27q2 -2 2 -3v267h942v-123h-808v-523h655v-122h-655v-543h808v-123h-942v264q-69 -97 -154 -162q-185 -143 -419 -143
q-145 0 -274.5 55.5t-225 153.5t-151.5 241t-56 308zM236 717q0 -287 161.5 -461t411.5 -174t411.5 174t161.5 461t-161.5 461t-411.5 174t-411.5 -174t-161.5 -461z" />
    <glyph glyph-name="oe" unicode="&#x153;" horiz-adv-x="2058" 
d="M92 512q0 113 40 212.5t107.5 169t160 110t194.5 40.5q86 0 163 -27.5t125.5 -66.5t84.5 -78t51 -66l16 -28h2q3 6 8 15.5t23.5 37t40.5 52.5t59 56t78 53t98.5 37t120.5 15q213 0 357.5 -150t144.5 -372v-51h-870q8 -162 111.5 -270.5t256.5 -108.5q76 0 141 23
t103.5 56t66 66.5t37.5 56.5l11 23h123q-2 -7 -7 -19t-23.5 -47t-41.5 -67t-63.5 -71t-87.5 -67t-115 -47t-144 -19q-86 0 -162 27.5t-123 66.5t-81.5 78t-49.5 66l-14 28h-2q-5 -11 -16 -29t-50 -63.5t-85 -81t-123.5 -64t-163.5 -28.5q-102 0 -194.5 40.5t-160 110
t-107.5 169t-40 212.5zM1096 584h737q-15 148 -119.5 248t-249.5 100q-136 0 -240 -100t-128 -248zM215 512q0 -181 111 -300.5t268 -119.5t268 119.5t111 300.5t-111 300.5t-268 119.5t-268 -119.5t-111 -300.5z" />
    <glyph glyph-name="Racute" unicode="&#x154;" horiz-adv-x="1392" 
d="M184 0v1434h594q233 0 367.5 -122.5t134.5 -318.5q0 -167 -99 -283.5t-280 -146.5l369 -563h-154l-358 553h-441v-553h-133zM317 676h461q181 0 275 84t94 233t-94 233.5t-275 84.5h-461v-635zM604 1618l184 297h154v-2l-235 -295h-103z" />
    <glyph glyph-name="racute" unicode="&#x155;" horiz-adv-x="757" 
d="M164 0v1024h123v-195h2q3 8 10 22t34.5 49.5t62.5 62.5t96 49t133 22h112v-112h-112q-148 0 -243 -99.5t-95 -259.5v-563h-123zM379 1229l184 297h154v-2l-236 -295h-102z" />
    <glyph glyph-name="Rcommaaccent" unicode="&#x156;" horiz-adv-x="1392" 
d="M184 0v1434h594q233 0 367.5 -122.5t134.5 -318.5q0 -167 -99 -283.5t-280 -146.5l369 -563h-154l-358 553h-441v-553h-133zM317 676h461q181 0 275 84t94 233t-94 233.5t-275 84.5h-461v-635zM604 -287q0 32 27.5 57t64.5 25q48 0 80.5 -40t32.5 -113q0 -91 -54.5 -149
t-140.5 -66v61q54 7 83.5 37t29.5 76q0 9 -2.5 19t-4.5 16l-3 6q-11 -11 -31 -11q-38 0 -60 22t-22 60z" />
    <glyph glyph-name="rcommaaccent" unicode="&#x157;" horiz-adv-x="757" 
d="M164 0v1024h123v-195h2q3 8 10 22t34.5 49.5t62.5 62.5t96 49t133 22h112v-112h-112q-148 0 -243 -99.5t-95 -259.5v-563h-123zM123 -287q0 32 27.5 57t64.5 25q48 0 80.5 -40t32.5 -113q0 -91 -54.5 -149t-140.5 -66v61q54 7 83.5 37t29.5 76q0 9 -2.5 19t-5.5 16l-2 6
q-11 -11 -31 -11q-38 0 -60 22t-22 60z" />
    <glyph glyph-name="Rcaron" unicode="&#x158;" horiz-adv-x="1392" 
d="M184 0v1434h594q233 0 367.5 -122.5t134.5 -318.5q0 -167 -99 -283.5t-280 -146.5l369 -563h-154l-358 553h-441v-553h-133zM317 676h461q181 0 275 84t94 233t-94 233.5t-275 84.5h-461v-635zM410 1913v2h122l154 -205h31l153 205h123v-2l-225 -295h-133z" />
    <glyph glyph-name="rcaron" unicode="&#x159;" horiz-adv-x="757" 
d="M164 0v1024h123v-195h2q3 8 10 22t34.5 49.5t62.5 62.5t96 49t133 22h112v-112h-112q-148 0 -243 -99.5t-95 -259.5v-563h-123zM164 1524v2h123l153 -205h31l154 205h123v-2l-226 -295h-133z" />
    <glyph glyph-name="Sacute" unicode="&#x15a;" horiz-adv-x="1300" 
d="M92 379h133q2 -6 5.5 -17t19.5 -41.5t36 -58.5t56.5 -62.5t79.5 -59t107 -41.5t137 -17q191 0 295 82.5t104 204.5q0 62 -31 110t-84 79.5t-121 57t-144 47t-151.5 45t-143.5 55.5t-121 73.5t-84 105t-31 143.5q0 77 34 147.5t95.5 124.5t155.5 86t206 32q76 0 142.5 -13
t116 -35t91.5 -50.5t70.5 -59.5t51 -62.5t35.5 -60t21.5 -50.5t11.5 -35l3 -13h-133q-1 5 -4 14.5t-16.5 36t-31 50.5t-51 53.5t-74 51t-101.5 36t-132 14.5q-169 0 -263.5 -77t-94.5 -190q0 -60 31 -107.5t84 -78.5t121 -56.5t144 -47.5t151.5 -45.5t143.5 -56.5t121 -74.5
t84 -105.5t31 -144q0 -81 -36 -155t-102.5 -131t-168.5 -90.5t-225 -33.5q-100 0 -186 23t-143 60t-103 82t-71.5 90t-42.5 82t-22 60zM594 1618l184 297h154v-2l-236 -295h-102z" />
    <glyph glyph-name="sacute" unicode="&#x15b;" horiz-adv-x="1044" 
d="M82 307h133q2 -4 5 -12t15.5 -30.5t28.5 -42.5t44.5 -45t61 -43t81 -30t102.5 -12q139 0 207.5 51t68.5 133q0 54 -38.5 90.5t-100 56t-135.5 35.5t-148 37t-135.5 51t-100 86.5t-38.5 135.5q0 114 101.5 195t277.5 81q73 0 136 -16.5t106 -42.5t77.5 -57.5t54.5 -63
t33 -57.5t18 -43l5 -16h-133q-2 7 -8 19.5t-29 44.5t-53 56t-85.5 44t-121.5 20q-123 0 -189.5 -48.5t-66.5 -115.5q0 -54 38.5 -90.5t100 -56t135.5 -35.5t148 -37t135.5 -51t100 -86.5t38.5 -135.5q0 -129 -103.5 -212.5t-295.5 -83.5q-79 0 -148 18t-115.5 47t-84.5 63.5
t-60 69.5t-37 64t-20 47zM461 1229l184 297h154v-2l-236 -295h-102z" />
    <glyph glyph-name="Scedilla" unicode="&#x15e;" horiz-adv-x="1300" 
d="M92 379h133q2 -6 5.5 -17t19.5 -41.5t36 -58.5t56.5 -62.5t79.5 -59t107 -41.5t137 -17q191 0 295 82.5t104 204.5q0 62 -31 110t-84 79.5t-121 57t-144 47t-151.5 45t-143.5 55.5t-121 73.5t-84 105t-31 143.5q0 77 34 147.5t95.5 124.5t155.5 86t206 32q76 0 142.5 -13
t116 -35t91.5 -50.5t70.5 -59.5t51 -62.5t35.5 -60t21.5 -50.5t11.5 -35l3 -13h-133q-1 5 -4 14.5t-16.5 36t-31 50.5t-51 53.5t-74 51t-101.5 36t-132 14.5q-169 0 -263.5 -77t-94.5 -190q0 -60 31 -107.5t84 -78.5t121 -56.5t144 -47.5t151.5 -45.5t143.5 -56.5t121 -74.5
t84 -105.5t31 -144q0 -162 -132 -279t-357 -129l-33 -74q70 -8 117 -57t47 -117q0 -86 -58.5 -140t-156.5 -54q-41 0 -77 10.5t-52 20.5l-15 10v92q6 -5 17 -11.5t48.5 -18t78.5 -11.5q53 0 82.5 27.5t29.5 74.5q0 40 -32 66t-91 26h-71l73 156q-92 6 -170 32t-130.5 63
t-94 80.5t-65 86.5t-39 78t-20.5 57z" />
    <glyph glyph-name="scedilla" unicode="&#x15f;" horiz-adv-x="1044" 
d="M82 307h133q2 -4 5 -12t15.5 -30.5t28.5 -42.5t44.5 -45t61 -43t81 -30t102.5 -12q139 0 207.5 51t68.5 133q0 54 -38.5 90.5t-100 56t-135.5 35.5t-148 37t-135.5 51t-100 86.5t-38.5 135.5q0 114 101.5 195t277.5 81q73 0 136 -16.5t106 -42.5t77.5 -57.5t54.5 -63
t33 -57.5t18 -43l5 -16h-133q-2 7 -8 19.5t-29 44.5t-53 56t-85.5 44t-121.5 20q-123 0 -189.5 -48.5t-66.5 -115.5q0 -54 38.5 -90.5t100 -56t135.5 -35.5t148 -37t135.5 -51t100 -86.5t38.5 -135.5q0 -124 -94.5 -205.5t-271.5 -88.5l-43 -95q70 -8 117 -57t47 -117
q0 -86 -58.5 -140t-156.5 -54q-41 0 -77 10.5t-51 20.5l-16 10v92q6 -5 17 -11.5t48.5 -18t78.5 -11.5q53 0 82.5 27.5t29.5 74.5q0 40 -32 66t-91 26h-71l84 177q-69 6 -129 27.5t-101 50.5t-74 63t-52.5 66t-32.5 58.5t-18 42.5z" />
    <glyph glyph-name="Scaron" unicode="&#x160;" horiz-adv-x="1300" 
d="M92 379h133q2 -6 5.5 -17t19.5 -41.5t36 -58.5t56.5 -62.5t79.5 -59t107 -41.5t137 -17q191 0 295 82.5t104 204.5q0 62 -31 110t-84 79.5t-121 57t-144 47t-151.5 45t-143.5 55.5t-121 73.5t-84 105t-31 143.5q0 77 34 147.5t95.5 124.5t155.5 86t206 32q76 0 142.5 -13
t116 -35t91.5 -50.5t70.5 -59.5t51 -62.5t35.5 -60t21.5 -50.5t11.5 -35l3 -13h-133q-1 5 -4 14.5t-16.5 36t-31 50.5t-51 53.5t-74 51t-101.5 36t-132 14.5q-169 0 -263.5 -77t-94.5 -190q0 -60 31 -107.5t84 -78.5t121 -56.5t144 -47.5t151.5 -45.5t143.5 -56.5t121 -74.5
t84 -105.5t31 -144q0 -81 -36 -155t-102.5 -131t-168.5 -90.5t-225 -33.5q-100 0 -186 23t-143 60t-103 82t-71.5 90t-42.5 82t-22 60zM348 1913v2h123l154 -205h30l154 205h123v-2l-225 -295h-134z" />
    <glyph glyph-name="scaron" unicode="&#x161;" horiz-adv-x="1044" 
d="M82 307h133q2 -4 5 -12t15.5 -30.5t28.5 -42.5t44.5 -45t61 -43t81 -30t102.5 -12q139 0 207.5 51t68.5 133q0 54 -38.5 90.5t-100 56t-135.5 35.5t-148 37t-135.5 51t-100 86.5t-38.5 135.5q0 114 101.5 195t277.5 81q73 0 136 -16.5t106 -42.5t77.5 -57.5t54.5 -63
t33 -57.5t18 -43l5 -16h-133q-2 7 -8 19.5t-29 44.5t-53 56t-85.5 44t-121.5 20q-123 0 -189.5 -48.5t-66.5 -115.5q0 -54 38.5 -90.5t100 -56t135.5 -35.5t148 -37t135.5 -51t100 -86.5t38.5 -135.5q0 -129 -103.5 -212.5t-295.5 -83.5q-79 0 -148 18t-115.5 47t-84.5 63.5
t-60 69.5t-37 64t-20 47zM225 1524v2h123l154 -205h30l154 205h123v-2l-225 -295h-133z" />
    <glyph glyph-name="Tcommaaccent" unicode="&#x162;" horiz-adv-x="1198" 
d="M20 1311v123h1158v-123h-512v-1311h-134v1311h-512zM492 -287q0 32 27.5 57t64.5 25q48 0 80 -40t32 -113q0 -91 -54 -149t-140 -66v61q54 7 83 37t29 76q0 9 -2.5 19t-5.5 16l-2 6q-11 -11 -31 -11q-38 0 -59.5 22t-21.5 60z" />
    <glyph glyph-name="tcommaaccent" unicode="&#x163;" horiz-adv-x="727" 
d="M51 911v113h144v225h122v-225h338v-113h-338v-798h349v-113h-471v911h-144zM338 -287q0 32 27.5 57t64.5 25q48 0 80.5 -40t32.5 -113q0 -91 -54.5 -149t-140.5 -66v61q54 7 83.5 37t29.5 76q0 9 -2.5 19t-4.5 16l-3 6q-11 -11 -31 -11q-38 0 -60 22t-22 60z" />
    <glyph glyph-name="Tcaron" unicode="&#x164;" horiz-adv-x="1198" 
d="M20 1311v123h1158v-123h-512v-1311h-134v1311h-512zM297 1913v2h123l153 -205h31l154 205h123v-2l-226 -295h-133z" />
    <glyph glyph-name="tcaron" unicode="&#x165;" horiz-adv-x="727" 
d="M430 1176q0 31 27 56t65 25q48 0 80.5 -40t32.5 -113q0 -91 -54.5 -149t-140.5 -66v61q54 7 83.5 37t29.5 76q0 9 -2.5 19t-4.5 16l-3 6q-11 -10 -31 -10q-38 0 -60 22t-22 60zM51 911v113h144v225h122v-1136h349v-113h-471v911h-144z" />
    <glyph glyph-name="Umacron" unicode="&#x16a;" horiz-adv-x="1454" 
d="M174 532v902h133v-902q0 -213 113 -331.5t307 -118.5t307 118.5t113 331.5v902h133v-902q0 -260 -153 -416.5t-400 -156.5t-400 156.5t-153 416.5zM471 1679v113h522v-113h-522z" />
    <glyph glyph-name="umacron" unicode="&#x16b;" horiz-adv-x="1208" 
d="M164 420v604h123v-604q0 -158 76.5 -243t209.5 -85q148 0 248.5 104.5t100.5 264.5v563h122v-1024h-122v174h-2q-17 -34 -45.5 -65.5t-72 -62t-108.5 -48.5t-141 -18q-172 0 -280.5 118.5t-108.5 321.5zM348 1280v113h522v-113h-522z" />
    <glyph glyph-name="Uring" unicode="&#x16e;" horiz-adv-x="1454" 
d="M174 532v902h133v-902q0 -213 113 -331.5t307 -118.5t307 118.5t113 331.5v902h133v-902q0 -260 -153 -416.5t-400 -156.5t-400 156.5t-153 416.5zM522 1761q0 85 60 145t145 60t145 -60t60 -145t-60 -145t-145 -60t-145 60t-60 145zM614 1761q0 -46 33.5 -79t79.5 -33
t79.5 33t33.5 79t-33.5 79.5t-79.5 33.5t-79.5 -33.5t-33.5 -79.5z" />
    <glyph glyph-name="uring" unicode="&#x16f;" horiz-adv-x="1208" 
d="M164 420v604h123v-604q0 -158 76.5 -243t209.5 -85q148 0 248.5 104.5t100.5 264.5v563h122v-1024h-122v174h-2q-17 -34 -45.5 -65.5t-72 -62t-108.5 -48.5t-141 -18q-172 0 -280.5 118.5t-108.5 321.5zM399 1403q0 85 60 145t145 60t145 -60t60 -145t-60 -145t-145 -60
t-145 60t-60 145zM492 1403q0 -46 33 -79.5t79 -33.5t79.5 33.5t33.5 79.5t-33.5 79.5t-79.5 33.5t-79 -33.5t-33 -79.5z" />
    <glyph glyph-name="Uhungarumlaut" unicode="&#x170;" horiz-adv-x="1454" 
d="M174 532v902h133v-902q0 -213 113 -331.5t307 -118.5t307 118.5t113 331.5v902h133v-902q0 -260 -153 -416.5t-400 -156.5t-400 156.5t-153 416.5zM819 1618l154 297h143v-2l-205 -295h-92zM522 1618l154 297h143v-2l-205 -295h-92z" />
    <glyph glyph-name="uhungarumlaut" unicode="&#x171;" horiz-adv-x="1208" 
d="M164 420v604h123v-604q0 -158 76.5 -243t209.5 -85q148 0 248.5 104.5t100.5 264.5v563h122v-1024h-122v174h-2q-17 -34 -45.5 -65.5t-72 -62t-108.5 -48.5t-141 -18q-172 0 -280.5 118.5t-108.5 321.5zM707 1229l153 297h144v-2l-205 -295h-92zM410 1229l153 297h144v-2
l-205 -295h-92z" />
    <glyph glyph-name="Uogonek" unicode="&#x172;" horiz-adv-x="1454" 
d="M174 532v902h133v-902q0 -213 113 -331.5t307 -118.5t307 118.5t113 331.5v902h133v-902q0 -226 -109.5 -364.5t-289.5 -187.5q-205 -111 -205 -246q0 -39 28.5 -65.5t73.5 -26.5q32 0 68 7.5t56 14.5l20 8v-92q-62 -41 -144 -41q-91 0 -148 53.5t-57 131.5
q0 125 156 235h-2q-247 0 -400 156.5t-153 416.5z" />
    <glyph glyph-name="uogonek" unicode="&#x173;" horiz-adv-x="1208" 
d="M164 420v604h123v-604q0 -158 76.5 -243t209.5 -85q148 0 248.5 104.5t100.5 264.5v563h122v-1024q-10 -4 -26.5 -12t-58.5 -34.5t-74.5 -55t-59 -73.5t-26.5 -91q0 -39 28.5 -65.5t73.5 -26.5q32 0 67.5 7.5t55.5 14.5l20 8v-92q-61 -41 -143 -41q-91 0 -148 53.5
t-57 131.5q0 49 23.5 96t56.5 80t66 59t56 39l24 12v4v160h-2q-17 -34 -45.5 -65.5t-72 -62t-108.5 -48.5t-141 -18q-172 0 -280.5 118.5t-108.5 321.5z" />
    <glyph glyph-name="Ydieresis" unicode="&#x178;" horiz-adv-x="1300" 
d="M20 1434h164l461 -758h10l461 758h164l-563 -912v-522h-133v522zM727 1741q0 38 27 65t65 27t65 -27t27 -65t-27 -65t-65 -27t-65 27t-27 65zM379 1741q0 38 27 65t65 27t65 -27t27 -65t-27 -65t-65 -27t-65 27t-27 65z" />
    <glyph glyph-name="Zacute" unicode="&#x179;" 
d="M72 0v123l901 1177v11h-871v123h1045v-123l-901 -1178v-10h911v-123h-1085zM543 1618l184 297h154v-2l-236 -295h-102z" />
    <glyph glyph-name="zacute" unicode="&#x17a;" horiz-adv-x="962" 
d="M61 0v113l656 796v2h-635v113h799v-113l-656 -796v-2h676v-113h-840zM420 1229l184 297h154v-2l-236 -295h-102z" />
    <glyph glyph-name="Zdotaccent" unicode="&#x17b;" 
d="M72 0v123l901 1177v11h-871v123h1045v-123l-901 -1178v-10h911v-123h-1085zM532 1741q0 38 27.5 65t65.5 27t65 -27t27 -65t-27 -65t-65 -27t-65.5 27t-27.5 65z" />
    <glyph glyph-name="zdotaccent" unicode="&#x17c;" horiz-adv-x="962" 
d="M61 0v113l656 796v2h-635v113h799v-113l-656 -796v-2h676v-113h-840zM399 1352q0 38 27.5 65t65.5 27t65 -27t27 -65t-27 -65t-65 -27t-65.5 27t-27.5 65z" />
    <glyph glyph-name="Zcaron" unicode="&#x17d;" 
d="M72 0v123l901 1177v11h-871v123h1045v-123l-901 -1178v-10h911v-123h-1085zM328 1913v2h123l153 -205h31l153 205h123v-2l-225 -295h-133z" />
    <glyph glyph-name="zcaron" unicode="&#x17e;" horiz-adv-x="962" 
d="M61 0v113l656 796v2h-635v113h799v-113l-656 -796v-2h676v-113h-840zM195 1524v2h122l154 -205h31l153 205h123v-2l-225 -295h-133z" />
    <glyph glyph-name="florin" unicode="&#x192;" horiz-adv-x="727" 
d="M-154 -389v113h308l174 1187h-123v113h143l62 410h430v-113h-328l-41 -297h266v-113h-286l-195 -1300h-410z" />
    <glyph glyph-name="uni01FA" unicode="&#x1fa;" horiz-adv-x="1372" 
d="M481 1761q0 79 55.5 138t133.5 65l88 145h123v-2l-123 -155q59 -22 96 -74.5t37 -116.5q0 -85 -60 -145t-145 -60t-145 60t-60 145zM573 1761q0 -46 33.5 -79t79.5 -33t79.5 33t33.5 79t-33.5 79.5t-79.5 33.5t-79.5 -33.5t-33.5 -79.5zM51 0l379 1434h512l379 -1434
h-133l-123 471h-758l-123 -471h-133zM338 594h696l-194 717h-308z" />
    <glyph glyph-name="uni01FB" unicode="&#x1fb;" horiz-adv-x="1259" 
d="M389 1403q0 79 55.5 138t133.5 65l88 145h122v-2l-122 -156q59 -22 96 -74t37 -116q0 -85 -60 -145t-145 -60t-145 60t-60 145zM481 1403q0 -46 33.5 -79.5t79.5 -33.5t79.5 33.5t33.5 79.5t-33.5 79.5t-79.5 33.5t-79.5 -33.5t-33.5 -79.5zM92 512q0 113 39.5 212.5
t106.5 169t157 110t189 40.5q76 0 144.5 -22t115.5 -56.5t78.5 -72t48.5 -74.5h2v205h123v-1024h-123v205h-2q-17 -37 -48.5 -74.5t-78.5 -72t-115.5 -56.5t-144.5 -22q-99 0 -189 40.5t-157 110t-106.5 169t-39.5 212.5zM215 512q0 -181 111 -300.5t268 -119.5
q151 0 265 120.5t114 299.5t-114 299.5t-265 120.5q-157 0 -268 -119.5t-111 -300.5z" />
    <glyph glyph-name="uni01FC" unicode="&#x1fc;" horiz-adv-x="1976" 
d="M51 0l379 1434h1454v-123h-799v-523h646v-122h-646v-543h799v-123h-932v471h-645l-123 -471h-133zM338 594h614v717h-420zM973 1618l184 297h154v-2l-236 -295h-102z" />
    <glyph glyph-name="uni01FD" unicode="&#x1fd;" horiz-adv-x="1976" 
d="M123 287q0 136 101.5 221.5t287.5 85.5h369v68q0 126 -73.5 198t-203.5 72q-72 0 -131 -22t-92 -54t-55.5 -63.5t-30.5 -53.5l-8 -22h-123q1 7 4.5 18.5t18 45.5t34 65t55.5 69t79.5 65t108.5 45.5t140 18.5q56 0 106.5 -12t85.5 -31t65 -42t48 -45.5t31 -41.5t18 -31
l5 -12h10q5 9 15 23.5t46.5 51.5t79.5 65.5t115.5 51.5t152.5 23q216 0 359 -145t143 -367v-51h-880q7 -168 115.5 -278.5t262.5 -110.5q74 0 138.5 23t103.5 56t67 66.5t39 56.5l11 23h123q-2 -7 -7 -19t-24 -47t-42.5 -67t-64 -71t-87.5 -67t-114.5 -47t-142.5 -19
q-65 0 -123.5 14.5t-100.5 38t-78 52t-59 57t-39 52t-23 38.5l-7 14h-10q-3 -6 -8 -15.5t-24.5 -37t-42.5 -52.5t-62.5 -56t-84 -53t-107.5 -37t-132 -15q-165 0 -261.5 86.5t-96.5 220.5zM1004 594h747q-15 148 -116 243t-253 95q-151 0 -252.5 -94t-125.5 -244zM246 287
q0 -88 65 -141.5t191 -53.5q166 0 272.5 112.5t106.5 276.5h-369q-133 0 -199.5 -52.5t-66.5 -141.5zM911 1229l185 297h153v-2l-235 -295h-103z" />
    <glyph glyph-name="uni01FE" unicode="&#x1fe;" horiz-adv-x="1679" 
d="M51 -10v153l172 142q-121 193 -121 432q0 162 56.5 303.5t154.5 241t235 156.5t292 57q161 0 300.5 -61.5t241.5 -172.5l246 203v-154l-174 -143q123 -188 123 -430q0 -162 -56.5 -303.5t-154 -241t-234.5 -156.5t-292 -57q-162 0 -303 60.5t-242 170.5zM236 717
q0 -199 88 -350l962 794q-83 92 -197.5 141.5t-248.5 49.5q-129 0 -241 -46.5t-192 -128.5t-125.5 -201t-45.5 -259zM393 272q82 -92 197 -141t250 -49q129 0 241 46.5t192 128.5t125.5 201t45.5 259q0 194 -88 348zM778 1618l185 297h153v-2l-235 -295h-103z" />
    <glyph glyph-name="uni01FF" unicode="&#x1ff;" 
d="M82 -10v153l90 76q-80 129 -80 293q0 229 149.5 380.5t372.5 151.5q107 0 202 -38.5t167 -108.5l164 137v-153l-90 -76q80 -132 80 -293q0 -229 -149.5 -380.5t-373.5 -151.5q-221 0 -368 147zM215 512q0 -121 51 -215l625 524q-111 111 -277 111q-170 0 -284.5 -118.5
t-114.5 -301.5zM336 203q114 -111 278 -111q170 0 285 118.5t115 301.5q0 119 -51 213zM553 1229l184 297h154v-2l-236 -295h-102z" />
    <glyph glyph-name="Scommaaccent" unicode="&#x218;" horiz-adv-x="1300" 
d="M92 379h133q2 -6 5.5 -17t19.5 -41.5t36 -58.5t56.5 -62.5t79.5 -59t107 -41.5t137 -17q191 0 295 82.5t104 204.5q0 62 -31 110t-84 79.5t-121 57t-144 47t-151.5 45t-143.5 55.5t-121 73.5t-84 105t-31 143.5q0 77 34 147.5t95.5 124.5t155.5 86t206 32q76 0 142.5 -13
t116 -35t91.5 -50.5t70.5 -59.5t51 -62.5t35.5 -60t21.5 -50.5t11.5 -35l3 -13h-133q-1 5 -4 14.5t-16.5 36t-31 50.5t-51 53.5t-74 51t-101.5 36t-132 14.5q-169 0 -263.5 -77t-94.5 -190q0 -60 31 -107.5t84 -78.5t121 -56.5t144 -47.5t151.5 -45.5t143.5 -56.5t121 -74.5
t84 -105.5t31 -144q0 -81 -36 -155t-102.5 -131t-168.5 -90.5t-225 -33.5q-100 0 -186 23t-143 60t-103 82t-71.5 90t-42.5 82t-22 60zM553 -287q0 32 27.5 57t64.5 25q48 0 80.5 -40t32.5 -113q0 -91 -54.5 -149t-140.5 -66v61q54 7 83.5 37t29.5 76q0 9 -2.5 19t-5.5 16
l-2 6q-11 -11 -31 -11q-38 0 -60 22t-22 60z" />
    <glyph glyph-name="scommaaccent" unicode="&#x219;" horiz-adv-x="1044" 
d="M82 307h133q2 -4 5 -12t15.5 -30.5t28.5 -42.5t44.5 -45t61 -43t81 -30t102.5 -12q139 0 207.5 51t68.5 133q0 54 -38.5 90.5t-100 56t-135.5 35.5t-148 37t-135.5 51t-100 86.5t-38.5 135.5q0 114 101.5 195t277.5 81q73 0 136 -16.5t106 -42.5t77.5 -57.5t54.5 -63
t33 -57.5t18 -43l5 -16h-133q-2 7 -8 19.5t-29 44.5t-53 56t-85.5 44t-121.5 20q-123 0 -189.5 -48.5t-66.5 -115.5q0 -54 38.5 -90.5t100 -56t135.5 -35.5t148 -37t135.5 -51t100 -86.5t38.5 -135.5q0 -129 -103.5 -212.5t-295.5 -83.5q-79 0 -148 18t-115.5 47t-84.5 63.5
t-60 69.5t-37 64t-20 47zM430 -287q0 32 27.5 57t64.5 25q48 0 80.5 -40t32.5 -113q0 -91 -54.5 -149t-140.5 -66v61q54 7 83.5 37t29.5 76q0 9 -2.5 19t-4.5 16l-3 6q-11 -11 -31 -11q-38 0 -60 22t-22 60z" />
    <glyph glyph-name="uni021A" unicode="&#x21a;" horiz-adv-x="1198" 
d="M20 1311v123h1158v-123h-512v-1311h-134v1311h-512zM492 -287q0 32 27.5 57t64.5 25q48 0 80 -40t32 -113q0 -91 -54 -149t-140 -66v61q54 7 83 37t29 76q0 9 -2.5 19t-5.5 16l-2 6q-11 -11 -31 -11q-38 0 -59.5 22t-21.5 60z" />
    <glyph glyph-name="uni021B" unicode="&#x21b;" horiz-adv-x="727" 
d="M51 911v113h144v225h122v-225h338v-113h-338v-798h349v-113h-471v911h-144zM338 -287q0 32 27.5 57t64.5 25q48 0 80.5 -40t32.5 -113q0 -91 -54.5 -149t-140.5 -66v61q54 7 83.5 37t29.5 76q0 9 -2.5 19t-4.5 16l-3 6q-11 -11 -31 -11q-38 0 -60 22t-22 60z" />
    <glyph glyph-name="afii57929" unicode="&#x2bc;" horiz-adv-x="327" 
d="M61 1352q0 31 27.5 56.5t65.5 25.5q48 0 80 -40.5t32 -113.5q0 -91 -54 -149t-140 -66v61q54 7 83 37t29 76q0 9 -2.5 19t-5.5 16l-2 6q-11 -10 -31 -10q-38 0 -60 22t-22 60z" />
    <glyph glyph-name="circumflex" unicode="&#x2c6;" horiz-adv-x="706" 
d="M61 1126v2l226 295h133l225 -295v-2h-123l-153 205h-31l-154 -205h-123z" />
    <glyph glyph-name="caron" unicode="&#x2c7;" horiz-adv-x="706" 
d="M61 1421v2h123l154 -204h31l153 204h123v-2l-225 -295h-133z" />
    <glyph glyph-name="breve" unicode="&#x2d8;" horiz-adv-x="675" 
d="M61 1393h113q0 -63 44.5 -103.5t119.5 -40.5t119.5 40.5t44.5 103.5h112q0 -102 -78 -174t-198 -72q-121 0 -199 72t-78 174z" />
    <glyph glyph-name="dotaccent" unicode="&#x2d9;" horiz-adv-x="307" 
d="M61 1331q0 38 27.5 65t65.5 27t65 -27t27 -65t-27 -65t-65 -27t-65.5 27t-27.5 65z" />
    <glyph glyph-name="ring" unicode="&#x2da;" horiz-adv-x="532" 
d="M61 1219q0 85 60 144.5t145 59.5t145 -59.5t60 -144.5t-60 -145t-145 -60t-145 60t-60 145zM154 1219q0 -46 33 -79.5t79 -33.5t79.5 33.5t33.5 79.5t-33.5 79t-79.5 33t-79 -33t-33 -79z" />
    <glyph glyph-name="ogonek" unicode="&#x2db;" horiz-adv-x="471" 
d="M61 -276q0 52 26.5 101t64 83t75 60.5t63.5 39.5l27 12l93 -20q-10 -4 -26.5 -12t-59 -34.5t-75 -55t-59 -73.5t-26.5 -91q0 -39 28.5 -65.5t73.5 -26.5q32 0 68 7.5t56 14.5l20 8v-92q-62 -41 -144 -41q-91 0 -148 53.5t-57 131.5z" />
    <glyph glyph-name="tilde" unicode="&#x2dc;" horiz-adv-x="737" 
d="M61 1188v53q0 75 49.5 123.5t125.5 48.5q45 0 86 -21t66.5 -45.5t56 -45.5t57.5 -21q31 0 51 20.5t20 51.5v51h103v-53q0 -75 -49 -123.5t-125 -48.5q-45 0 -86 21t-66.5 45.5t-56 45.5t-57.5 21q-31 0 -51.5 -20.5t-20.5 -51.5v-51h-103z" />
    <glyph glyph-name="hungarumlaut" unicode="&#x2dd;" horiz-adv-x="716" 
d="M358 1126l154 297h143v-2l-204 -295h-93zM61 1126l154 297h143v-2l-204 -295h-93z" />
    <glyph glyph-name="uni0301" unicode="&#x301;" horiz-adv-x="0" 
d="M-840 1690l144 235h123v-2l-185 -233h-82z" />
    <glyph glyph-name="uni030A" unicode="&#x30a;" horiz-adv-x="0" 
d="M-891 1556q0 85 60 145t145 60t145 -60t60 -145t-60 -144.5t-145 -59.5t-145 59.5t-60 144.5zM-799 1556q0 -46 33.5 -79t79.5 -33t79.5 33t33.5 79t-33.5 79.5t-79.5 33.5t-79.5 -33.5t-33.5 -79.5z" />
    <glyph glyph-name="afii10023" unicode="&#x401;" horiz-adv-x="1249" 
d="M184 0v1434h973v-123h-840v-523h687v-122h-687v-543h840v-123h-973zM766 1696q0 38 27 65t65 27t65 -27t27 -65t-27 -65t-65 -27t-65 27t-27 65zM418 1696q0 38 27 65t65 27t65 -27t27 -65t-27 -65t-65 -27t-65 27t-27 65z" />
    <glyph glyph-name="afii10051" unicode="&#x402;" horiz-adv-x="1587" 
d="M20 1311v123h1065v-123h-491v-451h389q228 0 365 -131t137 -340v-573h-430v123h297v450q0 163 -96.5 255.5t-272.5 92.5h-389v-737h-133v1311h-441z" />
    <glyph glyph-name="afii10052" unicode="&#x403;" horiz-adv-x="1126" 
d="M184 0v1434h901v-123h-768v-1311h-133zM584 1587l184 297h154v-2l-236 -295h-102z" />
    <glyph glyph-name="afii10053" unicode="&#x404;" horiz-adv-x="1638" 
d="M102 717q0 162 56.5 303.5t154.5 241t235 156.5t292 57q90 0 172 -17.5t143.5 -47t115 -68t91.5 -81t69 -85t50 -81t32 -68t18 -47.5l5 -17h-133q-3 8 -8 22t-26.5 54.5t-48.5 77t-74 81.5t-102 77.5t-134.5 54.5t-169.5 22q-250 0 -415 -157.5t-189 -406.5h645v-122
h-645q15 -255 183.5 -419.5t420.5 -164.5q92 0 173.5 23t138 60t103 82t75 90t48.5 82t28 60l7 23h133q-3 -11 -9.5 -30.5t-32.5 -76t-58.5 -108t-91.5 -114t-128 -107.5t-170 -76t-216 -31q-155 0 -292 57t-235 156.5t-154.5 241t-56.5 303.5z" />
    <glyph glyph-name="afii10054" unicode="&#x405;" horiz-adv-x="1300" 
d="M92 379h133q2 -6 5.5 -17t19.5 -41.5t36 -58.5t56.5 -62.5t79.5 -59t107 -41.5t137 -17q191 0 295 82.5t104 204.5q0 62 -31 110t-84 79.5t-121 57t-144 47t-151.5 45t-143.5 55.5t-121 73.5t-84 105t-31 143.5q0 77 34 147.5t95.5 124.5t155.5 86t206 32q76 0 142.5 -13
t116 -35t91.5 -50.5t70.5 -59.5t51 -62.5t35.5 -60t21.5 -50.5t11.5 -35l3 -13h-133q-1 5 -4 14.5t-16.5 36t-31 50.5t-51 53.5t-74 51t-101.5 36t-132 14.5q-169 0 -263.5 -77t-94.5 -190q0 -60 31 -107.5t84 -78.5t121 -56.5t144 -47.5t151.5 -45.5t143.5 -56.5t121 -74.5
t84 -105.5t31 -144q0 -81 -36 -155t-102.5 -131t-168.5 -90.5t-225 -33.5q-100 0 -186 23t-143 60t-103 82t-71.5 90t-42.5 82t-22 60z" />
    <glyph glyph-name="afii10055" unicode="&#x406;" horiz-adv-x="501" 
d="M184 0v1434h133v-1434h-133z" />
    <glyph glyph-name="afii10056" unicode="&#x407;" horiz-adv-x="501" 
d="M184 0v1434h133v-1434h-133zM338 1696q0 38 27 65t65 27t65 -27t27 -65t-27 -65t-65 -27t-65 27t-27 65zM-10 1696q0 38 27 65t65 27t65 -27t27 -65t-27 -65t-65 -27t-65 27t-27 65z" />
    <glyph glyph-name="afii10057" unicode="&#x408;" horiz-adv-x="1126" 
d="M0 317l133 31q1 -6 4 -15.5t15 -37t27.5 -52.5t44 -56t63 -53t85 -37t109.5 -15q156 0 247 97t91 272v983h133v-983q0 -229 -127 -360.5t-344 -131.5q-81 0 -152 19.5t-118.5 51.5t-86 70t-61 76t-37.5 70t-20 52z" />
    <glyph glyph-name="afii10058" unicode="&#x409;" horiz-adv-x="2119" 
d="M51 0l369 1434h696v-512h420q234 0 373 -129t139 -332t-139 -332t-373 -129h-553v1311h-471l-328 -1311h-133zM1116 123h420q182 0 280.5 91t98.5 247t-98.5 247t-280.5 91h-420v-676z" />
    <glyph glyph-name="afii10059" unicode="&#x40a;" horiz-adv-x="2283" 
d="M184 0v1434h133v-574h809v574h134v-574h450q233 0 367.5 -120.5t134.5 -309.5t-134.5 -309.5t-367.5 -120.5h-584v737h-809v-737h-133zM1260 123h450q180 0 274.5 82.5t94.5 224.5t-94.5 224.5t-274.5 82.5h-450v-614z" />
    <glyph glyph-name="afii10060" unicode="&#x40b;" horiz-adv-x="1587" 
d="M20 1311v123h1065v-123h-491v-451h389q228 0 365 -131t137 -340v-389h-133v389q0 163 -96.5 255.5t-272.5 92.5h-389v-737h-133v1311h-441z" />
    <glyph glyph-name="afii10061" unicode="&#x40c;" horiz-adv-x="1300" 
d="M184 0v1434h133v-646h318l461 646h164l-502 -697l522 -737h-164l-471 666h-328v-666h-133zM625 1587l184 297h154v-2l-236 -295h-102z" />
    <glyph glyph-name="afii10062" unicode="&#x40e;" 
d="M31 1434h143l297 -768h297l307 768h144l-574 -1434h-143l215 543h-338zM317 1864h113q0 -78 52 -126t143 -48t142.5 48t51.5 126h113q0 -118 -85.5 -197.5t-221.5 -79.5t-222 79.5t-86 197.5z" />
    <glyph glyph-name="afii10145" unicode="&#x40f;" horiz-adv-x="1464" 
d="M184 0v1434h133v-1311h830v1311h133v-1434h-481v-287h-133v287h-482z" />
    <glyph glyph-name="afii10017" unicode="&#x410;" horiz-adv-x="1372" 
d="M51 0l379 1434h512l379 -1434h-133l-123 471h-758l-123 -471h-133zM338 594h696l-194 717h-308z" />
    <glyph glyph-name="afii10018" unicode="&#x411;" horiz-adv-x="1372" 
d="M184 0v1434h983v-123h-850v-430h451q113 0 207.5 -34.5t159 -94t100 -140t35.5 -172.5q0 -189 -138 -314.5t-364 -125.5h-584zM317 123h451q173 0 271 88t98 229q0 142 -98 230t-271 88h-451v-635z" />
    <glyph glyph-name="afii10019" unicode="&#x412;" horiz-adv-x="1433" 
d="M184 0v1434h666q182 0 296 -108t114 -271q0 -48 -11 -91t-28 -73t-38 -55.5t-41.5 -41t-37.5 -26.5t-28 -16l-11 -4v-11q10 -3 27.5 -8.5t61.5 -31t78 -60t61.5 -98t27.5 -140.5q0 -174 -127 -286.5t-344 -112.5h-666zM317 799h533q129 0 202.5 69.5t73.5 186.5
t-73.5 186.5t-202.5 69.5h-533v-512zM317 123h533q164 0 251 74.5t87 201.5t-87 202t-251 75h-533v-553z" />
    <glyph glyph-name="afii10020" unicode="&#x413;" horiz-adv-x="1126" 
d="M184 0v1434h901v-123h-768v-1311h-133z" />
    <glyph glyph-name="afii10021" unicode="&#x414;" horiz-adv-x="1495" 
d="M10 -287v410h164l328 1311h491l328 -1311h164v-410h-133v287h-1209v-287h-133zM307 123h881l-297 1188h-287z" />
    <glyph glyph-name="afii10022" unicode="&#x415;" horiz-adv-x="1249" 
d="M184 0v1434h973v-123h-840v-523h687v-122h-687v-543h840v-123h-973z" />
    <glyph glyph-name="afii10024" unicode="&#x416;" horiz-adv-x="2017" 
d="M31 0l501 737l-481 697h164l440 -646h287v646h133v-646h287l440 646h164l-481 -697l502 -737h-164l-451 666h-297v-666h-133v666h-297l-450 -666h-164z" />
    <glyph glyph-name="afii10025" unicode="&#x417;" horiz-adv-x="1300" 
d="M72 399h133q1 -7 4 -18t17 -44t33.5 -63t55.5 -66.5t80.5 -63t112.5 -44.5t147 -18q192 0 296 84t104 213t-104 213t-296 84h-184v123h184q172 0 265.5 79.5t93.5 206.5q0 113 -94.5 190t-264.5 77q-69 0 -129 -16t-100.5 -41t-73.5 -56t-52 -61.5t-32 -55.5t-18 -41
l-4 -16h-133q2 9 6 23.5t22.5 57t42.5 81.5t68.5 86t97.5 81t133 57.5t172 23.5q112 0 206 -32t155.5 -86t96 -124.5t34.5 -147.5q0 -74 -25.5 -136.5t-61.5 -98t-72 -60t-62 -33.5l-25 -9v-11q6 -1 16.5 -4t40 -15t57 -28t60.5 -45.5t56.5 -64.5t40 -87.5t16.5 -113.5
q0 -85 -36.5 -160.5t-103 -133.5t-168.5 -92t-225 -34q-102 0 -189.5 24.5t-146 63t-104.5 85.5t-72 94t-43 85.5t-22 62.5z" />
    <glyph glyph-name="afii10026" unicode="&#x418;" horiz-adv-x="1484" 
d="M184 0v1434h133v-1260l-2 -20h2l799 1280h184v-1434h-133v1260l2 20h-2l-798 -1280h-185z" />
    <glyph glyph-name="afii10027" unicode="&#x419;" horiz-adv-x="1484" 
d="M184 0v1434h133v-1260l-2 -20h2l799 1280h184v-1434h-133v1260l2 20h-2l-798 -1280h-185zM446 1864h113q0 -78 52 -126t143 -48t142.5 48t51.5 126h113q0 -118 -85.5 -197.5t-221.5 -79.5t-222 79.5t-86 197.5z" />
    <glyph glyph-name="afii10028" unicode="&#x41a;" horiz-adv-x="1300" 
d="M184 0v1434h133v-646h318l461 646h164l-502 -697l522 -737h-164l-471 666h-328v-666h-133z" />
    <glyph glyph-name="afii10029" unicode="&#x41b;" horiz-adv-x="1341" 
d="M51 0l369 1434h502l368 -1434h-133l-338 1311h-297l-338 -1311h-133z" />
    <glyph glyph-name="afii10030" unicode="&#x41c;" horiz-adv-x="1873" 
d="M184 0v1434h215l471 -953h134l471 953h215v-1434h-134v1290l3 21h-3l-471 -953h-297l-471 953l-2 -2l2 -19v-1290h-133z" />
    <glyph glyph-name="afii10031" unicode="&#x41d;" horiz-adv-x="1464" 
d="M184 0v1434h133v-646h830v646h133v-1434h-133v666h-830v-666h-133z" />
    <glyph glyph-name="afii10032" unicode="&#x41e;" horiz-adv-x="1679" 
d="M102 717q0 162 56.5 303.5t154.5 241t235 156.5t292 57t292 -57t234.5 -156.5t154 -241t56.5 -303.5t-56.5 -303.5t-154 -241t-234.5 -156.5t-292 -57t-292 57t-235 156.5t-154.5 241t-56.5 303.5zM236 717q0 -140 45.5 -259t125.5 -201t192 -128.5t241 -46.5t241 46.5
t192 128.5t125.5 201t45.5 259t-45.5 259t-125.5 201t-192 128.5t-241 46.5t-241 -46.5t-192 -128.5t-125.5 -201t-45.5 -259z" />
    <glyph glyph-name="afii10033" unicode="&#x41f;" horiz-adv-x="1464" 
d="M184 0v1434h1096v-1434h-133v1311h-830v-1311h-133z" />
    <glyph glyph-name="afii10034" unicode="&#x420;" horiz-adv-x="1361" 
d="M184 0v1434h584q234 0 373 -129t139 -332t-139 -332t-373 -129h-451v-512h-133zM317 635h451q182 0 280.5 91t98.5 247t-98.5 247t-280.5 91h-451v-676z" />
    <glyph glyph-name="afii10035" unicode="&#x421;" horiz-adv-x="1638" 
d="M102 717q0 162 56.5 303.5t154.5 241t235 156.5t292 57q90 0 172 -17.5t143.5 -47t115 -68t91.5 -81t69 -85t50 -81t32 -68t18 -47.5l5 -17h-133q-3 8 -8 22t-26.5 54.5t-48.5 77t-74 81.5t-102 77.5t-134.5 54.5t-169.5 22q-129 0 -241 -46.5t-192 -128.5t-125.5 -201
t-45.5 -259t45.5 -259t125.5 -201t192 -128.5t241 -46.5q92 0 173.5 23t138 60t103 82t75 90t48.5 82t28 60l7 23h133q-3 -11 -9.5 -30.5t-32.5 -76t-58.5 -108t-91.5 -114t-128 -107.5t-170 -76t-216 -31q-155 0 -292 57t-235 156.5t-154.5 241t-56.5 303.5z" />
    <glyph glyph-name="afii10036" unicode="&#x422;" horiz-adv-x="1198" 
d="M20 1311v123h1158v-123h-512v-1311h-134v1311h-512z" />
    <glyph glyph-name="afii10037" unicode="&#x423;" 
d="M31 1434h143l297 -768h297l307 768h144l-574 -1434h-143l215 543h-338z" />
    <glyph glyph-name="afii10038" unicode="&#x424;" horiz-adv-x="1792" 
d="M92 727q0 126 52.5 240t146.5 200.5t233.5 138.5t304.5 56v164h134v-164q165 -4 304.5 -56t233.5 -138.5t146.5 -200.5t52.5 -240t-52.5 -240t-146.5 -200.5t-233.5 -138.5t-304.5 -56v-164h-134v164q-165 4 -304.5 56t-233.5 138.5t-146.5 200.5t-52.5 240zM963 215
q184 5 323 75.5t210 184t71 252.5t-71 252.5t-210 184t-323 75.5v-1024zM225 727q0 -139 71 -252.5t210 -184t323 -75.5v1024q-184 -5 -323 -75.5t-210 -184t-71 -252.5z" />
    <glyph glyph-name="afii10039" unicode="&#x425;" horiz-adv-x="1290" 
d="M51 0l389 717l-368 717h143l338 -656h184l338 656h144l-369 -717l389 -717h-143l-359 655h-184l-358 -655h-144z" />
    <glyph glyph-name="afii10040" unicode="&#x426;" horiz-adv-x="1454" 
d="M184 0v1434h135v-1311h766v1311h134v-1311h184v-410h-133v287h-1086z" />
    <glyph glyph-name="afii10041" unicode="&#x427;" horiz-adv-x="1372" 
d="M154 952v482h133v-482q0 -169 99.5 -268.5t268.5 -99.5q69 0 135.5 13.5t112 33t81.5 39.5t54 34l17 13v717h133v-1434h-133v584q-7 -5 -19.5 -13.5t-54.5 -29.5t-87.5 -37t-116 -29.5t-142.5 -13.5q-216 0 -348.5 134.5t-132.5 356.5z" />
    <glyph glyph-name="afii10042" unicode="&#x428;" horiz-adv-x="2037" 
d="M184 0v1434h135v-1311h633v1311h133v-1311h635v1311h133v-1434h-1669z" />
    <glyph glyph-name="afii10043" unicode="&#x429;" horiz-adv-x="2088" 
d="M184 0v1434h135v-1311h633v1311h133v-1311h635v1311h133v-1311h185v-410h-133v287h-1721z" />
    <glyph glyph-name="afii10044" unicode="&#x42a;" horiz-adv-x="1474" 
d="M0 1311v123h461v-512h430q234 0 373 -129t139 -332t-139 -332t-373 -129h-563v1311h-328zM461 123h430q182 0 280.5 91t98.5 247t-98.5 247t-280.5 91h-430v-676z" />
    <glyph glyph-name="afii10045" unicode="&#x42b;" horiz-adv-x="1751" 
d="M1434 0v1434h133v-1434h-133zM184 0v1434h133v-512h410q234 0 373 -129t139 -332t-139 -332t-373 -129h-543zM317 123h410q182 0 280.5 91t98.5 247t-98.5 247t-280.5 91h-410v-676z" />
    <glyph glyph-name="afii10046" unicode="&#x42c;" horiz-adv-x="1351" 
d="M184 0v1434h133v-512h451q234 0 373 -129t139 -332t-139 -332t-373 -129h-584zM317 123h451q182 0 280.5 91t98.5 247t-98.5 247t-280.5 91h-451v-676z" />
    <glyph glyph-name="afii10047" unicode="&#x42d;" horiz-adv-x="1628" 
d="M82 502h133l8 -24t26.5 -58.5t48.5 -83.5t75 -88.5t104 -83t137.5 -58.5t173.5 -24q252 0 421 164.5t184 419.5h-645v122h645q-24 249 -189.5 406.5t-415.5 157.5q-90 0 -169.5 -21.5t-135 -56t-101.5 -75.5t-74 -82.5t-48 -76t-28 -56.5l-7 -21h-133q3 11 9 29.5
t31 71.5t56.5 101.5t89.5 107.5t126 101.5t168.5 71.5t215.5 29q155 0 292 -57t235 -156.5t154.5 -241t56.5 -303.5t-56.5 -303.5t-154.5 -241t-235 -156.5t-292 -57q-158 0 -288.5 56t-204.5 135.5t-125.5 159.5t-69.5 136z" />
    <glyph glyph-name="afii10048" unicode="&#x42e;" horiz-adv-x="2088" 
d="M184 0v1434h133v-646h256q11 144 70.5 271t152 218.5t218.5 144.5t266 53q144 0 274 -57t225.5 -156.5t151.5 -241t56 -303.5t-56 -303.5t-151.5 -241t-225.5 -156.5t-274 -57q-140 0 -265.5 53t-218.5 146t-152.5 224.5t-70.5 283.5h-256v-666h-133zM707 717
q0 -139 45 -258.5t122.5 -201.5t182.5 -128.5t223 -46.5t223 46.5t182.5 128.5t122.5 201.5t45 258.5q0 181 -77 327t-208 227t-288 81t-288 -81t-208 -227t-77 -327z" />
    <glyph glyph-name="afii10049" unicode="&#x42f;" horiz-adv-x="1402" 
d="M123 993q0 196 134.5 318.5t367.5 122.5h594v-1434h-136v553h-469l-327 -553h-154l338 573q-152 32 -250 144.5t-98 275.5zM256 993q0 -149 94 -233t275 -84h458v635h-458q-181 0 -275 -84.5t-94 -233.5z" />
    <glyph glyph-name="afii10065" unicode="&#x430;" horiz-adv-x="1259" 
d="M92 512q0 113 39.5 212.5t106.5 169t157 110t189 40.5q76 0 144.5 -22t115.5 -56.5t78.5 -72t48.5 -74.5h2v205h123v-1024h-123v205h-2q-17 -37 -48.5 -74.5t-78.5 -72t-115.5 -56.5t-144.5 -22q-99 0 -189 40.5t-157 110t-106.5 169t-39.5 212.5zM215 512
q0 -181 111 -300.5t268 -119.5q151 0 265 120.5t114 299.5t-114 299.5t-265 120.5q-157 0 -268 -119.5t-111 -300.5z" />
    <glyph glyph-name="afii10066" unicode="&#x431;" horiz-adv-x="1146" 
d="M102 584q0 227 42.5 391.5t126 264.5t198.5 147t268 47h256v-113h-245q-241 0 -371.5 -139t-153.5 -434h2q4 8 12.5 21t41.5 46.5t72.5 59t107.5 46.5t145 21q126 0 234.5 -64t172.5 -175.5t64 -241.5q0 -200 -142.5 -340.5t-348.5 -140.5q-223 0 -352.5 152.5
t-129.5 451.5zM225 485q0 -177 101.5 -285t257.5 -108q154 0 261 108t107 265q0 151 -107.5 257.5t-260.5 106.5t-256 -100t-103 -244z" />
    <glyph glyph-name="afii10067" unicode="&#x432;" horiz-adv-x="1085" 
d="M164 0v1024h481q143 0 225 -74t82 -192q0 -47 -15 -85.5t-34 -60t-44.5 -38.5t-37.5 -21.5t-22 -7.5v-2q9 -2 24.5 -7t47.5 -24t57 -45t45 -73.5t20 -106.5q0 -127 -91.5 -207t-254.5 -80h-483zM287 594h358q90 0 137 41.5t47 112.5q0 78 -46.5 120.5t-137.5 42.5h-358
v-317zM287 113h358q113 0 169 48.5t56 135.5t-56 135.5t-169 48.5h-358v-368z" />
    <glyph glyph-name="afii10068" unicode="&#x433;" horiz-adv-x="870" 
d="M164 0v1024h686v-113h-563v-911h-123z" />
    <glyph glyph-name="afii10069" unicode="&#x434;" horiz-adv-x="1126" 
d="M10 -246v359h113l246 911h389l246 -911h112v-359h-112v246h-881v-246h-113zM246 113h635l-215 798h-205z" />
    <glyph glyph-name="afii10070" unicode="&#x435;" horiz-adv-x="1208" 
d="M92 512q0 151 68 273t185 190.5t259 68.5t259 -68t185 -188t68 -266v-51h-901q8 -162 118.5 -270.5t270.5 -108.5q77 0 143.5 23t106 56t68.5 66.5t40 56.5l11 23h123q-2 -7 -7 -19t-24.5 -47t-43 -67t-65 -71t-89 -67t-117 -47t-146.5 -19q-142 0 -259 68.5t-185 190.5
t-68 273zM215 584h768q-15 149 -121 248.5t-258 99.5q-151 0 -258 -99t-131 -249z" />
    <glyph glyph-name="afii10072" unicode="&#x436;" horiz-adv-x="1556" 
d="M10 0l400 532l-369 492h143l328 -430h205v430h123v-430h204l328 430h144l-369 -492l399 -532h-143l-359 481h-204v-481h-123v481h-205l-358 -481h-144z" />
    <glyph glyph-name="afii10073" unicode="&#x437;" horiz-adv-x="993" 
d="M51 297h123q1 -4 3 -11.5t12 -29t23.5 -40.5t39 -43t57 -41t79.5 -28.5t104 -11.5q139 0 212.5 56.5t73.5 138.5t-70 133t-216 51h-123v113h123q132 0 194 46.5t62 127.5q0 74 -66 124t-190 50q-67 0 -121.5 -18t-84 -43.5t-49 -51t-25.5 -43.5l-7 -18h-123q1 6 4 16.5
t16.5 40t31 56.5t51 60t74 56.5t101.5 40t132 16.5q176 0 277 -81t101 -195q0 -49 -18 -91t-41.5 -66t-53 -42.5t-45.5 -25t-26 -8.5v-3q185 -62 211 -209q4 -23 4 -47q0 -130 -105.5 -213t-303.5 -83q-79 0 -146.5 17.5t-111.5 45.5t-78.5 61.5t-53.5 67.5t-31.5 62
t-16.5 46z" />
    <glyph glyph-name="afii10074" unicode="&#x438;" horiz-adv-x="1187" 
d="M164 0v1024h123v-829l-2 -21h2l594 850h143v-1024h-123v829l2 21h-2l-594 -850h-143z" />
    <glyph glyph-name="afii10075" unicode="&#x439;" horiz-adv-x="1187" 
d="M164 0v1024h123v-829l-2 -21h2l594 850h143v-1024h-123v829l2 21h-2l-594 -850h-143zM307 1413h113q0 -64 46 -103.5t128 -39.5t128 39.5t46 103.5h113q0 -103 -80 -174.5t-207 -71.5t-207 71.5t-80 174.5z" />
    <glyph glyph-name="afii10076" unicode="&#x43a;" horiz-adv-x="1054" 
d="M164 0v1024h123v-430h245l338 430h144l-379 -492l409 -532h-143l-369 481h-245v-481h-123z" />
    <glyph glyph-name="afii10077" unicode="&#x43b;" horiz-adv-x="1054" 
d="M41 0l287 1024h399l287 -1024h-123l-256 911h-215l-256 -911h-123z" />
    <glyph glyph-name="afii10078" unicode="&#x43c;" horiz-adv-x="1433" 
d="M164 0v1024h184l338 -655h62l337 655h185v-1024h-123v860l2 21h-2l-328 -635h-205l-327 635h-2l2 -21v-860h-123z" />
    <glyph glyph-name="afii10079" unicode="&#x43d;" horiz-adv-x="1187" 
d="M164 0v1024h123v-451h614v451h123v-1024h-123v461h-614v-461h-123z" />
    <glyph glyph-name="afii10080" unicode="&#x43e;" 
d="M92 512q0 229 149.5 380.5t372.5 151.5q224 0 373.5 -151.5t149.5 -380.5t-149.5 -380.5t-373.5 -151.5q-223 0 -372.5 151.5t-149.5 380.5zM215 512q0 -183 114.5 -301.5t284.5 -118.5t285 118.5t115 301.5t-115 301.5t-285 118.5t-284.5 -118.5t-114.5 -301.5z" />
    <glyph glyph-name="afii10081" unicode="&#x43f;" horiz-adv-x="1177" 
d="M164 0v1024h850v-1024h-123v911h-604v-911h-123z" />
    <glyph glyph-name="afii10082" unicode="&#x440;" horiz-adv-x="1259" 
d="M164 -389v1413h123v-205h2q17 37 48.5 74.5t78.5 72t115.5 56.5t144.5 22q99 0 189 -40.5t156.5 -110t106 -169t39.5 -212.5t-39.5 -212.5t-106 -169t-156.5 -110t-189 -40.5q-76 0 -144.5 22t-115.5 56.5t-78.5 72t-48.5 74.5h-2v-594h-123zM287 512q0 -179 114 -299.5
t265 -120.5q157 0 267.5 119.5t110.5 300.5t-110.5 300.5t-267.5 119.5q-151 0 -265 -120.5t-114 -299.5z" />
    <glyph glyph-name="afii10083" unicode="&#x441;" horiz-adv-x="1167" 
d="M92 512q0 113 40 212.5t107.5 169t160 110t194.5 40.5q79 0 148.5 -19.5t117 -51.5t86.5 -70t62.5 -76t39 -70t21.5 -51l6 -20h-123q-3 10 -10.5 26.5t-37 59t-66 75t-102 59t-142.5 26.5q-157 0 -268 -119.5t-111 -300.5t111 -300.5t268 -119.5q80 0 147.5 27.5
t107 66.5t67 78t37.5 66l10 28h122q-2 -8 -6 -21.5t-21.5 -53t-40 -75t-63 -79t-88.5 -75t-119.5 -53t-152.5 -21.5q-102 0 -194.5 40.5t-160 110t-107.5 169t-40 212.5z" />
    <glyph glyph-name="afii10084" unicode="&#x442;" horiz-adv-x="880" 
d="M10 911v113h860v-113h-368v-911h-123v911h-369z" />
    <glyph glyph-name="afii10085" unicode="&#x443;" horiz-adv-x="1034" 
d="M51 1024h133l236 -911h194l267 911h133l-420 -1413h-133l123 389h-256z" />
    <glyph glyph-name="afii10086" unicode="&#x444;" horiz-adv-x="1351" 
d="M82 512q0 142 68.5 259.5t190.5 187.5t273 75v400h123v-400q151 -5 273.5 -75t191 -187.5t68.5 -259.5t-68.5 -259.5t-191 -187.5t-273.5 -75v-379h-123v379q-151 5 -273 75t-190.5 187.5t-68.5 259.5zM737 102q173 8 291.5 122.5t118.5 287.5t-118.5 287.5t-291.5 122.5
v-820zM205 512q0 -173 118 -287.5t291 -122.5v820q-173 -8 -291 -122.5t-118 -287.5z" />
    <glyph glyph-name="afii10087" unicode="&#x445;" horiz-adv-x="993" 
d="M20 0l308 522l-287 502h143l246 -440h133l246 440h143l-286 -502l307 -522h-144l-266 471h-133l-266 -471h-144z" />
    <glyph glyph-name="afii10088" unicode="&#x446;" horiz-adv-x="1177" 
d="M164 0v1024h123v-911h573v911h123v-911h154v-359h-123v246h-850z" />
    <glyph glyph-name="afii10089" unicode="&#x447;" horiz-adv-x="1116" 
d="M133 666v358h123v-358q0 -246 256 -246q87 0 166 23t115 46l36 23v512h123v-1024h-123v399q-5 -4 -14.5 -10t-41 -22t-66 -28t-87.5 -22t-108 -10q-175 0 -277 98t-102 261z" />
    <glyph glyph-name="afii10090" unicode="&#x448;" horiz-adv-x="1617" 
d="M164 0v1024h123v-911h461v911h122v-911h461v911h123v-1024h-1290z" />
    <glyph glyph-name="afii10091" unicode="&#x449;" horiz-adv-x="1648" 
d="M164 0v1024h123v-911h461v911h122v-911h461v911h123v-911h154v-359h-123v246h-1321z" />
    <glyph glyph-name="afii10092" unicode="&#x44a;" horiz-adv-x="1085" 
d="M0 911v113h358v-369h297q166 0 267.5 -93t101.5 -234t-101.5 -234.5t-267.5 -93.5h-419v911h-236zM358 113h297q113 0 179.5 60.5t66.5 154.5t-66.5 154.5t-179.5 60.5h-297v-430z" />
    <glyph glyph-name="afii10093" unicode="&#x44b;" horiz-adv-x="1372" 
d="M1085 0v1024h123v-1024h-123zM164 0v1024h123v-369h276q166 0 267.5 -93t101.5 -234t-101.5 -234.5t-267.5 -93.5h-399zM287 113h276q113 0 179.5 60.5t66.5 154.5t-66.5 154.5t-179.5 60.5h-276v-430z" />
    <glyph glyph-name="afii10094" unicode="&#x44c;" horiz-adv-x="1034" 
d="M164 0v1024h123v-369h317q166 0 267.5 -93t101.5 -234t-101.5 -234.5t-267.5 -93.5h-440zM287 113h317q113 0 179.5 60.5t66.5 154.5t-66.5 154.5t-179.5 60.5h-317v-430z" />
    <glyph glyph-name="afii10095" unicode="&#x44d;" horiz-adv-x="1157" 
d="M72 358h123q3 -11 10.5 -29t37 -63.5t67 -81t105.5 -64t148 -28.5q145 0 250.5 103.5t128.5 265.5h-461v112h461q-24 156 -129 257.5t-250 101.5q-56 0 -106 -13.5t-85 -35.5t-64.5 -48t-48 -52t-31.5 -48t-18 -35l-5 -14h-123q2 7 6 20t21.5 50.5t39.5 71t61.5 75
t86.5 71t117 50t149 20.5q102 0 194.5 -40.5t160 -110t107.5 -169t40 -212.5t-40 -212.5t-107.5 -169t-160 -110t-194.5 -40.5q-81 0 -152.5 21t-120 54t-88 73.5t-63 81t-39.5 73.5t-22 54z" />
    <glyph glyph-name="afii10096" unicode="&#x44e;" horiz-adv-x="1566" 
d="M164 0v1024h123v-461h184q23 209 163.5 345t338.5 136q102 0 194.5 -40.5t160 -110t107.5 -169t40 -212.5t-40 -212.5t-107.5 -169t-160 -110t-194.5 -40.5q-197 0 -337.5 134.5t-164.5 336.5h-184v-451h-123zM594 512q0 -181 111 -300.5t268 -119.5t268 119.5t111 300.5
t-111 300.5t-268 119.5t-268 -119.5t-111 -300.5z" />
    <glyph glyph-name="afii10097" unicode="&#x44f;" horiz-adv-x="1116" 
d="M123 0l215 379q-85 26 -150 109t-65 198q0 141 106.5 239.5t272.5 98.5h450v-1024h-123v348h-378l-185 -348h-143zM246 686q0 -94 71.5 -159.5t184.5 -65.5h327v450h-327q-113 0 -184.5 -65.5t-71.5 -159.5z" />
    <glyph glyph-name="afii10071" unicode="&#x451;" horiz-adv-x="1208" 
d="M92 512q0 151 68 273t185 190.5t259 68.5t259 -68t185 -188t68 -266v-51h-901q8 -162 118.5 -270.5t270.5 -108.5q77 0 143.5 23t106 56t68.5 66.5t40 56.5l11 23h123q-2 -7 -7 -19t-24.5 -47t-43 -67t-65 -71t-89 -67t-117 -47t-146.5 -19q-142 0 -259 68.5t-185 190.5
t-68 273zM215 584h768q-15 149 -121 248.5t-258 99.5q-151 0 -258 -99t-131 -249zM676 1280q0 38 27 65t65 27t65 -27t27 -65t-27 -65t-65 -27t-65 27t-27 65zM328 1280q0 38 27 65t65 27t65 -27t27 -65t-27 -65t-65 -27t-65 27t-27 65z" />
    <glyph glyph-name="afii10099" unicode="&#x452;" horiz-adv-x="1177" 
d="M31 1085v113h143v236h123v-236h266v-113h-266v-399h2q17 34 45.5 65.5t72 62t108.5 49t141 18.5q172 0 280.5 -119t108.5 -322v-829h-430v113h307v716q0 158 -77 243t-210 85q-148 0 -248 -104.5t-100 -264.5v-399h-123v1085h-143z" />
    <glyph glyph-name="afii10100" unicode="&#x453;" horiz-adv-x="870" 
d="M164 0v1024h686v-113h-563v-911h-123zM451 1167l184 297h153v-2l-235 -295h-102z" />
    <glyph glyph-name="afii10101" unicode="&#x454;" horiz-adv-x="1167" 
d="M92 512q0 113 40 212.5t107.5 169t160 110t194.5 40.5q79 0 148.5 -19.5t117 -51.5t86.5 -70t62.5 -76t39 -70t21.5 -51l6 -20h-123q-3 10 -10.5 26.5t-37 59t-66 75t-102 59t-142.5 26.5q-145 0 -250 -101.5t-129 -257.5h461v-112h-461q23 -162 128.5 -265.5
t250.5 -103.5q80 0 147.5 27.5t107 66.5t67 78t37.5 66l10 28h122q-2 -8 -6 -21.5t-21.5 -53t-40 -75t-63 -79t-88.5 -75t-119.5 -53t-152.5 -21.5q-102 0 -194.5 40.5t-160 110t-107.5 169t-40 212.5z" />
    <glyph glyph-name="afii10102" unicode="&#x455;" horiz-adv-x="1044" 
d="M82 307h133q2 -4 5 -12t15.5 -30.5t28.5 -42.5t44.5 -45t61 -43t81 -30t102.5 -12q139 0 207.5 51t68.5 133q0 54 -38.5 90.5t-100 56t-135.5 35.5t-148 37t-135.5 51t-100 86.5t-38.5 135.5q0 114 101.5 195t277.5 81q73 0 136 -16.5t106 -42.5t77.5 -57.5t54.5 -63
t33 -57.5t18 -43l5 -16h-133q-2 7 -8 19.5t-29 44.5t-53 56t-85.5 44t-121.5 20q-123 0 -189.5 -48.5t-66.5 -115.5q0 -54 38.5 -90.5t100 -56t135.5 -35.5t148 -37t135.5 -51t100 -86.5t38.5 -135.5q0 -129 -103.5 -212.5t-295.5 -83.5q-79 0 -148 18t-115.5 47t-84.5 63.5
t-60 69.5t-37 64t-20 47z" />
    <glyph glyph-name="afii10103" unicode="&#x456;" horiz-adv-x="450" 
d="M133 1331q0 38 27 65t65 27t65 -27t27 -65t-27 -65t-65 -27t-65 27t-27 65zM164 0v1024h123v-1024h-123z" />
    <glyph glyph-name="afii10104" unicode="&#x457;" horiz-adv-x="450" 
d="M164 0v1024h123v-1024h-123zM307 1331q0 38 27 65t65 27t65.5 -27t27.5 -65t-27.5 -65t-65.5 -27t-65 27t-27 65zM-41 1331q0 38 27 65t65 27t65 -27t27 -65t-27 -65t-65 -27t-65 27t-27 65z" />
    <glyph glyph-name="afii10105" unicode="&#x458;" horiz-adv-x="450" 
d="M133 1331q0 38 27 65t65 27t65 -27t27 -65t-27 -65t-65 -27t-65 27t-27 65zM-133 -389v113h297v1300h123v-1413h-420z" />
    <glyph glyph-name="afii10106" unicode="&#x459;" horiz-adv-x="1587" 
d="M41 0l287 1024h532v-369h297q166 0 267.5 -93t101.5 -234t-101.5 -234.5t-267.5 -93.5h-420v911h-317l-256 -911h-123zM860 113h297q113 0 179.5 60.5t66.5 154.5t-66.5 154.5t-179.5 60.5h-297v-430z" />
    <glyph glyph-name="afii10107" unicode="&#x45a;" horiz-adv-x="1730" 
d="M164 0v1024h123v-410h594v410h123v-410h317q158 0 253 -87t95 -220t-95 -220t-253 -87h-440v502h-594v-502h-123zM1004 113h317q105 0 165 53.5t60 140.5t-60 141t-165 54h-317v-389z" />
    <glyph glyph-name="afii10108" unicode="&#x45b;" horiz-adv-x="1177" 
d="M31 1085v113h143v236h123v-236h266v-113h-266v-399h2q17 34 45.5 65.5t72 62t108.5 49t141 18.5q172 0 280.5 -119t108.5 -322v-440h-123v440q0 158 -77 243t-210 85q-148 0 -248 -104.5t-100 -264.5v-399h-123v1085h-143z" />
    <glyph glyph-name="afii10109" unicode="&#x45c;" horiz-adv-x="1054" 
d="M164 0v1024h123v-430h245l338 430h144l-379 -492l409 -532h-143l-369 481h-245v-481h-123zM487 1149l185 297h153v-2l-235 -295h-103z" />
    <glyph glyph-name="afii10110" unicode="&#x45e;" horiz-adv-x="1034" 
d="M51 1024h133l236 -911h194l267 911h133l-420 -1413h-133l123 389h-256zM246 1413h112q0 -64 46 -103.5t128 -39.5q83 0 129 40t46 103h112q0 -103 -80 -174.5t-207 -71.5t-206.5 71.5t-79.5 174.5z" />
    <glyph glyph-name="afii10193" unicode="&#x45f;" horiz-adv-x="1177" 
d="M164 0v1024h123v-911h604v911h123v-1024h-359v-246h-123v246h-368z" />
    <glyph glyph-name="afii10050" unicode="&#x490;" horiz-adv-x="1126" 
d="M184 0v1434h768v204h133v-327h-768v-1311h-133z" />
    <glyph glyph-name="afii10098" unicode="&#x491;" horiz-adv-x="870" 
d="M164 0v1024h563v184h123v-297h-563v-911h-123z" />
    <glyph glyph-name="uni1E9E" unicode="&#x1e9e;" horiz-adv-x="1433" 
d="M174 0v942q0 235 136 363.5t407 128.5h526v-125l-383 -418v-10q227 -15 354 -135t127 -306q0 -191 -144.5 -315.5t-397.5 -124.5h-144v123h144q192 0 300.5 90.5t108.5 226.5q0 137 -108.5 227.5t-300.5 90.5h-103v133l369 409h-348q-220 0 -315 -86.5t-95 -279.5v-934
h-133z" />
    <glyph glyph-name="endash" unicode="&#x2013;" horiz-adv-x="1361" 
d="M123 492v112h1116v-112h-1116z" />
    <glyph glyph-name="emdash" unicode="&#x2014;" horiz-adv-x="1751" 
d="M123 492v112h1505v-112h-1505z" />
    <glyph glyph-name="quoteleft" unicode="&#x2018;" horiz-adv-x="399" 
d="M92 1208q0 105 55 168t150 78v-61q-123 -30 -123 -133q0 -10 2.5 -20.5t5.5 -15.5l2 -5q21 10 41 10q31 0 56.5 -25.5t25.5 -56.5q0 -46 -28 -74.5t-74 -28.5q-49 0 -81 41.5t-32 122.5z" />
    <glyph glyph-name="quoteright" unicode="&#x2019;" horiz-adv-x="399" 
d="M92 1352q0 46 28.5 74t74.5 28q49 0 80.5 -41.5t31.5 -122.5q0 -104 -55 -167.5t-150 -78.5v62q123 30 123 133q0 10 -2.5 20.5t-4.5 15.5l-3 5q-21 -10 -41 -10q-31 0 -56.5 25.5t-25.5 56.5z" />
    <glyph glyph-name="quotesinglbase" unicode="&#x201a;" horiz-adv-x="399" 
d="M92 61q0 46 28.5 74.5t74.5 28.5q49 0 80.5 -41.5t31.5 -122.5q0 -104 -55 -167.5t-150 -78.5v62q123 30 123 133q0 10 -2.5 20.5t-4.5 15.5l-3 5q-21 -10 -41 -10q-31 0 -56.5 25t-25.5 56z" />
    <glyph glyph-name="quotedblleft" unicode="&#x201c;" horiz-adv-x="686" 
d="M92 1208q0 105 55 168t150 78v-61q-123 -30 -123 -133q0 -10 2.5 -20.5t5.5 -15.5l2 -5q21 10 41 10q31 0 56.5 -25.5t25.5 -56.5q0 -46 -28 -74.5t-74 -28.5q-49 0 -81 41.5t-32 122.5zM379 1208q0 105 55 168t150 78v-61q-123 -30 -123 -133q0 -10 2.5 -20.5t4.5 -15.5
l3 -5q21 10 41 10q31 0 56.5 -25.5t25.5 -56.5q0 -46 -28 -74.5t-74 -28.5q-49 0 -81 41.5t-32 122.5z" />
    <glyph glyph-name="quotedblright" unicode="&#x201d;" horiz-adv-x="686" 
d="M92 1352q0 46 28.5 74t74.5 28q49 0 80.5 -41.5t31.5 -122.5q0 -104 -55 -167.5t-150 -78.5v62q123 30 123 133q0 10 -2.5 20.5t-4.5 15.5l-3 5q-21 -10 -41 -10q-31 0 -56.5 25.5t-25.5 56.5zM379 1352q0 46 28 74t74 28q49 0 81 -41.5t32 -122.5q0 -104 -55 -167.5
t-150 -78.5v62q123 30 123 133q0 10 -2.5 20.5t-5.5 15.5l-2 5q-21 -10 -41 -10q-31 0 -56.5 25.5t-25.5 56.5z" />
    <glyph glyph-name="quotedblbase" unicode="&#x201e;" horiz-adv-x="686" 
d="M92 61q0 46 28.5 74.5t74.5 28.5q49 0 80.5 -41.5t31.5 -122.5q0 -104 -55 -167.5t-150 -78.5v62q123 30 123 133q0 10 -2.5 20.5t-4.5 15.5l-3 5q-21 -10 -41 -10q-31 0 -56.5 25t-25.5 56zM379 61q0 46 28 74.5t74 28.5q49 0 81 -41.5t32 -122.5q0 -104 -55 -167.5
t-150 -78.5v62q123 30 123 133q0 10 -2.5 20.5t-5.5 15.5l-2 5q-21 -10 -41 -10q-31 0 -56.5 25t-25.5 56z" />
    <glyph glyph-name="dagger" unicode="&#x2020;" horiz-adv-x="942" 
d="M102 901v123h308v410h122v-410h308v-123h-308v-901h-122v901h-308z" />
    <glyph glyph-name="daggerdbl" unicode="&#x2021;" horiz-adv-x="942" 
d="M102 328v123h308v532h-308v123h308v328h122v-328h308v-123h-308v-532h308v-123h-308v-328h-122v328h-308z" />
    <glyph glyph-name="bullet" unicode="&#x2022;" horiz-adv-x="757" 
d="M246 573q0 54 39.5 94t93.5 40t93.5 -40t39.5 -94t-39.5 -93.5t-93.5 -39.5t-93.5 39.5t-39.5 93.5z" />
    <glyph glyph-name="ellipsis" unicode="&#x2026;" horiz-adv-x="1269" 
d="M92 72q0 47 28.5 74.5t74.5 27.5t74 -28t28 -74t-28 -74.5t-74 -28.5q-45 0 -74 29t-29 74zM532 72q0 47 28.5 74.5t74.5 27.5t74 -28t28 -74t-28 -74.5t-74 -28.5q-45 0 -74 29t-29 74zM973 72q0 47 28 74.5t74 27.5t74.5 -28t28.5 -74t-28.5 -74.5t-74.5 -28.5
q-45 0 -73.5 29t-28.5 74z" />
    <glyph glyph-name="perthousand" unicode="&#x2030;" horiz-adv-x="2314" 
d="M82 1116q0 138 100 238t238 100t238 -100t100 -238t-100 -238t-238 -100t-238 100t-100 238zM287 0l860 1434h133l-860 -1434h-133zM205 1116q0 -99 61 -162t154 -63t154 63t61 162t-61 162t-154 63t-154 -63t-61 -162zM1556 317q0 138 100 238t238 100t238 -100
t100 -238t-100 -237.5t-238 -99.5t-238 99.5t-100 237.5zM799 317q0 138 100 238t238 100t238 -100t100 -238t-100 -237.5t-238 -99.5t-238 99.5t-100 237.5zM1679 317q0 -99 61 -162t154 -63t154 63t61 162t-61 162.5t-154 63.5t-154 -63.5t-61 -162.5zM922 317
q0 -99 61 -162t154 -63t154 63t61 162t-61 162.5t-154 63.5t-154 -63.5t-61 -162.5z" />
    <glyph glyph-name="guilsinglleft" unicode="&#x2039;" horiz-adv-x="727" 
d="M82 512l471 481l82 -82l-389 -399l389 -399l-82 -82z" />
    <glyph glyph-name="guilsinglright" unicode="&#x203a;" horiz-adv-x="727" 
d="M92 113l389 399l-389 399l82 82l471 -481l-471 -481z" />
    <glyph glyph-name="fraction" unicode="&#x2044;" horiz-adv-x="286" 
d="M-358 0l880 1434h123l-881 -1434h-122z" />
    <glyph glyph-name="zerosuperior" unicode="&#x2070;" horiz-adv-x="757" 
d="M61 1290q0 165 92 267t226 102t225.5 -102t91.5 -267t-91.5 -266.5t-225.5 -101.5t-226 101.5t-92 266.5zM184 1290q0 -120 54 -188t141 -68t140.5 68t53.5 188t-53.5 188t-140.5 68t-141 -68t-54 -188z" />
    <glyph glyph-name="foursuperior" unicode="&#x2074;" horiz-adv-x="655" 
d="M41 1096v112l276 430h134l-277 -430h225v144h123v-144h103v-112h-103v-154h-123v154h-358z" />
    <glyph glyph-name="fivesuperior" unicode="&#x2075;" horiz-adv-x="706" 
d="M82 1137h133q1 -4 4 -11t15 -25t27.5 -31.5t44.5 -24.5t63 -11q163 0 163 133q0 49 -45 86t-118 37q-26 0 -50.5 -6.5t-41 -15t-29 -17.5t-18.5 -15l-5 -7l-112 20l20 389h461v-112h-348l-13 -174h3q6 6 17 14.5t51 22.5t85 14q121 0 193.5 -67t72.5 -169
q0 -109 -74 -177t-204 -68q-52 0 -96 12t-73.5 31t-53 42t-36.5 45.5t-21.5 41.5t-11.5 31z" />
    <glyph glyph-name="sixsuperior" unicode="&#x2076;" horiz-adv-x="675" 
d="M51 1167q0 123 103 246l184 225h143l-153 -186l-62 -49v-10q41 20 72 20q127 0 207 -71.5t80 -174.5t-80 -174t-207 -71t-207 71t-80 174zM174 1167q0 -56 45 -94.5t119 -38.5t119 38.5t45 94.5t-45 94.5t-119 38.5t-119 -38.5t-45 -94.5z" />
    <glyph glyph-name="sevensuperior" unicode="&#x2077;" horiz-adv-x="583" 
d="M41 1526v112h522v-112l-307 -584h-133l307 582v2h-389z" />
    <glyph glyph-name="eightsuperior" unicode="&#x2078;" horiz-adv-x="757" 
d="M72 1126q0 37 14.5 68.5t36 50.5t42.5 32t35 18l15 5v11l-12.5 5t-27 16t-34.5 29t-27 43.5t-12 59.5q0 82 73 138.5t204 56.5t203.5 -56.5t72.5 -138.5q0 -32 -11.5 -59t-28 -43.5t-33 -28.5t-28.5 -17l-11 -5v-11q6 -2 15.5 -5.5t34 -17.5t43.5 -32t34.5 -50t15.5 -69
q0 -83 -81 -143.5t-226 -60.5t-226 60.5t-81 143.5zM236 1456q0 -42 35 -68t108 -26t108 26t35 68q0 40 -35.5 65t-107.5 25t-107.5 -25t-35.5 -65zM195 1137q0 -43 45.5 -73t138.5 -30t138.5 30t45.5 73t-45.5 72.5t-138.5 29.5t-138.5 -29.5t-45.5 -72.5z" />
    <glyph glyph-name="ninesuperior" unicode="&#x2079;" horiz-adv-x="675" 
d="M51 1413q0 103 80 174.5t207 71.5t207 -71.5t80 -174.5q0 -123 -103 -246l-184 -225h-143l153 186l62 50v10q-41 -21 -72 -21q-127 0 -207 71.5t-80 174.5zM174 1413q0 -56 45 -94.5t119 -38.5t119 38.5t45 94.5t-45 94.5t-119 38.5t-119 -38.5t-45 -94.5z" />
    <glyph glyph-name="zeroinferior" unicode="&#x2080;" horiz-adv-x="757" 
d="M61 143q0 165 92 267t226 102t225.5 -102t91.5 -267t-91.5 -266.5t-225.5 -101.5t-226 101.5t-92 266.5zM184 143q0 -120 54 -188t141 -68t140.5 68t53.5 188t-53.5 188t-140.5 68t-141 -68t-54 -188z" />
    <glyph glyph-name="oneinferior" unicode="&#x2081;" horiz-adv-x="696" 
d="M113 -205v113h204v450l-184 -112v133l195 113h112v-584h195v-113h-522z" />
    <glyph glyph-name="twoinferior" unicode="&#x2082;" horiz-adv-x="716" 
d="M72 -205v113l174 102q146 85 206 145t60 121q0 56 -40 89.5t-114 33.5q-36 0 -66 -12.5t-47.5 -30.5t-29 -36.5t-15.5 -31.5l-5 -12h-123q1 5 3 13.5t11 33t21.5 47t35.5 49.5t51.5 46.5t71 33t92.5 13.5q127 0 202 -66.5t75 -169.5q0 -99 -89 -190t-259 -168l-11 -6
l-10 -4v-2l21 2h358v-113h-573z" />
    <glyph glyph-name="threeinferior" unicode="&#x2083;" horiz-adv-x="706" 
d="M61 -10h134q1 -4 4 -11t15.5 -25t28.5 -31.5t47 -24.5t68 -11q74 0 114 33.5t40 89.5q0 49 -41.5 81t-120.5 32h-145v102l215 154v2l-21 -2h-297v113h492v-113l-195 -139l-20 -13v-2h10q106 0 176 -65.5t70 -159.5q0 -96 -75 -160.5t-202 -64.5q-52 0 -96.5 12t-74.5 31
t-53.5 41.5t-36.5 45.5t-21.5 42t-11.5 31z" />
    <glyph glyph-name="fourinferior" unicode="&#x2084;" horiz-adv-x="655" 
d="M41 -51v112l276 431h134l-277 -431h225v144h123v-144h103v-112h-103v-154h-123v154h-358z" />
    <glyph glyph-name="fiveinferior" unicode="&#x2085;" horiz-adv-x="706" 
d="M82 -10h133q1 -4 4 -11t15 -25t27.5 -31.5t44.5 -24.5t63 -11q163 0 163 133q0 49 -45 86t-118 37q-26 0 -50.5 -6.5t-41 -15.5t-29 -17.5t-18.5 -15.5l-5 -6l-112 20l20 390h461v-113h-348l-13 -174h3q6 6 17 14.5t51 22.5t85 14q121 0 193.5 -67t72.5 -169
q0 -109 -74 -177t-204 -68q-71 0 -127.5 22t-86.5 53.5t-50 63.5t-25 54z" />
    <glyph glyph-name="sixinferior" unicode="&#x2086;" horiz-adv-x="675" 
d="M51 20q0 123 103 246l184 226h143l-153 -187l-62 -49v-10q41 20 72 20q127 0 207 -71.5t80 -174.5t-80 -174t-207 -71t-207 71t-80 174zM174 20q0 -56 45 -94.5t119 -38.5t119 38.5t45 94.5t-45 95t-119 39t-119 -39t-45 -95z" />
    <glyph glyph-name="seveninferior" unicode="&#x2087;" horiz-adv-x="583" 
d="M41 379v113h522v-113l-307 -584h-133l307 582v2h-389z" />
    <glyph glyph-name="eightinferior" unicode="&#x2088;" horiz-adv-x="757" 
d="M72 -20q0 37 14.5 68.5t36 50.5t42.5 32t35 18l15 5v10l-12.5 5t-27 16t-34.5 29t-27 43.5t-12 59.5q0 82 73 138.5t204 56.5t203.5 -56.5t72.5 -138.5q0 -32 -11.5 -59t-28 -43.5t-33 -28.5t-28.5 -17l-11 -5v-10q6 -2 15.5 -5.5t34 -17.5t43.5 -32t34.5 -50t15.5 -69
q0 -83 -81 -144t-226 -61t-226 61t-81 144zM236 309q0 -42 35 -68t108 -26t108 26t35 68q0 40 -35.5 65t-107.5 25t-107.5 -25t-35.5 -65zM195 -10q0 -43 45.5 -73t138.5 -30t138.5 30t45.5 73t-45.5 72.5t-138.5 29.5t-138.5 -29.5t-45.5 -72.5z" />
    <glyph glyph-name="nineinferior" unicode="&#x2089;" horiz-adv-x="675" 
d="M51 266q0 103 80 174.5t207 71.5t207 -71.5t80 -174.5q0 -123 -103 -246l-184 -225h-143l153 187l62 49v10q-41 -21 -72 -21q-127 0 -207 71.5t-80 174.5zM174 266q0 -56 45 -94.5t119 -38.5t119 38.5t45 94.5t-45 94.5t-119 38.5t-119 -38.5t-45 -94.5z" />
    <glyph glyph-name="Euro" unicode="&#x20ac;" horiz-adv-x="1699" 
d="M41 512v113h127q-4 58 -4 92q0 30 4 92h-127v113h147q62 249 256.5 401t456.5 152q90 0 172 -17.5t143.5 -47t115 -68t91.5 -81t69 -85t50 -81t32 -68t18 -47.5l5 -17h-133q-3 8 -8 22t-26.5 54.5t-48.5 77t-74 81.5t-102 77.5t-134.5 54.5t-169.5 22q-210 0 -365 -116.5
t-212 -313.5h577v-113h-600q-4 -62 -4 -92q0 -34 4 -92h600v-113h-577q57 -198 212 -314t365 -116q92 0 173.5 23t138 60t103.5 82t75.5 90t48 82t27.5 60l8 23h133q-3 -11 -9.5 -30.5t-32.5 -76t-59 -108t-91.5 -114t-127.5 -107.5t-170.5 -76t-216.5 -31
q-263 0 -457 151.5t-256 401.5h-147z" />
    <glyph glyph-name="uni20B4" unicode="&#x20b4;" horiz-adv-x="1310" 
d="M113 799v123h809q4 2 10 7t22 22.5t28 37t22 51.5t10 66q0 107 -91.5 176.5t-267.5 69.5q-65 0 -121.5 -13t-94.5 -34t-69.5 -46t-50 -50t-31.5 -46t-18 -34l-4 -13h-133q2 8 6 20.5t21 50t40 71.5t65.5 75.5t93.5 71t128.5 50t167.5 20.5q228 0 360 -107.5t132 -261.5
q0 -112 -72 -184h123v-123h-1085zM113 512v123h1085v-123h-809q-4 -2 -10 -7t-22 -22.5t-28 -37t-22 -51.5t-10 -66q0 -107 91 -176.5t267 -69.5q65 0 121.5 13t94.5 33.5t69.5 46t50 50.5t31.5 45.5t18 33.5l4 13h134q-2 -7 -6 -20t-21 -50.5t-40 -71t-65.5 -75t-94 -71
t-129 -50t-167.5 -20.5q-228 0 -359.5 107.5t-131.5 261.5q0 115 69 184h-120z" />
    <glyph glyph-name="uni20BD" unicode="&#x20bd;" horiz-adv-x="1361" 
d="M72 225v123h174v184h-174v123h174v779h522q233 0 372.5 -127.5t139.5 -323.5t-139.5 -323.5t-372.5 -127.5h-389v-184h522v-123h-522v-225h-133v225h-174zM379 655h389q181 0 280 89t99 239t-99 239t-280 89h-389v-656z" />
    <glyph glyph-name="afii61352" unicode="&#x2116;" horiz-adv-x="2170" 
d="M1454 1126q0 138 95 233t233 95t232.5 -95t94.5 -233t-94.5 -232.5t-232.5 -94.5t-233 94.5t-95 232.5zM184 0v1434h205l737 -1270l11 -21h2l-2 21v1270h133v-1434h-205l-737 1270l-11 20h-2l2 -20v-1270h-133zM1577 1126q0 -91 60 -153t145 -62t145 62t60 153t-60 153
t-145 62t-145 -62t-60 -153zM1505 502v123h553v-123h-553z" />
    <glyph glyph-name="trademark" unicode="&#x2122;" horiz-adv-x="1525" 
d="M676 778v656h174l174 -369h41l174 369h174v-656h-113v522l3 21h-3l-174 -369h-163l-175 369h-2l2 -21v-522h-112zM20 1321v113h584v-113h-235v-543h-113v543h-236z" />
    <glyph glyph-name="arrowleft" unicode="&#x2190;" horiz-adv-x="1843" 
d="M184 686v21l359 348h30v-307h1086v-103h-1086v-307h-30z" />
    <glyph glyph-name="arrowup" unicode="&#x2191;" horiz-adv-x="1843" 
d="M563 1075v31l348 358h21l348 -358v-31h-307v-1075h-103v1075h-307z" />
    <glyph glyph-name="arrowright" unicode="&#x2192;" horiz-adv-x="1843" 
d="M184 645v103h1086v307h30l359 -348v-21l-359 -348h-30v307h-1086z" />
    <glyph glyph-name="arrowdown" unicode="&#x2193;" horiz-adv-x="1843" 
d="M563 328v30h307v1076h103v-1076h307v-30l-348 -359h-21z" />
    <glyph glyph-name="uni2196" unicode="&#x2196;" horiz-adv-x="1843" 
d="M379 737v512l20 21h512v-31l-215 -215l779 -778l-72 -72l-778 778l-215 -215h-31z" />
    <glyph glyph-name="uni2197" unicode="&#x2197;" horiz-adv-x="1843" 
d="M379 246l778 778l-215 215v31h512l21 -21v-512h-31l-215 215l-778 -778z" />
    <glyph glyph-name="uni2198" unicode="&#x2198;" horiz-adv-x="1843" 
d="M379 1198l72 72l778 -778l215 215h31v-512l-21 -21h-512v31l215 215z" />
    <glyph glyph-name="uni2199" unicode="&#x2199;" horiz-adv-x="1843" 
d="M379 195v512h31l215 -215l778 778l72 -72l-779 -778l215 -215v-31h-512z" />
    <glyph glyph-name="minus" unicode="&#x2212;" horiz-adv-x="1024" 
d="M123 522v123h778v-123h-778z" />
    <glyph glyph-name="approxequal" unicode="&#x2248;" horiz-adv-x="1024" 
d="M113 594v31q0 100 64 162.5t171 62.5q45 0 85.5 -16t69.5 -38.5t55.5 -45t56.5 -38.5t61 -16q54 0 83 29.5t29 83.5v31h123v-31q0 -100 -64 -162.5t-171 -62.5q-45 0 -85.5 16t-69.5 38t-55.5 44.5t-56.5 38.5t-61 16q-54 0 -83 -29t-29 -83v-31h-123zM113 256v31
q0 100 64 162.5t171 62.5q45 0 85.5 -16t69.5 -38.5t55.5 -45t56.5 -38.5t61 -16q54 0 83 29.5t29 83.5v31h123v-31q0 -100 -64 -162.5t-171 -62.5q-45 0 -85.5 16t-69.5 38t-55.5 44.5t-56.5 38.5t-61 16q-54 0 -83 -29t-29 -83v-31h-123z" />
    <glyph glyph-name="notequal" unicode="&#x2260;" horiz-adv-x="1024" 
d="M133 297v113h246l143 266h-389v112h451l164 297h122l-163 -297h184v-112h-246l-143 -266h389v-113h-451l-164 -297h-122l163 297h-184z" />
    <glyph glyph-name="lessequal" unicode="&#x2264;" horiz-adv-x="1024" 
d="M113 573v134l778 358v-123l-655 -297v-10l655 -297v-123zM113 338v113l778 -359v-112z" />
    <glyph glyph-name="greaterequal" unicode="&#x2265;" horiz-adv-x="1024" 
d="M133 215v123l655 297v10l-655 297v123l778 -358v-134zM133 -20v112l778 359v-113z" />
    <glyph glyph-name="commaaccent" unicode="&#xf6c3;" horiz-adv-x="327" 
d="M61 -287q0 31 27.5 56.5t65.5 25.5q48 0 80 -40t32 -113q0 -91 -54 -149t-140 -66v61q54 7 83 37t29 76q0 9 -2.5 19t-5.5 16l-2 6q-11 -11 -31 -11q-38 0 -60 22t-22 60z" />
    <glyph glyph-name="cyrBreve" unicode="&#xf6d1;" horiz-adv-x="737" 
d="M61 1853h113q0 -78 52 -126t143 -48t142.5 48t51.5 126h113q0 -118 -85.5 -197t-221.5 -79t-222 79.5t-86 196.5z" />
    <glyph glyph-name="cyrbreve" unicode="&#xf6d4;" horiz-adv-x="696" 
d="M61 1393h113q0 -64 46 -104t128 -40t128 40t46 104h113q0 -103 -80 -174.5t-207 -71.5t-207 71.5t-80 174.5z" />
    <glyph glyph-name="zero.oldstyle" unicode="&#xf730;" 
d="M92 512q0 229 150 380.5t372 151.5t372.5 -151.5t150.5 -380.5t-150.5 -380.5t-372.5 -151.5t-372 151.5t-150 380.5zM215 512q0 -183 114.5 -301.5t284.5 -118.5t285 118.5t115 301.5t-115 301.5t-285 118.5t-284.5 -118.5t-114.5 -301.5z" />
    <glyph glyph-name="one.oldstyle" unicode="&#xf731;" horiz-adv-x="583" 
d="M72 666v143l235 215h113v-1024h-123v870z" />
    <glyph glyph-name="two.oldstyle" unicode="&#xf732;" horiz-adv-x="1013" 
d="M61 717q1 7 4.5 18.5t17.5 45.5t33 65t55 69t79.5 65t109 45.5t142.5 18.5q194 0 307 -98.5t113 -249.5q0 -131 -80.5 -227.5t-237.5 -181.5l-297 -164l-20 -10v-2l20 2h645v-113h-880v113l420 235q159 89 233 170t74 178q0 104 -78 170t-219 66q-52 0 -97 -12t-75.5 -31
t-55 -42t-39 -45.5t-24 -41.5t-13.5 -31l-3 -12h-134z" />
    <glyph glyph-name="three.oldstyle" unicode="&#xf733;" horiz-adv-x="1054" 
d="M20 -20h134q1 -6 4 -16t15 -38.5t28 -55t45.5 -58.5t64.5 -54.5t87.5 -38.5t113.5 -16q158 0 248 82t90 215q0 127 -92 207t-256 80h-174v112h174q143 0 225 74.5t82 192.5q0 111 -82 188.5t-215 77.5q-52 0 -98.5 -12t-78.5 -31t-59 -42t-43.5 -45.5t-28 -41.5
t-16.5 -31l-4 -12h-123q2 7 5.5 18.5t19.5 45.5t36.5 65t57.5 69t81 65t110 45.5t141 18.5q186 0 303 -111.5t117 -266.5q0 -50 -12 -94t-31 -74.5t-42 -55.5t-45.5 -40t-41.5 -25.5t-31 -14.5l-12 -4v-10q5 -2 14.5 -5t36 -16t50.5 -29t53.5 -45t51 -63t36 -84t14.5 -106
q0 -180 -125 -295t-336 -115q-84 0 -156 21.5t-121 56t-88.5 76t-62.5 83t-38 76t-20 55.5z" />
    <glyph glyph-name="four.oldstyle" unicode="&#xf734;" horiz-adv-x="1044" 
d="M20 0v113l512 911h144l-512 -911h532v409h123v-409h215v-113h-215v-389h-123v389h-676z" />
    <glyph glyph-name="five.oldstyle" unicode="&#xf735;" horiz-adv-x="1085" 
d="M92 -10h133q1 -6 3.5 -16.5t13.5 -40t26 -57t43.5 -60.5t62.5 -56.5t86 -40t113 -16.5q154 0 251.5 97t97.5 251q0 153 -101 256t-248 103q-63 0 -118 -18t-88 -43.5t-57 -51t-34 -43.5l-10 -18h-123l52 788h757v-113h-645l-33 -512h2q4 5 11.5 13.5t35.5 29.5t61.5 37
t90 29.5t119.5 13.5q186 0 318 -136.5t132 -334.5q0 -200 -132.5 -330.5t-338.5 -130.5q-67 0 -127 13.5t-103.5 37t-80.5 53.5t-62.5 63t-45 66t-31 63t-19 53.5t-10.5 36.5z" />
    <glyph glyph-name="six.oldstyle" unicode="&#xf736;" horiz-adv-x="1187" 
d="M92 461q0 136 48.5 236t166.5 255l369 482h143l-368 -471l-52 -62v-10q8 7 24 17t69.5 27t111.5 17q207 0 349.5 -142t142.5 -349q0 -132 -65 -242t-180.5 -174.5t-256.5 -64.5t-256.5 64.5t-180.5 174.5t-65 242zM215 461q0 -155 109.5 -262t269.5 -107t269.5 107
t109.5 262q0 161 -109 270t-270 109q-162 0 -270.5 -107.5t-108.5 -271.5z" />
    <glyph glyph-name="seven.oldstyle" unicode="&#xf737;" horiz-adv-x="901" 
d="M10 911v113h881v-113l-563 -1300h-133l563 1298v2h-748z" />
    <glyph glyph-name="eight.oldstyle" unicode="&#xf738;" 
d="M92 389q0 61 16.5 114t42.5 89.5t57.5 66.5t63.5 47.5t58 30t42 17.5l17 4v10q-10 3 -25.5 9t-56 31.5t-71.5 58t-56.5 91t-25.5 127.5q0 73 32 140t90 118t145.5 81t192.5 30t193 -30t146 -81t90 -118t32 -140q0 -50 -13 -94.5t-33.5 -76t-45.5 -57.5t-50.5 -42t-46 -27
t-33.5 -16l-13 -4v-10q6 -2 17 -5t41.5 -16.5t58.5 -30.5t62.5 -47.5t59 -66.5t41.5 -89t17 -114q0 -81 -36 -154.5t-101.5 -130.5t-166 -90.5t-219.5 -33.5t-219 33.5t-165.5 90.5t-101.5 130.5t-36 154.5zM276 1085q0 -108 89.5 -187t248.5 -79t248.5 79t89.5 187
q0 105 -91.5 180.5t-246.5 75.5t-246.5 -75.5t-91.5 -180.5zM215 389q0 -122 107.5 -209.5t291.5 -87.5t292 87.5t108 209.5q0 129 -111 223.5t-289 94.5t-288.5 -94.5t-110.5 -223.5z" />
    <glyph glyph-name="nine.oldstyle" unicode="&#xf739;" horiz-adv-x="1187" 
d="M92 563q0 132 65 242t180.5 174.5t256.5 64.5t256.5 -64.5t180.5 -174.5t65 -242q0 -136 -48.5 -236t-166.5 -255l-359 -461h-143l358 450l51 62v10q-8 -7 -24 -17t-69 -27t-111 -17q-207 0 -349.5 142t-142.5 349zM215 563q0 -161 109 -270t270 -109q162 0 270.5 107.5
t108.5 271.5q0 155 -109.5 262t-269.5 107t-269.5 -107t-109.5 -262z" />
    <glyph glyph-name="acircumflex.sc" horiz-adv-x="1259" 
d="M51 0l338 1229h481l338 -1229h-133l-102 389h-686l-103 -389h-133zM317 512h625l-164 594h-297zM338 1413v2l225 295h133l226 -295v-2h-123l-154 205h-31l-153 -205h-123z" />
    <glyph glyph-name="ecircumflex.sc" horiz-adv-x="1146" 
d="M184 0v1229h871v-123h-738v-420h615v-123h-615v-440h738v-123h-871zM328 1413v2l225 295h133l225 -295v-2h-123l-153 205h-31l-153 -205h-123z" />
    <glyph glyph-name="Imacron.alt" horiz-adv-x="993" 
d="M102 0v123h328v1188h-328v123h789v-123h-328v-1188h328v-123h-789zM236 1679v113h522v-113h-522z" />
    <glyph glyph-name="Idotaccent.alt" horiz-adv-x="993" 
d="M102 0v123h328v1188h-328v123h789v-123h-328v-1188h328v-123h-789zM410 1741q0 38 27 65t65 27t65 -27t27 -65t-27 -65t-65 -27t-65 27t-27 65z" />
    <glyph glyph-name="Idieresis.alt" horiz-adv-x="993" 
d="M102 0v123h328v1188h-328v123h789v-123h-328v-1188h328v-123h-789zM584 1741q0 38 27 65t65 27t65 -27t27 -65t-27 -65t-65 -27t-65 27t-27 65zM236 1741q0 38 27 65t65 27t65 -27t27 -65t-27 -65t-65 -27t-65 27t-27 65z" />
    <glyph glyph-name="Icircumflex.alt" horiz-adv-x="993" 
d="M102 0v123h328v1188h-328v123h789v-123h-328v-1188h328v-123h-789zM205 1618v2l225 295h133l225 -295v-2h-122l-154 205h-31l-153 -205h-123z" />
    <glyph glyph-name="Iacute.alt" horiz-adv-x="993" 
d="M102 0v123h328v1188h-328v123h789v-123h-328v-1188h328v-123h-789zM430 1618l184 297h154v-2l-236 -295h-102z" />
    <glyph glyph-name="Igrave.alt" horiz-adv-x="993" 
d="M102 0v123h328v1188h-328v123h789v-123h-328v-1188h328v-123h-789zM215 1913v2h154l184 -297h-102z" />
    <glyph glyph-name="lcommaaccent.alt" horiz-adv-x="450" 
d="M164 0v1434h123v-1434h-123zM123 -287q0 32 27.5 57t64.5 25q48 0 80.5 -40t32.5 -113q0 -91 -54.5 -149t-140.5 -66v61q54 7 83.5 37t29.5 76q0 9 -2.5 19t-5.5 16l-2 6q-11 -11 -31 -11q-38 0 -60 22t-22 60z" />
    <glyph glyph-name="lcaron.alt" horiz-adv-x="552" 
d="M164 0v1434h123v-1434h-123zM399 1362q0 31 27.5 56.5t65.5 25.5q48 0 80 -40.5t32 -113.5q0 -91 -54 -149t-140 -66v62q54 7 83 36.5t29 75.5q0 9 -2.5 19t-5.5 16l-2 6q-11 -10 -31 -10q-38 0 -60 22t-22 60z" />
    <glyph glyph-name="lacute.alt" horiz-adv-x="450" 
d="M164 0v1434h123v-1434h-123zM174 1618l184 297h154v-2l-236 -295h-102z" />
    <glyph glyph-name="atilde.alt" horiz-adv-x="1146" 
d="M123 287q0 136 101.5 221.5t287.5 85.5h369v68q0 126 -73.5 198t-203.5 72q-72 0 -131 -22t-92 -54t-55.5 -63.5t-30.5 -53.5l-8 -22h-123q1 7 4.5 18.5t18 45.5t34 65t55.5 69t79.5 65t108.5 45.5t140 18.5q183 0 291.5 -104.5t108.5 -277.5v-662h-123v184h-2
q-4 -8 -13 -22t-42.5 -49t-75 -62t-113 -49t-154.5 -22q-165 0 -261.5 86.5t-96.5 220.5zM246 287q0 -88 65 -141.5t191 -53.5q166 0 272.5 112.5t106.5 276.5h-369q-133 0 -199.5 -52.5t-66.5 -141.5zM276 1239v53q0 75 49.5 123.5t125.5 48.5q45 0 86 -21t66.5 -45.5
t56 -45.5t57.5 -21q31 0 51 20.5t20 51.5v51h103v-53q0 -75 -49 -123.5t-125 -48.5q-45 0 -86 21t-66.5 45.5t-56 45.5t-57.5 21q-31 0 -51.5 -20.5t-20.5 -51.5v-51h-103z" />
    <glyph glyph-name="aring.alt" horiz-adv-x="1146" 
d="M123 287q0 136 101.5 221.5t287.5 85.5h369v68q0 126 -73.5 198t-203.5 72q-72 0 -131 -22t-92 -54t-55.5 -63.5t-30.5 -53.5l-8 -22h-123q1 7 4.5 18.5t18 45.5t34 65t55.5 69t79.5 65t108.5 45.5t140 18.5q183 0 291.5 -104.5t108.5 -277.5v-662h-123v184h-2
q-4 -8 -13 -22t-42.5 -49t-75 -62t-113 -49t-154.5 -22q-165 0 -261.5 86.5t-96.5 220.5zM246 287q0 -88 65 -141.5t191 -53.5q166 0 272.5 112.5t106.5 276.5h-369q-133 0 -199.5 -52.5t-66.5 -141.5zM389 1403q0 85 60 145t145 60t145 -60t60 -145t-60 -145t-145 -60
t-145 60t-60 145zM481 1403q0 -46 33.5 -79.5t79.5 -33.5t79.5 33.5t33.5 79.5t-33.5 79.5t-79.5 33.5t-79.5 -33.5t-33.5 -79.5z" />
    <glyph glyph-name="aogonek.alt" horiz-adv-x="1146" 
d="M123 287q0 136 101.5 221.5t287.5 85.5h369v68q0 126 -73.5 198t-203.5 72q-72 0 -131 -22t-92 -54t-55.5 -63.5t-30.5 -53.5l-8 -22h-123q1 7 4.5 18.5t18 45.5t34 65t55.5 69t79.5 65t108.5 45.5t140 18.5q183 0 291.5 -104.5t108.5 -277.5v-662q-10 -4 -26.5 -12
t-59 -34.5t-75 -55t-59 -73.5t-26.5 -91q0 -39 28.5 -65.5t73.5 -26.5q32 0 68 7.5t56 14.5l20 8v-92q-62 -41 -144 -41q-91 0 -148 53.5t-57 131.5q0 49 23.5 96t56.5 80t66 59t57 39l23 12v4v170h-2q-4 -8 -13 -22t-42.5 -49t-75 -62t-113 -49t-154.5 -22
q-165 0 -261.5 86.5t-96.5 220.5zM246 287q0 -88 65 -141.5t191 -53.5q166 0 272.5 112.5t106.5 276.5h-369q-133 0 -199.5 -52.5t-66.5 -141.5z" />
    <glyph glyph-name="amacron.alt" horiz-adv-x="1146" 
d="M123 287q0 136 101.5 221.5t287.5 85.5h369v68q0 126 -73.5 198t-203.5 72q-72 0 -131 -22t-92 -54t-55.5 -63.5t-30.5 -53.5l-8 -22h-123q1 7 4.5 18.5t18 45.5t34 65t55.5 69t79.5 65t108.5 45.5t140 18.5q183 0 291.5 -104.5t108.5 -277.5v-662h-123v184h-2
q-4 -8 -13 -22t-42.5 -49t-75 -62t-113 -49t-154.5 -22q-165 0 -261.5 86.5t-96.5 220.5zM246 287q0 -88 65 -141.5t191 -53.5q166 0 272.5 112.5t106.5 276.5h-369q-133 0 -199.5 -52.5t-66.5 -141.5zM328 1280v113h522v-113h-522z" />
    <glyph glyph-name="adieresis.alt" horiz-adv-x="1146" 
d="M123 287q0 136 101.5 221.5t287.5 85.5h369v68q0 126 -73.5 198t-203.5 72q-72 0 -131 -22t-92 -54t-55.5 -63.5t-30.5 -53.5l-8 -22h-123q1 7 4.5 18.5t18 45.5t34 65t55.5 69t79.5 65t108.5 45.5t140 18.5q183 0 291.5 -104.5t108.5 -277.5v-662h-123v184h-2
q-4 -8 -13 -22t-42.5 -49t-75 -62t-113 -49t-154.5 -22q-165 0 -261.5 86.5t-96.5 220.5zM246 287q0 -88 65 -141.5t191 -53.5q166 0 272.5 112.5t106.5 276.5h-369q-133 0 -199.5 -52.5t-66.5 -141.5zM666 1352q0 38 27 65t65 27t65 -27t27 -65t-27 -65t-65 -27t-65 27
t-27 65zM317 1352q0 38 27.5 65t65.5 27t65 -27t27 -65t-27 -65t-65 -27t-65.5 27t-27.5 65z" />
    <glyph glyph-name="acircumflex.alt" horiz-adv-x="1146" 
d="M123 287q0 136 101.5 221.5t287.5 85.5h369v68q0 126 -73.5 198t-203.5 72q-72 0 -131 -22t-92 -54t-55.5 -63.5t-30.5 -53.5l-8 -22h-123q1 7 4.5 18.5t18 45.5t34 65t55.5 69t79.5 65t108.5 45.5t140 18.5q183 0 291.5 -104.5t108.5 -277.5v-662h-123v184h-2
q-4 -8 -13 -22t-42.5 -49t-75 -62t-113 -49t-154.5 -22q-165 0 -261.5 86.5t-96.5 220.5zM246 287q0 -88 65 -141.5t191 -53.5q166 0 272.5 112.5t106.5 276.5h-369q-133 0 -199.5 -52.5t-66.5 -141.5zM297 1229v2l225 295h133l226 -295v-2h-123l-154 205h-31l-153 -205
h-123z" />
    <glyph glyph-name="abreve.alt" horiz-adv-x="1146" 
d="M123 287q0 136 101.5 221.5t287.5 85.5h369v68q0 126 -73.5 198t-203.5 72q-72 0 -131 -22t-92 -54t-55.5 -63.5t-30.5 -53.5l-8 -22h-123q1 7 4.5 18.5t18 45.5t34 65t55.5 69t79.5 65t108.5 45.5t140 18.5q183 0 291.5 -104.5t108.5 -277.5v-662h-123v184h-2
q-4 -8 -13 -22t-42.5 -49t-75 -62t-113 -49t-154.5 -22q-165 0 -261.5 86.5t-96.5 220.5zM246 287q0 -88 65 -141.5t191 -53.5q166 0 272.5 112.5t106.5 276.5h-369q-133 0 -199.5 -52.5t-66.5 -141.5zM307 1485h113q0 -63 44.5 -103.5t119.5 -40.5t119.5 40.5t44.5 103.5
h112q0 -102 -78 -174t-198 -72q-121 0 -199 72t-78 174z" />
    <glyph glyph-name="aacute.alt" horiz-adv-x="1146" 
d="M123 287q0 136 101.5 221.5t287.5 85.5h369v68q0 126 -73.5 198t-203.5 72q-72 0 -131 -22t-92 -54t-55.5 -63.5t-30.5 -53.5l-8 -22h-123q1 7 4.5 18.5t18 45.5t34 65t55.5 69t79.5 65t108.5 45.5t140 18.5q183 0 291.5 -104.5t108.5 -277.5v-662h-123v184h-2
q-4 -8 -13 -22t-42.5 -49t-75 -62t-113 -49t-154.5 -22q-165 0 -261.5 86.5t-96.5 220.5zM246 287q0 -88 65 -141.5t191 -53.5q166 0 272.5 112.5t106.5 276.5h-369q-133 0 -199.5 -52.5t-66.5 -141.5zM532 1229l185 297h153v-2l-235 -295h-103z" />
    <glyph glyph-name="agrave.alt" horiz-adv-x="1146" 
d="M123 287q0 136 101.5 221.5t287.5 85.5h369v68q0 126 -73.5 198t-203.5 72q-72 0 -131 -22t-92 -54t-55.5 -63.5t-30.5 -53.5l-8 -22h-123q1 7 4.5 18.5t18 45.5t34 65t55.5 69t79.5 65t108.5 45.5t140 18.5q183 0 291.5 -104.5t108.5 -277.5v-662h-123v184h-2
q-4 -8 -13 -22t-42.5 -49t-75 -62t-113 -49t-154.5 -22q-165 0 -261.5 86.5t-96.5 220.5zM246 287q0 -88 65 -141.5t191 -53.5q166 0 272.5 112.5t106.5 276.5h-369q-133 0 -199.5 -52.5t-66.5 -141.5zM328 1524v2h153l185 -297h-103z" />
    <glyph glyph-name="afii10110.alt" horiz-adv-x="1034" 
d="M51 1024h133l236 -911h194l267 911h133l-338 -1126q-43 -144 -125 -215.5t-223 -71.5h-164v113h164q98 0 147.5 40t77.5 134l31 102h-256zM272 1401h113q0 -64 46 -104t128 -40t128 40t46 104h113q0 -103 -80 -174.5t-207 -71.5t-207 71.5t-80 174.5z" />
    <glyph glyph-name="lslash.alt" horiz-adv-x="512" 
d="M10 502v123l174 82v727h123v-666l195 92v-123l-195 -92v-645h-123v584z" />
    <glyph glyph-name="ydieresis.alt" horiz-adv-x="1034" 
d="M51 1024h133l236 -911h194l267 911h133l-338 -1126q-43 -144 -125 -215.5t-223 -71.5h-164v113h164q98 0 147.5 40t77.5 134l31 102h-256zM614 1352q0 38 27.5 65t65.5 27t65 -27t27 -65t-27 -65t-65 -27t-65.5 27t-27.5 65zM266 1352q0 38 27 65t65 27t65.5 -27
t27.5 -65t-27.5 -65t-65.5 -27t-65 27t-27 65z" />
    <glyph glyph-name="Germandbls" horiz-adv-x="1433" 
d="M174 0v942q0 235 136 363.5t407 128.5h526v-125l-383 -418v-10q227 -15 354 -135t127 -306q0 -191 -144.5 -315.5t-397.5 -124.5h-144v123h144q192 0 300.5 90.5t108.5 226.5q0 137 -108.5 227.5t-300.5 90.5h-103v133l369 409h-348q-220 0 -315 -86.5t-95 -279.5v-934
h-133z" />
    <glyph glyph-name="l.alt" horiz-adv-x="450" 
d="M164 0v1434h123v-1434h-123z" />
    <glyph glyph-name="g.alt" horiz-adv-x="1126" 
d="M41 -123q0 38 13 71.5t33.5 57.5t45.5 44.5t50.5 33.5t46 22t33.5 13l13 4v235q-7 4 -19 11.5t-42 35t-52.5 60t-41.5 87t-19 114.5q0 158 123 268t318 110q41 0 79 -5t56 -10l18 -5h430v-113h-245l-17 2v-2q5 -3 13 -9.5t28.5 -29.5t36 -49t28.5 -68.5t13 -88.5
q0 -158 -122.5 -268.5t-317.5 -110.5q-41 0 -79.5 5t-56.5 10l-18 5v-153q62 10 154 10q125 0 224 -26t157.5 -68t89 -91.5t30.5 -101.5t-30.5 -101.5t-89 -91.5t-157.5 -68t-224 -26t-224.5 26t-158 68t-89 91.5t-30.5 101.5zM225 666q0 -111 88 -189t230 -78t229.5 78
t87.5 189t-87.5 188.5t-229.5 77.5t-230 -77.5t-88 -188.5zM164 -123q0 -65 95.5 -119.5t283.5 -54.5t283.5 54.5t95.5 119.5q0 64 -96.5 119t-282.5 55q-188 0 -283.5 -54.5t-95.5 -119.5z" />
    <glyph glyph-name="a.alt" horiz-adv-x="1146" 
d="M123 287q0 136 101.5 221.5t287.5 85.5h369v68q0 126 -73.5 198t-203.5 72q-72 0 -131 -22t-92 -54t-55.5 -63.5t-30.5 -53.5l-8 -22h-123q1 7 4.5 18.5t18 45.5t34 65t55.5 69t79.5 65t108.5 45.5t140 18.5q183 0 291.5 -104.5t108.5 -277.5v-662h-123v184h-2
q-4 -8 -13 -22t-42.5 -49t-75 -62t-113 -49t-154.5 -22q-165 0 -261.5 86.5t-96.5 220.5zM246 287q0 -88 65 -141.5t191 -53.5q166 0 272.5 112.5t106.5 276.5h-369q-133 0 -199.5 -52.5t-66.5 -141.5z" />
    <glyph glyph-name="afii10085.alt" horiz-adv-x="1034" 
d="M51 1024h133l236 -911h194l267 911h133l-338 -1126q-43 -144 -125 -215.5t-223 -71.5h-164v113h164q98 0 147.5 40t77.5 134l31 102h-256z" />
    <glyph glyph-name="y.alt" horiz-adv-x="1034" 
d="M51 1024h133l236 -911h194l267 911h133l-338 -1126q-43 -144 -125 -215.5t-223 -71.5h-164v113h164q98 0 147.5 40t77.5 134l31 102h-256z" />
    <glyph glyph-name="I.alt" horiz-adv-x="993" 
d="M102 0v123h328v1188h-328v123h789v-123h-328v-1188h328v-123h-789z" />
    <glyph glyph-name="afii10065.alt" horiz-adv-x="1146" 
d="M123 287q0 136 101.5 221.5t287.5 85.5h369v68q0 126 -73.5 198t-203.5 72q-72 0 -131 -22t-92 -54t-55.5 -63.5t-30.5 -53.5l-8 -22h-123q1 7 4.5 18.5t18 45.5t34 65t55.5 69t79.5 65t108.5 45.5t140 18.5q183 0 291.5 -104.5t108.5 -277.5v-662h-123v184h-2
q-4 -8 -13 -22t-42.5 -49t-75 -62t-113 -49t-154.5 -22q-165 0 -261.5 86.5t-96.5 220.5zM246 287q0 -88 65 -141.5t191 -53.5q166 0 272.5 112.5t106.5 276.5h-369q-133 0 -199.5 -52.5t-66.5 -141.5z" />
    <glyph glyph-name="nine.taboldstyle" horiz-adv-x="1146" 
d="M72 563q0 132 65 242t180 174.5t256 64.5t256.5 -64.5t180.5 -174.5t65 -242q0 -136 -48.5 -236t-166.5 -255l-358 -461h-144l359 450l51 62v10q-8 -7 -24 -17t-69.5 -27t-111.5 -17q-207 0 -349 142t-142 349zM195 563q0 -161 108.5 -270t269.5 -109q162 0 270.5 107.5
t108.5 271.5q0 155 -109.5 262t-269.5 107t-269 -107t-109 -262z" />
    <glyph glyph-name="eight.taboldstyle" horiz-adv-x="1146" 
d="M51 389q0 61 16.5 114t42.5 89.5t57.5 66.5t63.5 47.5t58 30t43 17.5l16 4v10q-10 3 -25.5 9t-56 31.5t-71.5 58t-56.5 91t-25.5 127.5q0 73 32 140t90 118t145.5 81t192.5 30t193 -30t146 -81t90 -118t32 -140q0 -50 -13 -94.5t-33.5 -76t-45.5 -57.5t-50.5 -42t-46 -27
t-33.5 -16l-13 -4v-10q6 -2 17 -5t41.5 -16.5t58.5 -30.5t62.5 -47.5t59 -66.5t41.5 -89t17 -114q0 -81 -36 -154.5t-101.5 -130.5t-166 -90.5t-219.5 -33.5t-219 33.5t-165.5 90.5t-101.5 130.5t-36 154.5zM236 1085q0 -108 89 -187t248 -79t248.5 79t89.5 187
q0 105 -91.5 180.5t-246.5 75.5t-246 -75.5t-91 -180.5zM174 389q0 -122 107.5 -209.5t291.5 -87.5t292 87.5t108 209.5q0 129 -111 223.5t-289 94.5t-288.5 -94.5t-110.5 -223.5z" />
    <glyph glyph-name="seven.taboldstyle" horiz-adv-x="1146" 
d="M102 635v389h963v-113l-594 -1300h-133l594 1298v2h-707v-276h-123z" />
    <glyph glyph-name="six.taboldstyle" horiz-adv-x="1146" 
d="M72 461q0 136 48.5 236t166.5 255l368 482h144l-369 -471l-51 -62v-10q8 7 24 17t69.5 27t111.5 17q207 0 349 -142t142 -349q0 -132 -65 -242t-180.5 -174.5t-256.5 -64.5t-256 64.5t-180 174.5t-65 242zM195 461q0 -155 109 -262t269 -107t269.5 107t109.5 262
q0 161 -109 270t-270 109q-162 0 -270 -107.5t-108 -271.5z" />
    <glyph glyph-name="five.taboldstyle" horiz-adv-x="1146" 
d="M123 -10h133q1 -6 3.5 -16.5t13.5 -40t26 -57t43.5 -60.5t62.5 -56.5t86 -40t113 -16.5q154 0 251 97t97 251q0 153 -100.5 256t-247.5 103q-63 0 -118 -18t-88 -43.5t-57 -51t-34 -43.5l-10 -18h-123l51 788h758v-113h-645l-33 -512h2q4 5 11.5 13.5t35.5 29.5t61.5 37
t90 29.5t119.5 13.5q186 0 318 -136.5t132 -334.5q0 -200 -132.5 -330.5t-338.5 -130.5q-67 0 -127 13.5t-103.5 37t-80.5 53.5t-62.5 63t-45 66t-31 63t-19 53.5t-9.5 36.5z" />
    <glyph glyph-name="four.taboldstyle" horiz-adv-x="1146" 
d="M82 0v113l512 911h143l-512 -911h533v409h123v-409h215v-113h-215v-389h-123v389h-676z" />
    <glyph glyph-name="three.taboldstyle" horiz-adv-x="1146" 
d="M72 -20h133q1 -6 4 -16t15 -38.5t28 -55t45.5 -58.5t64.5 -54.5t87.5 -38.5t113.5 -16q158 0 248 82t90 215q0 127 -92 207t-256 80h-174v112h174q143 0 225 74.5t82 192.5q0 111 -82 188.5t-215 77.5q-72 0 -132 -22t-94.5 -54t-58.5 -63.5t-33 -53.5l-9 -22h-123
q2 7 5.5 18.5t19 45.5t36 65t57.5 69t81 65t110 45.5t141 18.5q186 0 303 -111.5t117 -266.5q0 -69 -22 -126t-53.5 -89t-63.5 -54.5t-54 -30.5l-22 -8v-10q5 -2 14.5 -5t36 -16t50.5 -29t53.5 -45t51 -63t36 -84t14.5 -106q0 -180 -125 -295t-336 -115q-84 0 -156 21.5
t-121 56t-88 76t-62 83t-38 76t-20 55.5z" />
    <glyph glyph-name="two.taboldstyle" horiz-adv-x="1146" 
d="M123 717q1 7 4.5 18.5t17.5 45.5t33 65t54.5 69t79 65t109 45.5t142.5 18.5q194 0 307 -98.5t113 -249.5q0 -131 -80 -227.5t-237 -181.5l-297 -164l-21 -10v-2l21 2h645v-113h-881v113l420 235q159 89 233 170t74 178q0 104 -78 170t-219 66q-52 0 -97 -12t-75.5 -31
t-55 -42t-39 -45.5t-24 -41.5t-12.5 -31l-4 -12h-133z" />
    <glyph glyph-name="one.taboldstyle" horiz-adv-x="1146" 
d="M184 0v113h369v757l-266 -204v143l276 215h113v-911h348v-113h-840z" />
    <glyph glyph-name="zero.taboldstyle" horiz-adv-x="1146" 
d="M51 512q0 229 150 380.5t372 151.5t372.5 -151.5t150.5 -380.5t-150.5 -380.5t-372.5 -151.5t-372 151.5t-150 380.5zM174 512q0 -183 114.5 -301.5t284.5 -118.5t285 118.5t115 301.5t-115 301.5t-285 118.5t-284.5 -118.5t-114.5 -301.5z" />
    <glyph glyph-name="at.case" horiz-adv-x="1669" 
d="M102 737q0 159 60 301t162.5 244.5t244.5 162.5t301 60q156 0 292.5 -53t228 -139t144 -196.5t52.5 -225.5q0 -220 -138.5 -345.5t-401.5 -125.5h-3v102h-2l-2 -5q-3 -5 -6.5 -10.5t-9.5 -14t-13 -16.5t-18 -17.5t-23 -18t-28.5 -16t-34.5 -13t-40.5 -9t-47.5 -3.5
q-123 0 -215 97t-92 241t91 241t216 97q46 0 85.5 -12.5t62 -27t41.5 -35.5t24 -29.5t10 -18.5h2v103h123v-523q134 0 215.5 93.5t81.5 265.5q0 96 -41.5 186.5t-116.5 160.5t-188.5 112.5t-247.5 42.5q-137 0 -258 -49.5t-208 -136t-138 -208.5t-51 -262q0 -191 84.5 -341
t233.5 -232t337 -82q65 0 129 10.5t109 25.5t80.5 30t53.5 26l18 10v-112q-6 -4 -18.5 -11t-52 -25t-82.5 -31.5t-107.5 -24.5t-129.5 -11q-163 0 -305.5 58.5t-244 160t-160 244t-58.5 305.5zM635 737q0 -98 59.5 -161.5t145.5 -63.5t145 63.5t59 161.5t-59 162t-145 64
t-145.5 -64t-59.5 -162z" />
    <glyph glyph-name="parenleft.case" horiz-adv-x="747" 
d="M164 717q0 100 16.5 197t44.5 175.5t64 152t75.5 130t79.5 106t76 84t64 59t44 36.5l17 12l72 -92q-9 -6 -24 -18.5t-58.5 -55t-83.5 -90.5t-88.5 -125t-83 -158.5t-58.5 -190.5t-24 -222t23 -221.5t60 -191.5t82 -157t90 -126t82 -90t60 -56l23 -18l-72 -93
q-10 7 -27.5 20t-67.5 59.5t-95 99t-100.5 137t-95.5 175t-67.5 212.5t-27.5 250z" />
    <glyph glyph-name="parenright.case" horiz-adv-x="747" 
d="M31 -150q9 6 24 18.5t58.5 55.5t83.5 91t88.5 125t83 158.5t58.5 190.5t24 222t-23 221.5t-60 191.5t-82 157t-90 126t-82 90t-60 56l-23 18l71 92q10 -7 27.5 -20t67.5 -59.5t95.5 -98.5t101 -137t95.5 -175t67.5 -212t27.5 -250t-26.5 -249.5t-69 -213.5t-94 -174
t-103 -138.5t-94 -97.5t-69.5 -60l-26 -20z" />
    <glyph glyph-name="bracketleft.case" horiz-adv-x="665" 
d="M184 -174v1782h430v-123h-297v-1536h297v-123h-430z" />
    <glyph glyph-name="bracketright.case" horiz-adv-x="665" 
d="M51 -174v123h297v1536h-297v123h430v-1782h-430z" />
    <glyph glyph-name="braceleft.case" horiz-adv-x="696" 
d="M92 666v112h62q54 0 83 29.5t29 83.5v471q0 108 72.5 177t193.5 69h123v-123h-123q-61 0 -97 -34t-36 -89v-471q0 -40 -12.5 -71.5t-30.5 -48t-36.5 -27.5t-31.5 -14l-12 -3v-10q5 -1 13.5 -3t29.5 -13.5t37 -28t29.5 -48t13.5 -71.5v-481q0 -55 36 -89t97 -34h123v-123
h-123q-121 0 -193.5 69t-72.5 177v481q0 54 -29 83.5t-83 29.5h-62z" />
    <glyph glyph-name="braceright.case" horiz-adv-x="696" 
d="M41 -174v123h123q61 0 97 34t36 89v481q0 40 12.5 71.5t30.5 48t36.5 27.5t31.5 14l12 3v10q-5 1 -13.5 3t-29.5 13.5t-37 28t-29.5 48t-13.5 71.5v471q0 55 -36 89t-97 34h-123v123h123q121 0 193.5 -69t72.5 -177v-471q0 -54 29.5 -83.5t83.5 -29.5h61v-112h-61
q-54 0 -83.5 -29.5t-29.5 -83.5v-481q0 -108 -72.5 -177t-193.5 -69h-123z" />
    <glyph glyph-name="nine.tab" 
d="M82 973q0 102 40.5 194.5t110 160t169 107.5t212.5 40t212.5 -40t169.5 -107.5t110.5 -160t40.5 -194.5q0 -40 -5.5 -77.5t-11.5 -65t-24 -64t-27 -55.5t-38 -59t-40 -54.5t-49.5 -62.5t-50.5 -64l-369 -471h-153l379 479l8 10l2 3q-51 -21 -174 -21q-141 0 -259 67.5
t-185.5 183t-67.5 251.5zM215 973q0 -163 112 -271t287 -108t287.5 108t112.5 271t-112.5 271t-287.5 108t-287 -108t-112 -271z" />
    <glyph glyph-name="afii10069.alt" horiz-adv-x="1167" 
d="M10 -246v359h113q5 2 12.5 6t27 24t34.5 48.5t27 83.5t12 124v625h737v-911h153v-359h-122v246h-871v-246h-123zM266 113h584v798h-492v-512q0 -60 -9.5 -111.5t-23 -82t-27 -52t-22.5 -29.5l-10 -9v-2z" />
    <glyph glyph-name="nine.dnom" horiz-adv-x="675" 
d="M51 471q0 103 80 174.5t207 71.5t207 -71.5t80 -174.5q0 -123 -103 -246l-184 -225h-143l153 186l62 50v10q-41 -21 -72 -21q-127 0 -207 71.5t-80 174.5zM174 471q0 -56 45 -94.5t119 -38.5t119 38.5t45 94.5t-45 94.5t-119 38.5t-119 -38.5t-45 -94.5z" />
    <glyph glyph-name="eight.dnom" horiz-adv-x="757" 
d="M72 184q0 37 14.5 68.5t36 50.5t42.5 32t35 18l15 5v11l-12.5 5t-27 16t-34.5 29t-27 43.5t-12 59.5q0 82 73 138.5t204 56.5t203.5 -56.5t72.5 -138.5q0 -32 -11.5 -59t-28 -43.5t-33 -28.5t-28.5 -17l-11 -5v-11q6 -2 15.5 -5.5t34 -17.5t43.5 -32t34.5 -50t15.5 -69
q0 -83 -81 -143.5t-226 -60.5t-226 60.5t-81 143.5zM236 514q0 -42 35 -68t108 -26t108 26t35 68q0 40 -35.5 65t-107.5 25t-107.5 -25t-35.5 -65zM195 195q0 -43 45.5 -73t138.5 -30t138.5 30t45.5 73t-45.5 72.5t-138.5 29.5t-138.5 -29.5t-45.5 -72.5z" />
    <glyph glyph-name="seven.dnom" horiz-adv-x="583" 
d="M41 584v112h522v-112l-307 -584h-133l307 582v2h-389z" />
    <glyph glyph-name="six.dnom" horiz-adv-x="675" 
d="M51 225q0 123 103 246l184 225h143l-153 -186l-62 -49v-10q41 20 72 20q127 0 207 -71.5t80 -174.5t-80 -174t-207 -71t-207 71t-80 174zM174 225q0 -56 45 -94.5t119 -38.5t119 38.5t45 94.5t-45 94.5t-119 38.5t-119 -38.5t-45 -94.5z" />
    <glyph glyph-name="five.dnom" horiz-adv-x="706" 
d="M82 195h133q1 -4 4 -11t15 -25t27.5 -31.5t44.5 -24.5t63 -11q163 0 163 133q0 49 -45 86t-118 37q-26 0 -50.5 -6.5t-41 -15t-29 -17.5t-18.5 -15l-5 -7l-112 20l20 389h461v-112h-348l-13 -174h3q6 6 17 14.5t51 22.5t85 14q121 0 193.5 -67t72.5 -169q0 -109 -74 -177
t-204 -68q-71 0 -127.5 22t-86.5 53.5t-50 63.5t-25 54z" />
    <glyph glyph-name="four.dnom" horiz-adv-x="655" 
d="M41 154v112l276 430h134l-277 -430h225v144h123v-144h103v-112h-103v-154h-123v154h-358z" />
    <glyph glyph-name="three.dnom" horiz-adv-x="706" 
d="M61 195h134q1 -4 4 -11t15.5 -25t28.5 -31.5t47 -24.5t68 -11q74 0 114 33.5t40 89.5q0 49 -41.5 81t-120.5 32h-145v102l215 154v2l-21 -2h-297v112h492v-112l-195 -140l-20 -12v-2h10q106 0 176 -65.5t70 -159.5q0 -96 -75 -160.5t-202 -64.5q-52 0 -96.5 12t-74.5 31
t-53.5 42t-36.5 45.5t-21.5 41.5t-11.5 31z" />
    <glyph glyph-name="two.dnom" horiz-adv-x="716" 
d="M72 0v113l174 102q146 85 206 145t60 121q0 56 -40 89.5t-114 33.5q-36 0 -66 -12.5t-47.5 -31t-29 -36.5t-15.5 -30l-5 -13h-123q1 5 3 13.5t11 33t21.5 47t35.5 49.5t51.5 46.5t71 33t92.5 13.5q127 0 202 -66.5t75 -169.5q0 -99 -89 -190t-259 -168l-11 -6l-10 -4v-2
l21 2h358v-113h-573z" />
    <glyph glyph-name="one.dnom" horiz-adv-x="696" 
d="M113 0v113h204v450l-184 -112v133l195 112h112v-583h195v-113h-522z" />
    <glyph glyph-name="zero.dnom" horiz-adv-x="757" 
d="M61 348q0 165 92 267t226 102t225.5 -102t91.5 -267t-91.5 -266.5t-225.5 -101.5t-226 101.5t-92 266.5zM184 348q0 -120 54 -188t141 -68t140.5 68t53.5 188t-53.5 188t-140.5 68t-141 -68t-54 -188z" />
    <glyph glyph-name="nine.numr" horiz-adv-x="675" 
d="M51 1208q0 103 80 174.5t207 71.5t207 -71.5t80 -174.5q0 -122 -103 -245l-184 -226h-143l153 187l62 49v10q-41 -20 -72 -20q-127 0 -207 71t-80 174zM174 1208q0 -56 45 -94.5t119 -38.5t119 38.5t45 94.5t-45 94.5t-119 38.5t-119 -38.5t-45 -94.5z" />
    <glyph glyph-name="eight.numr" horiz-adv-x="757" 
d="M72 922q0 37 14.5 68.5t36 50.5t42.5 32t35 18l15 5v10q-5 2 -12.5 5.5t-27 16.5t-34.5 29t-27 43.5t-12 59.5q0 82 73 138t204 56t203.5 -56t72.5 -138q0 -32 -11.5 -59.5t-28 -44t-33 -28.5t-28.5 -17l-11 -5v-10q6 -2 15.5 -5.5t34 -17.5t43.5 -32t34.5 -50t15.5 -69
q0 -83 -81 -144t-226 -61t-226 61t-81 144zM236 1251q0 -42 35 -68t108 -26t108 26t35 68q0 40 -35.5 65t-107.5 25t-107.5 -25t-35.5 -65zM195 932q0 -43 45.5 -73t138.5 -30t138.5 30t45.5 73t-45.5 72.5t-138.5 29.5t-138.5 -29.5t-45.5 -72.5z" />
    <glyph glyph-name="seven.numr" horiz-adv-x="583" 
d="M41 1321v113h522v-113l-307 -584h-133l307 582v2h-389z" />
    <glyph glyph-name="six.numr" horiz-adv-x="675" 
d="M51 963q0 122 103 245l184 226h143l-153 -187l-62 -49v-10q41 20 72 20q127 0 207 -71t80 -174t-80 -174.5t-207 -71.5t-207 71.5t-80 174.5zM174 963q0 -56 45 -95t119 -39t119 39t45 95t-45 94.5t-119 38.5t-119 -38.5t-45 -94.5z" />
    <glyph glyph-name="five.numr" horiz-adv-x="706" 
d="M82 932h133q1 -4 4 -11t15 -25t27.5 -31.5t44.5 -24.5t63 -11q82 0 122.5 35t40.5 99q0 49 -45 85.5t-118 36.5q-42 0 -78 -15.5t-51 -30.5l-15 -15l-112 20l20 390h461v-113h-348l-13 -174h3q6 6 17 14.5t51 22.5t85 14q121 0 193.5 -66.5t72.5 -168.5
q0 -110 -74.5 -178t-203.5 -68q-71 0 -127.5 22t-86.5 53.5t-50 63.5t-25 54z" />
    <glyph glyph-name="four.numr" horiz-adv-x="655" 
d="M41 891v113l276 430h134l-277 -430h225v143h123v-143h103v-113h-103v-154h-123v154h-358z" />
    <glyph glyph-name="three.numr" horiz-adv-x="706" 
d="M61 932h134q1 -4 4 -11t15.5 -25t28.5 -31.5t47 -24.5t68 -11q74 0 114 33.5t40 89.5q0 49 -41.5 81t-120.5 32h-145v102l215 154v2l-21 -2h-297v113h492v-113l-195 -139l-20 -13v-2h10q106 0 176 -65.5t70 -159.5q0 -96 -75 -160.5t-202 -64.5q-52 0 -96.5 12t-74.5 31
t-53.5 41.5t-36.5 45.5t-21.5 42t-11.5 31z" />
    <glyph glyph-name="two.numr" horiz-adv-x="716" 
d="M72 737v113l174 102q145 85 205.5 145.5t60.5 121.5q0 56 -39.5 89t-114.5 33q-36 0 -66 -12.5t-47.5 -30.5t-29 -36t-15.5 -30l-5 -13h-123q2 10 6 25.5t24.5 56t49 71.5t83.5 56.5t123 25.5q127 0 202 -66.5t75 -168.5q0 -99 -89 -190.5t-259 -168.5l-11 -6l-10 -4v-2
l21 2h358v-113h-573z" />
    <glyph glyph-name="one.numr" horiz-adv-x="696" 
d="M113 737v113h204v450l-184 -112v133l195 113h112v-584h195v-113h-522z" />
    <glyph glyph-name="zero.numr" horiz-adv-x="757" 
d="M61 1085q0 165 92 267t226 102t225.5 -102t91.5 -267t-91.5 -266.5t-225.5 -101.5t-226 101.5t-92 266.5zM184 1085q0 -120 54 -188t141 -68t140.5 68t53.5 188t-53.5 188t-140.5 68t-141 -68t-54 -188z" />
    <glyph glyph-name="eight.tab" 
d="M61 389q0 61 17 115t40.5 90.5t59 68t62 48.5t61 32t44 18t22.5 7v2q-119 40 -186 134q-58 82 -58 192q0 74 34 142t95.5 121t155.5 84.5t206 31.5t206 -31.5t155.5 -84.5t96 -121.5t34.5 -141.5q0 -72 -25.5 -132t-61.5 -94t-72 -58.5t-61 -33.5l-26 -8v-2q6 -2 17.5 -5
t43 -16.5t60.5 -31t64.5 -48.5t61 -68.5t43 -92t17.5 -117.5q0 -85 -38 -162.5t-107 -137t-175 -95t-233 -35.5t-233 35.5t-175 95t-107 137t-38 162.5zM256 1096q0 -109 96 -193t262 -84q85 0 155 24.5t113.5 64.5t67 88.5t23.5 99.5q0 106 -95 181t-264 75t-263.5 -75
t-94.5 -181zM195 389q0 -130 110.5 -218.5t308.5 -88.5t309 88.5t111 218.5t-111 218.5t-309 88.5t-308.5 -88.5t-110.5 -218.5z" />
    <glyph glyph-name="seven.tab" 
d="M102 1034v400h1035v-123l-605 -1311h-143l604 1309v2h-757v-277h-134z" />
    <glyph glyph-name="six.tab" 
d="M82 461q0 40 5.5 77.5t11.5 65t24 64t27 55.5t38 59t40 54.5t49.5 62.5t50.5 64l368 471h154l-379 -480l-8 -10l-2 -2q51 21 174 21q141 0 259 -67.5t185.5 -183t67.5 -251.5q0 -102 -40.5 -194.5t-110.5 -160t-169.5 -107.5t-212.5 -40t-212.5 40t-169 107.5t-110 160
t-40.5 194.5zM215 461q0 -163 112 -271t287 -108t287.5 108t112.5 271t-112.5 271t-287.5 108t-287 -108t-112 -271z" />
    <glyph glyph-name="five.tab" 
d="M102 369h134q3 -12 9.5 -31t36.5 -68.5t70.5 -87.5t115.5 -69t167 -31q168 0 273.5 103.5t105.5 265.5t-105.5 265t-273.5 103q-69 0 -130 -18t-99 -43.5t-66.5 -51t-40.5 -43.5l-12 -18h-123l61 789h830v-123h-717l-41 -490v-2q5 5 14 13.5t40.5 29.5t67.5 37t94.5 29.5
t121.5 13.5q221 0 366.5 -141t145.5 -350t-145.5 -350.5t-366.5 -141.5q-72 0 -136.5 14t-112.5 38t-89.5 54.5t-69.5 64.5t-51 68t-36.5 64.5t-22 54.5t-11.5 38z" />
    <glyph glyph-name="four.tab" 
d="M82 328v123l512 983h143l-512 -983h625v389h10h123v-389h215v-123h-215v-328h-133v328h-768z" />
    <glyph glyph-name="three.tab" 
d="M72 369h133q1 -6 4 -16.5t16.5 -40t31 -57t50.5 -60.5t73.5 -56.5t101.5 -40t132 -16.5q173 0 276 93t103 235t-103 234.5t-276 92.5h-256v123l512 449v2h-727v123h912v-123l-492 -430l-20 -17v-4h71q112 0 209 -36t162.5 -97t103 -143t37.5 -174q0 -189 -143.5 -320
t-368.5 -131q-76 0 -142.5 14t-116 38t-91.5 54.5t-70 64.5t-50.5 68t-35.5 64.5t-21.5 54.5t-11.5 38z" />
    <glyph glyph-name="two.tab" 
d="M102 0v123l441 338q100 77 163.5 130.5t119.5 110t85 105t45.5 102t16.5 115.5q0 140 -100 234t-259 94q-63 0 -116 -17.5t-87.5 -45.5t-62 -62t-42.5 -68t-24.5 -62t-12.5 -45l-3 -18h-143q1 9 3.5 25t15.5 62t32 87.5t57.5 92.5t87.5 87.5t126 61.5t169 25
q140 0 253.5 -61.5t176 -164.5t62.5 -225q0 -90 -31.5 -173t-95 -162t-139.5 -148t-185 -152l-327 -248l-21 -14v-6l21 2h778v-123h-1004z" />
    <glyph glyph-name="one.tab" 
d="M164 0v123h420v1157l-267 -205v144l277 215h123v-1311h399v-123h-952z" />
    <glyph glyph-name="zero.tab" 
d="M41 522v389q0 254 156.5 409t416.5 155t417 -155t157 -409v-389q0 -254 -157 -408.5t-417 -154.5t-416.5 154.5t-156.5 408.5zM174 522q0 -200 120 -320t320 -120t320.5 120.5t120.5 319.5v389q0 199 -120.5 320t-320.5 121q-199 0 -319.5 -120.5t-120.5 -320.5v-389z
" />
    <glyph glyph-name="afii10021.alt" horiz-adv-x="1495" 
d="M0 -287v410h143q3 2 9 5.5t23 20.5t32.5 39t34.5 63t32.5 90.5t23 123.5t9.5 160v809h953v-1311h194v-410h-133v287h-1188v-287h-133zM307 123h819v1188h-686v-686q0 -118 -13.5 -213t-33 -146.5t-39.5 -86t-34 -45.5z" />
    <glyph glyph-name="f.alt" horiz-adv-x="614" 
d="M51 911v113h144v102q0 308 297 308h163v-113h-163q-175 0 -175 -195v-102h277v-113h-277v-911h-122v911h-144z" />
    <glyph glyph-name="t.alt" horiz-adv-x="727" 
d="M51 911v113h144v225h122v-225h338v-113h-338v-614q0 -184 175 -184h174v-113h-174q-146 0 -221.5 75.5t-75.5 221.5v614h-144z" />
    <glyph glyph-name="j.alt" horiz-adv-x="450" 
d="M133 1331q0 38 26.5 65t63.5 27q40 0 67 -27t27 -65t-27 -65t-65 -27t-65 27t-27 65zM-133 -389v113h133q78 0 121 48t43 146v1106h123v-1106q0 -152 -74 -229.5t-213 -77.5h-133z" />
    <glyph glyph-name="afii10055.alt" horiz-adv-x="993" 
d="M102 0v123h328v1188h-328v123h789v-123h-328v-1188h328v-123h-789z" />
    <glyph glyph-name="afii10056.alt" horiz-adv-x="993" 
d="M102 0v123h328v1188h-328v123h789v-123h-328v-1188h328v-123h-789zM584 1700q0 38 27 65t65 27t65 -27t27 -65t-27 -65t-65 -27t-65 27t-27 65zM236 1700q0 38 27 65t65 27t65 -27t27 -65t-27 -65t-65 -27t-65 27t-27 65z" />
    <glyph glyph-name="afii10061.alt" horiz-adv-x="1392" 
d="M317 0h-133v1434h133v-646h471q100 0 147.5 47.5t47.5 147.5v195q0 116 77.5 191t199.5 75h61v-123h-61q-62 0 -103 -41t-41 -102v-195q0 -60 -14 -108t-32 -74t-41 -43.5t-35.5 -22.5t-20.5 -6v-2q10 -3 21 -6.5t39.5 -21.5t49 -43.5t37.5 -74.5t17 -110v-215
q0 -62 40.5 -102.5t102.5 -40.5h61v-123h-61q-122 0 -199 75t-77 191v215q0 100 -47.5 147.5t-147.5 47.5h-492v-666zM610 1575l185 297h153v-2l-235 -295h-103z" />
    <glyph glyph-name="afii10051.alt" horiz-adv-x="1587" 
d="M20 1311v123h1065v-123h-491v-451h389q228 0 365 -131t137 -340v-133q0 -217 -133 -344t-369 -127h-2v123h2q183 0 276 89t93 259v133q0 163 -96.5 255.5t-272.5 92.5h-389v-737h-133v1311h-441z" />
    <glyph glyph-name="afii10058.alt" horiz-adv-x="2273" 
d="M-20 0v123q41 -21 102 -21t104 21.5t76.5 74.5t49.5 151t16 245v840h932v-512h430q234 0 373 -129t139 -332t-139 -332t-373 -129h-564v1311h-665v-717q0 -172 -25.5 -293.5t-74 -190.5t-112 -99.5t-147.5 -30.5q-32 0 -62.5 5t-45.5 10zM1260 123h430q181 0 279.5 90.5
t98.5 247.5t-98.5 247.5t-279.5 90.5h-430v-676z" />
    <glyph glyph-name="afii10099.alt" horiz-adv-x="1177" 
d="M31 1085v113h143v236h123v-236h266v-113h-266v-399h2q17 34 45.5 65.5t72 62t108.5 49t141 18.5q172 0 280.5 -119t108.5 -322v-522q0 -145 -79 -226t-218 -81h-113v113h113q174 0 174 194v522q0 158 -77 243t-210 85q-148 0 -248 -104.5t-100 -264.5v-399h-123v1085
h-143z" />
    <glyph glyph-name="afii10105.alt" horiz-adv-x="450" 
d="M133 1331q0 38 26.5 65t63.5 27q40 0 67 -27t27 -65t-27 -65t-65 -27t-65 27t-27 65zM-133 -389v113h133q78 0 121 48t43 146v1106h123v-1106q0 -152 -74 -229.5t-213 -77.5h-133z" />
    <glyph glyph-name="afii10106.alt" horiz-adv-x="1710" 
d="M0 8v111q31 -17 82 -17q89 0 131.5 61t42.5 216v645h727v-369h297q166 0 267.5 -93t101.5 -234t-101.5 -234.5t-267.5 -93.5h-420v911h-481v-532q0 -207 -70 -298t-207 -91q-27 0 -52.5 4.5t-37.5 9.5zM983 113h297q113 0 179.5 60.5t66.5 154.5t-66.5 154.5t-179.5 60.5
h-297v-430z" />
    <glyph glyph-name="afii10109.alt" horiz-adv-x="1085" 
d="M287 0h-123v1024h123v-451h327q69 0 101.5 32.5t32.5 101.5v122q0 94 59.5 149.5t165.5 55.5h41v-112h-41q-47 0 -75 -30t-28 -83v-123q0 -39 -10.5 -70t-22.5 -46.5t-30 -27.5t-25 -14l-14 -4v-2q86 -29 113 -109q10 -30 10 -65v-133q0 -53 28 -83t74 -30h41v-112h-41
q-106 0 -165.5 55.5t-59.5 149.5v133q0 68 -32 100.5t-101 32.5h-348v-461zM481 1167l185 297h153v-2l-235 -295h-103z" />
    <glyph glyph-name="ff.alt" horiz-adv-x="1239" 
d="M51 911v113h144v102q0 308 297 308h163v-113h-163q-175 0 -175 -195v-102h502v102q0 308 297 308h164v-113h-164q-174 0 -174 -195v-102h277v-113h-277v-911h-123v911h-502v-911h-122v911h-144z" />
    <glyph glyph-name="fi.alt" horiz-adv-x="1105" 
d="M51 911v113h144v102q0 308 297 308h389v-113h-389q-175 0 -175 -195v-102h625v-1024h-123v911h-502v-911h-122v911h-144z" />
    <glyph glyph-name="f_j.alt" horiz-adv-x="1105" 
d="M51 911v113h144v104q0 151 74 228.5t216 77.5h396v-113h-387q-177 0 -177 -193v-104h625v-1106q0 -152 -74 -229.5t-213 -77.5h-133v113h133q78 0 121 48t43 146v993h-502v-911h-122v911h-144z" />
    <glyph glyph-name="fl.alt" horiz-adv-x="1105" 
d="M51 911v113h144v102q0 142 102 235t276 93q166 0 267.5 -93.5t101.5 -234.5v-1126h-123v1126q0 94 -66.5 154.5t-179.5 60.5q-120 0 -188 -60t-68 -155v-102h277v-113h-277v-911h-122v911h-144z" />
    <glyph glyph-name="f_t.alt" horiz-adv-x="1351" 
d="M51 911v113h144v102q0 142 102 235t276 93q166 0 267.5 -93.5t101.5 -234.5v-102h338v-113h-338v-614q0 -184 174 -184h174v-113h-174q-146 0 -221.5 75.5t-75.5 221.5v614h-502v-911h-122v911h-144zM317 1024h502v102q0 94 -66.5 154.5t-179.5 60.5q-120 0 -188 -60
t-68 -155v-102z" />
    <glyph glyph-name="afii10072.alt" horiz-adv-x="1556" 
d="M51 -10v112h41q47 0 75 30t28 83v133q0 44 15 78.5t37.5 53.5t38 27.5t27.5 12.5v2q-11 2 -23.5 9.5t-31.5 24t-31 50.5t-12 80v123q0 53 -28 83t-74 30h-41v112h41q106 0 165.5 -55.5t59.5 -149.5v-122q0 -69 32 -101.5t101 -32.5h246v451h123v-451h245q69 0 101.5 32.5
t32.5 101.5v122q0 94 59.5 149.5t165.5 55.5h41v-112h-41q-47 0 -75 -30t-28 -83v-123q0 -39 -9.5 -69.5t-22.5 -47t-29 -28t-25.5 -15t-15.5 -4.5v-2q10 -3 18 -6t30 -17t36 -31t26.5 -48.5t12.5 -69.5v-133q0 -53 28 -83t74 -30h41v-112h-41q-106 0 -165.5 55.5
t-59.5 149.5v133q0 68 -32 100.5t-101 32.5h-266v-461h-123v461h-266q-69 0 -101.5 -32.5t-32.5 -100.5v-133q0 -94 -59.5 -149.5t-165.5 -55.5h-41z" />
    <glyph glyph-name="A_A" horiz-adv-x="2498" 
d="M51 0l379 1434h512l299 -1127l6 -31h4l6 31l299 1127h512l379 -1434h-133l-123 471h-757l-123 -471h-123l-123 471h-758l-123 -471h-133zM1464 594h697l-195 717h-307zM338 594h696l-194 717h-308z" />
    <glyph glyph-name="A_R" horiz-adv-x="2140" 
d="M51 0l379 1434h1096q233 0 367.5 -122.5t134.5 -318.5q0 -167 -99 -283.5t-280 -146.5l368 -563h-153l-359 553h-440v-553h-133v553h-604l-144 -553h-133zM1065 676h461q181 0 274.5 84t93.5 233q0 150 -93.5 234t-274.5 84h-461v-635zM358 676h574v635h-410z" />
    <glyph glyph-name="A_T" horiz-adv-x="1505" 
d="M72 0l346 1311h-244v123h1157v-123h-244l347 -1311h-134l-122 471h-359v-471h-133v471h-358l-123 -471h-133zM819 594h328l-195 717h-133v-717zM358 594h328v717h-133z" />
    <glyph glyph-name="A_V" horiz-adv-x="2129" 
d="M51 0l379 1434h512l348 -1311h297l338 1311h143l-378 -1434h-502l-123 471h-758l-123 -471h-133zM338 594h696l-194 717h-308z" />
    <glyph glyph-name="C_E" horiz-adv-x="1638" 
d="M102 717q0 162 56.5 303.5t154.5 241t235 156.5t292 57q90 0 172 -17.5t143.5 -47t115 -68t91.5 -81t69 -85t50 -81t32 -68t18 -47.5l5 -17h-133q-3 8 -8 22t-26.5 54.5t-48.5 77t-74 81.5t-102 77.5t-134.5 54.5t-169.5 22q-129 0 -241 -46.5t-192 -128.5t-125.5 -201
t-45.5 -259t45.5 -259t125.5 -201t192 -128.5t241 -46.5q92 0 173.5 23t138 60t103 82t75 90t48.5 82t28 60l7 23h133q-3 -11 -9.5 -30.5t-32.5 -76t-58.5 -108t-91.5 -114t-128 -107.5t-170 -76t-216 -31q-155 0 -292 57t-235 156.5t-154.5 241t-56.5 303.5zM584 369v696
h522v-123h-389v-154h287v-122h-287v-174h389v-123h-522z" />
    <glyph glyph-name="C_O" horiz-adv-x="1638" 
d="M102 717q0 162 56.5 303.5t154.5 241t235 156.5t292 57q90 0 172 -17.5t143.5 -47t115 -68t91.5 -81t69 -85t50 -81t32 -68t18 -47.5l5 -17h-133q-3 8 -8 22t-26.5 54.5t-48.5 77t-74 81.5t-102 77.5t-134.5 54.5t-169.5 22q-129 0 -241 -46.5t-192 -128.5t-125.5 -201
t-45.5 -259t45.5 -259t125.5 -201t192 -128.5t241 -46.5q92 0 173.5 23t138 60t103 82t75 90t48.5 82t28 60l7 23h133q-3 -11 -9.5 -30.5t-32.5 -76t-58.5 -108t-91.5 -114t-128 -107.5t-170 -76t-216 -31q-155 0 -292 57t-235 156.5t-154.5 241t-56.5 303.5zM502 717
q0 146 101 247t247 101t247 -101t101 -247t-101 -247t-247 -101t-247 101t-101 247zM635 717q0 -99 61 -162t154 -63t154 63t61 162t-61 162t-154 63t-154 -63t-61 -162z" />
    <glyph glyph-name="D_E" horiz-adv-x="2181" 
d="M184 0v1434h1905v-123h-1024v-2q11 -7 30 -20t68 -60.5t88.5 -102.5t75.5 -146.5t45 -191.5h563v-122h-563q-4 -76 -23 -146.5t-44 -121.5t-58 -98t-61 -75.5t-58 -53.5t-42.5 -33t-20.5 -13v-2h1024v-123h-1905zM317 123h318q268 0 436 166t168 428t-168 428t-436 166
h-318v-1188z" />
    <glyph glyph-name="E_A" horiz-adv-x="2324" 
d="M184 0v1434h871v-123h-738v-523h891l174 646h512l379 -1434h-133l-178 666h-651l-174 -666h-953zM1341 788h588l-137 523h-307zM317 123h717l144 543h-861v-543z" />
    <glyph glyph-name="J_A" horiz-adv-x="1884" 
d="M0 317l133 31q1 -6 4 -15.5t15 -37t27.5 -52.5t44 -56t63 -53t85 -37t109.5 -15q156 0 247 97t91 272v983h635l379 -1434h-133l-123 471h-625v-20q0 -229 -127 -360.5t-344 -131.5q-81 0 -152 19.5t-118.5 51.5t-86 70t-61 76t-37.5 70t-20 52zM952 594h594l-194 717
h-400v-717z" />
    <glyph glyph-name="K_K" horiz-adv-x="1761" 
d="M1055 737l501 697h164l-501 -697l522 -737h-164zM184 0v1434h133v-646h318l461 646h164l-502 -697l522 -737h-164l-471 666h-328v-666h-133z" />
    <glyph glyph-name="K_O" horiz-adv-x="2252" 
d="M184 0v1434h133v-646h318l461 646h164l-502 -697l522 -737h-164l-471 666h-328v-666h-133zM1137 727q0 109 41.5 208t111.5 170t166.5 113t202.5 42t202.5 -42t166.5 -113t111.5 -170t41.5 -208q0 -146 -70 -268.5t-190.5 -193t-261.5 -70.5t-261.5 70.5t-190.5 193
t-70 268.5zM1270 727q0 -175 113 -292.5t276 -117.5t276 117.5t113 292.5t-113 292.5t-276 117.5t-276 -117.5t-113 -292.5z" />
    <glyph glyph-name="L_A" horiz-adv-x="1925" 
d="M184 0v1434h133v-1311h318l348 1311h512l379 -1434h-133l-123 471h-758l-92 -348h328v-123h-912zM891 594h696l-194 717h-308z" />
    <glyph glyph-name="L_I" horiz-adv-x="1269" 
d="M963 348v1086h133v-1086h-133zM184 0v1434h133v-1311h779v-123h-912z" />
    <glyph glyph-name="L_L" horiz-adv-x="1280" 
d="M563 348v1086h133v-963h553v-123h-686zM184 0v1434h133v-1311h779v-123h-912z" />
    <glyph glyph-name="L_F" horiz-adv-x="1310" 
d="M584 328v1106h665v-123h-532v-377h430v-125h-430v-481h-133zM184 0v1434h133v-1311h779v-123h-912z" />
    <glyph glyph-name="L_O" horiz-adv-x="1638" 
d="M492 922q0 146 70 268.5t190.5 193t261.5 70.5t261.5 -70.5t190.5 -193t70 -268.5q0 -109 -41.5 -208t-111.5 -170t-166.5 -113t-202.5 -42t-202.5 42t-166.5 113t-111.5 170t-41.5 208zM184 0v1434h133v-1311h779v-123h-912zM625 922q0 -175 113 -292.5t276 -117.5
t276 117.5t113 292.5t-113 292t-276 117t-276 -117t-113 -292z" />
    <glyph glyph-name="N_A" horiz-adv-x="2222" 
d="M184 0v1434h205l766 -1280l10 -21h2v1301h625l379 -1434h-133l-123 471h-615v-471h-204l-766 1280l-11 20h-2v-1300h-133zM1300 594h584l-194 717h-390v-717z" />
    <glyph glyph-name="O_C" horiz-adv-x="2416" 
d="M102 717q0 162 56.5 303.5t154.5 241t235 156.5t292 57q63 0 126 -10.5t108.5 -25.5t82 -30.5t54.5 -26.5l18 -10q7 4 19 11t52.5 25t83.5 31.5t107 24.5t127 11q90 0 172 -17.5t143.5 -47t115 -68t91.5 -81t69 -85t50 -81t32 -68t18 -47.5l5 -17h-133q-3 8 -8 22
t-26.5 54.5t-48.5 77t-74 81.5t-102 77.5t-134.5 54.5t-169.5 22q-77 0 -146.5 -15.5t-99.5 -30.5l-31 -16q10 -8 25.5 -23.5t56.5 -69t72 -115t56.5 -160.5t25.5 -205t-24.5 -204t-59 -162.5t-69 -113.5t-58.5 -71l-25 -23q12 -7 33.5 -17t94 -27t149.5 -17q92 0 173.5 23
t138 60t103 82t75 90t48.5 82t28 60l7 23h133q-3 -11 -9.5 -30.5t-32.5 -76t-58.5 -108t-91.5 -114t-128 -107.5t-170 -76t-216 -31q-100 0 -197 25.5t-145 51.5l-47 25q-7 -4 -19 -11t-52.5 -24.5t-83.5 -31t-107 -24.5t-127 -11q-155 0 -292 57t-235 156.5t-154.5 241
t-56.5 303.5zM236 717q0 -140 45.5 -259t125.5 -201t192 -128.5t241 -46.5q73 0 142 15t102 31l32 15q-10 8 -25.5 23.5t-56 69.5t-71.5 115.5t-56.5 160.5t-25.5 205t24 204t58.5 162.5t69.5 113t59 71.5l24 22q-13 7 -36 17.5t-95 27.5t-145 17q-129 0 -241 -46.5
t-192 -128.5t-125.5 -201t-45.5 -259zM1014 717q0 -69 12 -134t31 -113.5t42 -91.5t45.5 -72t41.5 -50t31 -31l12 -10q9 7 23.5 20t51.5 59.5t65.5 100t51.5 140.5t23 182q0 69 -12 134t-31 113.5t-42 91.5t-45.5 72t-41.5 50t-31 31l-12 10q-9 -7 -23.5 -20t-51.5 -59.5
t-65.5 -100t-51.5 -140.5t-23 -182z" />
    <glyph glyph-name="O_G" horiz-adv-x="2539" 
d="M102 717q0 162 56.5 303.5t154.5 241t235 156.5t292 57q63 0 126 -10.5t108.5 -25.5t82 -30.5t54.5 -26.5l18 -10q7 4 19 11t52.5 25t83.5 31.5t107 24.5t127 11q113 0 212.5 -27.5t168 -72t125 -98t91 -107t58 -98t32.5 -72.5l9 -27h-133q-3 8 -8.5 21.5t-28 53
t-49.5 75.5t-75 79.5t-102.5 75t-133 53t-166.5 21.5q-77 0 -146.5 -15.5t-99.5 -30.5l-31 -16q10 -8 25.5 -23.5t56.5 -69t72 -115t56.5 -160.5t25.5 -205t-24.5 -204t-59 -162.5t-69 -113.5t-58.5 -71l-25 -23q12 -7 33.5 -17t94 -27t149.5 -17q116 0 220 41.5t179.5 113
t124 169t60.5 208.5h-287v123h604v-123h-184q-46 -296 -238 -475.5t-479 -179.5q-100 0 -197 25.5t-145 51.5l-47 25q-7 -4 -19 -11t-52.5 -24.5t-83.5 -31t-107 -24.5t-127 -11q-155 0 -292 57t-235 156.5t-154.5 241t-56.5 303.5zM236 717q0 -140 45.5 -259t125.5 -201
t192 -128.5t241 -46.5q73 0 142 15t102 31l32 15q-10 8 -25.5 23.5t-56 69.5t-71.5 115.5t-56.5 160.5t-25.5 205t24 204t58.5 162.5t69.5 113t59 71.5l24 22q-13 7 -36 17.5t-95 27.5t-145 17q-129 0 -241 -46.5t-192 -128.5t-125.5 -201t-45.5 -259zM1014 717
q0 -69 12 -134t31 -113.5t42 -91.5t45.5 -72t41.5 -50t31 -31l12 -10q9 7 23.5 20t51.5 59.5t65.5 100t51.5 140.5t23 182q0 69 -12 134t-31 113.5t-42 91.5t-45.5 72t-41.5 50t-31 31l-12 10q-9 -7 -23.5 -20t-51.5 -59.5t-65.5 -100t-51.5 -140.5t-23 -182z" />
    <glyph glyph-name="O_L_I" horiz-adv-x="2867" 
d="M102 717q0 162 56.5 303.5t154.5 241t235 156.5t292 57t292 -57t234.5 -156.5t154 -241t56.5 -303.5t-56.5 -303.5t-154 -241t-234.5 -156.5t-292 -57t-292 57t-235 156.5t-154.5 241t-56.5 303.5zM236 717q0 -140 45.5 -259t125.5 -201t192 -128.5t241 -46.5t241 46.5
t192 128.5t125.5 201t45.5 259t-45.5 259t-125.5 201t-192 128.5t-241 46.5t-241 -46.5t-192 -128.5t-125.5 -201t-45.5 -259zM2560 348v1086h133v-1086h-133zM1782 0v1434h133v-1311h778v-123h-911z" />
    <glyph glyph-name="O_O" horiz-adv-x="2457" 
d="M102 717q0 162 56.5 303.5t154.5 241t235 156.5t292 57q63 0 126 -10.5t108.5 -25.5t82 -30.5t54.5 -26.5l18 -10q7 4 19 11t52.5 25t83.5 31.5t107 24.5t127 11q155 0 292 -57t234.5 -156.5t154 -241t56.5 -303.5t-56.5 -303.5t-154 -241t-234.5 -156.5t-292 -57
q-100 0 -197 25.5t-145 51.5l-47 25q-7 -4 -19 -11t-52.5 -24.5t-83.5 -31t-107 -24.5t-127 -11q-155 0 -292 57t-235 156.5t-154.5 241t-56.5 303.5zM1341 143q12 -7 33.5 -17t94 -27t149.5 -17q129 0 241 46.5t192 128.5t125.5 201t45.5 259t-45.5 259t-125.5 201
t-192 128.5t-241 46.5q-77 0 -146.5 -15.5t-99.5 -30.5l-31 -16q10 -8 25.5 -23.5t56.5 -69t72 -115t56.5 -160.5t25.5 -205t-24.5 -204t-59 -162.5t-69 -113.5t-58.5 -71zM236 717q0 -140 45.5 -259t125.5 -201t192 -128.5t241 -46.5q73 0 142 15t102 31l32 15
q-10 8 -25.5 23.5t-56 69.5t-71.5 115.5t-56.5 160.5t-25.5 205t24 204t58.5 162.5t69.5 113t59 71.5l24 22q-13 7 -36 17.5t-95 27.5t-145 17q-129 0 -241 -46.5t-192 -128.5t-125.5 -201t-45.5 -259zM1014 717q0 -69 12 -134t31 -113.5t42 -91.5t45.5 -72t41.5 -50t31 -31
l12 -10q9 7 23.5 20t51.5 59.5t65.5 100t51.5 140.5t23 182q0 69 -12 134t-31 113.5t-42 91.5t-45.5 72t-41.5 50t-31 31l-12 10q-9 -7 -23.5 -20t-51.5 -59.5t-65.5 -100t-51.5 -140.5t-23 -182z" />
    <glyph glyph-name="P_H" horiz-adv-x="2426" 
d="M184 0v1434h584q234 0 373 -129t139 -332v-185h829v646h134v-1434h-134v666h-829v-666h-133v645l-14 -14t-43 -32t-73.5 -40.5t-107 -32t-141.5 -14.5h-451v-512h-133zM317 635h451q182 0 280.5 91t98.5 247t-98.5 247t-280.5 91h-451v-676z" />
    <glyph glyph-name="R_J" horiz-adv-x="2078" 
d="M184 0v1434h594q233 0 367.5 -122.5t134.5 -318.5q0 -167 -99 -283.5t-280 -146.5l103 -153q66 -99 111 -156t95.5 -99t102 -57.5t121.5 -15.5q156 0 247 97t91 272v983h133v-983q0 -229 -127 -360.5t-344 -131.5q-70 0 -131 17t-112.5 47.5t-104 83t-99.5 113.5
t-106 149l-123 184h-441v-553h-133zM317 676h461q181 0 275 84t94 233t-94 233.5t-275 84.5h-461v-635z" />
    <glyph glyph-name="S_A" horiz-adv-x="2600" 
d="M31 379h133q2 -6 5.5 -17t19 -41.5t35.5 -58.5t56.5 -62.5t79.5 -59t107 -41.5t137 -17q191 0 295.5 82.5t104.5 204.5q0 79 -39 135.5t-101.5 89.5t-137.5 61t-150.5 60.5t-138 75.5t-101.5 117.5t-39 176.5q0 77 34 147.5t95.5 124.5t155.5 86t206 32q76 0 142.5 -13
t116 -35t91.5 -50.5t70.5 -59.5t51 -62.5t35.5 -60t21.5 -50.5t11.5 -35l3 -13h-133q-1 5 -4 14.5t-16.5 36t-31 50.5t-51 53.5t-74 51t-101.5 36t-132 14.5q-169 0 -263.5 -77t-94.5 -190q0 -76 39 -131.5t101.5 -89t138 -61.5t150.5 -61.5t137.5 -77t101.5 -118.5t39 -177
q0 -81 -36.5 -155t-102.5 -131t-168.5 -90.5t-225.5 -33.5q-100 0 -186 23t-143 60t-102.5 82t-71 90t-42.5 82t-23 60zM1280 0l379 1434h512l379 -1434h-133l-123 471h-758l-123 -471h-133zM1567 594h696l-195 717h-307z" />
    <glyph glyph-name="T_A" horiz-adv-x="1587" 
d="M20 1311v123h1137l379 -1434h-133l-123 471h-614v-471h-134v1311h-512zM666 594h583l-194 717h-389v-717z" />
    <glyph glyph-name="T_E" horiz-adv-x="1464" 
d="M20 1311v123h1158v-123h-512v-328h675v-123h-675v-307h512v-123h-512v-307h675v-123h-809v1311h-512z" />
    <glyph glyph-name="T_H_E" horiz-adv-x="2539" 
d="M20 1311v123h1117v-123h-492v-523h830v646h972v-123h-839v-523h686v-122h-686v-543h839v-123h-972v666h-830v-666h-133v1311h-492z" />
    <glyph glyph-name="T_T" horiz-adv-x="1740" 
d="M20 1311v123h1158v-123h-512v-1311h-134v1311h-512zM850 860v123h809v-123h-338v-860h-133v860h-338z" />
    <glyph glyph-name="U_U" horiz-adv-x="1597" 
d="M174 532v902h133v-902q0 -202 132.5 -326t359.5 -124t359 124t132 326v902h133v-902q0 -257 -168 -415t-456 -158t-456.5 158t-168.5 415zM471 614v512h133v-512q0 -235 195 -235q194 0 194 235v512h133v-512q0 -167 -89.5 -262.5t-237.5 -95.5t-238 95.5t-90 262.5z" />
    <glyph glyph-name="W_E" horiz-adv-x="2580" 
d="M82 1434h143l277 -1311h71l287 1311h246l287 -1311h71l277 1311h747v-123h-635l-112 -523h594v-122h-625l-123 -543h901v-123h-1198l-276 1311h-62l-276 -1311h-277z" />
    <glyph glyph-name="afii10024.alt" horiz-adv-x="2017" 
d="M51 -10v123h62q61 0 102 40.5t41 102.5v215q0 58 15.5 105t34.5 72t46 44.5t39 24t25 8.5v2q-11 4 -20 7.5t-33.5 22.5t-41.5 44t-31 73.5t-14 108.5v195q0 62 -41 102.5t-102 40.5h-61v123h61q122 0 199.5 -75t77.5 -191v-195q0 -100 47 -147.5t147 -47.5h338v646h133
v-646h338q100 0 147.5 47.5t47.5 147.5v195q0 116 77 191t199 75h62v-123h-62q-62 0 -102.5 -40.5t-40.5 -102.5v-195q0 -59 -13.5 -106.5t-31 -73.5t-40.5 -44.5t-36 -24t-23 -7.5v-2q9 -2 18 -5.5t31 -14t39.5 -29.5t36 -45t29 -68t10.5 -92v-215q0 -61 41 -102t103 -41
h61v-123h-61q-122 0 -199.5 75t-77.5 191v215q0 100 -47 147.5t-147 47.5h-359v-666h-133v666h-358q-100 0 -147.5 -47.5t-47.5 -147.5v-215q0 -116 -77 -191t-199 -75h-62z" />
    <glyph glyph-name="afii10076.alt" horiz-adv-x="1085" 
d="M287 0h-123v1024h123v-451h327q69 0 101.5 32.5t32.5 101.5v122q0 94 59.5 149.5t165.5 55.5h41v-112h-41q-47 0 -75 -30t-28 -83v-123q0 -39 -10.5 -70t-22.5 -46.5t-30 -27.5t-25 -14l-14 -4v-2q86 -29 113 -109q10 -30 10 -65v-133q0 -53 28 -83t74 -30h41v-112h-41
q-106 0 -165.5 55.5t-59.5 149.5v133q0 68 -32 100.5t-101 32.5h-348v-461z" />
    <glyph glyph-name="afii10028.alt" horiz-adv-x="1392" 
d="M317 0h-133v1434h133v-646h471q100 0 147.5 47.5t47.5 147.5v195q0 116 77.5 191t199.5 75h61v-123h-61q-62 0 -103 -41t-41 -102v-195q0 -60 -14 -108t-32 -74t-41 -43.5t-35.5 -22.5t-20.5 -6v-2q10 -3 21 -6.5t39.5 -21.5t49 -43.5t37.5 -74.5t17 -110v-215
q0 -62 40.5 -102.5t102.5 -40.5h61v-123h-61q-122 0 -199 75t-77 191v215q0 100 -47.5 147.5t-147.5 47.5h-492v-666z" />
    <glyph glyph-name="afii10077.alt" horiz-adv-x="1187" 
d="M0 8v111q31 -17 82 -17q89 0 131.5 61t42.5 216v645h768v-1024h-123v911h-522v-532q0 -207 -70 -298t-207 -91q-27 0 -52.5 4.5t-37.5 9.5z" />
    <glyph glyph-name="afii10029.alt" horiz-adv-x="1484" 
d="M-20 0v123q41 -21 102 -21t104 21.5t76.5 74.5t49.5 151t16 245v840h972v-1434h-133v1311h-706v-717q0 -172 -25.5 -293.5t-74 -190.5t-112 -99.5t-147.5 -30.5q-32 0 -62.5 5t-45.5 10z" />
    <glyph glyph-name="gcommaaccent.alt" horiz-adv-x="1126" 
d="M430 1362q0 91 54.5 149t140.5 66v-61q-54 -7 -83.5 -37t-29.5 -76q0 -9 2.5 -19t5.5 -16l2 -6q11 10 31 10q38 0 60 -22t22 -60q0 -32 -27.5 -57t-64.5 -25q-48 0 -80.5 40.5t-32.5 113.5zM41 -123q0 38 13 71.5t33.5 57.5t45.5 44.5t50.5 33.5t46 22t33.5 13l13 4v235
q-7 4 -19 11.5t-42 35t-52.5 60t-41.5 87t-19 114.5q0 158 123 268t318 110q41 0 79 -5t56 -10l18 -5h430v-113h-245l-17 2v-2q5 -3 13 -9.5t28.5 -29.5t36 -49t28.5 -68.5t13 -88.5q0 -158 -122.5 -268.5t-317.5 -110.5q-41 0 -79.5 5t-56.5 10l-18 5v-153q62 10 154 10
q125 0 224 -26t157.5 -68t89 -91.5t30.5 -101.5t-30.5 -101.5t-89 -91.5t-157.5 -68t-224 -26t-224.5 26t-158 68t-89 91.5t-30.5 101.5zM225 666q0 -111 88 -189t230 -78t229.5 78t87.5 189t-87.5 188.5t-229.5 77.5t-230 -77.5t-88 -188.5zM164 -123q0 -65 95.5 -119.5
t283.5 -54.5t283.5 54.5t95.5 119.5q0 64 -96.5 119t-282.5 55q-188 0 -283.5 -54.5t-95.5 -119.5z" />
    <glyph glyph-name="gbreve.alt" horiz-adv-x="1126" 
d="M41 -123q0 38 13 71.5t33.5 57.5t45.5 44.5t50.5 33.5t46 22t33.5 13l13 4v235q-7 4 -19 11.5t-42 35t-52.5 60t-41.5 87t-19 114.5q0 158 123 268t318 110q41 0 79 -5t56 -10l18 -5h430v-113h-245l-17 2v-2q5 -3 13 -9.5t28.5 -29.5t36 -49t28.5 -68.5t13 -88.5
q0 -158 -122.5 -268.5t-317.5 -110.5q-41 0 -79.5 5t-56.5 10l-18 5v-153q62 10 154 10q125 0 224 -26t157.5 -68t89 -91.5t30.5 -101.5t-30.5 -101.5t-89 -91.5t-157.5 -68t-224 -26t-224.5 26t-158 68t-89 91.5t-30.5 101.5zM225 666q0 -111 88 -189t230 -78t229.5 78
t87.5 189t-87.5 188.5t-229.5 77.5t-230 -77.5t-88 -188.5zM164 -123q0 -65 95.5 -119.5t283.5 -54.5t283.5 54.5t95.5 119.5q0 64 -96.5 119t-282.5 55q-188 0 -283.5 -54.5t-95.5 -119.5zM256 1477h113q0 -63 44 -103.5t119 -40.5t119.5 40.5t44.5 103.5h113
q0 -102 -78 -174t-199 -72q-120 0 -198 72t-78 174z" />
    <glyph glyph-name="Iogonek.alt" horiz-adv-x="993" 
d="M102 0v123h328v1188h-328v123h789v-123h-328v-1188h328v-123q-10 -4 -26.5 -12t-59 -34.5t-75 -55t-59 -73.5t-26.5 -91q0 -39 29 -65.5t74 -26.5q32 0 68 7.5t56 14.5l19 8v-92q-61 -41 -143 -41q-91 0 -148 53.5t-57 131.5q0 49 22 95t53.5 77.5t63.5 56t54 35.5l22 12
h-656z" />
    <glyph glyph-name="Aacute.alt2" horiz-adv-x="1372" 
d="M51 0l379 1434h205v256h153v-2l-40 -254h194l379 -1434h-133l-123 471h-758l-123 -471h-133zM338 594h696l-194 717h-308z" />
    <glyph glyph-name="Adieresis.alt2" horiz-adv-x="1372" 
d="M1024 1362q0 38 27 65t65 27t65 -27t27 -65t-27 -65t-65 -27t-65 27t-27 65zM164 1362q0 38 27 65t65 27t65 -27t27 -65t-27 -65t-65 -27t-65 27t-27 65zM51 0l379 1434h512l379 -1434h-133l-123 471h-758l-123 -471h-133zM338 594h696l-194 717h-308z" />
    <glyph glyph-name="Aring.alt2" horiz-adv-x="1372" 
d="M51 0l379 1434h102q-2 1 -5.5 3.5t-12.5 11.5t-15.5 20t-12 29t-5.5 38q0 64 58 114t147 50t147 -50t58 -114q0 -32 -12.5 -57.5t-25.5 -34.5l-13 -10h102l379 -1434h-133l-123 471h-758l-123 -471h-133zM573 1526q0 -40 30.5 -66t82.5 -26t82.5 26t30.5 66t-30.5 66
t-82.5 26t-82.5 -26t-30.5 -66zM338 594h696l-194 717h-308z" />
    <glyph glyph-name="Odieresis.alt2" horiz-adv-x="1679" 
d="M102 717q0 162 56.5 303.5t154.5 241t235 156.5t292 57t292 -57t234.5 -156.5t154 -241t56.5 -303.5t-56.5 -303.5t-154 -241t-234.5 -156.5t-292 -57t-292 57t-235 156.5t-154.5 241t-56.5 303.5zM1372 1362q0 38 27 65t65 27t65 -27t27 -65t-27 -65t-65 -27t-65 27
t-27 65zM123 1362q0 38 27 65t65 27t65 -27t27 -65t-27 -65t-65 -27t-65 27t-27 65zM236 717q0 -140 45.5 -259t125.5 -201t192 -128.5t241 -46.5t241 46.5t192 128.5t125.5 201t45.5 259t-45.5 259t-125.5 201t-192 128.5t-241 46.5t-241 -46.5t-192 -128.5t-125.5 -201
t-45.5 -259z" />
    <glyph glyph-name="Otilde.alt2" horiz-adv-x="1679" 
d="M532 1454v53q0 75 49.5 123.5t125.5 48.5q45 0 86 -21t66.5 -45.5t56 -45.5t57.5 -21q31 0 51 20.5t20 51.5v51h103v-53q0 -75 -49 -123.5t-125 -48.5q-45 0 -86 21t-66.5 45.5t-56 45.5t-57.5 21q-31 0 -51.5 -20.5t-20.5 -51.5v-51h-103zM102 666q0 203 96.5 364.5
t265 251.5t376.5 90t376.5 -90t264.5 -251.5t96 -364.5q0 -151 -56.5 -283t-154 -225t-234.5 -146t-292 -53q-208 0 -376.5 90.5t-265 252.5t-96.5 364zM236 666q0 -171 78 -304.5t215.5 -206.5t310.5 -73t310.5 73t215.5 206.5t78 304.5t-78 304.5t-215.5 206t-310.5 72.5
t-310.5 -72.5t-215.5 -206t-78 -304.5z" />
    <glyph glyph-name="Scaron.alt2" horiz-adv-x="1300" 
d="M92 379h133q2 -6 5.5 -17t19.5 -41.5t36 -58.5t56.5 -62.5t79.5 -59t107 -41.5t137 -17q191 0 295 82.5t104 204.5q0 62 -31 110t-84 79.5t-121 57t-144 47t-151.5 45t-143.5 55.5t-121 73.5t-84 105t-31 143.5q0 137 98 243t270 136l-153 203v2h123l143 -194h51l143 194
h123v-2l-153 -207q69 -14 127.5 -42t97.5 -61t70 -69.5t48 -70.5t28 -61t14 -44l4 -16h-133q-1 5 -4 14.5t-16.5 36t-31 50.5t-51 53.5t-74 51t-101.5 36t-132 14.5q-169 0 -263.5 -77t-94.5 -190q0 -60 31 -107.5t84 -78.5t121 -56.5t144 -47.5t151.5 -45.5t143.5 -56.5
t121 -74.5t84 -105.5t31 -144q0 -81 -36 -155t-102.5 -131t-168.5 -90.5t-225 -33.5q-100 0 -186 23t-143 60t-103 82t-71.5 90t-42.5 82t-22 60z" />
    <glyph glyph-name="Udieresis.alt2" horiz-adv-x="1454" 
d="M1126 1341q0 38 27.5 65.5t65.5 27.5t65 -27.5t27 -65.5t-27 -65t-65 -27t-65.5 27t-27.5 65zM143 1341q0 38 27.5 65.5t65.5 27.5t65 -27.5t27 -65.5t-27 -65t-65 -27t-65.5 27t-27.5 65zM174 532v656h133v-656q0 -213 113 -331.5t307 -118.5t307 118.5t113 331.5v656
h133v-656q0 -260 -153 -416.5t-400 -156.5t-400 156.5t-153 416.5z" />
    <glyph glyph-name="Zcaron.alt2" 
d="M72 0v123l901 1177v11h-871v123h390l-164 233v2h123l153 -235h31l153 235h123v-2l-163 -233h399v-123l-901 -1178v-10h911v-123h-1085z" />
    <glyph glyph-name="ampersand.alt2" horiz-adv-x="1751" 
d="M133 573q0 113 40 212.5t107.5 169.5t160 110.5t194.5 40.5q197 0 330 -125.5t172 -335.5l-871 -174q33 -164 168 -271.5t354 -107.5q86 0 163.5 18t135 49t107.5 71t84.5 84.5t62.5 88.5t45 84t28 71t16 49l4 18h-174v102h481v-102h-185q-2 -8 -5.5 -22.5t-18 -58.5
t-33.5 -86.5t-53 -101t-74.5 -108t-100.5 -100.5t-128.5 -87t-160 -58.5t-194.5 -22.5q-147 0 -270.5 45t-207.5 124.5t-130.5 188.5t-46.5 235zM256 584l737 153q-42 109 -135 182.5t-223 73.5q-164 0 -271.5 -113.5t-107.5 -295.5z" />
    <glyph glyph-name="ampersand.alt" horiz-adv-x="1423" 
d="M102 379q0 59 17 111t40 87t60 66t62 47t61 31t43.5 17.5t22.5 6.5v3q-9 3 -17 6t-37.5 17t-53 30.5t-54.5 45t-52 61t-36 79t-15 98.5q0 77 34.5 147.5t96 124.5t155.5 86t206 32q94 0 175 -21t135 -54.5t97 -73.5t67.5 -80.5t41 -74t21.5 -54.5l6 -21h-134
q-3 10 -9.5 27.5t-37.5 61.5t-72 78t-118 61.5t-172 27.5q-170 0 -264.5 -77t-94.5 -190q0 -112 102 -199t257 -87h82v-123h-82q-184 0 -291.5 -87.5t-107.5 -209.5q0 -123 109.5 -210t299.5 -87q198 0 309 106.5t111 292.5v195h-174v123h522v-123h-215v-195
q0 -232 -151 -377t-402 -145q-123 0 -227 35.5t-172 94t-106 134t-38 156.5z" />
    <glyph glyph-name="florin.alt" horiz-adv-x="727" 
d="M-154 -389v113h123q185 0 215 215l144 972h-123v113h143l21 143q15 111 101 189t206 78h164v-113h-164q-82 0 -128.5 -41.5t-55.5 -112.5l-21 -143h266v-113h-286l-144 -972q-25 -170 -105 -249t-233 -79h-123z" />
    <glyph glyph-name="periodcentered.case" horiz-adv-x="573" 
d="M184 737q0 47 28.5 75t74.5 28t74 -28.5t28 -74.5t-28 -74t-74 -28q-45 0 -74 28.5t-29 73.5z" />
    <glyph glyph-name="tcaron.alt" horiz-adv-x="727" 
d="M430 1176q0 31 27 56t65 25q48 0 80.5 -40t32.5 -113q0 -91 -54.5 -149t-140.5 -66v61q54 7 83.5 37t29.5 76q0 9 -2.5 19t-4.5 16l-3 6q-11 -10 -31 -10q-38 0 -60 22t-22 60zM51 911v113h144v225h122v-952q0 -184 175 -184h174v-113h-174q-146 0 -221.5 75.5
t-75.5 221.5v614h-144z" />
    <glyph glyph-name="tcommaaccent.alt" horiz-adv-x="727" 
d="M51 911v113h144v225h122v-225h338v-113h-338v-614q0 -184 175 -184h174v-113h-174q-146 0 -221.5 75.5t-75.5 221.5v614h-144zM328 -287q0 32 27.5 57t64.5 25q48 0 80 -40t32 -113q0 -91 -54 -149t-140 -66v61q54 7 83.5 37t29.5 76q0 9 -2.5 19t-5.5 16l-3 6
q-10 -11 -30 -11q-38 0 -60 22t-22 60z" />
    <glyph glyph-name="uni021B.alt" horiz-adv-x="727" 
d="M51 911v113h144v225h122v-225h338v-113h-338v-614q0 -184 175 -184h174v-113h-174q-146 0 -221.5 75.5t-75.5 221.5v614h-144zM328 -287q0 32 27.5 57t64.5 25q48 0 80 -40t32 -113q0 -91 -54 -149t-140 -66v61q54 7 83.5 37t29.5 76q0 9 -2.5 19t-5.5 16l-3 6
q-10 -11 -30 -11q-38 0 -60 22t-22 60z" />
    <glyph glyph-name="Eacute.alt2" horiz-adv-x="1249" 
d="M184 0v1434h441v256h153v-2l-41 -254h420v-123h-840v-523h687v-122h-687v-543h840v-123h-973z" />
    <glyph glyph-name="Iacute.alt2" horiz-adv-x="501" 
d="M195 1434v256h153v-2l-41 -254h-112zM184 0v1311h133v-1311h-133z" />
    <glyph glyph-name="Oacute.alt2" horiz-adv-x="1679" 
d="M102 717q0 154 51 289.5t140.5 234t215 159.5t269.5 73v217h154v-2l-35 -215q145 -11 271 -72t216 -159t141.5 -234t51.5 -291q0 -162 -56.5 -303.5t-154 -241t-234.5 -156.5t-292 -57t-292 57t-235 156.5t-154.5 241t-56.5 303.5zM236 717q0 -140 45.5 -259t125.5 -201
t192 -128.5t241 -46.5t241 46.5t192 128.5t125.5 201t45.5 259t-45.5 259t-125.5 201t-192 128.5t-241 46.5t-241 -46.5t-192 -128.5t-125.5 -201t-45.5 -259z" />
    <glyph glyph-name="Uacute.alt2" horiz-adv-x="1454" 
d="M666 1434v256h153v-2l-41 -254h-112zM174 532v902h133v-902q0 -213 113 -331.5t307 -118.5t307 118.5t113 331.5v902h133v-902q0 -260 -153 -416.5t-400 -156.5t-400 156.5t-153 416.5z" />
    </font>
</defs>
</svg>
