<?xml version="1.0" standalone="no"?>
<!DOCTYPE svg PUBLIC "-//W3C//DTD SVG 1.1//EN" "http://www.w3.org/Graphics/SVG/1.1/DTD/svg11.dtd" >
<svg xmlns="http://www.w3.org/2000/svg" xmlns:xlink="http://www.w3.org/1999/xlink" version="1.1">
<metadata>
Created by FontForge 20170731 at Mon Aug  3 21:24:35 2020
 By Aleksey,,,
Copyright (c) 2018 by Typetype. Designer Ivan Gladkikh, technical designers Philipp Nurullin, Vika Usmanova, Nadyr Rakhimov, Marina Khodak. All rights reserved.
</metadata>
<defs>
<font id="TTFirsNeue-LightItalic" horiz-adv-x="1259" >
  <font-face 
    font-family="TT Firs Neue Light"
    font-weight="300"
    font-style="italic"
    font-stretch="normal"
    units-per-em="2048"
    panose-1="2 0 5 3 3 0 0 9 0 4"
    ascent="1638"
    descent="-410"
    x-height="1024"
    cap-height="1434"
    bbox="-627 -573 3058 2111"
    underline-thickness="102"
    underline-position="-409"
    slope="-10"
    unicode-range="U+000D-FB02"
  />
<missing-glyph horiz-adv-x="0" 
 />
    <glyph glyph-name="ff" unicode="ff" 
d="M477 911l-160 -911h-122l159 911h-143l20 113h144l71 410h461l-18 -113h-338l-53 -297h501l72 410h461l-19 -113h-337l-54 -297h277l-21 -113h-276l-160 -911h-123l160 911h-502z" />
    <glyph glyph-name="fi" unicode="fi" horiz-adv-x="1105" 
d="M819 0l160 911h-502l-160 -911h-122l159 911h-143l20 113h144l71 410h687l-19 -113h-563l-53 -297h624l-180 -1024h-123z" />
    <glyph glyph-name="fl" unicode="fl" horiz-adv-x="1208" 
d="M1194 1434l-231 -1321h235l-20 -113h-359l234 1321h-502l-53 -297h276l-20 -113h-277l-160 -911h-122l159 911h-143l20 113h144l71 410h748z" />
    <glyph glyph-name="f_j" unicode="fj" horiz-adv-x="1105" 
d="M1122 1024l-250 -1413h-419l20 113h297l209 1187h-502l-160 -911h-122l159 911h-143l20 113h144l71 410h687l-19 -113h-563l-53 -297h624z" />
    <glyph glyph-name="f_t" unicode="ft" horiz-adv-x="1351" 
d="M211 911l20 113h144l71 410h748l-72 -410h338l-20 -113h-338l-139 -798h348l-21 -113h-471l160 911h-502l-160 -911h-122l159 911h-143zM551 1321l-53 -297h501l54 297h-502z" />
    <glyph glyph-name=".notdef" horiz-adv-x="0" 
 />
    <glyph glyph-name=".null" horiz-adv-x="0" 
 />
    <glyph glyph-name=".null" horiz-adv-x="0" 
 />
    <glyph glyph-name="nonmarkingreturn" horiz-adv-x="682" 
 />
    <glyph glyph-name="CR" unicode="&#xd;" horiz-adv-x="0" 
 />
    <glyph glyph-name="space" unicode=" " horiz-adv-x="573" 
 />
    <glyph glyph-name="exclam" unicode="!" horiz-adv-x="573" 
d="M602 1434l-131 -748l-70 -276h-82l29 276l131 748h123zM293 -31q-43 0 -69.5 26.5t-26.5 65.5q0 51 31.5 82t78.5 31q43 0 69.5 -26.5t26.5 -65.5q0 -51 -31.5 -82t-78.5 -31z" />
    <glyph glyph-name="quotedbl" unicode="&#x22;" horiz-adv-x="727" 
d="M508 1434l-47 -267l-62 -235h-82l21 235l47 267h123zM825 1434l-47 -267l-61 -235h-82l20 235l47 267h123z" />
    <glyph glyph-name="numbersign" unicode="#" horiz-adv-x="1351" 
d="M1120 1014l197 420h123l-197 -420h225l-18 -103h-256l-180 -389h246l-19 -102h-276l-197 -420h-123l197 420h-359l-196 -420h-123l196 420h-225l19 102h256l180 389h-246l18 103h277l197 420h122l-196 -420h358zM1071 911h-358l-181 -389h359z" />
    <glyph glyph-name="dollar" unicode="$" horiz-adv-x="1300" 
d="M754 82q87 -3 161 21.5t121.5 66t74 94.5t26.5 109q0 66 -43.5 118.5t-113 89t-153 70t-167.5 70.5t-153.5 80.5t-113 110.5t-43.5 151q0 169 139 290.5t359 121.5h10l33 184h133l-35 -197q238 -42 338 -230q31 -59 45 -136h-131q-1 5 -3.5 14.5t-14 36t-28 50.5
t-49 53.5t-73.5 51t-104 36t-138 14.5q-157 0 -252.5 -79.5t-95.5 -193.5q0 -65 43.5 -117.5t113 -89t153 -70.5t167.5 -72t153.5 -82t113 -111.5t43.5 -151.5q0 -83 -37.5 -160t-105 -136t-168.5 -94.5t-220 -35.5h-14l-33 -184h-133l35 196q-79 14 -144 44.5t-107 67.5
t-74 78t-48.5 79.5t-27 69.5t-13.5 50l-2 19h133q0 -3 4 -17.5t16.5 -42.5t32 -58t54.5 -62.5t79.5 -58t111 -42t145.5 -16.5z" />
    <glyph glyph-name="percent" unicode="%" horiz-adv-x="1566" 
d="M1409 1434h133l-1112 -1434h-133zM653 1343q-96 0 -165.5 -72.5t-69.5 -183.5q0 -86 54.5 -142t143.5 -56q96 0 166 72.5t70 183.5q0 86 -55 142t-144 56zM602 778q-130 0 -217.5 90.5t-87.5 216.5q0 153 112.5 261t258.5 108q130 0 217.5 -90.5t87.5 -216.5
q0 -153 -112.5 -261t-258.5 -108zM1186 90q96 0 165.5 72.5t69.5 183.5q0 86 -54.5 142.5t-143.5 56.5q-96 0 -166 -72.5t-70 -183.5q0 -86 55 -142.5t144 -56.5zM1237 655q130 0 217.5 -90.5t87.5 -216.5q0 -153 -112.5 -260.5t-258.5 -107.5q-130 0 -217.5 90.5
t-87.5 216.5q0 153 112.5 260.5t258.5 107.5z" />
    <glyph glyph-name="ampersand" unicode="&#x26;" horiz-adv-x="1433" 
d="M664 82q161 0 282 125t121 309q0 150 -94 247t-240 97q-161 0 -282 -125t-121 -309q0 -150 94 -247t240 -97zM1360 0l-191 395q-22 -129 -95.5 -228.5t-181.5 -153.5t-233 -54q-207 0 -341 134t-134 331q0 157 78 287t203.5 201t267.5 71q48 0 91.5 -9.5t63.5 -19.5
l19 -10l-176 367l21 123h798l-20 -123h-645l628 -1311h-153z" />
    <glyph glyph-name="quotesingle" unicode="'" horiz-adv-x="409" 
d="M508 1434l-47 -267l-62 -235h-82l21 235l47 267h123z" />
    <glyph glyph-name="parenleft" unicode="(" horiz-adv-x="747" 
d="M950 1546l56 -98q-274 -177 -427 -448t-153 -560q0 -123 29 -241.5t70 -199.5t82.5 -144.5t70.5 -94.5l29 -30l-84 -88q-7 6 -19 17.5t-46.5 51t-66 84t-69.5 115t-65.5 145.5t-46.5 174.5t-19 202.5q0 121 22.5 237t60.5 209t87.5 178.5t104 151.5t109.5 122t104.5 95.5
t87.5 67t61 40.5z" />
    <glyph glyph-name="parenright" unicode=")" horiz-adv-x="747" 
d="M16 -358l-55 98q274 177 427 448t153 560q0 123 -29 241.5t-70 199.5t-82.5 144.5t-70.5 94.5l-29 30l84 88q7 -6 19 -17.5t46.5 -51t66 -84t69.5 -115t65.5 -145.5t46.5 -174.5t19 -202.5q0 -121 -22.5 -237t-61 -209t-88 -178.5t-104 -151.5t-109 -122t-104 -95.5
t-88 -67t-61.5 -40.5z" />
    <glyph glyph-name="asterisk" unicode="*" horiz-adv-x="737" 
d="M594 1434v-246h246v-103h-215l143 -215l-92 -51l-133 215l-133 -215l-93 51l144 215h-215v103h246v246h102z" />
    <glyph glyph-name="plus" unicode="+" horiz-adv-x="1024" 
d="M694 573v-358h-123v358h-338v113h338v358h123v-358h338v-113h-338z" />
    <glyph glyph-name="comma" unicode="," horiz-adv-x="399" 
d="M195 -20q-30 0 -52 25t-22 56q0 44 32.5 73.5t73.5 29.5q45 0 73 -30.5t28 -92.5q0 -126 -69.5 -198.5t-180.5 -88.5l12 62q146 35 146 143l-5 27q-16 -6 -36 -6z" />
    <glyph glyph-name="hyphen" unicode="-" horiz-adv-x="983" 
d="M961 512h-738l23 123h737z" />
    <glyph glyph-name="period" unicode="." horiz-adv-x="389" 
d="M221 -31q-43 0 -69.5 26.5t-26.5 65.5q0 51 32 82t79 31q43 0 69.5 -26.5t26.5 -65.5q0 -51 -32 -82t-79 -31z" />
    <glyph glyph-name="slash" unicode="/" horiz-adv-x="716" 
d="M969 1434l-815 -1434h-134l816 1434h133z" />
    <glyph glyph-name="zero" unicode="0" horiz-adv-x="1515" 
d="M819 82q107 0 209.5 50.5t185.5 143t134 240.5t51 326q0 236 -124.5 372t-322.5 136q-85 0 -168 -31t-157.5 -95t-131 -152.5t-89.5 -213t-33 -268.5q0 -237 124 -372.5t322 -135.5zM813 -41q-255 0 -415 171t-160 458q0 162 41 304.5t111 247.5t161.5 181t195.5 114
t211 38q255 0 415.5 -171t160.5 -458q0 -162 -41 -304.5t-111 -247t-162 -181t-196 -114.5t-211 -38z" />
    <glyph glyph-name="one" unicode="1" horiz-adv-x="634" 
d="M315 0l228 1280l-303 -205l24 144l316 215h122l-253 -1434h-134z" />
    <glyph glyph-name="two" unicode="2" horiz-adv-x="1167" 
d="M702 389l-393 -266h799l-23 -123h-1003l22 123l500 338q247 168 265 180q152 109 208 196q60 92 60 214q0 128 -93 214.5t-247 86.5q-80 0 -148 -33t-108 -79.5t-68.5 -93t-39.5 -79.5l-11 -33h-146q2 9 6.5 25t23.5 62t43.5 87.5t68 92.5t95 87.5t127 61.5t161.5 25
q139 0 247 -57.5t165 -152t57 -208.5q0 -60 -14 -115t-35.5 -99.5t-60.5 -91.5t-76 -82.5t-96 -80t-106 -77.5t-119 -81q-41 -27 -61 -41z" />
    <glyph glyph-name="three" unicode="3" horiz-adv-x="1208" 
d="M682 860h33q107 0 197.5 -35.5t149.5 -94.5t91.5 -134.5t32.5 -155.5q0 -131 -69.5 -241t-193 -175t-272.5 -65q-78 0 -146 14t-116.5 38t-88.5 54.5t-65.5 64.5t-45 68t-29.5 64.5t-16 54.5t-8 38l-1 14h129q1 -6 3 -16.5t13.5 -40t28 -57t48 -60.5t71 -56.5t100.5 -40
t134 -16.5q171 0 281 100t110 252q0 130 -100 216.5t-259 86.5h-219l23 123l589 451h-727l23 123h911l-22 -123z" />
    <glyph glyph-name="four" unicode="4" horiz-adv-x="1198" 
d="M983 0h-133l57 328h-768l23 123l684 983h143l-684 -983h625l67 389h133l-67 -389h215l-23 -123h-215z" />
    <glyph glyph-name="five" unicode="5" 
d="M588 1311l-123 -473q4 4 12.5 11t37 25t61 32t83.5 25t105 11q214 0 348.5 -127t134.5 -319q0 -148 -75 -272t-201.5 -194.5t-274.5 -70.5q-94 0 -173 22.5t-129 59t-88.5 80t-58 87t-32 80t-15.5 58.5l-3 23h131q1 -6 3.5 -16.5t13.5 -40t27 -57t46.5 -60.5t68.5 -56.5
t96.5 -40t127.5 -16.5q169 0 285 116.5t116 293.5q0 146 -99.5 236.5t-258.5 90.5q-62 0 -120 -16t-96 -38.5t-67 -44.5t-42 -38l-13 -16h-113l195 768h829l-22 -123h-717z" />
    <glyph glyph-name="six" unicode="6" horiz-adv-x="1239" 
d="M184 422q0 86 21.5 158.5t68 137.5t93 115t122.5 123q22 20 33 31l457 447h164l-492 -480q29 9 92 9q224 0 368 -128t144 -335q0 -147 -77.5 -271.5t-209 -197t-284.5 -72.5q-221 0 -360.5 134t-139.5 329zM696 82q179 0 302.5 118.5t123.5 295.5q0 149 -104.5 246.5
t-274.5 97.5q-179 0 -302.5 -118.5t-123.5 -295.5q0 -149 104.5 -246.5t274.5 -97.5z" />
    <glyph glyph-name="seven" unicode="7" horiz-adv-x="993" 
d="M319 0h-143l836 1311h-789l21 123h932l-21 -123z" />
    <glyph glyph-name="eight" unicode="8" horiz-adv-x="1310" 
d="M733 -41q-104 0 -201.5 27.5t-176 78t-126 131.5t-47.5 179q0 236 207 353q69 39 170 63q-8 3 -21 9.5t-46 30.5t-58 53.5t-46 80t-21 108.5q0 78 35 150t97 128.5t156.5 90t206.5 33.5q113 0 207 -31t154 -83t92.5 -117t32.5 -136q0 -203 -181 -309q-47 -27 -123 -51
q10 -3 26.5 -10t58.5 -35t74 -62t58.5 -94.5t26.5 -130.5q0 -90 -39 -172.5t-109.5 -146t-176 -101t-230.5 -37.5zM860 819q160 0 258.5 87t98.5 196q0 103 -94.5 176.5t-270.5 73.5q-82 0 -150.5 -25t-112 -66t-67.5 -91t-24 -101q0 -104 93.5 -177t268.5 -73zM745 82
q187 0 298.5 93.5t111.5 227.5q0 124 -112.5 209.5t-319.5 85.5q-187 0 -298.5 -93.5t-111.5 -227.5q0 -124 112.5 -209.5t319.5 -85.5z" />
    <glyph glyph-name="nine" unicode="9" horiz-adv-x="1239" 
d="M1311 1012q0 -39 -5.5 -76.5t-12 -67.5t-24 -65t-28.5 -57.5t-38 -57t-41 -51.5t-50 -54t-51 -51.5t-57 -55.5q-21 -20 -31 -30l-457 -446h-164l492 479q-29 -8 -92 -8q-224 0 -368 128t-144 335q0 147 77.5 271.5t209 197t284.5 72.5q221 0 360.5 -134t139.5 -329z
M799 1352q-179 0 -302.5 -118.5t-123.5 -295.5q0 -149 104.5 -246.5t274.5 -97.5q179 0 302.5 118.5t123.5 295.5q0 149 -104.5 246.5t-274.5 97.5z" />
    <glyph glyph-name="colon" unicode=":" horiz-adv-x="389" 
d="M373 840q-43 0 -70 26.5t-27 65.5q0 51 32 81.5t79 30.5q43 0 69.5 -26.5t26.5 -65.5q0 -51 -31.5 -81.5t-78.5 -30.5zM221 -31q-43 0 -69.5 26.5t-26.5 65.5q0 51 32 82t79 31q43 0 69.5 -26.5t26.5 -65.5q0 -51 -32 -82t-79 -31z" />
    <glyph glyph-name="semicolon" unicode=";" horiz-adv-x="389" 
d="M195 -20q-30 0 -52 25t-22 56q0 44 32.5 73.5t73.5 29.5q45 0 73 -30.5t28 -92.5q0 -126 -69.5 -198.5t-180.5 -88.5l12 62q146 35 146 143l-5 27q-16 -6 -36 -6zM373 840q-43 0 -70 26.5t-27 65.5q0 51 32 81.5t79 30.5q43 0 69.5 -26.5t26.5 -65.5q0 -51 -31.5 -81.5
t-78.5 -30.5z" />
    <glyph glyph-name="less" unicode="&#x3c;" horiz-adv-x="1024" 
d="M215 440v144l778 409v-123l-655 -348v-20l655 -348v-123z" />
    <glyph glyph-name="equal" unicode="=" horiz-adv-x="1024" 
d="M1004 676h-758v112h758v-112zM1004 297h-758v113h758v-113z" />
    <glyph glyph-name="greater" unicode="&#x3e;" horiz-adv-x="1024" 
d="M1004 584v-144l-779 -409v123l656 348v20l-656 348v123z" />
    <glyph glyph-name="question" unicode="?" horiz-adv-x="1075" 
d="M1042 1096q0 117 -81.5 186.5t-225.5 69.5q-67 0 -125.5 -16t-99 -41t-74 -56t-53 -61.5t-33.5 -55.5t-19 -41l-5 -16h-142q3 9 8.5 23.5t27 57t48 81.5t72.5 86t98.5 81t127.5 57.5t159 23.5q202 0 326.5 -106.5t124.5 -262.5q0 -88 -29 -156.5t-76 -112.5t-104 -80.5
t-115.5 -70t-108 -70t-85 -92t-42.5 -125.5h-135q12 89 49.5 157t87.5 109.5t108 75.5t113.5 65t101 67t73.5 92t28 131zM494 -31q-43 0 -70 26.5t-27 65.5q0 51 32 82t79 31q43 0 69.5 -26.5t26.5 -65.5q0 -51 -31.5 -82t-78.5 -31z" />
    <glyph glyph-name="at" unicode="@" horiz-adv-x="1669" 
d="M1100 338l16 90q-3 -5 -8 -12t-24 -26.5t-41.5 -34t-60.5 -26.5t-81 -12q-118 0 -199 85t-81 216q0 159 106 267t238 108q144 0 207 -103q18 -30 18 -40l22 123h123l-92 -522h12q66 0 127.5 26.5t111 75t79 125t29.5 168.5q0 88 -38 170.5t-108 148.5t-180 106t-244 40
q-138 0 -265.5 -55t-223.5 -150t-153.5 -232.5t-57.5 -293.5q0 -257 165.5 -418.5t438.5 -161.5q87 0 170.5 18t123.5 36l40 18l-21 -113q-15 -8 -43.5 -20t-115 -32t-172.5 -20q-156 0 -289.5 53.5t-224.5 146t-142 219t-51 269.5q0 175 68.5 333.5t182 270.5t265.5 178
t315 66q125 0 235 -32.5t190.5 -89t139 -130t88 -157t29.5 -168.5q0 -235 -150 -371.5t-411 -136.5h-63zM930 430q91 0 159 73.5t68 182.5q0 88 -51.5 141.5t-132.5 53.5q-91 0 -159.5 -73.5t-68.5 -182.5q0 -88 52 -141.5t133 -53.5z" />
    <glyph glyph-name="A" unicode="A" horiz-adv-x="1382" 
d="M1229 0l-39 471h-758l-207 -471h-133l631 1434h512l127 -1434h-133zM1112 1311h-307l-322 -717h697z" />
    <glyph glyph-name="B" unicode="B" horiz-adv-x="1433" 
d="M963 676h-527l-96 -553h588q153 0 244.5 85t91.5 222q0 106 -79.5 176t-221.5 70zM1065 1311h-516l-90 -512h569q127 0 208 78.5t81 207.5q0 97 -67 161.5t-185 64.5zM436 1434h629q183 0 284 -99.5t101 -244.5q0 -205 -159 -313q-37 -24 -93 -46l-4 -10q8 -3 22 -9
t49 -29.5t61.5 -53.5t48.5 -83.5t22 -115.5q0 -184 -134 -307t-345 -123h-734z" />
    <glyph glyph-name="C" unicode="C" horiz-adv-x="1638" 
d="M1522 502h137q-4 -11 -12 -30.5t-38.5 -76t-67.5 -108t-101 -114t-137 -107.5t-177.5 -76t-220.5 -31q-151 0 -279 50.5t-216.5 139.5t-138.5 213.5t-50 268.5q0 181 66.5 339.5t177 268.5t257.5 173t306 63q127 0 236.5 -36t182.5 -91t127.5 -125.5t82 -135.5t35.5 -124
h-136q-2 8 -6 22t-21.5 54.5t-41 77t-67.5 81.5t-97.5 77.5t-134 54.5t-174.5 22q-131 0 -251 -52.5t-210.5 -144.5t-144.5 -227.5t-54 -292.5q0 -246 154 -399.5t405 -153.5q93 0 177 23t144 60t110.5 82t82 90t54 82t31.5 60z" />
    <glyph glyph-name="D" unicode="D" horiz-adv-x="1474" 
d="M840 1311h-291l-209 -1188h387q136 0 256 51t205.5 139t134.5 211.5t49 263.5q0 147 -67 266.5t-189 188t-276 68.5zM436 1434h404q192 0 344 -82t236.5 -229.5t84.5 -334.5q0 -162 -62 -308t-167.5 -251.5t-252 -167t-308.5 -61.5h-531z" />
    <glyph glyph-name="E" unicode="E" horiz-adv-x="1249" 
d="M340 123h840l-23 -123h-973l252 1434h973l-20 -123h-840l-92 -523h686l-23 -122h-686z" />
    <glyph glyph-name="F" unicode="F" horiz-adv-x="1187" 
d="M428 625l-111 -625h-133l252 1434h953l-21 -123h-819l-100 -563h655l-21 -123h-655z" />
    <glyph glyph-name="G" unicode="G" horiz-adv-x="1761" 
d="M1550 614h-282l20 123h604l-20 -123h-184q-16 -86 -56 -174.5t-108.5 -175.5t-156 -154t-208 -109t-254.5 -42q-151 0 -279 50.5t-216.5 139.5t-138.5 213.5t-50 268.5q0 181 66.5 339.5t177 268.5t257.5 173t306 63q127 0 234.5 -34t178.5 -86t124.5 -121.5t81.5 -133
t41 -127.5h-136q-2 8 -6 21.5t-22 53t-42 75.5t-68 79.5t-97 75t-132 53t-171 21.5q-131 0 -251 -52.5t-210.5 -144.5t-144.5 -227.5t-54 -292.5q0 -246 154 -399.5t405 -153.5q98 0 187 26.5t155.5 70.5t122 99.5t91 116t56.5 116.5t25 103z" />
    <glyph glyph-name="H" unicode="H" horiz-adv-x="1464" 
d="M184 0l252 1434h133l-112 -646h829l113 646h133l-252 -1434h-133l117 666h-830l-117 -666h-133z" />
    <glyph glyph-name="I" unicode="I" horiz-adv-x="501" 
d="M569 1434l-252 -1434h-133l252 1434h133z" />
    <glyph glyph-name="J" unicode="J" horiz-adv-x="1126" 
d="M1217 1434l-181 -1022q-38 -215 -169.5 -334t-325.5 -119q-93 0 -169.5 24t-126 60.5t-86.5 86.5t-55 95.5t-28 93.5l137 29q1 -6 2.5 -15.5t10.5 -37t22 -52.5t39 -56t59.5 -53t85 -37t113.5 -15q138 0 234.5 89.5t125.5 252.5l178 1010h134z" />
    <glyph glyph-name="K" unicode="K" horiz-adv-x="1290" 
d="M1116 0l-354 666h-328l-117 -666h-133l252 1434h133l-112 -646h317l574 646h163l-624 -697l393 -737h-164z" />
    <glyph glyph-name="L" unicode="L" horiz-adv-x="1077" 
d="M569 1434l-229 -1311h778l-22 -123h-912l252 1434h133z" />
    <glyph glyph-name="M" unicode="M" horiz-adv-x="1873" 
d="M1149 358h-297l-303 953l-232 -1311h-133l252 1434h215l303 -953h133l639 953h216l-252 -1434h-134l232 1311z" />
    <glyph glyph-name="N" unicode="N" horiz-adv-x="1484" 
d="M1300 0h-194l-559 1300l-230 -1300h-133l252 1434h195l559 -1301l229 1301h133z" />
    <glyph glyph-name="O" unicode="O" horiz-adv-x="1679" 
d="M915 82q131 0 251.5 52.5t211.5 144.5t145 227.5t54 292.5q0 247 -155 400t-406 153q-131 0 -251.5 -52.5t-211.5 -144.5t-145 -227.5t-54 -292.5q0 -247 155 -400t406 -153zM907 -41q-151 0 -279.5 51t-217.5 140t-139 213t-50 268q0 180 66 338.5t176 268.5
t256.5 173.5t304.5 63.5q151 0 279.5 -51t217.5 -140t139 -213t50 -268q0 -180 -66 -338.5t-176 -268.5t-256.5 -173.5t-304.5 -63.5z" />
    <glyph glyph-name="P" unicode="P" horiz-adv-x="1392" 
d="M983 1311h-434l-119 -676h506q178 0 282.5 104.5t104.5 272.5q0 129 -91.5 214t-248.5 85zM436 1434h547q112 0 203 -34t149 -91.5t89.5 -132t31.5 -158.5q0 -218 -148 -362t-380 -144h-520l-91 -512h-133z" />
    <glyph glyph-name="Q" unicode="Q" horiz-adv-x="1679" 
d="M707 -410l67 379q-250 40 -401.5 221.5t-151.5 440.5q0 180 66 338.5t176 268.5t256.5 173.5t304.5 63.5q151 0 279.5 -51t217.5 -140t139 -213t50 -268q0 -180 -66.5 -339t-177 -268.5t-257 -173t-304.5 -63.5l-65 -369h-133zM915 82q131 0 251.5 52.5t211.5 144.5
t145 227.5t54 292.5q0 247 -155 400t-406 153q-131 0 -251.5 -52.5t-211.5 -144.5t-145 -227.5t-54 -292.5q0 -247 155 -400t406 -153z" />
    <glyph glyph-name="R" unicode="R" horiz-adv-x="1402" 
d="M973 1311h-424l-113 -635h520q171 0 271 98t100 258q0 128 -91 203.5t-263 75.5zM436 1434h557q216 0 341.5 -112.5t125.5 -283.5q0 -198 -125.5 -332t-333.5 -149l269 -557h-154l-260 553h-440l-99 -553h-133z" />
    <glyph glyph-name="S" unicode="S" horiz-adv-x="1300" 
d="M754 82q87 -3 161 21.5t121.5 66t74 94.5t26.5 109q0 66 -43.5 118.5t-113 89t-153 70t-167.5 70.5t-153.5 80.5t-113 110.5t-43.5 151q0 169 139 290.5t359 121.5q317 0 454 -200q54 -78 70 -179h-131q-1 5 -3.5 14.5t-14 36t-28 50.5t-49 53.5t-73.5 51t-104 36
t-138 14.5q-157 0 -252.5 -79.5t-95.5 -193.5q0 -65 43.5 -117.5t113 -89t153 -70.5t167.5 -72t153.5 -82t113 -111.5t43.5 -151.5q0 -83 -37.5 -160t-105 -136t-168.5 -94.5t-220 -35.5q-147 0 -258.5 43.5t-166.5 105t-88.5 123t-40.5 105.5l-7 43h133q0 -3 4 -17.5
t16.5 -42.5t32 -58t54.5 -62.5t79.5 -58t111 -42t145.5 -16.5z" />
    <glyph glyph-name="T" unicode="T" horiz-adv-x="1198" 
d="M731 1311h-512l23 123h1157l-23 -123h-512l-231 -1311h-133z" />
    <glyph glyph-name="U" unicode="U" horiz-adv-x="1454" 
d="M264 553l156 881h133l-156 -881q-37 -211 65 -341t320 -130q174 0 292 108t153 306l166 938h133l-168 -949q-42 -243 -203 -384.5t-385 -141.5q-176 0 -302 77.5t-179.5 213t-24.5 303.5z" />
    <glyph glyph-name="V" unicode="V" horiz-adv-x="1382" 
d="M549 123h297l569 1311h148l-631 -1434h-502l-127 1434h139z" />
    <glyph glyph-name="W" unicode="W" horiz-adv-x="1966" 
d="M1350 1434l55 -1311h72l508 1311h141l-570 -1434h-278l-47 1311h-62l-505 -1311h-275l-65 1434h137l45 -1311h72l518 1311h254z" />
    <glyph glyph-name="X" unicode="X" horiz-adv-x="1300" 
d="M1260 0h-138l-243 655h-187l-473 -655h-147l516 717l-244 717h137l224 -656h184l452 656h150l-494 -717z" />
    <glyph glyph-name="Y" unicode="Y" horiz-adv-x="1300" 
d="M1511 1434l-723 -912l-92 -522h-133l92 522l-403 912h158l327 -758h11l593 758h170z" />
    <glyph glyph-name="Z" unicode="Z" horiz-adv-x="1228" 
d="M82 0l22 123l1108 1177l2 11h-870l21 123h1044l-20 -123l-1110 -1178v-10h911l-23 -123h-1085z" />
    <glyph glyph-name="bracketleft" unicode="[" horiz-adv-x="665" 
d="M854 1362h-297l-270 -1536h297l-23 -123h-430l313 1782h430z" />
    <glyph glyph-name="backslash" unicode="\" horiz-adv-x="716" 
d="M573 0l-311 1434h133l312 -1434h-134z" />
    <glyph glyph-name="bracketright" unicode="]" horiz-adv-x="665" 
d="M590 1362h-297l20 123h430l-313 -1782h-430l23 123h296z" />
    <glyph glyph-name="asciicircum" unicode="^" horiz-adv-x="942" 
d="M635 1311h-41l-236 -523h-122l296 646h164l297 -646h-123z" />
    <glyph glyph-name="underscore" unicode="_" horiz-adv-x="634" 
d="M657 -338h-716l20 113h717z" />
    <glyph glyph-name="grave" unicode="`" horiz-adv-x="460" 
d="M250 1423h153l132 -297h-103z" />
    <glyph glyph-name="a" unicode="a" 
d="M975 0l31 172q-47 -73 -149 -132.5t-232 -59.5q-190 0 -318.5 134.5t-128.5 336.5q0 126 47 238t123.5 189t174.5 121.5t200 44.5q86 0 158 -26t118 -67t74 -83.5t39 -83.5l43 240h123l-180 -1024h-123zM639 92q76 0 151.5 34.5t136.5 94t99.5 148.5t38.5 190
q0 162 -98.5 267.5t-239.5 105.5q-76 0 -151.5 -34.5t-136.5 -94t-99.5 -148.5t-38.5 -190q0 -162 98.5 -267.5t239.5 -105.5z" />
    <glyph glyph-name="b" unicode="b" 
d="M539 1434l-103 -582q47 73 149 132.5t232 59.5q190 0 318.5 -134.5t128.5 -336.5q0 -126 -47 -238t-123.5 -189t-174.5 -121.5t-200 -44.5q-86 0 -158 26t-118 67t-74 83.5t-39 83.5l-43 -240h-123l252 1434h123zM803 932q-76 0 -151.5 -34.5t-136.5 -94t-99.5 -148.5
t-38.5 -190q0 -162 98.5 -267.5t239.5 -105.5q76 0 151.5 34.5t136.5 94t99.5 148.5t38.5 190q0 162 -98.5 267.5t-239.5 105.5z" />
    <glyph glyph-name="c" unicode="c" horiz-adv-x="1167" 
d="M1038 358h123q-3 -8 -8.5 -21.5t-27 -53t-47 -75t-70 -79t-94.5 -75t-121 -53t-150 -21.5q-197 0 -331 134.5t-134 338.5q0 126 47.5 238t125.5 188t177.5 120.5t202.5 44.5q81 0 150 -19.5t114 -51.5t80.5 -70t55 -76t32 -70t15.5 -51l4 -20h-123q-1 5 -4 14t-15 34.5
t-27 48.5t-42.5 51.5t-60 49t-81 34.5t-104.5 14q-78 0 -154.5 -35t-136 -95.5t-96.5 -150t-37 -190.5q0 -161 99.5 -265t246.5 -104q78 0 147 27.5t112 66.5t74.5 78t44.5 66z" />
    <glyph glyph-name="d" unicode="d" 
d="M975 0l31 172q-47 -73 -149 -132.5t-232 -59.5q-190 0 -318.5 134.5t-128.5 336.5q0 126 47 238t123.5 189t174.5 121.5t200 44.5q86 0 158 -26t118 -67t74 -83.5t39 -83.5l113 650h123l-250 -1434h-123zM639 92q76 0 151.5 34.5t136.5 94t99.5 148.5t38.5 190
q0 162 -98.5 267.5t-239.5 105.5q-76 0 -151.5 -34.5t-136.5 -94t-99.5 -148.5t-38.5 -190q0 -162 98.5 -267.5t239.5 -105.5z" />
    <glyph glyph-name="e" unicode="e" horiz-adv-x="1208" 
d="M178 453q0 114 42.5 221t115.5 189t178.5 131.5t224.5 49.5q207 0 339 -134.5t132 -336.5q0 -24 -2.5 -49.5t-5.5 -39.5l-2 -13h-899v-10q0 -162 100.5 -265.5t262.5 -103.5q53 0 103.5 12.5t88 32.5t70 44t54.5 47.5t38 43.5t24 32l7 13h122q-3 -7 -9.5 -19t-29.5 -47
t-50 -67t-72 -71t-94.5 -67t-118 -47t-142.5 -19q-209 0 -343 133t-134 340zM315 584h766q0 60 -22.5 120t-63.5 111.5t-110 84t-152 32.5q-155 0 -271.5 -104.5t-146.5 -243.5z" />
    <glyph glyph-name="f" unicode="f" horiz-adv-x="624" 
d="M201 911l20 113h144l71 410h461l-18 -113h-338l-54 -297h277l-21 -113h-276l-160 -911h-123l160 911h-143z" />
    <glyph glyph-name="g" unicode="g" 
d="M158 -389l20 113h748l80 448q-47 -73 -149 -132.5t-232 -59.5q-190 0 -318.5 134.5t-128.5 336.5q0 126 47 238t123.5 189t174.5 121.5t200 44.5q86 0 158 -26t118 -67t74 -83.5t39 -83.5l43 240h123l-250 -1413h-870zM639 92q76 0 151.5 34.5t136.5 94t99.5 148.5
t38.5 190q0 162 -98.5 267.5t-239.5 105.5q-76 0 -151.5 -34.5t-136.5 -94t-99.5 -148.5t-38.5 -190q0 -162 98.5 -267.5t239.5 -105.5z" />
    <glyph glyph-name="h" unicode="h" horiz-adv-x="1187" 
d="M416 1434h123l-97 -553q4 7 12.5 18t39 39t67.5 49.5t99 39t131 17.5q203 0 297 -130.5t57 -344.5l-101 -569h-122l104 592q27 151 -39.5 245.5t-218.5 94.5q-137 0 -244 -93.5t-133 -242.5l-104 -596h-123z" />
    <glyph glyph-name="i" unicode="i" horiz-adv-x="450" 
d="M164 0l180 1024h123l-180 -1024h-123zM453 1239q-37 0 -60.5 25t-23.5 61q0 41 30 69.5t70 28.5q37 0 60.5 -25t23.5 -61q0 -41 -30 -69.5t-70 -28.5z" />
    <glyph glyph-name="j" unicode="j" horiz-adv-x="450" 
d="M469 1024l-250 -1413h-420l21 113h297l229 1300h123zM455 1239q-37 0 -60.5 25t-23.5 61q0 41 30 69.5t70 28.5q37 0 60.5 -25t23.5 -61q0 -41 -30 -69.5t-70 -28.5z" />
    <glyph glyph-name="k" unicode="k" horiz-adv-x="1064" 
d="M371 481l-84 -481h-123l252 1434h123l-148 -840h244l414 430h145l-465 -492l315 -532h-141l-285 481h-247z" />
    <glyph glyph-name="l" unicode="l" horiz-adv-x="552" 
d="M539 1434l-232 -1321h236l-21 -113h-358l252 1434h123z" />
    <glyph glyph-name="m" unicode="m" horiz-adv-x="1863" 
d="M1092 829h12q5 9 15 23.5t45.5 51.5t77 65.5t110 51.5t143.5 23q180 0 273 -132t55 -341l-103 -571h-123l105 582q28 155 -34 252.5t-193 97.5q-126 0 -232 -90t-129 -221l-110 -621h-123l104 586q27 152 -35 249t-194 97q-124 0 -230 -89t-129 -218l-110 -625h-123
l180 1024h123l-25 -143q5 7 14.5 18t42 39t69 49.5t95 39t119.5 17.5q71 0 128.5 -22t90 -54t54.5 -63.5t29 -53.5z" />
    <glyph glyph-name="n" unicode="n" horiz-adv-x="1187" 
d="M344 1024h123l-25 -143q4 7 12.5 18t39 39t67.5 49.5t99 39t131 17.5q203 0 297 -130.5t57 -344.5l-101 -569h-122l104 592q27 151 -39.5 245.5t-218.5 94.5q-137 0 -244 -93.5t-133 -242.5l-104 -596h-123z" />
    <glyph glyph-name="o" unicode="o" horiz-adv-x="1228" 
d="M662 -20q-214 0 -349 134.5t-135 338.5q0 126 46.5 237t124.5 188t181.5 121.5t214.5 44.5q214 0 349 -134.5t135 -338.5q0 -126 -46.5 -237t-124.5 -188t-181.5 -121.5t-214.5 -44.5zM301 461q0 -161 102.5 -265t264.5 -104q85 0 165 35t140 96.5t96.5 150t36.5 189.5
q0 161 -102.5 265t-264.5 104q-85 0 -165 -35t-140 -96.5t-96.5 -150t-36.5 -189.5z" />
    <glyph glyph-name="p" unicode="p" 
d="M465 1024l-31 -172q47 73 149 132.5t232 59.5q190 0 318.5 -134.5t128.5 -336.5q0 -126 -47 -238t-123.5 -189t-174.5 -121.5t-200 -44.5q-86 0 -158 26t-118 67t-74 83.5t-39 83.5l-111 -629h-123l248 1413h123zM801 932q-76 0 -151.5 -34.5t-136.5 -94t-99.5 -148.5
t-38.5 -190q0 -162 98.5 -267.5t239.5 -105.5q76 0 151.5 34.5t136.5 94t99.5 148.5t38.5 190q0 162 -98.5 267.5t-239.5 105.5z" />
    <glyph glyph-name="q" unicode="q" 
d="M905 -389l101 561q-47 -73 -149 -132.5t-232 -59.5q-190 0 -318.5 134.5t-128.5 336.5q0 126 47 238t123.5 189t174.5 121.5t200 44.5q86 0 158 -26t118 -67t74 -83.5t39 -83.5l43 240h123l-250 -1413h-123zM639 92q76 0 151.5 34.5t136.5 94t99.5 148.5t38.5 190
q0 162 -98.5 267.5t-239.5 105.5q-76 0 -151.5 -34.5t-136.5 -94t-99.5 -148.5t-38.5 -190q0 -162 98.5 -267.5t239.5 -105.5z" />
    <glyph glyph-name="r" unicode="r" horiz-adv-x="768" 
d="M899 922h-123q-146 0 -254 -99t-137 -260l-98 -563h-123l180 1024h123l-35 -195q2 4 6.5 11.5t21 29t35.5 40.5t51 43t67 41t83.5 28.5t100.5 11.5h123z" />
    <glyph glyph-name="s" unicode="s" horiz-adv-x="1044" 
d="M145 307h131l3 -12t12 -30.5t24.5 -42.5t42 -45t61 -43t86 -30t113.5 -12q122 0 190.5 51.5t68.5 132.5q0 45 -33.5 80t-87.5 57.5t-119 43.5t-130.5 45t-119.5 55t-87.5 80.5t-33.5 114.5q0 121 99 206.5t270 85.5q79 0 144.5 -16.5t108.5 -42.5t76 -57.5t50.5 -63
t29 -57.5t14.5 -43l3 -16h-133q-2 7 -6.5 19.5t-26.5 44.5t-52 56t-87.5 44t-128.5 20q-113 0 -175.5 -49t-62.5 -117q0 -45 33.5 -80t87.5 -57.5t119 -43.5t130 -45.5t119 -55t87.5 -80t33.5 -113.5q0 -135 -104 -223t-285 -88q-67 0 -125.5 11t-101 30t-78.5 43.5t-60 52
t-43 54.5t-29 51.5t-17 43.5t-9 30z" />
    <glyph glyph-name="t" unicode="t" horiz-adv-x="727" 
d="M211 911l20 113h144l41 225h123l-41 -225h338l-21 -113h-338l-139 -798h348l-20 -113h-471l159 911h-143z" />
    <glyph glyph-name="u" unicode="u" horiz-adv-x="1208" 
d="M1038 0h-123l25 143q-4 -7 -12.5 -18t-39 -39t-67 -49.5t-98.5 -39t-131 -17.5q-203 0 -297 130.5t-57 344.5l100 569h123l-105 -592q-27 -151 39.5 -245.5t218.5 -94.5q137 0 244 93.5t133 242.5l105 596h123z" />
    <glyph glyph-name="v" unicode="v" horiz-adv-x="1075" 
d="M328 0l-107 1024h129l86 -911h215l406 911h137l-467 -1024h-399z" />
    <glyph glyph-name="w" unicode="w" horiz-adv-x="1576" 
d="M1665 1024l-405 -1024h-279l-25 911h-61l-344 -911h-275l-45 1024h131l35 -911h74l344 911h266l25 -911h70l354 911h135z" />
    <glyph glyph-name="x" unicode="x" horiz-adv-x="1003" 
d="M768 522l215 -522h-141l-183 471h-131l-350 -471h-147l399 522l-199 502h142l168 -440h133l323 440h146z" />
    <glyph glyph-name="y" unicode="y" horiz-adv-x="1034" 
d="M307 0l-96 1024h135l76 -911h192l426 911h134l-670 -1413h-133l192 389h-256z" />
    <glyph glyph-name="z" unicode="z" horiz-adv-x="962" 
d="M1051 911l-795 -798h676l-21 -113h-839l20 113l795 798h-635l20 113h799z" />
    <glyph glyph-name="braceleft" unicode="{" horiz-adv-x="696" 
d="M391 604l-2 -10q5 -1 13 -3t27 -13.5t32.5 -28t21 -48t0.5 -71.5l-84 -481q-9 -55 20.5 -89t90.5 -34h123l-21 -123h-123q-121 0 -181.5 69t-41.5 177l84 481q9 54 -14.5 83.5t-77.5 29.5h-61l20 112h62q54 0 88 29.5t43 83.5l84 471q19 108 103.5 177t205.5 69h123
l-21 -123h-123q-61 0 -103.5 -34t-51.5 -89l-84 -471q-7 -40 -25 -71.5t-39 -48t-41.5 -27.5t-33.5 -14z" />
    <glyph glyph-name="bar" unicode="|" horiz-adv-x="624" 
d="M502 1536v-1741h-133v1741h133z" />
    <glyph glyph-name="braceright" unicode="}" horiz-adv-x="696" 
d="M506 594l2 10q-5 1 -13 3t-27 13.5t-32.5 28t-21 48t-0.5 71.5l82 471q9 55 -20.5 89t-90.5 34h-123l21 123h123q121 0 181.5 -69t41.5 -177l-82 -471q-9 -54 14.5 -83.5t77.5 -29.5h61l-20 -112h-62q-54 0 -88 -29.5t-43 -83.5l-86 -481q-19 -108 -103.5 -177
t-205.5 -69h-123l23 123h123q61 0 102.5 34t50.5 89l86 481q7 40 25 71.5t39.5 48t41.5 27.5t33 14z" />
    <glyph glyph-name="asciitilde" unicode="~" horiz-adv-x="1024" 
d="M829 502q-48 0 -94.5 17t-82 41t-68.5 48t-67.5 41t-65.5 17q-54 0 -83.5 -31.5t-29.5 -91.5v-41h-123v41q0 114 62 179.5t163 65.5q59 0 116.5 -25.5t96 -56t84 -56t82.5 -25.5q54 0 83.5 31.5t29.5 91.5v40h123v-40q0 -114 -62.5 -180t-163.5 -66z" />
    <glyph glyph-name="nbspace" unicode="&#xa0;" horiz-adv-x="573" 
 />
    <glyph glyph-name="exclamdown" unicode="&#xa1;" horiz-adv-x="573" 
d="M469 1044q43 0 69.5 -26.5t26.5 -65.5q0 -51 -31.5 -81.5t-78.5 -30.5q-43 0 -70 26.5t-27 65.5q0 51 32 81.5t79 30.5zM166 -389l127 717l69 276h82l-28 -276l-127 -717h-123z" />
    <glyph glyph-name="cent" unicode="&#xa2;" horiz-adv-x="1167" 
d="M494 -205l34 199q-155 36 -252.5 161.5t-97.5 297.5q0 123 45.5 233t120.5 186t171.5 122t197.5 50l30 164h123l-32 -172q62 -12 115 -37.5t87.5 -57t62 -67t42.5 -69t25 -60t13 -43.5l3 -16h-123q-1 5 -4 14t-15 34.5t-27 48.5t-42.5 51.5t-60 49t-81 34.5t-104.5 14
q-78 0 -154.5 -35t-136 -95.5t-96.5 -150t-37 -190.5q0 -161 99.5 -265t246.5 -104q78 0 147 27.5t112 66.5t74.5 78t44.5 66l13 28h123q-3 -8 -8.5 -21.5t-27 -52.5t-47 -74.5t-69 -78.5t-93 -74.5t-120 -53.5t-147.5 -23l-33 -185h-122z" />
    <glyph glyph-name="sterling" unicode="&#xa3;" horiz-adv-x="1126" 
d="M412 829l51 297q14 82 47.5 147.5t76 106t95.5 67.5t102 37.5t99 10.5q75 0 136.5 -18t100 -47t67.5 -64t43 -70t22.5 -64t9.5 -47l2 -18h-131q0 4 -1.5 11.5t-8 29t-16.5 40.5t-30.5 43t-46.5 41t-68 28.5t-92 11.5q-104 0 -178 -63t-98 -193l-49 -287h348l-21 -122
h-350l-69 -400q-7 -40 -20 -72.5t-27 -50.5t-27 -30.5t-21 -16.5l-8 -4v-10h768l-22 -123h-1024l22 123h31q77 0 127 46.5t67 137.5l70 400h-151l20 122h154z" />
    <glyph glyph-name="currency" unicode="&#xa4;" horiz-adv-x="1382" 
d="M983 1311h-375l-114 -656h446q174 0 277.5 104.5t103.5 260.5q0 125 -91 208t-247 83zM498 1434h485q212 0 341.5 -115.5t129.5 -294.5q0 -210 -148 -351t-378 -141h-457l-31 -184h523l-23 -123h-522l-39 -225h-133l39 225h-174l22 123h174l31 184h-174l22 123h174z" />
    <glyph glyph-name="yen" unicode="&#xa5;" horiz-adv-x="1300" 
d="M324 451l22 122h307l-401 861h158l331 -738h11l589 738h170l-704 -861h307l-22 -122h-318l-24 -144h317l-23 -123h-317l-31 -184h-133l31 184h-318l23 123h317l25 144h-317z" />
    <glyph glyph-name="brokenbar" unicode="&#xa6;" horiz-adv-x="624" 
d="M502 1536v-748h-133v748h133zM502 543v-748h-133v748h133z" />
    <glyph glyph-name="section" unicode="&#xa7;" horiz-adv-x="1157" 
d="M1163 696q0 -44 -17 -84t-44 -68.5t-61 -50.5t-68 -35t-66 -18q61 -27 103.5 -85.5t42.5 -123.5q0 -113 -106 -192.5t-290 -79.5q-68 0 -128 10t-104 27.5t-81 39.5t-61.5 47t-43.5 49.5t-30 46.5t-18 39.5t-9 27.5l-2 10h129q1 -4 3.5 -10.5t13 -25.5t25.5 -36.5
t43.5 -39t63.5 -36.5t88 -25.5t116 -10.5q135 0 201.5 46t66.5 113q0 45 -36.5 82t-95.5 63.5t-130 52t-142 53.5t-130 61.5t-95.5 83t-36.5 110.5q0 97 75 166.5t183 89.5q-62 27 -104.5 84.5t-42.5 122.5q0 112 107 193.5t288 81.5q84 0 155 -16t117 -41t82 -55.5
t55 -61.5t31 -56t16 -41l3 -16h-131q0 4 -6.5 19.5t-29.5 42.5t-57.5 51.5t-99.5 42.5t-147 18q-129 0 -194.5 -47t-65.5 -115q0 -45 36.5 -82t95.5 -63.5t129.5 -51.5t141.5 -53t130 -61t95.5 -82.5t36.5 -110.5zM801 502q97 7 168 63t71 121q0 29 -19.5 55t-47 45.5
t-74 40.5t-85 35t-96 35t-91.5 35q-96 -7 -168 -63t-72 -121q0 -34 23.5 -63t72.5 -54.5t91.5 -43t115.5 -44t111 -41.5z" />
    <glyph glyph-name="dieresis" unicode="&#xa8;" horiz-adv-x="655" 
d="M371 1239q-37 0 -60.5 25t-23.5 61q0 41 30 69.5t70 28.5q37 0 60.5 -25t23.5 -61q0 -41 -30 -69.5t-70 -28.5zM719 1239q-37 0 -60.5 25t-23.5 61q0 41 30 69.5t70 28.5q37 0 60.5 -25t23.5 -61q0 -41 -30 -69.5t-70 -28.5z" />
    <glyph glyph-name="copyright" unicode="&#xa9;" horiz-adv-x="1720" 
d="M356 717q0 -136 49 -256t133.5 -205t202.5 -134.5t250 -49.5t250 49.5t202.5 134.5t133.5 205t49 256t-49 256t-133.5 205t-202.5 134.5t-250 49.5t-250 -49.5t-202.5 -134.5t-133.5 -205t-49 -256zM766 717q0 -121 66.5 -193.5t168.5 -72.5q46 0 85 14.5t62 35.5
t39.5 42.5t22.5 36.5l7 14h133q-3 -10 -10.5 -27.5t-36 -61.5t-64.5 -78t-100 -61.5t-138 -27.5q-155 0 -256.5 106t-101.5 273t101.5 273t256.5 106q74 0 137.5 -26.5t101 -64t64 -75t36.5 -64.5l10 -26h-133q-2 6 -6.5 15.5t-22.5 34t-40 43.5t-61.5 34.5t-85.5 15.5
q-102 0 -168.5 -72.5t-66.5 -193.5zM1749 717q0 -159 -58.5 -299.5t-159 -241t-241 -159t-299.5 -58.5t-299.5 58.5t-241 159t-159 241t-58.5 299.5t58.5 299.5t159 241t241 159t299.5 58.5t299.5 -58.5t241 -159t159 -241t58.5 -299.5z" />
    <glyph glyph-name="ordfeminine" unicode="&#xaa;" horiz-adv-x="778" 
d="M465 758q-98 0 -160.5 53.5t-62.5 132.5q0 93 67 153t174 60h256l4 29q10 70 -30 112.5t-111 42.5q-34 0 -63.5 -9.5t-47 -23t-30.5 -27t-18 -23.5l-5 -9h-137q4 8 12 22t36.5 49.5t62 62.5t89.5 49t117 22q128 0 198.5 -83t49.5 -195l-73 -418h-123l18 100h-10
q-3 -4 -9.5 -11t-27.5 -24t-44 -30t-59 -24t-73 -11zM496 870q77 0 143 57t82 128h-229q-60 0 -93.5 -29.5t-33.5 -71.5q0 -37 35 -60.5t96 -23.5z" />
    <glyph glyph-name="guillemotleft" unicode="&#xab;" horiz-adv-x="1085" 
d="M604 111l-94 -80l-336 481l504 481l70 -84l-420 -403zM1014 111l-94 -80l-336 481l503 481l70 -84l-420 -403z" />
    <glyph glyph-name="logicalnot" unicode="&#xac;" horiz-adv-x="1024" 
d="M901 358v226h-645v112h768v-338h-123z" />
    <glyph glyph-name="uni00AD" unicode="&#xad;" horiz-adv-x="983" 
d="M961 512h-738l23 123h737z" />
    <glyph glyph-name="registered" unicode="&#xae;" horiz-adv-x="1228" 
d="M881 707l-103 153h-112v-153h-103v501h225q97 0 151 -47.5t54 -126.5q0 -34 -11.5 -62.5t-28 -44.5t-33 -27t-28.5 -15l-11 -4l112 -174h-112zM788 1106h-122v-143h122q52 0 77.5 19.5t25.5 51.5q0 33 -25.5 52.5t-77.5 19.5zM758 532q191 0 310.5 117.5t119.5 302.5
t-119.5 302.5t-310.5 117.5t-310.5 -117.5t-119.5 -302.5t119.5 -302.5t310.5 -117.5zM758 430q-230 0 -381.5 149.5t-151.5 372.5t152 373t381 150t380.5 -149.5t151.5 -373.5q0 -223 -151.5 -372.5t-380.5 -149.5z" />
    <glyph glyph-name="macron" unicode="&#xaf;" horiz-adv-x="645" 
d="M281 1311l20 112h522l-20 -112h-522z" />
    <glyph glyph-name="degree" unicode="&#xb0;" horiz-adv-x="675" 
d="M369 1178q0 -67 45 -110.5t108 -43.5t108.5 43.5t45.5 110.5t-45.5 110t-108.5 43t-108 -43t-45 -110zM788 1178q0 -106 -79 -181t-187 -75t-187 75t-79 181t79 181t187 75t187 -75t79 -181z" />
    <glyph glyph-name="plusminus" unicode="&#xb1;" horiz-adv-x="1024" 
d="M236 61v113h337v348h-337v113h337v358h123v-358h338v-113h-338v-348h338v-113h-798z" />
    <glyph glyph-name="twosuperior" unicode="&#xb2;" horiz-adv-x="716" 
d="M440 1055h381l-20 -113h-574l21 113l192 102q188 99 253 152t65 125q0 49 -38.5 80.5t-111.5 31.5q-36 0 -67 -12.5t-49.5 -31t-32.5 -36.5t-19 -30l-6 -13h-125q3 10 9 25.5t30.5 56.5t56 72t87 56.5t120.5 25.5q125 0 197 -62.5t72 -152.5q0 -106 -104.5 -197
t-336.5 -192z" />
    <glyph glyph-name="threesuperior" unicode="&#xb3;" horiz-adv-x="706" 
d="M834 1526l-244 -154q105 -13 162 -70t57 -139q0 -101 -79 -171t-202 -70q-53 0 -98 12t-74 31t-51.5 42t-34 45.5t-19 41.5t-9.5 31l-2 12h133q1 -4 3 -11t12.5 -25t26.5 -31.5t47.5 -24.5t72.5 -11q70 0 110.5 35.5t40.5 93.5q0 45 -39.5 76t-124.5 31h-125l19 102
l243 154h-317l18 112h492z" />
    <glyph glyph-name="acute" unicode="&#xb4;" horiz-adv-x="460" 
d="M496 1423h153l-289 -297h-102z" />
    <glyph glyph-name="mu" unicode="&#xb5;" horiz-adv-x="1208" 
d="M598 -20q-63 0 -116.5 16t-84.5 38.5t-53 46.5t-30.5 39t-8.5 17l-96 -547h-123l252 1434h123l-105 -592q-27 -151 39.5 -245.5t218.5 -94.5q137 0 244 93.5t133 242.5l105 596h123l-181 -1024h-123l25 143q-4 -7 -12.5 -18t-39.5 -39t-67.5 -49.5t-96.5 -39t-126 -17.5z
" />
    <glyph glyph-name="paragraph" unicode="&#xb6;" horiz-adv-x="788" 
d="M225 1075q0 156 108 257.5t285 101.5h283v-123h-174v-1700h-133v1106q-157 0 -263 108t-106 250z" />
    <glyph glyph-name="periodcentered" unicode="&#xb7;" horiz-adv-x="573" 
d="M385 440q-47 0 -72.5 24t-25.5 66q0 50 31 82.5t77 32.5q47 0 73 -24t26 -66q0 -50 -31.5 -82.5t-77.5 -32.5z" />
    <glyph glyph-name="cedilla" unicode="&#xb8;" horiz-adv-x="481" 
d="M322 20l-91 -137q58 -8 98 -53t40 -104q0 -90 -64.5 -148.5t-159.5 -58.5q-48 0 -88 13.5t-55 27.5l-16 14l16 90q2 -2 6 -5.5t17.5 -13t29.5 -16.5t42 -12.5t55 -5.5q50 0 82 29.5t32 78.5q0 37 -28.5 61.5t-83.5 24.5h-66l141 215h93z" />
    <glyph glyph-name="onesuperior" unicode="&#xb9;" horiz-adv-x="696" 
d="M279 942l20 113h205l78 450l-203 -112l22 133l215 112h113l-102 -583h194l-20 -113h-522z" />
    <glyph glyph-name="ordmasculine" unicode="&#xba;" horiz-adv-x="839" 
d="M578 870q102 0 172.5 74.5t70.5 194.5q0 90 -56.5 146t-152.5 56q-103 0 -173 -74t-70 -194q0 -90 56.5 -146.5t152.5 -56.5zM623 1454q139 0 230 -91t91 -226q0 -158 -113 -268.5t-264 -110.5q-139 0 -230 91t-91 226q0 158 113 268.5t264 110.5z" />
    <glyph glyph-name="guillemotright" unicode="&#xbb;" horiz-adv-x="1085" 
d="M676 913l94 80l336 -481l-504 -481l-70 84l420 403zM266 913l94 80l336 -481l-503 -481l-70 84l420 403z" />
    <glyph glyph-name="onequarter" unicode="&#xbc;" horiz-adv-x="1505" 
d="M1554 1434l-1132 -1434h-123l1133 1434h122zM244 737l20 113h205l78 450l-203 -112l23 133l215 113h112l-102 -584h194l-20 -113h-522zM1339 0h-122l26 154h-358l20 112l352 430h134l-353 -430h226l24 144h123l-25 -144h103l-21 -112h-102z" />
    <glyph glyph-name="onehalf" unicode="&#xbd;" horiz-adv-x="1617" 
d="M1554 1434l-1132 -1434h-123l1133 1434h122zM244 737l20 113h205l78 450l-203 -112l23 133l215 113h112l-102 -584h194l-20 -113h-522zM1143 113h381l-21 -113h-573l20 113l193 102q97 51 148 81t94.5 64t59 64t15.5 68q0 49 -38 80.5t-111 31.5q-36 0 -67 -12.5
t-49.5 -31t-32.5 -36.5t-20 -30l-5 -13h-125q3 10 9 25.5t30.5 56.5t56 72t87 56.5t120.5 25.5q125 0 196.5 -62.5t71.5 -152.5q0 -106 -104 -197t-336 -192z" />
    <glyph glyph-name="threequarters" unicode="&#xbe;" horiz-adv-x="1495" 
d="M1544 1434l-1132 -1434h-123l1132 1434h123zM1329 0h-123l27 154h-359l21 112l352 430h133l-352 -430h225l25 144h123l-25 -144h103l-21 -112h-102zM799 1321l-244 -154q105 -13 162 -70t57 -139q0 -102 -78.5 -171.5t-201.5 -69.5q-53 0 -98 12t-74 31t-51.5 41.5
t-34.5 45.5t-19.5 42t-9.5 31l-2 12h133q1 -4 3 -11t12.5 -25t26.5 -31.5t47.5 -24.5t72.5 -11q70 0 110.5 35.5t40.5 93.5q0 45 -39.5 76t-124.5 31h-125l19 102l244 154h-318l19 113h491z" />
    <glyph glyph-name="questiondown" unicode="&#xbf;" horiz-adv-x="1075" 
d="M233 -41q0 -117 81.5 -186.5t226.5 -69.5q67 0 125.5 16t99 41t74 55.5t53 61.5t33.5 56t19 41l5 16h142q-3 -9 -8.5 -23.5t-27 -57t-48 -81.5t-72.5 -86t-98.5 -81t-127.5 -57.5t-159 -23.5q-202 0 -326.5 106.5t-124.5 262.5q0 79 22 140.5t58.5 100t83.5 71.5t96.5 55
t98.5 50.5t88.5 58.5t67 78.5t34.5 110.5h135q-11 -70 -37 -126t-60.5 -92t-76 -65t-85 -50t-86 -41.5t-79.5 -45t-65.5 -54.5t-45 -76t-16.5 -105zM782 1044q43 0 70 -26.5t27 -65.5q0 -51 -32 -81.5t-79 -30.5q-43 0 -69.5 26.5t-26.5 65.5q0 51 31.5 81.5t78.5 30.5z" />
    <glyph glyph-name="Agrave" unicode="&#xc0;" horiz-adv-x="1382" 
d="M1229 0l-39 471h-758l-207 -471h-133l631 1434h512l127 -1434h-133zM1112 1311h-307l-322 -717h697zM750 1915h153l131 -297h-102z" />
    <glyph glyph-name="Aacute" unicode="&#xc1;" horiz-adv-x="1382" 
d="M1229 0l-39 471h-758l-207 -471h-133l631 1434h512l127 -1434h-133zM1112 1311h-307l-322 -717h697zM1169 1915h154l-289 -297h-102z" />
    <glyph glyph-name="Acircumflex" unicode="&#xc2;" horiz-adv-x="1382" 
d="M1229 0l-39 471h-758l-207 -471h-133l631 1434h512l127 -1434h-133zM1112 1311h-307l-322 -717h697zM1280 1618h-119l-117 205h-30l-191 -205h-127l279 297h133z" />
    <glyph glyph-name="Atilde" unicode="&#xc3;" horiz-adv-x="1382" 
d="M1229 0l-39 471h-758l-207 -471h-133l631 1434h512l127 -1434h-133zM1112 1311h-307l-322 -717h697zM1104 1628q-37 0 -68 13.5t-52 33t-39.5 39.5t-39.5 33.5t-43 13.5q-31 0 -56.5 -20.5t-29.5 -50.5l-8 -52h-102l10 54q14 75 70.5 123.5t132.5 48.5q45 0 82.5 -21
t58.5 -45.5t48 -45.5t54 -21q31 0 55.5 20.5t28.5 50.5l8 51h105l-10 -53q-14 -75 -71.5 -123.5t-133.5 -48.5z" />
    <glyph glyph-name="Adieresis" unicode="&#xc4;" horiz-adv-x="1382" 
d="M1229 0l-39 471h-758l-207 -471h-133l631 1434h512l127 -1434h-133zM1112 1311h-307l-322 -717h697zM831 1649q-37 0 -60 25t-23 61q0 41 30 69.5t70 28.5q37 0 60.5 -25t23.5 -61q0 -41 -30.5 -69.5t-70.5 -28.5zM1180 1649q-37 0 -60.5 25t-23.5 61q0 41 30 69.5
t70 28.5q37 0 60.5 -25t23.5 -61q0 -41 -30 -69.5t-70 -28.5z" />
    <glyph glyph-name="Aring" unicode="&#xc5;" horiz-adv-x="1382" 
d="M1229 0l-39 471h-758l-207 -471h-133l631 1434h512l127 -1434h-133zM1112 1311h-307l-322 -717h697zM891 1751q0 -43 30 -72.5t74 -29.5q48 0 85.5 37t37.5 86q0 43 -30 72.5t-74 29.5q-48 0 -85.5 -37t-37.5 -86zM799 1741q0 91 67 158t156 67q79 0 133.5 -54t54.5 -130
q0 -92 -67 -159t-156 -67q-79 0 -133.5 54.5t-54.5 130.5z" />
    <glyph glyph-name="AE" unicode="&#xc6;" horiz-adv-x="2017" 
d="M1149 123h799l-23 -123h-932l84 471h-645l-207 -471h-133l631 1434h1454l-20 -123h-799l-92 -523h645l-23 -122h-645zM805 1311l-322 -717h615l127 717h-420z" />
    <glyph glyph-name="Ccedilla" unicode="&#xc7;" horiz-adv-x="1638" 
d="M1522 502h137q-4 -11 -12 -30.5t-38.5 -76t-67.5 -107.5t-101 -113.5t-137 -107.5t-177.5 -76.5t-220.5 -31.5l-49 -76q58 -8 97.5 -53t39.5 -104q0 -90 -64 -148.5t-159 -58.5q-48 0 -88 13.5t-56 27.5l-16 14l17 90q5 -6 16 -15t49.5 -23.5t83.5 -14.5q50 0 82.5 29.5
t32.5 78.5q0 36 -29 61t-84 25h-65l104 158q-268 28 -432 212.5t-164 455.5q0 181 66.5 339.5t177 268.5t257.5 173t306 63q127 0 236.5 -36t182.5 -91t127.5 -125.5t82 -135.5t35.5 -124h-136q-2 8 -6 22t-21.5 54.5t-41 77t-67.5 81.5t-97.5 77.5t-134 54.5t-174.5 22
q-131 0 -251 -52.5t-210.5 -144.5t-144.5 -227.5t-54 -292.5q0 -246 154 -399.5t405 -153.5q93 0 177 23t144 60t110.5 82t82 90t54 82t31.5 60z" />
    <glyph glyph-name="Egrave" unicode="&#xc8;" horiz-adv-x="1249" 
d="M340 123h840l-23 -123h-973l252 1434h973l-20 -123h-840l-92 -523h686l-23 -122h-686zM739 1915h154l131 -297h-102z" />
    <glyph glyph-name="Eacute" unicode="&#xc9;" horiz-adv-x="1249" 
d="M340 123h840l-23 -123h-973l252 1434h973l-20 -123h-840l-92 -523h686l-23 -122h-686zM1098 1915h153l-288 -297h-103z" />
    <glyph glyph-name="Ecircumflex" unicode="&#xca;" horiz-adv-x="1249" 
d="M340 123h840l-23 -123h-973l252 1434h973l-20 -123h-840l-92 -523h686l-23 -122h-686zM1229 1618h-119l-117 205h-30l-191 -205h-127l279 297h133z" />
    <glyph glyph-name="Edieresis" unicode="&#xcb;" horiz-adv-x="1249" 
d="M340 123h840l-23 -123h-973l252 1434h973l-20 -123h-840l-92 -523h686l-23 -122h-686zM780 1649q-37 0 -60.5 25t-23.5 61q0 41 30.5 69.5t70.5 28.5q37 0 60.5 -25t23.5 -61q0 -41 -30.5 -69.5t-70.5 -28.5zM1128 1649q-37 0 -60.5 25t-23.5 61q0 41 30.5 69.5
t70.5 28.5q37 0 60.5 -25t23.5 -61q0 -41 -30.5 -69.5t-70.5 -28.5z" />
    <glyph glyph-name="Igrave" unicode="&#xcc;" horiz-adv-x="501" 
d="M569 1434l-252 -1434h-133l252 1434h133zM279 1915h153l131 -297h-102z" />
    <glyph glyph-name="Iacute" unicode="&#xcd;" horiz-adv-x="501" 
d="M569 1434l-252 -1434h-133l252 1434h133zM719 1915h153l-288 -297h-103z" />
    <glyph glyph-name="Icircumflex" unicode="&#xce;" horiz-adv-x="501" 
d="M569 1434l-252 -1434h-133l252 1434h133zM811 1618h-119l-117 205h-30l-191 -205h-127l279 297h133z" />
    <glyph glyph-name="Idieresis" unicode="&#xcf;" horiz-adv-x="501" 
d="M569 1434l-252 -1434h-133l252 1434h133zM360 1649q-37 0 -60.5 25t-23.5 61q0 41 30.5 69.5t70.5 28.5q37 0 60.5 -25t23.5 -61q0 -41 -30.5 -69.5t-70.5 -28.5zM709 1649q-37 0 -60.5 25t-23.5 61q0 41 30 69.5t70 28.5q37 0 60.5 -25t23.5 -61q0 -41 -30 -69.5
t-70 -28.5z" />
    <glyph glyph-name="Eth" unicode="&#xd0;" horiz-adv-x="1495" 
d="M455 1434h403q192 0 344 -82t237 -229.5t85 -334.5q0 -162 -62 -308t-168 -251.5t-252.5 -167t-308.5 -61.5h-530l114 645h-153l22 133h154zM858 1311h-291l-94 -533h379l-23 -133h-378l-93 -522h387q136 0 256 51t205.5 139t135 211.5t49.5 263.5q0 147 -67.5 266.5
t-189.5 188t-276 68.5z" />
    <glyph glyph-name="Ntilde" unicode="&#xd1;" horiz-adv-x="1484" 
d="M1300 0h-194l-559 1300l-230 -1300h-133l252 1434h195l559 -1301l229 1301h133zM1155 1628q-37 0 -68 13.5t-52 33t-39.5 39.5t-39.5 33.5t-43 13.5q-31 0 -56.5 -20.5t-29.5 -50.5l-8 -52h-102l10 54q14 75 70.5 123.5t132.5 48.5q45 0 82.5 -21t58.5 -45.5t48.5 -45.5
t54.5 -21q31 0 55 20t28 51l9 51h104l-10 -53q-14 -75 -71.5 -123.5t-133.5 -48.5z" />
    <glyph glyph-name="Ograve" unicode="&#xd2;" horiz-adv-x="1679" 
d="M915 82q131 0 251.5 52.5t211.5 144.5t145 227.5t54 292.5q0 247 -155 400t-406 153q-131 0 -251.5 -52.5t-211.5 -144.5t-145 -227.5t-54 -292.5q0 -247 155 -400t406 -153zM907 -41q-151 0 -279.5 51t-217.5 140t-139 213t-50 268q0 180 66 338.5t176 268.5
t256.5 173.5t304.5 63.5q151 0 279.5 -51t217.5 -140t139 -213t50 -268q0 -180 -66 -338.5t-176 -268.5t-256.5 -173.5t-304.5 -63.5zM829 1915h154l131 -297h-102z" />
    <glyph glyph-name="Oacute" unicode="&#xd3;" horiz-adv-x="1679" 
d="M915 82q131 0 251.5 52.5t211.5 144.5t145 227.5t54 292.5q0 247 -155 400t-406 153q-131 0 -251.5 -52.5t-211.5 -144.5t-145 -227.5t-54 -292.5q0 -247 155 -400t406 -153zM907 -41q-151 0 -279.5 51t-217.5 140t-139 213t-50 268q0 180 66 338.5t176 268.5
t256.5 173.5t304.5 63.5q151 0 279.5 -51t217.5 -140t139 -213t50 -268q0 -180 -66 -338.5t-176 -268.5t-256.5 -173.5t-304.5 -63.5zM1251 1915h154l-289 -297h-102z" />
    <glyph glyph-name="Ocircumflex" unicode="&#xd4;" horiz-adv-x="1679" 
d="M915 82q131 0 251.5 52.5t211.5 144.5t145 227.5t54 292.5q0 247 -155 400t-406 153q-131 0 -251.5 -52.5t-211.5 -144.5t-145 -227.5t-54 -292.5q0 -247 155 -400t406 -153zM907 -41q-151 0 -279.5 51t-217.5 140t-139 213t-50 268q0 180 66 338.5t176 268.5
t256.5 173.5t304.5 63.5q151 0 279.5 -51t217.5 -140t139 -213t50 -268q0 -180 -66 -338.5t-176 -268.5t-256.5 -173.5t-304.5 -63.5zM1372 1618h-119l-116 205h-31l-191 -205h-127l279 297h133z" />
    <glyph glyph-name="Otilde" unicode="&#xd5;" horiz-adv-x="1679" 
d="M915 82q131 0 251.5 52.5t211.5 144.5t145 227.5t54 292.5q0 247 -155 400t-406 153q-131 0 -251.5 -52.5t-211.5 -144.5t-145 -227.5t-54 -292.5q0 -247 155 -400t406 -153zM907 -41q-151 0 -279.5 51t-217.5 140t-139 213t-50 268q0 180 66 338.5t176 268.5
t256.5 173.5t304.5 63.5q151 0 279.5 -51t217.5 -140t139 -213t50 -268q0 -180 -66 -338.5t-176 -268.5t-256.5 -173.5t-304.5 -63.5zM1217 1628q-37 0 -68 13.5t-52 33t-39.5 39.5t-39.5 33.5t-43 13.5q-31 0 -56.5 -20.5t-29.5 -50.5l-8 -52h-103l10 54q14 75 70.5 123.5
t132.5 48.5q45 0 82.5 -21t58.5 -45.5t48.5 -45.5t54.5 -21q31 0 55.5 20.5t28.5 50.5l8 51h105l-11 -53q-14 -75 -71 -123.5t-133 -48.5z" />
    <glyph glyph-name="Odieresis" unicode="&#xd6;" horiz-adv-x="1679" 
d="M915 82q131 0 251.5 52.5t211.5 144.5t145 227.5t54 292.5q0 247 -155 400t-406 153q-131 0 -251.5 -52.5t-211.5 -144.5t-145 -227.5t-54 -292.5q0 -247 155 -400t406 -153zM907 -41q-151 0 -279.5 51t-217.5 140t-139 213t-50 268q0 180 66 338.5t176 268.5
t256.5 173.5t304.5 63.5q151 0 279.5 -51t217.5 -140t139 -213t50 -268q0 -180 -66 -338.5t-176 -268.5t-256.5 -173.5t-304.5 -63.5zM924 1649q-37 0 -60.5 25t-23.5 61q0 41 30 69.5t70 28.5q37 0 60.5 -25t23.5 -61q0 -41 -30 -69.5t-70 -28.5zM1272 1649q-37 0 -60.5 25
t-23.5 61q0 41 30 69.5t70 28.5q37 0 60.5 -25t23.5 -61q0 -41 -30 -69.5t-70 -28.5z" />
    <glyph glyph-name="multiply" unicode="&#xd7;" horiz-adv-x="1024" 
d="M369 952l266 -266l266 266l82 -82l-266 -266l266 -266l-82 -82l-266 266l-266 -266l-82 82l266 266l-266 266z" />
    <glyph glyph-name="Oslash" unicode="&#xd8;" horiz-adv-x="1679" 
d="M76 143l223 160q-76 149 -76 328q0 180 66 338.5t176 268.5t256.5 173.5t304.5 63.5q176 0 318 -66.5t233 -185.5l309 221l-26 -154l-224 -160q76 -149 76 -327q0 -180 -66 -338.5t-176 -268.5t-256.5 -173.5t-304.5 -63.5q-177 0 -318.5 66.5t-232.5 185.5l-309 -221z
M918 82q131 0 251.5 52.5t211 144.5t144.5 227.5t54 292.5q0 143 -51 254l-1063 -764q74 -99 190.5 -153t262.5 -54zM356 635q0 -137 52 -254l1062 764q-75 98 -191.5 152.5t-260.5 54.5q-131 0 -251.5 -52.5t-211.5 -144.5t-145 -227.5t-54 -292.5z" />
    <glyph glyph-name="Ugrave" unicode="&#xd9;" horiz-adv-x="1454" 
d="M264 553l156 881h133l-156 -881q-37 -211 65 -341t320 -130q174 0 292 108t153 306l166 938h133l-168 -949q-42 -243 -203 -384.5t-385 -141.5q-176 0 -302 77.5t-179.5 213t-24.5 303.5zM770 1915h154l131 -297h-103z" />
    <glyph glyph-name="Uacute" unicode="&#xda;" horiz-adv-x="1454" 
d="M264 553l156 881h133l-156 -881q-37 -211 65 -341t320 -130q174 0 292 108t153 306l166 938h133l-168 -949q-42 -243 -203 -384.5t-385 -141.5q-176 0 -302 77.5t-179.5 213t-24.5 303.5zM1149 1915h154l-289 -297h-103z" />
    <glyph glyph-name="Ucircumflex" unicode="&#xdb;" horiz-adv-x="1454" 
d="M264 553l156 881h133l-156 -881q-37 -211 65 -341t320 -130q174 0 292 108t153 306l166 938h133l-168 -949q-42 -243 -203 -384.5t-385 -141.5q-176 0 -302 77.5t-179.5 213t-24.5 303.5zM1270 1618h-119l-117 205h-30l-191 -205h-127l279 297h133z" />
    <glyph glyph-name="Udieresis" unicode="&#xdc;" horiz-adv-x="1454" 
d="M264 553l156 881h133l-156 -881q-37 -211 65 -341t320 -130q174 0 292 108t153 306l166 938h133l-168 -949q-42 -243 -203 -384.5t-385 -141.5q-176 0 -302 77.5t-179.5 213t-24.5 303.5zM811 1649q-37 0 -60.5 25t-23.5 61q0 41 30 69.5t70 28.5q37 0 60.5 -25t23.5 -61
q0 -41 -30 -69.5t-70 -28.5zM1159 1649q-37 0 -60.5 25t-23.5 61q0 41 30.5 69.5t70.5 28.5q37 0 60.5 -25t23.5 -61q0 -41 -30.5 -69.5t-70.5 -28.5z" />
    <glyph glyph-name="Yacute" unicode="&#xdd;" horiz-adv-x="1300" 
d="M1511 1434l-723 -912l-92 -522h-133l92 522l-403 912h158l327 -758h11l593 758h170zM1047 1915h153l-289 -297h-102z" />
    <glyph glyph-name="Thorn" unicode="&#xde;" horiz-adv-x="1484" 
d="M1040 1024h-505l-105 -594h610q166 0 262.5 90.5t96.5 235.5q0 118 -89 193t-270 75zM557 1147h504q115 0 206.5 -32t148.5 -86.5t86.5 -123t29.5 -145.5q0 -194 -141 -323.5t-361 -129.5h-622l-54 -307h-133l252 1434h133z" />
    <glyph glyph-name="germandbls" unicode="&#xdf;" horiz-adv-x="1167" 
d="M727 707h-78l21 112h41q136 0 230.5 85t94.5 208q0 95 -72.5 162t-191.5 67q-110 0 -191 -68t-100 -175l-194 -1098h-123l196 1120q25 145 142 239.5t276 94.5q169 0 275 -97.5t106 -236.5q0 -205 -162 -305q-37 -22 -100 -43v-10q10 -2 27.5 -7.5t61 -29t77 -55.5
t61 -91.5t27.5 -132.5q0 -189 -128.5 -317.5t-326.5 -128.5h-174l21 113h164q133 0 227 90.5t94 230.5q0 110 -84 191.5t-217 81.5z" />
    <glyph glyph-name="agrave" unicode="&#xe0;" 
d="M975 0l31 172q-47 -73 -149 -132.5t-232 -59.5q-190 0 -318.5 134.5t-128.5 336.5q0 126 47 238t123.5 189t174.5 121.5t200 44.5q86 0 158 -26t118 -67t74 -83.5t39 -83.5l43 240h123l-180 -1024h-123zM639 92q76 0 151.5 34.5t136.5 94t99.5 148.5t38.5 190
q0 162 -98.5 267.5t-239.5 105.5q-76 0 -151.5 -34.5t-136.5 -94t-99.5 -148.5t-38.5 -190q0 -162 98.5 -267.5t239.5 -105.5zM578 1526h153l131 -297h-102z" />
    <glyph glyph-name="aacute" unicode="&#xe1;" 
d="M975 0l31 172q-47 -73 -149 -132.5t-232 -59.5q-190 0 -318.5 134.5t-128.5 336.5q0 126 47 238t123.5 189t174.5 121.5t200 44.5q86 0 158 -26t118 -67t74 -83.5t39 -83.5l43 240h123l-180 -1024h-123zM639 92q76 0 151.5 34.5t136.5 94t99.5 148.5t38.5 190
q0 162 -98.5 267.5t-239.5 105.5q-76 0 -151.5 -34.5t-136.5 -94t-99.5 -148.5t-38.5 -190q0 -162 98.5 -267.5t239.5 -105.5zM965 1526h153l-289 -297h-102z" />
    <glyph glyph-name="acircumflex" unicode="&#xe2;" 
d="M975 0l31 172q-47 -73 -149 -132.5t-232 -59.5q-190 0 -318.5 134.5t-128.5 336.5q0 126 47 238t123.5 189t174.5 121.5t200 44.5q86 0 158 -26t118 -67t74 -83.5t39 -83.5l43 240h123l-180 -1024h-123zM639 92q76 0 151.5 34.5t136.5 94t99.5 148.5t38.5 190
q0 162 -98.5 267.5t-239.5 105.5q-76 0 -151.5 -34.5t-136.5 -94t-99.5 -148.5t-38.5 -190q0 -162 98.5 -267.5t239.5 -105.5zM1116 1229h-119l-116 205h-31l-191 -205h-127l279 297h133z" />
    <glyph glyph-name="atilde" unicode="&#xe3;" 
d="M975 0l31 172q-47 -73 -149 -132.5t-232 -59.5q-190 0 -318.5 134.5t-128.5 336.5q0 126 47 238t123.5 189t174.5 121.5t200 44.5q86 0 158 -26t118 -67t74 -83.5t39 -83.5l43 240h123l-180 -1024h-123zM639 92q76 0 151.5 34.5t136.5 94t99.5 148.5t38.5 190
q0 162 -98.5 267.5t-239.5 105.5q-76 0 -151.5 -34.5t-136.5 -94t-99.5 -148.5t-38.5 -190q0 -162 98.5 -267.5t239.5 -105.5zM963 1229q-37 0 -68 13.5t-52 33t-39.5 39.5t-39.5 33.5t-43 13.5q-31 0 -56.5 -21t-29.5 -51l-8 -51h-103l11 53q14 75 70 123.5t132 48.5
q45 0 82.5 -21t58.5 -45.5t48.5 -45.5t54.5 -21q31 0 55.5 20.5t28.5 51.5l8 51h105l-11 -53q-14 -75 -71 -123.5t-133 -48.5z" />
    <glyph glyph-name="adieresis" unicode="&#xe4;" 
d="M975 0l31 172q-47 -73 -149 -132.5t-232 -59.5q-190 0 -318.5 134.5t-128.5 336.5q0 126 47 238t123.5 189t174.5 121.5t200 44.5q86 0 158 -26t118 -67t74 -83.5t39 -83.5l43 240h123l-180 -1024h-123zM639 92q76 0 151.5 34.5t136.5 94t99.5 148.5t38.5 190
q0 162 -98.5 267.5t-239.5 105.5q-76 0 -151.5 -34.5t-136.5 -94t-99.5 -148.5t-38.5 -190q0 -162 98.5 -267.5t239.5 -105.5zM657 1260q-37 0 -60.5 25t-23.5 61q0 41 30.5 69.5t70.5 28.5q37 0 60.5 -25t23.5 -61q0 -41 -30.5 -69.5t-70.5 -28.5zM1006 1260
q-37 0 -60.5 25t-23.5 61q0 41 30 69.5t70 28.5q37 0 60.5 -25t23.5 -61q0 -41 -30 -69.5t-70 -28.5z" />
    <glyph glyph-name="aring" unicode="&#xe5;" 
d="M975 0l31 172q-47 -73 -149 -132.5t-232 -59.5q-190 0 -318.5 134.5t-128.5 336.5q0 126 47 238t123.5 189t174.5 121.5t200 44.5q86 0 158 -26t118 -67t74 -83.5t39 -83.5l43 240h123l-180 -1024h-123zM639 92q76 0 151.5 34.5t136.5 94t99.5 148.5t38.5 190
q0 162 -98.5 267.5t-239.5 105.5q-76 0 -151.5 -34.5t-136.5 -94t-99.5 -148.5t-38.5 -190q0 -162 98.5 -267.5t239.5 -105.5zM735 1393q0 -43 30.5 -73t74.5 -30q48 0 85.5 37t37.5 86q0 43 -30.5 73t-74.5 30q-48 0 -85.5 -37t-37.5 -86zM643 1382q0 92 67.5 159t155.5 67
q79 0 134 -54.5t55 -130.5q0 -91 -67.5 -158t-156.5 -67q-79 0 -133.5 54t-54.5 130z" />
    <glyph glyph-name="ae" unicode="&#xe6;" horiz-adv-x="1976" 
d="M528 -20q-148 0 -243 76.5t-95 207.5q0 143 103.5 236.5t279.5 93.5h431l8 43q24 131 -45.5 213t-216.5 82q-49 0 -93.5 -12t-76.5 -31t-59.5 -42t-45 -45.5t-30 -41.5t-17.5 -31l-6 -12h-125q2 7 7 18.5t23.5 45.5t40.5 65t61 69t83 65t107.5 45.5t134.5 18.5
q144 0 237 -56t129 -154q76 97 181.5 153.5t226.5 56.5q199 0 324.5 -134.5t125.5 -336.5q0 -24 -2.5 -47t-5.5 -34l-2 -11h-858v-20q0 -161 97 -265t245 -104q51 0 99 12.5t83.5 32.5t66.5 44t52 47.5t35.5 43.5t21.5 32l7 13h122q-6 -14 -17.5 -36.5t-55.5 -80.5
t-95.5 -102.5t-139.5 -81t-187 -36.5q-147 0 -263 79t-167 203q-31 -56 -73 -103.5t-101 -89t-139 -65.5t-173 -24zM313 270q0 -83 68.5 -130.5t191.5 -47.5q157 0 275 109.5t137 279.5h-420q-121 0 -186.5 -58t-65.5 -153zM1124 594h725q0 56 -20.5 113.5t-59 108.5
t-103 83.5t-144.5 32.5q-71 0 -139.5 -29.5t-120 -78t-88 -108.5t-50.5 -122z" />
    <glyph glyph-name="ccedilla" unicode="&#xe7;" horiz-adv-x="1167" 
d="M1038 358h123q-3 -7 -8 -20t-24.5 -50t-43.5 -71t-64.5 -76t-87 -74t-112 -56t-137.5 -29l-63 -99q58 -8 97.5 -53t39.5 -104q0 -90 -64 -148.5t-159 -58.5q-48 0 -88 13.5t-56 27.5l-16 14l16 90q2 -2 6 -5.5t17.5 -13t29.5 -16.5t42 -12.5t55 -5.5q50 0 82 29.5
t32 78.5q0 37 -28.5 61.5t-83.5 24.5h-66l115 177q-179 17 -296.5 148.5t-117.5 322.5q0 126 47.5 238t125.5 188t177.5 120.5t202.5 44.5q81 0 150 -19.5t114 -51.5t80.5 -70t55 -76t32 -70t15.5 -51l4 -20h-123q-1 5 -4 14t-15 34.5t-27 48.5t-42.5 51.5t-60 49t-81 34.5
t-104.5 14q-78 0 -154.5 -35t-136 -95.5t-96.5 -150t-37 -190.5q0 -161 99.5 -265t246.5 -104q78 0 147 27.5t112 66.5t74.5 78t44.5 66z" />
    <glyph glyph-name="egrave" unicode="&#xe8;" horiz-adv-x="1208" 
d="M178 453q0 114 42.5 221t115.5 189t178.5 131.5t224.5 49.5q207 0 339 -134.5t132 -336.5q0 -24 -2.5 -49.5t-5.5 -39.5l-2 -13h-899v-10q0 -162 100.5 -265.5t262.5 -103.5q53 0 103.5 12.5t88 32.5t70 44t54.5 47.5t38 43.5t24 32l7 13h122q-3 -7 -9.5 -19t-29.5 -47
t-50 -67t-72 -71t-94.5 -67t-118 -47t-142.5 -19q-209 0 -343 133t-134 340zM315 584h766q0 60 -22.5 120t-63.5 111.5t-110 84t-152 32.5q-155 0 -271.5 -104.5t-146.5 -243.5zM535 1526h153l131 -297h-102z" />
    <glyph glyph-name="eacute" unicode="&#xe9;" horiz-adv-x="1208" 
d="M178 453q0 114 42.5 221t115.5 189t178.5 131.5t224.5 49.5q207 0 339 -134.5t132 -336.5q0 -24 -2.5 -49.5t-5.5 -39.5l-2 -13h-899v-10q0 -162 100.5 -265.5t262.5 -103.5q53 0 103.5 12.5t88 32.5t70 44t54.5 47.5t38 43.5t24 32l7 13h122q-3 -7 -9.5 -19t-29.5 -47
t-50 -67t-72 -71t-94.5 -67t-118 -47t-142.5 -19q-209 0 -343 133t-134 340zM315 584h766q0 60 -22.5 120t-63.5 111.5t-110 84t-152 32.5q-155 0 -271.5 -104.5t-146.5 -243.5zM954 1526h154l-289 -297h-102z" />
    <glyph glyph-name="ecircumflex" unicode="&#xea;" horiz-adv-x="1208" 
d="M178 453q0 114 42.5 221t115.5 189t178.5 131.5t224.5 49.5q207 0 339 -134.5t132 -336.5q0 -24 -2.5 -49.5t-5.5 -39.5l-2 -13h-899v-10q0 -162 100.5 -265.5t262.5 -103.5q53 0 103.5 12.5t88 32.5t70 44t54.5 47.5t38 43.5t24 32l7 13h122q-3 -7 -9.5 -19t-29.5 -47
t-50 -67t-72 -71t-94.5 -67t-118 -47t-142.5 -19q-209 0 -343 133t-134 340zM315 584h766q0 60 -22.5 120t-63.5 111.5t-110 84t-152 32.5q-155 0 -271.5 -104.5t-146.5 -243.5zM1065 1229h-119l-117 205h-30l-191 -205h-127l279 297h133z" />
    <glyph glyph-name="edieresis" unicode="&#xeb;" horiz-adv-x="1208" 
d="M178 453q0 114 42.5 221t115.5 189t178.5 131.5t224.5 49.5q207 0 339 -134.5t132 -336.5q0 -24 -2.5 -49.5t-5.5 -39.5l-2 -13h-899v-10q0 -162 100.5 -265.5t262.5 -103.5q53 0 103.5 12.5t88 32.5t70 44t54.5 47.5t38 43.5t24 32l7 13h122q-3 -7 -9.5 -19t-29.5 -47
t-50 -67t-72 -71t-94.5 -67t-118 -47t-142.5 -19q-209 0 -343 133t-134 340zM315 584h766q0 60 -22.5 120t-63.5 111.5t-110 84t-152 32.5q-155 0 -271.5 -104.5t-146.5 -243.5zM627 1260q-37 0 -60.5 25t-23.5 61q0 41 30 69.5t70 28.5q37 0 60.5 -25t23.5 -61
q0 -41 -30 -69.5t-70 -28.5zM975 1260q-37 0 -60.5 25t-23.5 61q0 41 30 69.5t70 28.5q37 0 60.5 -25t23.5 -61q0 -41 -30 -69.5t-70 -28.5z" />
    <glyph glyph-name="igrave" unicode="&#xec;" horiz-adv-x="450" 
d="M164 0l180 1024h123l-180 -1024h-123zM186 1526h154l131 -297h-102z" />
    <glyph glyph-name="iacute" unicode="&#xed;" horiz-adv-x="450" 
d="M164 0l180 1024h123l-180 -1024h-123zM608 1526h154l-289 -297h-102z" />
    <glyph glyph-name="icircumflex" unicode="&#xee;" horiz-adv-x="450" 
d="M164 0l180 1024h123l-180 -1024h-123zM711 1217h-119l-117 204h-31l-190 -204h-127l279 296h133z" />
    <glyph glyph-name="idieresis" unicode="&#xef;" horiz-adv-x="450" 
d="M164 0l180 1024h123l-180 -1024h-123zM268 1260q-37 0 -60.5 25t-23.5 61q0 41 30.5 69.5t70.5 28.5q37 0 60.5 -25t23.5 -61q0 -41 -30.5 -69.5t-70.5 -28.5zM616 1260q-37 0 -60.5 25t-23.5 61q0 41 30.5 69.5t70.5 28.5q37 0 60.5 -25t23.5 -61q0 -41 -30.5 -69.5
t-70.5 -28.5z" />
    <glyph glyph-name="eth" unicode="&#xf0;" horiz-adv-x="1177" 
d="M651 92q165 0 282.5 116t117.5 294q0 143 -94.5 235t-249.5 92q-165 0 -282.5 -115.5t-117.5 -293.5q0 -143 94.5 -235.5t249.5 -92.5zM1171 1382l-221 -135q57 -76 94.5 -136t73 -135t53 -156t17.5 -171q0 -301 -148 -485t-397 -184q-206 0 -332.5 123t-126.5 309
q0 150 72 273t190 190t256 67q49 0 93.5 -7.5t78 -20t63 -29t50 -34.5t37.5 -36.5t28 -34.5t18 -28.5t10 -19.5l3 -7q-7 114 -67.5 225.5t-163.5 237.5l-274 -164l18 113l207 123q-81 94 -164 174h145q12 -12 37 -36t41.5 -41.5t32.5 -35.5l297 174z" />
    <glyph glyph-name="ntilde" unicode="&#xf1;" horiz-adv-x="1187" 
d="M344 1024h123l-25 -143q4 7 12.5 18t39 39t67.5 49.5t99 39t131 17.5q203 0 297 -130.5t57 -344.5l-101 -569h-122l104 592q27 151 -39.5 245.5t-218.5 94.5q-137 0 -244 -93.5t-133 -242.5l-104 -596h-123zM932 1229q-37 0 -68 13.5t-52 33t-39.5 39.5t-39.5 33.5
t-43 13.5q-31 0 -56.5 -21t-29.5 -51l-8 -51h-102l10 53q14 75 70.5 123.5t132.5 48.5q45 0 82.5 -21t58.5 -45.5t48 -45.5t54 -21q31 0 55.5 20.5t28.5 51.5l8 51h105l-10 -53q-14 -75 -71.5 -123.5t-133.5 -48.5z" />
    <glyph glyph-name="ograve" unicode="&#xf2;" horiz-adv-x="1228" 
d="M662 -20q-214 0 -349 134.5t-135 338.5q0 126 46.5 237t124.5 188t181.5 121.5t214.5 44.5q214 0 349 -134.5t135 -338.5q0 -126 -46.5 -237t-124.5 -188t-181.5 -121.5t-214.5 -44.5zM301 461q0 -161 102.5 -265t264.5 -104q85 0 165 35t140 96.5t96.5 150t36.5 189.5
q0 161 -102.5 265t-264.5 104q-85 0 -165 -35t-140 -96.5t-96.5 -150t-36.5 -189.5zM553 1526h154l131 -297h-103z" />
    <glyph glyph-name="oacute" unicode="&#xf3;" horiz-adv-x="1228" 
d="M662 -20q-214 0 -349 134.5t-135 338.5q0 126 46.5 237t124.5 188t181.5 121.5t214.5 44.5q214 0 349 -134.5t135 -338.5q0 -126 -46.5 -237t-124.5 -188t-181.5 -121.5t-214.5 -44.5zM301 461q0 -161 102.5 -265t264.5 -104q85 0 165 35t140 96.5t96.5 150t36.5 189.5
q0 161 -102.5 265t-264.5 104q-85 0 -165 -35t-140 -96.5t-96.5 -150t-36.5 -189.5zM967 1526h153l-289 -297h-102z" />
    <glyph glyph-name="ocircumflex" unicode="&#xf4;" horiz-adv-x="1228" 
d="M662 -20q-214 0 -349 134.5t-135 338.5q0 126 46.5 237t124.5 188t181.5 121.5t214.5 44.5q214 0 349 -134.5t135 -338.5q0 -126 -46.5 -237t-124.5 -188t-181.5 -121.5t-214.5 -44.5zM301 461q0 -161 102.5 -265t264.5 -104q85 0 165 35t140 96.5t96.5 150t36.5 189.5
q0 161 -102.5 265t-264.5 104q-85 0 -165 -35t-140 -96.5t-96.5 -150t-36.5 -189.5zM1096 1229h-119l-117 205h-31l-190 -205h-127l279 297h133z" />
    <glyph glyph-name="otilde" unicode="&#xf5;" horiz-adv-x="1228" 
d="M662 -20q-214 0 -349 134.5t-135 338.5q0 126 46.5 237t124.5 188t181.5 121.5t214.5 44.5q214 0 349 -134.5t135 -338.5q0 -126 -46.5 -237t-124.5 -188t-181.5 -121.5t-214.5 -44.5zM301 461q0 -161 102.5 -265t264.5 -104q85 0 165 35t140 96.5t96.5 150t36.5 189.5
q0 161 -102.5 265t-264.5 104q-85 0 -165 -35t-140 -96.5t-96.5 -150t-36.5 -189.5zM932 1229q-37 0 -68 13.5t-52 33t-39.5 39.5t-39.5 33.5t-43 13.5q-31 0 -56.5 -21t-29.5 -51l-8 -51h-102l10 53q14 75 70.5 123.5t132.5 48.5q45 0 82.5 -21t58.5 -45.5t48 -45.5t54 -21
q31 0 55.5 20.5t28.5 51.5l8 51h105l-10 -53q-14 -75 -71.5 -123.5t-133.5 -48.5z" />
    <glyph glyph-name="odieresis" unicode="&#xf6;" horiz-adv-x="1228" 
d="M662 -20q-214 0 -349 134.5t-135 338.5q0 126 46.5 237t124.5 188t181.5 121.5t214.5 44.5q214 0 349 -134.5t135 -338.5q0 -126 -46.5 -237t-124.5 -188t-181.5 -121.5t-214.5 -44.5zM301 461q0 -161 102.5 -265t264.5 -104q85 0 165 35t140 96.5t96.5 150t36.5 189.5
q0 161 -102.5 265t-264.5 104q-85 0 -165 -35t-140 -96.5t-96.5 -150t-36.5 -189.5zM637 1260q-37 0 -60.5 25t-23.5 61q0 41 30 69.5t70 28.5q37 0 60.5 -25t23.5 -61q0 -41 -30 -69.5t-70 -28.5zM985 1260q-37 0 -60.5 25t-23.5 61q0 41 30 69.5t70 28.5q37 0 60.5 -25
t23.5 -61q0 -41 -30 -69.5t-70 -28.5z" />
    <glyph glyph-name="divide" unicode="&#xf7;" horiz-adv-x="1024" 
d="M1024 492h-778v122h778v-122zM532 911q0 40 29.5 71.5t73.5 31.5t73 -31.5t29 -71.5t-29 -71t-73 -31t-73.5 31t-29.5 71zM737 195q0 -40 -29 -71.5t-73 -31.5t-73.5 31.5t-29.5 71.5t29.5 71t73.5 31t73 -31t29 -71z" />
    <glyph glyph-name="oslash" unicode="&#xf8;" horiz-adv-x="1228" 
d="M330 307l688 508q-104 117 -279 117q-85 0 -165 -35t-140 -96.5t-96.5 -150t-36.5 -189.5q0 -89 29 -154zM1106 563q0 89 -29 154l-688 -508q104 -117 279 -117q85 0 165 35t140 96.5t96.5 150t36.5 189.5zM1229 571q0 -126 -46.5 -237t-124.5 -188t-181.5 -121.5
t-214.5 -44.5q-236 0 -371 157l-201 -147l27 160l110 81q-49 98 -49 222q0 126 46.5 237t124.5 188t181.5 121.5t214.5 44.5q236 0 371 -157l201 147l-27 -160l-110 -81q49 -98 49 -222z" />
    <glyph glyph-name="ugrave" unicode="&#xf9;" horiz-adv-x="1208" 
d="M1038 0h-123l25 143q-4 -7 -12.5 -18t-39 -39t-67 -49.5t-98.5 -39t-131 -17.5q-203 0 -297 130.5t-57 344.5l100 569h123l-105 -592q-27 -151 39.5 -245.5t218.5 -94.5q137 0 244 93.5t133 242.5l105 596h123zM578 1526h153l131 -297h-102z" />
    <glyph glyph-name="uacute" unicode="&#xfa;" horiz-adv-x="1208" 
d="M1038 0h-123l25 143q-4 -7 -12.5 -18t-39 -39t-67 -49.5t-98.5 -39t-131 -17.5q-203 0 -297 130.5t-57 344.5l100 569h123l-105 -592q-27 -151 39.5 -245.5t218.5 -94.5q137 0 244 93.5t133 242.5l105 596h123zM975 1526h153l-288 -297h-103z" />
    <glyph glyph-name="ucircumflex" unicode="&#xfb;" horiz-adv-x="1208" 
d="M1038 0h-123l25 143q-4 -7 -12.5 -18t-39 -39t-67 -49.5t-98.5 -39t-131 -17.5q-203 0 -297 130.5t-57 344.5l100 569h123l-105 -592q-27 -151 39.5 -245.5t218.5 -94.5q137 0 244 93.5t133 242.5l105 596h123zM1085 1229h-118l-117 205h-31l-190 -205h-127l278 297h133z
" />
    <glyph glyph-name="udieresis" unicode="&#xfc;" horiz-adv-x="1208" 
d="M1038 0h-123l25 143q-4 -7 -12.5 -18t-39 -39t-67 -49.5t-98.5 -39t-131 -17.5q-203 0 -297 130.5t-57 344.5l100 569h123l-105 -592q-27 -151 39.5 -245.5t218.5 -94.5q137 0 244 93.5t133 242.5l105 596h123zM627 1260q-37 0 -60.5 25t-23.5 61q0 41 30 69.5t70 28.5
q37 0 60.5 -25t23.5 -61q0 -41 -30 -69.5t-70 -28.5zM975 1260q-37 0 -60.5 25t-23.5 61q0 41 30 69.5t70 28.5q37 0 60.5 -25t23.5 -61q0 -41 -30 -69.5t-70 -28.5z" />
    <glyph glyph-name="yacute" unicode="&#xfd;" horiz-adv-x="1034" 
d="M307 0l-96 1024h135l76 -911h192l426 911h134l-670 -1413h-133l192 389h-256zM872 1526h154l-289 -297h-102z" />
    <glyph glyph-name="thorn" unicode="&#xfe;" 
d="M539 1434l-105 -582q47 73 149 132.5t232 59.5q190 0 318.5 -134.5t128.5 -336.5q0 -126 -47 -238t-123.5 -189t-174.5 -121.5t-200 -44.5q-86 0 -158 26t-118 67t-74 83.5t-39 83.5l-111 -629h-123l322 1823h123zM801 932q-76 0 -151.5 -34.5t-136.5 -94t-99.5 -148.5
t-38.5 -190q0 -162 98.5 -267.5t239.5 -105.5q76 0 151.5 34.5t136.5 94t99.5 148.5t38.5 190q0 162 -98.5 267.5t-239.5 105.5z" />
    <glyph glyph-name="ydieresis" unicode="&#xff;" horiz-adv-x="1034" 
d="M307 0l-96 1024h135l76 -911h192l426 911h134l-670 -1413h-133l192 389h-256zM545 1249q-37 0 -60.5 25t-23.5 61q0 41 30 70t70 29q37 0 60.5 -25t23.5 -61q0 -41 -30 -70t-70 -29zM893 1249q-37 0 -60.5 25t-23.5 61q0 41 30 70t70 29q37 0 60.5 -25t23.5 -61
q0 -41 -30 -70t-70 -29z" />
    <glyph glyph-name="Amacron" unicode="&#x100;" horiz-adv-x="1382" 
d="M1229 0l-39 471h-758l-207 -471h-133l631 1434h512l127 -1434h-133zM1112 1311h-307l-322 -717h697zM737 1679l21 113h522l-20 -113h-523z" />
    <glyph glyph-name="amacron" unicode="&#x101;" 
d="M975 0l31 172q-47 -73 -149 -132.5t-232 -59.5q-190 0 -318.5 134.5t-128.5 336.5q0 126 47 238t123.5 189t174.5 121.5t200 44.5q86 0 158 -26t118 -67t74 -83.5t39 -83.5l43 240h123l-180 -1024h-123zM639 92q76 0 151.5 34.5t136.5 94t99.5 148.5t38.5 190
q0 162 -98.5 267.5t-239.5 105.5q-76 0 -151.5 -34.5t-136.5 -94t-99.5 -148.5t-38.5 -190q0 -162 98.5 -267.5t239.5 -105.5zM567 1280l21 113h522l-20 -113h-523z" />
    <glyph glyph-name="Abreve" unicode="&#x102;" horiz-adv-x="1382" 
d="M1229 0l-39 471h-758l-207 -471h-133l631 1434h512l127 -1434h-133zM1112 1311h-307l-322 -717h697zM999 1618q-115 0 -188.5 66t-73.5 163v17h113v-11q0 -56 43 -94.5t117 -38.5q68 0 114.5 39t53.5 105h114q-12 -107 -96 -176.5t-197 -69.5z" />
    <glyph glyph-name="abreve" unicode="&#x103;" 
d="M975 0l31 172q-47 -73 -149 -132.5t-232 -59.5q-190 0 -318.5 134.5t-128.5 336.5q0 126 47 238t123.5 189t174.5 121.5t200 44.5q86 0 158 -26t118 -67t74 -83.5t39 -83.5l43 240h123l-180 -1024h-123zM639 92q76 0 151.5 34.5t136.5 94t99.5 148.5t38.5 190
q0 162 -98.5 267.5t-239.5 105.5q-76 0 -151.5 -34.5t-136.5 -94t-99.5 -148.5t-38.5 -190q0 -162 98.5 -267.5t239.5 -105.5zM825 1239q-115 0 -188.5 66t-73.5 163v17h113v-10q0 -56 43 -95t117 -39q68 0 114.5 39t53.5 105h114q-12 -107 -96 -176.5t-197 -69.5z" />
    <glyph glyph-name="Aogonek" unicode="&#x104;" horiz-adv-x="1382" 
d="M1157 -461q-88 0 -143.5 45.5t-55.5 126.5q0 166 271 289l-39 471h-758l-207 -471h-133l631 1434h512l127 -1434q-143 -72 -188 -103q-112 -79 -113 -169q0 -40 29.5 -63t83.5 -23q28 0 58.5 4.5t47.5 9.5l16 4l-16 -92q-53 -29 -123 -29zM1112 1311h-307l-322 -717h697z
" />
    <glyph glyph-name="aogonek" unicode="&#x105;" 
d="M893 -461q-88 0 -143.5 45.5t-55.5 126.5q0 44 19 84.5t46 69.5t68 58t74 46.5t74 36.5l31 166q-47 -73 -149 -132.5t-232 -59.5q-190 0 -318.5 134.5t-128.5 336.5q0 126 47 238t123.5 189t174.5 121.5t200 44.5q86 0 158 -26t118 -67t74 -83.5t39 -83.5l43 240h123
l-180 -1024q-143 -72 -188 -103q-113 -78 -113 -169q0 -40 29.5 -63t82.5 -23q28 0 58.5 4.5t47.5 9.5l17 4l-16 -92q-53 -29 -123 -29zM639 92q76 0 151.5 34.5t136.5 94t99.5 148.5t38.5 190q0 162 -98.5 267.5t-239.5 105.5q-76 0 -151.5 -34.5t-136.5 -94t-99.5 -148.5
t-38.5 -190q0 -162 98.5 -267.5t239.5 -105.5z" />
    <glyph glyph-name="Cacute" unicode="&#x106;" horiz-adv-x="1638" 
d="M1522 502h137q-4 -11 -12 -30.5t-38.5 -76t-67.5 -108t-101 -114t-137 -107.5t-177.5 -76t-220.5 -31q-151 0 -279 50.5t-216.5 139.5t-138.5 213.5t-50 268.5q0 181 66.5 339.5t177 268.5t257.5 173t306 63q127 0 236.5 -36t182.5 -91t127.5 -125.5t82 -135.5t35.5 -124
h-136q-2 8 -6 22t-21.5 54.5t-41 77t-67.5 81.5t-97.5 77.5t-134 54.5t-174.5 22q-131 0 -251 -52.5t-210.5 -144.5t-144.5 -227.5t-54 -292.5q0 -246 154 -399.5t405 -153.5q93 0 177 23t144 60t110.5 82t82 90t54 82t31.5 60zM1231 1915h153l-288 -297h-103z" />
    <glyph glyph-name="cacute" unicode="&#x107;" horiz-adv-x="1167" 
d="M1038 358h123q-3 -8 -8.5 -21.5t-27 -53t-47 -75t-70 -79t-94.5 -75t-121 -53t-150 -21.5q-197 0 -331 134.5t-134 338.5q0 126 47.5 238t125.5 188t177.5 120.5t202.5 44.5q81 0 150 -19.5t114 -51.5t80.5 -70t55 -76t32 -70t15.5 -51l4 -20h-123q-1 5 -4 14t-15 34.5
t-27 48.5t-42.5 51.5t-60 49t-81 34.5t-104.5 14q-78 0 -154.5 -35t-136 -95.5t-96.5 -150t-37 -190.5q0 -161 99.5 -265t246.5 -104q78 0 147 27.5t112 66.5t74.5 78t44.5 66zM975 1526h153l-288 -297h-103z" />
    <glyph glyph-name="Ccircumflex" unicode="&#x108;" horiz-adv-x="1638" 
d="M1522 502h137q-4 -11 -12 -30.5t-38.5 -76t-67.5 -108t-101 -114t-137 -107.5t-177.5 -76t-220.5 -31q-151 0 -279 50.5t-216.5 139.5t-138.5 213.5t-50 268.5q0 181 66.5 339.5t177 268.5t257.5 173t306 63q127 0 236.5 -36t182.5 -91t127.5 -125.5t82 -135.5t35.5 -124
h-136q-2 8 -6 22t-21.5 54.5t-41 77t-67.5 81.5t-97.5 77.5t-134 54.5t-174.5 22q-131 0 -251 -52.5t-210.5 -144.5t-144.5 -227.5t-54 -292.5q0 -246 154 -399.5t405 -153.5q93 0 177 23t144 60t110.5 82t82 90t54 82t31.5 60zM1352 1618h-119l-117 205h-31l-190 -205h-127
l279 297h133z" />
    <glyph glyph-name="ccircumflex" unicode="&#x109;" horiz-adv-x="1167" 
d="M1038 358h123q-3 -8 -8.5 -21.5t-27 -53t-47 -75t-70 -79t-94.5 -75t-121 -53t-150 -21.5q-197 0 -331 134.5t-134 338.5q0 126 47.5 238t125.5 188t177.5 120.5t202.5 44.5q81 0 150 -19.5t114 -51.5t80.5 -70t55 -76t32 -70t15.5 -51l4 -20h-123q-1 5 -4 14t-15 34.5
t-27 48.5t-42.5 51.5t-60 49t-81 34.5t-104.5 14q-78 0 -154.5 -35t-136 -95.5t-96.5 -150t-37 -190.5q0 -161 99.5 -265t246.5 -104q78 0 147 27.5t112 66.5t74.5 78t44.5 66zM1085 1229h-118l-117 205h-31l-190 -205h-127l278 297h133z" />
    <glyph glyph-name="Ccaron" unicode="&#x10c;" horiz-adv-x="1638" 
d="M1522 502h137q-4 -11 -12 -30.5t-38.5 -76t-67.5 -108t-101 -114t-137 -107.5t-177.5 -76t-220.5 -31q-151 0 -279 50.5t-216.5 139.5t-138.5 213.5t-50 268.5q0 181 66.5 339.5t177 268.5t257.5 173t306 63q127 0 236.5 -36t182.5 -91t127.5 -125.5t82 -135.5t35.5 -124
h-136q-2 8 -6 22t-21.5 54.5t-41 77t-67.5 81.5t-97.5 77.5t-134 54.5t-174.5 22q-131 0 -251 -52.5t-210.5 -144.5t-144.5 -227.5t-54 -292.5q0 -246 154 -399.5t405 -153.5q93 0 177 23t144 60t110.5 82t82 90t54 82t31.5 60zM1286 1915h127l-278 -297h-134l-172 297h119
l117 -205h31z" />
    <glyph glyph-name="ccaron" unicode="&#x10d;" horiz-adv-x="1167" 
d="M1038 358h123q-3 -8 -8.5 -21.5t-27 -53t-47 -75t-70 -79t-94.5 -75t-121 -53t-150 -21.5q-197 0 -331 134.5t-134 338.5q0 126 47.5 238t125.5 188t177.5 120.5t202.5 44.5q81 0 150 -19.5t114 -51.5t80.5 -70t55 -76t32 -70t15.5 -51l4 -20h-123q-1 5 -4 14t-15 34.5
t-27 48.5t-42.5 51.5t-60 49t-81 34.5t-104.5 14q-78 0 -154.5 -35t-136 -95.5t-96.5 -150t-37 -190.5q0 -161 99.5 -265t246.5 -104q78 0 147 27.5t112 66.5t74.5 78t44.5 66zM999 1526h127l-278 -297h-133l-172 297h119l116 -205h31z" />
    <glyph glyph-name="Dcaron" unicode="&#x10e;" horiz-adv-x="1474" 
d="M840 1311h-291l-209 -1188h387q136 0 256 51t205.5 139t134.5 211.5t49 263.5q0 147 -67 266.5t-189 188t-276 68.5zM436 1434h404q192 0 344 -82t236.5 -229.5t84.5 -334.5q0 -162 -62 -308t-167.5 -251.5t-252 -167t-308.5 -61.5h-531zM1163 1915h127l-278 -297h-133
l-172 297h118l117 -205h31z" />
    <glyph glyph-name="dcaron" unicode="&#x10f;" horiz-adv-x="1351" 
d="M975 0l31 172q-47 -73 -149 -132.5t-232 -59.5q-190 0 -318.5 134.5t-128.5 336.5q0 126 47 238t123.5 189t174.5 121.5t200 44.5q86 0 158 -26t118 -67t74 -83.5t39 -83.5l113 650h123l-250 -1434h-123zM639 92q76 0 151.5 34.5t136.5 94t99.5 148.5t38.5 190
q0 162 -98.5 267.5t-239.5 105.5q-76 0 -151.5 -34.5t-136.5 -94t-99.5 -148.5t-38.5 -190q0 -162 98.5 -267.5t239.5 -105.5zM1518 1290q-31 0 -52.5 20.5t-21.5 51.5q0 36 29 64t71 28t69 -31.5t27 -87.5q0 -105 -68.5 -173.5t-162.5 -76.5l10 62q57 6 94 40t37 85l-4 24
q-12 -6 -28 -6z" />
    <glyph glyph-name="Dcroat" unicode="&#x110;" horiz-adv-x="1495" 
d="M455 1434h403q192 0 344 -82t237 -229.5t85 -334.5q0 -162 -62 -308t-168 -251.5t-252.5 -167t-308.5 -61.5h-530l114 645h-153l22 133h154zM858 1311h-291l-94 -533h379l-23 -133h-378l-93 -522h387q136 0 256 51t205.5 139t135 211.5t49.5 263.5q0 147 -67.5 266.5
t-189.5 188t-276 68.5z" />
    <glyph glyph-name="dcroat" unicode="&#x111;" horiz-adv-x="1249" 
d="M950 0l27 154q-5 -7 -14.5 -19t-43.5 -42t-73 -52.5t-102.5 -41.5t-131.5 -19q-192 0 -313 122t-121 316q0 123 42.5 230t114 179.5t165 114t194.5 41.5q50 0 95 -8.5t79.5 -22t64 -32t51 -38t38.5 -40t28 -38t18 -32t10 -22.5l3 -7l74 414h-276l18 113h277l30 164h123
l-31 -164h144l-19 -113h-143l-205 -1157h-123zM637 92q78 0 150 32t127.5 88t88.5 141t33 184q0 150 -93.5 241.5t-242.5 91.5q-78 0 -150 -31.5t-127.5 -88t-88.5 -141t-33 -183.5q0 -150 93.5 -242t242.5 -92z" />
    <glyph glyph-name="Emacron" unicode="&#x112;" horiz-adv-x="1249" 
d="M340 123h840l-23 -123h-973l252 1434h973l-20 -123h-840l-92 -523h686l-23 -122h-686zM686 1700l21 112h522l-21 -112h-522z" />
    <glyph glyph-name="emacron" unicode="&#x113;" horiz-adv-x="1208" 
d="M178 453q0 114 42.5 221t115.5 189t178.5 131.5t224.5 49.5q207 0 339 -134.5t132 -336.5q0 -24 -2.5 -49.5t-5.5 -39.5l-2 -13h-899v-10q0 -162 100.5 -265.5t262.5 -103.5q53 0 103.5 12.5t88 32.5t70 44t54.5 47.5t38 43.5t24 32l7 13h122q-3 -7 -9.5 -19t-29.5 -47
t-50 -67t-72 -71t-94.5 -67t-118 -47t-142.5 -19q-209 0 -343 133t-134 340zM315 584h766q0 60 -22.5 120t-63.5 111.5t-110 84t-152 32.5q-155 0 -271.5 -104.5t-146.5 -243.5zM522 1280l21 113h522l-21 -113h-522z" />
    <glyph glyph-name="Edotaccent" unicode="&#x116;" horiz-adv-x="1249" 
d="M340 123h840l-23 -123h-973l252 1434h973l-20 -123h-840l-92 -523h686l-23 -122h-686zM944 1649q-37 0 -60.5 25t-23.5 61q0 41 30.5 69.5t70.5 28.5q37 0 60 -25t23 -61q0 -41 -30 -69.5t-70 -28.5z" />
    <glyph glyph-name="edotaccent" unicode="&#x117;" horiz-adv-x="1208" 
d="M178 453q0 114 42.5 221t115.5 189t178.5 131.5t224.5 49.5q207 0 339 -134.5t132 -336.5q0 -24 -2.5 -49.5t-5.5 -39.5l-2 -13h-899v-10q0 -162 100.5 -265.5t262.5 -103.5q53 0 103.5 12.5t88 32.5t70 44t54.5 47.5t38 43.5t24 32l7 13h122q-3 -7 -9.5 -19t-29.5 -47
t-50 -67t-72 -71t-94.5 -67t-118 -47t-142.5 -19q-209 0 -343 133t-134 340zM315 584h766q0 60 -22.5 120t-63.5 111.5t-110 84t-152 32.5q-155 0 -271.5 -104.5t-146.5 -243.5zM780 1249q-37 0 -60.5 25t-23.5 61q0 41 30.5 70t70.5 29q37 0 60.5 -25t23.5 -61
q0 -41 -30.5 -70t-70.5 -29z" />
    <glyph glyph-name="Eogonek" unicode="&#x118;" horiz-adv-x="1249" 
d="M952 -461q-87 0 -142.5 45.5t-55.5 126.5q0 167 270 289h-840l252 1434h973l-20 -123h-840l-92 -523h686l-23 -122h-686l-94 -543h840l-23 -123q-143 -72 -188 -103q-113 -78 -113 -169q0 -40 29.5 -63t83.5 -23q28 0 58.5 4.5t47.5 9.5l17 4l-17 -92q-53 -29 -123 -29z
" />
    <glyph glyph-name="eogonek" unicode="&#x119;" horiz-adv-x="1208" 
d="M608 -461q-87 0 -142.5 45.5t-55.5 126.5q0 152 225 269q-201 8 -329 139.5t-128 333.5q0 114 42.5 221t115.5 189t178.5 131.5t224.5 49.5q207 0 339 -134.5t132 -336.5q0 -24 -2.5 -49.5t-5.5 -39.5l-2 -13h-899v-10q0 -162 100.5 -265.5t262.5 -103.5q53 0 103.5 12.5
t88 32.5t70 44t54.5 47.5t38 43.5t24 32l7 13h122q-30 -68 -81.5 -128t-105.5 -97.5t-97 -60t-74 -31.5q-143 -72 -188 -103q-113 -78 -113 -169q0 -40 29.5 -63t83.5 -23q28 0 58.5 4.5t47.5 9.5l17 4l-17 -92q-53 -29 -123 -29zM315 584h766q0 60 -22.5 120t-63.5 111.5
t-110 84t-152 32.5q-155 0 -271.5 -104.5t-146.5 -243.5z" />
    <glyph glyph-name="Ecaron" unicode="&#x11a;" horiz-adv-x="1249" 
d="M340 123h840l-23 -123h-973l252 1434h973l-20 -123h-840l-92 -523h686l-23 -122h-686zM1165 1915h127l-278 -297h-133l-172 297h118l117 -205h31z" />
    <glyph glyph-name="ecaron" unicode="&#x11b;" horiz-adv-x="1208" 
d="M178 453q0 114 42.5 221t115.5 189t178.5 131.5t224.5 49.5q207 0 339 -134.5t132 -336.5q0 -24 -2.5 -49.5t-5.5 -39.5l-2 -13h-899v-10q0 -162 100.5 -265.5t262.5 -103.5q53 0 103.5 12.5t88 32.5t70 44t54.5 47.5t38 43.5t24 32l7 13h122q-3 -7 -9.5 -19t-29.5 -47
t-50 -67t-72 -71t-94.5 -67t-118 -47t-142.5 -19q-209 0 -343 133t-134 340zM315 584h766q0 60 -22.5 120t-63.5 111.5t-110 84t-152 32.5q-155 0 -271.5 -104.5t-146.5 -243.5zM979 1526h127l-279 -297h-133l-172 297h119l117 -205h30z" />
    <glyph glyph-name="Gbreve" unicode="&#x11e;" horiz-adv-x="1761" 
d="M1550 614h-282l20 123h604l-20 -123h-184q-16 -86 -56 -174.5t-108.5 -175.5t-156 -154t-208 -109t-254.5 -42q-151 0 -279 50.5t-216.5 139.5t-138.5 213.5t-50 268.5q0 181 66.5 339.5t177 268.5t257.5 173t306 63q127 0 234.5 -34t178.5 -86t124.5 -121.5t81.5 -133
t41 -127.5h-136q-2 8 -6 21.5t-22 53t-42 75.5t-68 79.5t-97 75t-132 53t-171 21.5q-131 0 -251 -52.5t-210.5 -144.5t-144.5 -227.5t-54 -292.5q0 -246 154 -399.5t405 -153.5q98 0 187 26.5t155.5 70.5t122 99.5t91 116t56.5 116.5t25 103zM1061 1618q-115 0 -188.5 66
t-73.5 163v17h112v-11q0 -56 43 -94.5t117 -38.5q68 0 114.5 39t53.5 105h115q-12 -107 -96 -176.5t-197 -69.5z" />
    <glyph glyph-name="gbreve" unicode="&#x11f;" 
d="M158 -389l20 113h748l80 448q-47 -73 -149 -132.5t-232 -59.5q-190 0 -318.5 134.5t-128.5 336.5q0 126 47 238t123.5 189t174.5 121.5t200 44.5q86 0 158 -26t118 -67t74 -83.5t39 -83.5l43 240h123l-250 -1413h-870zM639 92q76 0 151.5 34.5t136.5 94t99.5 148.5
t38.5 190q0 162 -98.5 267.5t-239.5 105.5q-76 0 -151.5 -34.5t-136.5 -94t-99.5 -148.5t-38.5 -190q0 -162 98.5 -267.5t239.5 -105.5zM825 1239q-115 0 -188.5 66t-73.5 163v17h113v-10q0 -56 43 -95t117 -39q68 0 114.5 39t53.5 105h114q-12 -107 -96 -176.5t-197 -69.5z
" />
    <glyph glyph-name="Gcommaaccent" unicode="&#x122;" horiz-adv-x="1761" 
d="M1550 614h-282l20 123h604l-20 -123h-184q-16 -86 -56 -174.5t-108.5 -175.5t-156 -154t-208 -109t-254.5 -42q-151 0 -279 50.5t-216.5 139.5t-138.5 213.5t-50 268.5q0 181 66.5 339.5t177 268.5t257.5 173t306 63q127 0 234.5 -34t178.5 -86t124.5 -121.5t81.5 -133
t41 -127.5h-136q-2 8 -6 21.5t-22 53t-42 75.5t-68 79.5t-97 75t-132 53t-171 21.5q-131 0 -251 -52.5t-210.5 -144.5t-144.5 -227.5t-54 -292.5q0 -246 154 -399.5t405 -153.5q98 0 187 26.5t155.5 70.5t122 99.5t91 116t56.5 116.5t25 103zM829 -369q-31 0 -52 20.5
t-21 51.5q0 36 29 64t71 28t69 -31.5t27 -87.5q0 -105 -68 -173t-163 -76l10 61q57 6 94 40t37 85l-4 25q-13 -7 -29 -7z" />
    <glyph glyph-name="gcommaaccent" unicode="&#x123;" 
d="M827 1372q31 0 52.5 -20.5t21.5 -51.5q0 -36 -29 -64t-71 -28t-69 31.5t-27 87.5q0 105 68.5 173.5t162.5 76.5l-10 -61q-57 -6 -94 -40t-37 -85l4 -25q12 6 28 6zM158 -389l20 113h748l80 448q-47 -73 -149 -132.5t-232 -59.5q-190 0 -318.5 134.5t-128.5 336.5
q0 126 47 238t123.5 189t174.5 121.5t200 44.5q86 0 158 -26t118 -67t74 -83.5t39 -83.5l43 240h123l-250 -1413h-870zM639 92q76 0 151.5 34.5t136.5 94t99.5 148.5t38.5 190q0 162 -98.5 267.5t-239.5 105.5q-76 0 -151.5 -34.5t-136.5 -94t-99.5 -148.5t-38.5 -190
q0 -162 98.5 -267.5t239.5 -105.5z" />
    <glyph glyph-name="Imacron" unicode="&#x12a;" horiz-adv-x="501" 
d="M569 1434l-252 -1434h-133l252 1434h133zM256 1679l20 113h523l-21 -113h-522z" />
    <glyph glyph-name="imacron" unicode="&#x12b;" horiz-adv-x="450" 
d="M164 0l180 1024h123l-180 -1024h-123zM168 1280l20 113h523l-21 -113h-522z" />
    <glyph glyph-name="Iogonek" unicode="&#x12e;" horiz-adv-x="501" 
d="M113 -461q-88 0 -143.5 45.5t-55.5 126.5q0 165 268 289l254 1434h133l-254 -1434q-11 -6 -33 -17q-44 -23 -67 -35t-60 -34t-57 -40t-41.5 -41.5t-31 -49.5t-9.5 -55q0 -40 29.5 -63t83.5 -23q28 0 59 4.5t48 9.5l16 4l-16 -92q-53 -29 -123 -29z" />
    <glyph glyph-name="iogonek" unicode="&#x12f;" horiz-adv-x="450" 
d="M82 -461q-88 0 -143.5 45.5t-55.5 126.5q0 54 26.5 101.5t74 84.5t88 60.5t94.5 48.5l178 1018h123l-180 -1024q-143 -72 -188 -103q-113 -78 -113 -169q0 -40 29.5 -63t82.5 -23q28 0 59 4.5t47 9.5l17 4l-16 -92q-53 -29 -123 -29zM453 1239q-37 0 -60.5 25t-23.5 61
q0 41 30 69.5t70 28.5q37 0 60.5 -25t23.5 -61q0 -41 -30 -69.5t-70 -28.5z" />
    <glyph glyph-name="Idotaccent" unicode="&#x130;" horiz-adv-x="501" 
d="M569 1434l-252 -1434h-133l252 1434h133zM535 1651q-37 0 -60.5 25t-23.5 61q0 41 30 69.5t70 28.5q37 0 60.5 -25t23.5 -61q0 -41 -30 -69.5t-70 -28.5z" />
    <glyph glyph-name="dotlessi" unicode="&#x131;" horiz-adv-x="450" 
d="M164 0l180 1024h123l-180 -1024h-123z" />
    <glyph glyph-name="Kcommaaccent" unicode="&#x136;" horiz-adv-x="1290" 
d="M1116 0l-354 666h-328l-117 -666h-133l252 1434h133l-112 -646h317l574 646h163l-624 -697l393 -737h-164zM655 -369q-31 0 -52 20.5t-21 51.5q0 36 29 64t71 28t69 -31.5t27 -87.5q0 -105 -68 -173t-163 -76l10 61q57 6 94 40t37 85l-4 25q-13 -7 -29 -7z" />
    <glyph glyph-name="kcommaaccent" unicode="&#x137;" horiz-adv-x="1064" 
d="M371 481l-84 -481h-123l252 1434h123l-148 -840h244l414 430h145l-465 -492l315 -532h-141l-285 481h-247zM545 -369q-31 0 -52.5 20.5t-21.5 51.5q0 36 29 64t71 28q43 0 70 -31.5t27 -87.5q0 -105 -68.5 -173t-163.5 -76l10 61q57 6 94.5 40t37.5 85q0 5 -0.5 9.5t-1 7
t-1.5 4.5t-1 3l-1 1q-12 -7 -28 -7z" />
    <glyph glyph-name="Lacute" unicode="&#x139;" horiz-adv-x="1077" 
d="M569 1434l-229 -1311h778l-22 -123h-912l252 1434h133zM729 1915h154l-289 -297h-102z" />
    <glyph glyph-name="lacute" unicode="&#x13a;" horiz-adv-x="552" 
d="M539 1434l-232 -1321h236l-21 -113h-358l252 1434h123zM698 1915h154l-289 -297h-102z" />
    <glyph glyph-name="Lcommaaccent" unicode="&#x13b;" horiz-adv-x="1077" 
d="M569 1434l-229 -1311h778l-22 -123h-912l252 1434h133zM604 -369q-31 0 -52.5 20.5t-21.5 51.5q0 36 29.5 64t71.5 28t69 -31.5t27 -87.5q0 -105 -68 -173t-163 -76l10 61q57 6 94 40t37 85l-4 25q-13 -7 -29 -7z" />
    <glyph glyph-name="lcommaaccent" unicode="&#x13c;" horiz-adv-x="552" 
d="M539 1434l-232 -1321h236l-21 -113h-358l252 1434h123zM287 -369q-31 0 -52.5 20.5t-21.5 51.5q0 36 29 64t71 28q43 0 70 -31.5t27 -87.5q0 -105 -68.5 -173t-163.5 -76l10 61q57 6 94 40t37 85l-4 25q-12 -7 -28 -7z" />
    <glyph glyph-name="Lcaron" unicode="&#x13d;" horiz-adv-x="1077" 
d="M569 1434l-229 -1311h778l-22 -123h-912l252 1434h133zM817 1290q-31 0 -52.5 20.5t-21.5 51.5q0 36 29.5 64t71.5 28t69 -31.5t27 -87.5q0 -105 -68.5 -173.5t-162.5 -76.5l10 62q57 6 94 40t37 85l-4 24q-13 -6 -29 -6z" />
    <glyph glyph-name="lcaron" unicode="&#x13e;" horiz-adv-x="552" 
d="M539 1434l-232 -1321h236l-21 -113h-358l252 1434h123zM709 1290q-31 0 -52.5 20.5t-21.5 51.5q0 36 29 64t71 28t69 -31.5t27 -87.5q0 -105 -68.5 -173.5t-162.5 -76.5l10 62q57 6 94 40t37 85l-4 24q-12 -6 -28 -6z" />
    <glyph glyph-name="Lslash" unicode="&#x141;" horiz-adv-x="1077" 
d="M569 1434l-118 -676l331 143l-22 -133l-332 -143l-90 -502h778l-20 -123h-912l99 563l-144 -61l23 133l145 61l129 738h133z" />
    <glyph glyph-name="lslash" unicode="&#x142;" horiz-adv-x="573" 
d="M559 1434l-119 -676l211 92l-22 -123l-211 -92l-92 -522h235l-18 -113h-359l103 584l-189 -82l23 123l188 82l127 727h123z" />
    <glyph glyph-name="Nacute" unicode="&#x143;" horiz-adv-x="1484" 
d="M1300 0h-194l-559 1300l-230 -1300h-133l252 1434h195l559 -1301l229 1301h133zM1169 1915h154l-289 -297h-102z" />
    <glyph glyph-name="nacute" unicode="&#x144;" horiz-adv-x="1187" 
d="M344 1024h123l-25 -143q4 7 12.5 18t39 39t67.5 49.5t99 39t131 17.5q203 0 297 -130.5t57 -344.5l-101 -569h-122l104 592q27 151 -39.5 245.5t-218.5 94.5q-137 0 -244 -93.5t-133 -242.5l-104 -596h-123zM985 1526h154l-289 -297h-102z" />
    <glyph glyph-name="Ncommaaccent" unicode="&#x145;" horiz-adv-x="1484" 
d="M1300 0h-194l-559 1300l-230 -1300h-133l252 1434h195l559 -1301l229 1301h133zM709 -369q-31 0 -52.5 20.5t-21.5 51.5q0 36 29 64t71 28t69 -31.5t27 -87.5q0 -105 -68 -173t-163 -76l10 61q57 6 94 40t37 85l-4 25q-12 -7 -28 -7z" />
    <glyph glyph-name="ncommaaccent" unicode="&#x146;" horiz-adv-x="1187" 
d="M344 1024h123l-25 -143q4 7 12.5 18t39 39t67.5 49.5t99 39t131 17.5q203 0 297 -130.5t57 -344.5l-101 -569h-122l104 592q27 151 -39.5 245.5t-218.5 94.5q-137 0 -244 -93.5t-133 -242.5l-104 -596h-123zM573 -369q-31 0 -52 20.5t-21 51.5q0 36 29 64t71 28t69 -31.5
t27 -87.5q0 -105 -68 -173t-163 -76l10 61q57 6 94 40t37 85l-4 25q-13 -7 -29 -7z" />
    <glyph glyph-name="Ncaron" unicode="&#x147;" horiz-adv-x="1484" 
d="M1300 0h-194l-559 1300l-230 -1300h-133l252 1434h195l559 -1301l229 1301h133zM1255 1915h127l-278 -297h-133l-172 297h119l116 -205h31z" />
    <glyph glyph-name="ncaron" unicode="&#x148;" horiz-adv-x="1187" 
d="M344 1024h123l-25 -143q4 7 12.5 18t39 39t67.5 49.5t99 39t131 17.5q203 0 297 -130.5t57 -344.5l-101 -569h-122l104 592q27 151 -39.5 245.5t-218.5 94.5q-137 0 -244 -93.5t-133 -242.5l-104 -596h-123zM1010 1526h127l-279 -297h-133l-172 297h119l116 -205h31z" />
    <glyph glyph-name="Omacron" unicode="&#x14c;" horiz-adv-x="1679" 
d="M915 82q131 0 251.5 52.5t211.5 144.5t145 227.5t54 292.5q0 247 -155 400t-406 153q-131 0 -251.5 -52.5t-211.5 -144.5t-145 -227.5t-54 -292.5q0 -247 155 -400t406 -153zM907 -41q-151 0 -279.5 51t-217.5 140t-139 213t-50 268q0 180 66 338.5t176 268.5
t256.5 173.5t304.5 63.5q151 0 279.5 -51t217.5 -140t139 -213t50 -268q0 -180 -66 -338.5t-176 -268.5t-256.5 -173.5t-304.5 -63.5zM840 1679l20 113h522l-20 -113h-522z" />
    <glyph glyph-name="omacron" unicode="&#x14d;" horiz-adv-x="1228" 
d="M662 -20q-214 0 -349 134.5t-135 338.5q0 126 46.5 237t124.5 188t181.5 121.5t214.5 44.5q214 0 349 -134.5t135 -338.5q0 -126 -46.5 -237t-124.5 -188t-181.5 -121.5t-214.5 -44.5zM301 461q0 -161 102.5 -265t264.5 -104q85 0 165 35t140 96.5t96.5 150t36.5 189.5
q0 161 -102.5 265t-264.5 104q-85 0 -165 -35t-140 -96.5t-96.5 -150t-36.5 -189.5zM543 1280l20 113h522l-20 -113h-522z" />
    <glyph glyph-name="Ohungarumlaut" unicode="&#x150;" horiz-adv-x="1679" 
d="M915 82q131 0 251.5 52.5t211.5 144.5t145 227.5t54 292.5q0 247 -155 400t-406 153q-131 0 -251.5 -52.5t-211.5 -144.5t-145 -227.5t-54 -292.5q0 -247 155 -400t406 -153zM907 -41q-151 0 -279.5 51t-217.5 140t-139 213t-50 268q0 180 66 338.5t176 268.5
t256.5 173.5t304.5 63.5q151 0 279.5 -51t217.5 -140t139 -213t50 -268q0 -180 -66 -338.5t-176 -268.5t-256.5 -173.5t-304.5 -63.5zM1087 1915h144l-258 -297h-92zM1384 1915h144l-258 -297h-92z" />
    <glyph glyph-name="ohungarumlaut" unicode="&#x151;" horiz-adv-x="1228" 
d="M662 -20q-214 0 -349 134.5t-135 338.5q0 126 46.5 237t124.5 188t181.5 121.5t214.5 44.5q214 0 349 -134.5t135 -338.5q0 -126 -46.5 -237t-124.5 -188t-181.5 -121.5t-214.5 -44.5zM301 461q0 -161 102.5 -265t264.5 -104q85 0 165 35t140 96.5t96.5 150t36.5 189.5
q0 161 -102.5 265t-264.5 104q-85 0 -165 -35t-140 -96.5t-96.5 -150t-36.5 -189.5zM801 1526h143l-258 -297h-92zM1098 1526h143l-258 -297h-92z" />
    <glyph glyph-name="OE" unicode="&#x152;" horiz-adv-x="2416" 
d="M1382 0l41 219q-9 -11 -25 -28.5t-71.5 -62t-116 -79t-155 -62.5t-191.5 -28q-138 0 -257.5 49.5t-204 136t-133 210t-48.5 266.5q0 186 66.5 348.5t176.5 271.5t251.5 171.5t290.5 62.5q69 0 133 -12.5t114 -33t94 -48t76.5 -57t59.5 -59.5t45 -56.5t30 -48t18 -32.5
l5 -12l55 318h942l-22 -123h-809l-92 -523h655l-20 -122h-656l-96 -543h809l-23 -123h-942zM877 82q124 0 238 51.5t201.5 144t140 232t52.5 303.5q0 244 -144 391.5t-378 147.5q-124 0 -238 -51.5t-202 -144t-140.5 -232t-52.5 -303.5q0 -244 144.5 -391.5t378.5 -147.5z
" />
    <glyph glyph-name="oe" unicode="&#x153;" horiz-adv-x="2058" 
d="M731 1044q75 0 140.5 -20.5t109 -49.5t80 -68.5t55.5 -70.5t33 -63q75 123 193.5 197.5t256.5 74.5q200 0 330.5 -135t130.5 -336q0 -24 -2.5 -49.5t-5.5 -39.5l-2 -13h-868v-10q0 -161 97 -265t245 -104q51 0 99.5 12.5t85 32.5t68.5 44t53.5 47.5t37 43.5t22.5 32l8 13
h123q-6 -14 -18.5 -36.5t-58 -80.5t-98.5 -102.5t-142 -81t-188 -36.5q-144 0 -259 78t-163 192q-27 -46 -68.5 -90.5t-98.5 -86.5t-133 -67.5t-157 -25.5q-198 0 -328.5 134t-130.5 337q0 120 45 230.5t120 189.5t176.5 126t211.5 47zM1196 584h735q0 59 -22 119.5
t-62.5 112t-107 84t-146.5 32.5q-142 0 -255 -105.5t-142 -242.5zM639 92q79 0 155.5 35.5t136 97t96 151.5t36.5 191q0 158 -96.5 261.5t-241.5 103.5q-79 0 -155.5 -35.5t-136 -97t-96 -151.5t-36.5 -191q0 -158 96.5 -261.5t241.5 -103.5z" />
    <glyph glyph-name="Racute" unicode="&#x154;" horiz-adv-x="1402" 
d="M973 1311h-424l-113 -635h520q171 0 271 98t100 258q0 128 -91 203.5t-263 75.5zM436 1434h557q216 0 341.5 -112.5t125.5 -283.5q0 -198 -125.5 -332t-333.5 -149l269 -557h-154l-260 553h-440l-99 -553h-133zM1108 1915h154l-289 -297h-103z" />
    <glyph glyph-name="racute" unicode="&#x155;" horiz-adv-x="768" 
d="M899 922h-123q-146 0 -254 -99t-137 -260l-98 -563h-123l180 1024h123l-35 -195q2 4 6.5 11.5t21 29t35.5 40.5t51 43t67 41t83.5 28.5t100.5 11.5h123zM821 1526h154l-289 -297h-102z" />
    <glyph glyph-name="Rcommaaccent" unicode="&#x156;" horiz-adv-x="1402" 
d="M973 1311h-424l-113 -635h520q171 0 271 98t100 258q0 128 -91 203.5t-263 75.5zM436 1434h557q216 0 341.5 -112.5t125.5 -283.5q0 -198 -125.5 -332t-333.5 -149l269 -557h-154l-260 553h-440l-99 -553h-133zM664 -369q-31 0 -52.5 20.5t-21.5 51.5q0 36 29 64t71 28
t69 -31.5t27 -87.5q0 -105 -68 -173t-163 -76l10 61q57 6 94 40t37 85l-4 25q-12 -7 -28 -7z" />
    <glyph glyph-name="rcommaaccent" unicode="&#x157;" horiz-adv-x="768" 
d="M899 922h-123q-146 0 -254 -99t-137 -260l-98 -563h-123l180 1024h123l-35 -195q2 4 6.5 11.5t21 29t35.5 40.5t51 43t67 41t83.5 28.5t100.5 11.5h123zM174 -369q-31 0 -52.5 20.5t-21.5 51.5q0 36 29.5 64t71.5 28t69 -31.5t27 -87.5q0 -105 -68 -173t-163 -76l10 61
q57 6 94 40t37 85l-4 25q-13 -7 -29 -7z" />
    <glyph glyph-name="Rcaron" unicode="&#x158;" horiz-adv-x="1402" 
d="M973 1311h-424l-113 -635h520q171 0 271 98t100 258q0 128 -91 203.5t-263 75.5zM436 1434h557q216 0 341.5 -112.5t125.5 -283.5q0 -198 -125.5 -332t-333.5 -149l269 -557h-154l-260 553h-440l-99 -553h-133zM1153 1915h127l-279 -297h-133l-172 297h119l117 -205h31z
" />
    <glyph glyph-name="rcaron" unicode="&#x159;" horiz-adv-x="768" 
d="M899 922h-123q-146 0 -254 -99t-137 -260l-98 -563h-123l180 1024h123l-35 -195q2 4 6.5 11.5t21 29t35.5 40.5t51 43t67 41t83.5 28.5t100.5 11.5h123zM877 1526h127l-279 -297h-133l-172 297h119l116 -205h31z" />
    <glyph glyph-name="Sacute" unicode="&#x15a;" horiz-adv-x="1300" 
d="M754 82q87 -3 161 21.5t121.5 66t74 94.5t26.5 109q0 66 -43.5 118.5t-113 89t-153 70t-167.5 70.5t-153.5 80.5t-113 110.5t-43.5 151q0 169 139 290.5t359 121.5q317 0 454 -200q54 -78 70 -179h-131q-1 5 -3.5 14.5t-14 36t-28 50.5t-49 53.5t-73.5 51t-104 36
t-138 14.5q-157 0 -252.5 -79.5t-95.5 -193.5q0 -65 43.5 -117.5t113 -89t153 -70.5t167.5 -72t153.5 -82t113 -111.5t43.5 -151.5q0 -83 -37.5 -160t-105 -136t-168.5 -94.5t-220 -35.5q-147 0 -258.5 43.5t-166.5 105t-88.5 123t-40.5 105.5l-7 43h133q0 -3 4 -17.5
t16.5 -42.5t32 -58t54.5 -62.5t79.5 -58t111 -42t145.5 -16.5zM1087 1915h154l-289 -297h-102z" />
    <glyph glyph-name="sacute" unicode="&#x15b;" horiz-adv-x="1044" 
d="M145 307h131l3 -12t12 -30.5t24.5 -42.5t42 -45t61 -43t86 -30t113.5 -12q122 0 190.5 51.5t68.5 132.5q0 45 -33.5 80t-87.5 57.5t-119 43.5t-130.5 45t-119.5 55t-87.5 80.5t-33.5 114.5q0 121 99 206.5t270 85.5q79 0 144.5 -16.5t108.5 -42.5t76 -57.5t50.5 -63
t29 -57.5t14.5 -43l3 -16h-133q-2 7 -6.5 19.5t-26.5 44.5t-52 56t-87.5 44t-128.5 20q-113 0 -175.5 -49t-62.5 -117q0 -45 33.5 -80t87.5 -57.5t119 -43.5t130 -45.5t119 -55t87.5 -80t33.5 -113.5q0 -135 -104 -223t-285 -88q-67 0 -125.5 11t-101 30t-78.5 43.5t-60 52
t-43 54.5t-29 51.5t-17 43.5t-9 30zM893 1526h154l-289 -297h-103z" />
    <glyph glyph-name="Scedilla" unicode="&#x15e;" horiz-adv-x="1300" 
d="M754 82q87 -3 161 21.5t121.5 66t74 94.5t26.5 109q0 66 -43.5 118.5t-113 89t-153 70t-167.5 70.5t-153.5 80.5t-113 110.5t-43.5 151q0 169 139 290.5t359 121.5q317 0 454 -200q54 -78 70 -179h-131q-1 5 -3.5 14.5t-14 36t-28 50.5t-49 53.5t-73.5 51t-104 36
t-138 14.5q-157 0 -252.5 -79.5t-95.5 -193.5q0 -65 43.5 -117.5t113 -89t153 -70.5t167.5 -72t153.5 -82t113 -111.5t43.5 -151.5q0 -82 -36.5 -158t-102 -135t-164.5 -95t-215 -38l-50 -76q58 -8 98 -53t40 -104q0 -90 -64.5 -148.5t-159.5 -58.5q-48 0 -88 13.5t-56 27.5
l-15 14l16 90q2 -2 6 -5.5t17.5 -13t29.5 -16.5t42 -12.5t55 -5.5q50 0 82 29.5t32 78.5q0 37 -28.5 61.5t-83.5 24.5h-66l103 158q-92 8 -168.5 35t-125 64t-86 80t-56.5 85t-30.5 76t-14.5 55l-3 21h133q0 -3 4 -17.5t16.5 -42.5t32 -58t54.5 -62.5t79.5 -58t111 -42
t145.5 -16.5z" />
    <glyph glyph-name="scedilla" unicode="&#x15f;" horiz-adv-x="1044" 
d="M145 307h131l3 -12t12 -30.5t24.5 -42.5t42 -45t61 -43t86 -30t113.5 -12q122 0 190.5 51.5t68.5 132.5q0 45 -33.5 80t-87.5 57.5t-119 43.5t-130.5 45t-119.5 55t-87.5 80.5t-33.5 114.5q0 121 99 206.5t270 85.5q79 0 144.5 -16.5t108.5 -42.5t76 -57.5t50.5 -63
t29 -57.5t14.5 -43l3 -16h-133q-2 7 -6.5 19.5t-26.5 44.5t-52 56t-87.5 44t-128.5 20q-113 0 -175.5 -49t-62.5 -117q0 -45 33.5 -80t87.5 -57.5t119 -43.5t130 -45.5t119 -55t87.5 -80t33.5 -113.5q0 -133 -100.5 -220.5t-275.5 -90.5l-64 -97q58 -8 97.5 -53t39.5 -104
q0 -90 -64 -148.5t-159 -58.5q-48 0 -88 13.5t-56 27.5l-16 14l17 90q5 -6 16 -15t49.5 -23.5t83.5 -14.5q50 0 82.5 29.5t32.5 78.5q0 36 -29 61t-84 25h-65l116 179q-70 8 -129.5 29.5t-98 50.5t-69 62.5t-47 65t-27 57.5t-13.5 42z" />
    <glyph glyph-name="Scaron" unicode="&#x160;" horiz-adv-x="1300" 
d="M754 82q87 -3 161 21.5t121.5 66t74 94.5t26.5 109q0 66 -43.5 118.5t-113 89t-153 70t-167.5 70.5t-153.5 80.5t-113 110.5t-43.5 151q0 169 139 290.5t359 121.5q317 0 454 -200q54 -78 70 -179h-131q-1 5 -3.5 14.5t-14 36t-28 50.5t-49 53.5t-73.5 51t-104 36
t-138 14.5q-157 0 -252.5 -79.5t-95.5 -193.5q0 -65 43.5 -117.5t113 -89t153 -70.5t167.5 -72t153.5 -82t113 -111.5t43.5 -151.5q0 -83 -37.5 -160t-105 -136t-168.5 -94.5t-220 -35.5q-147 0 -258.5 43.5t-166.5 105t-88.5 123t-40.5 105.5l-7 43h133q0 -3 4 -17.5
t16.5 -42.5t32 -58t54.5 -62.5t79.5 -58t111 -42t145.5 -16.5zM1133 1915h127l-279 -297h-133l-172 297h119l116 -205h31z" />
    <glyph glyph-name="scaron" unicode="&#x161;" horiz-adv-x="1044" 
d="M145 307h131l3 -12t12 -30.5t24.5 -42.5t42 -45t61 -43t86 -30t113.5 -12q122 0 190.5 51.5t68.5 132.5q0 45 -33.5 80t-87.5 57.5t-119 43.5t-130.5 45t-119.5 55t-87.5 80.5t-33.5 114.5q0 121 99 206.5t270 85.5q79 0 144.5 -16.5t108.5 -42.5t76 -57.5t50.5 -63
t29 -57.5t14.5 -43l3 -16h-133q-2 7 -6.5 19.5t-26.5 44.5t-52 56t-87.5 44t-128.5 20q-113 0 -175.5 -49t-62.5 -117q0 -45 33.5 -80t87.5 -57.5t119 -43.5t130 -45.5t119 -55t87.5 -80t33.5 -113.5q0 -135 -104 -223t-285 -88q-67 0 -125.5 11t-101 30t-78.5 43.5t-60 52
t-43 54.5t-29 51.5t-17 43.5t-9 30zM938 1526h127l-279 -297h-133l-172 297h119l117 -205h31z" />
    <glyph glyph-name="Tcommaaccent" unicode="&#x162;" horiz-adv-x="1198" 
d="M731 1311h-512l23 123h1157l-23 -123h-512l-231 -1311h-133zM510 -369q-31 0 -52.5 20.5t-21.5 51.5q0 36 29.5 64t71.5 28t69 -31.5t27 -87.5q0 -105 -68.5 -173t-163.5 -76l11 61q57 6 94 40t37 85l-4 25q-13 -7 -29 -7z" />
    <glyph glyph-name="tcommaaccent" unicode="&#x163;" horiz-adv-x="727" 
d="M211 911l20 113h144l41 225h123l-41 -225h338l-21 -113h-338l-139 -798h348l-20 -113h-471l159 911h-143zM379 -369q-31 0 -52.5 20.5t-21.5 51.5q0 36 29.5 64t71.5 28t69 -31.5t27 -87.5q0 -105 -68.5 -173t-163.5 -76l11 61q57 6 94 40t37 85l-4 25q-13 -7 -29 -7z
" />
    <glyph glyph-name="Tcaron" unicode="&#x164;" horiz-adv-x="1198" 
d="M731 1311h-512l23 123h1157l-23 -123h-512l-231 -1311h-133zM1051 1915h127l-279 -297h-133l-172 297h119l116 -205h31z" />
    <glyph glyph-name="tcaron" unicode="&#x165;" horiz-adv-x="727" 
d="M211 911l20 113h144l41 225h123l-201 -1136h348l-20 -113h-471l159 911h-143zM709 1106q-31 0 -52.5 20.5t-21.5 51.5q0 36 29 64t71 28t69 -31.5t27 -87.5q0 -105 -68.5 -173.5t-162.5 -76.5l10 62q57 6 94 39.5t37 84.5l-4 25q-12 -6 -28 -6z" />
    <glyph glyph-name="Umacron" unicode="&#x16a;" horiz-adv-x="1454" 
d="M264 553l156 881h133l-156 -881q-37 -211 65 -341t320 -130q174 0 292 108t153 306l166 938h133l-168 -949q-42 -243 -203 -384.5t-385 -141.5q-176 0 -302 77.5t-179.5 213t-24.5 303.5zM731 1679l21 113h522l-21 -113h-522z" />
    <glyph glyph-name="umacron" unicode="&#x16b;" horiz-adv-x="1208" 
d="M1038 0h-123l25 143q-4 -7 -12.5 -18t-39 -39t-67 -49.5t-98.5 -39t-131 -17.5q-203 0 -297 130.5t-57 344.5l100 569h123l-105 -592q-27 -151 39.5 -245.5t218.5 -94.5q137 0 244 93.5t133 242.5l105 596h123zM543 1280l20 113h522l-20 -113h-522z" />
    <glyph glyph-name="Uring" unicode="&#x16e;" horiz-adv-x="1454" 
d="M264 553l156 881h133l-156 -881q-37 -211 65 -341t320 -130q174 0 292 108t153 306l166 938h133l-168 -949q-42 -243 -203 -384.5t-385 -141.5q-176 0 -302 77.5t-179.5 213t-24.5 303.5zM891 1751q0 -43 30 -72.5t74 -29.5q48 0 85.5 37t37.5 86q0 43 -30 72.5t-74 29.5
q-48 0 -85.5 -37t-37.5 -86zM799 1741q0 91 67 158t156 67q79 0 133.5 -54t54.5 -130q0 -92 -67 -159t-156 -67q-79 0 -133.5 54.5t-54.5 130.5z" />
    <glyph glyph-name="uring" unicode="&#x16f;" horiz-adv-x="1208" 
d="M1038 0h-123l25 143q-4 -7 -12.5 -18t-39 -39t-67 -49.5t-98.5 -39t-131 -17.5q-203 0 -297 130.5t-57 344.5l100 569h123l-105 -592q-27 -151 39.5 -245.5t218.5 -94.5q137 0 244 93.5t133 242.5l105 596h123zM715 1393q0 -43 30 -73t74 -30q48 0 85.5 37t37.5 86
q0 43 -30 73t-74 30q-48 0 -85.5 -37t-37.5 -86zM623 1382q0 92 67.5 159t155.5 67q79 0 133.5 -54.5t54.5 -130.5q0 -91 -67 -158t-156 -67q-79 0 -133.5 54t-54.5 130z" />
    <glyph glyph-name="Uhungarumlaut" unicode="&#x170;" horiz-adv-x="1454" 
d="M264 553l156 881h133l-156 -881q-37 -211 65 -341t320 -130q174 0 292 108t153 306l166 938h133l-168 -949q-42 -243 -203 -384.5t-385 -141.5q-176 0 -302 77.5t-179.5 213t-24.5 303.5zM965 1915h143l-258 -297h-92zM1262 1915h143l-258 -297h-92z" />
    <glyph glyph-name="uhungarumlaut" unicode="&#x171;" horiz-adv-x="1208" 
d="M1038 0h-123l25 143q-4 -7 -12.5 -18t-39 -39t-67 -49.5t-98.5 -39t-131 -17.5q-203 0 -297 130.5t-57 344.5l100 569h123l-105 -592q-27 -151 39.5 -245.5t218.5 -94.5q137 0 244 93.5t133 242.5l105 596h123zM801 1526h143l-258 -297h-92zM1098 1526h143l-258 -297h-92
z" />
    <glyph glyph-name="Uogonek" unicode="&#x172;" horiz-adv-x="1454" 
d="M721 -461q-88 0 -143.5 45.5t-55.5 126.5q0 139 193 250q-243 19 -368.5 184t-82.5 408l156 881h133l-156 -881q-37 -211 65 -341t320 -130q174 0 292 108t153 306l166 938h133l-168 -949q-39 -220 -174 -356.5t-330 -163.5q-52 -27 -87 -48.5t-70.5 -51t-53.5 -64
t-18 -73.5q0 -40 29.5 -63t82.5 -23q28 0 58.5 4.5t47.5 9.5l17 4l-16 -92q-53 -29 -123 -29z" />
    <glyph glyph-name="uogonek" unicode="&#x173;" horiz-adv-x="1208" 
d="M834 -461q-88 0 -143.5 45.5t-55.5 126.5q0 54 26 101.5t72.5 84.5t87.5 61t94 48l25 137q-4 -7 -12.5 -18t-39 -39t-67 -49.5t-98.5 -39t-131 -17.5q-203 0 -297 130.5t-57 344.5l100 569h123l-105 -592q-27 -151 39.5 -245.5t218.5 -94.5q137 0 244 93.5t133 242.5
l105 596h123l-181 -1024q-143 -72 -188 -103q-113 -78 -113 -169q0 -40 29.5 -63t83.5 -23q28 0 59 4.5t47 9.5l17 4l-17 -92q-52 -29 -122 -29z" />
    <glyph glyph-name="Ydieresis" unicode="&#x178;" horiz-adv-x="1300" 
d="M1511 1434l-723 -912l-92 -522h-133l92 522l-403 912h158l327 -758h11l593 758h170zM731 1649q-37 0 -60.5 25t-23.5 61q0 41 30.5 69.5t70.5 28.5q37 0 60 -25t23 -61q0 -41 -30 -69.5t-70 -28.5zM1079 1649q-37 0 -60.5 25t-23.5 61q0 41 30.5 69.5t70.5 28.5
q37 0 60.5 -25t23.5 -61q0 -41 -30.5 -69.5t-70.5 -28.5z" />
    <glyph glyph-name="Zacute" unicode="&#x179;" horiz-adv-x="1228" 
d="M82 0l22 123l1108 1177l2 11h-870l21 123h1044l-20 -123l-1110 -1178v-10h911l-23 -123h-1085zM1047 1915h153l-289 -297h-102z" />
    <glyph glyph-name="zacute" unicode="&#x17a;" horiz-adv-x="962" 
d="M1051 911l-795 -798h676l-21 -113h-839l20 113l795 798h-635l20 113h799zM852 1526h154l-289 -297h-103z" />
    <glyph glyph-name="Zdotaccent" unicode="&#x17b;" horiz-adv-x="1228" 
d="M82 0l22 123l1108 1177l2 11h-870l21 123h1044l-20 -123l-1110 -1178v-10h911l-23 -123h-1085zM893 1649q-37 0 -60.5 25t-23.5 61q0 41 30 69.5t70 28.5q37 0 60.5 -25t23.5 -61q0 -41 -30 -69.5t-70 -28.5z" />
    <glyph glyph-name="zdotaccent" unicode="&#x17c;" horiz-adv-x="962" 
d="M1051 911l-795 -798h676l-21 -113h-839l20 113l795 798h-635l20 113h799zM698 1260q-37 0 -60.5 25t-23.5 61q0 41 30.5 69.5t70.5 28.5q37 0 60.5 -25t23.5 -61q0 -41 -30.5 -69.5t-70.5 -28.5z" />
    <glyph glyph-name="Zcaron" unicode="&#x17d;" horiz-adv-x="1228" 
d="M82 0l22 123l1108 1177l2 11h-870l21 123h1044l-20 -123l-1110 -1178v-10h911l-23 -123h-1085zM1110 1915h127l-279 -297h-133l-172 297h119l117 -205h31z" />
    <glyph glyph-name="zcaron" unicode="&#x17e;" horiz-adv-x="962" 
d="M1051 911l-795 -798h676l-21 -113h-839l20 113l795 798h-635l20 113h799zM897 1526h127l-279 -297h-133l-172 297h119l117 -205h31z" />
    <glyph glyph-name="florin" unicode="&#x192;" horiz-adv-x="737" 
d="M324 911l8 113h143l98 410h431l-11 -113h-327l-68 -297h266l-8 -113h-287l-309 -1300h-410l11 113h307l278 1187h-122z" />
    <glyph glyph-name="uni01FA" unicode="&#x1fa;" horiz-adv-x="1382" 
d="M1116 2111h133l-157 -157q53 -20 85.5 -67.5t32.5 -104.5q0 -92 -67 -159t-156 -67q-79 0 -133.5 54.5t-54.5 130.5q0 85 59.5 150t142.5 73zM891 1751q0 -43 30 -72.5t74 -29.5q48 0 85.5 37t37.5 86q0 43 -30 72.5t-74 29.5q-48 0 -85.5 -37t-37.5 -86zM1229 0l-39 471
h-758l-207 -471h-133l631 1434h512l127 -1434h-133zM1112 1311h-307l-322 -717h697z" />
    <glyph glyph-name="uni01FB" unicode="&#x1fb;" 
d="M961 1751h133l-158 -156q53 -20 86 -67.5t33 -104.5q0 -91 -67.5 -158t-156.5 -67q-79 0 -133.5 54t-54.5 130q0 85 60 150.5t143 73.5zM735 1393q0 -43 30.5 -73t74.5 -30q48 0 85.5 37t37.5 86q0 43 -30.5 73t-74.5 30q-48 0 -85.5 -37t-37.5 -86zM975 0l31 172
q-47 -73 -149 -132.5t-232 -59.5q-190 0 -318.5 134.5t-128.5 336.5q0 126 47 238t123.5 189t174.5 121.5t200 44.5q86 0 158 -26t118 -67t74 -83.5t39 -83.5l43 240h123l-180 -1024h-123zM639 92q76 0 151.5 34.5t136.5 94t99.5 148.5t38.5 190q0 162 -98.5 267.5
t-239.5 105.5q-76 0 -151.5 -34.5t-136.5 -94t-99.5 -148.5t-38.5 -190q0 -162 98.5 -267.5t239.5 -105.5z" />
    <glyph glyph-name="uni01FC" unicode="&#x1fc;" horiz-adv-x="2017" 
d="M1149 123h799l-23 -123h-932l84 471h-645l-207 -471h-133l631 1434h1454l-20 -123h-799l-92 -523h645l-23 -122h-645zM805 1311l-322 -717h615l127 717h-420zM1569 1915h153l-288 -297h-103z" />
    <glyph glyph-name="uni01FD" unicode="&#x1fd;" horiz-adv-x="1976" 
d="M528 -20q-148 0 -243 76.5t-95 207.5q0 143 103.5 236.5t279.5 93.5h431l8 43q24 131 -45.5 213t-216.5 82q-49 0 -93.5 -12t-76.5 -31t-59.5 -42t-45 -45.5t-30 -41.5t-17.5 -31l-6 -12h-125q2 7 7 18.5t23.5 45.5t40.5 65t61 69t83 65t107.5 45.5t134.5 18.5
q144 0 237 -56t129 -154q76 97 181.5 153.5t226.5 56.5q199 0 324.5 -134.5t125.5 -336.5q0 -24 -2.5 -47t-5.5 -34l-2 -11h-858v-20q0 -161 97 -265t245 -104q51 0 99 12.5t83.5 32.5t66.5 44t52 47.5t35.5 43.5t21.5 32l7 13h122q-6 -14 -17.5 -36.5t-55.5 -80.5
t-95.5 -102.5t-139.5 -81t-187 -36.5q-147 0 -263 79t-167 203q-31 -56 -73 -103.5t-101 -89t-139 -65.5t-173 -24zM313 270q0 -83 68.5 -130.5t191.5 -47.5q157 0 275 109.5t137 279.5h-420q-121 0 -186.5 -58t-65.5 -153zM1124 594h725q0 56 -20.5 113.5t-59 108.5
t-103 83.5t-144.5 32.5q-71 0 -139.5 -29.5t-120 -78t-88 -108.5t-50.5 -122zM1323 1526h154l-289 -297h-103z" />
    <glyph glyph-name="uni01FE" unicode="&#x1fe;" horiz-adv-x="1679" 
d="M76 143l223 160q-76 149 -76 328q0 180 66 338.5t176 268.5t256.5 173.5t304.5 63.5q176 0 318 -66.5t233 -185.5l309 221l-26 -154l-224 -160q76 -149 76 -327q0 -180 -66 -338.5t-176 -268.5t-256.5 -173.5t-304.5 -63.5q-177 0 -318.5 66.5t-232.5 185.5l-309 -221z
M918 82q131 0 251.5 52.5t211 144.5t144.5 227.5t54 292.5q0 143 -51 254l-1063 -764q74 -99 190.5 -153t262.5 -54zM356 635q0 -137 52 -254l1062 764q-75 98 -191.5 152.5t-260.5 54.5q-131 0 -251.5 -52.5t-211.5 -144.5t-145 -227.5t-54 -292.5zM1253 1915h154
l-289 -297h-102z" />
    <glyph glyph-name="uni01FF" unicode="&#x1ff;" horiz-adv-x="1228" 
d="M330 307l688 508q-104 117 -279 117q-85 0 -165 -35t-140 -96.5t-96.5 -150t-36.5 -189.5q0 -89 29 -154zM1106 563q0 89 -29 154l-688 -508q104 -117 279 -117q85 0 165 35t140 96.5t96.5 150t36.5 189.5zM1229 571q0 -126 -46.5 -237t-124.5 -188t-181.5 -121.5
t-214.5 -44.5q-236 0 -371 157l-201 -147l27 160l110 81q-49 98 -49 222q0 126 46.5 237t124.5 188t181.5 121.5t214.5 44.5q236 0 371 -157l201 147l-27 -160l-110 -81q49 -98 49 -222zM967 1526h153l-289 -297h-102z" />
    <glyph glyph-name="Scommaaccent" unicode="&#x218;" horiz-adv-x="1300" 
d="M754 82q87 -3 161 21.5t121.5 66t74 94.5t26.5 109q0 66 -43.5 118.5t-113 89t-153 70t-167.5 70.5t-153.5 80.5t-113 110.5t-43.5 151q0 169 139 290.5t359 121.5q317 0 454 -200q54 -78 70 -179h-131q-1 5 -3.5 14.5t-14 36t-28 50.5t-49 53.5t-73.5 51t-104 36
t-138 14.5q-157 0 -252.5 -79.5t-95.5 -193.5q0 -65 43.5 -117.5t113 -89t153 -70.5t167.5 -72t153.5 -82t113 -111.5t43.5 -151.5q0 -83 -37.5 -160t-105 -136t-168.5 -94.5t-220 -35.5q-147 0 -258.5 43.5t-166.5 105t-88.5 123t-40.5 105.5l-7 43h133q0 -3 4 -17.5
t16.5 -42.5t32 -58t54.5 -62.5t79.5 -58t111 -42t145.5 -16.5zM623 -369q-31 0 -52.5 20.5t-21.5 51.5q0 36 29 64t71 28t69 -31.5t27 -87.5q0 -105 -68 -173t-163 -76l10 61q57 6 94 40t37 85l-4 25q-12 -7 -28 -7z" />
    <glyph glyph-name="scommaaccent" unicode="&#x219;" horiz-adv-x="1044" 
d="M145 307h131l3 -12t12 -30.5t24.5 -42.5t42 -45t61 -43t86 -30t113.5 -12q122 0 190.5 51.5t68.5 132.5q0 45 -33.5 80t-87.5 57.5t-119 43.5t-130.5 45t-119.5 55t-87.5 80.5t-33.5 114.5q0 121 99 206.5t270 85.5q79 0 144.5 -16.5t108.5 -42.5t76 -57.5t50.5 -63
t29 -57.5t14.5 -43l3 -16h-133q-2 7 -6.5 19.5t-26.5 44.5t-52 56t-87.5 44t-128.5 20q-113 0 -175.5 -49t-62.5 -117q0 -45 33.5 -80t87.5 -57.5t119 -43.5t130 -45.5t119 -55t87.5 -80t33.5 -113.5q0 -135 -104 -223t-285 -88q-67 0 -125.5 11t-101 30t-78.5 43.5t-60 52
t-43 54.5t-29 51.5t-17 43.5t-9 30zM502 -369q-31 0 -52.5 20.5t-21.5 51.5q0 36 29 64t71 28q43 0 70 -31.5t27 -87.5q0 -105 -68.5 -173t-163.5 -76l10 61q57 6 94.5 40t37.5 85q0 5 -0.5 9.5t-1.5 7t-1.5 4.5t-1.5 3v1q-12 -7 -28 -7z" />
    <glyph glyph-name="uni021A" unicode="&#x21a;" horiz-adv-x="1198" 
d="M731 1311h-512l23 123h1157l-23 -123h-512l-231 -1311h-133zM510 -369q-31 0 -52.5 20.5t-21.5 51.5q0 36 29.5 64t71.5 28t69 -31.5t27 -87.5q0 -105 -68.5 -173t-163.5 -76l11 61q57 6 94 40t37 85l-4 25q-13 -7 -29 -7z" />
    <glyph glyph-name="uni021B" unicode="&#x21b;" horiz-adv-x="727" 
d="M211 911l20 113h144l41 225h123l-41 -225h338l-21 -113h-338l-139 -798h348l-20 -113h-471l159 911h-143zM377 -369q-31 0 -52.5 20.5t-21.5 51.5q0 36 29 64t71 28q43 0 70 -31.5t27 -87.5q0 -105 -68.5 -173t-163.5 -76l11 61q57 6 94 40t37 85l-4 25q-13 -7 -29 -7z
" />
    <glyph glyph-name="afii57929" unicode="&#x2bc;" horiz-adv-x="327" 
d="M367 1270q-31 0 -52.5 20.5t-21.5 50.5q0 36 29 64.5t71 28.5t69 -31.5t27 -87.5q0 -105 -68.5 -173.5t-162.5 -76.5l10 61q57 6 94 40t37 85l-4 25q-12 -6 -28 -6z" />
    <glyph glyph-name="circumflex" unicode="&#x2c6;" horiz-adv-x="706" 
d="M829 1126h-118l-117 205h-31l-190 -205h-127l278 297h133z" />
    <glyph glyph-name="caron" unicode="&#x2c7;" horiz-adv-x="706" 
d="M754 1423h127l-279 -297h-133l-172 297h119l116 -204h31z" />
    <glyph glyph-name="breve" unicode="&#x2d8;" horiz-adv-x="675" 
d="M545 1147q-115 0 -188.5 66t-73.5 163v17h112v-11q0 -56 43 -94.5t117 -38.5q68 0 114.5 39t53.5 105h115q-12 -107 -96 -176.5t-197 -69.5z" />
    <glyph glyph-name="dotaccent" unicode="&#x2d9;" horiz-adv-x="307" 
d="M371 1239q-37 0 -60.5 25t-23.5 61q0 41 30 69.5t70 28.5q37 0 60.5 -25t23.5 -61q0 -41 -30 -69.5t-70 -28.5z" />
    <glyph glyph-name="ring" unicode="&#x2da;" horiz-adv-x="532" 
d="M348 1208q0 -43 30.5 -72.5t74.5 -29.5q48 0 85 37t37 86q0 43 -30 72.5t-74 29.5q-48 0 -85.5 -37t-37.5 -86zM256 1198q0 91 67 158t156 67q79 0 134 -54t55 -130q0 -91 -67.5 -158t-156.5 -67q-79 0 -133.5 54t-54.5 130z" />
    <glyph glyph-name="ogonek" unicode="&#x2db;" horiz-adv-x="471" 
d="M195 -461q-88 0 -143.5 45.5t-55.5 126.5q0 40 14.5 76.5t42 66.5t55.5 54t69.5 47t67.5 35.5t64 29.5l90 -20q-143 -72 -188 -103q-113 -78 -113 -169q0 -40 29.5 -63t83.5 -23q28 0 59 4.5t48 9.5l16 4l-17 -92q-52 -29 -122 -29z" />
    <glyph glyph-name="tilde" unicode="&#x2dc;" horiz-adv-x="737" 
d="M694 1178q-37 0 -68 13.5t-51.5 33t-39 39.5t-39.5 33.5t-43 13.5q-31 0 -56.5 -21t-29.5 -51l-9 -51h-102l10 53q14 75 70.5 123.5t132.5 48.5q45 0 82.5 -21t58.5 -45.5t48.5 -45.5t54.5 -21q31 0 55.5 20.5t28.5 51.5l8 51h104l-10 -53q-14 -75 -71.5 -123.5
t-133.5 -48.5z" />
    <glyph glyph-name="hungarumlaut" unicode="&#x2dd;" horiz-adv-x="716" 
d="M465 1423h143l-258 -297h-92zM762 1423h143l-258 -297h-92z" />
    <glyph glyph-name="uni0301" unicode="&#x301;" horiz-adv-x="0" 
d="M-348 1925h133l-236 -235h-81z" />
    <glyph glyph-name="uni030A" unicode="&#x30a;" horiz-adv-x="0" 
d="M-535 1546q0 -43 30.5 -72.5t74.5 -29.5q48 0 85.5 37t37.5 86q0 43 -30.5 72.5t-74.5 29.5q-48 0 -85.5 -37t-37.5 -86zM-627 1536q0 91 67.5 158t156.5 67q79 0 133.5 -54t54.5 -130q0 -91 -67 -158t-156 -67q-79 0 -134 54t-55 130z" />
    <glyph glyph-name="afii10023" unicode="&#x401;" horiz-adv-x="1249" 
d="M340 123h840l-23 -123h-973l252 1434h973l-20 -123h-840l-92 -523h686l-23 -122h-686zM750 1604q-37 0 -60.5 25t-23.5 61q0 41 30 69.5t70 28.5q37 0 60.5 -25t23.5 -61q0 -41 -30 -69.5t-70 -28.5zM1098 1604q-37 0 -60.5 25t-23.5 61q0 41 30 69.5t70 28.5
q37 0 60.5 -25t23.5 -61q0 -41 -30 -69.5t-70 -28.5z" />
    <glyph glyph-name="afii10051" unicode="&#x402;" horiz-adv-x="1576" 
d="M1319 -61l74 419q30 165 -59.5 272t-270.5 107h-361l-131 -737h-133l232 1311h-441l23 123h1065l-23 -123h-491l-80 -451h350q113 0 206.5 -38.5t153.5 -106t85.5 -163.5t5.5 -206l-92 -530h-433l23 123h297z" />
    <glyph glyph-name="afii10052" unicode="&#x403;" horiz-adv-x="1105" 
d="M549 1311l-232 -1311h-133l252 1434h901l-20 -123h-768zM1069 1884h154l-289 -297h-103z" />
    <glyph glyph-name="afii10053" unicode="&#x404;" horiz-adv-x="1638" 
d="M995 666h-641v-31q0 -246 154 -399.5t405 -153.5q93 0 177 23t144 60t110.5 82t82 90t54 82t31.5 60l10 23h137q-4 -11 -12 -30.5t-38.5 -76t-67.5 -108t-101 -114t-137 -107.5t-177.5 -76t-220.5 -31q-151 0 -279 50.5t-216.5 139.5t-138.5 213.5t-50 268.5
q0 181 66.5 339.5t177 268.5t257.5 173t306 63q127 0 236.5 -36t182.5 -91t127.5 -125.5t82 -135.5t35.5 -124h-136q-2 8 -6 22t-21.5 54.5t-41 77t-67.5 81.5t-97.5 77.5t-134 54.5t-174.5 22q-153 0 -288.5 -68.5t-230.5 -198t-126 -297.5h649z" />
    <glyph glyph-name="afii10054" unicode="&#x405;" horiz-adv-x="1300" 
d="M754 82q87 -3 161 21.5t121.5 66t74 94.5t26.5 109q0 66 -43.5 118.5t-113 89t-153 70t-167.5 70.5t-153.5 80.5t-113 110.5t-43.5 151q0 169 139 290.5t359 121.5q317 0 454 -200q54 -78 70 -179h-131q-1 5 -3.5 14.5t-14 36t-28 50.5t-49 53.5t-73.5 51t-104 36
t-138 14.5q-157 0 -252.5 -79.5t-95.5 -193.5q0 -65 43.5 -117.5t113 -89t153 -70.5t167.5 -72t153.5 -82t113 -111.5t43.5 -151.5q0 -83 -37.5 -160t-105 -136t-168.5 -94.5t-220 -35.5q-147 0 -258.5 43.5t-166.5 105t-88.5 123t-40.5 105.5l-7 43h133q0 -3 4 -17.5
t16.5 -42.5t32 -58t54.5 -62.5t79.5 -58t111 -42t145.5 -16.5z" />
    <glyph glyph-name="afii10055" unicode="&#x406;" horiz-adv-x="501" 
d="M569 1434l-252 -1434h-133l252 1434h133z" />
    <glyph glyph-name="afii10056" unicode="&#x407;" horiz-adv-x="501" 
d="M569 1434l-252 -1434h-133l252 1434h133zM350 1604q-37 0 -60.5 25t-23.5 61q0 41 30.5 69.5t70.5 28.5q37 0 60.5 -25t23.5 -61q0 -41 -30.5 -69.5t-70.5 -28.5zM698 1604q-37 0 -60.5 25t-23.5 61q0 41 30.5 69.5t70.5 28.5q37 0 60.5 -25t23.5 -61q0 -41 -30.5 -69.5
t-70.5 -28.5z" />
    <glyph glyph-name="afii10057" unicode="&#x408;" horiz-adv-x="1126" 
d="M1217 1434l-181 -1022q-38 -215 -169.5 -334t-325.5 -119q-93 0 -169.5 24t-126 60.5t-86.5 86.5t-55 95.5t-28 93.5l137 29q1 -6 2.5 -15.5t10.5 -37t22 -52.5t39 -56t59.5 -53t85 -37t113.5 -15q138 0 234.5 89.5t125.5 252.5l178 1010h134z" />
    <glyph glyph-name="afii10058" unicode="&#x409;" horiz-adv-x="2150" 
d="M1626 0h-622l231 1311h-471l-559 -1311h-133l620 1434h697l-91 -512h383q111 0 202 -34t149.5 -91.5t90 -132t31.5 -158.5q0 -217 -148.5 -361.5t-379.5 -144.5zM1681 799h-403l-119 -676h475q178 0 282.5 104.5t104.5 272.5q0 129 -91.5 214t-248.5 85z" />
    <glyph glyph-name="afii10059" unicode="&#x40a;" horiz-adv-x="2293" 
d="M1769 0h-643l129 737h-809l-129 -737h-133l252 1434h133l-100 -574h809l100 574h133l-100 -574h414q111 0 202 -32t149.5 -85.5t90 -122.5t31.5 -145q0 -99 -39.5 -186.5t-108 -151t-168 -100.5t-213.5 -37zM1825 737h-436l-107 -614h496q177 0 282 96.5t105 249.5
q0 113 -92 190.5t-248 77.5z" />
    <glyph glyph-name="afii10060" unicode="&#x40b;" horiz-adv-x="1576" 
d="M1524 346l-62 -346h-133l64 358q30 165 -59.5 272t-270.5 107h-361l-131 -737h-133l232 1311h-441l23 123h1065l-23 -123h-491l-80 -451h350q113 0 206.5 -38.5t153.5 -106t85.5 -163.5t5.5 -206z" />
    <glyph glyph-name="afii10061" unicode="&#x40c;" horiz-adv-x="1290" 
d="M1116 0l-354 666h-328l-117 -666h-133l252 1434h133l-112 -646h317l574 646h163l-624 -697l393 -737h-164zM1122 1884h154l-289 -297h-102z" />
    <glyph glyph-name="afii10062" unicode="&#x40e;" horiz-adv-x="1228" 
d="M453 543l-191 891h144l161 -768h297l443 768h143l-825 -1434h-144l310 543h-338zM868 1587q-134 0 -214.5 72.5t-80.5 181.5v23h111v-19q0 -69 49.5 -112t140.5 -43q80 0 136 46t65 128h113q-15 -126 -106.5 -201.5t-213.5 -75.5z" />
    <glyph glyph-name="afii10145" unicode="&#x40f;" horiz-adv-x="1464" 
d="M184 0l252 1434h133l-229 -1311h829l230 1311h133l-252 -1434h-481l-51 -287h-134l52 287h-482z" />
    <glyph glyph-name="afii10017" unicode="&#x410;" horiz-adv-x="1382" 
d="M1229 0l-39 471h-758l-207 -471h-133l631 1434h512l127 -1434h-133zM1112 1311h-307l-322 -717h697z" />
    <glyph glyph-name="afii10018" unicode="&#x411;" horiz-adv-x="1372" 
d="M870 758h-419l-111 -635h502q168 0 271.5 97.5t103.5 248.5q0 131 -96 210t-251 79zM473 881h408q210 0 339.5 -117.5t129.5 -288.5q0 -201 -148 -338t-371 -137h-647l252 1434h983l-20 -123h-850z" />
    <glyph glyph-name="afii10019" unicode="&#x412;" horiz-adv-x="1433" 
d="M963 676h-527l-96 -553h588q153 0 244.5 85t91.5 222q0 106 -79.5 176t-221.5 70zM1065 1311h-516l-90 -512h569q127 0 208 78.5t81 207.5q0 97 -67 161.5t-185 64.5zM436 1434h629q183 0 284 -99.5t101 -244.5q0 -205 -159 -313q-37 -24 -93 -46l-4 -10q8 -3 22 -9
t49 -29.5t61.5 -53.5t48.5 -83.5t22 -115.5q0 -184 -134 -307t-345 -123h-734z" />
    <glyph glyph-name="afii10020" unicode="&#x413;" horiz-adv-x="1105" 
d="M549 1311l-232 -1311h-133l252 1434h901l-20 -123h-768z" />
    <glyph glyph-name="afii10021" unicode="&#x414;" horiz-adv-x="1474" 
d="M1257 1434l97 -1311h164l-72 -410h-133l51 287h-1208l-52 -287h-133l72 410h164l559 1311h491zM848 1311l-508 -1188h881l-86 1188h-287z" />
    <glyph glyph-name="afii10022" unicode="&#x415;" horiz-adv-x="1249" 
d="M340 123h840l-23 -123h-973l252 1434h973l-20 -123h-840l-92 -523h686l-23 -122h-686z" />
    <glyph glyph-name="afii10024" unicode="&#x416;" horiz-adv-x="2007" 
d="M1823 0l-334 666h-297l-117 -666h-133l117 666h-293l-567 -666h-168l631 737l-359 697h162l328 -646h288l113 646h133l-113 -646h285l553 646h166l-604 -697l373 -737h-164z" />
    <glyph glyph-name="afii10025" unicode="&#x417;" horiz-adv-x="1310" 
d="M858 1475q118 0 212.5 -31.5t152 -84.5t88 -119t30.5 -138q0 -63 -17 -118t-43.5 -92t-59.5 -67t-65.5 -48t-59 -29.5t-43.5 -15.5l-17 -5l-2 -10q5 -1 13 -4.5t32 -15.5t45.5 -26.5t47.5 -40.5t45 -56t32 -73t13 -91q0 -91 -38.5 -172.5t-106.5 -143.5t-170 -98.5
t-222 -36.5q-84 0 -157 15t-125.5 40.5t-96 58.5t-72 69.5t-50 73t-33 69.5t-18.5 58.5t-9 40.5l-2 15h133q1 -7 2.5 -18t13 -44t28 -63t51 -66.5t78.5 -63t114.5 -44.5t154.5 -18q182 0 286.5 90t104.5 225q0 121 -101 200t-273 79h-168l20 123h246q160 0 258 83.5
t98 213.5q0 107 -93 181.5t-265 74.5q-66 0 -125 -16t-100.5 -41t-76.5 -56t-57 -61.5t-37 -55.5t-22 -41l-6 -16h-133q3 9 8.5 23.5t28 57t50 81.5t75 86t102.5 81t134 57.5t167 23.5z" />
    <glyph glyph-name="afii10026" unicode="&#x418;" horiz-adv-x="1484" 
d="M1368 1434h184l-252 -1434h-133l226 1280l-1024 -1280h-185l252 1434h133l-225 -1280z" />
    <glyph glyph-name="afii10027" unicode="&#x419;" horiz-adv-x="1484" 
d="M1368 1434h184l-252 -1434h-133l226 1280l-1024 -1280h-185l252 1434h133l-225 -1280zM1032 1587q-134 0 -214.5 72.5t-80.5 181.5v23h111v-19q0 -69 49.5 -112t140.5 -43q80 0 136 46t65 128h113q-15 -126 -106.5 -201.5t-213.5 -75.5z" />
    <glyph glyph-name="afii10028" unicode="&#x41a;" horiz-adv-x="1290" 
d="M1116 0l-354 666h-328l-117 -666h-133l252 1434h133l-112 -646h317l574 646h163l-624 -697l393 -737h-164z" />
    <glyph glyph-name="afii10029" unicode="&#x41b;" horiz-adv-x="1361" 
d="M1083 1311h-297l-569 -1311h-135l620 1434h502l117 -1434h-131z" />
    <glyph glyph-name="afii10030" unicode="&#x41c;" horiz-adv-x="1873" 
d="M1149 358h-297l-303 953l-232 -1311h-133l252 1434h215l303 -953h133l639 953h216l-252 -1434h-134l232 1311z" />
    <glyph glyph-name="afii10031" unicode="&#x41d;" horiz-adv-x="1464" 
d="M184 0l252 1434h133l-112 -646h829l113 646h133l-252 -1434h-133l117 666h-830l-117 -666h-133z" />
    <glyph glyph-name="afii10032" unicode="&#x41e;" horiz-adv-x="1679" 
d="M915 82q131 0 251.5 52.5t211.5 144.5t145 227.5t54 292.5q0 247 -155 400t-406 153q-131 0 -251.5 -52.5t-211.5 -144.5t-145 -227.5t-54 -292.5q0 -247 155 -400t406 -153zM907 -41q-151 0 -279.5 51t-217.5 140t-139 213t-50 268q0 180 66 338.5t176 268.5
t256.5 173.5t304.5 63.5q151 0 279.5 -51t217.5 -140t139 -213t50 -268q0 -180 -66 -338.5t-176 -268.5t-256.5 -173.5t-304.5 -63.5z" />
    <glyph glyph-name="afii10033" unicode="&#x41f;" horiz-adv-x="1464" 
d="M184 0l252 1434h1096l-252 -1434h-133l231 1311h-829l-232 -1311h-133z" />
    <glyph glyph-name="afii10034" unicode="&#x420;" horiz-adv-x="1392" 
d="M983 1311h-434l-119 -676h506q178 0 282.5 104.5t104.5 272.5q0 129 -91.5 214t-248.5 85zM436 1434h547q112 0 203 -34t149 -91.5t89.5 -132t31.5 -158.5q0 -218 -148 -362t-380 -144h-520l-91 -512h-133z" />
    <glyph glyph-name="afii10035" unicode="&#x421;" horiz-adv-x="1638" 
d="M1522 502h137q-4 -11 -12 -30.5t-38.5 -76t-67.5 -108t-101 -114t-137 -107.5t-177.5 -76t-220.5 -31q-151 0 -279 50.5t-216.5 139.5t-138.5 213.5t-50 268.5q0 181 66.5 339.5t177 268.5t257.5 173t306 63q127 0 236.5 -36t182.5 -91t127.5 -125.5t82 -135.5t35.5 -124
h-136q-2 8 -6 22t-21.5 54.5t-41 77t-67.5 81.5t-97.5 77.5t-134 54.5t-174.5 22q-131 0 -251 -52.5t-210.5 -144.5t-144.5 -227.5t-54 -292.5q0 -246 154 -399.5t405 -153.5q93 0 177 23t144 60t110.5 82t82 90t54 82t31.5 60z" />
    <glyph glyph-name="afii10036" unicode="&#x422;" horiz-adv-x="1198" 
d="M731 1311h-512l23 123h1157l-23 -123h-512l-231 -1311h-133z" />
    <glyph glyph-name="afii10037" unicode="&#x423;" horiz-adv-x="1228" 
d="M453 543l-191 891h144l161 -768h297l443 768h143l-825 -1434h-144l310 543h-338z" />
    <glyph glyph-name="afii10038" unicode="&#x424;" horiz-adv-x="1792" 
d="M987 1239q-147 0 -269.5 -47t-200 -125t-119.5 -174t-42 -197q0 -186 135.5 -319.5t378.5 -161.5l183 1024h-66zM1069 215q147 0 269.5 47t200 125t119.5 174t42 197q0 186 -135.5 319.5t-378.5 161.5l-182 -1024h65zM983 92l-29 -164h-133l29 164q-146 16 -265.5 69.5
t-198.5 133t-122 181t-43 214.5q0 136 59 259.5t162 214.5t249.5 144.5t312.5 53.5h69l29 164h133l-29 -164q146 -16 265.5 -69.5t198.5 -133t122 -181t43 -214.5q0 -136 -59 -259.5t-161.5 -214.5t-249 -144.5t-312.5 -53.5h-70z" />
    <glyph glyph-name="afii10039" unicode="&#x425;" horiz-adv-x="1300" 
d="M1260 0h-138l-243 655h-187l-473 -655h-147l516 717l-244 717h137l224 -656h184l452 656h150l-494 -717z" />
    <glyph glyph-name="afii10040" unicode="&#x426;" horiz-adv-x="1454" 
d="M1270 0h-1086l252 1434h135l-229 -1311h766l229 1311h133l-229 -1311h184l-73 -410h-133z" />
    <glyph glyph-name="afii10041" unicode="&#x427;" horiz-adv-x="1372" 
d="M1049 0l96 549q-6 -4 -17.5 -9.5t-48.5 -21t-76.5 -27t-100 -21t-120.5 -9.5q-249 0 -374 148.5t-84 387.5l75 437h133l-77 -449q-32 -183 64 -292t292 -109q92 0 180.5 24t130.5 48l43 24l135 754h134l-252 -1434h-133z" />
    <glyph glyph-name="afii10042" unicode="&#x428;" horiz-adv-x="2037" 
d="M2105 1434l-252 -1434h-1669l252 1434h135l-229 -1311h633l229 1311h133l-229 -1311h635l229 1311h133z" />
    <glyph glyph-name="afii10043" unicode="&#x429;" horiz-adv-x="2088" 
d="M1905 0h-1721l252 1434h135l-229 -1311h633l229 1311h133l-229 -1311h635l229 1311h133l-229 -1311h184l-73 -410h-134z" />
    <glyph glyph-name="afii10044" unicode="&#x42a;" horiz-adv-x="1484" 
d="M961 0h-633l231 1311h-328l23 123h459l-90 -512h393q111 0 202 -34t149.5 -91.5t90 -132t31.5 -158.5q0 -217 -148.5 -361.5t-379.5 -144.5zM1016 799h-414l-119 -676h486q178 0 282.5 104.5t104.5 272.5q0 129 -91.5 214t-248.5 85z" />
    <glyph glyph-name="afii10045" unicode="&#x42b;" horiz-adv-x="1751" 
d="M797 0h-613l252 1434h133l-90 -512h373q111 0 202 -34t149.5 -91.5t90 -132t31.5 -158.5q0 -217 -148.5 -361.5t-379.5 -144.5zM852 799h-393l-119 -676h465q178 0 282.5 104.5t104.5 272.5q0 129 -91.5 214t-248.5 85zM1819 1434l-252 -1434h-133l252 1434h133z" />
    <glyph glyph-name="afii10046" unicode="&#x42c;" horiz-adv-x="1361" 
d="M838 0h-654l252 1434h133l-90 -512h414q111 0 202 -34t149.5 -91.5t90 -132t31.5 -158.5q0 -217 -148.5 -361.5t-379.5 -144.5zM893 799h-434l-119 -676h506q178 0 282.5 104.5t104.5 272.5q0 129 -91.5 214t-248.5 85z" />
    <glyph glyph-name="afii10047" unicode="&#x42d;" horiz-adv-x="1628" 
d="M371 963h-138q4 11 12 29.5t39 71.5t67.5 101.5t100 107.5t135 101.5t174 71.5t214.5 29q151 0 279 -50.5t216.5 -139.5t138.5 -213.5t50 -268.5q0 -181 -66.5 -339.5t-177 -268.5t-257.5 -173t-306 -63q-134 0 -247.5 39t-187 99t-127 135t-78.5 142.5t-30 127.5h135
q1 -9 4.5 -24t20 -58.5t39.5 -83.5t66.5 -88.5t98 -83t138 -58.5t182.5 -24q156 0 293 71t233 205t124 308h-658l23 122h645v11q0 246 -154 399.5t-405 153.5q-71 0 -136.5 -13.5t-116.5 -36t-97 -51.5t-80 -61t-62.5 -64.5t-47 -61.5t-31.5 -51.5t-19 -36.5z" />
    <glyph glyph-name="afii10048" unicode="&#x42e;" horiz-adv-x="2099" 
d="M457 788h260q34 199 148.5 357.5t274.5 244t335 85.5q187 0 337 -87t234 -240.5t84 -344.5q0 -179 -65.5 -338.5t-173 -269t-247 -173t-286.5 -63.5q-186 0 -335.5 85t-235 239t-85.5 348v35h-268l-117 -666h-133l252 1434h133zM1466 1352q-121 0 -234.5 -52.5
t-201.5 -144t-141 -228t-53 -292.5q0 -244 150 -398.5t380 -154.5q121 0 234.5 52.5t201.5 144t141.5 228t53.5 292.5q0 244 -150 398.5t-381 154.5z" />
    <glyph glyph-name="afii10049" unicode="&#x42f;" horiz-adv-x="1402" 
d="M778 676h424l113 635h-524q-175 0 -271 -97.5t-96 -259.5q0 -124 89 -201t265 -77zM133 0l447 584q-129 39 -209 134.5t-80 237.5q0 208 142 343t366 135h671l-251 -1434h-136l99 553h-469l-426 -553h-154z" />
    <glyph glyph-name="afii10065" unicode="&#x430;" 
d="M975 0l31 172q-47 -73 -149 -132.5t-232 -59.5q-190 0 -318.5 134.5t-128.5 336.5q0 126 47 238t123.5 189t174.5 121.5t200 44.5q86 0 158 -26t118 -67t74 -83.5t39 -83.5l43 240h123l-180 -1024h-123zM639 92q76 0 151.5 34.5t136.5 94t99.5 148.5t38.5 190
q0 162 -98.5 267.5t-239.5 105.5q-76 0 -151.5 -34.5t-136.5 -94t-99.5 -148.5t-38.5 -190q0 -162 98.5 -267.5t239.5 -105.5z" />
    <glyph glyph-name="afii10066" unicode="&#x431;" horiz-adv-x="1146" 
d="M1243 1321h-325q-416 0 -553 -543q5 7 14.5 18t43 39t72 50t101.5 39.5t131 17.5q185 0 310.5 -126.5t125.5 -311.5q0 -142 -73.5 -263.5t-195.5 -191t-261 -69.5q-212 0 -323 124t-111 340q0 156 29 301.5t87.5 270.5t140.5 218.5t195.5 146.5t245.5 53h367zM651 92
q95 0 184.5 53t147 148t57.5 205q0 138 -92.5 234.5t-238.5 96.5q-95 0 -184.5 -52.5t-147.5 -147.5t-58 -205q0 -138 93 -235t239 -97z" />
    <glyph glyph-name="afii10067" unicode="&#x432;" horiz-adv-x="1085" 
d="M707 481h-336l-64 -368h400q102 0 160.5 56.5t58.5 149.5q0 72 -54.5 117t-164.5 45zM778 911h-332l-55 -317h389q88 0 136.5 47.5t48.5 128.5q0 64 -46 102.5t-141 38.5zM344 1024h455q139 0 213.5 -69.5t74.5 -172.5q0 -158 -127 -227q-21 -12 -63 -25q6 -2 16.5 -6
t36.5 -21.5t46 -39.5t36.5 -61.5t16.5 -86.5q0 -136 -97 -225.5t-256 -89.5h-532z" />
    <glyph glyph-name="afii10068" unicode="&#x433;" horiz-adv-x="849" 
d="M164 0l180 1024h686l-20 -113h-564l-159 -911h-123z" />
    <glyph glyph-name="afii10069" unicode="&#x434;" horiz-adv-x="1095" 
d="M938 1024l86 -911h113l-64 -359h-112l43 246h-881l-43 -246h-113l64 359h112l406 911h389zM623 911l-357 -798h635l-74 798h-204z" />
    <glyph glyph-name="afii10070" unicode="&#x435;" horiz-adv-x="1208" 
d="M178 453q0 114 42.5 221t115.5 189t178.5 131.5t224.5 49.5q207 0 339 -134.5t132 -336.5q0 -24 -2.5 -49.5t-5.5 -39.5l-2 -13h-899v-10q0 -162 100.5 -265.5t262.5 -103.5q53 0 103.5 12.5t88 32.5t70 44t54.5 47.5t38 43.5t24 32l7 13h122q-3 -7 -9.5 -19t-29.5 -47
t-50 -67t-72 -71t-94.5 -67t-118 -47t-142.5 -19q-209 0 -343 133t-134 340zM315 584h766q0 60 -22.5 120t-63.5 111.5t-110 84t-152 32.5q-155 0 -271.5 -104.5t-146.5 -243.5z" />
    <glyph glyph-name="afii10072" unicode="&#x436;" horiz-adv-x="1566" 
d="M934 481l-84 -481h-123l84 481h-201l-442 -481h-148l494 532l-283 492h144l252 -430h204l76 430h123l-76 -430h203l404 430h145l-455 -492l305 -532h-141l-274 481h-207z" />
    <glyph glyph-name="afii10073" unicode="&#x437;" horiz-adv-x="1003" 
d="M631 1044q175 0 279 -78t104 -192q0 -44 -12.5 -82t-33 -63.5t-45 -46t-49 -32.5t-45 -20t-33.5 -11l-12 -3q7 -2 19 -7t42 -24.5t52.5 -43t41.5 -64.5t19 -88q0 -133 -104 -221t-287 -88q-87 0 -158 17.5t-115.5 45.5t-78.5 61.5t-51 67.5t-27 62t-12 46l-2 17h119
q1 -4 2.5 -11.5t10 -29t21.5 -40.5t38 -43t57 -41t82 -28.5t110 -11.5q128 0 200.5 59t72.5 142q0 79 -74.5 128.5t-208.5 49.5h-92l20 113h174q113 0 174.5 48.5t61.5 129.5q0 69 -68.5 119.5t-197.5 50.5q-63 0 -115.5 -18t-83 -43.5t-52 -51t-28.5 -43.5l-8 -18h-123
l5.5 16.5t18.5 40t34.5 56.5t54 60t75 56.5t100.5 40t128 16.5z" />
    <glyph glyph-name="afii10074" unicode="&#x438;" horiz-adv-x="1187" 
d="M164 0l180 1024h123l-150 -850l744 850h143l-180 -1024h-123l150 850l-744 -850h-143z" />
    <glyph glyph-name="afii10075" unicode="&#x439;" horiz-adv-x="1187" 
d="M164 0l180 1024h123l-150 -850l744 850h143l-180 -1024h-123l150 850l-744 -850h-143zM807 1167q-126 0 -200.5 68.5t-74.5 161.5v16h113v-10q0 -58 46 -95.5t130 -37.5q72 0 118 38.5t54 104.5h113q-15 -114 -97.5 -180t-201.5 -66z" />
    <glyph glyph-name="afii10076" unicode="&#x43a;" horiz-adv-x="1064" 
d="M371 481l-84 -481h-123l180 1024h123l-76 -430h244l414 430h145l-465 -492l315 -532h-141l-285 481h-247z" />
    <glyph glyph-name="afii10077" unicode="&#x43b;" horiz-adv-x="1054" 
d="M176 0h-125l467 1024h400l106 -1024h-121l-96 911h-215z" />
    <glyph glyph-name="afii10078" unicode="&#x43c;" horiz-adv-x="1433" 
d="M862 246h-205l-215 635l-155 -881h-123l180 1024h180l224 -655h61l453 655h188l-180 -1024h-123l156 881z" />
    <glyph glyph-name="afii10079" unicode="&#x43d;" horiz-adv-x="1187" 
d="M164 0l180 1024h123l-80 -451h614l80 451h123l-180 -1024h-123l82 461h-614l-82 -461h-123z" />
    <glyph glyph-name="afii10080" unicode="&#x43e;" horiz-adv-x="1228" 
d="M662 -20q-214 0 -349 134.5t-135 338.5q0 126 46.5 237t124.5 188t181.5 121.5t214.5 44.5q214 0 349 -134.5t135 -338.5q0 -126 -46.5 -237t-124.5 -188t-181.5 -121.5t-214.5 -44.5zM301 461q0 -161 102.5 -265t264.5 -104q85 0 165 35t140 96.5t96.5 150t36.5 189.5
q0 161 -102.5 265t-264.5 104q-85 0 -165 -35t-140 -96.5t-96.5 -150t-36.5 -189.5z" />
    <glyph glyph-name="afii10081" unicode="&#x43f;" horiz-adv-x="1177" 
d="M164 0l180 1024h850l-180 -1024h-123l160 911h-605l-159 -911h-123z" />
    <glyph glyph-name="afii10082" unicode="&#x440;" 
d="M465 1024l-31 -172q47 73 149 132.5t232 59.5q190 0 318.5 -134.5t128.5 -336.5q0 -126 -47 -238t-123.5 -189t-174.5 -121.5t-200 -44.5q-86 0 -158 26t-118 67t-74 83.5t-39 83.5l-111 -629h-123l248 1413h123zM801 932q-76 0 -151.5 -34.5t-136.5 -94t-99.5 -148.5
t-38.5 -190q0 -162 98.5 -267.5t239.5 -105.5q76 0 151.5 34.5t136.5 94t99.5 148.5t38.5 190q0 162 -98.5 267.5t-239.5 105.5z" />
    <glyph glyph-name="afii10083" unicode="&#x441;" horiz-adv-x="1167" 
d="M1038 358h123q-3 -8 -8.5 -21.5t-27 -53t-47 -75t-70 -79t-94.5 -75t-121 -53t-150 -21.5q-197 0 -331 134.5t-134 338.5q0 126 47.5 238t125.5 188t177.5 120.5t202.5 44.5q81 0 150 -19.5t114 -51.5t80.5 -70t55 -76t32 -70t15.5 -51l4 -20h-123q-1 5 -4 14t-15 34.5
t-27 48.5t-42.5 51.5t-60 49t-81 34.5t-104.5 14q-78 0 -154.5 -35t-136 -95.5t-96.5 -150t-37 -190.5q0 -161 99.5 -265t246.5 -104q78 0 147 27.5t112 66.5t74.5 78t44.5 66z" />
    <glyph glyph-name="afii10084" unicode="&#x442;" horiz-adv-x="880" 
d="M150 911l20 113h860l-20 -113h-369l-160 -911h-123l160 911h-368z" />
    <glyph glyph-name="afii10085" unicode="&#x443;" horiz-adv-x="1034" 
d="M307 0l-96 1024h135l76 -911h192l426 911h134l-670 -1413h-133l192 389h-256z" />
    <glyph glyph-name="afii10086" unicode="&#x444;" horiz-adv-x="1351" 
d="M748 922q-194 0 -327.5 -131.5t-133.5 -315.5q0 -149 95 -251.5t245 -121.5l143 820h-22zM983 1434l-70 -400q200 -25 321.5 -157.5t121.5 -319.5q0 -156 -80.5 -287t-216 -205.5t-293.5 -74.5h-37l-67 -379h-123l67 379q-199 25 -320.5 157.5t-121.5 319.5
q0 156 80.5 287t216 205.5t293.5 74.5h37l69 400h123zM772 102q194 0 327.5 131.5t133.5 315.5q0 149 -95 251.5t-245 121.5l-143 -820h22z" />
    <glyph glyph-name="afii10087" unicode="&#x445;" horiz-adv-x="1003" 
d="M768 522l215 -522h-141l-183 471h-131l-350 -471h-147l399 522l-199 502h142l168 -440h133l323 440h146z" />
    <glyph glyph-name="afii10088" unicode="&#x446;" horiz-adv-x="1177" 
d="M164 0l180 1024h123l-160 -911h574l159 911h123l-159 -911h153l-63 -359h-123l43 246h-850z" />
    <glyph glyph-name="afii10089" unicode="&#x447;" horiz-adv-x="1105" 
d="M819 0l68 375q-13 -8 -36 -19t-95 -30t-144 -19q-199 0 -298 109.5t-68 281.5l59 326h123l-59 -334q-49 -270 258 -270q74 0 143.5 17t101.5 33l33 17l94 537h123l-180 -1024h-123z" />
    <glyph glyph-name="afii10090" unicode="&#x448;" horiz-adv-x="1617" 
d="M1051 1024l-160 -911h461l159 911h123l-180 -1024h-1290l180 1024h123l-160 -911h461l160 911h123z" />
    <glyph glyph-name="afii10091" unicode="&#x449;" horiz-adv-x="1648" 
d="M1485 0h-1321l180 1024h123l-160 -911h461l160 911h123l-160 -911h461l159 911h123l-159 -911h153l-63 -359h-123z" />
    <glyph glyph-name="afii10092" unicode="&#x44a;" horiz-adv-x="1085" 
d="M473 655h254q164 0 261 -85.5t97 -213.5q0 -151 -110 -253.5t-273 -102.5h-466l159 911h-235l20 113h359zM727 543h-272l-76 -430h328q111 0 183.5 66.5t72.5 168.5q0 81 -63 138t-173 57z" />
    <glyph glyph-name="afii10093" unicode="&#x44b;" horiz-adv-x="1372" 
d="M635 543h-252l-76 -430h307q111 0 183.5 66.5t72.5 168.5q0 81 -62.5 138t-172.5 57zM401 655h234q164 0 261 -85.5t97 -213.5q0 -151 -110 -253.5t-273 -102.5h-446l180 1024h123zM1085 0l181 1020h123l-181 -1020h-123z" />
    <glyph glyph-name="afii10094" unicode="&#x44c;" horiz-adv-x="1034" 
d="M676 543h-293l-76 -430h348q111 0 183.5 66.5t72.5 168.5q0 81 -62.5 138t-172.5 57zM401 655h275q164 0 261 -85.5t97 -213.5q0 -151 -110 -253.5t-273 -102.5h-487l180 1024h123z" />
    <glyph glyph-name="afii10095" unicode="&#x44d;" horiz-adv-x="1157" 
d="M573 573h461q-4 157 -103.5 258t-242.5 101q-55 0 -105 -13.5t-86.5 -35.5t-68 -48t-52.5 -52t-35.5 -48t-20.5 -35l-7 -14h-123q3 7 8 20t26 50.5t45.5 71t67.5 75t91.5 71t117.5 50t146 20.5q197 0 331 -134.5t134 -338.5q0 -126 -47.5 -238t-125.5 -188t-177.5 -120.5
t-202.5 -44.5q-84 0 -154.5 21t-116 54t-81.5 73.5t-55.5 81t-32 73.5t-16.5 54l-3 21h123q2 -11 7.5 -29t30.5 -63.5t59.5 -81t99.5 -64t145 -28.5q141 0 261 103t153 266h-471z" />
    <glyph glyph-name="afii10096" unicode="&#x44e;" horiz-adv-x="1566" 
d="M385 563h184q24 139 105 250t194.5 171t237.5 60q200 0 331.5 -135.5t131.5 -337.5q0 -125 -46.5 -236.5t-122.5 -188.5t-175 -121.5t-203 -44.5q-200 0 -331.5 134.5t-131.5 336.5h-192l-80 -451h-123l180 1024h123zM682 461q0 -159 99 -264t247 -105q78 0 153.5 35.5
t134 96t94.5 150t36 189.5q0 159 -99 264t-247 105q-78 0 -153.5 -35.5t-134 -96t-94.5 -150t-36 -189.5z" />
    <glyph glyph-name="afii10097" unicode="&#x44f;" horiz-adv-x="1105" 
d="M571 461h330l78 450h-354q-115 0 -194 -70.5t-79 -170.5q0 -86 60 -147.5t159 -61.5zM113 0l288 389q-69 25 -120.5 98t-51.5 170q0 152 116.5 259.5t285.5 107.5h491l-180 -1024h-123l62 348h-379l-246 -348h-143z" />
    <glyph glyph-name="afii10071" unicode="&#x451;" horiz-adv-x="1208" 
d="M178 453q0 114 42.5 221t115.5 189t178.5 131.5t224.5 49.5q207 0 339 -134.5t132 -336.5q0 -24 -2.5 -49.5t-5.5 -39.5l-2 -13h-899v-10q0 -162 100.5 -265.5t262.5 -103.5q53 0 103.5 12.5t88 32.5t70 44t54.5 47.5t38 43.5t24 32l7 13h122q-3 -7 -9.5 -19t-29.5 -47
t-50 -67t-72 -71t-94.5 -67t-118 -47t-142.5 -19q-209 0 -343 133t-134 340zM315 584h766q0 60 -22.5 120t-63.5 111.5t-110 84t-152 32.5q-155 0 -271.5 -104.5t-146.5 -243.5zM606 1188q-37 0 -60.5 25t-23.5 61q0 41 30.5 69.5t70.5 28.5q37 0 60.5 -25t23.5 -61
q0 -41 -30.5 -69.5t-70.5 -28.5zM954 1188q-37 0 -60.5 25t-23.5 61q0 41 30.5 69.5t70.5 28.5q37 0 60.5 -25t23.5 -61q0 -41 -30.5 -69.5t-70.5 -28.5z" />
    <glyph glyph-name="afii10099" unicode="&#x452;" horiz-adv-x="1177" 
d="M891 -276l125 704q27 151 -39.5 245.5t-218.5 94.5q-137 0 -244 -93.5t-133 -242.5l-76 -432h-123l191 1085h-144l21 113h143l41 236h123l-41 -236h266l-20 -113h-266l-64 -368q4 7 12.5 18t39 39t67 50t98.5 39.5t131 17.5q203 0 297.5 -130.5t57.5 -344.5l-140 -795
h-432l21 113h307z" />
    <glyph glyph-name="afii10100" unicode="&#x453;" horiz-adv-x="849" 
d="M164 0l180 1024h686l-20 -113h-564l-159 -911h-123zM852 1464h154l-289 -297h-103z" />
    <glyph glyph-name="afii10101" unicode="&#x454;" horiz-adv-x="1167" 
d="M760 461h-459q0 -161 99.5 -265t246.5 -104q78 0 147 27.5t112 66.5t74.5 78t44.5 66l13 28h123q-3 -8 -8.5 -21.5t-27 -53t-47 -75t-70 -79t-94.5 -75t-121 -53t-150 -21.5q-197 0 -331 134.5t-134 338.5q0 126 47.5 238t125.5 188t177.5 120.5t202.5 44.5
q81 0 150 -19.5t114 -51.5t80.5 -70t55 -76t32 -70t15.5 -51l4 -20h-123q-1 5 -4 14t-15 34.5t-27 48.5t-42.5 51.5t-60 49t-81 34.5t-104.5 14q-90 0 -175.5 -44t-149.5 -127t-87 -188h467z" />
    <glyph glyph-name="afii10102" unicode="&#x455;" horiz-adv-x="1044" 
d="M145 307h131l3 -12t12 -30.5t24.5 -42.5t42 -45t61 -43t86 -30t113.5 -12q122 0 190.5 51.5t68.5 132.5q0 45 -33.5 80t-87.5 57.5t-119 43.5t-130.5 45t-119.5 55t-87.5 80.5t-33.5 114.5q0 121 99 206.5t270 85.5q79 0 144.5 -16.5t108.5 -42.5t76 -57.5t50.5 -63
t29 -57.5t14.5 -43l3 -16h-133q-2 7 -6.5 19.5t-26.5 44.5t-52 56t-87.5 44t-128.5 20q-113 0 -175.5 -49t-62.5 -117q0 -45 33.5 -80t87.5 -57.5t119 -43.5t130 -45.5t119 -55t87.5 -80t33.5 -113.5q0 -135 -104 -223t-285 -88q-67 0 -125.5 11t-101 30t-78.5 43.5t-60 52
t-43 54.5t-29 51.5t-17 43.5t-9 30z" />
    <glyph glyph-name="afii10103" unicode="&#x456;" horiz-adv-x="450" 
d="M164 0l180 1024h123l-180 -1024h-123zM453 1239q-37 0 -60.5 25t-23.5 61q0 41 30 69.5t70 28.5q37 0 60.5 -25t23.5 -61q0 -41 -30 -69.5t-70 -28.5z" />
    <glyph glyph-name="afii10104" unicode="&#x457;" horiz-adv-x="450" 
d="M164 0l180 1024h123l-180 -1024h-123zM268 1239q-37 0 -60.5 25t-23.5 61q0 41 30.5 69.5t70.5 28.5q37 0 60.5 -25t23.5 -61q0 -41 -30.5 -69.5t-70.5 -28.5zM616 1239q-37 0 -60.5 25t-23.5 61q0 41 30.5 69.5t70.5 28.5q37 0 60.5 -25t23.5 -61q0 -41 -30.5 -69.5
t-70.5 -28.5z" />
    <glyph glyph-name="afii10105" unicode="&#x458;" horiz-adv-x="450" 
d="M469 1024l-250 -1413h-420l21 113h297l229 1300h123zM455 1239q-37 0 -60.5 25t-23.5 61q0 41 30 69.5t70 28.5q37 0 60.5 -25t23.5 -61q0 -41 -30 -69.5t-70 -28.5z" />
    <glyph glyph-name="afii10106" unicode="&#x459;" horiz-adv-x="1597" 
d="M985 655h254q164 0 261 -85.5t97 -213.5q0 -151 -110 -253.5t-273 -102.5h-466l159 911h-317l-416 -911h-123l467 1024h533zM1239 543h-272l-76 -430h328q111 0 183.5 66.5t72.5 168.5q0 81 -63 138t-173 57z" />
    <glyph glyph-name="afii10107" unicode="&#x45a;" horiz-adv-x="1730" 
d="M1112 614h260q165 0 262 -79t97 -199q0 -143 -110 -239.5t-273 -96.5h-467l88 502h-594l-88 -502h-123l180 1024h123l-72 -410h594l72 410h123zM1372 502h-280l-68 -389h328q111 0 183.5 60t72.5 155q0 73 -62.5 123.5t-173.5 50.5z" />
    <glyph glyph-name="afii10108" unicode="&#x45b;" horiz-adv-x="1177" 
d="M434 1434h123l-41 -236h266l-20 -113h-266l-64 -368q4 7 12.5 18t39 39t67 50t98.5 39.5t131 17.5q203 0 297.5 -130.5t57.5 -344.5l-72 -406h-123l76 428q27 151 -39.5 245.5t-218.5 94.5q-137 0 -244 -93.5t-133 -242.5l-76 -432h-123l191 1085h-144l21 113h143z" />
    <glyph glyph-name="afii10109" unicode="&#x45c;" horiz-adv-x="1064" 
d="M371 481l-84 -481h-123l180 1024h123l-76 -430h244l414 430h145l-465 -492l315 -532h-141l-285 481h-247zM913 1446h154l-289 -297h-102z" />
    <glyph glyph-name="afii10110" unicode="&#x45e;" horiz-adv-x="1034" 
d="M307 0l-96 1024h135l76 -911h192l426 911h134l-670 -1413h-133l192 389h-256zM694 1167q-126 0 -200 68.5t-74 161.5v16h112v-10q0 -58 46 -95.5t131 -37.5q72 0 118 38.5t54 104.5h112q-15 -114 -97.5 -180t-201.5 -66z" />
    <glyph glyph-name="afii10193" unicode="&#x45f;" horiz-adv-x="1177" 
d="M164 0l180 1024h123l-160 -911h604l160 911h123l-180 -1024h-359l-43 -246h-123l43 246h-368z" />
    <glyph glyph-name="afii10050" unicode="&#x490;" horiz-adv-x="1105" 
d="M549 1311l-232 -1311h-133l252 1434h768l37 204h133l-57 -327h-768z" />
    <glyph glyph-name="afii10098" unicode="&#x491;" horiz-adv-x="870" 
d="M164 0l180 1024h563l33 184h123l-53 -297h-564l-159 -911h-123z" />
    <glyph glyph-name="uni1E9E" unicode="&#x1e9e;" horiz-adv-x="1433" 
d="M901 758h-72l25 133l440 409h-432q-172 0 -263 -81t-122 -254l-170 -965h-133l174 985q38 215 173 332t364 117h610l-20 -125l-457 -418l-2 -10q202 -38 304.5 -142.5t102.5 -261.5q0 -204 -150.5 -340.5t-398.5 -136.5h-219l23 123h203q187 0 298 97t111 241
q0 58 -24 110t-70.5 94.5t-123 67.5t-171.5 25z" />
    <glyph glyph-name="endash" unicode="&#x2013;" horiz-adv-x="1361" 
d="M1341 492h-1116l21 112h1116z" />
    <glyph glyph-name="emdash" unicode="&#x2014;" horiz-adv-x="1751" 
d="M1731 492h-1506l21 112h1505z" />
    <glyph glyph-name="quoteleft" unicode="&#x2018;" horiz-adv-x="399" 
d="M416 1229q30 0 51.5 -25t21.5 -57q0 -44 -32.5 -73.5t-73.5 -29.5q-45 0 -72.5 30.5t-27.5 92.5q0 127 69.5 199t179.5 88l-12 -61q-145 -35 -145 -144l4 -26q17 6 37 6z" />
    <glyph glyph-name="quoteright" unicode="&#x2019;" horiz-adv-x="399" 
d="M399 1270q-30 0 -51.5 25t-21.5 57q0 44 32 73t74 29q45 0 72.5 -30.5t27.5 -92.5q0 -127 -69.5 -199t-179.5 -88l12 62q145 35 145 143l-4 27q-17 -6 -37 -6z" />
    <glyph glyph-name="quotesinglbase" unicode="&#x201a;" horiz-adv-x="399" 
d="M195 -20q-30 0 -52 25t-22 56q0 44 32.5 73.5t73.5 29.5q45 0 73 -30.5t28 -92.5q0 -126 -69.5 -198.5t-180.5 -88.5l12 62q146 35 146 143l-5 27q-16 -6 -36 -6z" />
    <glyph glyph-name="quotedblleft" unicode="&#x201c;" horiz-adv-x="686" 
d="M702 1229q30 0 52 -25t22 -57q0 -44 -32.5 -73.5t-73.5 -29.5q-45 0 -73 30.5t-28 92.5q0 126 69.5 198.5t180.5 88.5l-12 -61q-145 -35 -145 -144l4 -26q16 6 36 6zM416 1229q30 0 51.5 -25t21.5 -57q0 -44 -32.5 -73.5t-73.5 -29.5q-45 0 -72.5 30.5t-27.5 92.5
q0 127 69.5 199t179.5 88l-12 -61q-145 -35 -145 -144l4 -26q17 6 37 6z" />
    <glyph glyph-name="quotedblright" unicode="&#x201d;" horiz-adv-x="686" 
d="M399 1270q-30 0 -51.5 25t-21.5 57q0 44 32 73t74 29q45 0 72.5 -30.5t27.5 -92.5q0 -127 -69.5 -199t-179.5 -88l12 62q145 35 145 143l-4 27q-17 -6 -37 -6zM686 1270q-30 0 -52 25t-22 57q0 44 32.5 73t74.5 29q45 0 72.5 -30.5t27.5 -92.5q0 -126 -69.5 -198.5
t-180.5 -88.5l13 62q145 35 145 143l-4 27q-17 -6 -37 -6z" />
    <glyph glyph-name="quotedblbase" unicode="&#x201e;" horiz-adv-x="686" 
d="M195 -20q-30 0 -52 25t-22 56q0 44 32.5 73.5t73.5 29.5q45 0 73 -30.5t28 -92.5q0 -126 -69.5 -198.5t-180.5 -88.5l12 62q146 35 146 143l-5 27q-16 -6 -36 -6zM481 -20q-30 0 -51.5 24.5t-21.5 56.5q0 44 32.5 73.5t73.5 29.5q45 0 72.5 -30.5t27.5 -92.5
q0 -127 -69.5 -199t-179.5 -88l12 62q145 35 145 143l-4 27q-17 -6 -37 -6z" />
    <glyph glyph-name="dagger" unicode="&#x2020;" horiz-adv-x="942" 
d="M408 0l159 901h-307l23 123h307l72 410h122l-71 -410h307l-23 -123h-307l-160 -901h-122z" />
    <glyph glyph-name="daggerdbl" unicode="&#x2021;" horiz-adv-x="942" 
d="M489 451l93 532h-308l23 123h307l58 328h122l-57 -328h307l-22 -123h-307l-93 -532h308l-23 -123h-307l-58 -328h-122l57 328h-307l22 123h307z" />
    <glyph glyph-name="bullet" unicode="&#x2022;" horiz-adv-x="757" 
d="M475 440q-50 0 -85.5 36.5t-35.5 84.5q0 59 45.5 102.5t102.5 43.5q50 0 85.5 -36.5t35.5 -84.5q0 -59 -45.5 -102.5t-102.5 -43.5z" />
    <glyph glyph-name="ellipsis" unicode="&#x2026;" horiz-adv-x="1269" 
d="M221 -31q-43 0 -69.5 26.5t-26.5 65.5q0 51 32 82t79 31q43 0 69.5 -26.5t26.5 -65.5q0 -51 -32 -82t-79 -31zM662 -31q-43 0 -70 26.5t-27 65.5q0 51 32 82t79 31q43 0 69.5 -26.5t26.5 -65.5q0 -51 -31.5 -82t-78.5 -31zM1102 -31q-43 0 -69.5 26.5t-26.5 65.5
q0 51 31.5 82t78.5 31q43 0 69.5 -26.5t26.5 -65.5q0 -51 -31.5 -82t-78.5 -31z" />
    <glyph glyph-name="perthousand" unicode="&#x2030;" horiz-adv-x="2314" 
d="M1409 1434h133l-1112 -1434h-133zM653 1343q-96 0 -165.5 -72.5t-69.5 -183.5q0 -86 54.5 -142t143.5 -56q96 0 166 72.5t70 183.5q0 86 -55 142t-144 56zM602 778q-130 0 -217.5 90.5t-87.5 216.5q0 153 112.5 261t258.5 108q130 0 217.5 -90.5t87.5 -216.5
q0 -153 -112.5 -261t-258.5 -108zM1180 90q96 0 165.5 72.5t69.5 183.5q0 86 -54.5 142.5t-143.5 56.5q-96 0 -166 -72.5t-70 -183.5q0 -86 55 -142.5t144 -56.5zM1231 655q130 0 217.5 -90.5t87.5 -216.5q0 -153 -112.5 -260.5t-258.5 -107.5q-130 0 -217.5 90.5
t-87.5 216.5q0 153 112.5 260.5t258.5 107.5zM1937 90q96 0 166 72.5t70 183.5q0 86 -55 142.5t-144 56.5q-96 0 -165.5 -72.5t-69.5 -183.5q0 -86 54.5 -142.5t143.5 -56.5zM1989 655q130 0 217.5 -90.5t87.5 -216.5q0 -153 -112.5 -260.5t-258.5 -107.5
q-130 0 -217.5 90.5t-87.5 216.5q0 153 112.5 260.5t258.5 107.5z" />
    <glyph glyph-name="guilsinglleft" unicode="&#x2039;" horiz-adv-x="727" 
d="M664 111l-95 -80l-387 481l555 481l72 -86l-463 -401z" />
    <glyph glyph-name="guilsinglright" unicode="&#x203a;" horiz-adv-x="727" 
d="M276 913l95 80l387 -481l-555 -481l-72 86l463 401z" />
    <glyph glyph-name="fraction" unicode="&#x2044;" horiz-adv-x="245" 
d="M883 1434l-1133 -1434h-123l1133 1434h123z" />
    <glyph glyph-name="zerosuperior" unicode="&#x2070;" horiz-adv-x="757" 
d="M561 1034q91 0 158 85.5t67 226.5q0 94 -45.5 147t-124.5 53q-91 0 -158 -85t-67 -226q0 -95 45.5 -148t124.5 -53zM551 922q-124 0 -203.5 86t-79.5 223q0 96 30.5 178.5t81.5 136t115 83.5t132 30q124 0 203 -86t79 -223q0 -96 -30.5 -178.5t-81 -136t-114.5 -83.5
t-132 -30z" />
    <glyph glyph-name="foursuperior" unicode="&#x2074;" horiz-adv-x="655" 
d="M657 942h-122l26 154h-358l20 112l352 430h134l-353 -430h226l24 144h123l-24 -144h102l-21 -112h-102z" />
    <glyph glyph-name="fivesuperior" unicode="&#x2075;" horiz-adv-x="706" 
d="M406 1229l-103 20l88 389h461l-18 -112h-349l-39 -164q5 5 15.5 11.5t49 18t83.5 11.5q107 0 173.5 -63t66.5 -152q0 -118 -80.5 -192t-204.5 -74q-53 0 -98 12t-74 31t-51.5 42t-34.5 45.5t-19.5 41.5t-9.5 31l-2 12h133q1 -4 3 -11t13 -25t26.5 -31.5t47 -24.5
t70.5 -11q73 0 115.5 40t42.5 93q0 55 -42 89t-118 34q-40 0 -76 -15t-53 -31z" />
    <glyph glyph-name="sixsuperior" unicode="&#x2076;" horiz-adv-x="675" 
d="M514 922q-126 0 -203.5 65.5t-77.5 163.5q0 133 150 279l221 208h158l-201 -186l-69 -43l-3 -10q39 14 70 14q112 0 181 -70.5t69 -160.5q0 -107 -85 -183.5t-210 -76.5zM522 1034q72 0 118 42t46 98q0 55 -43.5 90.5t-122.5 35.5q-72 0 -118 -41.5t-46 -97.5
q0 -55 43.5 -91t122.5 -36z" />
    <glyph glyph-name="sevensuperior" unicode="&#x2077;" horiz-adv-x="583" 
d="M307 1526l21 112h522l-21 -112l-409 -584h-133l409 584h-389z" />
    <glyph glyph-name="eightsuperior" unicode="&#x2078;" horiz-adv-x="757" 
d="M578 922q-141 0 -229.5 56t-88.5 146q0 44 17.5 79.5t42.5 55t50 32.5t42 17l18 5l2 10q-3 2 -9 5.5t-21 15.5t-26 26.5t-20.5 38t-9.5 49.5q0 84 72 142.5t194 58.5q138 0 211.5 -56t73.5 -135q0 -38 -14.5 -69.5t-34.5 -50t-40.5 -31.5t-35.5 -18l-14 -5l-2 -10
q5 -2 12.5 -5.5t27 -17.5t34.5 -30t27.5 -44t12.5 -59q0 -84 -78.5 -145t-213.5 -61zM479 1448q0 -35 37.5 -60.5t116.5 -25.5q66 0 98.5 27t32.5 71q0 35 -37.5 60.5t-116.5 25.5q-66 0 -98.5 -27t-32.5 -71zM750 1133q0 42 -50.5 74t-152.5 32q-83 0 -124.5 -28t-41.5 -70
t51 -74.5t152 -32.5q82 0 124 28.5t42 70.5z" />
    <glyph glyph-name="ninesuperior" unicode="&#x2079;" horiz-adv-x="675" 
d="M590 1659q126 0 203 -65.5t77 -163.5q0 -134 -149 -279l-221 -209h-158l201 186l69 43l2 11q-38 -15 -69 -15q-112 0 -181 71t-69 161q0 107 85 183.5t210 76.5zM582 1546q-72 0 -118 -41.5t-46 -97.5q0 -55 43.5 -91t122.5 -36q72 0 118 41.5t46 97.5q0 55 -43.5 91
t-122.5 36z" />
    <glyph glyph-name="zeroinferior" unicode="&#x2080;" horiz-adv-x="757" 
d="M371 -113q91 0 158 85.5t67 226.5q0 94 -45.5 147t-124.5 53q-91 0 -158 -85t-67 -226q0 -95 45.5 -148t124.5 -53zM360 -225q-124 0 -203 86t-79 223q0 96 30.5 178.5t81 136t114.5 83.5t132 30q124 0 203.5 -86t79.5 -223q0 -96 -30.5 -178.5t-81.5 -136t-115 -83.5
t-132 -30z" />
    <glyph glyph-name="oneinferior" unicode="&#x2081;" horiz-adv-x="696" 
d="M98 -205l21 113h205l77 450l-202 -112l22 133l215 113h113l-103 -584h195l-20 -113h-523z" />
    <glyph glyph-name="twoinferior" unicode="&#x2082;" horiz-adv-x="716" 
d="M276 -92h381l-20 -113h-574l21 113l192 102q188 99 253 152t65 125q0 49 -38.5 80.5t-111.5 31.5q-36 0 -67 -12.5t-49.5 -30.5t-32.5 -36.5t-19 -31.5l-6 -12h-125q3 10 9 25.5t31 56.5t56 72t87 56.5t121 25.5q125 0 196.5 -62.5t71.5 -152.5q0 -106 -104.5 -197
t-336.5 -192z" />
    <glyph glyph-name="threeinferior" unicode="&#x2083;" horiz-adv-x="706" 
d="M688 379l-244 -154q105 -13 162.5 -70t57.5 -139q0 -101 -79 -171t-202 -70q-53 0 -98 12t-74 31t-51.5 41.5t-34.5 45.5t-19.5 42t-9.5 31l-2 12h133q1 -4 3 -11t12.5 -25t26.5 -31.5t47.5 -24.5t72.5 -11q70 0 111 35.5t41 93.5q0 45 -39.5 76t-124.5 31h-125l18 102
l244 154h-317l18 113h492z" />
    <glyph glyph-name="fourinferior" unicode="&#x2084;" horiz-adv-x="655" 
d="M498 -205h-123l26 154h-358l20 112l353 431h133l-352 -431h225l24 144h123l-24 -144h102l-20 -112h-103z" />
    <glyph glyph-name="fiveinferior" unicode="&#x2085;" horiz-adv-x="706" 
d="M236 82l-103 20l88 390h461l-18 -113h-349l-39 -164q5 5 15.5 11.5t49 18t83.5 11.5q107 0 173.5 -63t66.5 -152q0 -118 -80.5 -192t-204.5 -74q-53 0 -98 12t-74 31t-51.5 41.5t-34.5 45.5t-19.5 42t-9.5 31l-2 12h133q1 -4 3 -11t13 -25t26.5 -31.5t47 -24.5t70.5 -11
q73 0 115.5 40t42.5 93q0 55 -42 89t-118 34q-25 0 -49.5 -6.5t-41 -15.5t-29.5 -17.5t-19 -15.5z" />
    <glyph glyph-name="sixinferior" unicode="&#x2086;" horiz-adv-x="675" 
d="M360 -225q-126 0 -203 65.5t-77 163.5q0 134 149 279l222 209h157l-200 -187l-70 -43l-2 -10q39 14 70 14q112 0 180.5 -70.5t68.5 -160.5q0 -107 -85 -183.5t-210 -76.5zM369 -113q72 0 117.5 41.5t45.5 98.5q0 55 -43 91t-122 36q-72 0 -118 -42t-46 -98
q0 -55 43.5 -91t122.5 -36z" />
    <glyph glyph-name="seveninferior" unicode="&#x2087;" horiz-adv-x="583" 
d="M125 379l20 113h523l-21 -113l-409 -584h-134l410 584h-389z" />
    <glyph glyph-name="eightinferior" unicode="&#x2088;" horiz-adv-x="757" 
d="M410 -225q-141 0 -229.5 56t-88.5 146q0 44 17.5 79.5t42.5 55t50 32.5t42 18l18 4l2 10q-3 2 -9 5.5t-21 15.5t-26 26.5t-20.5 38t-9.5 49.5q0 84 72 142.5t194 58.5q138 0 211.5 -56t73.5 -134q0 -38 -14.5 -70t-34.5 -50.5t-40.5 -31.5t-35.5 -18l-14 -5l-2 -10
q5 -2 12.5 -5.5t27 -17t34.5 -30t27.5 -44t12.5 -58.5q0 -84 -78.5 -145.5t-213.5 -61.5zM311 301q0 -35 37.5 -60.5t116.5 -25.5q66 0 98.5 27t32.5 71q0 35 -37.5 60.5t-116.5 25.5q-66 0 -98.5 -27t-32.5 -71zM582 -14q0 42 -50.5 74t-152.5 32q-83 0 -124.5 -28
t-41.5 -70t51 -74.5t152 -32.5q82 0 124 28.5t42 70.5z" />
    <glyph glyph-name="nineinferior" unicode="&#x2089;" horiz-adv-x="675" 
d="M414 512q126 0 203 -65.5t77 -163.5q0 -134 -149 -279l-221 -209h-158l201 187l69 43l2 10q-38 -15 -69 -15q-112 0 -181 71t-69 161q0 107 85 183.5t210 76.5zM406 399q-72 0 -118 -41.5t-46 -97.5q0 -55 43.5 -91t122.5 -36q72 0 117.5 41.5t45.5 97.5q0 55 -43 91
t-122 36z" />
    <glyph glyph-name="Euro" unicode="&#x20ac;" horiz-adv-x="1720" 
d="M1606 502h137q-4 -11 -12 -30.5t-38.5 -76t-67.5 -108t-101 -114t-137 -107.5t-177.5 -76t-220.5 -31q-271 0 -454 152t-222 401h-161l20 113h133v6q0 81 17 178h-117l18 113h129q86 249 296.5 401t463.5 152q127 0 236.5 -36t182.5 -91t127.5 -125.5t82 -135.5
t35.5 -124h-136q-2 8 -6 22t-21.5 54.5t-41 77t-67.5 81.5t-97.5 77.5t-134 54.5t-174.5 22q-201 0 -368 -116t-241 -314h594l-18 -113h-608q-19 -87 -19 -174v-10h594l-20 -113h-563q37 -197 183.5 -313.5t364.5 -116.5q93 0 177 23t144 60t110.5 82t82 90t54 82t31.5 60z
" />
    <glyph glyph-name="uni20B4" unicode="&#x20b4;" horiz-adv-x="1310" 
d="M276 922h842q4 2 10 7t22 23t28 38.5t22 54.5t10 71q0 98 -93.5 167t-272.5 69q-61 0 -115.5 -13t-93 -34t-70.5 -46t-52.5 -50t-34.5 -46t-20 -34l-5 -13h-136q2 8 7 20.5t25.5 50t45.5 71.5t70 75.5t96.5 71t127.5 50t161 20.5q119 0 215 -29.5t155.5 -80t91 -114
t31.5 -133.5q0 -35 -7.5 -68t-17.5 -55.5t-20.5 -39.5t-17.5 -25l-8 -8h90l-21 -123h-1085zM1290 512h-841l-10 -7.5t-22 -22.5t-28.5 -39t-22.5 -55t-10 -71q0 -98 94 -166.5t273 -68.5q61 0 115.5 13t93 33.5t70.5 46t52.5 50.5t34.5 45.5t19 33.5l6 13h135q-2 -7 -7 -20
t-25.5 -50.5t-45.5 -71t-69.5 -75t-96 -71t-127.5 -50t-161 -20.5q-119 0 -215 29.5t-156 79.5t-91.5 113.5t-31.5 133.5q0 56 18 105t36 70l18 22h-90l20 123h1086z" />
    <glyph glyph-name="uni20BD" unicode="&#x20bd;" horiz-adv-x="1382" 
d="M983 1311h-375l-114 -656h446q174 0 277.5 104.5t103.5 260.5q0 125 -91 208t-247 83zM498 1434h485q212 0 341.5 -115.5t129.5 -294.5q0 -210 -148 -351t-378 -141h-457l-31 -184h523l-23 -123h-522l-39 -225h-133l39 225h-174l22 123h174l31 184h-174l22 123h174z" />
    <glyph glyph-name="afii61352" unicode="&#x2116;" horiz-adv-x="2170" 
d="M1300 0h-194l-559 1300l-230 -1300h-133l252 1434h195l559 -1301l229 1301h133zM2177 502h-553l23 123h553zM1989 911q91 0 159 70t68 170q0 83 -52.5 136.5t-135.5 53.5q-90 0 -158 -70t-68 -169q0 -83 52.5 -137t134.5 -54zM1982 799q-132 0 -218.5 84.5t-86.5 210.5
q0 151 107.5 255.5t251.5 104.5q132 0 218.5 -84.5t86.5 -210.5q0 -151 -107.5 -255.5t-251.5 -104.5z" />
    <glyph glyph-name="trademark" unicode="&#x2122;" horiz-adv-x="1525" 
d="M1444 1321l-174 -369h-164l-174 369v-543h-113v656h174l174 -369h41l174 369h174v-656h-112v543zM164 1321v113h584v-113h-236v-543h-113v543h-235z" />
    <glyph glyph-name="arrowleft" unicode="&#x2190;" horiz-adv-x="1843" 
d="M666 1055h30v-307h1086v-103h-1086v-307h-30l-359 348v21z" />
    <glyph glyph-name="arrowup" unicode="&#x2191;" horiz-adv-x="1843" 
d="M655 1075v31l349 358h20l348 -358v-31h-307v-1075h-102v1075h-308z" />
    <glyph glyph-name="arrowright" unicode="&#x2192;" horiz-adv-x="1843" 
d="M1423 1055h31l358 -348v-21l-358 -348h-31v307h-1085v103h1085v307z" />
    <glyph glyph-name="arrowdown" unicode="&#x2193;" horiz-adv-x="1843" 
d="M655 328v30h308v1076h102v-1076h307v-30l-348 -359h-20z" />
    <glyph glyph-name="uni2196" unicode="&#x2196;" horiz-adv-x="1843" 
d="M563 737h-31v512l21 21h512v-31l-215 -215l778 -778l-72 -72l-778 778z" />
    <glyph glyph-name="uni2197" unicode="&#x2197;" horiz-adv-x="1843" 
d="M1556 737h-30l-215 215l-779 -778l-71 72l778 778l-215 215v31h512l20 -21v-512z" />
    <glyph glyph-name="uni2198" unicode="&#x2198;" horiz-adv-x="1843" 
d="M1526 707h30v-512l-20 -21h-512v31l215 215l-778 778l71 72l779 -778z" />
    <glyph glyph-name="uni2199" unicode="&#x2199;" horiz-adv-x="1843" 
d="M532 707h31l215 -215l778 778l72 -72l-778 -778l215 -215v-31h-512l-21 21v512z" />
    <glyph glyph-name="minus" unicode="&#x2212;" horiz-adv-x="1024" 
d="M1024 522h-778v123h778v-123z" />
    <glyph glyph-name="approxequal" unicode="&#x2248;" horiz-adv-x="1024" 
d="M788 584q-45 0 -85 16t-69 38t-55.5 44.5t-56.5 38.5t-61 16q-54 0 -83.5 -29t-29.5 -83v-31h-123v31q0 100 64.5 162.5t171.5 62.5q45 0 85 -16t69 -38.5t55.5 -45t56.5 -38.5t61 -16q54 0 83.5 29.5t29.5 83.5v31h123v-31q0 -100 -64.5 -162.5t-171.5 -62.5zM788 246
q-45 0 -85 16t-69 38t-55.5 44.5t-56.5 38.5t-61 16q-54 0 -83.5 -29t-29.5 -83v-31h-123v31q0 100 64.5 162.5t171.5 62.5q45 0 85 -16t69 -38.5t55.5 -45t56.5 -38.5t61 -16q54 0 83.5 29.5t29.5 83.5v31h123v-31q0 -100 -64.5 -162.5t-171.5 -62.5z" />
    <glyph glyph-name="notequal" unicode="&#x2260;" horiz-adv-x="1024" 
d="M399 0h-123l164 297h-184v113h246l143 266h-389v112h451l163 297h123l-164 -297h185v-112h-246l-143 -266h389v-113h-451z" />
    <glyph glyph-name="lessequal" unicode="&#x2264;" horiz-adv-x="1024" 
d="M236 707l778 358v-123l-656 -297v-10l656 -297v-123l-778 358v134zM236 338v113l778 -359v-112z" />
    <glyph glyph-name="greaterequal" unicode="&#x2265;" horiz-adv-x="1024" 
d="M225 1065l779 -358v-134l-779 -358v123l656 297v10l-656 297v123zM1004 451v-113l-779 -358v112z" />
    <glyph glyph-name="commaaccent" unicode="&#xf6c3;" horiz-adv-x="327" 
d="M100 -369q-31 0 -52 20.5t-21 51.5q0 36 29 64t71 28t69 -31.5t27 -87.5q0 -105 -68 -173t-163 -76l10 61q57 6 94 40t37 85l-4 25q-13 -7 -29 -7z" />
    <glyph glyph-name="cyrBreve" unicode="&#xf6d1;" horiz-adv-x="737" 
d="M635 1577q-134 0 -214.5 72.5t-80.5 181.5v22h111v-18q0 -69 49.5 -112.5t140.5 -43.5q80 0 136 46t65 128h112q-15 -126 -106 -201t-213 -75z" />
    <glyph glyph-name="cyrbreve" unicode="&#xf6d4;" horiz-adv-x="696" 
d="M557 1147q-126 0 -200 68t-74 161v17h112v-11q0 -58 46 -95.5t130 -37.5q72 0 118 39t54 105h113q-15 -114 -97.5 -180t-201.5 -66z" />
    <glyph glyph-name="zero.oldstyle" unicode="&#xf730;" horiz-adv-x="1228" 
d="M301 461q0 -162 102.5 -265.5t264.5 -103.5q85 0 164 34.5t140 95t97.5 150t36.5 191.5q0 162 -102.5 265.5t-264.5 103.5q-85 0 -164 -34.5t-140 -95t-97.5 -150t-36.5 -191.5zM178 453q0 126 47 237.5t125.5 188t182.5 121t215 44.5q212 0 346.5 -134t134.5 -339
q0 -126 -47 -237.5t-125.5 -188t-182.5 -121t-215 -44.5q-212 0 -346.5 134t-134.5 339z" />
    <glyph glyph-name="one.oldstyle" unicode="&#xf731;" horiz-adv-x="583" 
d="M420 0h-123l154 870l-263 -204l25 143l274 215h113z" />
    <glyph glyph-name="two.oldstyle" unicode="&#xf732;" horiz-adv-x="1013" 
d="M662 279l-349 -166h666l-21 -113h-880l20 113l502 256q172 87 250 161t78 183q0 93 -77 156t-216 63q-49 0 -93 -12t-75 -31t-57 -42t-42.5 -45.5t-28 -41.5t-15.5 -31l-5 -12h-135q2 7 6.5 18.5t21.5 45.5t38.5 65t60 69t82.5 65t108.5 45.5t137.5 18.5q193 0 302.5 -93
t109.5 -230q0 -80 -25 -144t-78.5 -116.5t-119.5 -93t-166 -88.5z" />
    <glyph glyph-name="three.oldstyle" unicode="&#xf733;" horiz-adv-x="1064" 
d="M995 33q0 -188 -134.5 -315.5t-338.5 -127.5q-69 0 -129.5 13.5t-104.5 36t-80.5 51.5t-60.5 61.5t-42.5 65t-29 61.5t-16.5 51.5t-8 35.5l-2 14h133q0 -3 2.5 -16t11.5 -39.5t23 -54.5t40.5 -58.5t61 -54t88 -39t117.5 -15.5q152 0 249 90t97 232q0 111 -83.5 186.5
t-237.5 75.5h-156l21 112h217q139 0 227 80.5t88 204.5q0 106 -78 177t-211 71q-51 0 -97.5 -12t-79.5 -31t-61 -42t-46 -45.5t-30.5 -41.5t-17.5 -31l-5 -12h-127q3 7 8 18.5t24.5 45.5t42.5 65t63 69t85.5 65t110 45.5t135.5 18.5q187 0 298 -103.5t111 -250.5
q0 -59 -15 -110.5t-39 -86t-53 -62.5t-58 -44t-53 -26.5t-39 -14.5l-15 -4l-4 -10q8 -3 21.5 -10t47.5 -32.5t60 -56.5t47.5 -85t21.5 -115z" />
    <glyph glyph-name="four.oldstyle" unicode="&#xf734;" horiz-adv-x="1044" 
d="M780 -389h-123l70 389h-676l21 113l671 911h144l-672 -911h533l71 409h123l-72 -409h215l-20 -113h-215z" />
    <glyph glyph-name="five.oldstyle" unicode="&#xf735;" horiz-adv-x="1105" 
d="M305 236h-110l188 788h758l-19 -113h-645l-115 -487q4 4 11.5 10.5t34.5 23.5t57.5 30t79.5 23.5t102 10.5q183 0 302.5 -118.5t119.5 -303.5q0 -109 -40.5 -204.5t-109.5 -162t-161.5 -105t-194.5 -38.5q-69 0 -129 13.5t-102.5 37t-77.5 53.5t-57.5 63t-39.5 66t-25 63
t-13.5 53.5t-6.5 36.5l-1 14h133q0 -6 1.5 -16.5t9.5 -40t20.5 -57t38 -60.5t58 -56.5t84.5 -40t115 -16.5q156 0 265.5 109.5t109.5 277.5q0 139 -89.5 229.5t-233.5 90.5q-60 0 -115 -18t-90.5 -43.5t-62 -51t-38.5 -43.5z" />
    <glyph glyph-name="six.oldstyle" unicode="&#xf736;" horiz-adv-x="1187" 
d="M178 420q0 70 18.5 138t43.5 117.5t69.5 106.5t75.5 90.5t82 84.5l18 18l457 459h156l-531 -519l-4 -10q8 5 22.5 13t61.5 21t96 13q192 0 317.5 -131t125.5 -315q0 -108 -43.5 -205.5t-116.5 -167.5t-173 -111.5t-208 -41.5q-205 0 -336 127.5t-131 312.5zM653 92
q79 0 153.5 31t131.5 84.5t91 131.5t34 167q0 139 -99 236.5t-253 97.5q-79 0 -153.5 -31t-131.5 -84.5t-91 -131.5t-34 -167q0 -139 99 -236.5t253 -97.5z" />
    <glyph glyph-name="seven.oldstyle" unicode="&#xf737;" horiz-adv-x="921" 
d="M150 911l20 113h881l-21 -113l-792 -1300h-134l793 1300h-747z" />
    <glyph glyph-name="eight.oldstyle" unicode="&#xf738;" horiz-adv-x="1228" 
d="M684 -20q-135 0 -251.5 45t-192.5 137t-76 213q0 71 20 131t52.5 100.5t71.5 72.5t78 50t71.5 29.5t52.5 15.5l20 4v10q-7 3 -19.5 9.5t-44 30t-55.5 52.5t-43.5 78t-19.5 105q0 161 130.5 276t336.5 115q210 0 331.5 -104t121.5 -250q0 -59 -16 -109.5t-42 -85.5
t-57 -63t-62.5 -44.5t-57.5 -28t-42 -15.5l-16 -4v-11q9 -3 25 -10t56 -34t71 -60.5t56 -92t25 -126.5q0 -86 -37 -164.5t-103 -139t-166 -96.5t-218 -36zM471 1071q0 -104 90 -178t250 -74q150 0 242 80.5t92 190.5q0 104 -90 177.5t-250 73.5q-151 0 -242.5 -80
t-91.5 -190zM678 92q174 0 290.5 95.5t116.5 220.5q0 117 -107.5 208t-283.5 91q-174 0 -290.5 -95.5t-116.5 -220.5q0 -117 107.5 -208t283.5 -91z" />
    <glyph glyph-name="nine.oldstyle" unicode="&#xf739;" horiz-adv-x="1187" 
d="M1188 604q0 -70 -18.5 -138t-43.5 -117.5t-69.5 -106.5t-75.5 -90.5t-82 -84.5l-18 -18l-437 -438h-155l510 498l4 10q-8 -5 -22.5 -13t-61.5 -21t-96 -13q-192 0 -317.5 131t-125.5 315q0 108 43.5 205.5t116.5 167.5t173 111.5t208 41.5q205 0 336 -127.5t131 -312.5z
M713 932q-79 0 -153.5 -31t-131.5 -84.5t-91 -131.5t-34 -167q0 -139 99 -236.5t253 -97.5q79 0 153.5 31t131.5 84.5t91 131.5t34 167q0 139 -99 236.5t-253 97.5z" />
    <glyph glyph-name="adieresis.sc" 
d="M1042 512l-59 594h-297l-268 -594h624zM1053 389h-686l-172 -389h-134l555 1229h482l121 -1229h-134zM709 1444q-37 0 -60.5 25t-23.5 61q0 41 30 69.5t70 28.5q37 0 60.5 -25t23.5 -61q0 -41 -30 -69.5t-70 -28.5zM1057 1444q-37 0 -60.5 25t-23.5 61q0 41 30 69.5
t70 28.5q37 0 60.5 -25t23.5 -61q0 -41 -30 -69.5t-70 -28.5z" />
    <glyph glyph-name="edieresis.sc" horiz-adv-x="1146" 
d="M340 123h737l-22 -123h-871l217 1229h871l-23 -123h-737l-74 -420h615l-23 -123h-614zM688 1454q-37 0 -60.5 25t-23.5 61q0 41 30.5 69.5t70.5 28.5q37 0 60 -25t23 -61q0 -41 -30 -69.5t-70 -28.5zM1036 1454q-37 0 -60.5 25t-23.5 61q0 41 30.5 69.5t70.5 28.5
q37 0 60.5 -25t23.5 -61q0 -41 -30.5 -69.5t-70.5 -28.5z" />
    <glyph glyph-name="Imacron.alt" horiz-adv-x="993" 
d="M334 1311l20 123h789l-21 -123h-327l-209 -1188h327l-22 -123h-789l23 123h328l209 1188h-328zM532 1679l21 113h522l-20 -113h-523z" />
    <glyph glyph-name="Idotaccent.alt" horiz-adv-x="993" 
d="M334 1311l20 123h789l-21 -123h-327l-209 -1188h327l-22 -123h-789l23 123h328l209 1188h-328zM780 1649q-37 0 -60.5 25t-23.5 61q0 41 30.5 69.5t70.5 28.5q37 0 60.5 -25t23.5 -61q0 -41 -30.5 -69.5t-70.5 -28.5z" />
    <glyph glyph-name="Idieresis.alt" horiz-adv-x="993" 
d="M334 1311l20 123h789l-21 -123h-327l-209 -1188h327l-22 -123h-789l23 123h328l209 1188h-328zM596 1649q-37 0 -60.5 25t-23.5 61q0 41 30 69.5t70 28.5q37 0 60.5 -25t23.5 -61q0 -41 -30 -69.5t-70 -28.5zM944 1649q-37 0 -60.5 25t-23.5 61q0 41 30.5 69.5t70.5 28.5
q37 0 60 -25t23 -61q0 -41 -30 -69.5t-70 -28.5z" />
    <glyph glyph-name="Icircumflex.alt" horiz-adv-x="993" 
d="M334 1311l20 123h789l-21 -123h-327l-209 -1188h327l-22 -123h-789l23 123h328l209 1188h-328zM1065 1618h-119l-117 205h-30l-191 -205h-127l279 297h133z" />
    <glyph glyph-name="Iacute.alt" horiz-adv-x="993" 
d="M334 1311l20 123h789l-21 -123h-327l-209 -1188h327l-22 -123h-789l23 123h328l209 1188h-328zM934 1915h153l-288 -297h-103z" />
    <glyph glyph-name="Igrave.alt" horiz-adv-x="993" 
d="M334 1311l20 123h789l-21 -123h-327l-209 -1188h327l-22 -123h-789l23 123h328l209 1188h-328zM532 1915h154l131 -297h-102z" />
    <glyph glyph-name="lcommaaccent.alt" horiz-adv-x="450" 
d="M539 1434l-252 -1434h-123l252 1434h123zM162 -369q-31 0 -52.5 20.5t-21.5 51.5q0 36 29 64t71 28q43 0 70 -31.5t27 -87.5q0 -105 -68.5 -173t-163.5 -76l10 61q57 6 94.5 40t37.5 85q0 5 -0.5 9.5t-1.5 7t-1.5 4.5t-1.5 3v1q-12 -7 -28 -7z" />
    <glyph glyph-name="lcaron.alt" horiz-adv-x="552" 
d="M539 1434l-252 -1434h-123l252 1434h123zM709 1290q-31 0 -52.5 20.5t-21.5 51.5q0 36 29 64t71 28t69 -31.5t27 -87.5q0 -105 -68.5 -173.5t-162.5 -76.5l10 62q57 6 94 40t37 85l-4 24q-12 -6 -28 -6z" />
    <glyph glyph-name="lacute.alt" horiz-adv-x="450" 
d="M539 1434l-252 -1434h-123l252 1434h123zM688 1915h154l-289 -297h-102z" />
    <glyph glyph-name="atilde.alt" horiz-adv-x="1146" 
d="M297 270q0 -83 68.5 -130.5t191.5 -47.5q157 0 275 109.5t137 279.5h-420q-121 0 -186.5 -58t-65.5 -153zM532 -20q-162 0 -260 76t-98 208q0 143 103.5 236.5t279.5 93.5h430l8 43q24 131 -45.5 213t-216.5 82q-67 0 -125.5 -22t-94 -54t-61 -63.5t-36.5 -53.5l-10 -22
h-125q2 7 7 18.5t23 45.5t40.5 65t61 69t82.5 65t107.5 45.5t134.5 18.5q212 0 311.5 -117t67.5 -298l-108 -629h-125l28 160q-5 -7 -15.5 -19.5t-46.5 -43.5t-76.5 -54.5t-106 -43t-134.5 -19.5zM924 1229q-37 0 -68 13.5t-52 33t-39.5 39.5t-39.5 33.5t-43 13.5
q-31 0 -56.5 -21t-29.5 -51l-8 -51h-103l11 53q14 75 70 123.5t132 48.5q45 0 82.5 -21t58.5 -45.5t48.5 -45.5t54.5 -21q31 0 55.5 20.5t28.5 51.5l8 51h105l-11 -53q-14 -75 -71 -123.5t-133 -48.5z" />
    <glyph glyph-name="aring.alt" horiz-adv-x="1146" 
d="M297 270q0 -83 68.5 -130.5t191.5 -47.5q157 0 275 109.5t137 279.5h-420q-121 0 -186.5 -58t-65.5 -153zM532 -20q-162 0 -260 76t-98 208q0 143 103.5 236.5t279.5 93.5h430l8 43q24 131 -45.5 213t-216.5 82q-67 0 -125.5 -22t-94 -54t-61 -63.5t-36.5 -53.5l-10 -22
h-125q2 7 7 18.5t23 45.5t40.5 65t61 69t82.5 65t107.5 45.5t134.5 18.5q212 0 311.5 -117t67.5 -298l-108 -629h-125l28 160q-5 -7 -15.5 -19.5t-46.5 -43.5t-76.5 -54.5t-106 -43t-134.5 -19.5zM705 1393q0 -43 30 -73t74 -30q48 0 85.5 37t37.5 86q0 43 -30.5 73
t-74.5 30q-48 0 -85 -37t-37 -86zM612 1382q0 91 67.5 158.5t156.5 67.5q79 0 133.5 -54.5t54.5 -130.5q0 -91 -67 -158t-156 -67q-79 0 -134 54t-55 130z" />
    <glyph glyph-name="aogonek.alt" horiz-adv-x="1146" 
d="M803 -461q-88 0 -143.5 45.5t-55.5 126.5q0 169 279 293l28 156q-5 -7 -15.5 -19.5t-46.5 -43.5t-76.5 -54.5t-106 -43t-134.5 -19.5q-162 0 -260 76t-98 208q0 143 103.5 236.5t279.5 93.5h430l8 43q24 131 -45.5 213t-216.5 82q-67 0 -125.5 -22t-94 -54t-61 -63.5
t-36.5 -53.5l-10 -22h-125q2 7 7 18.5t23 45.5t40.5 65t61 69t82.5 65t107.5 45.5t134.5 18.5q212 0 311.5 -117t67.5 -298l-108 -629q-143 -72 -188 -103q-113 -78 -113 -169q0 -40 29.5 -63t82.5 -23q28 0 58.5 4.5t47.5 9.5l17 4l-16 -92q-53 -29 -123 -29zM297 270
q0 -83 68.5 -130.5t191.5 -47.5q157 0 275 109.5t137 279.5h-420q-121 0 -186.5 -58t-65.5 -153z" />
    <glyph glyph-name="amacron.alt" horiz-adv-x="1146" 
d="M297 270q0 -83 68.5 -130.5t191.5 -47.5q157 0 275 109.5t137 279.5h-420q-121 0 -186.5 -58t-65.5 -153zM532 -20q-162 0 -260 76t-98 208q0 143 103.5 236.5t279.5 93.5h430l8 43q24 131 -45.5 213t-216.5 82q-67 0 -125.5 -22t-94 -54t-61 -63.5t-36.5 -53.5l-10 -22
h-125q2 7 7 18.5t23 45.5t40.5 65t61 69t82.5 65t107.5 45.5t134.5 18.5q212 0 311.5 -117t67.5 -298l-108 -629h-125l28 160q-5 -7 -15.5 -19.5t-46.5 -43.5t-76.5 -54.5t-106 -43t-134.5 -19.5zM532 1280l21 113h522l-20 -113h-523z" />
    <glyph glyph-name="adieresis.alt" horiz-adv-x="1146" 
d="M297 270q0 -83 68.5 -130.5t191.5 -47.5q157 0 275 109.5t137 279.5h-420q-121 0 -186.5 -58t-65.5 -153zM532 -20q-162 0 -260 76t-98 208q0 143 103.5 236.5t279.5 93.5h430l8 43q24 131 -45.5 213t-216.5 82q-67 0 -125.5 -22t-94 -54t-61 -63.5t-36.5 -53.5l-10 -22
h-125q2 7 7 18.5t23 45.5t40.5 65t61 69t82.5 65t107.5 45.5t134.5 18.5q212 0 311.5 -117t67.5 -298l-108 -629h-125l28 160q-5 -7 -15.5 -19.5t-46.5 -43.5t-76.5 -54.5t-106 -43t-134.5 -19.5zM616 1260q-37 0 -60.5 25t-23.5 61q0 41 30.5 69.5t70.5 28.5q37 0 60.5 -25
t23.5 -61q0 -41 -30.5 -69.5t-70.5 -28.5zM965 1260q-37 0 -60.5 25t-23.5 61q0 41 30 69.5t70 28.5q37 0 60.5 -25t23.5 -61q0 -41 -30 -69.5t-70 -28.5z" />
    <glyph glyph-name="acircumflex.alt" horiz-adv-x="1146" 
d="M297 270q0 -83 68.5 -130.5t191.5 -47.5q157 0 275 109.5t137 279.5h-420q-121 0 -186.5 -58t-65.5 -153zM532 -20q-162 0 -260 76t-98 208q0 143 103.5 236.5t279.5 93.5h430l8 43q24 131 -45.5 213t-216.5 82q-67 0 -125.5 -22t-94 -54t-61 -63.5t-36.5 -53.5l-10 -22
h-125q2 7 7 18.5t23 45.5t40.5 65t61 69t82.5 65t107.5 45.5t134.5 18.5q212 0 311.5 -117t67.5 -298l-108 -629h-125l28 160q-5 -7 -15.5 -19.5t-46.5 -43.5t-76.5 -54.5t-106 -43t-134.5 -19.5zM1075 1229h-119l-116 205h-31l-191 -205h-126l278 297h133z" />
    <glyph glyph-name="abreve.alt" horiz-adv-x="1146" 
d="M297 270q0 -83 68.5 -130.5t191.5 -47.5q157 0 275 109.5t137 279.5h-420q-121 0 -186.5 -58t-65.5 -153zM532 -20q-162 0 -260 76t-98 208q0 143 103.5 236.5t279.5 93.5h430l8 43q24 131 -45.5 213t-216.5 82q-67 0 -125.5 -22t-94 -54t-61 -63.5t-36.5 -53.5l-10 -22
h-125q2 7 7 18.5t23 45.5t40.5 65t61 69t82.5 65t107.5 45.5t134.5 18.5q212 0 311.5 -117t67.5 -298l-108 -629h-125l28 160q-5 -7 -15.5 -19.5t-46.5 -43.5t-76.5 -54.5t-106 -43t-134.5 -19.5zM805 1239q-115 0 -188.5 66t-73.5 163v17h112v-10q0 -56 43 -95t117 -39
q68 0 114.5 39t53.5 105h115q-12 -107 -96 -176.5t-197 -69.5z" />
    <glyph glyph-name="aacute.alt" horiz-adv-x="1146" 
d="M297 270q0 -83 68.5 -130.5t191.5 -47.5q157 0 275 109.5t137 279.5h-420q-121 0 -186.5 -58t-65.5 -153zM532 -20q-162 0 -260 76t-98 208q0 143 103.5 236.5t279.5 93.5h430l8 43q24 131 -45.5 213t-216.5 82q-67 0 -125.5 -22t-94 -54t-61 -63.5t-36.5 -53.5l-10 -22
h-125q2 7 7 18.5t23 45.5t40.5 65t61 69t82.5 65t107.5 45.5t134.5 18.5q212 0 311.5 -117t67.5 -298l-108 -629h-125l28 160q-5 -7 -15.5 -19.5t-46.5 -43.5t-76.5 -54.5t-106 -43t-134.5 -19.5zM967 1526h153l-289 -297h-102z" />
    <glyph glyph-name="agrave.alt" horiz-adv-x="1146" 
d="M297 270q0 -83 68.5 -130.5t191.5 -47.5q157 0 275 109.5t137 279.5h-420q-121 0 -186.5 -58t-65.5 -153zM532 -20q-162 0 -260 76t-98 208q0 143 103.5 236.5t279.5 93.5h430l8 43q24 131 -45.5 213t-216.5 82q-67 0 -125.5 -22t-94 -54t-61 -63.5t-36.5 -53.5l-10 -22
h-125q2 7 7 18.5t23 45.5t40.5 65t61 69t82.5 65t107.5 45.5t134.5 18.5q212 0 311.5 -117t67.5 -298l-108 -629h-125l28 160q-5 -7 -15.5 -19.5t-46.5 -43.5t-76.5 -54.5t-106 -43t-134.5 -19.5zM573 1526h154l131 -297h-102z" />
    <glyph glyph-name="afii10110.alt" horiz-adv-x="1034" 
d="M502 -121l59 121h-256l-96 1024h135l76 -911h192l426 911h133l-550 -1157q-62 -130 -146 -193t-207 -63h-194l20 113h193q77 0 126 36t89 119zM705 1155q-126 0 -200.5 68t-74.5 161v17h113v-10q0 -58 46 -96t130 -38q72 0 118 39t54 105h113q-15 -114 -97.5 -180
t-201.5 -66z" />
    <glyph glyph-name="lslash.alt" horiz-adv-x="512" 
d="M121 625l188 82l127 727h123l-117 -666l211 92l-22 -123l-211 -92l-113 -645h-123l103 584l-189 -82z" />
    <glyph glyph-name="ydieresis.alt" horiz-adv-x="1034" 
d="M502 -121l59 121h-256l-96 1024h135l76 -911h192l426 911h133l-550 -1157q-62 -130 -146 -193t-207 -63h-194l20 113h193q77 0 126 36t89 119zM545 1249q-37 0 -60.5 25t-23.5 61q0 41 30 70t70 29q37 0 60.5 -25t23.5 -61q0 -41 -30 -70t-70 -29zM893 1249
q-37 0 -60.5 25t-23.5 61q0 41 30 70t70 29q37 0 60.5 -25t23.5 -61q0 -41 -30 -70t-70 -29z" />
    <glyph glyph-name="Germandbls" horiz-adv-x="1433" 
d="M901 758h-72l25 133l440 409h-432q-172 0 -263 -81t-122 -254l-170 -965h-133l174 985q38 215 173 332t364 117h610l-20 -125l-457 -418l-2 -10q202 -38 304.5 -142.5t102.5 -261.5q0 -204 -150.5 -340.5t-398.5 -136.5h-219l23 123h203q187 0 298 97t111 241
q0 58 -24 110t-70.5 94.5t-123 67.5t-171.5 25z" />
    <glyph glyph-name="l.alt" horiz-adv-x="450" 
d="M539 1434l-252 -1434h-123l252 1434h123z" />
    <glyph glyph-name="g.alt" horiz-adv-x="1136" 
d="M842 1024h477l-21 -113h-292q4 -3 11 -9.5t25 -28.5t32 -46.5t25 -63t11 -79.5q0 -165 -131.5 -281t-325.5 -116q-54 0 -103 8.5t-71 17.5l-22 9l-27 -152q22 2 59 2q112 0 204.5 -19t154 -49.5t104 -70.5t61.5 -81.5t19 -82.5q0 -51 -28.5 -99.5t-83 -89t-144.5 -65.5
t-201 -25q-138 0 -246 28.5t-169 74.5t-92 97.5t-31 103.5q0 54 27.5 100.5t71.5 77.5t89 51.5t90 30.5l41 229q-5 3 -13.5 10t-30.5 30.5t-39 51t-30.5 72t-13.5 92.5q0 171 130 288t327 117q46 0 85 -5t55 -10zM659 399q142 0 235 82.5t93 200.5q0 105 -82.5 177.5
t-224.5 72.5t-235 -82.5t-93 -200.5q0 -105 82.5 -177.5t224.5 -72.5zM590 -297q156 0 237.5 51.5t81.5 110.5q0 31 -23.5 63t-71 62.5t-135 49.5t-200.5 19q-156 0 -237.5 -51t-81.5 -110q0 -31 23.5 -63t71 -62.5t135 -50t200.5 -19.5z" />
    <glyph glyph-name="a.alt" horiz-adv-x="1146" 
d="M297 270q0 -83 68.5 -130.5t191.5 -47.5q157 0 275 109.5t137 279.5h-420q-121 0 -186.5 -58t-65.5 -153zM532 -20q-162 0 -260 76t-98 208q0 143 103.5 236.5t279.5 93.5h430l8 43q24 131 -45.5 213t-216.5 82q-67 0 -125.5 -22t-94 -54t-61 -63.5t-36.5 -53.5l-10 -22
h-125q2 7 7 18.5t23 45.5t40.5 65t61 69t82.5 65t107.5 45.5t134.5 18.5q212 0 311.5 -117t67.5 -298l-108 -629h-125l28 160q-5 -7 -15.5 -19.5t-46.5 -43.5t-76.5 -54.5t-106 -43t-134.5 -19.5z" />
    <glyph glyph-name="afii10085.alt" horiz-adv-x="1034" 
d="M502 -121l59 121h-256l-96 1024h135l76 -911h192l426 911h133l-550 -1157q-62 -130 -146 -193t-207 -63h-194l20 113h193q77 0 126 36t89 119z" />
    <glyph glyph-name="y.alt" horiz-adv-x="1034" 
d="M502 -121l59 121h-256l-96 1024h135l76 -911h192l426 911h133l-550 -1157q-62 -130 -146 -193t-207 -63h-194l20 113h193q77 0 126 36t89 119z" />
    <glyph glyph-name="I.alt" horiz-adv-x="993" 
d="M334 1311l20 123h789l-21 -123h-327l-209 -1188h327l-22 -123h-789l23 123h328l209 1188h-328z" />
    <glyph glyph-name="afii10065.alt" horiz-adv-x="1146" 
d="M297 270q0 -83 68.5 -130.5t191.5 -47.5q157 0 275 109.5t137 279.5h-420q-121 0 -186.5 -58t-65.5 -153zM532 -20q-162 0 -260 76t-98 208q0 143 103.5 236.5t279.5 93.5h430l8 43q24 131 -45.5 213t-216.5 82q-67 0 -125.5 -22t-94 -54t-61 -63.5t-36.5 -53.5l-10 -22
h-125q2 7 7 18.5t23 45.5t40.5 65t61 69t82.5 65t107.5 45.5t134.5 18.5q212 0 311.5 -117t67.5 -298l-108 -629h-125l28 160q-5 -7 -15.5 -19.5t-46.5 -43.5t-76.5 -54.5t-106 -43t-134.5 -19.5z" />
    <glyph glyph-name="nine.taboldstyle" horiz-adv-x="1146" 
d="M1171 604q0 -70 -18.5 -138t-43.5 -117.5t-69.5 -106.5t-75.5 -90.5t-82 -84.5l-18 -18l-436 -438h-156l510 498l4 10q-8 -5 -22.5 -13t-61.5 -21t-96 -13q-192 0 -317 131t-125 315q0 108 43.5 205.5t116.5 167.5t173 111.5t208 41.5q205 0 335.5 -127.5t130.5 -312.5z
M696 932q-107 0 -200 -51.5t-151 -148t-58 -214.5q0 -139 99 -236.5t253 -97.5q79 0 153.5 31t131.5 84.5t91 131.5t34 167q0 139 -99.5 236.5t-253.5 97.5z" />
    <glyph glyph-name="eight.taboldstyle" horiz-adv-x="1146" 
d="M649 -20q-135 0 -251.5 45t-192.5 137t-76 213q0 56 12.5 105t34 85.5t49 67.5t57.5 52.5t60.5 38.5t58 26.5t49 16t34.5 9.5l12 2v10q-7 3 -19.5 9.5t-44 30t-55.5 52.5t-44 78t-20 105q0 161 130.5 276t336.5 115q210 0 331.5 -104t121.5 -250q0 -59 -16 -109.5
t-42 -85.5t-57.5 -63t-62.5 -44.5t-57 -28t-42 -15.5l-16 -4v-11q10 -3 25.5 -10t56 -34t71 -60.5t56 -92t25.5 -126.5q0 -86 -37 -165t-103.5 -139t-166.5 -96t-218 -36zM436 1071q0 -104 90 -178t250 -74q150 0 242 80.5t92 190.5q0 104 -90 177.5t-250 73.5
q-151 0 -242.5 -80t-91.5 -190zM643 92q174 0 291 95.5t117 220.5q0 117 -108 208t-284 91q-174 0 -290.5 -95.5t-116.5 -220.5q0 -117 107.5 -208t283.5 -91z" />
    <glyph glyph-name="seven.taboldstyle" horiz-adv-x="1146" 
d="M213 635l70 389h962l-20 -113l-824 -1300h-133l824 1300h-707l-49 -276h-123z" />
    <glyph glyph-name="six.taboldstyle" horiz-adv-x="1146" 
d="M168 420q0 70 18.5 138t43.5 117.5t69.5 106.5t75.5 90.5t82 84.5l18 18l457 459h155l-530 -519l-4 -10q8 5 22.5 13t61.5 21t96 13q192 0 317.5 -131t125.5 -315q0 -108 -43.5 -205.5t-116.5 -167.5t-173 -111.5t-208 -41.5q-205 0 -336 127.5t-131 312.5zM643 92
q79 0 153.5 31t131.5 84.5t91 131.5t34 167q0 139 -99.5 236.5t-253.5 97.5q-107 0 -200 -51.5t-151 -148t-58 -214.5q0 -139 99 -236.5t253 -97.5z" />
    <glyph glyph-name="five.taboldstyle" horiz-adv-x="1146" 
d="M317 236h-110l188 788h758l-18 -113h-646l-114 -487q4 4 11.5 10.5t34.5 23.5t57 30t79 23.5t102 10.5q183 0 302.5 -118.5t119.5 -303.5q0 -109 -40.5 -204.5t-109.5 -162t-161.5 -105t-194.5 -38.5q-69 0 -129 13.5t-102.5 37t-77.5 53.5t-57.5 63t-39.5 66t-25 63
t-13.5 53.5t-6.5 36.5l-1 14h133q0 -6 1.5 -16.5t10 -40t21 -57t38 -60.5t58 -56.5t84.5 -40t115 -16.5q156 0 265 109.5t109 277.5q0 139 -89.5 229.5t-233.5 90.5q-60 0 -115 -18t-90.5 -43.5t-62 -51t-38.5 -43.5z" />
    <glyph glyph-name="four.taboldstyle" horiz-adv-x="1146" 
d="M842 -389h-123l69 389h-675l20 113l672 911h143l-672 -911h533l72 409h123l-72 -409h215l-21 -113h-215z" />
    <glyph glyph-name="three.taboldstyle" horiz-adv-x="1146" 
d="M1028 33q0 -188 -134.5 -315.5t-338.5 -127.5q-69 0 -129.5 13.5t-104.5 36t-80.5 51.5t-60.5 61.5t-42.5 65t-29 61.5t-16.5 51.5t-8 35.5l-2 14h133q0 -3 2.5 -16t11.5 -39.5t23 -54.5t40.5 -58.5t61 -54t88 -39t117.5 -15.5q152 0 249 90t97 232q0 111 -83.5 186.5
t-237.5 75.5h-156l21 112h217q139 0 227 80.5t88 204.5q0 106 -78 177t-211 71q-51 0 -97.5 -12t-80 -31t-61.5 -42t-45.5 -45.5t-30 -41.5t-17.5 -31l-6 -12h-127q3 7 8 18.5t24.5 45.5t42.5 65t63 69t85.5 65t110 45.5t135.5 18.5q187 0 298.5 -103.5t111.5 -250.5
q0 -59 -15 -110.5t-39 -86t-53 -62.5t-58 -44t-53 -26.5t-39 -14.5l-15 -4l-5 -10q8 -3 21.5 -10t48 -32.5t60.5 -56.5t47.5 -85t21.5 -115z" />
    <glyph glyph-name="two.taboldstyle" horiz-adv-x="1146" 
d="M733 279l-348 -166h666l-21 -113h-880l20 113l502 256q172 87 249.5 161t77.5 183q0 93 -77 156t-215 63q-49 0 -93 -12t-75 -31t-57 -42t-42.5 -45.5t-28 -41.5t-15.5 -31l-5 -12h-135q2 7 6.5 18.5t21.5 45.5t38.5 65t60 69t82.5 65t108.5 45.5t137.5 18.5
q193 0 302 -93t109 -230q0 -80 -25 -144t-78.5 -116.5t-119.5 -93t-166 -88.5z" />
    <glyph glyph-name="one.taboldstyle" horiz-adv-x="1146" 
d="M205 0l20 113h369l133 757l-303 -204l27 143l313 215h113l-160 -911h348l-21 -113h-839z" />
    <glyph glyph-name="zero.taboldstyle" horiz-adv-x="1146" 
d="M260 461q0 -162 102.5 -265.5t264.5 -103.5q85 0 164 34.5t140 95t97.5 150t36.5 191.5q0 162 -102.5 265.5t-264.5 103.5q-85 0 -164 -34.5t-140 -95t-97.5 -150t-36.5 -191.5zM137 453q0 126 47 237.5t125.5 188t182.5 121t215 44.5q212 0 346.5 -134t134.5 -339
q0 -126 -47 -237.5t-125.5 -188t-182.5 -121t-215 -44.5q-212 0 -346.5 134t-134.5 339z" />
    <glyph glyph-name="at.case" horiz-adv-x="1669" 
d="M1114 420l16 90q-3 -5 -8 -12t-24 -26.5t-41.5 -34t-60.5 -26.5t-81 -12q-118 0 -199 85t-81 216q0 159 106 267t238 108q144 0 207 -103q18 -30 18 -40l23 123h123l-93 -523h13q139 0 242.5 107.5t103.5 288.5q0 88 -38 170.5t-107.5 148.5t-180 106t-243.5 40
q-138 0 -266 -55t-224 -150t-153.5 -232.5t-57.5 -293.5q0 -257 165.5 -418.5t438.5 -161.5q87 0 170.5 18t123.5 36l40 18l-20 -113q-16 -8 -44 -20t-115 -32t-173 -20q-156 0 -289.5 53.5t-224.5 146t-142 219t-51 269.5q0 175 68.5 333.5t182 270.5t266 178t315.5 66
q125 0 235 -32.5t190.5 -89t139 -130t88 -157t29.5 -168.5q0 -235 -150 -371.5t-411 -136.5h-64zM944 512q91 0 159 73.5t68 182.5q0 88 -51.5 141.5t-132.5 53.5q-91 0 -159 -73.5t-68 -182.5q0 -88 51.5 -141.5t132.5 -53.5z" />
    <glyph glyph-name="parenleft.case" horiz-adv-x="747" 
d="M971 1669l55 -98q-274 -177 -427 -448t-153 -560q0 -123 29 -241.5t70 -199.5t82.5 -144.5t70.5 -93.5l29 -31l-84 -89q-7 6 -19 17.5t-46.5 51t-66 84t-69.5 115.5t-65.5 146t-46.5 174.5t-19 202.5q0 121 22.5 237t61 209t88 178.5t104 151.5t109 122t104 95.5t88 67
t60.5 40.5z" />
    <glyph glyph-name="parenright.case" horiz-adv-x="747" 
d="M37 -242l-55 99q274 177 426.5 447.5t152.5 559.5q0 90 -15.5 177.5t-40 156t-54.5 130.5t-60 106t-54.5 76.5t-40.5 48.5l-15 16l84 88q7 -6 19 -17.5t46.5 -51t65.5 -84t69 -115.5t65.5 -146t46.5 -174.5t19 -202.5q0 -121 -22.5 -237t-60.5 -209t-87.5 -178.5
t-104.5 -151.5t-109.5 -122t-104 -95.5t-87.5 -67t-60 -40.5z" />
    <glyph glyph-name="bracketleft.case" horiz-adv-x="665" 
d="M895 1485h-297l-270 -1536h297l-23 -123h-430l313 1782h430z" />
    <glyph glyph-name="bracketright.case" horiz-adv-x="665" 
d="M590 1485h-297l20 123h430l-313 -1782h-430l23 123h296z" />
    <glyph glyph-name="braceleft.case" horiz-adv-x="696" 
d="M422 727l-2 -10q5 -1 13 -3t27 -13.5t32.5 -28t21 -48t0.5 -71.5l-84 -481q-9 -55 20.5 -89t90.5 -34h123l-21 -123h-123q-121 0 -181.5 69t-41.5 177l84 481q9 54 -14.5 83.5t-77.5 29.5h-62l21 112h61q54 0 88 29.5t43 83.5l84 471q19 108 104 177t206 69h122l-20 -123
h-123q-61 0 -104 -34.5t-52 -88.5l-84 -471q-7 -40 -25 -71.5t-39 -48t-41 -27.5t-33 -14z" />
    <glyph glyph-name="braceright.case" horiz-adv-x="696" 
d="M526 717l2 10q-5 1 -13 3t-27 13.5t-32.5 28t-21 48t-0.5 71.5l82 471q9 55 -20 89t-90 34h-123l20 123h123q121 0 181.5 -69t41.5 -177l-82 -471q-9 -54 14.5 -83.5t77.5 -29.5h62l-21 -112h-61q-54 0 -88 -29.5t-43 -83.5l-86 -481q-19 -108 -103.5 -177t-205.5 -69
h-123l22 123h123q61 0 103 34t51 89l86 481q7 40 25 71.5t39 48t41 27.5t33 14z" />
    <glyph glyph-name="nine.tab" horiz-adv-x="1228" 
d="M1292 1012q0 -39 -5.5 -76.5t-12 -67.5t-24 -65t-28.5 -57.5t-38 -57t-41 -51.5t-50 -54t-51 -51.5t-57 -55.5q-21 -20 -31 -30l-456 -446h-164l491 479q-29 -8 -92 -8q-224 0 -368 128t-144 335q0 147 77.5 271.5t209.5 197t285 72.5q221 0 360 -134t139 -329zM780 1352
q-179 0 -302.5 -118.5t-123.5 -295.5q0 -149 104.5 -246.5t274.5 -97.5q179 0 302.5 118.5t123.5 295.5q0 149 -104.5 246.5t-274.5 97.5z" />
    <glyph glyph-name="afii10069.alt" horiz-adv-x="1167" 
d="M41 113h113q5 2 13.5 6t31.5 24t42.5 48.5t41.5 83.5t34 124l111 625h735l-159 -911h153l-63 -359h-123l43 246h-871l-43 -246h-123zM530 911l-90 -512q-11 -60 -29.5 -111.5t-37.5 -82.5t-36.5 -53t-28.5 -30l-11 -9h584l141 798h-492z" />
    <glyph glyph-name="nine.dnom" horiz-adv-x="675" 
d="M436 717q126 0 203.5 -66t77.5 -164q0 -80 -42 -147t-108 -131l-221 -209h-158l201 186l70 43l2 11q-39 -15 -70 -15q-112 0 -181 71t-69 161q0 107 85 183.5t210 76.5zM428 604q-72 0 -118 -41.5t-46 -97.5q0 -55 43.5 -91t122.5 -36q72 0 118 41.5t46 97.5
q0 55 -43.5 91t-122.5 36z" />
    <glyph glyph-name="eight.dnom" horiz-adv-x="757" 
d="M430 -20q-141 0 -229 55.5t-88 146.5q0 44 17.5 79.5t42.5 55t50 32.5t43 17l17 5l2 10q-3 2 -9 5.5t-21 15.5t-26 26.5t-20.5 38t-9.5 49.5q0 84 72 142.5t194 58.5q138 0 211.5 -56t73.5 -135q0 -38 -14.5 -69.5t-35 -50t-41 -31.5t-35.5 -18l-14 -5l-2 -10
q5 -2 12.5 -5.5t27.5 -17.5t35 -30t27.5 -44t12.5 -59q0 -83 -79 -144.5t-214 -61.5zM332 506q0 -35 37 -60.5t116 -25.5q66 0 98.5 27t32.5 71q0 35 -37 60.5t-116 25.5q-66 0 -98.5 -27t-32.5 -71zM602 190q0 42 -51 74.5t-152 32.5q-83 0 -124.5 -28t-41.5 -70t51 -74.5
t152 -32.5q83 0 124.5 28t41.5 70z" />
    <glyph glyph-name="seven.dnom" horiz-adv-x="583" 
d="M141 584l21 112h522l-20 -112l-410 -584h-133l409 584h-389z" />
    <glyph glyph-name="six.dnom" horiz-adv-x="675" 
d="M381 -20q-126 0 -203.5 65.5t-77.5 163.5q0 80 42 147t108 131l221 209h158l-201 -186l-70 -43l-2 -10q39 14 70 14q112 0 181 -70.5t69 -160.5q0 -107 -85 -183.5t-210 -76.5zM389 92q72 0 118 41.5t46 97.5q0 55 -43.5 91t-122.5 36q-72 0 -118 -41.5t-46 -97.5
q0 -55 43.5 -91t122.5 -36z" />
    <glyph glyph-name="five.dnom" horiz-adv-x="706" 
d="M281 287l-103 20l88 389h461l-18 -112h-349l-38 -164q5 5 15.5 11.5t48.5 18t83 11.5q107 0 173.5 -63t66.5 -152q0 -118 -80.5 -192t-204.5 -74q-53 0 -98 12t-74 31t-51.5 42t-34.5 45.5t-19.5 41.5t-9.5 31l-2 12h133q1 -4 3 -11t13 -25t26.5 -31.5t47 -24.5t70.5 -11
q73 0 115.5 40t42.5 93q0 55 -42 89t-118 34q-40 0 -76 -15t-52 -31z" />
    <glyph glyph-name="four.dnom" horiz-adv-x="655" 
d="M526 0h-123l27 154h-358l20 112l352 430h134l-353 -430h226l24 144h123l-25 -144h103l-21 -112h-102z" />
    <glyph glyph-name="three.dnom" horiz-adv-x="706" 
d="M711 584l-244 -154q105 -13 162 -70t57 -139q0 -102 -78.5 -171.5t-201.5 -69.5q-53 0 -98 12t-74 31t-51.5 42t-34.5 45.5t-19.5 41.5t-9.5 31l-2 12h133q1 -4 3 -11t12.5 -25t26.5 -31.5t47.5 -24.5t72.5 -11q70 0 110.5 35.5t40.5 93.5q0 45 -39.5 76t-124.5 31h-125
l19 102l244 154h-318l19 112h491z" />
    <glyph glyph-name="two.dnom" horiz-adv-x="716" 
d="M307 113h381l-20 -113h-574l21 113l192 102q188 99 253 152t65 125q0 49 -38.5 80.5t-111.5 31.5q-36 0 -67 -12.5t-49.5 -31t-32.5 -36.5t-20 -30l-5 -13h-125q3 10 9 25.5t30.5 56.5t56 72t87 56.5t120.5 25.5q125 0 197 -62.5t72 -152.5q0 -106 -104.5 -197
t-336.5 -192z" />
    <glyph glyph-name="one.dnom" horiz-adv-x="696" 
d="M133 0l21 113h204l78 450l-203 -112l23 133l215 112h113l-103 -583h195l-21 -113h-522z" />
    <glyph glyph-name="zero.dnom" horiz-adv-x="757" 
d="M426 92q91 0 158 85t67 226q0 95 -45.5 148t-124.5 53q-91 0 -158 -85t-67 -226q0 -95 45.5 -148t124.5 -53zM416 -20q-124 0 -203.5 86t-79.5 223q0 96 30.5 178.5t81.5 136t115 83.5t132 30q124 0 203 -86t79 -223q0 -96 -30.5 -178.5t-81 -136t-114.5 -83.5t-132 -30z
" />
    <glyph glyph-name="nine.numr" horiz-adv-x="675" 
d="M518 1454q126 0 203.5 -65.5t77.5 -163.5q0 -133 -150 -279l-221 -209h-158l201 187l70 43l2 10q-39 -14 -70 -14q-112 0 -181 70.5t-69 160.5q0 107 85 183.5t210 76.5zM510 1341q-72 0 -118 -41.5t-46 -97.5q0 -55 43.5 -91t122.5 -36q72 0 118 41.5t46 97.5
q0 55 -43.5 91t-122.5 36z" />
    <glyph glyph-name="eight.numr" horiz-adv-x="757" 
d="M553 717q-141 0 -229 56t-88 147q0 44 17.5 79.5t42.5 54.5t50 32.5t42 17.5l18 4l2 10q-3 2 -9 5.5t-21 15.5t-26 26.5t-20.5 38t-9.5 49.5q0 84 72 142.5t194 58.5q138 0 211 -55.5t73 -134.5q0 -38 -14.5 -69.5t-35 -50t-40.5 -31.5t-34 -18l-15 -5l-2 -11
q5 -2 12.5 -5.5t27.5 -17t35 -30t27.5 -44t12.5 -58.5q0 -84 -79 -145.5t-214 -61.5zM455 1243q0 -35 37 -60.5t116 -25.5q66 0 98.5 27t32.5 71q0 35 -37 60.5t-116 25.5q-66 0 -98.5 -27t-32.5 -71zM725 928q0 42 -50.5 74t-152.5 32q-83 0 -124.5 -28t-41.5 -70t51 -74.5
t152 -32.5q82 0 124 28.5t42 70.5z" />
    <glyph glyph-name="seven.numr" horiz-adv-x="583" 
d="M272 1321l21 113h522l-20 -113l-410 -584h-133l410 584h-390z" />
    <glyph glyph-name="six.numr" horiz-adv-x="675" 
d="M483 717q-126 0 -203 65.5t-77 163.5q0 134 149 279l221 209h158l-201 -187l-69 -43l-2 -10q38 14 69 14q112 0 181 -70.5t69 -160.5q0 -107 -85 -183.5t-210 -76.5zM492 829q72 0 117.5 41.5t45.5 98.5q0 55 -43.5 91t-122.5 36q-72 0 -117.5 -41.5t-45.5 -98.5
q0 -55 43.5 -91t122.5 -36z" />
    <glyph glyph-name="five.numr" horiz-adv-x="706" 
d="M375 1024l-103 20l88 390h461l-18 -113h-348l-39 -164q5 5 15.5 11.5t48.5 18t83 11.5q107 0 173.5 -63t66.5 -152q0 -118 -80.5 -192t-204.5 -74q-53 0 -98 12t-74 31t-51.5 41.5t-34.5 45.5t-19.5 42t-9.5 31l-2 12h133q1 -4 3 -11t13 -25t26.5 -31.5t47 -24.5
t70.5 -11q72 0 115 40.5t43 93.5q0 55 -42 88.5t-118 33.5q-40 0 -76 -15.5t-52 -30.5z" />
    <glyph glyph-name="four.numr" horiz-adv-x="655" 
d="M629 737h-123l26 154h-358l21 113l352 430h133l-352 -430h225l25 143h122l-24 -143h102l-20 -113h-103z" />
    <glyph glyph-name="three.numr" horiz-adv-x="706" 
d="M809 1321l-244 -154q105 -13 162 -70t57 -139q0 -102 -78.5 -171.5t-201.5 -69.5q-53 0 -98 12t-74 31t-51.5 41.5t-34.5 45.5t-19.5 42t-9.5 31l-2 12h133q1 -4 3 -11t12.5 -25t26.5 -31.5t47.5 -24.5t72.5 -11q70 0 111 35.5t41 93.5q0 45 -39.5 76t-124.5 31h-125
l18 102l244 154h-318l19 113h491z" />
    <glyph glyph-name="two.numr" horiz-adv-x="716" 
d="M399 850h381l-20 -113h-574l21 113l192 102q188 99 253 152t65 125q0 49 -38.5 80.5t-111.5 31.5q-36 0 -67 -12.5t-49.5 -30.5t-32.5 -36t-20 -30l-5 -13h-125q3 10 9 25.5t30.5 56t56 71.5t87 56.5t120.5 25.5q125 0 197 -62.5t72 -152.5q0 -106 -104.5 -197
t-336.5 -192z" />
    <glyph glyph-name="one.numr" horiz-adv-x="696" 
d="M223 737l21 113h205l77 450l-202 -112l22 133l215 113h113l-103 -584h195l-21 -113h-522z" />
    <glyph glyph-name="zero.numr" horiz-adv-x="757" 
d="M508 829q91 0 158 85.5t67 226.5q0 94 -45.5 147t-124.5 53q-91 0 -158 -85t-67 -226q0 -95 45.5 -148t124.5 -53zM498 717q-124 0 -203.5 86t-79.5 223q0 96 30.5 178.5t81 136t114.5 83.5t132 30q124 0 203.5 -86t79.5 -223q0 -96 -30.5 -178.5t-81 -136t-114.5 -83.5
t-132 -30z" />
    <glyph glyph-name="eight.tab" horiz-adv-x="1228" 
d="M694 -41q-104 0 -201.5 27.5t-176 78t-126 131.5t-47.5 179q0 236 207 353q69 39 170 63q-8 3 -21 9.5t-46 30.5t-58 53.5t-46 80t-21 108.5q0 78 35 150t97 128.5t156.5 90t206.5 33.5q113 0 207 -31t154 -83t92.5 -117t32.5 -136q0 -203 -181 -309q-47 -27 -122 -51
q10 -3 26.5 -10t58 -35t73.5 -62t58.5 -94.5t26.5 -130.5q0 -90 -39 -172.5t-109.5 -146t-176 -101t-230.5 -37.5zM821 819q160 0 258.5 87t98.5 196q0 103 -94.5 176.5t-270.5 73.5q-82 0 -150.5 -25t-112 -66t-67.5 -91t-24 -101q0 -104 93.5 -177t268.5 -73zM707 82
q187 0 298 93t111 228q0 124 -112.5 209.5t-319.5 85.5q-187 0 -298.5 -93.5t-111.5 -227.5q0 -124 113 -209.5t320 -85.5z" />
    <glyph glyph-name="seven.tab" horiz-adv-x="1228" 
d="M522 0h-143l835 1311h-757l-49 -277h-134l70 400h1034l-20 -123z" />
    <glyph glyph-name="six.tab" horiz-adv-x="1228" 
d="M174 422q0 86 21.5 158.5t68 137.5t93 115t122.5 123q22 20 33 31l457 447h164l-492 -480q29 9 92 9q224 0 368 -128t144 -335q0 -147 -77.5 -271.5t-209 -197t-284.5 -72.5q-221 0 -360.5 134t-139.5 329zM686 82q179 0 302.5 118.5t123.5 295.5q0 149 -104.5 246.5
t-274.5 97.5q-179 0 -302.5 -118.5t-123.5 -295.5q0 -149 104.5 -246.5t274.5 -97.5z" />
    <glyph glyph-name="five.tab" horiz-adv-x="1228" 
d="M565 1311l-123 -473q4 4 12.5 11t37 25t61 32t83.5 25t105 11q214 0 349 -127t135 -319q0 -148 -75 -272t-201.5 -194.5t-274.5 -70.5q-74 0 -139 14t-111 38t-85 54.5t-64 64.5t-44.5 68t-30 64.5t-17 54.5t-7.5 38l-2 14h131q1 -6 3.5 -16.5t13.5 -40t27 -57
t46.5 -60.5t68.5 -56.5t96.5 -40t127.5 -16.5q169 0 285.5 116.5t116.5 293.5q0 146 -100 236.5t-259 90.5q-62 0 -120 -16t-96 -38.5t-67 -44.5t-42 -38l-13 -16h-112l194 768h830l-23 -123h-717z" />
    <glyph glyph-name="four.tab" horiz-adv-x="1228" 
d="M1006 0h-134l58 328h-768l22 123l684 983h144l-684 -983h624l68 389h133l-68 -389h215l-22 -123h-215z" />
    <glyph glyph-name="three.tab" horiz-adv-x="1228" 
d="M700 860h33q107 0 197.5 -35.5t149.5 -94.5t91.5 -134.5t32.5 -155.5q0 -98 -41 -186.5t-111.5 -153.5t-170 -103t-211.5 -38q-78 0 -146 14t-116.5 38t-88.5 54.5t-65.5 64.5t-45 68t-29.5 64.5t-16 54.5t-7 38l-2 14h129q1 -6 3 -16.5t13.5 -40t27.5 -57t47.5 -60.5
t71 -56.5t100.5 -40t134 -16.5q171 0 281 100t110 252q0 130 -99.5 216.5t-258.5 86.5h-219l22 123l590 451h-727l22 123h912l-23 -123z" />
    <glyph glyph-name="two.tab" horiz-adv-x="1228" 
d="M723 389l-393 -266h798l-22 -123h-1004l23 123l500 338q32 22 92 62q63 42 93 62.5t79.5 56t72.5 54.5t58 50.5t50.5 53.5t36.5 53.5t29 60t14.5 63.5t6.5 74q0 128 -93 214.5t-247 86.5q-80 0 -148 -33t-108 -79.5t-68.5 -93t-39.5 -79.5l-11 -33h-145q2 9 6.5 25
t23.5 62t43 87.5t67.5 92.5t95 87.5t127 61.5t161.5 25q139 0 247 -57.5t165 -152t57 -208.5q0 -60 -15 -116t-33 -98t-63.5 -93.5t-73.5 -80.5t-98.5 -82t-103.5 -76t-121 -82q-39 -26 -59 -40z" />
    <glyph glyph-name="one.tab" horiz-adv-x="1228" 
d="M164 0l22 123h420l203 1157l-301 -205l24 144l314 215h123l-230 -1311h400l-23 -123h-952z" />
    <glyph glyph-name="zero.tab" horiz-adv-x="1228" 
d="M672 82q179 0 305 108t158 293l67 389q36 211 -72.5 345.5t-330.5 134.5q-179 0 -305 -108.5t-158 -293.5l-68 -389q-36 -210 73.5 -344.5t330.5 -134.5zM668 -41q-144 0 -256.5 47t-180.5 129t-93.5 195.5t-2.5 244.5l70 388q41 235 202.5 373.5t395.5 138.5
q192 0 324.5 -81t185.5 -220.5t22 -315.5l-69 -387q-41 -235 -202.5 -373.5t-395.5 -138.5z" />
    <glyph glyph-name="afii10021.alt" horiz-adv-x="1495" 
d="M33 123h143q7 3 19.5 11t47 45t65 87.5t65 145.5t55.5 213l143 809h953l-232 -1311h195l-72 -410h-133l51 287h-1188l-51 -287h-133zM561 625q-21 -118 -51 -213t-59 -146.5t-54.5 -86t-40.5 -45.5l-16 -11h819l211 1188h-686z" />
    <glyph glyph-name="f.alt" horiz-adv-x="624" 
d="M764 1024l-21 -113h-276l-160 -911h-123l160 911h-143l20 113h144l22 129q53 281 303 281h207l-18 -113h-191q-146 0 -180 -180l-21 -117h277z" />
    <glyph glyph-name="t.alt" horiz-adv-x="727" 
d="M477 911l-104 -594q-35 -204 159 -204h152l-18 -113h-144q-154 0 -227 82.5t-47 228.5l106 600h-143l20 113h144l39 225h123l-39 -225h338l-21 -113h-338z" />
    <glyph glyph-name="j.alt" horiz-adv-x="450" 
d="M147 -82l197 1106h123l-197 -1106q-27 -156 -101.5 -231.5t-209.5 -75.5h-160l21 113h141q152 0 186 194zM453 1239q-37 0 -60.5 25t-23.5 61q0 41 30 69.5t70 28.5q37 0 60.5 -25t23.5 -61q0 -41 -30 -69.5t-70 -28.5z" />
    <glyph glyph-name="afii10055.alt" horiz-adv-x="993" 
d="M334 1311l20 123h789l-21 -123h-327l-209 -1188h327l-22 -123h-789l23 123h328l209 1188h-328z" />
    <glyph glyph-name="afii10056.alt" horiz-adv-x="993" 
d="M334 1311l20 123h789l-21 -123h-327l-209 -1188h327l-22 -123h-789l23 123h328l209 1188h-328zM596 1608q-37 0 -60.5 25t-23.5 61q0 41 30 69.5t70 28.5q37 0 60.5 -25t23.5 -61q0 -41 -30 -69.5t-70 -28.5zM944 1608q-37 0 -60.5 25t-23.5 61q0 41 30.5 69.5t70.5 28.5
q37 0 60 -25t23 -61q0 -41 -30 -69.5t-70 -28.5z" />
    <glyph glyph-name="afii10061.alt" horiz-adv-x="1392" 
d="M1118 1872h154l-289 -297h-102zM1102 727q2 0 5.5 -1t14 -5.5t20.5 -10t23 -16t23.5 -24t20 -33.5t14.5 -43t5 -55t-7 -68l-39 -215q-11 -62 23 -102.5t95 -40.5h62l-23 -123h-61q-122 0 -185.5 75t-43.5 191l38 215q19 99 -21 147t-140 48h-492l-117 -666h-133l252 1434
h133l-112 -646h471q100 0 156 47.5t73 147.5l33 195q20 116 110.5 191t212.5 75h62l-21 -123h-61q-62 0 -111 -41t-59 -102l-33 -195q-11 -63 -34.5 -112.5t-49 -75.5t-49.5 -42.5t-39 -20.5z" />
    <glyph glyph-name="afii10051.alt" horiz-adv-x="1576" 
d="M1524 346l-23 -133q-34 -199 -170 -313.5t-342 -114.5h-65l20 123h55q309 0 369 317l25 133q30 165 -59.5 272t-270.5 107h-361l-131 -737h-133l232 1311h-441l23 123h1065l-23 -123h-491l-80 -451h350q113 0 206.5 -38.5t153.5 -106t85.5 -163.5t5.5 -206z" />
    <glyph glyph-name="afii10058.alt" horiz-adv-x="2273" 
d="M432 594l148 840h931l-90 -512h394q111 0 202 -34t149.5 -91.5t90 -132t31.5 -158.5q0 -217 -149 -361.5t-380 -144.5h-633l232 1311h-666l-127 -717q-25 -145 -60 -252.5t-76 -176.5t-94.5 -110.5t-109.5 -58t-127 -16.5q-32 0 -61.5 5t-42.5 10l-14 5l22 123
q37 -21 98 -21t107.5 21.5t89.5 74.5t76 151t59 245zM1815 799h-414l-119 -676h485q178 0 282.5 104.5t104.5 272.5q0 129 -91 214t-248 85z" />
    <glyph glyph-name="afii10099.alt" horiz-adv-x="1177" 
d="M1135 406l-91 -512q-25 -135 -106.5 -209t-204.5 -74h-149l20 113h137q153 0 183 180l92 524q27 151 -39.5 245.5t-218.5 94.5q-137 0 -244 -93.5t-133 -242.5l-76 -432h-123l191 1085h-144l21 113h143l41 236h123l-41 -236h266l-20 -113h-266l-64 -368q4 7 12.5 18
t39 39t67 50t98.5 39.5t131 17.5q203 0 297.5 -130.5t57.5 -344.5z" />
    <glyph glyph-name="afii10105.alt" horiz-adv-x="450" 
d="M147 -82l197 1106h123l-197 -1106q-27 -156 -101.5 -231.5t-209.5 -75.5h-160l21 113h141q152 0 186 194zM453 1239q-37 0 -60.5 25t-23.5 61q0 41 30 69.5t70 28.5q37 0 60.5 -25t23.5 -61q0 -41 -30 -69.5t-70 -28.5z" />
    <glyph glyph-name="afii10106.alt" horiz-adv-x="1710" 
d="M539 911l-95 -532q-38 -216 -120.5 -302.5t-225.5 -86.5q-27 0 -51.5 4.5t-35.5 9.5l-11 4l20 111q27 -17 78 -17q90 0 143.5 61.5t80.5 215.5l114 645h727l-65 -369h254q164 0 261 -85.5t97 -213.5q0 -151 -110 -253.5t-273 -102.5h-467l160 911h-481zM1352 543h-273
l-75 -430h327q111 0 183.5 66.5t72.5 168.5q0 81 -62.5 138t-172.5 57z" />
    <glyph glyph-name="afii10109.alt" horiz-adv-x="1085" 
d="M803 195l22 133q12 68 -14 100.5t-94 32.5h-348l-82 -461h-123l180 1024h123l-80 -451h328q69 0 107 32.5t50 101.5l21 122q15 93 85.5 149t176.5 56h41l-20 -112h-41q-47 0 -79.5 -30t-41.5 -83l-23 -123q-8 -40 -24 -71.5t-34 -48t-34.5 -27.5t-27.5 -14l-11 -3
q2 -1 6 -2.5t16.5 -7t21.5 -14t22 -22t18.5 -31.5t10 -42.5t-2.5 -54.5l-22 -133q-9 -53 13.5 -83t68.5 -30h41l-21 -112h-41q-105 0 -154 55.5t-34 149.5zM903 1464h154l-289 -297h-102z" />
    <glyph glyph-name="ff.alt" 
d="M999 1024l23 129q53 281 303 281h207l-19 -113h-190q-146 0 -180 -180l-21 -117h277l-21 -113h-276l-160 -911h-123l160 911h-502l-160 -911h-122l159 911h-143l20 113h144l22 129q53 281 303 281h207l-18 -113h-191q-146 0 -180 -180l-20 -117h501z" />
    <glyph glyph-name="fi.alt" horiz-adv-x="1105" 
d="M498 1024h624l-180 -1024h-123l160 911h-502l-160 -911h-122l159 911h-143l20 113h144l22 129q53 281 303 281h433l-19 -113h-416q-146 0 -180 -180z" />
    <glyph glyph-name="f_j.alt" horiz-adv-x="1105" 
d="M1122 1024l-194 -1106q-28 -156 -103 -231.5t-209 -75.5h-159l20 113h141q153 0 187 194l174 993h-502l-160 -911h-122l159 911h-143l20 113h144l22 129q50 281 303 281h433l-19 -113h-416q-146 0 -180 -180l-20 -117h624z" />
    <glyph glyph-name="fl.alt" horiz-adv-x="1105" 
d="M819 0l195 1106q18 102 -46 168.5t-192 66.5q-105 0 -173 -53.5t-83 -140.5l-22 -123h276l-20 -113h-277l-160 -911h-122l159 911h-143l20 113h144l24 135q24 131 126 213t257 82q183 0 281.5 -105t71.5 -255l-193 -1094h-123z" />
    <glyph glyph-name="f_t.alt" horiz-adv-x="1351" 
d="M1122 1024h338l-20 -113h-338l-105 -594q-35 -204 160 -204h152l-19 -113h-143q-154 0 -227.5 82.5t-47.5 228.5l107 600h-502l-160 -911h-122l159 911h-143l20 113h144l24 135q24 131 126 213t257 82q183 0 281.5 -105t71.5 -255zM999 1024l15 82q18 102 -46 168.5
t-192 66.5q-105 0 -173 -53.5t-83 -140.5l-22 -123h501z" />
    <glyph glyph-name="afii10072.alt" horiz-adv-x="1556" 
d="M1284 195l23 133q12 68 -14 100.5t-95 32.5h-266l-82 -461h-123l82 461h-266q-134 0 -158 -133l-23 -133q-15 -93 -85.5 -149t-176.5 -56h-41l21 112h41q47 0 79.5 30t41.5 83l24 133q7 37 24 68.5t35.5 49.5t39.5 31.5t33 18t20 6.5q-4 1 -8.5 2.5t-14.5 6.5t-17.5 13
t-16.5 20.5t-13 29.5t-6 40t4 52l23 123q9 53 -14 83t-70 30h-41l20 112h41q106 0 155 -55.5t34 -149.5l-21 -122q-12 -69 14 -101.5t95 -32.5h245l80 451h123l-80 -451h246q135 0 158 134l20 122q15 93 85.5 149t176.5 56h41l-20 -112h-41q-47 0 -80.5 -30t-42.5 -83
l-20 -123q-7 -39 -23 -70t-31.5 -47t-35.5 -28t-27.5 -14.5t-14.5 -4.5q69 -23 90 -88q12 -38 3 -86l-25 -133q-9 -53 14 -83t70 -30h41l-21 -112h-40q-106 0 -155 55.5t-34 149.5z" />
    <glyph glyph-name="A_A" horiz-adv-x="2508" 
d="M2355 0l-39 471h-757l-207 -471h-123l-39 471h-758l-207 -471h-133l631 1434h512l104 -1158l510 1158h512l127 -1434h-133zM2238 1311h-307l-321 -717h696zM1112 1311h-307l-322 -717h697z" />
    <glyph glyph-name="A_R" horiz-adv-x="2170" 
d="M723 1434h1059q216 0 341.5 -112.5t125.5 -283.5q0 -198 -125.5 -332t-333.5 -149l268 -557h-153l-260 553h-441l-98 -553h-133l96 553h-602l-242 -553h-133zM1761 1311h-424l-112 -635h520q171 0 271 98t100 258q0 128 -91 203.5t-264 75.5zM795 1311l-277 -635h574
l110 635h-407z" />
    <glyph glyph-name="A_T" horiz-adv-x="1505" 
d="M1321 0l-39 471h-358l-84 -471h-133l84 471h-359l-207 -471h-133l578 1311h-244l20 123h1158l-21 -123h-244l115 -1311h-133zM938 1311h-133l-322 -717h328zM1204 1311h-133l-127 -717h328z" />
    <glyph glyph-name="A_V" horiz-adv-x="2160" 
d="M1354 123h291l567 1311h149l-630 -1434h-502l-39 471h-758l-207 -471h-133l631 1434h512zM1112 1311h-307l-322 -717h697z" />
    <glyph glyph-name="C_E" horiz-adv-x="1638" 
d="M799 492h389l-21 -123h-522l123 696h522l-22 -123h-389l-27 -154h287l-23 -122h-287zM1522 502h137q-4 -11 -12 -30.5t-38.5 -76t-67.5 -108t-101 -114t-137 -107.5t-177.5 -76t-220.5 -31q-151 0 -279 50.5t-216.5 139.5t-138.5 213.5t-50 268.5q0 181 66.5 339.5
t177 268.5t257.5 173t306 63q127 0 236.5 -36t182.5 -91t127.5 -125.5t82 -135.5t35.5 -124h-136q-2 8 -6 22t-21.5 54.5t-41 77t-67.5 81.5t-97.5 77.5t-134 54.5t-174.5 22q-131 0 -251 -52.5t-210.5 -144.5t-144.5 -227.5t-54 -292.5q0 -246 154 -399.5t405 -153.5
q93 0 177 23t144 60t110.5 82t82 90t54 82t31.5 60z" />
    <glyph glyph-name="C_O" horiz-adv-x="1638" 
d="M1522 502h137q-4 -11 -12 -30.5t-38.5 -76t-67.5 -108t-101 -114t-137 -107.5t-177.5 -76t-220.5 -31q-151 0 -279 50.5t-216.5 139.5t-138.5 213.5t-50 268.5q0 181 66.5 339.5t177 268.5t257.5 173t306 63q127 0 236.5 -36t182.5 -91t127.5 -125.5t82 -135.5t35.5 -124
h-136q-2 8 -6 22t-21.5 54.5t-41 77t-67.5 81.5t-97.5 77.5t-134 54.5t-174.5 22q-131 0 -251 -52.5t-210.5 -144.5t-144.5 -227.5t-54 -292.5q0 -246 154 -399.5t405 -153.5q93 0 177 23t144 60t110.5 82t82 90t54 82t31.5 60zM954 492q96 0 167 71t71 178
q0 88 -55.5 144.5t-141.5 56.5q-96 0 -166.5 -71t-70.5 -179q0 -88 55 -144t141 -56zM944 369q-139 0 -229 90.5t-90 222.5q0 159 114 271t267 112q139 0 229 -90.5t90 -222.5q0 -159 -114 -271t-267 -112z" />
    <glyph glyph-name="D_E" horiz-adv-x="2181" 
d="M436 1434h404h28h1473l-21 -123h-1071q122 -87 189 -222.5t67 -300.5h570l-23 -122h-557q-26 -170 -119.5 -311.5t-234.5 -231.5h970l-22 -123h-1905zM840 1311h-291l-209 -1188h387q136 0 256 51t205.5 139t134.5 211.5t49 263.5q0 147 -67 266.5t-189 188t-276 68.5z
" />
    <glyph glyph-name="E_A" horiz-adv-x="2293" 
d="M549 1311l-92 -523h891l286 646h512l127 -1434h-133l-61 666h-652l-290 -666h-953l252 1434h871l-21 -123h-737zM340 123h717l237 543h-860zM1716 1311l-235 -523h587l-45 523h-307z" />
    <glyph glyph-name="J_A" horiz-adv-x="1865" 
d="M905 424l178 1010h635l127 -1434h-133l-41 471h-624l-11 -59q-38 -215 -169.5 -334t-325.5 -119q-93 0 -169.5 24t-126 60.5t-86.5 86.5t-55 95.5t-28 93.5l137 29q1 -6 2.5 -15.5t10.5 -37t22 -52.5t39 -56t59.5 -53t85 -37t113.5 -15q138 0 234.5 89.5t125.5 252.5z
M1595 1311h-401l-127 -717h596z" />
    <glyph glyph-name="K_K" horiz-adv-x="1751" 
d="M1116 0l-354 666h-328l-117 -666h-133l252 1434h133l-112 -646h317l574 646h163l-624 -697l393 -737h-164zM1184 737l624 697h164l-624 -697l393 -737h-164z" />
    <glyph glyph-name="K_O" horiz-adv-x="2252" 
d="M1116 0l-354 666h-328l-117 -666h-133l252 1434h133l-112 -646h317l574 646h163l-624 -697l393 -737h-164zM1255 676q0 159 82 295t213.5 212.5t278.5 76.5q134 0 244 -64.5t171.5 -174.5t61.5 -243q0 -159 -81.5 -294.5t-213 -212t-278.5 -76.5q-204 0 -341 139.5
t-137 341.5zM1391 682q0 -157 99 -261t251 -104q82 0 160 34.5t138 94t96 145t36 181.5q0 157 -99 261t-251 104q-82 0 -160 -34.5t-138 -94t-96 -145t-36 -181.5z" />
    <glyph glyph-name="L_A" horiz-adv-x="1894" 
d="M1741 0l-39 471h-758l-153 -348h327l-22 -123h-912l252 1434h133l-229 -1311h317l578 1311h512l127 -1434h-133zM1624 1311h-307l-322 -717h697z" />
    <glyph glyph-name="L_I" horiz-adv-x="1269" 
d="M1348 1434l-191 -1086h-133l190 1086h134zM569 1434l-229 -1311h778l-22 -123h-912l252 1434h133z" />
    <glyph glyph-name="L_L" horiz-adv-x="1280" 
d="M569 1434l-229 -1311h778l-22 -123h-912l252 1434h133zM948 1434l-168 -963h553l-22 -123h-686l190 1086h133z" />
    <glyph glyph-name="L_F" horiz-adv-x="1310" 
d="M860 809l-86 -481h-133l195 1106h665l-20 -123h-533l-67 -377h430l-21 -125h-430zM569 1434l-229 -1311h778l-22 -123h-912l252 1434h133z" />
    <glyph glyph-name="L_O" horiz-adv-x="1638" 
d="M649 868q0 159 82 295t213.5 212.5t278.5 76.5q204 0 340.5 -139.5t136.5 -341.5q0 -159 -82 -295t-213.5 -212.5t-278.5 -76.5q-204 0 -340.5 139.5t-136.5 341.5zM784 874q0 -157 99.5 -260.5t251.5 -103.5q82 0 160 34.5t138 94t96 145t36 181.5q0 157 -99.5 260.5
t-251.5 103.5q-82 0 -160 -34.5t-138 -94t-96 -145t-36 -181.5zM569 1434l-229 -1311h778l-22 -123h-912l252 1434h133z" />
    <glyph glyph-name="N_A" horiz-adv-x="2191" 
d="M1300 0h-194l-559 1300l-230 -1300h-133l252 1434h195l559 -1301l229 1301h625l127 -1434h-133l-39 471h-615zM1921 1311h-389l-127 -717h584z" />
    <glyph glyph-name="O_C" horiz-adv-x="2414" 
d="M1798 1475q129 0 240 -36t184.5 -91t128 -125.5t82 -135.5t35.5 -124h-135q-2 8 -6 22t-21.5 54.5t-41.5 77t-68 81.5t-97.5 77.5t-134 54.5t-174.5 22q-144 0 -274 -62q94 -90 144 -215t50 -272q0 -201 -80.5 -371.5t-218.5 -288.5q125 -61 279 -61q93 0 177 23
t143.5 60t110 82t82.5 90t54 82t31 60l10 23h137q-4 -11 -12 -30.5t-38.5 -76t-67.5 -108t-101 -114t-137 -107.5t-177.5 -76t-220.5 -31q-220 0 -387 104q-179 -104 -387 -104q-151 0 -279.5 51t-217.5 140t-139 213t-50 268q0 180 66 338.5t176 268.5t256.5 173.5
t304.5 63.5q218 0 387 -105q181 105 387 105zM915 82q144 0 275 61q-94 92 -144.5 217t-50.5 271q0 201 80 372t219 287q-121 62 -278 62q-131 0 -251.5 -52.5t-211.5 -144.5t-145 -227.5t-54 -292.5q0 -247 155 -400t406 -153zM1577 799q0 131 -46 239.5t-132 182.5
q-125 -95 -198 -247.5t-73 -338.5q0 -131 46.5 -239.5t132.5 -182.5q125 97 197.5 248t72.5 338z" />
    <glyph glyph-name="O_G" horiz-adv-x="2535" 
d="M915 82q144 0 275 61q-94 92 -144.5 217t-50.5 271q0 201 80 372t219 287q-121 62 -278 62q-131 0 -251.5 -52.5t-211.5 -144.5t-145 -227.5t-54 -292.5q0 -247 155 -400t406 -153zM1577 799q0 131 -46 239.5t-132 182.5q-125 -95 -198 -247.5t-73 -338.5
q0 -131 46.5 -239.5t132.5 -182.5q125 97 197.5 248t72.5 338zM1681 -41q-220 0 -387 104q-179 -104 -387 -104q-151 0 -279.5 51t-217.5 140t-139 213t-50 268q0 180 66 338.5t176 268.5t256.5 173.5t304.5 63.5q218 0 387 -105q181 105 387 105q129 0 237 -34t179.5 -86
t125 -121.5t81.5 -133t41 -127.5h-135q-2 8 -6 21.5t-22.5 53t-42.5 75.5t-68 79.5t-96.5 75t-131.5 53t-170 21.5q-144 0 -274 -62q94 -90 144 -215t50 -272q0 -201 -80.5 -371.5t-218.5 -288.5q125 -61 279 -61q97 0 185.5 26.5t155 70.5t121.5 99.5t90.5 116t56.5 116.5
t25 103h-282l20 123h604l-20 -123h-184q-16 -86 -56 -174.5t-108.5 -175.5t-155.5 -154t-207.5 -109t-253.5 -42z" />
    <glyph glyph-name="O_L_I" horiz-adv-x="2867" 
d="M2931 1434l-191 -1086h-133l191 1086h133zM2152 1434l-229 -1311h778l-22 -123h-912l252 1434h133zM915 82q131 0 251.5 52.5t211.5 144.5t145 227.5t54 292.5q0 247 -155 400t-406 153q-131 0 -251.5 -52.5t-211.5 -144.5t-145 -227.5t-54 -292.5q0 -247 155 -400
t406 -153zM907 -41q-151 0 -279.5 51t-217.5 140t-139 213t-50 268q0 180 66 338.5t176 268.5t256.5 173.5t304.5 63.5q151 0 279.5 -51t217.5 -140t139 -213t50 -268q0 -180 -66 -338.5t-176 -268.5t-256.5 -173.5t-304.5 -63.5z" />
    <glyph glyph-name="O_O" horiz-adv-x="2453" 
d="M1681 -41q-220 0 -387 104q-179 -104 -387 -104q-151 0 -279.5 51t-217.5 140t-139 213t-50 268q0 180 66 338.5t176 268.5t256.5 173.5t304.5 63.5q218 0 387 -105q181 105 387 105q151 0 279.5 -51t217.5 -140t139 -213t50 -268q0 -180 -66 -338.5t-176 -268.5
t-256.5 -173.5t-304.5 -63.5zM1690 82q131 0 251.5 52.5t211 144.5t144.5 227.5t54 292.5q0 247 -155 400t-406 153q-144 0 -274 -62q94 -90 144 -215t50 -272q0 -201 -80.5 -371.5t-218.5 -288.5q125 -61 279 -61zM915 82q144 0 275 61q-94 92 -144.5 217t-50.5 271
q0 201 80 372t219 287q-121 62 -278 62q-131 0 -251.5 -52.5t-211.5 -144.5t-145 -227.5t-54 -292.5q0 -247 155 -400t406 -153zM1577 799q0 131 -46 239.5t-132 182.5q-125 -95 -198 -247.5t-73 -338.5q0 -131 46.5 -239.5t132.5 -182.5q125 97 197.5 248t72.5 338z" />
    <glyph glyph-name="P_H" horiz-adv-x="2426" 
d="M436 1434h547q112 0 203 -34t149 -91.5t89.5 -132t31.5 -158.5q0 -29 -8 -86.5t-16 -100.5l-9 -43h830l112 646h134l-252 -1434h-133l116 666h-829l-117 -666h-133l109 614q-136 -102 -332 -102h-520l-91 -512h-133zM983 1311h-434l-119 -676h506q178 0 282.5 104.5
t104.5 272.5q0 129 -91.5 214t-248.5 85z" />
    <glyph glyph-name="R_J" horiz-adv-x="2041" 
d="M862 553h-446l-99 -553h-133l252 1434h557q216 0 341.5 -112.5t125.5 -283.5q0 -197 -121.5 -328.5t-332.5 -154.5l49 -109q39 -87 69 -142t65.5 -102t73.5 -71.5t86.5 -37.5t112.5 -13q138 0 234 89t125 251l178 1014h133l-178 -1026q-36 -213 -170 -332t-328 -119
q-100 0 -175.5 26.5t-138 88t-110.5 140.5t-106 204zM973 1311h-424l-113 -635h520q171 0 271 98t100 258q0 128 -91 203.5t-263 75.5z" />
    <glyph glyph-name="S_A" horiz-adv-x="2572" 
d="M678 82q183 0 286 89t103 220q0 62 -32.5 112t-84 84.5t-114 66.5t-125 66.5t-114 75.5t-84 104t-32.5 142q0 84 34.5 161.5t96.5 138.5t157.5 97t209.5 36q99 0 181.5 -21t135.5 -54.5t94 -73.5t62 -80.5t34.5 -74t17.5 -54.5l3 -21h-135q-1 5 -3 14.5t-13.5 36
t-28 50.5t-48.5 53.5t-72 51t-102 36t-136 14.5q-163 0 -258 -83.5t-95 -203.5q0 -49 20 -90t54 -71t77.5 -57t92 -52t97 -51t92 -58.5t77.5 -70t54 -90t20 -115.5q0 -88 -36.5 -169t-102.5 -144t-168.5 -100.5t-226.5 -37.5q-83 0 -155 14.5t-123.5 38.5t-95 55.5
t-71.5 66.5t-49.5 70t-33 66.5t-18.5 55.5t-9 38l-2 15h133q0 -3 4 -17.5t16 -42.5t31 -58t53.5 -62.5t78 -58t109.5 -42t144 -16.5zM2417 0l-39 471h-758l-207 -471h-133l633 1434h512l125 -1434h-133zM2300 1311h-307l-320 -717h697z" />
    <glyph glyph-name="T_A" horiz-adv-x="1527" 
d="M1372 0l-39 471h-614l-84 -471h-133l231 1311h-512l23 123h1136l125 -1434h-133zM1255 1311h-389l-127 -717h584z" />
    <glyph glyph-name="T_E" horiz-adv-x="1443" 
d="M733 1311h-512l23 123h1157l-23 -123h-512l-57 -328h676l-23 -123h-676l-53 -307h512l-22 -123h-512l-54 -307h676l-22 -123h-809z" />
    <glyph glyph-name="T_H_E" horiz-adv-x="2519" 
d="M713 1311h-492l23 123h1116l-23 -123h-491l-92 -523h829l115 646h973l-23 -123h-840l-92 -523h686l-22 -122h-686l-95 -543h840l-22 -123h-973l117 666h-830l-117 -666h-133z" />
    <glyph glyph-name="T_T" horiz-adv-x="1720" 
d="M733 1311h-512l23 123h1157l-23 -123h-512l-231 -1311h-133zM1309 860h-338l22 123h809l-22 -123h-338l-152 -860h-133z" />
    </font>
</defs>
</svg>
