<?xml version="1.0" standalone="no"?>
<!DOCTYPE svg PUBLIC "-//W3C//DTD SVG 1.1//EN" "http://www.w3.org/Graphics/SVG/1.1/DTD/svg11.dtd" >
<svg xmlns="http://www.w3.org/2000/svg" xmlns:xlink="http://www.w3.org/1999/xlink" version="1.1">
<metadata>
Created by FontForge 20170731 at Mon Aug  3 21:24:24 2020
 By Aleksey,,,
Copyright (c) 2018 by Typetype. Designer Ivan Gladkikh, technical designers Philipp Nurullin, Vika Usmanova, Nadyr Rakhimov, Marina Khodak. All rights reserved.
</metadata>
<defs>
<font id="TTFirsNeue-ExtraLight" horiz-adv-x="1372" >
  <font-face 
    font-family="TT Firs Neue Thin"
    font-weight="265"
    font-stretch="normal"
    units-per-em="2048"
    panose-1="2 0 8 3 3 0 0 2 0 4"
    ascent="1638"
    descent="-410"
    x-height="1004"
    cap-height="1434"
    bbox="-891 -553 2945 2120"
    underline-thickness="102"
    underline-position="-409"
    unicode-range="U+000D-FB02"
  />
<missing-glyph horiz-adv-x="0" 
 />
    <glyph glyph-name="ff" unicode="ff" horiz-adv-x="1218" 
d="M61 911v93h144v430h450v-95h-348v-335h512v430h451v-95h-348v-335h286v-93h-286v-911h-103v911h-512v-911h-102v911h-144z" />
    <glyph glyph-name="fi" unicode="fi" horiz-adv-x="1095" 
d="M61 911v93h144v430h676v-95h-574v-335h615v-1004h-103v911h-512v-911h-102v911h-144z" />
    <glyph glyph-name="fl" unicode="fl" horiz-adv-x="1187" 
d="M61 911v93h144v430h717v-1342h235v-92h-338v1339h-512v-335h287v-93h-287v-911h-102v911h-144z" />
    <glyph glyph-name="f_j" unicode="fj" horiz-adv-x="1095" 
d="M61 911v93h144v430h676v-95h-574v-335h615v-1393h-400v92h297v1208h-512v-911h-102v911h-144z" />
    <glyph glyph-name="f_t" unicode="ft" horiz-adv-x="1331" 
d="M61 911v93h144v430h717v-430h338v-93h-338v-819h348v-92h-451v911h-512v-911h-102v911h-144zM307 1004h512v335h-512v-335z" />
    <glyph glyph-name=".notdef" horiz-adv-x="0" 
 />
    <glyph glyph-name=".null" horiz-adv-x="0" 
 />
    <glyph glyph-name=".null" horiz-adv-x="0" 
 />
    <glyph glyph-name="nonmarkingreturn" horiz-adv-x="682" 
 />
    <glyph glyph-name="CR" unicode="&#xd;" horiz-adv-x="0" 
 />
    <glyph glyph-name="space" unicode=" " horiz-adv-x="573" 
 />
    <glyph glyph-name="exclam" unicode="!" horiz-adv-x="573" 
d="M236 676v758h102v-758l-21 -277h-61zM205 61q0 33 22.5 57.5t59.5 24.5t59.5 -24.5t22.5 -57.5q0 -32 -22.5 -56.5t-59.5 -24.5t-59.5 24.5t-22.5 56.5z" />
    <glyph glyph-name="quotedbl" unicode="&#x22;" horiz-adv-x="686" 
d="M143 1167v267h103v-267l-21 -235h-61zM440 1167v267h103v-267l-21 -235h-61z" />
    <glyph glyph-name="numbersign" unicode="#" horiz-adv-x="1331" 
d="M61 430v92h263l110 389h-250v93h277l123 430h102l-123 -430h369l123 430h102l-123 -430h236v-93h-262l-111 -389h250v-92h-277l-122 -430h-103l123 430h-369l-123 -430h-102l123 430h-236zM426 522h369l110 389h-368z" />
    <glyph glyph-name="dollar" unicode="$" horiz-adv-x="1300" 
d="M92 369h103q2 -7 5.5 -18.5t19.5 -44.5t36.5 -63t58.5 -66.5t83 -63t112.5 -44.5t144.5 -18q205 0 317.5 88t112.5 219q0 65 -32 116t-85.5 85t-123.5 61t-147.5 49.5t-154.5 46.5t-147 57t-123.5 74.5t-85.5 105t-32 143.5q0 147 123.5 258.5t326.5 120.5v184h103v-189
q81 -8 151 -32t116.5 -56.5t84 -70t59 -74t36 -66t19.5 -47.5l5 -18h-103q-1 6 -4.5 16t-18 38.5t-34 54.5t-55.5 58t-79.5 55t-108.5 38.5t-140 15.5q-177 0 -278 -82.5t-101 -203.5q0 -65 32 -116t86 -85t123.5 -61t147 -49.5t155 -46.5t147 -57t123.5 -74.5t86 -105
t32 -143.5q0 -153 -130.5 -268.5t-350.5 -128.5v-186h-103v186q-89 6 -165.5 31.5t-127 62t-91.5 79t-64 84t-38.5 75.5t-20.5 55z" />
    <glyph glyph-name="percent" unicode="%" horiz-adv-x="1556" 
d="M82 1126q0 138 95 233t233 95q137 0 232 -96.5t95 -231.5q0 -138 -94.5 -232.5t-232.5 -94.5t-233 94.5t-95 232.5zM287 0l870 1434h113l-871 -1434h-112zM184 1126q0 -106 62.5 -170.5t163.5 -64.5q100 0 162.5 64t62.5 171t-62.5 171.5t-162.5 64.5t-163 -64.5
t-63 -171.5zM819 307q0 137 95 232.5t233 95.5t233 -95t95 -233t-95 -232.5t-233 -94.5q-137 0 -232.5 95.5t-95.5 231.5zM922 307q0 -107 62.5 -171t162.5 -64q101 0 163 63.5t62 171.5q0 105 -62.5 170.5t-162.5 65.5t-162.5 -64.5t-62.5 -171.5z" />
    <glyph glyph-name="ampersand" unicode="&#x26;" horiz-adv-x="1433" 
d="M61 461q0 140 67 258.5t180.5 186t244.5 67.5q45 0 88.5 -10.5t64.5 -20.5l21 -10v2l-10 16l-246 391v93h778v-93h-665v-2l880 -1339h-123l-276 426l-8 14h-2q0 -95 -38.5 -183t-103.5 -153.5t-157 -105t-193 -39.5q-136 0 -251.5 67.5t-183 183t-67.5 251.5zM164 461
q0 -176 114.5 -293t284.5 -117t285 117t115 293q0 175 -118.5 297.5t-281.5 122.5t-281 -122.5t-118 -297.5z" />
    <glyph glyph-name="quotesingle" unicode="'" horiz-adv-x="389" 
d="M143 1167v267h103v-267l-21 -235h-61z" />
    <glyph glyph-name="parenleft" unicode="(" horiz-adv-x="737" 
d="M174 594q0 100 16.5 197t44.5 175.5t64 152t75.5 130t79.5 106t76 84t64 59t44 36.5l17 12l52 -71q-9 -6 -24.5 -18.5t-60.5 -56t-85.5 -92t-90 -127t-85.5 -162t-60.5 -196t-24.5 -229.5t24 -229t62 -197t84 -161t91.5 -128.5t83.5 -91t62 -56.5l24 -18l-52 -71
q-10 7 -27.5 20t-67.5 59.5t-95 98.5t-100.5 137t-95.5 175t-67.5 212t-27.5 250z" />
    <glyph glyph-name="parenright" unicode=")" horiz-adv-x="737" 
d="M31 -287q9 6 24.5 18.5t60 56t85.5 92t90.5 127t85 162t60 196t24.5 229.5t-23.5 229t-61.5 197t-84 161t-92 128.5t-84 91t-62 56.5l-23 18l51 71q10 -7 27.5 -20t67.5 -59.5t95 -98.5t100.5 -137t95.5 -175t67.5 -212t27.5 -250q0 -100 -16.5 -197t-44.5 -175.5
t-64 -152t-76 -130t-79.5 -106t-75.5 -84t-64 -59t-45 -36.5l-16 -12z" />
    <glyph glyph-name="asterisk" unicode="*" horiz-adv-x="737" 
d="M82 1106v82h246v246h82v-246h245v-82h-225l154 -225l-72 -41l-143 215l-144 -215l-71 41l153 225h-225z" />
    <glyph glyph-name="plus" unicode="+" horiz-adv-x="1003" 
d="M102 584v92h349v368h102v-368h348v-92h-348v-369h-102v369h-349z" />
    <glyph glyph-name="comma" unicode="," horiz-adv-x="378" 
d="M92 51q0 37 26.5 59.5t65.5 22.5q103 0 103 -153q0 -96 -47 -153t-127 -73v51q55 14 78.5 44t23.5 90q0 14 -2.5 26.5t-4.5 18.5l-3 6q-21 -10 -41 -10q-31 0 -51.5 20t-20.5 51z" />
    <glyph glyph-name="hyphen" unicode="-" horiz-adv-x="972" 
d="M123 532v93h727v-93h-727z" />
    <glyph glyph-name="period" unicode="." horiz-adv-x="348" 
d="M92 61q0 33 22.5 57.5t59.5 24.5t59.5 -24.5t22.5 -57.5q0 -32 -22.5 -56.5t-59.5 -24.5t-59.5 24.5t-22.5 56.5z" />
    <glyph glyph-name="slash" unicode="/" horiz-adv-x="706" 
d="M20 0l564 1434h102l-563 -1434h-103z" />
    <glyph glyph-name="zero" unicode="0" horiz-adv-x="1515" 
d="M133 717q0 172 50 316.5t135.5 240t199 148.5t240.5 53t240 -53t198.5 -148.5t135.5 -240t50 -316.5t-50 -316.5t-135.5 -240t-198.5 -148.5t-240 -53t-240.5 53t-199 148.5t-135.5 240t-50 316.5zM236 717q0 -157 41 -284.5t112.5 -210t166 -127t202.5 -44.5t202.5 44.5
t166 127t112.5 210t41 284.5t-41 284.5t-112.5 210t-166 126.5t-202.5 44t-202.5 -44t-166 -126.5t-112.5 -210t-41 -284.5z" />
    <glyph glyph-name="one" unicode="1" horiz-adv-x="634" 
d="M61 1106v113l267 215h102v-1434h-102v1321z" />
    <glyph glyph-name="two" unicode="2" horiz-adv-x="1167" 
d="M72 0v92l430 338q117 92 193 160.5t138 143.5t90.5 148t28.5 152q0 148 -106 248t-273 100q-69 0 -127 -18.5t-95.5 -48.5t-67 -66t-45 -72t-25.5 -66t-13 -49l-3 -18h-105q1 9 3.5 24.5t15.5 60.5t31.5 85.5t56.5 90t86 85.5t123 60.5t165 24.5q135 0 246.5 -61
t173.5 -162t62 -218q0 -90 -33 -174.5t-100.5 -167.5t-149 -157t-199.5 -166l-337 -260l-21 -17v-2l21 2h819v-92h-983z" />
    <glyph glyph-name="three" unicode="3" horiz-adv-x="1198" 
d="M51 358h103q1 -6 4.5 -17.5t18 -43t34 -60.5t55.5 -64.5t79.5 -61t108.5 -43t140 -17.5q182 0 285.5 95.5t103.5 252.5q0 156 -107 257.5t-282 101.5h-236v92l533 489v2h-768v93h901v-93l-512 -471l-20 -18v-2h102q140 0 253.5 -61.5t175.5 -164.5t62 -225
q0 -188 -136 -314t-355 -126q-94 0 -175 22t-135 57t-97 77.5t-67.5 85.5t-41 78t-22.5 57z" />
    <glyph glyph-name="four" unicode="4" horiz-adv-x="1198" 
d="M72 338v92l522 1004h113l-523 -1004h666v410h10h92v-410h215v-92h-215v-338h-102v338h-778z" />
    <glyph glyph-name="five" unicode="5" horiz-adv-x="1259" 
d="M133 358h103q2 -6 5.5 -17.5t18.5 -43t34.5 -60.5t54 -64.5t75.5 -61t101.5 -43t129.5 -17.5q180 0 290 111.5t110 277.5q0 173 -109.5 286.5t-290.5 113.5q-72 0 -135 -19t-102 -46t-68 -54.5t-41 -46.5l-12 -19h-102l61 779h819v-93h-727l-51 -550v-3q5 6 14.5 15.5
t43.5 34.5t72 44t100 34.5t128 15.5q109 0 203.5 -39.5t159.5 -106.5t102 -157t37 -189q0 -95 -37 -183t-102 -153.5t-159.5 -105t-203.5 -39.5q-69 0 -131 13.5t-108.5 36.5t-87 53t-68.5 63.5t-51 66.5t-36.5 63t-23 53t-13.5 36z" />
    <glyph glyph-name="six" unicode="6" horiz-adv-x="1239" 
d="M92 461q0 38 5.5 73.5t11.5 62.5t23.5 62l27 54t37.5 58t40 54.5t49.5 62t51.5 64.5l379 482h112l-385 -492l-14 -18v-2q82 41 195 41q141 0 259 -67.5t185.5 -183t67.5 -251.5q0 -102 -40.5 -194.5t-109.5 -160t-166.5 -107.5t-206.5 -40q-146 0 -266 67.5t-188 182.5
t-68 252zM195 461q0 -178 117.5 -294t301.5 -116t302 116t118 294t-118 293.5t-302 115.5q-181 0 -300 -119t-119 -290z" />
    <glyph glyph-name="seven" unicode="7" horiz-adv-x="983" 
d="M20 1341v93h922v-93l-614 -1341h-113l614 1339v2h-809z" />
    <glyph glyph-name="eight" unicode="8" horiz-adv-x="1310" 
d="M102 389q0 85 32 154t73 108t93.5 67.5t80.5 37t47 12.5v2q-10 1 -33.5 9t-65 32t-77 58t-62 94t-26.5 133q0 74 34 142t95.5 121t155.5 84.5t206 31.5t206 -31.5t155.5 -84.5t96 -121.5t34.5 -141.5q0 -52 -14 -97.5t-34 -77t-49 -58.5t-53 -42.5t-52 -28t-40 -16
t-22 -6.5v-2q11 -2 27.5 -7t49.5 -18.5t63.5 -31.5t65.5 -48.5t60 -67.5t42 -90.5t17 -115.5q0 -85 -38 -162.5t-107 -137t-175 -95t-233 -35.5t-233 35.5t-175 95t-107 137t-38 162.5zM266 1096q0 -122 102.5 -204.5t286.5 -82.5t286.5 82.5t102.5 204.5t-102.5 204
t-286.5 82t-286.5 -82t-102.5 -204zM205 389q0 -145 118 -241.5t332 -96.5t332.5 96.5t118.5 241.5q0 138 -119 233t-332 95t-331.5 -95t-118.5 -233z" />
    <glyph glyph-name="nine" unicode="9" horiz-adv-x="1239" 
d="M102 973q0 102 40.5 194.5t109.5 160t166.5 107.5t206.5 40q146 0 266 -67.5t188 -182.5t68 -252q0 -34 -3 -64t-12 -60t-16 -53t-24.5 -53l-28 -48t-35 -51t-37.5 -49.5t-44 -56t-46 -57.5l-379 -481h-112l385 492l14 18v2q-82 -41 -195 -41q-141 0 -259 67.5
t-185.5 183t-67.5 251.5zM205 973q0 -178 118 -294t302 -116q181 0 300 119.5t119 290.5q0 178 -117.5 293.5t-301.5 115.5t-302 -115.5t-118 -293.5z" />
    <glyph glyph-name="colon" unicode=":" horiz-adv-x="348" 
d="M92 942q0 33 22.5 57.5t59.5 24.5t59.5 -24.5t22.5 -57.5t-22.5 -57.5t-59.5 -24.5t-59.5 24.5t-22.5 57.5zM92 61q0 33 22.5 57.5t59.5 24.5t59.5 -24.5t22.5 -57.5q0 -32 -22.5 -56.5t-59.5 -24.5t-59.5 24.5t-22.5 56.5z" />
    <glyph glyph-name="semicolon" unicode=";" horiz-adv-x="368" 
d="M92 51q0 37 26.5 59.5t65.5 22.5q103 0 103 -153q0 -96 -47 -153t-127 -73v51q55 14 78.5 44t23.5 90q0 14 -2.5 26.5t-4.5 18.5l-3 6q-21 -10 -41 -10q-31 0 -51.5 20t-20.5 51zM102 942q0 33 22.5 57.5t59.5 24.5t59.5 -24.5t22.5 -57.5t-22.5 -57.5t-59.5 -24.5
t-59.5 24.5t-22.5 57.5z" />
    <glyph glyph-name="less" unicode="&#x3c;" horiz-adv-x="1003" 
d="M113 451v102l768 420v-103l-666 -358v-20l666 -359v-102z" />
    <glyph glyph-name="equal" unicode="=" horiz-adv-x="1003" 
d="M123 686v92h758v-92h-758zM123 307v92h758v-92h-758z" />
    <glyph glyph-name="greater" unicode="&#x3e;" horiz-adv-x="1003" 
d="M123 31v102l665 359v20l-665 358v103l768 -420v-102z" />
    <glyph glyph-name="question" unicode="?" horiz-adv-x="1075" 
d="M41 1075q2 8 5.5 22.5t20.5 56t39 79.5t62.5 84t90 79t124 56t160.5 23q196 0 323 -114.5t127 -275.5q0 -79 -25 -140.5t-64.5 -102t-87.5 -75t-96 -68.5t-87.5 -73.5t-64.5 -99.5t-25 -137h-103q0 87 25 155.5t64.5 112t88 80t96.5 69t87.5 68.5t64.5 89.5t25 121.5
q0 126 -96 211.5t-252 85.5q-69 0 -128 -17t-98.5 -44t-71.5 -60t-50.5 -65.5t-30.5 -59.5t-16 -44l-5 -17h-102zM410 61q0 33 22.5 57.5t59.5 24.5q36 0 58.5 -24.5t22.5 -57.5t-22 -57t-59 -24t-59.5 24.5t-22.5 56.5z" />
    <glyph glyph-name="at" unicode="@" horiz-adv-x="1679" 
d="M113 655q0 212 99 388.5t273 278t385 101.5q153 0 288.5 -51.5t228.5 -136.5t146.5 -196.5t53.5 -229.5q0 -218 -135.5 -344.5t-384.5 -126.5h-2v102h-2q-23 -34 -36 -48q-73 -75 -187 -75q-132 0 -225 96.5t-93 241.5t93 241.5t225 96.5q54 0 98.5 -16.5t70.5 -41.5
t37.5 -39.5t16.5 -25.5h2v103h102v-543q142 8 230 107.5t88 271.5q0 103 -45 198t-123.5 166.5t-195 114.5t-251.5 43q-140 0 -263.5 -51.5t-211.5 -140.5t-139 -214.5t-51 -269.5t51 -269.5t139 -214.5t211.5 -140t263.5 -51q67 0 132.5 11.5t111.5 28t83 33t55 27.5l18 12
v-102q-7 -4 -19 -11t-53 -25t-84.5 -31.5t-110 -24.5t-133.5 -11q-211 0 -385 101.5t-273 278t-99 388.5zM625 655q0 -114 62 -179.5t163 -65.5q87 0 151 70t64 175t-64 175.5t-151 70.5q-101 0 -163 -66t-62 -180z" />
    <glyph glyph-name="A" unicode="A" 
d="M61 0l379 1434h492l379 -1434h-103l-133 502h-778l-133 -502h-103zM317 594h738l-205 747h-328z" />
    <glyph glyph-name="B" unicode="B" horiz-adv-x="1443" 
d="M205 0v1434h655q175 0 287.5 -106.5t112.5 -262.5q0 -69 -21 -126.5t-51 -91t-60.5 -57t-51.5 -32.5l-21 -8v-2q6 -2 15.5 -5t37 -16t52.5 -29.5t56 -46t53 -64t37 -85.5t15 -109q0 -169 -125.5 -281t-335.5 -112h-655zM307 788h553q137 0 217 76.5t80 200.5t-80 200
t-217 76h-553v-553zM307 92h553q173 0 266 82t93 219q0 139 -93 221t-266 82h-553v-604z" />
    <glyph glyph-name="C" unicode="C" horiz-adv-x="1638" 
d="M113 717q0 216 96 390t262 271t369 97q113 0 212 -27.5t166.5 -72t123 -98t89 -107t56 -98t31.5 -72.5l8 -27h-103q-3 9 -8 23.5t-27 57t-49 81t-76 86t-105.5 81t-140 57t-177.5 23.5q-133 0 -248.5 -48t-198.5 -134t-130.5 -211t-47.5 -272q0 -196 81.5 -348.5
t223.5 -235t320 -82.5q76 0 144.5 15t120.5 40.5t98 58.5t78.5 70t59.5 73.5t44 69.5t28.5 58.5t16.5 40.5l4 15h102q-3 -11 -9.5 -30.5t-32 -74.5t-58 -105.5t-90.5 -112t-126 -105.5t-167.5 -74.5t-212.5 -30.5q-203 0 -369 97t-262 271t-96 390z" />
    <glyph glyph-name="D" unicode="D" horiz-adv-x="1474" 
d="M205 0v1434h440q155 0 290.5 -54.5t231 -149.5t150.5 -228t55 -285t-55 -285t-150.5 -228t-231 -149.5t-290.5 -54.5h-440zM307 92h338q277 0 451 174t174 451t-174 450.5t-451 173.5h-338v-1249z" />
    <glyph glyph-name="E" unicode="E" horiz-adv-x="1249" 
d="M205 0v1434h952v-93h-850v-563h697v-92h-697v-594h850v-92h-952z" />
    <glyph glyph-name="F" unicode="F" horiz-adv-x="1198" 
d="M205 0v1434h932v-93h-830v-604h666v-92h-666v-645h-102z" />
    <glyph glyph-name="G" unicode="G" horiz-adv-x="1761" 
d="M113 717q0 216 96 390t262 271t369 97q87 0 166.5 -17t139.5 -45.5t113 -65t90.5 -77.5t69 -82t50.5 -77.5t32.5 -65t18.5 -45.5l6 -17h-103q-3 8 -8.5 22.5t-28 56t-50.5 79t-77 83.5t-106 79.5t-139 56t-174 22.5q-133 0 -248.5 -48t-198.5 -134t-130.5 -211
t-47.5 -272q0 -196 81.5 -348.5t223.5 -235t320 -82.5q247 0 420.5 168t193.5 426h-297v92h584v-92h-185q-22 -201 -118.5 -357t-252 -242.5t-345.5 -86.5q-203 0 -369 97t-262 271t-96 390z" />
    <glyph glyph-name="H" unicode="H" horiz-adv-x="1474" 
d="M205 0v1434h102v-656h860v656h103v-1434h-103v686h-860v-686h-102z" />
    <glyph glyph-name="I" unicode="I" horiz-adv-x="512" 
d="M205 0v1434h102v-1434h-102z" />
    <glyph glyph-name="J" unicode="J" horiz-adv-x="1126" 
d="M0 317l102 21q1 -6 4 -16.5t16 -40t29.5 -57t47.5 -60.5t68 -56.5t93 -40t121 -16.5q171 0 265 99.5t94 289.5v994h102v-994q0 -229 -122 -355t-339 -126q-81 0 -152 19.5t-118.5 51.5t-86 70t-61 76t-37.5 70t-20 52z" />
    <glyph glyph-name="K" unicode="K" horiz-adv-x="1300" 
d="M205 0v1434h102v-666h348l471 666h123l-501 -707l522 -727h-123l-492 676h-348v-676h-102z" />
    <glyph glyph-name="L" unicode="L" horiz-adv-x="1126" 
d="M205 0v1434h102v-1342h789v-92h-891z" />
    <glyph glyph-name="M" unicode="M" horiz-adv-x="1884" 
d="M205 0v1434h164l501 -973h144l502 973h163v-1434h-102v1321l2 20h-2l-502 -972h-266l-502 972h-2l2 -20v-1321h-102z" />
    <glyph glyph-name="N" unicode="N" horiz-adv-x="1495" 
d="M205 0v1434h164l819 -1342h2l-2 21v1321h102v-1434h-164l-819 1341h-2l2 -20v-1321h-102z" />
    <glyph glyph-name="O" unicode="O" horiz-adv-x="1679" 
d="M113 717q0 216 96 390t262 271t369 97t369 -97t262 -271t96 -390t-96 -390t-262 -271t-369 -97t-369 97t-262 271t-96 390zM215 717q0 -196 81.5 -348.5t223.5 -235t320 -82.5q133 0 248.5 48.5t198 134.5t130 211t47.5 272t-47.5 272t-130 211t-198 134t-248.5 48
t-248.5 -48t-198.5 -134t-130.5 -211t-47.5 -272z" />
    <glyph glyph-name="P" unicode="P" 
d="M205 0v1434h573q226 0 364 -127.5t138 -323.5q0 -202 -137.5 -331.5t-364.5 -129.5h-471v-522h-102zM307 614h471q190 0 295 99t105 270q0 164 -105.5 261t-294.5 97h-471v-727z" />
    <glyph glyph-name="Q" unicode="Q" horiz-adv-x="1679" 
d="M113 717q0 216 96 390t262 271t369 97t369 -97t262 -271t96 -390q0 -155 -52 -291.5t-142 -235t-215 -159t-267 -70.5v-371h-103v371q-143 10 -267.5 70.5t-214.5 159t-141.5 235t-51.5 291.5zM215 717q0 -196 81.5 -348.5t223.5 -235t320 -82.5q133 0 248.5 48.5
t198 134.5t130 211t47.5 272t-47.5 272t-130 211t-198 134t-248.5 48t-248.5 -48t-198.5 -134t-130.5 -211t-47.5 -272z" />
    <glyph glyph-name="R" unicode="R" horiz-adv-x="1392" 
d="M205 0v1434h583q226 0 359 -120.5t133 -309.5q0 -178 -99 -289t-290 -142l369 -573h-113l-369 563h-471v-563h-102zM307 655h481q189 0 289.5 92.5t100.5 256.5q0 157 -100.5 247t-289.5 90h-481v-686z" />
    <glyph glyph-name="S" unicode="S" horiz-adv-x="1300" 
d="M92 369h103q2 -7 5.5 -18.5t19.5 -44.5t36.5 -63t58.5 -66.5t83 -63t112.5 -44.5t144.5 -18q205 0 317.5 88t112.5 219q0 65 -32 116t-85.5 85t-123.5 61t-147.5 49.5t-154.5 46.5t-147 57t-123.5 74.5t-85.5 105t-32 143.5q0 153 133.5 266t347.5 113q94 0 175 -20.5
t135 -53t97 -72t67.5 -78.5t41 -71.5t21.5 -53.5l6 -20h-103q-1 6 -4.5 16t-18 38.5t-34 54.5t-55.5 58t-79.5 55t-108.5 38.5t-140 15.5q-177 0 -278 -82.5t-101 -203.5q0 -65 32 -116t86 -85t123.5 -61t147 -49.5t155 -46.5t147 -57t123.5 -74.5t86 -105t32 -143.5
q0 -77 -36.5 -148.5t-102.5 -127.5t-168.5 -89.5t-225.5 -33.5q-77 0 -145.5 14t-119.5 38t-94.5 54.5t-73.5 64.5t-53.5 68t-37.5 64.5t-23 54.5t-12 38z" />
    <glyph glyph-name="T" unicode="T" horiz-adv-x="1187" 
d="M20 1341v93h1147v-93h-522v-1341h-102v1341h-523z" />
    <glyph glyph-name="U" unicode="U" horiz-adv-x="1454" 
d="M184 522v912h103v-912q0 -221 119 -346t321 -125t321 125t119 346v912h103v-912q0 -252 -152 -407.5t-391 -155.5t-391 155.5t-152 407.5z" />
    <glyph glyph-name="V" unicode="V" horiz-adv-x="1382" 
d="M72 1434h112l348 -1342h318l348 1342h113l-381 -1434h-479z" />
    <glyph glyph-name="W" unicode="W" horiz-adv-x="1966" 
d="M92 1434h113l287 -1342h81l297 1342h226l297 -1342h82l286 1342h113l-318 -1434h-245l-297 1341h-62l-297 -1341h-245z" />
    <glyph glyph-name="X" unicode="X" horiz-adv-x="1280" 
d="M51 0l389 717l-368 717h112l348 -666h216l348 666h112l-368 -717l389 -717h-113l-368 676h-216l-368 -676h-113z" />
    <glyph glyph-name="Y" unicode="Y" horiz-adv-x="1290" 
d="M31 1434h123l491 -809h2l490 809h123l-564 -922v-512h-102v512z" />
    <glyph glyph-name="Z" unicode="Z" horiz-adv-x="1228" 
d="M82 0v92l942 1247v2h-911v93h1024v-93l-942 -1247v-2h952v-92h-1065z" />
    <glyph glyph-name="bracketleft" unicode="[" horiz-adv-x="665" 
d="M205 -297v1782h409v-92h-307v-1598h307v-92h-409z" />
    <glyph glyph-name="backslash" unicode="\" horiz-adv-x="706" 
d="M20 1434h103l563 -1434h-102z" />
    <glyph glyph-name="bracketright" unicode="]" horiz-adv-x="665" 
d="M51 -297v92h307v1598h-307v92h410v-1782h-410z" />
    <glyph glyph-name="asciicircum" unicode="^" horiz-adv-x="942" 
d="M102 788l297 646h144l297 -646h-103l-245 553h-41l-246 -553h-103z" />
    <glyph glyph-name="underscore" unicode="_" horiz-adv-x="624" 
d="M-41 -328v92h707v-92h-707z" />
    <glyph glyph-name="grave" unicode="`" horiz-adv-x="440" 
d="M61 1421v2h123l195 -286h-82z" />
    <glyph glyph-name="a" unicode="a" horiz-adv-x="1259" 
d="M102 502q0 145 67.5 265.5t180 188.5t244.5 68q77 0 143 -20.5t112.5 -54.5t78.5 -71t53 -79h2v205h102v-1004h-102v205h-2q-21 -42 -53 -79t-78.5 -71t-112.5 -54.5t-143 -20.5q-132 0 -244.5 68t-180 188.5t-67.5 265.5zM205 502q0 -189 112.5 -309.5t276.5 -120.5
t276.5 120.5t112.5 309.5t-112.5 309.5t-276.5 120.5t-276.5 -120.5t-112.5 -309.5z" />
    <glyph glyph-name="b" unicode="b" horiz-adv-x="1259" 
d="M174 0v1434h102v-635h3q21 42 53 79t78.5 71t112.5 54.5t143 20.5q132 0 244.5 -68t179.5 -188.5t67 -265.5t-67 -265.5t-179.5 -188.5t-244.5 -68q-77 0 -143 20.5t-112.5 54.5t-78.5 71t-53 79h-3v-205h-102zM276 502q0 -189 113 -309.5t277 -120.5t276.5 120.5
t112.5 309.5t-112.5 309.5t-276.5 120.5t-277 -120.5t-113 -309.5z" />
    <glyph glyph-name="c" unicode="c" horiz-adv-x="1167" 
d="M102 502q0 145 67.5 265.5t180 188.5t244.5 68q77 0 145.5 -18.5t116 -48.5t86.5 -66t63 -72t40.5 -66t22.5 -49l7 -18h-102q-4 10 -12 26.5t-39 59t-70.5 75t-108.5 59t-149 26.5q-164 0 -276.5 -120.5t-112.5 -309.5t112.5 -309.5t276.5 -120.5q61 0 115 16t92 41
t70.5 55.5t52.5 61t34 55.5t20 41l5 16h102q-2 -8 -6.5 -21.5t-23 -53t-41.5 -75t-64 -79t-88.5 -75t-118 -53t-149.5 -21.5q-132 0 -244.5 68t-180 188.5t-67.5 265.5z" />
    <glyph glyph-name="d" unicode="d" horiz-adv-x="1259" 
d="M102 502q0 145 67.5 265.5t180 188.5t244.5 68q77 0 143 -20.5t112.5 -54.5t78.5 -71t53 -79h2v635h102v-1434h-102v205h-2q-21 -42 -53 -79t-78.5 -71t-112.5 -54.5t-143 -20.5q-132 0 -244.5 68t-180 188.5t-67.5 265.5zM205 502q0 -189 112.5 -309.5t276.5 -120.5
t276.5 120.5t112.5 309.5t-112.5 309.5t-276.5 120.5t-276.5 -120.5t-112.5 -309.5z" />
    <glyph glyph-name="e" unicode="e" horiz-adv-x="1208" 
d="M102 502q0 146 67.5 266t182.5 188t252 68q226 0 364 -153t138 -388v-2h-901q0 -176 114.5 -292.5t284.5 -116.5q59 0 111.5 13.5t89.5 35t68.5 47.5t51 52.5t33.5 48t20 35.5l5 13h102q-2 -7 -7 -19t-23.5 -47t-41.5 -67t-63.5 -71t-87 -67t-114.5 -47t-144 -19
q-137 0 -252 68t-182.5 188t-67.5 266zM205 573h799q-15 149 -128.5 254t-271.5 105t-266.5 -101t-132.5 -258z" />
    <glyph glyph-name="f" unicode="f" horiz-adv-x="604" 
d="M61 911v93h144v430h450v-95h-348v-335h287v-93h-287v-911h-102v911h-144z" />
    <glyph glyph-name="g" unicode="g" horiz-adv-x="1259" 
d="M102 502q0 145 67.5 265.5t180 188.5t244.5 68q77 0 143 -20.5t112.5 -54.5t78.5 -71t53 -79h2v205h102v-1393h-849v94h747v500h-2q-21 -42 -53 -79t-78.5 -71t-112.5 -54.5t-143 -20.5q-132 0 -244.5 68t-180 188.5t-67.5 265.5zM205 502q0 -189 112.5 -309.5
t276.5 -120.5t276.5 120.5t112.5 309.5t-112.5 309.5t-276.5 120.5t-276.5 -120.5t-112.5 -309.5z" />
    <glyph glyph-name="h" unicode="h" horiz-adv-x="1177" 
d="M174 0v1434h102v-615h3q21 38 51 71.5t73.5 65t106 50t135.5 18.5q172 0 280.5 -117t108.5 -313v-594h-102v594q0 166 -78 252t-219 86q-155 0 -257 -106t-102 -273v-553h-102z" />
    <glyph glyph-name="i" unicode="i" horiz-adv-x="450" 
d="M143 1331q0 33 22.5 57.5t59.5 24.5t59.5 -24.5t22.5 -57.5t-22.5 -57.5t-59.5 -24.5t-59.5 24.5t-22.5 57.5zM174 0v1004h102v-1004h-102z" />
    <glyph glyph-name="j" unicode="j" horiz-adv-x="450" 
d="M143 1331q0 33 22.5 57.5t59.5 24.5t59.5 -24.5t22.5 -57.5t-22.5 -57.5t-59.5 -24.5t-59.5 24.5t-22.5 57.5zM-123 -389v92h297v1301h102v-1393h-399z" />
    <glyph glyph-name="k" unicode="k" horiz-adv-x="1054" 
d="M174 0v1434h102v-850h267l338 420h123l-379 -472l409 -532h-123l-368 492h-267v-492h-102z" />
    <glyph glyph-name="l" unicode="l" horiz-adv-x="542" 
d="M174 0v1434h102v-1342h236v-92h-338z" />
    <glyph glyph-name="m" unicode="m" horiz-adv-x="1863" 
d="M174 0v1004h102v-175h3l5.5 11t18 27.5t32 38.5t47 40.5t63 39t81 27.5t99.5 11t98.5 -12.5t78.5 -32.5t59 -43.5t43 -47.5t27.5 -44t16.5 -32l4 -13h11q4 9 11.5 24t38.5 54t70 68.5t108 54t150 24.5q158 0 263.5 -117.5t105.5 -312.5v-594h-102v594q0 164 -75 251
t-202 87q-139 0 -238.5 -101.5t-99.5 -246.5v-584h-102v594q0 164 -75 251t-202 87q-139 0 -238.5 -101.5t-99.5 -246.5v-584h-102z" />
    <glyph glyph-name="n" unicode="n" horiz-adv-x="1187" 
d="M174 0v1004h102v-185h3q21 38 51 71.5t73.5 65t106 50t135.5 18.5q172 0 280.5 -117t108.5 -313v-594h-102v594q0 166 -78 252t-219 86q-155 0 -257 -106t-102 -273v-553h-102z" />
    <glyph glyph-name="o" unicode="o" horiz-adv-x="1228" 
d="M102 502q0 146 68 266t185 188t259 68t259 -68t185 -188t68 -266t-68 -266t-185 -188t-259 -68t-259 68t-185 188t-68 266zM205 502q0 -191 115.5 -310.5t293.5 -119.5t294 119.5t116 310.5t-116 310.5t-294 119.5t-293.5 -119.5t-115.5 -310.5z" />
    <glyph glyph-name="p" unicode="p" horiz-adv-x="1259" 
d="M174 -389v1393h102v-205h3q21 42 53 79t78.5 71t112.5 54.5t143 20.5q132 0 244.5 -68t179.5 -188.5t67 -265.5t-67 -265.5t-179.5 -188.5t-244.5 -68q-77 0 -143 20.5t-112.5 54.5t-78.5 71t-53 79h-3v-594h-102zM276 502q0 -189 113 -309.5t277 -120.5t276.5 120.5
t112.5 309.5t-112.5 309.5t-276.5 120.5t-277 -120.5t-113 -309.5z" />
    <glyph glyph-name="q" unicode="q" horiz-adv-x="1259" 
d="M102 502q0 145 67.5 265.5t180 188.5t244.5 68q77 0 143 -20.5t112.5 -54.5t78.5 -71t53 -79h2v205h102v-1393h-102v594h-2q-21 -42 -53 -79t-78.5 -71t-112.5 -54.5t-143 -20.5q-132 0 -244.5 68t-180 188.5t-67.5 265.5zM205 502q0 -189 112.5 -309.5t276.5 -120.5
t276.5 120.5t112.5 309.5t-112.5 309.5t-276.5 120.5t-276.5 -120.5t-112.5 -309.5z" />
    <glyph glyph-name="r" unicode="r" horiz-adv-x="747" 
d="M174 0v1004h102v-195h3q1 4 4.5 11.5t16 29t28.5 40.5t45 43t62.5 41t83.5 28.5t106 11.5h112v-92h-112q-155 0 -252 -101t-97 -268v-553h-102z" />
    <glyph glyph-name="s" unicode="s" horiz-adv-x="1044" 
d="M92 297h113q3 -9 9.5 -24t34 -54t62.5 -68.5t100 -54t142 -24.5q147 0 217 52t70 142q0 57 -38.5 96t-100 60t-135.5 37.5t-148.5 37t-136 49t-100 82.5t-38.5 130q0 107 100.5 186.5t268.5 79.5q71 0 132.5 -15t103 -39.5t75.5 -54t53.5 -59t33 -54t18.5 -39.5l4 -15
h-113q-2 7 -8 19.5t-29.5 44.5t-55 56t-88.5 44t-126 20q-131 0 -198.5 -50t-67.5 -124q0 -56 38.5 -94t100 -58.5t135.5 -36.5t148 -36.5t135.5 -50t100 -84.5t38.5 -132q0 -122 -102.5 -204t-286.5 -82q-77 0 -144.5 17.5t-113 45.5t-82.5 61.5t-59 67.5t-36.5 62
t-19.5 46z" />
    <glyph glyph-name="t" unicode="t" horiz-adv-x="716" 
d="M61 911v93h144v225h102v-225h338v-93h-338v-819h348v-92h-450v911h-144z" />
    <glyph glyph-name="u" unicode="u" horiz-adv-x="1208" 
d="M174 410v594h102v-594q0 -166 78 -252t219 -86q155 0 257 106t102 273v553h102v-1004h-102v184h-2q-21 -38 -51 -71.5t-74 -64.5t-106.5 -49.5t-135.5 -18.5q-172 0 -280.5 117t-108.5 313z" />
    <glyph glyph-name="v" unicode="v" horiz-adv-x="1075" 
d="M61 1004h103l256 -912h235l256 912h103l-287 -1004h-379z" />
    <glyph glyph-name="w" unicode="w" horiz-adv-x="1587" 
d="M82 1004h102l205 -912h92l195 912h235l195 -912h92l205 912h102l-225 -1004h-256l-195 911h-71l-195 -911h-256z" />
    <glyph glyph-name="x" unicode="x" horiz-adv-x="972" 
d="M20 0l308 522l-287 482h113l256 -431h153l256 431h113l-287 -482l307 -522h-112l-277 481h-153l-277 -481h-113z" />
    <glyph glyph-name="y" unicode="y" horiz-adv-x="1034" 
d="M61 1004h113l236 -912h215l266 912h113l-420 -1393h-113l133 389h-266z" />
    <glyph glyph-name="z" unicode="z" horiz-adv-x="972" 
d="M72 0v92l686 817v2h-666v93h789v-93l-686 -817v-2h706v-92h-829z" />
    <glyph glyph-name="braceleft" unicode="{" horiz-adv-x="686" 
d="M102 553v92h62q56 0 84 32.5t28 90.5v492q0 101 66 163t180 62h123v-92h-123q-68 0 -105.5 -35.5t-37.5 -97.5v-492q0 -38 -11.5 -69t-28.5 -48t-33.5 -28.5t-27.5 -14.5l-12 -4v-10q5 -1 12.5 -3.5t27 -14.5t34.5 -28.5t27 -48t12 -69.5v-502q0 -62 37.5 -97.5
t105.5 -35.5h123v-92h-123q-114 0 -180 62t-66 163v502q0 58 -28 90.5t-84 32.5h-62z" />
    <glyph glyph-name="bar" unicode="|" horiz-adv-x="593" 
d="M246 -205v1741h102v-1741h-102z" />
    <glyph glyph-name="braceright" unicode="}" horiz-adv-x="686" 
d="M41 -297v92h123q68 0 105.5 35.5t37.5 97.5v502q0 38 11.5 69t28.5 48t33.5 28.5t27.5 14.5l12 4v10q-5 1 -12.5 3.5t-27 14.5t-34.5 28.5t-27 48t-12 69.5v492q0 62 -37.5 97.5t-105.5 35.5h-123v92h123q114 0 180 -62t66 -163v-492q0 -58 28 -90.5t84 -32.5h62v-92h-62
q-56 0 -84 -32.5t-28 -90.5v-502q0 -101 -66 -163t-180 -62h-123z" />
    <glyph glyph-name="asciitilde" unicode="~" horiz-adv-x="1003" 
d="M92 512v51q0 105 60 165t155 60q59 0 118.5 -30.5t100.5 -66.5t91 -66.5t90 -30.5q112 0 112 133v51h103v-51q0 -105 -60 -165t-155 -60q-59 0 -118.5 30.5t-100.5 66.5t-91 66.5t-90 30.5q-112 0 -112 -133v-51h-103z" />
    <glyph glyph-name="nbspace" unicode="&#xa0;" horiz-adv-x="573" 
 />
    <glyph glyph-name="exclamdown" unicode="&#xa1;" horiz-adv-x="573" 
d="M205 942q0 33 22.5 57.5t59.5 24.5t59.5 -24.5t22.5 -57.5t-22.5 -57.5t-59.5 -24.5t-59.5 24.5t-22.5 57.5zM236 -389v717l20 276h61l21 -276v-717h-102z" />
    <glyph glyph-name="cent" unicode="&#xa2;" horiz-adv-x="1167" 
d="M102 502q0 204 127.5 350.5t313.5 167.5v188h102v-186q69 -6 129.5 -27.5t103 -51.5t77.5 -65t56.5 -69t36.5 -61.5t21 -44.5l6 -17h-102q-4 10 -12 26.5t-39 59t-70.5 75t-108.5 59t-149 26.5q-164 0 -276.5 -120.5t-112.5 -309.5t112.5 -309.5t276.5 -120.5
q61 0 115 16t92 41t70.5 55.5t52.5 61t34 55.5t20 41l5 16h102q-2 -7 -6 -19.5t-20.5 -48.5t-37.5 -69.5t-57.5 -75.5t-79.5 -73.5t-105.5 -56.5t-133.5 -31v-189h-102v189q-186 19 -313.5 165.5t-127.5 352.5z" />
    <glyph glyph-name="sterling" unicode="&#xa3;" horiz-adv-x="1105" 
d="M61 0v92h31q164 0 164 174v461h-154v92h154v287q0 169 110 279t279 110q69 0 127.5 -17t97.5 -44t70 -60t48 -65.5t28 -59.5t14 -44l4 -17h-102q-2 9 -7 23.5t-26.5 51.5t-50.5 65.5t-83 51.5t-120 23q-131 0 -209 -80t-78 -217v-287h357v-92h-357v-461q0 -36 -7 -66.5
t-15.5 -48t-21 -32t-17.5 -18t-10 -7.5v-2h778v-92h-1004z" />
    <glyph glyph-name="currency" unicode="&#xa4;" 
d="M72 246v92h184v194h-184v93h184v809h522q226 0 364 -127.5t138 -323.5t-138 -323.5t-364 -127.5h-420v-194h533v-92h-533v-246h-102v246h-184zM358 625h420q189 0 294.5 97t105.5 261t-105.5 261t-294.5 97h-420v-716z" />
    <glyph glyph-name="yen" unicode="&#xa5;" horiz-adv-x="1290" 
d="M31 1434h123l491 -799h2l490 799h123l-553 -891h317v-92h-328v-164h328v-92h-328v-195h-102v195h-328v92h328v164h-328v92h318z" />
    <glyph glyph-name="brokenbar" unicode="&#xa6;" horiz-adv-x="593" 
d="M246 788v748h102v-748h-102zM246 -205v748h102v-748h-102z" />
    <glyph glyph-name="section" unicode="&#xa7;" horiz-adv-x="1157" 
d="M133 246h113q3 -8 8.5 -21t31 -46.5t60 -59.5t98 -47t140.5 -21q166 0 241.5 51t75.5 134q0 54 -42.5 93t-110 62t-149.5 42t-164 42t-149.5 53t-110 83t-42.5 126q0 84 62 148.5t163 87.5v2q-88 40 -141 98t-53 125q0 116 106.5 196.5t302.5 80.5q59 0 112 -9.5
t92.5 -25.5t73.5 -37t57.5 -44t42.5 -45.5t30.5 -43.5t19 -37t10.5 -25l3 -10h-113q-2 7 -7 19.5t-29 44.5t-57 56t-95.5 44t-139.5 20q-159 0 -233 -51t-74 -133q0 -54 42 -93.5t108.5 -62t147.5 -42t162 -42t147.5 -53t108.5 -83.5t42 -126q0 -84 -62 -146.5t-163 -86.5
v-2q90 -41 147.5 -100t57.5 -125q0 -116 -108.5 -196.5t-311.5 -80.5q-59 0 -112.5 10t-93.5 26.5t-75 38t-59 45.5t-44 47.5t-32 45t-20.5 38t-11.5 26.5zM236 737q0 -30 13.5 -54.5t41 -44t58 -34.5t77.5 -29.5t84 -24t93.5 -24t92.5 -24.5q105 23 165.5 77t60.5 117
q0 26 -11.5 48.5t-29.5 40t-48.5 33t-60 27t-72 24t-76.5 21t-82 21t-81 21.5q-104 -23 -164.5 -77t-60.5 -118z" />
    <glyph glyph-name="dieresis" unicode="&#xa8;" horiz-adv-x="634" 
d="M410 1341q0 34 24 58t58 24t57.5 -24t23.5 -58t-23.5 -57.5t-57.5 -23.5t-58 23.5t-24 57.5zM61 1341q0 34 24 58t58 24t58 -24t24 -58t-24 -57.5t-58 -23.5t-58 23.5t-24 57.5z" />
    <glyph glyph-name="copyright" unicode="&#xa9;" horiz-adv-x="1720" 
d="M113 717q0 159 58 299.5t157.5 241t238 159t293.5 58.5q207 0 378.5 -99t270.5 -273t99 -386t-99 -386t-270.5 -273t-378.5 -99q-155 0 -293.5 58.5t-238 159t-157.5 241t-58 299.5zM205 717q0 -192 84.5 -344t234 -237t336.5 -85t337 85t234.5 237t84.5 344t-84.5 344
t-234.5 236.5t-337 84.5t-336.5 -84.5t-234 -236.5t-84.5 -344zM512 717q0 167 101.5 273t256.5 106q52 0 99 -13.5t80 -35.5t61 -48t45.5 -52t30 -48t17.5 -35l5 -14h-102q-2 6 -6.5 16.5t-23.5 37t-43 47t-67.5 37t-95.5 16.5q-109 0 -182.5 -79.5t-73.5 -207.5
q0 -130 70 -208.5t186 -78.5q49 0 91.5 16t68 38.5t44 45t25.5 38.5l7 16h102q-2 -5 -5.5 -14t-17 -34.5t-30 -48.5t-45 -51.5t-61.5 -49t-80 -34.5t-99 -14q-155 0 -256.5 106t-101.5 273z" />
    <glyph glyph-name="ordfeminine" unicode="&#xaa;" horiz-adv-x="798" 
d="M102 963q0 88 63.5 141t182.5 53h225v41q0 76 -41.5 120t-111.5 44q-40 0 -73.5 -11.5t-53 -28t-33.5 -33.5t-19 -29l-5 -11h-113q2 4 5 11.5t14.5 29t26 40.5t40 43t54 41t70 28.5t87.5 11.5q107 0 181.5 -74.5t74.5 -181.5v-430h-103v113h-2q-3 -5 -8.5 -13.5
t-26 -29.5t-45 -37t-65.5 -29.5t-86 -13.5q-106 0 -172 59t-66 146zM205 963q0 -113 143 -113q91 0 158 64.5t67 150.5h-225q-143 0 -143 -102z" />
    <glyph glyph-name="guillemotleft" unicode="&#xab;" horiz-adv-x="1064" 
d="M471 512l410 481l71 -71l-358 -410l358 -410l-71 -71zM82 512l410 481l71 -71l-358 -410l358 -410l-71 -71z" />
    <glyph glyph-name="logicalnot" unicode="&#xac;" horiz-adv-x="1003" 
d="M113 594v92h757v-317h-102v225h-655z" />
    <glyph glyph-name="uni00AD" unicode="&#xad;" horiz-adv-x="972" 
d="M123 532v93h727v-93h-727z" />
    <glyph glyph-name="registered" unicode="&#xae;" horiz-adv-x="1228" 
d="M92 952q0 146 67 265.5t187 188.5t268 69t268 -69t187.5 -188.5t67.5 -265.5q0 -222 -149 -372t-374 -150q-148 0 -268 68.5t-187 188t-67 265.5zM184 952q0 -183 123 -306.5t307 -123.5t307 123.5t123 306.5t-123 306.5t-307 123.5t-307 -123.5t-123 -306.5zM430 707
v501h215q97 0 151 -47t54 -121q0 -53 -31 -90t-61 -48l-31 -11l123 -184h-102l-113 163h-113v-163h-92zM522 963h137q99 0 99 77q0 76 -103 76h-133v-153z" />
    <glyph glyph-name="macron" unicode="&#xaf;" horiz-adv-x="624" 
d="M61 1321v92h502v-92h-502z" />
    <glyph glyph-name="degree" unicode="&#xb0;" horiz-adv-x="675" 
d="M72 1178q0 108 75.5 182t190.5 74t190.5 -74t75.5 -182t-75.5 -182t-190.5 -74t-190.5 74t-75.5 182zM164 1178q0 -76 49 -125t125 -49t125 49t49 125t-49 125t-125 49t-125 -49t-49 -125z" />
    <glyph glyph-name="plusminus" unicode="&#xb1;" horiz-adv-x="1003" 
d="M102 82v92h349v358h-349v93h349v368h102v-368h348v-93h-348v-358h348v-92h-799z" />
    <glyph glyph-name="twosuperior" unicode="&#xb2;" horiz-adv-x="706" 
d="M72 942v92l174 103q148 88 212 153t64 133q0 63 -44.5 103.5t-119.5 40.5q-40 0 -73.5 -13.5t-53 -33t-33.5 -39.5t-19 -33l-5 -14h-102q2 9 7 24t26 54t50 68.5t83 54t120 24.5q113 0 190 -70.5t77 -165.5q0 -88 -68.5 -165t-198.5 -152l-102 -59l-20 -13v-2l20 2h379
v-92h-563z" />
    <glyph glyph-name="threesuperior" unicode="&#xb3;" horiz-adv-x="696" 
d="M61 1137h113q1 -5 4 -13.5t16.5 -29.5t32 -37t53.5 -29.5t78 -13.5q74 0 119 38.5t45 94.5q0 133 -174 133h-143v92l235 172v2l-20 -2h-318v94h482v-94l-215 -155l-21 -15v-2h10q120 0 193.5 -65t73.5 -160q0 -89 -77 -157t-190 -68q-52 0 -96.5 12t-74.5 31t-53.5 42
t-36.5 45.5t-21.5 41.5t-11.5 31z" />
    <glyph glyph-name="acute" unicode="&#xb4;" horiz-adv-x="440" 
d="M61 1137l195 286h123v-2l-236 -284h-82z" />
    <glyph glyph-name="mu" unicode="&#xb5;" horiz-adv-x="1208" 
d="M174 -399v1403h102v-594q0 -167 81.5 -252.5t236.5 -85.5q141 0 239.5 106.5t98.5 272.5v553h102v-1004h-102v184h-2q-46 -83 -131.5 -143.5t-204.5 -60.5q-50 0 -95 9t-76 23.5t-57 32t-42.5 34.5t-27.5 31.5t-16 23.5l-4 9h-2l2 -20v-522h-102z" />
    <glyph glyph-name="paragraph" unicode="&#xb6;" horiz-adv-x="757" 
d="M61 1085q0 148 106.5 248.5t272.5 100.5h256v-93h-174v-1730h-102v1137q-152 0 -255.5 99t-103.5 238z" />
    <glyph glyph-name="periodcentered" unicode="&#xb7;" horiz-adv-x="573" 
d="M205 535q0 31 22.5 55t59.5 24t59.5 -24.5t22.5 -57.5q0 -32 -22.5 -56.5t-59.5 -24.5t-59.5 25t-22.5 59z" />
    <glyph glyph-name="cedilla" unicode="&#xb8;" horiz-adv-x="471" 
d="M61 -430v82q6 -5 17 -11.5t48.5 -18t78.5 -11.5q53 0 82.5 27.5t29.5 74.5t-31 75t-91 28h-72l92 204h92l-61 -133q70 -8 117 -57t47 -117q0 -78 -57 -131t-148 -53q-41 0 -77 10.5t-52 20.5z" />
    <glyph glyph-name="onesuperior" unicode="&#xb9;" horiz-adv-x="675" 
d="M113 942v92h204v492l-184 -113v113l195 112h92v-604h194v-92h-501z" />
    <glyph glyph-name="ordmasculine" unicode="&#xba;" horiz-adv-x="839" 
d="M82 1106q0 145 99.5 246.5t238.5 101.5t238.5 -101.5t99.5 -246.5t-99.5 -246.5t-238.5 -101.5t-238.5 101.5t-99.5 246.5zM184 1106q0 -114 67.5 -185t168.5 -71t168 71t67 185t-67 185t-168 71t-168.5 -71t-67.5 -185z" />
    <glyph glyph-name="guillemotright" unicode="&#xbb;" horiz-adv-x="1064" 
d="M502 102l358 410l-358 410l71 71l410 -481l-410 -481zM113 102l358 410l-358 410l71 71l410 -481l-410 -481z" />
    <glyph glyph-name="onequarter" unicode="&#xbc;" horiz-adv-x="1484" 
d="M113 737v92h204v492l-184 -113v113l195 113h92v-605h194v-92h-501zM328 0l891 1434h102l-891 -1434h-102zM891 164v92l276 440h113l-285 -440h254v154h103v-154h102v-92h-102v-164h-103v164h-358z" />
    <glyph glyph-name="onehalf" unicode="&#xbd;" horiz-adv-x="1597" 
d="M113 737v92h204v492l-184 -113v113l195 113h92v-605h194v-92h-501zM328 0l891 1434h102l-891 -1434h-102zM963 0v92l174 103q148 88 212 153t64 133q0 63 -44.5 103.5t-119.5 40.5q-40 0 -73.5 -13.5t-53 -33.5t-33.5 -39.5t-19 -32.5l-5 -14h-102q2 9 7 24t26 54
t50 68.5t83 54t120 24.5q113 0 190 -70.5t77 -165.5q0 -88 -68.5 -165t-198.5 -152l-102 -60l-21 -12v-2l21 2h379v-92h-563z" />
    <glyph glyph-name="threequarters" unicode="&#xbe;" horiz-adv-x="1495" 
d="M61 932h113q1 -5 4 -13.5t16.5 -29.5t32 -37t53.5 -29.5t78 -13.5q74 0 119 38.5t45 94.5q0 133 -174 133h-143v92l235 172v2l-20 -2h-318v95h482v-95l-215 -155l-21 -15v-2h10q120 0 193.5 -65t73.5 -160q0 -89 -77 -157t-190 -68q-52 0 -96.5 12t-74.5 31t-53.5 41.5
t-36.5 45.5t-21.5 42t-11.5 31zM328 0l891 1434h102l-891 -1434h-102zM901 164v92l277 440h112l-284 -440h254v154h102v-154h102v-92h-102v-164h-102v164h-359z" />
    <glyph glyph-name="questiondown" unicode="&#xbf;" horiz-adv-x="1075" 
d="M502 942q0 33 22.5 57.5t59.5 24.5t59.5 -24.5t22.5 -57.5t-22.5 -57.5t-59.5 -24.5t-59.5 24.5t-22.5 57.5zM82 -41q0 79 25 138.5t64.5 96t87.5 66.5l96 60t87.5 66t64.5 93.5t25 134.5h103q0 -87 -25 -153t-64.5 -106t-87.5 -72t-96.5 -60.5t-88 -60.5t-64.5 -83.5
t-25 -119.5q0 -124 94.5 -200t253.5 -76q69 0 128 17t98.5 44t71.5 59.5t50.5 65.5t30.5 60t17 44l4 17h102q-2 -8 -5.5 -22.5t-20.5 -56t-39 -79.5t-62.5 -84t-90 -79t-124 -56t-160.5 -23q-199 0 -324.5 105t-125.5 264z" />
    <glyph glyph-name="Agrave" unicode="&#xc0;" 
d="M61 0l379 1434h492l379 -1434h-103l-133 502h-778l-133 -502h-103zM317 594h738l-205 747h-328zM410 1903v2h122l195 -287h-82z" />
    <glyph glyph-name="Aacute" unicode="&#xc1;" 
d="M61 0l379 1434h492l379 -1434h-103l-133 502h-778l-133 -502h-103zM317 594h738l-205 747h-328zM635 1618l194 287h123v-2l-235 -285h-82z" />
    <glyph glyph-name="Acircumflex" unicode="&#xc2;" 
d="M61 0l379 1434h492l379 -1434h-103l-133 502h-778l-133 -502h-103zM317 594h738l-205 747h-328zM410 1618v2l225 295h102l226 -295v-2h-103l-164 215h-20l-164 -215h-102z" />
    <glyph glyph-name="Atilde" unicode="&#xc3;" 
d="M61 0l379 1434h492l379 -1434h-103l-133 502h-778l-133 -502h-103zM317 594h738l-205 747h-328zM389 1638v48q0 72 46.5 119.5t117.5 47.5q45 0 86 -21t66.5 -45.5t56 -45.5t57.5 -21q31 0 51.5 21.5t20.5 56.5v45h92v-47q0 -72 -47 -120t-117 -48q-45 0 -86 21
t-66.5 45.5t-56 45.5t-57.5 21q-31 0 -51.5 -21.5t-20.5 -56.5v-45h-92z" />
    <glyph glyph-name="Adieresis" unicode="&#xc4;" 
d="M61 0l379 1434h492l379 -1434h-103l-133 502h-778l-133 -502h-103zM317 594h738l-205 747h-328zM778 1741q0 34 24 58t58 24t58 -24t24 -58t-24 -58t-58 -24t-58 24t-24 58zM430 1741q0 34 24 58t58 24t58 -24t24 -58t-24 -58t-58 -24t-58 24t-24 58z" />
    <glyph glyph-name="Aring" unicode="&#xc5;" 
d="M61 0l379 1434h492l379 -1434h-103l-133 502h-778l-133 -502h-103zM317 594h738l-205 747h-328zM481 1761q0 85 60 145t145 60t145 -60t60 -145t-60 -145t-145 -60t-145 60t-60 145zM563 1761q0 -54 34.5 -88.5t88.5 -34.5t88.5 34.5t34.5 88.5t-34.5 88.5t-88.5 34.5
t-88.5 -34.5t-34.5 -88.5z" />
    <glyph glyph-name="AE" unicode="&#xc6;" horiz-adv-x="1955" 
d="M61 0l379 1434h1424v-93h-809v-563h655v-92h-655v-594h809v-92h-912v502h-655l-133 -502h-103zM317 594h635v747h-430z" />
    <glyph glyph-name="Ccedilla" unicode="&#xc7;" horiz-adv-x="1638" 
d="M113 717q0 216 96 390t262 271t369 97q113 0 212 -27.5t166.5 -72t123 -98t89 -107t56 -98t31.5 -72.5l8 -27h-103q-3 9 -8 23.5t-27 57t-49 81t-76 86t-105.5 81t-140 57t-177.5 23.5q-133 0 -248.5 -48t-198.5 -134t-130.5 -211t-47.5 -272q0 -196 81.5 -348.5
t223.5 -235t320 -82.5q76 0 144.5 15t120.5 40.5t98 58.5t78.5 70t59.5 73.5t44 69.5t28.5 58.5t16.5 40.5l4 15h102q-3 -11 -9 -29.5t-31 -72.5t-56.5 -103.5t-88 -110t-122 -105t-162 -76t-205.5 -34.5l-33 -74q70 -8 117 -57t47 -117q0 -78 -57 -131t-148 -53
q-41 0 -76.5 10.5t-51.5 20.5l-15 10v82q6 -5 17 -11.5t48 -18t78 -11.5q53 0 83 28t30 74q0 47 -31.5 75t-91.5 28h-71l65 147q-187 16 -337 116t-236 267t-86 371z" />
    <glyph glyph-name="Egrave" unicode="&#xc8;" horiz-adv-x="1249" 
d="M205 0v1434h952v-93h-850v-563h697v-92h-697v-594h850v-92h-952zM440 1903v2h123l195 -287h-82z" />
    <glyph glyph-name="Eacute" unicode="&#xc9;" horiz-adv-x="1249" 
d="M205 0v1434h952v-93h-850v-563h697v-92h-697v-594h850v-92h-952zM614 1618l195 287h123v-2l-236 -285h-82z" />
    <glyph glyph-name="Ecircumflex" unicode="&#xca;" horiz-adv-x="1249" 
d="M205 0v1434h952v-93h-850v-563h697v-92h-697v-594h850v-92h-952zM410 1618v2l225 295h102l226 -295v-2h-103l-164 215h-20l-164 -215h-102z" />
    <glyph glyph-name="Edieresis" unicode="&#xcb;" horiz-adv-x="1249" 
d="M205 0v1434h952v-93h-850v-563h697v-92h-697v-594h850v-92h-952zM778 1741q0 34 24 58t58 24t58 -24t24 -58t-24 -58t-58 -24t-58 24t-24 58zM430 1741q0 34 24 58t58 24t58 -24t24 -58t-24 -58t-58 -24t-58 24t-24 58z" />
    <glyph glyph-name="Igrave" unicode="&#xcc;" horiz-adv-x="512" 
d="M205 0v1434h102v-1434h-102zM-20 1903v2h122l195 -287h-82z" />
    <glyph glyph-name="Iacute" unicode="&#xcd;" horiz-adv-x="512" 
d="M205 0v1434h102v-1434h-102zM215 1618l195 287h122v-2l-235 -285h-82z" />
    <glyph glyph-name="Icircumflex" unicode="&#xce;" horiz-adv-x="512" 
d="M205 0v1434h102v-1434h-102zM-20 1618v2l225 295h102l225 -295v-2h-102l-164 215h-20l-164 -215h-102z" />
    <glyph glyph-name="Idieresis" unicode="&#xcf;" horiz-adv-x="512" 
d="M205 0v1434h102v-1434h-102zM348 1741q0 34 24 58t58 24t58 -24t24 -58t-24 -58t-58 -24t-58 24t-24 58zM0 1741q0 34 24 58t58 24t58 -24t24 -58t-24 -58t-58 -24t-58 24t-24 58z" />
    <glyph glyph-name="Eth" unicode="&#xd0;" horiz-adv-x="1495" 
d="M61 666v92h164v676h441q155 0 290.5 -54.5t231 -149.5t150.5 -228t55 -285t-55 -285t-150.5 -228t-231 -149.5t-290.5 -54.5h-441v666h-164zM328 92h338q277 0 450.5 174t173.5 451t-173.5 450.5t-450.5 173.5h-338v-583h381v-92h-381v-574z" />
    <glyph glyph-name="Ntilde" unicode="&#xd1;" horiz-adv-x="1495" 
d="M205 0v1434h164l819 -1342h2l-2 21v1321h102v-1434h-164l-819 1341h-2l2 -20v-1321h-102zM471 1638v48q0 72 46.5 119.5t117.5 47.5q45 0 86 -21t66.5 -45.5t56 -45.5t57.5 -21q31 0 51.5 21.5t20.5 56.5v45h92v-47q0 -72 -47 -120t-117 -48q-45 0 -86 21t-66.5 45.5
t-56 45.5t-57.5 21q-31 0 -51.5 -21.5t-20.5 -56.5v-45h-92z" />
    <glyph glyph-name="Ograve" unicode="&#xd2;" horiz-adv-x="1679" 
d="M113 717q0 216 96 390t262 271t369 97t369 -97t262 -271t96 -390t-96 -390t-262 -271t-369 -97t-369 97t-262 271t-96 390zM215 717q0 -196 81.5 -348.5t223.5 -235t320 -82.5q133 0 248.5 48.5t198 134.5t130 211t47.5 272t-47.5 272t-130 211t-198 134t-248.5 48
t-248.5 -48t-198.5 -134t-130.5 -211t-47.5 -272zM573 1903v2h123l195 -287h-82z" />
    <glyph glyph-name="Oacute" unicode="&#xd3;" horiz-adv-x="1679" 
d="M113 717q0 216 96 390t262 271t369 97t369 -97t262 -271t96 -390t-96 -390t-262 -271t-369 -97t-369 97t-262 271t-96 390zM215 717q0 -196 81.5 -348.5t223.5 -235t320 -82.5q133 0 248.5 48.5t198 134.5t130 211t47.5 272t-47.5 272t-130 211t-198 134t-248.5 48
t-248.5 -48t-198.5 -134t-130.5 -211t-47.5 -272zM788 1618l195 287h123v-2l-236 -285h-82z" />
    <glyph glyph-name="Ocircumflex" unicode="&#xd4;" horiz-adv-x="1679" 
d="M113 717q0 216 96 390t262 271t369 97t369 -97t262 -271t96 -390t-96 -390t-262 -271t-369 -97t-369 97t-262 271t-96 390zM215 717q0 -196 81.5 -348.5t223.5 -235t320 -82.5q133 0 248.5 48.5t198 134.5t130 211t47.5 272t-47.5 272t-130 211t-198 134t-248.5 48
t-248.5 -48t-198.5 -134t-130.5 -211t-47.5 -272zM563 1618v2l225 295h103l225 -295v-2h-102l-164 215h-21l-163 -215h-103z" />
    <glyph glyph-name="Otilde" unicode="&#xd5;" horiz-adv-x="1679" 
d="M113 717q0 216 96 390t262 271t369 97t369 -97t262 -271t96 -390t-96 -390t-262 -271t-369 -97t-369 97t-262 271t-96 390zM215 717q0 -196 81.5 -348.5t223.5 -235t320 -82.5q133 0 248.5 48.5t198 134.5t130 211t47.5 272t-47.5 272t-130 211t-198 134t-248.5 48
t-248.5 -48t-198.5 -134t-130.5 -211t-47.5 -272zM543 1649v47q0 72 47 120t117 48q45 0 86 -21t66.5 -45.5t56 -45.5t57.5 -21q31 0 51 21t20 56v45h93v-47q0 -72 -47 -120t-117 -48q-45 0 -86 21t-66.5 46t-56 46t-57.5 21q-31 0 -51.5 -21.5t-20.5 -56.5v-45h-92z" />
    <glyph glyph-name="Odieresis" unicode="&#xd6;" horiz-adv-x="1679" 
d="M113 717q0 216 96 390t262 271t369 97t369 -97t262 -271t96 -390t-96 -390t-262 -271t-369 -97t-369 97t-262 271t-96 390zM215 717q0 -196 81.5 -348.5t223.5 -235t320 -82.5q133 0 248.5 48.5t198 134.5t130 211t47.5 272t-47.5 272t-130 211t-198 134t-248.5 48
t-248.5 -48t-198.5 -134t-130.5 -211t-47.5 -272zM932 1741q0 34 24 58t58 24t58 -24t24 -58t-24 -58t-58 -24t-58 24t-24 58zM584 1741q0 34 24 58t58 24t58 -24t24 -58t-24 -58t-58 -24t-58 24t-24 58z" />
    <glyph glyph-name="multiply" unicode="&#xd7;" horiz-adv-x="1003" 
d="M154 317l276 277l-276 276l71 72l277 -276l276 276l72 -72l-277 -276l277 -277l-72 -71l-276 276l-277 -276z" />
    <glyph glyph-name="Oslash" unicode="&#xd8;" horiz-adv-x="1679" 
d="M72 -10v123l176 151q-135 196 -135 453q0 216 96 390t262 271t369 97q157 0 295.5 -61.5t238.5 -172.5l234 203v-123l-176 -154q135 -198 135 -450q0 -216 -96 -390t-262 -271t-369 -97q-159 0 -297.5 60.5t-237.5 170.5zM215 717q0 -225 104 -389l984 852
q-85 97 -204 149.5t-259 52.5q-133 0 -248.5 -48t-198.5 -134t-130.5 -211t-47.5 -272zM375 252q86 -96 205.5 -148.5t259.5 -52.5q133 0 248.5 48.5t198 134.5t130 211t47.5 272q0 224 -106 389z" />
    <glyph glyph-name="Ugrave" unicode="&#xd9;" horiz-adv-x="1454" 
d="M184 522v912h103v-912q0 -221 119 -346t321 -125t321 125t119 346v912h103v-912q0 -252 -152 -407.5t-391 -155.5t-391 155.5t-152 407.5zM461 1903v2h123l194 -287h-82z" />
    <glyph glyph-name="Uacute" unicode="&#xda;" horiz-adv-x="1454" 
d="M184 522v912h103v-912q0 -221 119 -346t321 -125t321 125t119 346v912h103v-912q0 -252 -152 -407.5t-391 -155.5t-391 155.5t-152 407.5zM676 1618l194 287h123v-2l-235 -285h-82z" />
    <glyph glyph-name="Ucircumflex" unicode="&#xdb;" horiz-adv-x="1454" 
d="M184 522v912h103v-912q0 -221 119 -346t321 -125t321 125t119 346v912h103v-912q0 -252 -152 -407.5t-391 -155.5t-391 155.5t-152 407.5zM451 1618v2l225 295h102l226 -295v-2h-103l-164 215h-20l-164 -215h-102z" />
    <glyph glyph-name="Udieresis" unicode="&#xdc;" horiz-adv-x="1454" 
d="M184 522v912h103v-912q0 -221 119 -346t321 -125t321 125t119 346v912h103v-912q0 -252 -152 -407.5t-391 -155.5t-391 155.5t-152 407.5zM819 1741q0 34 24 58t58 24t58 -24t24 -58t-24 -58t-58 -24t-58 24t-24 58zM471 1741q0 34 24 58t58 24t58 -24t24 -58t-24 -58
t-58 -24t-58 24t-24 58z" />
    <glyph glyph-name="Yacute" unicode="&#xdd;" horiz-adv-x="1290" 
d="M31 1434h123l491 -809h2l490 809h123l-564 -922v-512h-102v512zM594 1618l194 287h123v-2l-235 -285h-82z" />
    <glyph glyph-name="Thorn" unicode="&#xde;" horiz-adv-x="1443" 
d="M205 0v1434h102v-297h563q217 0 349.5 -118t132.5 -292t-132.5 -292t-349.5 -118h-563v-317h-102zM307 410h563q180 0 279.5 87.5t99.5 229.5t-99.5 229.5t-279.5 87.5h-563v-634z" />
    <glyph glyph-name="germandbls" unicode="&#xdf;" horiz-adv-x="1167" 
d="M758 780v-2q7 -1 18 -4t44 -15.5t63 -28.5t66.5 -46t63 -66.5t44.5 -90.5t18 -117q0 -170 -123.5 -290t-306.5 -120h-113v92h113q145 0 236.5 89.5t91.5 228.5q0 133 -93.5 220t-244.5 87h-103v92q151 0 239.5 80.5t88.5 206.5q0 109 -83 187.5t-204 78.5
q-129 0 -213 -82t-84 -205v-1075h-102v1085q0 156 112 262.5t287 106.5q167 0 278.5 -105t111.5 -253q0 -60 -21 -115t-51 -90t-60.5 -61.5t-51.5 -37.5z" />
    <glyph glyph-name="agrave" unicode="&#xe0;" horiz-adv-x="1259" 
d="M102 502q0 145 67.5 265.5t180 188.5t244.5 68q77 0 143 -20.5t112.5 -54.5t78.5 -71t53 -79h2v205h102v-1004h-102v205h-2q-21 -42 -53 -79t-78.5 -71t-112.5 -54.5t-143 -20.5q-132 0 -244.5 68t-180 188.5t-67.5 265.5zM205 502q0 -189 112.5 -309.5t276.5 -120.5
t276.5 120.5t112.5 309.5t-112.5 309.5t-276.5 120.5t-276.5 -120.5t-112.5 -309.5zM338 1503v2h123l194 -286h-82z" />
    <glyph glyph-name="aacute" unicode="&#xe1;" horiz-adv-x="1259" 
d="M102 502q0 145 67.5 265.5t180 188.5t244.5 68q77 0 143 -20.5t112.5 -54.5t78.5 -71t53 -79h2v205h102v-1004h-102v205h-2q-21 -42 -53 -79t-78.5 -71t-112.5 -54.5t-143 -20.5q-132 0 -244.5 68t-180 188.5t-67.5 265.5zM205 502q0 -189 112.5 -309.5t276.5 -120.5
t276.5 120.5t112.5 309.5t-112.5 309.5t-276.5 120.5t-276.5 -120.5t-112.5 -309.5zM522 1219l195 286h123v-2l-236 -284h-82z" />
    <glyph glyph-name="acircumflex" unicode="&#xe2;" horiz-adv-x="1259" 
d="M102 502q0 145 67.5 265.5t180 188.5t244.5 68q77 0 143 -20.5t112.5 -54.5t78.5 -71t53 -79h2v205h102v-1004h-102v205h-2q-21 -42 -53 -79t-78.5 -71t-112.5 -54.5t-143 -20.5q-132 0 -244.5 68t-180 188.5t-67.5 265.5zM205 502q0 -189 112.5 -309.5t276.5 -120.5
t276.5 120.5t112.5 309.5t-112.5 309.5t-276.5 120.5t-276.5 -120.5t-112.5 -309.5zM328 1219v2l225 295h102l226 -295v-2h-103l-164 215h-20l-164 -215h-102z" />
    <glyph glyph-name="atilde" unicode="&#xe3;" horiz-adv-x="1259" 
d="M102 502q0 145 67.5 265.5t180 188.5t244.5 68q77 0 143 -20.5t112.5 -54.5t78.5 -71t53 -79h2v205h102v-1004h-102v205h-2q-21 -42 -53 -79t-78.5 -71t-112.5 -54.5t-143 -20.5q-132 0 -244.5 68t-180 188.5t-67.5 265.5zM205 502q0 -189 112.5 -309.5t276.5 -120.5
t276.5 120.5t112.5 309.5t-112.5 309.5t-276.5 120.5t-276.5 -120.5t-112.5 -309.5zM317 1239v47q0 72 47 120t117 48q45 0 86 -21t66.5 -45.5t56.5 -45.5t58 -21q31 0 51 21.5t20 56.5v45h92v-47q0 -72 -46.5 -120t-116.5 -48q-45 0 -86 21t-66.5 45.5t-56.5 45.5t-58 21
q-31 0 -51 -21.5t-20 -56.5v-45h-93z" />
    <glyph glyph-name="adieresis" unicode="&#xe4;" horiz-adv-x="1259" 
d="M102 502q0 145 67.5 265.5t180 188.5t244.5 68q77 0 143 -20.5t112.5 -54.5t78.5 -71t53 -79h2v205h102v-1004h-102v205h-2q-21 -42 -53 -79t-78.5 -71t-112.5 -54.5t-143 -20.5q-132 0 -244.5 68t-180 188.5t-67.5 265.5zM205 502q0 -189 112.5 -309.5t276.5 -120.5
t276.5 120.5t112.5 309.5t-112.5 309.5t-276.5 120.5t-276.5 -120.5t-112.5 -309.5zM696 1341q0 34 24 58t58 24t58 -24t24 -58t-24 -57.5t-58 -23.5t-58 23.5t-24 57.5zM348 1341q0 34 24 58t58 24t58 -24t24 -58t-24 -57.5t-58 -23.5t-58 23.5t-24 57.5z" />
    <glyph glyph-name="aring" unicode="&#xe5;" horiz-adv-x="1259" 
d="M102 502q0 145 67.5 265.5t180 188.5t244.5 68q77 0 143 -20.5t112.5 -54.5t78.5 -71t53 -79h2v205h102v-1004h-102v205h-2q-21 -42 -53 -79t-78.5 -71t-112.5 -54.5t-143 -20.5q-132 0 -244.5 68t-180 188.5t-67.5 265.5zM205 502q0 -189 112.5 -309.5t276.5 -120.5
t276.5 120.5t112.5 309.5t-112.5 309.5t-276.5 120.5t-276.5 -120.5t-112.5 -309.5zM399 1403q0 85 60 145t145 60t145 -60t60 -145t-60 -145t-145 -60t-145 60t-60 145zM481 1403q0 -54 34.5 -88.5t88.5 -34.5t88.5 34.5t34.5 88.5t-34.5 88.5t-88.5 34.5t-88.5 -34.5
t-34.5 -88.5z" />
    <glyph glyph-name="ae" unicode="&#xe6;" horiz-adv-x="1996" 
d="M133 276q0 135 100 221.5t279 86.5h379v82q0 124 -75 195t-212 71q-54 0 -101.5 -12.5t-80 -32.5t-59 -43.5t-42.5 -47.5t-26.5 -44t-14.5 -32l-4 -13h-102q2 7 5 18t17.5 44t33.5 63t54.5 66.5t77.5 63t105.5 44.5t136.5 18q56 0 106.5 -13t85.5 -34t65 -46t48 -50
t31 -46t18 -34l5 -13h10q5 10 16 25.5t49.5 56.5t83 72t118 56.5t153.5 25.5q150 0 265 -70.5t175.5 -190.5t60.5 -269v-2h-901q0 -177 115.5 -298.5t284.5 -121.5q59 0 111.5 13.5t89.5 35t68.5 47.5t51 52.5t33.5 48t19 35.5l6 13h102q-2 -7 -7 -19t-23.5 -47t-41.5 -67
t-63.5 -71t-87 -67t-114.5 -47t-144 -19q-65 0 -124 14.5t-102 38t-80 52t-61.5 57t-41.5 52t-24 38.5l-8 14h-10q-2 -6 -7 -15.5t-23 -37t-40.5 -52.5t-60.5 -56t-81.5 -53t-106 -37t-131.5 -15q-164 0 -261.5 84.5t-97.5 211.5zM993 584h799q-15 142 -128.5 245
t-270.5 103t-266.5 -99t-133.5 -249zM236 276q0 -96 66 -150t200 -54q176 0 282.5 117t106.5 303h-379q-133 0 -204.5 -60t-71.5 -156z" />
    <glyph glyph-name="ccedilla" unicode="&#xe7;" horiz-adv-x="1167" 
d="M102 502q0 145 67.5 265.5t180 188.5t244.5 68q77 0 145.5 -18.5t116 -48.5t86.5 -66t63 -72t40.5 -66t22.5 -49l7 -18h-102q-4 10 -12 26.5t-39 59t-70.5 75t-108.5 59t-149 26.5q-164 0 -276.5 -120.5t-112.5 -309.5t112.5 -309.5t276.5 -120.5q61 0 115 16t92 41
t70.5 55.5t52.5 61t34 55.5t20 41l5 16h102q-2 -7 -6 -20t-21 -49.5t-38 -70.5t-59 -76t-81.5 -74t-107 -56t-135.5 -30l-43 -95q70 -8 117 -57t47 -117q0 -78 -57 -131t-148 -53q-41 0 -76.5 10.5t-50.5 20.5l-16 10v82q6 -5 17 -11.5t48 -18t78 -11.5q53 0 83 28t30 74
q0 47 -31.5 75t-91.5 28h-72l74 168q-186 19 -314.5 165.5t-128.5 352.5z" />
    <glyph glyph-name="egrave" unicode="&#xe8;" horiz-adv-x="1208" 
d="M102 502q0 146 67.5 266t182.5 188t252 68q226 0 364 -153t138 -388v-2h-901q0 -176 114.5 -292.5t284.5 -116.5q59 0 111.5 13.5t89.5 35t68.5 47.5t51 52.5t33.5 48t20 35.5l5 13h102q-2 -7 -7 -19t-23.5 -47t-41.5 -67t-63.5 -71t-87 -67t-114.5 -47t-144 -19
q-137 0 -252 68t-182.5 188t-67.5 266zM205 573h799q-15 149 -128.5 254t-271.5 105t-266.5 -101t-132.5 -258zM317 1503v2h123l195 -286h-82z" />
    <glyph glyph-name="eacute" unicode="&#xe9;" horiz-adv-x="1208" 
d="M102 502q0 146 67.5 266t182.5 188t252 68q226 0 364 -153t138 -388v-2h-901q0 -176 114.5 -292.5t284.5 -116.5q59 0 111.5 13.5t89.5 35t68.5 47.5t51 52.5t33.5 48t20 35.5l5 13h102q-2 -7 -7 -19t-23.5 -47t-41.5 -67t-63.5 -71t-87 -67t-114.5 -47t-144 -19
q-137 0 -252 68t-182.5 188t-67.5 266zM205 573h799q-15 149 -128.5 254t-271.5 105t-266.5 -101t-132.5 -258zM563 1219l195 286h123v-2l-236 -284h-82z" />
    <glyph glyph-name="ecircumflex" unicode="&#xea;" horiz-adv-x="1208" 
d="M102 502q0 146 67.5 266t182.5 188t252 68q226 0 364 -153t138 -388v-2h-901q0 -176 114.5 -292.5t284.5 -116.5q59 0 111.5 13.5t89.5 35t68.5 47.5t51 52.5t33.5 48t20 35.5l5 13h102q-2 -7 -7 -19t-23.5 -47t-41.5 -67t-63.5 -71t-87 -67t-114.5 -47t-144 -19
q-137 0 -252 68t-182.5 188t-67.5 266zM205 573h799q-15 149 -128.5 254t-271.5 105t-266.5 -101t-132.5 -258zM328 1219v2l225 295h102l226 -295v-2h-103l-164 215h-20l-164 -215h-102z" />
    <glyph glyph-name="edieresis" unicode="&#xeb;" horiz-adv-x="1208" 
d="M102 502q0 146 67.5 266t182.5 188t252 68q226 0 364 -153t138 -388v-2h-901q0 -176 114.5 -292.5t284.5 -116.5q59 0 111.5 13.5t89.5 35t68.5 47.5t51 52.5t33.5 48t20 35.5l5 13h102q-2 -7 -7 -19t-23.5 -47t-41.5 -67t-63.5 -71t-87 -67t-114.5 -47t-144 -19
q-137 0 -252 68t-182.5 188t-67.5 266zM205 573h799q-15 149 -128.5 254t-271.5 105t-266.5 -101t-132.5 -258zM686 1341q0 34 24 58t58 24t58 -24t24 -58t-24 -57.5t-58 -23.5t-58 23.5t-24 57.5zM338 1341q0 34 24 58t58 24t58 -24t24 -58t-24 -57.5t-58 -23.5t-58 23.5
t-24 57.5z" />
    <glyph glyph-name="igrave" unicode="&#xec;" horiz-adv-x="450" 
d="M174 0v1004h102v-1004h-102zM-51 1503v2h123l194 -286h-82z" />
    <glyph glyph-name="iacute" unicode="&#xed;" horiz-adv-x="450" 
d="M174 0v1004h102v-1004h-102zM184 1219l195 286h123v-2l-236 -284h-82z" />
    <glyph glyph-name="icircumflex" unicode="&#xee;" horiz-adv-x="450" 
d="M174 0v1004h102v-1004h-102zM-51 1206v2l225 295h102l226 -295v-2h-103l-163 215h-21l-164 -215h-102z" />
    <glyph glyph-name="idieresis" unicode="&#xef;" horiz-adv-x="450" 
d="M174 0v1004h102v-1004h-102zM317 1341q0 34 24 58t58 24t58 -24t24 -58t-24 -57.5t-58 -23.5t-58 23.5t-24 57.5zM-31 1341q0 34 24 58t58 24t58 -24t24 -58t-24 -57.5t-58 -23.5t-58 23.5t-24 57.5z" />
    <glyph glyph-name="eth" unicode="&#xf0;" horiz-adv-x="1187" 
d="M102 451q0 126 64.5 234.5t175.5 172.5t242 64q56 0 107.5 -10.5t88.5 -27t68.5 -36.5t51.5 -39.5t34.5 -36t20.5 -26.5l6 -11l2 2q-54 216 -318 461l-2 2l-244 -166v92l185 134q-22 18 -97 86.5t-98 87.5h123q90 -73 143 -123l256 174v-103l-194 -133q90 -86 152 -163
t110.5 -171t72 -203t23.5 -241q0 -135 -67 -248.5t-180 -178t-244 -64.5t-242 64t-175.5 172.5t-64.5 234.5zM205 451q0 -161 109 -270t270 -109q168 0 278.5 108.5t110.5 270.5q0 164 -110 271t-279 107q-161 0 -270 -108.5t-109 -269.5z" />
    <glyph glyph-name="ntilde" unicode="&#xf1;" horiz-adv-x="1187" 
d="M174 0v1004h102v-185h3q21 38 51 71.5t73.5 65t106 50t135.5 18.5q172 0 280.5 -117t108.5 -313v-594h-102v594q0 166 -78 252t-219 86q-155 0 -257 -106t-102 -273v-553h-102zM297 1239v47q0 72 47 120t117 48q45 0 86 -21t66.5 -45.5t56 -45.5t57.5 -21q31 0 51.5 21.5
t20.5 56.5v45h92v-47q0 -72 -47 -120t-117 -48q-45 0 -86 21t-66.5 45.5t-56 45.5t-57.5 21q-31 0 -51.5 -21.5t-20.5 -56.5v-45h-92z" />
    <glyph glyph-name="ograve" unicode="&#xf2;" horiz-adv-x="1228" 
d="M102 502q0 146 68 266t185 188t259 68t259 -68t185 -188t68 -266t-68 -266t-185 -188t-259 -68t-259 68t-185 188t-68 266zM205 502q0 -191 115.5 -310.5t293.5 -119.5t294 119.5t116 310.5t-116 310.5t-294 119.5t-293.5 -119.5t-115.5 -310.5zM350 1503v2h123l195 -286
h-82z" />
    <glyph glyph-name="oacute" unicode="&#xf3;" horiz-adv-x="1228" 
d="M102 502q0 146 68 266t185 188t259 68t259 -68t185 -188t68 -266t-68 -266t-185 -188t-259 -68t-259 68t-185 188t-68 266zM205 502q0 -191 115.5 -310.5t293.5 -119.5t294 119.5t116 310.5t-116 310.5t-294 119.5t-293.5 -119.5t-115.5 -310.5zM563 1219l195 286h123v-2
l-236 -284h-82z" />
    <glyph glyph-name="ocircumflex" unicode="&#xf4;" horiz-adv-x="1228" 
d="M102 502q0 146 68 266t185 188t259 68t259 -68t185 -188t68 -266t-68 -266t-185 -188t-259 -68t-259 68t-185 188t-68 266zM205 502q0 -191 115.5 -310.5t293.5 -119.5t294 119.5t116 310.5t-116 310.5t-294 119.5t-293.5 -119.5t-115.5 -310.5zM338 1219v2l225 295h103
l225 -295v-2h-103l-163 215h-21l-164 -215h-102z" />
    <glyph glyph-name="otilde" unicode="&#xf5;" horiz-adv-x="1228" 
d="M102 502q0 146 68 266t185 188t259 68t259 -68t185 -188t68 -266t-68 -266t-185 -188t-259 -68t-259 68t-185 188t-68 266zM205 502q0 -191 115.5 -310.5t293.5 -119.5t294 119.5t116 310.5t-116 310.5t-294 119.5t-293.5 -119.5t-115.5 -310.5zM317 1229v47q0 72 47 120
t117 48q45 0 86 -21t66.5 -45.5t56.5 -45.5t58 -21q31 0 51 21.5t20 56.5v45h92v-48q0 -72 -46.5 -119.5t-116.5 -47.5q-45 0 -86 21t-66.5 45.5t-56.5 45.5t-58 21q-31 0 -51 -21.5t-20 -56.5v-45h-93z" />
    <glyph glyph-name="odieresis" unicode="&#xf6;" horiz-adv-x="1228" 
d="M102 502q0 146 68 266t185 188t259 68t259 -68t185 -188t68 -266t-68 -266t-185 -188t-259 -68t-259 68t-185 188t-68 266zM205 502q0 -191 115.5 -310.5t293.5 -119.5t294 119.5t116 310.5t-116 310.5t-294 119.5t-293.5 -119.5t-115.5 -310.5zM707 1341q0 34 23.5 58
t57.5 24t58 -24t24 -58t-24 -57.5t-58 -23.5t-57.5 23.5t-23.5 57.5zM358 1341q0 34 24 58t58 24t58 -24t24 -58t-24 -57.5t-58 -23.5t-58 23.5t-24 57.5z" />
    <glyph glyph-name="divide" unicode="&#xf7;" horiz-adv-x="1003" 
d="M410 911q0 38 27 65.5t65 27.5t65 -27.5t27 -65.5t-27 -65t-65 -27t-65 27t-27 65zM123 502v92h758v-92h-758zM410 184q0 38 27 65t65 27t65 -27t27 -65t-27 -65t-65 -27t-65 27t-27 65z" />
    <glyph glyph-name="oslash" unicode="&#xf8;" horiz-adv-x="1228" 
d="M92 -10v123l101 86q-91 134 -91 303q0 146 68 266t185 188t259 68q105 0 199 -39.5t164 -110.5l160 140v-123l-101 -90q90 -133 90 -299q0 -146 -68 -266t-185 -188t-259 -68q-215 0 -362 147zM205 502q0 -134 61 -240l639 551q-113 119 -291 119t-293.5 -119.5
t-115.5 -310.5zM324 188q110 -116 290 -116q178 0 294 119.5t116 310.5q0 132 -61 235z" />
    <glyph glyph-name="ugrave" unicode="&#xf9;" horiz-adv-x="1208" 
d="M174 410v594h102v-594q0 -166 78 -252t219 -86q155 0 257 106t102 273v553h102v-1004h-102v184h-2q-21 -38 -51 -71.5t-74 -64.5t-106.5 -49.5t-135.5 -18.5q-172 0 -280.5 117t-108.5 313zM348 1503v2h123l195 -286h-82z" />
    <glyph glyph-name="uacute" unicode="&#xfa;" horiz-adv-x="1208" 
d="M174 410v594h102v-594q0 -166 78 -252t219 -86q155 0 257 106t102 273v553h102v-1004h-102v184h-2q-21 -38 -51 -71.5t-74 -64.5t-106.5 -49.5t-135.5 -18.5q-172 0 -280.5 117t-108.5 313zM553 1219l195 286h122v-2l-235 -284h-82z" />
    <glyph glyph-name="ucircumflex" unicode="&#xfb;" horiz-adv-x="1208" 
d="M174 410v594h102v-594q0 -166 78 -252t219 -86q155 0 257 106t102 273v553h102v-1004h-102v184h-2q-21 -38 -51 -71.5t-74 -64.5t-106.5 -49.5t-135.5 -18.5q-172 0 -280.5 117t-108.5 313zM328 1219v2l225 295h102l226 -295v-2h-103l-164 215h-20l-164 -215h-102z" />
    <glyph glyph-name="udieresis" unicode="&#xfc;" horiz-adv-x="1208" 
d="M174 410v594h102v-594q0 -166 78 -252t219 -86q155 0 257 106t102 273v553h102v-1004h-102v184h-2q-21 -38 -51 -71.5t-74 -64.5t-106.5 -49.5t-135.5 -18.5q-172 0 -280.5 117t-108.5 313zM696 1341q0 34 24 58t58 24t58 -24t24 -58t-24 -57.5t-58 -23.5t-58 23.5
t-24 57.5zM348 1341q0 34 24 58t58 24t58 -24t24 -58t-24 -57.5t-58 -23.5t-58 23.5t-24 57.5z" />
    <glyph glyph-name="yacute" unicode="&#xfd;" horiz-adv-x="1034" 
d="M61 1004h113l236 -912h215l266 912h113l-420 -1393h-113l133 389h-266zM481 1219l195 286h123v-2l-236 -284h-82z" />
    <glyph glyph-name="thorn" unicode="&#xfe;" horiz-adv-x="1259" 
d="M174 -389v1823h102v-635h3q21 42 53 79t78.5 71t112.5 54.5t143 20.5q132 0 244.5 -68t179.5 -188.5t67 -265.5t-67 -265.5t-179.5 -188.5t-244.5 -68q-77 0 -143 20.5t-112.5 54.5t-78.5 71t-53 79h-3v-594h-102zM276 502q0 -189 113 -309.5t277 -120.5t276.5 120.5
t112.5 309.5t-112.5 309.5t-276.5 120.5t-277 -120.5t-113 -309.5z" />
    <glyph glyph-name="ydieresis" unicode="&#xff;" horiz-adv-x="1034" 
d="M61 1004h113l236 -912h215l266 912h113l-420 -1393h-113l133 389h-266zM625 1341q0 34 24 58t58 24t57.5 -24t23.5 -58t-23.5 -57.5t-57.5 -23.5t-58 23.5t-24 57.5zM276 1341q0 34 24 58t58 24t58 -24t24 -58t-24 -57.5t-58 -23.5t-58 23.5t-24 57.5z" />
    <glyph glyph-name="Amacron" unicode="&#x100;" 
d="M61 0l379 1434h492l379 -1434h-103l-133 502h-778l-133 -502h-103zM317 594h738l-205 747h-328zM438 1690v92h502v-92h-502z" />
    <glyph glyph-name="amacron" unicode="&#x101;" horiz-adv-x="1259" 
d="M102 502q0 145 67.5 265.5t180 188.5t244.5 68q77 0 143 -20.5t112.5 -54.5t78.5 -71t53 -79h2v205h102v-1004h-102v205h-2q-21 -42 -53 -79t-78.5 -71t-112.5 -54.5t-143 -20.5q-132 0 -244.5 68t-180 188.5t-67.5 265.5zM205 502q0 -189 112.5 -309.5t276.5 -120.5
t276.5 120.5t112.5 309.5t-112.5 309.5t-276.5 120.5t-276.5 -120.5t-112.5 -309.5zM348 1280v92h502v-92h-502z" />
    <glyph glyph-name="Abreve" unicode="&#x102;" 
d="M61 0l379 1434h492l379 -1434h-103l-133 502h-778l-133 -502h-103zM317 594h738l-205 747h-328zM420 1853h92q0 -63 49.5 -108t124.5 -45t124.5 45t49.5 108h92q0 -95 -76.5 -165t-189.5 -70t-189.5 70t-76.5 165z" />
    <glyph glyph-name="abreve" unicode="&#x103;" horiz-adv-x="1259" 
d="M102 502q0 145 67.5 265.5t180 188.5t244.5 68q77 0 143 -20.5t112.5 -54.5t78.5 -71t53 -79h2v205h102v-1004h-102v205h-2q-21 -42 -53 -79t-78.5 -71t-112.5 -54.5t-143 -20.5q-132 0 -244.5 68t-180 188.5t-67.5 265.5zM205 502q0 -189 112.5 -309.5t276.5 -120.5
t276.5 120.5t112.5 309.5t-112.5 309.5t-276.5 120.5t-276.5 -120.5t-112.5 -309.5zM328 1464h92q0 -63 49.5 -108t124.5 -45t124.5 45t49.5 108h92q0 -95 -76.5 -165t-189.5 -70t-189.5 70t-76.5 165z" />
    <glyph glyph-name="Aogonek" unicode="&#x104;" 
d="M61 0l379 1434h492l379 -1434q-10 -4 -26.5 -12t-59 -34.5t-75 -55t-59 -73.5t-26.5 -91q0 -47 30 -75t83 -28q32 0 65 7.5t51 15.5l17 8v-82q-61 -31 -133 -31q-90 0 -147.5 52t-57.5 123q0 52 24 100t58.5 80.5t69.5 57.5t59 36l24 12v2l-133 490h-778l-133 -502h-103z
M317 594h738l-205 747h-328z" />
    <glyph glyph-name="aogonek" unicode="&#x105;" horiz-adv-x="1259" 
d="M102 502q0 145 67.5 265.5t180 188.5t244.5 68q77 0 143 -20.5t112.5 -54.5t78.5 -71t53 -79h2v205h102v-1004q-10 -4 -26.5 -12t-58.5 -34.5t-74.5 -55t-59 -73.5t-26.5 -91q0 -47 29.5 -75t82.5 -28q32 0 65 7.5t51 15.5l17 8v-82q-61 -31 -133 -31q-90 0 -147 52
t-57 123q0 44 19 86t45.5 72t62 58t60 43t48.5 27v2v193h-2q-21 -42 -53 -79t-78.5 -71t-112.5 -54.5t-143 -20.5q-132 0 -244.5 68t-180 188.5t-67.5 265.5zM205 502q0 -189 112.5 -309.5t276.5 -120.5t276.5 120.5t112.5 309.5t-112.5 309.5t-276.5 120.5t-276.5 -120.5
t-112.5 -309.5z" />
    <glyph glyph-name="Cacute" unicode="&#x106;" horiz-adv-x="1638" 
d="M113 717q0 216 96 390t262 271t369 97q113 0 212 -27.5t166.5 -72t123 -98t89 -107t56 -98t31.5 -72.5l8 -27h-103q-3 9 -8 23.5t-27 57t-49 81t-76 86t-105.5 81t-140 57t-177.5 23.5q-133 0 -248.5 -48t-198.5 -134t-130.5 -211t-47.5 -272q0 -196 81.5 -348.5
t223.5 -235t320 -82.5q76 0 144.5 15t120.5 40.5t98 58.5t78.5 70t59.5 73.5t44 69.5t28.5 58.5t16.5 40.5l4 15h102q-3 -11 -9.5 -30.5t-32 -74.5t-58 -105.5t-90.5 -112t-126 -105.5t-167.5 -74.5t-212.5 -30.5q-203 0 -369 97t-262 271t-96 390zM768 1618l195 287h122v-2
l-235 -285h-82z" />
    <glyph glyph-name="cacute" unicode="&#x107;" horiz-adv-x="1167" 
d="M102 502q0 145 67.5 265.5t180 188.5t244.5 68q77 0 145.5 -18.5t116 -48.5t86.5 -66t63 -72t40.5 -66t22.5 -49l7 -18h-102q-4 10 -12 26.5t-39 59t-70.5 75t-108.5 59t-149 26.5q-164 0 -276.5 -120.5t-112.5 -309.5t112.5 -309.5t276.5 -120.5q61 0 115 16t92 41
t70.5 55.5t52.5 61t34 55.5t20 41l5 16h102q-2 -8 -6.5 -21.5t-23 -53t-41.5 -75t-64 -79t-88.5 -75t-118 -53t-149.5 -21.5q-132 0 -244.5 68t-180 188.5t-67.5 265.5zM553 1219l195 286h122v-2l-235 -284h-82z" />
    <glyph glyph-name="Ccircumflex" unicode="&#x108;" horiz-adv-x="1638" 
d="M113 717q0 216 96 390t262 271t369 97q113 0 212 -27.5t166.5 -72t123 -98t89 -107t56 -98t31.5 -72.5l8 -27h-103q-3 9 -8 23.5t-27 57t-49 81t-76 86t-105.5 81t-140 57t-177.5 23.5q-133 0 -248.5 -48t-198.5 -134t-130.5 -211t-47.5 -272q0 -196 81.5 -348.5
t223.5 -235t320 -82.5q76 0 144.5 15t120.5 40.5t98 58.5t78.5 70t59.5 73.5t44 69.5t28.5 58.5t16.5 40.5l4 15h102q-3 -11 -9.5 -30.5t-32 -74.5t-58 -105.5t-90.5 -112t-126 -105.5t-167.5 -74.5t-212.5 -30.5q-203 0 -369 97t-262 271t-96 390zM553 1618v2l225 295h103
l225 -295v-2h-102l-164 215h-21l-164 -215h-102z" />
    <glyph glyph-name="ccircumflex" unicode="&#x109;" horiz-adv-x="1167" 
d="M102 502q0 145 67.5 265.5t180 188.5t244.5 68q77 0 145.5 -18.5t116 -48.5t86.5 -66t63 -72t40.5 -66t22.5 -49l7 -18h-102q-4 10 -12 26.5t-39 59t-70.5 75t-108.5 59t-149 26.5q-164 0 -276.5 -120.5t-112.5 -309.5t112.5 -309.5t276.5 -120.5q61 0 115 16t92 41
t70.5 55.5t52.5 61t34 55.5t20 41l5 16h102q-2 -8 -6.5 -21.5t-23 -53t-41.5 -75t-64 -79t-88.5 -75t-118 -53t-149.5 -21.5q-132 0 -244.5 68t-180 188.5t-67.5 265.5zM317 1219v2l226 295h102l225 -295v-2h-102l-164 215h-20l-164 -215h-103z" />
    <glyph glyph-name="Ccaron" unicode="&#x10c;" horiz-adv-x="1638" 
d="M113 717q0 216 96 390t262 271t369 97q113 0 212 -27.5t166.5 -72t123 -98t89 -107t56 -98t31.5 -72.5l8 -27h-103q-3 9 -8 23.5t-27 57t-49 81t-76 86t-105.5 81t-140 57t-177.5 23.5q-133 0 -248.5 -48t-198.5 -134t-130.5 -211t-47.5 -272q0 -196 81.5 -348.5
t223.5 -235t320 -82.5q76 0 144.5 15t120.5 40.5t98 58.5t78.5 70t59.5 73.5t44 69.5t28.5 58.5t16.5 40.5l4 15h102q-3 -11 -9.5 -30.5t-32 -74.5t-58 -105.5t-90.5 -112t-126 -105.5t-167.5 -74.5t-212.5 -30.5q-203 0 -369 97t-262 271t-96 390zM545 1913v2h102l164 -215
h20l164 215h103v-2l-226 -295h-102z" />
    <glyph glyph-name="ccaron" unicode="&#x10d;" horiz-adv-x="1167" 
d="M102 502q0 145 67.5 265.5t180 188.5t244.5 68q77 0 145.5 -18.5t116 -48.5t86.5 -66t63 -72t40.5 -66t22.5 -49l7 -18h-102q-4 10 -12 26.5t-39 59t-70.5 75t-108.5 59t-149 26.5q-164 0 -276.5 -120.5t-112.5 -309.5t112.5 -309.5t276.5 -120.5q61 0 115 16t92 41
t70.5 55.5t52.5 61t34 55.5t20 41l5 16h102q-2 -8 -6.5 -21.5t-23 -53t-41.5 -75t-64 -79t-88.5 -75t-118 -53t-149.5 -21.5q-132 0 -244.5 68t-180 188.5t-67.5 265.5zM317 1513v3h103l164 -216h20l164 216h102v-3l-225 -294h-102z" />
    <glyph glyph-name="Dcaron" unicode="&#x10e;" horiz-adv-x="1474" 
d="M205 0v1434h440q155 0 290.5 -54.5t231 -149.5t150.5 -228t55 -285t-55 -285t-150.5 -228t-231 -149.5t-290.5 -54.5h-440zM307 92h338q277 0 451 174t174 451t-174 450.5t-451 173.5h-338v-1249zM440 1913v2h103l164 -215h20l164 215h102v-2l-225 -295h-102z" />
    <glyph glyph-name="dcaron" unicode="&#x10f;" horiz-adv-x="1320" 
d="M102 502q0 145 67.5 265.5t180 188.5t244.5 68q77 0 143 -20.5t112.5 -54.5t78.5 -71t53 -79h2v635h102v-1434h-102v205h-2q-21 -42 -53 -79t-78.5 -71t-112.5 -54.5t-143 -20.5q-132 0 -244.5 68t-180 188.5t-67.5 265.5zM205 502q0 -189 112.5 -309.5t276.5 -120.5
t276.5 120.5t112.5 309.5t-112.5 309.5t-276.5 120.5t-276.5 -120.5t-112.5 -309.5zM1198 1380q0 30 23.5 51t58.5 21q44 0 73 -35.5t29 -107.5q0 -90 -47.5 -143.5t-126.5 -61.5v61q46 7 74.5 36t28.5 67q0 14 -2.5 26.5t-5.5 18.5l-3 6q-10 -10 -30 -10q-34 0 -53 19.5
t-19 51.5z" />
    <glyph glyph-name="Dcroat" unicode="&#x110;" horiz-adv-x="1495" 
d="M61 666v92h164v676h441q155 0 290.5 -54.5t231 -149.5t150.5 -228t55 -285t-55 -285t-150.5 -228t-231 -149.5t-290.5 -54.5h-441v666h-164zM328 92h338q277 0 450.5 174t173.5 451t-173.5 450.5t-450.5 173.5h-338v-583h381v-92h-381v-574z" />
    <glyph glyph-name="dcroat" unicode="&#x111;" horiz-adv-x="1249" 
d="M102 471q0 207 136 349.5t335 142.5q80 0 149.5 -21t111.5 -51t72.5 -60.5t42.5 -51.5l12 -21h2v399h-287v92h287v185h102v-185h143v-92h-143v-1157h-102v184h-2q-4 -8 -12.5 -22t-41.5 -49t-73.5 -62t-110.5 -49t-150 -22q-199 0 -335 142t-136 349zM205 471
q0 -175 108 -287t271 -112t271 112t108 287t-108 287t-271 112t-271 -112t-108 -287z" />
    <glyph glyph-name="Emacron" unicode="&#x112;" horiz-adv-x="1249" 
d="M205 0v1434h952v-93h-850v-563h697v-92h-697v-594h850v-92h-952zM420 1710v92h502v-92h-502z" />
    <glyph glyph-name="emacron" unicode="&#x113;" horiz-adv-x="1208" 
d="M102 502q0 146 67.5 266t182.5 188t252 68q226 0 364 -153t138 -388v-2h-901q0 -176 114.5 -292.5t284.5 -116.5q59 0 111.5 13.5t89.5 35t68.5 47.5t51 52.5t33.5 48t20 35.5l5 13h102q-2 -7 -7 -19t-23.5 -47t-41.5 -67t-63.5 -71t-87 -67t-114.5 -47t-144 -19
q-137 0 -252 68t-182.5 188t-67.5 266zM205 573h799q-15 149 -128.5 254t-271.5 105t-266.5 -101t-132.5 -258zM358 1280v92h502v-92h-502z" />
    <glyph glyph-name="Edotaccent" unicode="&#x116;" horiz-adv-x="1249" 
d="M205 0v1434h952v-93h-850v-563h697v-92h-697v-594h850v-92h-952zM614 1741q0 33 22.5 57.5t59.5 24.5t59.5 -24.5t22.5 -57.5t-22.5 -57.5t-59.5 -24.5t-59.5 24.5t-22.5 57.5z" />
    <glyph glyph-name="edotaccent" unicode="&#x117;" horiz-adv-x="1208" 
d="M102 502q0 146 67.5 266t182.5 188t252 68q226 0 364 -153t138 -388v-2h-901q0 -176 114.5 -292.5t284.5 -116.5q59 0 111.5 13.5t89.5 35t68.5 47.5t51 52.5t33.5 48t20 35.5l5 13h102q-2 -7 -7 -19t-23.5 -47t-41.5 -67t-63.5 -71t-87 -67t-114.5 -47t-144 -19
q-137 0 -252 68t-182.5 188t-67.5 266zM205 573h799q-15 149 -128.5 254t-271.5 105t-266.5 -101t-132.5 -258zM512 1331q0 33 22.5 57.5t59.5 24.5t59.5 -24.5t22.5 -57.5t-22.5 -57.5t-59.5 -24.5t-59.5 24.5t-22.5 57.5z" />
    <glyph glyph-name="Eogonek" unicode="&#x118;" horiz-adv-x="1249" 
d="M205 0v1434h952v-93h-850v-563h697v-92h-697v-594h850v-92q-10 -4 -26.5 -12t-59 -34.5t-75 -55t-59 -73.5t-26.5 -91q0 -47 30 -75t83 -28q32 0 65 7.5t51 15.5l17 8v-82q-61 -31 -133 -31q-90 0 -147.5 52t-57.5 123q0 52 22 99t53.5 78t63.5 54.5t54 34.5l22 10h-829z
" />
    <glyph glyph-name="eogonek" unicode="&#x119;" horiz-adv-x="1208" 
d="M102 502q0 146 67.5 266t182.5 188t252 68q226 0 364 -153t138 -388v-2h-901q0 -176 114.5 -292.5t284.5 -116.5q59 0 111.5 13.5t89.5 35t68.5 47.5t51 52.5t33.5 48t20 35.5l5 13h102q-3 -9 -9 -24t-29.5 -57.5t-53.5 -79.5t-83 -78.5t-115 -65.5q-23 -11 -50.5 -26
t-67 -43t-70.5 -58t-53 -70.5t-22 -80.5q0 -47 30 -75t83 -28q32 0 65.5 7.5t50.5 15.5l17 8v-82q-61 -31 -133 -31q-90 0 -147.5 52t-57.5 123q0 140 183 258q-3 0 -9.5 -1t-9.5 -1q-137 0 -252 68t-182.5 188t-67.5 266zM205 573h799q-15 149 -128.5 254t-271.5 105
t-266.5 -101t-132.5 -258z" />
    <glyph glyph-name="Ecaron" unicode="&#x11a;" horiz-adv-x="1249" 
d="M205 0v1434h952v-93h-850v-563h697v-92h-697v-594h850v-92h-952zM410 1913v2h102l164 -215h20l164 215h103v-2l-226 -295h-102z" />
    <glyph glyph-name="ecaron" unicode="&#x11b;" horiz-adv-x="1208" 
d="M102 502q0 146 67.5 266t182.5 188t252 68q226 0 364 -153t138 -388v-2h-901q0 -176 114.5 -292.5t284.5 -116.5q59 0 111.5 13.5t89.5 35t68.5 47.5t51 52.5t33.5 48t20 35.5l5 13h102q-2 -7 -7 -19t-23.5 -47t-41.5 -67t-63.5 -71t-87 -67t-114.5 -47t-144 -19
q-137 0 -252 68t-182.5 188t-67.5 266zM205 573h799q-15 149 -128.5 254t-271.5 105t-266.5 -101t-132.5 -258zM328 1513v3h102l164 -216h20l164 216h103v-3l-226 -294h-102z" />
    <glyph glyph-name="Gbreve" unicode="&#x11e;" horiz-adv-x="1761" 
d="M113 717q0 216 96 390t262 271t369 97q87 0 166.5 -17t139.5 -45.5t113 -65t90.5 -77.5t69 -82t50.5 -77.5t32.5 -65t18.5 -45.5l6 -17h-103q-3 8 -8.5 22.5t-28 56t-50.5 79t-77 83.5t-106 79.5t-139 56t-174 22.5q-133 0 -248.5 -48t-198.5 -134t-130.5 -211
t-47.5 -272q0 -196 81.5 -348.5t223.5 -235t320 -82.5q247 0 420.5 168t193.5 426h-297v92h584v-92h-185q-22 -201 -118.5 -357t-252 -242.5t-345.5 -86.5q-203 0 -369 97t-262 271t-96 390zM594 1855h92q0 -63 49.5 -108t124.5 -45t124.5 45t49.5 108h92q0 -95 -76.5 -165
t-189.5 -70t-189.5 70t-76.5 165z" />
    <glyph glyph-name="gbreve" unicode="&#x11f;" horiz-adv-x="1259" 
d="M102 502q0 145 67.5 265.5t180 188.5t244.5 68q77 0 143 -20.5t112.5 -54.5t78.5 -71t53 -79h2v205h102v-1393h-849v94h747v500h-2q-21 -42 -53 -79t-78.5 -71t-112.5 -54.5t-143 -20.5q-132 0 -244.5 68t-180 188.5t-67.5 265.5zM205 502q0 -189 112.5 -309.5
t276.5 -120.5t276.5 120.5t112.5 309.5t-112.5 309.5t-276.5 120.5t-276.5 -120.5t-112.5 -309.5zM348 1464h92q0 -63 49.5 -108t124.5 -45t124.5 45t49.5 108h93q0 -94 -77 -164.5t-190 -70.5t-189.5 70t-76.5 165z" />
    <glyph glyph-name="Gcommaaccent" unicode="&#x122;" horiz-adv-x="1761" 
d="M113 717q0 216 96 390t262 271t369 97q87 0 166.5 -17t139.5 -45.5t113 -65t90.5 -77.5t69 -82t50.5 -77.5t32.5 -65t18.5 -45.5l6 -17h-103q-3 8 -8.5 22.5t-28 56t-50.5 79t-77 83.5t-106 79.5t-139 56t-174 22.5q-133 0 -248.5 -48t-198.5 -134t-130.5 -211
t-47.5 -272q0 -196 81.5 -348.5t223.5 -235t320 -82.5q247 0 420.5 168t193.5 426h-297v92h584v-92h-185q-22 -201 -118.5 -357t-252 -242.5t-345.5 -86.5q-203 0 -369 97t-262 271t-96 390zM748 -276q0 30 23 50.5t58 20.5q44 0 73.5 -35.5t29.5 -107.5q0 -90 -47.5 -143.5
t-126.5 -61.5v61q46 7 74 36t28 67q0 14 -2.5 26.5t-5.5 18.5l-2 6q-11 -10 -31 -10q-33 0 -52 19.5t-19 52.5z" />
    <glyph glyph-name="gcommaaccent" unicode="&#x123;" horiz-adv-x="1259" 
d="M522 1352q0 90 47.5 143t126.5 61v-61q-46 -7 -74 -35.5t-28 -66.5q0 -14 2.5 -27t5.5 -19l2 -6q11 11 31 11q33 0 52.5 -19.5t19.5 -52.5q0 -30 -23.5 -51t-58.5 -21q-44 0 -73.5 36t-29.5 108zM102 502q0 145 67.5 265.5t180 188.5t244.5 68q77 0 143 -20.5
t112.5 -54.5t78.5 -71t53 -79h2v205h102v-1393h-849v94h747v500h-2q-21 -42 -53 -79t-78.5 -71t-112.5 -54.5t-143 -20.5q-132 0 -244.5 68t-180 188.5t-67.5 265.5zM205 502q0 -189 112.5 -309.5t276.5 -120.5t276.5 120.5t112.5 309.5t-112.5 309.5t-276.5 120.5
t-276.5 -120.5t-112.5 -309.5z" />
    <glyph glyph-name="Imacron" unicode="&#x12a;" horiz-adv-x="512" 
d="M205 0v1434h102v-1434h-102zM10 1690v92h492v-92h-492z" />
    <glyph glyph-name="imacron" unicode="&#x12b;" horiz-adv-x="450" 
d="M174 0v1004h102v-1004h-102zM-31 1280v92h502v-92h-502z" />
    <glyph glyph-name="Iogonek" unicode="&#x12e;" horiz-adv-x="512" 
d="M-31 -276q0 44 19.5 86t45.5 72t62 58.5t60.5 43t48.5 26.5v2v1422h102v-1434q-10 -4 -26.5 -12t-59 -34.5t-75 -55t-59 -73.5t-26.5 -91q0 -47 30 -75t83 -28q32 0 65 7.5t51 15.5l17 8v-82q-61 -31 -133 -31q-90 0 -147.5 52t-57.5 123z" />
    <glyph glyph-name="iogonek" unicode="&#x12f;" horiz-adv-x="450" 
d="M-61 -276q0 52 24 100t58.5 80.5t69.5 57.5t59 36l24 12v2v992h102v-1004q-10 -4 -26.5 -12t-58.5 -34.5t-74.5 -55t-59 -73.5t-26.5 -91q0 -47 29.5 -75t82.5 -28q32 0 65.5 7.5t50.5 15.5l17 8v-82q-61 -31 -133 -31q-90 0 -147 52t-57 123zM143 1331q0 33 22.5 57.5
t59.5 24.5t59.5 -24.5t22.5 -57.5t-22.5 -57.5t-59.5 -24.5t-59.5 24.5t-22.5 57.5z" />
    <glyph glyph-name="Idotaccent" unicode="&#x130;" horiz-adv-x="512" 
d="M205 0v1434h102v-1434h-102zM174 1741q0 33 22.5 57.5t59.5 24.5t59.5 -24.5t22.5 -57.5t-22.5 -57.5t-59.5 -24.5t-59.5 24.5t-22.5 57.5z" />
    <glyph glyph-name="dotlessi" unicode="&#x131;" horiz-adv-x="450" 
d="M174 0v1004h102v-1004h-102z" />
    <glyph glyph-name="Kcommaaccent" unicode="&#x136;" horiz-adv-x="1300" 
d="M205 0v1434h102v-666h348l471 666h123l-501 -707l522 -727h-123l-492 676h-348v-676h-102zM614 -276q0 30 23.5 50.5t58.5 20.5q44 0 73.5 -35.5t29.5 -107.5q0 -90 -47.5 -143.5t-126.5 -61.5v61q46 7 74 36t28 67q0 14 -2.5 26.5t-4.5 18.5l-3 6q-11 -10 -31 -10
q-33 0 -52.5 19.5t-19.5 52.5z" />
    <glyph glyph-name="kcommaaccent" unicode="&#x137;" horiz-adv-x="1054" 
d="M174 0v1434h102v-850h267l338 420h123l-379 -472l409 -532h-123l-368 492h-267v-492h-102zM481 -276q0 30 23.5 50.5t58.5 20.5q44 0 73.5 -35.5t29.5 -107.5q0 -90 -47.5 -143.5t-126.5 -61.5v61q46 7 74 36t28 67q0 14 -2.5 26.5t-5.5 18.5l-2 6q-11 -10 -31 -10
q-33 0 -52.5 19.5t-19.5 52.5z" />
    <glyph glyph-name="Lacute" unicode="&#x139;" horiz-adv-x="1126" 
d="M205 0v1434h102v-1342h789v-92h-891zM215 1618l195 287h122v-2l-235 -285h-82z" />
    <glyph glyph-name="lacute" unicode="&#x13a;" horiz-adv-x="542" 
d="M174 0v1434h102v-1342h236v-92h-338zM184 1618l195 287h123v-2l-236 -285h-82z" />
    <glyph glyph-name="Lcommaaccent" unicode="&#x13b;" horiz-adv-x="1126" 
d="M205 0v1434h102v-1342h789v-92h-891zM563 -276q0 30 23.5 50.5t58.5 20.5q44 0 73.5 -35.5t29.5 -107.5q0 -90 -48 -143.5t-127 -61.5v61q46 8 74.5 36.5t28.5 66.5q0 14 -2.5 26.5t-5.5 18.5l-2 6q-11 -10 -31 -10q-33 0 -52.5 19.5t-19.5 52.5z" />
    <glyph glyph-name="lcommaaccent" unicode="&#x13c;" horiz-adv-x="542" 
d="M174 0v1434h102v-1342h236v-92h-338zM256 -276q0 30 23.5 50.5t58.5 20.5q44 0 73 -35.5t29 -107.5q0 -90 -47.5 -143.5t-126.5 -61.5v61q46 8 74.5 36.5t28.5 66.5q0 14 -2.5 26.5t-5.5 18.5l-3 6q-10 -10 -30 -10q-33 0 -52.5 19.5t-19.5 52.5z" />
    <glyph glyph-name="Lcaron" unicode="&#x13d;" horiz-adv-x="1126" 
d="M205 0v1434h102v-1342h789v-92h-891zM502 1382q0 30 23.5 51t58.5 21q44 0 73 -35.5t29 -107.5q0 -90 -47.5 -143.5t-126.5 -61.5v61q46 7 74 36t28 67q0 14 -2.5 26.5t-5.5 18.5l-2 6q-11 -10 -31 -10q-33 0 -52 19t-19 52z" />
    <glyph glyph-name="lcaron" unicode="&#x13e;" horiz-adv-x="542" 
d="M174 0v1434h102v-1342h236v-92h-338zM389 1382q0 30 23.5 51t58.5 21q44 0 73 -35.5t29 -107.5q0 -90 -47.5 -143.5t-126.5 -61.5v61q46 7 74.5 36t28.5 67q0 14 -2.5 26.5t-5.5 18.5l-2 6q-11 -10 -31 -10q-33 0 -52.5 19.5t-19.5 51.5z" />
    <glyph glyph-name="Lslash" unicode="&#x141;" horiz-adv-x="1126" 
d="M61 512v102l144 62v758h102v-707l297 133v-102l-297 -133v-533h789v-92h-891v573z" />
    <glyph glyph-name="lslash" unicode="&#x142;" horiz-adv-x="563" 
d="M20 512v102l175 82v738h102v-697l195 92v-102l-195 -92v-543h235v-92h-337v594z" />
    <glyph glyph-name="Nacute" unicode="&#x143;" horiz-adv-x="1495" 
d="M205 0v1434h164l819 -1342h2l-2 21v1321h102v-1434h-164l-819 1341h-2l2 -20v-1321h-102zM707 1618l194 287h123v-2l-236 -285h-81z" />
    <glyph glyph-name="nacute" unicode="&#x144;" horiz-adv-x="1187" 
d="M174 0v1004h102v-185h3q21 38 51 71.5t73.5 65t106 50t135.5 18.5q172 0 280.5 -117t108.5 -313v-594h-102v594q0 166 -78 252t-219 86q-155 0 -257 -106t-102 -273v-553h-102zM543 1219l194 286h123v-2l-235 -284h-82z" />
    <glyph glyph-name="Ncommaaccent" unicode="&#x145;" horiz-adv-x="1495" 
d="M205 0v1434h164l819 -1342h2l-2 21v1321h102v-1434h-164l-819 1341h-2l2 -20v-1321h-102zM666 -276q0 30 23.5 50.5t58.5 20.5q44 0 73 -35.5t29 -107.5q0 -90 -47.5 -143.5t-126.5 -61.5v61q46 7 74 36t28 67q0 14 -2.5 26.5t-5.5 18.5l-2 6q-11 -10 -31 -10
q-33 0 -52 19.5t-19 52.5z" />
    <glyph glyph-name="ncommaaccent" unicode="&#x146;" horiz-adv-x="1187" 
d="M174 0v1004h102v-185h3q21 38 51 71.5t73.5 65t106 50t135.5 18.5q172 0 280.5 -117t108.5 -313v-594h-102v594q0 166 -78 252t-219 86q-155 0 -257 -106t-102 -273v-553h-102zM522 -276q0 30 23.5 50.5t58.5 20.5q44 0 73.5 -35.5t29.5 -107.5q0 -90 -48 -143.5
t-127 -61.5v61q46 8 74.5 36.5t28.5 66.5q0 14 -2.5 26.5t-4.5 18.5l-3 6q-11 -10 -31 -10q-33 0 -52.5 19.5t-19.5 52.5z" />
    <glyph glyph-name="Ncaron" unicode="&#x147;" horiz-adv-x="1495" 
d="M205 0v1434h164l819 -1342h2l-2 21v1321h102v-1434h-164l-819 1341h-2l2 -20v-1321h-102zM492 1913v2h102l164 -215h20l164 215h102v-2l-225 -295h-102z" />
    <glyph glyph-name="ncaron" unicode="&#x148;" horiz-adv-x="1187" 
d="M174 0v1004h102v-185h3q21 38 51 71.5t73.5 65t106 50t135.5 18.5q172 0 280.5 -117t108.5 -313v-594h-102v594q0 166 -78 252t-219 86q-155 0 -257 -106t-102 -273v-553h-102zM317 1513v3h103l164 -216h20l164 216h102v-3l-225 -294h-102z" />
    <glyph glyph-name="Omacron" unicode="&#x14c;" horiz-adv-x="1679" 
d="M113 717q0 216 96 390t262 271t369 97t369 -97t262 -271t96 -390t-96 -390t-262 -271t-369 -97t-369 97t-262 271t-96 390zM215 717q0 -196 81.5 -348.5t223.5 -235t320 -82.5q133 0 248.5 48.5t198 134.5t130 211t47.5 272t-47.5 272t-130 211t-198 134t-248.5 48
t-248.5 -48t-198.5 -134t-130.5 -211t-47.5 -272zM594 1690v92h502v-92h-502z" />
    <glyph glyph-name="omacron" unicode="&#x14d;" horiz-adv-x="1228" 
d="M102 502q0 146 68 266t185 188t259 68t259 -68t185 -188t68 -266t-68 -266t-185 -188t-259 -68t-259 68t-185 188t-68 266zM205 502q0 -191 115.5 -310.5t293.5 -119.5t294 119.5t116 310.5t-116 310.5t-294 119.5t-293.5 -119.5t-115.5 -310.5zM358 1280v92h502v-92
h-502z" />
    <glyph glyph-name="Ohungarumlaut" unicode="&#x150;" horiz-adv-x="1679" 
d="M113 717q0 216 96 390t262 271t369 97t369 -97t262 -271t96 -390t-96 -390t-262 -271t-369 -97t-369 97t-262 271t-96 390zM215 717q0 -196 81.5 -348.5t223.5 -235t320 -82.5q133 0 248.5 48.5t198 134.5t130 211t47.5 272t-47.5 272t-130 211t-198 134t-248.5 48
t-248.5 -48t-198.5 -134t-130.5 -211t-47.5 -272zM922 1618l163 287h123v-2l-204 -285h-82zM645 1618l164 287h123v-2l-205 -285h-82z" />
    <glyph glyph-name="ohungarumlaut" unicode="&#x151;" horiz-adv-x="1228" 
d="M102 502q0 146 68 266t185 188t259 68t259 -68t185 -188t68 -266t-68 -266t-185 -188t-259 -68t-259 68t-185 188t-68 266zM205 502q0 -191 115.5 -310.5t293.5 -119.5t294 119.5t116 310.5t-116 310.5t-294 119.5t-293.5 -119.5t-115.5 -310.5zM696 1219l164 286h123v-2
l-205 -284h-82zM420 1219l164 286h123v-2l-205 -284h-82z" />
    <glyph glyph-name="OE" unicode="&#x152;" horiz-adv-x="2406" 
d="M113 717q0 165 55.5 308t150 241t222 153.5t268.5 55.5q87 0 167 -19.5t136.5 -48t107 -68.5t81 -73.5t56 -70.5t33.5 -52.5t13 -26.5v318h911v-93h-809v-563h656v-92h-656v-594h809v-92h-911v315q-8 -15 -13.5 -25.5t-33 -51t-56 -71t-80.5 -72.5t-108 -69t-136 -47
t-167 -20q-144 0 -272.5 57t-221.5 156.5t-147.5 241t-54.5 303.5zM215 717q0 -298 166 -482t428 -184q126 0 235.5 47.5t188.5 133t124.5 211t45.5 274.5q0 197 -78 349.5t-212.5 234t-303.5 81.5q-122 0 -231 -48.5t-189 -134t-127 -211t-47 -271.5z" />
    <glyph glyph-name="oe" unicode="&#x153;" horiz-adv-x="2068" 
d="M1032 737h2q3 6 8 16.5t24 40t41.5 57t60.5 60.5t80.5 56.5t102 40t124.5 16.5q146 0 258.5 -70.5t172.5 -193t60 -275.5v-2v-2h-881q0 -176 113.5 -292.5t276.5 -116.5q56 0 107 13.5t87 35t66.5 47.5t50 52.5t33 48t19.5 35.5l5 13h103q-2 -7 -7 -19t-24 -47t-41.5 -67
t-62.5 -71t-86 -67t-111.5 -47t-138.5 -19q-65 0 -124.5 15t-102 38.5t-79.5 54t-60.5 59t-41 55.5t-24.5 42t-9 20h-2l-1 -2q-6 -13 -12.5 -25.5t-26.5 -43t-42 -55.5t-59 -56t-78 -52t-98.5 -35.5t-120.5 -14.5q-132 0 -244.5 68t-180 188.5t-67.5 265.5t67.5 265.5
t180 188.5t244.5 68q63 0 121 -16t100.5 -41t79.5 -56t61.5 -61.5t42 -55.5t25.5 -41zM1085 573h779q-15 149 -126.5 254t-262.5 105t-258.5 -101.5t-131.5 -257.5zM205 502q0 -189 112.5 -309.5t276.5 -120.5t276.5 120.5t112.5 309.5t-112.5 309.5t-276.5 120.5
t-276.5 -120.5t-112.5 -309.5z" />
    <glyph glyph-name="Racute" unicode="&#x154;" horiz-adv-x="1392" 
d="M205 0v1434h583q226 0 359 -120.5t133 -309.5q0 -178 -99 -289t-290 -142l369 -573h-113l-369 563h-471v-563h-102zM307 655h481q189 0 289.5 92.5t100.5 256.5q0 157 -100.5 247t-289.5 90h-481v-686zM645 1618l195 287h123v-2l-236 -285h-82z" />
    <glyph glyph-name="racute" unicode="&#x155;" horiz-adv-x="747" 
d="M174 0v1004h102v-195h3q1 4 4.5 11.5t16 29t28.5 40.5t45 43t62.5 41t83.5 28.5t106 11.5h112v-92h-112q-155 0 -252 -101t-97 -268v-553h-102zM410 1219l194 286h123v-2l-235 -284h-82z" />
    <glyph glyph-name="Rcommaaccent" unicode="&#x156;" horiz-adv-x="1392" 
d="M205 0v1434h583q226 0 359 -120.5t133 -309.5q0 -178 -99 -289t-290 -142l369 -573h-113l-369 563h-471v-563h-102zM307 655h481q189 0 289.5 92.5t100.5 256.5q0 157 -100.5 247t-289.5 90h-481v-686zM625 -276q0 30 23.5 50.5t58.5 20.5q44 0 73 -35.5t29 -107.5
q0 -90 -47.5 -143.5t-126.5 -61.5v61q46 7 74 36t28 67q0 14 -2.5 26.5t-4.5 18.5l-3 6q-11 -10 -31 -10q-33 0 -52 19.5t-19 52.5z" />
    <glyph glyph-name="rcommaaccent" unicode="&#x157;" horiz-adv-x="747" 
d="M174 0v1004h102v-195h3q1 4 4.5 11.5t16 29t28.5 40.5t45 43t62.5 41t83.5 28.5t106 11.5h112v-92h-112q-155 0 -252 -101t-97 -268v-553h-102zM133 -276q0 30 23.5 50.5t58.5 20.5q44 0 73 -35.5t29 -107.5q0 -90 -47.5 -143.5t-126.5 -61.5v61q46 8 74.5 36.5
t28.5 66.5q0 14 -2.5 26.5t-5.5 18.5l-2 6q-11 -10 -31 -10q-33 0 -52.5 19.5t-19.5 52.5z" />
    <glyph glyph-name="Rcaron" unicode="&#x158;" horiz-adv-x="1392" 
d="M205 0v1434h583q226 0 359 -120.5t133 -309.5q0 -178 -99 -289t-290 -142l369 -573h-113l-369 563h-471v-563h-102zM307 655h481q189 0 289.5 92.5t100.5 256.5q0 157 -100.5 247t-289.5 90h-481v-686zM430 1913v2h102l164 -215h21l164 215h102v-2l-225 -295h-103z" />
    <glyph glyph-name="rcaron" unicode="&#x159;" horiz-adv-x="747" 
d="M174 0v1004h102v-195h3q1 4 4.5 11.5t16 29t28.5 40.5t45 43t62.5 41t83.5 28.5t106 11.5h112v-92h-112q-155 0 -252 -101t-97 -268v-553h-102zM174 1513v3h102l164 -216h21l164 216h102v-3l-225 -294h-103z" />
    <glyph glyph-name="Sacute" unicode="&#x15a;" horiz-adv-x="1300" 
d="M92 369h103q2 -7 5.5 -18.5t19.5 -44.5t36.5 -63t58.5 -66.5t83 -63t112.5 -44.5t144.5 -18q205 0 317.5 88t112.5 219q0 65 -32 116t-85.5 85t-123.5 61t-147.5 49.5t-154.5 46.5t-147 57t-123.5 74.5t-85.5 105t-32 143.5q0 153 133.5 266t347.5 113q94 0 175 -20.5
t135 -53t97 -72t67.5 -78.5t41 -71.5t21.5 -53.5l6 -20h-103q-1 6 -4.5 16t-18 38.5t-34 54.5t-55.5 58t-79.5 55t-108.5 38.5t-140 15.5q-177 0 -278 -82.5t-101 -203.5q0 -65 32 -116t86 -85t123.5 -61t147 -49.5t155 -46.5t147 -57t123.5 -74.5t86 -105t32 -143.5
q0 -77 -36.5 -148.5t-102.5 -127.5t-168.5 -89.5t-225.5 -33.5q-77 0 -145.5 14t-119.5 38t-94.5 54.5t-73.5 64.5t-53.5 68t-37.5 64.5t-23 54.5t-12 38zM594 1618l194 287h123v-2l-235 -285h-82z" />
    <glyph glyph-name="sacute" unicode="&#x15b;" horiz-adv-x="1044" 
d="M92 297h113q3 -9 9.5 -24t34 -54t62.5 -68.5t100 -54t142 -24.5q147 0 217 52t70 142q0 57 -38.5 96t-100 60t-135.5 37.5t-148.5 37t-136 49t-100 82.5t-38.5 130q0 107 100.5 186.5t268.5 79.5q71 0 132.5 -15t103 -39.5t75.5 -54t53.5 -59t33 -54t18.5 -39.5l4 -15
h-113q-2 7 -8 19.5t-29.5 44.5t-55 56t-88.5 44t-126 20q-131 0 -198.5 -50t-67.5 -124q0 -56 38.5 -94t100 -58.5t135.5 -36.5t148 -36.5t135.5 -50t100 -84.5t38.5 -132q0 -122 -102.5 -204t-286.5 -82q-77 0 -144.5 17.5t-113 45.5t-82.5 61.5t-59 67.5t-36.5 62
t-19.5 46zM471 1219l195 286h122v-2l-235 -284h-82z" />
    <glyph glyph-name="Scedilla" unicode="&#x15e;" horiz-adv-x="1300" 
d="M92 369h103q2 -7 5.5 -18.5t19.5 -44.5t36.5 -63t58.5 -66.5t83 -63t112.5 -44.5t144.5 -18q205 0 317.5 88t112.5 219q0 65 -32 116t-85.5 85t-123.5 61t-147.5 49.5t-154.5 46.5t-147 57t-123.5 74.5t-85.5 105t-32 143.5q0 153 133.5 266t347.5 113q94 0 175 -20.5
t135 -53t97 -72t67.5 -78.5t41 -71.5t21.5 -53.5l6 -20h-103q-1 6 -4.5 16t-18 38.5t-34 54.5t-55.5 58t-79.5 55t-108.5 38.5t-140 15.5q-177 0 -278 -82.5t-101 -203.5q0 -65 32 -116t86 -85t123.5 -61t147 -49.5t155 -46.5t147 -57t123.5 -74.5t86 -105t32 -143.5
q0 -155 -132.5 -270t-357.5 -127l-32 -74q70 -8 116.5 -57t46.5 -117q0 -78 -56.5 -131t-147.5 -53q-41 0 -77 10.5t-52 20.5l-15 10v82q6 -5 17 -11.5t48.5 -18t78.5 -11.5q53 0 82.5 27.5t29.5 74.5t-31.5 75t-91.5 28h-71l65 145q-71 4 -133.5 21t-109 41.5t-86.5 55
t-67.5 63.5t-49 65.5t-34.5 61.5t-21.5 51.5t-11.5 35.5z" />
    <glyph glyph-name="scedilla" unicode="&#x15f;" horiz-adv-x="1044" 
d="M92 297h113q3 -9 9.5 -24t34 -54t62.5 -68.5t100 -54t142 -24.5q147 0 217 52t70 142q0 57 -38.5 96t-100 60t-135.5 37.5t-148.5 37t-136 49t-100 82.5t-38.5 130q0 107 100.5 186.5t268.5 79.5q71 0 132.5 -15t103 -39.5t75.5 -54t53.5 -59t33 -54t18.5 -39.5l4 -15
h-113q-2 7 -8 19.5t-29.5 44.5t-55 56t-88.5 44t-126 20q-131 0 -198.5 -50t-67.5 -124q0 -56 38.5 -94t100 -58.5t135.5 -36.5t148 -36.5t135.5 -50t100 -84.5t38.5 -132q0 -116 -94 -196.5t-262 -87.5l-43 -95q70 -8 117 -57t47 -117q0 -78 -57 -131t-148 -53
q-41 0 -77 10.5t-51 20.5l-16 10v82q6 -5 17 -11.5t48.5 -18t78.5 -11.5q53 0 82.5 27.5t29.5 74.5t-31 75t-91 28h-72l74 166q-92 9 -167 44.5t-117 80t-70.5 88t-37.5 73.5z" />
    <glyph glyph-name="Scaron" unicode="&#x160;" horiz-adv-x="1300" 
d="M92 369h103q2 -7 5.5 -18.5t19.5 -44.5t36.5 -63t58.5 -66.5t83 -63t112.5 -44.5t144.5 -18q205 0 317.5 88t112.5 219q0 65 -32 116t-85.5 85t-123.5 61t-147.5 49.5t-154.5 46.5t-147 57t-123.5 74.5t-85.5 105t-32 143.5q0 153 133.5 266t347.5 113q94 0 175 -20.5
t135 -53t97 -72t67.5 -78.5t41 -71.5t21.5 -53.5l6 -20h-103q-1 6 -4.5 16t-18 38.5t-34 54.5t-55.5 58t-79.5 55t-108.5 38.5t-140 15.5q-177 0 -278 -82.5t-101 -203.5q0 -65 32 -116t86 -85t123.5 -61t147 -49.5t155 -46.5t147 -57t123.5 -74.5t86 -105t32 -143.5
q0 -77 -36.5 -148.5t-102.5 -127.5t-168.5 -89.5t-225.5 -33.5q-77 0 -145.5 14t-119.5 38t-94.5 54.5t-73.5 64.5t-53.5 68t-37.5 64.5t-23 54.5t-12 38zM358 1913v2h103l164 -215h20l164 215h102v-2l-225 -295h-102z" />
    <glyph glyph-name="scaron" unicode="&#x161;" horiz-adv-x="1044" 
d="M92 297h113q3 -9 9.5 -24t34 -54t62.5 -68.5t100 -54t142 -24.5q147 0 217 52t70 142q0 57 -38.5 96t-100 60t-135.5 37.5t-148.5 37t-136 49t-100 82.5t-38.5 130q0 107 100.5 186.5t268.5 79.5q71 0 132.5 -15t103 -39.5t75.5 -54t53.5 -59t33 -54t18.5 -39.5l4 -15
h-113q-2 7 -8 19.5t-29.5 44.5t-55 56t-88.5 44t-126 20q-131 0 -198.5 -50t-67.5 -124q0 -56 38.5 -94t100 -58.5t135.5 -36.5t148 -36.5t135.5 -50t100 -84.5t38.5 -132q0 -122 -102.5 -204t-286.5 -82q-77 0 -144.5 17.5t-113 45.5t-82.5 61.5t-59 67.5t-36.5 62
t-19.5 46zM246 1513v3h102l164 -216h20l164 216h103v-3l-226 -294h-102z" />
    <glyph glyph-name="Tcommaaccent" unicode="&#x162;" horiz-adv-x="1187" 
d="M20 1341v93h1147v-93h-522v-1341h-102v1341h-523zM502 -276q0 30 23.5 50.5t58.5 20.5q44 0 73 -35.5t29 -107.5q0 -90 -47.5 -143.5t-126.5 -61.5v61q46 7 74 36t28 67q0 14 -2.5 26.5t-5.5 18.5l-2 6q-11 -10 -31 -10q-33 0 -52 19.5t-19 52.5z" />
    <glyph glyph-name="tcommaaccent" unicode="&#x163;" horiz-adv-x="716" 
d="M61 911v93h144v225h102v-225h338v-93h-338v-819h348v-92h-450v911h-144zM348 -276q0 30 23.5 50.5t58.5 20.5q44 0 73 -35.5t29 -107.5q0 -90 -47.5 -143.5t-126.5 -61.5v61q46 8 74.5 36.5t28.5 66.5q0 14 -2.5 26.5t-4.5 18.5l-3 6q-11 -10 -31 -10q-33 0 -52.5 19.5
t-19.5 52.5z" />
    <glyph glyph-name="Tcaron" unicode="&#x164;" horiz-adv-x="1187" 
d="M20 1341v93h1147v-93h-522v-1341h-102v1341h-523zM307 1913v2h103l163 -215h21l164 215h102v-2l-225 -295h-103z" />
    <glyph glyph-name="tcaron" unicode="&#x165;" horiz-adv-x="716" 
d="M420 1167q0 30 23.5 51t58.5 21q44 0 73 -35.5t29 -107.5q0 -90 -47.5 -143.5t-126.5 -61.5v61q46 7 74 36t28 67q0 14 -2.5 26.5t-5.5 18.5l-2 6q-10 -10 -30 -10q-34 0 -53 19t-19 52zM61 911v93h144v225h102v-1137h348v-92h-450v911h-144z" />
    <glyph glyph-name="Umacron" unicode="&#x16a;" horiz-adv-x="1454" 
d="M184 522v912h103v-912q0 -221 119 -346t321 -125t321 125t119 346v912h103v-912q0 -252 -152 -407.5t-391 -155.5t-391 155.5t-152 407.5zM481 1690v92h502v-92h-502z" />
    <glyph glyph-name="umacron" unicode="&#x16b;" horiz-adv-x="1208" 
d="M174 410v594h102v-594q0 -166 78 -252t219 -86q155 0 257 106t102 273v553h102v-1004h-102v184h-2q-21 -38 -51 -71.5t-74 -64.5t-106.5 -49.5t-135.5 -18.5q-172 0 -280.5 117t-108.5 313zM358 1280v92h502v-92h-502z" />
    <glyph glyph-name="Uring" unicode="&#x16e;" horiz-adv-x="1454" 
d="M184 522v912h103v-912q0 -221 119 -346t321 -125t321 125t119 346v912h103v-912q0 -252 -152 -407.5t-391 -155.5t-391 155.5t-152 407.5zM522 1761q0 85 60 145t145 60t145 -60t60 -145t-60 -145t-145 -60t-145 60t-60 145zM604 1761q0 -54 34.5 -88.5t88.5 -34.5
t88.5 34.5t34.5 88.5t-34.5 88.5t-88.5 34.5t-88.5 -34.5t-34.5 -88.5z" />
    <glyph glyph-name="uring" unicode="&#x16f;" horiz-adv-x="1208" 
d="M174 410v594h102v-594q0 -166 78 -252t219 -86q155 0 257 106t102 273v553h102v-1004h-102v184h-2q-21 -38 -51 -71.5t-74 -64.5t-106.5 -49.5t-135.5 -18.5q-172 0 -280.5 117t-108.5 313zM410 1403q0 85 59.5 145t144.5 60t145 -60t60 -145t-60 -145t-145 -60
t-144.5 60t-59.5 145zM492 1403q0 -54 34 -88.5t88 -34.5t88.5 34.5t34.5 88.5t-34.5 88.5t-88.5 34.5t-88 -34.5t-34 -88.5z" />
    <glyph glyph-name="Uhungarumlaut" unicode="&#x170;" horiz-adv-x="1454" 
d="M184 522v912h103v-912q0 -221 119 -346t321 -125t321 125t119 346v912h103v-912q0 -252 -152 -407.5t-391 -155.5t-391 155.5t-152 407.5zM809 1618l164 287h123v-2l-205 -285h-82zM532 1618l164 287h123v-2l-205 -285h-82z" />
    <glyph glyph-name="uhungarumlaut" unicode="&#x171;" horiz-adv-x="1208" 
d="M174 410v594h102v-594q0 -166 78 -252t219 -86q155 0 257 106t102 273v553h102v-1004h-102v184h-2q-21 -38 -51 -71.5t-74 -64.5t-106.5 -49.5t-135.5 -18.5q-172 0 -280.5 117t-108.5 313zM696 1219l164 286h123v-2l-205 -284h-82zM420 1219l164 286h123v-2l-205 -284
h-82z" />
    <glyph glyph-name="Uogonek" unicode="&#x172;" horiz-adv-x="1454" 
d="M184 522v912h103v-912q0 -221 119 -346t321 -125t321 125t119 346v912h103v-912q0 -203 -101 -345.5t-272 -192.5q-32 -16 -62 -36t-67 -52t-59.5 -74.5t-22.5 -87.5q0 -47 30 -75t83 -28q32 0 65.5 7.5t50.5 15.5l17 8v-82q-61 -31 -133 -31q-90 0 -147.5 52t-57.5 123
q0 128 151 235h-18q-239 0 -391 155.5t-152 407.5z" />
    <glyph glyph-name="uogonek" unicode="&#x173;" horiz-adv-x="1208" 
d="M174 410v594h102v-594q0 -166 78 -252t219 -86q155 0 257 106t102 273v553h102v-1004q-10 -4 -26.5 -12t-59 -34.5t-75 -55t-59 -73.5t-26.5 -91q0 -47 30 -75t83 -28q32 0 65.5 7.5t50.5 15.5l17 8v-82q-61 -31 -133 -31q-90 0 -147.5 52t-57.5 123q0 52 24.5 100
t59 80.5t69 57.5t59.5 36l24 12v2v172h-2q-21 -38 -51 -71.5t-74 -64.5t-106.5 -49.5t-135.5 -18.5q-172 0 -280.5 117t-108.5 313z" />
    <glyph glyph-name="Ydieresis" unicode="&#x178;" horiz-adv-x="1290" 
d="M31 1434h123l491 -809h2l490 809h123l-564 -922v-512h-102v512zM737 1741q0 34 24 58t58 24t58 -24t24 -58t-24 -58t-58 -24t-58 24t-24 58zM389 1741q0 34 24 58t58 24t58 -24t24 -58t-24 -58t-58 -24t-58 24t-24 58z" />
    <glyph glyph-name="Zacute" unicode="&#x179;" horiz-adv-x="1228" 
d="M82 0v92l942 1247v2h-911v93h1024v-93l-942 -1247v-2h952v-92h-1065zM573 1618l195 287h123v-2l-236 -285h-82z" />
    <glyph glyph-name="zacute" unicode="&#x17a;" horiz-adv-x="972" 
d="M72 0v92l686 817v2h-666v93h789v-93l-686 -817v-2h706v-92h-829zM430 1219l195 286h123v-2l-236 -284h-82z" />
    <glyph glyph-name="Zdotaccent" unicode="&#x17b;" horiz-adv-x="1228" 
d="M82 0v92l942 1247v2h-911v93h1024v-93l-942 -1247v-2h952v-92h-1065zM543 1741q0 33 22.5 57.5t59.5 24.5t59.5 -24.5t22.5 -57.5t-22.5 -57.5t-59.5 -24.5t-59.5 24.5t-22.5 57.5z" />
    <glyph glyph-name="zdotaccent" unicode="&#x17c;" horiz-adv-x="972" 
d="M72 0v92l686 817v2h-666v93h789v-93l-686 -817v-2h706v-92h-829zM410 1341q0 33 22.5 57.5t59.5 24.5q36 0 58.5 -24.5t22.5 -57.5t-22 -57t-59 -24t-59.5 24.5t-22.5 56.5z" />
    <glyph glyph-name="Zcaron" unicode="&#x17d;" horiz-adv-x="1228" 
d="M82 0v92l942 1247v2h-911v93h1024v-93l-942 -1247v-2h952v-92h-1065zM338 1913v2h102l164 -215h21l163 215h103v-2l-225 -295h-103z" />
    <glyph glyph-name="zcaron" unicode="&#x17e;" horiz-adv-x="972" 
d="M72 0v92l686 817v2h-666v93h789v-93l-686 -817v-2h706v-92h-829zM215 1513v3h102l164 -216h21l164 216h102v-3l-225 -294h-103z" />
    <glyph glyph-name="florin" unicode="&#x192;" horiz-adv-x="716" 
d="M-143 -389v92h307l174 1208h-133v93h143l62 430h419v-93h-327l-51 -337h276v-93h-287l-194 -1300h-389z" />
    <glyph glyph-name="uni01FA" unicode="&#x1fa;" 
d="M481 1761q0 81 56.5 140.5t136.5 64.5l94 154h102v-2l-129 -160q65 -19 107.5 -74t42.5 -123q0 -85 -60 -145t-145 -60t-145 60t-60 145zM563 1761q0 -54 34.5 -88.5t88.5 -34.5t88.5 34.5t34.5 88.5t-34.5 88.5t-88.5 34.5t-88.5 -34.5t-34.5 -88.5zM61 0l379 1434h492
l379 -1434h-103l-133 502h-778l-133 -502h-103zM317 594h738l-205 747h-328z" />
    <glyph glyph-name="uni01FB" unicode="&#x1fb;" horiz-adv-x="1259" 
d="M399 1403q0 81 56.5 140.5t136.5 64.5l94 153h102v-2l-129 -160q65 -19 107.5 -73.5t42.5 -122.5q0 -85 -60 -145t-145 -60t-145 60t-60 145zM481 1403q0 -54 34.5 -88.5t88.5 -34.5t88.5 34.5t34.5 88.5t-34.5 88.5t-88.5 34.5t-88.5 -34.5t-34.5 -88.5zM102 502
q0 145 67.5 265.5t180 188.5t244.5 68q77 0 143 -20.5t112.5 -54.5t78.5 -71t53 -79h2v205h102v-1004h-102v205h-2q-21 -42 -53 -79t-78.5 -71t-112.5 -54.5t-143 -20.5q-132 0 -244.5 68t-180 188.5t-67.5 265.5zM205 502q0 -189 112.5 -309.5t276.5 -120.5t276.5 120.5
t112.5 309.5t-112.5 309.5t-276.5 120.5t-276.5 -120.5t-112.5 -309.5z" />
    <glyph glyph-name="uni01FC" unicode="&#x1fc;" horiz-adv-x="1955" 
d="M61 0l379 1434h1424v-93h-809v-563h655v-92h-655v-594h809v-92h-912v502h-655l-133 -502h-103zM317 594h635v747h-430zM973 1618l194 287h123v-2l-235 -285h-82z" />
    <glyph glyph-name="uni01FD" unicode="&#x1fd;" horiz-adv-x="1996" 
d="M133 276q0 135 100 221.5t279 86.5h379v82q0 124 -75 195t-212 71q-54 0 -101.5 -12.5t-80 -32.5t-59 -43.5t-42.5 -47.5t-26.5 -44t-14.5 -32l-4 -13h-102q2 7 5 18t17.5 44t33.5 63t54.5 66.5t77.5 63t105.5 44.5t136.5 18q56 0 106.5 -13t85.5 -34t65 -46t48 -50
t31 -46t18 -34l5 -13h10q5 10 16 25.5t49.5 56.5t83 72t118 56.5t153.5 25.5q150 0 265 -70.5t175.5 -190.5t60.5 -269v-2h-901q0 -177 115.5 -298.5t284.5 -121.5q59 0 111.5 13.5t89.5 35t68.5 47.5t51 52.5t33.5 48t19 35.5l6 13h102q-2 -7 -7 -19t-23.5 -47t-41.5 -67
t-63.5 -71t-87 -67t-114.5 -47t-144 -19q-65 0 -124 14.5t-102 38t-80 52t-61.5 57t-41.5 52t-24 38.5l-8 14h-10q-2 -6 -7 -15.5t-23 -37t-40.5 -52.5t-60.5 -56t-81.5 -53t-106 -37t-131.5 -15q-164 0 -261.5 84.5t-97.5 211.5zM993 584h799q-15 142 -128.5 245
t-270.5 103t-266.5 -99t-133.5 -249zM236 276q0 -96 66 -150t200 -54q176 0 282.5 117t106.5 303h-379q-133 0 -204.5 -60t-71.5 -156zM942 1219l195 286h123v-2l-236 -284h-82z" />
    <glyph glyph-name="uni01FE" unicode="&#x1fe;" horiz-adv-x="1679" 
d="M72 -10v123l176 151q-135 196 -135 453q0 216 96 390t262 271t369 97q157 0 295.5 -61.5t238.5 -172.5l234 203v-123l-176 -154q135 -198 135 -450q0 -216 -96 -390t-262 -271t-369 -97q-159 0 -297.5 60.5t-237.5 170.5zM215 717q0 -225 104 -389l984 852
q-85 97 -204 149.5t-259 52.5q-133 0 -248.5 -48t-198.5 -134t-130.5 -211t-47.5 -272zM375 252q86 -96 205.5 -148.5t259.5 -52.5q133 0 248.5 48.5t198 134.5t130 211t47.5 272q0 224 -106 389zM788 1618l195 287h123v-2l-236 -285h-82z" />
    <glyph glyph-name="uni01FF" unicode="&#x1ff;" horiz-adv-x="1228" 
d="M92 -10v123l101 86q-91 134 -91 303q0 146 68 266t185 188t259 68q105 0 199 -39.5t164 -110.5l160 140v-123l-101 -90q90 -133 90 -299q0 -146 -68 -266t-185 -188t-259 -68q-215 0 -362 147zM205 502q0 -134 61 -240l639 551q-113 119 -291 119t-293.5 -119.5
t-115.5 -310.5zM324 188q110 -116 290 -116q178 0 294 119.5t116 310.5q0 132 -61 235zM563 1219l195 286h123v-2l-236 -284h-82z" />
    <glyph glyph-name="Scommaaccent" unicode="&#x218;" horiz-adv-x="1300" 
d="M92 369h103q2 -7 5.5 -18.5t19.5 -44.5t36.5 -63t58.5 -66.5t83 -63t112.5 -44.5t144.5 -18q205 0 317.5 88t112.5 219q0 65 -32 116t-85.5 85t-123.5 61t-147.5 49.5t-154.5 46.5t-147 57t-123.5 74.5t-85.5 105t-32 143.5q0 153 133.5 266t347.5 113q94 0 175 -20.5
t135 -53t97 -72t67.5 -78.5t41 -71.5t21.5 -53.5l6 -20h-103q-1 6 -4.5 16t-18 38.5t-34 54.5t-55.5 58t-79.5 55t-108.5 38.5t-140 15.5q-177 0 -278 -82.5t-101 -203.5q0 -65 32 -116t86 -85t123.5 -61t147 -49.5t155 -46.5t147 -57t123.5 -74.5t86 -105t32 -143.5
q0 -77 -36.5 -148.5t-102.5 -127.5t-168.5 -89.5t-225.5 -33.5q-77 0 -145.5 14t-119.5 38t-94.5 54.5t-73.5 64.5t-53.5 68t-37.5 64.5t-23 54.5t-12 38zM563 -276q0 30 23.5 50.5t58.5 20.5q44 0 73.5 -35.5t29.5 -107.5q0 -90 -48 -143.5t-127 -61.5v61q46 8 74.5 36.5
t28.5 66.5q0 14 -2.5 26.5t-5.5 18.5l-2 6q-11 -10 -31 -10q-33 0 -52.5 19.5t-19.5 52.5z" />
    <glyph glyph-name="scommaaccent" unicode="&#x219;" horiz-adv-x="1044" 
d="M92 297h113q3 -9 9.5 -24t34 -54t62.5 -68.5t100 -54t142 -24.5q147 0 217 52t70 142q0 57 -38.5 96t-100 60t-135.5 37.5t-148.5 37t-136 49t-100 82.5t-38.5 130q0 107 100.5 186.5t268.5 79.5q71 0 132.5 -15t103 -39.5t75.5 -54t53.5 -59t33 -54t18.5 -39.5l4 -15
h-113q-2 7 -8 19.5t-29.5 44.5t-55 56t-88.5 44t-126 20q-131 0 -198.5 -50t-67.5 -124q0 -56 38.5 -94t100 -58.5t135.5 -36.5t148 -36.5t135.5 -50t100 -84.5t38.5 -132q0 -122 -102.5 -204t-286.5 -82q-77 0 -144.5 17.5t-113 45.5t-82.5 61.5t-59 67.5t-36.5 62
t-19.5 46zM451 -276q0 30 23 50.5t58 20.5q44 0 73.5 -35.5t29.5 -107.5q0 -90 -47.5 -143.5t-126.5 -61.5v61q46 7 74 36t28 67q0 14 -2.5 26.5t-4.5 18.5l-3 6q-11 -10 -31 -10q-33 0 -52 19.5t-19 52.5z" />
    <glyph glyph-name="uni021A" unicode="&#x21a;" horiz-adv-x="1187" 
d="M20 1341v93h1147v-93h-522v-1341h-102v1341h-523zM502 -276q0 30 23.5 50.5t58.5 20.5q44 0 73 -35.5t29 -107.5q0 -90 -47.5 -143.5t-126.5 -61.5v61q46 7 74 36t28 67q0 14 -2.5 26.5t-5.5 18.5l-2 6q-11 -10 -31 -10q-33 0 -52 19.5t-19 52.5z" />
    <glyph glyph-name="uni021B" unicode="&#x21b;" horiz-adv-x="716" 
d="M61 911v93h144v225h102v-225h338v-93h-338v-819h348v-92h-450v911h-144zM348 -276q0 30 23.5 50.5t58.5 20.5q44 0 73 -35.5t29 -107.5q0 -90 -47.5 -143.5t-126.5 -61.5v61q46 8 74.5 36.5t28.5 66.5q0 14 -2.5 26.5t-4.5 18.5l-3 6q-11 -10 -31 -10q-33 0 -52.5 19.5
t-19.5 52.5z" />
    <glyph glyph-name="afii57929" unicode="&#x2bc;" horiz-adv-x="307" 
d="M61 1372q0 30 23.5 51t58.5 21q44 0 73.5 -36t29.5 -108q0 -90 -47.5 -143t-126.5 -61v61q46 7 74 36t28 67q0 14 -2.5 26.5t-5.5 18.5l-2 6q-11 -11 -31 -11q-33 0 -52.5 19.5t-19.5 52.5z" />
    <glyph glyph-name="circumflex" unicode="&#x2c6;" horiz-adv-x="675" 
d="M61 1126v2l226 295h102l225 -295v-2h-102l-164 215h-20l-164 -215h-103z" />
    <glyph glyph-name="caron" unicode="&#x2c7;" horiz-adv-x="675" 
d="M61 1421v2h103l164 -215h20l164 215h102v-2l-225 -295h-102z" />
    <glyph glyph-name="breve" unicode="&#x2d8;" horiz-adv-x="655" 
d="M61 1382h93q0 -63 49.5 -108t124.5 -45t124.5 45t49.5 108h92q0 -95 -76.5 -165t-189.5 -70t-190 70.5t-77 164.5z" />
    <glyph glyph-name="dotaccent" unicode="&#x2d9;" horiz-adv-x="286" 
d="M61 1341q0 33 22.5 57.5t59.5 24.5t59.5 -24.5t22.5 -57.5q0 -32 -22.5 -56.5t-59.5 -24.5t-59.5 24.5t-22.5 56.5z" />
    <glyph glyph-name="ring" unicode="&#x2da;" horiz-adv-x="532" 
d="M61 1219q0 85 60 144.5t145 59.5t145 -59.5t60 -144.5t-60 -145t-145 -60t-145 60t-60 145zM143 1219q0 -54 34.5 -88.5t88.5 -34.5t88.5 34.5t34.5 88.5t-34.5 88t-88.5 34t-88.5 -34t-34.5 -88z" />
    <glyph glyph-name="ogonek" unicode="&#x2db;" horiz-adv-x="460" 
d="M61 -276q0 52 26.5 101t64 83t75 60.5t63.5 39.5l27 12l82 -20q-10 -4 -26.5 -12t-58.5 -34.5t-74.5 -55t-59 -73.5t-26.5 -91q0 -47 29.5 -75t82.5 -28q32 0 65 7.5t51 15.5l17 8v-82q-61 -31 -133 -31q-90 0 -147.5 52t-57.5 123z" />
    <glyph glyph-name="tilde" unicode="&#x2dc;" horiz-adv-x="716" 
d="M61 1198v47q0 72 47 120t117 48q45 0 86 -21t66.5 -45.5t56.5 -45.5t58 -21q31 0 51 21.5t20 56.5v45h92v-47q0 -72 -46.5 -120t-116.5 -48q-45 0 -86 21t-66.5 45.5t-56.5 45.5t-58 21q-31 0 -51 -21.5t-20 -56.5v-45h-93z" />
    <glyph glyph-name="hungarumlaut" unicode="&#x2dd;" horiz-adv-x="686" 
d="M338 1137l164 286h123v-2l-205 -284h-82zM61 1137l164 286h123v-2l-205 -284h-82z" />
    <glyph glyph-name="uni0301" unicode="&#x301;" horiz-adv-x="0" 
d="M-819 1690l143 235h103v-2l-185 -233h-61z" />
    <glyph glyph-name="uni030A" unicode="&#x30a;" horiz-adv-x="0" 
d="M-891 1556q0 85 60 145t145 60t145 -60t60 -145t-60 -144.5t-145 -59.5t-145 59.5t-60 144.5zM-809 1556q0 -54 34.5 -88t88.5 -34t88.5 34t34.5 88t-34.5 88.5t-88.5 34.5t-88.5 -34.5t-34.5 -88.5z" />
    <glyph glyph-name="afii10023" unicode="&#x401;" horiz-adv-x="1249" 
d="M205 0v1434h952v-93h-850v-563h697v-92h-697v-594h850v-92h-952zM786 1698q0 34 24 58t58 24t58 -24t24 -58t-24 -58t-58 -24t-58 24t-24 58zM438 1698q0 34 24 58t58 24t58 -24t24 -58t-24 -58t-58 -24t-58 24t-24 58z" />
    <glyph glyph-name="afii10051" unicode="&#x402;" horiz-adv-x="1566" 
d="M0 1341v93h1055v-93h-502v-491h410q228 0 359.5 -126t131.5 -335v-563h-410v92h308v471q0 178 -99 273.5t-290 95.5h-410v-758h-102v1341h-451z" />
    <glyph glyph-name="afii10052" unicode="&#x403;" horiz-adv-x="1136" 
d="M205 0v1434h891v-93h-789v-1341h-102zM604 1587l195 287h123v-2l-236 -285h-82z" />
    <glyph glyph-name="afii10053" unicode="&#x404;" horiz-adv-x="1638" 
d="M113 717q0 216 96 390t262 271t369 97q113 0 212 -27.5t166.5 -72t123 -98t89 -107t56 -98t31.5 -72.5l8 -27h-103q-3 9 -8 23.5t-27 57t-49 81t-76 86t-105.5 81t-140 57t-177.5 23.5q-168 0 -306.5 -76t-223.5 -216.5t-95 -321.5h655v-92h-655q15 -282 188.5 -453.5
t436.5 -171.5q76 0 144.5 15t120.5 40.5t98 58.5t78.5 70t59.5 73.5t44 69.5t28.5 58.5t16.5 40.5l4 15h102q-3 -11 -9.5 -30.5t-32 -74.5t-58 -105.5t-90.5 -112t-126 -105.5t-167.5 -74.5t-212.5 -30.5q-203 0 -369 97t-262 271t-96 390z" />
    <glyph glyph-name="afii10054" unicode="&#x405;" horiz-adv-x="1300" 
d="M92 369h103q2 -7 5.5 -18.5t19.5 -44.5t36.5 -63t58.5 -66.5t83 -63t112.5 -44.5t144.5 -18q205 0 317.5 88t112.5 219q0 65 -32 116t-85.5 85t-123.5 61t-147.5 49.5t-154.5 46.5t-147 57t-123.5 74.5t-85.5 105t-32 143.5q0 153 133.5 266t347.5 113q94 0 175 -20.5
t135 -53t97 -72t67.5 -78.5t41 -71.5t21.5 -53.5l6 -20h-103q-1 6 -4.5 16t-18 38.5t-34 54.5t-55.5 58t-79.5 55t-108.5 38.5t-140 15.5q-177 0 -278 -82.5t-101 -203.5q0 -65 32 -116t86 -85t123.5 -61t147 -49.5t155 -46.5t147 -57t123.5 -74.5t86 -105t32 -143.5
q0 -77 -36.5 -148.5t-102.5 -127.5t-168.5 -89.5t-225.5 -33.5q-77 0 -145.5 14t-119.5 38t-94.5 54.5t-73.5 64.5t-53.5 68t-37.5 64.5t-23 54.5t-12 38z" />
    <glyph glyph-name="afii10055" unicode="&#x406;" horiz-adv-x="512" 
d="M205 0v1434h102v-1434h-102z" />
    <glyph glyph-name="afii10056" unicode="&#x407;" horiz-adv-x="512" 
d="M205 0v1434h102v-1434h-102zM348 1700q0 34 24 58t58 24t58 -24t24 -58t-24 -58t-58 -24t-58 24t-24 58zM0 1700q0 34 24 58t58 24t58 -24t24 -58t-24 -58t-58 -24t-58 24t-24 58z" />
    <glyph glyph-name="afii10057" unicode="&#x408;" horiz-adv-x="1126" 
d="M0 317l102 21q1 -6 4 -16.5t16 -40t29.5 -57t47.5 -60.5t68 -56.5t93 -40t121 -16.5q171 0 265 99.5t94 289.5v994h102v-994q0 -229 -122 -355t-339 -126q-81 0 -152 19.5t-118.5 51.5t-86 70t-61 76t-37.5 70t-20 52z" />
    <glyph glyph-name="afii10058" unicode="&#x409;" horiz-adv-x="2099" 
d="M61 0l369 1434h655v-523h441q227 0 364.5 -127.5t137.5 -322.5q0 -202 -137.5 -331.5t-364.5 -129.5h-543v1341h-481l-338 -1341h-103zM1085 92h441q190 0 294.5 99t104.5 270q0 164 -105 261t-294 97h-441v-727z" />
    <glyph glyph-name="afii10059" unicode="&#x40a;" horiz-adv-x="2293" 
d="M205 0v1434h102v-594h850v594h103v-594h460q225 0 358.5 -119t133.5 -301t-133.5 -301t-358.5 -119h-563v748h-850v-748h-102zM1260 92h460q188 0 288.5 89t100.5 239t-100.5 239t-288.5 89h-460v-656z" />
    <glyph glyph-name="afii10060" unicode="&#x40b;" horiz-adv-x="1566" 
d="M0 1341v93h1055v-93h-502v-491h410q228 0 359.5 -126t131.5 -335v-389h-102v389q0 178 -99 273.5t-290 95.5h-410v-758h-102v1341h-451z" />
    <glyph glyph-name="afii10061" unicode="&#x40c;" horiz-adv-x="1300" 
d="M205 0v1434h102v-666h348l471 666h123l-501 -707l522 -727h-123l-492 676h-348v-676h-102zM639 1587l195 287h122v-2l-235 -285h-82z" />
    <glyph glyph-name="afii10062" unicode="&#x40e;" horiz-adv-x="1249" 
d="M41 1434h113l297 -799h325l320 799h112l-573 -1434h-113l215 543h-358zM326 1853h92q0 -86 53.5 -135t151.5 -49t151 49t53 135h93q0 -110 -84.5 -188t-212.5 -78t-212.5 78t-84.5 188z" />
    <glyph glyph-name="afii10145" unicode="&#x40f;" horiz-adv-x="1474" 
d="M205 0v1434h102v-1342h860v1342h103v-1434h-482v-287h-102v287h-481z" />
    <glyph glyph-name="afii10017" unicode="&#x410;" 
d="M61 0l379 1434h492l379 -1434h-103l-133 502h-778l-133 -502h-103zM317 594h738l-205 747h-328z" />
    <glyph glyph-name="afii10018" unicode="&#x411;" horiz-adv-x="1382" 
d="M205 0v1434h952v-93h-850v-471h471q218 0 355 -124.5t137 -305.5q0 -188 -136.5 -314t-355.5 -126h-573zM307 92h471q182 0 285.5 95.5t103.5 252.5q0 150 -104 244t-285 94h-471v-686z" />
    <glyph glyph-name="afii10019" unicode="&#x412;" horiz-adv-x="1443" 
d="M205 0v1434h655q175 0 287.5 -106.5t112.5 -262.5q0 -69 -21 -126.5t-51 -91t-60.5 -57t-51.5 -32.5l-21 -8v-2q6 -2 15.5 -5t37 -16t52.5 -29.5t56 -46t53 -64t37 -85.5t15 -109q0 -169 -125.5 -281t-335.5 -112h-655zM307 788h553q137 0 217 76.5t80 200.5t-80 200
t-217 76h-553v-553zM307 92h553q173 0 266 82t93 219q0 139 -93 221t-266 82h-553v-604z" />
    <glyph glyph-name="afii10020" unicode="&#x413;" horiz-adv-x="1136" 
d="M205 0v1434h891v-93h-789v-1341h-102z" />
    <glyph glyph-name="afii10021" unicode="&#x414;" horiz-adv-x="1474" 
d="M10 -287v379h164l328 1342h471l327 -1342h164v-379h-102v287h-1249v-287h-103zM276 92h922l-307 1249h-307z" />
    <glyph glyph-name="afii10022" unicode="&#x415;" horiz-adv-x="1249" 
d="M205 0v1434h952v-93h-850v-563h697v-92h-697v-594h850v-92h-952z" />
    <glyph glyph-name="afii10024" unicode="&#x416;" horiz-adv-x="2007" 
d="M31 0l512 727l-492 707h123l461 -666h317v666h103v-666h317l461 666h123l-492 -707l512 -727h-123l-481 676h-317v-676h-103v676h-317l-481 -676h-123z" />
    <glyph glyph-name="afii10025" unicode="&#x417;" horiz-adv-x="1300" 
d="M881 745v-2q6 -1 17 -4.5t41.5 -16.5t58.5 -29.5t62.5 -47.5t59 -67.5t41.5 -91t17 -117.5q0 -81 -36 -155t-101.5 -130.5t-166 -90.5t-219.5 -34q-100 0 -186 23.5t-143 61.5t-102.5 84t-71 92t-42.5 84t-22 62l-6 23h102q1 -7 4 -19t17.5 -47.5t34.5 -67t58 -70.5
t84.5 -67.5t117.5 -47.5t155 -19q199 0 309.5 90.5t110.5 227.5q0 143 -110.5 235t-309.5 92h-184v92h184q179 0 279 86.5t100 221.5q0 121 -101 203.5t-278 82.5q-73 0 -136 -17t-106 -44t-77.5 -60t-54.5 -65.5t-33 -59.5t-18 -44l-5 -17h-102q2 8 6 22.5t22.5 56t42 79.5
t67.5 84t96 79t130 56t168 23q108 0 200 -32t153 -84.5t95 -121t34 -141.5q0 -56 -14 -106t-36.5 -84.5t-50 -63.5t-55 -46t-50 -29.5t-36.5 -16.5z" />
    <glyph glyph-name="afii10026" unicode="&#x418;" horiz-adv-x="1495" 
d="M205 0v1434h102v-1301l-2 -20h2l840 1321h143v-1434h-102v1300l2 21h-2l-840 -1321h-143z" />
    <glyph glyph-name="afii10027" unicode="&#x419;" horiz-adv-x="1495" 
d="M205 0v1434h102v-1301l-2 -20h2l840 1321h143v-1434h-102v1300l2 21h-2l-840 -1321h-143zM451 1853h92q0 -86 53.5 -135t151.5 -49t151 49t53 135h92q0 -110 -84 -188t-212 -78t-212.5 78t-84.5 188z" />
    <glyph glyph-name="afii10028" unicode="&#x41a;" horiz-adv-x="1300" 
d="M205 0v1434h102v-666h348l471 666h123l-501 -707l522 -727h-123l-492 676h-348v-676h-102z" />
    <glyph glyph-name="afii10029" unicode="&#x41b;" horiz-adv-x="1341" 
d="M61 0l369 1434h479l371 -1434h-104l-347 1341h-317l-348 -1341h-103z" />
    <glyph glyph-name="afii10030" unicode="&#x41c;" horiz-adv-x="1884" 
d="M205 0v1434h164l501 -973h144l502 973h163v-1434h-102v1321l2 20h-2l-502 -972h-266l-502 972h-2l2 -20v-1321h-102z" />
    <glyph glyph-name="afii10031" unicode="&#x41d;" horiz-adv-x="1474" 
d="M205 0v1434h102v-656h860v656h103v-1434h-103v686h-860v-686h-102z" />
    <glyph glyph-name="afii10032" unicode="&#x41e;" horiz-adv-x="1679" 
d="M113 717q0 216 96 390t262 271t369 97t369 -97t262 -271t96 -390t-96 -390t-262 -271t-369 -97t-369 97t-262 271t-96 390zM215 717q0 -196 81.5 -348.5t223.5 -235t320 -82.5q133 0 248.5 48.5t198 134.5t130 211t47.5 272t-47.5 272t-130 211t-198 134t-248.5 48
t-248.5 -48t-198.5 -134t-130.5 -211t-47.5 -272z" />
    <glyph glyph-name="afii10033" unicode="&#x41f;" horiz-adv-x="1474" 
d="M205 0v1434h1065v-1434h-103v1341h-860v-1341h-102z" />
    <glyph glyph-name="afii10034" unicode="&#x420;" 
d="M205 0v1434h573q226 0 364 -127.5t138 -323.5q0 -202 -137.5 -331.5t-364.5 -129.5h-471v-522h-102zM307 614h471q190 0 295 99t105 270q0 164 -105.5 261t-294.5 97h-471v-727z" />
    <glyph glyph-name="afii10035" unicode="&#x421;" horiz-adv-x="1638" 
d="M113 717q0 216 96 390t262 271t369 97q113 0 212 -27.5t166.5 -72t123 -98t89 -107t56 -98t31.5 -72.5l8 -27h-103q-3 9 -8 23.5t-27 57t-49 81t-76 86t-105.5 81t-140 57t-177.5 23.5q-133 0 -248.5 -48t-198.5 -134t-130.5 -211t-47.5 -272q0 -196 81.5 -348.5
t223.5 -235t320 -82.5q76 0 144.5 15t120.5 40.5t98 58.5t78.5 70t59.5 73.5t44 69.5t28.5 58.5t16.5 40.5l4 15h102q-3 -11 -9.5 -30.5t-32 -74.5t-58 -105.5t-90.5 -112t-126 -105.5t-167.5 -74.5t-212.5 -30.5q-203 0 -369 97t-262 271t-96 390z" />
    <glyph glyph-name="afii10036" unicode="&#x422;" horiz-adv-x="1187" 
d="M20 1341v93h1147v-93h-522v-1341h-102v1341h-523z" />
    <glyph glyph-name="afii10037" unicode="&#x423;" horiz-adv-x="1249" 
d="M41 1434h113l297 -799h325l320 799h112l-573 -1434h-113l215 543h-358z" />
    <glyph glyph-name="afii10038" unicode="&#x424;" horiz-adv-x="1781" 
d="M92 727q0 127 52.5 240.5t147.5 200t237 138.5t311 56v164h102v-164q169 -4 311 -56t237 -138.5t147.5 -200t52.5 -240.5t-52.5 -240.5t-147.5 -200t-237 -138.5t-311 -56v-164h-102v164q-169 4 -311 56t-237 138.5t-147.5 200t-52.5 240.5zM942 184q150 4 273 47.5
t204 116.5t124.5 170t43.5 209t-43.5 209t-124.5 170t-204 116.5t-273 47.5v-1086zM195 727q0 -112 43.5 -209t124.5 -170t204 -116.5t273 -47.5v1086q-150 -4 -273 -47.5t-204 -116.5t-124.5 -170t-43.5 -209z" />
    <glyph glyph-name="afii10039" unicode="&#x425;" horiz-adv-x="1280" 
d="M51 0l389 717l-368 717h112l348 -666h216l348 666h112l-368 -717l389 -717h-113l-368 676h-216l-368 -676h-113z" />
    <glyph glyph-name="afii10040" unicode="&#x426;" horiz-adv-x="1443" 
d="M205 0v1434h102v-1342h799v1342h102v-1342h185v-379h-103v287h-1085z" />
    <glyph glyph-name="afii10041" unicode="&#x427;" horiz-adv-x="1392" 
d="M174 952v482h102v-482q0 -183 104.5 -291t274.5 -108q72 0 142.5 14.5t120 35.5t89 42.5t59.5 36.5l19 14v738h103v-1434h-103v594q-7 -5 -21 -14t-59 -32t-92.5 -40.5t-118 -32t-139.5 -14.5q-216 0 -348.5 134.5t-132.5 356.5z" />
    <glyph glyph-name="afii10042" unicode="&#x428;" horiz-adv-x="2048" 
d="M205 0v1434h102v-1342h666v1342h102v-1342h666v1342h102v-1434h-1638z" />
    <glyph glyph-name="afii10043" unicode="&#x429;" horiz-adv-x="2078" 
d="M205 0v1434h104v-1342h664v1342h102v-1342h666v1342h102v-1342h185v-379h-103v287h-1720z" />
    <glyph glyph-name="afii10044" unicode="&#x42a;" horiz-adv-x="1464" 
d="M0 1341v93h440v-523h441q226 0 363.5 -127t137.5 -323q0 -202 -137 -331.5t-364 -129.5h-543v1341h-338zM440 92h441q190 0 294.5 99t104.5 270q0 164 -105 261t-294 97h-441v-727z" />
    <glyph glyph-name="afii10045" unicode="&#x42b;" horiz-adv-x="1740" 
d="M1434 0v1434h102v-1434h-102zM205 0v1434h102v-523h430q227 0 364.5 -127.5t137.5 -322.5q0 -202 -137.5 -331.5t-364.5 -129.5h-532zM307 92h430q190 0 295 99t105 270q0 164 -105.5 261t-294.5 97h-430v-727z" />
    <glyph glyph-name="afii10046" unicode="&#x42c;" horiz-adv-x="1341" 
d="M205 0v1434h102v-523h461q227 0 364.5 -127.5t137.5 -322.5q0 -202 -137.5 -331.5t-364.5 -129.5h-563zM307 92h461q190 0 294.5 99t104.5 270q0 164 -105 261t-294 97h-461v-727z" />
    <glyph glyph-name="afii10047" unicode="&#x42d;" horiz-adv-x="1628" 
d="M92 492h103q3 -9 8 -25t27 -62t50 -87.5t77 -92.5t107 -87.5t143 -61.5t181 -25q263 0 436.5 171.5t188.5 453.5h-655v92h655q-10 181 -95 321.5t-223.5 216.5t-306.5 76q-94 0 -177 -22.5t-140.5 -58.5t-105 -80t-76.5 -87.5t-49 -79.5t-28 -58l-7 -23h-103q3 10 9 28.5
t30.5 70.5t56 99.5t88.5 105.5t124 99.5t166 70t212 28.5q152 0 286.5 -57t231.5 -156.5t153.5 -241t56.5 -303.5t-56.5 -303.5t-153.5 -241t-231.5 -156.5t-286.5 -57q-89 0 -169.5 18t-141.5 49t-115 71t-92 84.5t-69.5 88.5t-51 84t-33 71t-18.5 49z" />
    <glyph glyph-name="afii10048" unicode="&#x42e;" horiz-adv-x="2088" 
d="M205 0v1434h102v-666h277q10 196 105.5 358.5t252 255.5t338.5 93q141 0 268.5 -57t222 -156t150 -241.5t55.5 -303.5t-55.5 -303.5t-150 -241.5t-222 -156t-268.5 -57q-182 0 -338 93t-252 258t-106 366h-277v-676h-102zM686 717q0 -146 47 -271.5t127 -211.5
t189 -134.5t231 -48.5t231 48.5t189 134.5t127 211.5t47 271.5t-47 271.5t-127 211t-189 134t-231 48.5t-231 -48.5t-189 -134t-127 -211t-47 -271.5z" />
    <glyph glyph-name="afii10049" unicode="&#x42f;" horiz-adv-x="1413" 
d="M133 995q0 194 133 316.5t359 122.5h583v-1434h-102v563h-512l-328 -563h-112l327 584q-162 31 -255 140t-93 271zM236 995q0 -158 100 -249t289 -91h481v686h-481q-189 0 -289 -92t-100 -254z" />
    <glyph glyph-name="afii10065" unicode="&#x430;" horiz-adv-x="1259" 
d="M102 502q0 145 67.5 265.5t180 188.5t244.5 68q77 0 143 -20.5t112.5 -54.5t78.5 -71t53 -79h2v205h102v-1004h-102v205h-2q-21 -42 -53 -79t-78.5 -71t-112.5 -54.5t-143 -20.5q-132 0 -244.5 68t-180 188.5t-67.5 265.5zM205 502q0 -189 112.5 -309.5t276.5 -120.5
t276.5 120.5t112.5 309.5t-112.5 309.5t-276.5 120.5t-276.5 -120.5t-112.5 -309.5z" />
    <glyph glyph-name="afii10066" unicode="&#x431;" horiz-adv-x="1157" 
d="M113 512q0 253 42 433t123.5 286t191.5 154.5t257 48.5h256v-93h-256q-222 0 -356.5 -153.5t-157.5 -460.5h2q4 8 12.5 21t41.5 46.5t72.5 59.5t107.5 47t145 21q130 0 241.5 -64t175.5 -172.5t64 -234.5t-64 -234.5t-175.5 -172.5t-241.5 -64q-99 0 -187 39t-153 107.5
t-103 169t-38 216.5zM215 451q0 -161 109 -270t270 -109t270 109t109 270t-109 269.5t-270 108.5t-270 -108.5t-109 -269.5z" />
    <glyph glyph-name="afii10067" unicode="&#x432;" horiz-adv-x="1085" 
d="M174 0v1004h471q135 0 216 -73.5t81 -185.5q0 -53 -19.5 -96t-47.5 -66t-46.5 -34t-29.5 -14v-3q8 -2 23.5 -7.5t45 -24.5t54 -45t43 -73t18.5 -103q0 -121 -90.5 -200t-247.5 -79h-471zM276 573h369q97 0 146 43.5t49 122.5q0 172 -195 172h-369v-338zM276 92h369
q236 0 236 193q0 196 -236 196h-369v-389z" />
    <glyph glyph-name="afii10068" unicode="&#x433;" horiz-adv-x="870" 
d="M174 0v1004h676v-93h-574v-911h-102z" />
    <glyph glyph-name="afii10069" unicode="&#x434;" horiz-adv-x="1116" 
d="M10 -246v338h113l246 912h379l245 -912h113v-338h-102v246h-891v-246h-103zM225 92h666l-225 819h-215z" />
    <glyph glyph-name="afii10070" unicode="&#x435;" horiz-adv-x="1208" 
d="M102 502q0 146 67.5 266t182.5 188t252 68q226 0 364 -153t138 -388v-2h-901q0 -176 114.5 -292.5t284.5 -116.5q59 0 111.5 13.5t89.5 35t68.5 47.5t51 52.5t33.5 48t20 35.5l5 13h102q-2 -7 -7 -19t-23.5 -47t-41.5 -67t-63.5 -71t-87 -67t-114.5 -47t-144 -19
q-137 0 -252 68t-182.5 188t-67.5 266zM205 573h799q-15 149 -128.5 254t-271.5 105t-266.5 -101t-132.5 -258z" />
    <glyph glyph-name="afii10072" unicode="&#x436;" horiz-adv-x="1556" 
d="M20 0l400 532l-369 472h123l328 -420h225v420h102v-420h226l327 420h123l-368 -472l399 -532h-123l-358 492h-226v-492h-102v492h-225l-359 -492h-123z" />
    <glyph glyph-name="afii10073" unicode="&#x437;" horiz-adv-x="993" 
d="M686 535v-3q166 -66 198 -197q7 -28 7 -59q0 -122 -107.5 -209t-291.5 -87q-79 0 -146.5 17t-111.5 44t-78.5 59.5t-53.5 65.5t-31.5 60t-16.5 44l-3 17h103q1 -4 3.5 -12t13.5 -30.5t25.5 -42.5t42 -45t61 -43t83.5 -30t109 -12q147 0 221.5 57t74.5 147t-74.5 147.5
t-221.5 57.5h-134v92h134q132 0 199 52t67 133q0 74 -67.5 124t-198.5 50q-71 0 -128.5 -18t-89.5 -43.5t-53.5 -51t-28.5 -43.5l-8 -18h-102q1 6 4.5 15.5t17 37t32 52.5t52 56t73.5 53t100.5 37t130.5 15q176 0 272 -76t96 -190q0 -46 -18 -86t-43.5 -64t-51 -41.5
t-43.5 -24.5z" />
    <glyph glyph-name="afii10074" unicode="&#x438;" horiz-adv-x="1187" 
d="M174 0v1004h102v-850l-2 -21h2l615 871h123v-1004h-103v850l2 20h-2l-614 -870h-123z" />
    <glyph glyph-name="afii10075" unicode="&#x439;" horiz-adv-x="1187" 
d="M174 0v1004h102v-850l-2 -21h2l615 871h123v-1004h-103v850l2 20h-2l-614 -870h-123zM319 1399h93q0 -65 48 -109.5t136 -44.5t136 44.5t48 109.5h92q0 -95 -78 -165.5t-198 -70.5t-198.5 70.5t-78.5 165.5z" />
    <glyph glyph-name="afii10076" unicode="&#x43a;" horiz-adv-x="1054" 
d="M174 0v1004h102v-420h267l338 420h123l-379 -472l409 -532h-123l-368 492h-267v-492h-102z" />
    <glyph glyph-name="afii10077" unicode="&#x43b;" horiz-adv-x="1054" 
d="M51 0l287 1004h379l287 -1004h-103l-256 911h-235l-256 -911h-103z" />
    <glyph glyph-name="afii10078" unicode="&#x43c;" horiz-adv-x="1433" 
d="M174 0v1004h154l348 -646h82l348 646h154v-1004h-103v870l2 21h-2l-338 -635h-205l-338 635h-2l2 -21v-870h-102z" />
    <glyph glyph-name="afii10079" unicode="&#x43d;" horiz-adv-x="1187" 
d="M174 0v1004h102v-441h635v441h103v-1004h-103v471h-635v-471h-102z" />
    <glyph glyph-name="afii10080" unicode="&#x43e;" horiz-adv-x="1228" 
d="M102 502q0 146 68 266t185 188t259 68t259 -68t185 -188t68 -266t-68 -266t-185 -188t-259 -68t-259 68t-185 188t-68 266zM205 502q0 -191 115.5 -310.5t293.5 -119.5t294 119.5t116 310.5t-116 310.5t-294 119.5t-293.5 -119.5t-115.5 -310.5z" />
    <glyph glyph-name="afii10081" unicode="&#x43f;" horiz-adv-x="1177" 
d="M174 0v1004h830v-1004h-103v911h-625v-911h-102z" />
    <glyph glyph-name="afii10082" unicode="&#x440;" horiz-adv-x="1259" 
d="M174 -389v1393h102v-205h3q21 42 53 79t78.5 71t112.5 54.5t143 20.5q132 0 244.5 -68t179.5 -188.5t67 -265.5t-67 -265.5t-179.5 -188.5t-244.5 -68q-77 0 -143 20.5t-112.5 54.5t-78.5 71t-53 79h-3v-594h-102zM276 502q0 -189 113 -309.5t277 -120.5t276.5 120.5
t112.5 309.5t-112.5 309.5t-276.5 120.5t-277 -120.5t-113 -309.5z" />
    <glyph glyph-name="afii10083" unicode="&#x441;" horiz-adv-x="1167" 
d="M102 502q0 145 67.5 265.5t180 188.5t244.5 68q77 0 145.5 -18.5t116 -48.5t86.5 -66t63 -72t40.5 -66t22.5 -49l7 -18h-102q-4 10 -12 26.5t-39 59t-70.5 75t-108.5 59t-149 26.5q-164 0 -276.5 -120.5t-112.5 -309.5t112.5 -309.5t276.5 -120.5q61 0 115 16t92 41
t70.5 55.5t52.5 61t34 55.5t20 41l5 16h102q-2 -8 -6.5 -21.5t-23 -53t-41.5 -75t-64 -79t-88.5 -75t-118 -53t-149.5 -21.5q-132 0 -244.5 68t-180 188.5t-67.5 265.5z" />
    <glyph glyph-name="afii10084" unicode="&#x442;" horiz-adv-x="880" 
d="M10 911v93h860v-93h-378v-911h-103v911h-379z" />
    <glyph glyph-name="afii10085" unicode="&#x443;" horiz-adv-x="1034" 
d="M61 1004h113l236 -912h215l266 912h113l-420 -1393h-113l133 389h-266z" />
    <glyph glyph-name="afii10086" unicode="&#x444;" horiz-adv-x="1351" 
d="M92 502q0 102 42 196.5t113 164.5t170 113.5t208 47.5v410h102v-410q109 -4 208 -47.5t170 -113.5t113 -164.5t42 -196.5t-42 -196.5t-113 -164.5t-170 -113.5t-208 -47.5v-369h-102v369q-109 4 -208 47.5t-170 113.5t-113 164.5t-42 196.5zM727 72q177 0 303.5 126.5
t126.5 303.5t-126.5 303.5t-303.5 126.5v-860zM195 502q0 -177 126.5 -303.5t303.5 -126.5v860q-177 0 -303.5 -126.5t-126.5 -303.5z" />
    <glyph glyph-name="afii10087" unicode="&#x445;" horiz-adv-x="972" 
d="M20 0l308 522l-287 482h113l256 -431h153l256 431h113l-287 -482l307 -522h-112l-277 481h-153l-277 -481h-113z" />
    <glyph glyph-name="afii10088" unicode="&#x446;" horiz-adv-x="1187" 
d="M174 0v1004h102v-912h594v912h103v-912h164v-338h-103v246h-860z" />
    <glyph glyph-name="afii10089" unicode="&#x447;" horiz-adv-x="1116" 
d="M143 657v347h103v-347q0 -132 64 -195t202 -63q55 0 108.5 10t91.5 24.5t68 29.5t45 25l15 10v506h102v-1004h-102v403q-5 -4 -15.5 -10.5t-44 -23t-69 -29t-90 -23t-109.5 -10.5q-176 0 -272.5 93t-96.5 257z" />
    <glyph glyph-name="afii10090" unicode="&#x448;" horiz-adv-x="1617" 
d="M174 0v1004h102v-912h482v912h102v-912h481v912h103v-1004h-1270z" />
    <glyph glyph-name="afii10091" unicode="&#x449;" horiz-adv-x="1658" 
d="M174 0v1004h102v-912h482v912h102v-912h481v912h103v-912h164v-338h-103v246h-1331z" />
    <glyph glyph-name="afii10092" unicode="&#x44a;" horiz-adv-x="1085" 
d="M0 911v93h348v-369h307q158 0 258.5 -92.5t100.5 -225.5t-100.5 -225t-258.5 -92h-409v911h-246zM348 92h307q121 0 188.5 61.5t67.5 163.5t-67.5 164t-188.5 62h-307v-451z" />
    <glyph glyph-name="afii10093" unicode="&#x44b;" 
d="M1096 0v1004h102v-1004h-102zM174 0v1004h102v-369h287q158 0 258.5 -92.5t100.5 -225.5t-100.5 -225t-258.5 -92h-389zM276 92h287q121 0 188.5 61.5t67.5 163.5t-67.5 164t-188.5 62h-287v-451z" />
    <glyph glyph-name="afii10094" unicode="&#x44c;" horiz-adv-x="1034" 
d="M174 0v1004h102v-369h328q158 0 258.5 -92.5t100.5 -225.5t-100.5 -225t-258.5 -92h-430zM276 92h328q121 0 188.5 61.5t67.5 163.5t-67.5 164t-188.5 62h-328v-451z" />
    <glyph glyph-name="afii10095" unicode="&#x44d;" horiz-adv-x="1167" 
d="M82 358h102q2 -6 6 -16.5t19.5 -40t34 -56.5t51.5 -60t71 -56.5t92 -40t115 -16.5q158 0 268.5 111t119.5 288h-474v94h471q-20 164 -128 265.5t-257 101.5q-59 0 -111.5 -13.5t-89.5 -35.5t-68 -48t-50.5 -52t-33.5 -48t-20 -35l-5 -14h-103q2 7 6.5 19t22.5 47.5
t40.5 67t63 70.5t87.5 67.5t115.5 47.5t145.5 19q132 0 244.5 -68t180 -188.5t67.5 -265.5t-67.5 -265.5t-180 -188.5t-244.5 -68q-79 0 -149 21t-118.5 54t-88.5 73.5t-64.5 81t-41 73.5t-23.5 54z" />
    <glyph glyph-name="afii10096" unicode="&#x44e;" horiz-adv-x="1556" 
d="M174 0v1004h102v-451h195q24 203 160 337t332 134q132 0 244.5 -68t179.5 -188.5t67 -265.5t-67 -265.5t-179.5 -188.5t-244.5 -68q-197 0 -332.5 135t-159.5 344h-195v-459h-102zM573 502q0 -186 113 -308t277 -122t276.5 120.5t112.5 309.5t-112.5 309.5t-276.5 120.5
t-277 -120.5t-113 -309.5z" />
    <glyph glyph-name="afii10097" unicode="&#x44f;" horiz-adv-x="1126" 
d="M133 0l215 379q-84 26 -149.5 107.5t-65.5 189.5q0 134 105.5 231t263.5 97h450v-1004h-102v348h-348l-62 4l-194 -352h-113zM236 676q0 -102 72.5 -169t193.5 -67h348v471h-348q-121 0 -193.5 -66.5t-72.5 -168.5z" />
    <glyph glyph-name="afii10071" unicode="&#x451;" horiz-adv-x="1208" 
d="M102 502q0 146 67.5 266t182.5 188t252 68q226 0 364 -153t138 -388v-2h-901q0 -176 114.5 -292.5t284.5 -116.5q59 0 111.5 13.5t89.5 35t68.5 47.5t51 52.5t33.5 48t20 35.5l5 13h102q-2 -7 -7 -19t-23.5 -47t-41.5 -67t-63.5 -71t-87 -67t-114.5 -47t-144 -19
q-137 0 -252 68t-182.5 188t-67.5 266zM205 573h799q-15 149 -128.5 254t-271.5 105t-266.5 -101t-132.5 -258zM688 1274q0 34 24 58t58 24t58 -24t24 -58t-24 -58t-58 -24t-58 24t-24 58zM340 1274q0 34 24 58t58 24t58 -24t24 -58t-24 -58t-58 -24t-58 24t-24 58z" />
    <glyph glyph-name="afii10099" unicode="&#x452;" horiz-adv-x="1167" 
d="M31 1096v92h153v246h103v-246h256v-92h-256v-430h2q17 30 38 57t54 54.5t71.5 47.5t91 32.5t111.5 12.5q172 0 280.5 -117t108.5 -313v-829h-409v94h307v735q0 166 -78 252t-219 86q-155 0 -256.5 -106t-101.5 -273v-399h-103v1096h-153z" />
    <glyph glyph-name="afii10100" unicode="&#x453;" horiz-adv-x="870" 
d="M174 0v1004h676v-93h-574v-911h-102zM463 1157l194 287h123v-2l-235 -285h-82z" />
    <glyph glyph-name="afii10101" unicode="&#x454;" horiz-adv-x="1167" 
d="M102 502q0 145 67.5 265.5t180 188.5t244.5 68q77 0 145.5 -18.5t116 -48.5t86.5 -66t63 -72t40.5 -66t22.5 -49l7 -18h-102q-4 10 -12 26.5t-39 59t-70.5 75t-108.5 59t-149 26.5q-149 0 -257 -101.5t-128 -265.5h471v-94h-473q9 -177 119 -288t268 -111q61 0 115 16
t92 41t70.5 55.5t52.5 61t34 55.5t20 41l5 16h102q-2 -8 -6.5 -21.5t-23 -53t-41.5 -75t-64 -79t-88.5 -75t-118 -53t-149.5 -21.5q-132 0 -244.5 68t-180 188.5t-67.5 265.5z" />
    <glyph glyph-name="afii10102" unicode="&#x455;" horiz-adv-x="1044" 
d="M92 297h113q3 -9 9.5 -24t34 -54t62.5 -68.5t100 -54t142 -24.5q147 0 217 52t70 142q0 57 -38.5 96t-100 60t-135.5 37.5t-148.5 37t-136 49t-100 82.5t-38.5 130q0 107 100.5 186.5t268.5 79.5q71 0 132.5 -15t103 -39.5t75.5 -54t53.5 -59t33 -54t18.5 -39.5l4 -15
h-113q-2 7 -8 19.5t-29.5 44.5t-55 56t-88.5 44t-126 20q-131 0 -198.5 -50t-67.5 -124q0 -56 38.5 -94t100 -58.5t135.5 -36.5t148 -36.5t135.5 -50t100 -84.5t38.5 -132q0 -122 -102.5 -204t-286.5 -82q-77 0 -144.5 17.5t-113 45.5t-82.5 61.5t-59 67.5t-36.5 62
t-19.5 46z" />
    <glyph glyph-name="afii10103" unicode="&#x456;" horiz-adv-x="450" 
d="M143 1331q0 33 22.5 57.5t59.5 24.5t59.5 -24.5t22.5 -57.5t-22.5 -57.5t-59.5 -24.5t-59.5 24.5t-22.5 57.5zM174 0v1004h102v-1004h-102z" />
    <glyph glyph-name="afii10104" unicode="&#x457;" horiz-adv-x="450" 
d="M174 0v1004h102v-1004h-102zM317 1331q0 34 24 58t58 24t58 -24t24 -58t-24 -58t-58 -24t-58 24t-24 58zM-31 1331q0 34 24 58t58 24t58 -24t24 -58t-24 -58t-58 -24t-58 24t-24 58z" />
    <glyph glyph-name="afii10105" unicode="&#x458;" horiz-adv-x="450" 
d="M143 1331q0 33 22.5 57.5t59.5 24.5t59.5 -24.5t22.5 -57.5t-22.5 -57.5t-59.5 -24.5t-59.5 24.5t-22.5 57.5zM-123 -389v92h297v1301h102v-1393h-399z" />
    <glyph glyph-name="afii10106" unicode="&#x459;" horiz-adv-x="1576" 
d="M51 0l277 1004h501v-369h318q158 0 258 -92t100 -226q0 -133 -100 -225t-258 -92h-420v911h-317l-256 -911h-103zM829 92h318q121 0 188.5 61.5t67.5 163.5t-67.5 164t-188.5 62h-318v-451z" />
    <glyph glyph-name="afii10107" unicode="&#x45a;" horiz-adv-x="1740" 
d="M174 0v1004h102v-410h615v410h102v-410h338q151 0 244.5 -85.5t93.5 -211.5t-93.5 -211.5t-244.5 -85.5h-440v502h-615v-502h-102zM993 92h338q113 0 174.5 55.5t61.5 149.5t-61.5 149.5t-174.5 55.5h-338v-410z" />
    <glyph glyph-name="afii10108" unicode="&#x45b;" horiz-adv-x="1167" 
d="M31 1096v92h153v246h103v-246h256v-92h-256v-430h2q17 30 38 57t54 54.5t71.5 47.5t91 32.5t111.5 12.5q172 0 280.5 -117t108.5 -313v-440h-102v440q0 166 -78 252t-219 86q-155 0 -256.5 -106t-101.5 -273v-399h-103v1096h-153z" />
    <glyph glyph-name="afii10109" unicode="&#x45c;" horiz-adv-x="1054" 
d="M174 0v1004h102v-420h267l338 420h123l-379 -472l409 -532h-123l-368 492h-267v-492h-102zM498 1147l194 287h123v-2l-235 -285h-82z" />
    <glyph glyph-name="afii10110" unicode="&#x45e;" horiz-adv-x="1034" 
d="M61 1004h113l236 -912h215l266 912h113l-420 -1393h-113l133 389h-266zM262 1397h92q0 -65 48.5 -109.5t136.5 -44.5t136 44.5t48 109.5h92q0 -95 -78 -165.5t-198 -70.5t-198.5 70.5t-78.5 165.5z" />
    <glyph glyph-name="afii10193" unicode="&#x45f;" horiz-adv-x="1177" 
d="M174 0v1004h102v-912h625v912h103v-1004h-359v-246h-102v246h-369z" />
    <glyph glyph-name="afii10050" unicode="&#x490;" horiz-adv-x="1136" 
d="M205 0v1434h788v204h103v-297h-789v-1341h-102z" />
    <glyph glyph-name="afii10098" unicode="&#x491;" horiz-adv-x="870" 
d="M174 0v1004h574v194h102v-287h-574v-911h-102z" />
    <glyph glyph-name="uni1E9E" unicode="&#x1e9e;" horiz-adv-x="1423" 
d="M184 0v942q0 233 137.5 362.5t395.5 129.5h522v-95l-420 -456v-2q116 -4 213 -40.5t162 -96.5t101 -141t36 -173q0 -89 -38 -167t-106.5 -136.5t-171.5 -92.5t-227 -34h-133v92h133q207 0 324 96.5t117 241.5q0 159 -116 258.5t-325 99.5h-92v93l410 460h-389
q-221 0 -325.5 -99t-104.5 -300v-942h-103z" />
    <glyph glyph-name="endash" unicode="&#x2013;" horiz-adv-x="1341" 
d="M123 502v92h1096v-92h-1096z" />
    <glyph glyph-name="emdash" unicode="&#x2014;" horiz-adv-x="1720" 
d="M123 502v92h1474v-92h-1474z" />
    <glyph glyph-name="quoteleft" unicode="&#x2018;" horiz-adv-x="378" 
d="M92 1229q0 96 47 152.5t127 72.5v-51q-55 -14 -78.5 -43.5t-23.5 -89.5q0 -14 2.5 -26.5t5.5 -18.5l2 -6q21 10 41 10q31 0 51.5 -20.5t20.5 -51.5q0 -37 -26.5 -59.5t-65.5 -22.5q-103 0 -103 154z" />
    <glyph glyph-name="quoteright" unicode="&#x2019;" horiz-adv-x="378" 
d="M92 1372q0 37 26.5 59.5t65.5 22.5q103 0 103 -154q0 -96 -47 -152.5t-127 -72.5v51q55 14 78.5 44t23.5 90q0 14 -2.5 26.5t-4.5 18.5l-3 6q-21 -11 -41 -11q-31 0 -51.5 20.5t-20.5 51.5z" />
    <glyph glyph-name="quotesinglbase" unicode="&#x201a;" horiz-adv-x="378" 
d="M92 51q0 37 26.5 59.5t65.5 22.5q103 0 103 -153q0 -96 -47 -153t-127 -73v51q55 14 78.5 44t23.5 90q0 14 -2.5 26.5t-4.5 18.5l-3 6q-21 -10 -41 -10q-31 0 -51.5 20t-20.5 51z" />
    <glyph glyph-name="quotedblleft" unicode="&#x201c;" horiz-adv-x="645" 
d="M92 1229q0 96 47 152.5t127 72.5v-51q-55 -14 -78.5 -43.5t-23.5 -89.5q0 -14 2.5 -26.5t5.5 -18.5l2 -6q21 10 41 10q31 0 51.5 -20.5t20.5 -51.5q0 -37 -26.5 -59.5t-65.5 -22.5q-103 0 -103 154zM358 1229q0 96 47 152.5t127 72.5v-51q-55 -14 -78.5 -43.5
t-23.5 -89.5q0 -14 2.5 -26.5t5.5 -18.5l2 -6q21 10 41 10q31 0 51.5 -20.5t20.5 -51.5q0 -37 -26.5 -59.5t-65.5 -22.5q-103 0 -103 154z" />
    <glyph glyph-name="quotedblright" unicode="&#x201d;" horiz-adv-x="645" 
d="M92 1372q0 37 26.5 59.5t65.5 22.5q103 0 103 -154q0 -96 -47 -152.5t-127 -72.5v51q55 14 78.5 44t23.5 90q0 14 -2.5 26.5t-4.5 18.5l-3 6q-21 -11 -41 -11q-31 0 -51.5 20.5t-20.5 51.5zM358 1372q0 37 27 59.5t66 22.5q102 0 102 -154q0 -96 -47 -152.5t-127 -72.5
v51q55 14 78.5 44t23.5 90q0 14 -2.5 26.5t-4.5 18.5l-3 6q-21 -11 -41 -11q-31 0 -51.5 20.5t-20.5 51.5z" />
    <glyph glyph-name="quotedblbase" unicode="&#x201e;" horiz-adv-x="645" 
d="M92 51q0 37 26.5 59.5t65.5 22.5q103 0 103 -153q0 -96 -47 -153t-127 -73v51q55 14 78.5 44t23.5 90q0 14 -2.5 26.5t-4.5 18.5l-3 6q-21 -10 -41 -10q-31 0 -51.5 20t-20.5 51zM358 51q0 37 27 59.5t66 22.5q102 0 102 -153q0 -96 -47 -153t-127 -73v51q55 14 78.5 44
t23.5 90q0 14 -2.5 26.5t-4.5 18.5l-3 6q-21 -10 -41 -10q-31 0 -51.5 20t-20.5 51z" />
    <glyph glyph-name="dagger" unicode="&#x2020;" horiz-adv-x="952" 
d="M113 922v92h317v420h92v-420h318v-92h-318v-922h-92v922h-317z" />
    <glyph glyph-name="daggerdbl" unicode="&#x2021;" horiz-adv-x="952" 
d="M113 338v92h317v574h-317v92h317v338h92v-338h318v-92h-318v-574h318v-92h-318v-338h-92v338h-317z" />
    <glyph glyph-name="bullet" unicode="&#x2022;" horiz-adv-x="716" 
d="M246 584q0 46 33 79t79 33t79.5 -33t33.5 -79t-33.5 -79.5t-79.5 -33.5t-79 33.5t-33 79.5z" />
    <glyph glyph-name="ellipsis" unicode="&#x2026;" horiz-adv-x="1167" 
d="M92 61q0 33 22.5 57.5t59.5 24.5t59.5 -24.5t22.5 -57.5q0 -32 -22.5 -56.5t-59.5 -24.5t-59.5 24.5t-22.5 56.5zM502 61q0 33 22.5 57.5t59.5 24.5t59.5 -24.5t22.5 -57.5q0 -32 -22.5 -56.5t-59.5 -24.5t-59.5 24.5t-22.5 56.5zM911 61q0 33 22.5 57.5t59.5 24.5
t59.5 -24.5t22.5 -57.5q0 -32 -22.5 -56.5t-59.5 -24.5t-59.5 24.5t-22.5 56.5z" />
    <glyph glyph-name="perthousand" unicode="&#x2030;" horiz-adv-x="2304" 
d="M82 1126q0 138 95 233t233 95q137 0 232 -96.5t95 -231.5q0 -138 -94.5 -232.5t-232.5 -94.5t-233 94.5t-95 232.5zM287 0l870 1434h113l-871 -1434h-112zM184 1126q0 -106 62.5 -170.5t163.5 -64.5q100 0 162.5 64t62.5 171t-62.5 171.5t-162.5 64.5t-163 -64.5
t-63 -171.5zM1567 307q0 138 94.5 233t232.5 95t233 -95t95 -233t-95 -232.5t-233 -94.5q-137 0 -232 96t-95 231zM799 307q0 137 94.5 232.5t232.5 95.5t233 -95t95 -233t-95 -232.5t-233 -94.5q-137 0 -232 95.5t-95 231.5zM1669 307q0 -107 62.5 -171t162.5 -64
q101 0 163.5 64.5t62.5 170.5q0 107 -63 171.5t-163 64.5t-162.5 -64.5t-62.5 -171.5zM901 307q0 -107 62.5 -171t162.5 -64q101 0 163.5 63.5t62.5 171.5q0 105 -63 170.5t-163 65.5t-162.5 -64.5t-62.5 -171.5z" />
    <glyph glyph-name="guilsinglleft" unicode="&#x2039;" horiz-adv-x="706" 
d="M92 512l451 471l71 -72l-389 -399l389 -399l-71 -72z" />
    <glyph glyph-name="guilsinglright" unicode="&#x203a;" horiz-adv-x="706" 
d="M92 113l389 399l-389 399l72 72l450 -471l-450 -471z" />
    <glyph glyph-name="fraction" unicode="&#x2044;" horiz-adv-x="296" 
d="M-348 0l891 1434h102l-891 -1434h-102z" />
    <glyph glyph-name="zerosuperior" unicode="&#x2070;" horiz-adv-x="757" 
d="M72 1290q0 164 90 266.5t217 102.5t217 -102.5t90 -266.5t-90 -266t-217 -102t-217 102t-90 266zM174 1290q0 -133 58 -204.5t147 -71.5t147 71.5t58 204.5t-58 205t-147 72t-147 -72t-58 -205z" />
    <glyph glyph-name="foursuperior" unicode="&#x2074;" horiz-adv-x="645" 
d="M51 1106v92l277 440h112l-284 -440h254v154h102v-154h102v-92h-102v-164h-102v164h-359z" />
    <glyph glyph-name="fivesuperior" unicode="&#x2075;" horiz-adv-x="686" 
d="M82 1137h113q1 -5 4 -13.5t16 -29.5t30.5 -37t50.5 -29.5t73 -13.5q82 0 128 39.5t46 103.5q0 65 -45.5 104t-128.5 39q-45 0 -85 -16t-58 -32l-17 -15l-96 16l20 385h451v-94h-359l-12 -203h2q6 6 17.5 14.5t54 23t92.5 14.5q118 0 192 -67.5t74 -168.5q0 -95 -78 -165
t-198 -70q-50 0 -93 12t-71.5 31t-51.5 42t-35.5 45.5t-21 41.5t-11.5 31z" />
    <glyph glyph-name="sixsuperior" unicode="&#x2076;" horiz-adv-x="665" 
d="M61 1174q0 110 103 239l184 225h123l-154 -184l-61 -41v-10q31 20 82 20q113 0 194.5 -76t81.5 -173q0 -99 -81.5 -175.5t-194.5 -76.5t-195 76.5t-82 175.5zM164 1174q0 -67 49.5 -113.5t124.5 -46.5t124.5 46.5t49.5 113.5q0 66 -49.5 111.5t-124.5 45.5
q-80 0 -127 -46.5t-47 -110.5z" />
    <glyph glyph-name="sevensuperior" unicode="&#x2077;" horiz-adv-x="563" 
d="M41 1546v92h512v-92l-317 -604h-113l317 602v2h-399z" />
    <glyph glyph-name="eightsuperior" unicode="&#x2078;" horiz-adv-x="737" 
d="M72 1126q0 37 14.5 68.5t36 50.5t42.5 32t35 18l15 5v11l-12.5 5t-27 16t-34.5 29t-27 43.5t-12 59.5q0 81 71 138t196 57t195.5 -57t70.5 -138q0 -32 -11.5 -59t-28 -43.5t-33.5 -28.5t-28 -17l-12 -5v-11q6 -2 15.5 -5.5t34.5 -17.5t44 -32t34.5 -50t15.5 -69
q0 -82 -79.5 -143t-217.5 -61q-139 0 -218 61t-79 143zM205 1458q0 -45 42 -75.5t122 -30.5t121.5 30.5t41.5 75.5q0 46 -41.5 77.5t-121.5 31.5t-122 -31.5t-42 -77.5zM174 1137q0 -50 50.5 -86.5t144.5 -36.5t144 36.5t50 86.5t-50 86.5t-144 36.5t-144.5 -36.5
t-50.5 -86.5z" />
    <glyph glyph-name="ninesuperior" unicode="&#x2079;" horiz-adv-x="665" 
d="M61 1407q0 99 82 175.5t195 76.5t194.5 -76.5t81.5 -175.5q0 -112 -102 -240l-184 -225h-123l153 184l62 41v11q-31 -21 -82 -21q-113 0 -195 76.5t-82 173.5zM164 1407q0 -66 49.5 -112t124.5 -46q79 0 126.5 47t47.5 111q0 67 -49.5 113.5t-124.5 46.5t-124.5 -46.5
t-49.5 -113.5z" />
    <glyph glyph-name="zeroinferior" unicode="&#x2080;" horiz-adv-x="757" 
d="M72 143q0 164 90 266.5t217 102.5t217 -102.5t90 -266.5t-90 -266t-217 -102t-217 102t-90 266zM174 143q0 -133 58 -204.5t147 -71.5t147 71.5t58 204.5t-58 205t-147 72t-147 -72t-58 -205z" />
    <glyph glyph-name="oneinferior" unicode="&#x2081;" horiz-adv-x="675" 
d="M113 -205v92h204v492l-184 -113v113l195 113h92v-605h194v-92h-501z" />
    <glyph glyph-name="twoinferior" unicode="&#x2082;" horiz-adv-x="706" 
d="M72 -205v92l174 103q148 88 212 153t64 133q0 63 -44.5 103.5t-119.5 40.5q-40 0 -73.5 -13.5t-53 -33t-33.5 -39.5t-19 -34l-5 -13h-102q2 9 7 24t26 54t50 68.5t83 54t120 24.5q113 0 190 -70.5t77 -165.5q0 -88 -68.5 -165t-198.5 -152l-102 -59l-20 -13v-2l20 2h379
v-92h-563z" />
    <glyph glyph-name="threeinferior" unicode="&#x2083;" horiz-adv-x="696" 
d="M61 -10h113q1 -5 4 -13.5t16.5 -29.5t32 -37t53.5 -29.5t78 -13.5q74 0 119 38.5t45 94.5q0 133 -174 133h-143v92l235 172v2l-20 -2h-318v95h482v-95l-215 -155l-21 -15v-2h10q120 0 193.5 -65t73.5 -160q0 -89 -77 -157t-190 -68q-52 0 -96.5 12t-74.5 31t-53.5 41.5
t-36.5 45.5t-21.5 42t-11.5 31z" />
    <glyph glyph-name="fourinferior" unicode="&#x2084;" horiz-adv-x="645" 
d="M51 -41v92l277 441h112l-284 -441h254v154h102v-154h102v-92h-102v-164h-102v164h-359z" />
    <glyph glyph-name="fiveinferior" unicode="&#x2085;" horiz-adv-x="686" 
d="M82 -10h113q1 -5 4 -13.5t16 -29.5t30.5 -37t50.5 -29.5t73 -13.5q82 0 128 39.5t46 103.5q0 65 -45.5 104.5t-128.5 39.5q-45 0 -85 -16t-58 -32l-17 -16l-96 16l20 386h451v-95h-359l-12 -202h2q6 6 17.5 14.5t54 22.5t92.5 14q118 0 192 -67.5t74 -168.5
q0 -95 -78 -165t-198 -70q-50 0 -93 12t-71.5 31t-51.5 41.5t-35.5 45.5t-21 42t-11.5 31z" />
    <glyph glyph-name="sixinferior" unicode="&#x2086;" horiz-adv-x="665" 
d="M61 27q0 110 103 239l184 226h123l-154 -185l-61 -41v-10q31 20 82 20q113 0 194.5 -76t81.5 -173q0 -99 -81.5 -175.5t-194.5 -76.5t-195 76.5t-82 175.5zM164 27q0 -67 49.5 -113.5t124.5 -46.5t124.5 46.5t49.5 113.5q0 66 -49.5 111.5t-124.5 45.5q-80 0 -127 -46.5
t-47 -110.5z" />
    <glyph glyph-name="seveninferior" unicode="&#x2087;" horiz-adv-x="563" 
d="M41 399v93h512v-93l-317 -604h-113l317 602v2h-399z" />
    <glyph glyph-name="eightinferior" unicode="&#x2088;" horiz-adv-x="737" 
d="M72 -20q0 37 14.5 68.5t36 50.5t42.5 32t35 18l15 5v10l-12.5 5t-27 16t-34.5 29t-27 43.5t-12 59.5q0 81 71 138t196 57t195.5 -57t70.5 -138q0 -32 -11.5 -59t-28 -43.5t-33.5 -28.5t-28 -17l-12 -5v-10q6 -2 15.5 -5.5t34.5 -17.5t44 -32t34.5 -50t15.5 -69
q0 -83 -79.5 -144t-217.5 -61t-217.5 61t-79.5 144zM205 311q0 -45 42 -75.5t122 -30.5t121.5 30.5t41.5 75.5q0 46 -41.5 77.5t-121.5 31.5t-122 -31.5t-42 -77.5zM174 -10q0 -50 50.5 -86.5t144.5 -36.5t144 36.5t50 86.5t-50 86.5t-144 36.5t-144.5 -36.5t-50.5 -86.5z
" />
    <glyph glyph-name="nineinferior" unicode="&#x2089;" horiz-adv-x="665" 
d="M61 260q0 99 82 175.5t195 76.5t194.5 -76.5t81.5 -175.5q0 -112 -102 -240l-184 -225h-123l153 185l62 40v11q-31 -21 -82 -21q-113 0 -195 76.5t-82 173.5zM164 260q0 -66 49.5 -112t124.5 -46q79 0 126.5 47t47.5 111q0 67 -49.5 113.5t-124.5 46.5t-124.5 -46.5
t-49.5 -113.5z" />
    <glyph glyph-name="Euro" unicode="&#x20ac;" horiz-adv-x="1699" 
d="M51 532v93h127q-4 58 -4 92q0 30 4 92h-127v92h142q57 257 251.5 415.5t456.5 158.5q113 0 212 -27.5t166.5 -72t123 -98t89 -107t56 -98t30.5 -72.5l9 -27h-102q-3 9 -8 23.5t-27 57t-49.5 81t-76.5 86t-105.5 81t-140 57t-177.5 23.5q-226 0 -389.5 -130t-214.5 -351
h594v-92h-610q-5 -78 -5 -92q0 -19 5 -92h610v-93h-594q51 -221 214.5 -351t389.5 -130q76 0 144.5 15t120.5 40.5t98 58.5t78.5 70t59.5 73.5t44 69.5t28.5 58.5t15.5 40.5l5 15h102q-3 -11 -9.5 -30.5t-32 -74.5t-58 -105.5t-90.5 -112t-126 -105.5t-167.5 -74.5
t-212.5 -30.5q-262 0 -456.5 158t-251.5 415h-142z" />
    <glyph glyph-name="uni20B4" unicode="&#x20b4;" horiz-adv-x="1320" 
d="M123 809v92h819q4 3 11 8.5t24.5 25t31 41.5t24.5 57.5t11 72.5q0 122 -97 199t-281 77q-69 0 -129 -14.5t-101 -37.5t-74 -51t-52.5 -56t-32.5 -51t-18 -38l-5 -14h-102q2 7 6 20t21 50t39.5 70.5t64.5 74.5t92.5 70.5t126.5 49.5t164 20q221 0 351 -107.5t130 -261.5
q0 -37 -8.5 -72t-20.5 -58t-24 -41t-20 -26l-9 -8h133v-92h-1075zM123 532v93h1075v-93h-819q-4 -3 -11 -8.5t-25 -25t-31.5 -41.5t-24.5 -57t-11 -72q0 -122 97.5 -199.5t281.5 -77.5q69 0 129 14.5t101 37.5t74 51t52.5 56t32.5 51t18 37l5 15h102q-2 -7 -6 -20t-21 -49.5
t-39.5 -70t-64.5 -74.5t-92.5 -70.5t-126.5 -49.5t-164 -20q-221 0 -351 107.5t-130 261.5q0 59 20.5 110t41.5 72l20 22h-133z" />
    <glyph glyph-name="uni20BD" unicode="&#x20bd;" 
d="M72 246v92h184v194h-184v93h184v809h522q226 0 364 -127.5t138 -323.5t-138 -323.5t-364 -127.5h-420v-194h533v-92h-533v-246h-102v246h-184zM358 625h420q189 0 294.5 97t105.5 261t-105.5 261t-294.5 97h-420v-716z" />
    <glyph glyph-name="afii61352" unicode="&#x2116;" horiz-adv-x="2170" 
d="M1454 1126q0 138 95 233t233 95t232.5 -95t94.5 -233t-94.5 -232.5t-232.5 -94.5t-233 94.5t-95 232.5zM205 0v1434h164l776 -1321l12 -21h2l-2 21v1321h103v-1434h-164l-777 1321l-12 20h-2l2 -20v-1321h-102zM1556 1126q0 -106 62.5 -170.5t163.5 -64.5q100 0 162.5 64
t62.5 171t-62.5 171.5t-162.5 64.5t-163 -64.5t-63 -171.5zM1516 522v92h532v-92h-532z" />
    <glyph glyph-name="trademark" unicode="&#x2122;" horiz-adv-x="1495" 
d="M666 778v656h153l185 -379h51l184 379h154v-656h-103v543l2 20h-2l-184 -378h-154l-184 378h-2l2 -20v-543h-102zM31 1339v95h573v-95h-235v-561h-103v561h-235z" />
    <glyph glyph-name="arrowleft" unicode="&#x2190;" horiz-adv-x="1843" 
d="M184 686v21l348 337h31v-307h1096v-82h-1096v-307h-31z" />
    <glyph glyph-name="arrowup" unicode="&#x2191;" horiz-adv-x="1843" 
d="M573 1085v31l338 348h21l338 -348v-31h-307v-1095h-82v1095h-308z" />
    <glyph glyph-name="arrowright" unicode="&#x2192;" horiz-adv-x="1843" 
d="M184 655v82h1096v307h31l348 -337v-21l-348 -338h-31v307h-1096z" />
    <glyph glyph-name="arrowdown" unicode="&#x2193;" horiz-adv-x="1843" 
d="M573 317v31h308v1096h82v-1096h307v-31l-338 -348h-21z" />
    <glyph glyph-name="uni2196" unicode="&#x2196;" horiz-adv-x="1843" 
d="M379 737v502l20 21h502v-31l-215 -215l778 -778l-61 -62l-778 778l-215 -215h-31z" />
    <glyph glyph-name="uni2197" unicode="&#x2197;" horiz-adv-x="1843" 
d="M379 236l778 778l-215 215v31h502l20 -21v-502h-30l-215 215l-779 -778z" />
    <glyph glyph-name="uni2198" unicode="&#x2198;" horiz-adv-x="1843" 
d="M379 1198l61 62l779 -779l215 215h30v-501l-20 -21h-502v31l215 215z" />
    <glyph glyph-name="uni2199" unicode="&#x2199;" horiz-adv-x="1843" 
d="M379 195v501h31l215 -215l778 779l61 -62l-778 -778l215 -215v-31h-502z" />
    <glyph glyph-name="minus" unicode="&#x2212;" horiz-adv-x="1003" 
d="M113 543v92h778v-92h-778z" />
    <glyph glyph-name="approxequal" unicode="&#x2248;" horiz-adv-x="1003" 
d="M113 604v21q0 93 63 154t162 61q45 0 84.5 -16t67.5 -38.5t54 -45t57 -38.5t65 -16q122 0 122 123v20h103v-20q0 -93 -63 -154t-162 -61q-45 0 -84.5 16t-67.5 38.5t-54 45t-57 38.5t-65 16q-123 0 -123 -123v-21h-102zM113 266v21q0 93 63 154t162 61q45 0 84.5 -16
t67.5 -38.5t54 -45t57 -38.5t65 -16q122 0 122 123v21h103v-21q0 -93 -63 -154t-162 -61q-45 0 -84.5 16t-67.5 38.5t-54 45t-57 38.5t-65 16q-123 0 -123 -123v-21h-102z" />
    <glyph glyph-name="notequal" unicode="&#x2260;" horiz-adv-x="1003" 
d="M123 307v92h244l168 287h-412v92h465l180 307h102l-180 -307h191v-92h-246l-166 -287h412v-92h-467l-178 -307h-103l178 307h-188z" />
    <glyph glyph-name="lessequal" unicode="&#x2264;" horiz-adv-x="1003" 
d="M102 573v103l768 368v-92l-675 -323v-8l675 -324v-92zM102 348v92l768 -368v-92z" />
    <glyph glyph-name="greaterequal" unicode="&#x2265;" horiz-adv-x="1003" 
d="M133 205v92l676 324v8l-676 323v92l768 -368v-103zM133 -20v92l768 368v-92z" />
    <glyph glyph-name="commaaccent" unicode="&#xf6c3;" horiz-adv-x="307" 
d="M61 -276q0 30 23.5 50.5t58.5 20.5q44 0 73.5 -35.5t29.5 -107.5q0 -90 -47.5 -143.5t-126.5 -61.5v61q46 7 74 36t28 67q0 14 -2.5 26.5t-5.5 18.5l-2 6q-11 -10 -31 -10q-33 0 -52.5 19.5t-19.5 52.5z" />
    <glyph glyph-name="cyrBreve" unicode="&#xf6d1;" horiz-adv-x="716" 
d="M61 1853h93q0 -86 53 -135t151 -49t151.5 49t53.5 135h92q0 -110 -84.5 -188t-212.5 -78t-212.5 78t-84.5 188z" />
    <glyph glyph-name="cyrbreve" unicode="&#xf6d4;" horiz-adv-x="675" 
d="M61 1393h93q0 -65 48 -109.5t136 -44.5t136 44.5t48 109.5h92q0 -95 -78 -165.5t-198 -70.5t-198.5 70.5t-78.5 165.5z" />
    <glyph glyph-name="zero.oldstyle" unicode="&#xf730;" horiz-adv-x="1228" 
d="M113 502q0 146 68 266t185 188t259 68t259 -68t185 -188t68 -266t-68 -266t-185 -188t-259 -68t-259 68t-185 188t-68 266zM215 502q0 -191 116 -310.5t294 -119.5t293.5 119.5t115.5 310.5t-115.5 310.5t-293.5 119.5t-294 -119.5t-116 -310.5z" />
    <glyph glyph-name="one.oldstyle" unicode="&#xf731;" horiz-adv-x="583" 
d="M82 686v113l235 205h93v-1004h-103v881z" />
    <glyph glyph-name="two.oldstyle" unicode="&#xf732;" horiz-adv-x="1013" 
d="M72 717q1 6 4 17.5t16.5 43t32 60.5t53.5 64.5t77.5 61t107 43t139.5 17.5q184 0 302 -99.5t118 -228.5q0 -125 -85.5 -222t-263.5 -198l-307 -174l-20 -10v-2l20 2h676v-92h-870v92l420 236q181 102 254 182.5t73 185.5q0 98 -85 167t-232 69q-56 0 -104.5 -12t-81 -31
t-59 -42t-41.5 -45.5t-25 -41.5t-13 -31l-4 -12h-102z" />
    <glyph glyph-name="three.oldstyle" unicode="&#xf733;" horiz-adv-x="1054" 
d="M707 350v-2q5 -2 14.5 -5.5t36 -17.5t50.5 -31t53.5 -47t51 -65t36 -85.5t14.5 -106.5q0 -172 -124 -286t-327 -114q-81 0 -152 21t-118.5 54.5t-86 73.5t-61 80.5t-37.5 74t-21 54.5l-5 21h102q1 -6 4 -16.5t16 -40t29.5 -56.5t47.5 -60t68 -56.5t93 -40t121 -16.5
q166 0 257 83t91 224q0 134 -96.5 220.5t-261.5 86.5h-164v92h164q151 0 234 75.5t83 201.5q0 110 -86 188t-221 78q-54 0 -102.5 -12t-83 -31t-63 -42t-46.5 -45.5t-30.5 -41.5t-17.5 -31l-5 -12h-92q2 6 5.5 17.5t19 43t35.5 60.5t56.5 64.5t79.5 61t107 43t137 17.5
q173 0 291.5 -108t118.5 -250q0 -50 -12 -94.5t-31 -76t-42 -57t-45.5 -41.5t-41.5 -27t-31 -16z" />
    <glyph glyph-name="four.oldstyle" unicode="&#xf734;" horiz-adv-x="1034" 
d="M31 0v92l522 912h113l-523 -912h574v410h102v-410h205v-92h-205v-389h-102v389h-686z" />
    <glyph glyph-name="five.oldstyle" unicode="&#xf735;" horiz-adv-x="1085" 
d="M102 -10h103q1 -6 4 -17.5t15.5 -43t28.5 -60.5t46 -64.5t66.5 -61t90.5 -43t117 -17.5q161 0 265 103.5t104 264.5t-101 265t-257 104q-66 0 -124 -19t-94 -46t-62 -54t-37 -46l-11 -19h-102l51 768h737v-93h-645l-43 -532h2q4 5 12.5 14t38.5 32t64.5 40.5t92 32
t120.5 14.5q192 0 326 -134.5t134 -326.5q0 -126 -62 -232t-170 -167.5t-239 -61.5q-84 0 -155 22t-118 57.5t-84 78t-58 85t-34 78t-18 57.5z" />
    <glyph glyph-name="six.oldstyle" unicode="&#xf736;" horiz-adv-x="1187" 
d="M102 461q0 58 10.5 109t24 89.5t46 91.5t57.5 87.5t77 103.5l369 492h113l-379 -492l-31 -41v-10q8 6 23.5 14.5t68.5 22.5t113 14q206 0 348.5 -140.5t142.5 -340.5t-142.5 -340.5t-348.5 -140.5t-349 140.5t-143 340.5zM205 461q0 -169 110 -279t279 -110t279 110
t110 279t-110 279t-279 110t-279 -110t-110 -279z" />
    <glyph glyph-name="seven.oldstyle" unicode="&#xf737;" horiz-adv-x="890" 
d="M20 911v93h850v-93l-563 -1300h-102l563 1298v2h-748z" />
    <glyph glyph-name="eight.oldstyle" unicode="&#xf738;" horiz-adv-x="1228" 
d="M92 389q0 59 17.5 111.5t42.5 89t60.5 68.5t64.5 50t62.5 33.5t46 19.5t22.5 7v2q-187 62 -238 212q-16 49 -16 103q0 73 32 140t90 118t145.5 81t192.5 30t193 -30t146 -81t90 -118t32 -140q0 -70 -26.5 -128t-64 -91.5t-75 -56.5t-63.5 -31l-27 -8v-2q7 -2 18.5 -5.5
t44.5 -18t63 -32t66.5 -49.5t63 -69t44.5 -90.5t18 -114.5q0 -81 -36 -154.5t-101.5 -130.5t-166 -90.5t-219.5 -33.5t-219 33.5t-165.5 90.5t-101.5 130.5t-36 154.5zM256 1085q0 -113 98 -194.5t260 -81.5t260.5 81.5t98.5 194.5t-98.5 195t-260.5 82t-260 -82t-98 -195z
M195 389q0 -130 114 -223.5t305 -93.5t305.5 93.5t114.5 223.5q0 134 -115 231t-305 97t-304.5 -97t-114.5 -231z" />
    <glyph glyph-name="nine.oldstyle" unicode="&#xf739;" horiz-adv-x="1187" 
d="M102 543q0 200 143 340.5t349 140.5t348.5 -140.5t142.5 -340.5q0 -71 -12 -128.5t-45.5 -119.5t-63.5 -105.5t-94 -128.5l-338 -450h-112l348 450l31 41v11q-8 -6 -23.5 -14.5t-68.5 -23t-113 -14.5q-206 0 -349 141t-143 341zM205 543q0 -169 110 -279t279 -110
t279 110t110 279t-110 279t-279 110t-279 -110t-110 -279z" />
    <glyph glyph-name="aring.sc" horiz-adv-x="1249" 
d="M61 0l338 1229h451l338 -1229h-103l-112 420h-697l-112 -420h-103zM297 512h655l-174 625h-307zM420 1556q0 85 60 145t145 60t144.5 -60t59.5 -145t-59.5 -144.5t-144.5 -59.5t-145 59.5t-60 144.5zM502 1556q0 -54 34.5 -88t88.5 -34t88.5 34t34.5 88t-34.5 88.5
t-88.5 34.5t-88.5 -34.5t-34.5 -88.5z" />
    <glyph glyph-name="edotaccent.sc" horiz-adv-x="1146" 
d="M205 0v1229h850v-92h-748v-461h615v-92h-615v-492h748v-92h-850zM553 1536q0 33 22.5 57.5t59.5 24.5t59.5 -24.5t22.5 -57.5t-22.5 -57.5t-59.5 -24.5t-59.5 24.5t-22.5 57.5z" />
    <glyph glyph-name="y.alt" horiz-adv-x="1034" 
d="M61 1004h113l236 -912h215l266 912h113l-338 -1119q-45 -147 -118.5 -210.5t-209.5 -63.5h-160v92h160q97 0 145 39.5t80 134.5l41 123h-266z" />
    <glyph glyph-name="afii10065.alt" horiz-adv-x="1146" 
d="M133 276q0 135 100 221.5t279 86.5h379v82q0 124 -75 195t-212 71q-54 0 -101.5 -12.5t-80 -32.5t-59 -43.5t-42.5 -47.5t-26.5 -44t-14.5 -32l-4 -13h-102q2 7 5 18t17.5 44t33.5 63t54.5 66.5t77.5 63t105.5 44.5t136.5 18q175 0 282 -101t107 -257v-666h-102v195h-2
q-4 -9 -11.5 -23.5t-40 -51.5t-73 -65.5t-113.5 -51.5t-159 -23q-164 0 -261.5 84.5t-97.5 211.5zM236 276q0 -96 66 -150t200 -54q176 0 282.5 117t106.5 303h-379q-133 0 -204.5 -60t-71.5 -156z" />
    <glyph glyph-name="Germandbls" horiz-adv-x="1423" 
d="M184 0v942q0 233 137.5 362.5t395.5 129.5h522v-95l-420 -456v-2q116 -4 213 -40.5t162 -96.5t101 -141t36 -173q0 -89 -38 -167t-106.5 -136.5t-171.5 -92.5t-227 -34h-133v92h133q207 0 324 96.5t117 241.5q0 159 -116 258.5t-325 99.5h-92v93l410 460h-389
q-221 0 -325.5 -99t-104.5 -300v-942h-103z" />
    <glyph glyph-name="at.case" horiz-adv-x="1679" 
d="M113 737q0 212 99 388.5t273 278t385 101.5q153 0 288.5 -51.5t228.5 -136.5t146.5 -196.5t53.5 -229.5q0 -218 -135.5 -344.5t-384.5 -126.5h-2v102h-2q-23 -34 -36 -48q-73 -75 -187 -75q-132 0 -225 96.5t-93 241.5t93 241.5t225 96.5q54 0 98.5 -16.5t70.5 -41.5
t37.5 -39.5t16.5 -25.5h2v103h102v-543q142 8 230 107.5t88 271.5q0 103 -45 198t-123.5 166.5t-195 114.5t-251.5 43q-140 0 -263.5 -51.5t-211.5 -140.5t-139 -214.5t-51 -269.5t51 -269.5t139 -214.5t211.5 -140.5t263.5 -51.5q67 0 132.5 11.5t111.5 28.5t83 33.5
t55 27.5l18 12v-102q-7 -4 -19 -11t-53 -25t-84.5 -31.5t-110 -24.5t-133.5 -11q-211 0 -385 101.5t-273 278t-99 388.5zM625 737q0 -114 62 -179.5t163 -65.5q87 0 151 70t64 175t-64 175.5t-151 70.5q-101 0 -163 -66t-62 -180z" />
    <glyph glyph-name="afii10085.alt" horiz-adv-x="1034" 
d="M61 1004h113l236 -912h215l266 912h113l-338 -1119q-45 -147 -118.5 -210.5t-209.5 -63.5h-160v92h160q97 0 145 39.5t80 134.5l41 123h-266z" />
    <glyph glyph-name="l.alt" horiz-adv-x="450" 
d="M174 0v1434h102v-1434h-102z" />
    <glyph glyph-name="ydieresis.alt" horiz-adv-x="1034" 
d="M61 1004h113l236 -912h215l266 912h113l-338 -1119q-45 -147 -118.5 -210.5t-209.5 -63.5h-160v92h160q97 0 145 39.5t80 134.5l41 123h-266zM635 1341q0 34 24 58t58 24t58 -24t24 -58t-24 -57.5t-58 -23.5t-58 23.5t-24 57.5zM287 1341q0 34 24 58t58 24t58 -24t24 -58
t-24 -57.5t-58 -23.5t-58 23.5t-24 57.5z" />
    <glyph glyph-name="yacute.alt" horiz-adv-x="1034" 
d="M61 1004h113l236 -912h215l266 912h113l-338 -1119q-45 -147 -118.5 -210.5t-209.5 -63.5h-160v92h160q97 0 145 39.5t80 134.5l41 123h-266zM492 1219l194 286h123v-2l-236 -284h-81z" />
    <glyph glyph-name="Imacron.alt" horiz-adv-x="983" 
d="M113 0v92h327v1249h-327v93h757v-93h-327v-1249h327v-92h-757zM236 1690v92h501v-92h-501z" />
    <glyph glyph-name="Idotaccent.alt" horiz-adv-x="983" 
d="M113 0v92h327v1249h-327v93h757v-93h-327v-1249h327v-92h-757zM410 1741q0 33 22.5 57.5t59.5 24.5q36 0 58.5 -24.5t22.5 -57.5t-22.5 -57.5t-58.5 -24.5q-37 0 -59.5 24.5t-22.5 57.5z" />
    <glyph glyph-name="Idieresis.alt" horiz-adv-x="983" 
d="M113 0v92h327v1249h-327v93h757v-93h-327v-1249h327v-92h-757zM584 1741q0 34 24 58t58 24t58 -24t24 -58t-24 -58t-58 -24t-58 24t-24 58zM236 1741q0 34 23.5 58t57.5 24t58 -24t24 -58t-24 -58t-58 -24t-57.5 24t-23.5 58z" />
    <glyph glyph-name="Icircumflex.alt" horiz-adv-x="983" 
d="M113 0v92h327v1249h-327v93h757v-93h-327v-1249h327v-92h-757zM215 1618v2l225 295h103l225 -295v-2h-102l-164 215h-21l-164 -215h-102z" />
    <glyph glyph-name="Iacute.alt" horiz-adv-x="983" 
d="M113 0v92h327v1249h-327v93h757v-93h-327v-1249h327v-92h-757zM430 1618l195 287h123v-2l-236 -285h-82z" />
    <glyph glyph-name="Igrave.alt" horiz-adv-x="983" 
d="M113 0v92h327v1249h-327v93h757v-93h-327v-1249h327v-92h-757zM225 1903v2h123l195 -287h-82z" />
    <glyph glyph-name="lcommaaccent.alt" horiz-adv-x="450" 
d="M174 0v1434h102v-1434h-102zM133 -276q0 30 23.5 50.5t58.5 20.5q44 0 73 -35.5t29 -107.5q0 -90 -47.5 -143.5t-126.5 -61.5v61q46 8 74.5 36.5t28.5 66.5q0 14 -2.5 26.5t-5.5 18.5l-2 6q-11 -10 -31 -10q-33 0 -52.5 19.5t-19.5 52.5z" />
    <glyph glyph-name="lcaron.alt" horiz-adv-x="512" 
d="M174 0v1434h102v-1434h-102zM389 1372q0 30 23.5 51t58.5 21q43 0 72.5 -36t29.5 -108q0 -90 -47.5 -143t-126.5 -61v61q46 7 74.5 36t28.5 67q0 14 -2.5 26.5t-5.5 18.5l-2 6q-11 -11 -31 -11q-33 0 -52.5 19.5t-19.5 52.5z" />
    <glyph glyph-name="lacute.alt" horiz-adv-x="450" 
d="M174 0v1434h102v-1434h-102zM184 1618l195 287h123v-2l-236 -285h-82z" />
    <glyph glyph-name="atilde.alt" horiz-adv-x="1146" 
d="M133 276q0 135 100 221.5t279 86.5h379v82q0 124 -75 195t-212 71q-54 0 -101.5 -12.5t-80 -32.5t-59 -43.5t-42.5 -47.5t-26.5 -44t-14.5 -32l-4 -13h-102q2 7 5 18t17.5 44t33.5 63t54.5 66.5t77.5 63t105.5 44.5t136.5 18q175 0 282 -101t107 -257v-666h-102v195h-2
q-4 -9 -11.5 -23.5t-40 -51.5t-73 -65.5t-113.5 -51.5t-159 -23q-164 0 -261.5 84.5t-97.5 211.5zM236 276q0 -96 66 -150t200 -54q176 0 282.5 117t106.5 303h-379q-133 0 -204.5 -60t-71.5 -156zM315 1229v47q0 72 47 120t117 48q45 0 86 -21t66.5 -45.5t56 -45.5
t57.5 -21q31 0 51.5 21.5t20.5 56.5v45h92v-48q0 -72 -46.5 -119.5t-117.5 -47.5q-45 0 -86 21t-66.5 45.5t-56 45.5t-57.5 21q-31 0 -51 -21.5t-20 -56.5v-45h-93z" />
    <glyph glyph-name="aring.alt" horiz-adv-x="1146" 
d="M133 276q0 135 100 221.5t279 86.5h379v82q0 124 -75 195t-212 71q-54 0 -101.5 -12.5t-80 -32.5t-59 -43.5t-42.5 -47.5t-26.5 -44t-14.5 -32l-4 -13h-102q2 7 5 18t17.5 44t33.5 63t54.5 66.5t77.5 63t105.5 44.5t136.5 18q175 0 282 -101t107 -257v-666h-102v195h-2
q-4 -9 -11.5 -23.5t-40 -51.5t-73 -65.5t-113.5 -51.5t-159 -23q-164 0 -261.5 84.5t-97.5 211.5zM236 276q0 -96 66 -150t200 -54q176 0 282.5 117t106.5 303h-379q-133 0 -204.5 -60t-71.5 -156zM410 1403q0 85 59.5 145t144.5 60t145 -60t60 -145t-60 -145t-145 -60
t-144.5 60t-59.5 145zM492 1403q0 -54 34 -88.5t88 -34.5t88.5 34.5t34.5 88.5t-34.5 88.5t-88.5 34.5t-88 -34.5t-34 -88.5z" />
    <glyph glyph-name="aogonek.alt" horiz-adv-x="1146" 
d="M133 276q0 135 100 221.5t279 86.5h379v82q0 124 -75 195t-212 71q-54 0 -101.5 -12.5t-80 -32.5t-59 -43.5t-42.5 -47.5t-26.5 -44t-14.5 -32l-4 -13h-102q2 7 5 18t17.5 44t33.5 63t54.5 66.5t77.5 63t105.5 44.5t136.5 18q175 0 282 -101t107 -257v-666
q-10 -4 -26.5 -12t-58.5 -34.5t-74.5 -55t-59 -73.5t-26.5 -91q0 -47 29.5 -75t82.5 -28q32 0 65 7.5t51 15.5l17 8v-82q-61 -31 -133 -31q-90 0 -147.5 52t-57.5 123q0 49 24.5 96t59 80t69 59t58.5 39l25 12v2v183h-2q-4 -9 -11.5 -23.5t-40 -51.5t-73 -65.5t-113.5 -51.5
t-159 -23q-164 0 -261.5 84.5t-97.5 211.5zM236 276q0 -96 66 -150t200 -54q176 0 282.5 117t106.5 303h-379q-133 0 -204.5 -60t-71.5 -156z" />
    <glyph glyph-name="amacron.alt" horiz-adv-x="1146" 
d="M133 276q0 135 100 221.5t279 86.5h379v82q0 124 -75 195t-212 71q-54 0 -101.5 -12.5t-80 -32.5t-59 -43.5t-42.5 -47.5t-26.5 -44t-14.5 -32l-4 -13h-102q2 7 5 18t17.5 44t33.5 63t54.5 66.5t77.5 63t105.5 44.5t136.5 18q175 0 282 -101t107 -257v-666h-102v195h-2
q-4 -9 -11.5 -23.5t-40 -51.5t-73 -65.5t-113.5 -51.5t-159 -23q-164 0 -261.5 84.5t-97.5 211.5zM236 276q0 -96 66 -150t200 -54q176 0 282.5 117t106.5 303h-379q-133 0 -204.5 -60t-71.5 -156zM360 1280v92h502v-92h-502z" />
    <glyph glyph-name="adieresis.alt" horiz-adv-x="1146" 
d="M133 276q0 135 100 221.5t279 86.5h379v82q0 124 -75 195t-212 71q-54 0 -101.5 -12.5t-80 -32.5t-59 -43.5t-42.5 -47.5t-26.5 -44t-14.5 -32l-4 -13h-102q2 7 5 18t17.5 44t33.5 63t54.5 66.5t77.5 63t105.5 44.5t136.5 18q175 0 282 -101t107 -257v-666h-102v195h-2
q-4 -9 -11.5 -23.5t-40 -51.5t-73 -65.5t-113.5 -51.5t-159 -23q-164 0 -261.5 84.5t-97.5 211.5zM236 276q0 -96 66 -150t200 -54q176 0 282.5 117t106.5 303h-379q-133 0 -204.5 -60t-71.5 -156zM696 1341q0 34 24 58t58 24t58 -24t24 -58t-24 -57.5t-58 -23.5t-58 23.5
t-24 57.5zM348 1341q0 34 24 58t58 24t58 -24t24 -58t-24 -57.5t-58 -23.5t-58 23.5t-24 57.5z" />
    <glyph glyph-name="acircumflex.alt" horiz-adv-x="1146" 
d="M133 276q0 135 100 221.5t279 86.5h379v82q0 124 -75 195t-212 71q-54 0 -101.5 -12.5t-80 -32.5t-59 -43.5t-42.5 -47.5t-26.5 -44t-14.5 -32l-4 -13h-102q2 7 5 18t17.5 44t33.5 63t54.5 66.5t77.5 63t105.5 44.5t136.5 18q175 0 282 -101t107 -257v-666h-102v195h-2
q-4 -9 -11.5 -23.5t-40 -51.5t-73 -65.5t-113.5 -51.5t-159 -23q-164 0 -261.5 84.5t-97.5 211.5zM236 276q0 -96 66 -150t200 -54q176 0 282.5 117t106.5 303h-379q-133 0 -204.5 -60t-71.5 -156zM338 1219v2l225 295h103l225 -295v-2h-103l-163 215h-21l-164 -215h-102z
" />
    <glyph glyph-name="abreve.alt" horiz-adv-x="1146" 
d="M133 276q0 135 100 221.5t279 86.5h379v82q0 124 -75 195t-212 71q-54 0 -101.5 -12.5t-80 -32.5t-59 -43.5t-42.5 -47.5t-26.5 -44t-14.5 -32l-4 -13h-102q2 7 5 18t17.5 44t33.5 63t54.5 66.5t77.5 63t105.5 44.5t136.5 18q175 0 282 -101t107 -257v-666h-102v195h-2
q-4 -9 -11.5 -23.5t-40 -51.5t-73 -65.5t-113.5 -51.5t-159 -23q-164 0 -261.5 84.5t-97.5 211.5zM236 276q0 -96 66 -150t200 -54q176 0 282.5 117t106.5 303h-379q-133 0 -204.5 -60t-71.5 -156zM338 1464h92q0 -63 49.5 -108t124.5 -45t124.5 45t49.5 108h92
q0 -95 -76.5 -165t-189.5 -70t-189.5 70t-76.5 165z" />
    <glyph glyph-name="aacute.alt" horiz-adv-x="1146" 
d="M133 276q0 135 100 221.5t279 86.5h379v82q0 124 -75 195t-212 71q-54 0 -101.5 -12.5t-80 -32.5t-59 -43.5t-42.5 -47.5t-26.5 -44t-14.5 -32l-4 -13h-102q2 7 5 18t17.5 44t33.5 63t54.5 66.5t77.5 63t105.5 44.5t136.5 18q175 0 282 -101t107 -257v-666h-102v195h-2
q-4 -9 -11.5 -23.5t-40 -51.5t-73 -65.5t-113.5 -51.5t-159 -23q-164 0 -261.5 84.5t-97.5 211.5zM236 276q0 -96 66 -150t200 -54q176 0 282.5 117t106.5 303h-379q-133 0 -204.5 -60t-71.5 -156zM563 1219l195 286h123v-2l-236 -284h-82z" />
    <glyph glyph-name="agrave.alt" horiz-adv-x="1146" 
d="M133 276q0 135 100 221.5t279 86.5h379v82q0 124 -75 195t-212 71q-54 0 -101.5 -12.5t-80 -32.5t-59 -43.5t-42.5 -47.5t-26.5 -44t-14.5 -32l-4 -13h-102q2 7 5 18t17.5 44t33.5 63t54.5 66.5t77.5 63t105.5 44.5t136.5 18q175 0 282 -101t107 -257v-666h-102v195h-2
q-4 -9 -11.5 -23.5t-40 -51.5t-73 -65.5t-113.5 -51.5t-159 -23q-164 0 -261.5 84.5t-97.5 211.5zM236 276q0 -96 66 -150t200 -54q176 0 282.5 117t106.5 303h-379q-133 0 -204.5 -60t-71.5 -156zM328 1503v2h123l194 -286h-82z" />
    <glyph glyph-name="afii10110.alt" horiz-adv-x="1034" 
d="M61 1004h113l236 -912h215l266 912h113l-338 -1119q-45 -147 -118.5 -210.5t-209.5 -63.5h-160v92h160q97 0 145 39.5t80 134.5l41 123h-266zM266 1393h92q0 -65 48.5 -109.5t136.5 -44.5t136 44.5t48 109.5h92q0 -95 -78 -165.5t-198 -70.5t-198.5 70.5t-78.5 165.5z
" />
    <glyph glyph-name="lslash.alt" horiz-adv-x="491" 
d="M10 502v102l185 92v738h102v-686l184 92v-103l-184 -92v-645h-102v594z" />
    <glyph glyph-name="parenleft.case" horiz-adv-x="737" 
d="M174 717q0 100 16.5 197t44.5 175.5t64 152t75.5 130t79.5 106t76 84t64 59t44 36.5l17 12l52 -72q-9 -6 -24.5 -18.5t-60.5 -55.5t-85.5 -92t-90 -127t-85.5 -162t-60.5 -196t-24.5 -229t24 -229t62 -197t84 -161t91.5 -128.5t83.5 -91t62 -56.5l24 -18l-52 -72
q-10 7 -27.5 20t-67.5 59.5t-95 99t-100.5 137t-95.5 175t-67.5 212.5t-27.5 250z" />
    <glyph glyph-name="parenright.case" horiz-adv-x="737" 
d="M31 -164q9 6 24.5 18.5t60 56t85.5 92t90.5 127t85 162t60 196t24.5 229.5t-23.5 228.5t-61.5 197t-84 161t-92 128t-84 91t-62 56.5l-23 18l51 72q10 -7 27.5 -20t67.5 -59.5t95 -98.5t100.5 -137t95.5 -175t67.5 -212t27.5 -250q0 -100 -16.5 -197t-44.5 -175.5
t-64 -152t-76 -130.5t-79.5 -106t-75.5 -84t-64 -59.5t-45 -36.5l-16 -12z" />
    <glyph glyph-name="bracketleft.case" horiz-adv-x="665" 
d="M205 -174v1782h409v-92h-307v-1598h307v-92h-409z" />
    <glyph glyph-name="bracketright.case" horiz-adv-x="665" 
d="M51 -174v92h307v1598h-307v92h410v-1782h-410z" />
    <glyph glyph-name="g.alt" horiz-adv-x="1116" 
d="M51 -123q0 52 23 96t56 70.5t66.5 45.5t56.5 27l23 7v246q-7 4 -18 11t-39 33.5t-49.5 56.5t-39 80t-17.5 105q0 151 121.5 260t308.5 109q41 0 79 -5t56 -10l18 -5h420v-93h-246l-20 2v-2q5 -4 13.5 -11t29.5 -32t37 -52.5t29.5 -71t13.5 -89.5q0 -149 -121.5 -258.5
t-308.5 -109.5q-45 0 -88.5 7.5t-64.5 15.5l-21 7v-170q72 17 174 17q121 0 220 -26t158.5 -68t91 -92t31.5 -101q0 -52 -30.5 -101.5t-89 -91.5t-157.5 -68t-224 -26q-121 0 -218.5 26t-155.5 68t-88 91.5t-30 101.5zM215 655q0 -117 89.5 -196.5t238.5 -79.5
q150 0 238.5 78.5t88.5 197.5t-88.5 198t-238.5 79t-239 -79t-89 -198zM154 -123q0 -72 100 -133t289 -61q107 0 187 17t124.5 46t66 61.5t21.5 69.5t-21.5 70t-66 62t-124.5 46t-187 17q-86 0 -154 -11.5t-111.5 -30.5t-72 -45t-40 -52.5t-11.5 -55.5z" />
    <glyph glyph-name="a.alt" horiz-adv-x="1146" 
d="M133 276q0 135 100 221.5t279 86.5h379v82q0 124 -75 195t-212 71q-54 0 -101.5 -12.5t-80 -32.5t-59 -43.5t-42.5 -47.5t-26.5 -44t-14.5 -32l-4 -13h-102q2 7 5 18t17.5 44t33.5 63t54.5 66.5t77.5 63t105.5 44.5t136.5 18q175 0 282 -101t107 -257v-666h-102v195h-2
q-4 -9 -11.5 -23.5t-40 -51.5t-73 -65.5t-113.5 -51.5t-159 -23q-164 0 -261.5 84.5t-97.5 211.5zM236 276q0 -96 66 -150t200 -54q176 0 282.5 117t106.5 303h-379q-133 0 -204.5 -60t-71.5 -156z" />
    <glyph glyph-name="braceleft.case" horiz-adv-x="686" 
d="M102 676v92h62q56 0 84 32.5t28 90.5v491q0 101 66 163.5t180 62.5h123v-92h-123q-68 0 -105.5 -36t-37.5 -98v-491q0 -38 -11.5 -69t-28.5 -48t-33.5 -28.5t-27.5 -15.5l-12 -3v-10q5 -1 12.5 -3.5t27 -14.5t34.5 -28.5t27 -48t12 -69.5v-502q0 -62 37.5 -97.5
t105.5 -35.5h123v-92h-123q-114 0 -180 62t-66 163v502q0 58 -28 90.5t-84 32.5h-62z" />
    <glyph glyph-name="braceright.case" horiz-adv-x="686" 
d="M41 -174v92h123q68 0 105.5 35.5t37.5 97.5v502q0 38 11.5 69t28.5 48t33.5 28.5t27.5 15.5l12 3v10q-5 1 -12.5 3.5t-27 14.5t-34.5 28.5t-27 48t-12 69.5v491q0 62 -37.5 98t-105.5 36h-123v92h123q114 0 180 -62.5t66 -163.5v-491q0 -58 28 -90.5t84 -32.5h62v-92h-62
q-56 0 -84 -32.5t-28 -90.5v-502q0 -101 -66 -163t-180 -62h-123z" />
    <glyph glyph-name="exclamdown.case" horiz-adv-x="573" 
d="M205 1372q0 33 22.5 57.5t59.5 24.5t59.5 -24.5t22.5 -57.5t-22.5 -57.5t-59.5 -24.5t-59.5 24.5t-22.5 57.5zM236 0v758l20 276h61l21 -276v-758h-102z" />
    <glyph glyph-name="nine.taboldstyle" horiz-adv-x="1136" 
d="M82 543q0 200 142.5 340.5t348.5 140.5t349 -140.5t143 -340.5q0 -71 -12 -128.5t-45.5 -119.5t-63.5 -105.5t-94 -128.5l-338 -450h-113l349 450l30 41v11q-8 -6 -23.5 -14.5t-68.5 -23t-113 -14.5q-206 0 -348.5 141t-142.5 341zM184 543q0 -169 110 -279t279 -110
t279.5 110t110.5 279t-110.5 279t-279.5 110t-279 -110t-110 -279z" />
    <glyph glyph-name="eight.taboldstyle" horiz-adv-x="1136" 
d="M51 389q0 59 17 111.5t42 89t59.5 68.5t63.5 50.5t61.5 33.5t45.5 19t22 7v2q-178 59 -231 201q-20 53 -20 114q0 153 125 261t331 108t331.5 -108t125.5 -261q0 -70 -26 -128t-63.5 -91.5t-75 -56.5t-63.5 -31l-26 -8v-2q7 -2 18 -5.5t44 -18t62.5 -32t66 -49.5
t62.5 -69t44 -90.5t18 -114.5q0 -81 -36 -154.5t-101 -130.5t-164 -90.5t-217 -33.5t-216.5 33.5t-163.5 90.5t-100.5 130.5t-35.5 154.5zM213 1085q0 -113 96.5 -194.5t257.5 -81.5t258 81.5t97 194.5t-97 195t-258 82q-160 0 -257 -82t-97 -195zM152 389
q0 -130 112.5 -223.5t302.5 -93.5t303 93.5t113 223.5q0 134 -113.5 231t-302.5 97t-302 -97t-113 -231z" />
    <glyph glyph-name="seven.taboldstyle" horiz-adv-x="1136" 
d="M109 635v369h946v-93l-584 -1300h-102l583 1298v2h-747v-276h-96z" />
    <glyph glyph-name="six.taboldstyle" horiz-adv-x="1136" 
d="M82 461q0 58 10.5 109t24 89.5t46 91.5t57.5 87.5t77 103.5l369 492h112l-379 -492l-30 -41v-10q8 6 23 14.5t68 22.5t113 14q206 0 349 -140.5t143 -340.5t-143 -340.5t-349 -140.5t-348.5 140.5t-142.5 340.5zM184 461q0 -169 110 -279t279 -110t279.5 110t110.5 279
t-110.5 279t-279.5 110t-279 -110t-110 -279z" />
    <glyph glyph-name="five.taboldstyle" horiz-adv-x="1136" 
d="M123 -10h102q1 -6 4 -17.5t15.5 -43t29 -60.5t46.5 -64.5t66.5 -61t90.5 -43t117 -17.5q161 0 265 103.5t104 264.5t-101.5 265t-257.5 104q-66 0 -124 -19t-94 -46t-62 -54t-37 -46l-11 -19h-102l51 768h738v-93h-646l-43 -532h2q4 5 12.5 14t38.5 32t64.5 40.5t92 32
t120.5 14.5q192 0 326.5 -134.5t134.5 -326.5q0 -126 -62 -232t-170 -167.5t-239 -61.5q-84 0 -155 22t-118 57.5t-84 78t-58 85t-34 78t-17 57.5z" />
    <glyph glyph-name="four.taboldstyle" horiz-adv-x="1136" 
d="M92 0v92l522 912h113l-522 -912h573v410h103v-410h204v-92h-204v-389h-103v389h-686z" />
    <glyph glyph-name="three.taboldstyle" horiz-adv-x="1136" 
d="M758 350v-2q5 -2 14.5 -5.5t36 -17.5t50.5 -31t53.5 -47t51 -65t36 -85.5t14.5 -106.5q0 -172 -124 -286t-327 -114q-81 0 -152 21t-118.5 54.5t-86 73.5t-61 80.5t-37.5 74t-20 54.5l-6 21h102q1 -6 4 -16.5t16 -40t29.5 -56.5t47.5 -60t68 -56.5t93 -40t121 -16.5
q166 0 257 83t91 224q0 134 -96.5 220.5t-261.5 86.5h-164v92h164q151 0 234 75.5t83 201.5q0 110 -86 188t-221 78q-54 0 -102.5 -12t-83 -31t-63 -42t-46.5 -45.5t-30.5 -41.5t-17.5 -31l-5 -12h-92q2 6 5.5 17.5t19 43t35.5 60.5t56.5 64.5t79.5 61t107 43t137 17.5
q173 0 291.5 -108t118.5 -250q0 -50 -12 -94.5t-31 -76t-41.5 -57t-45.5 -41.5t-42 -27t-31 -16z" />
    <glyph glyph-name="two.taboldstyle" horiz-adv-x="1136" 
d="M133 717q1 6 4 17.5t16.5 43t32 60.5t53.5 64.5t77.5 61t107 43t139.5 17.5q184 0 302 -99.5t118 -228.5q0 -125 -85 -222t-263 -198l-307 -174l-21 -10v-2l21 2h676v-92h-871v92l420 236q181 102 254.5 182.5t73.5 185.5q0 98 -85.5 167t-232.5 69q-56 0 -104.5 -12
t-81 -31t-59 -42t-41 -45.5t-24.5 -41.5t-13 -31l-4 -12h-103z" />
    <glyph glyph-name="one.taboldstyle" horiz-adv-x="1136" 
d="M184 0v92h379v795l-276 -211v110l282 218h97v-912h358v-92h-840z" />
    <glyph glyph-name="zero.taboldstyle" horiz-adv-x="1136" 
d="M61 502q0 222 147 372t361 150t360 -150t146 -372t-146 -372t-360 -150t-361 150t-147 372zM164 502q0 -190 114.5 -310t290.5 -120t291 120t115 310t-115 310t-291 120t-290.5 -120t-114.5 -310z" />
    <glyph glyph-name="questiondown.case" horiz-adv-x="1075" 
d="M502 1372q0 33 22.5 57.5t59.5 24.5t59.5 -24.5t22.5 -57.5t-22.5 -57.5t-59.5 -24.5t-59.5 24.5t-22.5 57.5zM82 348q0 79 25 140.5t64.5 102t87.5 75t96 68.5t87.5 73.5t64.5 99.5t25 137h103q0 -87 -25 -155.5t-64.5 -112t-87.5 -80t-96.5 -69t-88 -68.5t-64.5 -89.5
t-25 -121.5q0 -126 96 -211.5t252 -85.5q69 0 128 17t98.5 44t71.5 59.5t50.5 65.5t30.5 60t17 44l4 17h102q-2 -8 -5.5 -22.5t-20.5 -56t-39 -79t-62.5 -83.5t-90 -79.5t-124 -56t-160.5 -22.5q-98 0 -183 31.5t-143 84.5t-91 124t-33 149z" />
    <glyph glyph-name="guillemotleft.case" horiz-adv-x="1064" 
d="M471 707l410 481l71 -72l-358 -409l358 -410l-71 -72zM82 707l410 481l71 -72l-358 -409l358 -410l-71 -72z" />
    <glyph glyph-name="guillemotright.case" horiz-adv-x="1064" 
d="M502 297l358 410l-358 409l71 72l410 -481l-410 -482zM113 297l358 410l-358 409l71 72l410 -481l-410 -482z" />
    <glyph glyph-name="guilsinglleft.case" horiz-adv-x="706" 
d="M92 707l451 471l71 -72l-389 -399l389 -400l-71 -71z" />
    <glyph glyph-name="guilsinglright.case" horiz-adv-x="706" 
d="M92 307l389 400l-389 399l72 72l450 -471l-450 -471z" />
    <glyph glyph-name="hyphen.case" horiz-adv-x="972" 
d="M123 748v92h727v-92h-727z" />
    <glyph glyph-name="nine.tab" horiz-adv-x="1228" 
d="M92 973q0 137 68 252t188 182.5t266 67.5q109 0 206.5 -40t166.5 -107.5t109.5 -160t40.5 -194.5q0 -34 -3 -64t-12 -60t-16 -53t-24.5 -53l-28 -48t-35 -51t-37.5 -49.5t-44 -56t-46 -57.5l-379 -481h-113l385 492l15 18v2q-82 -41 -195 -41q-141 0 -259 67.5
t-185.5 183t-67.5 251.5zM195 973q0 -178 117.5 -294t301.5 -116q181 0 300.5 119.5t119.5 290.5q0 178 -118 293.5t-302 115.5t-301.5 -115.5t-117.5 -293.5z" />
    <glyph glyph-name="afii10069.alt" horiz-adv-x="1157" 
d="M10 -246v338h113q5 2 13.5 7t29.5 26.5t37 50.5t29.5 83t13.5 120v625h717v-912h153v-338h-102v246h-901v-246h-103zM246 92h614v819h-512v-532q0 -60 -10.5 -111.5t-25.5 -82t-30 -52.5t-26 -31l-10 -8v-2z" />
    <glyph glyph-name="afii10021.alt" horiz-adv-x="1484" 
d="M0 -287v379h143q7 3 19 10.5t42 43t52.5 85.5t41.5 146.5t19 216.5v840h932v-1342h185v-379h-103v287h-1229v-287h-102zM276 92h871v1249h-727v-747q0 -86 -8 -160t-20.5 -123.5t-28 -90t-31 -63.5t-28 -38.5t-20.5 -20.5z" />
    <glyph glyph-name="nine.dnom" horiz-adv-x="665" 
d="M61 465q0 99 82 175.5t195 76.5t194.5 -76.5t81.5 -175.5q0 -112 -102 -240l-184 -225h-123l153 184l62 41v11q-31 -21 -82 -21q-113 0 -195 76.5t-82 173.5zM164 465q0 -66 49.5 -112t124.5 -46q79 0 126.5 47t47.5 111q0 67 -49.5 113.5t-124.5 46.5t-124.5 -46.5
t-49.5 -113.5z" />
    <glyph glyph-name="eight.dnom" horiz-adv-x="737" 
d="M72 184q0 37 14.5 68.5t36 50.5t42.5 32t35 18l15 5v11l-12.5 5t-27 16t-34.5 29t-27 43.5t-12 59.5q0 81 71 138t196 57t195.5 -57t70.5 -138q0 -32 -11.5 -59t-28 -43.5t-33.5 -28.5t-28 -17l-12 -5v-11q6 -2 15.5 -5.5t34.5 -17.5t44 -32t34.5 -50t15.5 -69
q0 -82 -79.5 -143t-217.5 -61q-139 0 -218 61t-79 143zM205 516q0 -45 42 -75.5t122 -30.5t121.5 30.5t41.5 75.5q0 46 -41.5 77.5t-121.5 31.5t-122 -31.5t-42 -77.5zM174 195q0 -50 50.5 -86.5t144.5 -36.5t144 36.5t50 86.5t-50 86t-144 36t-144.5 -36t-50.5 -86z" />
    <glyph glyph-name="seven.dnom" horiz-adv-x="563" 
d="M41 604v92h512v-92l-317 -604h-113l317 602v2h-399z" />
    <glyph glyph-name="six.dnom" horiz-adv-x="665" 
d="M61 231q0 111 103 240l184 225h123l-154 -184l-61 -41v-10q31 20 82 20q113 0 194.5 -76.5t81.5 -173.5q0 -99 -81.5 -175t-194.5 -76q-114 0 -195.5 76t-81.5 175zM164 231q0 -67 49 -113t125 -46t125 46t49 113q0 66 -49.5 112t-124.5 46q-79 0 -126.5 -47t-47.5 -111z
" />
    <glyph glyph-name="five.dnom" horiz-adv-x="686" 
d="M82 195h113q1 -5 4 -13.5t16 -29.5t30.5 -37t50.5 -29.5t73 -13.5q82 0 128 39.5t46 103.5q0 65 -45.5 104t-128.5 39q-45 0 -85 -16t-58 -32l-17 -15l-96 16l20 385h451v-94h-359l-12 -203h2q6 6 17.5 14.5t54 23t92.5 14.5q118 0 192 -67.5t74 -168.5q0 -95 -78 -165
t-198 -70q-50 0 -93 12t-71.5 31t-51.5 42t-35.5 45.5t-21 41.5t-11.5 31z" />
    <glyph glyph-name="four.dnom" horiz-adv-x="645" 
d="M51 164v92l277 440h112l-284 -440h254v154h102v-154h102v-92h-102v-164h-102v164h-359z" />
    <glyph glyph-name="three.dnom" horiz-adv-x="696" 
d="M61 195h113q1 -5 4 -13.5t16.5 -29.5t32 -37t53.5 -29.5t78 -13.5q74 0 119 38.5t45 94.5q0 133 -174 133h-143v92l235 172v2l-20 -2h-318v94h482v-94l-215 -156l-21 -14v-2h10q120 0 193.5 -65t73.5 -160q0 -89 -77 -157t-190 -68q-52 0 -96.5 12t-74.5 31t-53.5 42
t-36.5 45.5t-21.5 41.5t-11.5 31z" />
    <glyph glyph-name="two.dnom" horiz-adv-x="706" 
d="M72 0v92l174 103q148 88 212 153t64 133q0 63 -44.5 103.5t-119.5 40.5q-40 0 -73.5 -13.5t-53 -33.5t-33.5 -39.5t-19 -32.5l-5 -14h-102q2 9 7 24t26 54t50 68.5t83 54t120 24.5q113 0 190 -70.5t77 -165.5q0 -88 -68.5 -165t-198.5 -152l-102 -60l-20 -12v-2l20 2h379
v-92h-563z" />
    <glyph glyph-name="one.dnom" horiz-adv-x="675" 
d="M113 0v92h204v492l-184 -113v113l195 112h92v-604h194v-92h-501z" />
    <glyph glyph-name="zero.dnom" horiz-adv-x="757" 
d="M72 348q0 164 90 266.5t217 102.5t217 -102.5t90 -266.5t-90 -266t-217 -102t-217 102t-90 266zM174 348q0 -133 58 -204.5t147 -71.5t147 71.5t58 204.5t-58 205t-147 72t-147 -72t-58 -205z" />
    <glyph glyph-name="nine.numr" horiz-adv-x="665" 
d="M61 1202q0 99 82 175.5t195 76.5t194.5 -76.5t81.5 -175.5q0 -111 -102 -239l-184 -226h-123l153 185l62 41v10q-31 -21 -82 -21q-113 0 -195 76.5t-82 173.5zM164 1202q0 -66 49.5 -112t124.5 -46q79 0 126.5 47t47.5 111q0 67 -49.5 113.5t-124.5 46.5t-124.5 -46.5
t-49.5 -113.5z" />
    <glyph glyph-name="eight.numr" horiz-adv-x="737" 
d="M72 922q0 37 14.5 68.5t36 50.5t42.5 32t35 18l15 5v10q-5 2 -12.5 5.5t-27 16.5t-34.5 29t-27 43.5t-12 59.5q0 81 71 137.5t196 56.5t195.5 -56.5t70.5 -137.5q0 -50 -28.5 -88.5t-56.5 -51.5l-28 -14v-10q6 -2 15.5 -5.5t34.5 -17.5t44 -32t34.5 -50t15.5 -69
q0 -83 -79.5 -144t-217.5 -61t-217.5 61t-79.5 144zM205 1253q0 -45 42 -75.5t122 -30.5t121.5 30.5t41.5 75.5q0 46 -41.5 77.5t-121.5 31.5t-122 -31.5t-42 -77.5zM174 932q0 -50 50.5 -86.5t144.5 -36.5t144 36.5t50 86.5t-50 86.5t-144 36.5t-144.5 -36.5t-50.5 -86.5z
" />
    <glyph glyph-name="seven.numr" horiz-adv-x="563" 
d="M41 1341v93h512v-93l-317 -604h-113l317 602v2h-399z" />
    <glyph glyph-name="six.numr" horiz-adv-x="665" 
d="M61 969q0 110 103 239l184 226h123l-154 -185l-61 -41v-10q31 21 82 21q113 0 194.5 -76.5t81.5 -173.5q0 -99 -81.5 -175.5t-194.5 -76.5t-195 76.5t-82 175.5zM164 969q0 -67 49.5 -113.5t124.5 -46.5t124.5 46.5t49.5 113.5q0 66 -49.5 111.5t-124.5 45.5
q-80 0 -127 -46.5t-47 -110.5z" />
    <glyph glyph-name="five.numr" horiz-adv-x="686" 
d="M82 932h113q1 -5 4 -13.5t16 -29.5t30.5 -37t50.5 -29.5t73 -13.5q82 0 128 39.5t46 103.5q0 65 -45.5 104.5t-128.5 39.5q-45 0 -85 -16t-58 -32l-17 -16l-96 17l20 385h451v-95h-359l-12 -202h2q6 6 17.5 14.5t54 22.5t92.5 14q118 0 192 -67.5t74 -168.5
q0 -95 -78 -165t-198 -70q-50 0 -93 12t-71.5 31t-51.5 41.5t-35.5 45.5t-21 42t-11.5 31z" />
    <glyph glyph-name="four.numr" horiz-adv-x="645" 
d="M51 901v92l277 441h112l-284 -441h254v154h102v-154h102v-92h-102v-164h-102v164h-359z" />
    <glyph glyph-name="three.numr" horiz-adv-x="696" 
d="M61 932h113q1 -5 4 -13.5t16.5 -29.5t32 -37t53.5 -29.5t78 -13.5q74 0 119 38.5t45 94.5q0 133 -174 133h-143v92l235 172v2l-20 -2h-318v95h482v-95l-215 -155l-21 -15v-2h10q120 0 193.5 -65t73.5 -160q0 -89 -77 -157t-190 -68q-52 0 -96.5 12t-74.5 31t-53.5 41.5
t-36.5 45.5t-21.5 42t-11.5 31z" />
    <glyph glyph-name="two.numr" horiz-adv-x="706" 
d="M72 737v92l174 103q148 87 212 153t64 134q0 63 -44.5 103t-119.5 40q-40 0 -73.5 -13.5t-53 -33t-33.5 -39.5t-19 -34l-5 -13h-102q2 9 7 24t26 54t50 68.5t83 54t120 24.5q113 0 190 -70.5t77 -164.5q0 -88 -68.5 -165.5t-198.5 -152.5l-102 -59l-20 -13v-2l20 2h379
v-92h-563z" />
    <glyph glyph-name="one.numr" horiz-adv-x="675" 
d="M113 737v92h204v492l-184 -113v113l195 113h92v-605h194v-92h-501z" />
    <glyph glyph-name="zero.numr" horiz-adv-x="757" 
d="M72 1085q0 164 90 266.5t217 102.5t217 -102.5t90 -266.5t-90 -266t-217 -102t-217 102t-90 266zM174 1085q0 -133 58 -204.5t147 -71.5t147 71.5t58 204.5t-58 205t-147 72t-147 -72t-58 -205z" />
    <glyph glyph-name="eight.tab" horiz-adv-x="1228" 
d="M61 389q0 85 32 154t73 108t93.5 67.5t80.5 37t47 12.5v2q-10 1 -33.5 9t-65 32t-77 58t-62 94t-26.5 133q0 74 34 142t95.5 121t155.5 84.5t206 31.5t206 -31.5t155.5 -84.5t96 -121.5t34.5 -141.5q0 -52 -14 -97.5t-34 -77t-49 -58.5t-53 -42.5t-52 -28t-40 -16
t-22 -6.5v-2q11 -2 27.5 -7t49.5 -18.5t63.5 -31.5t65.5 -48.5t60 -67.5t42 -90.5t17 -115.5q0 -85 -38 -162.5t-107 -137t-175 -95t-233 -35.5t-233 35.5t-175 95t-107 137t-38 162.5zM225 1096q0 -122 102.5 -204.5t286.5 -82.5t287 82.5t103 204.5t-103 204t-287 82
t-286.5 -82t-102.5 -204zM164 389q0 -145 118 -241.5t332 -96.5t332.5 96.5t118.5 241.5q0 138 -119 233t-332 95t-331.5 -95t-118.5 -233z" />
    <glyph glyph-name="f.alt" horiz-adv-x="604" 
d="M61 911v93h144v133q0 146 74.5 221.5t214.5 75.5h161v-95h-161q-88 0 -137.5 -52t-49.5 -150v-133h287v-93h-287v-911h-102v911h-144z" />
    <glyph glyph-name="t.alt" horiz-adv-x="716" 
d="M61 911v93h144v225h102v-225h338v-93h-338v-626q0 -193 185 -193h163v-92h-163q-146 0 -216.5 70t-70.5 215v626h-144z" />
    <glyph glyph-name="j.alt" horiz-adv-x="450" 
d="M143 1331q0 33 22.5 57.5t59.5 24.5t59.5 -24.5t22.5 -57.5t-22.5 -57.5t-59.5 -24.5t-59.5 24.5t-22.5 57.5zM-123 -389v92h123q174 0 174 195v1106h102v-1106q0 -146 -68.5 -216.5t-207.5 -70.5h-123z" />
    <glyph glyph-name="afii10055.alt" horiz-adv-x="983" 
d="M113 0v92h327v1249h-327v93h757v-93h-327v-1249h327v-92h-757z" />
    <glyph glyph-name="afii10056.alt" horiz-adv-x="983" 
d="M113 0v92h327v1249h-327v93h757v-93h-327v-1249h327v-92h-757zM584 1700q0 34 24 58t58 24t58 -24t24 -58t-24 -58t-58 -24t-58 24t-24 58zM236 1700q0 34 23.5 58t57.5 24t58 -24t24 -58t-24 -58t-58 -24t-57.5 24t-23.5 58z" />
    <glyph glyph-name="afii10061.alt" horiz-adv-x="1392" 
d="M307 768h502q101 0 148 50.5t47 164.5v215q0 108 70.5 177t185.5 69h61v-92h-61q-69 0 -111.5 -42.5t-42.5 -111.5v-215q0 -62 -12.5 -110.5t-29.5 -74t-38 -42.5t-33 -21.5t-20 -5.5v-2q11 -3 22 -7.5t37 -24t44.5 -45.5t34 -76t15.5 -113v-225q0 -69 42.5 -111.5
t111.5 -42.5h61v-92h-61q-115 0 -185.5 69t-70.5 177v225q0 115 -48.5 165t-156.5 50h-512v-676h-102v1434h102v-666zM633 1581l194 287h123v-2l-235 -285h-82z" />
    <glyph glyph-name="afii10051.alt" horiz-adv-x="1566" 
d="M0 1341v93h1055v-93h-502v-491h410q228 0 359.5 -126t131.5 -335v-133q0 -209 -131.5 -335t-359.5 -126h-2v92h2q191 0 290 95.5t99 273.5v133q0 178 -99 273.5t-290 95.5h-410v-758h-102v1341h-451z" />
    <glyph glyph-name="afii10058.alt" horiz-adv-x="2263" 
d="M-31 0v92q42 -20 103 -20q52 0 90 12.5t70.5 45.5t53 88t31.5 141t11 204v871h921v-523h441q226 0 363.5 -127t137.5 -323q0 -202 -137 -331.5t-364 -129.5h-543v1341h-717v-778q0 -166 -23.5 -281t-70.5 -180.5t-108.5 -93.5t-145.5 -28q-32 0 -60 5t-40 10zM1249 92
h441q190 0 294.5 99t104.5 270q0 164 -105 261t-294 97h-441v-727z" />
    <glyph glyph-name="afii10099.alt" horiz-adv-x="1167" 
d="M31 1096v92h153v246h103v-246h256v-92h-256v-430h2q17 30 38 57t54 54.5t71.5 47.5t91 32.5t111.5 12.5q172 0 280.5 -117t108.5 -313v-532q0 -146 -73.5 -221.5t-212.5 -75.5h-103v92h103q93 0 138.5 49.5t45.5 155.5v532q0 166 -78 252t-219 86q-155 0 -256.5 -106
t-101.5 -273v-399h-103v1096h-153z" />
    <glyph glyph-name="afii10105.alt" horiz-adv-x="450" 
d="M143 1331q0 33 22.5 57.5t59.5 24.5t59.5 -24.5t22.5 -57.5t-22.5 -57.5t-59.5 -24.5t-59.5 24.5t-22.5 57.5zM-123 -389v92h123q174 0 174 195v1106h102v-1106q0 -146 -68.5 -216.5t-207.5 -70.5h-123z" />
    <glyph glyph-name="afii10106.alt" horiz-adv-x="1710" 
d="M0 8v94q31 -20 82 -20q90 0 137 66.5t47 220.5v635h707v-369h307q158 0 258 -92t100 -226q0 -133 -100 -225t-258 -92h-410v911h-501v-542q0 -379 -267 -379q-27 0 -52.5 4.5t-37.5 9.5zM973 92h307q121 0 188.5 61.5t67.5 163.5t-67.5 164t-188.5 62h-307v-451z" />
    <glyph glyph-name="afii10109.alt" horiz-adv-x="1085" 
d="M276 563h349q69 0 101 32t32 101v123q0 94 54.5 144.5t160.5 50.5h41v-92h-41q-53 0 -83 -28t-30 -75v-123q0 -132 -99 -171l-1 -1v-2q121 -48 121 -194v-144q0 -47 29.5 -74.5t82.5 -27.5h41v-92h-41q-106 0 -160.5 50.5t-54.5 143.5v144q0 76 -33 109.5t-110 33.5h-359
v-471h-102v1004h102v-441zM502 1157l194 287h123v-2l-235 -285h-82z" />
    <glyph glyph-name="ff.alt" horiz-adv-x="1218" 
d="M61 911v93h144v133q0 146 74.5 221.5t214.5 75.5h161v-95h-161q-88 0 -137.5 -52t-49.5 -150v-133h512v133q0 146 74.5 221.5t214.5 75.5h162v-95h-162q-88 0 -137 -52t-49 -150v-133h286v-93h-286v-911h-103v911h-512v-911h-102v911h-144z" />
    <glyph glyph-name="fi.alt" horiz-adv-x="1095" 
d="M61 911v93h144v133q0 146 74.5 221.5t214.5 75.5h387v-95h-387q-88 0 -137.5 -52t-49.5 -150v-133h615v-1004h-103v911h-512v-911h-102v911h-144z" />
    <glyph glyph-name="f_j.alt" horiz-adv-x="1095" 
d="M61 911v93h144v133q0 146 74.5 221.5t214.5 75.5h387v-95h-387q-88 0 -137.5 -52t-49.5 -150v-133h615v-1106q0 -287 -277 -287h-123v92h123q174 0 174 195v1013h-512v-911h-102v911h-144z" />
    <glyph glyph-name="fl.alt" horiz-adv-x="1095" 
d="M61 911v93h144v133q0 133 100 225t258 92q159 0 259 -94t100 -234v-1126h-103v1126q0 109 -67.5 172.5t-188.5 63.5t-188.5 -61.5t-67.5 -163.5v-133h287v-93h-287v-911h-102v911h-144z" />
    <glyph glyph-name="f_t.alt" horiz-adv-x="1331" 
d="M61 911v93h144v133q0 133 100 225t258 92q159 0 259 -94t100 -234v-122h338v-93h-338v-626q0 -193 184 -193h164v-92h-164q-146 0 -216.5 70t-70.5 215v626h-512v-911h-102v911h-144zM307 1004h512v122q0 109 -67.5 172.5t-188.5 63.5t-188.5 -61.5t-67.5 -163.5v-133z
" />
    <glyph glyph-name="afii10072.alt" horiz-adv-x="1536" 
d="M819 0h-102v471h-266q-77 0 -110.5 -33.5t-33.5 -109.5v-144q0 -93 -54.5 -143.5t-160.5 -50.5h-41v92h41q53 0 83 28t30 74v144q0 146 121 194v2q-30 15 -42 25q-58 52 -59 147v123q0 47 -29.5 75t-82.5 28h-41v92h41q106 0 160.5 -50.5t54.5 -144.5v-123q0 -69 32 -101
t101 -32h256v441h102v-441h256q69 0 101 32t32 101v123q0 94 54.5 144.5t160.5 50.5h41v-92h-41q-53 0 -82.5 -28t-29.5 -75v-123q0 -128 -101 -172v-2q121 -48 121 -194v-144q0 -46 30 -74t83 -28h41v-92h-41q-106 0 -160.5 50.5t-54.5 143.5v144q0 76 -33.5 109.5
t-110.5 33.5h-266v-471z" />
    <glyph glyph-name="A_A" horiz-adv-x="2519" 
d="M61 0l379 1434h492l319 -1209l6 -30h5l6 30l319 1209h492l379 -1434h-103l-133 502h-778l-133 -502h-103l-133 502h-778l-133 -502h-103zM1464 594h738l-205 747h-328zM317 594h738l-205 747h-328z" />
    <glyph glyph-name="A_R" horiz-adv-x="2129" 
d="M61 0l379 1434h1086q226 0 358.5 -120.5t132.5 -309.5q0 -178 -99 -289t-290 -142l369 -573h-113l-368 563h-472v-563h-102v563h-629l-149 -563h-103zM1044 655h482q189 0 289 92.5t100 256.5q0 157 -100 247t-289 90h-482v-686zM338 655h604v686h-420z" />
    <glyph glyph-name="A_T" horiz-adv-x="1515" 
d="M92 0l354 1341h-272v93h1167v-93h-272l354 -1341h-102l-133 502h-379v-502h-102v502h-379l-133 -502h-103zM809 594h358l-204 747h-154v-747zM348 594h359v747h-154z" />
    <glyph glyph-name="A_V" horiz-adv-x="2140" 
d="M61 0l379 1434h502l348 -1342h318l348 1342h112l-380 -1434h-480l-133 502h-778l-133 -502h-103zM317 594h738l-205 747h-328z" />
    <glyph glyph-name="C_E" horiz-adv-x="1638" 
d="M113 717q0 216 96 390t262 271t369 97q113 0 212 -27.5t166.5 -72t123 -98t89 -107t56 -98t31.5 -72.5l8 -27h-103q-3 9 -8 23.5t-27 57t-49 81t-76 86t-105.5 81t-140 57t-177.5 23.5q-133 0 -248.5 -48t-198.5 -134t-130.5 -211t-47.5 -272q0 -196 81.5 -348.5
t223.5 -235t320 -82.5q76 0 144.5 15t120.5 40.5t98 58.5t78.5 70t59.5 73.5t44 69.5t28.5 58.5t16.5 40.5l4 15h102q-3 -11 -9.5 -30.5t-32 -74.5t-58 -105.5t-90.5 -112t-126 -105.5t-167.5 -74.5t-212.5 -30.5q-203 0 -369 97t-262 271t-96 390zM584 369v686h522v-92
h-420v-195h307v-92h-307v-215h420v-92h-522z" />
    <glyph glyph-name="C_O" horiz-adv-x="1638" 
d="M113 717q0 216 96 390t262 271t369 97q113 0 212 -27.5t166.5 -72t123 -98t89 -107t56 -98t31.5 -72.5l8 -27h-103q-3 9 -8 23.5t-27 57t-49 81t-76 86t-105.5 81t-140 57t-177.5 23.5q-133 0 -248.5 -48t-198.5 -134t-130.5 -211t-47.5 -272q0 -196 81.5 -348.5
t223.5 -235t320 -82.5q76 0 144.5 15t120.5 40.5t98 58.5t78.5 70t59.5 73.5t44 69.5t28.5 58.5t16.5 40.5l4 15h102q-3 -11 -9.5 -30.5t-32 -74.5t-58 -105.5t-90.5 -112t-126 -105.5t-167.5 -74.5t-212.5 -30.5q-203 0 -369 97t-262 271t-96 390zM502 717q0 146 101 247
t247 101t247 -101t101 -247t-101 -247t-247 -101t-247 101t-101 247zM604 717q0 -115 69 -185.5t177 -70.5t177 70.5t69 185.5t-69 185.5t-177 70.5t-177 -70.5t-69 -185.5z" />
    <glyph glyph-name="D_E" horiz-adv-x="2170" 
d="M205 0v1434h1874v-93h-1065v-2q154 -86 247.5 -231.5t108.5 -329.5h555v-92h-555q-7 -195 -101.5 -350t-254.5 -242v-2h1065v-92h-1874zM307 92h338q277 0 451 174t174 451t-174 450.5t-451 173.5h-338v-1249z" />
    <glyph glyph-name="E_A" horiz-adv-x="2344" 
d="M205 0v1434h860v-93h-758v-563h932l174 656h492l379 -1434h-103l-184 686h-678l-182 -686h-932zM1343 778h629l-149 563h-328zM307 92h752l155 594h-907v-594z" />
    <glyph glyph-name="J_A" horiz-adv-x="1894" 
d="M0 317l102 21q1 -6 4 -16.5t16 -40t29.5 -57t47.5 -60.5t68 -56.5t93 -40t121 -16.5q171 0 265 99.5t94 289.5v994h614l379 -1434h-102l-134 502h-655v-62q0 -229 -122 -355t-339 -126q-81 0 -152 19.5t-118.5 51.5t-86 70t-61 76t-37.5 70t-20 52zM942 594h635l-205 747
h-430v-747z" />
    <glyph glyph-name="K_K" horiz-adv-x="1730" 
d="M1065 727l502 707h123l-502 -707l522 -727h-123zM205 0v1434h102v-666h348l471 666h123l-501 -707l522 -727h-123l-492 676h-348v-676h-102z" />
    <glyph glyph-name="K_O" horiz-adv-x="2242" 
d="M205 0v1434h102v-666h348l471 666h123l-501 -707l522 -727h-123l-492 676h-348v-676h-102zM1137 727q0 141 70 261.5t188 190.5t254 70t254 -70t188 -190.5t70 -261.5t-70 -261.5t-188 -190.5t-254 -70t-254 70t-188 190.5t-70 261.5zM1239 727q0 -183 120 -306.5
t290 -123.5t289.5 123.5t119.5 306.5t-119.5 306.5t-289.5 123.5t-290 -123.5t-120 -306.5z" />
    <glyph glyph-name="L_A" horiz-adv-x="1935" 
d="M205 0v1434h102v-1342h342l355 1342h491l379 -1434h-102l-134 502h-778l-108 -410h344v-92h-891zM881 594h737l-205 747h-328z" />
    <glyph glyph-name="L_I" horiz-adv-x="1290" 
d="M993 338v1096h103v-1096h-103zM205 0v1434h102v-1342h789v-92h-891z" />
    <glyph glyph-name="L_L" horiz-adv-x="1269" 
d="M563 338v1096h103v-1004h573v-92h-676zM205 0v1434h102v-1342h789v-92h-891z" />
    <glyph glyph-name="L_F" horiz-adv-x="1320" 
d="M584 317v1117h665v-93h-563v-430h451v-92h-451v-502h-102zM205 0v1434h102v-1342h789v-92h-891z" />
    <glyph glyph-name="L_O" horiz-adv-x="1628" 
d="M481 932q0 141 70.5 261.5t191 190.5t261.5 70q106 0 202.5 -41.5t166.5 -111.5t111.5 -166.5t41.5 -202.5t-41.5 -202.5t-111.5 -166.5t-166.5 -111.5t-202.5 -41.5q-141 0 -261.5 70t-191 190.5t-70.5 261.5zM205 0v1434h102v-1342h789v-92h-891zM584 932
q0 -184 121 -307t299 -123t298.5 123t120.5 307t-120.5 307t-298.5 123t-299 -123t-121 -307z" />
    <glyph glyph-name="N_A" horiz-adv-x="2232" 
d="M205 0v1434h164l805 -1321l12 -21h2v1342h604l379 -1434h-103l-133 502h-645v-502h-164l-807 1321l-10 20h-2v-1341h-102zM1290 594h625l-205 747h-420v-747z" />
    <glyph glyph-name="O_C" horiz-adv-x="2426" 
d="M113 717q0 216 96 390t262 271t369 97q217 0 393 -115q176 115 395 115q113 0 212 -27.5t166.5 -72t123 -98t89 -107t56 -98t31.5 -72.5l8 -27h-102q-3 9 -8 23.5t-27 57t-49.5 81t-76.5 86t-105.5 81t-140 57t-177.5 23.5q-176 0 -315 -82q120 -104 187 -254t67 -329
q0 -180 -67.5 -331.5t-186.5 -254.5q141 -80 315 -80q76 0 144.5 15t120.5 40.5t98 58.5t78.5 70t59.5 73.5t44 69.5t28.5 58.5t16.5 40.5l4 15h102q-3 -11 -9.5 -30.5t-32 -74.5t-58 -105.5t-90.5 -112t-126 -105.5t-167.5 -74.5t-212.5 -30.5q-218 0 -395 113
q-177 -113 -393 -113q-203 0 -369 97t-262 271t-96 390zM215 717q0 -196 81.5 -348.5t223.5 -235t320 -82.5q171 0 315 80q-120 103 -187 254.5t-67 331.5t66.5 330t187.5 253q-142 82 -315 82q-133 0 -248.5 -48t-198.5 -134t-130.5 -211t-47.5 -272zM1004 717
q0 -168 60.5 -304.5t168.5 -226.5q109 90 170 226t61 305t-60.5 304.5t-170.5 225.5q-108 -90 -168.5 -226t-60.5 -304z" />
    <glyph glyph-name="O_G" horiz-adv-x="2549" 
d="M113 717q0 216 96 390t262 271t369 97q217 0 393 -115q176 115 395 115q87 0 166.5 -17t139.5 -45.5t113 -65t90.5 -77.5t69 -82t50.5 -77.5t32.5 -65t18.5 -45.5l6 -17h-102q-3 8 -8.5 22.5t-28.5 56t-51 79t-77 83.5t-106 79.5t-139 56t-174 22.5q-176 0 -315 -82
q120 -104 187 -254t67 -329q0 -180 -67.5 -331.5t-186.5 -254.5q141 -80 315 -80q247 0 421 168t194 426h-297v92h583v-92h-184q-22 -201 -119 -357t-252.5 -242.5t-345.5 -86.5q-218 0 -395 113q-177 -113 -393 -113q-203 0 -369 97t-262 271t-96 390zM215 717
q0 -196 81.5 -348.5t223.5 -235t320 -82.5q171 0 315 80q-120 103 -187 254.5t-67 331.5t66.5 330t187.5 253q-142 82 -315 82q-133 0 -248.5 -48t-198.5 -134t-130.5 -211t-47.5 -272zM1004 717q0 -168 60.5 -304.5t168.5 -226.5q109 90 170 226t61 305t-60.5 304.5
t-170.5 225.5q-108 -90 -168.5 -226t-60.5 -304z" />
    <glyph glyph-name="O_L_I" horiz-adv-x="2887" 
d="M113 717q0 216 96 390t262 271t369 97t369 -97t262 -271t96 -390t-96 -390t-262 -271t-369 -97t-369 97t-262 271t-96 390zM215 717q0 -196 81.5 -348.5t223.5 -235t320 -82.5q133 0 248.5 48.5t198 134.5t130 211t47.5 272t-47.5 272t-130 211t-198 134t-248.5 48
t-248.5 -48t-198.5 -134t-130.5 -211t-47.5 -272zM2591 338v1096h102v-1096h-102zM1802 0v1434h103v-1342h788v-92h-891z" />
    <glyph glyph-name="O_O" horiz-adv-x="2467" 
d="M113 717q0 216 96 390t262 271t369 97q217 0 393 -115q176 115 395 115q203 0 369 -97t262 -271t96 -390t-96 -390t-262 -271t-369 -97q-218 0 -395 113q-177 -113 -393 -113q-203 0 -369 97t-262 271t-96 390zM1313 131q141 -80 315 -80q178 0 320 82.5t223.5 235
t81.5 348.5q0 147 -47.5 272t-130.5 211t-198.5 134t-248.5 48q-176 0 -315 -82q120 -104 187 -254t67 -329q0 -180 -67.5 -331.5t-186.5 -254.5zM215 717q0 -196 81.5 -348.5t223.5 -235t320 -82.5q171 0 315 80q-120 103 -187 254.5t-67 331.5t66.5 330t187.5 253
q-142 82 -315 82q-133 0 -248.5 -48t-198.5 -134t-130.5 -211t-47.5 -272zM1004 717q0 -168 60.5 -304.5t168.5 -226.5q109 90 170 226t61 305t-60.5 304.5t-170.5 225.5q-108 -90 -168.5 -226t-60.5 -304z" />
    <glyph glyph-name="P_H" horiz-adv-x="2447" 
d="M205 0v1434h573q226 0 364 -127.5t138 -323.5v-205h860v656h103v-1434h-103v686h-860v-686h-102v688q-67 -79 -169.5 -122.5t-230.5 -43.5h-471v-522h-102zM307 614h471q190 0 295 99t105 270q0 164 -105.5 261t-294.5 97h-471v-727z" />
    <glyph glyph-name="R_J" horiz-adv-x="2099" 
d="M205 0v1434h583q226 0 359 -120.5t133 -309.5q0 -178 -99 -289t-290 -142l133 -204q59 -91 102 -145.5t93.5 -96.5t106 -59t128.5 -17q171 0 264.5 99.5t93.5 289.5v994h103v-994q0 -229 -122 -355t-339 -126q-87 0 -156 22t-132.5 74t-118 119t-125.5 174l-144 215h-471
v-563h-102zM307 655h481q189 0 289.5 92.5t100.5 256.5q0 157 -100.5 247t-289.5 90h-481v-686z" />
    <glyph glyph-name="S_A" horiz-adv-x="2611" 
d="M41 369h102q2 -7 5.5 -18.5t19.5 -44.5t37 -63t59 -66.5t83 -63t112.5 -44.5t144.5 -18q205 0 317.5 88t112.5 219q0 65 -25 116t-68 85t-98 61t-116 49.5t-122.5 46.5t-116.5 57t-98 74.5t-68 105t-25 143.5q0 153 133.5 266t347.5 113q94 0 175 -20.5t135 -53t97 -72
t67.5 -78.5t41 -71.5t22.5 -53.5l5 -20h-102q-2 6 -5 16t-18 38.5t-34.5 54.5t-55.5 58t-79 55t-108.5 38.5t-140.5 15.5q-177 0 -278 -82.5t-101 -203.5q0 -65 25 -116t68 -85t98.5 -61t116.5 -49.5t122 -46.5t116.5 -57t98.5 -74.5t68 -105t25 -143.5q0 -77 -36.5 -148.5
t-102.5 -127.5t-168.5 -89.5t-225.5 -33.5q-77 0 -145.5 14t-119.5 38t-94.5 54.5t-73.5 64.5t-53.5 68t-37.5 64.5t-23 54.5t-13 38zM1300 0l379 1434h492l379 -1434h-103l-133 502h-778l-133 -502h-103zM1556 594h738l-205 747h-328z" />
    <glyph glyph-name="T_A" horiz-adv-x="1587" 
d="M20 1341v93h1127l379 -1434h-103l-133 502h-645v-502h-102v1341h-523zM645 594h625l-205 747h-420v-747z" />
    <glyph glyph-name="T_E" horiz-adv-x="1464" 
d="M20 1341v93h1147v-93h-522v-358h676v-92h-676v-359h512v-92h-512v-348h676v-92h-778v1341h-523z" />
    <glyph glyph-name="T_H_E" horiz-adv-x="2539" 
d="M20 1341v93h1127v-93h-512v-563h860v656h952v-93h-850v-563h697v-92h-697v-594h850v-92h-952v686h-860v-686h-103v1341h-512z" />
    <glyph glyph-name="T_T" horiz-adv-x="1740" 
d="M20 1341v93h1147v-93h-522v-1341h-102v1341h-523zM840 891v92h819v-92h-359v-891h-102v891h-358z" />
    <glyph glyph-name="U_U" horiz-adv-x="1576" 
d="M184 532v902h103v-902q0 -217 136 -349t365 -132t365.5 132t136.5 349v902h103v-902q0 -248 -169.5 -410.5t-435.5 -162.5t-435 162.5t-169 410.5zM461 594v522h102v-522q0 -128 61.5 -197t163.5 -69q103 0 164.5 69.5t61.5 196.5v522h102v-522q0 -159 -94 -258.5
t-234 -99.5t-233.5 99.5t-93.5 258.5z" />
    <glyph glyph-name="W_E" horiz-adv-x="2590" 
d="M92 1434h113l287 -1342h81l297 1342h226l297 -1342h82l286 1342h738v-93h-646l-124 -563h616v-92h-637l-131 -594h922v-92h-1188l-297 1341h-62l-297 -1341h-245z" />
    <glyph glyph-name="afii10024.alt" horiz-adv-x="2007" 
d="M952 0v676h-379q-108 0 -156 -50t-48 -165v-225q0 -108 -70.5 -177t-185.5 -69h-62v92h62q69 0 111 42.5t42 111.5v225q0 63 15.5 113t34 76t45 45.5t37.5 24t22 7.5v2q-8 1 -20 5.5t-33 21.5t-38 42.5t-29.5 74t-12.5 110.5v215q0 69 -42.5 111.5t-111.5 42.5h-61v92h61
q115 0 185.5 -69t70.5 -177v-215q0 -114 47 -164.5t148 -50.5h368v666h103v-666h368q101 0 148 50.5t47 164.5v215q0 108 70.5 177t185.5 69h61v-92h-61q-69 0 -111.5 -42.5t-42.5 -111.5v-215q0 -62 -12.5 -110.5t-29.5 -74t-38 -42.5t-33 -21.5t-20 -5.5v-2q11 -3 22 -7.5
t37.5 -24t45 -45.5t34 -76t15.5 -113v-225q0 -69 42 -111.5t111 -42.5h62v-92h-62q-115 0 -185.5 69t-70.5 177v225q0 115 -48 165t-156 50h-379v-676h-103z" />
    <glyph glyph-name="afii10076.alt" horiz-adv-x="1085" 
d="M276 563h349q69 0 101 32t32 101v123q0 94 54.5 144.5t160.5 50.5h41v-92h-41q-53 0 -83 -28t-30 -75v-123q0 -132 -99 -171l-1 -1v-2q121 -48 121 -194v-144q0 -47 29.5 -74.5t82.5 -27.5h41v-92h-41q-106 0 -160.5 50.5t-54.5 143.5v144q0 76 -33 109.5t-110 33.5h-359
v-471h-102v1004h102v-441z" />
    <glyph glyph-name="afii10028.alt" horiz-adv-x="1392" 
d="M307 768h502q101 0 148 50.5t47 164.5v215q0 108 70.5 177t185.5 69h61v-92h-61q-69 0 -111.5 -42.5t-42.5 -111.5v-215q0 -62 -12.5 -110.5t-29.5 -74t-38 -42.5t-33 -21.5t-20 -5.5v-2q11 -3 22 -7.5t37 -24t44.5 -45.5t34 -76t15.5 -113v-225q0 -69 42.5 -111.5
t111.5 -42.5h61v-92h-61q-115 0 -185.5 69t-70.5 177v225q0 115 -48.5 165t-156.5 50h-512v-676h-102v1434h102v-666z" />
    <glyph glyph-name="afii10077.alt" horiz-adv-x="1187" 
d="M0 8v94q31 -20 82 -20q90 0 137 66.5t47 220.5v635h748v-1004h-103v911h-542v-542q0 -379 -267 -379q-27 0 -52.5 4.5t-37.5 9.5z" />
    <glyph glyph-name="afii10029.alt" horiz-adv-x="1484" 
d="M-31 0v92q42 -20 103 -20q52 0 90 12.5t70.5 45.5t53 88t31.5 141t11 204v871h952v-1434h-102v1341h-748v-778q0 -166 -23.5 -281t-70.5 -180.5t-108.5 -93.5t-145.5 -28q-32 0 -60 5t-40 10z" />
    <glyph glyph-name="gcommaaccent.alt" horiz-adv-x="1116" 
d="M461 1352q0 90 47.5 143t126.5 61v-61q-46 -8 -74.5 -36t-28.5 -66q0 -14 3 -27t5 -19l3 -6q10 11 30 11q33 0 52.5 -19.5t19.5 -52.5q0 -30 -23.5 -51t-58.5 -21q-43 0 -72.5 36t-29.5 108zM51 -123q0 52 23 96t56 70.5t66.5 45.5t56.5 27l23 7v246q-7 4 -18 11
t-39 33.5t-49.5 56.5t-39 80t-17.5 105q0 151 121.5 260t308.5 109q41 0 79 -5t56 -10l18 -5h420v-93h-246l-20 2v-2q5 -4 13.5 -11t29.5 -32t37 -52.5t29.5 -71t13.5 -89.5q0 -149 -121.5 -258.5t-308.5 -109.5q-45 0 -88.5 7.5t-64.5 15.5l-21 7v-170q72 17 174 17
q121 0 220 -26t158.5 -68t91 -92t31.5 -101q0 -52 -30.5 -101.5t-89 -91.5t-157.5 -68t-224 -26q-121 0 -218.5 26t-155.5 68t-88 91.5t-30 101.5zM215 655q0 -117 89.5 -196.5t238.5 -79.5q150 0 238.5 78.5t88.5 197.5t-88.5 198t-238.5 79t-239 -79t-89 -198zM154 -123
q0 -72 100 -133t289 -61q107 0 187 17t124.5 46t66 61.5t21.5 69.5t-21.5 70t-66 62t-124.5 46t-187 17q-86 0 -154 -11.5t-111.5 -30.5t-72 -45t-40 -52.5t-11.5 -55.5z" />
    <glyph glyph-name="gbreve.alt" horiz-adv-x="1116" 
d="M51 -123q0 52 23 96t56 70.5t66.5 45.5t56.5 27l23 7v246q-7 4 -18 11t-39 33.5t-49.5 56.5t-39 80t-17.5 105q0 151 121.5 260t308.5 109q41 0 79 -5t56 -10l18 -5h420v-93h-246l-20 2v-2q5 -4 13.5 -11t29.5 -32t37 -52.5t29.5 -71t13.5 -89.5q0 -149 -121.5 -258.5
t-308.5 -109.5q-45 0 -88.5 7.5t-64.5 15.5l-21 7v-170q72 17 174 17q121 0 220 -26t158.5 -68t91 -92t31.5 -101q0 -52 -30.5 -101.5t-89 -91.5t-157.5 -68t-224 -26q-121 0 -218.5 26t-155.5 68t-88 91.5t-30 101.5zM215 655q0 -117 89.5 -196.5t238.5 -79.5
q150 0 238.5 78.5t88.5 197.5t-88.5 198t-238.5 79t-239 -79t-89 -198zM154 -123q0 -72 100 -133t289 -61q107 0 187 17t124.5 46t66 61.5t21.5 69.5t-21.5 70t-66 62t-124.5 46t-187 17q-86 0 -154 -11.5t-111.5 -30.5t-72 -45t-40 -52.5t-11.5 -55.5zM289 1460h92
q0 -63 49.5 -108t124.5 -45t124.5 45t49.5 108h92q0 -95 -76.5 -165t-189.5 -70t-189.5 70t-76.5 165z" />
    <glyph glyph-name="Iogonek.alt" horiz-adv-x="983" 
d="M113 0v92h327v1249h-327v93h757v-93h-327v-1249h327v-92q-10 -4 -26.5 -12t-58.5 -34.5t-74.5 -55t-59 -73.5t-26.5 -91q0 -47 29.5 -75t82.5 -28q32 0 65.5 7.5t50.5 15.5l17 8v-82q-61 -31 -133 -31q-90 0 -147.5 52t-57.5 123q0 51 22 98t54 78t64 54.5t54 34.5l22 11
h-635z" />
    <glyph glyph-name="Aacute.alt2" 
d="M61 0l379 1434h205v256h113v-2l-21 -254h195l379 -1434h-103l-133 502h-778l-133 -502h-103zM317 594h738l-205 747h-328z" />
    <glyph glyph-name="Adieresis.alt2" 
d="M1024 1372q0 34 24 58t58 24t58 -24t24 -58t-24 -58t-58 -24t-58 24t-24 58zM184 1372q0 34 24 58t58 24t58 -24t24 -58t-24 -58t-58 -24t-58 24t-24 58zM61 0l379 1434h492l379 -1434h-103l-133 502h-778l-133 -502h-103zM317 594h738l-205 747h-328z" />
    <glyph glyph-name="Aring.alt2" 
d="M61 0l379 1434h103q-2 1 -5.5 3.5t-12.5 11.5t-15.5 20t-12 29t-5.5 38q0 64 56 114t138 50t138.5 -50t56.5 -114q0 -32 -13 -57.5t-26 -34.5l-13 -10h103l379 -1434h-103l-133 502h-778l-133 -502h-103zM573 1526q0 -40 30.5 -66t82.5 -26t82.5 26t30.5 66t-30.5 66
t-82.5 26t-82.5 -26t-30.5 -66zM317 594h738l-205 747h-328z" />
    <glyph glyph-name="Odieresis.alt2" horiz-adv-x="1679" 
d="M113 717q0 216 96 390t262 271t369 97t369 -97t262 -271t96 -390t-96 -390t-262 -271t-369 -97t-369 97t-262 271t-96 390zM1372 1372q0 34 24 58t58 24t58 -24t24 -58t-24 -58t-58 -24t-58 24t-24 58zM143 1372q0 34 24 58t58 24t58 -24t24 -58t-24 -58t-58 -24t-58 24
t-24 58zM215 717q0 -196 81.5 -348.5t223.5 -235t320 -82.5q133 0 248.5 48.5t198 134.5t130 211t47.5 272t-47.5 272t-130 211t-198 134t-248.5 48t-248.5 -48t-198.5 -134t-130.5 -211t-47.5 -272z" />
    <glyph glyph-name="Otilde.alt2" horiz-adv-x="1679" 
d="M543 1464v47q0 72 47 120t117 48q45 0 86 -21t66.5 -45.5t56 -45.5t57.5 -21q31 0 51 21.5t20 56.5v45h93v-47q0 -72 -47 -120t-117 -48q-45 0 -86 21t-66.5 45.5t-56 45.5t-57.5 21q-31 0 -51.5 -21.5t-20.5 -56.5v-45h-92zM113 666q0 152 56 284t153 224t231.5 145
t286.5 53t286.5 -53t231.5 -145t153 -224t56 -284q0 -201 -96 -363.5t-262 -253t-369 -90.5t-369 90.5t-262 253t-96 363.5zM215 666q0 -182 81.5 -323t223.5 -216.5t320 -75.5q133 0 248.5 44.5t198 123.5t130 194.5t47.5 252.5q0 183 -81.5 323.5t-223 215.5t-319.5 75
t-320 -75t-223.5 -215.5t-81.5 -323.5z" />
    <glyph glyph-name="Scaron.alt2" horiz-adv-x="1300" 
d="M92 369h103q2 -7 5.5 -18.5t19.5 -44.5t36.5 -63t58.5 -66.5t83 -63t112.5 -44.5t144.5 -18q205 0 317.5 88t112.5 219q0 65 -32 116t-85.5 85t-123.5 61t-147.5 49.5t-154.5 46.5t-147 57t-123.5 74.5t-85.5 105t-32 143.5q0 132 103 237.5t275 132.5l-163 201v2h102
l164 -194h20l164 194h103v-2l-166 -203q72 -12 134.5 -38t104.5 -58t75.5 -68.5t53 -70.5t32.5 -62t18 -45l4 -16h-103q-1 6 -4.5 16t-18 38.5t-34 54.5t-55.5 58t-79.5 55t-108.5 38.5t-140 15.5q-177 0 -278 -82.5t-101 -203.5q0 -65 32 -116t86 -85t123.5 -61t147 -49.5
t155 -46.5t147 -57t123.5 -74.5t86 -105t32 -143.5q0 -77 -36.5 -148.5t-102.5 -127.5t-168.5 -89.5t-225.5 -33.5q-77 0 -145.5 14t-119.5 38t-94.5 54.5t-73.5 64.5t-53.5 68t-37.5 64.5t-23 54.5t-12 38z" />
    <glyph glyph-name="Udieresis.alt2" horiz-adv-x="1454" 
d="M1137 1362q0 34 24 58t58 24t57.5 -24t23.5 -58t-23.5 -58t-57.5 -24t-58 24t-24 58zM154 1362q0 34 24 58t58 24t57.5 -24t23.5 -58t-23.5 -58t-57.5 -24t-58 24t-24 58zM184 522v686h103v-686q0 -221 119 -346t321 -125t321 125t119 346v686h103v-686
q0 -252 -152 -407.5t-391 -155.5t-391 155.5t-152 407.5z" />
    <glyph glyph-name="Zcaron.alt2" horiz-adv-x="1228" 
d="M82 0v92l942 1247v2h-911v93h401l-166 233v2h103l163 -235h21l164 235h102v-2l-168 -233h404v-93l-942 -1247v-2h952v-92h-1065z" />
    <glyph glyph-name="ampersand.alt2" horiz-adv-x="1751" 
d="M143 567q0 148 67.5 270t182.5 190.5t252 68.5q188 0 320.5 -122.5t171.5 -318.5l-881 -184q32 -175 174 -287t358 -112q89 0 169 19t139.5 51t111.5 73.5t87.5 87.5t64 91.5t45.5 87t28.5 73.5t16.5 51l4 19h-184v92h471v-92h-185q-2 -8 -5.5 -22.5t-18 -58.5
t-33.5 -86.5t-53.5 -101t-75 -108t-100.5 -100.5t-128 -87t-160 -58.5t-194 -22.5q-142 0 -263.5 45t-204.5 123.5t-130 186.5t-47 232zM246 563l778 164q-49 125 -145 201t-234 76q-172 0 -285.5 -122.5t-113.5 -318.5z" />
    <glyph glyph-name="ampersand.alt" horiz-adv-x="1402" 
d="M113 379q0 61 17.5 114t45.5 89t61.5 65.5t67.5 47t62 29.5t45 16l18 5v3q-11 4 -29.5 11.5t-66.5 36.5t-84 64t-66 95.5t-30 129.5q0 160 133 275t348 115q92 0 171 -20.5t132 -53t95.5 -72t66.5 -78.5t40 -71.5t22 -53.5l5 -20h-102q-2 6 -5 16t-17.5 38.5t-33.5 54.5
t-54.5 58t-77.5 55t-105.5 38.5t-136.5 15.5q-178 0 -278.5 -84.5t-100.5 -212.5q0 -121 104.5 -209t274.5 -88h90v-92h-90q-191 0 -305.5 -93.5t-114.5 -223.5q0 -63 27.5 -121t78.5 -104.5t132.5 -74.5t181.5 -28q206 0 328 118.5t122 311.5v215h-184v92h502v-92h-215
v-215q0 -147 -69 -266t-196 -187.5t-288 -68.5q-119 0 -219.5 36.5t-165.5 96.5t-101 134.5t-36 152.5z" />
    <glyph glyph-name="florin.alt" horiz-adv-x="716" 
d="M-143 -389v92h112q196 0 226 215l143 993h-133v93h143l21 143q18 125 102.5 206t206.5 81h151v-93h-153q-85 0 -138 -51t-67 -143l-20 -143h276v-93h-287l-143 -993q-23 -155 -103 -231t-225 -76h-112z" />
    <glyph glyph-name="seven.tab" horiz-adv-x="1228" 
d="M113 1044v390h1024v-93l-615 -1341h-112l614 1339v2h-809v-297h-102z" />
    <glyph glyph-name="six.tab" horiz-adv-x="1228" 
d="M92 461q0 38 5.5 73.5t11.5 62.5t23.5 62l27 54t37.5 58t40 54.5t49.5 62t51.5 64.5l379 482h112l-385 -492l-14 -18v-2q82 41 195 41q141 0 259 -67.5t185.5 -183t67.5 -251.5q0 -102 -40.5 -194.5t-109.5 -160t-166.5 -107.5t-206.5 -40q-146 0 -266 67.5t-188 182.5
t-68 252zM195 461q0 -178 117.5 -294t301.5 -116t302 116t118 294t-118 293.5t-302 115.5q-181 0 -300 -119t-119 -290z" />
    <glyph glyph-name="tcaron.alt" horiz-adv-x="716" 
d="M420 1167q0 30 23.5 51t58.5 21q44 0 73 -35.5t29 -107.5q0 -90 -47.5 -143.5t-126.5 -61.5v61q46 7 74 36t28 67q0 14 -2.5 26.5t-5.5 18.5l-2 6q-10 -10 -30 -10q-34 0 -53 19t-19 52zM61 911v93h144v225h102v-944q0 -193 185 -193h163v-92h-163q-146 0 -216.5 70
t-70.5 215v626h-144z" />
    <glyph glyph-name="tcommaaccent.alt" horiz-adv-x="716" 
d="M61 911v93h144v225h102v-225h338v-93h-338v-626q0 -193 185 -193h163v-92h-163q-146 0 -216.5 70t-70.5 215v626h-144zM328 -276q0 30 23.5 50.5t58.5 20.5q44 0 73 -35.5t29 -107.5q0 -90 -47.5 -143.5t-126.5 -61.5v61q46 7 74 36t28 67q0 14 -2.5 26.5t-5.5 18.5l-2 6
q-11 -10 -31 -10q-33 0 -52 19.5t-19 52.5z" />
    <glyph glyph-name="uni021B.alt" horiz-adv-x="716" 
d="M61 911v93h144v225h102v-225h338v-93h-338v-626q0 -193 185 -193h163v-92h-163q-146 0 -216.5 70t-70.5 215v626h-144zM328 -276q0 30 23.5 50.5t58.5 20.5q44 0 73 -35.5t29 -107.5q0 -90 -47.5 -143.5t-126.5 -61.5v61q46 7 74 36t28 67q0 14 -2.5 26.5t-5.5 18.5l-2 6
q-11 -10 -31 -10q-33 0 -52 19.5t-19 52.5z" />
    <glyph glyph-name="Eacute.alt2" horiz-adv-x="1249" 
d="M205 0v1434h440v256h113v-2l-21 -254h420v-93h-850v-563h697v-92h-697v-594h850v-92h-952z" />
    <glyph glyph-name="Iacute.alt2" horiz-adv-x="512" 
d="M205 1434v256h112v-2l-20 -254h-92zM205 0v1311h102v-1311h-102z" />
    <glyph glyph-name="Oacute.alt2" horiz-adv-x="1679" 
d="M113 717q0 207 89 376t243.5 268.5t345.5 111.5v217h112v-2l-18 -215q144 -9 269.5 -69t216.5 -158.5t143.5 -235.5t52.5 -293q0 -216 -96 -390t-262 -271t-369 -97t-369 97t-262 271t-96 390zM215 717q0 -196 81.5 -348.5t223.5 -235t320 -82.5q133 0 248.5 48.5
t198 134.5t130 211t47.5 272t-47.5 272t-130 211t-198 134t-248.5 48t-248.5 -48t-198.5 -134t-130.5 -211t-47.5 -272z" />
    <glyph glyph-name="Uacute.alt2" horiz-adv-x="1454" 
d="M686 1434v256h113v-2l-21 -254h-92zM184 522v912h103v-912q0 -221 119 -346t321 -125t321 125t119 346v912h103v-912q0 -252 -152 -407.5t-391 -155.5t-391 155.5t-152 407.5z" />
    <glyph glyph-name="Yacute.alt2" horiz-adv-x="1290" 
d="M594 1434v256h113v-2l-21 -254h-92zM31 1434h123l491 -809h2l490 809h123l-564 -922v-512h-102v512z" />
    <glyph glyph-name="a.sc" horiz-adv-x="1249" 
d="M61 0l338 1229h451l338 -1229h-103l-112 420h-697l-112 -420h-103zM297 512h655l-174 625h-307z" />
    <glyph glyph-name="aacute.sc" horiz-adv-x="1249" 
d="M61 0l338 1229h451l338 -1229h-103l-112 420h-697l-112 -420h-103zM297 512h655l-174 625h-307zM584 1413l194 287h123v-2l-235 -285h-82z" />
    <glyph glyph-name="abreve.sc" horiz-adv-x="1249" 
d="M61 0l338 1229h451l338 -1229h-103l-112 420h-697l-112 -420h-103zM297 512h655l-174 625h-307zM358 1649h93q0 -63 49.5 -108.5t124.5 -45.5t124.5 45.5t49.5 108.5h92q0 -95 -76.5 -165.5t-189.5 -70.5t-190 70.5t-77 165.5z" />
    <glyph glyph-name="acircumflex.sc" horiz-adv-x="1249" 
d="M61 0l338 1229h451l338 -1229h-103l-112 420h-697l-112 -420h-103zM297 512h655l-174 625h-307zM348 1413v2l225 295h103l225 -295v-2h-102l-164 215h-21l-163 -215h-103z" />
    <glyph glyph-name="adieresis.sc" horiz-adv-x="1249" 
d="M61 0l338 1229h451l338 -1229h-103l-112 420h-697l-112 -420h-103zM297 512h655l-174 625h-307zM717 1536q0 34 24 58t58 24t58 -24t24 -58t-24 -58t-58 -24t-58 24t-24 58zM369 1536q0 34 24 58t58 24t57.5 -24t23.5 -58t-23.5 -58t-57.5 -24t-58 24t-24 58z" />
    <glyph glyph-name="agrave.sc" horiz-adv-x="1249" 
d="M61 0l338 1229h451l338 -1229h-103l-112 420h-697l-112 -420h-103zM297 512h655l-174 625h-307zM348 1698v2h123l195 -287h-82z" />
    </font>
</defs>
</svg>
