<?xml version="1.0" standalone="no"?>
<!DOCTYPE svg PUBLIC "-//W3C//DTD SVG 1.1//EN" "http://www.w3.org/Graphics/SVG/1.1/DTD/svg11.dtd" >
<svg xmlns="http://www.w3.org/2000/svg" xmlns:xlink="http://www.w3.org/1999/xlink" version="1.1">
<metadata>
Created by FontForge 20170731 at Mon Aug  3 21:24:32 2020
 By Aleksey,,,
Copyright (c) 2018 by Typetype. Designer Ivan Gladkikh, technical designers Philipp Nurullin, Vika Usmanova, Nadyr Rakhimov, Marina Khodak. All rights reserved.
</metadata>
<defs>
<font id="TTFirsNeue-Medium" horiz-adv-x="1136" >
  <font-face 
    font-family="TT Firs Neue Light"
    font-weight="500"
    font-stretch="normal"
    units-per-em="2048"
    panose-1="2 0 8 3 3 0 0 2 0 4"
    ascent="1638"
    descent="-410"
    x-height="1044"
    cap-height="1434"
    bbox="-913 -655 2945 2120"
    underline-thickness="102"
    underline-position="-409"
    unicode-range="U+000D-FB02"
  />
<missing-glyph horiz-adv-x="0" 
 />
    <glyph glyph-name="ff" unicode="ff" horiz-adv-x="1290" 
d="M41 850v194h123v390h502v-195h-287v-195h409v390h523v-195h-307v-195h245v-194h-245v-850h-216v850h-409v-850h-215v850h-123z" />
    <glyph glyph-name="fi" unicode="fi" horiz-adv-x="1126" 
d="M41 850v194h123v390h696v-195h-481v-195h625v-1044h-216v850h-409v-850h-215v850h-123z" />
    <glyph glyph-name="fl" unicode="fl" horiz-adv-x="1269" 
d="M41 850v194h123v390h850v-1239h235v-195h-450v1239h-420v-195h246v-194h-246v-850h-215v850h-123z" />
    <glyph glyph-name="f_t" unicode="ft" horiz-adv-x="1402" 
d="M41 850v194h123v390h850v-390h317v-194h-317v-655h327v-195h-542v850h-420v-850h-215v850h-123zM379 1044h420v195h-420v-195z" />
    <glyph glyph-name="f_j" unicode="fj" horiz-adv-x="1126" 
d="M41 850v194h123v390h696v-195h-481v-195h625v-1433h-523v194h307v1045h-409v-850h-215v850h-123z" />
    <glyph glyph-name=".notdef" horiz-adv-x="0" 
 />
    <glyph glyph-name=".null" horiz-adv-x="0" 
 />
    <glyph glyph-name=".null" horiz-adv-x="0" 
 />
    <glyph glyph-name="nonmarkingreturn" horiz-adv-x="682" 
 />
    <glyph glyph-name="CR" unicode="&#xd;" horiz-adv-x="0" 
 />
    <glyph glyph-name="space" unicode=" " horiz-adv-x="573" 
 />
    <glyph glyph-name="exclam" unicode="!" horiz-adv-x="573" 
d="M174 727v707h225v-707l-41 -297h-143zM143 113q0 61 41 102t103 41q61 0 102 -41t41 -102q0 -62 -41 -103t-102 -41t-102.5 41.5t-41.5 102.5z" />
    <glyph glyph-name="quotedbl" unicode="&#x22;" horiz-adv-x="860" 
d="M143 1147v287h215v-287l-30 -215h-154zM502 1147v287h215v-287l-31 -215h-154z" />
    <glyph glyph-name="numbersign" unicode="#" horiz-adv-x="1382" 
d="M51 379v174h256l92 317h-225v174h277l112 390h205l-113 -390h267l112 390h205l-113 -390h205v-174h-256l-92 -317h225v-174h-276l-113 -379h-205l113 379h-266l-113 -379h-205l113 379h-205zM512 553h266l92 317h-266z" />
    <glyph glyph-name="dollar" unicode="$" horiz-adv-x="1320" 
d="M72 430h245q2 -10 6.5 -27.5t29 -61.5t60 -78t105 -61.5t158.5 -27.5q161 0 239 58.5t78 156.5q0 62 -47.5 105.5t-123.5 69.5t-167.5 49.5t-183 55t-167.5 75t-123.5 120t-47.5 180.5q0 99 51 188.5t150.5 153t228.5 78.5v195h236v-195q77 -14 142.5 -44t108.5 -67
t77 -78.5t52.5 -80t30.5 -70t16 -50.5l3 -19h-246q-1 4 -2.5 11.5t-10.5 29t-21.5 40.5t-37.5 43t-56.5 41t-80.5 28.5t-108 11.5q-140 0 -213.5 -57.5t-73.5 -147.5q0 -62 47.5 -106t123.5 -71t167.5 -51.5t183 -56t167.5 -75t123.5 -119t47.5 -177.5q0 -172 -121 -285
t-319 -145v-194h-236v194q-71 10 -133 32t-107 51t-83 63.5t-63 70.5t-45 71.5t-31 66.5t-18 55t-9 37z" />
    <glyph glyph-name="percent" unicode="%" horiz-adv-x="1576" 
d="M82 1116q0 138 100 238t238 100t238 -100t100 -238t-100 -238t-238 -100t-238 100t-100 238zM256 0l860 1434h205l-860 -1434h-205zM256 1116q0 -76 47 -125t117 -49t117 49t47 125t-47 125t-117 49t-117 -49t-47 -125zM819 317q0 138 100 238t238 100t238 -100t100 -238
t-100 -237.5t-238 -99.5t-238 99.5t-100 237.5zM993 317q0 -76 47 -125t117 -49t117 49t47 125t-47 125.5t-117 49.5t-117 -49.5t-47 -125.5z" />
    <glyph glyph-name="ampersand" unicode="&#x26;" horiz-adv-x="1474" 
d="M41 481q0 141 70 261.5t190.5 191t261.5 70.5q23 0 43.5 -3t29.5 -5l9 -3v11l-92 61l-102 154v215h870v-215h-584v-13l799 -1206h-276l-164 246l-21 102h-10q-4 -69 -41.5 -138.5t-99 -125t-151 -90.5t-189.5 -35q-151 0 -276 70.5t-196 190t-71 261.5zM287 481
q0 -131 83.5 -214t213.5 -83t213.5 83t83.5 214t-83.5 214t-213.5 83t-213.5 -83t-83.5 -214z" />
    <glyph glyph-name="quotesingle" unicode="'" horiz-adv-x="501" 
d="M143 1147v287h215v-287l-30 -215h-154z" />
    <glyph glyph-name="parenleft" unicode="(" horiz-adv-x="768" 
d="M123 594q0 125 27.5 245.5t72 212.5t98 174t107 139t98 99t72.5 62l27 20l102 -164q-8 -6 -21.5 -18t-53 -52.5t-75.5 -85t-79.5 -115.5t-75 -145.5t-53 -173t-21.5 -198.5t21 -198t54.5 -174t73.5 -144.5t80.5 -117t74 -84.5t54.5 -54l21 -17l-102 -163
q-10 7 -28.5 20.5t-70.5 60.5t-99.5 100t-105.5 138.5t-99.5 175.5t-70 211t-28.5 246z" />
    <glyph glyph-name="parenright" unicode=")" horiz-adv-x="768" 
d="M41 -195q8 6 21.5 18t53 52.5t75.5 85.5t79.5 116t75 145.5t53 173t21.5 198.5q0 79 -13 156.5t-35 141.5t-50.5 124.5t-60 108.5t-62.5 90t-59.5 72t-50.5 52t-35 33l-13 10l102 164q10 -7 28.5 -20.5t70.5 -60.5t99.5 -100t105.5 -138.5t99.5 -175.5t70 -211t28.5 -246
t-27.5 -245.5t-72 -212.5t-98 -174t-107 -139t-98 -99t-72.5 -62l-27 -20z" />
    <glyph glyph-name="asterisk" unicode="*" horiz-adv-x="778" 
d="M82 1055v164h225v215h164v-215h225v-164h-174l123 -195l-137 -86l-119 189l-119 -189l-137 86l123 195h-174z" />
    <glyph glyph-name="plus" unicode="+" horiz-adv-x="1075" 
d="M123 532v195h317v317h195v-317h317v-195h-317v-317h-195v317h-317z" />
    <glyph glyph-name="comma" unicode="," horiz-adv-x="450" 
d="M82 113q0 61 40 102t99 41q67 0 107.5 -49.5t40.5 -145.5q0 -157 -75.5 -242t-201.5 -85v102q61 0 97 34t36 89l-2 27q-19 -6 -39 -6q-40 0 -71 37t-31 96z" />
    <glyph glyph-name="hyphen" unicode="-" horiz-adv-x="993" 
d="M123 461v205h747v-205h-747z" />
    <glyph glyph-name="period" unicode="." horiz-adv-x="450" 
d="M82 113q0 61 41 102t102 41q62 0 103 -41t41 -102t-41.5 -102.5t-102.5 -41.5t-102 41t-41 103z" />
    <glyph glyph-name="slash" unicode="/" horiz-adv-x="778" 
d="M0 0l543 1434h235l-542 -1434h-236z" />
    <glyph glyph-name="zero" unicode="0" horiz-adv-x="1515" 
d="M92 717q0 165 54 308t145 241t212.5 153.5t254.5 55.5t254.5 -55.5t212.5 -153.5t144.5 -241t53.5 -308t-53.5 -308t-144.5 -241t-212.5 -153.5t-254.5 -55.5t-254.5 55.5t-212.5 153.5t-145 241t-54 308zM338 717q0 -253 118 -393t302 -140t302 140t118 393
q0 252 -118 392t-302 140t-302 -140t-118 -392z" />
    <glyph glyph-name="one" unicode="1" horiz-adv-x="675" 
d="M51 963v266l266 205h215v-1434h-235v1147z" />
    <glyph glyph-name="two" unicode="2" horiz-adv-x="1177" 
d="M61 0v225l490 346q159 112 229 212.5t70 209.5q0 116 -72 186t-194 70q-48 0 -89.5 -13.5t-69 -35t-49.5 -47.5t-34.5 -52.5t-20.5 -48t-11 -34.5l-3 -14h-246q1 10 3.5 27t16.5 66t34.5 93.5t61 98.5t93 93t134.5 66t180 27q227 0 369.5 -134.5t142.5 -336.5
q0 -176 -90.5 -316t-288.5 -278l-205 -144l-92 -41v-10l123 10h553v-225h-1035z" />
    <glyph glyph-name="three" unicode="3" horiz-adv-x="1239" 
d="M61 410h246q2 -9 6.5 -24.5t26.5 -54.5t53.5 -68.5t93 -54t138.5 -24.5q141 0 224 71t83 175q0 117 -75.5 186.5t-211.5 69.5h-348v205l430 307v10h-594v226h942v-224l-368 -268l-103 -41v-10q52 10 113 10q193 0 321.5 -132.5t128.5 -338.5q0 -197 -151 -334t-391 -137
q-81 0 -151.5 15.5t-122 41.5t-95.5 60t-73 71.5t-52 74.5t-35.5 71t-21 60t-10.5 41z" />
    <glyph glyph-name="four" unicode="4" horiz-adv-x="1198" 
d="M31 287v225l481 922h256l-481 -922h471v348h10h225v-348h205v-225h-205v-287h-235v287h-727z" />
    <glyph glyph-name="five" unicode="5" horiz-adv-x="1259" 
d="M82 399h246l3 -12t11.5 -30.5t23 -42.5t39 -45t57 -43t79.5 -30t104 -12q136 0 216.5 74.5t80.5 192.5q0 124 -80 200t-217 76q-57 0 -106.5 -13.5t-79.5 -33.5t-51.5 -39.5t-29.5 -32.5l-9 -14h-226l62 840h870v-226h-676l-30 -368h10q4 5 12 12.5t37 26.5t61.5 34
t86 27t110.5 12q215 0 358.5 -143t143.5 -358q0 -211 -150.5 -351.5t-392.5 -140.5q-102 0 -188.5 24.5t-143 63t-100.5 85.5t-68 94t-39 85.5t-20 62.5z" />
    <glyph glyph-name="six" unicode="6" horiz-adv-x="1259" 
d="M72 471q0 45 9.5 91.5t19.5 82t35.5 84t38.5 72.5t48.5 74.5t45.5 64t48 64.5l328 430h277l-310 -404l-90 -78v-10q51 31 174 31q98 0 187 -38.5t154 -104.5t103 -159.5t38 -199.5q0 -107 -40.5 -201t-112.5 -162.5t-175.5 -108.5t-224.5 -40t-224.5 40t-175.5 108.5
t-112.5 162.5t-40.5 201zM317 471q0 -131 85.5 -214t222.5 -83t222 83t85 214t-85 214t-222 83t-222.5 -83t-85.5 -214z" />
    <glyph glyph-name="seven" unicode="7" horiz-adv-x="1034" 
d="M20 1208v226h973v-226l-573 -1208h-256l563 1188v20h-707z" />
    <glyph glyph-name="eight" unicode="8" horiz-adv-x="1310" 
d="M82 389q0 49 10 93t26.5 76.5t38 61t45.5 47.5t47.5 34.5t45 24.5t38 15.5t26.5 8.5l10 2v12q-9 3 -24.5 9.5t-54.5 33t-68.5 59.5t-54 91.5t-24.5 127.5q0 78 34.5 148t98 124t162 86t217.5 32t217.5 -32t162 -86t98 -124t34.5 -148q0 -69 -23 -127.5t-56.5 -92.5
t-66.5 -58.5t-56 -33.5l-23 -9v-12q6 -1 16.5 -4t40 -15t57 -28t60.5 -45.5t56.5 -65t40 -89.5t16.5 -116q0 -85 -38.5 -162t-109.5 -137t-181.5 -95.5t-244.5 -35.5t-244.5 35.5t-181 95.5t-109 137t-38.5 162zM389 1065q0 -89 70 -147t196 -58t196.5 58t70.5 147
q0 81 -71 138t-196 57t-195.5 -57t-70.5 -138zM328 410q0 -98 86.5 -167t240.5 -69t241 69t87 167t-87 166.5t-241 68.5t-240.5 -68.5t-86.5 -166.5z" />
    <glyph glyph-name="nine" unicode="9" horiz-adv-x="1259" 
d="M82 963q0 107 40.5 201t112.5 162.5t175.5 108.5t224.5 40t224.5 -40t175.5 -108.5t112.5 -162.5t40.5 -201q0 -62 -17.5 -127.5t-36 -109.5t-62.5 -112t-61.5 -92t-68.5 -92l-328 -430h-276l309 403l90 78v11q-51 -31 -174 -31q-132 0 -242 65t-174.5 180.5t-64.5 256.5
zM328 963q0 -131 85 -214t222 -83t222 83t85 214t-85 214t-222 83t-222 -83t-85 -214z" />
    <glyph glyph-name="colon" unicode=":" horiz-adv-x="450" 
d="M82 911q0 62 41 103t102 41t102.5 -41.5t41.5 -102.5t-41 -102t-103 -41q-61 0 -102 41t-41 102zM82 113q0 61 41 102t102 41q62 0 103 -41t41 -102t-41.5 -102.5t-102.5 -41.5t-102 41t-41 103z" />
    <glyph glyph-name="semicolon" unicode=";" horiz-adv-x="450" 
d="M82 113q0 61 40 102t99 41q67 0 107.5 -49.5t40.5 -145.5q0 -157 -75.5 -242t-201.5 -85v102q61 0 97 34t36 89l-2 27q-19 -6 -39 -6q-40 0 -71 37t-31 96zM82 911q0 62 41 103t102 41t102.5 -41.5t41.5 -102.5t-41 -102t-103 -41q-61 0 -102 41t-41 102z" />
    <glyph glyph-name="less" unicode="&#x3c;" horiz-adv-x="1085" 
d="M123 410v225l819 409v-204l-614 -308v-20l614 -307v-205z" />
    <glyph glyph-name="equal" unicode="=" horiz-adv-x="1044" 
d="M143 635v194h758v-194h-758zM143 256v195h758v-195h-758z" />
    <glyph glyph-name="greater" unicode="&#x3e;" horiz-adv-x="1085" 
d="M143 0v205l615 307v20l-615 308v204l820 -409v-225z" />
    <glyph glyph-name="question" unicode="?" horiz-adv-x="1095" 
d="M20 1034q2 9 5.5 25t19.5 62t38.5 87.5t64.5 92.5t94 87.5t130.5 61.5t170.5 25q108 0 203 -35.5t159.5 -94t101.5 -134.5t37 -156q0 -77 -23 -138t-60 -100.5t-82 -72.5t-89.5 -63t-81.5 -63t-60 -80.5t-23 -107.5h-226q0 81 22 145t57.5 105.5t78 75.5t85 63.5t78 60.5
t57.5 75t22 100q0 88 -68.5 146.5t-187.5 58.5q-66 0 -120 -23.5t-83.5 -56.5t-50 -66t-27.5 -56l-6 -24h-236zM369 113q0 61 40.5 102t102.5 41t102.5 -41t40.5 -102q0 -62 -41 -103t-102 -41t-102 41t-41 103z" />
    <glyph glyph-name="at" unicode="@" horiz-adv-x="1658" 
d="M82 655q0 163 60 307t164 248t251 164t313 60q110 0 210 -25t179 -68.5t143.5 -102.5t106.5 -127.5t65 -143t23 -148.5q0 -222 -133 -356.5t-352 -134.5h-129v92h-10q-2 -5 -6.5 -12.5t-21 -27t-37 -34.5t-55.5 -27t-75 -12q-120 0 -203 95.5t-83 252.5t83 253t203 96
q40 0 75 -11.5t56 -28t36.5 -33.5t21.5 -29l6 -11h10v92h195v-481q98 0 161.5 81.5t63.5 235.5q0 82 -35 160t-100 141t-168.5 101.5t-229.5 38.5q-262 0 -428 -168.5t-166 -436.5t166 -436t428 -168q60 0 121 11t105 26t80 30.5t54 26.5l19 11v-187q-18 -10 -51.5 -25.5
t-132.5 -41t-195 -25.5q-166 0 -313 60t-251 163.5t-164 247.5t-60 307zM696 655q0 -74 40.5 -118.5t103.5 -44.5t103 44t40 119t-40 119.5t-103 44.5t-103.5 -44.5t-40.5 -119.5z" />
    <glyph glyph-name="A" unicode="A" horiz-adv-x="1392" 
d="M31 0l368 1434h584l379 -1434h-246l-98 369h-660l-92 -369h-235zM420 594h541l-162 614h-226z" />
    <glyph glyph-name="B" unicode="B" horiz-adv-x="1443" 
d="M143 0v1434h707q202 0 321 -105t119 -264q0 -69 -22 -125t-54 -86.5t-63.5 -51.5t-53.5 -28l-22 -6v-10q6 -1 15.5 -2.5t37 -11t52.5 -23.5t56 -41.5t53 -62t37 -88.5t15 -119q0 -183 -131 -296.5t-370 -113.5h-697zM379 850h461q99 0 151.5 49.5t52.5 136.5
q0 77 -53.5 124.5t-150.5 47.5h-461v-358zM379 225h450q134 0 200.5 54.5t66.5 150.5t-66.5 150.5t-200.5 54.5h-450v-410z" />
    <glyph glyph-name="C" unicode="C" horiz-adv-x="1648" 
d="M82 717q0 216 102 390t277.5 271t388.5 97q95 0 180.5 -18t149.5 -48t119.5 -69.5t94 -82.5t70 -86.5t50 -83t31 -69.5t17.5 -48l5 -18h-236q-2 6 -7 17t-24 41.5t-42 58.5t-63.5 62.5t-87.5 59t-114.5 41.5t-142.5 17q-231 0 -376.5 -147.5t-145.5 -384.5t145.5 -385
t376.5 -148q77 0 146 18t117.5 47t88.5 64t65 70t42.5 64t24.5 47l7 18h236q-3 -12 -10 -31.5t-34 -77t-61.5 -110t-95 -116t-131.5 -109.5t-174.5 -77.5t-220.5 -31.5q-213 0 -388.5 97t-277.5 271t-102 390z" />
    <glyph glyph-name="D" unicode="D" horiz-adv-x="1474" 
d="M143 0v1434h482q221 0 397.5 -96t273.5 -259.5t97 -361.5t-97 -361.5t-273.5 -259.5t-397.5 -96h-482zM379 225h246q236 0 379 137.5t143 354.5t-143 354t-379 137h-246v-983z" />
    <glyph glyph-name="E" unicode="E" horiz-adv-x="1249" 
d="M143 0v1434h1035v-226h-799v-368h645v-226h-645v-389h799v-225h-1035z" />
    <glyph glyph-name="F" unicode="F" horiz-adv-x="1187" 
d="M143 0v1434h1004v-226h-768v-409h604v-226h-604v-573h-236z" />
    <glyph glyph-name="G" unicode="G" horiz-adv-x="1771" 
d="M82 717q0 216 102 390t277.5 271t388.5 97q95 0 180.5 -18t149.5 -48t119.5 -69.5t94 -82.5t70 -86.5t50 -83t31 -69.5t17.5 -48l5 -18h-236q-2 6 -7 17t-24 41.5t-42 58.5t-63.5 62.5t-87.5 59t-114.5 41.5t-142.5 17q-231 0 -376.5 -147.5t-145.5 -384.5t145.5 -385
t376.5 -148q81 0 152.5 19t120 50t88 68t63 74t39.5 68t22 50l6 19h-256v226h666v-226h-174q-3 -12 -9 -32.5t-31.5 -80t-58.5 -114t-93 -120.5t-131 -113.5t-177 -80t-227 -32.5q-213 0 -388.5 97t-277.5 271t-102 390z" />
    <glyph glyph-name="H" unicode="H" horiz-adv-x="1464" 
d="M143 0v1434h236v-594h706v594h236v-1434h-236v614h-706v-614h-236z" />
    <glyph glyph-name="I" unicode="I" horiz-adv-x="522" 
d="M143 0v1434h236v-1434h-236z" />
    <glyph glyph-name="J" unicode="J" horiz-adv-x="1126" 
d="M0 307l236 51q2 -8 6.5 -21t23.5 -46.5t44 -59t70.5 -46.5t100.5 -21q125 0 196 76.5t71 220.5v973h235v-973q0 -244 -135 -383t-367 -139q-81 0 -152 20.5t-118.5 53t-86 71.5t-61 78t-37.5 71.5t-20 52.5z" />
    <glyph glyph-name="K" unicode="K" horiz-adv-x="1351" 
d="M143 0v1434h236v-594h235l430 594h277l-502 -686l522 -748h-286l-430 614h-246v-614h-236z" />
    <glyph glyph-name="L" unicode="L" horiz-adv-x="1105" 
d="M143 0v1434h236v-1209h727v-225h-963z" />
    <glyph glyph-name="M" unicode="M" horiz-adv-x="1884" 
d="M143 0v1434h389l390 -891h51l389 891h379v-1434h-236v1004l21 194h-21l-379 -870h-368l-379 870h-21l21 -194v-1004h-236z" />
    <glyph glyph-name="N" unicode="N" horiz-adv-x="1484" 
d="M143 0v1434h338l625 -1137h20l-20 174v963h235v-1434h-337l-625 1137h-21l21 -174v-963h-236z" />
    <glyph glyph-name="O" unicode="O" horiz-adv-x="1699" 
d="M82 717q0 159 58.5 299.5t160 241t244.5 159t305 58.5t305 -58.5t244.5 -159t160 -241t58.5 -299.5t-58.5 -299.5t-160 -241t-244.5 -159t-305 -58.5t-305 58.5t-244.5 159t-160 241t-58.5 299.5zM328 717q0 -237 145.5 -385t376.5 -148t376.5 148t145.5 385
t-145.5 384.5t-376.5 147.5t-376.5 -147.5t-145.5 -384.5z" />
    <glyph glyph-name="P" unicode="P" horiz-adv-x="1382" 
d="M143 0v1434h625q165 0 292 -65t194 -174.5t67 -242.5t-67 -242t-194 -174t-292 -65h-389v-471h-236zM379 696h389q150 0 228.5 68.5t78.5 187.5t-78.5 187.5t-228.5 68.5h-389v-512z" />
    <glyph glyph-name="Q" unicode="Q" horiz-adv-x="1699" 
d="M82 717q0 159 58.5 299.5t160 241t244.5 159t305 58.5t305 -58.5t244.5 -159t160 -241t58.5 -299.5q0 -192 -81.5 -354t-229 -265.5t-334.5 -128.5v-379h-236v379q-192 25 -341.5 128.5t-231.5 265t-82 354.5zM328 717q0 -237 145.5 -385t376.5 -148t376.5 148t145.5 385
t-145.5 384.5t-376.5 147.5t-376.5 -147.5t-145.5 -384.5z" />
    <glyph glyph-name="R" unicode="R" horiz-adv-x="1413" 
d="M143 0v1434h625q254 0 403.5 -131.5t149.5 -329.5q0 -157 -97.5 -276.5t-271.5 -164.5l359 -532h-277l-338 512h-317v-512h-236zM379 737h389q156 0 231.5 62t75.5 174q0 111 -75.5 173t-231.5 62h-389v-471z" />
    <glyph glyph-name="S" unicode="S" horiz-adv-x="1320" 
d="M72 430h245q2 -10 6.5 -27.5t29 -61.5t60 -78t105 -61.5t158.5 -27.5q161 0 239 58.5t78 156.5q0 62 -47.5 105.5t-123.5 69.5t-167.5 49.5t-183 55t-167.5 75t-123.5 120t-47.5 180.5q0 84 37.5 162t105 138t169.5 95.5t221 35.5q102 0 188.5 -23t143 -60t100.5 -82
t68 -90t39 -82t19 -60l5 -23h-246q-1 4 -2.5 11.5t-10.5 29t-21.5 40.5t-37.5 43t-56.5 41t-80.5 28.5t-108 11.5q-140 0 -213.5 -57.5t-73.5 -147.5q0 -62 47.5 -106t123.5 -71t167.5 -51.5t183 -56t167.5 -75t123.5 -119t47.5 -177.5q0 -89 -38 -168.5t-108.5 -140
t-178 -96t-238.5 -35.5q-87 0 -163.5 16t-132 43.5t-102.5 62.5t-77.5 74.5t-55 78.5t-38 74t-22 62.5t-11.5 43.5z" />
    <glyph glyph-name="T" unicode="T" horiz-adv-x="1218" 
d="M20 1208v226h1178v-226h-471v-1208h-235v1208h-472z" />
    <glyph glyph-name="U" unicode="U" horiz-adv-x="1433" 
d="M133 553v881h236v-881q0 -176 92.5 -272.5t255.5 -96.5t255.5 96.5t92.5 272.5v881h235v-881q0 -276 -157 -435t-426 -159t-426.5 159t-157.5 435z" />
    <glyph glyph-name="V" unicode="V" horiz-adv-x="1372" 
d="M31 1434h245l308 -1209h225l297 1209h235l-358 -1434h-584z" />
    <glyph glyph-name="W" unicode="W" horiz-adv-x="1986" 
d="M51 1434h246l250 -1229h31l241 1229h359l252 -1229h30l240 1229h235l-297 -1434h-378l-246 1178h-31l-235 -1178h-390z" />
    <glyph glyph-name="X" unicode="X" horiz-adv-x="1300" 
d="M31 0l379 707l-359 727h256l297 -615h92l297 615h256l-358 -727l379 -707h-256l-318 604h-92l-317 -604h-256z" />
    <glyph glyph-name="Y" unicode="Y" horiz-adv-x="1341" 
d="M0 1434h276l379 -635h31l379 635h276l-553 -902v-532h-235v532z" />
    <glyph glyph-name="Z" unicode="Z" horiz-adv-x="1259" 
d="M61 0v225l811 963v20h-790v226h1096v-226l-811 -962v-21h831v-225h-1137z" />
    <glyph glyph-name="bracketleft" unicode="[" horiz-adv-x="686" 
d="M143 -297v1782h502v-205h-276v-1372h276v-205h-502z" />
    <glyph glyph-name="backslash" unicode="\" horiz-adv-x="778" 
d="M0 1434h236l542 -1434h-235z" />
    <glyph glyph-name="bracketright" unicode="]" horiz-adv-x="686" 
d="M41 -297v205h276v1372h-276v205h502v-1782h-502z" />
    <glyph glyph-name="asciicircum" unicode="^" horiz-adv-x="942" 
d="M61 778l297 656h226l297 -656h-195l-194 451h-41l-195 -451h-195z" />
    <glyph glyph-name="underscore" unicode="_" horiz-adv-x="665" 
d="M-41 -389v194h748v-194h-748z" />
    <glyph glyph-name="grave" unicode="`" horiz-adv-x="542" 
d="M61 1423h256l164 -297h-184l-236 295v2z" />
    <glyph glyph-name="a" unicode="a" horiz-adv-x="1228" 
d="M61 522q0 242 140.5 392.5t351.5 150.5q60 0 116 -16t93 -38.5t65 -45t41 -38.5l13 -16h10v133h215v-1044h-215v143h-10q-5 -7 -13.5 -18t-40 -39t-66.5 -49.5t-91.5 -39t-116.5 -17.5q-138 0 -249.5 66.5t-177 191t-65.5 284.5zM287 522q0 -166 83 -257t224 -91
q134 0 215.5 91.5t81.5 256.5t-81.5 256.5t-215.5 91.5q-141 0 -224 -91t-83 -257z" />
    <glyph glyph-name="b" unicode="b" horiz-adv-x="1228" 
d="M123 0v1434h215v-523h10q5 6 13.5 16.5t40 37t66.5 47t91.5 37t116.5 16.5q211 0 351 -150.5t140 -392.5t-140 -392t-351 -150q-60 0 -116 16t-93 38t-65 44.5t-41 38.5l-13 16h-10v-133h-215zM338 522q0 -165 81.5 -256.5t215.5 -91.5q141 0 224 91t83 257t-83 257
t-224 91q-134 0 -215.5 -91.5t-81.5 -256.5z" />
    <glyph glyph-name="c" unicode="c" 
d="M61 522q0 236 149.5 389.5t373.5 153.5q86 0 160 -21t123.5 -54.5t89.5 -73.5t63 -80.5t38.5 -74t21.5 -54.5l5 -21h-225q-2 7 -7 19.5t-26 44.5t-48.5 56t-79.5 44t-115 20q-127 0 -212 -95.5t-85 -252.5t85 -252.5t212 -95.5q66 0 120 19t83.5 46t49.5 54t27 46l6 19
h215q-2 -8 -5.5 -21.5t-20.5 -53t-39 -75t-63 -79t-90 -75t-123 -53t-160 -21.5q-224 0 -373.5 153t-149.5 389z" />
    <glyph glyph-name="d" unicode="d" horiz-adv-x="1228" 
d="M61 522q0 242 140.5 392.5t351.5 150.5q60 0 116 -16t93 -38.5t65 -45t41 -38.5l13 -16h10v523h215v-1434h-215v133h-10q-5 -6 -13.5 -16.5t-40 -37t-66.5 -46.5t-91.5 -36.5t-116.5 -16.5q-138 0 -249.5 66.5t-177 191t-65.5 284.5zM287 522q0 -166 83 -257t224 -91
q134 0 215.5 91.5t81.5 256.5t-81.5 256.5t-215.5 91.5q-141 0 -224 -91t-83 -257z" />
    <glyph glyph-name="e" unicode="e" horiz-adv-x="1187" 
d="M61 522q0 151 71 276t193 196t269 71q110 0 208.5 -42t169.5 -114t112.5 -173t41.5 -214v-71h-850q23 -128 111.5 -202.5t206.5 -74.5q60 0 113 14.5t85 35.5t56 42.5t34 35.5l9 15h225q-2 -7 -7 -19t-25 -47t-44.5 -67t-68 -71t-94.5 -67t-125 -47t-158 -19
q-147 0 -269 71t-193 195.5t-71 275.5zM287 625h614q-16 101 -96.5 173t-210.5 72q-111 0 -197.5 -66.5t-109.5 -178.5z" />
    <glyph glyph-name="f" unicode="f" horiz-adv-x="665" 
d="M41 850v194h123v390h522v-195h-307v-195h246v-194h-246v-850h-215v850h-123z" />
    <glyph glyph-name="g" unicode="g" horiz-adv-x="1228" 
d="M61 522q0 242 140.5 392.5t351.5 150.5q60 0 116 -16t93 -39t65 -46t41 -39l13 -16h10v135h215v-1433h-891v194h676v328h-10q-5 -6 -13.5 -16.5t-40 -37t-66.5 -46.5t-91.5 -36.5t-116.5 -16.5q-138 0 -249.5 66.5t-177 191t-65.5 284.5zM287 522q0 -166 83 -257t224 -91
q134 0 215.5 91.5t81.5 256.5t-81.5 256.5t-215.5 91.5q-141 0 -224 -91t-83 -257z" />
    <glyph glyph-name="h" unicode="h" horiz-adv-x="1198" 
d="M123 0v1434h215v-533h10q4 7 11.5 18t36 39t63 50t93 39.5t124.5 17.5q194 0 301.5 -113.5t107.5 -326.5v-625h-215v604q0 137 -60.5 201.5t-184.5 64.5t-205.5 -85t-81.5 -222v-563h-215z" />
    <glyph glyph-name="i" unicode="i" horiz-adv-x="460" 
d="M102 1325q0 54 36.5 91.5t90.5 37.5t91.5 -37.5t37.5 -91.5t-37.5 -90.5t-91.5 -36.5t-90.5 36.5t-36.5 90.5zM123 0v1044h215v-1044h-215z" />
    <glyph glyph-name="j" unicode="j" horiz-adv-x="471" 
d="M113 1325q0 54 36.5 91.5t90.5 37.5t91.5 -37.5t37.5 -91.5t-37.5 -90.5t-91.5 -36.5t-90.5 36.5t-36.5 90.5zM-174 -389v194h307v1239h215v-1433h-522z" />
    <glyph glyph-name="k" unicode="k" horiz-adv-x="1085" 
d="M123 0v1434h215v-799h154l317 409h246l-379 -481l409 -563h-266l-317 440h-164v-440h-215z" />
    <glyph glyph-name="l" unicode="l" horiz-adv-x="593" 
d="M123 0v1434h215v-1239h235v-195h-450z" />
    <glyph glyph-name="m" unicode="m" horiz-adv-x="1863" 
d="M123 0v1044h215v-143h10q3 7 10 18t33.5 39t58.5 50t87 39.5t118 17.5q74 0 136.5 -20t98 -48.5t60.5 -57.5t34 -49l9 -20h11q4 8 11.5 21t38 46.5t67.5 59.5t102 47t139 21q180 0 284.5 -114t104.5 -326v-625h-215v614q0 128 -58 192t-167 64q-110 0 -188.5 -84.5
t-78.5 -212.5v-573h-215v614q0 128 -58 192t-167 64q-110 0 -188 -84.5t-78 -212.5v-573h-215z" />
    <glyph glyph-name="n" unicode="n" horiz-adv-x="1198" 
d="M123 0v1044h215v-143h10q4 7 11.5 18t36 39t63 50t93 39.5t124.5 17.5q194 0 301.5 -113.5t107.5 -326.5v-625h-215v604q0 137 -60.5 201.5t-184.5 64.5t-205.5 -85t-81.5 -222v-563h-215z" />
    <glyph glyph-name="o" unicode="o" horiz-adv-x="1208" 
d="M61 522q0 230 156.5 386.5t386.5 156.5t386.5 -156.5t156.5 -386.5t-156.5 -386t-386.5 -156t-386.5 156t-156.5 386zM287 522q0 -159 88.5 -253.5t228.5 -94.5t229 94.5t89 253.5t-89 253.5t-229 94.5t-228.5 -94.5t-88.5 -253.5z" />
    <glyph glyph-name="p" unicode="p" horiz-adv-x="1228" 
d="M123 -389v1433h215v-133h10q5 6 13.5 16.5t40 37t66.5 47t91.5 37t116.5 16.5q211 0 351 -150.5t140 -392.5t-140 -392t-351 -150q-60 0 -116 16t-93 38t-65 44.5t-41 38.5l-13 16h-10v-522h-215zM338 522q0 -165 81.5 -256.5t215.5 -91.5q141 0 224 91t83 257t-83 257
t-224 91q-134 0 -215.5 -91.5t-81.5 -256.5z" />
    <glyph glyph-name="q" unicode="q" horiz-adv-x="1228" 
d="M61 522q0 242 140.5 392.5t351.5 150.5q60 0 116 -16t93 -38.5t65 -45t41 -38.5l13 -16h10v133h215v-1433h-215v522h-10q-5 -6 -13.5 -16.5t-40 -37t-66.5 -46.5t-91.5 -36.5t-116.5 -16.5q-138 0 -249.5 66.5t-177 191t-65.5 284.5zM287 522q0 -166 83 -257t224 -91
q134 0 215.5 91.5t81.5 256.5t-81.5 256.5t-215.5 91.5q-141 0 -224 -91t-83 -257z" />
    <glyph glyph-name="r" unicode="r" horiz-adv-x="798" 
d="M123 0v1044h215v-153h10q3 7 10 18t32 39t55 50t81.5 39.5t108.5 17.5h123v-205h-133q-125 0 -206 -79t-81 -208v-563h-215z" />
    <glyph glyph-name="s" unicode="s" horiz-adv-x="1044" 
d="M51 328h236q2 -6 6.5 -16.5t24.5 -37t46 -47t74 -37t105 -16.5q113 0 164 35.5t51 87.5q0 33 -28 56t-74.5 36t-105 27t-120.5 26.5t-120.5 38t-105 58.5t-74.5 89.5t-28 129.5q0 122 113 214.5t297 92.5q84 0 154.5 -18t116.5 -47t82 -64t55.5 -70t32.5 -64t17 -47
l3 -18h-225q-1 3 -3 7.5t-10 18.5t-18.5 26.5t-30 28t-42.5 26.5t-57.5 18.5t-74.5 7.5q-91 0 -137.5 -33t-46.5 -81q0 -32 28 -55t74 -35.5t105 -26.5t120.5 -27t120.5 -38t105 -58t74 -89.5t28 -129.5q0 -131 -117.5 -224t-322.5 -93q-88 0 -162.5 19t-123.5 50t-88 68
t-60 74t-35 68t-18 50z" />
    <glyph glyph-name="t" unicode="t" horiz-adv-x="768" 
d="M41 850v194h123v226h215v-226h317v-194h-317v-655h328v-195h-543v850h-123z" />
    <glyph glyph-name="u" unicode="u" horiz-adv-x="1208" 
d="M123 420v624h215v-604q0 -137 61 -201.5t185 -64.5t205 85t81 222v563h215v-1044h-215v143h-10q-4 -7 -11.5 -18t-36 -39t-63 -49.5t-93 -39t-124.5 -17.5q-194 0 -301.5 113.5t-107.5 326.5z" />
    <glyph glyph-name="v" unicode="v" horiz-adv-x="1075" 
d="M20 1044h226l225 -849h133l225 849h226l-287 -1044h-461z" />
    <glyph glyph-name="w" unicode="w" horiz-adv-x="1597" 
d="M41 1044h225l174 -849h31l174 849h307l174 -849h31l174 849h225l-225 -1044h-368l-154 799h-21l-153 -799h-369z" />
    <glyph glyph-name="x" unicode="x" horiz-adv-x="1054" 
d="M10 0l318 522l-308 522h246l236 -419h51l235 419h246l-307 -522l317 -522h-245l-246 430h-51l-246 -430h-246z" />
    <glyph glyph-name="y" unicode="y" horiz-adv-x="1044" 
d="M20 1044h226l225 -839h113l245 839h226l-430 -1433h-226l123 389h-215z" />
    <glyph glyph-name="z" unicode="z" horiz-adv-x="952" 
d="M41 0v195l563 634v21h-543v194h830v-194l-563 -635v-20h583v-195h-870z" />
    <glyph glyph-name="braceleft" unicode="{" horiz-adv-x="737" 
d="M61 502v194h72q38 0 65 27t27 65v400q0 297 318 297h153v-205h-123q-60 0 -91 -27.5t-31 -74.5v-390q0 -46 -15 -82t-36 -54t-42 -30t-36 -15l-15 -3v-10q6 -1 15.5 -3t34.5 -14.5t44 -30.5t34.5 -54t15.5 -82v-400q0 -47 31 -74.5t91 -27.5h123v-205h-153
q-318 0 -318 297v410q0 38 -27 65t-65 27h-72z" />
    <glyph glyph-name="bar" unicode="|" horiz-adv-x="716" 
d="M246 -205v1741h225v-1741h-225z" />
    <glyph glyph-name="braceright" unicode="}" horiz-adv-x="737" 
d="M41 -297v205h123q60 0 91.5 27.5t31.5 74.5v400q0 46 14.5 82t35.5 54t42.5 30t36.5 15l14 3v10q-6 1 -15.5 3t-34 14.5t-43.5 30.5t-34.5 54t-15.5 82v390q0 47 -31.5 74.5t-91.5 27.5h-123v205h154q317 0 317 -297v-400q0 -38 27 -65t65 -27h72v-194h-72q-38 0 -65 -27
t-27 -65v-410q0 -297 -317 -297h-154z" />
    <glyph glyph-name="asciitilde" unicode="~" horiz-adv-x="1085" 
d="M102 502v30q0 129 64.5 198t181.5 69q66 0 123.5 -17.5t89.5 -39t68.5 -39t66.5 -17.5q37 0 59.5 20.5t22.5 51.5v30h205v-30q0 -129 -64.5 -197.5t-181.5 -68.5q-66 0 -123.5 17.5t-89.5 38.5t-68.5 38.5t-66.5 17.5q-37 0 -59.5 -20.5t-22.5 -51.5v-30h-205z" />
    <glyph glyph-name="nbspace" unicode="&#xa0;" horiz-adv-x="573" 
 />
    <glyph glyph-name="exclamdown" unicode="&#xa1;" horiz-adv-x="573" 
d="M143 922q0 61 41 102t103 41q61 0 102 -40.5t41 -102.5t-41 -103t-102 -41t-102.5 41t-41.5 103zM174 -389v696l41 297h143l41 -297v-696h-225z" />
    <glyph glyph-name="cent" unicode="&#xa2;" 
d="M61 522q0 200 113 347.5t297 185.5v174h215v-174q67 -10 125 -36t97.5 -59.5t72 -71t51 -73.5t31.5 -65t17 -46l5 -18h-225q-2 7 -7 19.5t-26 44.5t-48.5 56t-79.5 44t-115 20q-127 0 -212 -95.5t-85 -252.5t85 -252.5t212 -95.5q66 0 120 19t83.5 46t49.5 54t27 46l6 19
h215q-1 -7 -4.5 -18.5t-17.5 -45.5t-32 -65.5t-50.5 -72t-71.5 -72t-97.5 -58t-125.5 -36.5v-174h-215v174q-180 39 -295 184t-115 348z" />
    <glyph glyph-name="sterling" unicode="&#xa3;" horiz-adv-x="1146" 
d="M31 0v225h41q71 0 112 47.5t41 137.5v245h-153v226h153v184q0 200 117 315t322 115q84 0 153.5 -20.5t113 -53t76.5 -72t49 -78.5t26 -71.5t12 -53.5l2 -20h-236q0 6 -2 15.5t-13.5 34.5t-30.5 44t-57.5 34.5t-90.5 15.5q-100 0 -152.5 -52.5t-52.5 -152.5v-184h317v-226
h-317v-245q0 -34 -9.5 -65t-23 -50t-27 -33t-23.5 -20l-9 -6v-11h757v-225h-1095z" />
    <glyph glyph-name="currency" unicode="&#xa4;" horiz-adv-x="1351" 
d="M61 174v205h154v153h-154v216h154v686h522q261 0 407 -126t146 -325t-146 -325t-407 -126h-286v-153h491v-205h-491v-174h-236v174h-154zM451 748h286q156 0 231.5 62t75.5 173q0 112 -75.5 174t-231.5 62h-286v-471z" />
    <glyph glyph-name="yen" unicode="&#xa5;" horiz-adv-x="1351" 
d="M10 1434h277l379 -553h30l379 553h277l-553 -799h286v-174h-286v-133h286v-174h-286v-154h-236v154h-287v174h287v133h-287v174h287z" />
    <glyph glyph-name="brokenbar" unicode="&#xa6;" horiz-adv-x="716" 
d="M246 788v748h225v-748h-225zM246 -205v748h225v-748h-225z" />
    <glyph glyph-name="section" unicode="&#xa7;" horiz-adv-x="1095" 
d="M61 276h226q2 -5 6.5 -13t23.5 -29t44 -37.5t70.5 -29.5t100.5 -13q236 0 236 112q0 33 -38 59t-98.5 45.5t-133.5 39.5t-146 47.5t-133.5 62t-98.5 90.5t-38 127q0 46 17 86t41 64.5t48 42.5t41 26l17 7v10q-5 3 -14 8t-32 23t-40.5 40t-32 58t-14.5 76
q0 124 114.5 210.5t325.5 86.5q81 0 152 -17t118.5 -44t86 -60t61 -66t37.5 -60t20 -44l6 -17h-225q-2 5 -6.5 12.5t-24 27t-44.5 34.5t-70.5 27t-100.5 12q-225 0 -225 -113q0 -33 38 -59t98.5 -45.5t133.5 -39.5t146 -47.5t133.5 -62t98.5 -90.5t38 -127q0 -46 -17 -86
t-41 -64.5t-48 -42t-41 -25.5l-17 -7v-10q5 -3 14 -8t32 -23t40.5 -40t32 -58t14.5 -76q0 -125 -116 -211t-334 -86q-84 0 -155.5 17.5t-119.5 45.5t-86.5 61.5t-60 67.5t-36 62t-19.5 45zM307 758q0 -33 22 -58.5t66.5 -45t87.5 -33t112 -33.5t112 -35q4 1 10 4t22 13
t28 23t22 35t10 48q0 32 -22 57.5t-67 45t-88 33.5t-111.5 34t-111.5 35q-4 -1 -10 -4t-22 -13t-28 -23t-22 -35t-10 -48z" />
    <glyph glyph-name="dieresis" unicode="&#xa8;" horiz-adv-x="747" 
d="M440 1321q0 54 34.5 88.5t88.5 34.5t88.5 -34.5t34.5 -88.5t-34.5 -88.5t-88.5 -34.5t-88.5 34.5t-34.5 88.5zM61 1321q0 54 34.5 88.5t88.5 34.5t88.5 -34.5t34.5 -88.5t-34.5 -88.5t-88.5 -34.5t-88.5 34.5t-34.5 88.5z" />
    <glyph glyph-name="copyright" unicode="&#xa9;" horiz-adv-x="1740" 
d="M82 717q0 155 60 295t164 242t251 161.5t313 59.5t313 -59.5t251 -161.5t164.5 -242t60.5 -295t-60.5 -295t-164.5 -242t-251 -161.5t-313 -59.5t-313 59.5t-251 161.5t-164 242t-60 295zM276 717q0 -254 167 -419t427 -165t427 165t167 419t-167 418.5t-427 164.5
t-427 -164.5t-167 -418.5zM502 717q0 161 109 270t270 109q61 0 114 -16t89 -41t66 -56t48 -61.5t30 -55.5t16 -41l5 -16h-215l-5 10t-16 22t-29 28t-43.5 22t-59.5 10q-77 0 -125.5 -50t-48.5 -134t48.5 -134.5t125.5 -50.5q34 0 62.5 9.5t44.5 23t27 27.5t15 24l4 9h215
q-3 -12 -9.5 -31t-35 -68.5t-65.5 -87.5t-106 -69t-152 -31q-161 0 -270 109t-109 270z" />
    <glyph glyph-name="ordfeminine" unicode="&#xaa;" horiz-adv-x="747" 
d="M72 952q0 95 62.5 150t182.5 55h185v41q0 54 -29.5 83.5t-83.5 29.5q-29 0 -52 -7.5t-35.5 -18t-21 -21t-11.5 -18.5l-3 -7h-176q1 4 4 12t14 30.5t25 42.5t39 45t54.5 43t72 30t90.5 12q136 0 211.5 -69.5t75.5 -186.5v-430h-174v92h-10q-2 -4 -6.5 -11t-21 -24.5
t-37 -31t-55.5 -24.5t-75 -11q-105 0 -165 53.5t-60 140.5zM256 952q0 -32 24 -51.5t68 -19.5q63 0 108.5 43t45.5 110h-154q-45 0 -68.5 -21.5t-23.5 -60.5z" />
    <glyph glyph-name="guillemotleft" unicode="&#xab;" horiz-adv-x="1167" 
d="M522 522l441 512l133 -133l-328 -379l328 -379l-133 -133zM51 522l441 512l133 -133l-328 -379l328 -379l-133 -133z" />
    <glyph glyph-name="logicalnot" unicode="&#xac;" horiz-adv-x="1064" 
d="M123 532v195h809v-408h-215v213h-594z" />
    <glyph glyph-name="uni00AD" unicode="&#xad;" horiz-adv-x="993" 
d="M123 461v205h747v-205h-747z" />
    <glyph glyph-name="registered" unicode="&#xae;" horiz-adv-x="1249" 
d="M72 942q0 230 157.5 381.5t395.5 151.5t395.5 -151.5t157.5 -381.5t-157.5 -381t-395.5 -151t-395.5 151t-157.5 381zM225 942q0 -176 111 -282.5t289 -106.5t288.5 106.5t110.5 282.5t-110.5 282.5t-288.5 106.5t-289 -106.5t-111 -282.5zM410 707v501h235
q118 0 177 -47t59 -127q0 -37 -11.5 -67.5t-28 -48t-33.5 -29t-28 -15.5l-12 -4l123 -163h-174l-103 133h-51v-133h-153zM563 973h82q72 0 72 51t-72 51h-82v-102z" />
    <glyph glyph-name="macron" unicode="&#xaf;" horiz-adv-x="696" 
d="M61 1260v174h574v-174h-574z" />
    <glyph glyph-name="degree" unicode="&#xb0;" horiz-adv-x="675" 
d="M61 1167q0 108 81 187.5t196 79.5q114 0 195 -79.5t81 -187.5t-80.5 -187t-195.5 -79t-196 79t-81 187zM225 1167q0 -46 33.5 -79t79.5 -33q48 0 80.5 30t32.5 82t-32.5 82.5t-80.5 30.5t-80.5 -30.5t-32.5 -82.5z" />
    <glyph glyph-name="plusminus" unicode="&#xb1;" horiz-adv-x="1095" 
d="M133 0v195h318v286h-318v195h318v317h194v-317h318v-195h-318v-286h318v-195h-830z" />
    <glyph glyph-name="twosuperior" unicode="&#xb2;" horiz-adv-x="737" 
d="M72 942v154l164 102q144 90 189.5 130.5t45.5 84.5q0 40 -30.5 66t-82.5 26q-45 0 -75.5 -23t-38.5 -46l-8 -23h-164q1 5 2.5 14t10 34.5t20.5 48.5t35.5 51.5t53 49t75.5 34.5t100 14q134 0 210 -66t76 -166q0 -153 -204 -270l-72 -41l-82 -20v-11l82 11h287v-154h-594z
" />
    <glyph glyph-name="threesuperior" unicode="&#xb3;" horiz-adv-x="716" 
d="M61 1147h175q1 -3 3 -8t11 -17t21 -21.5t35 -17.5t52 -8q55 0 84 23t29 59t-31 59t-92 23h-143v133l194 123v10l-82 -10h-215v143h512v-133l-143 -112l-82 -31v-10q31 10 62 10q85 0 144.5 -60t59.5 -145q0 -96 -80 -165.5t-206 -69.5q-54 0 -100.5 12.5t-77 32.5
t-55 43.5t-38 47.5t-22.5 44t-12 32z" />
    <glyph glyph-name="acute" unicode="&#xb4;" horiz-adv-x="542" 
d="M61 1126l164 297h256v-2l-235 -295h-185z" />
    <glyph glyph-name="mu" unicode="&#xb5;" horiz-adv-x="1208" 
d="M123 -410v1454h215v-604q0 -137 61 -201.5t185 -64.5t205 85t81 222v563h215v-1044h-215v143h-10q-4 -7 -11.5 -18t-35 -39t-59.5 -49.5t-86.5 -39t-114.5 -17.5q-37 0 -73 8.5t-60.5 20t-44 23.5t-28.5 20l-9 9h-10l10 -122v-349h-215z" />
    <glyph glyph-name="paragraph" unicode="&#xb6;" horiz-adv-x="911" 
d="M61 1034q0 107 55.5 198.5t154.5 146.5t218 55h381v-205h-184v-1618h-225v1024q-161 0 -280.5 119t-119.5 280z" />
    <glyph glyph-name="periodcentered" unicode="&#xb7;" horiz-adv-x="573" 
d="M143 563q0 61 41.5 102.5t102.5 41.5t102 -41t41 -103q0 -61 -41 -102t-102 -41q-62 0 -103 41t-41 102z" />
    <glyph glyph-name="cedilla" unicode="&#xb8;" horiz-adv-x="522" 
d="M61 -461v133q66 -41 154 -41q52 0 77 19.5t25 52.5t-25 52.5t-77 19.5h-82l92 245h123l-51 -133q7 0 18 -2t39 -13t50 -28.5t39.5 -54t17.5 -84.5q0 -88 -65.5 -147.5t-170.5 -59.5q-45 0 -86 10t-59 20z" />
    <glyph glyph-name="onesuperior" unicode="&#xb9;" horiz-adv-x="716" 
d="M113 942v154h194v358l-174 -102v184l184 102h164v-542h185v-154h-553z" />
    <glyph glyph-name="ordmasculine" unicode="&#xba;" horiz-adv-x="819" 
d="M51 1106q0 147 103 247.5t256 100.5q159 0 258.5 -99.5t99.5 -248.5q0 -147 -102.5 -247.5t-255.5 -100.5t-256 100.5t-103 247.5zM236 1106q0 -84 48.5 -134t125.5 -50t125.5 50t48.5 134t-48.5 134t-125.5 50t-125.5 -50t-48.5 -134z" />
    <glyph glyph-name="guillemotright" unicode="&#xbb;" horiz-adv-x="1167" 
d="M543 143l327 379l-327 379l133 133l440 -512l-440 -512zM72 143l327 379l-327 379l133 133l440 -512l-440 -512z" />
    <glyph glyph-name="onequarter" unicode="&#xbc;" horiz-adv-x="1568" 
d="M82 737v154h194v358l-174 -102v184l185 103h164v-543h184v-154h-553zM299 0l870 1434h205l-870 -1434h-205zM893 133v154l256 409h194l-256 -409h144v123h174v-123h102v-154h-102v-133h-174v133h-338z" />
    <glyph glyph-name="onehalf" unicode="&#xbd;" horiz-adv-x="1650" 
d="M82 737v154h194v358l-174 -102v184l185 103h164v-543h184v-154h-553zM299 0l870 1434h205l-870 -1434h-205zM965 0v154l163 102q145 90 190.5 130.5t45.5 84.5q0 40 -30.5 66t-82.5 26q-29 0 -52 -9.5t-35.5 -23t-21 -27t-11.5 -23.5l-3 -9h-163q1 5 2.5 14t10 34.5
t20.5 48.5t35.5 51.5t53 49t75.5 34.5t100 14q134 0 210 -66t76 -166q0 -152 -205 -270l-71 -41l-82 -20v-11l82 11h287v-154h-594z" />
    <glyph glyph-name="threequarters" unicode="&#xbe;" horiz-adv-x="1538" 
d="M51 942h174q1 -3 3 -8t11 -17t21.5 -21.5t35.5 -17.5t52 -8q55 0 84 23t29 59t-31 59t-92 23h-143v133l194 123v10l-82 -10h-215v144h512v-134l-143 -112l-82 -31v-10q30 10 61 10q85 0 145 -60t60 -145q0 -96 -80.5 -165.5t-206.5 -69.5q-54 0 -100.5 12.5t-77 32.5
t-55 44t-38 47.5t-22 43.5t-11.5 33zM268 0l871 1434h204l-870 -1434h-205zM862 133v154l256 409h195l-256 -409h143v123h174v-123h103v-154h-103v-133h-174v133h-338z" />
    <glyph glyph-name="questiondown" unicode="&#xbf;" horiz-adv-x="1054" 
d="M410 922q0 62 41 102.5t102 40.5t102 -40.5t41 -102.5t-41 -103t-102 -41t-102 41t-41 103zM20 -10q0 64 18 117.5t47.5 89.5t67.5 69t77 57.5t77 54.5t67.5 59.5t47.5 72.5t18 94h226q0 -79 -22 -142.5t-57.5 -105t-78 -76t-85 -64t-78 -60t-57.5 -72.5t-22 -94
q0 -88 68.5 -146.5t187.5 -58.5q48 0 90 12.5t70.5 32.5t51.5 44t36.5 47.5t22.5 43.5t13 33l3 12h235q-2 -9 -5.5 -25t-19.5 -61.5t-38 -87t-64 -92.5t-94 -87.5t-130.5 -61.5t-170.5 -25q-108 0 -203 35.5t-160 94t-102 134.5t-37 156z" />
    <glyph glyph-name="Agrave" unicode="&#xc0;" horiz-adv-x="1392" 
d="M31 0l368 1434h584l379 -1434h-246l-98 369h-660l-92 -369h-235zM420 594h541l-162 614h-226zM369 1915h256l163 -297h-184l-235 295v2z" />
    <glyph glyph-name="Aacute" unicode="&#xc1;" horiz-adv-x="1392" 
d="M31 0l368 1434h584l379 -1434h-246l-98 369h-660l-92 -369h-235zM420 594h541l-162 614h-226zM594 1618l164 297h256v-2l-236 -295h-184z" />
    <glyph glyph-name="Acircumflex" unicode="&#xc2;" horiz-adv-x="1392" 
d="M31 0l368 1434h584l379 -1434h-246l-98 369h-660l-92 -369h-235zM420 594h541l-162 614h-226zM348 1620l236 295h215l235 -295v-2h-194l-133 174h-31l-133 -174h-195v2z" />
    <glyph glyph-name="Atilde" unicode="&#xc3;" horiz-adv-x="1392" 
d="M31 0l368 1434h584l379 -1434h-246l-98 369h-660l-92 -369h-235zM420 594h541l-162 614h-226zM338 1628v62q0 85 56.5 139.5t148.5 54.5q48 0 90 -17.5t66 -38.5t53.5 -38.5t56.5 -17.5q23 0 37 14t14 37v51h154v-62q0 -85 -56.5 -139.5t-148.5 -54.5q-48 0 -90 17.5
t-66 39t-53.5 39t-56.5 17.5q-23 0 -37 -14.5t-14 -37.5v-51h-154z" />
    <glyph glyph-name="Adieresis" unicode="&#xc4;" horiz-adv-x="1392" 
d="M31 0l368 1434h584l379 -1434h-246l-98 369h-660l-92 -369h-235zM420 594h541l-162 614h-226zM758 1751q0 54 34.5 88.5t88.5 34.5t88.5 -34.5t34.5 -88.5t-34.5 -88.5t-88.5 -34.5t-88.5 34.5t-34.5 88.5zM379 1751q0 54 34.5 88.5t88.5 34.5t88.5 -34.5t34.5 -88.5
t-34.5 -88.5t-88.5 -34.5t-88.5 34.5t-34.5 88.5z" />
    <glyph glyph-name="Aring" unicode="&#xc5;" horiz-adv-x="1392" 
d="M31 0l368 1434h584l379 -1434h-246l-98 369h-660l-92 -369h-235zM420 594h541l-162 614h-226zM465 1772q0 93 63 154t162 61q93 0 159 -62t66 -153t-66 -153.5t-159 -62.5q-99 0 -162 61.5t-63 154.5zM578 1772q0 -50 31.5 -81.5t80.5 -31.5q50 0 81.5 31.5t31.5 81.5
q0 49 -31.5 80.5t-81.5 31.5t-81 -31t-31 -81z" />
    <glyph glyph-name="AE" unicode="&#xc6;" horiz-adv-x="2048" 
d="M31 0l368 1434h1577v-226h-778v-368h625v-226h-625v-389h778v-225h-1013v369h-605l-92 -369h-235zM420 594h543v614h-390z" />
    <glyph glyph-name="Ccedilla" unicode="&#xc7;" horiz-adv-x="1648" 
d="M82 717q0 216 102 390t277.5 271t388.5 97q95 0 180.5 -18t149.5 -48t119.5 -69.5t94 -82.5t70 -86.5t50 -83t31 -69.5t17.5 -48l5 -18h-236q-2 6 -7 17t-24 41.5t-42 58.5t-63.5 62.5t-87.5 59t-114.5 41.5t-142.5 17q-231 0 -376.5 -147.5t-145.5 -384.5t145.5 -385
t376.5 -148q77 0 146 18t117.5 47t88.5 64t65 70t42.5 64t24.5 47l7 18h236q-3 -11 -10 -30.5t-33 -75t-59 -106.5t-91 -114t-125 -109.5t-164.5 -80t-207.5 -37.5l-27 -72q7 0 18 -2t39 -13t50 -28.5t39.5 -54t17.5 -84.5q0 -88 -65.5 -147.5t-170.5 -59.5q-45 0 -86 10
t-59 20l-18 11v133q65 -41 153 -41q52 0 77.5 19.5t25.5 52.5t-25.5 52.5t-77.5 19.5h-82l72 188q-145 14 -271.5 76.5t-218 160.5t-144 232t-52.5 285z" />
    <glyph glyph-name="Egrave" unicode="&#xc8;" horiz-adv-x="1249" 
d="M143 0v1434h1035v-226h-799v-368h645v-226h-645v-389h799v-225h-1035zM356 1915h256l164 -297h-184l-236 295v2z" />
    <glyph glyph-name="Eacute" unicode="&#xc9;" horiz-adv-x="1249" 
d="M143 0v1434h1035v-226h-799v-368h645v-226h-645v-389h799v-225h-1035zM553 1618l164 297h256v-2l-236 -295h-184z" />
    <glyph glyph-name="Ecircumflex" unicode="&#xca;" horiz-adv-x="1249" 
d="M143 0v1434h1035v-226h-799v-368h645v-226h-645v-389h799v-225h-1035zM328 1620l235 295h215l236 -295v-2h-195l-133 174h-31l-133 -174h-194v2z" />
    <glyph glyph-name="Edieresis" unicode="&#xcb;" horiz-adv-x="1249" 
d="M143 0v1434h1035v-226h-799v-368h645v-226h-645v-389h799v-225h-1035zM737 1751q0 54 34.5 88.5t88.5 34.5t88.5 -34.5t34.5 -88.5t-34.5 -88.5t-88.5 -34.5t-88.5 34.5t-34.5 88.5zM358 1751q0 54 34.5 88.5t88.5 34.5t88.5 -34.5t34.5 -88.5t-34.5 -88.5t-88.5 -34.5
t-88.5 34.5t-34.5 88.5z" />
    <glyph glyph-name="Igrave" unicode="&#xcc;" horiz-adv-x="522" 
d="M143 0v1434h236v-1434h-236zM-72 1915h256l164 -297h-184l-236 295v2z" />
    <glyph glyph-name="Iacute" unicode="&#xcd;" horiz-adv-x="522" 
d="M143 0v1434h236v-1434h-236zM174 1618l164 297h256v-2l-236 -295h-184z" />
    <glyph glyph-name="Icircumflex" unicode="&#xce;" horiz-adv-x="522" 
d="M143 0v1434h236v-1434h-236zM-82 1620l236 295h215l235 -295v-2h-194l-134 174h-30l-133 -174h-195v2z" />
    <glyph glyph-name="Idieresis" unicode="&#xcf;" horiz-adv-x="522" 
d="M143 0v1434h236v-1434h-236zM328 1751q0 54 34.5 88.5t88.5 34.5t88 -34.5t34 -88.5t-34 -88.5t-88 -34.5t-88.5 34.5t-34.5 88.5zM-51 1751q0 54 34.5 88.5t88.5 34.5t88.5 -34.5t34.5 -88.5t-34.5 -88.5t-88.5 -34.5t-88.5 34.5t-34.5 88.5z" />
    <glyph glyph-name="Eth" unicode="&#xd0;" horiz-adv-x="1505" 
d="M31 604v225h143v605h481q221 0 397.5 -96t273.5 -259.5t97 -361.5t-97 -361.5t-273.5 -259.5t-397.5 -96h-481v604h-143zM410 225h245q236 0 379.5 137.5t143.5 354.5t-143.5 354t-379.5 137h-245v-379h338v-225h-338v-379z" />
    <glyph glyph-name="Ntilde" unicode="&#xd1;" horiz-adv-x="1484" 
d="M143 0v1434h338l625 -1137h20l-20 174v963h235v-1434h-337l-625 1137h-21l21 -174v-963h-236zM410 1628v62q0 85 56 139.5t148 54.5q48 0 90 -17.5t66.5 -38.5t54 -38.5t56.5 -17.5q23 0 37 14t14 37v51h153v-62q0 -85 -56 -139.5t-148 -54.5q-48 0 -90 17.5t-66.5 39
t-54 39t-56.5 17.5q-23 0 -37 -14.5t-14 -37.5v-51h-153z" />
    <glyph glyph-name="Ograve" unicode="&#xd2;" horiz-adv-x="1699" 
d="M82 717q0 159 58.5 299.5t160 241t244.5 159t305 58.5t305 -58.5t244.5 -159t160 -241t58.5 -299.5t-58.5 -299.5t-160 -241t-244.5 -159t-305 -58.5t-305 58.5t-244.5 159t-160 241t-58.5 299.5zM328 717q0 -237 145.5 -385t376.5 -148t376.5 148t145.5 385
t-145.5 384.5t-376.5 147.5t-376.5 -147.5t-145.5 -384.5zM528 1915h256l164 -297h-184l-236 295v2z" />
    <glyph glyph-name="Oacute" unicode="&#xd3;" horiz-adv-x="1699" 
d="M82 717q0 159 58.5 299.5t160 241t244.5 159t305 58.5t305 -58.5t244.5 -159t160 -241t58.5 -299.5t-58.5 -299.5t-160 -241t-244.5 -159t-305 -58.5t-305 58.5t-244.5 159t-160 241t-58.5 299.5zM328 717q0 -237 145.5 -385t376.5 -148t376.5 148t145.5 385
t-145.5 384.5t-376.5 147.5t-376.5 -147.5t-145.5 -384.5zM764 1618l164 297h256v-2l-236 -295h-184z" />
    <glyph glyph-name="Ocircumflex" unicode="&#xd4;" horiz-adv-x="1699" 
d="M82 717q0 159 58.5 299.5t160 241t244.5 159t305 58.5t305 -58.5t244.5 -159t160 -241t58.5 -299.5t-58.5 -299.5t-160 -241t-244.5 -159t-305 -58.5t-305 58.5t-244.5 159t-160 241t-58.5 299.5zM328 717q0 -237 145.5 -385t376.5 -148t376.5 148t145.5 385
t-145.5 384.5t-376.5 147.5t-376.5 -147.5t-145.5 -384.5zM508 1620l235 295h215l236 -295v-2h-195l-133 174h-30l-134 -174h-194v2z" />
    <glyph glyph-name="Otilde" unicode="&#xd5;" horiz-adv-x="1699" 
d="M82 717q0 159 58.5 299.5t160 241t244.5 159t305 58.5t305 -58.5t244.5 -159t160 -241t58.5 -299.5t-58.5 -299.5t-160 -241t-244.5 -159t-305 -58.5t-305 58.5t-244.5 159t-160 241t-58.5 299.5zM328 717q0 -237 145.5 -385t376.5 -148t376.5 148t145.5 385
t-145.5 384.5t-376.5 147.5t-376.5 -147.5t-145.5 -384.5zM510 1628v62q0 85 56.5 139.5t148.5 54.5q48 0 90 -17.5t66 -38.5t53.5 -38.5t56.5 -17.5q23 0 37 14t14 37v51h154v-62q0 -85 -56.5 -139.5t-148.5 -54.5q-48 0 -90 17.5t-66 39t-53.5 39t-56.5 17.5
q-23 0 -37 -14.5t-14 -37.5v-51h-154z" />
    <glyph glyph-name="Odieresis" unicode="&#xd6;" horiz-adv-x="1699" 
d="M82 717q0 159 58.5 299.5t160 241t244.5 159t305 58.5t305 -58.5t244.5 -159t160 -241t58.5 -299.5t-58.5 -299.5t-160 -241t-244.5 -159t-305 -58.5t-305 58.5t-244.5 159t-160 241t-58.5 299.5zM328 717q0 -237 145.5 -385t376.5 -148t376.5 148t145.5 385
t-145.5 384.5t-376.5 147.5t-376.5 -147.5t-145.5 -384.5zM918 1751q0 54 34 88.5t88 34.5t88.5 -34.5t34.5 -88.5t-34.5 -88.5t-88.5 -34.5t-88 34.5t-34 88.5zM539 1751q0 54 34.5 88.5t88.5 34.5t88 -34.5t34 -88.5t-34 -88.5t-88 -34.5t-88.5 34.5t-34.5 88.5z" />
    <glyph glyph-name="multiply" unicode="&#xd7;" horiz-adv-x="1040" 
d="M143 387l240 240l-240 239l138 138l239 -240l238 240l139 -138l-240 -239l240 -240l-139 -137l-238 239l-239 -239z" />
    <glyph glyph-name="Oslash" unicode="&#xd8;" horiz-adv-x="1699" 
d="M20 -10v215l164 123q-4 6 -11 18t-24.5 51t-31 81.5t-24.5 107.5t-11 131q0 159 58.5 299.5t160 241t244.5 159t305 58.5q103 0 199 -24t159 -58t111 -68t70 -58l22 -24l268 201v-215l-163 -123q4 -6 11 -18t24.5 -51t31 -81.5t24.5 -107.5t11 -131q0 -159 -58.5 -299.5
t-160 -241t-244.5 -159t-305 -58.5q-75 0 -147 12.5t-126 33t-102.5 45t-81.5 49.5t-57 45.5t-36 33.5l-11 12zM328 717q0 -68 13 -129.5t25 -89.5l13 -27l846 633q-5 6 -15.5 15.5t-46 34.5t-75.5 44.5t-104.5 35t-133.5 15.5q-231 0 -376.5 -147.5t-145.5 -384.5zM475 330
q5 -6 15.5 -16t46 -35t75.5 -44t104.5 -35t133.5 -16q231 0 376.5 148t145.5 385q0 68 -13 129.5t-25 89.5l-13 27z" />
    <glyph glyph-name="Ugrave" unicode="&#xd9;" horiz-adv-x="1433" 
d="M133 553v881h236v-881q0 -176 92.5 -272.5t255.5 -96.5t255.5 96.5t92.5 272.5v881h235v-881q0 -276 -157 -435t-426 -159t-426.5 159t-157.5 435zM389 1915h256l164 -297h-184l-236 295v2z" />
    <glyph glyph-name="Uacute" unicode="&#xda;" horiz-adv-x="1433" 
d="M133 553v881h236v-881q0 -176 92.5 -272.5t255.5 -96.5t255.5 96.5t92.5 272.5v881h235v-881q0 -276 -157 -435t-426 -159t-426.5 159t-157.5 435zM614 1618l164 297h256v-2l-235 -295h-185z" />
    <glyph glyph-name="Ucircumflex" unicode="&#xdb;" horiz-adv-x="1433" 
d="M133 553v881h236v-881q0 -176 92.5 -272.5t255.5 -96.5t255.5 96.5t92.5 272.5v881h235v-881q0 -276 -157 -435t-426 -159t-426.5 159t-157.5 435zM375 1620l235 295h215l236 -295v-2h-195l-133 174h-31l-133 -174h-194v2z" />
    <glyph glyph-name="Udieresis" unicode="&#xdc;" horiz-adv-x="1433" 
d="M133 553v881h236v-881q0 -176 92.5 -272.5t255.5 -96.5t255.5 96.5t92.5 272.5v881h235v-881q0 -276 -157 -435t-426 -159t-426.5 159t-157.5 435zM784 1751q0 54 34.5 88.5t88.5 34.5t88.5 -34.5t34.5 -88.5t-34.5 -88.5t-88.5 -34.5t-88.5 34.5t-34.5 88.5zM406 1751
q0 54 34 88.5t88 34.5t88.5 -34.5t34.5 -88.5t-34.5 -88.5t-88.5 -34.5t-88 34.5t-34 88.5z" />
    <glyph glyph-name="Yacute" unicode="&#xdd;" horiz-adv-x="1341" 
d="M0 1434h276l379 -635h31l379 635h276l-553 -902v-532h-235v532zM584 1618l164 297h256v-2l-236 -295h-184z" />
    <glyph glyph-name="Thorn" unicode="&#xde;" horiz-adv-x="1454" 
d="M143 0v1434h236v-256h481q247 0 390 -127t143 -324t-143 -324t-390 -127h-481v-276h-236zM379 502h481q142 0 214.5 60.5t72.5 164.5t-72.5 164.5t-214.5 60.5h-481v-450z" />
    <glyph glyph-name="germandbls" unicode="&#xdf;" horiz-adv-x="1167" 
d="M123 0v1096q0 157 121 268t309 111q187 0 308.5 -109t121.5 -260q0 -69 -21 -126t-51 -89t-60.5 -54t-51.5 -30l-21 -8v-21q7 -1 18.5 -2.5t46 -11.5t65.5 -24.5t68.5 -43t65 -65.5t46 -94.5t18.5 -126.5q0 -181 -126.5 -295.5t-344.5 -114.5h-133v195h133
q115 0 180.5 63.5t65.5 171.5q0 96 -74.5 160.5t-181.5 64.5h-123v195q104 0 180 65.5t76 169.5q0 85 -56.5 140t-148.5 55q-93 0 -154 -63t-61 -162v-1055h-215z" />
    <glyph glyph-name="agrave" unicode="&#xe0;" horiz-adv-x="1228" 
d="M61 522q0 242 140.5 392.5t351.5 150.5q60 0 116 -16t93 -38.5t65 -45t41 -38.5l13 -16h10v133h215v-1044h-215v143h-10q-5 -7 -13.5 -18t-40 -39t-66.5 -49.5t-91.5 -39t-116.5 -17.5q-138 0 -249.5 66.5t-177 191t-65.5 284.5zM287 522q0 -166 83 -257t224 -91
q134 0 215.5 91.5t81.5 256.5t-81.5 256.5t-215.5 91.5q-141 0 -224 -91t-83 -257zM276 1546h256l164 -297h-184l-236 295v2z" />
    <glyph glyph-name="aacute" unicode="&#xe1;" horiz-adv-x="1228" 
d="M61 522q0 242 140.5 392.5t351.5 150.5q60 0 116 -16t93 -38.5t65 -45t41 -38.5l13 -16h10v133h215v-1044h-215v143h-10q-5 -7 -13.5 -18t-40 -39t-66.5 -49.5t-91.5 -39t-116.5 -17.5q-138 0 -249.5 66.5t-177 191t-65.5 284.5zM287 522q0 -166 83 -257t224 -91
q134 0 215.5 91.5t81.5 256.5t-81.5 256.5t-215.5 91.5q-141 0 -224 -91t-83 -257zM461 1249l164 297h256v-2l-236 -295h-184z" />
    <glyph glyph-name="acircumflex" unicode="&#xe2;" horiz-adv-x="1228" 
d="M61 522q0 242 140.5 392.5t351.5 150.5q60 0 116 -16t93 -38.5t65 -45t41 -38.5l13 -16h10v133h215v-1044h-215v143h-10q-5 -7 -13.5 -18t-40 -39t-66.5 -49.5t-91.5 -39t-116.5 -17.5q-138 0 -249.5 66.5t-177 191t-65.5 284.5zM287 522q0 -166 83 -257t224 -91
q134 0 215.5 91.5t81.5 256.5t-81.5 256.5t-215.5 91.5q-141 0 -224 -91t-83 -257zM252 1251l235 295h215l236 -295v-2h-195l-133 174h-30l-134 -174h-194v2z" />
    <glyph glyph-name="atilde" unicode="&#xe3;" horiz-adv-x="1228" 
d="M61 522q0 242 140.5 392.5t351.5 150.5q60 0 116 -16t93 -38.5t65 -45t41 -38.5l13 -16h10v133h215v-1044h-215v143h-10q-5 -7 -13.5 -18t-40 -39t-66.5 -49.5t-91.5 -39t-116.5 -17.5q-138 0 -249.5 66.5t-177 191t-65.5 284.5zM287 522q0 -166 83 -257t224 -91
q134 0 215.5 91.5t81.5 256.5t-81.5 256.5t-215.5 91.5q-141 0 -224 -91t-83 -257zM246 1260v61q0 85 56.5 140t148.5 55q48 0 90 -17.5t66 -39t53.5 -39t56.5 -17.5q23 0 37 14t14 37v51h154v-61q0 -85 -56.5 -140t-148.5 -55q-48 0 -90 17.5t-66 39t-53.5 39t-56.5 17.5
q-23 0 -37.5 -14t-14.5 -37v-51h-153z" />
    <glyph glyph-name="adieresis" unicode="&#xe4;" horiz-adv-x="1228" 
d="M61 522q0 242 140.5 392.5t351.5 150.5q60 0 116 -16t93 -38.5t65 -45t41 -38.5l13 -16h10v133h215v-1044h-215v143h-10q-5 -7 -13.5 -18t-40 -39t-66.5 -49.5t-91.5 -39t-116.5 -17.5q-138 0 -249.5 66.5t-177 191t-65.5 284.5zM287 522q0 -166 83 -257t224 -91
q134 0 215.5 91.5t81.5 256.5t-81.5 256.5t-215.5 91.5q-141 0 -224 -91t-83 -257zM666 1382q0 54 34 88.5t88 34.5t88.5 -34.5t34.5 -88.5t-34.5 -88t-88.5 -34t-88 34t-34 88zM287 1382q0 54 34.5 88.5t88.5 34.5t88 -34.5t34 -88.5t-34 -88t-88 -34t-88.5 34t-34.5 88z
" />
    <glyph glyph-name="aring" unicode="&#xe5;" horiz-adv-x="1228" 
d="M61 522q0 242 140.5 392.5t351.5 150.5q60 0 116 -16t93 -38.5t65 -45t41 -38.5l13 -16h10v133h215v-1044h-215v143h-10q-5 -7 -13.5 -18t-40 -39t-66.5 -49.5t-91.5 -39t-116.5 -17.5q-138 0 -249.5 66.5t-177 191t-65.5 284.5zM287 522q0 -166 83 -257t224 -91
q134 0 215.5 91.5t81.5 256.5t-81.5 256.5t-215.5 91.5q-141 0 -224 -91t-83 -257zM369 1403q0 93 63 154t162 61q93 0 159 -62t66 -153t-66 -153t-159 -62q-99 0 -162 61t-63 154zM481 1403q0 -49 31.5 -81t81.5 -32t81.5 32t31.5 81t-31.5 81t-81.5 32t-81.5 -32
t-31.5 -81z" />
    <glyph glyph-name="ae" unicode="&#xe6;" horiz-adv-x="1925" 
d="M82 297q0 145 113 236.5t327 91.5h307v20q0 100 -64 162.5t-171 62.5q-57 0 -103.5 -14.5t-72 -36t-42.5 -42.5t-22 -35l-6 -15h-225q1 7 4 19t17.5 47.5t34 67t56.5 70.5t82.5 67.5t115.5 47.5t151 19q77 0 143.5 -20t106 -48.5t68 -57.5t39.5 -49l11 -20h11q5 8 15 21
t46 46.5t78 59.5t112.5 47t147.5 21q132 0 247 -71t185 -196.5t70 -275.5v-71h-830q15 -122 102.5 -199.5t204.5 -77.5q57 0 108 14.5t82 35.5t54.5 42.5t32.5 35.5l10 15h225q-2 -7 -7 -19t-24.5 -47t-44 -67t-67.5 -71t-93 -67t-122.5 -47t-153.5 -19q-61 0 -116 12.5
t-95 32.5t-74.5 44t-56.5 47.5t-37.5 43.5t-22.5 32l-7 13h-10q-5 -9 -14.5 -24t-47 -54t-84.5 -68.5t-128.5 -54t-176.5 -24.5q-187 0 -288 87t-101 230zM1044 625h594q-16 96 -98.5 170.5t-198.5 74.5q-112 0 -193.5 -63t-103.5 -182zM307 307q0 -69 52.5 -106t152.5 -37
q151 0 234 77t83 210h-348q-82 0 -128 -40t-46 -104z" />
    <glyph glyph-name="ccedilla" unicode="&#xe7;" 
d="M61 522q0 236 149.5 389.5t373.5 153.5q86 0 160 -21t123.5 -54.5t89.5 -73.5t63 -80.5t38.5 -74t21.5 -54.5l5 -21h-225q-2 7 -7 19.5t-26 44.5t-48.5 56t-79.5 44t-115 20q-127 0 -212 -95.5t-85 -252.5t85 -252.5t212 -95.5q66 0 120 19t83.5 46t49.5 54t27 46l6 19
h215q-2 -7 -5.5 -20t-19.5 -50.5t-36.5 -72.5t-58 -77.5t-82 -74.5t-111 -55.5t-143.5 -27.5l-35 -93q7 0 18 -2t39 -13t50 -28.5t39.5 -54t17.5 -84.5q0 -88 -65.5 -147.5t-170.5 -59.5q-45 0 -86 10t-60 20l-18 11v133q66 -41 154 -41q52 0 77 19.5t25 52.5t-25 52.5
t-77 19.5h-82l80 211q-195 27 -322 172.5t-127 363.5z" />
    <glyph glyph-name="egrave" unicode="&#xe8;" horiz-adv-x="1187" 
d="M61 522q0 151 71 276t193 196t269 71q110 0 208.5 -42t169.5 -114t112.5 -173t41.5 -214v-71h-850q23 -128 111.5 -202.5t206.5 -74.5q60 0 113 14.5t85 35.5t56 42.5t34 35.5l9 15h225q-2 -7 -7 -19t-25 -47t-44.5 -67t-68 -71t-94.5 -67t-125 -47t-158 -19
q-147 0 -269 71t-193 195.5t-71 275.5zM287 625h614q-16 101 -96.5 173t-210.5 72q-111 0 -197.5 -66.5t-109.5 -178.5zM281 1546h256l163 -297h-184l-235 295v2z" />
    <glyph glyph-name="eacute" unicode="&#xe9;" horiz-adv-x="1187" 
d="M61 522q0 151 71 276t193 196t269 71q110 0 208.5 -42t169.5 -114t112.5 -173t41.5 -214v-71h-850q23 -128 111.5 -202.5t206.5 -74.5q60 0 113 14.5t85 35.5t56 42.5t34 35.5l9 15h225q-2 -7 -7 -19t-25 -47t-44.5 -67t-68 -71t-94.5 -67t-125 -47t-158 -19
q-147 0 -269 71t-193 195.5t-71 275.5zM287 625h614q-16 101 -96.5 173t-210.5 72q-111 0 -197.5 -66.5t-109.5 -178.5zM496 1249l163 297h256v-2l-235 -295h-184z" />
    <glyph glyph-name="ecircumflex" unicode="&#xea;" horiz-adv-x="1187" 
d="M61 522q0 151 71 276t193 196t269 71q110 0 208.5 -42t169.5 -114t112.5 -173t41.5 -214v-71h-850q23 -128 111.5 -202.5t206.5 -74.5q60 0 113 14.5t85 35.5t56 42.5t34 35.5l9 15h225q-2 -7 -7 -19t-25 -47t-44.5 -67t-68 -71t-94.5 -67t-125 -47t-158 -19
q-147 0 -269 71t-193 195.5t-71 275.5zM287 625h614q-16 101 -96.5 173t-210.5 72q-111 0 -197.5 -66.5t-109.5 -178.5zM256 1251l236 295h215l235 -295v-2h-194l-134 174h-30l-133 -174h-195v2z" />
    <glyph glyph-name="edieresis" unicode="&#xeb;" horiz-adv-x="1187" 
d="M61 522q0 151 71 276t193 196t269 71q110 0 208.5 -42t169.5 -114t112.5 -173t41.5 -214v-71h-850q23 -128 111.5 -202.5t206.5 -74.5q60 0 113 14.5t85 35.5t56 42.5t34 35.5l9 15h225q-2 -7 -7 -19t-25 -47t-44.5 -67t-68 -71t-94.5 -67t-125 -47t-158 -19
q-147 0 -269 71t-193 195.5t-71 275.5zM287 625h614q-16 101 -96.5 173t-210.5 72q-111 0 -197.5 -66.5t-109.5 -178.5zM662 1382q0 54 34 88.5t88 34.5t88.5 -34.5t34.5 -88.5t-34.5 -88t-88.5 -34t-88 34t-34 88zM283 1382q0 54 34.5 88.5t88.5 34.5t88 -34.5t34 -88.5
t-34 -88t-88 -34t-88.5 34t-34.5 88z" />
    <glyph glyph-name="igrave" unicode="&#xec;" horiz-adv-x="460" 
d="M123 0v1044h215v-1044h-215zM-102 1546h256l163 -297h-184l-235 295v2z" />
    <glyph glyph-name="iacute" unicode="&#xed;" horiz-adv-x="460" 
d="M123 0v1044h215v-1044h-215zM123 1249l164 297h256v-2l-236 -295h-184z" />
    <glyph glyph-name="icircumflex" unicode="&#xee;" horiz-adv-x="460" 
d="M123 0v1044h215v-1044h-215zM-123 1251l236 295h215l235 -295v-2h-194l-133 174h-31l-133 -174h-195v2z" />
    <glyph glyph-name="idieresis" unicode="&#xef;" horiz-adv-x="460" 
d="M123 0v1044h215v-1044h-215zM287 1382q0 54 34.5 88.5t88.5 34.5t88 -34.5t34 -88.5t-34 -88t-88 -34t-88.5 34t-34.5 88zM-92 1382q0 54 34.5 88.5t88.5 34.5t88.5 -34.5t34.5 -88.5t-34.5 -88t-88.5 -34t-88.5 34t-34.5 88z" />
    <glyph glyph-name="eth" unicode="&#xf0;" horiz-adv-x="1146" 
d="M51 471q0 206 140.5 349t340.5 143q50 0 96 -10.5t79 -27.5t61 -38t46.5 -41.5t31.5 -37.5t18 -28l6 -10h11q-11 119 -267 387l-4 4l-262 -157v163l164 97l-164 170h225l82 -82l277 164v-164l-174 -103q56 -59 94 -103t86.5 -114t77 -135t49 -153t20.5 -181
q0 -271 -142 -427t-370 -156t-375 141t-147 350zM276 471q0 -131 83 -214t214 -83t214 83t83 214t-83 214t-214 83t-214 -83t-83 -214z" />
    <glyph glyph-name="ntilde" unicode="&#xf1;" horiz-adv-x="1198" 
d="M123 0v1044h215v-143h10q4 7 11.5 18t36 39t63 50t93 39.5t124.5 17.5q194 0 301.5 -113.5t107.5 -326.5v-625h-215v604q0 137 -60.5 201.5t-184.5 64.5t-205.5 -85t-81.5 -222v-563h-215zM270 1260v61q0 85 56.5 140t148.5 55q48 0 90 -17.5t66 -39t53.5 -39t56.5 -17.5
q23 0 37.5 14t14.5 37v51h153v-61q0 -85 -56.5 -140t-148.5 -55q-48 0 -90 17.5t-66 39t-53.5 39t-56.5 17.5q-23 0 -37 -14t-14 -37v-51h-154z" />
    <glyph glyph-name="ograve" unicode="&#xf2;" horiz-adv-x="1208" 
d="M61 522q0 230 156.5 386.5t386.5 156.5t386.5 -156.5t156.5 -386.5t-156.5 -386t-386.5 -156t-386.5 156t-156.5 386zM287 522q0 -159 88.5 -253.5t228.5 -94.5t229 94.5t89 253.5t-89 253.5t-229 94.5t-228.5 -94.5t-88.5 -253.5zM291 1546h256l164 -297h-185l-235 295
v2z" />
    <glyph glyph-name="oacute" unicode="&#xf3;" horiz-adv-x="1208" 
d="M61 522q0 230 156.5 386.5t386.5 156.5t386.5 -156.5t156.5 -386.5t-156.5 -386t-386.5 -156t-386.5 156t-156.5 386zM287 522q0 -159 88.5 -253.5t228.5 -94.5t229 94.5t89 253.5t-89 253.5t-229 94.5t-228.5 -94.5t-88.5 -253.5zM502 1249l164 297h256v-2l-236 -295
h-184z" />
    <glyph glyph-name="ocircumflex" unicode="&#xf4;" horiz-adv-x="1208" 
d="M61 522q0 230 156.5 386.5t386.5 156.5t386.5 -156.5t156.5 -386.5t-156.5 -386t-386.5 -156t-386.5 156t-156.5 386zM287 522q0 -159 88.5 -253.5t228.5 -94.5t229 94.5t89 253.5t-89 253.5t-229 94.5t-228.5 -94.5t-88.5 -253.5zM262 1251l236 295h215l235 -295v-2
h-194l-133 174h-31l-133 -174h-195v2z" />
    <glyph glyph-name="otilde" unicode="&#xf5;" horiz-adv-x="1208" 
d="M61 522q0 230 156.5 386.5t386.5 156.5t386.5 -156.5t156.5 -386.5t-156.5 -386t-386.5 -156t-386.5 156t-156.5 386zM287 522q0 -159 88.5 -253.5t228.5 -94.5t229 94.5t89 253.5t-89 253.5t-229 94.5t-228.5 -94.5t-88.5 -253.5zM266 1260v61q0 85 56.5 140t148.5 55
q48 0 90 -17.5t66 -39t53.5 -39t56.5 -17.5q23 0 37 14t14 37v51h154v-61q0 -85 -56.5 -140t-148.5 -55q-48 0 -90 17.5t-66 39t-53.5 39t-56.5 17.5q-23 0 -37 -14t-14 -37v-51h-154z" />
    <glyph glyph-name="odieresis" unicode="&#xf6;" horiz-adv-x="1208" 
d="M61 522q0 230 156.5 386.5t386.5 156.5t386.5 -156.5t156.5 -386.5t-156.5 -386t-386.5 -156t-386.5 156t-156.5 386zM287 522q0 -159 88.5 -253.5t228.5 -94.5t229 94.5t89 253.5t-89 253.5t-229 94.5t-228.5 -94.5t-88.5 -253.5zM672 1382q0 54 34.5 88.5t88.5 34.5
t88.5 -34.5t34.5 -88.5t-34.5 -88t-88.5 -34t-88.5 34t-34.5 88zM293 1382q0 54 34.5 88.5t88.5 34.5t88.5 -34.5t34.5 -88.5t-34.5 -88t-88.5 -34t-88.5 34t-34.5 88z" />
    <glyph glyph-name="divide" unicode="&#xf7;" horiz-adv-x="1075" 
d="M399 901q0 61 41 102t103 41q61 0 102 -41t41 -102t-41 -102t-102 -41q-62 0 -103 41t-41 102zM133 451v204h809v-204h-809zM399 205q0 61 41 102t103 41q61 0 102 -41t41 -102q0 -62 -41 -103t-102 -41t-102.5 41.5t-41.5 102.5z" />
    <glyph glyph-name="oslash" unicode="&#xf8;" horiz-adv-x="1208" 
d="M41 -10v215l82 61q-7 11 -17.5 32.5t-27.5 88.5t-17 135q0 230 156.5 386.5t386.5 156.5q69 0 133.5 -16t107 -38.5t75.5 -45t48 -38.5l15 -16l184 144v-215l-82 -62q7 -11 17.5 -32.5t27.5 -88.5t17 -135q0 -230 -156.5 -386t-386.5 -156q-69 0 -133.5 16t-107 38
t-75.5 44.5t-48 38.5l-15 16zM287 522q0 -32 5 -62.5t10 -45.5l5 -15l512 389l-8.5 8.5t-26 20t-43 25t-60 19.5t-77.5 9q-140 0 -228.5 -94.5t-88.5 -253.5zM389 256l8.5 -8.5t26 -20t43 -25t60 -19.5t77.5 -9q140 0 229 94.5t89 253.5q0 32 -5 63t-11 45l-5 15z" />
    <glyph glyph-name="ugrave" unicode="&#xf9;" horiz-adv-x="1208" 
d="M123 420v624h215v-604q0 -137 61 -201.5t185 -64.5t205 85t81 222v563h215v-1044h-215v143h-10q-4 -7 -11.5 -18t-36 -39t-63 -49.5t-93 -39t-124.5 -17.5q-194 0 -301.5 113.5t-107.5 326.5zM293 1546h256l164 -297h-185l-235 295v2z" />
    <glyph glyph-name="uacute" unicode="&#xfa;" horiz-adv-x="1208" 
d="M123 420v624h215v-604q0 -137 61 -201.5t185 -64.5t205 85t81 222v563h215v-1044h-215v143h-10q-4 -7 -11.5 -18t-36 -39t-63 -49.5t-93 -39t-124.5 -17.5q-194 0 -301.5 113.5t-107.5 326.5zM492 1249l163 297h256v-2l-235 -295h-184z" />
    <glyph glyph-name="ucircumflex" unicode="&#xfb;" horiz-adv-x="1208" 
d="M123 420v624h215v-604q0 -137 61 -201.5t185 -64.5t205 85t81 222v563h215v-1044h-215v143h-10q-4 -7 -11.5 -18t-36 -39t-63 -49.5t-93 -39t-124.5 -17.5q-194 0 -301.5 113.5t-107.5 326.5zM262 1251l236 295h215l235 -295v-2h-194l-133 174h-31l-133 -174h-195v2z" />
    <glyph glyph-name="udieresis" unicode="&#xfc;" horiz-adv-x="1208" 
d="M123 420v624h215v-604q0 -137 61 -201.5t185 -64.5t205 85t81 222v563h215v-1044h-215v143h-10q-4 -7 -11.5 -18t-36 -39t-63 -49.5t-93 -39t-124.5 -17.5q-194 0 -301.5 113.5t-107.5 326.5zM672 1382q0 54 34.5 88.5t88.5 34.5t88.5 -34.5t34.5 -88.5t-34.5 -88
t-88.5 -34t-88.5 34t-34.5 88zM293 1382q0 54 34.5 88.5t88.5 34.5t88.5 -34.5t34.5 -88.5t-34.5 -88t-88.5 -34t-88.5 34t-34.5 88z" />
    <glyph glyph-name="yacute" unicode="&#xfd;" horiz-adv-x="1044" 
d="M20 1044h226l225 -839h113l245 839h226l-430 -1433h-226l123 389h-215zM451 1249l163 297h256v-2l-235 -295h-184z" />
    <glyph glyph-name="thorn" unicode="&#xfe;" horiz-adv-x="1228" 
d="M123 -389v1823h215v-525h10q5 6 13.5 16.5t40 37.5t66.5 47.5t91.5 37.5t116.5 17q211 0 351 -150.5t140 -392.5t-140 -392t-351 -150q-60 0 -116 16t-93 38t-65 44.5t-41 38.5l-13 16h-10v-522h-215zM338 522q0 -165 81.5 -256.5t215.5 -91.5q141 0 224 91t83 257
t-83 257t-224 91q-134 0 -215.5 -91.5t-81.5 -256.5z" />
    <glyph glyph-name="ydieresis" unicode="&#xff;" horiz-adv-x="1044" 
d="M20 1044h226l225 -839h113l245 839h226l-430 -1433h-226l123 389h-215zM600 1372q0 54 34.5 88.5t88.5 34.5t88.5 -34.5t34.5 -88.5t-34.5 -88.5t-88.5 -34.5t-88.5 34.5t-34.5 88.5zM221 1372q0 54 34.5 88.5t88.5 34.5t88.5 -34.5t34.5 -88.5t-34.5 -88.5t-88.5 -34.5
t-88.5 34.5t-34.5 88.5z" />
    <glyph glyph-name="Amacron" unicode="&#x100;" horiz-adv-x="1392" 
d="M31 0l368 1434h584l379 -1434h-246l-98 369h-660l-92 -369h-235zM420 594h541l-162 614h-226zM410 1649v174h573v-174h-573z" />
    <glyph glyph-name="amacron" unicode="&#x101;" horiz-adv-x="1228" 
d="M61 522q0 242 140.5 392.5t351.5 150.5q60 0 116 -16t93 -38.5t65 -45t41 -38.5l13 -16h10v133h215v-1044h-215v143h-10q-5 -7 -13.5 -18t-40 -39t-66.5 -49.5t-91.5 -39t-116.5 -17.5q-138 0 -249.5 66.5t-177 191t-65.5 284.5zM287 522q0 -166 83 -257t224 -91
q134 0 215.5 91.5t81.5 256.5t-81.5 256.5t-215.5 91.5q-141 0 -224 -91t-83 -257zM307 1280v174h574v-174h-574z" />
    <glyph glyph-name="Abreve" unicode="&#x102;" horiz-adv-x="1392" 
d="M31 0l368 1434h584l379 -1434h-246l-98 369h-660l-92 -369h-235zM420 594h541l-162 614h-226zM373 1884h174q0 -112 143 -112q144 0 144 112h174q0 -120 -81 -193t-237 -73t-236.5 73t-80.5 193z" />
    <glyph glyph-name="abreve" unicode="&#x103;" horiz-adv-x="1228" 
d="M61 522q0 242 140.5 392.5t351.5 150.5q60 0 116 -16t93 -38.5t65 -45t41 -38.5l13 -16h10v133h215v-1044h-215v143h-10q-5 -7 -13.5 -18t-40 -39t-66.5 -49.5t-91.5 -39t-116.5 -17.5q-138 0 -249.5 66.5t-177 191t-65.5 284.5zM287 522q0 -166 83 -257t224 -91
q134 0 215.5 91.5t81.5 256.5t-81.5 256.5t-215.5 91.5q-141 0 -224 -91t-83 -257zM266 1516h174q0 -113 144 -113q143 0 143 113h174q0 -121 -80.5 -194t-236.5 -73t-237 73t-81 194z" />
    <glyph glyph-name="Aogonek" unicode="&#x104;" horiz-adv-x="1392" 
d="M31 0l368 1434h584l379 -1434q-10 -5 -26.5 -14t-59 -38t-75 -58.5t-59 -72.5t-26.5 -83q0 -39 23.5 -60.5t68.5 -21.5q32 0 68 10t56 20l20 11v-133q-62 -41 -154 -41q-225 0 -225 194q0 52 26.5 100.5t64 80.5t75 57.5t63.5 36.5l27 12h-113l-98 369h-660l-92 -369
h-235zM420 594h541l-162 614h-226z" />
    <glyph glyph-name="aogonek" unicode="&#x105;" horiz-adv-x="1228" 
d="M61 522q0 242 140.5 392.5t351.5 150.5q60 0 116 -16t93 -38.5t65 -45t41 -38.5l13 -16h10v133h215v-1044q-10 -5 -26.5 -14t-59 -38t-75 -58.5t-59 -72.5t-26.5 -83q0 -39 23.5 -60.5t68.5 -21.5q32 0 68 10t56 20l20 11v-133q-62 -41 -154 -41q-225 0 -225 194
q0 52 26.5 100.5t64 80.5t75 57.5t63.5 36.5l27 12h-82v143h-10q-5 -7 -13.5 -18t-40 -39t-66.5 -49.5t-91.5 -39t-116.5 -17.5q-138 0 -249.5 66.5t-177 191t-65.5 284.5zM287 522q0 -166 83 -257t224 -91q134 0 215.5 91.5t81.5 256.5t-81.5 256.5t-215.5 91.5
q-141 0 -224 -91t-83 -257z" />
    <glyph glyph-name="Cacute" unicode="&#x106;" horiz-adv-x="1648" 
d="M82 717q0 216 102 390t277.5 271t388.5 97q95 0 180.5 -18t149.5 -48t119.5 -69.5t94 -82.5t70 -86.5t50 -83t31 -69.5t17.5 -48l5 -18h-236q-2 6 -7 17t-24 41.5t-42 58.5t-63.5 62.5t-87.5 59t-114.5 41.5t-142.5 17q-231 0 -376.5 -147.5t-145.5 -384.5t145.5 -385
t376.5 -148q77 0 146 18t117.5 47t88.5 64t65 70t42.5 64t24.5 47l7 18h236q-3 -12 -10 -31.5t-34 -77t-61.5 -110t-95 -116t-131.5 -109.5t-174.5 -77.5t-220.5 -31.5q-213 0 -388.5 97t-277.5 271t-102 390zM729 1618l164 297h256v-2l-236 -295h-184z" />
    <glyph glyph-name="cacute" unicode="&#x107;" 
d="M61 522q0 236 149.5 389.5t373.5 153.5q86 0 160 -21t123.5 -54.5t89.5 -73.5t63 -80.5t38.5 -74t21.5 -54.5l5 -21h-225q-2 7 -7 19.5t-26 44.5t-48.5 56t-79.5 44t-115 20q-127 0 -212 -95.5t-85 -252.5t85 -252.5t212 -95.5q66 0 120 19t83.5 46t49.5 54t27 46l6 19
h215q-2 -8 -5.5 -21.5t-20.5 -53t-39 -75t-63 -79t-90 -75t-123 -53t-160 -21.5q-224 0 -373.5 153t-149.5 389zM475 1249l164 297h256v-2l-236 -295h-184z" />
    <glyph glyph-name="Ccircumflex" unicode="&#x108;" horiz-adv-x="1648" 
d="M82 717q0 216 102 390t277.5 271t388.5 97q95 0 180.5 -18t149.5 -48t119.5 -69.5t94 -82.5t70 -86.5t50 -83t31 -69.5t17.5 -48l5 -18h-236q-2 6 -7 17t-24 41.5t-42 58.5t-63.5 62.5t-87.5 59t-114.5 41.5t-142.5 17q-231 0 -376.5 -147.5t-145.5 -384.5t145.5 -385
t376.5 -148q77 0 146 18t117.5 47t88.5 64t65 70t42.5 64t24.5 47l7 18h236q-3 -12 -10 -31.5t-34 -77t-61.5 -110t-95 -116t-131.5 -109.5t-174.5 -77.5t-220.5 -31.5q-213 0 -388.5 97t-277.5 271t-102 390zM494 1620l235 295h215l236 -295v-2h-195l-133 174h-31
l-133 -174h-194v2z" />
    <glyph glyph-name="ccircumflex" unicode="&#x109;" 
d="M61 522q0 236 149.5 389.5t373.5 153.5q86 0 160 -21t123.5 -54.5t89.5 -73.5t63 -80.5t38.5 -74t21.5 -54.5l5 -21h-225q-2 7 -7 19.5t-26 44.5t-48.5 56t-79.5 44t-115 20q-127 0 -212 -95.5t-85 -252.5t85 -252.5t212 -95.5q66 0 120 19t83.5 46t49.5 54t27 46l6 19
h215q-2 -8 -5.5 -21.5t-20.5 -53t-39 -75t-63 -79t-90 -75t-123 -53t-160 -21.5q-224 0 -373.5 153t-149.5 389zM231 1251l236 295h215l236 -295v-2h-195l-133 174h-31l-133 -174h-195v2z" />
    <glyph glyph-name="Ccaron" unicode="&#x10c;" horiz-adv-x="1648" 
d="M82 717q0 216 102 390t277.5 271t388.5 97q95 0 180.5 -18t149.5 -48t119.5 -69.5t94 -82.5t70 -86.5t50 -83t31 -69.5t17.5 -48l5 -18h-236q-2 6 -7 17t-24 41.5t-42 58.5t-63.5 62.5t-87.5 59t-114.5 41.5t-142.5 17q-231 0 -376.5 -147.5t-145.5 -384.5t145.5 -385
t376.5 -148q77 0 146 18t117.5 47t88.5 64t65 70t42.5 64t24.5 47l7 18h236q-3 -12 -10 -31.5t-34 -77t-61.5 -110t-95 -116t-131.5 -109.5t-174.5 -77.5t-220.5 -31.5q-213 0 -388.5 97t-277.5 271t-102 390zM483 1915h195l133 -174h31l133 174h194v-2l-235 -295h-215
l-236 295v2z" />
    <glyph glyph-name="ccaron" unicode="&#x10d;" 
d="M61 522q0 236 149.5 389.5t373.5 153.5q86 0 160 -21t123.5 -54.5t89.5 -73.5t63 -80.5t38.5 -74t21.5 -54.5l5 -21h-225q-2 7 -7 19.5t-26 44.5t-48.5 56t-79.5 44t-115 20q-127 0 -212 -95.5t-85 -252.5t85 -252.5t212 -95.5q66 0 120 19t83.5 46t49.5 54t27 46l6 19
h215q-2 -8 -5.5 -21.5t-20.5 -53t-39 -75t-63 -79t-90 -75t-123 -53t-160 -21.5q-224 0 -373.5 153t-149.5 389zM231 1546h195l133 -174h31l133 174h195v-2l-236 -295h-215l-236 295v2z" />
    <glyph glyph-name="Dcaron" unicode="&#x10e;" horiz-adv-x="1474" 
d="M143 0v1434h482q221 0 397.5 -96t273.5 -259.5t97 -361.5t-97 -361.5t-273.5 -259.5t-397.5 -96h-482zM379 225h246q236 0 379 137.5t143 354.5t-143 354t-379 137h-246v-983zM287 1915h194l133 -174h31l133 174h195v-2l-236 -295h-215l-235 295v2z" />
    <glyph glyph-name="dcaron" unicode="&#x10f;" horiz-adv-x="1382" 
d="M61 522q0 242 140.5 392.5t351.5 150.5q60 0 116 -16t93 -38.5t65 -45t41 -38.5l13 -16h10v523h215v-1434h-215v133h-10q-5 -6 -13.5 -16.5t-40 -37t-66.5 -46.5t-91.5 -36.5t-116.5 -16.5q-138 0 -249.5 66.5t-177 191t-65.5 284.5zM287 522q0 -166 83 -257t224 -91
q134 0 215.5 91.5t81.5 256.5t-81.5 256.5t-215.5 91.5q-141 0 -224 -91t-83 -257zM1208 1335q0 52 35.5 85.5t93.5 33.5q66 0 107 -45.5t41 -128.5q0 -276 -266 -276v102q66 0 99.5 25.5t33.5 66.5l-2 27q-19 -6 -39 -6q-47 0 -75 30t-28 86z" />
    <glyph glyph-name="Dcroat" unicode="&#x110;" horiz-adv-x="1505" 
d="M31 604v225h143v605h481q221 0 397.5 -96t273.5 -259.5t97 -361.5t-97 -361.5t-273.5 -259.5t-397.5 -96h-481v604h-143zM410 225h245q236 0 379.5 137.5t143.5 354.5t-143.5 354t-379.5 137h-245v-379h338v-225h-338v-379z" />
    <glyph glyph-name="dcroat" unicode="&#x111;" horiz-adv-x="1228" 
d="M61 492q0 228 136.5 370t345.5 142q60 0 115 -15t90 -36t61.5 -42t38.5 -36l12 -15h10v277h-245v184h245v113h215v-113h123v-184h-123v-1137h-215v133h-10q-4 -6 -12 -16.5t-37.5 -37t-63 -46.5t-89 -36.5t-115.5 -16.5q-209 0 -345.5 142t-136.5 370zM287 492
q0 -145 82.5 -231.5t214.5 -86.5q125 0 205.5 87t80.5 231t-80.5 230.5t-205.5 86.5q-132 0 -214.5 -86t-82.5 -231z" />
    <glyph glyph-name="Emacron" unicode="&#x112;" horiz-adv-x="1249" 
d="M143 0v1434h1035v-226h-799v-368h645v-226h-645v-389h799v-225h-1035zM379 1649v174h573v-174h-573z" />
    <glyph glyph-name="emacron" unicode="&#x113;" horiz-adv-x="1187" 
d="M61 522q0 151 71 276t193 196t269 71q110 0 208.5 -42t169.5 -114t112.5 -173t41.5 -214v-71h-850q23 -128 111.5 -202.5t206.5 -74.5q60 0 113 14.5t85 35.5t56 42.5t34 35.5l9 15h225q-2 -7 -7 -19t-25 -47t-44.5 -67t-68 -71t-94.5 -67t-125 -47t-158 -19
q-147 0 -269 71t-193 195.5t-71 275.5zM287 625h614q-16 101 -96.5 173t-210.5 72q-111 0 -197.5 -66.5t-109.5 -178.5zM307 1280v174h574v-174h-574z" />
    <glyph glyph-name="Edotaccent" unicode="&#x116;" horiz-adv-x="1249" 
d="M143 0v1434h1035v-226h-799v-368h645v-226h-645v-389h799v-225h-1035zM543 1745q0 54 36.5 91.5t90.5 37.5t91.5 -37.5t37.5 -91.5t-37.5 -90.5t-91.5 -36.5t-90.5 36.5t-36.5 90.5z" />
    <glyph glyph-name="edotaccent" unicode="&#x117;" horiz-adv-x="1187" 
d="M61 522q0 151 71 276t193 196t269 71q110 0 208.5 -42t169.5 -114t112.5 -173t41.5 -214v-71h-850q23 -128 111.5 -202.5t206.5 -74.5q60 0 113 14.5t85 35.5t56 42.5t34 35.5l9 15h225q-2 -7 -7 -19t-25 -47t-44.5 -67t-68 -71t-94.5 -67t-125 -47t-158 -19
q-147 0 -269 71t-193 195.5t-71 275.5zM287 625h614q-16 101 -96.5 173t-210.5 72q-111 0 -197.5 -66.5t-109.5 -178.5zM457 1376q0 54 36.5 91.5t90.5 37.5t91.5 -37.5t37.5 -91.5t-37.5 -90.5t-91.5 -36.5t-90.5 36.5t-36.5 90.5z" />
    <glyph glyph-name="Eogonek" unicode="&#x118;" horiz-adv-x="1249" 
d="M143 0v1434h1035v-226h-799v-368h645v-226h-645v-389h799v-225q-10 -5 -26.5 -14t-59 -38t-75 -58.5t-59 -72.5t-26.5 -83q0 -39 23.5 -60.5t68.5 -21.5q32 0 68 10t56 20l19 11v-133q-7 -5 -19.5 -11.5t-52.5 -18t-81 -11.5q-114 0 -170 50t-56 144q0 52 26.5 100.5
t64 80.5t75 57.5t64.5 36.5l26 12h-901z" />
    <glyph glyph-name="eogonek" unicode="&#x119;" horiz-adv-x="1187" 
d="M61 522q0 151 71 276t193 196t269 71q110 0 208.5 -42t169.5 -114t112.5 -173t41.5 -214v-71h-850q23 -128 111.5 -202.5t206.5 -74.5q60 0 113 14.5t85 35.5t56 42.5t34 35.5l9 15h225q-2 -6 -5.5 -16t-20 -41t-38.5 -60.5t-62 -68t-89 -70.5q-32 -21 -65.5 -45t-75 -60
t-72.5 -71t-52.5 -75.5t-21.5 -75.5q0 -39 24 -60.5t69 -21.5q32 0 67.5 10t55.5 20l20 11v-133q-62 -41 -154 -41q-225 0 -225 194q0 49 24.5 95.5t59 78t69 56t58.5 35.5l25 12q-62 -10 -113 -10q-147 0 -269 71t-193 195.5t-71 275.5zM287 625h614q-16 97 -100 171
t-207 74q-111 0 -197.5 -66.5t-109.5 -178.5z" />
    <glyph glyph-name="Ecaron" unicode="&#x11a;" horiz-adv-x="1249" 
d="M143 0v1434h1035v-226h-799v-368h645v-226h-645v-389h799v-225h-1035zM307 1915h195l133 -174h31l133 174h194v-2l-235 -295h-215l-236 295v2z" />
    <glyph glyph-name="ecaron" unicode="&#x11b;" horiz-adv-x="1187" 
d="M61 522q0 151 71 276t193 196t269 71q110 0 208.5 -42t169.5 -114t112.5 -173t41.5 -214v-71h-850q23 -128 111.5 -202.5t206.5 -74.5q60 0 113 14.5t85 35.5t56 42.5t34 35.5l9 15h225q-2 -7 -7 -19t-25 -47t-44.5 -67t-68 -71t-94.5 -67t-125 -47t-158 -19
q-147 0 -269 71t-193 195.5t-71 275.5zM287 625h614q-16 101 -96.5 173t-210.5 72q-111 0 -197.5 -66.5t-109.5 -178.5zM240 1546h194l133 -174h31l133 174h195v-2l-236 -295h-215l-235 295v2z" />
    <glyph glyph-name="Gbreve" unicode="&#x11e;" horiz-adv-x="1771" 
d="M82 717q0 216 102 390t277.5 271t388.5 97q95 0 180.5 -18t149.5 -48t119.5 -69.5t94 -82.5t70 -86.5t50 -83t31 -69.5t17.5 -48l5 -18h-236q-2 6 -7 17t-24 41.5t-42 58.5t-63.5 62.5t-87.5 59t-114.5 41.5t-142.5 17q-231 0 -376.5 -147.5t-145.5 -384.5t145.5 -385
t376.5 -148q81 0 152.5 19t120 50t88 68t63 74t39.5 68t22 50l6 19h-256v226h666v-226h-174q-3 -12 -9 -32.5t-31.5 -80t-58.5 -114t-93 -120.5t-131 -113.5t-177 -80t-227 -32.5q-213 0 -388.5 97t-277.5 271t-102 390zM522 1884h174q0 -112 144 -112q143 0 143 112h174
q0 -120 -80.5 -193t-236.5 -73t-237 73t-81 193z" />
    <glyph glyph-name="gbreve" unicode="&#x11f;" horiz-adv-x="1228" 
d="M61 522q0 242 140.5 392.5t351.5 150.5q60 0 116 -16t93 -39t65 -46t41 -39l13 -16h10v135h215v-1433h-891v194h676v328h-10q-5 -6 -13.5 -16.5t-40 -37t-66.5 -46.5t-91.5 -36.5t-116.5 -16.5q-138 0 -249.5 66.5t-177 191t-65.5 284.5zM287 522q0 -166 83 -257t224 -91
q134 0 215.5 91.5t81.5 256.5t-81.5 256.5t-215.5 91.5q-141 0 -224 -91t-83 -257zM266 1516h174q0 -113 144 -113q143 0 143 113h174q0 -121 -80.5 -194t-236.5 -73t-237 73t-81 194z" />
    <glyph glyph-name="Gcommaaccent" unicode="&#x122;" horiz-adv-x="1771" 
d="M82 717q0 216 102 390t277.5 271t388.5 97q95 0 180.5 -18t149.5 -48t119.5 -69.5t94 -82.5t70 -86.5t50 -83t31 -69.5t17.5 -48l5 -18h-236q-2 6 -7 17t-24 41.5t-42 58.5t-63.5 62.5t-87.5 59t-114.5 41.5t-142.5 17q-231 0 -376.5 -147.5t-145.5 -384.5t145.5 -385
t376.5 -148q81 0 152.5 19t120 50t88 68t63 74t39.5 68t22 50l6 19h-256v226h666v-226h-174q-3 -12 -9 -32.5t-31.5 -80t-58.5 -114t-93 -120.5t-131 -113.5t-177 -80t-227 -32.5q-213 0 -388.5 97t-277.5 271t-102 390zM696 -324q0 52 35.5 85.5t93.5 33.5q66 0 107 -45.5
t41 -128.5q0 -276 -266 -276v102q66 0 99.5 25.5t33.5 66.5l-2 27q-19 -6 -39 -6q-47 0 -75 30t-28 86z" />
    <glyph glyph-name="gcommaaccent" unicode="&#x123;" horiz-adv-x="1228" 
d="M426 1382q0 137 67.5 207t198.5 70v-103q-66 0 -99.5 -25.5t-33.5 -66.5l2 -26q19 6 39 6q47 0 74.5 -30.5t27.5 -86.5q0 -52 -35.5 -85.5t-93.5 -33.5q-66 0 -106.5 45.5t-40.5 128.5zM61 522q0 242 140.5 392.5t351.5 150.5q60 0 116 -16t93 -39t65 -46t41 -39l13 -16
h10v135h215v-1433h-891v194h676v328h-10q-5 -6 -13.5 -16.5t-40 -37t-66.5 -46.5t-91.5 -36.5t-116.5 -16.5q-138 0 -249.5 66.5t-177 191t-65.5 284.5zM287 522q0 -166 83 -257t224 -91q134 0 215.5 91.5t81.5 256.5t-81.5 256.5t-215.5 91.5q-141 0 -224 -91t-83 -257z
" />
    <glyph glyph-name="Imacron" unicode="&#x12a;" horiz-adv-x="522" 
d="M143 0v1434h236v-1434h-236zM-27 1649v174h574v-174h-574z" />
    <glyph glyph-name="imacron" unicode="&#x12b;" horiz-adv-x="460" 
d="M123 0v1044h215v-1044h-215zM-68 1280v174h574v-174h-574z" />
    <glyph glyph-name="Iogonek" unicode="&#x12e;" horiz-adv-x="522" 
d="M-10 -287q0 52 26.5 100.5t64 80.5t75 57.5t64.5 36.5l26 12h-103v1434h236v-1434q-10 -5 -26.5 -14t-59 -38t-75 -58.5t-59 -72.5t-26.5 -83q0 -39 23.5 -60.5t68.5 -21.5q32 0 68 10t56 20l20 11v-133q-62 -41 -154 -41q-225 0 -225 194z" />
    <glyph glyph-name="iogonek" unicode="&#x12f;" horiz-adv-x="460" 
d="M102 1325q0 54 36.5 91.5t90.5 37.5t91.5 -37.5t37.5 -91.5t-37.5 -90.5t-91.5 -36.5t-90.5 36.5t-36.5 90.5zM-51 -287q0 52 26.5 100.5t64 80.5t75 57.5t63.5 36.5l27 12h-82v1044h215v-1044q-10 -5 -26.5 -14t-59 -38t-75 -58.5t-59 -72.5t-26.5 -83q0 -39 23.5 -60.5
t68.5 -21.5q32 0 68 10t56 20l20 11v-133q-62 -41 -154 -41q-225 0 -225 194z" />
    <glyph glyph-name="Idotaccent" unicode="&#x130;" horiz-adv-x="522" 
d="M143 0v1434h236v-1434h-236zM133 1745q0 54 36.5 91.5t90.5 37.5t91.5 -37.5t37.5 -91.5t-37.5 -90.5t-91.5 -36.5t-90.5 36.5t-36.5 90.5z" />
    <glyph glyph-name="dotlessi" unicode="&#x131;" horiz-adv-x="460" 
d="M123 0v1044h215v-1044h-215z" />
    <glyph glyph-name="Kcommaaccent" unicode="&#x136;" horiz-adv-x="1351" 
d="M143 0v1434h236v-594h235l430 594h277l-502 -686l522 -748h-286l-430 614h-246v-614h-236zM553 -324q0 52 35.5 85.5t93.5 33.5q66 0 106.5 -45.5t40.5 -128.5q0 -276 -266 -276v102q66 0 99.5 25.5t33.5 66.5l-2 27q-19 -6 -39 -6q-47 0 -74.5 30t-27.5 86z" />
    <glyph glyph-name="kcommaaccent" unicode="&#x137;" horiz-adv-x="1085" 
d="M123 0v1434h215v-799h154l317 409h246l-379 -481l409 -563h-266l-317 440h-164v-440h-215zM440 -324q0 52 35.5 85.5t93.5 33.5q66 0 107 -45.5t41 -128.5q0 -276 -266 -276v102q66 0 99.5 25.5t33.5 66.5l-2 27q-19 -6 -39 -6q-47 0 -75 30t-28 86z" />
    <glyph glyph-name="Lacute" unicode="&#x139;" horiz-adv-x="1105" 
d="M143 0v1434h236v-1209h727v-225h-963zM164 1618l164 297h256v-2l-236 -295h-184z" />
    <glyph glyph-name="lacute" unicode="&#x13a;" horiz-adv-x="593" 
d="M123 0v1434h215v-1239h235v-195h-450zM133 1618l164 297h256v-2l-236 -295h-184z" />
    <glyph glyph-name="Lcommaaccent" unicode="&#x13b;" horiz-adv-x="1105" 
d="M143 0v1434h236v-1209h727v-225h-963zM512 -324q0 52 35.5 85.5t93.5 33.5q66 0 106.5 -45.5t40.5 -128.5q0 -276 -266 -276v102q66 0 99.5 25.5t33.5 66.5l-2 27q-19 -6 -39 -6q-47 0 -74.5 30t-27.5 86z" />
    <glyph glyph-name="lcommaaccent" unicode="&#x13c;" horiz-adv-x="593" 
d="M123 0v1434h215v-1239h235v-195h-450zM205 -324q0 52 35.5 85.5t93.5 33.5q66 0 106.5 -45.5t40.5 -128.5q0 -276 -266 -276v102q66 0 99.5 25.5t33.5 66.5l-2 27q-19 -6 -39 -6q-47 0 -74.5 30t-27.5 86z" />
    <glyph glyph-name="Lcaron" unicode="&#x13d;" horiz-adv-x="1105" 
d="M143 0v1434h236v-1209h727v-225h-963zM532 1335q0 52 36 85.5t94 33.5q66 0 106.5 -45.5t40.5 -128.5q0 -276 -266 -276v102q66 0 99.5 25.5t33.5 66.5l-2 27q-19 -6 -39 -6q-47 0 -75 30t-28 86z" />
    <glyph glyph-name="lcaron" unicode="&#x13e;" horiz-adv-x="634" 
d="M123 0v1434h215v-1239h235v-195h-450zM440 1335q0 52 35.5 85.5t93.5 33.5q66 0 107 -45.5t41 -128.5q0 -276 -266 -276v102q66 0 99.5 25.5t33.5 66.5l-2 27q-19 -6 -39 -6q-47 0 -75 30t-28 86z" />
    <glyph glyph-name="Lslash" unicode="&#x141;" horiz-adv-x="1116" 
d="M10 461v235l144 72v666h235v-564l307 144v-236l-307 -143v-410h727v-225h-962v532z" />
    <glyph glyph-name="lslash" unicode="&#x142;" horiz-adv-x="634" 
d="M0 461v215l164 76v682h215v-584l194 92v-215l-194 -92v-440h235v-195h-450v537z" />
    <glyph glyph-name="Nacute" unicode="&#x143;" horiz-adv-x="1484" 
d="M143 0v1434h338l625 -1137h20l-20 174v963h235v-1434h-337l-625 1137h-21l21 -174v-963h-236zM629 1618l164 297h256v-2l-236 -295h-184z" />
    <glyph glyph-name="nacute" unicode="&#x144;" horiz-adv-x="1198" 
d="M123 0v1044h215v-143h10q4 7 11.5 18t36 39t63 50t93 39.5t124.5 17.5q194 0 301.5 -113.5t107.5 -326.5v-625h-215v604q0 137 -60.5 201.5t-184.5 64.5t-205.5 -85t-81.5 -222v-563h-215zM512 1249l164 297h256v-2l-236 -295h-184z" />
    <glyph glyph-name="Ncommaaccent" unicode="&#x145;" horiz-adv-x="1484" 
d="M143 0v1434h338l625 -1137h20l-20 174v963h235v-1434h-337l-625 1137h-21l21 -174v-963h-236zM594 -324q0 52 35.5 85.5t93.5 33.5q66 0 106.5 -45.5t40.5 -128.5q0 -276 -266 -276v102q66 0 99.5 25.5t33.5 66.5l-2 27q-19 -6 -39 -6q-47 0 -74.5 30t-27.5 86z" />
    <glyph glyph-name="ncommaaccent" unicode="&#x146;" horiz-adv-x="1198" 
d="M123 0v1044h215v-143h10q4 7 11.5 18t36 39t63 50t93 39.5t124.5 17.5q194 0 301.5 -113.5t107.5 -326.5v-625h-215v604q0 137 -60.5 201.5t-184.5 64.5t-205.5 -85t-81.5 -222v-563h-215zM461 -324q0 52 35.5 85.5t93.5 33.5q66 0 106.5 -45.5t40.5 -128.5
q0 -276 -266 -276v102q66 0 99.5 25.5t33.5 66.5l-2 27q-19 -6 -39 -6q-47 0 -74.5 30t-27.5 86z" />
    <glyph glyph-name="Ncaron" unicode="&#x147;" horiz-adv-x="1484" 
d="M143 0v1434h338l625 -1137h20l-20 174v963h235v-1434h-337l-625 1137h-21l21 -174v-963h-236zM424 1915h194l134 -174h30l133 174h195v-2l-236 -295h-215l-235 295v2z" />
    <glyph glyph-name="ncaron" unicode="&#x148;" horiz-adv-x="1198" 
d="M123 0v1044h215v-143h10q4 7 11.5 18t36 39t63 50t93 39.5t124.5 17.5q194 0 301.5 -113.5t107.5 -326.5v-625h-215v604q0 137 -60.5 201.5t-184.5 64.5t-205.5 -85t-81.5 -222v-563h-215zM266 1546h195l133 -174h31l133 174h194v-2l-235 -295h-215l-236 295v2z" />
    <glyph glyph-name="Omacron" unicode="&#x14c;" horiz-adv-x="1699" 
d="M82 717q0 159 58.5 299.5t160 241t244.5 159t305 58.5t305 -58.5t244.5 -159t160 -241t58.5 -299.5t-58.5 -299.5t-160 -241t-244.5 -159t-305 -58.5t-305 58.5t-244.5 159t-160 241t-58.5 299.5zM328 717q0 -237 145.5 -385t376.5 -148t376.5 148t145.5 385
t-145.5 384.5t-376.5 147.5t-376.5 -147.5t-145.5 -384.5zM563 1649v174h574v-174h-574z" />
    <glyph glyph-name="omacron" unicode="&#x14d;" horiz-adv-x="1208" 
d="M61 522q0 230 156.5 386.5t386.5 156.5t386.5 -156.5t156.5 -386.5t-156.5 -386t-386.5 -156t-386.5 156t-156.5 386zM287 522q0 -159 88.5 -253.5t228.5 -94.5t229 94.5t89 253.5t-89 253.5t-229 94.5t-228.5 -94.5t-88.5 -253.5zM317 1280v174h574v-174h-574z" />
    <glyph glyph-name="Ohungarumlaut" unicode="&#x150;" horiz-adv-x="1699" 
d="M82 717q0 159 58.5 299.5t160 241t244.5 159t305 58.5t305 -58.5t244.5 -159t160 -241t58.5 -299.5t-58.5 -299.5t-160 -241t-244.5 -159t-305 -58.5t-305 58.5t-244.5 159t-160 241t-58.5 299.5zM328 717q0 -237 145.5 -385t376.5 -148t376.5 148t145.5 385
t-145.5 384.5t-376.5 147.5t-376.5 -147.5t-145.5 -384.5zM926 1618l143 297h215v-2l-205 -295h-153zM608 1618l144 297h215v-2l-205 -295h-154z" />
    <glyph glyph-name="ohungarumlaut" unicode="&#x151;" horiz-adv-x="1208" 
d="M61 522q0 230 156.5 386.5t386.5 156.5t386.5 -156.5t156.5 -386.5t-156.5 -386t-386.5 -156t-386.5 156t-156.5 386zM287 522q0 -159 88.5 -253.5t228.5 -94.5t229 94.5t89 253.5t-89 253.5t-229 94.5t-228.5 -94.5t-88.5 -253.5zM680 1249l143 297h215v-2l-204 -295
h-154zM362 1249l144 297h215v-2l-205 -295h-154z" />
    <glyph glyph-name="OE" unicode="&#x152;" horiz-adv-x="2416" 
d="M82 717q0 158 58 299t156.5 241.5t235 159t287.5 58.5q71 0 137.5 -13t116.5 -34t93.5 -46t73 -50t50.5 -46t31 -34l10 -13v195h1014v-226h-778v-368h624v-226h-624v-389h778v-225h-1014v195q-7 -10 -20 -25.5t-60 -56.5t-101.5 -72t-144 -56.5t-186.5 -25.5
q-151 0 -287.5 58.5t-235 159t-156.5 241.5t-58 299zM328 717q0 -236 142 -384.5t359 -148.5t359.5 148.5t142.5 384.5t-142.5 384t-359.5 148t-359 -148t-142 -384z" />
    <glyph glyph-name="oe" unicode="&#x153;" horiz-adv-x="2007" 
d="M61 522q0 151 71 276t193 196t269 71q61 0 116.5 -12.5t96.5 -32.5t76.5 -44t59 -47.5t40 -43.5t23.5 -33l8 -12h10q5 9 15 24t46 54t78 68.5t112.5 54t147.5 24.5q106 0 202.5 -42t167 -114t112 -173t41.5 -214v-71h-830q15 -122 102.5 -199.5t204.5 -77.5
q57 0 108 14.5t82 35.5t54.5 42.5t32.5 35.5l10 15h225q-2 -7 -7 -19t-24.5 -47t-44 -67t-67.5 -71t-93 -67t-122.5 -47t-153.5 -19q-59 0 -113 12.5t-94 32.5t-74.5 44t-57 47.5t-39 43.5t-23.5 32l-8 13h-10q-5 -9 -16 -24t-49 -54t-81.5 -68.5t-115 -54t-148.5 -24.5
q-147 0 -269 71t-193 195.5t-71 275.5zM1126 625h594q-16 96 -98.5 170.5t-198.5 74.5q-112 0 -193.5 -63t-103.5 -182zM287 522q0 -158 87 -253t220 -95t220 95t87 253t-87 253t-220 95t-220 -95t-87 -253z" />
    <glyph glyph-name="Racute" unicode="&#x154;" horiz-adv-x="1413" 
d="M143 0v1434h625q254 0 403.5 -131.5t149.5 -329.5q0 -157 -97.5 -276.5t-271.5 -164.5l359 -532h-277l-338 512h-317v-512h-236zM379 737h389q156 0 231.5 62t75.5 174q0 111 -75.5 173t-231.5 62h-389v-471zM543 1618l164 297h256v-2l-236 -295h-184z" />
    <glyph glyph-name="racute" unicode="&#x155;" horiz-adv-x="798" 
d="M123 0v1044h215v-153h10q3 7 10 18t32 39t55 50t81.5 39.5t108.5 17.5h123v-205h-133q-125 0 -206 -79t-81 -208v-563h-215zM348 1249l164 297h256v-2l-236 -295h-184z" />
    <glyph glyph-name="Rcommaaccent" unicode="&#x156;" horiz-adv-x="1413" 
d="M143 0v1434h625q254 0 403.5 -131.5t149.5 -329.5q0 -157 -97.5 -276.5t-271.5 -164.5l359 -532h-277l-338 512h-317v-512h-236zM379 737h389q156 0 231.5 62t75.5 174q0 111 -75.5 173t-231.5 62h-389v-471zM553 -324q0 52 35.5 85.5t93.5 33.5q66 0 106.5 -45.5
t40.5 -128.5q0 -276 -266 -276v102q66 0 99.5 25.5t33.5 66.5l-2 27q-19 -6 -39 -6q-47 0 -74.5 30t-27.5 86z" />
    <glyph glyph-name="rcommaaccent" unicode="&#x157;" horiz-adv-x="798" 
d="M123 0v1044h215v-153h10q3 7 10 18t32 39t55 50t81.5 39.5t108.5 17.5h123v-205h-133q-125 0 -206 -79t-81 -208v-563h-215zM92 -324q0 52 35.5 85.5t93.5 33.5q66 0 107 -45.5t41 -128.5q0 -137 -68 -206.5t-199 -69.5v102q66 0 100 25.5t34 66.5l-3 27q-18 -6 -38 -6
q-47 0 -75 30t-28 86z" />
    <glyph glyph-name="Rcaron" unicode="&#x158;" horiz-adv-x="1413" 
d="M143 0v1434h625q254 0 403.5 -131.5t149.5 -329.5q0 -157 -97.5 -276.5t-271.5 -164.5l359 -532h-277l-338 512h-317v-512h-236zM379 737h389q156 0 231.5 62t75.5 174q0 111 -75.5 173t-231.5 62h-389v-471zM348 1915h195l133 -174h31l133 174h194v-2l-235 -295h-215
l-236 295v2z" />
    <glyph glyph-name="rcaron" unicode="&#x159;" horiz-adv-x="798" 
d="M123 0v1044h215v-153h10q3 7 10 18t32 39t55 50t81.5 39.5t108.5 17.5h123v-205h-133q-125 0 -206 -79t-81 -208v-563h-215zM113 1546h194l133 -174h31l133 174h195v-2l-236 -295h-215l-235 295v2z" />
    <glyph glyph-name="Sacute" unicode="&#x15a;" horiz-adv-x="1320" 
d="M72 430h245q2 -10 6.5 -27.5t29 -61.5t60 -78t105 -61.5t158.5 -27.5q161 0 239 58.5t78 156.5q0 62 -47.5 105.5t-123.5 69.5t-167.5 49.5t-183 55t-167.5 75t-123.5 120t-47.5 180.5q0 84 37.5 162t105 138t169.5 95.5t221 35.5q102 0 188.5 -23t143 -60t100.5 -82
t68 -90t39 -82t19 -60l5 -23h-246q-1 4 -2.5 11.5t-10.5 29t-21.5 40.5t-37.5 43t-56.5 41t-80.5 28.5t-108 11.5q-140 0 -213.5 -57.5t-73.5 -147.5q0 -62 47.5 -106t123.5 -71t167.5 -51.5t183 -56t167.5 -75t123.5 -119t47.5 -177.5q0 -89 -38 -168.5t-108.5 -140
t-178 -96t-238.5 -35.5q-87 0 -163.5 16t-132 43.5t-102.5 62.5t-77.5 74.5t-55 78.5t-38 74t-22 62.5t-11.5 43.5zM588 1618l164 297h256v-2l-236 -295h-184z" />
    <glyph glyph-name="sacute" unicode="&#x15b;" horiz-adv-x="1044" 
d="M51 328h236q2 -6 6.5 -16.5t24.5 -37t46 -47t74 -37t105 -16.5q113 0 164 35.5t51 87.5q0 33 -28 56t-74.5 36t-105 27t-120.5 26.5t-120.5 38t-105 58.5t-74.5 89.5t-28 129.5q0 122 113 214.5t297 92.5q84 0 154.5 -18t116.5 -47t82 -64t55.5 -70t32.5 -64t17 -47
l3 -18h-225q-1 3 -3 7.5t-10 18.5t-18.5 26.5t-30 28t-42.5 26.5t-57.5 18.5t-74.5 7.5q-91 0 -137.5 -33t-46.5 -81q0 -32 28 -55t74 -35.5t105 -26.5t120.5 -27t120.5 -38t105 -58t74 -89.5t28 -129.5q0 -131 -117.5 -224t-322.5 -93q-88 0 -162.5 19t-123.5 50t-88 68
t-60 74t-35 68t-18 50zM420 1249l164 297h256v-2l-236 -295h-184z" />
    <glyph glyph-name="Scedilla" unicode="&#x15e;" horiz-adv-x="1320" 
d="M72 430h245q2 -10 6.5 -27.5t29 -61.5t60 -78t105 -61.5t158.5 -27.5q161 0 239 58.5t78 156.5q0 62 -47.5 105.5t-123.5 69.5t-167.5 49.5t-183 55t-167.5 75t-123.5 120t-47.5 180.5q0 84 37.5 162t105 138t169.5 95.5t221 35.5q102 0 188.5 -23t143 -60t100.5 -82
t68 -90t39 -82t19 -60l5 -23h-246q-1 4 -2.5 11.5t-10.5 29t-21.5 40.5t-37.5 43t-56.5 41t-80.5 28.5t-108 11.5q-140 0 -213.5 -57.5t-73.5 -147.5q0 -62 47.5 -106t123.5 -71t167.5 -51.5t183 -56t167.5 -75t123.5 -119t47.5 -177.5q0 -168 -131.5 -292.5t-362.5 -145.5
l-28 -74q7 0 18 -2t39 -13t50 -28.5t39.5 -54t17.5 -84.5q0 -88 -65.5 -147.5t-170.5 -59.5q-45 0 -86 10t-59 20l-19 11v133q66 -41 154 -41q52 0 77 19.5t25 52.5t-25 52.5t-77 19.5h-82l70 186q-78 5 -147.5 24t-119.5 47t-93 63.5t-71.5 73t-50.5 75t-35 71t-21 59.5
t-11 41z" />
    <glyph glyph-name="scedilla" unicode="&#x15f;" horiz-adv-x="1044" 
d="M51 328h236q2 -6 6.5 -16.5t24.5 -37t46 -47t74 -37t105 -16.5q113 0 164 35.5t51 87.5q0 33 -28 56t-74.5 36t-105 27t-120.5 26.5t-120.5 38t-105 58.5t-74.5 89.5t-28 129.5q0 122 113 214.5t297 92.5q84 0 154.5 -18t116.5 -47t82 -64t55.5 -70t32.5 -64t17 -47
l3 -18h-225q-1 3 -3 7.5t-10 18.5t-18.5 26.5t-30 28t-42.5 26.5t-57.5 18.5t-74.5 7.5q-91 0 -137.5 -33t-46.5 -81q0 -32 28 -55t74 -35.5t105 -26.5t120.5 -27t120.5 -38t105 -58t74 -89.5t28 -129.5q0 -122 -102 -212t-283 -103l-35 -95q7 0 18 -2t39 -13t50 -28.5
t39.5 -54t17.5 -84.5q0 -88 -65 -147.5t-170 -59.5q-45 0 -86 10t-60 20l-18 11v133q65 -41 153 -41q52 0 77.5 19.5t25.5 52.5t-25.5 52.5t-77.5 19.5h-82l78 209q-59 4 -111 18.5t-90.5 35.5t-71.5 47t-55 53.5t-40 55t-28.5 51.5t-17.5 42.5t-9 29.5z" />
    <glyph glyph-name="Scaron" unicode="&#x160;" horiz-adv-x="1320" 
d="M72 430h245q2 -10 6.5 -27.5t29 -61.5t60 -78t105 -61.5t158.5 -27.5q161 0 239 58.5t78 156.5q0 62 -47.5 105.5t-123.5 69.5t-167.5 49.5t-183 55t-167.5 75t-123.5 120t-47.5 180.5q0 84 37.5 162t105 138t169.5 95.5t221 35.5q102 0 188.5 -23t143 -60t100.5 -82
t68 -90t39 -82t19 -60l5 -23h-246q-1 4 -2.5 11.5t-10.5 29t-21.5 40.5t-37.5 43t-56.5 41t-80.5 28.5t-108 11.5q-140 0 -213.5 -57.5t-73.5 -147.5q0 -62 47.5 -106t123.5 -71t167.5 -51.5t183 -56t167.5 -75t123.5 -119t47.5 -177.5q0 -89 -38 -168.5t-108.5 -140
t-178 -96t-238.5 -35.5q-87 0 -163.5 16t-132 43.5t-102.5 62.5t-77.5 74.5t-55 78.5t-38 74t-22 62.5t-11.5 43.5zM311 1915h195l133 -174h31l133 174h194v-2l-235 -295h-215l-236 295v2z" />
    <glyph glyph-name="scaron" unicode="&#x161;" horiz-adv-x="1044" 
d="M51 328h236q2 -6 6.5 -16.5t24.5 -37t46 -47t74 -37t105 -16.5q113 0 164 35.5t51 87.5q0 33 -28 56t-74.5 36t-105 27t-120.5 26.5t-120.5 38t-105 58.5t-74.5 89.5t-28 129.5q0 122 113 214.5t297 92.5q84 0 154.5 -18t116.5 -47t82 -64t55.5 -70t32.5 -64t17 -47
l3 -18h-225q-1 3 -3 7.5t-10 18.5t-18.5 26.5t-30 28t-42.5 26.5t-57.5 18.5t-74.5 7.5q-91 0 -137.5 -33t-46.5 -81q0 -32 28 -55t74 -35.5t105 -26.5t120.5 -27t120.5 -38t105 -58t74 -89.5t28 -129.5q0 -131 -117.5 -224t-322.5 -93q-88 0 -162.5 19t-123.5 50t-88 68
t-60 74t-35 68t-18 50zM164 1546h194l134 -174h30l133 174h195v-2l-236 -295h-215l-235 295v2z" />
    <glyph glyph-name="Tcommaaccent" unicode="&#x162;" horiz-adv-x="1218" 
d="M20 1208v226h1178v-226h-471v-1208h-235v1208h-472zM471 -324q0 52 35.5 85.5t93.5 33.5q66 0 107 -45.5t41 -128.5q0 -137 -68 -206.5t-199 -69.5v102q66 0 99.5 25.5t33.5 66.5l-2 27q-19 -6 -39 -6q-47 0 -74.5 30t-27.5 86z" />
    <glyph glyph-name="tcommaaccent" unicode="&#x163;" horiz-adv-x="768" 
d="M41 850v194h123v226h215v-226h317v-194h-317v-655h328v-195h-543v850h-123zM307 -324q0 52 35.5 85.5t93.5 33.5q66 0 107 -45.5t41 -128.5q0 -137 -68 -206.5t-199 -69.5v102q66 0 100 25.5t34 66.5l-2 27q-19 -6 -39 -6q-47 0 -75 30t-28 86z" />
    <glyph glyph-name="Tcaron" unicode="&#x164;" horiz-adv-x="1218" 
d="M20 1208v226h1178v-226h-471v-1208h-235v1208h-472zM266 1915h195l133 -174h31l133 174h194v-2l-235 -295h-215l-236 295v2z" />
    <glyph glyph-name="tcaron" unicode="&#x165;" horiz-adv-x="768" 
d="M481 1171q0 52 35.5 85.5t93.5 33.5q66 0 107 -45.5t41 -128.5q0 -276 -266 -276v102q66 0 99.5 25.5t33.5 66.5l-2 27q-19 -6 -39 -6q-47 0 -75 30t-28 86zM41 850v194h123v226h215v-1075h328v-195h-543v850h-123z" />
    <glyph glyph-name="Umacron" unicode="&#x16a;" horiz-adv-x="1433" 
d="M133 553v881h236v-881q0 -176 92.5 -272.5t255.5 -96.5t255.5 96.5t92.5 272.5v881h235v-881q0 -276 -157 -435t-426 -159t-426.5 159t-157.5 435zM430 1649v174h574v-174h-574z" />
    <glyph glyph-name="umacron" unicode="&#x16b;" horiz-adv-x="1208" 
d="M123 420v624h215v-604q0 -137 61 -201.5t185 -64.5t205 85t81 222v563h215v-1044h-215v143h-10q-4 -7 -11.5 -18t-36 -39t-63 -49.5t-93 -39t-124.5 -17.5q-194 0 -301.5 113.5t-107.5 326.5zM317 1280v174h574v-174h-574z" />
    <glyph glyph-name="Uring" unicode="&#x16e;" horiz-adv-x="1433" 
d="M133 553v881h236v-881q0 -176 92.5 -272.5t255.5 -96.5t255.5 96.5t92.5 272.5v881h235v-881q0 -276 -157 -435t-426 -159t-426.5 159t-157.5 435zM492 1772q0 93 63 154t162 61q93 0 159 -62t66 -153t-66 -153.5t-159 -62.5q-99 0 -162 61.5t-63 154.5zM604 1772
q0 -50 32 -81.5t81 -31.5t80.5 31.5t31.5 81.5t-31.5 81t-80.5 31q-50 0 -81.5 -31.5t-31.5 -80.5z" />
    <glyph glyph-name="uring" unicode="&#x16f;" horiz-adv-x="1208" 
d="M123 420v624h215v-604q0 -137 61 -201.5t185 -64.5t205 85t81 222v563h215v-1044h-215v143h-10q-4 -7 -11.5 -18t-36 -39t-63 -49.5t-93 -39t-124.5 -17.5q-194 0 -301.5 113.5t-107.5 326.5zM379 1403q0 93 63 154t162 61q93 0 159 -62t66 -153t-66 -153t-159 -62
q-99 0 -162 61t-63 154zM492 1403q0 -50 31.5 -81.5t80.5 -31.5q50 0 81.5 32t31.5 81t-31.5 81t-81.5 32q-49 0 -80.5 -31.5t-31.5 -81.5z" />
    <glyph glyph-name="Uhungarumlaut" unicode="&#x170;" horiz-adv-x="1433" 
d="M133 553v881h236v-881q0 -176 92.5 -272.5t255.5 -96.5t255.5 96.5t92.5 272.5v881h235v-881q0 -276 -157 -435t-426 -159t-426.5 159t-157.5 435zM788 1618l144 297h215v-2l-205 -295h-154zM471 1618l143 297h215v-2l-204 -295h-154z" />
    <glyph glyph-name="uhungarumlaut" unicode="&#x171;" horiz-adv-x="1208" 
d="M123 420v624h215v-604q0 -137 61 -201.5t185 -64.5t205 85t81 222v563h215v-1044h-215v143h-10q-4 -7 -11.5 -18t-36 -39t-63 -49.5t-93 -39t-124.5 -17.5q-194 0 -301.5 113.5t-107.5 326.5zM676 1249l143 297h215v-2l-205 -295h-153zM358 1249l144 297h215v-2
l-205 -295h-154z" />
    <glyph glyph-name="Uogonek" unicode="&#x172;" horiz-adv-x="1433" 
d="M133 553v881h236v-881q0 -176 92.5 -272.5t255.5 -96.5t255.5 96.5t92.5 272.5v881h235v-881q0 -144 -44 -259t-134 -196.5t-221 -115.5q-9 -5 -23.5 -13.5t-51.5 -35.5t-65.5 -54.5t-51.5 -67.5t-23 -77q0 -39 23.5 -60.5t68.5 -21.5q32 0 68 10t56 20l20 11v-133
q-62 -41 -154 -41q-225 0 -225 194q0 139 176 246h-2q-269 0 -426.5 159t-157.5 435z" />
    <glyph glyph-name="uogonek" unicode="&#x173;" horiz-adv-x="1208" 
d="M123 420v624h215v-604q0 -137 61 -201.5t185 -64.5t205 85t81 222v563h215v-1044q-10 -5 -26.5 -14t-58.5 -38t-74.5 -58.5t-59 -72.5t-26.5 -83q0 -39 23.5 -60.5t68.5 -21.5q32 0 68 10t56 20l19 11v-133q-7 -5 -19.5 -11.5t-52.5 -18t-81 -11.5q-114 0 -170 50
t-56 144q0 52 26.5 100.5t64 80.5t75 57.5t64.5 36.5l26 12h-82v143h-10q-4 -7 -11.5 -18t-36 -39t-63 -49.5t-93 -39t-124.5 -17.5q-194 0 -301.5 113.5t-107.5 326.5z" />
    <glyph glyph-name="Ydieresis" unicode="&#x178;" horiz-adv-x="1341" 
d="M0 1434h276l379 -635h31l379 635h276l-553 -902v-532h-235v532zM733 1751q0 54 34.5 88.5t88.5 34.5t88.5 -34.5t34.5 -88.5t-34.5 -88.5t-88.5 -34.5t-88.5 34.5t-34.5 88.5zM354 1751q0 54 34.5 88.5t88.5 34.5t88.5 -34.5t34.5 -88.5t-34.5 -88.5t-88.5 -34.5
t-88.5 34.5t-34.5 88.5z" />
    <glyph glyph-name="Zacute" unicode="&#x179;" horiz-adv-x="1259" 
d="M61 0v225l811 963v20h-790v226h1096v-226l-811 -962v-21h831v-225h-1137zM522 1618l164 297h256v-2l-235 -295h-185z" />
    <glyph glyph-name="zacute" unicode="&#x17a;" horiz-adv-x="952" 
d="M41 0v195l563 634v21h-543v194h830v-194l-563 -635v-20h583v-195h-870zM389 1249l164 297h256v-2l-236 -295h-184z" />
    <glyph glyph-name="Zdotaccent" unicode="&#x17b;" horiz-adv-x="1259" 
d="M61 0v225l811 963v20h-790v226h1096v-226l-811 -962v-21h831v-225h-1137zM502 1755q0 54 36.5 91.5t90.5 37.5t91.5 -37.5t37.5 -91.5t-37.5 -90.5t-91.5 -36.5t-90.5 36.5t-36.5 90.5z" />
    <glyph glyph-name="zdotaccent" unicode="&#x17c;" horiz-adv-x="952" 
d="M41 0v195l563 634v21h-543v194h830v-194l-563 -635v-20h583v-195h-870zM354 1376q0 54 36.5 91.5t90.5 37.5t91.5 -37.5t37.5 -91.5t-37.5 -90.5t-91.5 -36.5t-90.5 36.5t-36.5 90.5z" />
    <glyph glyph-name="Zcaron" unicode="&#x17d;" horiz-adv-x="1259" 
d="M61 0v225l811 963v20h-790v226h1096v-226l-811 -962v-21h831v-225h-1137zM291 1915h194l133 -174h31l133 174h195v-2l-236 -295h-215l-235 295v2z" />
    <glyph glyph-name="zcaron" unicode="&#x17e;" horiz-adv-x="952" 
d="M41 0v195l563 634v21h-543v194h830v-194l-563 -635v-20h583v-195h-870zM143 1546h195l133 -174h31l133 174h194v-2l-235 -295h-215l-236 295v2z" />
    <glyph glyph-name="florin" unicode="&#x192;" horiz-adv-x="778" 
d="M-195 -389v194h338l154 1045h-102v194h131l57 390h477v-195h-291l-28 -195h237v-194h-266l-182 -1239h-525z" />
    <glyph glyph-name="uni01FA" unicode="&#x1fa;" horiz-adv-x="1392" 
d="M465 1772q0 82 49 139.5t131 70.5l72 138h205v-2l-125 -156q54 -29 86 -78.5t32 -111.5q0 -91 -66 -153.5t-159 -62.5q-99 0 -162 61.5t-63 154.5zM578 1772q0 -50 31.5 -81.5t80.5 -31.5q50 0 81.5 31.5t31.5 81.5q0 49 -31.5 80.5t-81.5 31.5t-81 -31t-31 -81zM31 0
l368 1434h584l379 -1434h-246l-98 369h-660l-92 -369h-235zM420 594h541l-162 614h-226z" />
    <glyph glyph-name="uni01FB" unicode="&#x1fb;" horiz-adv-x="1228" 
d="M369 1403q0 82 49 140t131 71l72 137h204v-2l-125 -156q54 -29 86.5 -79t32.5 -111q0 -91 -66 -153t-159 -62q-99 0 -162 61t-63 154zM481 1403q0 -49 31.5 -81t81.5 -32t81.5 32t31.5 81t-31.5 81t-81.5 32t-81.5 -32t-31.5 -81zM61 522q0 242 140.5 392.5t351.5 150.5
q60 0 116 -16t93 -38.5t65 -45t41 -38.5l13 -16h10v133h215v-1044h-215v143h-10q-5 -7 -13.5 -18t-40 -39t-66.5 -49.5t-91.5 -39t-116.5 -17.5q-138 0 -249.5 66.5t-177 191t-65.5 284.5zM287 522q0 -166 83 -257t224 -91q134 0 215.5 91.5t81.5 256.5t-81.5 256.5
t-215.5 91.5q-141 0 -224 -91t-83 -257z" />
    <glyph glyph-name="uni01FC" unicode="&#x1fc;" horiz-adv-x="2048" 
d="M31 0l368 1434h1577v-226h-778v-368h625v-226h-625v-389h778v-225h-1013v369h-605l-92 -369h-235zM420 594h543v614h-390zM1004 1618l163 297h256v-2l-235 -295h-184z" />
    <glyph glyph-name="uni01FD" unicode="&#x1fd;" horiz-adv-x="1925" 
d="M82 297q0 145 113 236.5t327 91.5h307v20q0 100 -64 162.5t-171 62.5q-57 0 -103.5 -14.5t-72 -36t-42.5 -42.5t-22 -35l-6 -15h-225q1 7 4 19t17.5 47.5t34 67t56.5 70.5t82.5 67.5t115.5 47.5t151 19q77 0 143.5 -20t106 -48.5t68 -57.5t39.5 -49l11 -20h11q5 8 15 21
t46 46.5t78 59.5t112.5 47t147.5 21q132 0 247 -71t185 -196.5t70 -275.5v-71h-830q15 -122 102.5 -199.5t204.5 -77.5q57 0 108 14.5t82 35.5t54.5 42.5t32.5 35.5l10 15h225q-2 -7 -7 -19t-24.5 -47t-44 -67t-67.5 -71t-93 -67t-122.5 -47t-153.5 -19q-61 0 -116 12.5
t-95 32.5t-74.5 44t-56.5 47.5t-37.5 43.5t-22.5 32l-7 13h-10q-5 -9 -14.5 -24t-47 -54t-84.5 -68.5t-128.5 -54t-176.5 -24.5q-187 0 -288 87t-101 230zM1044 625h594q-16 96 -98.5 170.5t-198.5 74.5q-112 0 -193.5 -63t-103.5 -182zM307 307q0 -69 52.5 -106t152.5 -37
q151 0 234 77t83 210h-348q-82 0 -128 -40t-46 -104zM860 1249l164 297h256v-2l-236 -295h-184z" />
    <glyph glyph-name="uni01FE" unicode="&#x1fe;" horiz-adv-x="1699" 
d="M20 -10v215l164 123q-4 6 -11 18t-24.5 51t-31 81.5t-24.5 107.5t-11 131q0 159 58.5 299.5t160 241t244.5 159t305 58.5q103 0 199 -24t159 -58t111 -68t70 -58l22 -24l268 201v-215l-163 -123q4 -6 11 -18t24.5 -51t31 -81.5t24.5 -107.5t11 -131q0 -159 -58.5 -299.5
t-160 -241t-244.5 -159t-305 -58.5q-75 0 -147 12.5t-126 33t-102.5 45t-81.5 49.5t-57 45.5t-36 33.5l-11 12zM328 717q0 -68 13 -129.5t25 -89.5l13 -27l846 633q-5 6 -15.5 15.5t-46 34.5t-75.5 44.5t-104.5 35t-133.5 15.5q-231 0 -376.5 -147.5t-145.5 -384.5zM475 330
q5 -6 15.5 -16t46 -35t75.5 -44t104.5 -35t133.5 -16q231 0 376.5 148t145.5 385q0 68 -13 129.5t-25 89.5l-13 27zM764 1618l164 297h256v-2l-236 -295h-184z" />
    <glyph glyph-name="uni01FF" unicode="&#x1ff;" horiz-adv-x="1208" 
d="M41 -10v215l82 61q-7 11 -17.5 32.5t-27.5 88.5t-17 135q0 230 156.5 386.5t386.5 156.5q69 0 133.5 -16t107 -38.5t75.5 -45t48 -38.5l15 -16l184 144v-215l-82 -62q7 -11 17.5 -32.5t27.5 -88.5t17 -135q0 -230 -156.5 -386t-386.5 -156q-69 0 -133.5 16t-107 38
t-75.5 44.5t-48 38.5l-15 16zM287 522q0 -32 5 -62.5t10 -45.5l5 -15l512 389l-8.5 8.5t-26 20t-43 25t-60 19.5t-77.5 9q-140 0 -228.5 -94.5t-88.5 -253.5zM389 256l8.5 -8.5t26 -20t43 -25t60 -19.5t77.5 -9q140 0 229 94.5t89 253.5q0 32 -5 63t-11 45l-5 15zM502 1249
l164 297h256v-2l-236 -295h-184z" />
    <glyph glyph-name="Scommaaccent" unicode="&#x218;" horiz-adv-x="1320" 
d="M72 430h245q2 -10 6.5 -27.5t29 -61.5t60 -78t105 -61.5t158.5 -27.5q161 0 239 58.5t78 156.5q0 62 -47.5 105.5t-123.5 69.5t-167.5 49.5t-183 55t-167.5 75t-123.5 120t-47.5 180.5q0 84 37.5 162t105 138t169.5 95.5t221 35.5q102 0 188.5 -23t143 -60t100.5 -82
t68 -90t39 -82t19 -60l5 -23h-246q-1 4 -2.5 11.5t-10.5 29t-21.5 40.5t-37.5 43t-56.5 41t-80.5 28.5t-108 11.5q-140 0 -213.5 -57.5t-73.5 -147.5q0 -62 47.5 -106t123.5 -71t167.5 -51.5t183 -56t167.5 -75t123.5 -119t47.5 -177.5q0 -89 -38 -168.5t-108.5 -140
t-178 -96t-238.5 -35.5q-87 0 -163.5 16t-132 43.5t-102.5 62.5t-77.5 74.5t-55 78.5t-38 74t-22 62.5t-11.5 43.5zM522 -324q0 52 35.5 85.5t93.5 33.5q66 0 107 -45.5t41 -128.5q0 -137 -68 -206.5t-199 -69.5v102q66 0 100 25.5t34 66.5l-2 27q-19 -6 -39 -6
q-47 0 -75 30t-28 86z" />
    <glyph glyph-name="scommaaccent" unicode="&#x219;" horiz-adv-x="1044" 
d="M51 328h236q2 -6 6.5 -16.5t24.5 -37t46 -47t74 -37t105 -16.5q113 0 164 35.5t51 87.5q0 33 -28 56t-74.5 36t-105 27t-120.5 26.5t-120.5 38t-105 58.5t-74.5 89.5t-28 129.5q0 122 113 214.5t297 92.5q84 0 154.5 -18t116.5 -47t82 -64t55.5 -70t32.5 -64t17 -47
l3 -18h-225q-1 3 -3 7.5t-10 18.5t-18.5 26.5t-30 28t-42.5 26.5t-57.5 18.5t-74.5 7.5q-91 0 -137.5 -33t-46.5 -81q0 -32 28 -55t74 -35.5t105 -26.5t120.5 -27t120.5 -38t105 -58t74 -89.5t28 -129.5q0 -131 -117.5 -224t-322.5 -93q-88 0 -162.5 19t-123.5 50t-88 68
t-60 74t-35 68t-18 50zM389 -324q0 52 35.5 85.5t93.5 33.5q66 0 107 -45.5t41 -128.5q0 -137 -68 -206.5t-199 -69.5v102q66 0 99.5 25.5t33.5 66.5l-2 27q-18 -6 -38 -6q-47 0 -75 30t-28 86z" />
    <glyph glyph-name="uni021A" unicode="&#x21a;" horiz-adv-x="1218" 
d="M20 1208v226h1178v-226h-471v-1208h-235v1208h-472zM471 -324q0 52 35.5 85.5t93.5 33.5q66 0 107 -45.5t41 -128.5q0 -137 -68 -206.5t-199 -69.5v102q66 0 99.5 25.5t33.5 66.5l-2 27q-19 -6 -39 -6q-47 0 -74.5 30t-27.5 86z" />
    <glyph glyph-name="uni021B" unicode="&#x21b;" horiz-adv-x="768" 
d="M41 850v194h123v226h215v-226h317v-194h-317v-655h328v-195h-543v850h-123zM307 -324q0 52 35.5 85.5t93.5 33.5q66 0 107 -45.5t41 -128.5q0 -137 -68 -206.5t-199 -69.5v102q66 0 100 25.5t34 66.5l-2 27q-19 -6 -39 -6q-47 0 -75 30t-28 86z" />
    <glyph glyph-name="afii57929" unicode="&#x2bc;" horiz-adv-x="399" 
d="M61 1294q0 52 35.5 85.5t93.5 33.5q66 0 107 -45.5t41 -128.5q0 -276 -266 -276v102q66 0 99.5 25.5t33.5 66.5l-2 27q-19 -6 -39 -6q-47 0 -75 30t-28 86z" />
    <glyph glyph-name="circumflex" unicode="&#x2c6;" horiz-adv-x="808" 
d="M61 1128l236 295h215l236 -295v-2h-195l-133 174h-31l-133 -174h-195v2z" />
    <glyph glyph-name="caron" unicode="&#x2c7;" horiz-adv-x="808" 
d="M61 1423h195l133 -174h31l133 174h195v-2l-236 -295h-215l-236 295v2z" />
    <glyph glyph-name="breve" unicode="&#x2d8;" horiz-adv-x="757" 
d="M61 1413h175q0 -113 143 -113t143 113h174q0 -120 -80.5 -193t-236.5 -73t-237 73t-81 193z" />
    <glyph glyph-name="dotaccent" unicode="&#x2d9;" horiz-adv-x="378" 
d="M61 1315q0 54 36.5 91.5t90.5 37.5t91.5 -37.5t37.5 -91.5t-37.5 -90.5t-91.5 -36.5t-90.5 36.5t-36.5 90.5z" />
    <glyph glyph-name="ring" unicode="&#x2da;" horiz-adv-x="573" 
d="M61 1208q0 93 63.5 154t162.5 61q93 0 159 -62t66 -153t-66 -153t-159 -62q-99 0 -162.5 61t-63.5 154zM174 1208q0 -49 31.5 -80.5t81.5 -31.5q49 0 80.5 31t31.5 81t-31.5 81.5t-80.5 31.5t-81 -31.5t-32 -81.5z" />
    <glyph glyph-name="ogonek" unicode="&#x2db;" horiz-adv-x="512" 
d="M61 -287q0 52 26.5 100.5t64 80.5t75 57.5t63.5 36.5l27 12h134q-10 -5 -26.5 -14t-59 -38t-75 -58.5t-59 -72.5t-26.5 -83q0 -39 23.5 -60.5t68.5 -21.5q32 0 67.5 10t55.5 20l20 11v-133q-7 -5 -19.5 -11.5t-52.5 -18t-81 -11.5q-114 0 -170 50t-56 144z" />
    <glyph glyph-name="tilde" unicode="&#x2dc;" horiz-adv-x="798" 
d="M61 1167v62q0 85 56.5 139.5t148.5 54.5q48 0 90 -17.5t66 -38.5t53.5 -38.5t56.5 -17.5q23 0 37.5 14t14.5 37v51h153v-61q0 -85 -56.5 -140t-148.5 -55q-48 0 -90 17.5t-66 39t-53.5 39t-56.5 17.5q-23 0 -37 -14t-14 -37v-52h-154z" />
    <glyph glyph-name="hungarumlaut" unicode="&#x2dd;" horiz-adv-x="798" 
d="M379 1126l143 297h215v-2l-205 -295h-153zM61 1126l144 297h215v-2l-205 -295h-154z" />
    <glyph glyph-name="uni0301" unicode="&#x301;" horiz-adv-x="0" 
d="M-860 1690l123 235h205v-2l-185 -233h-143z" />
    <glyph glyph-name="uni030A" unicode="&#x30a;" horiz-adv-x="0" 
d="M-913 1556q0 93 63 154.5t162 61.5q93 0 159 -62.5t66 -153.5t-66 -153t-159 -62q-99 0 -162 61t-63 154zM-801 1556q0 -49 31.5 -80.5t81.5 -31.5t81.5 31.5t31.5 80.5q0 50 -31.5 81.5t-81.5 31.5t-81.5 -31.5t-31.5 -81.5z" />
    <glyph glyph-name="afii10023" unicode="&#x401;" horiz-adv-x="1249" 
d="M143 0v1434h1035v-226h-799v-368h645v-226h-645v-389h799v-225h-1035zM737 1710q0 54 34.5 88.5t88.5 34.5t88.5 -34.5t34.5 -88.5t-34.5 -88.5t-88.5 -34.5t-88.5 34.5t-34.5 88.5zM358 1710q0 54 34.5 88.5t88.5 34.5t88.5 -34.5t34.5 -88.5t-34.5 -88.5t-88.5 -34.5
t-88.5 34.5t-34.5 88.5z" />
    <glyph glyph-name="afii10051" unicode="&#x402;" horiz-adv-x="1617" 
d="M20 1208v226h1076v-226h-430v-327h327q251 0 397 -138t146 -364v-604h-492v225h256v369q0 132 -81 209t-226 77h-327v-655h-236v1208h-410z" />
    <glyph glyph-name="afii10052" unicode="&#x403;" horiz-adv-x="1146" 
d="M143 0v1434h922v-226h-686v-1208h-236zM522 1587l164 297h256v-2l-235 -295h-185z" />
    <glyph glyph-name="afii10053" unicode="&#x404;" horiz-adv-x="1648" 
d="M82 717q0 216 102 390t277.5 271t388.5 97q95 0 180.5 -18t149.5 -48t119.5 -69.5t94 -82.5t70 -86.5t50 -83t31 -69.5t17.5 -48l5 -18h-236q-2 6 -7 17t-24 41.5t-42 58.5t-63.5 62.5t-87.5 59t-114.5 41.5t-142.5 17q-200 0 -340.5 -114.5t-171.5 -305.5h573v-215h-573
q30 -198 170.5 -314t341.5 -116q77 0 146 18t117.5 47t88.5 64t65 70t42.5 64t24.5 47l7 18h236q-3 -12 -10 -31.5t-34 -77t-61.5 -110t-95 -116t-131.5 -109.5t-174.5 -77.5t-220.5 -31.5q-213 0 -388.5 97t-277.5 271t-102 390z" />
    <glyph glyph-name="afii10054" unicode="&#x405;" horiz-adv-x="1320" 
d="M72 430h245q2 -10 6.5 -27.5t29 -61.5t60 -78t105 -61.5t158.5 -27.5q161 0 239 58.5t78 156.5q0 62 -47.5 105.5t-123.5 69.5t-167.5 49.5t-183 55t-167.5 75t-123.5 120t-47.5 180.5q0 84 37.5 162t105 138t169.5 95.5t221 35.5q102 0 188.5 -23t143 -60t100.5 -82
t68 -90t39 -82t19 -60l5 -23h-246q-1 4 -2.5 11.5t-10.5 29t-21.5 40.5t-37.5 43t-56.5 41t-80.5 28.5t-108 11.5q-140 0 -213.5 -57.5t-73.5 -147.5q0 -62 47.5 -106t123.5 -71t167.5 -51.5t183 -56t167.5 -75t123.5 -119t47.5 -177.5q0 -89 -38 -168.5t-108.5 -140
t-178 -96t-238.5 -35.5q-87 0 -163.5 16t-132 43.5t-102.5 62.5t-77.5 74.5t-55 78.5t-38 74t-22 62.5t-11.5 43.5z" />
    <glyph glyph-name="afii10055" unicode="&#x406;" horiz-adv-x="522" 
d="M143 0v1434h236v-1434h-236z" />
    <glyph glyph-name="afii10056" unicode="&#x407;" horiz-adv-x="522" 
d="M143 0v1434h236v-1434h-236zM328 1710q0 54 34.5 88.5t88.5 34.5t88 -34.5t34 -88.5t-34 -88.5t-88 -34.5t-88.5 34.5t-34.5 88.5zM-51 1710q0 54 34.5 88.5t88.5 34.5t88.5 -34.5t34.5 -88.5t-34.5 -88.5t-88.5 -34.5t-88.5 34.5t-34.5 88.5z" />
    <glyph glyph-name="afii10057" unicode="&#x408;" horiz-adv-x="1126" 
d="M0 307l236 51q2 -8 6.5 -21t23.5 -46.5t44 -59t70.5 -46.5t100.5 -21q125 0 196 76.5t71 220.5v973h235v-973q0 -244 -135 -383t-367 -139q-81 0 -152 20.5t-118.5 53t-86 71.5t-61 78t-37.5 71.5t-20 52.5z" />
    <glyph glyph-name="afii10058" unicode="&#x409;" horiz-adv-x="2201" 
d="M31 0l358 1434h830v-471h368q165 0 292 -65t194 -174.5t67 -242.5t-67 -242t-194 -174t-292 -65h-604v1208h-420l-297 -1208h-235zM1219 225h368q150 0 228.5 68.5t78.5 187.5t-78.5 187.5t-228.5 68.5h-368v-512z" />
    <glyph glyph-name="afii10059" unicode="&#x40a;" horiz-adv-x="2283" 
d="M143 0v1434h236v-533h686v533h235v-533h390q247 0 389.5 -126.5t142.5 -323.5q0 -198 -142.5 -324.5t-389.5 -126.5h-625v676h-686v-676h-236zM1300 225h390q142 0 214 61t72 165t-72 164.5t-214 60.5h-390v-451z" />
    <glyph glyph-name="afii10060" unicode="&#x40b;" horiz-adv-x="1617" 
d="M20 1208v226h1076v-226h-430v-327h327q251 0 397 -138t146 -364v-379h-236v369q0 132 -81 209t-226 77h-327v-655h-236v1208h-410z" />
    <glyph glyph-name="afii10061" unicode="&#x40c;" horiz-adv-x="1351" 
d="M143 0v1434h236v-594h235l430 594h277l-502 -686l522 -748h-286l-430 614h-246v-614h-236zM573 1587l164 297h256v-2l-235 -295h-185z" />
    <glyph glyph-name="afii10062" unicode="&#x40e;" horiz-adv-x="1218" 
d="M0 1434h246l256 -656h246l256 656h245l-573 -1434h-246l225 553h-307zM287 1884h194q0 -62 38 -97.5t106 -35.5t105.5 35.5t37.5 97.5h195q0 -133 -90 -215t-248 -82t-248 82t-90 215z" />
    <glyph glyph-name="afii10145" unicode="&#x40f;" horiz-adv-x="1454" 
d="M143 0v1434h236v-1209h696v1209h236v-1434h-471v-266h-226v266h-471z" />
    <glyph glyph-name="afii10017" unicode="&#x410;" horiz-adv-x="1392" 
d="M31 0l368 1434h584l379 -1434h-246l-98 369h-660l-92 -369h-235zM420 594h541l-162 614h-226z" />
    <glyph glyph-name="afii10018" unicode="&#x411;" horiz-adv-x="1392" 
d="M143 0v1434h1055v-226h-819v-307h389q247 0 389.5 -126.5t142.5 -323.5q0 -198 -142.5 -324.5t-389.5 -126.5h-625zM379 225h389q142 0 214.5 61t72.5 165t-72.5 164.5t-214.5 60.5h-389v-451z" />
    <glyph glyph-name="afii10019" unicode="&#x412;" horiz-adv-x="1443" 
d="M143 0v1434h707q202 0 321 -105t119 -264q0 -69 -22 -125t-54 -86.5t-63.5 -51.5t-53.5 -28l-22 -6v-10q6 -1 15.5 -2.5t37 -11t52.5 -23.5t56 -41.5t53 -62t37 -88.5t15 -119q0 -183 -131 -296.5t-370 -113.5h-697zM379 850h461q99 0 151.5 49.5t52.5 136.5
q0 77 -53.5 124.5t-150.5 47.5h-461v-358zM379 225h450q134 0 200.5 54.5t66.5 150.5t-66.5 150.5t-200.5 54.5h-450v-410z" />
    <glyph glyph-name="afii10020" unicode="&#x413;" horiz-adv-x="1105" 
d="M143 0v1434h922v-226h-686v-1208h-236z" />
    <glyph glyph-name="afii10021" unicode="&#x414;" horiz-adv-x="1546" 
d="M10 -266v491h164l307 1209h584l307 -1209h164v-491h-225v266h-1075v-266h-226zM410 225h716l-245 983h-226z" />
    <glyph glyph-name="afii10022" unicode="&#x415;" horiz-adv-x="1249" 
d="M143 0v1434h1035v-226h-799v-368h645v-226h-645v-389h799v-225h-1035z" />
    <glyph glyph-name="afii10024" unicode="&#x416;" horiz-adv-x="2058" 
d="M20 0l492 748l-471 686h276l400 -594h194v594h236v-594h194l400 594h276l-471 -686l492 -748h-287l-399 614h-205v-614h-236v614h-204l-400 -614h-287z" />
    <glyph glyph-name="afii10025" unicode="&#x417;" horiz-adv-x="1310" 
d="M41 420h246q1 -5 4 -13.5t15.5 -33t28.5 -47t46 -49.5t66.5 -46.5t90.5 -33t117 -13.5q162 0 240 60.5t78 165.5q0 91 -79 147.5t-239 56.5h-184v226h184q133 0 205 57.5t72 146.5t-72 147t-205 58q-56 0 -104.5 -11.5t-81 -29.5t-58.5 -40t-40.5 -43.5t-24 -39.5
t-12.5 -29l-4 -12h-248q2 9 6 24.5t22 60.5t42.5 85.5t70.5 90t103 85.5t143 60.5t186 24.5q120 0 219.5 -34t165.5 -91.5t102 -133.5t36 -161q0 -63 -22 -118t-54 -88t-63.5 -57t-53.5 -34l-22 -10v-11q5 -2 14.5 -5t36 -16t50.5 -29.5t53.5 -45.5t51 -63t36 -83.5
t14.5 -105.5q0 -189 -151 -309.5t-413 -120.5q-109 0 -201.5 25.5t-153.5 66t-109.5 89.5t-75.5 98.5t-45 90t-24 65.5z" />
    <glyph glyph-name="afii10026" unicode="&#x418;" horiz-adv-x="1484" 
d="M143 0v1434h236v-953l-21 -184h21l645 1137h317v-1434h-235v952l20 185h-20l-645 -1137h-318z" />
    <glyph glyph-name="afii10027" unicode="&#x419;" horiz-adv-x="1484" 
d="M143 0v1434h236v-953l-21 -184h21l645 1137h317v-1434h-235v952l20 185h-20l-645 -1137h-318zM399 1884h195q0 -62 37.5 -97.5t105.5 -35.5t106 35.5t38 97.5h194q0 -133 -90 -215t-248 -82t-248 82t-90 215z" />
    <glyph glyph-name="afii10028" unicode="&#x41a;" horiz-adv-x="1351" 
d="M143 0v1434h236v-594h235l430 594h277l-502 -686l522 -748h-286l-430 614h-246v-614h-236z" />
    <glyph glyph-name="afii10029" unicode="&#x41b;" horiz-adv-x="1372" 
d="M31 0l358 1434h584l368 -1434h-245l-308 1208h-225l-297 -1208h-235z" />
    <glyph glyph-name="afii10030" unicode="&#x41c;" horiz-adv-x="1884" 
d="M143 0v1434h389l390 -891h51l389 891h379v-1434h-236v1004l21 194h-21l-379 -870h-368l-379 870h-21l21 -194v-1004h-236z" />
    <glyph glyph-name="afii10031" unicode="&#x41d;" horiz-adv-x="1464" 
d="M143 0v1434h236v-594h706v594h236v-1434h-236v614h-706v-614h-236z" />
    <glyph glyph-name="afii10032" unicode="&#x41e;" horiz-adv-x="1699" 
d="M82 717q0 159 58.5 299.5t160 241t244.5 159t305 58.5t305 -58.5t244.5 -159t160 -241t58.5 -299.5t-58.5 -299.5t-160 -241t-244.5 -159t-305 -58.5t-305 58.5t-244.5 159t-160 241t-58.5 299.5zM328 717q0 -237 145.5 -385t376.5 -148t376.5 148t145.5 385
t-145.5 384.5t-376.5 147.5t-376.5 -147.5t-145.5 -384.5z" />
    <glyph glyph-name="afii10033" unicode="&#x41f;" horiz-adv-x="1464" 
d="M143 0v1434h1178v-1434h-236v1208h-706v-1208h-236z" />
    <glyph glyph-name="afii10034" unicode="&#x420;" horiz-adv-x="1382" 
d="M143 0v1434h625q165 0 292 -65t194 -174.5t67 -242.5t-67 -242t-194 -174t-292 -65h-389v-471h-236zM379 696h389q150 0 228.5 68.5t78.5 187.5t-78.5 187.5t-228.5 68.5h-389v-512z" />
    <glyph glyph-name="afii10035" unicode="&#x421;" horiz-adv-x="1648" 
d="M82 717q0 216 102 390t277.5 271t388.5 97q95 0 180.5 -18t149.5 -48t119.5 -69.5t94 -82.5t70 -86.5t50 -83t31 -69.5t17.5 -48l5 -18h-236q-2 6 -7 17t-24 41.5t-42 58.5t-63.5 62.5t-87.5 59t-114.5 41.5t-142.5 17q-231 0 -376.5 -147.5t-145.5 -384.5t145.5 -385
t376.5 -148q77 0 146 18t117.5 47t88.5 64t65 70t42.5 64t24.5 47l7 18h236q-3 -12 -10 -31.5t-34 -77t-61.5 -110t-95 -116t-131.5 -109.5t-174.5 -77.5t-220.5 -31.5q-213 0 -388.5 97t-277.5 271t-102 390z" />
    <glyph glyph-name="afii10036" unicode="&#x422;" horiz-adv-x="1218" 
d="M20 1208v226h1178v-226h-471v-1208h-235v1208h-472z" />
    <glyph glyph-name="afii10037" unicode="&#x423;" horiz-adv-x="1218" 
d="M0 1434h246l256 -656h246l256 656h245l-573 -1434h-246l225 553h-307z" />
    <glyph glyph-name="afii10038" unicode="&#x424;" horiz-adv-x="1832" 
d="M72 727q0 129 53.5 246t148 203.5t231 139t294.5 56.5v154h235v-154q158 -4 294.5 -56.5t231 -139t148 -203.5t53.5 -246t-53.5 -246t-148 -203.5t-231 -139t-294.5 -56.5v-154h-235v154q-158 4 -294.5 56.5t-231 139t-148 203.5t-53.5 246zM1034 297q221 7 351.5 125.5
t130.5 304.5t-130.5 304.5t-351.5 125.5v-860zM317 727q0 -186 130.5 -304.5t351.5 -125.5v860q-221 -7 -351.5 -125.5t-130.5 -304.5z" />
    <glyph glyph-name="afii10039" unicode="&#x425;" horiz-adv-x="1300" 
d="M31 0l379 707l-359 727h256l297 -615h92l297 615h256l-358 -727l379 -707h-256l-318 604h-92l-317 -604h-256z" />
    <glyph glyph-name="afii10040" unicode="&#x426;" horiz-adv-x="1505" 
d="M143 0v1434h236v-1209h645v1209h236v-1209h194v-491h-225v266h-1086z" />
    <glyph glyph-name="afii10041" unicode="&#x427;" horiz-adv-x="1372" 
d="M113 952v482h235v-482q0 -132 81 -209t226 -77q63 0 121 10.5t96 25.5t66.5 30t41.5 26l13 10v666h236v-1434h-236v553q-6 -4 -17 -11t-49.5 -24.5t-81.5 -31t-111 -24.5t-140 -11q-224 0 -352.5 132.5t-128.5 368.5z" />
    <glyph glyph-name="afii10042" unicode="&#x428;" horiz-adv-x="2037" 
d="M143 0v1434h236v-1209h522v1209h236v-1209h522v1209h235v-1434h-1751z" />
    <glyph glyph-name="afii10043" unicode="&#x429;" horiz-adv-x="2140" 
d="M143 0v1434h236v-1209h522v1209h236v-1209h522v1209h235v-1209h195v-491h-225v266h-1721z" />
    <glyph glyph-name="afii10044" unicode="&#x42a;" horiz-adv-x="1525" 
d="M0 1208v226h543v-471h368q165 0 292 -65t194 -174.5t67 -242.5t-67 -242t-194 -174t-292 -65h-604v1208h-307zM543 225h368q150 0 229 68.5t79 187.5t-79 187.5t-229 68.5h-368v-512z" />
    <glyph glyph-name="afii10045" unicode="&#x42b;" horiz-adv-x="1812" 
d="M1434 0v1434h235v-1434h-235zM143 0v1434h236v-471h328q165 0 292 -65t194 -174.5t67 -242.5t-67 -242t-194 -174t-292 -65h-564zM379 225h328q150 0 228.5 68.5t78.5 187.5t-78.5 187.5t-228.5 68.5h-328v-512z" />
    <glyph glyph-name="afii10046" unicode="&#x42c;" horiz-adv-x="1382" 
d="M143 0v1434h236v-471h389q165 0 292 -65t194 -174.5t67 -242.5t-67 -242t-194 -174t-292 -65h-625zM379 225h389q150 0 228.5 68.5t78.5 187.5t-78.5 187.5t-228.5 68.5h-389v-512z" />
    <glyph glyph-name="afii10047" unicode="&#x42d;" horiz-adv-x="1638" 
d="M61 512h236q2 -7 7 -18.5t24 -46t42.5 -65.5t65 -68.5t89 -65t117 -46t146.5 -18.5q205 0 346.5 121.5t165.5 308.5h-583v215h583q-31 191 -171.5 305.5t-340.5 114.5q-75 0 -142.5 -16.5t-114.5 -42.5t-87 -58t-64.5 -63.5t-41.5 -57.5t-24 -43l-7 -16h-235q3 11 8.5 30
t30 73t56 103.5t90.5 110t129 103.5t175.5 73t226.5 30q213 0 388.5 -97t277.5 -271t102 -390t-102 -390t-277.5 -271t-388.5 -97q-92 0 -175.5 19t-147.5 51t-120 73.5t-96 87.5t-73 91.5t-54 87t-35 73.5t-20 51z" />
    <glyph glyph-name="afii10048" unicode="&#x42e;" horiz-adv-x="2129" 
d="M143 0v1434h236v-594h184q30 179 129.5 323t258.5 228t349 84q207 0 378.5 -99t270.5 -273t99 -386t-99 -386t-270.5 -273t-378.5 -99q-191 0 -353 86.5t-263 236t-121 332.5h-184v-614h-236zM799 717q0 -236 142 -384.5t359 -148.5t359.5 148.5t142.5 384.5t-142.5 384
t-359.5 148t-359 -148t-142 -384z" />
    <glyph glyph-name="afii10049" unicode="&#x42f;" horiz-adv-x="1413" 
d="M92 973q0 198 149.5 329.5t403.5 131.5h625v-1434h-236v512h-348l-307 -512h-277l338 543q-161 46 -254.5 161t-93.5 269zM338 973q0 -104 79.5 -170t227.5 -66h389v471h-389q-148 0 -227.5 -65.5t-79.5 -169.5z" />
    <glyph glyph-name="afii10065" unicode="&#x430;" horiz-adv-x="1228" 
d="M61 522q0 242 140.5 392.5t351.5 150.5q60 0 116 -16t93 -38.5t65 -45t41 -38.5l13 -16h10v133h215v-1044h-215v143h-10q-5 -7 -13.5 -18t-40 -39t-66.5 -49.5t-91.5 -39t-116.5 -17.5q-138 0 -249.5 66.5t-177 191t-65.5 284.5zM287 522q0 -166 83 -257t224 -91
q134 0 215.5 91.5t81.5 256.5t-81.5 256.5t-215.5 91.5q-141 0 -224 -91t-83 -257z" />
    <glyph glyph-name="afii10066" unicode="&#x431;" horiz-adv-x="1146" 
d="M72 584q0 443 174.5 646.5t521.5 203.5h246v-195h-226q-238 0 -361.5 -110.5t-139.5 -309.5h10q4 6 11.5 15.5t36 34.5t63 44t93 34.5t124.5 15.5q201 0 336 -139t135 -353q0 -217 -141.5 -354t-370.5 -137t-370.5 159.5t-141.5 444.5zM297 471q0 -130 81.5 -213.5
t205.5 -83.5t205 83.5t81 213.5t-81 213.5t-205 83.5t-205.5 -83.5t-81.5 -213.5z" />
    <glyph glyph-name="afii10067" unicode="&#x432;" horiz-adv-x="1075" 
d="M123 0v1044h522q149 0 233.5 -72.5t84.5 -183.5q0 -55 -17 -98t-41 -66t-48 -37.5t-41 -18.5l-17 -5v-8q8 -1 22 -4t49.5 -19.5t62.5 -41.5t49 -75.5t22 -115.5q0 -128 -95.5 -213.5t-253.5 -85.5h-532zM338 635h287q123 0 123 113q0 47 -31.5 74.5t-91.5 27.5h-287v-215
zM338 195h307q68 0 105.5 35.5t37.5 97.5q0 55 -37.5 89t-105.5 34h-307v-256z" />
    <glyph glyph-name="afii10068" unicode="&#x433;" horiz-adv-x="880" 
d="M123 0v1044h737v-194h-522v-850h-215z" />
    <glyph glyph-name="afii10069" unicode="&#x434;" horiz-adv-x="1157" 
d="M10 -225v420h103l235 849h461l235 -849h103v-420h-195v225h-747v-225h-195zM338 195h481l-174 655h-133z" />
    <glyph glyph-name="afii10070" unicode="&#x435;" horiz-adv-x="1187" 
d="M61 522q0 151 71 276t193 196t269 71q110 0 208.5 -42t169.5 -114t112.5 -173t41.5 -214v-71h-850q23 -128 111.5 -202.5t206.5 -74.5q60 0 113 14.5t85 35.5t56 42.5t34 35.5l9 15h225q-2 -7 -7 -19t-25 -47t-44.5 -67t-68 -71t-94.5 -67t-125 -47t-158 -19
q-147 0 -269 71t-193 195.5t-71 275.5zM287 625h614q-16 101 -96.5 173t-210.5 72q-111 0 -197.5 -66.5t-109.5 -178.5z" />
    <glyph glyph-name="afii10072" unicode="&#x436;" horiz-adv-x="1648" 
d="M10 0l389 563l-358 481h246l297 -409h133v409h215v-409h133l297 409h246l-359 -481l389 -563h-256l-307 440h-143v-440h-215v440h-144l-307 -440h-256z" />
    <glyph glyph-name="afii10073" unicode="&#x437;" horiz-adv-x="1003" 
d="M41 338h215q1 -7 3.5 -18t18.5 -39t40 -50t72.5 -39.5t111.5 -17.5q109 0 162 37t53 96t-53 96t-162 37h-113v185h113q194 0 194 123q0 50 -52 86t-152 36q-52 0 -92 -13.5t-60 -33t-33 -39.5t-17 -34l-3 -13h-215q1 7 3.5 18.5t15.5 46t31 65.5t52 68.5t76.5 65
t108.5 46t143 18.5q197 0 303 -82t106 -205q0 -50 -19 -92t-46 -65.5t-54 -40t-46 -22.5l-19 -5v-8q4 -1 11.5 -2.5t29 -9t40.5 -18t43 -30.5t41 -44.5t28.5 -62t11.5 -81.5q0 -138 -112 -227.5t-318 -89.5q-88 0 -160.5 19.5t-119 51.5t-82 70t-53.5 76t-29.5 70t-13.5 51z
" />
    <glyph glyph-name="afii10074" unicode="&#x438;" horiz-adv-x="1187" 
d="M123 0v1044h215v-696l-2 -20h20l473 716h236v-1044h-215v696l2 21h-21l-473 -717h-235z" />
    <glyph glyph-name="afii10075" unicode="&#x439;" horiz-adv-x="1187" 
d="M123 0v1044h215v-696l-2 -20h20l473 716h236v-1044h-215v696l2 21h-21l-473 -717h-235zM276 1454h175q0 -113 143 -113t143 113h174q0 -120 -80.5 -193t-236.5 -73t-237 73t-81 193z" />
    <glyph glyph-name="afii10076" unicode="&#x43a;" horiz-adv-x="1085" 
d="M123 0v1044h215v-409h154l317 409h246l-379 -481l409 -563h-266l-317 440h-164v-440h-215z" />
    <glyph glyph-name="afii10077" unicode="&#x43b;" horiz-adv-x="1054" 
d="M10 0l287 1044h461l286 -1044h-225l-225 850h-133l-225 -850h-226z" />
    <glyph glyph-name="afii10078" unicode="&#x43c;" horiz-adv-x="1454" 
d="M123 0v1044h307l277 -624h41l276 624h307v-1044h-215v737l2 21h-10l-258 -574h-246l-258 574h-10l2 -21v-737h-215z" />
    <glyph glyph-name="afii10079" unicode="&#x43d;" horiz-adv-x="1187" 
d="M123 0v1044h215v-419h512v419h215v-1044h-215v430h-512v-430h-215z" />
    <glyph glyph-name="afii10080" unicode="&#x43e;" horiz-adv-x="1208" 
d="M61 522q0 230 156.5 386.5t386.5 156.5t386.5 -156.5t156.5 -386.5t-156.5 -386t-386.5 -156t-386.5 156t-156.5 386zM287 522q0 -159 88.5 -253.5t228.5 -94.5t229 94.5t89 253.5t-89 253.5t-229 94.5t-228.5 -94.5t-88.5 -253.5z" />
    <glyph glyph-name="afii10081" unicode="&#x43f;" horiz-adv-x="1177" 
d="M123 0v1044h932v-1044h-215v850h-502v-850h-215z" />
    <glyph glyph-name="afii10082" unicode="&#x440;" horiz-adv-x="1228" 
d="M123 -389v1433h215v-133h10q5 6 13.5 16.5t40 37t66.5 47t91.5 37t116.5 16.5q211 0 351 -150.5t140 -392.5t-140 -392t-351 -150q-60 0 -116 16t-93 38t-65 44.5t-41 38.5l-13 16h-10v-522h-215zM338 522q0 -165 81.5 -256.5t215.5 -91.5q141 0 224 91t83 257t-83 257
t-224 91q-134 0 -215.5 -91.5t-81.5 -256.5z" />
    <glyph glyph-name="afii10083" unicode="&#x441;" 
d="M61 522q0 236 149.5 389.5t373.5 153.5q86 0 160 -21t123.5 -54.5t89.5 -73.5t63 -80.5t38.5 -74t21.5 -54.5l5 -21h-225q-2 7 -7 19.5t-26 44.5t-48.5 56t-79.5 44t-115 20q-127 0 -212 -95.5t-85 -252.5t85 -252.5t212 -95.5q66 0 120 19t83.5 46t49.5 54t27 46l6 19
h215q-2 -8 -5.5 -21.5t-20.5 -53t-39 -75t-63 -79t-90 -75t-123 -53t-160 -21.5q-224 0 -373.5 153t-149.5 389z" />
    <glyph glyph-name="afii10084" unicode="&#x442;" horiz-adv-x="931" 
d="M10 850v194h912v-194h-349v-850h-215v850h-348z" />
    <glyph glyph-name="afii10085" unicode="&#x443;" horiz-adv-x="1044" 
d="M20 1044h226l225 -839h113l245 839h226l-430 -1433h-226l123 389h-215z" />
    <glyph glyph-name="afii10086" unicode="&#x444;" horiz-adv-x="1382" 
d="M61 522q0 136 70.5 255t191 193.5t261.5 84.5v379h215v-379q141 -10 261.5 -84.5t190.5 -193.5t70 -255q0 -102 -41.5 -196.5t-111.5 -165.5t-166.5 -117t-202.5 -53v-379h-215v379q-141 10 -261.5 84t-191 193t-70.5 255zM799 184q128 16 212.5 106.5t84.5 231.5
t-84.5 231.5t-212.5 106.5v-676zM287 522q0 -141 84.5 -231.5t212.5 -106.5v676q-128 -16 -212.5 -106.5t-84.5 -231.5z" />
    <glyph glyph-name="afii10087" unicode="&#x445;" horiz-adv-x="1054" 
d="M10 0l318 522l-308 522h246l236 -419h51l235 419h246l-307 -522l317 -522h-245l-246 430h-51l-246 -430h-246z" />
    <glyph glyph-name="afii10088" unicode="&#x446;" horiz-adv-x="1198" 
d="M123 0v1044h215v-849h461v849h215v-849h143v-420h-205v225h-829z" />
    <glyph glyph-name="afii10089" unicode="&#x447;" horiz-adv-x="1105" 
d="M92 655v389h215v-368q0 -93 53 -144t152 -51q82 0 146 15.5t87 31.5l23 15v501h215v-1044h-215v358q-4 -3 -11 -7.5t-33 -17t-55.5 -22t-77 -17t-99.5 -7.5q-190 0 -295 98.5t-105 269.5z" />
    <glyph glyph-name="afii10090" unicode="&#x448;" horiz-adv-x="1566" 
d="M123 0v1044h215v-849h338v849h215v-849h338v849h215v-1044h-1321z" />
    <glyph glyph-name="afii10091" unicode="&#x449;" horiz-adv-x="1628" 
d="M123 0v1044h215v-849h338v849h215v-849h338v849h215v-849h143v-420h-205v225h-1259z" />
    <glyph glyph-name="afii10092" unicode="&#x44a;" horiz-adv-x="1105" 
d="M10 850v194h420v-348h236q181 0 290 -99t109 -249t-109 -249t-290 -99h-451v850h-205zM430 195h236q83 0 128.5 41.5t45.5 111.5t-45.5 112t-128.5 42h-236v-307z" />
    <glyph glyph-name="afii10093" unicode="&#x44b;" horiz-adv-x="1402" 
d="M1065 0v1044h215v-1044h-215zM123 0v1044h215v-348h215q181 0 290 -99t109 -249t-109 -249t-290 -99h-430zM338 195h215q83 0 128.5 41.5t45.5 111.5t-45.5 112t-128.5 42h-215v-307z" />
    <glyph glyph-name="afii10094" unicode="&#x44c;" horiz-adv-x="1034" 
d="M123 0v1044h215v-348h256q181 0 290 -99t109 -249t-109 -249t-290 -99h-471zM338 195h256q83 0 128.5 41.5t45.5 111.5t-45.5 112t-128.5 42h-256v-307z" />
    <glyph glyph-name="afii10095" unicode="&#x44d;" 
d="M51 358h215q2 -7 7 -19.5t26.5 -44.5t50.5 -56t83 -44t120 -20q110 0 192.5 68t106.5 188h-371v195h369q-22 112 -107.5 178.5t-189.5 66.5q-63 0 -114.5 -19t-80.5 -46t-49 -54t-27 -46l-6 -19h-225q2 8 5.5 21.5t20.5 53t39 75.5t63 79.5t90.5 75t123.5 53t160 21.5
q224 0 373 -153.5t149 -389.5t-149 -389t-373 -153q-86 0 -160 21t-123.5 54t-90 73.5t-63.5 81t-38.5 73.5t-21.5 54z" />
    <glyph glyph-name="afii10096" unicode="&#x44e;" horiz-adv-x="1597" 
d="M123 0v1044h215v-419h143q39 194 182.5 317t340.5 123q110 0 208.5 -42t169.5 -114t112.5 -173t41.5 -214q0 -151 -70.5 -275.5t-192.5 -195.5t-269 -71q-198 0 -345 128t-178 322h-143v-430h-215zM696 522q0 -158 87.5 -253t220.5 -95t220 95t87 253t-87 253t-220 95
t-220.5 -95t-87.5 -253z" />
    <glyph glyph-name="afii10097" unicode="&#x44f;" horiz-adv-x="1095" 
d="M82 0l205 379q-8 3 -21 9t-46.5 31t-59.5 56.5t-47 88t-21 122.5q0 157 111 257.5t299 100.5h471v-1044h-215v317h-266l-164 -317h-246zM317 686q0 -80 49.5 -127t145.5 -47h246v338h-246q-90 0 -142.5 -46.5t-52.5 -117.5z" />
    <glyph glyph-name="afii10071" unicode="&#x451;" horiz-adv-x="1187" 
d="M61 522q0 151 71 276t193 196t269 71q110 0 208.5 -42t169.5 -114t112.5 -173t41.5 -214v-71h-850q23 -128 111.5 -202.5t206.5 -74.5q60 0 113 14.5t85 35.5t56 42.5t34 35.5l9 15h225q-2 -7 -7 -19t-25 -47t-44.5 -67t-68 -71t-94.5 -67t-125 -47t-158 -19
q-147 0 -269 71t-193 195.5t-71 275.5zM287 625h614q-16 101 -96.5 173t-210.5 72q-111 0 -197.5 -66.5t-109.5 -178.5zM662 1321q0 54 34 88.5t88 34.5t88.5 -34.5t34.5 -88.5t-34.5 -88.5t-88.5 -34.5t-88 34.5t-34 88.5zM283 1321q0 54 34.5 88.5t88.5 34.5t88 -34.5
t34 -88.5t-34 -88.5t-88 -34.5t-88.5 34.5t-34.5 88.5z" />
    <glyph glyph-name="afii10099" unicode="&#x452;" horiz-adv-x="1208" 
d="M20 1044v195h123v195h215v-195h246v-195h-246v-327h11q4 7 11.5 18t36 39t62.5 50t92.5 39.5t124.5 17.5q194 0 302 -114t108 -327v-829h-522v194h307v615q0 137 -61 201.5t-185 64.5t-205.5 -85t-81.5 -222v-379h-215v1044h-123z" />
    <glyph glyph-name="afii10100" unicode="&#x453;" horiz-adv-x="880" 
d="M123 0v1044h737v-194h-522v-850h-215zM410 1188l163 297h256v-2l-235 -295h-184z" />
    <glyph glyph-name="afii10101" unicode="&#x454;" 
d="M61 522q0 236 149.5 389.5t373.5 153.5q86 0 160 -21t123.5 -54.5t89.5 -73.5t63 -80.5t38.5 -74t21.5 -54.5l5 -21h-225q-2 7 -7 19.5t-26 44.5t-48.5 56t-79.5 44t-115 20q-114 0 -194 -69.5t-103 -186.5h368v-194h-368q23 -112 108 -179t189 -67q66 0 120 19t83.5 46
t49.5 54t27 46l6 19h215q-2 -8 -5.5 -21.5t-20.5 -53t-39 -75t-63 -79t-90 -75t-123 -53t-160 -21.5q-224 0 -373.5 153t-149.5 389z" />
    <glyph glyph-name="afii10102" unicode="&#x455;" horiz-adv-x="1044" 
d="M51 328h236q2 -6 6.5 -16.5t24.5 -37t46 -47t74 -37t105 -16.5q113 0 164 35.5t51 87.5q0 33 -28 56t-74.5 36t-105 27t-120.5 26.5t-120.5 38t-105 58.5t-74.5 89.5t-28 129.5q0 122 113 214.5t297 92.5q84 0 154.5 -18t116.5 -47t82 -64t55.5 -70t32.5 -64t17 -47
l3 -18h-225q-1 3 -3 7.5t-10 18.5t-18.5 26.5t-30 28t-42.5 26.5t-57.5 18.5t-74.5 7.5q-91 0 -137.5 -33t-46.5 -81q0 -32 28 -55t74 -35.5t105 -26.5t120.5 -27t120.5 -38t105 -58t74 -89.5t28 -129.5q0 -131 -117.5 -224t-322.5 -93q-88 0 -162.5 19t-123.5 50t-88 68
t-60 74t-35 68t-18 50z" />
    <glyph glyph-name="afii10103" unicode="&#x456;" horiz-adv-x="460" 
d="M102 1325q0 54 36.5 91.5t90.5 37.5t91.5 -37.5t37.5 -91.5t-37.5 -90.5t-91.5 -36.5t-90.5 36.5t-36.5 90.5zM123 0v1044h215v-1044h-215z" />
    <glyph glyph-name="afii10104" unicode="&#x457;" horiz-adv-x="460" 
d="M123 0v1044h215v-1044h-215zM297 1362q0 54 34.5 88.5t88.5 34.5t88.5 -34.5t34.5 -88.5t-34.5 -88.5t-88.5 -34.5t-88.5 34.5t-34.5 88.5zM-82 1362q0 54 34.5 88.5t88.5 34.5t88.5 -34.5t34.5 -88.5t-34.5 -88.5t-88.5 -34.5t-88.5 34.5t-34.5 88.5z" />
    <glyph glyph-name="afii10105" unicode="&#x458;" horiz-adv-x="471" 
d="M113 1325q0 54 36.5 91.5t90.5 37.5t91.5 -37.5t37.5 -91.5t-37.5 -90.5t-91.5 -36.5t-90.5 36.5t-36.5 90.5zM-174 -389v194h307v1239h215v-1433h-522z" />
    <glyph glyph-name="afii10106" unicode="&#x459;" horiz-adv-x="1648" 
d="M10 0l287 1044h676v-348h235q181 0 290.5 -99t109.5 -249t-109.5 -249t-290.5 -99h-450v850h-297l-225 -850h-226zM973 195h235q83 0 128.5 41.5t45.5 111.5t-45.5 112t-128.5 42h-235v-307z" />
    <glyph glyph-name="afii10107" unicode="&#x45a;" horiz-adv-x="1730" 
d="M123 0v1044h215v-368h491v368h215v-368h246q180 0 290 -98t110 -240t-110 -240t-290 -98h-461v481h-491v-481h-215zM1044 195h246q82 0 128 39.5t46 103.5t-46 103.5t-128 39.5h-246v-286z" />
    <glyph glyph-name="afii10108" unicode="&#x45b;" horiz-adv-x="1208" 
d="M20 1044v195h123v195h215v-195h246v-195h-246v-327h11q4 7 11.5 18t36 39t62.5 50t92.5 39.5t124.5 17.5q194 0 302 -114t108 -327v-440h-215v420q0 137 -61 201.5t-185 64.5t-205.5 -85t-81.5 -222v-379h-215v1044h-123z" />
    <glyph glyph-name="afii10109" unicode="&#x45c;" horiz-adv-x="1085" 
d="M123 0v1044h215v-409h154l317 409h246l-379 -481l409 -563h-266l-317 440h-164v-440h-215zM451 1188l163 297h256v-2l-235 -295h-184z" />
    <glyph glyph-name="afii10110" unicode="&#x45e;" horiz-adv-x="1044" 
d="M20 1044h226l225 -839h113l245 839h226l-430 -1433h-226l123 389h-215zM217 1454h174q0 -113 144 -113q143 0 143 113h174q0 -120 -80.5 -193t-236.5 -73t-237 73t-81 193z" />
    <glyph glyph-name="afii10193" unicode="&#x45f;" horiz-adv-x="1177" 
d="M123 0v1044h215v-849h502v849h215v-1044h-359v-225h-215v225h-358z" />
    <glyph glyph-name="afii10050" unicode="&#x490;" horiz-adv-x="1105" 
d="M143 0v1434h686v204h236v-419h-686v-1219h-236z" />
    <glyph glyph-name="afii10098" unicode="&#x491;" horiz-adv-x="870" 
d="M123 0v1044h512v185h215v-379h-512v-850h-215z" />
    <glyph glyph-name="uni1E9E" unicode="&#x1e9e;" horiz-adv-x="1454" 
d="M133 0v942q0 228 148 360t426 132h542v-226l-276 -307v-20q8 0 22.5 -2t56 -12t79 -26t83.5 -49t79.5 -76t56 -112t22.5 -153q0 -207 -143.5 -329t-419.5 -122h-143v225h143q154 0 235.5 64t81.5 162t-81.5 161.5t-235.5 63.5h-123v215l287 317h-266q-182 0 -260 -68.5
t-78 -217.5v-922h-236z" />
    <glyph glyph-name="endash" unicode="&#x2013;" horiz-adv-x="1433" 
d="M123 451v194h1188v-194h-1188z" />
    <glyph glyph-name="emdash" unicode="&#x2014;" horiz-adv-x="1843" 
d="M123 451v194h1597v-194h-1597z" />
    <glyph glyph-name="quoteleft" unicode="&#x2018;" horiz-adv-x="450" 
d="M82 1126q0 158 75 243t201 85v-102q-61 0 -97 -34t-36 -89l2 -27q19 6 39 6q41 0 72 -37t31 -96q0 -61 -40.5 -102t-99.5 -41q-67 0 -107 49t-40 145z" />
    <glyph glyph-name="quoteright" unicode="&#x2019;" horiz-adv-x="450" 
d="M82 1311q0 61 40 102t99 41q67 0 107.5 -49t40.5 -145q0 -158 -75.5 -243t-201.5 -85v102q61 0 97 34t36 89l-2 27q-19 -6 -39 -6q-40 0 -71 37t-31 96z" />
    <glyph glyph-name="quotesinglbase" unicode="&#x201a;" horiz-adv-x="450" 
d="M82 113q0 61 40 102t99 41q67 0 107.5 -49.5t40.5 -145.5q0 -157 -75.5 -242t-201.5 -85v102q61 0 97 34t36 89l-2 27q-19 -6 -39 -6q-40 0 -71 37t-31 96z" />
    <glyph glyph-name="quotedblleft" unicode="&#x201c;" horiz-adv-x="798" 
d="M430 1126q0 158 75.5 243t201.5 85v-102q-61 0 -97.5 -34t-36.5 -89l2 -27q19 6 39 6q41 0 72 -37t31 -96q0 -61 -40 -102t-99 -41q-67 0 -107.5 49t-40.5 145zM82 1126q0 158 75 243t201 85v-102q-61 0 -97 -34t-36 -89l2 -27q19 6 39 6q41 0 72 -37t31 -96
q0 -61 -40.5 -102t-99.5 -41q-67 0 -107 49t-40 145z" />
    <glyph glyph-name="quotedblright" unicode="&#x201d;" horiz-adv-x="798" 
d="M430 1311q0 61 40 102t99 41q67 0 107.5 -49t40.5 -145q0 -158 -75.5 -243t-201.5 -85v102q61 0 97 34t36 89l-2 27q-19 -6 -39 -6q-40 0 -71 37t-31 96zM82 1311q0 61 40 102t99 41q67 0 107.5 -49t40.5 -145q0 -158 -75.5 -243t-201.5 -85v102q61 0 97 34t36 89l-2 27
q-19 -6 -39 -6q-40 0 -71 37t-31 96z" />
    <glyph glyph-name="quotedblbase" unicode="&#x201e;" horiz-adv-x="798" 
d="M430 113q0 61 40 102t99 41q67 0 107.5 -49.5t40.5 -145.5q0 -157 -75.5 -242t-201.5 -85v102q61 0 97 34t36 89l-2 27q-19 -6 -39 -6q-40 0 -71 37t-31 96zM82 113q0 61 40 102t99 41q67 0 107.5 -49.5t40.5 -145.5q0 -157 -75.5 -242t-201.5 -85v102q61 0 97 34t36 89
l-2 27q-19 -6 -39 -6q-40 0 -71 37t-31 96z" />
    <glyph glyph-name="dagger" unicode="&#x2020;" horiz-adv-x="931" 
d="M82 840v204h276v390h215v-390h277v-204h-277v-840h-215v840h-276z" />
    <glyph glyph-name="daggerdbl" unicode="&#x2021;" horiz-adv-x="931" 
d="M82 297v205h276v430h-276v205h276v297h215v-297h277v-205h-277v-430h277v-205h-277v-297h-215v297h-276z" />
    <glyph glyph-name="bullet" unicode="&#x2022;" horiz-adv-x="860" 
d="M246 573q0 77 54 131t130 54t130 -54t54 -131t-54 -130.5t-130 -53.5t-130 53.5t-54 130.5z" />
    <glyph glyph-name="ellipsis" unicode="&#x2026;" horiz-adv-x="1515" 
d="M1147 113q0 61 40.5 102t102.5 41t103 -41t41 -102t-41 -102.5t-103 -41.5q-61 0 -102 41t-41 103zM614 113q0 61 41 102t103 41t102.5 -41t40.5 -102q0 -62 -41 -103t-102 -41q-62 0 -103 41.5t-41 102.5zM82 113q0 61 41 102t102 41q62 0 103 -41t41 -102t-41.5 -102.5
t-102.5 -41.5t-102 41t-41 103z" />
    <glyph glyph-name="perthousand" unicode="&#x2030;" horiz-adv-x="2344" 
d="M82 1116q0 138 100 238t238 100t238 -100t100 -238t-100 -238t-238 -100t-238 100t-100 238zM256 0l860 1434h205l-860 -1434h-205zM256 1116q0 -76 47 -125t117 -49t117 49t47 125t-47 125t-117 49t-117 -49t-47 -125zM1587 317q0 138 100 238t238 100t238 -100
t100 -238t-100 -237.5t-238 -99.5t-238 99.5t-100 237.5zM819 317q0 138 100 238t238 100t238 -100t100 -238t-100 -237.5t-238 -99.5t-238 99.5t-100 237.5zM1761 317q0 -76 47 -125t117 -49t117 49t47 125t-47 125.5t-117 49.5t-117 -49.5t-47 -125.5zM993 317
q0 -76 47 -125t117 -49t117 49t47 125t-47 125.5t-117 49.5t-117 -49.5t-47 -125.5z" />
    <glyph glyph-name="guilsinglleft" unicode="&#x2039;" horiz-adv-x="778" 
d="M51 522l512 512l144 -143l-379 -369l379 -368l-144 -144z" />
    <glyph glyph-name="guilsinglright" unicode="&#x203a;" horiz-adv-x="778" 
d="M72 154l379 368l-379 369l143 143l512 -512l-512 -512z" />
    <glyph glyph-name="fraction" unicode="&#x2044;" horiz-adv-x="256" 
d="M-410 0l871 1434h205l-871 -1434h-205z" />
    <glyph glyph-name="zerosuperior" unicode="&#x2070;" horiz-adv-x="757" 
d="M51 1290q0 158 97 263.5t231 105.5t231 -105.5t97 -263.5t-97 -263t-231 -105t-231 105t-97 263zM236 1290q0 -101 42.5 -158t100.5 -57t100.5 57t42.5 158t-42.5 158t-100.5 57t-100.5 -57t-42.5 -158z" />
    <glyph glyph-name="foursuperior" unicode="&#x2074;" horiz-adv-x="686" 
d="M41 1075v154l256 409h195l-256 -409h143v123h174v-123h102v-154h-102v-133h-174v133h-338z" />
    <glyph glyph-name="fivesuperior" unicode="&#x2075;" horiz-adv-x="737" 
d="M82 1137h174q1 -3 3 -7t10.5 -14.5t20 -19t32.5 -15t47 -6.5q59 0 91 26t32 66t-32 66.5t-91 26.5q-32 0 -60 -10t-41 -20l-12 -11l-143 30l30 389h461v-143h-328l-10 -133h10q6 5 17 11.5t46 18t71 11.5q122 0 194 -64t72 -172q0 -103 -80 -174t-207 -71
q-54 0 -100.5 12t-77 31t-55 42t-38 45.5t-22 41.5t-11.5 31z" />
    <glyph glyph-name="sixsuperior" unicode="&#x2076;" horiz-adv-x="696" 
d="M51 1167q0 118 113 267l153 204h185l-144 -194l-51 -41v-10q41 20 92 20q100 0 173 -73t73 -173q0 -103 -81.5 -174t-215.5 -71t-215.5 71t-81.5 174zM225 1167q0 -40 32 -66t91 -26t91 26t32 66t-32 66.5t-91 26.5t-91 -26.5t-32 -66.5z" />
    <glyph glyph-name="sevensuperior" unicode="&#x2077;" horiz-adv-x="634" 
d="M41 1485v153h553v-153l-297 -543h-184l297 541v2h-369z" />
    <glyph glyph-name="eightsuperior" unicode="&#x2078;" horiz-adv-x="778" 
d="M72 1126q0 40 16 72.5t38 50.5t44.5 30.5t38.5 16.5l16 4v11q-5 1 -13.5 4t-29.5 14.5t-37 27t-29.5 44.5t-13.5 63q0 87 76 141t211 54t211 -54t76 -141q0 -34 -12.5 -62.5t-31 -44.5t-36.5 -27t-30 -15l-13 -4v-11q6 -1 16.5 -4t37 -16t47 -30.5t37 -50.5t16.5 -73
q0 -83 -83 -143.5t-235 -60.5t-234.5 60.5t-82.5 143.5zM287 1434q0 -33 25 -52.5t77 -19.5t77.5 19.5t25.5 52.5q0 32 -25.5 51.5t-77.5 19.5t-77 -19t-25 -52zM256 1157q0 -34 34 -58t99 -24t99 24t34 58t-34 58t-99 24t-99 -24t-34 -58z" />
    <glyph glyph-name="ninesuperior" unicode="&#x2079;" horiz-adv-x="696" 
d="M51 1413q0 103 81.5 174.5t215.5 71.5t215.5 -71.5t81.5 -174.5q0 -117 -113 -266l-153 -205h-184l143 195l51 41v10q-41 -21 -92 -21q-100 0 -173 73t-73 173zM225 1413q0 -40 32 -66t91 -26t91 26t32 66t-32 66t-91 26t-91 -26t-32 -66z" />
    <glyph glyph-name="zeroinferior" unicode="&#x2080;" horiz-adv-x="757" 
d="M51 143q0 158 97 263.5t231 105.5t231 -105.5t97 -263.5t-97 -263t-231 -105t-231 105t-97 263zM236 143q0 -101 42.5 -158t100.5 -57t100.5 57t42.5 158t-42.5 158t-100.5 57t-100.5 -57t-42.5 -158z" />
    <glyph glyph-name="oneinferior" unicode="&#x2081;" horiz-adv-x="716" 
d="M113 -205v154h194v358l-174 -102v184l184 103h164v-543h185v-154h-553z" />
    <glyph glyph-name="twoinferior" unicode="&#x2082;" horiz-adv-x="737" 
d="M72 -205v154l164 102q144 90 189.5 130.5t45.5 84.5q0 40 -30.5 66t-82.5 26q-45 0 -75.5 -23t-38.5 -46l-8 -23h-164q1 5 2.5 14t10 34.5t20.5 48.5t35.5 51.5t53 49t75.5 34.5t100 14q134 0 210 -65.5t76 -165.5q0 -154 -204 -271l-72 -41l-82 -20v-10l82 10h287v-154
h-594z" />
    <glyph glyph-name="threeinferior" unicode="&#x2083;" horiz-adv-x="716" 
d="M61 0h175q1 -3 3 -8t11 -17t21 -21.5t35 -17.5t52 -8q55 0 84 23t29 59t-31 59t-92 23h-143v133l194 123v10l-82 -10h-215v144h512v-134l-143 -112l-82 -31v-10q31 10 62 10q85 0 144.5 -60t59.5 -145q0 -96 -80 -165.5t-206 -69.5q-54 0 -100.5 12.5t-77 32.5t-55 44
t-38 47.5t-22.5 43.5t-12 33z" />
    <glyph glyph-name="fourinferior" unicode="&#x2084;" horiz-adv-x="686" 
d="M41 -72v154l256 410h195l-256 -410h143v123h174v-123h102v-154h-102v-133h-174v133h-338z" />
    <glyph glyph-name="fiveinferior" unicode="&#x2085;" horiz-adv-x="737" 
d="M82 -10h174q1 -3 3 -7t10.5 -14.5t20 -19t32.5 -15t47 -6.5q59 0 91 26t32 66t-32 66.5t-91 26.5q-32 0 -60.5 -10.5t-40.5 -20.5l-12 -10l-143 30l30 390h461v-144h-328l-10 -133h10q6 5 17 11.5t46 18t71 11.5q122 0 194 -64t72 -172q0 -103 -80 -174t-207 -71
q-54 0 -100.5 12t-77 31t-55 41.5t-38 45.5t-22 42t-11.5 31z" />
    <glyph glyph-name="sixinferior" unicode="&#x2086;" horiz-adv-x="696" 
d="M51 20q0 118 113 267l153 205h185l-144 -195l-51 -41v-10q41 20 92 20q100 0 173 -73t73 -173q0 -103 -81.5 -174t-215.5 -71t-215.5 71t-81.5 174zM225 20q0 -40 32 -66t91 -26t91 26t32 66t-32 66.5t-91 26.5t-91 -26.5t-32 -66.5z" />
    <glyph glyph-name="seveninferior" unicode="&#x2087;" horiz-adv-x="634" 
d="M41 338v154h553v-154l-297 -543h-184l297 541v2h-369z" />
    <glyph glyph-name="eightinferior" unicode="&#x2088;" horiz-adv-x="778" 
d="M72 -20q0 40 16 72.5t38 50.5t44.5 30.5t38.5 16.5l16 4v10q-5 1 -13.5 4t-29.5 14.5t-37 27t-29.5 44.5t-13.5 63q0 87 76 141t211 54t211 -54t76 -141q0 -34 -12.5 -62.5t-31 -44.5t-36.5 -27t-30 -15l-13 -4v-10q6 -1 16.5 -4t37 -16t47 -30.5t37 -50.5t16.5 -73
q0 -83 -83 -144t-235 -61t-234.5 60.5t-82.5 144.5zM287 287q0 -33 25 -52.5t77 -19.5t77.5 19.5t25.5 52.5q0 32 -25.5 51.5t-77.5 19.5t-77 -19t-25 -52zM256 10q0 -34 34 -58t99 -24t99 24t34 58t-34 58t-99 24t-99 -24t-34 -58z" />
    <glyph glyph-name="nineinferior" unicode="&#x2089;" horiz-adv-x="696" 
d="M51 266q0 103 81.5 174.5t215.5 71.5t215.5 -71.5t81.5 -174.5q0 -117 -113 -266l-153 -205h-184l143 195l51 41v10q-41 -21 -92 -21q-100 0 -173 73t-73 173zM225 266q0 -40 32 -66t91 -26t91 26t32 66t-32 66t-91 26t-91 -26t-32 -66z" />
    <glyph glyph-name="Euro" unicode="&#x20ac;" horiz-adv-x="1720" 
d="M41 451v184h123q-4 54 -4 82t4 82h-123v184h154q77 218 276.5 355t450.5 137q95 0 180.5 -18t149.5 -48t119.5 -69.5t94 -82.5t69.5 -86.5t49.5 -83t31 -69.5t17.5 -48l5 -18h-235q-2 6 -7 17t-24 41.5t-42 58.5t-63.5 62.5t-87.5 59t-114.5 41.5t-142.5 17
q-159 0 -279 -70.5t-182 -195.5h481v-184h-543q-4 -54 -4 -82t4 -82h543v-184h-481q63 -125 182.5 -196t278.5 -71q77 0 146 18t117.5 47t88.5 64t65 70t42.5 64t24.5 47l7 18h236q-3 -12 -10 -31.5t-34 -77t-61.5 -110t-95 -116t-131.5 -109.5t-174.5 -77.5t-220.5 -31.5
q-251 0 -446 133.5t-281 358.5h-154z" />
    <glyph glyph-name="uni20B4" unicode="&#x20b4;" horiz-adv-x="1310" 
d="M92 778v174h778q6 6 14.5 16.5t23 45.5t14.5 71q0 75 -71 125t-216 50q-69 0 -125 -17t-86.5 -41t-51.5 -48t-28 -41l-6 -17h-246q2 8 6 21.5t21.5 53t41.5 75.5t69 79.5t99.5 75t137 53t178.5 21.5q126 0 227.5 -30t164.5 -80.5t96.5 -113.5t33.5 -133
q0 -42 -12.5 -83.5t-25.5 -62.5l-13 -20h103v-174h-1127zM92 481v174h1127v-174h-779q-6 -6 -14.5 -16.5t-22.5 -45.5t-14 -71q0 -75 71 -124.5t216 -49.5q69 0 125 17t86.5 41t51.5 48t27 41l7 17h246q-2 -8 -6 -21.5t-21.5 -53t-41.5 -75.5t-69 -79.5t-99.5 -75t-137 -53
t-178.5 -21.5q-126 0 -228 30t-165 80t-96.5 113t-33.5 133q0 42 13 83.5t26 61.5l13 21h-103z" />
    <glyph glyph-name="uni20BD" unicode="&#x20bd;" horiz-adv-x="1351" 
d="M61 174v205h154v153h-154v216h154v686h522q261 0 407 -126t146 -325t-146 -325t-407 -126h-286v-153h491v-205h-491v-174h-236v174h-154zM451 748h286q156 0 231.5 62t75.5 173q0 112 -75.5 174t-231.5 62h-286v-471z" />
    <glyph glyph-name="afii61352" unicode="&#x2116;" horiz-adv-x="2201" 
d="M1444 1116q0 139 101.5 238.5t246.5 99.5t246.5 -99.5t101.5 -238.5t-101.5 -238.5t-246.5 -99.5t-246.5 99.5t-101.5 238.5zM143 0v1434h328l533 -973l61 -174h20l-10 174v973h236v-1434h-328l-532 973l-62 174h-20l10 -174v-973h-236zM1638 1116q0 -69 42.5 -111
t111.5 -42t111.5 42t42.5 111t-42.5 111.5t-111.5 42.5t-111.5 -42.5t-42.5 -111.5zM1495 451v194h594v-194h-594z" />
    <glyph glyph-name="trademark" unicode="&#x2122;" horiz-adv-x="1617" 
d="M696 778v656h281l129 -338h20l129 338h281v-656h-184v359l12 112h-10l-125 -327h-225l-125 327h-11l13 -112v-359h-185zM10 1260v174h615v-174h-215v-482h-185v482h-215z" />
    <glyph glyph-name="arrowleft" unicode="&#x2190;" horiz-adv-x="1843" 
d="M184 686v21l369 358h31v-307h1075v-123h-1075v-307h-31z" />
    <glyph glyph-name="arrowup" unicode="&#x2191;" horiz-adv-x="1843" 
d="M547 1044v31l358 359h31l358 -359v-31h-307v-1044h-133v1044h-307z" />
    <glyph glyph-name="arrowright" unicode="&#x2192;" horiz-adv-x="1843" 
d="M184 635v123h1076v307h30l369 -358v-21l-369 -358h-30v307h-1076z" />
    <glyph glyph-name="arrowdown" unicode="&#x2193;" horiz-adv-x="1843" 
d="M547 358v31h307v1045h133v-1045h307v-31l-358 -358h-31z" />
    <glyph glyph-name="uni2196" unicode="&#x2196;" horiz-adv-x="1843" 
d="M369 737v523l20 20h522v-31l-215 -211l779 -780l-82 -84l-781 778l-215 -215h-28z" />
    <glyph glyph-name="uni2197" unicode="&#x2197;" horiz-adv-x="1843" 
d="M369 258l778 780l-215 211v31h522l21 -20v-523h-29l-215 215l-780 -778z" />
    <glyph glyph-name="uni2198" unicode="&#x2198;" horiz-adv-x="1843" 
d="M369 1196l82 84l780 -778l215 215h29v-522l-21 -21h-522v31l215 211z" />
    <glyph glyph-name="uni2199" unicode="&#x2199;" horiz-adv-x="1843" 
d="M369 195v522h28l215 -215l781 778l82 -84l-779 -780l215 -211v-31h-522z" />
    <glyph glyph-name="minus" unicode="&#x2212;" horiz-adv-x="1054" 
d="M123 451v204h809v-204h-809z" />
    <glyph glyph-name="approxequal" unicode="&#x2248;" horiz-adv-x="1105" 
d="M133 594v31q0 245 236 245q59 0 114.5 -17.5t89.5 -38.5t71 -38.5t63 -17.5q31 0 51 20t20 51v31h195v-31q0 -129 -60.5 -187t-185.5 -58q-59 0 -113 17.5t-86 38.5t-67.5 38.5t-61.5 17.5q-31 0 -51 -20t-20 -51v-31h-195zM133 246v30q0 246 236 246q59 0 114.5 -17.5
t89.5 -38.5t71 -38.5t63 -17.5q31 0 51 20t20 51v31h195v-31q0 -129 -60.5 -187t-185.5 -58q-59 0 -113 17.5t-86 38.5t-67.5 38.5t-61.5 17.5q-31 0 -51 -20.5t-20 -51.5v-30h-195z" />
    <glyph glyph-name="notequal" unicode="&#x2260;" horiz-adv-x="1044" 
d="M143 0l127 256h-127v195h226l92 184h-318v194h414l129 256h195l-129 -256h149v-194h-246l-92 -184h338v-195h-436l-127 -256h-195z" />
    <glyph glyph-name="lessequal" unicode="&#x2264;" horiz-adv-x="1085" 
d="M123 573v226l819 317v-205l-594 -215v-20l594 -215v-205zM123 276v195l819 -317v-195z" />
    <glyph glyph-name="greaterequal" unicode="&#x2265;" horiz-adv-x="1085" 
d="M143 256v205l594 215v20l-594 215v205l820 -317v-226zM143 -41v195l820 317v-195z" />
    <glyph glyph-name="commaaccent" unicode="&#xf6c3;" horiz-adv-x="399" 
d="M61 -324q0 52 35.5 85.5t93.5 33.5q66 0 107 -45.5t41 -128.5q0 -276 -266 -276v102q66 0 99.5 25.5t33.5 66.5l-2 27q-19 -6 -39 -6q-47 0 -75 30t-28 86z" />
    <glyph glyph-name="cyrBreve" unicode="&#xf6d1;" horiz-adv-x="798" 
d="M61 1853h195q0 -62 37.5 -97.5t105.5 -35.5t106 35.5t38 97.5h194q0 -133 -90 -215t-248 -82t-248 82t-90 215z" />
    <glyph glyph-name="cyrbreve" unicode="&#xf6d4;" horiz-adv-x="757" 
d="M61 1413h175q0 -113 143 -113t143 113h174q0 -120 -80.5 -193t-236.5 -73t-237 73t-81 193z" />
    <glyph glyph-name="zero.oldstyle" unicode="&#xf730;" horiz-adv-x="1208" 
d="M61 522q0 230 156.5 386.5t386.5 156.5t386.5 -156.5t156.5 -386.5t-156.5 -386t-386.5 -156t-386.5 156t-156.5 386zM287 522q0 -159 88.5 -253.5t228.5 -94.5t229 94.5t89 253.5t-89 253.5t-229 94.5t-228.5 -94.5t-88.5 -253.5z" />
    <glyph glyph-name="one.oldstyle" unicode="&#xf731;" horiz-adv-x="614" 
d="M51 614v246l246 184h195v-1044h-216v788z" />
    <glyph glyph-name="two.oldstyle" unicode="&#xf732;" horiz-adv-x="1034" 
d="M41 707q1 7 4 20t17.5 50.5t34 71t56.5 75t82.5 71t115.5 50t151 20.5q202 0 321 -105t119 -264q0 -129 -69.5 -228.5t-210.5 -176.5l-119 -66l-123 -41v-10l141 21h422v-195h-911v174l430 246q105 60 160 123t55 143q0 79 -59 131.5t-156 52.5q-55 0 -99 -17t-68.5 -41
t-41 -47.5t-21.5 -40.5l-6 -17h-225z" />
    <glyph glyph-name="three.oldstyle" unicode="&#xf733;" horiz-adv-x="1064" 
d="M10 10h226q1 -9 4.5 -24t22 -54t45.5 -68.5t81 -54t123 -24.5q135 0 205.5 62.5t70.5 172.5q0 109 -75 172.5t-211 63.5h-174v195h174q120 0 188 60t68 155q0 87 -67 145.5t-179 58.5q-55 0 -100 -16t-71 -38t-44 -44.5t-25 -38.5l-6 -16h-215q2 7 5.5 19.5t19.5 49
t37 69t59 73t83 69t112.5 48.5t144.5 20q209 0 335 -110t126 -269q0 -52 -12 -97.5t-31 -75.5t-41.5 -55t-45.5 -39t-42 -23.5t-31 -13.5l-12 -3v-10q5 -1 14.5 -3.5t36 -14t50.5 -26.5t53.5 -43t51 -62.5t36 -86.5t14.5 -113q0 -189 -134.5 -309.5t-367.5 -120.5
q-94 0 -172.5 23t-129 60t-89.5 82t-59 90t-32.5 82t-15.5 60z" />
    <glyph glyph-name="four.oldstyle" unicode="&#xf734;" horiz-adv-x="1075" 
d="M0 0v195l481 849h246l-481 -849h389v368h215v-368h225v-195h-225v-389h-215v389h-635z" />
    <glyph glyph-name="five.oldstyle" unicode="&#xf735;" horiz-adv-x="1095" 
d="M51 10h225q1 -9 4 -24t20.5 -54t44 -68.5t81.5 -54t127 -24.5q123 0 199.5 76.5t76.5 199.5t-76.5 200t-199.5 77q-49 0 -92 -12.5t-70 -31t-47 -36.5t-28 -30l-9 -13h-194l51 829h799v-194h-605l-30 -399h10q3 3 9 8.5t28.5 19.5t50.5 24.5t75.5 19.5t102.5 9
q185 0 318 -134.5t133 -325.5q0 -217 -136.5 -349.5t-365.5 -132.5q-74 0 -139 14.5t-111.5 38.5t-85.5 55.5t-64 66.5t-45 70t-30 66.5t-16.5 55.5t-8.5 39z" />
    <glyph glyph-name="six.oldstyle" unicode="&#xf736;" horiz-adv-x="1187" 
d="M61 481q0 77 17 147.5t53 138.5t69 117t87 120l327 430h256l-317 -410l-102 -92v-10q8 6 23 14.5t63 22.5t98 14q207 0 349 -142.5t142 -349.5q0 -102 -40.5 -194.5t-110 -160t-169 -107t-212.5 -39.5q-150 0 -273 67.5t-191.5 182t-68.5 251.5zM287 481
q0 -131 88.5 -219t218.5 -88t218.5 88t88.5 219t-88.5 219t-218.5 88t-218.5 -88t-88.5 -219z" />
    <glyph glyph-name="seven.oldstyle" unicode="&#xf737;" horiz-adv-x="952" 
d="M0 850v194h952v-194l-553 -1239h-225l543 1218v21h-717z" />
    <glyph glyph-name="eight.oldstyle" unicode="&#xf738;" horiz-adv-x="1228" 
d="M72 389q0 61 15 114t39.5 89.5t54 66.5t59 47.5t54 30t39.5 17.5l15 4v10q-4 2 -12 5.5t-30.5 16.5t-42.5 28.5t-45 42.5t-43 58t-30 74.5t-12 91.5q0 154 130 261.5t351 107.5t351.5 -107.5t130.5 -261.5q0 -48 -12 -91.5t-31 -74.5t-42 -57.5t-45.5 -43t-41.5 -28.5
t-31 -17l-12 -5v-10q6 -2 16 -5t38.5 -16.5t54.5 -30.5t58 -48t55 -67t38.5 -89t15.5 -113q0 -81 -36.5 -154.5t-104 -130.5t-171.5 -90.5t-231 -33.5t-231 33.5t-171 90.5t-103.5 130.5t-36.5 154.5zM358 1055q0 -88 68.5 -146.5t187.5 -58.5t187.5 58.5t68.5 146.5
t-68.5 146.5t-187.5 58.5t-187.5 -58.5t-68.5 -146.5zM297 410q0 -105 81 -170.5t236 -65.5t236.5 65.5t81.5 170.5q0 104 -85 174.5t-233 70.5t-232.5 -70.5t-84.5 -174.5z" />
    <glyph glyph-name="nine.oldstyle" unicode="&#xf739;" horiz-adv-x="1187" 
d="M61 563q0 102 40.5 194.5t110.5 160t169.5 107.5t212.5 40t212.5 -40t169 -107.5t110 -160t40.5 -194.5q0 -77 -17 -147.5t-52.5 -138t-68.5 -116.5t-87 -120l-328 -430h-256l318 409l102 93v10q-8 -6 -23 -14.5t-63 -22.5t-98 -14q-207 0 -349.5 142t-142.5 349z
M287 563q0 -131 88.5 -219t218.5 -88t218.5 88t88.5 219t-88.5 219t-218.5 88t-218.5 -88t-88.5 -219z" />
    <glyph glyph-name="ecaron.sc" 
d="M143 0v1229h922v-225h-686v-267h563v-225h-563v-287h686v-225h-922zM266 1710h195l133 -174h31l133 174h194v-2l-235 -295h-215l-236 295v2z" />
    <glyph glyph-name="ecircumflex.sc" 
d="M143 0v1229h922v-225h-686v-267h563v-225h-563v-287h686v-225h-922zM266 1415l236 295h215l235 -295v-2h-194l-133 174h-31l-133 -174h-195v2z" />
    <glyph glyph-name="parenright.case" horiz-adv-x="768" 
d="M41 -72q8 6 21.5 18t53 52.5t75.5 85.5t79.5 116t75 145.5t53 173t21.5 198.5q0 79 -13 156.5t-35 141.5t-50.5 124.5t-60 108.5t-62.5 90t-59.5 72t-50.5 52t-35 32l-13 11l102 164q10 -7 28.5 -20.5t70.5 -60.5t99.5 -100t105.5 -138.5t99.5 -175.5t70 -211t28.5 -246
q0 -99 -17 -194.5t-46 -173.5t-67 -151.5t-79.5 -131t-83 -107t-79.5 -85t-67 -61t-46 -37.5l-17 -12z" />
    <glyph glyph-name="bracketleft.case" horiz-adv-x="686" 
d="M143 -174v1782h502v-205h-276v-1372h276v-205h-502z" />
    <glyph glyph-name="bracketright.case" horiz-adv-x="686" 
d="M41 -174v205h276v1372h-276v205h502v-1782h-502z" />
    <glyph glyph-name="braceleft.case" horiz-adv-x="737" 
d="M61 625v194h72q38 0 65 27t27 65v400q0 297 318 297h153v-205h-123q-60 0 -91 -28t-31 -75v-389q0 -46 -15 -82t-36 -54t-42 -30t-36 -15l-15 -3v-10q6 -1 15.5 -3.5t34.5 -15t44 -30.5t34.5 -54t15.5 -82v-399q0 -47 31 -74.5t91 -27.5h123v-205h-153q-318 0 -318 297
v409q0 38 -27 65.5t-65 27.5h-72z" />
    <glyph glyph-name="braceright.case" horiz-adv-x="737" 
d="M41 -174v205h123q60 0 91.5 27.5t31.5 74.5v399q0 46 14.5 82t35.5 54.5t42.5 30.5t36.5 15l14 3v10q-6 1 -15.5 3t-34 14.5t-43.5 30.5t-34.5 54t-15.5 82v389q0 47 -31.5 75t-91.5 28h-123v205h154q317 0 317 -297v-400q0 -38 27 -65t65 -27h72v-194h-72
q-38 0 -65 -27.5t-27 -65.5v-409q0 -297 -317 -297h-154z" />
    <glyph glyph-name="exclamdown.case" horiz-adv-x="573" 
d="M143 1321q0 61 41 102t103 41q61 0 102 -41t41 -102t-41 -102t-102 -41q-62 0 -103 41t-41 102zM174 0v707l41 297h143l41 -297v-707h-225z" />
    <glyph glyph-name="questiondown.case" horiz-adv-x="1085" 
d="M430 1321q0 61 41 102t102 41q62 0 103 -41t41 -102t-41 -102t-103 -41q-61 0 -102 41t-41 102zM41 379q0 77 23 138t60 100.5t82 72.5t90 63t82 63t60 80.5t23 107.5h225q0 -81 -22 -145t-57 -105.5t-77.5 -75.5t-85.5 -63.5t-78 -60.5t-57 -75t-22 -100
q0 -88 68.5 -146.5t187.5 -58.5q48 0 90 12.5t70 32.5t51.5 43.5t36.5 47.5t22 44t13 32l3 13h236q-2 -9 -5.5 -25t-19.5 -61.5t-38 -87t-64 -92.5t-94 -87.5t-130.5 -61.5t-170.5 -25q-108 0 -203 35.5t-160 94t-102 134.5t-37 156z" />
    <glyph glyph-name="guillemotleft.case" horiz-adv-x="1167" 
d="M522 707l441 512l133 -134l-328 -378l328 -379l-133 -133zM51 707l441 512l133 -134l-328 -378l328 -379l-133 -133z" />
    <glyph glyph-name="guillemotright.case" horiz-adv-x="1167" 
d="M543 328l327 379l-327 378l133 134l440 -512l-440 -512zM72 328l327 379l-327 378l133 134l440 -512l-440 -512z" />
    <glyph glyph-name="guilsinglleft.case" horiz-adv-x="778" 
d="M51 707l512 512l144 -144l-379 -368l379 -369l-144 -143z" />
    <glyph glyph-name="guilsinglright.case" horiz-adv-x="778" 
d="M72 338l379 369l-379 368l143 144l512 -512l-512 -512z" />
    <glyph glyph-name="hyphen.case" horiz-adv-x="993" 
d="M123 686v205h747v-205h-747z" />
    <glyph glyph-name="endash.case" horiz-adv-x="1433" 
d="M123 676v194h1188v-194h-1188z" />
    <glyph glyph-name="emdash.case" horiz-adv-x="1843" 
d="M123 676v194h1597v-194h-1597z" />
    <glyph glyph-name="periodcentered.case" horiz-adv-x="573" 
d="M143 748q0 61 41 102t103 41q61 0 102 -40.5t41 -102.5t-41 -103t-102 -41t-102.5 41t-41.5 103z" />
    <glyph glyph-name="Iogonek.alt" horiz-adv-x="1054" 
d="M82 0v225h328v983h-328v226h891v-226h-328v-983h328v-225q-2 0 -26.5 -13.5t-61.5 -39.5t-73 -57.5t-61.5 -73.5t-25.5 -82q0 -39 23.5 -60.5t68.5 -21.5q32 0 68 10t56 20l20 11v-133q-62 -41 -154 -41q-225 0 -225 194q0 52 26.5 100.5t64 80.5t75 57.5t64.5 36.5
l26 12h-756z" />
    <glyph glyph-name="gbreve.alt" horiz-adv-x="1146" 
d="M10 -113q0 57 25.5 106t61.5 77t72 48.5t61 27.5l26 8v204q-7 4 -19.5 11.5t-44.5 35.5t-56 61.5t-44 90t-20 119.5q0 166 125 277.5t335 111.5q41 0 79.5 -5.5t56.5 -10.5l18 -5h461v-184h-195l-20 2v-2q7 -8 17 -23t27 -63t17 -98q0 -166 -125.5 -277.5t-335.5 -111.5
l-71 4v-109q40 2 71 2q110 0 199.5 -16t149 -44t99.5 -66t57.5 -80.5t17.5 -90.5t-17.5 -90.5t-57.5 -80.5t-99.5 -66t-149 -44t-199.5 -16q-137 0 -240.5 24.5t-163.5 67t-89 94t-29 111.5zM297 676q0 -87 61.5 -141t173.5 -54t174 54t62 141t-61.5 140.5t-174.5 53.5
q-112 0 -173.5 -53.5t-61.5 -140.5zM236 -113q0 -123 296 -123q85 0 145.5 10.5t92 28.5t45.5 38.5t14 45.5t-14 45.5t-45.5 38.5t-92 28.5t-145.5 10.5q-296 0 -296 -123zM215 1516h174q0 -113 143 -113q144 0 144 113h174q0 -121 -81 -194t-237 -73t-236.5 73t-80.5 194z
" />
    <glyph glyph-name="gcommaaccent.alt" horiz-adv-x="1146" 
d="M395 1382q0 137 68 207t199 70v-103q-66 0 -100 -25.5t-34 -66.5l2 -26q19 6 39 6q47 0 75 -30.5t28 -86.5q0 -52 -35.5 -85.5t-93.5 -33.5q-66 0 -107 45.5t-41 128.5zM10 -113q0 57 25.5 106t61.5 77t72 48.5t61 27.5l26 8v204q-7 4 -19.5 11.5t-44.5 35.5t-56 61.5
t-44 90t-20 119.5q0 166 125 277.5t335 111.5q41 0 79.5 -5.5t56.5 -10.5l18 -5h461v-184h-195l-20 2v-2q7 -8 17 -23t27 -63t17 -98q0 -166 -125.5 -277.5t-335.5 -111.5l-71 4v-109q40 2 71 2q110 0 199.5 -16t149 -44t99.5 -66t57.5 -80.5t17.5 -90.5t-17.5 -90.5
t-57.5 -80.5t-99.5 -66t-149 -44t-199.5 -16q-137 0 -240.5 24.5t-163.5 67t-89 94t-29 111.5zM297 676q0 -87 61.5 -141t173.5 -54t174 54t62 141t-61.5 140.5t-174.5 53.5q-112 0 -173.5 -53.5t-61.5 -140.5zM236 -113q0 -123 296 -123q85 0 145.5 10.5t92 28.5t45.5 38.5
t14 45.5t-14 45.5t-45.5 38.5t-92 28.5t-145.5 10.5q-296 0 -296 -123z" />
    <glyph glyph-name="Adieresis.alt2" horiz-adv-x="1392" 
d="M1055 1331q0 54 34.5 88.5t88.5 34.5t88 -34.5t34 -88.5t-34 -88.5t-88 -34.5t-88.5 34.5t-34.5 88.5zM82 1331q0 54 34.5 88.5t88.5 34.5t88.5 -34.5t34.5 -88.5t-34.5 -88.5t-88.5 -34.5t-88.5 34.5t-34.5 88.5zM31 0l368 1434h584l379 -1434h-246l-98 369h-660
l-92 -369h-235zM420 594h541l-162 614h-226z" />
    <glyph glyph-name="Odieresis.alt2" horiz-adv-x="1699" 
d="M82 717q0 89 18.5 173t45 140.5t53 100.5t45.5 65l18 21q-24 -9 -47 -9q-54 0 -88.5 34.5t-34.5 88.5t34.5 88.5t88.5 34.5t88.5 -34.5t34.5 -88.5q0 -23 -8 -47q11 11 26.5 24.5t65.5 46t105.5 57t142.5 44t180 19.5t180.5 -19.5t145 -46t103.5 -56t66 -47t23 -22.5
l-2 6q-1 6 -2.5 17t-1.5 24q0 54 34.5 88.5t88.5 34.5t88.5 -34.5t34.5 -88.5t-34.5 -88.5t-88.5 -34.5q-10 0 -22 2t-19 4l-6 3q7 -7 19.5 -21.5t43.5 -63t54.5 -102.5t43 -139t19.5 -174q0 -159 -58.5 -299.5t-160 -241t-244.5 -159t-305 -58.5t-305 58.5t-244.5 159
t-160 241t-58.5 299.5zM328 717q0 -237 145.5 -385t376.5 -148t376.5 148t145.5 385t-145.5 384.5t-376.5 147.5t-376.5 -147.5t-145.5 -384.5z" />
    <glyph glyph-name="Aring.alt2" horiz-adv-x="1392" 
d="M31 0l368 1434h113q-31 31 -31 92q0 72 58.5 123t152.5 51t152.5 -51t58.5 -123q0 -27 -8.5 -50t-16.5 -32l-8 -10h113l379 -1434h-246l-98 369h-660l-92 -369h-235zM594 1516q0 -36 26 -59t72 -23q48 1 73.5 24t25.5 58q0 36 -26.5 58.5t-72.5 22.5t-72 -22.5t-26 -58.5
zM420 594h541l-162 614h-226z" />
    <glyph glyph-name="Udieresis.alt2" horiz-adv-x="1433" 
d="M1061 1331q0 54 34.5 88.5t88.5 34.5t88.5 -34.5t34.5 -88.5t-34.5 -88.5t-88.5 -34.5t-88.5 34.5t-34.5 88.5zM127 1331q0 54 34.5 88.5t88.5 34.5t88.5 -34.5t34.5 -88.5t-34.5 -88.5t-88.5 -34.5t-88.5 34.5t-34.5 88.5zM133 553v614h236v-614q0 -176 92.5 -272.5
t255.5 -96.5t255.5 96.5t92.5 272.5v614h235v-614q0 -276 -157 -435t-426 -159t-426.5 159t-157.5 435z" />
    <glyph glyph-name="Scaron.alt2" horiz-adv-x="1320" 
d="M72 430h245q2 -10 6.5 -27.5t29 -61.5t60 -78t105 -61.5t158.5 -27.5q161 0 239 58.5t78 156.5q0 62 -47.5 105.5t-123.5 69.5t-167.5 49.5t-183 55t-167.5 75t-123.5 120t-47.5 180.5q0 141 101.5 256.5t267.5 153.5l-164 215h194l134 -194h30l133 194h195l-174 -225
q67 -15 124 -44t95 -64.5t68 -74.5t46.5 -75.5t27.5 -66t15 -47.5l3 -17h-246q-1 4 -2.5 11.5t-10.5 29t-21.5 40.5t-37.5 43t-56.5 41t-80.5 28.5t-108 11.5q-140 0 -213.5 -57.5t-73.5 -147.5q0 -62 47.5 -106t123.5 -71t167.5 -51.5t183 -56t167.5 -75t123.5 -119
t47.5 -177.5q0 -89 -38 -168.5t-108.5 -140t-178 -96t-238.5 -35.5q-87 0 -163.5 16t-132 43.5t-102.5 62.5t-77.5 74.5t-55 78.5t-38 74t-22 62.5t-11.5 43.5z" />
    <glyph glyph-name="Zcaron.alt2" horiz-adv-x="1259" 
d="M61 0v225l811 963v20h-790v226h358l-176 233l2 2h195l153 -235h31l154 235h194v-2l-174 -233h359v-226l-811 -962v-21h831v-225h-1137z" />
    <glyph glyph-name="Otilde.alt2" horiz-adv-x="1699" 
d="M512 1434v61q0 85 56.5 140t148.5 55q48 0 90 -17.5t66 -39t53.5 -39t56.5 -17.5q23 0 37 14t14 37v51h154v-61q0 -85 -56.5 -140t-148.5 -55q-48 0 -90 17.5t-66 39t-53.5 39t-56.5 17.5q-23 0 -37 -14t-14 -37v-51h-154zM82 666q0 145 57 274.5t157 224.5t244 151
t310 56t310 -56t244 -151t157 -224.5t57 -274.5q0 -193 -97 -354.5t-274 -257t-397 -95.5t-397 95.5t-274 257t-97 354.5zM328 666q0 -210 143.5 -346t378.5 -136t378.5 136t143.5 346t-143.5 345.5t-378.5 135.5t-378.5 -135.5t-143.5 -345.5z" />
    <glyph glyph-name="I.alt" horiz-adv-x="1054" 
d="M82 0v225h328v983h-328v226h891v-226h-328v-983h328v-225h-891z" />
    <glyph glyph-name="y.alt" horiz-adv-x="1044" 
d="M20 1044h226l225 -839h113l245 839h226l-318 -1064q-15 -49 -27 -83t-32.5 -75.5t-43 -70t-56 -57t-74 -45.5t-96 -27.5t-121.5 -10.5h-154v194h154q57 0 95.5 10t64 33.5t40.5 53t29 78.5l6 20h-215z" />
    <glyph glyph-name="afii10085.alt" horiz-adv-x="1044" 
d="M20 1044h226l225 -839h113l245 839h226l-318 -1064q-15 -49 -27 -83t-32.5 -75.5t-43 -70t-56 -57t-74 -45.5t-96 -27.5t-121.5 -10.5h-154v194h154q57 0 95.5 10t64 33.5t40.5 53t29 78.5l6 20h-215z" />
    <glyph glyph-name="l.alt" horiz-adv-x="460" 
d="M123 0v1434h215v-1434h-215z" />
    <glyph glyph-name="ydieresis.alt" horiz-adv-x="1044" 
d="M20 1044h226l225 -839h113l245 839h226l-318 -1064q-15 -49 -27 -83t-32.5 -75.5t-43 -70t-56 -57t-74 -45.5t-96 -27.5t-121.5 -10.5h-154v194h154q57 0 95.5 10t64 33.5t40.5 53t29 78.5l6 20h-215zM612 1382q0 54 34.5 88.5t88.5 34.5t88.5 -34.5t34.5 -88.5
t-34.5 -88t-88.5 -34t-88.5 34t-34.5 88zM233 1382q0 54 34.5 88.5t88.5 34.5t88.5 -34.5t34.5 -88.5t-34.5 -88t-88.5 -34t-88.5 34t-34.5 88z" />
    <glyph glyph-name="yacute.alt" horiz-adv-x="1044" 
d="M20 1044h226l225 -839h113l245 839h226l-318 -1064q-15 -49 -27 -83t-32.5 -75.5t-43 -70t-56 -57t-74 -45.5t-96 -27.5t-121.5 -10.5h-154v194h154q57 0 95.5 10t64 33.5t40.5 53t29 78.5l6 20h-215zM459 1249l164 297h256v-2l-236 -295h-184z" />
    <glyph glyph-name="Imacron.alt" horiz-adv-x="1054" 
d="M82 0v225h328v983h-328v226h891v-226h-328v-983h328v-225h-891zM240 1649v174h573v-174h-573z" />
    <glyph glyph-name="Idotaccent.alt" horiz-adv-x="1054" 
d="M82 0v225h328v983h-328v226h891v-226h-328v-983h328v-225h-891zM399 1745q0 54 36.5 91.5t90.5 37.5t91.5 -37.5t37.5 -91.5t-37.5 -90.5t-91.5 -36.5t-90.5 36.5t-36.5 90.5z" />
    <glyph glyph-name="Idieresis.alt" horiz-adv-x="1054" 
d="M82 0v225h328v983h-328v226h891v-226h-328v-983h328v-225h-891zM594 1751q0 54 34.5 88.5t88.5 34.5t88.5 -34.5t34.5 -88.5t-34.5 -88.5t-88.5 -34.5t-88.5 34.5t-34.5 88.5zM215 1751q0 54 34.5 88.5t88.5 34.5t88.5 -34.5t34.5 -88.5t-34.5 -88.5t-88.5 -34.5
t-88.5 34.5t-34.5 88.5z" />
    <glyph glyph-name="Icircumflex.alt" horiz-adv-x="1054" 
d="M82 0v225h328v983h-328v226h891v-226h-328v-983h328v-225h-891zM184 1620l236 295h215l235 -295v-2h-194l-133 174h-31l-133 -174h-195v2z" />
    <glyph glyph-name="Iacute.alt" horiz-adv-x="1054" 
d="M82 0v225h328v983h-328v226h891v-226h-328v-983h328v-225h-891zM428 1618l164 297h256v-2l-236 -295h-184z" />
    <glyph glyph-name="Igrave.alt" horiz-adv-x="1054" 
d="M82 0v225h328v983h-328v226h891v-226h-328v-983h328v-225h-891zM203 1915h256l164 -297h-185l-235 295v2z" />
    <glyph glyph-name="lcommaaccent.alt" horiz-adv-x="460" 
d="M123 0v1434h215v-1434h-215zM92 -324q0 52 35.5 85.5t93.5 33.5q66 0 107 -45.5t41 -128.5q0 -137 -68 -206.5t-199 -69.5v102q66 0 100 25.5t34 66.5l-3 27q-18 -6 -38 -6q-47 0 -75 30t-28 86z" />
    <glyph glyph-name="lcaron.alt" horiz-adv-x="604" 
d="M123 0v1434h215v-1434h-215zM430 1335q0 52 35.5 85.5t93.5 33.5q66 0 107 -45.5t41 -128.5q0 -137 -68 -206.5t-199 -69.5v102q66 0 99.5 25.5t33.5 66.5l-2 27q-19 -6 -39 -6q-47 0 -74.5 30t-27.5 86z" />
    <glyph glyph-name="lacute.alt" horiz-adv-x="460" 
d="M123 0v1434h215v-1434h-215zM133 1618l164 297h256v-2l-236 -295h-184z" />
    <glyph glyph-name="atilde.alt" 
d="M82 297q0 138 112 227.5t318 89.5h297v41q0 100 -59 157.5t-166 57.5q-55 0 -99 -14.5t-68.5 -36t-41 -42.5t-21.5 -35l-6 -15h-225q1 7 4 19t17.5 47.5t34 67t56.5 70.5t82.5 67.5t115.5 47.5t151 19q205 0 322.5 -111.5t117.5 -298.5v-655h-215v143h-10
q-4 -7 -12.5 -18t-39.5 -39t-67.5 -49.5t-98 -39t-130.5 -17.5q-173 0 -271 88t-98 229zM307 307q0 -133 195 -133q145 0 226 71t81 195h-317q-185 0 -185 -133zM236 1260v61q0 86 56.5 140.5t147.5 54.5q48 0 90 -17.5t66.5 -39t54 -39t56.5 -17.5q23 0 37 14t14 37v51h153
v-61q0 -86 -56.5 -140.5t-147.5 -54.5q-48 0 -90 17.5t-66.5 39t-54 39t-56.5 17.5q-23 0 -37 -14t-14 -37v-51h-153z" />
    <glyph glyph-name="aring.alt" 
d="M82 297q0 138 112 227.5t318 89.5h297v41q0 100 -59 157.5t-166 57.5q-55 0 -99 -14.5t-68.5 -36t-41 -42.5t-21.5 -35l-6 -15h-225q1 7 4 19t17.5 47.5t34 67t56.5 70.5t82.5 67.5t115.5 47.5t151 19q205 0 322.5 -111.5t117.5 -298.5v-655h-215v143h-10
q-4 -7 -12.5 -18t-39.5 -39t-67.5 -49.5t-98 -39t-130.5 -17.5q-173 0 -271 88t-98 229zM307 307q0 -133 195 -133q145 0 226 71t81 195h-317q-185 0 -185 -133zM369 1403q0 93 63 154t162 61q93 0 159 -62t66 -153t-66 -153t-159 -62q-99 0 -162 61t-63 154zM481 1403
q0 -49 31.5 -81t81.5 -32t81.5 32t31.5 81t-31.5 81t-81.5 32t-81.5 -32t-31.5 -81z" />
    <glyph glyph-name="aogonek.alt" 
d="M82 297q0 138 112 227.5t318 89.5h297v41q0 100 -59 157.5t-166 57.5q-55 0 -99 -14.5t-68.5 -36t-41 -42.5t-21.5 -35l-6 -15h-225q1 7 4 19t17.5 47.5t34 67t56.5 70.5t82.5 67.5t115.5 47.5t151 19q205 0 322.5 -111.5t117.5 -298.5v-655q-10 -5 -26.5 -14t-59 -38
t-75 -58.5t-59 -72.5t-26.5 -83q0 -39 23.5 -60.5t68.5 -21.5q32 0 68 10t56 20l20 11v-133q-62 -41 -154 -41q-225 0 -225 194q0 52 26.5 100.5t64 80.5t75 57.5t63.5 36.5l27 12h-82v143h-10q-4 -7 -12.5 -18t-39.5 -39t-67.5 -49.5t-98 -39t-130.5 -17.5q-173 0 -271 88
t-98 229zM307 307q0 -133 195 -133q145 0 226 71t81 195h-317q-185 0 -185 -133z" />
    <glyph glyph-name="amacron.alt" 
d="M82 297q0 138 112 227.5t318 89.5h297v41q0 100 -59 157.5t-166 57.5q-55 0 -99 -14.5t-68.5 -36t-41 -42.5t-21.5 -35l-6 -15h-225q1 7 4 19t17.5 47.5t34 67t56.5 70.5t82.5 67.5t115.5 47.5t151 19q205 0 322.5 -111.5t117.5 -298.5v-655h-215v143h-10
q-4 -7 -12.5 -18t-39.5 -39t-67.5 -49.5t-98 -39t-130.5 -17.5q-173 0 -271 88t-98 229zM307 307q0 -133 195 -133q145 0 226 71t81 195h-317q-185 0 -185 -133zM297 1280v174h573v-174h-573z" />
    <glyph glyph-name="adieresis.alt" 
d="M82 297q0 138 112 227.5t318 89.5h297v41q0 100 -59 157.5t-166 57.5q-55 0 -99 -14.5t-68.5 -36t-41 -42.5t-21.5 -35l-6 -15h-225q1 7 4 19t17.5 47.5t34 67t56.5 70.5t82.5 67.5t115.5 47.5t151 19q205 0 322.5 -111.5t117.5 -298.5v-655h-215v143h-10
q-4 -7 -12.5 -18t-39.5 -39t-67.5 -49.5t-98 -39t-130.5 -17.5q-173 0 -271 88t-98 229zM307 307q0 -133 195 -133q145 0 226 71t81 195h-317q-185 0 -185 -133zM635 1372q0 54 34.5 88.5t88.5 34.5t88.5 -34.5t34.5 -88.5t-34.5 -88.5t-88.5 -34.5t-88.5 34.5t-34.5 88.5z
M256 1372q0 54 34.5 88.5t88.5 34.5t88.5 -34.5t34.5 -88.5t-34.5 -88.5t-88.5 -34.5t-88.5 34.5t-34.5 88.5z" />
    <glyph glyph-name="acircumflex.alt" 
d="M82 297q0 138 112 227.5t318 89.5h297v41q0 100 -59 157.5t-166 57.5q-55 0 -99 -14.5t-68.5 -36t-41 -42.5t-21.5 -35l-6 -15h-225q1 7 4 19t17.5 47.5t34 67t56.5 70.5t82.5 67.5t115.5 47.5t151 19q205 0 322.5 -111.5t117.5 -298.5v-655h-215v143h-10
q-4 -7 -12.5 -18t-39.5 -39t-67.5 -49.5t-98 -39t-130.5 -17.5q-173 0 -271 88t-98 229zM307 307q0 -133 195 -133q145 0 226 71t81 195h-317q-185 0 -185 -133zM231 1251l236 295h215l236 -295v-2h-195l-133 174h-31l-133 -174h-195v2z" />
    <glyph glyph-name="abreve.alt" 
d="M82 297q0 138 112 227.5t318 89.5h297v41q0 100 -59 157.5t-166 57.5q-55 0 -99 -14.5t-68.5 -36t-41 -42.5t-21.5 -35l-6 -15h-225q1 7 4 19t17.5 47.5t34 67t56.5 70.5t82.5 67.5t115.5 47.5t151 19q205 0 322.5 -111.5t117.5 -298.5v-655h-215v143h-10
q-4 -7 -12.5 -18t-39.5 -39t-67.5 -49.5t-98 -39t-130.5 -17.5q-173 0 -271 88t-98 229zM307 307q0 -133 195 -133q145 0 226 71t81 195h-317q-185 0 -185 -133zM256 1516h174q0 -113 143 -113q144 0 144 113h174q0 -121 -81 -194t-237 -73t-236.5 73t-80.5 194z" />
    <glyph glyph-name="aacute.alt" 
d="M82 297q0 138 112 227.5t318 89.5h297v41q0 100 -59 157.5t-166 57.5q-55 0 -99 -14.5t-68.5 -36t-41 -42.5t-21.5 -35l-6 -15h-225q1 7 4 19t17.5 47.5t34 67t56.5 70.5t82.5 67.5t115.5 47.5t151 19q205 0 322.5 -111.5t117.5 -298.5v-655h-215v143h-10
q-4 -7 -12.5 -18t-39.5 -39t-67.5 -49.5t-98 -39t-130.5 -17.5q-173 0 -271 88t-98 229zM307 307q0 -133 195 -133q145 0 226 71t81 195h-317q-185 0 -185 -133zM469 1249l164 297h256v-2l-236 -295h-184z" />
    <glyph glyph-name="agrave.alt" 
d="M82 297q0 138 112 227.5t318 89.5h297v41q0 100 -59 157.5t-166 57.5q-55 0 -99 -14.5t-68.5 -36t-41 -42.5t-21.5 -35l-6 -15h-225q1 7 4 19t17.5 47.5t34 67t56.5 70.5t82.5 67.5t115.5 47.5t151 19q205 0 322.5 -111.5t117.5 -298.5v-655h-215v143h-10
q-4 -7 -12.5 -18t-39.5 -39t-67.5 -49.5t-98 -39t-130.5 -17.5q-173 0 -271 88t-98 229zM307 307q0 -133 195 -133q145 0 226 71t81 195h-317q-185 0 -185 -133zM258 1546h256l164 -297h-184l-236 295v2z" />
    <glyph glyph-name="afii10110.alt" horiz-adv-x="1044" 
d="M20 1044h226l225 -839h113l245 839h226l-318 -1064q-15 -49 -27 -83t-32.5 -75.5t-43 -70t-56 -57t-74 -45.5t-96 -27.5t-121.5 -10.5h-154v194h154q57 0 95.5 10t64 33.5t40.5 53t29 78.5l6 20h-215zM236 1454h174q0 -113 143 -113t143 113h174q0 -120 -80.5 -193
t-236.5 -73t-236.5 73t-80.5 193z" />
    <glyph glyph-name="lslash.alt" horiz-adv-x="573" 
d="M0 461v215l164 76v682h215v-584l194 92v-215l-194 -92v-635h-215v537z" />
    <glyph glyph-name="g.alt" horiz-adv-x="1146" 
d="M10 -113q0 57 25.5 106t61.5 77t72 48.5t61 27.5l26 8v204q-7 4 -19.5 11.5t-44.5 35.5t-56 61.5t-44 90t-20 119.5q0 166 125 277.5t335 111.5q41 0 79.5 -5.5t56.5 -10.5l18 -5h461v-184h-195l-20 2v-2q7 -8 17 -23t27 -63t17 -98q0 -166 -125.5 -277.5t-335.5 -111.5
l-71 4v-109q40 2 71 2q110 0 199.5 -16t149 -44t99.5 -66t57.5 -80.5t17.5 -90.5t-17.5 -90.5t-57.5 -80.5t-99.5 -66t-149 -44t-199.5 -16q-137 0 -240.5 24.5t-163.5 67t-89 94t-29 111.5zM297 676q0 -87 61.5 -141t173.5 -54t174 54t62 141t-61.5 140.5t-174.5 53.5
q-112 0 -173.5 -53.5t-61.5 -140.5zM236 -113q0 -123 296 -123q85 0 145.5 10.5t92 28.5t45.5 38.5t14 45.5t-14 45.5t-45.5 38.5t-92 28.5t-145.5 10.5q-296 0 -296 -123z" />
    <glyph glyph-name="a.alt" 
d="M82 297q0 138 112 227.5t318 89.5h297v41q0 100 -59 157.5t-166 57.5q-55 0 -99 -14.5t-68.5 -36t-41 -42.5t-21.5 -35l-6 -15h-225q1 7 4 19t17.5 47.5t34 67t56.5 70.5t82.5 67.5t115.5 47.5t151 19q205 0 322.5 -111.5t117.5 -298.5v-655h-215v143h-10
q-4 -7 -12.5 -18t-39.5 -39t-67.5 -49.5t-98 -39t-130.5 -17.5q-173 0 -271 88t-98 229zM307 307q0 -133 195 -133q145 0 226 71t81 195h-317q-185 0 -185 -133z" />
    <glyph glyph-name="at.case" horiz-adv-x="1658" 
d="M82 737q0 163 60 307t164 248t251 164t313 60q110 0 210 -25t179 -68.5t143.5 -102.5t106.5 -127.5t65 -143t23 -148.5q0 -222 -133 -356.5t-352 -134.5h-129v92h-10q-2 -5 -6.5 -12.5t-21 -27t-37 -34.5t-55.5 -27t-75 -12q-120 0 -203 95.5t-83 252.5t83 252.5
t203 95.5q40 0 75 -11.5t56 -28t36.5 -33t21.5 -28.5l6 -11h10v92h195v-481q98 0 161.5 81.5t63.5 235.5q0 82 -35 159.5t-100 140.5t-168.5 101.5t-229.5 38.5q-262 0 -428 -168t-166 -436t166 -436t428 -168q95 0 189.5 26.5t142.5 52.5l47 26v-187q-18 -10 -51.5 -25.5
t-132.5 -41t-195 -25.5q-166 0 -313 60t-251 163.5t-164 247.5t-60 307zM696 737q0 -74 40.5 -119t103.5 -45t103 44.5t40 119.5t-40 119.5t-103 44.5t-103.5 -44.5t-40.5 -119.5z" />
    <glyph glyph-name="nine.taboldstyle" horiz-adv-x="1146" 
d="M41 563q0 102 40.5 194.5t110 160t169 107.5t212.5 40t212.5 -40t169.5 -107.5t110.5 -160t40.5 -194.5q0 -77 -17 -147.5t-52.5 -138t-68.5 -116.5t-87 -120l-328 -430h-256l317 409l103 93v10q-8 -6 -23 -14.5t-63.5 -22.5t-98.5 -14q-207 0 -349 142t-142 349z
M266 563q0 -131 88 -219t219 -88t219.5 88.5t88.5 218.5t-88.5 218.5t-219.5 88.5t-219 -88t-88 -219z" />
    <glyph glyph-name="eight.taboldstyle" horiz-adv-x="1146" 
d="M31 389q0 61 15 114t39.5 89.5t54 66.5t59 47.5t54 30t39.5 17.5l15 4v10q-4 2 -12 5.5t-30.5 16.5t-42.5 28.5t-45 42.5t-43 58t-30 74.5t-12 91.5q0 154 130 261.5t351 107.5t351.5 -107.5t130.5 -261.5q0 -48 -12 -91.5t-31 -74.5t-41.5 -57.5t-45.5 -43t-42 -28.5
t-31 -17l-12 -5v-10q6 -2 16 -5t38.5 -16.5t54.5 -30.5t58 -48t55 -67t38.5 -89t15.5 -113q0 -81 -36.5 -154.5t-104 -130.5t-171.5 -90.5t-231 -33.5t-231 33.5t-171 90.5t-103.5 130.5t-36.5 154.5zM317 1055q0 -88 68.5 -146.5t187.5 -58.5t187.5 58.5t68.5 146.5
t-68.5 146.5t-187.5 58.5t-187.5 -58.5t-68.5 -146.5zM256 410q0 -105 81 -170.5t236 -65.5t236.5 65.5t81.5 170.5q0 104 -85 174.5t-233 70.5t-232.5 -70.5t-84.5 -174.5z" />
    <glyph glyph-name="seven.taboldstyle" horiz-adv-x="1146" 
d="M86 635v409h993v-194l-594 -1239h-235l594 1218v21h-543v-215h-215z" />
    <glyph glyph-name="six.taboldstyle" horiz-adv-x="1146" 
d="M41 481q0 77 17 148t52.5 138.5t68.5 116.5t87 120l328 430h256l-318 -410l-102 -92v-10q8 6 23 14.5t63 22.5t98 14q207 0 349.5 -142.5t142.5 -349.5q0 -137 -68.5 -251.5t-191.5 -182t-273 -67.5q-113 0 -212.5 39.5t-169 107t-110 160t-40.5 194.5zM266 481
q0 -131 88 -219t219 -88t219.5 88.5t88.5 218.5t-88.5 218.5t-219.5 88.5t-219 -88t-88 -219z" />
    <glyph glyph-name="five.taboldstyle" horiz-adv-x="1146" 
d="M92 10h225q1 -9 4 -24t20.5 -54t44 -68.5t81.5 -54t127 -24.5q123 0 199.5 76.5t76.5 199.5t-76.5 200t-199.5 77q-49 0 -92 -12.5t-70 -31t-47 -36.5t-29 -30l-8 -13h-194l51 829h799v-194h-605l-30 -399h10q3 3 9 8.5t28.5 19.5t50.5 24.5t75.5 19.5t102.5 9
q185 0 318 -134.5t133 -325.5q0 -217 -136.5 -349.5t-365.5 -132.5q-74 0 -139 14.5t-111.5 38.5t-85.5 55.5t-64 66.5t-45 70t-30 66.5t-16.5 55.5t-8.5 39z" />
    <glyph glyph-name="four.taboldstyle" horiz-adv-x="1146" 
d="M55 0v195l482 849h245l-481 -849h389v368h215v-368h225v-195h-225v-389h-215v389h-635z" />
    <glyph glyph-name="three.taboldstyle" horiz-adv-x="1146" 
d="M51 10h225q1 -9 4.5 -24t22.5 -54t46 -68.5t81 -54t123 -24.5q135 0 205.5 62.5t70.5 172.5q0 109 -75 172.5t-211 63.5h-174v195h174q120 0 188 60t68 155q0 87 -67 145.5t-179 58.5q-55 0 -100 -16t-71 -38t-44 -44.5t-24 -38.5l-7 -16h-215q2 7 5.5 19.5t19.5 49
t37 69t59 73t83 69t112.5 48.5t144.5 20q209 0 335 -110t126 -269q0 -52 -12 -97.5t-31 -75.5t-42 -55t-45.5 -39t-41.5 -23.5t-31 -13.5l-12 -3v-10q5 -1 14.5 -3.5t36 -14t50.5 -26.5t53.5 -43t51 -62.5t36 -86.5t14.5 -113q0 -189 -134.5 -309.5t-367.5 -120.5
q-94 0 -172.5 23t-129 60t-89.5 82t-59 90t-32.5 82t-16.5 60z" />
    <glyph glyph-name="two.taboldstyle" horiz-adv-x="1146" 
d="M92 707q1 7 4 20t17.5 50.5t34 71t56.5 75t82.5 71t115.5 50t151 20.5q202 0 321 -105t119 -264q0 -129 -69.5 -228.5t-210.5 -176.5l-119 -66l-123 -41v-10l141 21h422v-195h-911v174l430 246q105 60 160 123t55 143q0 79 -59 131.5t-156 52.5q-55 0 -99 -17t-68.5 -41
t-41 -47.5t-22.5 -40.5l-5 -17h-225z" />
    <glyph glyph-name="one.taboldstyle" horiz-adv-x="1146" 
d="M188 0v195h318v593l-225 -174v246l245 184h195v-849h297v-195h-830z" />
    <glyph glyph-name="zero.taboldstyle" horiz-adv-x="1146" 
d="M31 522q0 230 156 386.5t386 156.5t386.5 -156.5t156.5 -386.5t-156.5 -386t-386.5 -156t-386 156t-156 386zM256 522q0 -159 88.5 -253.5t228.5 -94.5t229 94.5t89 253.5t-89 253.5t-229 94.5t-228.5 -94.5t-88.5 -253.5z" />
    <glyph glyph-name="K_K" horiz-adv-x="1884" 
d="M1075 737l502 697h276l-501 -686l522 -748h-287zM143 0v1434h236v-594h235l430 594h277l-502 -686l522 -748h-286l-430 614h-246v-614h-236z" />
    <glyph glyph-name="L_L" horiz-adv-x="1331" 
d="M573 389v1045h226v-830h512v-215h-738zM143 0v1434h236v-1209h727v-225h-963z" />
    <glyph glyph-name="T_E" horiz-adv-x="1495" 
d="M20 1208v226h1178v-226h-471v-204h686v-226h-686v-164h512v-215h-512v-174h686v-225h-921v1208h-472z" />
    <glyph glyph-name="R_J" horiz-adv-x="2007" 
d="M143 0v1434h625q254 0 403.5 -131.5t149.5 -329.5q0 -155 -95 -269.5t-263 -160.5l61 -113q28 -52 56.5 -93t71 -83.5t99 -66t121.5 -23.5q125 0 195.5 76.5t70.5 220.5v973h236v-973q0 -244 -135 -383t-367 -139q-55 0 -105.5 8t-91.5 20.5t-80 34.5t-68.5 43.5
t-61 54.5t-53 59.5t-48 67t-44 69.5t-42.5 73l-82 143h-317v-512h-236zM379 737h389q156 0 231.5 62t75.5 174q0 111 -75.5 173t-231.5 62h-389v-471z" />
    <glyph glyph-name="T_T" horiz-adv-x="1761" 
d="M20 1208v226h1178v-226h-471v-1208h-235v1208h-472zM870 768v215h840v-215h-307v-768h-225v768h-308z" />
    <glyph glyph-name="U_U" horiz-adv-x="1638" 
d="M133 625v809h236v-809q0 -208 118 -324.5t332 -116.5t332.5 116.5t118.5 324.5v809h235v-809q0 -309 -182.5 -487.5t-503.5 -178.5t-503.5 178.5t-182.5 487.5zM502 676v450h215v-460q0 -67 27.5 -100.5t74.5 -33.5q48 0 75.5 33.5t27.5 100.5v460h215v-450
q0 -167 -85 -257.5t-233 -90.5t-232.5 90.5t-84.5 257.5z" />
    <glyph glyph-name="P_H" horiz-adv-x="2396" 
d="M143 0v1434h615q165 0 292 -65t194 -174.5t67 -242.5v-112h706v594h236v-1434h-236v614h-706v-614h-236v573q-4 -4 -12 -11t-37.5 -24.5t-63 -31t-89 -24.5t-115.5 -11h-379v-471h-236zM379 696h379q150 0 228.5 68.5t78.5 187.5t-78.5 187.5t-228.5 68.5h-379v-512z" />
    <glyph glyph-name="E_A" horiz-adv-x="2283" 
d="M143 0v1434h891v-226h-655v-368h758l153 594h584l379 -1434h-246l-164 614h-528l-158 -614h-1014zM1372 840h414l-96 368h-226zM379 225h600l100 389h-700v-389z" />
    <glyph glyph-name="C_O" horiz-adv-x="1648" 
d="M82 717q0 216 102 390t277.5 271t388.5 97q95 0 180.5 -18t149.5 -48t119.5 -69.5t94 -82.5t70 -86.5t50 -83t31 -69.5t17.5 -48l5 -18h-236q-2 6 -7 17t-24 41.5t-42 58.5t-63.5 62.5t-87.5 59t-114.5 41.5t-142.5 17q-231 0 -376.5 -147.5t-145.5 -384.5t145.5 -385
t376.5 -148q77 0 146 18t117.5 47t88.5 64t65 70t42.5 64t24.5 47l7 18h236q-3 -12 -10 -31.5t-34 -77t-61.5 -110t-95 -116t-131.5 -109.5t-174.5 -77.5t-220.5 -31.5q-213 0 -388.5 97t-277.5 271t-102 390zM502 717q0 147 102.5 247.5t255.5 100.5t256 -100.5t103 -247.5
t-103 -247.5t-256 -100.5t-255.5 100.5t-102.5 247.5zM707 717q0 -71 44 -117.5t109 -46.5t109.5 46.5t44.5 117.5t-44.5 117.5t-109.5 46.5t-109 -46.5t-44 -117.5z" />
    <glyph glyph-name="K_O" horiz-adv-x="2314" 
d="M143 0v1434h236v-594h235l430 594h277l-502 -686l522 -748h-286l-430 614h-246v-614h-236zM1167 727q0 230 156.5 386.5t386.5 156.5t386.5 -156.5t156.5 -386.5t-156.5 -386.5t-386.5 -156.5t-386.5 156.5t-156.5 386.5zM1403 727q0 -145 87.5 -236.5t219.5 -91.5
t219.5 91.5t87.5 236.5t-87.5 236.5t-219.5 91.5t-219.5 -91.5t-87.5 -236.5z" />
    <glyph glyph-name="W_E" horiz-adv-x="2549" 
d="M51 1434h246l250 -1229h31l241 1229h359l252 -1229h30l240 1229h778v-226h-594l-72 -368h512v-226h-563l-82 -389h799v-225h-1218l-246 1178h-31l-235 -1178h-390z" />
    <glyph glyph-name="A_T" horiz-adv-x="1525" 
d="M31 0l317 1208h-174v226h1178v-226h-174l317 -1208h-235l-103 369h-276v-369h-236v369h-276l-103 -369h-235zM881 594h225l-154 614h-71v-614zM420 594h225v614h-72z" />
    <glyph glyph-name="S_A" horiz-adv-x="2621" 
d="M0 430h246q1 -5 3 -14.5t12.5 -36t25.5 -50.5t43.5 -53.5t64 -51t90 -36t119.5 -14.5q161 0 239.5 58.5t78.5 156.5q0 47 -22.5 84t-60.5 62t-87 46t-103.5 41.5t-109 43.5t-103.5 56t-87 75t-60.5 105t-22.5 142q0 85 38 162.5t106 137.5t172 95.5t227 35.5
q100 0 185 -23t140 -60t98.5 -82t67 -90t38.5 -82t20 -60l4 -23h-246q-1 4 -2.5 11.5t-10 29t-21 40.5t-37 43t-55 41t-78 28.5t-103.5 11.5q-138 0 -217.5 -61t-79.5 -144q0 -49 22.5 -87.5t60.5 -65t87 -49t103.5 -43.5t108.5 -44.5t103 -56t87 -73t60.5 -101.5t22.5 -136
q0 -89 -38 -168.5t-108.5 -140t-178 -96t-238.5 -35.5q-87 0 -163.5 16t-132 43.5t-102.5 62.5t-77.5 74.5t-55 78.5t-38 74t-22 62.5t-11.5 43.5zM1260 0l368 1434h584l379 -1434h-246l-98 369h-660l-92 -369h-235zM1649 594h540l-161 614h-226z" />
    <glyph glyph-name="L_F" horiz-adv-x="1290" 
d="M584 369v1065h655v-205h-440v-236h358v-205h-358v-419h-215zM143 0v1434h236v-1209h727v-225h-963z" />
    <glyph glyph-name="L_I" horiz-adv-x="1249" 
d="M870 389v1045h236v-1045h-236zM143 0v1434h236v-1209h727v-225h-963z" />
    <glyph glyph-name="L_A" horiz-adv-x="1914" 
d="M143 0v1434h236v-1209h231l312 1209h583l379 -1434h-246l-163 614h-533l-96 -389h260v-225h-963zM1004 840h409l-92 368h-225z" />
    <glyph glyph-name="L_O" horiz-adv-x="1689" 
d="M532 911q0 230 156.5 386.5t386.5 156.5t386.5 -156.5t156.5 -386.5t-156.5 -386t-386.5 -156t-386.5 156t-156.5 386zM143 0v1434h236v-1209h727v-225h-963zM768 911q0 -145 87.5 -236t219.5 -91t219.5 91t87.5 236t-87.5 236.5t-219.5 91.5t-219.5 -91.5t-87.5 -236.5z
" />
    <glyph glyph-name="C_E" horiz-adv-x="1648" 
d="M82 717q0 216 102 390t277.5 271t388.5 97q95 0 180.5 -18t149.5 -48t119.5 -69.5t94 -82.5t70 -86.5t50 -83t31 -69.5t17.5 -48l5 -18h-236q-2 6 -7 17t-24 41.5t-42 58.5t-63.5 62.5t-87.5 59t-114.5 41.5t-142.5 17q-231 0 -376.5 -147.5t-145.5 -384.5t145.5 -385
t376.5 -148q77 0 146 18t117.5 47t88.5 64t65 70t42.5 64t24.5 47l7 18h236q-3 -12 -10 -31.5t-34 -77t-61.5 -110t-95 -116t-131.5 -109.5t-174.5 -77.5t-220.5 -31.5q-213 0 -388.5 97t-277.5 271t-102 390zM594 369v706h522v-174h-338v-92h256v-164h-256v-102h338v-174
h-522z" />
    <glyph glyph-name="A_V" horiz-adv-x="2088" 
d="M31 0l368 1434h584l317 -1209h226l297 1209h235l-358 -1434h-584l-98 369h-660l-92 -369h-235zM420 594h541l-162 614h-226z" />
    <glyph glyph-name="ampersand.alt2" horiz-adv-x="1751" 
d="M102 594q0 146 70.5 268.5t190.5 193t262 70.5q77 0 144 -17t115 -46t87.5 -66.5t65 -79.5t45 -83.5t29.5 -79t16.5 -66.5t8.5 -46l1 -17l-799 -154q39 -134 160 -215.5t301 -81.5q96 0 179 25t138.5 64.5t100.5 88t71 96.5t43 87.5t23 64.5l6 25h-131v174h512v-174h-164
q-2 -8 -5.5 -22.5t-18.5 -58.5t-34 -86.5t-54 -101t-76 -108t-101.5 -100.5t-130 -87t-162 -58.5t-196.5 -22.5q-158 0 -290 47t-220.5 129.5t-137.5 195t-49 242.5zM328 666l553 102q-82 164 -256 164q-111 0 -196.5 -73t-100.5 -193z" />
    <glyph glyph-name="O_G" horiz-adv-x="2529" 
d="M82 717q0 159 58.5 299.5t160 241t244.5 159t305 58.5q63 0 125 -10.5t106 -25.5t79 -30.5t52 -26.5l17 -10q6 4 18 11t50.5 25t80 31.5t104.5 24.5t126 11q95 0 180.5 -18t149.5 -48t119.5 -69.5t94 -82.5t69.5 -86.5t49.5 -83t31 -69.5t17.5 -48l5 -18h-235q-2 6 -7 17
t-24 41.5t-42 58.5t-63.5 62.5t-87.5 59t-114.5 41.5t-142.5 17q-50 0 -96.5 -7.5t-67.5 -15.5l-21 -7q8 -8 21 -22t46.5 -63t59.5 -103.5t47 -139.5t21 -174q0 -65 -11 -127.5t-28 -111t-38 -92t-41.5 -74t-37.5 -53t-28 -33.5l-11 -11q72 -31 185 -31q81 0 152.5 19
t120 50t88 68t63 74t39.5 68t22 50l6 19h-256v226h666v-226h-174q-3 -12 -9 -32.5t-31.5 -80t-58.5 -114t-93 -120.5t-131 -113.5t-177 -80t-227 -32.5q-63 0 -125 10.5t-106 25.5t-79 30t-52 25l-17 11q-6 -4 -18 -11t-50.5 -24.5t-80 -31t-104.5 -24.5t-126 -11
q-162 0 -305 58.5t-244.5 159t-160 241t-58.5 299.5zM328 717q0 -237 145.5 -385t376.5 -148q50 0 96 8t67 16l21 7q-8 8 -21 22t-46.5 63t-59 103.5t-46.5 139.5t-21 174t20 173t48.5 141t57 101.5t48.5 65.5l20 21q-71 30 -184 30q-231 0 -376.5 -147.5t-145.5 -384.5z
M1085 717q0 -74 15 -141.5t36 -111t42 -75.5t36 -47l15 -14q6 5 15.5 15t34 45.5t43.5 76.5t34.5 109.5t15.5 142.5t-14.5 141.5t-36 111t-42.5 75.5t-35 47l-15 14q-6 -5 -15.5 -15t-34.5 -45.5t-44 -76.5t-34.5 -109.5t-15.5 -142.5z" />
    <glyph glyph-name="O_O" horiz-adv-x="2457" 
d="M82 717q0 159 58.5 299.5t160 241t244.5 159t305 58.5q63 0 125 -10.5t106 -25.5t79 -30.5t52 -26.5l17 -10q6 4 18 11t50.5 25t80 31.5t104.5 24.5t126 11q162 0 305 -58.5t244.5 -159t160 -241t58.5 -299.5t-58.5 -299.5t-160 -241t-244.5 -159t-305 -58.5
q-63 0 -125 10.5t-106 25.5t-79 30t-52 25l-17 11q-6 -4 -18 -11t-50.5 -24.5t-80 -31t-104.5 -24.5t-126 -11q-162 0 -305 58.5t-244.5 159t-160 241t-58.5 299.5zM1423 215q72 -31 185 -31q231 0 376.5 148t145.5 385t-145.5 384.5t-376.5 147.5q-50 0 -96.5 -7.5
t-67.5 -15.5l-21 -7q8 -8 21 -22t46.5 -63t59.5 -103.5t47 -139.5t21 -174q0 -65 -11 -127.5t-28 -111t-38 -92t-41.5 -74t-37.5 -53t-28 -33.5zM328 717q0 -237 145.5 -385t376.5 -148q50 0 96 8t67 16l21 7q-8 8 -21 22t-46.5 63t-59 103.5t-46.5 139.5t-21 174t20 173
t48.5 141t57 101.5t48.5 65.5l20 21q-71 30 -184 30q-231 0 -376.5 -147.5t-145.5 -384.5zM1085 717q0 -74 15 -141.5t36 -111t42 -75.5t36 -47l15 -14q6 5 15.5 15t34 45.5t43.5 76.5t34.5 109.5t15.5 142.5t-14.5 141.5t-36 111t-42.5 75.5t-35 47l-15 14q-6 -5 -15.5 -15
t-34.5 -45.5t-44 -76.5t-34.5 -109.5t-15.5 -142.5z" />
    <glyph glyph-name="O_C" horiz-adv-x="2406" 
d="M82 717q0 159 58.5 299.5t160 241t244.5 159t305 58.5q63 0 125 -10.5t106 -25.5t79 -30.5t52 -26.5l17 -10q6 4 18 11t50.5 25t80 31.5t104.5 24.5t126 11q95 0 180.5 -18t149.5 -48t119.5 -69.5t94 -82.5t69.5 -86.5t49.5 -83t31 -69.5t17.5 -48l5 -18h-235q-2 6 -7 17
t-24 41.5t-42 58.5t-63.5 62.5t-87.5 59t-114.5 41.5t-142.5 17q-50 0 -96.5 -7.5t-67.5 -15.5l-21 -7q8 -8 21 -22t46.5 -63t59.5 -103.5t47 -139.5t21 -174q0 -65 -11 -127.5t-28 -111t-38 -92t-41.5 -74t-37.5 -53t-28 -33.5l-11 -11q72 -31 185 -31q77 0 146 18
t117.5 47t88.5 64t65 70t42.5 64t24.5 47l7 18h236q-3 -12 -10 -31.5t-34 -77t-61.5 -110t-95 -116t-131.5 -109.5t-174.5 -77.5t-220.5 -31.5q-63 0 -125 10.5t-106 25.5t-79 30t-52 25l-17 11q-6 -4 -18 -11t-50.5 -24.5t-80 -31t-104.5 -24.5t-126 -11q-162 0 -305 58.5
t-244.5 159t-160 241t-58.5 299.5zM328 717q0 -237 145.5 -385t376.5 -148q50 0 96 8t67 16l21 7q-8 8 -21 22t-46.5 63t-59 103.5t-46.5 139.5t-21 174t20 173t48.5 141t57 101.5t48.5 65.5l20 21q-71 30 -184 30q-231 0 -376.5 -147.5t-145.5 -384.5zM1085 717
q0 -74 15 -141.5t36 -111t42 -75.5t36 -47l15 -14q6 5 15.5 15t34 45.5t43.5 76.5t34.5 109.5t15.5 142.5t-14.5 141.5t-36 111t-42.5 75.5t-35 47l-15 14q-6 -5 -15.5 -15t-34.5 -45.5t-44 -76.5t-34.5 -109.5t-15.5 -142.5z" />
    <glyph glyph-name="T_H_E" horiz-adv-x="2508" 
d="M20 1208v226h1096v-226h-430v-368h717v594h1034v-226h-799v-368h646v-226h-646v-389h799v-225h-1034v614h-717v-614h-235v1208h-431z" />
    <glyph glyph-name="nine.dnom" horiz-adv-x="696" 
d="M51 471q0 103 81.5 174.5t215.5 71.5t215.5 -71.5t81.5 -174.5q0 -117 -113 -266l-153 -205h-184l143 195l51 41v10q-41 -21 -92 -21q-100 0 -173 73t-73 173zM225 471q0 -40 32 -66t91 -26t91 26t32 66t-32 66t-91 26t-91 -26t-32 -66z" />
    <glyph glyph-name="eight.dnom" horiz-adv-x="778" 
d="M72 184q0 40 16 72.5t38 50.5t44.5 30.5t38.5 16.5l16 4v11q-5 1 -13.5 4t-29.5 14.5t-37 27t-29.5 44.5t-13.5 63q0 87 76 141t211 54t211 -54t76 -141q0 -34 -12.5 -62.5t-31 -44.5t-36.5 -27t-30 -15l-13 -4v-11q6 -1 16.5 -4t37 -16t47 -30.5t37 -50.5t16.5 -73
q0 -83 -83 -143.5t-235 -60.5t-234.5 60.5t-82.5 143.5zM287 492q0 -33 25 -52.5t77 -19.5t77.5 19.5t25.5 52.5q0 32 -25.5 51.5t-77.5 19.5t-77 -19t-25 -52zM256 215q0 -34 34 -58t99 -24t99 24t34 58t-34 58t-99 24t-99 -24t-34 -58z" />
    <glyph glyph-name="seven.dnom" horiz-adv-x="634" 
d="M41 543v153h553v-153l-297 -543h-184l297 541v2h-369z" />
    <glyph glyph-name="six.dnom" horiz-adv-x="696" 
d="M51 225q0 118 113 267l153 204h185l-144 -194l-51 -41v-10q41 20 92 20q100 0 173 -73t73 -173q0 -103 -81.5 -174t-215.5 -71t-215.5 71t-81.5 174zM225 225q0 -40 32 -66t91 -26t91 26t32 66t-32 66t-91 26t-91 -26t-32 -66z" />
    <glyph glyph-name="five.dnom" horiz-adv-x="737" 
d="M82 195h174q1 -3 3 -7t10.5 -14.5t20 -19t32.5 -15t47 -6.5q59 0 91 26t32 66t-32 66t-91 26q-32 0 -60.5 -10.5t-40.5 -20.5l-12 -10l-143 31l30 389h461v-143h-328l-10 -133h10q6 5 17 11.5t46 18t71 11.5q122 0 194 -64t72 -172q0 -103 -80 -174t-207 -71
q-54 0 -100.5 12t-77 31t-55 42t-38 45.5t-22 41.5t-11.5 31z" />
    <glyph glyph-name="four.dnom" horiz-adv-x="686" 
d="M41 133v154l256 409h195l-256 -409h143v123h174v-123h102v-154h-102v-133h-174v133h-338z" />
    <glyph glyph-name="three.dnom" horiz-adv-x="716" 
d="M61 205h175q1 -3 3 -8t11 -17t21 -21.5t35 -17.5t52 -8q55 0 84 23t29 59t-31 59t-92 23h-143v133l194 123v10l-82 -10h-215v143h512v-133l-143 -112l-82 -31v-10q31 10 62 10q85 0 144.5 -60t59.5 -145q0 -96 -80 -165.5t-206 -69.5q-54 0 -100.5 12.5t-77 32.5t-55 44
t-38 47.5t-22.5 43.5t-12 32z" />
    <glyph glyph-name="two.dnom" horiz-adv-x="737" 
d="M72 0v154l164 102q144 90 189.5 130.5t45.5 84.5q0 40 -30.5 66t-82.5 26q-45 0 -75.5 -23t-38.5 -46l-8 -23h-164q1 5 2.5 14t10 34.5t20.5 48.5t35.5 51.5t53 49t75.5 34.5t100 14q134 0 210 -66t76 -166q0 -153 -204 -270l-72 -41l-82 -20v-11l82 11h287v-154h-594z
" />
    <glyph glyph-name="one.dnom" horiz-adv-x="716" 
d="M113 0v154h194v358l-174 -102v184l184 102h164v-542h185v-154h-553z" />
    <glyph glyph-name="zero.dnom" horiz-adv-x="757" 
d="M51 348q0 158 97 263.5t231 105.5t231 -105.5t97 -263.5t-97 -263t-231 -105t-231 105t-97 263zM236 348q0 -101 42.5 -158t100.5 -57t100.5 57t42.5 158t-42.5 158t-100.5 57t-100.5 -57t-42.5 -158z" />
    <glyph glyph-name="nine.numr" horiz-adv-x="696" 
d="M51 1208q0 103 81.5 174.5t215.5 71.5t215.5 -71.5t81.5 -174.5q0 -117 -113 -266l-153 -205h-184l143 195l51 41v10q-41 -20 -92 -20q-100 0 -173 72.5t-73 172.5zM225 1208q0 -40 32 -66t91 -26t91 26t32 66t-32 66t-91 26t-91 -26t-32 -66z" />
    <glyph glyph-name="eight.numr" horiz-adv-x="778" 
d="M72 922q0 40 16 72.5t38 50.5t44.5 30.5t38.5 16.5l16 4v10q-5 1 -13.5 4t-29.5 15t-37 27.5t-29.5 44.5t-13.5 63q0 87 76 140.5t211 53.5t211 -53.5t76 -140.5q0 -34 -12.5 -63t-31 -45t-36.5 -27t-30 -15l-13 -4v-10q6 -1 16.5 -4t37 -16t47 -30.5t37 -50.5t16.5 -73
q0 -83 -83 -144t-235 -61t-234.5 60.5t-82.5 144.5zM287 1229q0 -33 25 -52.5t77 -19.5t77.5 19.5t25.5 52.5q0 32 -25.5 51.5t-77.5 19.5t-77 -19t-25 -52zM256 952q0 -34 34 -58t99 -24t99 24t34 58t-34 58t-99 24t-99 -24t-34 -58z" />
    <glyph glyph-name="seven.numr" horiz-adv-x="634" 
d="M41 1280v154h553v-154l-297 -543h-184l297 541v2h-369z" />
    <glyph glyph-name="six.numr" horiz-adv-x="696" 
d="M51 963q0 117 113 266l153 205h185l-144 -195l-51 -41v-10q41 20 92 20q100 0 173 -72.5t73 -172.5q0 -103 -81.5 -174.5t-215.5 -71.5t-215.5 71.5t-81.5 174.5zM225 963q0 -40 32 -66.5t91 -26.5t91 26.5t32 66.5t-32 66t-91 26t-91 -26t-32 -66z" />
    <glyph glyph-name="five.numr" horiz-adv-x="737" 
d="M82 932h174q1 -3 3 -7t10.5 -14.5t20 -19t32.5 -15t47 -6.5q59 0 91 26.5t32 66.5t-32 66t-91 26q-32 0 -60 -10.5t-41 -20.5l-12 -10l-143 30l30 390h461v-144h-328l-10 -133h10q6 5 17 11.5t46 18t71 11.5q123 0 194.5 -63.5t71.5 -171.5q0 -103 -80 -174.5t-207 -71.5
q-54 0 -100.5 12t-77 31t-55 41.5t-38 45.5t-22 42t-11.5 31z" />
    <glyph glyph-name="four.numr" horiz-adv-x="686" 
d="M41 870v154l256 410h195l-256 -410h143v123h174v-123h102v-154h-102v-133h-174v133h-338z" />
    <glyph glyph-name="three.numr" horiz-adv-x="716" 
d="M61 942h175q1 -3 3 -8t11 -17t21 -21.5t35 -17.5t52 -8q55 0 84 23t29 59t-31 59t-92 23h-143v133l194 123v10l-82 -10h-215v144h512v-134l-143 -112l-82 -31v-10q31 10 62 10q85 0 144.5 -60t59.5 -145q0 -96 -80 -165.5t-206 -69.5q-54 0 -100.5 12.5t-77 32.5t-55 44
t-38 47.5t-22.5 43.5t-12 33z" />
    <glyph glyph-name="two.numr" horiz-adv-x="737" 
d="M72 737v154l164 102q144 90 189.5 130.5t45.5 84.5q0 40 -30.5 66t-82.5 26q-45 0 -75.5 -23t-38.5 -46l-8 -23h-164q1 5 2.5 14t10 34.5t20.5 48.5t35.5 51.5t53 49t75.5 34.5t100 14q134 0 210 -65.5t76 -165.5q0 -154 -204 -271l-72 -41l-82 -20v-10l82 10h287v-154
h-594z" />
    <glyph glyph-name="one.numr" horiz-adv-x="716" 
d="M113 737v154h194v358l-174 -102v184l184 103h164v-543h185v-154h-553z" />
    <glyph glyph-name="zero.numr" horiz-adv-x="757" 
d="M51 1085q0 158 97 263.5t231 105.5t231 -105.5t97 -263.5t-97 -263t-231 -105t-231 105t-97 263zM236 1085q0 -101 42.5 -158t100.5 -57t100.5 57t42.5 158t-42.5 158t-100.5 57t-100.5 -57t-42.5 -158z" />
    <glyph glyph-name="nine.tab" horiz-adv-x="1228" 
d="M72 963q0 107 40.5 201t112.5 162.5t175.5 108.5t224.5 40t224.5 -40t175.5 -108.5t112.5 -162.5t40.5 -201q0 -62 -17.5 -127.5t-36 -109.5t-62.5 -112t-61.5 -92t-68.5 -92l-328 -430h-276l309 403l90 78v11q-51 -31 -174 -31q-132 0 -242 65t-174.5 180.5t-64.5 256.5
zM317 963q0 -131 85.5 -214t222.5 -83t222 83t85 214t-85 214t-222 83t-222.5 -83t-85.5 -214z" />
    <glyph glyph-name="eight.tab" horiz-adv-x="1228" 
d="M41 389q0 49 10 93t26.5 76.5t38 61t45 47.5t47.5 34.5t45.5 24.5t38 15.5t26.5 8.5l10 2v12q-9 3 -24.5 9.5t-54.5 33t-68.5 59.5t-54 91.5t-24.5 127.5q0 78 34.5 148t98 124t162 86t217.5 32t217.5 -32t162 -86t98 -124t34.5 -148q0 -50 -12.5 -95t-32.5 -76.5
t-43.5 -58t-47.5 -43t-44 -28t-32 -16.5l-13 -4v-12q6 -1 16.5 -4t40 -15t57 -28t60.5 -45.5t56.5 -65t40 -89.5t16.5 -116q0 -85 -38.5 -162t-109.5 -137t-181.5 -95.5t-244.5 -35.5t-244.5 35.5t-181 95.5t-109 137t-38.5 162zM348 1065q0 -89 70 -147t196 -58t196.5 58
t70.5 147q0 81 -71 138t-196 57t-195.5 -57t-70.5 -138zM287 410q0 -98 86.5 -167t240.5 -69t241 69t87 167t-87 166.5t-241 68.5t-240.5 -68.5t-86.5 -166.5z" />
    <glyph glyph-name="afii10029.alt" horiz-adv-x="1495" 
d="M10 0v225q31 -20 82 -20q54 0 90.5 20t66.5 73t44 154t14 255v727h1045v-1434h-236v1208h-573v-501q0 -166 -19.5 -291.5t-54 -208t-86.5 -133.5t-112.5 -72.5t-137.5 -21.5q-32 0 -62.5 5t-45.5 10z" />
    <glyph glyph-name="afii10077.alt" horiz-adv-x="1208" 
d="M10 10v195q31 -21 82 -21q73 0 108.5 50.5t35.5 175.5v634h849v-1044h-215v850h-419v-440q0 -208 -87 -314t-231 -106q-36 0 -67 5t-44 10z" />
    <glyph glyph-name="afii10028.alt" horiz-adv-x="1402" 
d="M143 0v1434h236v-594h379q76 0 120 41.5t44 111.5v133q0 148 90.5 233t257.5 85h61v-205h-61q-54 0 -83.5 -29.5t-29.5 -83.5v-153q0 -55 -17 -99t-41 -68.5t-48 -41t-41 -22.5l-17 -5v-10q8 -2 20 -6.5t44 -24.5t56.5 -46t44.5 -74t20 -105v-164q0 -54 29 -83t83 -29h62
v-205h-62q-167 0 -257.5 84.5t-90.5 232.5v154q0 70 -44 111.5t-120 41.5h-399v-614h-236z" />
    <glyph glyph-name="afii10076.alt" horiz-adv-x="1095" 
d="M123 0v1044h215v-419h256q47 0 74.5 29.5t27.5 82.5v103q0 215 277 215h51v-185h-41q-39 0 -60.5 -23.5t-21.5 -68.5v-102q0 -50 -28.5 -86t-56.5 -47l-28 -11v-10q5 -1 14.5 -4t32.5 -15.5t40.5 -29t32 -47.5t14.5 -68v-92q0 -45 21.5 -68.5t60.5 -23.5h40v-184h-51
q-276 0 -276 215v112q0 53 -28 83t-75 30h-276v-430h-215z" />
    <glyph glyph-name="afii10024.alt" horiz-adv-x="2058" 
d="M51 -10v205h62q54 0 83 29t29 83v164q0 57 19 104.5t46.5 74.5t54.5 45.5t46 24.5l19 7v10q-7 2 -18 6t-39 21.5t-50 41t-39.5 68t-17.5 99.5v153q0 54 -29.5 83.5t-83.5 29.5h-61v205h61q167 0 257.5 -85t90.5 -233v-133q0 -70 44 -111.5t120 -41.5h266v594h236v-594
h266q76 0 120 41.5t44 111.5v133q0 148 90.5 233t257.5 85h62v-205h-62q-54 0 -83.5 -29.5t-29.5 -83.5v-153q0 -55 -17 -99t-41 -68.5t-47.5 -41t-40.5 -22.5l-17 -5v-10q7 -2 19.5 -6.5t44.5 -24.5t56 -46t44 -74t20 -105v-164q0 -54 29.5 -83t83.5 -29h61v-205h-61
q-167 0 -258 84.5t-91 232.5v154q0 70 -43.5 111.5t-119.5 41.5h-287v-614h-236v614h-286q-76 0 -120 -41.5t-44 -111.5v-154q0 -148 -90.5 -232.5t-257.5 -84.5h-62z" />
    <glyph glyph-name="afii10072.alt" horiz-adv-x="1628" 
d="M51 -10v184h41q39 0 60.5 23.5t21.5 68.5v92q0 37 13.5 67.5t33 48t39.5 29t34 15.5l13 4v10q-5 1 -12.5 4t-26.5 14.5t-34 26t-27 41t-12 58.5v102q0 45 -21.5 68.5t-60.5 23.5h-41v185h51q276 0 276 -215v-103q0 -53 28 -82.5t75 -29.5h205v419h215v-419h204
q47 0 75 29.5t28 82.5v103q0 215 276 215h51v-185h-40q-39 0 -60.5 -23.5t-21.5 -68.5v-102q0 -32 -11.5 -58.5t-28 -41.5t-33.5 -25.5t-29 -14.5l-11 -4v-10q5 -1 14 -4t32 -15.5t40.5 -29t32 -47.5t14.5 -68v-92q0 -45 21.5 -68.5t60.5 -23.5h41v-184h-51q-277 0 -277 215
v112q0 53 -28 83t-74 30h-225v-430h-215v430h-226q-46 0 -74 -30t-28 -83v-112q0 -215 -277 -215h-51z" />
    <glyph glyph-name="afii10021.alt" horiz-adv-x="1566" 
d="M10 -266v491h133q74 33 114 149t40 353v707h1024v-1209h195v-491h-226v266h-1054v-266h-226zM410 225h675v983h-553v-481q0 -103 -12.5 -193t-30.5 -144t-36 -93.5t-31 -55.5z" />
    <glyph glyph-name="afii10069.alt" horiz-adv-x="1208" 
d="M10 -225v420h103q4 1 10 4.5t22 22t28 45.5t22 81t10 123v573h819v-849h143v-420h-204v225h-748v-225h-205zM338 195h471v655h-389v-379q0 -55 -8.5 -103t-20.5 -78t-24 -52t-21 -32l-8 -9v-2z" />
    <glyph glyph-name="seven.tab" horiz-adv-x="1228" 
d="M92 1004v430h1065v-226l-594 -1208h-256l594 1188v20h-573v-204h-236z" />
    <glyph glyph-name="six.tab" horiz-adv-x="1228" 
d="M72 471q0 45 9.5 91.5t19.5 82t35.5 84t38.5 72.5t48.5 74.5t45.5 64t48 64.5l328 430h277l-310 -404l-90 -78v-10q51 31 174 31q98 0 187 -38.5t154 -104.5t103 -159.5t38 -199.5q0 -107 -40.5 -201t-112.5 -162.5t-175.5 -108.5t-224.5 -40t-224.5 40t-175.5 108.5
t-112.5 162.5t-40.5 201zM317 471q0 -131 85.5 -214t222.5 -83t222 83t85 214t-85 214t-222 83t-222.5 -83t-85.5 -214z" />
    <glyph glyph-name="ff.alt" horiz-adv-x="1290" 
d="M41 850v194h123v41q0 167 86.5 258t241.5 91h174v-195h-154q-70 0 -101.5 -35t-31.5 -119v-41h409v41q0 167 86.5 258t241.5 91h195v-195h-174q-70 0 -101.5 -35t-31.5 -119v-41h245v-194h-245v-850h-216v850h-409v-850h-215v850h-123z" />
    <glyph glyph-name="fi.alt" horiz-adv-x="1126" 
d="M41 850v194h123v41q0 167 86.5 258t241.5 91h368v-195h-348q-70 0 -101.5 -35t-31.5 -119v-41h625v-1044h-216v850h-409v-850h-215v850h-123z" />
    <glyph glyph-name="fl.alt" horiz-adv-x="1146" 
d="M41 850v194h123v41q0 158 117.5 263.5t312.5 105.5t312.5 -105.5t117.5 -263.5v-1085h-215v1085q0 79 -55.5 127t-159.5 48t-159.5 -48t-55.5 -127v-41h246v-194h-246v-850h-215v850h-123z" />
    <glyph glyph-name="f_j.alt" horiz-adv-x="1126" 
d="M41 850v194h123v41q0 167 86.5 258t241.5 91h368v-195h-348q-70 0 -101.5 -35t-31.5 -119v-41h625v-1085q0 -167 -86.5 -257.5t-241.5 -90.5h-164v194h143q70 0 101.5 35t31.5 119v891h-409v-850h-215v850h-123z" />
    <glyph glyph-name="f_t.alt" horiz-adv-x="1413" 
d="M41 850v194h123v41q0 158 117.5 263.5t312.5 105.5t312.5 -105.5t117.5 -263.5v-41h317v-194h-317v-502q0 -83 31.5 -118t101.5 -35h195v-195h-215q-155 0 -241.5 90.5t-86.5 257.5v502h-430v-850h-215v850h-123zM379 1044h430v41q0 79 -55.5 127t-159.5 48t-159.5 -48
t-55.5 -127v-41z" />
    <glyph glyph-name="f.alt" horiz-adv-x="665" 
d="M41 850v194h123v41q0 167 86.5 258t241.5 91h194v-195h-174q-70 0 -101.5 -35t-31.5 -119v-41h246v-194h-246v-850h-215v850h-123z" />
    <glyph glyph-name="j.alt" horiz-adv-x="471" 
d="M113 1325q0 54 36.5 91.5t90.5 37.5t91.5 -37.5t37.5 -91.5t-37.5 -90.5t-91.5 -36.5t-90.5 36.5t-36.5 90.5zM-174 -389v194h174q70 0 101.5 35t31.5 119v1085h215v-1085q0 -167 -86.5 -257.5t-241.5 -90.5h-194z" />
    <glyph glyph-name="afii10051.alt" horiz-adv-x="1617" 
d="M20 1208v226h1076v-226h-430v-327h327q251 0 397 -138t146 -364v-143q0 -226 -146 -364t-397 -138h-2v225h2q145 0 226 77.5t81 209.5v123q0 132 -81 209t-226 77h-327v-655h-236v1208h-410z" />
    <glyph glyph-name="afii10099.alt" horiz-adv-x="1208" 
d="M20 1044v195h123v195h215v-195h246v-195h-246v-327h11q4 7 11.5 18t36 39t62.5 50t92.5 39.5t124.5 17.5q194 0 302 -114t108 -327v-481q0 -160 -90 -254t-238 -94h-164v194h144q70 0 101.5 35t31.5 119v461q0 137 -61 201.5t-185 64.5t-205.5 -85t-81.5 -222v-379h-215
v1044h-123z" />
    <glyph glyph-name="afii10105.alt" horiz-adv-x="471" 
d="M113 1325q0 54 36.5 91.5t90.5 37.5t91.5 -37.5t37.5 -91.5t-37.5 -90.5t-91.5 -36.5t-90.5 36.5t-36.5 90.5zM-174 -389v194h174q70 0 101.5 35t31.5 119v1085h215v-1085q0 -167 -86.5 -257.5t-241.5 -90.5h-194z" />
    <glyph glyph-name="tcaron.alt" horiz-adv-x="768" 
d="M481 1171q0 52 35.5 85.5t93.5 33.5q66 0 107 -45.5t41 -128.5q0 -276 -266 -276v102q66 0 99.5 25.5t33.5 66.5l-2 27q-19 -6 -39 -6q-47 0 -75 30t-28 86zM41 850v194h123v226h215v-922q0 -83 31.5 -118t101.5 -35h195v-195h-215q-155 0 -241.5 90.5t-86.5 257.5v502
h-123z" />
    <glyph glyph-name="tcommaaccent.alt" horiz-adv-x="768" 
d="M41 850v194h123v226h215v-226h317v-194h-317v-502q0 -83 31.5 -118t101.5 -35h195v-195h-215q-155 0 -241.5 90.5t-86.5 257.5v502h-123zM317 -324q0 52 35.5 85.5t93.5 33.5q66 0 107 -45.5t41 -128.5q0 -276 -266 -276v102q66 0 99.5 25.5t33.5 66.5l-2 27
q-19 -6 -39 -6q-47 0 -75 30t-28 86z" />
    <glyph glyph-name="uni021B.alt" horiz-adv-x="768" 
d="M41 850v194h123v226h215v-226h317v-194h-317v-502q0 -83 31.5 -118t101.5 -35h195v-195h-215q-155 0 -241.5 90.5t-86.5 257.5v502h-123zM317 -324q0 52 35.5 85.5t93.5 33.5q66 0 107 -45.5t41 -128.5q0 -276 -266 -276v102q66 0 99.5 25.5t33.5 66.5l-2 27
q-19 -6 -39 -6q-47 0 -75 30t-28 86z" />
    <glyph glyph-name="t.alt" horiz-adv-x="768" 
d="M41 850v194h123v226h215v-226h317v-194h-317v-502q0 -83 31.5 -118t101.5 -35h195v-195h-215q-155 0 -241.5 90.5t-86.5 257.5v502h-123z" />
    <glyph glyph-name="afii10058.alt" horiz-adv-x="2293" 
d="M10 0v225q31 -20 82 -20q54 0 90.5 20t66.5 73t44 154t14 255v727h1004v-471h368q165 0 292 -65t194 -174.5t67 -242.5t-67 -242t-194 -174t-292 -65h-604v1208h-532v-501q0 -166 -19.5 -291.5t-54 -208t-86.5 -133.5t-112.5 -72.5t-137.5 -21.5q-32 0 -62.5 5t-45.5 10z
M1311 225h368q150 0 229 68.5t79 187.5t-79 187.5t-229 68.5h-368v-512z" />
    <glyph glyph-name="afii10061.alt" horiz-adv-x="1402" 
d="M143 0v1434h236v-594h379q76 0 120 41.5t44 111.5v133q0 148 90.5 233t257.5 85h61v-205h-61q-54 0 -83.5 -29.5t-29.5 -83.5v-153q0 -55 -17 -99t-41 -68.5t-48 -41t-41 -22.5l-17 -5v-10q8 -2 20 -6.5t44 -24.5t56.5 -46t44.5 -74t20 -105v-164q0 -54 29 -83t83 -29h62
v-205h-62q-167 0 -257.5 84.5t-90.5 232.5v154q0 70 -44 111.5t-120 41.5h-399v-614h-236zM604 1587l164 297h256v-2l-236 -295h-184z" />
    <glyph glyph-name="afii10106.alt" horiz-adv-x="1720" 
d="M10 10v195q31 -21 82 -21q73 0 108.5 50.5t35.5 175.5v634h808v-348h236q181 0 290 -99t109 -249t-109 -249t-290 -99h-451v850h-378v-440q0 -208 -87 -314t-231 -106q-36 0 -67 5t-44 10zM1044 195h236q83 0 128.5 41.5t45.5 111.5t-45.5 112t-128.5 42h-236v-307z" />
    <glyph glyph-name="afii10109.alt" horiz-adv-x="1095" 
d="M123 0v1044h215v-419h256q47 0 74.5 29.5t27.5 82.5v103q0 215 277 215h51v-185h-41q-39 0 -60.5 -23.5t-21.5 -68.5v-102q0 -50 -28.5 -86t-56.5 -47l-28 -11v-10q5 -1 14.5 -4t32.5 -15.5t40.5 -29t32 -47.5t14.5 -68v-92q0 -45 21.5 -68.5t60.5 -23.5h40v-184h-51
q-276 0 -276 215v112q0 53 -28 83t-75 30h-276v-430h-215zM451 1188l163 297h256v-2l-235 -295h-184z" />
    <glyph glyph-name="florin.alt" horiz-adv-x="747" 
d="M-195 -389v194h175q80 0 111 28.5t44 125.5l125 891h-106v194h133l6 41q52 349 377 349h159v-195h-165q-77 0 -110 -31.5t-46 -122.5l-6 -41h235v-194h-262l-125 -891q-49 -348 -377 -348h-168z" />
    <glyph glyph-name="T_A" horiz-adv-x="1607" 
d="M20 1208v226h1178l379 -1434h-246l-98 369h-506v-369h-235v1208h-472zM727 594h449l-162 614h-287v-614z" />
    <glyph glyph-name="A_A" horiz-adv-x="2488" 
d="M31 0l368 1434h584l242 -983l4 -21h20l4 21l242 983h584l379 -1434h-246l-98 369h-660l-92 -369h-246l-98 369h-660l-92 -369h-235zM1516 594h540l-162 614h-225zM420 594h541l-162 614h-226z" />
    <glyph glyph-name="J_A" horiz-adv-x="1863" 
d="M0 307l236 51q2 -8 6.5 -21t23.5 -46.5t44 -59t70.5 -46.5t100.5 -21q125 0 196 76.5t71 220.5v973h706l379 -1434h-246l-98 369h-516q-23 -200 -154 -315t-338 -115q-81 0 -152 20.5t-118.5 53t-86 71.5t-61 78t-37.5 71.5t-20 52.5zM983 594h449l-162 614h-287v-614z
" />
    <glyph glyph-name="O_L_I" horiz-adv-x="2867" 
d="M82 717q0 159 58.5 299.5t160 241t244.5 159t305 58.5t305 -58.5t244.5 -159t160 -241t58.5 -299.5t-58.5 -299.5t-160 -241t-244.5 -159t-305 -58.5t-305 58.5t-244.5 159t-160 241t-58.5 299.5zM328 717q0 -237 145.5 -385t376.5 -148t376.5 148t145.5 385
t-145.5 384.5t-376.5 147.5t-376.5 -147.5t-145.5 -384.5zM2488 389v1045h236v-1045h-236zM1761 0v1434h236v-1209h727v-225h-963z" />
    <glyph glyph-name="D_E" horiz-adv-x="2211" 
d="M143 0v1434h1997v-226h-993v-10q8 -5 21.5 -14.5t49 -43.5t65 -72t59 -100t40.5 -128h605v-226h-605q-9 -74 -36 -140.5t-60 -108t-65 -72.5t-53 -44l-21 -13v-11h993v-225h-1997zM379 225h246q236 0 379 137.5t143 354.5t-143 354t-379 137h-246v-983z" />
    <glyph glyph-name="A_R" horiz-adv-x="2150" 
d="M31 0l368 1434h1106q254 0 403.5 -131.5t149.5 -329.5q0 -157 -97 -276.5t-271 -164.5l358 -532h-276l-338 512h-318v-512h-235v512h-486l-129 -512h-235zM1116 737h389q156 0 231.5 62t75.5 174q0 111 -75.5 173t-231.5 62h-389v-471zM457 737h424v471h-308z" />
    <glyph glyph-name="N_A" horiz-adv-x="2211" 
d="M143 0v1434h338l615 -1137h20l-20 162v975h706l379 -1434h-246l-98 369h-506v-369h-338l-614 1137h-21l21 -174v-963h-236zM1331 594h449l-162 614h-287v-614z" />
    <glyph glyph-name="Aacute.alt2" horiz-adv-x="1392" 
d="M31 0l368 1434h205v256h287v-2l-92 -254h184l379 -1434h-246l-98 369h-660l-92 -369h-235zM420 594h541l-162 614h-226z" />
    <glyph glyph-name="Eacute.alt2" horiz-adv-x="1249" 
d="M143 0v1434h430v256h287v-2l-92 -254h410v-226h-799v-368h645v-226h-645v-389h799v-225h-1035z" />
    <glyph glyph-name="Iacute.alt2" horiz-adv-x="522" 
d="M164 1434v256h287v-2l-93 -254h-194zM143 0v1311h236v-1311h-236z" />
    <glyph glyph-name="Oacute.alt2" horiz-adv-x="1699" 
d="M82 717q0 294 187.5 505t478.5 242v226h286v-2l-82 -224q192 -20 344.5 -124t237 -267.5t84.5 -355.5q0 -159 -58.5 -299.5t-160 -241t-244.5 -159t-305 -58.5t-305 58.5t-244.5 159t-160 241t-58.5 299.5zM328 717q0 -237 145.5 -385t376.5 -148t376.5 148t145.5 385
t-145.5 384.5t-376.5 147.5t-376.5 -147.5t-145.5 -384.5z" />
    <glyph glyph-name="Uacute.alt2" horiz-adv-x="1433" 
d="M625 1434v256h286v-2l-92 -254h-194zM133 553v881h236v-881q0 -176 92.5 -272.5t255.5 -96.5t255.5 96.5t92.5 272.5v881h235v-881q0 -276 -157 -435t-426 -159t-426.5 159t-157.5 435z" />
    <glyph glyph-name="Yacute.alt2" horiz-adv-x="1331" 
d="M584 1434v256h286v-2l-92 -254h-194zM0 1434h276l390 -656h20l379 656h266l-543 -902v-532h-235v532z" />
    <glyph glyph-name="afii10056.alt" horiz-adv-x="1054" 
d="M82 0v225h328v983h-328v226h891v-226h-328v-983h328v-225h-891zM594 1710q0 54 34.5 88.5t88.5 34.5t88.5 -34.5t34.5 -88.5t-34.5 -88.5t-88.5 -34.5t-88.5 34.5t-34.5 88.5zM215 1710q0 54 34.5 88.5t88.5 34.5t88.5 -34.5t34.5 -88.5t-34.5 -88.5t-88.5 -34.5
t-88.5 34.5t-34.5 88.5z" />
    <glyph glyph-name="afii10055.alt" horiz-adv-x="1054" 
d="M82 0v225h328v983h-328v226h891v-226h-328v-983h328v-225h-891z" />
    <glyph glyph-name="five.tab" horiz-adv-x="1228" 
d="M72 399h245l3 -12t12 -30.5t23.5 -42.5t39 -45t57 -43t79.5 -30t104 -12q136 0 216.5 74.5t80.5 192.5q0 124 -80 200t-217 76q-57 0 -107 -13.5t-79.5 -33.5t-51.5 -39.5t-31 -32.5l-8 -14h-225l62 840h870v-226h-676l-31 -368h11q4 5 12 12.5t37 26.5t61.5 34t86 27
t110.5 12q215 0 358.5 -143t143.5 -358q0 -211 -150.5 -351.5t-392.5 -140.5q-102 0 -188.5 24.5t-143 63t-100.5 85.5t-68 94t-39 85.5t-20 62.5z" />
    <glyph glyph-name="a.sc" horiz-adv-x="1310" 
d="M31 0l346 1229h557l346 -1229h-236l-81 297h-615l-82 -297h-235zM410 522h491l-133 482h-225z" />
    <glyph glyph-name="aacute.sc" horiz-adv-x="1310" 
d="M31 0l346 1229h557l346 -1229h-236l-81 297h-615l-82 -297h-235zM410 522h491l-133 482h-225zM553 1413l164 297h256v-2l-236 -295h-184z" />
    <glyph glyph-name="abreve.sc" horiz-adv-x="1310" 
d="M31 0l346 1229h557l346 -1229h-236l-81 297h-615l-82 -297h-235zM410 522h491l-133 482h-225zM338 1679h174q0 -112 143 -112q144 0 144 112h174q0 -120 -81 -193t-237 -73t-236.5 73t-80.5 193z" />
    <glyph glyph-name="acircumflex.sc" horiz-adv-x="1310" 
d="M31 0l346 1229h557l346 -1229h-236l-81 297h-615l-82 -297h-235zM410 522h491l-133 482h-225zM317 1415l236 295h215l236 -295v-2h-195l-133 174h-31l-133 -174h-195v2z" />
    <glyph glyph-name="adieresis.sc" horiz-adv-x="1310" 
d="M31 0l346 1229h557l346 -1229h-236l-81 297h-615l-82 -297h-235zM410 522h491l-133 482h-225zM717 1546q0 54 34.5 88.5t88.5 34.5t88.5 -34.5t34.5 -88.5t-34.5 -88.5t-88.5 -34.5t-88.5 34.5t-34.5 88.5zM338 1546q0 54 34.5 88.5t88.5 34.5t88.5 -34.5t34.5 -88.5
t-34.5 -88.5t-88.5 -34.5t-88.5 34.5t-34.5 88.5z" />
    <glyph glyph-name="agrave.sc" horiz-adv-x="1310" 
d="M31 0l346 1229h557l346 -1229h-236l-81 297h-615l-82 -297h-235zM410 522h491l-133 482h-225zM338 1710h256l164 -297h-185l-235 295v2z" />
    <glyph glyph-name="amacron.sc" horiz-adv-x="1310" 
d="M31 0l346 1229h557l346 -1229h-236l-81 297h-615l-82 -297h-235zM410 522h491l-133 482h-225zM369 1444v174h573v-174h-573z" />
    <glyph glyph-name="aogonek.sc" horiz-adv-x="1310" 
d="M31 0l346 1229h557l346 -1229q-10 -5 -26.5 -14t-59 -38t-75 -58.5t-59 -72.5t-26.5 -83q0 -39 23.5 -60.5t68.5 -21.5q32 0 68 10t56 20l20 11v-133q-62 -41 -154 -41q-225 0 -225 194q0 52 26.5 100.5t64 80.5t75 57.5t63.5 36.5l27 12h-103l-81 297h-615l-82 -297
h-235zM410 522h491l-133 482h-225z" />
    <glyph glyph-name="aring.sc" horiz-adv-x="1310" 
d="M31 0l346 1229h557l346 -1229h-236l-81 297h-615l-82 -297h-235zM410 522h491l-133 482h-225zM430 1567q0 93 63 154t162 61q93 0 159.5 -62t66.5 -153t-66.5 -153t-159.5 -62q-99 0 -162 61t-63 154zM543 1567q0 -50 31.5 -81.5t80.5 -31.5t81 32t32 81t-31.5 80.5
t-81.5 31.5q-49 0 -80.5 -31.5t-31.5 -80.5z" />
    <glyph glyph-name="atilde.sc" horiz-adv-x="1310" 
d="M31 0l346 1229h557l346 -1229h-236l-81 297h-615l-82 -297h-235zM410 522h491l-133 482h-225zM317 1423v62q0 85 56.5 139.5t148.5 54.5q48 0 90 -17.5t66 -38.5t53.5 -38.5t56.5 -17.5q23 0 37.5 14t14.5 37v51h153v-61q0 -85 -56.5 -140t-148.5 -55q-48 0 -90 17.5
t-66 39t-53.5 39t-56.5 17.5q-23 0 -37 -14t-14 -37v-52h-154z" />
    <glyph glyph-name="ae.sc" horiz-adv-x="1802" 
d="M31 0l348 1229h1352v-225h-656v-267h533v-225h-533v-287h656v-225h-891v297h-492l-82 -297h-235zM410 522h430v482h-297z" />
    </font>
</defs>
</svg>
