<svg width="72" height="72" viewBox="0 0 72 72" fill="none" xmlns="http://www.w3.org/2000/svg"><circle opacity=".1" cx="36" cy="36" r="36" fill="#ED5151"/><path opacity=".6" fill-rule="evenodd" clip-rule="evenodd" d="M50 53H32.728l16-16H50a4 4 0 014 4v8a4 4 0 01-4 4z" fill="#ED5151"/><path opacity=".8" fill-rule="evenodd" clip-rule="evenodd" d="M37.67 23.078a4 4 0 015.657 0l5.657 5.657a4 4 0 010 5.657L37.001 46.375V23.749l.67-.67z" fill="#ED5151"/><path fill-rule="evenodd" clip-rule="evenodd" d="M23 18a4 4 0 00-4 4v23a8 8 0 1016 0V22a4 4 0 00-4-4h-8zm4 30a3 3 0 100-6 3 3 0 000 6z" fill="#ED5151"/></svg>