<svg width="72" height="72" viewBox="0 0 72 72" fill="none" xmlns="http://www.w3.org/2000/svg"><circle opacity=".1" cx="36" cy="36" r="36" fill="#EEE"/><path opacity=".6" fill-rule="evenodd" clip-rule="evenodd" d="M27 15.5a4.5 4.5 0 014.5 4.5v20.5H52a4.5 4.5 0 110 9H27a4.5 4.5 0 01-4.5-4.5V20a4.5 4.5 0 014.5-4.5z" fill="#EEE"/><path fill-rule="evenodd" clip-rule="evenodd" d="M45 56.5a4.5 4.5 0 01-4.5-4.5V31.5H20a4.5 4.5 0 110-9h25a4.5 4.5 0 014.5 4.5v25a4.5 4.5 0 01-4.5 4.5z" fill="#EEE"/></svg>