<svg width="93" height="45" viewBox="0 0 93 45" fill="none" xmlns="http://www.w3.org/2000/svg"><path d="M1.916 31.094c3.41-1.895 6.819-3.79 10.271-5.553 1.08-.529 2.33-.793 3.54-.97.517-.088 1.294.088 1.596.485.259.265.13 1.146-.13 1.543a23.685 23.685 0 01-2.373 3.129c-2.935 3.437-5.913 6.831-8.847 10.269-.777.925-3.445 2.867-2.029 3.04 4.866.598 14.387-12.865 17.09-16.174 1.13-1.39 13.825-17.2 14.689-16.395.89.83-7.092 11.583-7.941 12.913a580.85 580.85 0 00-6.776 11.063c-.431.705-.733 1.498-.992 2.291-.302.882.043 1.322.906.97 1.554-.661 3.15-1.41 4.575-2.38 1.824-1.22 5.389-3.195 8.027-6.126 4.567-5.075 7.37-11.877 11.911-17.188C47.981 9.043 54.434-1.271 59.2 1.74c3.615 2.374-10.777 16.83-12.256 18.29-3.15 3.086-6.517 5.774-9.883 8.55-1.166.97-2.374 1.72-2.504 3.439-.172 1.939.82 3.173 2.676 2.732 1.986-.44 3.928-1.19 5.827-1.94C47.925 30.887 59.5 21 58.724 23.206c-.904 2.577-2.976 3.657-4.574 5.289C52.77 29.948 51 33.5 51.475 34.003c.933.987 9.355-2.131 11.135-2.027.69.044 1.337.132 1.985.264 4.014.661 7.639-.573 11.35-1.94 5.265-1.939 10.617-3.57 15.925-5.332" stroke="#fff" stroke-width="2" stroke-linecap="round" stroke-linejoin="round"/></svg>