<svg width="34" height="38" viewBox="0 0 34 38" fill="none" xmlns="http://www.w3.org/2000/svg"><g filter="url(#filter0_d)"><path fill-rule="evenodd" clip-rule="evenodd" d="M5 3h4v10h12v6h2V3h4v16h2v6h-2v4h-2v2H9v-2H7v-4H5V3z" fill="#FFD333"/><path fill="#000" d="M3 3h2v22H3zM27 3h2v14h-2zM29 19h2v6h-2zM13 19h2v4h-2zM27 25h2v4h-2zM25 29h2v2h-2zM7 29h2v2H7zM11 17h4v2h-4zM5 25h2v4H5zM15 13h2v4h-2zM9 3h2v14H9zM21 3h2v14h-2zM5 1h4v2H5zM15 23h6v2h-6zM23 1h4v2h-4zM9 31h16v2H9zM15 17h14v2H15zM11 11h4v2h-4z"/><path fill="#000" d="M17 11h5v2h-5z"/></g><defs><filter id="filter0_d" x="0" y="0" width="34" height="38" filterUnits="userSpaceOnUse" color-interpolation-filters="sRGB"><feFlood flood-opacity="0" result="BackgroundImageFix"/><feColorMatrix in="SourceAlpha" values="0 0 0 0 0 0 0 0 0 0 0 0 0 0 0 0 0 0 127 0"/><feOffset dy="2"/><feGaussianBlur stdDeviation="1.5"/><feColorMatrix values="0 0 0 0 0 0 0 0 0 0 0 0 0 0 0 0 0 0 0.2 0"/><feBlend in2="BackgroundImageFix" result="effect1_dropShadow"/><feBlend in="SourceGraphic" in2="effect1_dropShadow" result="shape"/></filter></defs></svg>