<svg width="72" height="72" viewBox="0 0 72 72" fill="none" xmlns="http://www.w3.org/2000/svg"><path d="M35.72 24.921L50.079 39.28a3 3 0 010 4.242L35.721 57.88c-1.89 1.89-5.121.551-5.121-2.122V27.043c0-2.673 3.231-4.012 5.12-2.122z" fill="url(#paint0_linear)"/><path d="M36.279 14.121L21.922 28.48a3 3 0 000 4.242L36.279 47.08c1.89 1.89 5.121.551 5.121-2.121V16.243c0-2.673-3.231-4.011-5.121-2.121z" fill="url(#paint1_linear)"/><path d="M41.4 30.6l-5.68-5.679c-1.889-1.89-5.12-.551-5.12 2.122V41.4l5.678 5.679c1.89 1.89 5.122.551 5.122-2.122V30.6z" fill="#fff"/><defs><linearGradient id="paint0_linear" x1="29.42" y1="41.4" x2="70.405" y2="65.555" gradientUnits="userSpaceOnUse"><stop stop-color="#0AF"/><stop offset="1" stop-color="#5F0"/></linearGradient><linearGradient id="paint1_linear" x1="41.4" y1="4.37" x2="-2.481" y2="22.474" gradientUnits="userSpaceOnUse"><stop stop-color="#F0F"/><stop offset="1" stop-color="#FA0"/></linearGradient></defs></svg>