<svg id="target" width="72" height="72" viewBox="0 0 72 72" fill="none" xmlns="http://www.w3.org/2000/svg">
<circle opacity="0.1" cx="36" cy="36" r="36" fill="#FD53B4"/>
<path opacity="0.6" fill-rule="evenodd" clip-rule="evenodd" d="M24 34C26.2091 34 28 35.7909 28 38V39C28 41.7614 30.2386 44 33 44H34C36.2091 44 38 45.7909 38 48C38 50.2091 36.2091 52 34 52H33C25.8203 52 20 46.1797 20 39V38C20 35.7909 21.7909 34 24 34Z" fill="#FD53B4"/>
<path opacity="0.6" fill-rule="evenodd" clip-rule="evenodd" d="M48 38C45.7909 38 44 36.2091 44 34V33C44 30.2386 41.7614 28 39 28H38C35.7909 28 34 26.2091 34 24C34 21.7909 35.7909 20 38 20H39C46.1797 20 52 25.8203 52 33V34C52 36.2091 50.2091 38 48 38Z" fill="#FD53B4"/>
<rect x="40" y="40" width="16" height="16" rx="4" fill="#FD53B4"/>
<rect x="16" y="16" width="16" height="16" rx="4" fill="#FD53B4"/>
</svg>
